<?xml version="1.0" encoding="UTF-8" standalone="no"?>
<!DOCTYPE svg PUBLIC "-//W3C//DTD SVG 1.1//EN"
 "http://www.w3.org/Graphics/SVG/1.1/DTD/svg11.dtd">
<!-- Generated by graphviz version 2.40.1 (20161225.0304)
 -->
<!-- Title: /home/travis/build/AliceO2Group/AliceO2/DataFormats/Reconstruction/src/Track.cxx Pages: 1 -->
<svg width="2638pt" height="575pt"
 viewBox="0.00 0.00 2637.63 575.00" xmlns="http://www.w3.org/2000/svg" xmlns:xlink="http://www.w3.org/1999/xlink">
<g id="graph0" class="graph" transform="scale(1 1) rotate(0) translate(4 571)">
<title>/home/travis/build/AliceO2Group/AliceO2/DataFormats/Reconstruction/src/Track.cxx</title>
<!-- Node0 -->
<g id="node1" class="node">
<title>Node0</title>
<polygon fill="#bfbfbf" stroke="#000000" points="2118.1336,-514.5 2118.1336,-566.5 2276.1336,-566.5 2276.1336,-514.5 2118.1336,-514.5"/>
<text text-anchor="start" x="2126.1336" y="-554.5" font-family="Helvetica,sans-Serif" font-size="10.00" fill="#000000">/home/travis/build</text>
<text text-anchor="start" x="2126.1336" y="-543.5" font-family="Helvetica,sans-Serif" font-size="10.00" fill="#000000">/AliceO2Group/AliceO2</text>
<text text-anchor="start" x="2126.1336" y="-532.5" font-family="Helvetica,sans-Serif" font-size="10.00" fill="#000000">/DataFormats/Reconstruction</text>
<text text-anchor="middle" x="2197.1336" y="-521.5" font-family="Helvetica,sans-Serif" font-size="10.00" fill="#000000">/src/Track.cxx</text>
</g>
<!-- Node1 -->
<g id="node2" class="node">
<title>Node1</title>
<g id="a_node2"><a xlink:href="../../d7/d8b/DataFormats_2Reconstruction_2include_2ReconstructionDataFormats_2Track_8h.html" target="_top" xlink:title="ReconstructionDataFormats\l/Track.h">
<polygon fill="none" stroke="#000000" points="2055.1336,-447.5 2055.1336,-477.5 2207.1336,-477.5 2207.1336,-447.5 2055.1336,-447.5"/>
<text text-anchor="start" x="2063.1336" y="-465.5" font-family="Helvetica,sans-Serif" font-size="10.00" fill="#000000">ReconstructionDataFormats</text>
<text text-anchor="middle" x="2131.1336" y="-454.5" font-family="Helvetica,sans-Serif" font-size="10.00" fill="#000000">/Track.h</text>
</a>
</g>
</g>
<!-- Node0&#45;&gt;Node1 -->
<g id="edge1" class="edge">
<title>Node0&#45;&gt;Node1</title>
<path fill="none" stroke="#191970" d="M2174.789,-514.0928C2166.8866,-504.7536 2158.071,-494.3351 2150.442,-485.3191"/>
<polygon fill="#191970" stroke="#191970" points="2152.961,-482.8776 2143.8297,-477.5046 2147.6173,-487.3992 2152.961,-482.8776"/>
</g>
<!-- Node17 -->
<g id="node18" class="node">
<title>Node17</title>
<polygon fill="none" stroke="#bfbfbf" points="2077.1336,-185 2077.1336,-204 2137.1336,-204 2137.1336,-185 2077.1336,-185"/>
<text text-anchor="middle" x="2107.1336" y="-192" font-family="Helvetica,sans-Serif" font-size="10.00" fill="#000000">iostream</text>
</g>
<!-- Node0&#45;&gt;Node17 -->
<g id="edge86" class="edge">
<title>Node0&#45;&gt;Node17</title>
<path fill="none" stroke="#191970" d="M2117.9892,-526.5095C2090.5252,-517.4468 2062.53,-502.5321 2046.1336,-478 2038.4775,-466.5452 2043.7367,-460.5677 2046.1336,-447 2060.1247,-367.8028 2094.1424,-356.1972 2108.1336,-277 2111.859,-255.9122 2110.8922,-231.3187 2109.443,-214.5057"/>
<polygon fill="#191970" stroke="#191970" points="2112.8948,-213.8486 2108.4144,-204.2478 2105.9297,-214.5471 2112.8948,-213.8486"/>
</g>
<!-- Node49 -->
<g id="node50" class="node">
<title>Node49</title>
<g id="a_node50"><a xlink:href="../../d3/d6f/DataFormats_2Reconstruction_2include_2ReconstructionDataFormats_2Vertex_8h.html" target="_top" xlink:title="ReconstructionDataFormats\l/Vertex.h">
<polygon fill="none" stroke="#000000" points="999.1336,-380.5 999.1336,-410.5 1151.1336,-410.5 1151.1336,-380.5 999.1336,-380.5"/>
<text text-anchor="start" x="1007.1336" y="-398.5" font-family="Helvetica,sans-Serif" font-size="10.00" fill="#000000">ReconstructionDataFormats</text>
<text text-anchor="middle" x="1075.1336" y="-387.5" font-family="Helvetica,sans-Serif" font-size="10.00" fill="#000000">/Vertex.h</text>
</a>
</g>
</g>
<!-- Node0&#45;&gt;Node49 -->
<g id="edge72" class="edge">
<title>Node0&#45;&gt;Node49</title>
<path fill="none" stroke="#191970" d="M2118.0583,-531.6145C2014.921,-519.9123 1828.909,-498.4206 1670.1336,-478 1488.9033,-454.6914 1277.0313,-424.6429 1161.3555,-407.9989"/>
<polygon fill="#191970" stroke="#191970" points="1161.545,-404.4902 1151.1482,-406.5291 1160.5472,-411.4187 1161.545,-404.4902"/>
</g>
<!-- Node51 -->
<g id="node52" class="node">
<title>Node51</title>
<g id="a_node52"><a xlink:href="../../d7/d99/DCA_8h.html" target="_top" xlink:title="ReconstructionDataFormats\l/DCA.h">
<polygon fill="none" stroke="#000000" points="1481.1336,-313.5 1481.1336,-343.5 1633.1336,-343.5 1633.1336,-313.5 1481.1336,-313.5"/>
<text text-anchor="start" x="1489.1336" y="-331.5" font-family="Helvetica,sans-Serif" font-size="10.00" fill="#000000">ReconstructionDataFormats</text>
<text text-anchor="middle" x="1557.1336" y="-320.5" font-family="Helvetica,sans-Serif" font-size="10.00" fill="#000000">/DCA.h</text>
</a>
</g>
</g>
<!-- Node0&#45;&gt;Node51 -->
<g id="edge81" class="edge">
<title>Node0&#45;&gt;Node51</title>
<path fill="none" stroke="#191970" d="M2118.0118,-525.8097C2019.534,-506.1265 1847.2379,-467.0587 1707.1336,-411 1664.3719,-393.8902 1618.4148,-367.2634 1588.8008,-348.9116"/>
<polygon fill="#191970" stroke="#191970" points="1590.4901,-345.84 1580.1565,-343.5016 1586.7764,-351.7737 1590.4901,-345.84"/>
</g>
<!-- Node52 -->
<g id="node53" class="node">
<title>Node52</title>
<polygon fill="none" stroke="#bfbfbf" points="2225.6336,-453 2225.6336,-472 2300.6336,-472 2300.6336,-453 2225.6336,-453"/>
<text text-anchor="middle" x="2263.1336" y="-460" font-family="Helvetica,sans-Serif" font-size="10.00" fill="#000000">FairLogger.h</text>
</g>
<!-- Node0&#45;&gt;Node52 -->
<g id="edge85" class="edge">
<title>Node0&#45;&gt;Node52</title>
<path fill="none" stroke="#191970" d="M2219.4782,-514.0928C2229.0611,-502.7675 2239.9869,-489.8552 2248.511,-479.7812"/>
<polygon fill="#191970" stroke="#191970" points="2251.2365,-481.9786 2255.0241,-472.0839 2245.8928,-477.4569 2251.2365,-481.9786"/>
</g>
<!-- Node53 -->
<g id="node54" class="node">
<title>Node53</title>
<polygon fill="none" stroke="#bfbfbf" points="2318.6336,-453 2318.6336,-472 2407.6336,-472 2407.6336,-453 2318.6336,-453"/>
<text text-anchor="middle" x="2363.1336" y="-460" font-family="Helvetica,sans-Serif" font-size="10.00" fill="#000000">Math/SMatrix.h</text>
</g>
<!-- Node0&#45;&gt;Node53 -->
<g id="edge87" class="edge">
<title>Node0&#45;&gt;Node53</title>
<path fill="none" stroke="#191970" d="M2252.871,-514.3101C2279.7825,-501.665 2310.9957,-486.9985 2333.3288,-476.5046"/>
<polygon fill="#191970" stroke="#191970" points="2335.0552,-479.5606 2342.6174,-472.1401 2332.0783,-473.2252 2335.0552,-479.5606"/>
</g>
<!-- Node54 -->
<g id="node55" class="node">
<title>Node54</title>
<polygon fill="none" stroke="#bfbfbf" points="2425.6336,-453 2425.6336,-472 2496.6336,-472 2496.6336,-453 2425.6336,-453"/>
<text text-anchor="middle" x="2461.1336" y="-460" font-family="Helvetica,sans-Serif" font-size="10.00" fill="#000000">fmt/printf.h</text>
</g>
<!-- Node0&#45;&gt;Node54 -->
<g id="edge88" class="edge">
<title>Node0&#45;&gt;Node54</title>
<path fill="none" stroke="#191970" d="M2276.1442,-519.3282C2318.1986,-507.7388 2370.6845,-492.7637 2417.1336,-478 2419.7217,-477.1774 2422.3867,-476.3043 2425.064,-475.4082"/>
<polygon fill="#191970" stroke="#191970" points="2426.3705,-478.6604 2434.6982,-472.1106 2424.1037,-472.0376 2426.3705,-478.6604"/>
</g>
<!-- Node55 -->
<g id="node56" class="node">
<title>Node55</title>
<g id="a_node56"><a xlink:href="../../dd/da4/Logger_8h.html" target="_top" xlink:title="Framework/Logger.h">
<polygon fill="none" stroke="#000000" points="2514.6336,-453 2514.6336,-472 2629.6336,-472 2629.6336,-453 2514.6336,-453"/>
<text text-anchor="middle" x="2572.1336" y="-460" font-family="Helvetica,sans-Serif" font-size="10.00" fill="#000000">Framework/Logger.h</text>
</a>
</g>
</g>
<!-- Node0&#45;&gt;Node55 -->
<g id="edge89" class="edge">
<title>Node0&#45;&gt;Node55</title>
<path fill="none" stroke="#191970" d="M2276.339,-525.1835C2338.847,-512.9262 2428.2001,-495.0286 2506.1336,-478 2511.4518,-476.838 2517.0025,-475.5899 2522.5283,-474.3248"/>
<polygon fill="#191970" stroke="#191970" points="2523.4375,-477.707 2532.392,-472.0442 2521.8605,-470.8869 2523.4375,-477.707"/>
</g>
<!-- Node2 -->
<g id="node3" class="node">
<title>Node2</title>
<g id="a_node3"><a xlink:href="../../d2/d45/GPUCommonRtypes_8h.html" target="_top" xlink:title="GPUCommonRtypes.h">
<polygon fill="none" stroke="#000000" points="1539.6336,-252 1539.6336,-271 1664.6336,-271 1664.6336,-252 1539.6336,-252"/>
<text text-anchor="middle" x="1602.1336" y="-259" font-family="Helvetica,sans-Serif" font-size="10.00" fill="#000000">GPUCommonRtypes.h</text>
</a>
</g>
</g>
<!-- Node1&#45;&gt;Node2 -->
<g id="edge2" class="edge">
<title>Node1&#45;&gt;Node2</title>
<path fill="none" stroke="#191970" d="M2091.3726,-447.3923C1991.4514,-409.426 1731.105,-310.5043 1636.8442,-274.6887"/>
<polygon fill="#191970" stroke="#191970" points="1637.8088,-271.3112 1627.2177,-271.031 1635.3225,-277.8547 1637.8088,-271.3112"/>
</g>
<!-- Node4 -->
<g id="node5" class="node">
<title>Node4</title>
<polygon fill="none" stroke="#bfbfbf" points="2130.1336,-56.5 2130.1336,-75.5 2194.1336,-75.5 2194.1336,-56.5 2130.1336,-56.5"/>
<text text-anchor="middle" x="2162.1336" y="-63.5" font-family="Helvetica,sans-Serif" font-size="10.00" fill="#000000">algorithm</text>
</g>
<!-- Node1&#45;&gt;Node4 -->
<g id="edge4" class="edge">
<title>Node1&#45;&gt;Node4</title>
<path fill="none" stroke="#191970" d="M2204.2408,-447.4298C2242.1174,-438.6389 2288.7676,-426.2632 2329.1336,-411 2405.0807,-382.2829 2492.1336,-409.6951 2492.1336,-328.5 2492.1336,-328.5 2492.1336,-328.5 2492.1336,-194.5 2492.1336,-156.8735 2500.9135,-137.3777 2473.1336,-112 2429.5812,-72.2138 2268.2655,-86.0216 2210.1336,-76 2208.2147,-75.6692 2206.2555,-75.3177 2204.2785,-74.9518"/>
<polygon fill="#191970" stroke="#191970" points="2204.8321,-71.494 2194.3495,-73.0318 2203.5031,-78.3667 2204.8321,-71.494"/>
</g>
<!-- Node5 -->
<g id="node6" class="node">
<title>Node5</title>
<polygon fill="none" stroke="#bfbfbf" points="2000.1336,-118 2000.1336,-137 2042.1336,-137 2042.1336,-118 2000.1336,-118"/>
<text text-anchor="middle" x="2021.1336" y="-125" font-family="Helvetica,sans-Serif" font-size="10.00" fill="#000000">array</text>
</g>
<!-- Node1&#45;&gt;Node5 -->
<g id="edge5" class="edge">
<title>Node1&#45;&gt;Node5</title>
<path fill="none" stroke="#191970" d="M2169.0983,-447.4797C2185.9878,-439.0554 2204.8016,-426.9829 2217.1336,-411 2240.4608,-380.7665 2241.1336,-366.6867 2241.1336,-328.5 2241.1336,-328.5 2241.1336,-328.5 2241.1336,-261.5 2241.1336,-223.3133 2244.8093,-205.3112 2217.1336,-179 2166.8184,-131.1655 2131.7453,-162.561 2065.1336,-143 2060.9373,-141.7677 2056.5536,-140.3657 2052.2482,-138.9203"/>
<polygon fill="#191970" stroke="#191970" points="2053.0643,-135.4988 2042.4695,-135.5285 2050.7703,-142.1123 2053.0643,-135.4988"/>
</g>
<!-- Node6 -->
<g id="node7" class="node">
<title>Node6</title>
<polygon fill="none" stroke="#bfbfbf" points="2093.1336,-386 2093.1336,-405 2137.1336,-405 2137.1336,-386 2093.1336,-386"/>
<text text-anchor="middle" x="2115.1336" y="-393" font-family="Helvetica,sans-Serif" font-size="10.00" fill="#000000">cfloat</text>
</g>
<!-- Node1&#45;&gt;Node6 -->
<g id="edge6" class="edge">
<title>Node1&#45;&gt;Node6</title>
<path fill="none" stroke="#191970" d="M2127.5029,-447.2967C2125.2037,-437.6685 2122.2098,-425.1318 2119.7434,-414.8038"/>
<polygon fill="#191970" stroke="#191970" points="2123.1425,-413.9685 2117.4154,-405.055 2116.3339,-415.5945 2123.1425,-413.9685"/>
</g>
<!-- Node7 -->
<g id="node8" class="node">
<title>Node7</title>
<polygon fill="none" stroke="#bfbfbf" points="2218.6336,-56.5 2218.6336,-75.5 2265.6336,-75.5 2265.6336,-56.5 2218.6336,-56.5"/>
<text text-anchor="middle" x="2242.1336" y="-63.5" font-family="Helvetica,sans-Serif" font-size="10.00" fill="#000000">cmath</text>
</g>
<!-- Node1&#45;&gt;Node7 -->
<g id="edge7" class="edge">
<title>Node1&#45;&gt;Node7</title>
<path fill="none" stroke="#191970" d="M2207.1622,-448.7139C2289.2568,-433.7991 2408.7411,-411.9948 2411.1336,-411 2470.5574,-386.2919 2530.1336,-392.8559 2530.1336,-328.5 2530.1336,-328.5 2530.1336,-328.5 2530.1336,-194.5 2530.1336,-154.8416 2526.9828,-136.9222 2496.1336,-112 2462.7548,-85.0342 2337.1796,-72.6712 2276.0221,-68.1534"/>
<polygon fill="#191970" stroke="#191970" points="2275.9596,-64.6402 2265.7368,-67.423 2275.4637,-71.6226 2275.9596,-64.6402"/>
</g>
<!-- Node8 -->
<g id="node9" class="node">
<title>Node8</title>
<polygon fill="none" stroke="#bfbfbf" points="1932.1336,-118 1932.1336,-137 1982.1336,-137 1982.1336,-118 1932.1336,-118"/>
<text text-anchor="middle" x="1957.1336" y="-125" font-family="Helvetica,sans-Serif" font-size="10.00" fill="#000000">cstring</text>
</g>
<!-- Node1&#45;&gt;Node8 -->
<g id="edge8" class="edge">
<title>Node1&#45;&gt;Node8</title>
<path fill="none" stroke="#191970" d="M2148.8669,-447.3935C2159.0293,-437.8797 2171.2846,-424.8151 2179.1336,-411 2197.9972,-377.7978 2203.1336,-366.6867 2203.1336,-328.5 2203.1336,-328.5 2203.1336,-328.5 2203.1336,-261.5 2203.1336,-223.3133 2207.3731,-204.7051 2179.1336,-179 2116.2205,-121.7333 2072.1918,-168.8282 1991.1336,-143 1989.2329,-142.3944 1987.2983,-141.7106 1985.3653,-140.9762"/>
<polygon fill="#191970" stroke="#191970" points="1986.4548,-137.6382 1975.8786,-137.0096 1983.7544,-144.0964 1986.4548,-137.6382"/>
</g>
<!-- Node9 -->
<g id="node10" class="node">
<title>Node9</title>
<polygon fill="none" stroke="#bfbfbf" points="16.6336,-185 16.6336,-204 65.6336,-204 65.6336,-185 16.6336,-185"/>
<text text-anchor="middle" x="41.1336" y="-192" font-family="Helvetica,sans-Serif" font-size="10.00" fill="#000000">iosfwd</text>
</g>
<!-- Node1&#45;&gt;Node9 -->
<g id="edge9" class="edge">
<title>Node1&#45;&gt;Node9</title>
<path fill="none" stroke="#191970" d="M2055.0812,-460.3583C1834.5685,-453.9434 1197.4504,-433.9055 990.1336,-411 820.1119,-392.2151 779.4719,-374.3718 611.1336,-344 449.2518,-314.7931 405.4141,-321.7889 247.1336,-277 182.0327,-258.5783 109.3067,-226.6066 70.054,-208.345"/>
<polygon fill="#191970" stroke="#191970" points="71.3606,-205.092 60.8207,-204.0142 68.388,-211.4295 71.3606,-205.092"/>
</g>
<!-- Node10 -->
<g id="node11" class="node">
<title>Node10</title>
<g id="a_node11"><a xlink:href="../../d4/de2/BaseCluster_8h.html" target="_top" xlink:title="ReconstructionDataFormats\l/BaseCluster.h">
<polygon fill="none" stroke="#000000" points="1229.1336,-380.5 1229.1336,-410.5 1381.1336,-410.5 1381.1336,-380.5 1229.1336,-380.5"/>
<text text-anchor="start" x="1237.1336" y="-398.5" font-family="Helvetica,sans-Serif" font-size="10.00" fill="#000000">ReconstructionDataFormats</text>
<text text-anchor="middle" x="1305.1336" y="-387.5" font-family="Helvetica,sans-Serif" font-size="10.00" fill="#000000">/BaseCluster.h</text>
</a>
</g>
</g>
<!-- Node1&#45;&gt;Node10 -->
<g id="edge10" class="edge">
<title>Node1&#45;&gt;Node10</title>
<path fill="none" stroke="#191970" d="M2054.906,-456.3169C1900.9304,-443.8273 1553.7157,-415.6634 1391.5845,-402.5124"/>
<polygon fill="#191970" stroke="#191970" points="1391.4271,-398.9882 1381.1769,-401.6682 1390.8611,-405.9653 1391.4271,-398.9882"/>
</g>
<!-- Node24 -->
<g id="node25" class="node">
<title>Node24</title>
<polygon fill="none" stroke="#bfbfbf" points="1870.1336,-118 1870.1336,-137 1914.1336,-137 1914.1336,-118 1870.1336,-118"/>
<text text-anchor="middle" x="1892.1336" y="-125" font-family="Helvetica,sans-Serif" font-size="10.00" fill="#000000">string</text>
</g>
<!-- Node1&#45;&gt;Node24 -->
<g id="edge67" class="edge">
<title>Node1&#45;&gt;Node24</title>
<path fill="none" stroke="#191970" d="M2137.6891,-447.1433C2147.5691,-422.5657 2165.1336,-372.662 2165.1336,-328.5 2165.1336,-328.5 2165.1336,-328.5 2165.1336,-261.5 2165.1336,-223.8735 2173.6068,-204.7095 2146.1336,-179 2072.8301,-110.4025 2018.6856,-173.803 1923.1336,-143 1921.5193,-142.4796 1919.8846,-141.8859 1918.2537,-141.2413"/>
<polygon fill="#191970" stroke="#191970" points="1919.6779,-138.0442 1909.1209,-137.1498 1916.8159,-144.4324 1919.6779,-138.0442"/>
</g>
<!-- Node26 -->
<g id="node27" class="node">
<title>Node26</title>
<g id="a_node27"><a xlink:href="../../d9/d52/Common_2MathUtils_2include_2MathUtils_2Utils_8h.html" target="_top" xlink:title="MathUtils/Utils.h">
<polygon fill="none" stroke="#000000" points="2269.1336,-185 2269.1336,-204 2367.1336,-204 2367.1336,-185 2269.1336,-185"/>
<text text-anchor="middle" x="2318.1336" y="-192" font-family="Helvetica,sans-Serif" font-size="10.00" fill="#000000">MathUtils/Utils.h</text>
</a>
</g>
</g>
<!-- Node1&#45;&gt;Node26 -->
<g id="edge69" class="edge">
<title>Node1&#45;&gt;Node26</title>
<path fill="none" stroke="#191970" d="M2196.7972,-447.432C2217.9317,-439.6745 2239.8188,-428.1075 2255.1336,-411 2306.6843,-353.4149 2316.1922,-255.877 2317.8445,-214.265"/>
<polygon fill="#191970" stroke="#191970" points="2321.348,-214.1855 2318.1306,-204.091 2314.3508,-213.9886 2321.348,-214.1855"/>
</g>
<!-- Node31 -->
<g id="node32" class="node">
<title>Node31</title>
<g id="a_node32"><a xlink:href="../../d6/d84/MathConstants_8h.html" target="_top" xlink:title="useful math constants ">
<polygon fill="none" stroke="#000000" points="2270.1336,-118 2270.1336,-137 2464.1336,-137 2464.1336,-118 2270.1336,-118"/>
<text text-anchor="middle" x="2367.1336" y="-125" font-family="Helvetica,sans-Serif" font-size="10.00" fill="#000000">CommonConstants/MathConstants.h</text>
</a>
</g>
</g>
<!-- Node1&#45;&gt;Node31 -->
<g id="edge68" class="edge">
<title>Node1&#45;&gt;Node31</title>
<path fill="none" stroke="#191970" d="M2183.2915,-447.4986C2260.2291,-423.7963 2395.1336,-375.5305 2395.1336,-328.5 2395.1336,-328.5 2395.1336,-328.5 2395.1336,-261.5 2395.1336,-219.9089 2382.0492,-172.5624 2373.7692,-146.7647"/>
<polygon fill="#191970" stroke="#191970" points="2377.0365,-145.4977 2370.5669,-137.1075 2370.3923,-147.7009 2377.0365,-145.4977"/>
</g>
<!-- Node48 -->
<g id="node49" class="node">
<title>Node48</title>
<g id="a_node49"><a xlink:href="../../d8/d77/Primitive2D_8h.html" target="_top" xlink:title="Declarations of 2D primitives: straight line (XY interval) and circle. ">
<polygon fill="none" stroke="#000000" points="1716.6336,-386 1716.6336,-405 1849.6336,-405 1849.6336,-386 1716.6336,-386"/>
<text text-anchor="middle" x="1783.1336" y="-393" font-family="Helvetica,sans-Serif" font-size="10.00" fill="#000000">MathUtils/Primitive2D.h</text>
</a>
</g>
</g>
<!-- Node1&#45;&gt;Node48 -->
<g id="edge70" class="edge">
<title>Node1&#45;&gt;Node48</title>
<path fill="none" stroke="#191970" d="M2054.7635,-447.7966C1990.8357,-435.4886 1900.9122,-418.1758 1842.3347,-406.8979"/>
<polygon fill="#191970" stroke="#191970" points="1842.9756,-403.4571 1832.4942,-405.0033 1841.6522,-410.3309 1842.9756,-403.4571"/>
</g>
<!-- Node3 -->
<g id="node4" class="node">
<title>Node3</title>
<polygon fill="none" stroke="#bfbfbf" points="1282.6336,-185 1282.6336,-204 1341.6336,-204 1341.6336,-185 1282.6336,-185"/>
<text text-anchor="middle" x="1312.1336" y="-192" font-family="Helvetica,sans-Serif" font-size="10.00" fill="#000000">Rtypes.h</text>
</g>
<!-- Node2&#45;&gt;Node3 -->
<g id="edge3" class="edge">
<title>Node2&#45;&gt;Node3</title>
<path fill="none" stroke="#191970" d="M1540.5251,-251.9744C1489.2507,-243.3076 1414.641,-228.9744 1351.1336,-210 1348.6902,-209.27 1346.186,-208.4499 1343.6831,-207.5779"/>
<polygon fill="#191970" stroke="#191970" points="1344.7619,-204.2449 1334.169,-204.039 1342.3214,-210.8057 1344.7619,-204.2449"/>
</g>
<!-- Node10&#45;&gt;Node9 -->
<g id="edge15" class="edge">
<title>Node10&#45;&gt;Node9</title>
<path fill="none" stroke="#191970" d="M1289.4237,-380.48C1264.6632,-356.8236 1219.2362,-313.4981 1218.1336,-313 1159.98,-286.728 135.7278,-226.6794 74.1336,-210 72.1632,-209.4664 70.1656,-208.8213 68.1788,-208.1012"/>
<polygon fill="#191970" stroke="#191970" points="69.0875,-204.6869 58.5121,-204.0452 66.3791,-211.1418 69.0875,-204.6869"/>
</g>
<!-- Node11 -->
<g id="node12" class="node">
<title>Node11</title>
<polygon fill="none" stroke="#bfbfbf" points="1303.6336,-319 1303.6336,-338 1366.6336,-338 1366.6336,-319 1303.6336,-319"/>
<text text-anchor="middle" x="1335.1336" y="-326" font-family="Helvetica,sans-Serif" font-size="10.00" fill="#000000">TObject.h</text>
</g>
<!-- Node10&#45;&gt;Node11 -->
<g id="edge11" class="edge">
<title>Node10&#45;&gt;Node11</title>
<path fill="none" stroke="#191970" d="M1311.941,-380.2967C1316.2975,-370.5672 1321.9839,-357.8675 1326.6358,-347.4784"/>
<polygon fill="#191970" stroke="#191970" points="1329.9629,-348.6122 1330.8552,-338.055 1323.5741,-345.7515 1329.9629,-348.6122"/>
</g>
<!-- Node12 -->
<g id="node13" class="node">
<title>Node12</title>
<polygon fill="none" stroke="#bfbfbf" points="1360.1336,-185 1360.1336,-204 1404.1336,-204 1404.1336,-185 1360.1336,-185"/>
<text text-anchor="middle" x="1382.1336" y="-192" font-family="Helvetica,sans-Serif" font-size="10.00" fill="#000000">bitset</text>
</g>
<!-- Node10&#45;&gt;Node12 -->
<g id="edge12" class="edge">
<title>Node10&#45;&gt;Node12</title>
<path fill="none" stroke="#191970" d="M1336.9001,-380.4205C1351.2001,-371.8625 1366.7291,-359.6945 1375.1336,-344 1397.4306,-302.3625 1391.5922,-244.4786 1386.3324,-214.4138"/>
<polygon fill="#191970" stroke="#191970" points="1389.7228,-213.5086 1384.4047,-204.3452 1382.8476,-214.8249 1389.7228,-213.5086"/>
</g>
<!-- Node13 -->
<g id="node14" class="node">
<title>Node13</title>
<polygon fill="none" stroke="#bfbfbf" points="1153.1336,-319 1153.1336,-338 1209.1336,-338 1209.1336,-319 1153.1336,-319"/>
<text text-anchor="middle" x="1181.1336" y="-326" font-family="Helvetica,sans-Serif" font-size="10.00" fill="#000000">iomanip</text>
</g>
<!-- Node10&#45;&gt;Node13 -->
<g id="edge13" class="edge">
<title>Node10&#45;&gt;Node13</title>
<path fill="none" stroke="#191970" d="M1277.3055,-380.4639C1256.4999,-369.2222 1228.2281,-353.9463 1207.7263,-342.8686"/>
<polygon fill="#191970" stroke="#191970" points="1209.3697,-339.7784 1198.908,-338.1039 1206.0421,-345.9369 1209.3697,-339.7784"/>
</g>
<!-- Node14 -->
<g id="node15" class="node">
<title>Node14</title>
<polygon fill="none" stroke="#bfbfbf" points="1103.6336,-319 1103.6336,-338 1134.6336,-338 1134.6336,-319 1103.6336,-319"/>
<text text-anchor="middle" x="1119.1336" y="-326" font-family="Helvetica,sans-Serif" font-size="10.00" fill="#000000">ios</text>
</g>
<!-- Node10&#45;&gt;Node14 -->
<g id="edge14" class="edge">
<title>Node10&#45;&gt;Node14</title>
<path fill="none" stroke="#191970" d="M1246.4589,-380.4874C1215.3564,-371.6022 1176.9093,-359.1227 1144.1336,-344 1143.4554,-343.6871 1142.7731,-343.3594 1142.0894,-343.0195"/>
<polygon fill="#191970" stroke="#191970" points="1143.7778,-339.9536 1133.3394,-338.1396 1140.3683,-346.0672 1143.7778,-339.9536"/>
</g>
<!-- Node15 -->
<g id="node16" class="node">
<title>Node15</title>
<g id="a_node16"><a xlink:href="../../d4/d20/DetMatrixCache_8h.html" target="_top" xlink:title="DetectorsCommonDataFormats\l/DetMatrixCache.h">
<polygon fill="none" stroke="#000000" points="1835.6336,-313.5 1835.6336,-343.5 2006.6336,-343.5 2006.6336,-313.5 1835.6336,-313.5"/>
<text text-anchor="start" x="1843.6336" y="-331.5" font-family="Helvetica,sans-Serif" font-size="10.00" fill="#000000">DetectorsCommonDataFormats</text>
<text text-anchor="middle" x="1921.1336" y="-320.5" font-family="Helvetica,sans-Serif" font-size="10.00" fill="#000000">/DetMatrixCache.h</text>
</a>
</g>
</g>
<!-- Node10&#45;&gt;Node15 -->
<g id="edge16" class="edge">
<title>Node10&#45;&gt;Node15</title>
<path fill="none" stroke="#191970" d="M1381.2851,-387.2173C1493.4514,-375.0174 1702.9905,-352.2266 1825.4102,-338.9115"/>
<polygon fill="#191970" stroke="#191970" points="1825.9612,-342.3723 1835.5241,-337.8114 1825.2042,-335.4133 1825.9612,-342.3723"/>
</g>
<!-- Node38 -->
<g id="node39" class="node">
<title>Node38</title>
<g id="a_node39"><a xlink:href="../../dd/d76/Cartesian3D_8h.html" target="_top" xlink:title="MathUtils/Cartesian3D.h">
<polygon fill="none" stroke="#000000" points="969.6336,-252 969.6336,-271 1104.6336,-271 1104.6336,-252 969.6336,-252"/>
<text text-anchor="middle" x="1037.1336" y="-259" font-family="Helvetica,sans-Serif" font-size="10.00" fill="#000000">MathUtils/Cartesian3D.h</text>
</a>
</g>
</g>
<!-- Node10&#45;&gt;Node38 -->
<g id="edge66" class="edge">
<title>Node10&#45;&gt;Node38</title>
<path fill="none" stroke="#191970" d="M1299.4202,-380.4851C1291.4934,-361.7352 1275.3443,-330.0549 1251.1336,-313 1228.2047,-296.8481 1161.2108,-282.2867 1108.224,-272.8023"/>
<polygon fill="#191970" stroke="#191970" points="1108.6245,-269.3191 1098.1692,-271.0328 1107.4112,-276.2132 1108.6245,-269.3191"/>
</g>
<!-- Node15&#45;&gt;Node2 -->
<g id="edge20" class="edge">
<title>Node15&#45;&gt;Node2</title>
<path fill="none" stroke="#191970" d="M1847.8442,-313.4847C1798.4507,-303.315 1731.8415,-289.5036 1673.1336,-277 1667.4418,-275.7878 1661.4961,-274.5092 1655.5729,-273.2275"/>
<polygon fill="#191970" stroke="#191970" points="1656.1893,-269.7799 1645.6744,-271.0788 1654.7043,-276.6206 1656.1893,-269.7799"/>
</g>
<!-- Node15&#45;&gt;Node5 -->
<g id="edge21" class="edge">
<title>Node15&#45;&gt;Node5</title>
<path fill="none" stroke="#191970" d="M1928.6498,-313.3923C1946.6173,-277.2777 1992.025,-186.0083 2011.748,-146.3649"/>
<polygon fill="#191970" stroke="#191970" points="2014.959,-147.7684 2016.2797,-137.2562 2008.6918,-144.6503 2014.959,-147.7684"/>
</g>
<!-- Node16 -->
<g id="node17" class="node">
<title>Node16</title>
<g id="a_node17"><a xlink:href="../../df/d5b/GPUCommonLogger_8h.html" target="_top" xlink:title="GPUCommonLogger.h">
<polygon fill="none" stroke="#000000" points="1975.6336,-252 1975.6336,-271 2098.6336,-271 2098.6336,-252 1975.6336,-252"/>
<text text-anchor="middle" x="2037.1336" y="-259" font-family="Helvetica,sans-Serif" font-size="10.00" fill="#000000">GPUCommonLogger.h</text>
</a>
</g>
</g>
<!-- Node15&#45;&gt;Node16 -->
<g id="edge17" class="edge">
<title>Node15&#45;&gt;Node16</title>
<path fill="none" stroke="#191970" d="M1947.1662,-313.4639C1966.4542,-302.3234 1992.6014,-287.2212 2011.7364,-276.1691"/>
<polygon fill="#191970" stroke="#191970" points="2013.5971,-279.1363 2020.5059,-271.1039 2010.0959,-273.0747 2013.5971,-279.1363"/>
</g>
<!-- Node19 -->
<g id="node20" class="node">
<title>Node19</title>
<polygon fill="none" stroke="#bfbfbf" points="1871.6336,-252 1871.6336,-271 1918.6336,-271 1918.6336,-252 1871.6336,-252"/>
<text text-anchor="middle" x="1895.1336" y="-259" font-family="Helvetica,sans-Serif" font-size="10.00" fill="#000000">vector</text>
</g>
<!-- Node15&#45;&gt;Node19 -->
<g id="edge22" class="edge">
<title>Node15&#45;&gt;Node19</title>
<path fill="none" stroke="#191970" d="M1915.2338,-313.2967C1911.4582,-303.5672 1906.5299,-290.8675 1902.4983,-280.4784"/>
<polygon fill="#191970" stroke="#191970" points="1905.7222,-279.1114 1898.8415,-271.055 1899.1963,-281.6439 1905.7222,-279.1114"/>
</g>
<!-- Node20 -->
<g id="node21" class="node">
<title>Node20</title>
<g id="a_node21"><a xlink:href="../../d6/d31/DetID_8h.html" target="_top" xlink:title="DetectorsCommonDataFormats\l/DetID.h">
<polygon fill="none" stroke="#000000" points="1682.6336,-246.5 1682.6336,-276.5 1853.6336,-276.5 1853.6336,-246.5 1682.6336,-246.5"/>
<text text-anchor="start" x="1690.6336" y="-264.5" font-family="Helvetica,sans-Serif" font-size="10.00" fill="#000000">DetectorsCommonDataFormats</text>
<text text-anchor="middle" x="1768.1336" y="-253.5" font-family="Helvetica,sans-Serif" font-size="10.00" fill="#000000">/DetID.h</text>
</a>
</g>
</g>
<!-- Node15&#45;&gt;Node20 -->
<g id="edge23" class="edge">
<title>Node15&#45;&gt;Node20</title>
<path fill="none" stroke="#191970" d="M1886.7974,-313.4639C1864.6302,-303.7567 1835.594,-291.0415 1811.7928,-280.6188"/>
<polygon fill="#191970" stroke="#191970" points="1813.1837,-277.407 1802.6195,-276.6017 1810.3757,-283.8191 1813.1837,-277.407"/>
</g>
<!-- Node15&#45;&gt;Node38 -->
<g id="edge54" class="edge">
<title>Node15&#45;&gt;Node38</title>
<path fill="none" stroke="#191970" d="M1835.5687,-322.0149C1663.8929,-309.0033 1279.7933,-279.8916 1114.8363,-267.3892"/>
<polygon fill="#191970" stroke="#191970" points="1115.0032,-263.8919 1104.7673,-266.6261 1114.4741,-270.8719 1115.0032,-263.8919"/>
</g>
<!-- Node16&#45;&gt;Node17 -->
<g id="edge18" class="edge">
<title>Node16&#45;&gt;Node17</title>
<path fill="none" stroke="#191970" d="M2047.1629,-251.9005C2058.2867,-241.2535 2076.4322,-223.8856 2089.8546,-211.0385"/>
<polygon fill="#191970" stroke="#191970" points="2092.3188,-213.5247 2097.1229,-204.0817 2087.4786,-208.4678 2092.3188,-213.5247"/>
</g>
<!-- Node18 -->
<g id="node19" class="node">
<title>Node18</title>
<polygon fill="none" stroke="#bfbfbf" points="2013.1336,-185 2013.1336,-204 2059.1336,-204 2059.1336,-185 2013.1336,-185"/>
<text text-anchor="middle" x="2036.1336" y="-192" font-family="Helvetica,sans-Serif" font-size="10.00" fill="#000000">cstdio</text>
</g>
<!-- Node16&#45;&gt;Node18 -->
<g id="edge19" class="edge">
<title>Node16&#45;&gt;Node18</title>
<path fill="none" stroke="#191970" d="M2036.9903,-251.9005C2036.8447,-242.149 2036.6151,-226.7597 2036.4301,-214.3695"/>
<polygon fill="#191970" stroke="#191970" points="2039.9255,-214.0283 2036.2766,-204.0817 2032.9263,-214.1328 2039.9255,-214.0283"/>
</g>
<!-- Node20&#45;&gt;Node3 -->
<g id="edge24" class="edge">
<title>Node20&#45;&gt;Node3</title>
<path fill="none" stroke="#191970" d="M1682.4586,-247.3177C1679.3126,-246.8617 1676.1964,-246.4208 1673.1336,-246 1530.471,-226.3995 1490.8424,-244.9031 1351.1336,-210 1348.3503,-209.3047 1345.5005,-208.4565 1342.6706,-207.5191"/>
<polygon fill="#191970" stroke="#191970" points="1343.8449,-204.2219 1333.2511,-204.0798 1341.4441,-210.7973 1343.8449,-204.2219"/>
</g>
<!-- Node20&#45;&gt;Node5 -->
<g id="edge25" class="edge">
<title>Node20&#45;&gt;Node5</title>
<path fill="none" stroke="#191970" d="M1757.6174,-246.2308C1746.5495,-228.0948 1732.8171,-197.9233 1749.1336,-179 1784.6377,-137.8235 1939.3936,-159.7042 1991.1336,-143 1992.598,-142.5272 1994.0776,-141.9884 1995.5537,-141.4021"/>
<polygon fill="#191970" stroke="#191970" points="1997.4241,-144.3946 2005.0502,-137.0398 1994.5021,-138.0336 1997.4241,-144.3946"/>
</g>
<!-- Node20&#45;&gt;Node12 -->
<g id="edge26" class="edge">
<title>Node20&#45;&gt;Node12</title>
<path fill="none" stroke="#191970" d="M1682.442,-247.4319C1679.3007,-246.9438 1676.19,-246.465 1673.1336,-246 1559.9786,-228.7836 1528.3394,-240.9051 1418.1336,-210 1415.951,-209.3879 1413.7268,-208.6727 1411.5088,-207.8915"/>
<polygon fill="#191970" stroke="#191970" points="1412.5608,-204.5448 1401.973,-204.1598 1410.0098,-211.0634 1412.5608,-204.5448"/>
</g>
<!-- Node21 -->
<g id="node22" class="node">
<title>Node21</title>
<polygon fill="none" stroke="#bfbfbf" points="1236.1336,-118 1236.1336,-137 1288.1336,-137 1288.1336,-118 1236.1336,-118"/>
<text text-anchor="middle" x="1262.1336" y="-125" font-family="Helvetica,sans-Serif" font-size="10.00" fill="#000000">cassert</text>
</g>
<!-- Node20&#45;&gt;Node21 -->
<g id="edge27" class="edge">
<title>Node20&#45;&gt;Node21</title>
<path fill="none" stroke="#191970" d="M1682.4315,-247.499C1679.2932,-246.992 1676.1859,-246.491 1673.1336,-246 1572.2805,-229.7754 1537.8584,-254.957 1446.1336,-210 1428.0642,-201.1437 1430.5209,-189.1301 1413.1336,-179 1366.4912,-151.8254 1347.6752,-161.9611 1297.1336,-143 1295.508,-142.3902 1293.8498,-141.7434 1292.1824,-141.0735"/>
<polygon fill="#191970" stroke="#191970" points="1293.2721,-137.7348 1282.6974,-137.0817 1290.5567,-144.1867 1293.2721,-137.7348"/>
</g>
<!-- Node22 -->
<g id="node23" class="node">
<title>Node22</title>
<polygon fill="none" stroke="#bfbfbf" points="1306.1336,-118 1306.1336,-137 1356.1336,-137 1356.1336,-118 1306.1336,-118"/>
<text text-anchor="middle" x="1331.1336" y="-125" font-family="Helvetica,sans-Serif" font-size="10.00" fill="#000000">cstdint</text>
</g>
<!-- Node20&#45;&gt;Node22 -->
<g id="edge28" class="edge">
<title>Node20&#45;&gt;Node22</title>
<path fill="none" stroke="#191970" d="M1682.5688,-246.6425C1603.9144,-232.8395 1498.1508,-213.8506 1489.1336,-210 1467.4666,-200.7477 1466.5624,-190.7356 1446.1336,-179 1411.9735,-159.3763 1401.0571,-159.171 1365.1336,-143 1363.9357,-142.4608 1362.7146,-141.9099 1361.4814,-141.3525"/>
<polygon fill="#191970" stroke="#191970" points="1362.5298,-137.9848 1351.9772,-137.0401 1359.6374,-144.3593 1362.5298,-137.9848"/>
</g>
<!-- Node23 -->
<g id="node24" class="node">
<title>Node23</title>
<polygon fill="none" stroke="#bfbfbf" points="1758.6336,-185 1758.6336,-204 1831.6336,-204 1831.6336,-185 1758.6336,-185"/>
<text text-anchor="middle" x="1795.1336" y="-192" font-family="Helvetica,sans-Serif" font-size="10.00" fill="#000000">string_view</text>
</g>
<!-- Node20&#45;&gt;Node23 -->
<g id="edge29" class="edge">
<title>Node20&#45;&gt;Node23</title>
<path fill="none" stroke="#191970" d="M1774.2603,-246.2967C1778.1811,-236.5672 1783.2989,-223.8675 1787.4856,-213.4784"/>
<polygon fill="#191970" stroke="#191970" points="1790.7916,-214.6384 1791.2831,-204.055 1784.2989,-212.0219 1790.7916,-214.6384"/>
</g>
<!-- Node20&#45;&gt;Node24 -->
<g id="edge30" class="edge">
<title>Node20&#45;&gt;Node24</title>
<path fill="none" stroke="#191970" d="M1842.5081,-246.4244C1878.9943,-237.3643 1917.393,-224.7403 1928.1336,-210 1942.9228,-189.7032 1924.9579,-162.3785 1909.5335,-144.8476"/>
<polygon fill="#191970" stroke="#191970" points="1911.6967,-142.0348 1902.3203,-137.102 1906.5741,-146.8054 1911.6967,-142.0348"/>
</g>
<!-- Node25 -->
<g id="node26" class="node">
<title>Node25</title>
<polygon fill="none" stroke="#bfbfbf" points="1849.6336,-185 1849.6336,-204 1918.6336,-204 1918.6336,-185 1849.6336,-185"/>
<text text-anchor="middle" x="1884.1336" y="-192" font-family="Helvetica,sans-Serif" font-size="10.00" fill="#000000">type_traits</text>
</g>
<!-- Node20&#45;&gt;Node25 -->
<g id="edge31" class="edge">
<title>Node20&#45;&gt;Node25</title>
<path fill="none" stroke="#191970" d="M1794.1662,-246.4639C1813.4542,-235.3234 1839.6014,-220.2212 1858.7364,-209.1691"/>
<polygon fill="#191970" stroke="#191970" points="1860.5971,-212.1363 1867.5059,-204.1039 1857.0959,-206.0747 1860.5971,-212.1363"/>
</g>
<!-- Node20&#45;&gt;Node26 -->
<g id="edge32" class="edge">
<title>Node20&#45;&gt;Node26</title>
<path fill="none" stroke="#191970" d="M1853.8093,-247.3231C1856.9551,-246.8656 1860.0711,-246.4229 1863.1336,-246 2004.6439,-226.4591 2171.6764,-208.9764 2258.6773,-200.2905"/>
<polygon fill="#191970" stroke="#191970" points="2259.2789,-203.748 2268.8833,-199.2753 2258.586,-196.7824 2259.2789,-203.748"/>
</g>
<!-- Node32 -->
<g id="node33" class="node">
<title>Node32</title>
<g id="a_node33"><a xlink:href="../../dc/dcd/DataHeader_8h.html" target="_top" xlink:title="Headers/DataHeader.h">
<polygon fill="none" stroke="#000000" points="1498.6336,-185 1498.6336,-204 1625.6336,-204 1625.6336,-185 1498.6336,-185"/>
<text text-anchor="middle" x="1562.1336" y="-192" font-family="Helvetica,sans-Serif" font-size="10.00" fill="#000000">Headers/DataHeader.h</text>
</a>
</g>
</g>
<!-- Node20&#45;&gt;Node32 -->
<g id="edge43" class="edge">
<title>Node20&#45;&gt;Node32</title>
<path fill="none" stroke="#191970" d="M1721.9031,-246.4639C1685.5184,-234.63 1635.389,-218.3258 1601.0408,-207.1543"/>
<polygon fill="#191970" stroke="#191970" points="1601.951,-203.7699 1591.3588,-204.0053 1599.7859,-210.4267 1601.951,-203.7699"/>
</g>
<!-- Node26&#45;&gt;Node5 -->
<g id="edge33" class="edge">
<title>Node26&#45;&gt;Node5</title>
<path fill="none" stroke="#191970" d="M2280.9114,-184.9351C2272.4594,-182.8768 2263.5057,-180.7854 2255.1336,-179 2167.2301,-160.2544 2142.0539,-169.3839 2056.1336,-143 2054.0173,-142.3501 2051.8591,-141.607 2049.7058,-140.8057"/>
<polygon fill="#191970" stroke="#191970" points="2051.0228,-137.563 2040.4413,-137.0309 2048.3814,-144.0456 2051.0228,-137.563"/>
</g>
<!-- Node26&#45;&gt;Node7 -->
<g id="edge34" class="edge">
<title>Node26&#45;&gt;Node7</title>
<path fill="none" stroke="#191970" d="M2303.2183,-184.8827C2290.161,-175.6831 2271.6753,-160.6268 2261.1336,-143 2250.5682,-125.3336 2245.8631,-102.0411 2243.7769,-85.7185"/>
<polygon fill="#191970" stroke="#191970" points="2247.2481,-85.2609 2242.7112,-75.6866 2240.2872,-86.0004 2247.2481,-85.2609"/>
</g>
<!-- Node27 -->
<g id="node28" class="node">
<title>Node27</title>
<g id="a_node28"><a xlink:href="../../df/d21/GPUCommonDef_8h.html" target="_top" xlink:title="GPUCommonDef.h">
<polygon fill="none" stroke="#000000" points="2004.6336,-56.5 2004.6336,-75.5 2111.6336,-75.5 2111.6336,-56.5 2004.6336,-56.5"/>
<text text-anchor="middle" x="2058.1336" y="-63.5" font-family="Helvetica,sans-Serif" font-size="10.00" fill="#000000">GPUCommonDef.h</text>
</a>
</g>
</g>
<!-- Node26&#45;&gt;Node27 -->
<g id="edge35" class="edge">
<title>Node26&#45;&gt;Node27</title>
<path fill="none" stroke="#191970" d="M2280.1939,-184.9937C2271.9424,-182.9742 2263.2529,-180.8842 2255.1336,-179 2182.018,-162.0325 2147.7406,-191.1166 2090.1336,-143 2072.9173,-128.62 2064.8187,-103.4375 2061.1077,-85.7981"/>
<polygon fill="#191970" stroke="#191970" points="2064.5089,-84.9375 2059.2862,-75.7194 2057.6205,-86.1825 2064.5089,-84.9375"/>
</g>
<!-- Node30 -->
<g id="node31" class="node">
<title>Node30</title>
<g id="a_node31"><a xlink:href="../../d6/da2/GPUCommonMath_8h.html" target="_top" xlink:title="GPUCommonMath.h">
<polygon fill="none" stroke="#000000" points="2098.6336,-118 2098.6336,-137 2213.6336,-137 2213.6336,-118 2098.6336,-118"/>
<text text-anchor="middle" x="2156.1336" y="-125" font-family="Helvetica,sans-Serif" font-size="10.00" fill="#000000">GPUCommonMath.h</text>
</a>
</g>
</g>
<!-- Node26&#45;&gt;Node30 -->
<g id="edge38" class="edge">
<title>Node26&#45;&gt;Node30</title>
<path fill="none" stroke="#191970" d="M2294.9229,-184.9005C2267.1342,-173.4077 2220.4107,-154.0838 2188.9397,-141.068"/>
<polygon fill="#191970" stroke="#191970" points="2189.8797,-137.6693 2179.3012,-137.0817 2187.2044,-144.1379 2189.8797,-137.6693"/>
</g>
<!-- Node26&#45;&gt;Node31 -->
<g id="edge42" class="edge">
<title>Node26&#45;&gt;Node31</title>
<path fill="none" stroke="#191970" d="M2325.1541,-184.9005C2332.6497,-174.6515 2344.6998,-158.1747 2353.9711,-145.4976"/>
<polygon fill="#191970" stroke="#191970" points="2357.048,-147.2195 2360.1261,-137.0817 2351.3978,-143.0873 2357.048,-147.2195"/>
</g>
<!-- Node28 -->
<g id="node29" class="node">
<title>Node28</title>
<g id="a_node29"><a xlink:href="../../d5/d93/GPUCommonDefSettings_8h.html" target="_top" xlink:title="GPUCommonDefSettings.h">
<polygon fill="none" stroke="#000000" points="1907.1336,-.5 1907.1336,-19.5 2055.1336,-19.5 2055.1336,-.5 1907.1336,-.5"/>
<text text-anchor="middle" x="1981.1336" y="-7.5" font-family="Helvetica,sans-Serif" font-size="10.00" fill="#000000">GPUCommonDefSettings.h</text>
</a>
</g>
</g>
<!-- Node27&#45;&gt;Node28 -->
<g id="edge36" class="edge">
<title>Node27&#45;&gt;Node28</title>
<path fill="none" stroke="#191970" d="M2044.7212,-56.2455C2033.1278,-47.814 2016.1588,-35.4729 2002.6657,-25.6598"/>
<polygon fill="#191970" stroke="#191970" points="2004.5382,-22.6938 1994.3922,-19.6427 2000.421,-28.355 2004.5382,-22.6938"/>
</g>
<!-- Node29 -->
<g id="node30" class="node">
<title>Node29</title>
<g id="a_node30"><a xlink:href="../../da/d5a/GPUCommonDefAPI_8h.html" target="_top" xlink:title="GPUCommonDefAPI.h">
<polygon fill="none" stroke="#000000" points="2073.1336,-.5 2073.1336,-19.5 2197.1336,-19.5 2197.1336,-.5 2073.1336,-.5"/>
<text text-anchor="middle" x="2135.1336" y="-7.5" font-family="Helvetica,sans-Serif" font-size="10.00" fill="#000000">GPUCommonDefAPI.h</text>
</a>
</g>
</g>
<!-- Node27&#45;&gt;Node29 -->
<g id="edge37" class="edge">
<title>Node27&#45;&gt;Node29</title>
<path fill="none" stroke="#191970" d="M2071.5459,-56.2455C2083.1393,-47.814 2100.1083,-35.4729 2113.6014,-25.6598"/>
<polygon fill="#191970" stroke="#191970" points="2115.8461,-28.355 2121.8749,-19.6427 2111.7289,-22.6938 2115.8461,-28.355"/>
</g>
<!-- Node30&#45;&gt;Node4 -->
<g id="edge41" class="edge">
<title>Node30&#45;&gt;Node4</title>
<path fill="none" stroke="#191970" d="M2157.0711,-117.8906C2157.9028,-109.3657 2159.1444,-96.6392 2160.1898,-85.9235"/>
<polygon fill="#191970" stroke="#191970" points="2163.6952,-86.0375 2161.1828,-75.7449 2156.7283,-85.3577 2163.6952,-86.0375"/>
</g>
<!-- Node30&#45;&gt;Node7 -->
<g id="edge40" class="edge">
<title>Node30&#45;&gt;Node7</title>
<path fill="none" stroke="#191970" d="M2169.5711,-117.8906C2183.2031,-108.1421 2204.5182,-92.8994 2220.5258,-81.4521"/>
<polygon fill="#191970" stroke="#191970" points="2222.6922,-84.2057 2228.7904,-75.5419 2218.6204,-78.5118 2222.6922,-84.2057"/>
</g>
<!-- Node30&#45;&gt;Node27 -->
<g id="edge39" class="edge">
<title>Node30&#45;&gt;Node27</title>
<path fill="none" stroke="#191970" d="M2140.8211,-117.8906C2125.0711,-108.0067 2100.3213,-92.4749 2081.9998,-80.9773"/>
<polygon fill="#191970" stroke="#191970" points="2083.6693,-77.8929 2073.3385,-75.5419 2079.9484,-83.8221 2083.6693,-77.8929"/>
</g>
<!-- Node32&#45;&gt;Node4 -->
<g id="edge48" class="edge">
<title>Node32&#45;&gt;Node4</title>
<path fill="none" stroke="#191970" d="M1609.9809,-184.9768C1619.9454,-182.9978 1630.3817,-180.9281 1640.1336,-179 1721.4515,-162.9219 1748.1109,-178.2521 1823.1336,-143 1842.8602,-133.7307 1841.1523,-120.7069 1861.1336,-112 1965.1549,-66.6727 2004.3855,-96.1341 2120.0343,-75.9908"/>
<polygon fill="#191970" stroke="#191970" points="2120.7658,-79.4151 2129.9721,-74.1715 2119.5053,-72.5295 2120.7658,-79.4151"/>
</g>
<!-- Node32&#45;&gt;Node8 -->
<g id="edge47" class="edge">
<title>Node32&#45;&gt;Node8</title>
<path fill="none" stroke="#191970" d="M1607.4065,-184.9491C1618.1113,-182.8447 1629.5044,-180.73 1640.1336,-179 1765.2782,-158.6314 1801.18,-177.6899 1923.1336,-143 1925.0991,-142.4409 1927.0957,-141.7847 1929.0859,-141.0638"/>
<polygon fill="#191970" stroke="#191970" points="1930.8907,-144.1063 1938.8113,-137.0696 1928.2313,-137.6312 1930.8907,-144.1063"/>
</g>
<!-- Node32&#45;&gt;Node21 -->
<g id="edge46" class="edge">
<title>Node32&#45;&gt;Node21</title>
<path fill="none" stroke="#191970" d="M1498.496,-186.2418C1444.1855,-178.2253 1364.4262,-164.1426 1297.1336,-143 1295.2316,-142.4024 1293.2947,-141.732 1291.3572,-141.0141"/>
<polygon fill="#191970" stroke="#191970" points="1292.4061,-137.6626 1281.8239,-137.1454 1289.7739,-144.1489 1292.4061,-137.6626"/>
</g>
<!-- Node32&#45;&gt;Node22 -->
<g id="edge44" class="edge">
<title>Node32&#45;&gt;Node22</title>
<path fill="none" stroke="#191970" d="M1516.4757,-184.9115C1476.1122,-175.883 1415.9264,-161.0655 1365.1336,-143 1363.4948,-142.4171 1361.8263,-141.7863 1360.1523,-141.124"/>
<polygon fill="#191970" stroke="#191970" points="1361.2459,-137.786 1350.6732,-137.1007 1358.5109,-144.2296 1361.2459,-137.786"/>
</g>
<!-- Node32&#45;&gt;Node24 -->
<g id="edge50" class="edge">
<title>Node32&#45;&gt;Node24</title>
<path fill="none" stroke="#191970" d="M1609.1096,-184.9201C1619.3255,-182.9053 1630.0831,-180.8357 1640.1336,-179 1735.8739,-161.5133 1762.7588,-170.4435 1856.1336,-143 1858.3084,-142.3608 1860.5268,-141.6255 1862.7406,-140.8299"/>
<polygon fill="#191970" stroke="#191970" points="1864.2524,-143.996 1872.2676,-137.0673 1861.681,-137.4854 1864.2524,-143.996"/>
</g>
<!-- Node33 -->
<g id="node34" class="node">
<title>Node33</title>
<polygon fill="none" stroke="#bfbfbf" points="1604.1336,-118 1604.1336,-137 1662.1336,-137 1662.1336,-118 1604.1336,-118"/>
<text text-anchor="middle" x="1633.1336" y="-125" font-family="Helvetica,sans-Serif" font-size="10.00" fill="#000000">memory</text>
</g>
<!-- Node32&#45;&gt;Node33 -->
<g id="edge45" class="edge">
<title>Node32&#45;&gt;Node33</title>
<path fill="none" stroke="#191970" d="M1572.3061,-184.9005C1583.5889,-174.2535 1601.9936,-156.8856 1615.6077,-144.0385"/>
<polygon fill="#191970" stroke="#191970" points="1618.109,-146.4905 1622.9799,-137.0817 1613.3047,-141.3994 1618.109,-146.4905"/>
</g>
<!-- Node34 -->
<g id="node35" class="node">
<title>Node34</title>
<polygon fill="none" stroke="#bfbfbf" points="1680.6336,-118 1680.6336,-137 1745.6336,-137 1745.6336,-118 1680.6336,-118"/>
<text text-anchor="middle" x="1713.1336" y="-125" font-family="Helvetica,sans-Serif" font-size="10.00" fill="#000000">stdexcept</text>
</g>
<!-- Node32&#45;&gt;Node34 -->
<g id="edge49" class="edge">
<title>Node32&#45;&gt;Node34</title>
<path fill="none" stroke="#191970" d="M1583.7682,-184.9005C1609.5579,-173.4574 1652.8442,-154.2509 1682.1732,-141.2374"/>
<polygon fill="#191970" stroke="#191970" points="1683.818,-144.3367 1691.5391,-137.0817 1680.9789,-137.9383 1683.818,-144.3367"/>
</g>
<!-- Node35 -->
<g id="node36" class="node">
<title>Node35</title>
<polygon fill="none" stroke="#bfbfbf" points="1764.1336,-118 1764.1336,-137 1814.1336,-137 1814.1336,-118 1764.1336,-118"/>
<text text-anchor="middle" x="1789.1336" y="-125" font-family="Helvetica,sans-Serif" font-size="10.00" fill="#000000">climits</text>
</g>
<!-- Node32&#45;&gt;Node35 -->
<g id="edge51" class="edge">
<title>Node32&#45;&gt;Node35</title>
<path fill="none" stroke="#191970" d="M1605.4184,-184.9166C1644.718,-175.7398 1704.0189,-160.698 1754.1336,-143 1755.9665,-142.3527 1757.8374,-141.651 1759.7139,-140.9157"/>
<polygon fill="#191970" stroke="#191970" points="1761.1018,-144.1292 1768.9903,-137.0565 1758.413,-137.6662 1761.1018,-144.1292"/>
</g>
<!-- Node36 -->
<g id="node37" class="node">
<title>Node36</title>
<g id="a_node37"><a xlink:href="../../d7/df8/Types_8h.html" target="_top" xlink:title="MemoryResources/Types.h">
<polygon fill="none" stroke="#000000" points="1374.1336,-118 1374.1336,-137 1520.1336,-137 1520.1336,-118 1374.1336,-118"/>
<text text-anchor="middle" x="1447.1336" y="-125" font-family="Helvetica,sans-Serif" font-size="10.00" fill="#000000">MemoryResources/Types.h</text>
</a>
</g>
</g>
<!-- Node32&#45;&gt;Node36 -->
<g id="edge52" class="edge">
<title>Node32&#45;&gt;Node36</title>
<path fill="none" stroke="#191970" d="M1545.6569,-184.9005C1526.5281,-173.7559 1494.7602,-155.2477 1472.482,-142.2682"/>
<polygon fill="#191970" stroke="#191970" points="1473.9822,-139.0916 1463.5797,-137.0817 1470.4583,-145.1399 1473.9822,-139.0916"/>
</g>
<!-- Node37 -->
<g id="node38" class="node">
<title>Node37</title>
<polygon fill="none" stroke="#bfbfbf" points="1538.6336,-118 1538.6336,-137 1585.6336,-137 1585.6336,-118 1538.6336,-118"/>
<text text-anchor="middle" x="1562.1336" y="-125" font-family="Helvetica,sans-Serif" font-size="10.00" fill="#000000">cerrno</text>
</g>
<!-- Node32&#45;&gt;Node37 -->
<g id="edge53" class="edge">
<title>Node32&#45;&gt;Node37</title>
<path fill="none" stroke="#191970" d="M1562.1336,-184.9005C1562.1336,-175.149 1562.1336,-159.7597 1562.1336,-147.3695"/>
<polygon fill="#191970" stroke="#191970" points="1565.6337,-147.0816 1562.1336,-137.0817 1558.6337,-147.0817 1565.6337,-147.0816"/>
</g>
<!-- Node38&#45;&gt;Node3 -->
<g id="edge60" class="edge">
<title>Node38&#45;&gt;Node3</title>
<path fill="none" stroke="#191970" d="M1093.1077,-251.9555C1141.3478,-243.0984 1212.5741,-228.5061 1273.1336,-210 1275.4264,-209.2993 1277.7742,-208.5227 1280.125,-207.7012"/>
<polygon fill="#191970" stroke="#191970" points="1281.5186,-210.9172 1289.6717,-204.1512 1279.0788,-204.3561 1281.5186,-210.9172"/>
</g>
<!-- Node38&#45;&gt;Node9 -->
<g id="edge62" class="edge">
<title>Node38&#45;&gt;Node9</title>
<path fill="none" stroke="#191970" d="M993.055,-251.9447C980.8288,-249.6289 967.5128,-247.4152 955.1336,-246 760.4605,-223.7441 264.4598,-256.5712 74.1336,-210 71.9356,-209.4622 69.7079,-208.7723 67.5017,-207.9833"/>
<polygon fill="#191970" stroke="#191970" points="68.7015,-204.6912 58.1259,-204.0541 65.9959,-211.1472 68.7015,-204.6912"/>
</g>
<!-- Node39 -->
<g id="node40" class="node">
<title>Node39</title>
<polygon fill="none" stroke="#bfbfbf" points="893.1336,-179.5 893.1336,-209.5 1057.1336,-209.5 1057.1336,-179.5 893.1336,-179.5"/>
<text text-anchor="start" x="901.1336" y="-197.5" font-family="Helvetica,sans-Serif" font-size="10.00" fill="#000000">Math/GenVector/Displacement</text>
<text text-anchor="middle" x="975.1336" y="-186.5" font-family="Helvetica,sans-Serif" font-size="10.00" fill="#000000">Vector3D.h</text>
</g>
<!-- Node38&#45;&gt;Node39 -->
<g id="edge55" class="edge">
<title>Node38&#45;&gt;Node39</title>
<path fill="none" stroke="#191970" d="M1028.2505,-251.9005C1019.8456,-242.8178 1006.9148,-228.8442 995.9161,-216.9585"/>
<polygon fill="#191970" stroke="#191970" points="998.3951,-214.4842 989.0343,-209.5218 993.2574,-219.2386 998.3951,-214.4842"/>
</g>
<!-- Node40 -->
<g id="node41" class="node">
<title>Node40</title>
<polygon fill="none" stroke="#bfbfbf" points="1075.6336,-185 1075.6336,-204 1264.6336,-204 1264.6336,-185 1075.6336,-185"/>
<text text-anchor="middle" x="1170.1336" y="-192" font-family="Helvetica,sans-Serif" font-size="10.00" fill="#000000">Math/GenVector/PositionVector3D.h</text>
</g>
<!-- Node38&#45;&gt;Node40 -->
<g id="edge56" class="edge">
<title>Node38&#45;&gt;Node40</title>
<path fill="none" stroke="#191970" d="M1056.1892,-251.9005C1078.6084,-240.6067 1116.039,-221.7506 1141.8468,-208.7497"/>
<polygon fill="#191970" stroke="#191970" points="1143.7571,-211.7065 1151.1133,-204.0817 1140.6078,-205.4549 1143.7571,-211.7065"/>
</g>
<!-- Node41 -->
<g id="node42" class="node">
<title>Node41</title>
<polygon fill="none" stroke="#bfbfbf" points="237.1336,-185 237.1336,-204 397.1336,-204 397.1336,-185 237.1336,-185"/>
<text text-anchor="middle" x="317.1336" y="-192" font-family="Helvetica,sans-Serif" font-size="10.00" fill="#000000">Math/GenVector/Rotation3D.h</text>
</g>
<!-- Node38&#45;&gt;Node41 -->
<g id="edge57" class="edge">
<title>Node38&#45;&gt;Node41</title>
<path fill="none" stroke="#191970" d="M992.176,-251.9849C980.1858,-249.7264 967.207,-247.5312 955.1336,-246 712.5526,-215.235 648.9296,-239.0186 406.1336,-210 396.5403,-208.8534 386.4105,-207.3612 376.5579,-205.7559"/>
<polygon fill="#191970" stroke="#191970" points="376.8668,-202.2588 366.4248,-204.052 375.706,-209.1619 376.8668,-202.2588"/>
</g>
<!-- Node42 -->
<g id="node43" class="node">
<title>Node42</title>
<polygon fill="none" stroke="#bfbfbf" points="415.1336,-185 415.1336,-204 583.1336,-204 583.1336,-185 415.1336,-185"/>
<text text-anchor="middle" x="499.1336" y="-192" font-family="Helvetica,sans-Serif" font-size="10.00" fill="#000000">Math/GenVector/Transform3D.h</text>
</g>
<!-- Node38&#45;&gt;Node42 -->
<g id="edge58" class="edge">
<title>Node38&#45;&gt;Node42</title>
<path fill="none" stroke="#191970" d="M990.4198,-251.9345C978.9161,-249.7823 966.6061,-247.6499 955.1336,-246 794.6598,-222.9215 752.848,-231.3383 592.1336,-210 582.6197,-208.7368 572.5854,-207.2392 562.7681,-205.6808"/>
<polygon fill="#191970" stroke="#191970" points="563.0777,-202.1854 552.6468,-204.042 561.9588,-209.0954 563.0777,-202.1854"/>
</g>
<!-- Node43 -->
<g id="node44" class="node">
<title>Node43</title>
<polygon fill="none" stroke="#bfbfbf" points="601.6336,-185 601.6336,-204 774.6336,-204 774.6336,-185 601.6336,-185"/>
<text text-anchor="middle" x="688.1336" y="-192" font-family="Helvetica,sans-Serif" font-size="10.00" fill="#000000">Math/GenVector/Translation3D.h</text>
</g>
<!-- Node38&#45;&gt;Node43 -->
<g id="edge59" class="edge">
<title>Node38&#45;&gt;Node43</title>
<path fill="none" stroke="#191970" d="M987.501,-251.9717C924.4035,-239.8584 815.565,-218.9639 747.9521,-205.9838"/>
<polygon fill="#191970" stroke="#191970" points="748.3577,-202.4978 737.8771,-204.0496 747.0379,-209.3723 748.3577,-202.4978"/>
</g>
<!-- Node44 -->
<g id="node45" class="node">
<title>Node44</title>
<polygon fill="none" stroke="#bfbfbf" points="793.1336,-185 793.1336,-204 875.1336,-204 875.1336,-185 793.1336,-185"/>
<text text-anchor="middle" x="834.1336" y="-192" font-family="Helvetica,sans-Serif" font-size="10.00" fill="#000000">TGeoMatrix.h</text>
</g>
<!-- Node38&#45;&gt;Node44 -->
<g id="edge61" class="edge">
<title>Node38&#45;&gt;Node44</title>
<path fill="none" stroke="#191970" d="M1008.0486,-251.9005C972.4732,-240.1589 912.1327,-220.2436 872.7091,-207.2318"/>
<polygon fill="#191970" stroke="#191970" points="873.7577,-203.8923 863.1646,-204.0817 871.5637,-210.5396 873.7577,-203.8923"/>
</g>
<!-- Node45 -->
<g id="node46" class="node">
<title>Node45</title>
<g id="a_node46"><a xlink:href="../../d2/dd0/Cartesian2D_8h.html" target="_top" xlink:title="MathUtils/Cartesian2D.h">
<polygon fill="none" stroke="#000000" points="83.6336,-185 83.6336,-204 218.6336,-204 218.6336,-185 83.6336,-185"/>
<text text-anchor="middle" x="151.1336" y="-192" font-family="Helvetica,sans-Serif" font-size="10.00" fill="#000000">MathUtils/Cartesian2D.h</text>
</a>
</g>
</g>
<!-- Node38&#45;&gt;Node45 -->
<g id="edge63" class="edge">
<title>Node38&#45;&gt;Node45</title>
<path fill="none" stroke="#191970" d="M992.6199,-251.9347C980.511,-249.6481 967.3627,-247.4516 955.1336,-246 633.8819,-207.8668 549.1542,-250.0318 228.1336,-210 219.7695,-208.957 210.9553,-207.514 202.3961,-205.925"/>
<polygon fill="#191970" stroke="#191970" points="202.9911,-202.4752 192.5077,-204.0078 201.6587,-209.3473 202.9911,-202.4752"/>
</g>
<!-- Node46 -->
<g id="node47" class="node">
<title>Node46</title>
<polygon fill="none" stroke="#bfbfbf" points="244.1336,-112.5 244.1336,-142.5 408.1336,-142.5 408.1336,-112.5 244.1336,-112.5"/>
<text text-anchor="start" x="252.1336" y="-130.5" font-family="Helvetica,sans-Serif" font-size="10.00" fill="#000000">Math/GenVector/Displacement</text>
<text text-anchor="middle" x="326.1336" y="-119.5" font-family="Helvetica,sans-Serif" font-size="10.00" fill="#000000">Vector2D.h</text>
</g>
<!-- Node45&#45;&gt;Node46 -->
<g id="edge64" class="edge">
<title>Node45&#45;&gt;Node46</title>
<path fill="none" stroke="#191970" d="M176.2068,-184.9005C202.5285,-174.8231 244.5766,-158.7247 277.4536,-146.1375"/>
<polygon fill="#191970" stroke="#191970" points="278.8101,-149.3659 286.8976,-142.5218 276.3072,-142.8287 278.8101,-149.3659"/>
</g>
<!-- Node47 -->
<g id="node48" class="node">
<title>Node47</title>
<polygon fill="none" stroke="#bfbfbf" points="36.6336,-118 36.6336,-137 225.6336,-137 225.6336,-118 36.6336,-118"/>
<text text-anchor="middle" x="131.1336" y="-125" font-family="Helvetica,sans-Serif" font-size="10.00" fill="#000000">Math/GenVector/PositionVector2D.h</text>
</g>
<!-- Node45&#45;&gt;Node47 -->
<g id="edge65" class="edge">
<title>Node45&#45;&gt;Node47</title>
<path fill="none" stroke="#191970" d="M148.2681,-184.9005C145.3274,-175.0495 140.6694,-159.4451 136.9518,-146.9912"/>
<polygon fill="#191970" stroke="#191970" points="140.208,-145.6627 133.9938,-137.0817 133.5004,-147.665 140.208,-145.6627"/>
</g>
<!-- Node48&#45;&gt;Node2 -->
<g id="edge71" class="edge">
<title>Node48&#45;&gt;Node2</title>
<path fill="none" stroke="#191970" d="M1770.1165,-385.8631C1739.1992,-362.974 1661.1206,-305.17 1623.306,-277.1746"/>
<polygon fill="#191970" stroke="#191970" points="1625.1524,-274.1868 1615.0327,-271.0496 1620.9873,-279.8128 1625.1524,-274.1868"/>
</g>
<!-- Node49&#45;&gt;Node5 -->
<g id="edge77" class="edge">
<title>Node49&#45;&gt;Node5</title>
<path fill="none" stroke="#191970" d="M1074.0459,-380.3453C1073.6056,-361.7486 1075.9224,-330.5341 1094.1336,-313 1270.1397,-143.5377 1415.6261,-319.3164 1634.1336,-210 1652.4219,-200.8506 1649.5046,-187.4342 1668.1336,-179 1799.7199,-119.4245 1852.8846,-184.8498 1991.1336,-143 1992.6064,-142.5541 1994.0927,-142.0367 1995.5741,-141.4672"/>
<polygon fill="#191970" stroke="#191970" points="1997.4229,-144.472 2005.0867,-137.1565 1994.5336,-138.0961 1997.4229,-144.472"/>
</g>
<!-- Node49&#45;&gt;Node9 -->
<g id="edge80" class="edge">
<title>Node49&#45;&gt;Node9</title>
<path fill="none" stroke="#191970" d="M999.1252,-382.5696C780.9339,-345.2892 162.5728,-238.4441 74.1336,-210 72.2807,-209.4041 70.3968,-208.7277 68.5161,-207.9987"/>
<polygon fill="#191970" stroke="#191970" points="69.8673,-204.77 59.2972,-204.0454 67.1084,-211.2034 69.8673,-204.77"/>
</g>
<!-- Node49&#45;&gt;Node13 -->
<g id="edge78" class="edge">
<title>Node49&#45;&gt;Node13</title>
<path fill="none" stroke="#191970" d="M1098.922,-380.4639C1116.387,-369.4247 1140.0065,-354.4954 1157.4474,-343.4715"/>
<polygon fill="#191970" stroke="#191970" points="1159.3563,-346.4054 1165.9393,-338.1039 1155.6163,-340.4883 1159.3563,-346.4054"/>
</g>
<!-- Node49&#45;&gt;Node14 -->
<g id="edge79" class="edge">
<title>Node49&#45;&gt;Node14</title>
<path fill="none" stroke="#191970" d="M1085.1178,-380.2967C1091.707,-370.2631 1100.3706,-357.0709 1107.3052,-346.5113"/>
<polygon fill="#191970" stroke="#191970" points="1110.2949,-348.3349 1112.8587,-338.055 1104.4438,-344.4924 1110.2949,-348.3349"/>
</g>
<!-- Node49&#45;&gt;Node38 -->
<g id="edge73" class="edge">
<title>Node49&#45;&gt;Node38</title>
<path fill="none" stroke="#191970" d="M1070.8484,-380.389C1063.9221,-355.9649 1050.2739,-307.8371 1042.6377,-280.9095"/>
<polygon fill="#191970" stroke="#191970" points="1045.9527,-279.7699 1039.8571,-271.1042 1039.2182,-281.6797 1045.9527,-279.7699"/>
</g>
<!-- Node50 -->
<g id="node51" class="node">
<title>Node50</title>
<g id="a_node51"><a xlink:href="../../df/d5d/common_2include_2CommonDataFormat_2TimeStamp_8h.html" target="_top" xlink:title="CommonDataFormat/TimeStamp.h">
<polygon fill="none" stroke="#000000" points="822.6336,-319 822.6336,-338 1009.6336,-338 1009.6336,-319 822.6336,-319"/>
<text text-anchor="middle" x="916.1336" y="-326" font-family="Helvetica,sans-Serif" font-size="10.00" fill="#000000">CommonDataFormat/TimeStamp.h</text>
</a>
</g>
</g>
<!-- Node49&#45;&gt;Node50 -->
<g id="edge74" class="edge">
<title>Node49&#45;&gt;Node50</title>
<path fill="none" stroke="#191970" d="M1039.4509,-380.4639C1012.1718,-368.969 974.8832,-353.2561 948.4714,-342.1266"/>
<polygon fill="#191970" stroke="#191970" points="949.4994,-338.7618 938.925,-338.1039 946.7811,-345.2125 949.4994,-338.7618"/>
</g>
<!-- Node50&#45;&gt;Node2 -->
<g id="edge75" class="edge">
<title>Node50&#45;&gt;Node2</title>
<path fill="none" stroke="#191970" d="M1009.7223,-319.3594C1147.9122,-305.8627 1403.6775,-280.8827 1529.0284,-268.64"/>
<polygon fill="#191970" stroke="#191970" points="1529.673,-272.0938 1539.2854,-267.6382 1528.9925,-265.1269 1529.673,-272.0938"/>
</g>
<!-- Node50&#45;&gt;Node27 -->
<g id="edge76" class="edge">
<title>Node50&#45;&gt;Node27</title>
<path fill="none" stroke="#191970" d="M822.628,-323.2076C601.396,-309.7326 60.3419,-270.8301 7.1336,-210 -12.4362,-187.627 13.601,-122.3234 27.1336,-112 67.1818,-81.449 1653.9323,-68.7877 1994.2793,-66.4206"/>
<polygon fill="#191970" stroke="#191970" points="1994.4774,-69.9194 2004.453,-66.3503 1994.429,-62.9196 1994.4774,-69.9194"/>
</g>
<!-- Node51&#45;&gt;Node2 -->
<g id="edge82" class="edge">
<title>Node51&#45;&gt;Node2</title>
<path fill="none" stroke="#191970" d="M1567.3448,-313.2967C1574.0837,-303.2631 1582.9442,-290.0709 1590.0364,-279.5113"/>
<polygon fill="#191970" stroke="#191970" points="1593.0459,-281.3078 1595.716,-271.055 1587.235,-277.4049 1593.0459,-281.3078"/>
</g>
<!-- Node51&#45;&gt;Node5 -->
<g id="edge83" class="edge">
<title>Node51&#45;&gt;Node5</title>
<path fill="none" stroke="#191970" d="M1544.5029,-313.3747C1531.3167,-295.6528 1514.5622,-266.1546 1530.1336,-246 1568.8866,-195.8405 1608.2929,-230.9016 1668.1336,-210 1700.2559,-198.7801 1705.425,-188.3744 1738.1336,-179 1847.315,-147.7083 1882.9398,-177.5522 1991.1336,-143 1992.5995,-142.5318 1994.0803,-141.9967 1995.5573,-141.4133"/>
<polygon fill="#191970" stroke="#191970" points="1997.424,-144.4079 2005.0567,-137.0599 1994.5077,-138.0444 1997.424,-144.4079"/>
</g>
<!-- Node51&#45;&gt;Node9 -->
<g id="edge84" class="edge">
<title>Node51&#45;&gt;Node9</title>
<path fill="none" stroke="#191970" d="M1480.8409,-321.9836C1320.1988,-308.2541 961.647,-277.5616 960.1336,-277 938.0457,-268.8033 939.394,-253.7158 917.1336,-246 739.9702,-184.5923 256.2234,-254.7333 74.1336,-210 71.9361,-209.4601 69.7087,-208.7688 67.5028,-207.9788"/>
<polygon fill="#191970" stroke="#191970" points="68.703,-204.6868 58.1274,-204.0477 65.9961,-211.1423 68.703,-204.6868"/>
</g>
</g>
</svg>
