<?xml version="1.0" encoding="UTF-8" standalone="no"?>
<!DOCTYPE svg PUBLIC "-//W3C//DTD SVG 1.1//EN"
 "http://www.w3.org/Graphics/SVG/1.1/DTD/svg11.dtd">
<!-- Generated by graphviz version 2.40.1 (20161225.0304)
 -->
<!-- Title: o2::raw::RawFileReader::LinkBlock Pages: 1 -->
<svg width="489pt" height="694pt"
 viewBox="0.00 0.00 488.58 694.00" xmlns="http://www.w3.org/2000/svg" xmlns:xlink="http://www.w3.org/1999/xlink">
<g id="graph0" class="graph" transform="scale(1 1) rotate(0) translate(4 690)">
<title>o2::raw::RawFileReader::LinkBlock</title>
<!-- Node1 -->
<g id="node1" class="node">
<title>Node1</title>
<polygon fill="#bfbfbf" stroke="#000000" points="254.5761,-.5 254.5761,-112.5 383.5761,-112.5 383.5761,-.5 254.5761,-.5"/>
<text text-anchor="start" x="262.5761" y="-100.5" font-family="Helvetica,sans-Serif" font-size="10.00" fill="#000000">o2::raw::RawFileReader</text>
<text text-anchor="middle" x="319.0761" y="-89.5" font-family="Helvetica,sans-Serif" font-size="10.00" fill="#000000">::LinkBlock</text>
<polyline fill="none" stroke="#000000" points="254.5761,-82.5 383.5761,-82.5 "/>
<text text-anchor="middle" x="319.0761" y="-70.5" font-family="Helvetica,sans-Serif" font-size="10.00" fill="#000000"> </text>
<polyline fill="none" stroke="#000000" points="254.5761,-63.5 383.5761,-63.5 "/>
<text text-anchor="start" x="262.5761" y="-51.5" font-family="Helvetica,sans-Serif" font-size="10.00" fill="#000000">+ LinkBlock()</text>
<text text-anchor="start" x="262.5761" y="-40.5" font-family="Helvetica,sans-Serif" font-size="10.00" fill="#000000">+ LinkBlock()</text>
<text text-anchor="start" x="262.5761" y="-29.5" font-family="Helvetica,sans-Serif" font-size="10.00" fill="#000000">+ setFlag()</text>
<text text-anchor="start" x="262.5761" y="-18.5" font-family="Helvetica,sans-Serif" font-size="10.00" fill="#000000">+ testFlag()</text>
<text text-anchor="start" x="262.5761" y="-7.5" font-family="Helvetica,sans-Serif" font-size="10.00" fill="#000000">+ print()</text>
</g>
<!-- Node2 -->
<g id="node2" class="node">
<title>Node2</title>
<g id="a_node2"><a xlink:href="../../d1/d21/structo2_1_1InteractionRecord.html" target="_top" xlink:title="{o2::InteractionRecord\n||+ InteractionRecord()\l+ InteractionRecord()\l+ InteractionRecord()\l+ InteractionRecord()\l+ clear()\l+ isDummy()\l+ setFromNS()\l+ bc2ns()\l+ operator==()\l+ operator!=()\l+ differenceInBC()\l+ toLong()\l+ setFromLong()\l+ operator\&gt;()\l+ operator\&gt;=()\l+ operator\&lt;()\l+ operator\&lt;=()\l+ operator&#45;&#45;()\l+ operator&#45;&#45;()\l+ operator++()\l+ operator++()\l+ operator+=()\l+ operator&#45;=()\l+ operator+=()\l+ operator&#45;=()\l+ operator+()\l+ operator&#45;()\l+ operator+()\l+ operator&#45;()\l+ print()\l+ ClassDefNV()\l+ bc2ns()\l+ ns2bc()\l}">
<polygon fill="none" stroke="#000000" points="117.5761,-160.5 117.5761,-569.5 238.5761,-569.5 238.5761,-160.5 117.5761,-160.5"/>
<text text-anchor="middle" x="178.0761" y="-557.5" font-family="Helvetica,sans-Serif" font-size="10.00" fill="#000000">o2::InteractionRecord</text>
<polyline fill="none" stroke="#000000" points="117.5761,-550.5 238.5761,-550.5 "/>
<text text-anchor="middle" x="178.0761" y="-538.5" font-family="Helvetica,sans-Serif" font-size="10.00" fill="#000000"> </text>
<polyline fill="none" stroke="#000000" points="117.5761,-531.5 238.5761,-531.5 "/>
<text text-anchor="start" x="125.5761" y="-519.5" font-family="Helvetica,sans-Serif" font-size="10.00" fill="#000000">+ InteractionRecord()</text>
<text text-anchor="start" x="125.5761" y="-508.5" font-family="Helvetica,sans-Serif" font-size="10.00" fill="#000000">+ InteractionRecord()</text>
<text text-anchor="start" x="125.5761" y="-497.5" font-family="Helvetica,sans-Serif" font-size="10.00" fill="#000000">+ InteractionRecord()</text>
<text text-anchor="start" x="125.5761" y="-486.5" font-family="Helvetica,sans-Serif" font-size="10.00" fill="#000000">+ InteractionRecord()</text>
<text text-anchor="start" x="125.5761" y="-475.5" font-family="Helvetica,sans-Serif" font-size="10.00" fill="#000000">+ clear()</text>
<text text-anchor="start" x="125.5761" y="-464.5" font-family="Helvetica,sans-Serif" font-size="10.00" fill="#000000">+ isDummy()</text>
<text text-anchor="start" x="125.5761" y="-453.5" font-family="Helvetica,sans-Serif" font-size="10.00" fill="#000000">+ setFromNS()</text>
<text text-anchor="start" x="125.5761" y="-442.5" font-family="Helvetica,sans-Serif" font-size="10.00" fill="#000000">+ bc2ns()</text>
<text text-anchor="start" x="125.5761" y="-431.5" font-family="Helvetica,sans-Serif" font-size="10.00" fill="#000000">+ operator==()</text>
<text text-anchor="start" x="125.5761" y="-420.5" font-family="Helvetica,sans-Serif" font-size="10.00" fill="#000000">+ operator!=()</text>
<text text-anchor="start" x="125.5761" y="-409.5" font-family="Helvetica,sans-Serif" font-size="10.00" fill="#000000">+ differenceInBC()</text>
<text text-anchor="start" x="125.5761" y="-398.5" font-family="Helvetica,sans-Serif" font-size="10.00" fill="#000000">+ toLong()</text>
<text text-anchor="start" x="125.5761" y="-387.5" font-family="Helvetica,sans-Serif" font-size="10.00" fill="#000000">+ setFromLong()</text>
<text text-anchor="start" x="125.5761" y="-376.5" font-family="Helvetica,sans-Serif" font-size="10.00" fill="#000000">+ operator&gt;()</text>
<text text-anchor="start" x="125.5761" y="-365.5" font-family="Helvetica,sans-Serif" font-size="10.00" fill="#000000">+ operator&gt;=()</text>
<text text-anchor="start" x="125.5761" y="-354.5" font-family="Helvetica,sans-Serif" font-size="10.00" fill="#000000">+ operator&lt;()</text>
<text text-anchor="start" x="125.5761" y="-343.5" font-family="Helvetica,sans-Serif" font-size="10.00" fill="#000000">+ operator&lt;=()</text>
<text text-anchor="start" x="125.5761" y="-332.5" font-family="Helvetica,sans-Serif" font-size="10.00" fill="#000000">+ operator&#45;&#45;()</text>
<text text-anchor="start" x="125.5761" y="-321.5" font-family="Helvetica,sans-Serif" font-size="10.00" fill="#000000">+ operator&#45;&#45;()</text>
<text text-anchor="start" x="125.5761" y="-310.5" font-family="Helvetica,sans-Serif" font-size="10.00" fill="#000000">+ operator++()</text>
<text text-anchor="start" x="125.5761" y="-299.5" font-family="Helvetica,sans-Serif" font-size="10.00" fill="#000000">+ operator++()</text>
<text text-anchor="start" x="125.5761" y="-288.5" font-family="Helvetica,sans-Serif" font-size="10.00" fill="#000000">+ operator+=()</text>
<text text-anchor="start" x="125.5761" y="-277.5" font-family="Helvetica,sans-Serif" font-size="10.00" fill="#000000">+ operator&#45;=()</text>
<text text-anchor="start" x="125.5761" y="-266.5" font-family="Helvetica,sans-Serif" font-size="10.00" fill="#000000">+ operator+=()</text>
<text text-anchor="start" x="125.5761" y="-255.5" font-family="Helvetica,sans-Serif" font-size="10.00" fill="#000000">+ operator&#45;=()</text>
<text text-anchor="start" x="125.5761" y="-244.5" font-family="Helvetica,sans-Serif" font-size="10.00" fill="#000000">+ operator+()</text>
<text text-anchor="start" x="125.5761" y="-233.5" font-family="Helvetica,sans-Serif" font-size="10.00" fill="#000000">+ operator&#45;()</text>
<text text-anchor="start" x="125.5761" y="-222.5" font-family="Helvetica,sans-Serif" font-size="10.00" fill="#000000">+ operator+()</text>
<text text-anchor="start" x="125.5761" y="-211.5" font-family="Helvetica,sans-Serif" font-size="10.00" fill="#000000">+ operator&#45;()</text>
<text text-anchor="start" x="125.5761" y="-200.5" font-family="Helvetica,sans-Serif" font-size="10.00" fill="#000000">+ print()</text>
<text text-anchor="start" x="125.5761" y="-189.5" font-family="Helvetica,sans-Serif" font-size="10.00" fill="#000000">+ ClassDefNV()</text>
<text text-anchor="start" x="125.5761" y="-178.5" font-family="Helvetica,sans-Serif" font-size="10.00" fill="#000000">+ bc2ns()</text>
<text text-anchor="start" x="125.5761" y="-167.5" font-family="Helvetica,sans-Serif" font-size="10.00" fill="#000000">+ ns2bc()</text>
</a>
</g>
</g>
<!-- Node2&#45;&gt;Node1 -->
<g id="edge1" class="edge">
<title>Node2&#45;&gt;Node1</title>
<path fill="none" stroke="#404040" d="M238.6911,-232.3779C255.8505,-194.8341 273.8069,-155.5464 288.3851,-123.6502"/>
<polygon fill="none" stroke="#404040" points="288.4055,-123.6054 287.2616,-116.4856 293.3938,-112.6913 294.5377,-119.8112 288.4055,-123.6054"/>
<text text-anchor="middle" x="294.5761" y="-134" font-family="Helvetica,sans-Serif" font-size="10.00" fill="#000000"> +ir</text>
</g>
<!-- Node3 -->
<g id="node3" class="node">
<title>Node3</title>
<polygon fill="none" stroke="#bfbfbf" points="108.0761,-628.5 108.0761,-685.5 158.0761,-685.5 158.0761,-628.5 108.0761,-628.5"/>
<text text-anchor="middle" x="133.0761" y="-673.5" font-family="Helvetica,sans-Serif" font-size="10.00" fill="#000000">double</text>
<polyline fill="none" stroke="#bfbfbf" points="108.0761,-666.5 158.0761,-666.5 "/>
<text text-anchor="middle" x="133.0761" y="-654.5" font-family="Helvetica,sans-Serif" font-size="10.00" fill="#000000"> </text>
<polyline fill="none" stroke="#bfbfbf" points="108.0761,-647.5 158.0761,-647.5 "/>
<text text-anchor="middle" x="133.0761" y="-635.5" font-family="Helvetica,sans-Serif" font-size="10.00" fill="#000000"> </text>
</g>
<!-- Node3&#45;&gt;Node2 -->
<g id="edge2" class="edge">
<title>Node3&#45;&gt;Node2</title>
<path fill="none" stroke="#404040" d="M132.3382,-628.3962C132.3145,-615.9543 132.687,-601.2255 134.0761,-588 134.2957,-585.9089 134.5253,-583.8083 134.7643,-581.6994"/>
<polygon fill="none" stroke="#404040" points="134.7938,-581.4537 131.5418,-575.0175 136.2322,-569.5402 139.4842,-575.9764 134.7938,-581.4537"/>
<text text-anchor="middle" x="172.0761" y="-596.5" font-family="Helvetica,sans-Serif" font-size="10.00" fill="#000000"> +DummyTime</text>
</g>
<!-- Node4 -->
<g id="node4" class="node">
<title>Node4</title>
<polygon fill="none" stroke="#bfbfbf" points="2.0761,-628.5 2.0761,-685.5 58.0761,-685.5 58.0761,-628.5 2.0761,-628.5"/>
<text text-anchor="middle" x="30.0761" y="-673.5" font-family="Helvetica,sans-Serif" font-size="10.00" fill="#000000">uint16_t</text>
<polyline fill="none" stroke="#bfbfbf" points="2.0761,-666.5 58.0761,-666.5 "/>
<text text-anchor="middle" x="30.0761" y="-654.5" font-family="Helvetica,sans-Serif" font-size="10.00" fill="#000000"> </text>
<polyline fill="none" stroke="#bfbfbf" points="2.0761,-647.5 58.0761,-647.5 "/>
<text text-anchor="middle" x="30.0761" y="-635.5" font-family="Helvetica,sans-Serif" font-size="10.00" fill="#000000"> </text>
</g>
<!-- Node4&#45;&gt;Node1 -->
<g id="edge5" class="edge">
<title>Node4&#45;&gt;Node1</title>
<path fill="none" stroke="#404040" d="M23.0823,-628.2824C4.8581,-546.1334 -35.6177,-306.6811 71.0761,-160 110.9813,-105.1389 185.5643,-79.2085 242.5572,-67.0429"/>
<polygon fill="none" stroke="#404040" points="242.6694,-67.0204 247.7612,-61.9142 254.433,-64.6504 249.3412,-69.7566 242.6694,-67.0204"/>
<text text-anchor="middle" x="89.5761" y="-362.5" font-family="Helvetica,sans-Serif" font-size="10.00" fill="#000000"> +fileID</text>
</g>
<!-- Node4&#45;&gt;Node2 -->
<g id="edge3" class="edge">
<title>Node4&#45;&gt;Node2</title>
<path fill="none" stroke="#404040" d="M44.5364,-628.4702C60.3253,-597.3191 86.73,-545.2235 111.9108,-495.5424"/>
<polygon fill="none" stroke="#404040" points="112.0041,-495.3582 111.1488,-488.198 117.4293,-484.6545 118.2846,-491.8148 112.0041,-495.3582"/>
<text text-anchor="middle" x="94.0761" y="-602" font-family="Helvetica,sans-Serif" font-size="10.00" fill="#000000"> +DummyBC</text>
<text text-anchor="middle" x="94.0761" y="-591" font-family="Helvetica,sans-Serif" font-size="10.00" fill="#000000">+bc</text>
</g>
<!-- Node5 -->
<g id="node5" class="node">
<title>Node5</title>
<g id="a_node5"><a xlink:href="../../d3/d87/classuint32__t.html" target="_top" xlink:title="{uint32_t\n||}">
<polygon fill="none" stroke="#000000" points="247.0761,-628.5 247.0761,-685.5 303.0761,-685.5 303.0761,-628.5 247.0761,-628.5"/>
<text text-anchor="middle" x="275.0761" y="-673.5" font-family="Helvetica,sans-Serif" font-size="10.00" fill="#000000">uint32_t</text>
<polyline fill="none" stroke="#000000" points="247.0761,-666.5 303.0761,-666.5 "/>
<text text-anchor="middle" x="275.0761" y="-654.5" font-family="Helvetica,sans-Serif" font-size="10.00" fill="#000000"> </text>
<polyline fill="none" stroke="#000000" points="247.0761,-647.5 303.0761,-647.5 "/>
<text text-anchor="middle" x="275.0761" y="-635.5" font-family="Helvetica,sans-Serif" font-size="10.00" fill="#000000"> </text>
</a>
</g>
</g>
<!-- Node5&#45;&gt;Node1 -->
<g id="edge8" class="edge">
<title>Node5&#45;&gt;Node1</title>
<path fill="none" stroke="#404040" d="M296.7368,-628.3715C300.1328,-622.5619 303.1516,-616.295 305.0761,-610 332.1717,-521.3715 326.3916,-252.222 321.8891,-124.7868"/>
<polygon fill="none" stroke="#404040" points="321.8799,-124.5316 317.665,-118.6806 321.4448,-112.5395 325.6597,-118.3905 321.8799,-124.5316"/>
<text text-anchor="middle" x="340.0761" y="-368" font-family="Helvetica,sans-Serif" font-size="10.00" fill="#000000"> +tfID</text>
<text text-anchor="middle" x="340.0761" y="-357" font-family="Helvetica,sans-Serif" font-size="10.00" fill="#000000">+size</text>
</g>
<!-- Node5&#45;&gt;Node2 -->
<g id="edge4" class="edge">
<title>Node5&#45;&gt;Node2</title>
<path fill="none" stroke="#404040" d="M246.9752,-630.1759C241.7151,-623.978 236.7299,-617.1038 233.0761,-610 228.2954,-600.7052 223.9278,-591.0024 219.9378,-581.0494"/>
<polygon fill="none" stroke="#404040" points="219.8878,-580.919 214.0048,-576.7488 215.5915,-569.7144 221.4745,-573.8846 219.8878,-580.919"/>
<text text-anchor="middle" x="269.0761" y="-602" font-family="Helvetica,sans-Serif" font-size="10.00" fill="#000000"> +orbit</text>
<text text-anchor="middle" x="269.0761" y="-591" font-family="Helvetica,sans-Serif" font-size="10.00" fill="#000000">+DummyOrbit</text>
</g>
<!-- Node6 -->
<g id="node6" class="node">
<title>Node6</title>
<polygon fill="none" stroke="#bfbfbf" points="367.0761,-336.5 367.0761,-393.5 417.0761,-393.5 417.0761,-336.5 367.0761,-336.5"/>
<text text-anchor="middle" x="392.0761" y="-381.5" font-family="Helvetica,sans-Serif" font-size="10.00" fill="#000000">uint8_t</text>
<polyline fill="none" stroke="#bfbfbf" points="367.0761,-374.5 417.0761,-374.5 "/>
<text text-anchor="middle" x="392.0761" y="-362.5" font-family="Helvetica,sans-Serif" font-size="10.00" fill="#000000"> </text>
<polyline fill="none" stroke="#bfbfbf" points="367.0761,-355.5 417.0761,-355.5 "/>
<text text-anchor="middle" x="392.0761" y="-343.5" font-family="Helvetica,sans-Serif" font-size="10.00" fill="#000000"> </text>
</g>
<!-- Node6&#45;&gt;Node1 -->
<g id="edge6" class="edge">
<title>Node6&#45;&gt;Node1</title>
<path fill="none" stroke="#404040" d="M387.8067,-336.2203C381.6146,-296.3188 369.1083,-222.0881 353.0761,-160 350.0616,-148.3256 346.44,-136.0473 342.7006,-124.1898"/>
<polygon fill="none" stroke="#404040" points="342.618,-123.933 336.9716,-119.4477 338.9402,-112.5105 344.5866,-116.9958 342.618,-123.933"/>
<text text-anchor="middle" x="364.5761" y="-134" font-family="Helvetica,sans-Serif" font-size="10.00" fill="#000000"> +flags</text>
</g>
<!-- Node7 -->
<g id="node7" class="node">
<title>Node7</title>
<polygon fill="none" stroke="#bfbfbf" points="435.5761,-336.5 435.5761,-393.5 480.5761,-393.5 480.5761,-336.5 435.5761,-336.5"/>
<text text-anchor="middle" x="458.0761" y="-381.5" font-family="Helvetica,sans-Serif" font-size="10.00" fill="#000000">size_t</text>
<polyline fill="none" stroke="#bfbfbf" points="435.5761,-374.5 480.5761,-374.5 "/>
<text text-anchor="middle" x="458.0761" y="-362.5" font-family="Helvetica,sans-Serif" font-size="10.00" fill="#000000"> </text>
<polyline fill="none" stroke="#bfbfbf" points="435.5761,-355.5 480.5761,-355.5 "/>
<text text-anchor="middle" x="458.0761" y="-343.5" font-family="Helvetica,sans-Serif" font-size="10.00" fill="#000000"> </text>
</g>
<!-- Node7&#45;&gt;Node1 -->
<g id="edge7" class="edge">
<title>Node7&#45;&gt;Node1</title>
<path fill="none" stroke="#404040" d="M459.186,-336.399C459.5997,-295.091 455.8442,-217.3981 426.0761,-160 417.5355,-143.5322 405.3725,-128.1624 392.2899,-114.5695"/>
<polygon fill="none" stroke="#404040" points="392.0895,-114.3698 385.0158,-112.9685 383.5887,-105.9 390.6624,-107.3013 392.0895,-114.3698"/>
<text text-anchor="middle" x="433.0761" y="-134" font-family="Helvetica,sans-Serif" font-size="10.00" fill="#000000"> +offset</text>
</g>
</g>
</svg>
