<?xml version="1.0" encoding="UTF-8" standalone="no"?>
<!DOCTYPE svg PUBLIC "-//W3C//DTD SVG 1.1//EN"
 "http://www.w3.org/Graphics/SVG/1.1/DTD/svg11.dtd">
<!-- Generated by graphviz version 2.40.1 (20161225.0304)
 -->
<!-- Title: /home/travis/build/AliceO2Group/AliceO2/Detectors/ITSMFT/MFT/workflow/src/ClusterReaderSpec.cxx Pages: 1 -->
<svg width="1310pt" height="441pt"
 viewBox="0.00 0.00 1309.57 441.00" xmlns="http://www.w3.org/2000/svg" xmlns:xlink="http://www.w3.org/1999/xlink">
<g id="graph0" class="graph" transform="scale(1 1) rotate(0) translate(4 437)">
<title>/home/travis/build/AliceO2Group/AliceO2/Detectors/ITSMFT/MFT/workflow/src/ClusterReaderSpec.cxx</title>
<!-- Node0 -->
<g id="node1" class="node">
<title>Node0</title>
<polygon fill="#bfbfbf" stroke="#000000" points="528.5676,-380.5 528.5676,-432.5 724.5676,-432.5 724.5676,-380.5 528.5676,-380.5"/>
<text text-anchor="start" x="536.5676" y="-420.5" font-family="Helvetica,sans-Serif" font-size="10.00" fill="#000000">/home/travis/build</text>
<text text-anchor="start" x="536.5676" y="-409.5" font-family="Helvetica,sans-Serif" font-size="10.00" fill="#000000">/AliceO2Group/AliceO2</text>
<text text-anchor="start" x="536.5676" y="-398.5" font-family="Helvetica,sans-Serif" font-size="10.00" fill="#000000">/Detectors/ITSMFT/MFT</text>
<text text-anchor="middle" x="626.5676" y="-387.5" font-family="Helvetica,sans-Serif" font-size="10.00" fill="#000000">/workflow/src/ClusterReaderSpec.cxx</text>
</g>
<!-- Node1 -->
<g id="node2" class="node">
<title>Node1</title>
<polygon fill="none" stroke="#bfbfbf" points="383.0676,-118 383.0676,-137 430.0676,-137 430.0676,-118 383.0676,-118"/>
<text text-anchor="middle" x="406.5676" y="-125" font-family="Helvetica,sans-Serif" font-size="10.00" fill="#000000">vector</text>
</g>
<!-- Node0&#45;&gt;Node1 -->
<g id="edge1" class="edge">
<title>Node0&#45;&gt;Node1</title>
<path fill="none" stroke="#191970" d="M625.5615,-380.4037C623.8223,-360.7687 619.2739,-333.7826 607.5676,-313 563.2918,-234.3961 474.0298,-170.2949 430.9386,-142.4627"/>
<polygon fill="#191970" stroke="#191970" points="432.7936,-139.4945 422.4771,-137.0819 429.0373,-145.4014 432.7936,-139.4945"/>
</g>
<!-- Node2 -->
<g id="node3" class="node">
<title>Node2</title>
<polygon fill="none" stroke="#bfbfbf" points="204.5676,-313.5 204.5676,-343.5 356.5676,-343.5 356.5676,-313.5 204.5676,-313.5"/>
<text text-anchor="start" x="212.5676" y="-331.5" font-family="Helvetica,sans-Serif" font-size="10.00" fill="#000000">MFTWorkflow/ClusterReader</text>
<text text-anchor="middle" x="280.5676" y="-320.5" font-family="Helvetica,sans-Serif" font-size="10.00" fill="#000000">Spec.h</text>
</g>
<!-- Node0&#45;&gt;Node2 -->
<g id="edge2" class="edge">
<title>Node0&#45;&gt;Node2</title>
<path fill="none" stroke="#191970" d="M528.3434,-384.357C474.0253,-372.1119 407.529,-357.1214 357.1038,-345.7538"/>
<polygon fill="#191970" stroke="#191970" points="357.7664,-342.3154 347.2414,-343.5305 356.2269,-349.1441 357.7664,-342.3154"/>
</g>
<!-- Node3 -->
<g id="node4" class="node">
<title>Node3</title>
<polygon fill="none" stroke="#bfbfbf" points="374.5676,-319 374.5676,-338 426.5676,-338 426.5676,-319 374.5676,-319"/>
<text text-anchor="middle" x="400.5676" y="-326" font-family="Helvetica,sans-Serif" font-size="10.00" fill="#000000">TTree.h</text>
</g>
<!-- Node0&#45;&gt;Node3 -->
<g id="edge3" class="edge">
<title>Node0&#45;&gt;Node3</title>
<path fill="none" stroke="#191970" d="M540.8256,-380.4707C507.6806,-369.8814 469.6052,-357.0678 435.5676,-344 433.9468,-343.3777 432.2923,-342.721 430.6278,-342.0435"/>
<polygon fill="#191970" stroke="#191970" points="431.7248,-338.7071 421.1518,-338.028 428.9936,-345.1523 431.7248,-338.7071"/>
</g>
<!-- Node4 -->
<g id="node5" class="node">
<title>Node4</title>
<g id="a_node5"><a xlink:href="../../d2/d43/ControlService_8h.html" target="_top" xlink:title="Framework/ControlService.h">
<polygon fill="none" stroke="#000000" points="444.5676,-319 444.5676,-338 598.5676,-338 598.5676,-319 444.5676,-319"/>
<text text-anchor="middle" x="521.5676" y="-326" font-family="Helvetica,sans-Serif" font-size="10.00" fill="#000000">Framework/ControlService.h</text>
</a>
</g>
</g>
<!-- Node0&#45;&gt;Node4 -->
<g id="edge4" class="edge">
<title>Node0&#45;&gt;Node4</title>
<path fill="none" stroke="#191970" d="M591.312,-380.3101C575.282,-368.4021 556.839,-354.7017 542.9461,-344.3812"/>
<polygon fill="#191970" stroke="#191970" points="544.6593,-341.2938 534.5447,-338.1401 540.485,-346.913 544.6593,-341.2938"/>
</g>
<!-- Node5 -->
<g id="node6" class="node">
<title>Node5</title>
<g id="a_node6"><a xlink:href="../../de/dc6/ConfigParamRegistry_8h.html" target="_top" xlink:title="Framework/ConfigParamRegistry.h">
<polygon fill="none" stroke="#000000" points="4.5676,-319 4.5676,-338 186.5676,-338 186.5676,-319 4.5676,-319"/>
<text text-anchor="middle" x="95.5676" y="-326" font-family="Helvetica,sans-Serif" font-size="10.00" fill="#000000">Framework/ConfigParamRegistry.h</text>
</a>
</g>
</g>
<!-- Node0&#45;&gt;Node5 -->
<g id="edge5" class="edge">
<title>Node0&#45;&gt;Node5</title>
<path fill="none" stroke="#191970" d="M528.5292,-392.5615C441.1455,-380.0714 309.7826,-361.1325 195.5676,-344 186.1544,-342.588 176.2465,-341.0794 166.4749,-339.5783"/>
<polygon fill="#191970" stroke="#191970" points="166.784,-336.0848 156.3676,-338.0212 165.718,-343.0031 166.784,-336.0848"/>
</g>
<!-- Node23 -->
<g id="node24" class="node">
<title>Node23</title>
<g id="a_node24"><a xlink:href="../../df/de4/CompCluster_8h.html" target="_top" xlink:title="Definition of the ITSMFT compact cluster. ">
<polygon fill="none" stroke="#000000" points="1113.5676,-252 1113.5676,-271 1301.5676,-271 1301.5676,-252 1113.5676,-252"/>
<text text-anchor="middle" x="1207.5676" y="-259" font-family="Helvetica,sans-Serif" font-size="10.00" fill="#000000">DataFormatsITSMFT/CompCluster.h</text>
</a>
</g>
</g>
<!-- Node0&#45;&gt;Node23 -->
<g id="edge30" class="edge">
<title>Node0&#45;&gt;Node23</title>
<path fill="none" stroke="#191970" d="M724.7976,-381.9848C850.7709,-350.5456 1064.2958,-297.2563 1159.3924,-273.5231"/>
<polygon fill="#191970" stroke="#191970" points="1160.4511,-276.8663 1169.306,-271.0489 1158.756,-270.0746 1160.4511,-276.8663"/>
</g>
<!-- Node25 -->
<g id="node26" class="node">
<title>Node25</title>
<g id="a_node26"><a xlink:href="../../d0/dc6/ITSMFT_2common_2include_2DataFormatsITSMFT_2ROFRecord_8h.html" target="_top" xlink:title="DataFormatsITSMFT/ROFRecord.h">
<polygon fill="none" stroke="#000000" points="849.0676,-252 849.0676,-271 1028.0676,-271 1028.0676,-252 849.0676,-252"/>
<text text-anchor="middle" x="938.5676" y="-259" font-family="Helvetica,sans-Serif" font-size="10.00" fill="#000000">DataFormatsITSMFT/ROFRecord.h</text>
</a>
</g>
</g>
<!-- Node0&#45;&gt;Node25 -->
<g id="edge32" class="edge">
<title>Node0&#45;&gt;Node25</title>
<path fill="none" stroke="#191970" d="M682.7073,-380.4094C748.965,-349.6166 856.6854,-299.5542 908.6518,-275.4032"/>
<polygon fill="#191970" stroke="#191970" points="910.3852,-278.4572 917.9786,-271.0686 907.4349,-272.1092 910.3852,-278.4572"/>
</g>
<!-- Node32 -->
<g id="node33" class="node">
<title>Node32</title>
<g id="a_node33"><a xlink:href="../../d7/dcd/MCCompLabel_8h.html" target="_top" xlink:title="SimulationDataFormat\l/MCCompLabel.h">
<polygon fill="none" stroke="#000000" points="693.0676,-246.5 693.0676,-276.5 820.0676,-276.5 820.0676,-246.5 693.0676,-246.5"/>
<text text-anchor="start" x="701.0676" y="-264.5" font-family="Helvetica,sans-Serif" font-size="10.00" fill="#000000">SimulationDataFormat</text>
<text text-anchor="middle" x="756.5676" y="-253.5" font-family="Helvetica,sans-Serif" font-size="10.00" fill="#000000">/MCCompLabel.h</text>
</a>
</g>
</g>
<!-- Node0&#45;&gt;Node32 -->
<g id="edge43" class="edge">
<title>Node0&#45;&gt;Node32</title>
<path fill="none" stroke="#191970" d="M650.1096,-380.2416C674.644,-352.8763 712.7031,-310.4258 736.0491,-284.3859"/>
<polygon fill="#191970" stroke="#191970" points="738.7214,-286.6485 742.7908,-276.8663 733.5094,-281.9757 738.7214,-286.6485"/>
</g>
<!-- Node33 -->
<g id="node34" class="node">
<title>Node33</title>
<g id="a_node34"><a xlink:href="../../db/d14/MCTruthContainer_8h.html" target="_top" xlink:title="Definition of a container to keep Monte Carlo truth external to simulation objects. ">
<polygon fill="none" stroke="#000000" points="586.0676,-179.5 586.0676,-209.5 713.0676,-209.5 713.0676,-179.5 586.0676,-179.5"/>
<text text-anchor="start" x="594.0676" y="-197.5" font-family="Helvetica,sans-Serif" font-size="10.00" fill="#000000">SimulationDataFormat</text>
<text text-anchor="middle" x="649.5676" y="-186.5" font-family="Helvetica,sans-Serif" font-size="10.00" fill="#000000">/MCTruthContainer.h</text>
</a>
</g>
</g>
<!-- Node0&#45;&gt;Node33 -->
<g id="edge45" class="edge">
<title>Node0&#45;&gt;Node33</title>
<path fill="none" stroke="#191970" d="M633.4388,-380.2146C636.0838,-369.1134 638.8733,-356.0013 640.5676,-344 646.659,-300.8514 648.632,-250.1268 649.2683,-220.2373"/>
<polygon fill="#191970" stroke="#191970" points="652.7743,-219.9219 649.4525,-209.8613 645.7754,-219.7975 652.7743,-219.9219"/>
</g>
<!-- Node6 -->
<g id="node7" class="node">
<title>Node6</title>
<g id="a_node7"><a xlink:href="../../df/d72/ParamRetriever_8h.html" target="_top" xlink:title="Framework/ParamRetriever.h">
<polygon fill="none" stroke="#000000" points="150.0676,-185 150.0676,-204 307.0676,-204 307.0676,-185 150.0676,-185"/>
<text text-anchor="middle" x="228.5676" y="-192" font-family="Helvetica,sans-Serif" font-size="10.00" fill="#000000">Framework/ParamRetriever.h</text>
</a>
</g>
</g>
<!-- Node5&#45;&gt;Node6 -->
<g id="edge6" class="edge">
<title>Node5&#45;&gt;Node6</title>
<path fill="none" stroke="#191970" d="M137.0393,-318.9763C160.937,-311.4232 189.6923,-298.4594 207.5676,-277 222.3729,-259.226 226.9243,-232.3475 228.2259,-214.1411"/>
<polygon fill="#191970" stroke="#191970" points="231.7253,-214.232 228.679,-204.0846 224.7324,-213.9169 231.7253,-214.232"/>
</g>
<!-- Node17 -->
<g id="node18" class="node">
<title>Node17</title>
<polygon fill="none" stroke="#bfbfbf" points="166.5676,-.5 166.5676,-19.5 210.5676,-19.5 210.5676,-.5 166.5676,-.5"/>
<text text-anchor="middle" x="188.5676" y="-7.5" font-family="Helvetica,sans-Serif" font-size="10.00" fill="#000000">string</text>
</g>
<!-- Node5&#45;&gt;Node17 -->
<g id="edge28" class="edge">
<title>Node5&#45;&gt;Node17</title>
<path fill="none" stroke="#191970" d="M73.1698,-318.9525C55.9056,-310.4388 32.8123,-296.3267 19.5676,-277 -1.7027,-245.9625 .5676,-232.1265 .5676,-194.5 .5676,-194.5 .5676,-194.5 .5676,-127.5 .5676,-54.9717 102.4297,-25.5534 156.1957,-15.0772"/>
<polygon fill="#191970" stroke="#191970" points="157.0604,-18.477 166.2632,-13.2274 155.7954,-11.5923 157.0604,-18.477"/>
</g>
<!-- Node19 -->
<g id="node20" class="node">
<title>Node19</title>
<g id="a_node20"><a xlink:href="../../dd/daf/ConfigParamStore_8h.html" target="_top" xlink:title="Framework/ConfigParamStore.h">
<polygon fill="none" stroke="#000000" points="28.5676,-252 28.5676,-271 198.5676,-271 198.5676,-252 28.5676,-252"/>
<text text-anchor="middle" x="113.5676" y="-259" font-family="Helvetica,sans-Serif" font-size="10.00" fill="#000000">Framework/ConfigParamStore.h</text>
</a>
</g>
</g>
<!-- Node5&#45;&gt;Node19 -->
<g id="edge22" class="edge">
<title>Node5&#45;&gt;Node19</title>
<path fill="none" stroke="#191970" d="M98.1465,-318.9005C100.7931,-309.0495 104.9853,-293.4451 108.3311,-280.9912"/>
<polygon fill="#191970" stroke="#191970" points="111.7789,-281.6473 110.9934,-271.0817 105.0186,-279.8311 111.7789,-281.6473"/>
</g>
<!-- Node20 -->
<g id="node21" class="node">
<title>Node20</title>
<polygon fill="none" stroke="#bfbfbf" points="255.0676,-246.5 255.0676,-276.5 368.0676,-276.5 368.0676,-246.5 255.0676,-246.5"/>
<text text-anchor="start" x="263.0676" y="-264.5" font-family="Helvetica,sans-Serif" font-size="10.00" fill="#000000">boost/property_tree</text>
<text text-anchor="middle" x="311.5676" y="-253.5" font-family="Helvetica,sans-Serif" font-size="10.00" fill="#000000">/ptree.hpp</text>
</g>
<!-- Node5&#45;&gt;Node20 -->
<g id="edge26" class="edge">
<title>Node5&#45;&gt;Node20</title>
<path fill="none" stroke="#191970" d="M126.5151,-318.9005C159.5614,-308.6501 212.6907,-292.1702 253.5623,-279.4924"/>
<polygon fill="#191970" stroke="#191970" points="254.6251,-282.8273 263.1392,-276.5218 252.5512,-276.1416 254.6251,-282.8273"/>
</g>
<!-- Node21 -->
<g id="node22" class="node">
<title>Node21</title>
<polygon fill="none" stroke="#bfbfbf" points="448.5676,-118 448.5676,-137 506.5676,-137 506.5676,-118 448.5676,-118"/>
<text text-anchor="middle" x="477.5676" y="-125" font-family="Helvetica,sans-Serif" font-size="10.00" fill="#000000">memory</text>
</g>
<!-- Node5&#45;&gt;Node21 -->
<g id="edge27" class="edge">
<title>Node5&#45;&gt;Node21</title>
<path fill="none" stroke="#191970" d="M154.0193,-318.9732C233.5969,-305.8313 367.2787,-283.0719 376.5676,-277 425.7987,-244.8189 457.1475,-179.4147 470.3603,-146.8387"/>
<polygon fill="#191970" stroke="#191970" points="473.7683,-147.7332 474.1455,-137.1451 467.2478,-145.187 473.7683,-147.7332"/>
</g>
<!-- Node22 -->
<g id="node23" class="node">
<title>Node22</title>
<polygon fill="none" stroke="#bfbfbf" points="524.5676,-118 524.5676,-137 576.5676,-137 576.5676,-118 524.5676,-118"/>
<text text-anchor="middle" x="550.5676" y="-125" font-family="Helvetica,sans-Serif" font-size="10.00" fill="#000000">cassert</text>
</g>
<!-- Node5&#45;&gt;Node22 -->
<g id="edge29" class="edge">
<title>Node5&#45;&gt;Node22</title>
<path fill="none" stroke="#191970" d="M156.2197,-318.9825C245.3968,-304.9196 402.0219,-279.9267 407.5676,-277 467.9907,-245.1115 517.5733,-178.0689 539.064,-145.722"/>
<polygon fill="#191970" stroke="#191970" points="542.0726,-147.5156 544.5904,-137.2243 536.2044,-143.6992 542.0726,-147.5156"/>
</g>
<!-- Node6&#45;&gt;Node1 -->
<g id="edge21" class="edge">
<title>Node6&#45;&gt;Node1</title>
<path fill="none" stroke="#191970" d="M258.0469,-184.9723C287.5716,-175.2104 334.161,-159.2072 373.5676,-143 374.9213,-142.4432 376.2997,-141.8606 377.6873,-141.2613"/>
<polygon fill="#191970" stroke="#191970" points="379.1261,-144.452 386.814,-137.1619 376.2579,-138.0665 379.1261,-144.452"/>
</g>
<!-- Node7 -->
<g id="node8" class="node">
<title>Node7</title>
<g id="a_node8"><a xlink:href="../../d0/d1c/ConfigParamSpec_8h.html" target="_top" xlink:title="Framework/ConfigParamSpec.h">
<polygon fill="none" stroke="#000000" points="198.0676,-118 198.0676,-137 365.0676,-137 365.0676,-118 198.0676,-118"/>
<text text-anchor="middle" x="281.5676" y="-125" font-family="Helvetica,sans-Serif" font-size="10.00" fill="#000000">Framework/ConfigParamSpec.h</text>
</a>
</g>
</g>
<!-- Node6&#45;&gt;Node7 -->
<g id="edge7" class="edge">
<title>Node6&#45;&gt;Node7</title>
<path fill="none" stroke="#191970" d="M236.1612,-184.9005C244.3474,-174.552 257.5561,-157.8542 267.6219,-145.1295"/>
<polygon fill="#191970" stroke="#191970" points="270.529,-147.0959 273.9881,-137.0817 265.039,-142.7531 270.529,-147.0959"/>
</g>
<!-- Node6&#45;&gt;Node17 -->
<g id="edge20" class="edge">
<title>Node6&#45;&gt;Node17</title>
<path fill="none" stroke="#191970" d="M217.6465,-184.7122C207.8945,-175.1761 194.2935,-159.7068 188.5676,-143 175.4011,-104.5836 180.3256,-56.1782 184.6981,-29.6409"/>
<polygon fill="#191970" stroke="#191970" points="188.1607,-30.1608 186.4839,-19.6995 181.271,-28.9232 188.1607,-30.1608"/>
</g>
<!-- Node18 -->
<g id="node19" class="node">
<title>Node18</title>
<polygon fill="none" stroke="#bfbfbf" points="29.0676,-112.5 29.0676,-142.5 142.0676,-142.5 142.0676,-112.5 29.0676,-112.5"/>
<text text-anchor="start" x="37.0676" y="-130.5" font-family="Helvetica,sans-Serif" font-size="10.00" fill="#000000">boost/property_tree</text>
<text text-anchor="middle" x="85.5676" y="-119.5" font-family="Helvetica,sans-Serif" font-size="10.00" fill="#000000">/ptree_fwd.hpp</text>
</g>
<!-- Node6&#45;&gt;Node18 -->
<g id="edge19" class="edge">
<title>Node6&#45;&gt;Node18</title>
<path fill="none" stroke="#191970" d="M208.0792,-184.9005C186.9398,-174.9961 153.3872,-159.2756 126.7362,-146.7888"/>
<polygon fill="#191970" stroke="#191970" points="128.1693,-143.5952 117.629,-142.5218 125.1993,-149.9339 128.1693,-143.5952"/>
</g>
<!-- Node8 -->
<g id="node9" class="node">
<title>Node8</title>
<g id="a_node9"><a xlink:href="../../de/d56/Variant_8h.html" target="_top" xlink:title="Framework/Variant.h">
<polygon fill="none" stroke="#000000" points="433.0676,-56.5 433.0676,-75.5 550.0676,-75.5 550.0676,-56.5 433.0676,-56.5"/>
<text text-anchor="middle" x="491.5676" y="-63.5" font-family="Helvetica,sans-Serif" font-size="10.00" fill="#000000">Framework/Variant.h</text>
</a>
</g>
</g>
<!-- Node7&#45;&gt;Node8 -->
<g id="edge8" class="edge">
<title>Node7&#45;&gt;Node8</title>
<path fill="none" stroke="#191970" d="M314.3801,-117.8906C350.7498,-107.2395 409.5154,-90.0296 449.3038,-78.3772"/>
<polygon fill="#191970" stroke="#191970" points="450.3723,-81.7114 458.9855,-75.5419 448.4049,-74.9936 450.3723,-81.7114"/>
</g>
<!-- Node7&#45;&gt;Node17 -->
<g id="edge18" class="edge">
<title>Node7&#45;&gt;Node17</title>
<path fill="none" stroke="#191970" d="M273.957,-117.8845C258.3571,-98.1749 222.5484,-52.9328 202.6134,-27.7461"/>
<polygon fill="#191970" stroke="#191970" points="205.2339,-25.4174 196.2833,-19.7484 199.7451,-29.7617 205.2339,-25.4174"/>
</g>
<!-- Node9 -->
<g id="node10" class="node">
<title>Node9</title>
<polygon fill="none" stroke="#bfbfbf" points="588.0676,-.5 588.0676,-19.5 657.0676,-19.5 657.0676,-.5 588.0676,-.5"/>
<text text-anchor="middle" x="622.5676" y="-7.5" font-family="Helvetica,sans-Serif" font-size="10.00" fill="#000000">type_traits</text>
</g>
<!-- Node8&#45;&gt;Node9 -->
<g id="edge9" class="edge">
<title>Node8&#45;&gt;Node9</title>
<path fill="none" stroke="#191970" d="M514.0873,-56.3733C535.3048,-47.3032 567.2952,-33.6279 591.0444,-23.4755"/>
<polygon fill="#191970" stroke="#191970" points="592.5224,-26.6502 600.3417,-19.5011 589.7709,-20.2136 592.5224,-26.6502"/>
</g>
<!-- Node10 -->
<g id="node11" class="node">
<title>Node10</title>
<polygon fill="none" stroke="#bfbfbf" points="675.5676,-.5 675.5676,-19.5 725.5676,-19.5 725.5676,-.5 675.5676,-.5"/>
<text text-anchor="middle" x="700.5676" y="-7.5" font-family="Helvetica,sans-Serif" font-size="10.00" fill="#000000">cstring</text>
</g>
<!-- Node8&#45;&gt;Node10 -->
<g id="edge10" class="edge">
<title>Node8&#45;&gt;Node10</title>
<path fill="none" stroke="#191970" d="M529.2035,-56.4436C562.6206,-47.8834 613.0181,-34.7917 665.5165,-20.2414"/>
<polygon fill="#191970" stroke="#191970" points="666.644,-23.5607 675.3399,-17.5083 664.7677,-16.8168 666.644,-23.5607"/>
</g>
<!-- Node11 -->
<g id="node12" class="node">
<title>Node11</title>
<polygon fill="none" stroke="#bfbfbf" points="811.5676,-.5 811.5676,-19.5 861.5676,-19.5 861.5676,-.5 811.5676,-.5"/>
<text text-anchor="middle" x="836.5676" y="-7.5" font-family="Helvetica,sans-Serif" font-size="10.00" fill="#000000">cstdint</text>
</g>
<!-- Node8&#45;&gt;Node11 -->
<g id="edge11" class="edge">
<title>Node8&#45;&gt;Node11</title>
<path fill="none" stroke="#191970" d="M550.1872,-59.7964C610.8914,-52.8191 708.5832,-40.0471 801.5656,-19.9791"/>
<polygon fill="#191970" stroke="#191970" points="802.3983,-23.3797 811.4178,-17.821 800.9005,-16.5418 802.3983,-23.3797"/>
</g>
<!-- Node12 -->
<g id="node13" class="node">
<title>Node12</title>
<polygon fill="none" stroke="#bfbfbf" points="337.0676,-.5 337.0676,-19.5 386.0676,-19.5 386.0676,-.5 337.0676,-.5"/>
<text text-anchor="middle" x="361.5676" y="-7.5" font-family="Helvetica,sans-Serif" font-size="10.00" fill="#000000">cstdlib</text>
</g>
<!-- Node8&#45;&gt;Node12 -->
<g id="edge12" class="edge">
<title>Node8&#45;&gt;Node12</title>
<path fill="none" stroke="#191970" d="M469.2198,-56.3733C448.1642,-47.3032 416.418,-33.6279 392.8501,-23.4755"/>
<polygon fill="#191970" stroke="#191970" points="394.1926,-20.243 383.6238,-19.5011 391.4232,-26.6719 394.1926,-20.243"/>
</g>
<!-- Node13 -->
<g id="node14" class="node">
<title>Node13</title>
<polygon fill="none" stroke="#bfbfbf" points="505.0676,-.5 505.0676,-19.5 570.0676,-19.5 570.0676,-.5 505.0676,-.5"/>
<text text-anchor="middle" x="537.5676" y="-7.5" font-family="Helvetica,sans-Serif" font-size="10.00" fill="#000000">stdexcept</text>
</g>
<!-- Node8&#45;&gt;Node13 -->
<g id="edge13" class="edge">
<title>Node8&#45;&gt;Node13</title>
<path fill="none" stroke="#191970" d="M499.5802,-56.2455C506.0443,-48.3761 515.306,-37.101 523.0659,-27.6542"/>
<polygon fill="#191970" stroke="#191970" points="526.0039,-29.5916 529.6468,-19.6427 520.5948,-25.1484 526.0039,-29.5916"/>
</g>
<!-- Node14 -->
<g id="node15" class="node">
<title>Node14</title>
<polygon fill="none" stroke="#bfbfbf" points="744.0676,-.5 744.0676,-19.5 793.0676,-19.5 793.0676,-.5 744.0676,-.5"/>
<text text-anchor="middle" x="768.5676" y="-7.5" font-family="Helvetica,sans-Serif" font-size="10.00" fill="#000000">iosfwd</text>
</g>
<!-- Node8&#45;&gt;Node14 -->
<g id="edge14" class="edge">
<title>Node8&#45;&gt;Node14</title>
<path fill="none" stroke="#191970" d="M550.3433,-56.5515C597.4574,-48.5962 665.4288,-36.2675 733.6905,-20.0283"/>
<polygon fill="#191970" stroke="#191970" points="734.8584,-23.3472 743.7616,-17.604 733.2202,-16.5416 734.8584,-23.3472"/>
</g>
<!-- Node15 -->
<g id="node16" class="node">
<title>Node15</title>
<polygon fill="none" stroke="#bfbfbf" points="404.0676,-.5 404.0676,-19.5 487.0676,-19.5 487.0676,-.5 404.0676,-.5"/>
<text text-anchor="middle" x="445.5676" y="-7.5" font-family="Helvetica,sans-Serif" font-size="10.00" fill="#000000">initializer_list</text>
</g>
<!-- Node8&#45;&gt;Node15 -->
<g id="edge15" class="edge">
<title>Node8&#45;&gt;Node15</title>
<path fill="none" stroke="#191970" d="M483.555,-56.2455C477.0908,-48.3761 467.8291,-37.101 460.0692,-27.6542"/>
<polygon fill="#191970" stroke="#191970" points="462.5403,-25.1484 453.4883,-19.6427 457.1312,-29.5916 462.5403,-25.1484"/>
</g>
<!-- Node16 -->
<g id="node17" class="node">
<title>Node16</title>
<polygon fill="none" stroke="#bfbfbf" points="246.0676,-.5 246.0676,-19.5 319.0676,-19.5 319.0676,-.5 246.0676,-.5"/>
<text text-anchor="middle" x="282.5676" y="-7.5" font-family="Helvetica,sans-Serif" font-size="10.00" fill="#000000">string_view</text>
</g>
<!-- Node8&#45;&gt;Node16 -->
<g id="edge16" class="edge">
<title>Node8&#45;&gt;Node16</title>
<path fill="none" stroke="#191970" d="M455.6392,-56.3733C420.2839,-46.9001 366.1796,-32.4032 327.8888,-22.1435"/>
<polygon fill="#191970" stroke="#191970" points="328.5923,-18.7086 318.0271,-19.5011 326.7805,-25.4701 328.5923,-18.7086"/>
</g>
<!-- Node8&#45;&gt;Node17 -->
<g id="edge17" class="edge">
<title>Node8&#45;&gt;Node17</title>
<path fill="none" stroke="#191970" d="M436.273,-56.4677C384.5676,-47.4493 305.2353,-33.3439 236.5676,-20 231.4757,-19.0105 226.0881,-17.9255 220.8342,-16.8464"/>
<polygon fill="#191970" stroke="#191970" points="221.5112,-13.4124 211.0083,-14.8055 220.0875,-20.2661 221.5112,-13.4124"/>
</g>
<!-- Node19&#45;&gt;Node6 -->
<g id="edge23" class="edge">
<title>Node19&#45;&gt;Node6</title>
<path fill="none" stroke="#191970" d="M130.0443,-251.9005C149.1731,-240.7559 180.9409,-222.2477 203.2191,-209.2682"/>
<polygon fill="#191970" stroke="#191970" points="205.2429,-212.1399 212.1214,-204.0817 201.719,-206.0916 205.2429,-212.1399"/>
</g>
<!-- Node19&#45;&gt;Node7 -->
<g id="edge24" class="edge">
<title>Node19&#45;&gt;Node7</title>
<path fill="none" stroke="#191970" d="M114.0578,-251.982C115.4334,-235.0599 120.6665,-199.5875 140.5676,-179 159.3561,-159.5634 186.0685,-147.4226 211.1986,-139.8563"/>
<polygon fill="#191970" stroke="#191970" points="212.4173,-143.1496 221.1003,-137.0786 210.5266,-136.4098 212.4173,-143.1496"/>
</g>
<!-- Node19&#45;&gt;Node18 -->
<g id="edge25" class="edge">
<title>Node19&#45;&gt;Node18</title>
<path fill="none" stroke="#191970" d="M111.5539,-251.8631C107.2654,-231.3397 97.1115,-182.7457 90.8414,-152.7388"/>
<polygon fill="#191970" stroke="#191970" points="94.1966,-151.6837 88.7251,-142.611 87.3446,-153.1155 94.1966,-151.6837"/>
</g>
<!-- Node24 -->
<g id="node25" class="node">
<title>Node24</title>
<polygon fill="none" stroke="#bfbfbf" points="1112.0676,-56.5 1112.0676,-75.5 1171.0676,-75.5 1171.0676,-56.5 1112.0676,-56.5"/>
<text text-anchor="middle" x="1141.5676" y="-63.5" font-family="Helvetica,sans-Serif" font-size="10.00" fill="#000000">Rtypes.h</text>
</g>
<!-- Node23&#45;&gt;Node24 -->
<g id="edge31" class="edge">
<title>Node23&#45;&gt;Node24</title>
<path fill="none" stroke="#191970" d="M1221.1586,-251.8155C1232.901,-242.5707 1249.1203,-227.4858 1256.5676,-210 1273.6426,-169.9088 1284.156,-147.976 1259.5676,-112 1250.3157,-98.4633 1211.7945,-85.0867 1181.2476,-76.2779"/>
<polygon fill="#191970" stroke="#191970" points="1181.8215,-72.8038 1171.2477,-73.4721 1179.9303,-79.5435 1181.8215,-72.8038"/>
</g>
<!-- Node26 -->
<g id="node27" class="node">
<title>Node26</title>
<g id="a_node27"><a xlink:href="../../de/d64/RangeReference_8h.html" target="_top" xlink:title="Class to refer to the 1st entry and N elements of some group in the continuous container. ">
<polygon fill="none" stroke="#000000" points="845.5676,-185 845.5676,-204 1055.5676,-204 1055.5676,-185 845.5676,-185"/>
<text text-anchor="middle" x="950.5676" y="-192" font-family="Helvetica,sans-Serif" font-size="10.00" fill="#000000">CommonDataFormat/RangeReference.h</text>
</a>
</g>
</g>
<!-- Node25&#45;&gt;Node26 -->
<g id="edge33" class="edge">
<title>Node25&#45;&gt;Node26</title>
<path fill="none" stroke="#191970" d="M940.2869,-251.9005C942.0512,-242.0495 944.8461,-226.4451 947.0766,-213.9912"/>
<polygon fill="#191970" stroke="#191970" points="950.5336,-214.5421 948.8515,-204.0817 943.6432,-213.308 950.5336,-214.5421"/>
</g>
<!-- Node28 -->
<g id="node29" class="node">
<title>Node28</title>
<g id="a_node29"><a xlink:href="../../d9/d80/InteractionRecord_8h.html" target="_top" xlink:title="CommonDataFormat/Interaction\lRecord.h">
<polygon fill="none" stroke="#000000" points="1073.5676,-179.5 1073.5676,-209.5 1247.5676,-209.5 1247.5676,-179.5 1073.5676,-179.5"/>
<text text-anchor="start" x="1081.5676" y="-197.5" font-family="Helvetica,sans-Serif" font-size="10.00" fill="#000000">CommonDataFormat/Interaction</text>
<text text-anchor="middle" x="1160.5676" y="-186.5" font-family="Helvetica,sans-Serif" font-size="10.00" fill="#000000">Record.h</text>
</a>
</g>
</g>
<!-- Node25&#45;&gt;Node28 -->
<g id="edge36" class="edge">
<title>Node25&#45;&gt;Node28</title>
<path fill="none" stroke="#191970" d="M970.3748,-251.9005C1004.4107,-241.6284 1059.1746,-225.1006 1101.2168,-212.4122"/>
<polygon fill="#191970" stroke="#191970" points="1102.2317,-215.7619 1110.794,-209.5218 1100.2092,-209.0604 1102.2317,-215.7619"/>
</g>
<!-- Node31 -->
<g id="node32" class="node">
<title>Node31</title>
<polygon fill="none" stroke="#bfbfbf" points="770.0676,-185 770.0676,-204 827.0676,-204 827.0676,-185 770.0676,-185"/>
<text text-anchor="middle" x="798.5676" y="-192" font-family="Helvetica,sans-Serif" font-size="10.00" fill="#000000">gsl/span</text>
</g>
<!-- Node25&#45;&gt;Node31 -->
<g id="edge42" class="edge">
<title>Node25&#45;&gt;Node31</title>
<path fill="none" stroke="#191970" d="M918.509,-251.9005C894.702,-240.5072 854.8137,-221.4178 827.628,-208.4075"/>
<polygon fill="#191970" stroke="#191970" points="829.1201,-205.2415 818.589,-204.0817 826.0983,-211.5556 829.1201,-205.2415"/>
</g>
<!-- Node27 -->
<g id="node28" class="node">
<title>Node27</title>
<g id="a_node28"><a xlink:href="../../d2/d45/GPUCommonRtypes_8h.html" target="_top" xlink:title="GPUCommonRtypes.h">
<polygon fill="none" stroke="#000000" points="813.0676,-118 813.0676,-137 938.0676,-137 938.0676,-118 813.0676,-118"/>
<text text-anchor="middle" x="875.5676" y="-125" font-family="Helvetica,sans-Serif" font-size="10.00" fill="#000000">GPUCommonRtypes.h</text>
</a>
</g>
</g>
<!-- Node26&#45;&gt;Node27 -->
<g id="edge34" class="edge">
<title>Node26&#45;&gt;Node27</title>
<path fill="none" stroke="#191970" d="M939.8219,-184.9005C927.9035,-174.2535 908.4619,-156.8856 894.0808,-144.0385"/>
<polygon fill="#191970" stroke="#191970" points="896.0827,-141.1337 886.2933,-137.0817 891.4192,-146.354 896.0827,-141.1337"/>
</g>
<!-- Node27&#45;&gt;Node24 -->
<g id="edge35" class="edge">
<title>Node27&#45;&gt;Node24</title>
<path fill="none" stroke="#191970" d="M916.8382,-117.9581C967.3511,-106.2794 1052.2825,-86.643 1102.0045,-75.1471"/>
<polygon fill="#191970" stroke="#191970" points="1102.8025,-78.555 1111.757,-72.8923 1101.2256,-71.7349 1102.8025,-78.555"/>
</g>
<!-- Node28&#45;&gt;Node11 -->
<g id="edge40" class="edge">
<title>Node28&#45;&gt;Node11</title>
<path fill="none" stroke="#191970" d="M1213.5496,-179.4668C1231.3394,-171.6136 1249.2632,-159.9756 1259.5676,-143 1266.7168,-131.2222 1265.8941,-124.2394 1259.5676,-112 1239.8054,-73.7678 1220.6178,-71.7551 1180.5676,-56 1124.7392,-34.038 947.6187,-18.4095 871.6846,-12.5499"/>
<polygon fill="#191970" stroke="#191970" points="871.9012,-9.0564 861.6647,-11.7883 871.3706,-16.0363 871.9012,-9.0564"/>
</g>
<!-- Node28&#45;&gt;Node14 -->
<g id="edge38" class="edge">
<title>Node28&#45;&gt;Node14</title>
<path fill="none" stroke="#191970" d="M1085.6664,-179.4314C1053.6938,-171.2567 1016.6633,-159.3969 985.5676,-143 966.2878,-132.8337 965.5427,-124.327 947.5676,-112 896.5255,-76.9964 832.704,-42.7111 796.6988,-24.1654"/>
<polygon fill="#191970" stroke="#191970" points="798.2382,-21.0216 787.7417,-19.5814 795.0491,-27.2529 798.2382,-21.0216"/>
</g>
<!-- Node28&#45;&gt;Node27 -->
<g id="edge37" class="edge">
<title>Node28&#45;&gt;Node27</title>
<path fill="none" stroke="#191970" d="M1096.608,-179.4639C1044.9736,-167.3253 973.3317,-150.4831 925.7686,-139.3016"/>
<polygon fill="#191970" stroke="#191970" points="926.5361,-135.8867 916.0005,-137.0053 924.9341,-142.701 926.5361,-135.8867"/>
</g>
<!-- Node29 -->
<g id="node30" class="node">
<title>Node29</title>
<polygon fill="none" stroke="#bfbfbf" points="1203.0676,-118 1203.0676,-137 1250.0676,-137 1250.0676,-118 1203.0676,-118"/>
<text text-anchor="middle" x="1226.5676" y="-125" font-family="Helvetica,sans-Serif" font-size="10.00" fill="#000000">cmath</text>
</g>
<!-- Node28&#45;&gt;Node29 -->
<g id="edge39" class="edge">
<title>Node28&#45;&gt;Node29</title>
<path fill="none" stroke="#191970" d="M1175.544,-179.2967C1185.8271,-168.8578 1199.4783,-154.9997 1210.0729,-144.2446"/>
<polygon fill="#191970" stroke="#191970" points="1212.6309,-146.6352 1217.1552,-137.055 1207.6441,-141.7228 1212.6309,-146.6352"/>
</g>
<!-- Node30 -->
<g id="node31" class="node">
<title>Node30</title>
<g id="a_node31"><a xlink:href="../../d4/dc6/LHCConstants_8h.html" target="_top" xlink:title="Header to collect LHC related constants. ">
<polygon fill="none" stroke="#000000" points="994.5676,-118 994.5676,-137 1184.5676,-137 1184.5676,-118 994.5676,-118"/>
<text text-anchor="middle" x="1089.5676" y="-125" font-family="Helvetica,sans-Serif" font-size="10.00" fill="#000000">CommonConstants/LHCConstants.h</text>
</a>
</g>
</g>
<!-- Node28&#45;&gt;Node30 -->
<g id="edge41" class="edge">
<title>Node28&#45;&gt;Node30</title>
<path fill="none" stroke="#191970" d="M1144.4566,-179.2967C1133.2871,-168.7564 1118.4235,-154.7303 1106.9809,-143.9323"/>
<polygon fill="#191970" stroke="#191970" points="1109.3681,-141.3727 1099.693,-137.055 1104.5639,-146.4638 1109.3681,-141.3727"/>
</g>
<!-- Node32&#45;&gt;Node27 -->
<g id="edge44" class="edge">
<title>Node32&#45;&gt;Node27</title>
<path fill="none" stroke="#191970" d="M753.1389,-246.3095C750.0341,-228.5249 747.8048,-198.9663 761.5676,-179 774.661,-160.0048 796.5179,-147.9062 817.6108,-140.2514"/>
<polygon fill="#191970" stroke="#191970" points="818.8414,-143.5304 827.2141,-137.0382 816.6202,-136.8922 818.8414,-143.5304"/>
</g>
<!-- Node33&#45;&gt;Node1 -->
<g id="edge54" class="edge">
<title>Node33&#45;&gt;Node1</title>
<path fill="none" stroke="#191970" d="M585.6614,-182.2792C543.5467,-173.3879 487.524,-159.9533 439.5676,-143 437.9264,-142.4198 436.2571,-141.7855 434.5845,-141.1152"/>
<polygon fill="#191970" stroke="#191970" points="435.7105,-137.7883 425.1441,-137.0119 432.92,-144.2081 435.7105,-137.7883"/>
</g>
<!-- Node33&#45;&gt;Node9 -->
<g id="edge51" class="edge">
<title>Node33&#45;&gt;Node9</title>
<path fill="none" stroke="#191970" d="M647.3581,-179.4016C642.4958,-146.1761 630.8713,-66.7418 625.4468,-29.6748"/>
<polygon fill="#191970" stroke="#191970" points="628.888,-29.0173 623.9768,-19.6295 621.9617,-30.0309 628.888,-29.0173"/>
</g>
<!-- Node33&#45;&gt;Node10 -->
<g id="edge52" class="edge">
<title>Node33&#45;&gt;Node10</title>
<path fill="none" stroke="#191970" d="M653.7411,-179.4016C662.9254,-146.1761 684.8829,-66.7418 695.129,-29.6748"/>
<polygon fill="#191970" stroke="#191970" points="698.6149,-30.2006 697.9058,-19.6295 691.8679,-28.3355 698.6149,-30.2006"/>
</g>
<!-- Node33&#45;&gt;Node11 -->
<g id="edge47" class="edge">
<title>Node33&#45;&gt;Node11</title>
<path fill="none" stroke="#191970" d="M702.4025,-179.4604C723.9056,-171.3358 747.8187,-159.5062 765.5676,-143 800.2388,-110.7563 821.3619,-57.6742 830.7722,-29.3016"/>
<polygon fill="#191970" stroke="#191970" points="834.1202,-30.3226 833.8092,-19.7324 827.4481,-28.2051 834.1202,-30.3226"/>
</g>
<!-- Node33&#45;&gt;Node13 -->
<g id="edge49" class="edge">
<title>Node33&#45;&gt;Node13</title>
<path fill="none" stroke="#191970" d="M640.4021,-179.4016C619.9719,-145.7464 570.7607,-64.6797 548.6512,-28.2583"/>
<polygon fill="#191970" stroke="#191970" points="551.5942,-26.3615 543.4131,-19.6295 545.6105,-29.994 551.5942,-26.3615"/>
</g>
<!-- Node33&#45;&gt;Node21 -->
<g id="edge53" class="edge">
<title>Node33&#45;&gt;Node21</title>
<path fill="none" stroke="#191970" d="M609.6136,-179.3884C582.9298,-169.2359 547.081,-155.4813 515.5676,-143 513.9281,-142.3506 512.2504,-141.682 510.5572,-141.0038"/>
<polygon fill="#191970" stroke="#191970" points="511.4321,-137.5825 500.849,-137.0838 508.8112,-144.0734 511.4321,-137.5825"/>
</g>
<!-- Node33&#45;&gt;Node22 -->
<g id="edge48" class="edge">
<title>Node33&#45;&gt;Node22</title>
<path fill="none" stroke="#191970" d="M627.1029,-179.2967C610.9295,-168.351 589.2015,-153.6462 573.0288,-142.701"/>
<polygon fill="#191970" stroke="#191970" points="574.9295,-139.7612 564.6861,-137.055 571.0061,-145.5584 574.9295,-139.7612"/>
</g>
<!-- Node33&#45;&gt;Node27 -->
<g id="edge46" class="edge">
<title>Node33&#45;&gt;Node27</title>
<path fill="none" stroke="#191970" d="M700.2864,-179.4639C740.5463,-167.5284 796.1452,-151.0456 833.8494,-139.8678"/>
<polygon fill="#191970" stroke="#191970" points="834.9123,-143.2033 843.505,-137.0053 832.9226,-136.492 834.9123,-143.2033"/>
</g>
<!-- Node34 -->
<g id="node35" class="node">
<title>Node34</title>
<polygon fill="none" stroke="#bfbfbf" points="708.5676,-118 708.5676,-137 756.5676,-137 756.5676,-118 708.5676,-118"/>
<text text-anchor="middle" x="732.5676" y="-125" font-family="Helvetica,sans-Serif" font-size="10.00" fill="#000000">gsl/gsl</text>
</g>
<!-- Node33&#45;&gt;Node34 -->
<g id="edge50" class="edge">
<title>Node33&#45;&gt;Node34</title>
<path fill="none" stroke="#191970" d="M668.4016,-179.2967C681.5844,-168.6551 699.1691,-154.4602 712.5959,-143.6217"/>
<polygon fill="#191970" stroke="#191970" points="715.1481,-146.0596 720.7308,-137.055 710.7512,-140.6128 715.1481,-146.0596"/>
</g>
</g>
</svg>
