<?xml version="1.0" encoding="UTF-8" standalone="no"?>
<!DOCTYPE svg PUBLIC "-//W3C//DTD SVG 1.1//EN"
 "http://www.w3.org/Graphics/SVG/1.1/DTD/svg11.dtd">
<!-- Generated by graphviz version 2.40.1 (20161225.0304)
 -->
<!-- Title: /home/travis/build/AliceO2Group/AliceO2/Framework/Core/test/benchmark_TableBuilder.cxx Pages: 1 -->
<svg width="2595pt" height="341pt"
 viewBox="0.00 0.00 2594.50 341.00" xmlns="http://www.w3.org/2000/svg" xmlns:xlink="http://www.w3.org/1999/xlink">
<g id="graph0" class="graph" transform="scale(1 1) rotate(0) translate(4 337)">
<title>/home/travis/build/AliceO2Group/AliceO2/Framework/Core/test/benchmark_TableBuilder.cxx</title>
<!-- Node0 -->
<g id="node1" class="node">
<title>Node0</title>
<polygon fill="#bfbfbf" stroke="#000000" points="1846.5,-280.5 1846.5,-332.5 2025.5,-332.5 2025.5,-280.5 1846.5,-280.5"/>
<text text-anchor="start" x="1854.5" y="-320.5" font-family="Helvetica,sans-Serif" font-size="10.00" fill="#000000">/home/travis/build</text>
<text text-anchor="start" x="1854.5" y="-309.5" font-family="Helvetica,sans-Serif" font-size="10.00" fill="#000000">/AliceO2Group/AliceO2</text>
<text text-anchor="start" x="1854.5" y="-298.5" font-family="Helvetica,sans-Serif" font-size="10.00" fill="#000000">/Framework/Core/test/benchmark</text>
<text text-anchor="middle" x="1936" y="-287.5" font-family="Helvetica,sans-Serif" font-size="10.00" fill="#000000">_TableBuilder.cxx</text>
</g>
<!-- Node1 -->
<g id="node2" class="node">
<title>Node1</title>
<g id="a_node2"><a xlink:href="../../d5/d98/TableBuilder_8h.html" target="_top" xlink:title="Framework/TableBuilder.h">
<polygon fill="none" stroke="#000000" points="1865,-224.5 1865,-243.5 2007,-243.5 2007,-224.5 1865,-224.5"/>
<text text-anchor="middle" x="1936" y="-231.5" font-family="Helvetica,sans-Serif" font-size="10.00" fill="#000000">Framework/TableBuilder.h</text>
</a>
</g>
</g>
<!-- Node0&#45;&gt;Node1 -->
<g id="edge1" class="edge">
<title>Node0&#45;&gt;Node1</title>
<path fill="none" stroke="#191970" d="M1936,-280.3258C1936,-271.5142 1936,-261.8397 1936,-253.621"/>
<polygon fill="#191970" stroke="#191970" points="1939.5001,-253.534 1936,-243.534 1932.5001,-253.534 1939.5001,-253.534"/>
</g>
<!-- Node42 -->
<g id="node43" class="node">
<title>Node42</title>
<g id="a_node43"><a xlink:href="../../dc/d03/TableConsumer_8h.html" target="_top" xlink:title="Framework/TableConsumer.h">
<polygon fill="none" stroke="#000000" points="1081.5,-224.5 1081.5,-243.5 1238.5,-243.5 1238.5,-224.5 1081.5,-224.5"/>
<text text-anchor="middle" x="1160" y="-231.5" font-family="Helvetica,sans-Serif" font-size="10.00" fill="#000000">Framework/TableConsumer.h</text>
</a>
</g>
</g>
<!-- Node0&#45;&gt;Node42 -->
<g id="edge59" class="edge">
<title>Node0&#45;&gt;Node42</title>
<path fill="none" stroke="#191970" d="M1846.2249,-298.1125C1696.563,-284.1299 1397.8325,-256.2202 1248.8126,-242.2976"/>
<polygon fill="#191970" stroke="#191970" points="1249.0635,-238.8059 1238.7812,-241.3604 1248.4122,-245.7755 1249.0635,-238.8059"/>
</g>
<!-- Node43 -->
<g id="node44" class="node">
<title>Node43</title>
<polygon fill="none" stroke="#bfbfbf" points="2025,-224.5 2025,-243.5 2163,-243.5 2163,-224.5 2025,-224.5"/>
<text text-anchor="middle" x="2094" y="-231.5" font-family="Helvetica,sans-Serif" font-size="10.00" fill="#000000">benchmark/benchmark.h</text>
</g>
<!-- Node0&#45;&gt;Node43 -->
<g id="edge61" class="edge">
<title>Node0&#45;&gt;Node43</title>
<path fill="none" stroke="#191970" d="M1993.0416,-280.3258C2017.0458,-269.3112 2043.9882,-256.9485 2063.999,-247.7663"/>
<polygon fill="#191970" stroke="#191970" points="2065.5933,-250.8857 2073.2225,-243.534 2062.6739,-244.5235 2065.5933,-250.8857"/>
</g>
<!-- Node2 -->
<g id="node3" class="node">
<title>Node2</title>
<g id="a_node3"><a xlink:href="../../de/d33/ASoA_8h.html" target="_top" xlink:title="Framework/ASoA.h">
<polygon fill="none" stroke="#000000" points="1229,-168.5 1229,-187.5 1337,-187.5 1337,-168.5 1229,-168.5"/>
<text text-anchor="middle" x="1283" y="-175.5" font-family="Helvetica,sans-Serif" font-size="10.00" fill="#000000">Framework/ASoA.h</text>
</a>
</g>
</g>
<!-- Node1&#45;&gt;Node2 -->
<g id="edge2" class="edge">
<title>Node1&#45;&gt;Node2</title>
<path fill="none" stroke="#191970" d="M1864.8745,-227.9004C1736.9116,-216.9266 1469.8113,-194.0206 1347.1264,-183.4994"/>
<polygon fill="#191970" stroke="#191970" points="1347.3907,-180.0093 1337.1282,-182.6419 1346.7925,-186.9837 1347.3907,-180.0093"/>
</g>
<!-- Node8 -->
<g id="node9" class="node">
<title>Node8</title>
<g id="a_node9"><a xlink:href="../../de/d9b/FunctionalHelpers_8h.html" target="_top" xlink:title="Framework/FunctionalHelpers.h">
<polygon fill="none" stroke="#000000" points="1881,-112.5 1881,-131.5 2051,-131.5 2051,-112.5 1881,-112.5"/>
<text text-anchor="middle" x="1966" y="-119.5" font-family="Helvetica,sans-Serif" font-size="10.00" fill="#000000">Framework/FunctionalHelpers.h</text>
</a>
</g>
</g>
<!-- Node1&#45;&gt;Node8 -->
<g id="edge46" class="edge">
<title>Node1&#45;&gt;Node8</title>
<path fill="none" stroke="#191970" d="M1914.3218,-224.453C1890.5722,-212.5712 1857.6366,-191.02 1872,-168 1881.5675,-152.6664 1897.893,-142.3037 1914.2798,-135.3641"/>
<polygon fill="#191970" stroke="#191970" points="1915.8125,-138.5243 1923.8846,-131.6619 1913.2949,-131.9927 1915.8125,-138.5243"/>
</g>
<!-- Node9 -->
<g id="node10" class="node">
<title>Node9</title>
<polygon fill="none" stroke="#bfbfbf" points="2169.5,-56.5 2169.5,-75.5 2234.5,-75.5 2234.5,-56.5 2169.5,-56.5"/>
<text text-anchor="middle" x="2202" y="-63.5" font-family="Helvetica,sans-Serif" font-size="10.00" fill="#000000">functional</text>
</g>
<!-- Node1&#45;&gt;Node9 -->
<g id="edge54" class="edge">
<title>Node1&#45;&gt;Node9</title>
<path fill="none" stroke="#191970" d="M2007.0951,-225.0722C2010.1033,-224.7074 2013.0814,-224.3487 2016,-224 2086.1775,-215.6167 2284.9375,-240.7284 2332,-188 2369.9501,-145.481 2286.0524,-101.0108 2235.9561,-79.3933"/>
<polygon fill="#191970" stroke="#191970" points="2237.3073,-76.1647 2226.733,-75.5051 2234.588,-82.6149 2237.3073,-76.1647"/>
</g>
<!-- Node19 -->
<g id="node20" class="node">
<title>Node19</title>
<polygon fill="none" stroke="#bfbfbf" points="1734.5,-56.5 1734.5,-75.5 1815.5,-75.5 1815.5,-56.5 1734.5,-56.5"/>
<text text-anchor="middle" x="1775" y="-63.5" font-family="Helvetica,sans-Serif" font-size="10.00" fill="#000000">arrow/table.h</text>
</g>
<!-- Node1&#45;&gt;Node19 -->
<g id="edge52" class="edge">
<title>Node1&#45;&gt;Node19</title>
<path fill="none" stroke="#191970" d="M1911.7996,-224.4514C1894.059,-216.591 1870.1732,-204.1277 1853,-188 1820.4825,-157.4622 1795.5685,-110.6437 1783.3405,-84.7862"/>
<polygon fill="#191970" stroke="#191970" points="1786.5123,-83.3062 1779.1534,-75.6841 1780.1529,-86.2317 1786.5123,-83.3062"/>
</g>
<!-- Node26 -->
<g id="node27" class="node">
<title>Node26</title>
<polygon fill="none" stroke="#bfbfbf" points="1834,-56.5 1834,-75.5 1878,-75.5 1878,-56.5 1834,-56.5"/>
<text text-anchor="middle" x="1856" y="-63.5" font-family="Helvetica,sans-Serif" font-size="10.00" fill="#000000">string</text>
</g>
<!-- Node1&#45;&gt;Node26 -->
<g id="edge56" class="edge">
<title>Node1&#45;&gt;Node26</title>
<path fill="none" stroke="#191970" d="M1910.5343,-224.4821C1894.5819,-217.0943 1875.18,-205.186 1865,-188 1846.1427,-156.1651 1848.7836,-111.1574 1852.3953,-85.6501"/>
<polygon fill="#191970" stroke="#191970" points="1855.861,-86.1426 1853.9959,-75.7133 1848.9501,-85.0293 1855.861,-86.1426"/>
</g>
<!-- Node27 -->
<g id="node28" class="node">
<title>Node27</title>
<polygon fill="none" stroke="#bfbfbf" points="0,-56.5 0,-75.5 58,-75.5 58,-56.5 0,-56.5"/>
<text text-anchor="middle" x="29" y="-63.5" font-family="Helvetica,sans-Serif" font-size="10.00" fill="#000000">memory</text>
</g>
<!-- Node1&#45;&gt;Node27 -->
<g id="edge57" class="edge">
<title>Node1&#45;&gt;Node27</title>
<path fill="none" stroke="#191970" d="M1864.6526,-232.6146C1637.4034,-228.0002 932.1623,-212.0697 705,-188 422.066,-158.0208 349.911,-138.0481 68.4993,-76.2135"/>
<polygon fill="#191970" stroke="#191970" points="68.9176,-72.7221 58.3997,-73.9961 67.4164,-79.5592 68.9176,-72.7221"/>
</g>
<!-- Node34 -->
<g id="node35" class="node">
<title>Node34</title>
<g id="a_node35"><a xlink:href="../../db/d4f/StructToTuple_8h.html" target="_top" xlink:title="Framework/StructToTuple.h">
<polygon fill="none" stroke="#000000" points="2385.5,-168.5 2385.5,-187.5 2532.5,-187.5 2532.5,-168.5 2385.5,-168.5"/>
<text text-anchor="middle" x="2459" y="-175.5" font-family="Helvetica,sans-Serif" font-size="10.00" fill="#000000">Framework/StructToTuple.h</text>
</a>
</g>
</g>
<!-- Node1&#45;&gt;Node34 -->
<g id="edge42" class="edge">
<title>Node1&#45;&gt;Node34</title>
<path fill="none" stroke="#191970" d="M2007.0904,-225.0319C2010.0999,-224.6781 2013.0795,-224.3327 2016,-224 2171.3714,-206.3009 2210.4818,-204.3592 2366,-188 2369.0508,-187.6791 2372.1578,-187.3511 2375.296,-187.0188"/>
<polygon fill="#191970" stroke="#191970" points="2375.8198,-190.4829 2385.3942,-185.9463 2375.0805,-183.5221 2375.8198,-190.4829"/>
</g>
<!-- Node35 -->
<g id="node36" class="node">
<title>Node35</title>
<polygon fill="none" stroke="#bfbfbf" points="2545.5,-112.5 2545.5,-131.5 2586.5,-131.5 2586.5,-112.5 2545.5,-112.5"/>
<text text-anchor="middle" x="2566" y="-119.5" font-family="Helvetica,sans-Serif" font-size="10.00" fill="#000000">tuple</text>
</g>
<!-- Node1&#45;&gt;Node35 -->
<g id="edge58" class="edge">
<title>Node1&#45;&gt;Node35</title>
<path fill="none" stroke="#191970" d="M2007.0771,-224.9056C2010.0902,-224.5864 2013.0743,-224.2828 2016,-224 2074.3095,-218.3647 2495.1941,-223.2273 2542,-188 2556.4237,-177.1444 2562.1912,-156.7681 2564.4906,-141.5155"/>
<polygon fill="#191970" stroke="#191970" points="2567.9744,-141.8554 2565.6261,-131.5241 2561.0192,-141.0649 2567.9744,-141.8554"/>
</g>
<!-- Node36 -->
<g id="node37" class="node">
<title>Node36</title>
<g id="a_node37"><a xlink:href="../../d7/dbe/VariantHelpers_8h.html" target="_top" xlink:title="Framework/VariantHelpers.h">
<polygon fill="none" stroke="#000000" points="714.5,-168.5 714.5,-187.5 869.5,-187.5 869.5,-168.5 714.5,-168.5"/>
<text text-anchor="middle" x="792" y="-175.5" font-family="Helvetica,sans-Serif" font-size="10.00" fill="#000000">Framework/VariantHelpers.h</text>
</a>
</g>
</g>
<!-- Node1&#45;&gt;Node36 -->
<g id="edge47" class="edge">
<title>Node1&#45;&gt;Node36</title>
<path fill="none" stroke="#191970" d="M1864.8699,-230.5181C1664.9711,-220.7329 1098.5308,-193.005 879.745,-182.2952"/>
<polygon fill="#191970" stroke="#191970" points="879.7514,-178.7914 869.5922,-181.7982 879.4091,-185.7831 879.7514,-178.7914"/>
</g>
<!-- Node37 -->
<g id="node38" class="node">
<title>Node37</title>
<polygon fill="none" stroke="#bfbfbf" points="1881.5,-168.5 1881.5,-187.5 1990.5,-187.5 1990.5,-168.5 1881.5,-168.5"/>
<text text-anchor="middle" x="1936" y="-175.5" font-family="Helvetica,sans-Serif" font-size="10.00" fill="#000000">arrow/type_traits.h</text>
</g>
<!-- Node1&#45;&gt;Node37 -->
<g id="edge49" class="edge">
<title>Node1&#45;&gt;Node37</title>
<path fill="none" stroke="#191970" d="M1936,-224.2455C1936,-216.9382 1936,-206.6944 1936,-197.7046"/>
<polygon fill="#191970" stroke="#191970" points="1939.5001,-197.6426 1936,-187.6427 1932.5001,-197.6427 1939.5001,-197.6426"/>
</g>
<!-- Node38 -->
<g id="node39" class="node">
<title>Node38</title>
<polygon fill="none" stroke="#bfbfbf" points="2009,-168.5 2009,-187.5 2065,-187.5 2065,-168.5 2009,-168.5"/>
<text text-anchor="middle" x="2037" y="-175.5" font-family="Helvetica,sans-Serif" font-size="10.00" fill="#000000">sstream</text>
</g>
<!-- Node1&#45;&gt;Node38 -->
<g id="edge50" class="edge">
<title>Node1&#45;&gt;Node38</title>
<path fill="none" stroke="#191970" d="M1953.5929,-224.2455C1969.379,-215.4928 1992.7639,-202.527 2010.7587,-192.5496"/>
<polygon fill="#191970" stroke="#191970" points="2012.5603,-195.5528 2019.6087,-187.6427 2009.1659,-189.4308 2012.5603,-195.5528"/>
</g>
<!-- Node39 -->
<g id="node40" class="node">
<title>Node39</title>
<polygon fill="none" stroke="#bfbfbf" points="2083,-168.5 2083,-187.5 2151,-187.5 2151,-168.5 2083,-168.5"/>
<text text-anchor="middle" x="2117" y="-175.5" font-family="Helvetica,sans-Serif" font-size="10.00" fill="#000000">arrow/stl.h</text>
</g>
<!-- Node1&#45;&gt;Node39 -->
<g id="edge51" class="edge">
<title>Node1&#45;&gt;Node39</title>
<path fill="none" stroke="#191970" d="M1967.115,-224.3733C1997.3429,-215.021 2043.396,-200.7725 2076.4739,-190.5385"/>
<polygon fill="#191970" stroke="#191970" points="2077.7723,-193.8005 2086.291,-187.5011 2075.7033,-187.1133 2077.7723,-193.8005"/>
</g>
<!-- Node40 -->
<g id="node41" class="node">
<title>Node40</title>
<polygon fill="none" stroke="#bfbfbf" points="2169.5,-168.5 2169.5,-187.5 2258.5,-187.5 2258.5,-168.5 2169.5,-168.5"/>
<text text-anchor="middle" x="2214" y="-175.5" font-family="Helvetica,sans-Serif" font-size="10.00" fill="#000000">arrow/builder.h</text>
</g>
<!-- Node1&#45;&gt;Node40 -->
<g id="edge53" class="edge">
<title>Node1&#45;&gt;Node40</title>
<path fill="none" stroke="#191970" d="M1983.474,-224.4369C2032.3237,-214.5967 2108.3225,-199.2875 2159.5741,-188.9635"/>
<polygon fill="#191970" stroke="#191970" points="2160.3671,-192.3741 2169.479,-186.9682 2158.9848,-185.512 2160.3671,-192.3741"/>
</g>
<!-- Node41 -->
<g id="node42" class="node">
<title>Node41</title>
<polygon fill="none" stroke="#bfbfbf" points="2276.5,-168.5 2276.5,-187.5 2323.5,-187.5 2323.5,-168.5 2276.5,-168.5"/>
<text text-anchor="middle" x="2300" y="-175.5" font-family="Helvetica,sans-Serif" font-size="10.00" fill="#000000">vector</text>
</g>
<!-- Node1&#45;&gt;Node41 -->
<g id="edge55" class="edge">
<title>Node1&#45;&gt;Node41</title>
<path fill="none" stroke="#191970" d="M2007.3809,-224.6831C2090.0451,-213.807 2219.8959,-196.4285 2266.3812,-187.6854"/>
<polygon fill="#191970" stroke="#191970" points="2267.2249,-191.0855 2276.3238,-185.6579 2265.8261,-184.2267 2267.2249,-191.0855"/>
</g>
<!-- Node3 -->
<g id="node4" class="node">
<title>Node3</title>
<g id="a_node4"><a xlink:href="../../dd/dce/Pack_8h.html" target="_top" xlink:title="Framework/Pack.h">
<polygon fill="none" stroke="#000000" points="1896.5,-56.5 1896.5,-75.5 2001.5,-75.5 2001.5,-56.5 1896.5,-56.5"/>
<text text-anchor="middle" x="1949" y="-63.5" font-family="Helvetica,sans-Serif" font-size="10.00" fill="#000000">Framework/Pack.h</text>
</a>
</g>
</g>
<!-- Node2&#45;&gt;Node3 -->
<g id="edge3" class="edge">
<title>Node2&#45;&gt;Node3</title>
<path fill="none" stroke="#191970" d="M1337.3048,-176.8521C1426.0646,-174.0598 1607.3296,-164.515 1757,-132 1815.0205,-119.3954 1879.8147,-94.803 1917.3479,-79.456"/>
<polygon fill="#191970" stroke="#191970" points="1918.8271,-82.6319 1926.7326,-75.5783 1916.1539,-76.1624 1918.8271,-82.6319"/>
</g>
<!-- Node7 -->
<g id="node8" class="node">
<title>Node7</title>
<g id="a_node8"><a xlink:href="../../d1/d00/CheckTypes_8h.html" target="_top" xlink:title="Framework/CheckTypes.h">
<polygon fill="none" stroke="#000000" points="1576,-56.5 1576,-75.5 1716,-75.5 1716,-56.5 1576,-56.5"/>
<text text-anchor="middle" x="1646" y="-63.5" font-family="Helvetica,sans-Serif" font-size="10.00" fill="#000000">Framework/CheckTypes.h</text>
</a>
</g>
</g>
<!-- Node2&#45;&gt;Node7 -->
<g id="edge7" class="edge">
<title>Node2&#45;&gt;Node7</title>
<path fill="none" stroke="#191970" d="M1280.4028,-168.4464C1277.1492,-154.1282 1273.6024,-127.1691 1288,-112 1288.5983,-111.3696 1460.5198,-89.4933 1565.8683,-76.1402"/>
<polygon fill="#191970" stroke="#191970" points="1566.3669,-79.6051 1575.8475,-74.8756 1565.4868,-72.6607 1566.3669,-79.6051"/>
</g>
<!-- Node2&#45;&gt;Node8 -->
<g id="edge8" class="edge">
<title>Node2&#45;&gt;Node8</title>
<path fill="none" stroke="#191970" d="M1337.1648,-173.559C1452.7871,-164.079 1725.0355,-141.757 1870.475,-129.8322"/>
<polygon fill="#191970" stroke="#191970" points="1871.043,-133.2975 1880.7236,-128.9919 1870.471,-126.3209 1871.043,-133.2975"/>
</g>
<!-- Node10 -->
<g id="node11" class="node">
<title>Node10</title>
<g id="a_node11"><a xlink:href="../../d9/de8/CompilerBuiltins_8h.html" target="_top" xlink:title="Framework/CompilerBuiltins.h">
<polygon fill="none" stroke="#000000" points="76,-56.5 76,-75.5 240,-75.5 240,-56.5 76,-56.5"/>
<text text-anchor="middle" x="158" y="-63.5" font-family="Helvetica,sans-Serif" font-size="10.00" fill="#000000">Framework/CompilerBuiltins.h</text>
</a>
</g>
</g>
<!-- Node2&#45;&gt;Node10 -->
<g id="edge11" class="edge">
<title>Node2&#45;&gt;Node10</title>
<path fill="none" stroke="#191970" d="M1228.8213,-174.717C1123.6489,-168.1498 884.5365,-152.2694 684,-132 524.2661,-115.8548 337.9883,-91.0675 235.509,-76.9122"/>
<polygon fill="#191970" stroke="#191970" points="235.9397,-73.4386 225.5542,-75.5342 234.9798,-80.3724 235.9397,-73.4386"/>
</g>
<!-- Node11 -->
<g id="node12" class="node">
<title>Node11</title>
<g id="a_node12"><a xlink:href="../../db/d31/Traits_8h.html" target="_top" xlink:title="Framework/Traits.h">
<polygon fill="none" stroke="#000000" points="2379.5,-112.5 2379.5,-131.5 2488.5,-131.5 2488.5,-112.5 2379.5,-112.5"/>
<text text-anchor="middle" x="2434" y="-119.5" font-family="Helvetica,sans-Serif" font-size="10.00" fill="#000000">Framework/Traits.h</text>
</a>
</g>
</g>
<!-- Node2&#45;&gt;Node11 -->
<g id="edge12" class="edge">
<title>Node2&#45;&gt;Node11</title>
<path fill="none" stroke="#191970" d="M1337.3555,-175.3554C1527.6468,-166.0971 2163.4026,-135.1655 2369.1525,-125.155"/>
<polygon fill="#191970" stroke="#191970" points="2369.3829,-128.6481 2379.201,-124.6662 2369.0427,-121.6563 2369.3829,-128.6481"/>
</g>
<!-- Node13 -->
<g id="node14" class="node">
<title>Node13</title>
<g id="a_node14"><a xlink:href="../../d0/d91/Expressions_8h.html" target="_top" xlink:title="Framework/Expressions.h">
<polygon fill="none" stroke="#000000" points="920.5,-112.5 920.5,-131.5 1061.5,-131.5 1061.5,-112.5 920.5,-112.5"/>
<text text-anchor="middle" x="991" y="-119.5" font-family="Helvetica,sans-Serif" font-size="10.00" fill="#000000">Framework/Expressions.h</text>
</a>
</g>
</g>
<!-- Node2&#45;&gt;Node13 -->
<g id="edge14" class="edge">
<title>Node2&#45;&gt;Node13</title>
<path fill="none" stroke="#191970" d="M1233.1352,-168.4369C1182.6367,-158.7522 1104.5165,-143.7703 1050.7395,-133.4569"/>
<polygon fill="#191970" stroke="#191970" points="1051.1394,-129.9699 1040.6591,-131.5237 1049.8209,-136.8446 1051.1394,-129.9699"/>
</g>
<!-- Node2&#45;&gt;Node19 -->
<g id="edge34" class="edge">
<title>Node2&#45;&gt;Node19</title>
<path fill="none" stroke="#191970" d="M1285.4621,-168.3833C1289.838,-153.4646 1300.5002,-125.1003 1321,-112 1394.5023,-65.0289 1620.5635,-87.2974 1724.4437,-75.77"/>
<polygon fill="#191970" stroke="#191970" points="1724.9266,-79.2369 1734.4046,-74.5022 1724.0427,-72.2929 1724.9266,-79.2369"/>
</g>
<!-- Node20 -->
<g id="node21" class="node">
<title>Node20</title>
<polygon fill="none" stroke="#bfbfbf" points="1313.5,-56.5 1313.5,-75.5 1460.5,-75.5 1460.5,-56.5 1313.5,-56.5"/>
<text text-anchor="middle" x="1387" y="-63.5" font-family="Helvetica,sans-Serif" font-size="10.00" fill="#000000">gandiva/selection_vector.h</text>
</g>
<!-- Node2&#45;&gt;Node20 -->
<g id="edge39" class="edge">
<title>Node2&#45;&gt;Node20</title>
<path fill="none" stroke="#191970" d="M1228.7858,-174.6825C1167.076,-168.8968 1079.0689,-153.3093 1114,-112 1120.2929,-104.558 1228.2268,-88.0773 1306.4634,-77.0009"/>
<polygon fill="#191970" stroke="#191970" points="1307.3961,-80.4042 1316.8099,-75.543 1306.4193,-73.4726 1307.3961,-80.4042"/>
</g>
<!-- Node24 -->
<g id="node25" class="node">
<title>Node24</title>
<polygon fill="none" stroke="#bfbfbf" points="1478.5,-56.5 1478.5,-75.5 1557.5,-75.5 1557.5,-56.5 1478.5,-56.5"/>
<text text-anchor="middle" x="1518" y="-63.5" font-family="Helvetica,sans-Serif" font-size="10.00" fill="#000000">fmt/format.h</text>
</g>
<!-- Node2&#45;&gt;Node24 -->
<g id="edge41" class="edge">
<title>Node2&#45;&gt;Node24</title>
<path fill="none" stroke="#191970" d="M1228.618,-170.406C1179.5059,-161.3672 1118.9183,-143.3963 1147,-112 1193.1259,-60.4297 1382.2633,-85.08 1468.4867,-75.7037"/>
<polygon fill="#191970" stroke="#191970" points="1469.0196,-79.1638 1478.4751,-74.3842 1468.1028,-72.2241 1469.0196,-79.1638"/>
</g>
<!-- Node28 -->
<g id="node29" class="node">
<title>Node28</title>
<g id="a_node29"><a xlink:href="../../d4/de7/ArrowTypes_8h.html" target="_top" xlink:title="Framework/ArrowTypes.h">
<polygon fill="none" stroke="#000000" points="763.5,-112.5 763.5,-131.5 902.5,-131.5 902.5,-112.5 763.5,-112.5"/>
<text text-anchor="middle" x="833" y="-119.5" font-family="Helvetica,sans-Serif" font-size="10.00" fill="#000000">Framework/ArrowTypes.h</text>
</a>
</g>
</g>
<!-- Node2&#45;&gt;Node28 -->
<g id="edge32" class="edge">
<title>Node2&#45;&gt;Node28</title>
<path fill="none" stroke="#191970" d="M1228.7762,-171.3721C1158.3175,-162.7425 1031.1822,-147.113 912.7089,-132.2115"/>
<polygon fill="#191970" stroke="#191970" points="913.098,-128.7329 902.7391,-130.9566 912.2237,-135.6781 913.098,-128.7329"/>
</g>
<!-- Node29 -->
<g id="node30" class="node">
<title>Node29</title>
<polygon fill="none" stroke="#bfbfbf" points="1156,-112.5 1156,-131.5 1236,-131.5 1236,-112.5 1156,-112.5"/>
<text text-anchor="middle" x="1196" y="-119.5" font-family="Helvetica,sans-Serif" font-size="10.00" fill="#000000">arrow/array.h</text>
</g>
<!-- Node2&#45;&gt;Node29 -->
<g id="edge35" class="edge">
<title>Node2&#45;&gt;Node29</title>
<path fill="none" stroke="#191970" d="M1267.8458,-168.2455C1254.4973,-159.6534 1234.8414,-147.0014 1219.4617,-137.1018"/>
<polygon fill="#191970" stroke="#191970" points="1221.2836,-134.1121 1210.9806,-131.6427 1217.4949,-139.9982 1221.2836,-134.1121"/>
</g>
<!-- Node30 -->
<g id="node31" class="node">
<title>Node30</title>
<polygon fill="none" stroke="#bfbfbf" points="1330,-112.5 1330,-131.5 1440,-131.5 1440,-112.5 1330,-112.5"/>
<text text-anchor="middle" x="1385" y="-119.5" font-family="Helvetica,sans-Serif" font-size="10.00" fill="#000000">arrow/util/variant.h</text>
</g>
<!-- Node2&#45;&gt;Node30 -->
<g id="edge36" class="edge">
<title>Node2&#45;&gt;Node30</title>
<path fill="none" stroke="#191970" d="M1300.767,-168.2455C1316.7095,-159.4928 1340.3259,-146.527 1358.4989,-136.5496"/>
<polygon fill="#191970" stroke="#191970" points="1360.3552,-139.5233 1367.4366,-131.6427 1356.9863,-133.3873 1360.3552,-139.5233"/>
</g>
<!-- Node31 -->
<g id="node32" class="node">
<title>Node31</title>
<polygon fill="none" stroke="#bfbfbf" points="1458.5,-112.5 1458.5,-131.5 1597.5,-131.5 1597.5,-112.5 1458.5,-112.5"/>
<text text-anchor="middle" x="1528" y="-119.5" font-family="Helvetica,sans-Serif" font-size="10.00" fill="#000000">arrow/compute/context.h</text>
</g>
<!-- Node2&#45;&gt;Node31 -->
<g id="edge37" class="edge">
<title>Node2&#45;&gt;Node31</title>
<path fill="none" stroke="#191970" d="M1324.8386,-168.4369C1366.7685,-158.8529 1431.3948,-144.0812 1476.4624,-133.78"/>
<polygon fill="#191970" stroke="#191970" points="1477.3653,-137.164 1486.3339,-131.5237 1475.8054,-130.34 1477.3653,-137.164"/>
</g>
<!-- Node32 -->
<g id="node33" class="node">
<title>Node32</title>
<polygon fill="none" stroke="#bfbfbf" points="1615.5,-112.5 1615.5,-131.5 1748.5,-131.5 1748.5,-112.5 1615.5,-112.5"/>
<text text-anchor="middle" x="1682" y="-119.5" font-family="Helvetica,sans-Serif" font-size="10.00" fill="#000000">arrow/compute/kernel.h</text>
</g>
<!-- Node2&#45;&gt;Node32 -->
<g id="edge38" class="edge">
<title>Node2&#45;&gt;Node32</title>
<path fill="none" stroke="#191970" d="M1337.2262,-170.3893C1406.3546,-160.6871 1526.3103,-143.8512 1604.9222,-132.8179"/>
<polygon fill="#191970" stroke="#191970" points="1605.8359,-136.2241 1615.2524,-131.3681 1604.8629,-129.292 1605.8359,-136.2241"/>
</g>
<!-- Node33 -->
<g id="node34" class="node">
<title>Node33</title>
<polygon fill="none" stroke="#bfbfbf" points="693,-112.5 693,-131.5 745,-131.5 745,-112.5 693,-112.5"/>
<text text-anchor="middle" x="719" y="-119.5" font-family="Helvetica,sans-Serif" font-size="10.00" fill="#000000">cassert</text>
</g>
<!-- Node2&#45;&gt;Node33 -->
<g id="edge40" class="edge">
<title>Node2&#45;&gt;Node33</title>
<path fill="none" stroke="#191970" d="M1228.853,-176.7074C1134.355,-173.7093 933.2093,-164.0346 755.309,-131.9274"/>
<polygon fill="#191970" stroke="#191970" points="755.7122,-128.4431 745.2449,-130.0822 754.4498,-135.3283 755.7122,-128.4431"/>
</g>
<!-- Node4 -->
<g id="node5" class="node">
<title>Node4</title>
<polygon fill="none" stroke="#bfbfbf" points="1855.5,-.5 1855.5,-19.5 1908.5,-19.5 1908.5,-.5 1855.5,-.5"/>
<text text-anchor="middle" x="1882" y="-7.5" font-family="Helvetica,sans-Serif" font-size="10.00" fill="#000000">cstddef</text>
</g>
<!-- Node3&#45;&gt;Node4 -->
<g id="edge4" class="edge">
<title>Node3&#45;&gt;Node4</title>
<path fill="none" stroke="#191970" d="M1937.3295,-56.2455C1927.4339,-47.9746 1913.0373,-35.9416 1901.4099,-26.2232"/>
<polygon fill="#191970" stroke="#191970" points="1903.4542,-23.3703 1893.5368,-19.6427 1898.965,-28.7413 1903.4542,-23.3703"/>
</g>
<!-- Node5 -->
<g id="node6" class="node">
<title>Node5</title>
<polygon fill="none" stroke="#bfbfbf" points="1926.5,-.5 1926.5,-19.5 1971.5,-19.5 1971.5,-.5 1926.5,-.5"/>
<text text-anchor="middle" x="1949" y="-7.5" font-family="Helvetica,sans-Serif" font-size="10.00" fill="#000000">utility</text>
</g>
<!-- Node3&#45;&gt;Node5 -->
<g id="edge5" class="edge">
<title>Node3&#45;&gt;Node5</title>
<path fill="none" stroke="#191970" d="M1949,-56.2455C1949,-48.9382 1949,-38.6944 1949,-29.7046"/>
<polygon fill="#191970" stroke="#191970" points="1952.5001,-29.6426 1949,-19.6427 1945.5001,-29.6427 1952.5001,-29.6426"/>
</g>
<!-- Node6 -->
<g id="node7" class="node">
<title>Node6</title>
<polygon fill="none" stroke="#bfbfbf" points="1990,-.5 1990,-19.5 2036,-19.5 2036,-.5 1990,-.5"/>
<text text-anchor="middle" x="2013" y="-7.5" font-family="Helvetica,sans-Serif" font-size="10.00" fill="#000000">cstdio</text>
</g>
<!-- Node3&#45;&gt;Node6 -->
<g id="edge6" class="edge">
<title>Node3&#45;&gt;Node6</title>
<path fill="none" stroke="#191970" d="M1960.1479,-56.2455C1969.5087,-48.0549 1983.0858,-36.1749 1994.1349,-26.5069"/>
<polygon fill="#191970" stroke="#191970" points="1996.7588,-28.8618 2001.9798,-19.6427 1992.1492,-23.5937 1996.7588,-28.8618"/>
</g>
<!-- Node8&#45;&gt;Node3 -->
<g id="edge9" class="edge">
<title>Node8&#45;&gt;Node3</title>
<path fill="none" stroke="#191970" d="M1963.0388,-112.2455C1960.7962,-104.8579 1957.6423,-94.4689 1954.8919,-85.4087"/>
<polygon fill="#191970" stroke="#191970" points="1958.1812,-84.1948 1951.9272,-75.6427 1951.483,-86.2282 1958.1812,-84.1948"/>
</g>
<!-- Node8&#45;&gt;Node9 -->
<g id="edge10" class="edge">
<title>Node8&#45;&gt;Node9</title>
<path fill="none" stroke="#191970" d="M2006.3017,-112.4369C2048.9591,-102.3148 2116.0034,-86.406 2159.483,-76.0888"/>
<polygon fill="#191970" stroke="#191970" points="2160.5393,-79.4354 2169.461,-73.7211 2158.9231,-72.6245 2160.5393,-79.4354"/>
</g>
<!-- Node12 -->
<g id="node13" class="node">
<title>Node12</title>
<polygon fill="none" stroke="#bfbfbf" points="2441.5,-56.5 2441.5,-75.5 2510.5,-75.5 2510.5,-56.5 2441.5,-56.5"/>
<text text-anchor="middle" x="2476" y="-63.5" font-family="Helvetica,sans-Serif" font-size="10.00" fill="#000000">type_traits</text>
</g>
<!-- Node11&#45;&gt;Node12 -->
<g id="edge13" class="edge">
<title>Node11&#45;&gt;Node12</title>
<path fill="none" stroke="#191970" d="M2441.3158,-112.2455C2447.2179,-104.3761 2455.6742,-93.101 2462.7594,-83.6542"/>
<polygon fill="#191970" stroke="#191970" points="2465.568,-85.7427 2468.768,-75.6427 2459.9679,-81.5427 2465.568,-85.7427"/>
</g>
<!-- Node13&#45;&gt;Node3 -->
<g id="edge17" class="edge">
<title>Node13&#45;&gt;Node3</title>
<path fill="none" stroke="#191970" d="M1061.6545,-117.2397C1088.3869,-115.4994 1119.0912,-113.5733 1147,-112 1472.3849,-93.6573 1557.7669,-109.9281 1886.0075,-75.9825"/>
<polygon fill="#191970" stroke="#191970" points="1886.7047,-79.4289 1896.2881,-74.9112 1885.9791,-72.4666 1886.7047,-79.4289"/>
</g>
<!-- Node13&#45;&gt;Node7 -->
<g id="edge18" class="edge">
<title>Node13&#45;&gt;Node7</title>
<path fill="none" stroke="#191970" d="M1061.9092,-117.3476C1168.6438,-110.1182 1377.1891,-95.1149 1565.6821,-75.9876"/>
<polygon fill="#191970" stroke="#191970" points="1566.1871,-79.4544 1575.78,-74.957 1565.4763,-72.4905 1566.1871,-79.4544"/>
</g>
<!-- Node13&#45;&gt;Node10 -->
<g id="edge16" class="edge">
<title>Node13&#45;&gt;Node10</title>
<path fill="none" stroke="#191970" d="M920.3586,-112.8975C917.1978,-112.5761 914.0671,-112.2747 911,-112 620.8142,-86.0053 544.3783,-99.7841 250.4215,-76.0744"/>
<polygon fill="#191970" stroke="#191970" points="250.5714,-72.5751 240.3203,-75.2519 250.0033,-79.552 250.5714,-72.5751"/>
</g>
<!-- Node14 -->
<g id="node15" class="node">
<title>Node14</title>
<g id="a_node15"><a xlink:href="../../dd/dc2/BasicOps_8h.html" target="_top" xlink:title="Framework/BasicOps.h">
<polygon fill="none" stroke="#000000" points="794,-56.5 794,-75.5 922,-75.5 922,-56.5 794,-56.5"/>
<text text-anchor="middle" x="858" y="-63.5" font-family="Helvetica,sans-Serif" font-size="10.00" fill="#000000">Framework/BasicOps.h</text>
</a>
</g>
</g>
<!-- Node13&#45;&gt;Node14 -->
<g id="edge15" class="edge">
<title>Node13&#45;&gt;Node14</title>
<path fill="none" stroke="#191970" d="M968.1365,-112.3733C946.595,-103.3032 914.1162,-89.6279 890.0044,-79.4755"/>
<polygon fill="#191970" stroke="#191970" points="891.1397,-76.156 880.5652,-75.5011 888.4233,-82.6075 891.1397,-76.156"/>
</g>
<!-- Node15 -->
<g id="node16" class="node">
<title>Node15</title>
<polygon fill="none" stroke="#bfbfbf" points="258.5,-56.5 258.5,-75.5 359.5,-75.5 359.5,-56.5 258.5,-56.5"/>
<text text-anchor="middle" x="309" y="-63.5" font-family="Helvetica,sans-Serif" font-size="10.00" fill="#000000">arrow/type_fwd.h</text>
</g>
<!-- Node13&#45;&gt;Node15 -->
<g id="edge19" class="edge">
<title>Node13&#45;&gt;Node15</title>
<path fill="none" stroke="#191970" d="M920.3543,-112.9436C917.1947,-112.6097 914.0654,-112.2931 911,-112 673.9624,-89.3323 610.5298,-103.4793 369.8026,-75.9777"/>
<polygon fill="#191970" stroke="#191970" points="370.0245,-72.4802 359.689,-74.8099 369.2215,-79.434 370.0245,-72.4802"/>
</g>
<!-- Node16 -->
<g id="node17" class="node">
<title>Node16</title>
<polygon fill="none" stroke="#bfbfbf" points="940,-56.5 940,-75.5 1086,-75.5 1086,-56.5 940,-56.5"/>
<text text-anchor="middle" x="1013" y="-63.5" font-family="Helvetica,sans-Serif" font-size="10.00" fill="#000000">gandiva/gandiva_aliases.h</text>
</g>
<!-- Node13&#45;&gt;Node16 -->
<g id="edge20" class="edge">
<title>Node13&#45;&gt;Node16</title>
<path fill="none" stroke="#191970" d="M994.8321,-112.2455C997.7659,-104.7776 1001.9047,-94.2427 1005.491,-85.1137"/>
<polygon fill="#191970" stroke="#191970" points="1008.8129,-86.23 1009.2118,-75.6427 1002.2976,-83.6704 1008.8129,-86.23"/>
</g>
<!-- Node17 -->
<g id="node18" class="node">
<title>Node17</title>
<polygon fill="none" stroke="#bfbfbf" points="1104,-56.5 1104,-75.5 1182,-75.5 1182,-56.5 1104,-56.5"/>
<text text-anchor="middle" x="1143" y="-63.5" font-family="Helvetica,sans-Serif" font-size="10.00" fill="#000000">arrow/type.h</text>
</g>
<!-- Node13&#45;&gt;Node17 -->
<g id="edge21" class="edge">
<title>Node13&#45;&gt;Node17</title>
<path fill="none" stroke="#191970" d="M1017.1297,-112.3733C1042.0768,-103.1822 1079.8592,-89.2624 1107.5206,-79.0713"/>
<polygon fill="#191970" stroke="#191970" points="1109.0378,-82.2424 1117.2112,-75.5011 1106.6178,-75.674 1109.0378,-82.2424"/>
</g>
<!-- Node18 -->
<g id="node19" class="node">
<title>Node18</title>
<polygon fill="none" stroke="#bfbfbf" points="1200.5,-56.5 1200.5,-75.5 1295.5,-75.5 1295.5,-56.5 1200.5,-56.5"/>
<text text-anchor="middle" x="1248" y="-63.5" font-family="Helvetica,sans-Serif" font-size="10.00" fill="#000000">gandiva/arrow.h</text>
</g>
<!-- Node13&#45;&gt;Node18 -->
<g id="edge22" class="edge">
<title>Node13&#45;&gt;Node18</title>
<path fill="none" stroke="#191970" d="M1034.8879,-112.4369C1078.9638,-102.8328 1146.9481,-88.0191 1194.2358,-77.7152"/>
<polygon fill="#191970" stroke="#191970" points="1195.2676,-81.0725 1204.2932,-75.5237 1193.7772,-74.233 1195.2676,-81.0725"/>
</g>
<!-- Node13&#45;&gt;Node19 -->
<g id="edge23" class="edge">
<title>Node13&#45;&gt;Node19</title>
<path fill="none" stroke="#191970" d="M1061.6667,-117.4429C1088.4005,-115.7261 1119.1026,-113.7629 1147,-112 1400.6132,-95.9734 1468.0744,-108.9757 1724.4335,-75.8929"/>
<polygon fill="#191970" stroke="#191970" points="1724.9525,-79.355 1734.4172,-74.5937 1724.0491,-72.4135 1724.9525,-79.355"/>
</g>
<!-- Node13&#45;&gt;Node20 -->
<g id="edge24" class="edge">
<title>Node13&#45;&gt;Node20</title>
<path fill="none" stroke="#191970" d="M1058.6249,-112.4369C1128.2481,-102.5912 1236.5875,-87.2705 1309.5946,-76.9462"/>
<polygon fill="#191970" stroke="#191970" points="1310.2427,-80.3895 1319.654,-75.5237 1309.2625,-73.4584 1310.2427,-80.3895"/>
</g>
<!-- Node21 -->
<g id="node22" class="node">
<title>Node21</title>
<polygon fill="none" stroke="#bfbfbf" points="378,-56.5 378,-75.5 470,-75.5 470,-56.5 378,-56.5"/>
<text text-anchor="middle" x="424" y="-63.5" font-family="Helvetica,sans-Serif" font-size="10.00" fill="#000000">gandiva/node.h</text>
</g>
<!-- Node13&#45;&gt;Node21 -->
<g id="edge25" class="edge">
<title>Node13&#45;&gt;Node21</title>
<path fill="none" stroke="#191970" d="M920.3479,-113.0082C917.19,-112.6568 914.0628,-112.3189 911,-112 722.6454,-92.3881 671.7311,-100.9556 480.2778,-76.057"/>
<polygon fill="#191970" stroke="#191970" points="480.5333,-72.5606 470.1625,-74.7276 479.6211,-79.5009 480.5333,-72.5606"/>
</g>
<!-- Node22 -->
<g id="node23" class="node">
<title>Node22</title>
<polygon fill="none" stroke="#bfbfbf" points="488.5,-56.5 488.5,-75.5 577.5,-75.5 577.5,-56.5 488.5,-56.5"/>
<text text-anchor="middle" x="533" y="-63.5" font-family="Helvetica,sans-Serif" font-size="10.00" fill="#000000">gandiva/filter.h</text>
</g>
<!-- Node13&#45;&gt;Node22 -->
<g id="edge26" class="edge">
<title>Node13&#45;&gt;Node22</title>
<path fill="none" stroke="#191970" d="M920.3361,-113.1137C917.1814,-112.7338 914.0581,-112.361 911,-112 770.3448,-95.3957 732.0326,-97.1163 587.8558,-76.0345"/>
<polygon fill="#191970" stroke="#191970" points="588.1509,-72.5402 577.7474,-74.5447 587.1301,-79.4654 588.1509,-72.5402"/>
</g>
<!-- Node23 -->
<g id="node24" class="node">
<title>Node23</title>
<polygon fill="none" stroke="#bfbfbf" points="596,-56.5 596,-75.5 706,-75.5 706,-56.5 596,-56.5"/>
<text text-anchor="middle" x="651" y="-63.5" font-family="Helvetica,sans-Serif" font-size="10.00" fill="#000000">gandiva/projector.h</text>
</g>
<!-- Node13&#45;&gt;Node23 -->
<g id="edge27" class="edge">
<title>Node13&#45;&gt;Node23</title>
<path fill="none" stroke="#191970" d="M932.9382,-112.4369C872.7514,-102.5238 778.8666,-87.0604 716.1758,-76.7348"/>
<polygon fill="#191970" stroke="#191970" points="716.4429,-73.2317 706.007,-75.06 715.3052,-80.1387 716.4429,-73.2317"/>
</g>
<!-- Node13&#45;&gt;Node24 -->
<g id="edge28" class="edge">
<title>Node13&#45;&gt;Node24</title>
<path fill="none" stroke="#191970" d="M1061.9304,-116.0995C1171.1103,-106.8665 1376.4537,-88.8663 1468.373,-75.9114"/>
<polygon fill="#191970" stroke="#191970" points="1469.093,-79.3435 1478.4832,-74.4369 1468.0827,-72.4168 1469.093,-79.3435"/>
</g>
<!-- Node25 -->
<g id="node26" class="node">
<title>Node25</title>
<polygon fill="none" stroke="#bfbfbf" points="724.5,-56.5 724.5,-75.5 775.5,-75.5 775.5,-56.5 724.5,-56.5"/>
<text text-anchor="middle" x="750" y="-63.5" font-family="Helvetica,sans-Serif" font-size="10.00" fill="#000000">variant</text>
</g>
<!-- Node13&#45;&gt;Node25 -->
<g id="edge29" class="edge">
<title>Node13&#45;&gt;Node25</title>
<path fill="none" stroke="#191970" d="M944.5904,-112.4488C904.8443,-104.0861 845.8789,-91.2482 785.3009,-75.9654"/>
<polygon fill="#191970" stroke="#191970" points="786.1214,-72.5628 775.5673,-73.492 784.3973,-79.3471 786.1214,-72.5628"/>
</g>
<!-- Node13&#45;&gt;Node26 -->
<g id="edge30" class="edge">
<title>Node13&#45;&gt;Node26</title>
<path fill="none" stroke="#191970" d="M1061.6584,-117.3072C1088.3913,-115.5747 1119.0948,-113.6363 1147,-112 1447.7973,-94.362 1527.4471,-129.3527 1824,-76 1824.1002,-75.982 1824.2006,-75.9637 1824.3011,-75.9452"/>
<polygon fill="#191970" stroke="#191970" points="1824.8617,-79.4088 1833.7978,-73.717 1823.2627,-72.5939 1824.8617,-79.4088"/>
</g>
<!-- Node13&#45;&gt;Node27 -->
<g id="edge31" class="edge">
<title>Node13&#45;&gt;Node27</title>
<path fill="none" stroke="#191970" d="M920.3625,-112.8525C917.2006,-112.5433 914.0686,-112.2568 911,-112 540.144,-80.9645 439.9924,-131.2007 68.2804,-75.88"/>
<polygon fill="#191970" stroke="#191970" points="68.7374,-72.4094 58.3281,-74.3834 67.6964,-79.3316 68.7374,-72.4094"/>
</g>
<!-- Node28&#45;&gt;Node15 -->
<g id="edge33" class="edge">
<title>Node28&#45;&gt;Node15</title>
<path fill="none" stroke="#191970" d="M763.2278,-113.0425C760.1102,-112.6819 757.0232,-112.3326 754,-112 586.4262,-93.5644 541.1376,-97.9616 369.8223,-76.0213"/>
<polygon fill="#191970" stroke="#191970" points="370.067,-72.5239 359.7009,-74.7134 369.1699,-79.4662 370.067,-72.5239"/>
</g>
<!-- Node34&#45;&gt;Node11 -->
<g id="edge43" class="edge">
<title>Node34&#45;&gt;Node11</title>
<path fill="none" stroke="#191970" d="M2454.6453,-168.2455C2451.2756,-160.6973 2446.507,-150.0158 2442.4017,-140.8197"/>
<polygon fill="#191970" stroke="#191970" points="2445.5773,-139.3473 2438.3048,-131.6427 2439.1853,-142.2009 2445.5773,-139.3473"/>
</g>
<!-- Node34&#45;&gt;Node12 -->
<g id="edge45" class="edge">
<title>Node34&#45;&gt;Node12</title>
<path fill="none" stroke="#191970" d="M2470.74,-168.4549C2480.131,-160.0029 2492.5909,-146.7442 2498,-132 2503.8245,-116.1234 2496.6967,-97.8706 2489.0424,-84.5901"/>
<polygon fill="#191970" stroke="#191970" points="2491.8542,-82.4878 2483.5535,-75.9038 2485.9366,-86.2272 2491.8542,-82.4878"/>
</g>
<!-- Node34&#45;&gt;Node35 -->
<g id="edge44" class="edge">
<title>Node34&#45;&gt;Node35</title>
<path fill="none" stroke="#191970" d="M2477.638,-168.2455C2494.4386,-159.4527 2519.3634,-146.4079 2538.4618,-136.4125"/>
<polygon fill="#191970" stroke="#191970" points="2540.3386,-139.3807 2547.5756,-131.6427 2537.0927,-133.1787 2540.3386,-139.3807"/>
</g>
<!-- Node36&#45;&gt;Node10 -->
<g id="edge48" class="edge">
<title>Node36&#45;&gt;Node10</title>
<path fill="none" stroke="#191970" d="M738.219,-168.4993C621.8921,-147.9494 347.3205,-99.4446 222.1712,-77.3362"/>
<polygon fill="#191970" stroke="#191970" points="222.4339,-73.8285 211.9775,-75.5355 221.2161,-80.7218 222.4339,-73.8285"/>
</g>
<!-- Node42&#45;&gt;Node27 -->
<g id="edge60" class="edge">
<title>Node42&#45;&gt;Node27</title>
<path fill="none" stroke="#191970" d="M1081.3128,-232.3588C846.156,-227.2121 162.2746,-210.3895 120,-188 77.3663,-165.4203 49.258,-112.993 36.6417,-84.7776"/>
<polygon fill="#191970" stroke="#191970" points="39.8545,-83.389 32.6963,-75.578 33.4212,-86.1481 39.8545,-83.389"/>
</g>
</g>
</svg>
