<?xml version="1.0" encoding="UTF-8" standalone="no"?>
<!DOCTYPE svg PUBLIC "-//W3C//DTD SVG 1.1//EN"
 "http://www.w3.org/Graphics/SVG/1.1/DTD/svg11.dtd">
<!-- Generated by graphviz version 2.40.1 (20161225.0304)
 -->
<!-- Title: /home/travis/build/AliceO2Group/AliceO2/Detectors/TRD/base/include/TRDBase/CalOnlineGainTables.h Pages: 1 -->
<svg width="2634pt" height="497pt"
 viewBox="0.00 0.00 2633.79 497.00" xmlns="http://www.w3.org/2000/svg" xmlns:xlink="http://www.w3.org/1999/xlink">
<g id="graph0" class="graph" transform="scale(1 1) rotate(0) translate(4 493)">
<title>/home/travis/build/AliceO2Group/AliceO2/Detectors/TRD/base/include/TRDBase/CalOnlineGainTables.h</title>
<!-- Node0 -->
<g id="node1" class="node">
<title>Node0</title>
<polygon fill="#bfbfbf" stroke="#000000" points="392,-436.5 392,-488.5 568,-488.5 568,-436.5 392,-436.5"/>
<text text-anchor="start" x="400" y="-476.5" font-family="Helvetica,sans-Serif" font-size="10.00" fill="#000000">/home/travis/build</text>
<text text-anchor="start" x="400" y="-465.5" font-family="Helvetica,sans-Serif" font-size="10.00" fill="#000000">/AliceO2Group/AliceO2</text>
<text text-anchor="start" x="400" y="-454.5" font-family="Helvetica,sans-Serif" font-size="10.00" fill="#000000">/Detectors/TRD/base/include</text>
<text text-anchor="middle" x="480" y="-443.5" font-family="Helvetica,sans-Serif" font-size="10.00" fill="#000000">/TRDBase/CalOnlineGainTables.h</text>
</g>
<!-- Node1 -->
<g id="node2" class="node">
<title>Node1</title>
<polygon fill="none" stroke="#bfbfbf" points="0,-118 0,-137 42,-137 42,-118 0,-118"/>
<text text-anchor="middle" x="21" y="-125" font-family="Helvetica,sans-Serif" font-size="10.00" fill="#000000">array</text>
</g>
<!-- Node0&#45;&gt;Node1 -->
<g id="edge1" class="edge">
<title>Node0&#45;&gt;Node1</title>
<path fill="none" stroke="#191970" d="M391.8164,-454.0044C262.0852,-439.0276 35,-402.2751 35,-328.5 35,-328.5 35,-328.5 35,-261.5 35,-220.7493 28.5161,-173.4033 24.3734,-147.312"/>
<polygon fill="#191970" stroke="#191970" points="27.7898,-146.5167 22.7167,-137.2154 20.8822,-147.6502 27.7898,-146.5167"/>
</g>
<!-- Node2 -->
<g id="node3" class="node">
<title>Node2</title>
<g id="a_node3"><a xlink:href="../../dd/d07/TRDGeometry_8h.html" target="_top" xlink:title="TRDBase/TRDGeometry.h">
<polygon fill="none" stroke="#000000" points="1081,-380.5 1081,-399.5 1221,-399.5 1221,-380.5 1081,-380.5"/>
<text text-anchor="middle" x="1151" y="-387.5" font-family="Helvetica,sans-Serif" font-size="10.00" fill="#000000">TRDBase/TRDGeometry.h</text>
</a>
</g>
</g>
<!-- Node0&#45;&gt;Node2 -->
<g id="edge2" class="edge">
<title>Node0&#45;&gt;Node2</title>
<path fill="none" stroke="#191970" d="M568.0663,-452.9846C699.2687,-438.8085 944.1462,-412.3501 1070.693,-398.677"/>
<polygon fill="#191970" stroke="#191970" points="1071.1431,-402.1488 1080.7092,-397.5948 1070.391,-395.1893 1071.1431,-402.1488"/>
</g>
<!-- Node3 -->
<g id="node4" class="node">
<title>Node3</title>
<g id="a_node4"><a xlink:href="../../d8/dad/TRDGeometryBase_8h.html" target="_top" xlink:title="TRDBase/TRDGeometryBase.h">
<polygon fill="none" stroke="#000000" points="2344,-319 2344,-338 2510,-338 2510,-319 2344,-319"/>
<text text-anchor="middle" x="2427" y="-326" font-family="Helvetica,sans-Serif" font-size="10.00" fill="#000000">TRDBase/TRDGeometryBase.h</text>
</a>
</g>
</g>
<!-- Node2&#45;&gt;Node3 -->
<g id="edge3" class="edge">
<title>Node2&#45;&gt;Node3</title>
<path fill="none" stroke="#191970" d="M1221.0638,-388.0825C1394.5565,-383.1101 1858.0394,-368.456 2244,-344 2273.1763,-342.1513 2304.9281,-339.6385 2333.6679,-337.1745"/>
<polygon fill="#191970" stroke="#191970" points="2334.0379,-340.6556 2343.6987,-336.3061 2333.4341,-333.6817 2334.0379,-340.6556"/>
</g>
<!-- Node11 -->
<g id="node12" class="node">
<title>Node11</title>
<g id="a_node12"><a xlink:href="../../d4/d20/DetMatrixCache_8h.html" target="_top" xlink:title="DetectorsCommonDataFormats\l/DetMatrixCache.h">
<polygon fill="none" stroke="#000000" points="1065.5,-313.5 1065.5,-343.5 1236.5,-343.5 1236.5,-313.5 1065.5,-313.5"/>
<text text-anchor="start" x="1073.5" y="-331.5" font-family="Helvetica,sans-Serif" font-size="10.00" fill="#000000">DetectorsCommonDataFormats</text>
<text text-anchor="middle" x="1151" y="-320.5" font-family="Helvetica,sans-Serif" font-size="10.00" fill="#000000">/DetMatrixCache.h</text>
</a>
</g>
</g>
<!-- Node2&#45;&gt;Node11 -->
<g id="edge13" class="edge">
<title>Node2&#45;&gt;Node11</title>
<path fill="none" stroke="#191970" d="M1151,-380.3906C1151,-373.2234 1151,-363.0862 1151,-353.671"/>
<polygon fill="#191970" stroke="#191970" points="1154.5001,-353.5446 1151,-343.5446 1147.5001,-353.5446 1154.5001,-353.5446"/>
</g>
<!-- Node15 -->
<g id="node16" class="node">
<title>Node15</title>
<polygon fill="none" stroke="#bfbfbf" points="1572.5,-252 1572.5,-271 1619.5,-271 1619.5,-252 1572.5,-252"/>
<text text-anchor="middle" x="1596" y="-259" font-family="Helvetica,sans-Serif" font-size="10.00" fill="#000000">vector</text>
</g>
<!-- Node2&#45;&gt;Node15 -->
<g id="edge63" class="edge">
<title>Node2&#45;&gt;Node15</title>
<path fill="none" stroke="#191970" d="M1191.3337,-380.459C1264.9747,-362.6741 1425.7966,-322.1437 1558,-277 1559.9217,-276.3438 1561.8864,-275.6416 1563.8609,-274.9118"/>
<polygon fill="#191970" stroke="#191970" points="1565.5978,-277.9925 1573.6591,-271.1176 1563.07,-271.4648 1565.5978,-277.9925"/>
</g>
<!-- Node16 -->
<g id="node17" class="node">
<title>Node16</title>
<g id="a_node17"><a xlink:href="../../d6/d31/DetID_8h.html" target="_top" xlink:title="DetectorsCommonDataFormats\l/DetID.h">
<polygon fill="none" stroke="#000000" points="554.5,-246.5 554.5,-276.5 725.5,-276.5 725.5,-246.5 554.5,-246.5"/>
<text text-anchor="start" x="562.5" y="-264.5" font-family="Helvetica,sans-Serif" font-size="10.00" fill="#000000">DetectorsCommonDataFormats</text>
<text text-anchor="middle" x="640" y="-253.5" font-family="Helvetica,sans-Serif" font-size="10.00" fill="#000000">/DetID.h</text>
</a>
</g>
</g>
<!-- Node2&#45;&gt;Node16 -->
<g id="edge61" class="edge">
<title>Node2&#45;&gt;Node16</title>
<path fill="none" stroke="#191970" d="M1080.9462,-380.9699C1026.724,-373.2513 949.9976,-360.7345 884,-344 814.6569,-326.4172 736.6941,-298.592 687.9647,-280.1922"/>
<polygon fill="#191970" stroke="#191970" points="688.9131,-276.8085 678.3219,-276.5299 686.4277,-283.3524 688.9131,-276.8085"/>
</g>
<!-- Node21 -->
<g id="node22" class="node">
<title>Node21</title>
<polygon fill="none" stroke="#bfbfbf" points="1108,-118 1108,-137 1152,-137 1152,-118 1108,-118"/>
<text text-anchor="middle" x="1130" y="-125" font-family="Helvetica,sans-Serif" font-size="10.00" fill="#000000">string</text>
</g>
<!-- Node2&#45;&gt;Node21 -->
<g id="edge62" class="edge">
<title>Node2&#45;&gt;Node21</title>
<path fill="none" stroke="#191970" d="M1129.7709,-380.3849C1110.5052,-371.4778 1081.4564,-357.5924 1057,-344 981.7155,-302.1584 936.5377,-293.8853 917,-210 913.8747,-196.5814 908.2538,-189.6457 917,-179 969.3436,-115.2885 1020.9787,-169.6776 1099,-143 1100.6049,-142.4513 1102.2322,-141.8354 1103.8575,-141.174"/>
<polygon fill="#191970" stroke="#191970" points="1105.3156,-144.3559 1112.9747,-137.0354 1102.4222,-137.9818 1105.3156,-144.3559"/>
</g>
<!-- Node29 -->
<g id="node30" class="node">
<title>Node29</title>
<polygon fill="none" stroke="#bfbfbf" points="1591,-118 1591,-137 1649,-137 1649,-118 1591,-118"/>
<text text-anchor="middle" x="1620" y="-125" font-family="Helvetica,sans-Serif" font-size="10.00" fill="#000000">memory</text>
</g>
<!-- Node2&#45;&gt;Node29 -->
<g id="edge64" class="edge">
<title>Node2&#45;&gt;Node29</title>
<path fill="none" stroke="#191970" d="M1221.0578,-388.8213C1431.3823,-383.6614 2050.3766,-356.1079 2173,-210 2181.8572,-199.4465 2182.2797,-189.184 2173,-179 2138.4854,-141.1218 1779.9584,-130.6391 1659.3432,-128.173"/>
<polygon fill="#191970" stroke="#191970" points="1659.1549,-124.6687 1649.0879,-127.971 1659.017,-131.6673 1659.1549,-124.6687"/>
</g>
<!-- Node4 -->
<g id="node5" class="node">
<title>Node4</title>
<g id="a_node5"><a xlink:href="../../df/d21/GPUCommonDef_8h.html" target="_top" xlink:title="GPUCommonDef.h">
<polygon fill="none" stroke="#000000" points="1504.5,-56.5 1504.5,-75.5 1611.5,-75.5 1611.5,-56.5 1504.5,-56.5"/>
<text text-anchor="middle" x="1558" y="-63.5" font-family="Helvetica,sans-Serif" font-size="10.00" fill="#000000">GPUCommonDef.h</text>
</a>
</g>
</g>
<!-- Node3&#45;&gt;Node4 -->
<g id="edge4" class="edge">
<title>Node3&#45;&gt;Node4</title>
<path fill="none" stroke="#191970" d="M2479.5623,-318.9595C2522.2783,-310.0107 2577.5781,-295.283 2591,-277 2619.7623,-237.8208 2661.1481,-194.2197 2568,-112 2532.4749,-80.6427 1838.1004,-69.455 1621.7773,-66.7225"/>
<polygon fill="#191970" stroke="#191970" points="1621.5815,-63.2199 1611.5386,-66.595 1621.4943,-70.2194 1621.5815,-63.2199"/>
</g>
<!-- Node7 -->
<g id="node8" class="node">
<title>Node7</title>
<g id="a_node8"><a xlink:href="../../da/d32/TRDCommonParam_8h.html" target="_top" xlink:title="TRDBase/TRDCommonParam.h">
<polygon fill="none" stroke="#000000" points="2258,-252 2258,-271 2426,-271 2426,-252 2258,-252"/>
<text text-anchor="middle" x="2342" y="-259" font-family="Helvetica,sans-Serif" font-size="10.00" fill="#000000">TRDBase/TRDCommonParam.h</text>
</a>
</g>
</g>
<!-- Node3&#45;&gt;Node7 -->
<g id="edge7" class="edge">
<title>Node3&#45;&gt;Node7</title>
<path fill="none" stroke="#191970" d="M2414.8216,-318.9005C2401.0616,-308.0544 2378.4535,-290.2339 2362.0738,-277.3229"/>
<polygon fill="#191970" stroke="#191970" points="2364.1761,-274.5234 2354.1558,-271.0817 2359.8427,-280.0209 2364.1761,-274.5234"/>
</g>
<!-- Node10 -->
<g id="node11" class="node">
<title>Node10</title>
<g id="a_node11"><a xlink:href="../../de/df3/TRDPadPlane_8h.html" target="_top" xlink:title="TRDBase/TRDPadPlane.h">
<polygon fill="none" stroke="#000000" points="2444.5,-252 2444.5,-271 2581.5,-271 2581.5,-252 2444.5,-252"/>
<text text-anchor="middle" x="2513" y="-259" font-family="Helvetica,sans-Serif" font-size="10.00" fill="#000000">TRDBase/TRDPadPlane.h</text>
</a>
</g>
</g>
<!-- Node3&#45;&gt;Node10 -->
<g id="edge10" class="edge">
<title>Node3&#45;&gt;Node10</title>
<path fill="none" stroke="#191970" d="M2439.3217,-318.9005C2453.2435,-308.0544 2476.1176,-290.2339 2492.69,-277.3229"/>
<polygon fill="#191970" stroke="#191970" points="2494.9636,-279.9885 2500.7012,-271.0817 2490.6615,-274.4664 2494.9636,-279.9885"/>
</g>
<!-- Node5 -->
<g id="node6" class="node">
<title>Node5</title>
<g id="a_node6"><a xlink:href="../../d5/d93/GPUCommonDefSettings_8h.html" target="_top" xlink:title="GPUCommonDefSettings.h">
<polygon fill="none" stroke="#000000" points="1407,-.5 1407,-19.5 1555,-19.5 1555,-.5 1407,-.5"/>
<text text-anchor="middle" x="1481" y="-7.5" font-family="Helvetica,sans-Serif" font-size="10.00" fill="#000000">GPUCommonDefSettings.h</text>
</a>
</g>
</g>
<!-- Node4&#45;&gt;Node5 -->
<g id="edge5" class="edge">
<title>Node4&#45;&gt;Node5</title>
<path fill="none" stroke="#191970" d="M1544.5876,-56.2455C1532.9943,-47.814 1516.0252,-35.4729 1502.5322,-25.6598"/>
<polygon fill="#191970" stroke="#191970" points="1504.4047,-22.6938 1494.2587,-19.6427 1500.2874,-28.355 1504.4047,-22.6938"/>
</g>
<!-- Node6 -->
<g id="node7" class="node">
<title>Node6</title>
<g id="a_node7"><a xlink:href="../../da/d5a/GPUCommonDefAPI_8h.html" target="_top" xlink:title="GPUCommonDefAPI.h">
<polygon fill="none" stroke="#000000" points="1573,-.5 1573,-19.5 1697,-19.5 1697,-.5 1573,-.5"/>
<text text-anchor="middle" x="1635" y="-7.5" font-family="Helvetica,sans-Serif" font-size="10.00" fill="#000000">GPUCommonDefAPI.h</text>
</a>
</g>
</g>
<!-- Node4&#45;&gt;Node6 -->
<g id="edge6" class="edge">
<title>Node4&#45;&gt;Node6</title>
<path fill="none" stroke="#191970" d="M1571.4124,-56.2455C1583.0057,-47.814 1599.9748,-35.4729 1613.4678,-25.6598"/>
<polygon fill="#191970" stroke="#191970" points="1615.7126,-28.355 1621.7413,-19.6427 1611.5953,-22.6938 1615.7126,-28.355"/>
</g>
<!-- Node8 -->
<g id="node9" class="node">
<title>Node8</title>
<g id="a_node9"><a xlink:href="../../d2/d45/GPUCommonRtypes_8h.html" target="_top" xlink:title="GPUCommonRtypes.h">
<polygon fill="none" stroke="#000000" points="2411.5,-185 2411.5,-204 2536.5,-204 2536.5,-185 2411.5,-185"/>
<text text-anchor="middle" x="2474" y="-192" font-family="Helvetica,sans-Serif" font-size="10.00" fill="#000000">GPUCommonRtypes.h</text>
</a>
</g>
</g>
<!-- Node7&#45;&gt;Node8 -->
<g id="edge8" class="edge">
<title>Node7&#45;&gt;Node8</title>
<path fill="none" stroke="#191970" d="M2360.9124,-251.9005C2383.163,-240.6067 2420.3122,-221.7506 2445.9259,-208.7497"/>
<polygon fill="#191970" stroke="#191970" points="2447.7898,-211.7288 2455.1227,-204.0817 2444.6215,-205.4868 2447.7898,-211.7288"/>
</g>
<!-- Node9 -->
<g id="node10" class="node">
<title>Node9</title>
<polygon fill="none" stroke="#bfbfbf" points="2087.5,-118 2087.5,-137 2146.5,-137 2146.5,-118 2087.5,-118"/>
<text text-anchor="middle" x="2117" y="-125" font-family="Helvetica,sans-Serif" font-size="10.00" fill="#000000">Rtypes.h</text>
</g>
<!-- Node8&#45;&gt;Node9 -->
<g id="edge9" class="edge">
<title>Node8&#45;&gt;Node9</title>
<path fill="none" stroke="#191970" d="M2432.8002,-184.9929C2423.0557,-182.8867 2412.6823,-180.7602 2403,-179 2293.8514,-159.157 2263.1658,-171.682 2156,-143 2153.3848,-142.3001 2150.7073,-141.4768 2148.0404,-140.5807"/>
<polygon fill="#191970" stroke="#191970" points="2149.1542,-137.2613 2138.5605,-137.1071 2146.7458,-143.834 2149.1542,-137.2613"/>
</g>
<!-- Node10&#45;&gt;Node4 -->
<g id="edge12" class="edge">
<title>Node10&#45;&gt;Node4</title>
<path fill="none" stroke="#191970" d="M2521.732,-251.7158C2529.8188,-241.9452 2541.2838,-226.1016 2546,-210 2558.2431,-168.2006 2576.0737,-143.5065 2546,-112 2514.0482,-78.526 1835.1832,-68.8081 1621.6815,-66.5744"/>
<polygon fill="#191970" stroke="#191970" points="1621.6066,-63.0735 1611.5712,-66.4706 1621.5347,-70.0732 1621.6066,-63.0735"/>
</g>
<!-- Node10&#45;&gt;Node8 -->
<g id="edge11" class="edge">
<title>Node10&#45;&gt;Node8</title>
<path fill="none" stroke="#191970" d="M2507.4123,-251.9005C2501.5043,-241.751 2492.0413,-225.4941 2484.6918,-212.8679"/>
<polygon fill="#191970" stroke="#191970" points="2487.633,-210.9634 2479.5774,-204.0817 2481.5833,-214.4849 2487.633,-210.9634"/>
</g>
<!-- Node11&#45;&gt;Node1 -->
<g id="edge18" class="edge">
<title>Node11&#45;&gt;Node1</title>
<path fill="none" stroke="#191970" d="M1065.148,-324.2394C852.8687,-312.7822 308.4217,-277.5151 141,-210 101.2891,-193.9861 61.5999,-163.0522 39.2844,-143.9488"/>
<polygon fill="#191970" stroke="#191970" points="41.4553,-141.198 31.6186,-137.2622 36.8539,-146.4732 41.4553,-141.198"/>
</g>
<!-- Node11&#45;&gt;Node8 -->
<g id="edge17" class="edge">
<title>Node11&#45;&gt;Node8</title>
<path fill="none" stroke="#191970" d="M1236.5134,-321.9955C1330.4259,-313.9285 1474.6067,-298.5572 1525,-277 1545.3576,-268.2914 1543.2559,-253.7429 1564,-246 1738.8338,-180.7416 2217.9324,-233.9901 2403,-210 2410.5688,-209.0189 2418.525,-207.6359 2426.2629,-206.0959"/>
<polygon fill="#191970" stroke="#191970" points="2427.1889,-209.478 2436.2585,-204.0014 2425.7533,-202.6268 2427.1889,-209.478"/>
</g>
<!-- Node12 -->
<g id="node13" class="node">
<title>Node12</title>
<g id="a_node13"><a xlink:href="../../df/d5b/GPUCommonLogger_8h.html" target="_top" xlink:title="GPUCommonLogger.h">
<polygon fill="none" stroke="#000000" points="958.5,-252 958.5,-271 1081.5,-271 1081.5,-252 958.5,-252"/>
<text text-anchor="middle" x="1020" y="-259" font-family="Helvetica,sans-Serif" font-size="10.00" fill="#000000">GPUCommonLogger.h</text>
</a>
</g>
</g>
<!-- Node11&#45;&gt;Node12 -->
<g id="edge14" class="edge">
<title>Node11&#45;&gt;Node12</title>
<path fill="none" stroke="#191970" d="M1121.601,-313.4639C1099.5219,-302.1715 1069.4839,-286.8086 1047.8017,-275.7192"/>
<polygon fill="#191970" stroke="#191970" points="1049.2747,-272.5414 1038.7778,-271.1039 1046.0872,-278.7736 1049.2747,-272.5414"/>
</g>
<!-- Node11&#45;&gt;Node15 -->
<g id="edge19" class="edge">
<title>Node11&#45;&gt;Node15</title>
<path fill="none" stroke="#191970" d="M1236.7748,-320.3042C1337.7619,-310.1887 1499.1838,-292.4312 1558,-277 1560.6231,-276.3118 1563.3063,-275.4856 1565.9736,-274.5776"/>
<polygon fill="#191970" stroke="#191970" points="1567.2945,-277.8204 1575.4288,-271.0318 1564.8365,-271.2661 1567.2945,-277.8204"/>
</g>
<!-- Node11&#45;&gt;Node16 -->
<g id="edge20" class="edge">
<title>Node11&#45;&gt;Node16</title>
<path fill="none" stroke="#191970" d="M1065.4701,-317.2857C974.4586,-305.3527 830.7879,-286.5152 735.9737,-274.0836"/>
<polygon fill="#191970" stroke="#191970" points="736.1791,-270.5807 725.8089,-272.7509 735.269,-277.5213 736.1791,-270.5807"/>
</g>
<!-- Node35 -->
<g id="node36" class="node">
<title>Node35</title>
<g id="a_node36"><a xlink:href="../../dd/d76/Cartesian3D_8h.html" target="_top" xlink:title="MathUtils/Cartesian3D.h">
<polygon fill="none" stroke="#000000" points="1380.5,-252 1380.5,-271 1515.5,-271 1515.5,-252 1380.5,-252"/>
<text text-anchor="middle" x="1448" y="-259" font-family="Helvetica,sans-Serif" font-size="10.00" fill="#000000">MathUtils/Cartesian3D.h</text>
</a>
</g>
</g>
<!-- Node11&#45;&gt;Node35 -->
<g id="edge49" class="edge">
<title>Node11&#45;&gt;Node35</title>
<path fill="none" stroke="#191970" d="M1217.6526,-313.4639C1271.5737,-301.2999 1346.432,-284.4127 1395.996,-273.2315"/>
<polygon fill="#191970" stroke="#191970" points="1396.88,-276.6202 1405.8646,-271.0053 1395.3395,-269.7918 1396.88,-276.6202"/>
</g>
<!-- Node13 -->
<g id="node14" class="node">
<title>Node13</title>
<polygon fill="none" stroke="#bfbfbf" points="990,-185 990,-204 1050,-204 1050,-185 990,-185"/>
<text text-anchor="middle" x="1020" y="-192" font-family="Helvetica,sans-Serif" font-size="10.00" fill="#000000">iostream</text>
</g>
<!-- Node12&#45;&gt;Node13 -->
<g id="edge15" class="edge">
<title>Node12&#45;&gt;Node13</title>
<path fill="none" stroke="#191970" d="M1020,-251.9005C1020,-242.149 1020,-226.7597 1020,-214.3695"/>
<polygon fill="#191970" stroke="#191970" points="1023.5001,-214.0816 1020,-204.0817 1016.5001,-214.0817 1023.5001,-214.0816"/>
</g>
<!-- Node14 -->
<g id="node15" class="node">
<title>Node14</title>
<polygon fill="none" stroke="#bfbfbf" points="926,-185 926,-204 972,-204 972,-185 926,-185"/>
<text text-anchor="middle" x="949" y="-192" font-family="Helvetica,sans-Serif" font-size="10.00" fill="#000000">cstdio</text>
</g>
<!-- Node12&#45;&gt;Node14 -->
<g id="edge16" class="edge">
<title>Node12&#45;&gt;Node14</title>
<path fill="none" stroke="#191970" d="M1009.8274,-251.9005C998.5447,-241.2535 980.1399,-223.8856 966.5258,-211.0385"/>
<polygon fill="#191970" stroke="#191970" points="968.8288,-208.3994 959.1537,-204.0817 964.0246,-213.4905 968.8288,-208.3994"/>
</g>
<!-- Node16&#45;&gt;Node1 -->
<g id="edge22" class="edge">
<title>Node16&#45;&gt;Node1</title>
<path fill="none" stroke="#191970" d="M554.4181,-257.0744C469.5146,-251.2488 336.217,-238.2159 224,-210 214.0044,-207.4867 60.3975,-147.2327 51,-143 50.0111,-142.5546 49.0085,-142.0926 47.9993,-141.6188"/>
<polygon fill="#191970" stroke="#191970" points="49.4498,-138.4319 38.9314,-137.1619 46.3621,-144.7141 49.4498,-138.4319"/>
</g>
<!-- Node16&#45;&gt;Node9 -->
<g id="edge21" class="edge">
<title>Node16&#45;&gt;Node9</title>
<path fill="none" stroke="#191970" d="M705.3089,-246.4092C743.9253,-236.9956 793.6088,-224.0283 837,-210 873.2826,-198.2699 879.6768,-186.8104 917,-179 974.993,-166.8641 1876.0847,-135.6768 2077.3425,-128.8384"/>
<polygon fill="#191970" stroke="#191970" points="2077.5891,-132.3322 2087.4647,-128.495 2077.3517,-125.3362 2077.5891,-132.3322"/>
</g>
<!-- Node17 -->
<g id="node18" class="node">
<title>Node17</title>
<polygon fill="none" stroke="#bfbfbf" points="566,-185 566,-204 610,-204 610,-185 566,-185"/>
<text text-anchor="middle" x="588" y="-192" font-family="Helvetica,sans-Serif" font-size="10.00" fill="#000000">bitset</text>
</g>
<!-- Node16&#45;&gt;Node17 -->
<g id="edge23" class="edge">
<title>Node16&#45;&gt;Node17</title>
<path fill="none" stroke="#191970" d="M628.2004,-246.2967C620.3345,-236.1618 609.9673,-222.804 601.7312,-212.1921"/>
<polygon fill="#191970" stroke="#191970" points="604.312,-209.8089 595.4158,-204.055 598.7821,-214.1008 604.312,-209.8089"/>
</g>
<!-- Node18 -->
<g id="node19" class="node">
<title>Node18</title>
<polygon fill="none" stroke="#bfbfbf" points="1038,-118 1038,-137 1090,-137 1090,-118 1038,-118"/>
<text text-anchor="middle" x="1064" y="-125" font-family="Helvetica,sans-Serif" font-size="10.00" fill="#000000">cassert</text>
</g>
<!-- Node16&#45;&gt;Node18 -->
<g id="edge24" class="edge">
<title>Node16&#45;&gt;Node18</title>
<path fill="none" stroke="#191970" d="M682.6882,-246.4426C707.1104,-237.1763 737.9703,-224.3457 764,-210 784.9506,-198.4536 785.8531,-188.0421 808,-179 900.1337,-141.3837 933.6155,-171.3796 1029,-143 1031.1219,-142.3687 1033.2842,-141.6392 1035.4405,-140.8478"/>
<polygon fill="#191970" stroke="#191970" points="1036.7558,-144.0913 1044.7114,-137.0941 1034.1287,-137.603 1036.7558,-144.0913"/>
</g>
<!-- Node19 -->
<g id="node20" class="node">
<title>Node19</title>
<polygon fill="none" stroke="#bfbfbf" points="482,-118 482,-137 532,-137 532,-118 482,-118"/>
<text text-anchor="middle" x="507" y="-125" font-family="Helvetica,sans-Serif" font-size="10.00" fill="#000000">cstdint</text>
</g>
<!-- Node16&#45;&gt;Node19 -->
<g id="edge25" class="edge">
<title>Node16&#45;&gt;Node19</title>
<path fill="none" stroke="#191970" d="M554.4759,-256.1957C486.8161,-250.0038 400.1602,-236.9401 378,-210 369.2474,-199.3595 370.272,-190.4063 378,-179 378.1799,-178.7344 435.1965,-156.036 473.3581,-140.8655"/>
<polygon fill="#191970" stroke="#191970" points="475.0829,-143.9464 483.083,-137.0002 472.4974,-137.4413 475.0829,-143.9464"/>
</g>
<!-- Node20 -->
<g id="node21" class="node">
<title>Node20</title>
<polygon fill="none" stroke="#bfbfbf" points="387.5,-185 387.5,-204 460.5,-204 460.5,-185 387.5,-185"/>
<text text-anchor="middle" x="424" y="-192" font-family="Helvetica,sans-Serif" font-size="10.00" fill="#000000">string_view</text>
</g>
<!-- Node16&#45;&gt;Node20 -->
<g id="edge26" class="edge">
<title>Node16&#45;&gt;Node20</title>
<path fill="none" stroke="#191970" d="M588.2039,-246.4746C554.2092,-236.472 508.8339,-222.8532 469,-210 466.2723,-209.1198 463.4576,-208.1936 460.6295,-207.25"/>
<polygon fill="#191970" stroke="#191970" points="461.6643,-203.9053 451.07,-204.0162 459.4211,-210.5361 461.6643,-203.9053"/>
</g>
<!-- Node16&#45;&gt;Node21 -->
<g id="edge27" class="edge">
<title>Node16&#45;&gt;Node21</title>
<path fill="none" stroke="#191970" d="M700.4401,-246.4028C731.0679,-237.6753 768.371,-225.3646 800,-210 822.1756,-199.2276 822.9896,-187.8501 846,-179 952.0067,-138.2283 990.5798,-176.835 1099,-143 1100.6586,-142.4824 1102.3374,-141.8844 1104.0108,-141.2306"/>
<polygon fill="#191970" stroke="#191970" points="1105.6579,-144.3281 1113.3568,-137.0496 1102.7993,-137.9384 1105.6579,-144.3281"/>
</g>
<!-- Node22 -->
<g id="node23" class="node">
<title>Node22</title>
<polygon fill="none" stroke="#bfbfbf" points="478.5,-185 478.5,-204 547.5,-204 547.5,-185 478.5,-185"/>
<text text-anchor="middle" x="513" y="-192" font-family="Helvetica,sans-Serif" font-size="10.00" fill="#000000">type_traits</text>
</g>
<!-- Node16&#45;&gt;Node22 -->
<g id="edge28" class="edge">
<title>Node16&#45;&gt;Node22</title>
<path fill="none" stroke="#191970" d="M611.4987,-246.4639C590.1897,-235.2222 561.234,-219.9463 540.2361,-208.8686"/>
<polygon fill="#191970" stroke="#191970" points="541.6822,-205.6744 531.2044,-204.1039 538.416,-211.8657 541.6822,-205.6744"/>
</g>
<!-- Node23 -->
<g id="node24" class="node">
<title>Node23</title>
<g id="a_node24"><a xlink:href="../../d9/d52/Common_2MathUtils_2include_2MathUtils_2Utils_8h.html" target="_top" xlink:title="MathUtils/Utils.h">
<polygon fill="none" stroke="#000000" points="233,-185 233,-204 331,-204 331,-185 233,-185"/>
<text text-anchor="middle" x="282" y="-192" font-family="Helvetica,sans-Serif" font-size="10.00" fill="#000000">MathUtils/Utils.h</text>
</a>
</g>
</g>
<!-- Node16&#45;&gt;Node23 -->
<g id="edge29" class="edge">
<title>Node16&#45;&gt;Node23</title>
<path fill="none" stroke="#191970" d="M554.1824,-248.1096C495.1612,-238.5113 415.0866,-224.7215 345,-210 339.6951,-208.8857 334.1584,-207.6426 328.6644,-206.3585"/>
<polygon fill="#191970" stroke="#191970" points="329.4202,-202.9407 318.8807,-204.0218 327.794,-209.7492 329.4202,-202.9407"/>
</g>
<!-- Node28 -->
<g id="node29" class="node">
<title>Node28</title>
<g id="a_node29"><a xlink:href="../../dc/dcd/DataHeader_8h.html" target="_top" xlink:title="Headers/DataHeader.h">
<polygon fill="none" stroke="#000000" points="628.5,-185 628.5,-204 755.5,-204 755.5,-185 628.5,-185"/>
<text text-anchor="middle" x="692" y="-192" font-family="Helvetica,sans-Serif" font-size="10.00" fill="#000000">Headers/DataHeader.h</text>
</a>
</g>
</g>
<!-- Node16&#45;&gt;Node28 -->
<g id="edge38" class="edge">
<title>Node16&#45;&gt;Node28</title>
<path fill="none" stroke="#191970" d="M651.7996,-246.2967C659.6655,-236.1618 670.0327,-222.804 678.2688,-212.1921"/>
<polygon fill="#191970" stroke="#191970" points="681.2179,-214.1008 684.5842,-204.055 675.688,-209.8089 681.2179,-214.1008"/>
</g>
<!-- Node23&#45;&gt;Node1 -->
<g id="edge30" class="edge">
<title>Node23&#45;&gt;Node1</title>
<path fill="none" stroke="#191970" d="M236.3065,-184.9728C174.039,-171.8887 68.2601,-149.2638 51,-143 49.7601,-142.55 48.5064,-142.0594 47.2509,-141.5388"/>
<polygon fill="#191970" stroke="#191970" points="48.3338,-138.1824 37.7907,-137.1364 45.3804,-144.5288 48.3338,-138.1824"/>
</g>
<!-- Node23&#45;&gt;Node4 -->
<g id="edge32" class="edge">
<title>Node23&#45;&gt;Node4</title>
<path fill="none" stroke="#191970" d="M322.2915,-184.9312C353.8676,-176.4844 398.284,-162.472 434,-143 453.4406,-132.4012 452.2539,-119.7376 473,-112 568.4767,-76.3902 1276.5026,-68.119 1494.3826,-66.4078"/>
<polygon fill="#191970" stroke="#191970" points="1494.4101,-69.9078 1504.3829,-66.3312 1494.3564,-62.908 1494.4101,-69.9078"/>
</g>
<!-- Node24 -->
<g id="node25" class="node">
<title>Node24</title>
<polygon fill="none" stroke="#bfbfbf" points="304.5,-56.5 304.5,-75.5 351.5,-75.5 351.5,-56.5 304.5,-56.5"/>
<text text-anchor="middle" x="328" y="-63.5" font-family="Helvetica,sans-Serif" font-size="10.00" fill="#000000">cmath</text>
</g>
<!-- Node23&#45;&gt;Node24 -->
<g id="edge31" class="edge">
<title>Node23&#45;&gt;Node24</title>
<path fill="none" stroke="#191970" d="M283.2915,-184.5565C285.5623,-168.7548 291.0049,-137.1292 301,-112 304.8294,-102.3724 310.4692,-92.3732 315.6054,-84.1664"/>
<polygon fill="#191970" stroke="#191970" points="318.5439,-86.0678 321.0669,-75.7777 312.6776,-82.2485 318.5439,-86.0678"/>
</g>
<!-- Node25 -->
<g id="node26" class="node">
<title>Node25</title>
<g id="a_node26"><a xlink:href="../../d6/da2/GPUCommonMath_8h.html" target="_top" xlink:title="GPUCommonMath.h">
<polygon fill="none" stroke="#000000" points="310.5,-118 310.5,-137 425.5,-137 425.5,-118 310.5,-118"/>
<text text-anchor="middle" x="368" y="-125" font-family="Helvetica,sans-Serif" font-size="10.00" fill="#000000">GPUCommonMath.h</text>
</a>
</g>
</g>
<!-- Node23&#45;&gt;Node25 -->
<g id="edge33" class="edge">
<title>Node23&#45;&gt;Node25</title>
<path fill="none" stroke="#191970" d="M294.3217,-184.9005C308.2435,-174.0544 331.1176,-156.2339 347.69,-143.3229"/>
<polygon fill="#191970" stroke="#191970" points="349.9636,-145.9885 355.7012,-137.0817 345.6615,-140.4664 349.9636,-145.9885"/>
</g>
<!-- Node27 -->
<g id="node28" class="node">
<title>Node27</title>
<g id="a_node28"><a xlink:href="../../d6/d84/MathConstants_8h.html" target="_top" xlink:title="useful math constants ">
<polygon fill="none" stroke="#000000" points="60,-118 60,-137 254,-137 254,-118 60,-118"/>
<text text-anchor="middle" x="157" y="-125" font-family="Helvetica,sans-Serif" font-size="10.00" fill="#000000">CommonConstants/MathConstants.h</text>
</a>
</g>
</g>
<!-- Node23&#45;&gt;Node27 -->
<g id="edge37" class="edge">
<title>Node23&#45;&gt;Node27</title>
<path fill="none" stroke="#191970" d="M264.0905,-184.9005C243.1127,-173.6564 208.1504,-154.9166 183.9065,-141.9219"/>
<polygon fill="#191970" stroke="#191970" points="185.3435,-138.7211 174.8762,-137.0817 182.0365,-144.8907 185.3435,-138.7211"/>
</g>
<!-- Node25&#45;&gt;Node4 -->
<g id="edge34" class="edge">
<title>Node25&#45;&gt;Node4</title>
<path fill="none" stroke="#191970" d="M406.2778,-117.9898C417.1146,-115.6443 428.9649,-113.4044 440,-112 646.2084,-85.7575 1288.9798,-71.2436 1494.2813,-67.1886"/>
<polygon fill="#191970" stroke="#191970" points="1494.3712,-70.6876 1504.3006,-66.9921 1494.2339,-63.6889 1494.3712,-70.6876"/>
</g>
<!-- Node25&#45;&gt;Node24 -->
<g id="edge35" class="edge">
<title>Node25&#45;&gt;Node24</title>
<path fill="none" stroke="#191970" d="M361.75,-117.8906C355.9135,-108.917 347.0491,-95.2879 339.8694,-84.2491"/>
<polygon fill="#191970" stroke="#191970" points="342.7245,-82.2194 334.3381,-75.7449 336.8564,-86.0361 342.7245,-82.2194"/>
</g>
<!-- Node26 -->
<g id="node27" class="node">
<title>Node26</title>
<polygon fill="none" stroke="#bfbfbf" points="376,-56.5 376,-75.5 440,-75.5 440,-56.5 376,-56.5"/>
<text text-anchor="middle" x="408" y="-63.5" font-family="Helvetica,sans-Serif" font-size="10.00" fill="#000000">algorithm</text>
</g>
<!-- Node25&#45;&gt;Node26 -->
<g id="edge36" class="edge">
<title>Node25&#45;&gt;Node26</title>
<path fill="none" stroke="#191970" d="M374.25,-117.8906C380.0865,-108.917 388.9509,-95.2879 396.1306,-84.2491"/>
<polygon fill="#191970" stroke="#191970" points="399.1436,-86.0361 401.6619,-75.7449 393.2755,-82.2194 399.1436,-86.0361"/>
</g>
<!-- Node28&#45;&gt;Node18 -->
<g id="edge41" class="edge">
<title>Node28&#45;&gt;Node18</title>
<path fill="none" stroke="#191970" d="M737.6998,-184.9573C748.2838,-182.8755 759.5172,-180.7686 770,-179 884.5983,-159.666 917.2285,-174.8386 1029,-143 1031.181,-142.3787 1033.4025,-141.6477 1035.6149,-140.8471"/>
<polygon fill="#191970" stroke="#191970" points="1037.1395,-144.0062 1045.1026,-137.0176 1034.5194,-137.515 1037.1395,-144.0062"/>
</g>
<!-- Node28&#45;&gt;Node19 -->
<g id="edge39" class="edge">
<title>Node28&#45;&gt;Node19</title>
<path fill="none" stroke="#191970" d="M663.8929,-184.9513C634.4071,-174.8489 586.7709,-158.286 546,-143 544.158,-142.3094 542.2707,-141.592 540.3682,-140.8613"/>
<polygon fill="#191970" stroke="#191970" points="541.4561,-137.5288 530.8677,-137.1573 538.9133,-144.0507 541.4561,-137.5288"/>
</g>
<!-- Node28&#45;&gt;Node21 -->
<g id="edge45" class="edge">
<title>Node28&#45;&gt;Node21</title>
<path fill="none" stroke="#191970" d="M755.5016,-185.9012C772.5464,-183.6242 790.9718,-181.1909 808,-179 937.2538,-162.3698 974.2485,-180.6853 1099,-143 1100.6632,-142.4976 1102.3457,-141.9113 1104.0218,-141.2664"/>
<polygon fill="#191970" stroke="#191970" points="1105.6586,-144.3691 1113.3751,-137.1093 1102.8155,-137.9725 1105.6586,-144.3691"/>
</g>
<!-- Node28&#45;&gt;Node26 -->
<g id="edge43" class="edge">
<title>Node28&#45;&gt;Node26</title>
<path fill="none" stroke="#191970" d="M665.9091,-184.833C642.365,-175.5999 607.2012,-160.5224 579,-143 560.4867,-131.497 560.0367,-122.6144 541,-112 512.3331,-96.0161 477.1283,-84.1405 450.1412,-76.463"/>
<polygon fill="#191970" stroke="#191970" points="450.8022,-73.0145 440.2313,-73.7262 448.9388,-79.762 450.8022,-73.0145"/>
</g>
<!-- Node28&#45;&gt;Node29 -->
<g id="edge40" class="edge">
<title>Node28&#45;&gt;Node29</title>
<path fill="none" stroke="#191970" d="M755.6424,-187.6058C783.3764,-184.7279 816.2766,-181.484 846,-179 1127.1475,-155.5047 1466.4713,-135.9756 1580.4828,-129.6553"/>
<polygon fill="#191970" stroke="#191970" points="1581.0116,-133.1315 1590.8033,-129.0852 1580.6255,-126.1421 1581.0116,-133.1315"/>
</g>
<!-- Node30 -->
<g id="node31" class="node">
<title>Node30</title>
<polygon fill="none" stroke="#bfbfbf" points="588,-118 588,-137 638,-137 638,-118 588,-118"/>
<text text-anchor="middle" x="613" y="-125" font-family="Helvetica,sans-Serif" font-size="10.00" fill="#000000">cstring</text>
</g>
<!-- Node28&#45;&gt;Node30 -->
<g id="edge42" class="edge">
<title>Node28&#45;&gt;Node30</title>
<path fill="none" stroke="#191970" d="M680.6812,-184.9005C668.0099,-174.1539 647.2652,-156.5603 632.0773,-143.6794"/>
<polygon fill="#191970" stroke="#191970" points="634.1882,-140.8805 624.2978,-137.0817 629.6605,-146.2191 634.1882,-140.8805"/>
</g>
<!-- Node31 -->
<g id="node32" class="node">
<title>Node31</title>
<polygon fill="none" stroke="#bfbfbf" points="656.5,-118 656.5,-137 721.5,-137 721.5,-118 656.5,-118"/>
<text text-anchor="middle" x="689" y="-125" font-family="Helvetica,sans-Serif" font-size="10.00" fill="#000000">stdexcept</text>
</g>
<!-- Node28&#45;&gt;Node31 -->
<g id="edge44" class="edge">
<title>Node28&#45;&gt;Node31</title>
<path fill="none" stroke="#191970" d="M691.5702,-184.9005C691.1335,-175.149 690.4445,-159.7597 689.8897,-147.3695"/>
<polygon fill="#191970" stroke="#191970" points="693.3729,-146.9151 689.429,-137.0817 686.3799,-147.2282 693.3729,-146.9151"/>
</g>
<!-- Node32 -->
<g id="node33" class="node">
<title>Node32</title>
<polygon fill="none" stroke="#bfbfbf" points="740,-118 740,-137 790,-137 790,-118 740,-118"/>
<text text-anchor="middle" x="765" y="-125" font-family="Helvetica,sans-Serif" font-size="10.00" fill="#000000">climits</text>
</g>
<!-- Node28&#45;&gt;Node32 -->
<g id="edge46" class="edge">
<title>Node28&#45;&gt;Node32</title>
<path fill="none" stroke="#191970" d="M702.4591,-184.9005C714.0597,-174.2535 732.9829,-156.8856 746.9805,-144.0385"/>
<polygon fill="#191970" stroke="#191970" points="749.5596,-146.4221 754.5603,-137.0817 744.8263,-141.2649 749.5596,-146.4221"/>
</g>
<!-- Node33 -->
<g id="node34" class="node">
<title>Node33</title>
<g id="a_node34"><a xlink:href="../../d7/df8/Types_8h.html" target="_top" xlink:title="MemoryResources/Types.h">
<polygon fill="none" stroke="#000000" points="808,-118 808,-137 954,-137 954,-118 808,-118"/>
<text text-anchor="middle" x="881" y="-125" font-family="Helvetica,sans-Serif" font-size="10.00" fill="#000000">MemoryResources/Types.h</text>
</a>
</g>
</g>
<!-- Node28&#45;&gt;Node33 -->
<g id="edge47" class="edge">
<title>Node28&#45;&gt;Node33</title>
<path fill="none" stroke="#191970" d="M719.0791,-184.9005C751.9203,-173.2584 807.4296,-153.5805 844.1475,-140.5641"/>
<polygon fill="#191970" stroke="#191970" points="845.7153,-143.7218 853.9711,-137.0817 843.3764,-137.1241 845.7153,-143.7218"/>
</g>
<!-- Node34 -->
<g id="node35" class="node">
<title>Node34</title>
<polygon fill="none" stroke="#bfbfbf" points="972.5,-118 972.5,-137 1019.5,-137 1019.5,-118 972.5,-118"/>
<text text-anchor="middle" x="996" y="-125" font-family="Helvetica,sans-Serif" font-size="10.00" fill="#000000">cerrno</text>
</g>
<!-- Node28&#45;&gt;Node34 -->
<g id="edge48" class="edge">
<title>Node28&#45;&gt;Node34</title>
<path fill="none" stroke="#191970" d="M739.4179,-184.9846C749.5082,-182.9858 760.1032,-180.9063 770,-179 855.6823,-162.4962 879.949,-169.7649 963,-143 964.8525,-142.403 966.7362,-141.7257 968.6167,-140.9962"/>
<polygon fill="#191970" stroke="#191970" points="970.025,-144.2006 977.835,-137.0414 967.2651,-137.7676 970.025,-144.2006"/>
</g>
<!-- Node35&#45;&gt;Node9 -->
<g id="edge55" class="edge">
<title>Node35&#45;&gt;Node9</title>
<path fill="none" stroke="#191970" d="M1492.5201,-251.9875C1504.6289,-249.7008 1517.7756,-247.4911 1530,-246 1601.0299,-237.3362 2123.8366,-261.993 2173,-210 2192.8084,-189.0515 2163.1414,-160.4423 2139.9899,-143.0064"/>
<polygon fill="#191970" stroke="#191970" points="2142.0123,-140.1497 2131.8589,-137.1231 2137.9088,-145.8208 2142.0123,-140.1497"/>
</g>
<!-- Node36 -->
<g id="node37" class="node">
<title>Node36</title>
<polygon fill="none" stroke="#bfbfbf" points="1428,-179.5 1428,-209.5 1592,-209.5 1592,-179.5 1428,-179.5"/>
<text text-anchor="start" x="1436" y="-197.5" font-family="Helvetica,sans-Serif" font-size="10.00" fill="#000000">Math/GenVector/Displacement</text>
<text text-anchor="middle" x="1510" y="-186.5" font-family="Helvetica,sans-Serif" font-size="10.00" fill="#000000">Vector3D.h</text>
</g>
<!-- Node35&#45;&gt;Node36 -->
<g id="edge50" class="edge">
<title>Node35&#45;&gt;Node36</title>
<path fill="none" stroke="#191970" d="M1456.8831,-251.9005C1465.288,-242.8178 1478.2188,-228.8442 1489.2175,-216.9585"/>
<polygon fill="#191970" stroke="#191970" points="1491.8762,-219.2386 1496.0993,-209.5218 1486.7385,-214.4842 1491.8762,-219.2386"/>
</g>
<!-- Node37 -->
<g id="node38" class="node">
<title>Node37</title>
<polygon fill="none" stroke="#bfbfbf" points="1610.5,-185 1610.5,-204 1799.5,-204 1799.5,-185 1610.5,-185"/>
<text text-anchor="middle" x="1705" y="-192" font-family="Helvetica,sans-Serif" font-size="10.00" fill="#000000">Math/GenVector/PositionVector3D.h</text>
</g>
<!-- Node35&#45;&gt;Node37 -->
<g id="edge51" class="edge">
<title>Node35&#45;&gt;Node37</title>
<path fill="none" stroke="#191970" d="M1484.5489,-251.9717C1530.1851,-240.0743 1608.3147,-219.7059 1658.2596,-206.6852"/>
<polygon fill="#191970" stroke="#191970" points="1659.3675,-210.0135 1668.1611,-204.1039 1657.6015,-203.2399 1659.3675,-210.0135"/>
</g>
<!-- Node38 -->
<g id="node39" class="node">
<title>Node38</title>
<polygon fill="none" stroke="#bfbfbf" points="1818,-185 1818,-204 1978,-204 1978,-185 1818,-185"/>
<text text-anchor="middle" x="1898" y="-192" font-family="Helvetica,sans-Serif" font-size="10.00" fill="#000000">Math/GenVector/Rotation3D.h</text>
</g>
<!-- Node35&#45;&gt;Node38 -->
<g id="edge52" class="edge">
<title>Node35&#45;&gt;Node38</title>
<path fill="none" stroke="#191970" d="M1496.0473,-251.9309C1507.1739,-249.8504 1518.9823,-247.7506 1530,-246 1653.4791,-226.3806 1685.383,-228.7304 1809,-210 1817.5628,-208.7026 1826.5724,-207.2437 1835.4377,-205.7534"/>
<polygon fill="#191970" stroke="#191970" points="1836.0837,-209.1939 1845.354,-204.0644 1834.9083,-202.2932 1836.0837,-209.1939"/>
</g>
<!-- Node39 -->
<g id="node40" class="node">
<title>Node39</title>
<polygon fill="none" stroke="#bfbfbf" points="1996,-185 1996,-204 2164,-204 2164,-185 1996,-185"/>
<text text-anchor="middle" x="2080" y="-192" font-family="Helvetica,sans-Serif" font-size="10.00" fill="#000000">Math/GenVector/Transform3D.h</text>
</g>
<!-- Node35&#45;&gt;Node39 -->
<g id="edge53" class="edge">
<title>Node35&#45;&gt;Node39</title>
<path fill="none" stroke="#191970" d="M1493.8296,-251.9309C1505.579,-249.7274 1518.2241,-247.5721 1530,-246 1731.9487,-219.0397 1784.7711,-234.7705 1987,-210 1996.8701,-208.791 2007.293,-207.283 2017.4503,-205.6859"/>
<polygon fill="#191970" stroke="#191970" points="2018.1738,-209.1145 2027.489,-204.0669 2017.0592,-202.2038 2018.1738,-209.1145"/>
</g>
<!-- Node40 -->
<g id="node41" class="node">
<title>Node40</title>
<polygon fill="none" stroke="#bfbfbf" points="1068.5,-185 1068.5,-204 1241.5,-204 1241.5,-185 1068.5,-185"/>
<text text-anchor="middle" x="1155" y="-192" font-family="Helvetica,sans-Serif" font-size="10.00" fill="#000000">Math/GenVector/Translation3D.h</text>
</g>
<!-- Node35&#45;&gt;Node40 -->
<g id="edge54" class="edge">
<title>Node35&#45;&gt;Node40</title>
<path fill="none" stroke="#191970" d="M1406.3314,-251.9717C1353.8681,-239.975 1263.7385,-219.3651 1206.868,-206.3606"/>
<polygon fill="#191970" stroke="#191970" points="1207.5278,-202.9212 1196.9992,-204.1039 1205.9674,-209.7451 1207.5278,-202.9212"/>
</g>
<!-- Node41 -->
<g id="node42" class="node">
<title>Node41</title>
<polygon fill="none" stroke="#bfbfbf" points="1260,-185 1260,-204 1342,-204 1342,-185 1260,-185"/>
<text text-anchor="middle" x="1301" y="-192" font-family="Helvetica,sans-Serif" font-size="10.00" fill="#000000">TGeoMatrix.h</text>
</g>
<!-- Node35&#45;&gt;Node41 -->
<g id="edge56" class="edge">
<title>Node35&#45;&gt;Node41</title>
<path fill="none" stroke="#191970" d="M1426.9385,-251.9005C1401.8319,-240.4574 1359.6923,-221.2509 1331.1402,-208.2374"/>
<polygon fill="#191970" stroke="#191970" points="1332.5735,-205.0443 1322.0224,-204.0817 1329.6703,-211.4139 1332.5735,-205.0443"/>
</g>
<!-- Node42 -->
<g id="node43" class="node">
<title>Node42</title>
<polygon fill="none" stroke="#bfbfbf" points="1360.5,-185 1360.5,-204 1409.5,-204 1409.5,-185 1360.5,-185"/>
<text text-anchor="middle" x="1385" y="-192" font-family="Helvetica,sans-Serif" font-size="10.00" fill="#000000">iosfwd</text>
</g>
<!-- Node35&#45;&gt;Node42 -->
<g id="edge57" class="edge">
<title>Node35&#45;&gt;Node42</title>
<path fill="none" stroke="#191970" d="M1438.9736,-251.9005C1429.0558,-241.353 1412.9359,-224.2096 1400.8909,-211.3998"/>
<polygon fill="#191970" stroke="#191970" points="1403.4097,-208.9693 1394.0096,-204.0817 1398.3101,-213.7645 1403.4097,-208.9693"/>
</g>
<!-- Node43 -->
<g id="node44" class="node">
<title>Node43</title>
<g id="a_node44"><a xlink:href="../../d2/dd0/Cartesian2D_8h.html" target="_top" xlink:title="MathUtils/Cartesian2D.h">
<polygon fill="none" stroke="#000000" points="2258.5,-185 2258.5,-204 2393.5,-204 2393.5,-185 2258.5,-185"/>
<text text-anchor="middle" x="2326" y="-192" font-family="Helvetica,sans-Serif" font-size="10.00" fill="#000000">MathUtils/Cartesian2D.h</text>
</a>
</g>
</g>
<!-- Node35&#45;&gt;Node43 -->
<g id="edge58" class="edge">
<title>Node35&#45;&gt;Node43</title>
<path fill="none" stroke="#191970" d="M1492.5174,-251.9652C1504.6262,-249.6785 1517.7736,-247.4744 1530,-246 1828.7061,-209.9785 1906.3701,-237.2904 2206,-210 2219.9721,-208.7274 2234.8217,-207.0638 2249.1398,-205.2999"/>
<polygon fill="#191970" stroke="#191970" points="2249.967,-208.7235 2259.4516,-204.0019 2249.0927,-201.7783 2249.967,-208.7235"/>
</g>
<!-- Node44 -->
<g id="node45" class="node">
<title>Node44</title>
<polygon fill="none" stroke="#bfbfbf" points="2165,-112.5 2165,-142.5 2329,-142.5 2329,-112.5 2165,-112.5"/>
<text text-anchor="start" x="2173" y="-130.5" font-family="Helvetica,sans-Serif" font-size="10.00" fill="#000000">Math/GenVector/Displacement</text>
<text text-anchor="middle" x="2247" y="-119.5" font-family="Helvetica,sans-Serif" font-size="10.00" fill="#000000">Vector2D.h</text>
</g>
<!-- Node43&#45;&gt;Node44 -->
<g id="edge59" class="edge">
<title>Node43&#45;&gt;Node44</title>
<path fill="none" stroke="#191970" d="M2314.6812,-184.9005C2303.7678,-175.6448 2286.8657,-161.3101 2272.6828,-149.2816"/>
<polygon fill="#191970" stroke="#191970" points="2274.6026,-146.3206 2264.7122,-142.5218 2270.0749,-151.6592 2274.6026,-146.3206"/>
</g>
<!-- Node45 -->
<g id="node46" class="node">
<title>Node45</title>
<polygon fill="none" stroke="#bfbfbf" points="2347.5,-118 2347.5,-137 2536.5,-137 2536.5,-118 2347.5,-118"/>
<text text-anchor="middle" x="2442" y="-125" font-family="Helvetica,sans-Serif" font-size="10.00" fill="#000000">Math/GenVector/PositionVector2D.h</text>
</g>
<!-- Node43&#45;&gt;Node45 -->
<g id="edge60" class="edge">
<title>Node43&#45;&gt;Node45</title>
<path fill="none" stroke="#191970" d="M2342.62,-184.9005C2362.0012,-173.7062 2394.2455,-155.0823 2416.7315,-142.0947"/>
<polygon fill="#191970" stroke="#191970" points="2418.502,-145.114 2425.4109,-137.0817 2415.0009,-139.0525 2418.502,-145.114"/>
</g>
</g>
</svg>
