<?xml version="1.0" encoding="UTF-8" standalone="no"?>
<!DOCTYPE svg PUBLIC "-//W3C//DTD SVG 1.1//EN"
 "http://www.w3.org/Graphics/SVG/1.1/DTD/svg11.dtd">
<!-- Generated by graphviz version 2.40.1 (20161225.0304)
 -->
<!-- Title: /home/travis/build/AliceO2Group/AliceO2/Utilities/rANS/include/rANS/Decoder.h Pages: 1 -->
<!--zoomable 285 -->
<svg id="main" version="1.1" xmlns="http://www.w3.org/2000/svg" xmlns:xlink="http://www.w3.org/1999/xlink" xml:space="preserve" onload="init(evt)">
<style type="text/css"><![CDATA[
.edge:hover path { stroke: red; }
.edge:hover polygon { stroke: red; fill: red; }
]]></style>
<script type="text/javascript"><![CDATA[
var edges = document.getElementsByTagName('g');
if (edges && edges.length) {
  for (var i=0;i<edges.length;i++) {
    if (edges[i].id.substr(0,4)=='edge') {
      edges[i].setAttribute('class','edge');
    }
  }
}
]]></script>
        <defs>
                <circle id="rim" cx="0" cy="0" r="7"/>
                <circle id="rim2" cx="0" cy="0" r="3.5"/>
                <g id="zoomPlus">
                        <use xlink:href="#rim" fill="#404040">
                                <set attributeName="fill" to="#808080" begin="zoomplus.mouseover" end="zoomplus.mouseout"/>
                        </use>
                        <path d="M-4,0h8M0,-4v8" fill="none" stroke="white" stroke-width="1.5" pointer-events="none"/>
                </g>
                <g id="zoomMin">
                        <use xlink:href="#rim" fill="#404040">
                                <set attributeName="fill" to="#808080" begin="zoomminus.mouseover" end="zoomminus.mouseout"/>
                        </use>
                        <path d="M-4,0h8" fill="none" stroke="white" stroke-width="1.5" pointer-events="none"/>
                </g>
                <g id="dirArrow">
                        <path fill="none" stroke="white" stroke-width="1.5" d="M0,-3.0v7 M-2.5,-0.5L0,-3.0L2.5,-0.5"/>
                </g>
               <g id="resetDef">
                       <use xlink:href="#rim2" fill="#404040">
                               <set attributeName="fill" to="#808080" begin="reset.mouseover" end="reset.mouseout"/>
                       </use>
               </g>
        </defs>

<script type="text/javascript">
var viewWidth = 960;
var viewHeight = 285;
var sectionId = 'dynsection-0';
</script>
<script xlink:href="../../svgpan.js"/>
<svg id="graph" class="graph">
<g id="viewport">
<title>/home/travis/build/AliceO2Group/AliceO2/Utilities/rANS/include/rANS/Decoder.h</title>
<!-- Node0 -->
<g id="node1" class="node">
<title>Node0</title>
<polygon fill="#bfbfbf" stroke="#000000" points="279.2609,-224.5 279.2609,-276.5 406.2609,-276.5 406.2609,-224.5 279.2609,-224.5"/>
<text text-anchor="start" x="287.2609" y="-264.5" font-family="Helvetica,sans-Serif" font-size="10.00" fill="#000000">/home/travis/build</text>
<text text-anchor="start" x="287.2609" y="-253.5" font-family="Helvetica,sans-Serif" font-size="10.00" fill="#000000">/AliceO2Group/AliceO2</text>
<text text-anchor="start" x="287.2609" y="-242.5" font-family="Helvetica,sans-Serif" font-size="10.00" fill="#000000">/Utilities/rANS/include</text>
<text text-anchor="middle" x="342.7609" y="-231.5" font-family="Helvetica,sans-Serif" font-size="10.00" fill="#000000">/rANS/Decoder.h</text>
</g>
<!-- Node1 -->
<g id="node2" class="node">
<title>Node1</title>
<polygon fill="none" stroke="#bfbfbf" points="186.2609,-.5 186.2609,-19.5 239.2609,-19.5 239.2609,-.5 186.2609,-.5"/>
<text text-anchor="middle" x="212.7609" y="-7.5" font-family="Helvetica,sans-Serif" font-size="10.00" fill="#000000">cstddef</text>
</g>
<!-- Node0&#45;&gt;Node1 -->
<g id="edge1" class="edge">
<title>Node0&#45;&gt;Node1</title>
<path fill="none" stroke="#191970" d="M279.1309,-240.6881C195.9819,-223.8876 54.9457,-180.6546 3.7609,-76 -.1445,-68.015 -1.8082,-62.9281 3.7609,-56 24.9285,-29.6668 121.5093,-17.5325 175.6648,-12.7132"/>
<polygon fill="#191970" stroke="#191970" points="176.2271,-16.1781 185.8953,-11.8448 175.635,-9.2032 176.2271,-16.1781"/>
</g>
<!-- Node2 -->
<g id="node3" class="node">
<title>Node2</title>
<polygon fill="none" stroke="#bfbfbf" points="489.2609,-112.5 489.2609,-131.5 558.2609,-131.5 558.2609,-112.5 489.2609,-112.5"/>
<text text-anchor="middle" x="523.7609" y="-119.5" font-family="Helvetica,sans-Serif" font-size="10.00" fill="#000000">type_traits</text>
</g>
<!-- Node0&#45;&gt;Node2 -->
<g id="edge2" class="edge">
<title>Node0&#45;&gt;Node2</title>
<path fill="none" stroke="#191970" d="M406.6164,-239.9827C440.092,-231.3427 479.3122,-215.7902 504.7609,-188 516.1982,-175.5103 520.7929,-156.5637 522.6171,-142.1694"/>
<polygon fill="#191970" stroke="#191970" points="526.139,-142.0889 523.564,-131.8118 519.1681,-141.4516 526.139,-142.0889"/>
</g>
<!-- Node3 -->
<g id="node4" class="node">
<title>Node3</title>
<polygon fill="none" stroke="#bfbfbf" points="12.7609,-56.5 12.7609,-75.5 72.7609,-75.5 72.7609,-56.5 12.7609,-56.5"/>
<text text-anchor="middle" x="42.7609" y="-63.5" font-family="Helvetica,sans-Serif" font-size="10.00" fill="#000000">iostream</text>
</g>
<!-- Node0&#45;&gt;Node3 -->
<g id="edge3" class="edge">
<title>Node0&#45;&gt;Node3</title>
<path fill="none" stroke="#191970" d="M279.0942,-232.551C247.3429,-222.096 209.1276,-207.1653 177.7609,-188 128.6263,-157.9785 81.0214,-108.8598 57.6768,-83.058"/>
<polygon fill="#191970" stroke="#191970" points="60.2488,-80.6836 50.9786,-75.5539 55.0266,-85.3449 60.2488,-80.6836"/>
</g>
<!-- Node4 -->
<g id="node5" class="node">
<title>Node4</title>
<polygon fill="none" stroke="#bfbfbf" points="90.7609,-56.5 90.7609,-75.5 198.7609,-75.5 198.7609,-56.5 90.7609,-56.5"/>
<text text-anchor="middle" x="144.7609" y="-63.5" font-family="Helvetica,sans-Serif" font-size="10.00" fill="#000000">fairlogger/Logger.h</text>
</g>
<!-- Node0&#45;&gt;Node4 -->
<g id="edge4" class="edge">
<title>Node0&#45;&gt;Node4</title>
<path fill="none" stroke="#191970" d="M278.8535,-229.8482C234.5275,-211.7498 178.931,-180.6062 152.7609,-132 145.1517,-117.8674 143.4487,-99.6135 143.4805,-85.8861"/>
<polygon fill="#191970" stroke="#191970" points="146.9879,-85.7208 143.8238,-75.6095 139.9918,-85.487 146.9879,-85.7208"/>
</g>
<!-- Node5 -->
<g id="node6" class="node">
<title>Node5</title>
<g id="a_node6"><a xlink:href="../../d8/dd9/SymbolTable_8h.html" target="_top" xlink:title="Container for information needed to encode/decode a symbol of the alphabet. ">
<polygon fill="none" stroke="#000000" points="227.7609,-168.5 227.7609,-187.5 315.7609,-187.5 315.7609,-168.5 227.7609,-168.5"/>
<text text-anchor="middle" x="271.7609" y="-175.5" font-family="Helvetica,sans-Serif" font-size="10.00" fill="#000000">SymbolTable.h</text>
</a>
</g>
</g>
<!-- Node0&#45;&gt;Node5 -->
<g id="edge5" class="edge">
<title>Node0&#45;&gt;Node5</title>
<path fill="none" stroke="#191970" d="M317.1282,-224.3258C307.5183,-214.5128 296.8604,-203.6298 288.2907,-194.879"/>
<polygon fill="#191970" stroke="#191970" points="290.595,-192.2297 281.0976,-187.534 285.5938,-197.1275 290.595,-192.2297"/>
</g>
<!-- Node16 -->
<g id="node17" class="node">
<title>Node16</title>
<g id="a_node17"><a xlink:href="../../d7/d99/DecoderSymbol_8h.html" target="_top" xlink:title="Structure containing all relevant information for decoding a rANS encoded symbol. ...">
<polygon fill="none" stroke="#000000" points="849.2609,-112.5 849.2609,-131.5 952.2609,-131.5 952.2609,-112.5 849.2609,-112.5"/>
<text text-anchor="middle" x="900.7609" y="-119.5" font-family="Helvetica,sans-Serif" font-size="10.00" fill="#000000">DecoderSymbol.h</text>
</a>
</g>
</g>
<!-- Node0&#45;&gt;Node16 -->
<g id="edge22" class="edge">
<title>Node0&#45;&gt;Node16</title>
<path fill="none" stroke="#191970" d="M406.5423,-240.7564C474.6328,-229.8698 585.4749,-210.7532 679.7609,-188 744.7628,-172.3137 818.9997,-149.0083 862.7643,-134.6986"/>
<polygon fill="#191970" stroke="#191970" points="864.0105,-137.9734 872.418,-131.5263 861.8251,-131.3232 864.0105,-137.9734"/>
</g>
<!-- Node17 -->
<g id="node18" class="node">
<title>Node17</title>
<g id="a_node18"><a xlink:href="../../dc/d3b/ReverseSymbolLookupTable_8h.html" target="_top" xlink:title="Maps CDF back to source symbol &#45; needed for the decoder. ">
<polygon fill="none" stroke="#000000" points="333.7609,-168.5 333.7609,-187.5 495.7609,-187.5 495.7609,-168.5 333.7609,-168.5"/>
<text text-anchor="middle" x="414.7609" y="-175.5" font-family="Helvetica,sans-Serif" font-size="10.00" fill="#000000">ReverseSymbolLookupTable.h</text>
</a>
</g>
</g>
<!-- Node0&#45;&gt;Node17 -->
<g id="edge24" class="edge">
<title>Node0&#45;&gt;Node17</title>
<path fill="none" stroke="#191970" d="M368.7545,-224.3258C378.4998,-214.5128 389.3079,-203.6298 397.9982,-194.879"/>
<polygon fill="#191970" stroke="#191970" points="400.7295,-197.0958 405.2926,-187.534 395.7626,-192.1632 400.7295,-197.0958"/>
</g>
<!-- Node18 -->
<g id="node19" class="node">
<title>Node18</title>
<g id="a_node19"><a xlink:href="../../d5/d7a/Coder_8h.html" target="_top" xlink:title="Stateless class for coding and decoding symbols using rANS. ">
<polygon fill="none" stroke="#000000" points="617.2609,-168.5 617.2609,-187.5 670.2609,-187.5 670.2609,-168.5 617.2609,-168.5"/>
<text text-anchor="middle" x="643.7609" y="-175.5" font-family="Helvetica,sans-Serif" font-size="10.00" fill="#000000">Coder.h</text>
</a>
</g>
</g>
<!-- Node0&#45;&gt;Node18 -->
<g id="edge30" class="edge">
<title>Node0&#45;&gt;Node18</title>
<path fill="none" stroke="#191970" d="M406.5952,-235.1246C467.4949,-220.4561 557.1146,-198.87 606.9317,-186.8708"/>
<polygon fill="#191970" stroke="#191970" points="608.031,-190.2062 616.9334,-184.4618 606.3918,-183.4008 608.031,-190.2062"/>
</g>
<!-- Node5&#45;&gt;Node4 -->
<g id="edge8" class="edge">
<title>Node5&#45;&gt;Node4</title>
<path fill="none" stroke="#191970" d="M232.0632,-168.4319C210.7913,-161.4847 185.5769,-150.0591 168.7609,-132 156.843,-119.2012 150.7458,-100.0248 147.6881,-85.6356"/>
<polygon fill="#191970" stroke="#191970" points="151.1238,-84.9656 145.8963,-75.7502 144.236,-86.2142 151.1238,-84.9656"/>
</g>
<!-- Node6 -->
<g id="node7" class="node">
<title>Node6</title>
<polygon fill="none" stroke="#bfbfbf" points="483.2609,-56.5 483.2609,-75.5 530.2609,-75.5 530.2609,-56.5 483.2609,-56.5"/>
<text text-anchor="middle" x="506.7609" y="-63.5" font-family="Helvetica,sans-Serif" font-size="10.00" fill="#000000">vector</text>
</g>
<!-- Node5&#45;&gt;Node6 -->
<g id="edge6" class="edge">
<title>Node5&#45;&gt;Node6</title>
<path fill="none" stroke="#191970" d="M283.9343,-168.3419C302.0061,-154.3726 337.3955,-128.4096 370.7609,-112 404.2267,-95.541 445.0315,-82.6077 473.1642,-74.7012"/>
<polygon fill="#191970" stroke="#191970" points="474.2047,-78.0451 482.9185,-72.0186 472.3484,-71.2957 474.2047,-78.0451"/>
</g>
<!-- Node7 -->
<g id="node8" class="node">
<title>Node7</title>
<polygon fill="none" stroke="#bfbfbf" points="755.7609,-56.5 755.7609,-75.5 805.7609,-75.5 805.7609,-56.5 755.7609,-56.5"/>
<text text-anchor="middle" x="780.7609" y="-63.5" font-family="Helvetica,sans-Serif" font-size="10.00" fill="#000000">cstdint</text>
</g>
<!-- Node5&#45;&gt;Node7 -->
<g id="edge7" class="edge">
<title>Node5&#45;&gt;Node7</title>
<path fill="none" stroke="#191970" d="M297.4709,-168.4681C336.5581,-154.3008 413.5016,-127.6784 480.7609,-112 530.5672,-100.39 677.3297,-79.9386 745.375,-70.7293"/>
<polygon fill="#191970" stroke="#191970" points="746.1508,-74.1564 755.5931,-69.3509 745.215,-67.2193 746.1508,-74.1564"/>
</g>
<!-- Node8 -->
<g id="node9" class="node">
<title>Node8</title>
<g id="a_node9"><a xlink:href="../../d0/d51/SymbolStatistics_8h.html" target="_top" xlink:title="Structure to depict the distribution of symbols in the source message. ">
<polygon fill="none" stroke="#000000" points="211.2609,-112.5 211.2609,-131.5 318.2609,-131.5 318.2609,-112.5 211.2609,-112.5"/>
<text text-anchor="middle" x="264.7609" y="-119.5" font-family="Helvetica,sans-Serif" font-size="10.00" fill="#000000">SymbolStatistics.h</text>
</a>
</g>
</g>
<!-- Node5&#45;&gt;Node8 -->
<g id="edge9" class="edge">
<title>Node5&#45;&gt;Node8</title>
<path fill="none" stroke="#191970" d="M270.5416,-168.2455C269.6281,-160.9382 268.3477,-150.6944 267.2239,-141.7046"/>
<polygon fill="#191970" stroke="#191970" points="270.6796,-141.1313 265.9662,-131.6427 263.7337,-141.9996 270.6796,-141.1313"/>
</g>
<!-- Node8&#45;&gt;Node3 -->
<g id="edge12" class="edge">
<title>Node8&#45;&gt;Node3</title>
<path fill="none" stroke="#191970" d="M226.5434,-112.4494C191.6098,-103.707 138.2447,-90.3208 82.9652,-76.2982"/>
<polygon fill="#191970" stroke="#191970" points="83.5447,-72.8343 72.9909,-73.7663 81.8224,-79.6192 83.5447,-72.8343"/>
</g>
<!-- Node8&#45;&gt;Node4 -->
<g id="edge17" class="edge">
<title>Node8&#45;&gt;Node4</title>
<path fill="none" stroke="#191970" d="M244.1321,-112.3733C224.869,-103.3838 195.9122,-89.8706 174.2189,-79.7471"/>
<polygon fill="#191970" stroke="#191970" points="175.6624,-76.5584 165.1204,-75.5011 172.7021,-82.9017 175.6624,-76.5584"/>
</g>
<!-- Node8&#45;&gt;Node6 -->
<g id="edge14" class="edge">
<title>Node8&#45;&gt;Node6</title>
<path fill="none" stroke="#191970" d="M309.0385,-112.4913C350.432,-103.4895 413.9173,-89.3951 468.7609,-76 470.2105,-75.6459 471.6899,-75.2794 473.1833,-74.905"/>
<polygon fill="#191970" stroke="#191970" points="474.258,-78.2428 483.0772,-72.3715 472.5215,-71.4616 474.258,-78.2428"/>
</g>
<!-- Node9 -->
<g id="node10" class="node">
<title>Node9</title>
<polygon fill="none" stroke="#bfbfbf" points="288.7609,-56.5 288.7609,-75.5 352.7609,-75.5 352.7609,-56.5 288.7609,-56.5"/>
<text text-anchor="middle" x="320.7609" y="-63.5" font-family="Helvetica,sans-Serif" font-size="10.00" fill="#000000">algorithm</text>
</g>
<!-- Node8&#45;&gt;Node9 -->
<g id="edge10" class="edge">
<title>Node8&#45;&gt;Node9</title>
<path fill="none" stroke="#191970" d="M274.5153,-112.2455C282.6256,-104.1352 294.3533,-92.4075 303.9689,-82.7919"/>
<polygon fill="#191970" stroke="#191970" points="306.522,-85.1887 311.1182,-75.6427 301.5722,-80.2389 306.522,-85.1887"/>
</g>
<!-- Node10 -->
<g id="node11" class="node">
<title>Node10</title>
<polygon fill="none" stroke="#bfbfbf" points="636.7609,-56.5 636.7609,-75.5 688.7609,-75.5 688.7609,-56.5 636.7609,-56.5"/>
<text text-anchor="middle" x="662.7609" y="-63.5" font-family="Helvetica,sans-Serif" font-size="10.00" fill="#000000">cassert</text>
</g>
<!-- Node8&#45;&gt;Node10 -->
<g id="edge11" class="edge">
<title>Node8&#45;&gt;Node10</title>
<path fill="none" stroke="#191970" d="M318.4461,-116.1107C387.1207,-108.3052 509.6404,-93.4642 613.7609,-76 617.9512,-75.2971 622.3301,-74.4976 626.6723,-73.664"/>
<polygon fill="#191970" stroke="#191970" points="627.5047,-77.0671 636.6316,-71.6865 626.1414,-70.2011 627.5047,-77.0671"/>
</g>
<!-- Node11 -->
<g id="node12" class="node">
<title>Node11</title>
<polygon fill="none" stroke="#bfbfbf" points="370.7609,-56.5 370.7609,-75.5 426.7609,-75.5 426.7609,-56.5 370.7609,-56.5"/>
<text text-anchor="middle" x="398.7609" y="-63.5" font-family="Helvetica,sans-Serif" font-size="10.00" fill="#000000">numeric</text>
</g>
<!-- Node8&#45;&gt;Node11 -->
<g id="edge13" class="edge">
<title>Node8&#45;&gt;Node11</title>
<path fill="none" stroke="#191970" d="M287.7963,-112.3733C309.4997,-103.3032 342.2227,-89.6279 366.5158,-79.4755"/>
<polygon fill="#191970" stroke="#191970" points="368.1489,-82.5865 376.026,-75.5011 365.4497,-76.1278 368.1489,-82.5865"/>
</g>
<!-- Node12 -->
<g id="node13" class="node">
<title>Node12</title>
<polygon fill="none" stroke="#bfbfbf" points="458.2609,-.5 458.2609,-19.5 505.2609,-19.5 505.2609,-.5 458.2609,-.5"/>
<text text-anchor="middle" x="481.7609" y="-7.5" font-family="Helvetica,sans-Serif" font-size="10.00" fill="#000000">cmath</text>
</g>
<!-- Node8&#45;&gt;Node12 -->
<g id="edge15" class="edge">
<title>Node8&#45;&gt;Node12</title>
<path fill="none" stroke="#191970" d="M314.9241,-112.4791C358.0681,-103.5807 416.3285,-89.6525 435.7609,-76 452.6604,-64.127 465.3849,-43.9487 473.1189,-29.0216"/>
<polygon fill="#191970" stroke="#191970" points="476.4305,-30.2156 477.6659,-19.693 470.1382,-27.1485 476.4305,-30.2156"/>
</g>
<!-- Node13 -->
<g id="node14" class="node">
<title>Node13</title>
<polygon fill="none" stroke="#bfbfbf" points="217.2609,-56.5 217.2609,-75.5 270.2609,-75.5 270.2609,-56.5 217.2609,-56.5"/>
<text text-anchor="middle" x="243.7609" y="-63.5" font-family="Helvetica,sans-Serif" font-size="10.00" fill="#000000">iterator</text>
</g>
<!-- Node8&#45;&gt;Node13 -->
<g id="edge16" class="edge">
<title>Node8&#45;&gt;Node13</title>
<path fill="none" stroke="#191970" d="M261.1029,-112.2455C258.3025,-104.7776 254.3519,-94.2427 250.9285,-85.1137"/>
<polygon fill="#191970" stroke="#191970" points="254.1653,-83.777 247.3769,-75.6427 247.611,-86.2349 254.1653,-83.777"/>
</g>
<!-- Node14 -->
<g id="node15" class="node">
<title>Node14</title>
<g id="a_node15"><a xlink:href="../../d4/da1/helper_8h.html" target="_top" xlink:title="various helper functions ">
<polygon fill="none" stroke="#000000" points="548.7609,-56.5 548.7609,-75.5 604.7609,-75.5 604.7609,-56.5 548.7609,-56.5"/>
<text text-anchor="middle" x="576.7609" y="-63.5" font-family="Helvetica,sans-Serif" font-size="10.00" fill="#000000">helper.h</text>
</a>
</g>
</g>
<!-- Node8&#45;&gt;Node14 -->
<g id="edge18" class="edge">
<title>Node8&#45;&gt;Node14</title>
<path fill="none" stroke="#191970" d="M318.2906,-114.6367C371.753,-106.9259 456.4449,-93.7478 538.5514,-76.1047"/>
<polygon fill="#191970" stroke="#191970" points="539.5211,-79.4757 548.5493,-73.9311 538.0339,-72.6355 539.5211,-79.4757"/>
</g>
<!-- Node14&#45;&gt;Node1 -->
<g id="edge19" class="edge">
<title>Node14&#45;&gt;Node1</title>
<path fill="none" stroke="#191970" d="M548.5655,-57.9924C545.6046,-57.2676 542.6292,-56.587 539.7609,-56 435.6464,-34.6933 310.857,-20.1242 249.924,-13.7068"/>
<polygon fill="#191970" stroke="#191970" points="249.9657,-10.1924 239.6573,-12.6394 249.2417,-17.1548 249.9657,-10.1924"/>
</g>
<!-- Node14&#45;&gt;Node12 -->
<g id="edge20" class="edge">
<title>Node14&#45;&gt;Node12</title>
<path fill="none" stroke="#191970" d="M560.2131,-56.2455C545.501,-47.5731 523.7721,-34.7645 506.9104,-24.825"/>
<polygon fill="#191970" stroke="#191970" points="508.511,-21.7057 498.119,-19.6427 504.9563,-27.736 508.511,-21.7057"/>
</g>
<!-- Node15 -->
<g id="node16" class="node">
<title>Node15</title>
<polygon fill="none" stroke="#bfbfbf" points="551.7609,-.5 551.7609,-19.5 601.7609,-19.5 601.7609,-.5 551.7609,-.5"/>
<text text-anchor="middle" x="576.7609" y="-7.5" font-family="Helvetica,sans-Serif" font-size="10.00" fill="#000000">chrono</text>
</g>
<!-- Node14&#45;&gt;Node15 -->
<g id="edge21" class="edge">
<title>Node14&#45;&gt;Node15</title>
<path fill="none" stroke="#191970" d="M576.7609,-56.2455C576.7609,-48.9382 576.7609,-38.6944 576.7609,-29.7046"/>
<polygon fill="#191970" stroke="#191970" points="580.261,-29.6426 576.7609,-19.6427 573.261,-29.6427 580.261,-29.6426"/>
</g>
<!-- Node16&#45;&gt;Node7 -->
<g id="edge23" class="edge">
<title>Node16&#45;&gt;Node7</title>
<path fill="none" stroke="#191970" d="M880.1321,-112.3733C860.869,-103.3838 831.9122,-89.8706 810.2189,-79.7471"/>
<polygon fill="#191970" stroke="#191970" points="811.6624,-76.5584 801.1204,-75.5011 808.7021,-82.9017 811.6624,-76.5584"/>
</g>
<!-- Node17&#45;&gt;Node2 -->
<g id="edge26" class="edge">
<title>Node17&#45;&gt;Node2</title>
<path fill="none" stroke="#191970" d="M433.7472,-168.2455C450.9401,-159.4125 476.4846,-146.2887 495.9741,-136.2758"/>
<polygon fill="#191970" stroke="#191970" points="497.6967,-139.3257 504.9921,-131.6427 494.4979,-133.0993 497.6967,-139.3257"/>
</g>
<!-- Node17&#45;&gt;Node4 -->
<g id="edge27" class="edge">
<title>Node17&#45;&gt;Node4</title>
<path fill="none" stroke="#191970" d="M349.9164,-168.4939C297.0835,-159.9199 227.3506,-146.4653 202.7609,-132 182.9446,-120.3428 166.3578,-99.5348 156.0665,-84.3917"/>
<polygon fill="#191970" stroke="#191970" points="158.8842,-82.3044 150.4997,-75.8275 153.0151,-86.1194 158.8842,-82.3044"/>
</g>
<!-- Node17&#45;&gt;Node6 -->
<g id="edge25" class="edge">
<title>Node17&#45;&gt;Node6</title>
<path fill="none" stroke="#191970" d="M417.8733,-168.2448C422.5611,-154.613 432.4363,-129.5667 446.7609,-112 456.5437,-100.0029 470.0471,-89.2968 481.7667,-81.2384"/>
<polygon fill="#191970" stroke="#191970" points="483.8706,-84.0435 490.2898,-75.6147 480.0154,-78.2008 483.8706,-84.0435"/>
</g>
<!-- Node17&#45;&gt;Node8 -->
<g id="edge28" class="edge">
<title>Node17&#45;&gt;Node8</title>
<path fill="none" stroke="#191970" d="M388.9749,-168.3733C364.3562,-159.1822 327.0708,-145.2624 299.7734,-135.0713"/>
<polygon fill="#191970" stroke="#191970" points="300.8029,-131.7198 290.2103,-131.5011 298.3546,-138.2777 300.8029,-131.7198"/>
</g>
<!-- Node17&#45;&gt;Node14 -->
<g id="edge29" class="edge">
<title>Node17&#45;&gt;Node14</title>
<path fill="none" stroke="#191970" d="M422.4636,-168.4598C433.9973,-154.6373 456.956,-128.8555 480.7609,-112 499.5133,-98.722 522.694,-87.4914 541.5788,-79.4514"/>
<polygon fill="#191970" stroke="#191970" points="543.1161,-82.6031 551.0165,-75.5438 540.4382,-76.1355 543.1161,-82.6031"/>
</g>
<!-- Node18&#45;&gt;Node2 -->
<g id="edge34" class="edge">
<title>Node18&#45;&gt;Node2</title>
<path fill="none" stroke="#191970" d="M623.1321,-168.3733C603.869,-159.3838 574.9122,-145.8706 553.2189,-135.7471"/>
<polygon fill="#191970" stroke="#191970" points="554.6624,-132.5584 544.1204,-131.5011 551.7021,-138.9017 554.6624,-132.5584"/>
</g>
<!-- Node18&#45;&gt;Node6 -->
<g id="edge31" class="edge">
<title>Node18&#45;&gt;Node6</title>
<path fill="none" stroke="#191970" d="M633.137,-168.3625C618.6226,-155.2916 591.6646,-131.354 567.7609,-112 554.946,-101.6242 540.1928,-90.4784 528.4056,-81.757"/>
<polygon fill="#191970" stroke="#191970" points="530.1809,-78.718 520.0512,-75.6132 526.0337,-84.3573 530.1809,-78.718"/>
</g>
<!-- Node18&#45;&gt;Node7 -->
<g id="edge32" class="edge">
<title>Node18&#45;&gt;Node7</title>
<path fill="none" stroke="#191970" d="M670.4813,-174.1197C711.2641,-167.5893 785.9854,-153.0233 801.7609,-132 812.2988,-117.9566 803.9837,-98.4616 794.8939,-84.3027"/>
<polygon fill="#191970" stroke="#191970" points="797.6005,-82.0658 788.9991,-75.8797 791.8654,-86.0794 797.6005,-82.0658"/>
</g>
<!-- Node18&#45;&gt;Node10 -->
<g id="edge33" class="edge">
<title>Node18&#45;&gt;Node10</title>
<path fill="none" stroke="#191970" d="M645.3808,-168.4509C648.4797,-150.184 655.3042,-109.9553 659.4193,-85.6976"/>
<polygon fill="#191970" stroke="#191970" points="662.9231,-85.9694 661.145,-75.5249 656.0217,-84.7986 662.9231,-85.9694"/>
</g>
<!-- Node18&#45;&gt;Node14 -->
<g id="edge40" class="edge">
<title>Node18&#45;&gt;Node14</title>
<path fill="none" stroke="#191970" d="M638.0485,-168.4509C626.9231,-149.8533 602.1801,-108.4919 587.7658,-84.3964"/>
<polygon fill="#191970" stroke="#191970" points="590.5961,-82.3098 582.4588,-75.5249 584.5889,-85.9034 590.5961,-82.3098"/>
</g>
<!-- Node18&#45;&gt;Node16 -->
<g id="edge35" class="edge">
<title>Node18&#45;&gt;Node16</title>
<path fill="none" stroke="#191970" d="M670.2964,-172.2179C711.7426,-163.1869 792.6862,-145.5493 846.7537,-133.7681"/>
<polygon fill="#191970" stroke="#191970" points="847.8292,-137.116 856.8548,-131.5671 846.3388,-130.2764 847.8292,-137.116"/>
</g>
<!-- Node19 -->
<g id="node20" class="node">
<title>Node19</title>
<g id="a_node20"><a xlink:href="../../d2/d53/EncoderSymbol_8h.html" target="_top" xlink:title="Structure containing all relevant information to encode a symbol. ">
<polygon fill="none" stroke="#000000" points="691.2609,-112.5 691.2609,-131.5 792.2609,-131.5 792.2609,-112.5 691.2609,-112.5"/>
<text text-anchor="middle" x="741.7609" y="-119.5" font-family="Helvetica,sans-Serif" font-size="10.00" fill="#000000">EncoderSymbol.h</text>
</a>
</g>
</g>
<!-- Node18&#45;&gt;Node19 -->
<g id="edge36" class="edge">
<title>Node18&#45;&gt;Node19</title>
<path fill="none" stroke="#191970" d="M660.8312,-168.2455C676.0079,-159.5731 698.423,-146.7645 715.8172,-136.825"/>
<polygon fill="#191970" stroke="#191970" points="717.9402,-139.643 724.8862,-131.6427 714.4672,-133.5653 717.9402,-139.643"/>
</g>
<!-- Node19&#45;&gt;Node7 -->
<g id="edge37" class="edge">
<title>Node19&#45;&gt;Node7</title>
<path fill="none" stroke="#191970" d="M748.5541,-112.2455C753.9787,-104.4564 761.7269,-93.3308 768.2642,-83.9439"/>
<polygon fill="#191970" stroke="#191970" points="771.2026,-85.849 774.0454,-75.6427 765.4583,-81.8485 771.2026,-85.849"/>
</g>
<!-- Node19&#45;&gt;Node10 -->
<g id="edge38" class="edge">
<title>Node19&#45;&gt;Node10</title>
<path fill="none" stroke="#191970" d="M728.0001,-112.2455C716.1056,-103.814 698.6959,-91.4729 684.8523,-81.6598"/>
<polygon fill="#191970" stroke="#191970" points="686.5462,-78.5704 676.3639,-75.6427 682.4981,-84.2811 686.5462,-78.5704"/>
</g>
<!-- Node19&#45;&gt;Node14 -->
<g id="edge39" class="edge">
<title>Node19&#45;&gt;Node14</title>
<path fill="none" stroke="#191970" d="M713.3963,-112.3733C686.0781,-103.1016 644.5812,-89.0178 614.487,-78.804"/>
<polygon fill="#191970" stroke="#191970" points="615.3496,-75.4008 604.7552,-75.5011 613.0998,-82.0294 615.3496,-75.4008"/>
</g>
</g>
</svg>
        <g id="navigator" transform="translate(0 0)" fill="#404254">
                <rect fill="#f2f5e9" fill-opacity="0.5" stroke="#606060" stroke-width=".5" x="0" y="0" width="60" height="60"/>
                <use id="zoomplus" xlink:href="#zoomPlus" x="17" y="9" onmousedown="handleZoom(evt,'in')"/>
                <use id="zoomminus" xlink:href="#zoomMin" x="42" y="9" onmousedown="handleZoom(evt,'out')"/>
                <use id="reset" xlink:href="#resetDef" x="30" y="36" onmousedown="handleReset()"/>
                <g id="arrowUp" xlink:href="#dirArrow" transform="translate(30 24)" onmousedown="handlePan(0,-1)">
                  <use xlink:href="#rim" fill="#404040">
                        <set attributeName="fill" to="#808080" begin="arrowUp.mouseover" end="arrowUp.mouseout"/>
                  </use>
                  <path fill="none" stroke="white" stroke-width="1.5" d="M0,-3.0v7 M-2.5,-0.5L0,-3.0L2.5,-0.5"/>
                </g>
                <g id="arrowRight" xlink:href="#dirArrow" transform="rotate(90) translate(36 -43)" onmousedown="handlePan(1,0)">
                  <use xlink:href="#rim" fill="#404040">
                        <set attributeName="fill" to="#808080" begin="arrowRight.mouseover" end="arrowRight.mouseout"/>
                  </use>
                  <path fill="none" stroke="white" stroke-width="1.5" d="M0,-3.0v7 M-2.5,-0.5L0,-3.0L2.5,-0.5"/>
                </g>
                <g id="arrowDown" xlink:href="#dirArrow" transform="rotate(180) translate(-30 -48)" onmousedown="handlePan(0,1)">
                  <use xlink:href="#rim" fill="#404040">
                        <set attributeName="fill" to="#808080" begin="arrowDown.mouseover" end="arrowDown.mouseout"/>
                  </use>
                  <path fill="none" stroke="white" stroke-width="1.5" d="M0,-3.0v7 M-2.5,-0.5L0,-3.0L2.5,-0.5"/>
                </g>
                <g id="arrowLeft" xlink:href="#dirArrow" transform="rotate(270) translate(-36 17)" onmousedown="handlePan(-1,0)">
                  <use xlink:href="#rim" fill="#404040">
                        <set attributeName="fill" to="#808080" begin="arrowLeft.mouseover" end="arrowLeft.mouseout"/>
                  </use>
                  <path fill="none" stroke="white" stroke-width="1.5" d="M0,-3.0v7 M-2.5,-0.5L0,-3.0L2.5,-0.5"/>
                </g>
        </g>
        <svg viewBox="0 0 15 15" width="100%" height="30px" preserveAspectRatio="xMaxYMin meet">
         <g id="arrow_out" transform="scale(0.3 0.3)">
          <a xlink:href="Utilities_2rANS_2include_2rANS_2Decoder_8h__incl_org.svg" target="_base">
           <rect id="button" ry="5" rx="5" y="6" x="6" height="38" width="38"
                fill="#f2f5e9" fill-opacity="0.5" stroke="#606060" stroke-width="1.0"/>
           <path id="arrow"
             d="M 11.500037,31.436501 C 11.940474,20.09759 22.043105,11.32322 32.158766,21.979434 L 37.068811,17.246167 C 37.068811,17.246167 37.088388,32 37.088388,32 L 22.160133,31.978069 C 22.160133,31.978069 26.997745,27.140456 26.997745,27.140456 C 18.528582,18.264221 13.291696,25.230495 11.500037,31.436501 z"
             style="fill:#404040;"/>
          </a>
         </g>
        </svg>
</svg>
