<?xml version="1.0" encoding="UTF-8" standalone="no"?>
<!DOCTYPE svg PUBLIC "-//W3C//DTD SVG 1.1//EN"
 "http://www.w3.org/Graphics/SVG/1.1/DTD/svg11.dtd">
<!-- Generated by graphviz version 2.40.1 (20161225.0304)
 -->
<!-- Title: /home/travis/build/AliceO2Group/AliceO2/DataFormats/simulation/src/MCTrack.cxx Pages: 1 -->
<!--zoomable 419 -->
<svg id="main" version="1.1" xmlns="http://www.w3.org/2000/svg" xmlns:xlink="http://www.w3.org/1999/xlink" xml:space="preserve" onload="init(evt)">
<style type="text/css"><![CDATA[
.edge:hover path { stroke: red; }
.edge:hover polygon { stroke: red; fill: red; }
]]></style>
<script type="text/javascript"><![CDATA[
var edges = document.getElementsByTagName('g');
if (edges && edges.length) {
  for (var i=0;i<edges.length;i++) {
    if (edges[i].id.substr(0,4)=='edge') {
      edges[i].setAttribute('class','edge');
    }
  }
}
]]></script>
        <defs>
                <circle id="rim" cx="0" cy="0" r="7"/>
                <circle id="rim2" cx="0" cy="0" r="3.5"/>
                <g id="zoomPlus">
                        <use xlink:href="#rim" fill="#404040">
                                <set attributeName="fill" to="#808080" begin="zoomplus.mouseover" end="zoomplus.mouseout"/>
                        </use>
                        <path d="M-4,0h8M0,-4v8" fill="none" stroke="white" stroke-width="1.5" pointer-events="none"/>
                </g>
                <g id="zoomMin">
                        <use xlink:href="#rim" fill="#404040">
                                <set attributeName="fill" to="#808080" begin="zoomminus.mouseover" end="zoomminus.mouseout"/>
                        </use>
                        <path d="M-4,0h8" fill="none" stroke="white" stroke-width="1.5" pointer-events="none"/>
                </g>
                <g id="dirArrow">
                        <path fill="none" stroke="white" stroke-width="1.5" d="M0,-3.0v7 M-2.5,-0.5L0,-3.0L2.5,-0.5"/>
                </g>
               <g id="resetDef">
                       <use xlink:href="#rim2" fill="#404040">
                               <set attributeName="fill" to="#808080" begin="reset.mouseover" end="reset.mouseout"/>
                       </use>
               </g>
        </defs>

<script type="text/javascript">
var viewWidth = 1340;
var viewHeight = 419;
var sectionId = 'dynsection-0';
</script>
<script xlink:href="../../svgpan.js"/>
<svg id="graph" class="graph">
<g id="viewport">
<title>/home/travis/build/AliceO2Group/AliceO2/DataFormats/simulation/src/MCTrack.cxx</title>
<!-- Node0 -->
<g id="node1" class="node">
<title>Node0</title>
<polygon fill="#bfbfbf" stroke="#000000" points="926.5,-358.5 926.5,-410.5 1063.5,-410.5 1063.5,-358.5 926.5,-358.5"/>
<text text-anchor="start" x="934.5" y="-398.5" font-family="Helvetica,sans-Serif" font-size="10.00" fill="#000000">/home/travis/build</text>
<text text-anchor="start" x="934.5" y="-387.5" font-family="Helvetica,sans-Serif" font-size="10.00" fill="#000000">/AliceO2Group/AliceO2</text>
<text text-anchor="start" x="934.5" y="-376.5" font-family="Helvetica,sans-Serif" font-size="10.00" fill="#000000">/DataFormats/simulation</text>
<text text-anchor="middle" x="995" y="-365.5" font-family="Helvetica,sans-Serif" font-size="10.00" fill="#000000">/src/MCTrack.cxx</text>
</g>
<!-- Node1 -->
<g id="node2" class="node">
<title>Node1</title>
<g id="a_node2"><a xlink:href="../../d2/de2/MCTrack_8h.html" target="_top" xlink:title="Definition of the MCTrack class. ">
<polygon fill="none" stroke="#000000" points="872.5,-291.5 872.5,-321.5 999.5,-321.5 999.5,-291.5 872.5,-291.5"/>
<text text-anchor="start" x="880.5" y="-309.5" font-family="Helvetica,sans-Serif" font-size="10.00" fill="#000000">SimulationDataFormat</text>
<text text-anchor="middle" x="936" y="-298.5" font-family="Helvetica,sans-Serif" font-size="10.00" fill="#000000">/MCTrack.h</text>
</a>
</g>
</g>
<!-- Node0&#45;&gt;Node1 -->
<g id="edge1" class="edge">
<title>Node0&#45;&gt;Node1</title>
<path fill="none" stroke="#191970" d="M975.0253,-358.0928C968.0331,-348.8489 960.2412,-338.5476 953.4697,-329.5955"/>
<polygon fill="#191970" stroke="#191970" points="956.1737,-327.3685 947.3496,-321.5046 950.5909,-331.5914 956.1737,-327.3685"/>
</g>
<!-- Node33 -->
<g id="node34" class="node">
<title>Node33</title>
<polygon fill="none" stroke="#bfbfbf" points="1017.5,-297 1017.5,-316 1092.5,-316 1092.5,-297 1017.5,-297"/>
<text text-anchor="middle" x="1055" y="-304" font-family="Helvetica,sans-Serif" font-size="10.00" fill="#000000">FairLogger.h</text>
</g>
<!-- Node0&#45;&gt;Node33 -->
<g id="edge41" class="edge">
<title>Node0&#45;&gt;Node33</title>
<path fill="none" stroke="#191970" d="M1015.3133,-358.0928C1023.9379,-346.8808 1033.759,-334.1133 1041.4736,-324.0843"/>
<polygon fill="#191970" stroke="#191970" points="1044.3048,-326.1441 1047.6278,-316.0839 1038.7565,-321.8761 1044.3048,-326.1441"/>
</g>
<!-- Node2 -->
<g id="node3" class="node">
<title>Node2</title>
<g id="a_node3"><a xlink:href="../../d6/d31/DetID_8h.html" target="_top" xlink:title="DetectorsCommonDataFormats\l/DetID.h">
<polygon fill="none" stroke="#000000" points="471.5,-224.5 471.5,-254.5 642.5,-254.5 642.5,-224.5 471.5,-224.5"/>
<text text-anchor="start" x="479.5" y="-242.5" font-family="Helvetica,sans-Serif" font-size="10.00" fill="#000000">DetectorsCommonDataFormats</text>
<text text-anchor="middle" x="557" y="-231.5" font-family="Helvetica,sans-Serif" font-size="10.00" fill="#000000">/DetID.h</text>
</a>
</g>
</g>
<!-- Node1&#45;&gt;Node2 -->
<g id="edge2" class="edge">
<title>Node1&#45;&gt;Node2</title>
<path fill="none" stroke="#191970" d="M872.1364,-295.2101C811.9152,-284.5642 720.8849,-268.4717 652.1199,-256.3154"/>
<polygon fill="#191970" stroke="#191970" points="652.5988,-252.8459 642.1422,-254.5515 651.3802,-259.739 652.5988,-252.8459"/>
</g>
<!-- Node3 -->
<g id="node4" class="node">
<title>Node3</title>
<polygon fill="none" stroke="#bfbfbf" points="196.5,-168.5 196.5,-187.5 255.5,-187.5 255.5,-168.5 196.5,-168.5"/>
<text text-anchor="middle" x="226" y="-175.5" font-family="Helvetica,sans-Serif" font-size="10.00" fill="#000000">Rtypes.h</text>
</g>
<!-- Node1&#45;&gt;Node3 -->
<g id="edge33" class="edge">
<title>Node1&#45;&gt;Node3</title>
<path fill="none" stroke="#191970" d="M872.4647,-303.7792C780.8829,-298.9165 606.8579,-286.1486 462,-255 387.9646,-239.0803 304.3799,-208.7391 259.2331,-191.2733"/>
<polygon fill="#191970" stroke="#191970" points="260.2583,-187.9164 249.67,-187.5432 257.7145,-194.4379 260.2583,-187.9164"/>
</g>
<!-- Node26 -->
<g id="node27" class="node">
<title>Node26</title>
<polygon fill="none" stroke="#bfbfbf" points="660.5,-230 660.5,-249 759.5,-249 759.5,-230 660.5,-230"/>
<text text-anchor="middle" x="710" y="-237" font-family="Helvetica,sans-Serif" font-size="10.00" fill="#000000">TDatabasePDG.h</text>
</g>
<!-- Node1&#45;&gt;Node26 -->
<g id="edge34" class="edge">
<title>Node1&#45;&gt;Node26</title>
<path fill="none" stroke="#191970" d="M885.2812,-291.4639C845.0213,-279.5284 789.4224,-263.0456 751.7182,-251.8678"/>
<polygon fill="#191970" stroke="#191970" points="752.645,-248.492 742.0626,-249.0053 750.6553,-255.2033 752.645,-248.492"/>
</g>
<!-- Node27 -->
<g id="node28" class="node">
<title>Node27</title>
<polygon fill="none" stroke="#bfbfbf" points="778,-230 778,-249 876,-249 876,-230 778,-230"/>
<text text-anchor="middle" x="827" y="-237" font-family="Helvetica,sans-Serif" font-size="10.00" fill="#000000">TLorentzVector.h</text>
</g>
<!-- Node1&#45;&gt;Node27 -->
<g id="edge35" class="edge">
<title>Node1&#45;&gt;Node27</title>
<path fill="none" stroke="#191970" d="M911.5383,-291.4639C893.579,-280.4247 869.2911,-265.4954 851.3566,-254.4715"/>
<polygon fill="#191970" stroke="#191970" points="852.9764,-251.3588 842.6243,-249.1039 849.3107,-257.3223 852.9764,-251.3588"/>
</g>
<!-- Node28 -->
<g id="node29" class="node">
<title>Node28</title>
<polygon fill="none" stroke="#bfbfbf" points="894,-230 894,-249 978,-249 978,-230 894,-230"/>
<text text-anchor="middle" x="936" y="-237" font-family="Helvetica,sans-Serif" font-size="10.00" fill="#000000">TMCProcess.h</text>
</g>
<!-- Node1&#45;&gt;Node28 -->
<g id="edge36" class="edge">
<title>Node1&#45;&gt;Node28</title>
<path fill="none" stroke="#191970" d="M936,-291.2967C936,-281.7699 936,-269.3954 936,-259.1306"/>
<polygon fill="#191970" stroke="#191970" points="939.5001,-259.0549 936,-249.055 932.5001,-259.055 939.5001,-259.0549"/>
</g>
<!-- Node29 -->
<g id="node30" class="node">
<title>Node29</title>
<polygon fill="none" stroke="#bfbfbf" points="996,-230 996,-249 1052,-249 1052,-230 996,-230"/>
<text text-anchor="middle" x="1024" y="-237" font-family="Helvetica,sans-Serif" font-size="10.00" fill="#000000">TMath.h</text>
</g>
<!-- Node1&#45;&gt;Node29 -->
<g id="edge37" class="edge">
<title>Node1&#45;&gt;Node29</title>
<path fill="none" stroke="#191970" d="M955.9686,-291.2967C970.0787,-280.5537 988.9451,-266.1895 1003.2308,-255.3129"/>
<polygon fill="#191970" stroke="#191970" points="1005.614,-257.8975 1011.4502,-249.055 1001.3736,-252.328 1005.614,-257.8975"/>
</g>
<!-- Node30 -->
<g id="node31" class="node">
<title>Node30</title>
<polygon fill="none" stroke="#bfbfbf" points="1070,-230 1070,-249 1138,-249 1138,-230 1070,-230"/>
<text text-anchor="middle" x="1104" y="-237" font-family="Helvetica,sans-Serif" font-size="10.00" fill="#000000">TParticle.h</text>
</g>
<!-- Node1&#45;&gt;Node30 -->
<g id="edge38" class="edge">
<title>Node1&#45;&gt;Node30</title>
<path fill="none" stroke="#191970" d="M973.7025,-291.4639C1002.7795,-279.8677 1042.62,-263.9789 1070.5666,-252.8335"/>
<polygon fill="#191970" stroke="#191970" points="1071.9265,-256.0594 1079.9185,-249.1039 1069.3334,-249.5574 1071.9265,-256.0594"/>
</g>
<!-- Node31 -->
<g id="node32" class="node">
<title>Node31</title>
<polygon fill="none" stroke="#bfbfbf" points="1156.5,-230 1156.5,-249 1245.5,-249 1245.5,-230 1156.5,-230"/>
<text text-anchor="middle" x="1201" y="-237" font-family="Helvetica,sans-Serif" font-size="10.00" fill="#000000">TParticlePDG.h</text>
</g>
<!-- Node1&#45;&gt;Node31 -->
<g id="edge39" class="edge">
<title>Node1&#45;&gt;Node31</title>
<path fill="none" stroke="#191970" d="M999.8792,-291.6132C1041.8124,-281.6675 1097.799,-268.06 1147,-255 1150.815,-253.9873 1154.7733,-252.9075 1158.7343,-251.807"/>
<polygon fill="#191970" stroke="#191970" points="1159.8285,-255.1351 1168.5055,-249.0556 1157.9311,-248.3971 1159.8285,-255.1351"/>
</g>
<!-- Node32 -->
<g id="node33" class="node">
<title>Node32</title>
<polygon fill="none" stroke="#bfbfbf" points="1264,-230 1264,-249 1332,-249 1332,-230 1264,-230"/>
<text text-anchor="middle" x="1298" y="-237" font-family="Helvetica,sans-Serif" font-size="10.00" fill="#000000">TVector3.h</text>
</g>
<!-- Node1&#45;&gt;Node32 -->
<g id="edge40" class="edge">
<title>Node1&#45;&gt;Node32</title>
<path fill="none" stroke="#191970" d="M999.6542,-292.7341C1002.8108,-292.1301 1005.9393,-291.5483 1009,-291 1117.7663,-271.5149 1147.819,-281.8704 1255,-255 1258.1559,-254.2088 1261.4038,-253.2735 1264.6334,-252.2605"/>
<polygon fill="#191970" stroke="#191970" points="1265.7958,-255.5622 1274.1567,-249.0548 1263.5626,-248.928 1265.7958,-255.5622"/>
</g>
<!-- Node2&#45;&gt;Node3 -->
<g id="edge3" class="edge">
<title>Node2&#45;&gt;Node3</title>
<path fill="none" stroke="#191970" d="M471.4084,-225.1998C414.2492,-215.39 337.4668,-201.7124 270,-188 268.5606,-187.7075 267.096,-187.4041 265.6177,-187.0931"/>
<polygon fill="#191970" stroke="#191970" points="266.2963,-183.659 255.7821,-184.9633 264.8148,-190.5005 266.2963,-183.659"/>
</g>
<!-- Node4 -->
<g id="node5" class="node">
<title>Node4</title>
<polygon fill="none" stroke="#bfbfbf" points="764,-112.5 764,-131.5 806,-131.5 806,-112.5 764,-112.5"/>
<text text-anchor="middle" x="785" y="-119.5" font-family="Helvetica,sans-Serif" font-size="10.00" fill="#000000">array</text>
</g>
<!-- Node2&#45;&gt;Node4 -->
<g id="edge4" class="edge">
<title>Node2&#45;&gt;Node4</title>
<path fill="none" stroke="#191970" d="M635.0472,-224.4881C664.4169,-216.5767 697.1699,-204.8937 724,-188 743.9001,-175.4698 761.5119,-154.8168 772.632,-139.9488"/>
<polygon fill="#191970" stroke="#191970" points="775.6689,-141.7214 778.6794,-131.5632 769.9913,-137.6268 775.6689,-141.7214"/>
</g>
<!-- Node5 -->
<g id="node6" class="node">
<title>Node5</title>
<polygon fill="none" stroke="#bfbfbf" points="458,-168.5 458,-187.5 502,-187.5 502,-168.5 458,-168.5"/>
<text text-anchor="middle" x="480" y="-175.5" font-family="Helvetica,sans-Serif" font-size="10.00" fill="#000000">bitset</text>
</g>
<!-- Node2&#45;&gt;Node5 -->
<g id="edge5" class="edge">
<title>Node2&#45;&gt;Node5</title>
<path fill="none" stroke="#191970" d="M537.9663,-224.2977C526.4985,-215.1384 511.9038,-203.4816 500.2281,-194.1562"/>
<polygon fill="#191970" stroke="#191970" points="502.3266,-191.3529 492.3287,-187.8469 497.9581,-196.8225 502.3266,-191.3529"/>
</g>
<!-- Node6 -->
<g id="node7" class="node">
<title>Node6</title>
<polygon fill="none" stroke="#bfbfbf" points="626,-112.5 626,-131.5 678,-131.5 678,-112.5 626,-112.5"/>
<text text-anchor="middle" x="652" y="-119.5" font-family="Helvetica,sans-Serif" font-size="10.00" fill="#000000">cassert</text>
</g>
<!-- Node2&#45;&gt;Node6 -->
<g id="edge6" class="edge">
<title>Node2&#45;&gt;Node6</title>
<path fill="none" stroke="#191970" d="M613.8825,-224.4457C645.6914,-214.7525 680.7634,-201.4815 690,-188 701.0974,-171.8025 686.5335,-152.1883 672.3451,-138.5715"/>
<polygon fill="#191970" stroke="#191970" points="674.4477,-135.7558 664.6667,-131.6835 669.7734,-140.9664 674.4477,-135.7558"/>
</g>
<!-- Node7 -->
<g id="node8" class="node">
<title>Node7</title>
<polygon fill="none" stroke="#bfbfbf" points="696,-112.5 696,-131.5 746,-131.5 746,-112.5 696,-112.5"/>
<text text-anchor="middle" x="721" y="-119.5" font-family="Helvetica,sans-Serif" font-size="10.00" fill="#000000">cstdint</text>
</g>
<!-- Node2&#45;&gt;Node7 -->
<g id="edge7" class="edge">
<title>Node2&#45;&gt;Node7</title>
<path fill="none" stroke="#191970" d="M618.643,-224.4267C653.6669,-214.6747 692.8884,-201.3478 705,-188 716.2529,-175.5986 719.9444,-156.6423 721.0009,-142.2219"/>
<polygon fill="#191970" stroke="#191970" points="724.5126,-141.9617 721.3775,-131.8414 717.5172,-141.7079 724.5126,-141.9617"/>
</g>
<!-- Node8 -->
<g id="node9" class="node">
<title>Node8</title>
<polygon fill="none" stroke="#bfbfbf" points="520.5,-168.5 520.5,-187.5 593.5,-187.5 593.5,-168.5 520.5,-168.5"/>
<text text-anchor="middle" x="557" y="-175.5" font-family="Helvetica,sans-Serif" font-size="10.00" fill="#000000">string_view</text>
</g>
<!-- Node2&#45;&gt;Node8 -->
<g id="edge8" class="edge">
<title>Node2&#45;&gt;Node8</title>
<path fill="none" stroke="#191970" d="M557,-224.2977C557,-216.3834 557,-206.6043 557,-198.0759"/>
<polygon fill="#191970" stroke="#191970" points="560.5001,-197.8469 557,-187.8469 553.5001,-197.847 560.5001,-197.8469"/>
</g>
<!-- Node9 -->
<g id="node10" class="node">
<title>Node9</title>
<polygon fill="none" stroke="#bfbfbf" points="0,-112.5 0,-131.5 44,-131.5 44,-112.5 0,-112.5"/>
<text text-anchor="middle" x="22" y="-119.5" font-family="Helvetica,sans-Serif" font-size="10.00" fill="#000000">string</text>
</g>
<!-- Node2&#45;&gt;Node9 -->
<g id="edge9" class="edge">
<title>Node2&#45;&gt;Node9</title>
<path fill="none" stroke="#191970" d="M471.3501,-228.1254C421.3506,-220.0162 357.5667,-207.1151 303,-188 284.6157,-181.5599 282.4821,-174.1539 264,-168 176.736,-138.944 147.3451,-153.6026 54.0816,-131.9572"/>
<polygon fill="#191970" stroke="#191970" points="54.7825,-128.5261 44.2417,-129.5954 53.1487,-135.3328 54.7825,-128.5261"/>
</g>
<!-- Node10 -->
<g id="node11" class="node">
<title>Node10</title>
<polygon fill="none" stroke="#bfbfbf" points="611.5,-168.5 611.5,-187.5 680.5,-187.5 680.5,-168.5 611.5,-168.5"/>
<text text-anchor="middle" x="646" y="-175.5" font-family="Helvetica,sans-Serif" font-size="10.00" fill="#000000">type_traits</text>
</g>
<!-- Node2&#45;&gt;Node10 -->
<g id="edge10" class="edge">
<title>Node2&#45;&gt;Node10</title>
<path fill="none" stroke="#191970" d="M579,-224.2977C592.5968,-214.9022 609.9966,-202.8787 623.6567,-193.4395"/>
<polygon fill="#191970" stroke="#191970" points="625.7785,-196.2276 632.0158,-187.6633 621.7991,-190.4688 625.7785,-196.2276"/>
</g>
<!-- Node11 -->
<g id="node12" class="node">
<title>Node11</title>
<g id="a_node12"><a xlink:href="../../d9/d52/Common_2MathUtils_2include_2MathUtils_2Utils_8h.html" target="_top" xlink:title="MathUtils/Utils.h">
<polygon fill="none" stroke="#000000" points="934,-168.5 934,-187.5 1032,-187.5 1032,-168.5 934,-168.5"/>
<text text-anchor="middle" x="983" y="-175.5" font-family="Helvetica,sans-Serif" font-size="10.00" fill="#000000">MathUtils/Utils.h</text>
</a>
</g>
</g>
<!-- Node2&#45;&gt;Node11 -->
<g id="edge11" class="edge">
<title>Node2&#45;&gt;Node11</title>
<path fill="none" stroke="#191970" d="M642.6902,-225.4233C645.8319,-224.9377 648.9431,-224.4617 652,-224 746.8856,-209.6681 857.3341,-194.6535 923.6258,-185.821"/>
<polygon fill="#191970" stroke="#191970" points="924.4257,-189.2456 933.877,-184.4576 923.5028,-182.3067 924.4257,-189.2456"/>
</g>
<!-- Node19 -->
<g id="node20" class="node">
<title>Node19</title>
<g id="a_node20"><a xlink:href="../../dc/dcd/DataHeader_8h.html" target="_top" xlink:title="Headers/DataHeader.h">
<polygon fill="none" stroke="#000000" points="312.5,-168.5 312.5,-187.5 439.5,-187.5 439.5,-168.5 312.5,-168.5"/>
<text text-anchor="middle" x="376" y="-175.5" font-family="Helvetica,sans-Serif" font-size="10.00" fill="#000000">Headers/DataHeader.h</text>
</a>
</g>
</g>
<!-- Node2&#45;&gt;Node19 -->
<g id="edge22" class="edge">
<title>Node2&#45;&gt;Node19</title>
<path fill="none" stroke="#191970" d="M512.7224,-224.4554C482.3896,-214.149 442.5871,-200.6249 413.7556,-190.8286"/>
<polygon fill="#191970" stroke="#191970" points="414.643,-187.4336 404.0486,-187.5303 412.3909,-194.0615 414.643,-187.4336"/>
</g>
<!-- Node11&#45;&gt;Node4 -->
<g id="edge12" class="edge">
<title>Node11&#45;&gt;Node4</title>
<path fill="none" stroke="#191970" d="M945.7983,-168.4362C913.7121,-160.0491 865.9334,-147.2321 815.9479,-132.1825"/>
<polygon fill="#191970" stroke="#191970" points="816.8449,-128.7972 806.2595,-129.2455 814.814,-135.4962 816.8449,-128.7972"/>
</g>
<!-- Node12 -->
<g id="node13" class="node">
<title>Node12</title>
<polygon fill="none" stroke="#bfbfbf" points="1174.5,-56.5 1174.5,-75.5 1221.5,-75.5 1221.5,-56.5 1174.5,-56.5"/>
<text text-anchor="middle" x="1198" y="-63.5" font-family="Helvetica,sans-Serif" font-size="10.00" fill="#000000">cmath</text>
</g>
<!-- Node11&#45;&gt;Node12 -->
<g id="edge13" class="edge">
<title>Node11&#45;&gt;Node12</title>
<path fill="none" stroke="#191970" d="M1032.0547,-174.5584C1089.1897,-169.4097 1178.405,-157.4428 1199,-132 1209.3419,-119.2237 1207.7807,-100.0446 1204.4083,-85.6487"/>
<polygon fill="#191970" stroke="#191970" points="1207.7065,-84.4463 1201.6435,-75.7577 1200.9649,-86.3308 1207.7065,-84.4463"/>
</g>
<!-- Node13 -->
<g id="node14" class="node">
<title>Node13</title>
<g id="a_node14"><a xlink:href="../../df/d21/GPUCommonDef_8h.html" target="_top" xlink:title="GPUCommonDef.h">
<polygon fill="none" stroke="#000000" points="1011.5,-56.5 1011.5,-75.5 1118.5,-75.5 1118.5,-56.5 1011.5,-56.5"/>
<text text-anchor="middle" x="1065" y="-63.5" font-family="Helvetica,sans-Serif" font-size="10.00" fill="#000000">GPUCommonDef.h</text>
</a>
</g>
</g>
<!-- Node11&#45;&gt;Node13 -->
<g id="edge14" class="edge">
<title>Node11&#45;&gt;Node13</title>
<path fill="none" stroke="#191970" d="M993.5304,-168.3992C1002.9479,-159.5017 1016.7983,-145.6224 1027,-132 1038.2246,-117.0117 1048.6599,-98.4075 1055.7439,-84.7754"/>
<polygon fill="#191970" stroke="#191970" points="1058.8686,-86.352 1060.2732,-75.8507 1052.6265,-83.1841 1058.8686,-86.352"/>
</g>
<!-- Node16 -->
<g id="node17" class="node">
<title>Node16</title>
<g id="a_node17"><a xlink:href="../../d6/da2/GPUCommonMath_8h.html" target="_top" xlink:title="GPUCommonMath.h">
<polygon fill="none" stroke="#000000" points="1074.5,-112.5 1074.5,-131.5 1189.5,-131.5 1189.5,-112.5 1074.5,-112.5"/>
<text text-anchor="middle" x="1132" y="-119.5" font-family="Helvetica,sans-Serif" font-size="10.00" fill="#000000">GPUCommonMath.h</text>
</a>
</g>
</g>
<!-- Node11&#45;&gt;Node16 -->
<g id="edge17" class="edge">
<title>Node11&#45;&gt;Node16</title>
<path fill="none" stroke="#191970" d="M1008.614,-168.3733C1033.0687,-159.1822 1070.1054,-145.2624 1097.2209,-135.0713"/>
<polygon fill="#191970" stroke="#191970" points="1098.5909,-138.2956 1106.7202,-131.5011 1096.1281,-131.7431 1098.5909,-138.2956"/>
</g>
<!-- Node18 -->
<g id="node19" class="node">
<title>Node18</title>
<g id="a_node19"><a xlink:href="../../d6/d84/MathConstants_8h.html" target="_top" xlink:title="useful math constants ">
<polygon fill="none" stroke="#000000" points="824,-112.5 824,-131.5 1018,-131.5 1018,-112.5 824,-112.5"/>
<text text-anchor="middle" x="921" y="-119.5" font-family="Helvetica,sans-Serif" font-size="10.00" fill="#000000">CommonConstants/MathConstants.h</text>
</a>
</g>
</g>
<!-- Node11&#45;&gt;Node18 -->
<g id="edge21" class="edge">
<title>Node11&#45;&gt;Node18</title>
<path fill="none" stroke="#191970" d="M972.2004,-168.2455C963.1322,-160.0549 949.9794,-148.1749 939.2755,-138.5069"/>
<polygon fill="#191970" stroke="#191970" points="941.4429,-135.7482 931.6758,-131.6427 936.7509,-140.9429 941.4429,-135.7482"/>
</g>
<!-- Node14 -->
<g id="node15" class="node">
<title>Node14</title>
<g id="a_node15"><a xlink:href="../../d5/d93/GPUCommonDefSettings_8h.html" target="_top" xlink:title="GPUCommonDefSettings.h">
<polygon fill="none" stroke="#000000" points="914,-.5 914,-19.5 1062,-19.5 1062,-.5 914,-.5"/>
<text text-anchor="middle" x="988" y="-7.5" font-family="Helvetica,sans-Serif" font-size="10.00" fill="#000000">GPUCommonDefSettings.h</text>
</a>
</g>
</g>
<!-- Node13&#45;&gt;Node14 -->
<g id="edge15" class="edge">
<title>Node13&#45;&gt;Node14</title>
<path fill="none" stroke="#191970" d="M1051.5876,-56.2455C1039.9943,-47.814 1023.0252,-35.4729 1009.5322,-25.6598"/>
<polygon fill="#191970" stroke="#191970" points="1011.4047,-22.6938 1001.2587,-19.6427 1007.2874,-28.355 1011.4047,-22.6938"/>
</g>
<!-- Node15 -->
<g id="node16" class="node">
<title>Node15</title>
<g id="a_node16"><a xlink:href="../../da/d5a/GPUCommonDefAPI_8h.html" target="_top" xlink:title="GPUCommonDefAPI.h">
<polygon fill="none" stroke="#000000" points="1080,-.5 1080,-19.5 1204,-19.5 1204,-.5 1080,-.5"/>
<text text-anchor="middle" x="1142" y="-7.5" font-family="Helvetica,sans-Serif" font-size="10.00" fill="#000000">GPUCommonDefAPI.h</text>
</a>
</g>
</g>
<!-- Node13&#45;&gt;Node15 -->
<g id="edge16" class="edge">
<title>Node13&#45;&gt;Node15</title>
<path fill="none" stroke="#191970" d="M1078.4124,-56.2455C1090.0057,-47.814 1106.9748,-35.4729 1120.4678,-25.6598"/>
<polygon fill="#191970" stroke="#191970" points="1122.7126,-28.355 1128.7413,-19.6427 1118.5953,-22.6938 1122.7126,-28.355"/>
</g>
<!-- Node16&#45;&gt;Node12 -->
<g id="edge19" class="edge">
<title>Node16&#45;&gt;Node12</title>
<path fill="none" stroke="#191970" d="M1143.4963,-112.2455C1153.2442,-103.9746 1167.4259,-91.9416 1178.8798,-82.2232"/>
<polygon fill="#191970" stroke="#191970" points="1181.2747,-84.7813 1186.6354,-75.6427 1176.7459,-79.4437 1181.2747,-84.7813"/>
</g>
<!-- Node16&#45;&gt;Node13 -->
<g id="edge18" class="edge">
<title>Node16&#45;&gt;Node13</title>
<path fill="none" stroke="#191970" d="M1120.3295,-112.2455C1110.4339,-103.9746 1096.0373,-91.9416 1084.4099,-82.2232"/>
<polygon fill="#191970" stroke="#191970" points="1086.4542,-79.3703 1076.5368,-75.6427 1081.965,-84.7413 1086.4542,-79.3703"/>
</g>
<!-- Node17 -->
<g id="node18" class="node">
<title>Node17</title>
<polygon fill="none" stroke="#bfbfbf" points="685,-56.5 685,-75.5 749,-75.5 749,-56.5 685,-56.5"/>
<text text-anchor="middle" x="717" y="-63.5" font-family="Helvetica,sans-Serif" font-size="10.00" fill="#000000">algorithm</text>
</g>
<!-- Node16&#45;&gt;Node17 -->
<g id="edge20" class="edge">
<title>Node16&#45;&gt;Node17</title>
<path fill="none" stroke="#191970" d="M1074.296,-114.2134C989.6369,-102.7896 833.7445,-81.7535 759.053,-71.6746"/>
<polygon fill="#191970" stroke="#191970" points="759.4467,-68.1961 749.0684,-70.3273 758.5105,-75.1332 759.4467,-68.1961"/>
</g>
<!-- Node19&#45;&gt;Node6 -->
<g id="edge25" class="edge">
<title>Node19&#45;&gt;Node6</title>
<path fill="none" stroke="#191970" d="M433.7678,-168.4737C480.4852,-160.4289 548.135,-148.0127 615.7241,-132.1544"/>
<polygon fill="#191970" stroke="#191970" points="616.7711,-135.5033 625.6933,-129.7898 615.1555,-128.6923 616.7711,-135.5033"/>
</g>
<!-- Node19&#45;&gt;Node7 -->
<g id="edge23" class="edge">
<title>Node19&#45;&gt;Node7</title>
<path fill="none" stroke="#191970" d="M439.8318,-169.0437C516.8848,-158.1635 640.8766,-140.414 685.7931,-131.8774"/>
<polygon fill="#191970" stroke="#191970" points="686.7541,-135.2534 695.8502,-129.821 685.3518,-128.3953 686.7541,-135.2534"/>
</g>
<!-- Node19&#45;&gt;Node9 -->
<g id="edge29" class="edge">
<title>Node19&#45;&gt;Node9</title>
<path fill="none" stroke="#191970" d="M312.253,-169.5164C232.1497,-158.7718 100.3706,-140.7902 54.0701,-131.7628"/>
<polygon fill="#191970" stroke="#191970" points="54.733,-128.3256 44.2239,-129.6704 53.2779,-135.1727 54.733,-128.3256"/>
</g>
<!-- Node19&#45;&gt;Node17 -->
<g id="edge27" class="edge">
<title>Node19&#45;&gt;Node17</title>
<path fill="none" stroke="#191970" d="M386.7605,-168.4335C403.7862,-153.8456 438.551,-126.2369 473,-112 540.1345,-84.255 624.6111,-73.1048 674.5093,-68.724"/>
<polygon fill="#191970" stroke="#191970" points="674.936,-72.2008 684.6135,-67.8885 674.359,-65.2246 674.936,-72.2008"/>
</g>
<!-- Node20 -->
<g id="node21" class="node">
<title>Node20</title>
<polygon fill="none" stroke="#bfbfbf" points="482,-112.5 482,-131.5 540,-131.5 540,-112.5 482,-112.5"/>
<text text-anchor="middle" x="511" y="-119.5" font-family="Helvetica,sans-Serif" font-size="10.00" fill="#000000">memory</text>
</g>
<!-- Node19&#45;&gt;Node20 -->
<g id="edge24" class="edge">
<title>Node19&#45;&gt;Node20</title>
<path fill="none" stroke="#191970" d="M399.2073,-168.3733C421.1699,-159.2629 454.3332,-145.5062 478.8401,-135.3404"/>
<polygon fill="#191970" stroke="#191970" points="480.1997,-138.5657 488.0955,-131.5011 477.5176,-132.0999 480.1997,-138.5657"/>
</g>
<!-- Node21 -->
<g id="node22" class="node">
<title>Node21</title>
<polygon fill="none" stroke="#bfbfbf" points="558,-112.5 558,-131.5 608,-131.5 608,-112.5 558,-112.5"/>
<text text-anchor="middle" x="583" y="-119.5" font-family="Helvetica,sans-Serif" font-size="10.00" fill="#000000">cstring</text>
</g>
<!-- Node19&#45;&gt;Node21 -->
<g id="edge26" class="edge">
<title>Node19&#45;&gt;Node21</title>
<path fill="none" stroke="#191970" d="M412.8614,-168.4971C445.8825,-159.9179 495.8744,-146.767 548.0133,-132.23"/>
<polygon fill="#191970" stroke="#191970" points="549.0829,-135.5652 557.7701,-129.5003 547.1969,-128.8241 549.0829,-135.5652"/>
</g>
<!-- Node22 -->
<g id="node23" class="node">
<title>Node22</title>
<polygon fill="none" stroke="#bfbfbf" points="62.5,-112.5 62.5,-131.5 127.5,-131.5 127.5,-112.5 62.5,-112.5"/>
<text text-anchor="middle" x="95" y="-119.5" font-family="Helvetica,sans-Serif" font-size="10.00" fill="#000000">stdexcept</text>
</g>
<!-- Node19&#45;&gt;Node22 -->
<g id="edge28" class="edge">
<title>Node19&#45;&gt;Node22</title>
<path fill="none" stroke="#191970" d="M322.707,-168.4307C276.3625,-159.9532 207.175,-146.9243 137.3779,-132.0093"/>
<polygon fill="#191970" stroke="#191970" points="138.0397,-128.5717 127.5275,-129.8925 136.569,-135.4155 138.0397,-128.5717"/>
</g>
<!-- Node23 -->
<g id="node24" class="node">
<title>Node23</title>
<polygon fill="none" stroke="#bfbfbf" points="146,-112.5 146,-131.5 196,-131.5 196,-112.5 146,-112.5"/>
<text text-anchor="middle" x="171" y="-119.5" font-family="Helvetica,sans-Serif" font-size="10.00" fill="#000000">climits</text>
</g>
<!-- Node19&#45;&gt;Node23 -->
<g id="edge30" class="edge">
<title>Node19&#45;&gt;Node23</title>
<path fill="none" stroke="#191970" d="M339.5724,-168.4634C306.9383,-159.8615 257.528,-146.6946 205.8954,-132.2111"/>
<polygon fill="#191970" stroke="#191970" points="206.8064,-128.8315 196.2322,-129.4921 204.9104,-135.5699 206.8064,-128.8315"/>
</g>
<!-- Node24 -->
<g id="node25" class="node">
<title>Node24</title>
<g id="a_node25"><a xlink:href="../../d7/df8/Types_8h.html" target="_top" xlink:title="MemoryResources/Types.h">
<polygon fill="none" stroke="#000000" points="214,-112.5 214,-131.5 360,-131.5 360,-112.5 214,-112.5"/>
<text text-anchor="middle" x="287" y="-119.5" font-family="Helvetica,sans-Serif" font-size="10.00" fill="#000000">MemoryResources/Types.h</text>
</a>
</g>
</g>
<!-- Node19&#45;&gt;Node24 -->
<g id="edge31" class="edge">
<title>Node19&#45;&gt;Node24</title>
<path fill="none" stroke="#191970" d="M360.4974,-168.2455C346.842,-159.6534 326.7343,-147.0014 311.0011,-137.1018"/>
<polygon fill="#191970" stroke="#191970" points="312.6529,-134.006 302.325,-131.6427 308.9249,-139.9307 312.6529,-134.006"/>
</g>
<!-- Node25 -->
<g id="node26" class="node">
<title>Node25</title>
<polygon fill="none" stroke="#bfbfbf" points="378.5,-112.5 378.5,-131.5 425.5,-131.5 425.5,-112.5 378.5,-112.5"/>
<text text-anchor="middle" x="402" y="-119.5" font-family="Helvetica,sans-Serif" font-size="10.00" fill="#000000">cerrno</text>
</g>
<!-- Node19&#45;&gt;Node25 -->
<g id="edge32" class="edge">
<title>Node19&#45;&gt;Node25</title>
<path fill="none" stroke="#191970" d="M380.5289,-168.2455C384.0334,-160.6973 388.9927,-150.0158 393.2623,-140.8197"/>
<polygon fill="#191970" stroke="#191970" points="396.4864,-142.1867 397.523,-131.6427 390.1373,-139.2389 396.4864,-142.1867"/>
</g>
</g>
</svg>
        <g id="navigator" transform="translate(0 0)" fill="#404254">
                <rect fill="#f2f5e9" fill-opacity="0.5" stroke="#606060" stroke-width=".5" x="0" y="0" width="60" height="60"/>
                <use id="zoomplus" xlink:href="#zoomPlus" x="17" y="9" onmousedown="handleZoom(evt,'in')"/>
                <use id="zoomminus" xlink:href="#zoomMin" x="42" y="9" onmousedown="handleZoom(evt,'out')"/>
                <use id="reset" xlink:href="#resetDef" x="30" y="36" onmousedown="handleReset()"/>
                <g id="arrowUp" xlink:href="#dirArrow" transform="translate(30 24)" onmousedown="handlePan(0,-1)">
                  <use xlink:href="#rim" fill="#404040">
                        <set attributeName="fill" to="#808080" begin="arrowUp.mouseover" end="arrowUp.mouseout"/>
                  </use>
                  <path fill="none" stroke="white" stroke-width="1.5" d="M0,-3.0v7 M-2.5,-0.5L0,-3.0L2.5,-0.5"/>
                </g>
                <g id="arrowRight" xlink:href="#dirArrow" transform="rotate(90) translate(36 -43)" onmousedown="handlePan(1,0)">
                  <use xlink:href="#rim" fill="#404040">
                        <set attributeName="fill" to="#808080" begin="arrowRight.mouseover" end="arrowRight.mouseout"/>
                  </use>
                  <path fill="none" stroke="white" stroke-width="1.5" d="M0,-3.0v7 M-2.5,-0.5L0,-3.0L2.5,-0.5"/>
                </g>
                <g id="arrowDown" xlink:href="#dirArrow" transform="rotate(180) translate(-30 -48)" onmousedown="handlePan(0,1)">
                  <use xlink:href="#rim" fill="#404040">
                        <set attributeName="fill" to="#808080" begin="arrowDown.mouseover" end="arrowDown.mouseout"/>
                  </use>
                  <path fill="none" stroke="white" stroke-width="1.5" d="M0,-3.0v7 M-2.5,-0.5L0,-3.0L2.5,-0.5"/>
                </g>
                <g id="arrowLeft" xlink:href="#dirArrow" transform="rotate(270) translate(-36 17)" onmousedown="handlePan(-1,0)">
                  <use xlink:href="#rim" fill="#404040">
                        <set attributeName="fill" to="#808080" begin="arrowLeft.mouseover" end="arrowLeft.mouseout"/>
                  </use>
                  <path fill="none" stroke="white" stroke-width="1.5" d="M0,-3.0v7 M-2.5,-0.5L0,-3.0L2.5,-0.5"/>
                </g>
        </g>
        <svg viewBox="0 0 15 15" width="100%" height="30px" preserveAspectRatio="xMaxYMin meet">
         <g id="arrow_out" transform="scale(0.3 0.3)">
          <a xlink:href="src_2MCTrack_8cxx__incl_org.svg" target="_base">
           <rect id="button" ry="5" rx="5" y="6" x="6" height="38" width="38"
                fill="#f2f5e9" fill-opacity="0.5" stroke="#606060" stroke-width="1.0"/>
           <path id="arrow"
             d="M 11.500037,31.436501 C 11.940474,20.09759 22.043105,11.32322 32.158766,21.979434 L 37.068811,17.246167 C 37.068811,17.246167 37.088388,32 37.088388,32 L 22.160133,31.978069 C 22.160133,31.978069 26.997745,27.140456 26.997745,27.140456 C 18.528582,18.264221 13.291696,25.230495 11.500037,31.436501 z"
             style="fill:#404040;"/>
          </a>
         </g>
        </svg>
</svg>
