<?xml version="1.0" encoding="UTF-8" standalone="no"?>
<!DOCTYPE svg PUBLIC "-//W3C//DTD SVG 1.1//EN"
 "http://www.w3.org/Graphics/SVG/1.1/DTD/svg11.dtd">
<!-- Generated by graphviz version 2.40.1 (20161225.0304)
 -->
<!-- Title: /home/travis/build/AliceO2Group/AliceO2/Detectors/ITSMFT/common/reconstruction/src/ChipMappingITS.cxx Pages: 1 -->
<!--zoomable 430 -->
<svg id="main" version="1.1" xmlns="http://www.w3.org/2000/svg" xmlns:xlink="http://www.w3.org/1999/xlink" xml:space="preserve" onload="init(evt)">
<style type="text/css"><![CDATA[
.edge:hover path { stroke: red; }
.edge:hover polygon { stroke: red; fill: red; }
]]></style>
<script type="text/javascript"><![CDATA[
var edges = document.getElementsByTagName('g');
if (edges && edges.length) {
  for (var i=0;i<edges.length;i++) {
    if (edges[i].id.substr(0,4)=='edge') {
      edges[i].setAttribute('class','edge');
    }
  }
}
]]></script>
        <defs>
                <circle id="rim" cx="0" cy="0" r="7"/>
                <circle id="rim2" cx="0" cy="0" r="3.5"/>
                <g id="zoomPlus">
                        <use xlink:href="#rim" fill="#404040">
                                <set attributeName="fill" to="#808080" begin="zoomplus.mouseover" end="zoomplus.mouseout"/>
                        </use>
                        <path d="M-4,0h8M0,-4v8" fill="none" stroke="white" stroke-width="1.5" pointer-events="none"/>
                </g>
                <g id="zoomMin">
                        <use xlink:href="#rim" fill="#404040">
                                <set attributeName="fill" to="#808080" begin="zoomminus.mouseover" end="zoomminus.mouseout"/>
                        </use>
                        <path d="M-4,0h8" fill="none" stroke="white" stroke-width="1.5" pointer-events="none"/>
                </g>
                <g id="dirArrow">
                        <path fill="none" stroke="white" stroke-width="1.5" d="M0,-3.0v7 M-2.5,-0.5L0,-3.0L2.5,-0.5"/>
                </g>
               <g id="resetDef">
                       <use xlink:href="#rim2" fill="#404040">
                               <set attributeName="fill" to="#808080" begin="reset.mouseover" end="reset.mouseout"/>
                       </use>
               </g>
        </defs>

<script type="text/javascript">
var viewWidth = 1293;
var viewHeight = 430;
var sectionId = 'dynsection-0';
</script>
<script xlink:href="../../svgpan.js"/>
<svg id="graph" class="graph">
<g id="viewport">
<title>/home/travis/build/AliceO2Group/AliceO2/Detectors/ITSMFT/common/reconstruction/src/ChipMappingITS.cxx</title>
<!-- Node0 -->
<g id="node1" class="node">
<title>Node0</title>
<polygon fill="#bfbfbf" stroke="#000000" points="876,-358.5 876,-421.5 1049,-421.5 1049,-358.5 876,-358.5"/>
<text text-anchor="start" x="884" y="-409.5" font-family="Helvetica,sans-Serif" font-size="10.00" fill="#000000">/home/travis/build</text>
<text text-anchor="start" x="884" y="-398.5" font-family="Helvetica,sans-Serif" font-size="10.00" fill="#000000">/AliceO2Group/AliceO2</text>
<text text-anchor="start" x="884" y="-387.5" font-family="Helvetica,sans-Serif" font-size="10.00" fill="#000000">/Detectors/ITSMFT/common</text>
<text text-anchor="start" x="884" y="-376.5" font-family="Helvetica,sans-Serif" font-size="10.00" fill="#000000">/reconstruction/src/ChipMapping</text>
<text text-anchor="middle" x="962.5" y="-365.5" font-family="Helvetica,sans-Serif" font-size="10.00" fill="#000000">ITS.cxx</text>
</g>
<!-- Node1 -->
<g id="node2" class="node">
<title>Node1</title>
<polygon fill="none" stroke="#bfbfbf" points="479,-297 479,-316 554,-316 554,-297 479,-297"/>
<text text-anchor="middle" x="516.5" y="-304" font-family="Helvetica,sans-Serif" font-size="10.00" fill="#000000">FairLogger.h</text>
</g>
<!-- Node0&#45;&gt;Node1 -->
<g id="edge1" class="edge">
<title>Node0&#45;&gt;Node1</title>
<path fill="none" stroke="#191970" d="M875.7232,-379.0318C794.3745,-367.8517 669.7116,-348.4064 563.5,-322 560.0605,-321.1449 556.5091,-320.1629 552.9713,-319.1171"/>
<polygon fill="#191970" stroke="#191970" points="553.729,-315.6873 543.1405,-316.0534 551.6463,-322.3703 553.729,-315.6873"/>
</g>
<!-- Node2 -->
<g id="node3" class="node">
<title>Node2</title>
<g id="a_node3"><a xlink:href="../../d3/d57/ChipMappingITS_8h.html" target="_top" xlink:title="ITSMFTReconstruction\l/ChipMappingITS.h">
<polygon fill="none" stroke="#000000" points="572,-291.5 572,-321.5 695,-321.5 695,-291.5 572,-291.5"/>
<text text-anchor="start" x="580" y="-309.5" font-family="Helvetica,sans-Serif" font-size="10.00" fill="#000000">ITSMFTReconstruction</text>
<text text-anchor="middle" x="633.5" y="-298.5" font-family="Helvetica,sans-Serif" font-size="10.00" fill="#000000">/ChipMappingITS.h</text>
</a>
</g>
</g>
<!-- Node0&#45;&gt;Node2 -->
<g id="edge2" class="edge">
<title>Node0&#45;&gt;Node2</title>
<path fill="none" stroke="#191970" d="M875.6288,-367.9521C821.5498,-354.2269 752.9473,-336.8157 702.5832,-324.0333"/>
<polygon fill="#191970" stroke="#191970" points="703.317,-320.6086 692.7632,-321.541 701.5949,-327.3935 703.317,-320.6086"/>
</g>
<!-- Node10 -->
<g id="node11" class="node">
<title>Node10</title>
<polygon fill="none" stroke="#bfbfbf" points="1232.5,-112.5 1232.5,-131.5 1284.5,-131.5 1284.5,-112.5 1232.5,-112.5"/>
<text text-anchor="middle" x="1258.5" y="-119.5" font-family="Helvetica,sans-Serif" font-size="10.00" fill="#000000">cassert</text>
</g>
<!-- Node0&#45;&gt;Node10 -->
<g id="edge43" class="edge">
<title>Node0&#45;&gt;Node10</title>
<path fill="none" stroke="#191970" d="M962.1431,-358.4844C963.3567,-337.6706 967.8375,-310.7031 981.5,-291 1041.7352,-204.1331 1162.4908,-153.8122 1222.683,-133.1328"/>
<polygon fill="#191970" stroke="#191970" points="1224.1305,-136.339 1232.498,-129.8401 1221.9041,-129.7025 1224.1305,-136.339"/>
</g>
<!-- Node29 -->
<g id="node30" class="node">
<title>Node29</title>
<polygon fill="none" stroke="#bfbfbf" points="990.5,-297 990.5,-316 1046.5,-316 1046.5,-297 990.5,-297"/>
<text text-anchor="middle" x="1018.5" y="-304" font-family="Helvetica,sans-Serif" font-size="10.00" fill="#000000">sstream</text>
</g>
<!-- Node0&#45;&gt;Node29 -->
<g id="edge44" class="edge">
<title>Node0&#45;&gt;Node29</title>
<path fill="none" stroke="#191970" d="M983.6712,-358.4322C991.2761,-347.0928 999.5967,-334.6862 1006.1977,-324.8437"/>
<polygon fill="#191970" stroke="#191970" points="1009.2569,-326.5659 1011.92,-316.3112 1003.4432,-322.6669 1009.2569,-326.5659"/>
</g>
<!-- Node30 -->
<g id="node31" class="node">
<title>Node30</title>
<polygon fill="none" stroke="#bfbfbf" points="1064.5,-297 1064.5,-316 1120.5,-316 1120.5,-297 1064.5,-297"/>
<text text-anchor="middle" x="1092.5" y="-304" font-family="Helvetica,sans-Serif" font-size="10.00" fill="#000000">iomanip</text>
</g>
<!-- Node0&#45;&gt;Node30 -->
<g id="edge45" class="edge">
<title>Node0&#45;&gt;Node30</title>
<path fill="none" stroke="#191970" d="M1011.6474,-358.4322C1031.2418,-345.8466 1052.883,-331.9463 1068.8412,-321.6963"/>
<polygon fill="#191970" stroke="#191970" points="1070.9995,-324.4698 1077.5219,-316.1205 1067.2165,-318.58 1070.9995,-324.4698"/>
</g>
<!-- Node3 -->
<g id="node4" class="node">
<title>Node3</title>
<polygon fill="none" stroke="#bfbfbf" points="106,-168.5 106,-187.5 165,-187.5 165,-168.5 106,-168.5"/>
<text text-anchor="middle" x="135.5" y="-175.5" font-family="Helvetica,sans-Serif" font-size="10.00" fill="#000000">Rtypes.h</text>
</g>
<!-- Node2&#45;&gt;Node3 -->
<g id="edge3" class="edge">
<title>Node2&#45;&gt;Node3</title>
<path fill="none" stroke="#191970" d="M571.7253,-292.4941C568.9497,-291.9681 566.1983,-291.4669 563.5,-291 436.8275,-269.0799 398.8363,-294.5 276.5,-255 231.626,-240.5111 184.526,-211.5761 157.7119,-193.5952"/>
<polygon fill="#191970" stroke="#191970" points="159.345,-190.4727 149.1104,-187.7336 155.4031,-196.2573 159.345,-190.4727"/>
</g>
<!-- Node4 -->
<g id="node5" class="node">
<title>Node4</title>
<polygon fill="none" stroke="#bfbfbf" points="56.5,-112.5 56.5,-131.5 98.5,-131.5 98.5,-112.5 56.5,-112.5"/>
<text text-anchor="middle" x="77.5" y="-119.5" font-family="Helvetica,sans-Serif" font-size="10.00" fill="#000000">array</text>
</g>
<!-- Node2&#45;&gt;Node4 -->
<g id="edge4" class="edge">
<title>Node2&#45;&gt;Node4</title>
<path fill="none" stroke="#191970" d="M571.7394,-292.41C568.96,-291.9067 566.2039,-291.4334 563.5,-291 405.1651,-265.622 356.3274,-306.5985 204.5,-255 151.0177,-236.8241 130.591,-233.0391 96.5,-188 86.3926,-174.6467 81.6568,-156.0791 79.4407,-142.0383"/>
<polygon fill="#191970" stroke="#191970" points="82.889,-141.41 78.1493,-131.9344 75.9455,-142.2975 82.889,-141.41"/>
</g>
<!-- Node5 -->
<g id="node6" class="node">
<title>Node5</title>
<polygon fill="none" stroke="#bfbfbf" points="0,-230 0,-249 49,-249 49,-230 0,-230"/>
<text text-anchor="middle" x="24.5" y="-237" font-family="Helvetica,sans-Serif" font-size="10.00" fill="#000000">cstdlib</text>
</g>
<!-- Node2&#45;&gt;Node5 -->
<g id="edge5" class="edge">
<title>Node2&#45;&gt;Node5</title>
<path fill="none" stroke="#191970" d="M571.7539,-292.3148C568.9706,-291.8373 566.2097,-291.3954 563.5,-291 343.0372,-258.8308 280.6774,-304.726 63.5,-255 60.6369,-254.3445 57.7085,-253.511 54.8062,-252.572"/>
<polygon fill="#191970" stroke="#191970" points="55.767,-249.1974 45.1729,-249.0774 53.3799,-255.7778 55.767,-249.1974"/>
</g>
<!-- Node6 -->
<g id="node7" class="node">
<title>Node6</title>
<polygon fill="none" stroke="#bfbfbf" points="538.5,-112.5 538.5,-131.5 588.5,-131.5 588.5,-112.5 538.5,-112.5"/>
<text text-anchor="middle" x="563.5" y="-119.5" font-family="Helvetica,sans-Serif" font-size="10.00" fill="#000000">cstdint</text>
</g>
<!-- Node2&#45;&gt;Node6 -->
<g id="edge6" class="edge">
<title>Node2&#45;&gt;Node6</title>
<path fill="none" stroke="#191970" d="M643.4684,-291.4548C649.4132,-281.5545 656.3911,-268.0561 659.5,-255 668.5719,-216.9011 669.2724,-199.124 645.5,-168 633.5732,-152.3848 614.7323,-141.2839 598.1167,-133.9045"/>
<polygon fill="#191970" stroke="#191970" points="599.2378,-130.5805 588.6598,-129.9837 596.5569,-137.0468 599.2378,-130.5805"/>
</g>
<!-- Node7 -->
<g id="node8" class="node">
<title>Node7</title>
<polygon fill="none" stroke="#bfbfbf" points="606.5,-112.5 606.5,-131.5 650.5,-131.5 650.5,-112.5 606.5,-112.5"/>
<text text-anchor="middle" x="628.5" y="-119.5" font-family="Helvetica,sans-Serif" font-size="10.00" fill="#000000">string</text>
</g>
<!-- Node2&#45;&gt;Node7 -->
<g id="edge7" class="edge">
<title>Node2&#45;&gt;Node7</title>
<path fill="none" stroke="#191970" d="M674.4108,-291.4816C690.5283,-283.3159 707.3481,-271.4491 716.5,-255 735.2994,-221.211 736.5312,-201.0736 716.5,-168 710.0141,-157.291 682.5589,-143.9258 660.0176,-134.3659"/>
<polygon fill="#191970" stroke="#191970" points="661.3117,-131.1136 650.7334,-130.5207 658.6331,-137.5809 661.3117,-131.1136"/>
</g>
<!-- Node8 -->
<g id="node9" class="node">
<title>Node8</title>
<g id="a_node9"><a xlink:href="../../dc/dcd/DataHeader_8h.html" target="_top" xlink:title="Headers/DataHeader.h">
<polygon fill="none" stroke="#000000" points="769,-168.5 769,-187.5 896,-187.5 896,-168.5 769,-168.5"/>
<text text-anchor="middle" x="832.5" y="-175.5" font-family="Helvetica,sans-Serif" font-size="10.00" fill="#000000">Headers/DataHeader.h</text>
</a>
</g>
</g>
<!-- Node2&#45;&gt;Node8 -->
<g id="edge8" class="edge">
<title>Node2&#45;&gt;Node8</title>
<path fill="none" stroke="#191970" d="M679.8161,-291.475C703.269,-282.7315 731.5556,-270.3848 754.5,-255 779.5327,-238.2149 803.4481,-212.724 818.0462,-195.7256"/>
<polygon fill="#191970" stroke="#191970" points="821.0346,-197.6097 824.7873,-187.7017 815.6749,-193.1069 821.0346,-197.6097"/>
</g>
<!-- Node17 -->
<g id="node18" class="node">
<title>Node17</title>
<g id="a_node18"><a xlink:href="../../dc/dd8/RUInfo_8h.html" target="_top" xlink:title="ITSMFTReconstruction\l/RUInfo.h">
<polygon fill="none" stroke="#000000" points="286,-224.5 286,-254.5 409,-254.5 409,-224.5 286,-224.5"/>
<text text-anchor="start" x="294" y="-242.5" font-family="Helvetica,sans-Serif" font-size="10.00" fill="#000000">ITSMFTReconstruction</text>
<text text-anchor="middle" x="347.5" y="-231.5" font-family="Helvetica,sans-Serif" font-size="10.00" fill="#000000">/RUInfo.h</text>
</a>
</g>
</g>
<!-- Node2&#45;&gt;Node17 -->
<g id="edge19" class="edge">
<title>Node2&#45;&gt;Node17</title>
<path fill="none" stroke="#191970" d="M571.7944,-292.0445C526.8755,-281.5215 465.9317,-267.2445 418.9074,-256.2283"/>
<polygon fill="#191970" stroke="#191970" points="419.6298,-252.8028 409.095,-253.9296 418.0331,-259.6183 419.6298,-252.8028"/>
</g>
<!-- Node18 -->
<g id="node19" class="node">
<title>Node18</title>
<g id="a_node19"><a xlink:href="../../d6/d31/DetID_8h.html" target="_top" xlink:title="DetectorsCommonDataFormats\l/DetID.h">
<polygon fill="none" stroke="#000000" points="479,-224.5 479,-254.5 650,-254.5 650,-224.5 479,-224.5"/>
<text text-anchor="start" x="487" y="-242.5" font-family="Helvetica,sans-Serif" font-size="10.00" fill="#000000">DetectorsCommonDataFormats</text>
<text text-anchor="middle" x="564.5" y="-231.5" font-family="Helvetica,sans-Serif" font-size="10.00" fill="#000000">/DetID.h</text>
</a>
</g>
</g>
<!-- Node2&#45;&gt;Node18 -->
<g id="edge22" class="edge">
<title>Node2&#45;&gt;Node18</title>
<path fill="none" stroke="#191970" d="M617.8428,-291.2967C608.8443,-282.559 597.3787,-271.4257 587.3852,-261.7218"/>
<polygon fill="#191970" stroke="#191970" points="589.7077,-259.0985 580.0952,-254.6432 584.8313,-264.1205 589.7077,-259.0985"/>
</g>
<!-- Node8&#45;&gt;Node6 -->
<g id="edge9" class="edge">
<title>Node8&#45;&gt;Node6</title>
<path fill="none" stroke="#191970" d="M776.1519,-168.4853C730.5869,-160.4472 664.6152,-148.0348 598.4427,-132.0698"/>
<polygon fill="#191970" stroke="#191970" points="599.2251,-128.6581 588.6805,-129.6887 597.5663,-135.4588 599.2251,-128.6581"/>
</g>
<!-- Node8&#45;&gt;Node7 -->
<g id="edge15" class="edge">
<title>Node8&#45;&gt;Node7</title>
<path fill="none" stroke="#191970" d="M795.1334,-168.4846C760.2089,-159.478 706.666,-145.3805 660.5,-132 660.4022,-131.9716 660.3042,-131.9432 660.206,-131.9147"/>
<polygon fill="#191970" stroke="#191970" points="661.4275,-128.6269 650.8438,-129.1124 659.4202,-135.333 661.4275,-128.6269"/>
</g>
<!-- Node9 -->
<g id="node10" class="node">
<title>Node9</title>
<polygon fill="none" stroke="#bfbfbf" points="1050.5,-112.5 1050.5,-131.5 1108.5,-131.5 1108.5,-112.5 1050.5,-112.5"/>
<text text-anchor="middle" x="1079.5" y="-119.5" font-family="Helvetica,sans-Serif" font-size="10.00" fill="#000000">memory</text>
</g>
<!-- Node8&#45;&gt;Node9 -->
<g id="edge10" class="edge">
<title>Node8&#45;&gt;Node9</title>
<path fill="none" stroke="#191970" d="M878.2862,-168.4827C918.5577,-159.9858 978.9975,-146.9298 1040.5921,-132.1517"/>
<polygon fill="#191970" stroke="#191970" points="1041.5841,-135.5128 1050.4846,-129.7655 1039.9427,-128.708 1041.5841,-135.5128"/>
</g>
<!-- Node8&#45;&gt;Node10 -->
<g id="edge11" class="edge">
<title>Node8&#45;&gt;Node10</title>
<path fill="none" stroke="#191970" d="M896.3434,-169.7561C901.1332,-169.1556 905.8926,-168.5646 910.5,-168 1047.2975,-151.2368 1082.9224,-156.7644 1218.5,-132 1219.7675,-131.7685 1221.0545,-131.5201 1222.352,-131.2583"/>
<polygon fill="#191970" stroke="#191970" points="1223.3455,-134.6233 1232.355,-129.0484 1221.8354,-127.7881 1223.3455,-134.6233"/>
</g>
<!-- Node11 -->
<g id="node12" class="node">
<title>Node11</title>
<polygon fill="none" stroke="#bfbfbf" points="1126.5,-112.5 1126.5,-131.5 1176.5,-131.5 1176.5,-112.5 1126.5,-112.5"/>
<text text-anchor="middle" x="1151.5" y="-119.5" font-family="Helvetica,sans-Serif" font-size="10.00" fill="#000000">cstring</text>
</g>
<!-- Node8&#45;&gt;Node11 -->
<g id="edge12" class="edge">
<title>Node8&#45;&gt;Node11</title>
<path fill="none" stroke="#191970" d="M896.1388,-168.6844C962.4405,-158.8201 1062.9502,-143.3817 1116.3204,-132.0023"/>
<polygon fill="#191970" stroke="#191970" points="1117.3349,-135.3625 1126.3418,-129.7834 1115.8216,-128.528 1117.3349,-135.3625"/>
</g>
<!-- Node12 -->
<g id="node13" class="node">
<title>Node12</title>
<polygon fill="none" stroke="#bfbfbf" points="801.5,-56.5 801.5,-75.5 865.5,-75.5 865.5,-56.5 801.5,-56.5"/>
<text text-anchor="middle" x="833.5" y="-63.5" font-family="Helvetica,sans-Serif" font-size="10.00" fill="#000000">algorithm</text>
</g>
<!-- Node8&#45;&gt;Node12 -->
<g id="edge13" class="edge">
<title>Node8&#45;&gt;Node12</title>
<path fill="none" stroke="#191970" d="M896.2943,-169.8194C997.8279,-156.7812 1184.9058,-132.6766 1185.5,-132 1191.3653,-125.3208 1191.364,-118.6802 1185.5,-112 1165.3097,-88.9995 964.5298,-73.9977 875.5616,-68.4294"/>
<polygon fill="#191970" stroke="#191970" points="875.734,-64.9335 865.5379,-67.8125 875.3039,-71.9203 875.734,-64.9335"/>
</g>
<!-- Node13 -->
<g id="node14" class="node">
<title>Node13</title>
<polygon fill="none" stroke="#bfbfbf" points="669,-112.5 669,-131.5 734,-131.5 734,-112.5 669,-112.5"/>
<text text-anchor="middle" x="701.5" y="-119.5" font-family="Helvetica,sans-Serif" font-size="10.00" fill="#000000">stdexcept</text>
</g>
<!-- Node8&#45;&gt;Node13 -->
<g id="edge14" class="edge">
<title>Node8&#45;&gt;Node13</title>
<path fill="none" stroke="#191970" d="M809.9803,-168.3733C788.7628,-159.3032 756.7724,-145.6279 733.0231,-135.4755"/>
<polygon fill="#191970" stroke="#191970" points="734.2967,-132.2136 723.7258,-131.5011 731.5452,-138.6502 734.2967,-132.2136"/>
</g>
<!-- Node14 -->
<g id="node15" class="node">
<title>Node14</title>
<polygon fill="none" stroke="#bfbfbf" points="752.5,-112.5 752.5,-131.5 802.5,-131.5 802.5,-112.5 752.5,-112.5"/>
<text text-anchor="middle" x="777.5" y="-119.5" font-family="Helvetica,sans-Serif" font-size="10.00" fill="#000000">climits</text>
</g>
<!-- Node8&#45;&gt;Node14 -->
<g id="edge16" class="edge">
<title>Node8&#45;&gt;Node14</title>
<path fill="none" stroke="#191970" d="M822.9197,-168.2455C814.9542,-160.1352 803.4359,-148.4075 793.9921,-138.7919"/>
<polygon fill="#191970" stroke="#191970" points="796.4747,-136.3247 786.9705,-131.6427 791.4805,-141.2297 796.4747,-136.3247"/>
</g>
<!-- Node15 -->
<g id="node16" class="node">
<title>Node15</title>
<g id="a_node16"><a xlink:href="../../d7/df8/Types_8h.html" target="_top" xlink:title="MemoryResources/Types.h">
<polygon fill="none" stroke="#000000" points="820.5,-112.5 820.5,-131.5 966.5,-131.5 966.5,-112.5 820.5,-112.5"/>
<text text-anchor="middle" x="893.5" y="-119.5" font-family="Helvetica,sans-Serif" font-size="10.00" fill="#000000">MemoryResources/Types.h</text>
</a>
</g>
</g>
<!-- Node8&#45;&gt;Node15 -->
<g id="edge17" class="edge">
<title>Node8&#45;&gt;Node15</title>
<path fill="none" stroke="#191970" d="M843.1254,-168.2455C852.0473,-160.0549 864.988,-148.1749 875.5192,-138.5069"/>
<polygon fill="#191970" stroke="#191970" points="877.9968,-140.9837 882.9964,-131.6427 873.2629,-135.8271 877.9968,-140.9837"/>
</g>
<!-- Node16 -->
<g id="node17" class="node">
<title>Node16</title>
<polygon fill="none" stroke="#bfbfbf" points="985,-112.5 985,-131.5 1032,-131.5 1032,-112.5 985,-112.5"/>
<text text-anchor="middle" x="1008.5" y="-119.5" font-family="Helvetica,sans-Serif" font-size="10.00" fill="#000000">cerrno</text>
</g>
<!-- Node8&#45;&gt;Node16 -->
<g id="edge18" class="edge">
<title>Node8&#45;&gt;Node16</title>
<path fill="none" stroke="#191970" d="M862.7555,-168.3733C893.9727,-158.4405 942.5475,-142.9849 974.9301,-132.6813"/>
<polygon fill="#191970" stroke="#191970" points="976.3644,-135.8979 984.8324,-129.5306 974.2419,-129.2275 976.3644,-135.8979"/>
</g>
<!-- Node17&#45;&gt;Node3 -->
<g id="edge20" class="edge">
<title>Node17&#45;&gt;Node3</title>
<path fill="none" stroke="#191970" d="M295.639,-224.4554C258.5347,-213.6917 209.3327,-199.4185 175.305,-189.5472"/>
<polygon fill="#191970" stroke="#191970" points="175.8413,-186.0585 165.2621,-186.6338 173.891,-192.7814 175.8413,-186.0585"/>
</g>
<!-- Node17&#45;&gt;Node6 -->
<g id="edge21" class="edge">
<title>Node17&#45;&gt;Node6</title>
<path fill="none" stroke="#191970" d="M347.432,-224.3638C348.2148,-208.1012 352.0602,-182.6266 367.5,-168 418.7439,-119.4551 454.8666,-147.723 528.1948,-132.0101"/>
<polygon fill="#191970" stroke="#191970" points="529.3771,-135.327 538.3014,-129.6167 527.764,-128.5154 529.3771,-135.327"/>
</g>
<!-- Node18&#45;&gt;Node3 -->
<g id="edge23" class="edge">
<title>Node18&#45;&gt;Node3</title>
<path fill="none" stroke="#191970" d="M478.9027,-230.2998C400.6531,-221.3564 281.8717,-206.4411 179.5,-188 178.0544,-187.7396 176.5846,-187.4637 175.1018,-187.176"/>
<polygon fill="#191970" stroke="#191970" points="175.7482,-183.7357 165.2474,-185.1442 174.3346,-190.5915 175.7482,-183.7357"/>
</g>
<!-- Node18&#45;&gt;Node4 -->
<g id="edge24" class="edge">
<title>Node18&#45;&gt;Node4</title>
<path fill="none" stroke="#191970" d="M478.6771,-230.2123C390.8341,-220.1225 260.5902,-203.3815 212.5,-188 193.9463,-182.0657 190.9518,-176.654 173.5,-168 151.2621,-156.9727 125.9341,-144.8546 106.8794,-135.8257"/>
<polygon fill="#191970" stroke="#191970" points="108.3403,-132.6449 97.8039,-131.534 105.3478,-138.9731 108.3403,-132.6449"/>
</g>
<!-- Node18&#45;&gt;Node6 -->
<g id="edge27" class="edge">
<title>Node18&#45;&gt;Node6</title>
<path fill="none" stroke="#191970" d="M564.3693,-224.1389C564.1891,-202.9692 563.8644,-164.8174 563.6669,-141.6112"/>
<polygon fill="#191970" stroke="#191970" points="567.1664,-141.5293 563.5814,-131.5595 560.1667,-141.5889 567.1664,-141.5293"/>
</g>
<!-- Node18&#45;&gt;Node7 -->
<g id="edge29" class="edge">
<title>Node18&#45;&gt;Node7</title>
<path fill="none" stroke="#191970" d="M604.0259,-224.4754C619.8885,-216.2614 636.5155,-204.3591 645.5,-188 653.6585,-173.1449 647.3656,-154.2516 640.2387,-140.4893"/>
<polygon fill="#191970" stroke="#191970" points="643.102,-138.4461 635.0965,-131.5062 637.0269,-141.9237 643.102,-138.4461"/>
</g>
<!-- Node18&#45;&gt;Node8 -->
<g id="edge42" class="edge">
<title>Node18&#45;&gt;Node8</title>
<path fill="none" stroke="#191970" d="M630.0602,-224.4554C676.5418,-213.7889 738.0418,-199.6761 781.01,-189.8158"/>
<polygon fill="#191970" stroke="#191970" points="782.0057,-193.1784 790.9695,-187.5303 780.44,-186.3557 782.0057,-193.1784"/>
</g>
<!-- Node18&#45;&gt;Node10 -->
<g id="edge26" class="edge">
<title>Node18&#45;&gt;Node10</title>
<path fill="none" stroke="#191970" d="M650.0626,-233.3842C719.9403,-226.7802 820.6552,-213.5614 905.5,-188 925.6812,-181.92 928.293,-173.9937 948.5,-168 1057.388,-135.7022 1089.3289,-149.8154 1201.5,-132 1208.3001,-130.92 1215.5442,-129.7016 1222.5073,-128.4963"/>
<polygon fill="#191970" stroke="#191970" points="1223.1784,-131.9321 1232.4236,-126.7574 1221.9693,-125.0373 1223.1784,-131.9321"/>
</g>
<!-- Node19 -->
<g id="node20" class="node">
<title>Node19</title>
<polygon fill="none" stroke="#bfbfbf" points="592.5,-168.5 592.5,-187.5 636.5,-187.5 636.5,-168.5 592.5,-168.5"/>
<text text-anchor="middle" x="614.5" y="-175.5" font-family="Helvetica,sans-Serif" font-size="10.00" fill="#000000">bitset</text>
</g>
<!-- Node18&#45;&gt;Node19 -->
<g id="edge25" class="edge">
<title>Node18&#45;&gt;Node19</title>
<path fill="none" stroke="#191970" d="M576.8596,-224.2977C583.8724,-215.672 592.686,-204.8312 600.0214,-195.8087"/>
<polygon fill="#191970" stroke="#191970" points="602.9018,-197.8141 606.4944,-187.8469 597.4703,-193.3982 602.9018,-197.8141"/>
</g>
<!-- Node20 -->
<g id="node21" class="node">
<title>Node20</title>
<polygon fill="none" stroke="#bfbfbf" points="376,-168.5 376,-187.5 449,-187.5 449,-168.5 376,-168.5"/>
<text text-anchor="middle" x="412.5" y="-175.5" font-family="Helvetica,sans-Serif" font-size="10.00" fill="#000000">string_view</text>
</g>
<!-- Node18&#45;&gt;Node20 -->
<g id="edge28" class="edge">
<title>Node18&#45;&gt;Node20</title>
<path fill="none" stroke="#191970" d="M527.3166,-224.4554C502.2887,-214.329 469.5837,-201.0964 445.4834,-191.3453"/>
<polygon fill="#191970" stroke="#191970" points="446.6373,-188.0366 436.0546,-187.5303 444.0118,-194.5256 446.6373,-188.0366"/>
</g>
<!-- Node21 -->
<g id="node22" class="node">
<title>Node21</title>
<polygon fill="none" stroke="#bfbfbf" points="467,-168.5 467,-187.5 536,-187.5 536,-168.5 467,-168.5"/>
<text text-anchor="middle" x="501.5" y="-175.5" font-family="Helvetica,sans-Serif" font-size="10.00" fill="#000000">type_traits</text>
</g>
<!-- Node18&#45;&gt;Node21 -->
<g id="edge30" class="edge">
<title>Node18&#45;&gt;Node21</title>
<path fill="none" stroke="#191970" d="M548.927,-224.2977C539.8175,-215.4052 528.2966,-204.1586 518.8909,-194.9769"/>
<polygon fill="#191970" stroke="#191970" points="521.1878,-192.3278 511.5871,-187.8469 516.298,-197.3368 521.1878,-192.3278"/>
</g>
<!-- Node22 -->
<g id="node23" class="node">
<title>Node22</title>
<g id="a_node23"><a xlink:href="../../d9/d52/Common_2MathUtils_2include_2MathUtils_2Utils_8h.html" target="_top" xlink:title="MathUtils/Utils.h">
<polygon fill="none" stroke="#000000" points="221.5,-168.5 221.5,-187.5 319.5,-187.5 319.5,-168.5 221.5,-168.5"/>
<text text-anchor="middle" x="270.5" y="-175.5" font-family="Helvetica,sans-Serif" font-size="10.00" fill="#000000">MathUtils/Utils.h</text>
</a>
</g>
</g>
<!-- Node18&#45;&gt;Node22 -->
<g id="edge31" class="edge">
<title>Node18&#45;&gt;Node22</title>
<path fill="none" stroke="#191970" d="M492.5795,-224.4554C441.2658,-213.7214 373.2674,-199.4973 326.0928,-189.6291"/>
<polygon fill="#191970" stroke="#191970" points="326.5644,-186.1521 316.0596,-187.5303 325.131,-193.0038 326.5644,-186.1521"/>
</g>
<!-- Node22&#45;&gt;Node4 -->
<g id="edge32" class="edge">
<title>Node22&#45;&gt;Node4</title>
<path fill="none" stroke="#191970" d="M237.3221,-168.3733C201.1256,-157.8707 143.6483,-141.1933 108.3829,-130.9608"/>
<polygon fill="#191970" stroke="#191970" points="109.2099,-127.5565 98.6306,-128.1312 107.2592,-134.2792 109.2099,-127.5565"/>
</g>
<!-- Node23 -->
<g id="node24" class="node">
<title>Node23</title>
<polygon fill="none" stroke="#bfbfbf" points="359,-56.5 359,-75.5 406,-75.5 406,-56.5 359,-56.5"/>
<text text-anchor="middle" x="382.5" y="-63.5" font-family="Helvetica,sans-Serif" font-size="10.00" fill="#000000">cmath</text>
</g>
<!-- Node22&#45;&gt;Node23 -->
<g id="edge33" class="edge">
<title>Node22&#45;&gt;Node23</title>
<path fill="none" stroke="#191970" d="M300.2042,-168.4735C318.8755,-161.1377 342.2346,-149.2911 357.5,-132 369.1317,-118.8247 375.5774,-99.6938 378.9968,-85.4173"/>
<polygon fill="#191970" stroke="#191970" points="382.423,-86.1318 381.0576,-75.6253 375.5731,-84.6901 382.423,-86.1318"/>
</g>
<!-- Node24 -->
<g id="node25" class="node">
<title>Node24</title>
<g id="a_node25"><a xlink:href="../../df/d21/GPUCommonDef_8h.html" target="_top" xlink:title="GPUCommonDef.h">
<polygon fill="none" stroke="#000000" points="157,-56.5 157,-75.5 264,-75.5 264,-56.5 157,-56.5"/>
<text text-anchor="middle" x="210.5" y="-63.5" font-family="Helvetica,sans-Serif" font-size="10.00" fill="#000000">GPUCommonDef.h</text>
</a>
</g>
</g>
<!-- Node22&#45;&gt;Node24 -->
<g id="edge34" class="edge">
<title>Node22&#45;&gt;Node24</title>
<path fill="none" stroke="#191970" d="M230.0282,-168.4445C197.4596,-159.8392 155.5216,-146.3666 145.5,-132 131.6101,-112.088 156.7045,-92.7093 179.6359,-80.1591"/>
<polygon fill="#191970" stroke="#191970" points="181.2883,-83.2449 188.5572,-75.5369 178.0681,-77.0295 181.2883,-83.2449"/>
</g>
<!-- Node27 -->
<g id="node28" class="node">
<title>Node27</title>
<g id="a_node28"><a xlink:href="../../d6/da2/GPUCommonMath_8h.html" target="_top" xlink:title="GPUCommonMath.h">
<polygon fill="none" stroke="#000000" points="405,-112.5 405,-131.5 520,-131.5 520,-112.5 405,-112.5"/>
<text text-anchor="middle" x="462.5" y="-119.5" font-family="Helvetica,sans-Serif" font-size="10.00" fill="#000000">GPUCommonMath.h</text>
</a>
</g>
</g>
<!-- Node22&#45;&gt;Node27 -->
<g id="edge37" class="edge">
<title>Node22&#45;&gt;Node27</title>
<path fill="none" stroke="#191970" d="M303.506,-168.3733C335.7091,-158.9807 384.8442,-144.6496 419.9639,-134.4064"/>
<polygon fill="#191970" stroke="#191970" points="421.3047,-137.6612 429.9247,-131.5011 419.3447,-130.9412 421.3047,-137.6612"/>
</g>
<!-- Node28 -->
<g id="node29" class="node">
<title>Node28</title>
<g id="a_node29"><a xlink:href="../../d6/d84/MathConstants_8h.html" target="_top" xlink:title="useful math constants ">
<polygon fill="none" stroke="#000000" points="154.5,-112.5 154.5,-131.5 348.5,-131.5 348.5,-112.5 154.5,-112.5"/>
<text text-anchor="middle" x="251.5" y="-119.5" font-family="Helvetica,sans-Serif" font-size="10.00" fill="#000000">CommonConstants/MathConstants.h</text>
</a>
</g>
</g>
<!-- Node22&#45;&gt;Node28 -->
<g id="edge41" class="edge">
<title>Node22&#45;&gt;Node28</title>
<path fill="none" stroke="#191970" d="M267.1905,-168.2455C264.6567,-160.7776 261.0823,-150.2427 257.985,-141.1137"/>
<polygon fill="#191970" stroke="#191970" points="261.2991,-139.9879 254.7716,-131.6427 254.6702,-142.237 261.2991,-139.9879"/>
</g>
<!-- Node25 -->
<g id="node26" class="node">
<title>Node25</title>
<g id="a_node26"><a xlink:href="../../d5/d93/GPUCommonDefSettings_8h.html" target="_top" xlink:title="GPUCommonDefSettings.h">
<polygon fill="none" stroke="#000000" points="59.5,-.5 59.5,-19.5 207.5,-19.5 207.5,-.5 59.5,-.5"/>
<text text-anchor="middle" x="133.5" y="-7.5" font-family="Helvetica,sans-Serif" font-size="10.00" fill="#000000">GPUCommonDefSettings.h</text>
</a>
</g>
</g>
<!-- Node24&#45;&gt;Node25 -->
<g id="edge35" class="edge">
<title>Node24&#45;&gt;Node25</title>
<path fill="none" stroke="#191970" d="M197.0876,-56.2455C185.4943,-47.814 168.5252,-35.4729 155.0322,-25.6598"/>
<polygon fill="#191970" stroke="#191970" points="156.9047,-22.6938 146.7587,-19.6427 152.7874,-28.355 156.9047,-22.6938"/>
</g>
<!-- Node26 -->
<g id="node27" class="node">
<title>Node26</title>
<g id="a_node27"><a xlink:href="../../da/d5a/GPUCommonDefAPI_8h.html" target="_top" xlink:title="GPUCommonDefAPI.h">
<polygon fill="none" stroke="#000000" points="225.5,-.5 225.5,-19.5 349.5,-19.5 349.5,-.5 225.5,-.5"/>
<text text-anchor="middle" x="287.5" y="-7.5" font-family="Helvetica,sans-Serif" font-size="10.00" fill="#000000">GPUCommonDefAPI.h</text>
</a>
</g>
</g>
<!-- Node24&#45;&gt;Node26 -->
<g id="edge36" class="edge">
<title>Node24&#45;&gt;Node26</title>
<path fill="none" stroke="#191970" d="M223.9124,-56.2455C235.5057,-47.814 252.4748,-35.4729 265.9678,-25.6598"/>
<polygon fill="#191970" stroke="#191970" points="268.2126,-28.355 274.2413,-19.6427 264.0953,-22.6938 268.2126,-28.355"/>
</g>
<!-- Node27&#45;&gt;Node12 -->
<g id="edge40" class="edge">
<title>Node27&#45;&gt;Node12</title>
<path fill="none" stroke="#191970" d="M520.0617,-113.3114C595.0209,-101.9968 724.3234,-82.4795 791.0011,-72.4149"/>
<polygon fill="#191970" stroke="#191970" points="791.7813,-75.8369 801.1469,-70.8835 790.7365,-68.9153 791.7813,-75.8369"/>
</g>
<!-- Node27&#45;&gt;Node23 -->
<g id="edge39" class="edge">
<title>Node27&#45;&gt;Node23</title>
<path fill="none" stroke="#191970" d="M448.5651,-112.2455C436.4053,-103.7337 418.5536,-91.2375 404.4715,-81.3801"/>
<polygon fill="#191970" stroke="#191970" points="406.4747,-78.51 396.2752,-75.6427 402.4605,-84.2447 406.4747,-78.51"/>
</g>
<!-- Node27&#45;&gt;Node24 -->
<g id="edge38" class="edge">
<title>Node27&#45;&gt;Node24</title>
<path fill="none" stroke="#191970" d="M419.466,-112.4369C376.2475,-102.8328 309.5859,-88.0191 263.2182,-77.7152"/>
<polygon fill="#191970" stroke="#191970" points="263.8777,-74.2764 253.3565,-75.5237 262.3591,-81.1097 263.8777,-74.2764"/>
</g>
</g>
</svg>
        <g id="navigator" transform="translate(0 0)" fill="#404254">
                <rect fill="#f2f5e9" fill-opacity="0.5" stroke="#606060" stroke-width=".5" x="0" y="0" width="60" height="60"/>
                <use id="zoomplus" xlink:href="#zoomPlus" x="17" y="9" onmousedown="handleZoom(evt,'in')"/>
                <use id="zoomminus" xlink:href="#zoomMin" x="42" y="9" onmousedown="handleZoom(evt,'out')"/>
                <use id="reset" xlink:href="#resetDef" x="30" y="36" onmousedown="handleReset()"/>
                <g id="arrowUp" xlink:href="#dirArrow" transform="translate(30 24)" onmousedown="handlePan(0,-1)">
                  <use xlink:href="#rim" fill="#404040">
                        <set attributeName="fill" to="#808080" begin="arrowUp.mouseover" end="arrowUp.mouseout"/>
                  </use>
                  <path fill="none" stroke="white" stroke-width="1.5" d="M0,-3.0v7 M-2.5,-0.5L0,-3.0L2.5,-0.5"/>
                </g>
                <g id="arrowRight" xlink:href="#dirArrow" transform="rotate(90) translate(36 -43)" onmousedown="handlePan(1,0)">
                  <use xlink:href="#rim" fill="#404040">
                        <set attributeName="fill" to="#808080" begin="arrowRight.mouseover" end="arrowRight.mouseout"/>
                  </use>
                  <path fill="none" stroke="white" stroke-width="1.5" d="M0,-3.0v7 M-2.5,-0.5L0,-3.0L2.5,-0.5"/>
                </g>
                <g id="arrowDown" xlink:href="#dirArrow" transform="rotate(180) translate(-30 -48)" onmousedown="handlePan(0,1)">
                  <use xlink:href="#rim" fill="#404040">
                        <set attributeName="fill" to="#808080" begin="arrowDown.mouseover" end="arrowDown.mouseout"/>
                  </use>
                  <path fill="none" stroke="white" stroke-width="1.5" d="M0,-3.0v7 M-2.5,-0.5L0,-3.0L2.5,-0.5"/>
                </g>
                <g id="arrowLeft" xlink:href="#dirArrow" transform="rotate(270) translate(-36 17)" onmousedown="handlePan(-1,0)">
                  <use xlink:href="#rim" fill="#404040">
                        <set attributeName="fill" to="#808080" begin="arrowLeft.mouseover" end="arrowLeft.mouseout"/>
                  </use>
                  <path fill="none" stroke="white" stroke-width="1.5" d="M0,-3.0v7 M-2.5,-0.5L0,-3.0L2.5,-0.5"/>
                </g>
        </g>
        <svg viewBox="0 0 15 15" width="100%" height="30px" preserveAspectRatio="xMaxYMin meet">
         <g id="arrow_out" transform="scale(0.3 0.3)">
          <a xlink:href="ChipMappingITS_8cxx__incl_org.svg" target="_base">
           <rect id="button" ry="5" rx="5" y="6" x="6" height="38" width="38"
                fill="#f2f5e9" fill-opacity="0.5" stroke="#606060" stroke-width="1.0"/>
           <path id="arrow"
             d="M 11.500037,31.436501 C 11.940474,20.09759 22.043105,11.32322 32.158766,21.979434 L 37.068811,17.246167 C 37.068811,17.246167 37.088388,32 37.088388,32 L 22.160133,31.978069 C 22.160133,31.978069 26.997745,27.140456 26.997745,27.140456 C 18.528582,18.264221 13.291696,25.230495 11.500037,31.436501 z"
             style="fill:#404040;"/>
          </a>
         </g>
        </svg>
</svg>
