<?xml version="1.0" encoding="UTF-8" standalone="no"?>
<!DOCTYPE svg PUBLIC "-//W3C//DTD SVG 1.1//EN"
 "http://www.w3.org/Graphics/SVG/1.1/DTD/svg11.dtd">
<!-- Generated by graphviz version 2.40.1 (20161225.0304)
 -->
<!-- Title: o2::its::TrackReader Pages: 1 -->
<svg width="1941pt" height="1129pt"
 viewBox="0.00 0.00 1941.00 1129.00" xmlns="http://www.w3.org/2000/svg" xmlns:xlink="http://www.w3.org/1999/xlink">
<g id="graph0" class="graph" transform="scale(1 1) rotate(0) translate(4 1125)">
<title>o2::its::TrackReader</title>
<!-- Node2 -->
<g id="node1" class="node">
<title>Node2</title>
<polygon fill="#bfbfbf" stroke="#000000" points="882,-.5 882,-101.5 994,-101.5 994,-.5 882,-.5"/>
<text text-anchor="middle" x="938" y="-89.5" font-family="Helvetica,sans-Serif" font-size="10.00" fill="#000000">o2::its::TrackReader</text>
<polyline fill="none" stroke="#000000" points="882,-82.5 994,-82.5 "/>
<text text-anchor="middle" x="938" y="-70.5" font-family="Helvetica,sans-Serif" font-size="10.00" fill="#000000"> </text>
<polyline fill="none" stroke="#000000" points="882,-63.5 994,-63.5 "/>
<text text-anchor="start" x="890" y="-51.5" font-family="Helvetica,sans-Serif" font-size="10.00" fill="#000000">+ TrackReader()</text>
<text text-anchor="start" x="890" y="-40.5" font-family="Helvetica,sans-Serif" font-size="10.00" fill="#000000">+ ~TrackReader()</text>
<text text-anchor="start" x="890" y="-29.5" font-family="Helvetica,sans-Serif" font-size="10.00" fill="#000000">+ init()</text>
<text text-anchor="start" x="890" y="-18.5" font-family="Helvetica,sans-Serif" font-size="10.00" fill="#000000">+ run()</text>
<text text-anchor="start" x="890" y="-7.5" font-family="Helvetica,sans-Serif" font-size="10.00" fill="#000000"># connectTree()</text>
</g>
<!-- Node3 -->
<g id="node2" class="node">
<title>Node3</title>
<g id="a_node2"><a xlink:href="../../de/dac/classo2_1_1framework_1_1Task.html" target="_top" xlink:title="{o2::framework::Task\n||+ ~Task()\l+ init()\l+ run()\l+ endOfStream()\l}">
<polygon fill="none" stroke="#000000" points="0,-292.5 0,-382.5 116,-382.5 116,-292.5 0,-292.5"/>
<text text-anchor="middle" x="58" y="-370.5" font-family="Helvetica,sans-Serif" font-size="10.00" fill="#000000">o2::framework::Task</text>
<polyline fill="none" stroke="#000000" points="0,-363.5 116,-363.5 "/>
<text text-anchor="middle" x="58" y="-351.5" font-family="Helvetica,sans-Serif" font-size="10.00" fill="#000000"> </text>
<polyline fill="none" stroke="#000000" points="0,-344.5 116,-344.5 "/>
<text text-anchor="start" x="8" y="-332.5" font-family="Helvetica,sans-Serif" font-size="10.00" fill="#000000">+ ~Task()</text>
<text text-anchor="start" x="8" y="-321.5" font-family="Helvetica,sans-Serif" font-size="10.00" fill="#000000">+ init()</text>
<text text-anchor="start" x="8" y="-310.5" font-family="Helvetica,sans-Serif" font-size="10.00" fill="#000000">+ run()</text>
<text text-anchor="start" x="8" y="-299.5" font-family="Helvetica,sans-Serif" font-size="10.00" fill="#000000">+ endOfStream()</text>
</a>
</g>
</g>
<!-- Node3&#45;&gt;Node2 -->
<g id="edge1" class="edge">
<title>Node3&#45;&gt;Node2</title>
<path fill="none" stroke="#191970" d="M65.7867,-282.4771C74.0892,-243.3274 90.9866,-192.1664 125,-160 167.9962,-119.3386 194.0335,-131.9125 252,-120 482.6852,-72.5925 763.986,-57.2988 881.8404,-52.759"/>
<polygon fill="none" stroke="#191970" points="62.3297,-281.9163 63.8083,-292.4074 69.1948,-283.284 62.3297,-281.9163"/>
</g>
<!-- Node4 -->
<g id="node3" class="node">
<title>Node4</title>
<polygon fill="none" stroke="#bfbfbf" points="134.5,-309 134.5,-366 225.5,-366 225.5,-309 134.5,-309"/>
<text text-anchor="middle" x="180" y="-354" font-family="Helvetica,sans-Serif" font-size="10.00" fill="#000000">vector&lt; int &gt; *</text>
<polyline fill="none" stroke="#bfbfbf" points="134.5,-347 225.5,-347 "/>
<text text-anchor="middle" x="180" y="-335" font-family="Helvetica,sans-Serif" font-size="10.00" fill="#000000"> </text>
<polyline fill="none" stroke="#bfbfbf" points="134.5,-328 225.5,-328 "/>
<text text-anchor="middle" x="180" y="-316" font-family="Helvetica,sans-Serif" font-size="10.00" fill="#000000"> </text>
</g>
<!-- Node4&#45;&gt;Node2 -->
<g id="edge2" class="edge">
<title>Node4&#45;&gt;Node2</title>
<path fill="none" stroke="#404040" d="M181.1267,-308.7658C184.1546,-270.1088 195.0739,-201.4349 234,-160 268.762,-122.9976 291.6422,-131.8909 341,-120 528.9603,-74.7182 757.6098,-58.8378 869.5623,-53.5201"/>
<polygon fill="none" stroke="#404040" points="869.665,-53.5155 875.4754,-49.2447 881.6524,-52.9656 875.842,-57.2363 869.665,-53.5155"/>
<text text-anchor="middle" x="377.5" y="-128.5" font-family="Helvetica,sans-Serif" font-size="10.00" fill="#000000"> #mClusIndInp</text>
</g>
<!-- Node5 -->
<g id="node4" class="node">
<title>Node5</title>
<polygon fill="none" stroke="#bfbfbf" points="243.5,-303.5 243.5,-371.5 380.5,-371.5 380.5,-303.5 243.5,-303.5"/>
<text text-anchor="start" x="251.5" y="-359.5" font-family="Helvetica,sans-Serif" font-size="10.00" fill="#000000">vector&lt; o2::dataformats</text>
<text text-anchor="middle" x="312" y="-348.5" font-family="Helvetica,sans-Serif" font-size="10.00" fill="#000000">::Vertex &gt;</text>
<polyline fill="none" stroke="#bfbfbf" points="243.5,-341.5 380.5,-341.5 "/>
<text text-anchor="middle" x="312" y="-329.5" font-family="Helvetica,sans-Serif" font-size="10.00" fill="#000000"> </text>
<polyline fill="none" stroke="#bfbfbf" points="243.5,-322.5 380.5,-322.5 "/>
<text text-anchor="middle" x="312" y="-310.5" font-family="Helvetica,sans-Serif" font-size="10.00" fill="#000000"> </text>
</g>
<!-- Node5&#45;&gt;Node2 -->
<g id="edge3" class="edge">
<title>Node5&#45;&gt;Node2</title>
<path fill="none" stroke="#404040" d="M319.2595,-303.2915C329.1512,-264.1648 350.3535,-200.3229 390,-160 456.1305,-92.7414 738.0391,-64.7676 869.7196,-55.2066"/>
<polygon fill="none" stroke="#404040" points="870.0115,-55.186 875.7139,-50.7721 881.9816,-54.3381 876.2792,-58.7521 870.0115,-55.186"/>
<text text-anchor="middle" x="488.5" y="-128.5" font-family="Helvetica,sans-Serif" font-size="10.00" fill="#000000"> #mVertices</text>
</g>
<!-- Node6 -->
<g id="node5" class="node">
<title>Node6</title>
<polygon fill="none" stroke="#bfbfbf" points="399,-303.5 399,-371.5 505,-371.5 505,-303.5 399,-303.5"/>
<text text-anchor="start" x="407" y="-359.5" font-family="Helvetica,sans-Serif" font-size="10.00" fill="#000000">vector&lt; o2::itsmft</text>
<text text-anchor="middle" x="452" y="-348.5" font-family="Helvetica,sans-Serif" font-size="10.00" fill="#000000">::ROFRecord &gt;</text>
<polyline fill="none" stroke="#bfbfbf" points="399,-341.5 505,-341.5 "/>
<text text-anchor="middle" x="452" y="-329.5" font-family="Helvetica,sans-Serif" font-size="10.00" fill="#000000"> </text>
<polyline fill="none" stroke="#bfbfbf" points="399,-322.5 505,-322.5 "/>
<text text-anchor="middle" x="452" y="-310.5" font-family="Helvetica,sans-Serif" font-size="10.00" fill="#000000"> </text>
</g>
<!-- Node6&#45;&gt;Node2 -->
<g id="edge4" class="edge">
<title>Node6&#45;&gt;Node2</title>
<path fill="none" stroke="#404040" d="M456.1938,-303.2769C462.5574,-264.4319 477.9863,-201.1384 514,-160 560.458,-106.9311 762.4111,-73.5196 869.9761,-59.1561"/>
<polygon fill="none" stroke="#404040" points="870.0799,-59.1426 875.5081,-54.3955 881.9778,-57.5803 876.5496,-62.3274 870.0799,-59.1426"/>
<text text-anchor="middle" x="631.5" y="-134" font-family="Helvetica,sans-Serif" font-size="10.00" fill="#000000"> #mVerticesROFRec</text>
<text text-anchor="middle" x="631.5" y="-123" font-family="Helvetica,sans-Serif" font-size="10.00" fill="#000000">#mROFRec</text>
</g>
<!-- Node7 -->
<g id="node6" class="node">
<title>Node7</title>
<polygon fill="none" stroke="#bfbfbf" points="523,-309 523,-366 669,-366 669,-309 523,-309"/>
<text text-anchor="middle" x="596" y="-354" font-family="Helvetica,sans-Serif" font-size="10.00" fill="#000000">vector&lt; o2::its::TrackITS &gt;</text>
<polyline fill="none" stroke="#bfbfbf" points="523,-347 669,-347 "/>
<text text-anchor="middle" x="596" y="-335" font-family="Helvetica,sans-Serif" font-size="10.00" fill="#000000"> </text>
<polyline fill="none" stroke="#bfbfbf" points="523,-328 669,-328 "/>
<text text-anchor="middle" x="596" y="-316" font-family="Helvetica,sans-Serif" font-size="10.00" fill="#000000"> </text>
</g>
<!-- Node7&#45;&gt;Node2 -->
<g id="edge5" class="edge">
<title>Node7&#45;&gt;Node2</title>
<path fill="none" stroke="#404040" d="M602.6048,-308.8049C615.5731,-259.9072 649.4641,-161.6867 720,-120 766.4884,-92.5254 825.1236,-74.7669 869.8712,-64.1563"/>
<polygon fill="none" stroke="#404040" points="870.1131,-64.1008 875.0661,-58.8598 881.8089,-61.4161 876.8559,-66.6571 870.1131,-64.1008"/>
<text text-anchor="middle" x="746" y="-128.5" font-family="Helvetica,sans-Serif" font-size="10.00" fill="#000000"> #mTracks</text>
</g>
<!-- Node8 -->
<g id="node7" class="node">
<title>Node8</title>
<g id="a_node7"><a xlink:href="../../d9/db3/structo2_1_1header_1_1Descriptor.html" target="_top" xlink:title="{o2::header::Descriptor\l\&lt; gSizeDataOriginString,\l printDataOrigin \&gt;\n||+ Descriptor()\l+ Descriptor()\l+ Descriptor()\l+ Descriptor()\l+ operator=()\l+ operator ItgType()\l+ runtimeInit()\l+ operator==()\l+ operator==()\l+ operator\&lt;()\l+ operator!=()\l+ operator!=()\l+ as()\l+ print()\l}">
<polygon fill="none" stroke="#000000" points="687,-226.5 687,-448.5 825,-448.5 825,-226.5 687,-226.5"/>
<text text-anchor="start" x="695" y="-436.5" font-family="Helvetica,sans-Serif" font-size="10.00" fill="#000000">o2::header::Descriptor</text>
<text text-anchor="start" x="695" y="-425.5" font-family="Helvetica,sans-Serif" font-size="10.00" fill="#000000">&lt; gSizeDataOriginString,</text>
<text text-anchor="middle" x="756" y="-414.5" font-family="Helvetica,sans-Serif" font-size="10.00" fill="#000000"> printDataOrigin &gt;</text>
<polyline fill="none" stroke="#000000" points="687,-407.5 825,-407.5 "/>
<text text-anchor="middle" x="756" y="-395.5" font-family="Helvetica,sans-Serif" font-size="10.00" fill="#000000"> </text>
<polyline fill="none" stroke="#000000" points="687,-388.5 825,-388.5 "/>
<text text-anchor="start" x="695" y="-376.5" font-family="Helvetica,sans-Serif" font-size="10.00" fill="#000000">+ Descriptor()</text>
<text text-anchor="start" x="695" y="-365.5" font-family="Helvetica,sans-Serif" font-size="10.00" fill="#000000">+ Descriptor()</text>
<text text-anchor="start" x="695" y="-354.5" font-family="Helvetica,sans-Serif" font-size="10.00" fill="#000000">+ Descriptor()</text>
<text text-anchor="start" x="695" y="-343.5" font-family="Helvetica,sans-Serif" font-size="10.00" fill="#000000">+ Descriptor()</text>
<text text-anchor="start" x="695" y="-332.5" font-family="Helvetica,sans-Serif" font-size="10.00" fill="#000000">+ operator=()</text>
<text text-anchor="start" x="695" y="-321.5" font-family="Helvetica,sans-Serif" font-size="10.00" fill="#000000">+ operator ItgType()</text>
<text text-anchor="start" x="695" y="-310.5" font-family="Helvetica,sans-Serif" font-size="10.00" fill="#000000">+ runtimeInit()</text>
<text text-anchor="start" x="695" y="-299.5" font-family="Helvetica,sans-Serif" font-size="10.00" fill="#000000">+ operator==()</text>
<text text-anchor="start" x="695" y="-288.5" font-family="Helvetica,sans-Serif" font-size="10.00" fill="#000000">+ operator==()</text>
<text text-anchor="start" x="695" y="-277.5" font-family="Helvetica,sans-Serif" font-size="10.00" fill="#000000">+ operator&lt;()</text>
<text text-anchor="start" x="695" y="-266.5" font-family="Helvetica,sans-Serif" font-size="10.00" fill="#000000">+ operator!=()</text>
<text text-anchor="start" x="695" y="-255.5" font-family="Helvetica,sans-Serif" font-size="10.00" fill="#000000">+ operator!=()</text>
<text text-anchor="start" x="695" y="-244.5" font-family="Helvetica,sans-Serif" font-size="10.00" fill="#000000">+ as()</text>
<text text-anchor="start" x="695" y="-233.5" font-family="Helvetica,sans-Serif" font-size="10.00" fill="#000000">+ print()</text>
</a>
</g>
</g>
<!-- Node8&#45;&gt;Node2 -->
<g id="edge6" class="edge">
<title>Node8&#45;&gt;Node2</title>
<path fill="none" stroke="#404040" d="M751.813,-226.2685C755.4804,-189.423 765.4052,-150.1662 788,-120 807.8734,-93.4671 840.4031,-76.8253 870.0983,-66.5528"/>
<polygon fill="none" stroke="#404040" points="870.3194,-66.4813 874.7982,-60.8298 881.7377,-62.7904 877.2589,-68.4419 870.3194,-66.4813"/>
<text text-anchor="middle" x="813.5" y="-128.5" font-family="Helvetica,sans-Serif" font-size="10.00" fill="#000000"> #mOrigin</text>
</g>
<!-- Node9 -->
<g id="node8" class="node">
<title>Node9</title>
<polygon fill="none" stroke="#bfbfbf" points="415.5,-1063.5 415.5,-1120.5 454.5,-1120.5 454.5,-1063.5 415.5,-1063.5"/>
<text text-anchor="middle" x="435" y="-1108.5" font-family="Helvetica,sans-Serif" font-size="10.00" fill="#000000">Type</text>
<polyline fill="none" stroke="#bfbfbf" points="415.5,-1101.5 454.5,-1101.5 "/>
<text text-anchor="middle" x="435" y="-1089.5" font-family="Helvetica,sans-Serif" font-size="10.00" fill="#000000"> </text>
<polyline fill="none" stroke="#bfbfbf" points="415.5,-1082.5 454.5,-1082.5 "/>
<text text-anchor="middle" x="435" y="-1070.5" font-family="Helvetica,sans-Serif" font-size="10.00" fill="#000000"> </text>
</g>
<!-- Node9&#45;&gt;Node8 -->
<g id="edge7" class="edge">
<title>Node9&#45;&gt;Node8</title>
<path fill="none" stroke="#404040" d="M432.3066,-1063.3969C426.3036,-991.1007 415.0957,-795.6558 452,-639 463.8585,-588.6617 458.0052,-563.1829 500,-533 564.5677,-486.5933 613.6925,-561.7666 678,-515 697.3291,-500.9432 711.9364,-481.0292 722.9542,-459.5885"/>
<polygon fill="none" stroke="#404040" points="723.0331,-459.4246 722.0305,-452.2835 728.2367,-448.6115 729.2392,-455.7526 723.0331,-459.4246"/>
<text text-anchor="middle" x="464.5" y="-814" font-family="Helvetica,sans-Serif" font-size="10.00" fill="#000000"> +itg</text>
</g>
<!-- Node13 -->
<g id="node12" class="node">
<title>Node13</title>
<g id="a_node12"><a xlink:href="../../d9/db3/structo2_1_1header_1_1Descriptor.html" target="_top" xlink:title="{o2::header::Descriptor\l\&lt; N, PrinterPolicy \&gt;\n||+ Descriptor()\l+ Descriptor()\l+ Descriptor()\l+ operator=()\l+ operator ItgType()\l+ Descriptor()\l+ runtimeInit()\l+ operator==()\l+ operator\&lt;()\l+ operator!=()\l+ operator==()\l+ operator!=()\l+ as()\l+ print()\l}">
<polygon fill="none" stroke="#000000" points="544.5,-711 544.5,-922 669.5,-922 669.5,-711 544.5,-711"/>
<text text-anchor="start" x="552.5" y="-910" font-family="Helvetica,sans-Serif" font-size="10.00" fill="#000000">o2::header::Descriptor</text>
<text text-anchor="middle" x="607" y="-899" font-family="Helvetica,sans-Serif" font-size="10.00" fill="#000000">&lt; N, PrinterPolicy &gt;</text>
<polyline fill="none" stroke="#000000" points="544.5,-892 669.5,-892 "/>
<text text-anchor="middle" x="607" y="-880" font-family="Helvetica,sans-Serif" font-size="10.00" fill="#000000"> </text>
<polyline fill="none" stroke="#000000" points="544.5,-873 669.5,-873 "/>
<text text-anchor="start" x="552.5" y="-861" font-family="Helvetica,sans-Serif" font-size="10.00" fill="#000000">+ Descriptor()</text>
<text text-anchor="start" x="552.5" y="-850" font-family="Helvetica,sans-Serif" font-size="10.00" fill="#000000">+ Descriptor()</text>
<text text-anchor="start" x="552.5" y="-839" font-family="Helvetica,sans-Serif" font-size="10.00" fill="#000000">+ Descriptor()</text>
<text text-anchor="start" x="552.5" y="-828" font-family="Helvetica,sans-Serif" font-size="10.00" fill="#000000">+ operator=()</text>
<text text-anchor="start" x="552.5" y="-817" font-family="Helvetica,sans-Serif" font-size="10.00" fill="#000000">+ operator ItgType()</text>
<text text-anchor="start" x="552.5" y="-806" font-family="Helvetica,sans-Serif" font-size="10.00" fill="#000000">+ Descriptor()</text>
<text text-anchor="start" x="552.5" y="-795" font-family="Helvetica,sans-Serif" font-size="10.00" fill="#000000">+ runtimeInit()</text>
<text text-anchor="start" x="552.5" y="-784" font-family="Helvetica,sans-Serif" font-size="10.00" fill="#000000">+ operator==()</text>
<text text-anchor="start" x="552.5" y="-773" font-family="Helvetica,sans-Serif" font-size="10.00" fill="#000000">+ operator&lt;()</text>
<text text-anchor="start" x="552.5" y="-762" font-family="Helvetica,sans-Serif" font-size="10.00" fill="#000000">+ operator!=()</text>
<text text-anchor="start" x="552.5" y="-751" font-family="Helvetica,sans-Serif" font-size="10.00" fill="#000000">+ operator==()</text>
<text text-anchor="start" x="552.5" y="-740" font-family="Helvetica,sans-Serif" font-size="10.00" fill="#000000">+ operator!=()</text>
<text text-anchor="start" x="552.5" y="-729" font-family="Helvetica,sans-Serif" font-size="10.00" fill="#000000">+ as()</text>
<text text-anchor="start" x="552.5" y="-718" font-family="Helvetica,sans-Serif" font-size="10.00" fill="#000000">+ print()</text>
</a>
</g>
</g>
<!-- Node9&#45;&gt;Node13 -->
<g id="edge12" class="edge">
<title>Node9&#45;&gt;Node13</title>
<path fill="none" stroke="#404040" d="M454.6176,-1075.6417C475.4817,-1057.4352 508.3927,-1026.3004 530,-994 542.5645,-975.2175 553.8428,-954.049 563.6433,-933.0455"/>
<polygon fill="none" stroke="#404040" points="563.6588,-933.0113 562.5054,-925.8931 568.6325,-922.0906 569.7859,-929.2089 563.6588,-933.0113"/>
<text text-anchor="middle" x="527.5" y="-1026" font-family="Helvetica,sans-Serif" font-size="10.00" fill="#000000"> +itg</text>
</g>
<!-- Node10 -->
<g id="node9" class="node">
<title>Node10</title>
<polygon fill="none" stroke="#bfbfbf" points="627,-1063.5 627,-1120.5 665,-1120.5 665,-1063.5 627,-1063.5"/>
<text text-anchor="middle" x="646" y="-1108.5" font-family="Helvetica,sans-Serif" font-size="10.00" fill="#000000">char</text>
<polyline fill="none" stroke="#bfbfbf" points="627,-1101.5 665,-1101.5 "/>
<text text-anchor="middle" x="646" y="-1089.5" font-family="Helvetica,sans-Serif" font-size="10.00" fill="#000000"> </text>
<polyline fill="none" stroke="#bfbfbf" points="627,-1082.5 665,-1082.5 "/>
<text text-anchor="middle" x="646" y="-1070.5" font-family="Helvetica,sans-Serif" font-size="10.00" fill="#000000"> </text>
</g>
<!-- Node10&#45;&gt;Node8 -->
<g id="edge8" class="edge">
<title>Node10&#45;&gt;Node8</title>
<path fill="none" stroke="#404040" d="M657.0484,-1063.2569C664.057,-1043.9432 672.7608,-1017.7707 678,-994 699.7298,-895.4099 728.4276,-622.311 744.2559,-461.0951"/>
<polygon fill="none" stroke="#404040" points="744.2974,-460.6708 740.9009,-454.3097 745.4665,-448.7279 748.8629,-455.0891 744.2974,-460.6708"/>
<text text-anchor="middle" x="738.5" y="-814" font-family="Helvetica,sans-Serif" font-size="10.00" fill="#000000"> +str</text>
</g>
<!-- Node10&#45;&gt;Node13 -->
<g id="edge13" class="edge">
<title>Node10&#45;&gt;Node13</title>
<path fill="none" stroke="#404040" d="M629.0997,-1063.4125C626.2698,-1057.4988 623.7035,-1051.183 622,-1045 612.2758,-1009.7042 607.6067,-970.2336 605.614,-934.159"/>
<polygon fill="none" stroke="#404040" points="605.609,-934.0525 601.3278,-928.2498 605.0374,-922.0661 609.3187,-927.8688 605.609,-934.0525"/>
<text text-anchor="middle" x="634.5" y="-1026" font-family="Helvetica,sans-Serif" font-size="10.00" fill="#000000"> +str</text>
</g>
<!-- Node11 -->
<g id="node10" class="node">
<title>Node11</title>
<polygon fill="none" stroke="#bfbfbf" points="752.5,-1063.5 752.5,-1120.5 781.5,-1120.5 781.5,-1063.5 752.5,-1063.5"/>
<text text-anchor="middle" x="767" y="-1108.5" font-family="Helvetica,sans-Serif" font-size="10.00" fill="#000000">int</text>
<polyline fill="none" stroke="#bfbfbf" points="752.5,-1101.5 781.5,-1101.5 "/>
<text text-anchor="middle" x="767" y="-1089.5" font-family="Helvetica,sans-Serif" font-size="10.00" fill="#000000"> </text>
<polyline fill="none" stroke="#bfbfbf" points="752.5,-1082.5 781.5,-1082.5 "/>
<text text-anchor="middle" x="767" y="-1070.5" font-family="Helvetica,sans-Serif" font-size="10.00" fill="#000000"> </text>
</g>
<!-- Node11&#45;&gt;Node2 -->
<g id="edge21" class="edge">
<title>Node11&#45;&gt;Node2</title>
<path fill="none" stroke="#404040" d="M781.6859,-1074.5886C796.4052,-1055.9836 818.2404,-1024.9642 828,-994 939.5887,-639.9637 764.7878,-515.0829 873,-160 877.9876,-143.6341 885.9299,-127.1677 894.5757,-112.1677"/>
<polygon fill="none" stroke="#404040" points="894.787,-111.8155 894.4456,-104.6125 900.9632,-101.5269 901.3047,-108.7299 894.787,-111.8155"/>
<text text-anchor="middle" x="929" y="-613" font-family="Helvetica,sans-Serif" font-size="10.00" fill="#000000"> #mTrackBranchName</text>
<text text-anchor="middle" x="929" y="-602" font-family="Helvetica,sans-Serif" font-size="10.00" fill="#000000">#mClusIdxBranchName</text>
<text text-anchor="middle" x="929" y="-591" font-family="Helvetica,sans-Serif" font-size="10.00" fill="#000000">#mVertexROFBranchName</text>
<text text-anchor="middle" x="929" y="-580" font-family="Helvetica,sans-Serif" font-size="10.00" fill="#000000">#mROFBranchName</text>
<text text-anchor="middle" x="929" y="-569" font-family="Helvetica,sans-Serif" font-size="10.00" fill="#000000">#mVertexBranchName</text>
<text text-anchor="middle" x="929" y="-558" font-family="Helvetica,sans-Serif" font-size="10.00" fill="#000000">#mTrackMCTruthBranchName</text>
<text text-anchor="middle" x="929" y="-547" font-family="Helvetica,sans-Serif" font-size="10.00" fill="#000000">#mInputFileName</text>
<text text-anchor="middle" x="929" y="-536" font-family="Helvetica,sans-Serif" font-size="10.00" fill="#000000">#mTrackTreeName</text>
</g>
<!-- Node11&#45;&gt;Node8 -->
<g id="edge9" class="edge">
<title>Node11&#45;&gt;Node8</title>
<path fill="none" stroke="#404040" d="M766.5822,-1063.344C765.1561,-965.5252 760.4234,-640.9066 757.7964,-460.7156"/>
<polygon fill="none" stroke="#404040" points="757.7937,-460.5269 753.7066,-454.5858 757.6187,-448.5281 761.7058,-454.4691 757.7937,-460.5269"/>
<text text-anchor="middle" x="795" y="-825" font-family="Helvetica,sans-Serif" font-size="10.00" fill="#000000"> +arraySize</text>
<text text-anchor="middle" x="795" y="-814" font-family="Helvetica,sans-Serif" font-size="10.00" fill="#000000">+size</text>
<text text-anchor="middle" x="795" y="-803" font-family="Helvetica,sans-Serif" font-size="10.00" fill="#000000">+bitcount</text>
</g>
<!-- Node11&#45;&gt;Node13 -->
<g id="edge14" class="edge">
<title>Node11&#45;&gt;Node13</title>
<path fill="none" stroke="#404040" d="M752.3379,-1085.8015C736.2301,-1078.3095 710.5821,-1064.2674 695,-1045 668.9576,-1012.7984 649.992,-972.014 636.4884,-933.8427"/>
<polygon fill="none" stroke="#404040" points="636.3534,-933.4475 630.6274,-929.0641 632.4713,-922.0927 638.1972,-926.4761 636.3534,-933.4475"/>
<text text-anchor="middle" x="724" y="-1037" font-family="Helvetica,sans-Serif" font-size="10.00" fill="#000000"> +arraySize</text>
<text text-anchor="middle" x="724" y="-1026" font-family="Helvetica,sans-Serif" font-size="10.00" fill="#000000">+size</text>
<text text-anchor="middle" x="724" y="-1015" font-family="Helvetica,sans-Serif" font-size="10.00" fill="#000000">+bitcount</text>
</g>
<!-- Node12 -->
<g id="node11" class="node">
<title>Node12</title>
<polygon fill="none" stroke="#bfbfbf" points="485.5,-1063.5 485.5,-1120.5 592.5,-1120.5 592.5,-1063.5 485.5,-1063.5"/>
<text text-anchor="middle" x="539" y="-1108.5" font-family="Helvetica,sans-Serif" font-size="10.00" fill="#000000">anonymous:+@38</text>
<polyline fill="none" stroke="#bfbfbf" points="485.5,-1101.5 592.5,-1101.5 "/>
<text text-anchor="middle" x="539" y="-1089.5" font-family="Helvetica,sans-Serif" font-size="10.00" fill="#000000"> </text>
<polyline fill="none" stroke="#bfbfbf" points="485.5,-1082.5 592.5,-1082.5 "/>
<text text-anchor="middle" x="539" y="-1070.5" font-family="Helvetica,sans-Serif" font-size="10.00" fill="#000000"> </text>
</g>
<!-- Node12&#45;&gt;Node8 -->
<g id="edge10" class="edge">
<title>Node12&#45;&gt;Node8</title>
<path fill="none" stroke="#404040" d="M524.5934,-1063.2446C515.8501,-1044.1436 505.5304,-1018.2149 501,-994 471.9846,-838.9131 476.6121,-794.8815 501,-639 508.6475,-590.1193 496.9311,-564.6 535,-533 584.2889,-492.0865 626.6579,-553.3054 678,-515 697.0405,-500.7942 711.5109,-480.9304 722.4838,-459.6081"/>
<polygon fill="none" stroke="#404040" points="722.5344,-459.503 721.5405,-452.3607 727.7511,-448.6962 728.745,-455.8385 722.5344,-459.503"/>
<text text-anchor="middle" x="518" y="-814" font-family="Helvetica,sans-Serif" font-size="10.00" fill="#000000"> +@38</text>
</g>
<!-- Node12&#45;&gt;Node13 -->
<g id="edge15" class="edge">
<title>Node12&#45;&gt;Node13</title>
<path fill="none" stroke="#404040" d="M546.0848,-1063.2963C553.6897,-1032.485 566.2677,-981.5258 578.0257,-933.8886"/>
<polygon fill="none" stroke="#404040" points="578.0385,-933.8364 575.5929,-927.0527 580.9141,-922.1861 583.3598,-928.9698 578.0385,-933.8364"/>
<text text-anchor="middle" x="575" y="-1026" font-family="Helvetica,sans-Serif" font-size="10.00" fill="#000000"> +@38</text>
</g>
<!-- Node13&#45;&gt;Node8 -->
<g id="edge11" class="edge">
<title>Node13&#45;&gt;Node8</title>
<path fill="none" stroke="#ffa500" d="M552.7385,-701.0162C534.8017,-644.3891 528.0997,-578.7167 567,-533 599.3879,-494.9369 638.48,-545.5933 678,-515 699.8257,-498.1042 715.6721,-473.8208 727.1304,-448.6159"/>
<polygon fill="#ffa500" stroke="#ffa500" points="549.4941,-702.3528 555.9576,-710.7476 556.1399,-700.1543 549.4941,-702.3528"/>
<text text-anchor="start" x="567" y="-580" font-family="Helvetica,sans-Serif" font-size="10.00" fill="#000000"> &lt; gSizeDataOriginString,</text>
<text text-anchor="middle" x="629.5" y="-569" font-family="Helvetica,sans-Serif" font-size="10.00" fill="#000000"> printDataOrigin &gt;</text>
</g>
<!-- Node14 -->
<g id="node13" class="node">
<title>Node14</title>
<polygon fill="none" stroke="#bfbfbf" points="881.5,-309 881.5,-366 994.5,-366 994.5,-309 881.5,-309"/>
<text text-anchor="middle" x="938" y="-354" font-family="Helvetica,sans-Serif" font-size="10.00" fill="#000000">unique_ptr&lt; TFile &gt;</text>
<polyline fill="none" stroke="#bfbfbf" points="881.5,-347 994.5,-347 "/>
<text text-anchor="middle" x="938" y="-335" font-family="Helvetica,sans-Serif" font-size="10.00" fill="#000000"> </text>
<polyline fill="none" stroke="#bfbfbf" points="881.5,-328 994.5,-328 "/>
<text text-anchor="middle" x="938" y="-316" font-family="Helvetica,sans-Serif" font-size="10.00" fill="#000000"> </text>
</g>
<!-- Node14&#45;&gt;Node2 -->
<g id="edge16" class="edge">
<title>Node14&#45;&gt;Node2</title>
<path fill="none" stroke="#404040" d="M938,-308.9819C938,-263.7624 938,-174.5243 938,-113.8106"/>
<polygon fill="none" stroke="#404040" points="938.0001,-113.6921 934,-107.6921 938,-101.6921 942,-107.6921 938.0001,-113.6921"/>
<text text-anchor="middle" x="957" y="-128.5" font-family="Helvetica,sans-Serif" font-size="10.00" fill="#000000"> #mFile</text>
</g>
<!-- Node15 -->
<g id="node14" class="node">
<title>Node15</title>
<polygon fill="none" stroke="#bfbfbf" points="1012.5,-309 1012.5,-366 1129.5,-366 1129.5,-309 1012.5,-309"/>
<text text-anchor="middle" x="1071" y="-354" font-family="Helvetica,sans-Serif" font-size="10.00" fill="#000000">unique_ptr&lt; TTree &gt;</text>
<polyline fill="none" stroke="#bfbfbf" points="1012.5,-347 1129.5,-347 "/>
<text text-anchor="middle" x="1071" y="-335" font-family="Helvetica,sans-Serif" font-size="10.00" fill="#000000"> </text>
<polyline fill="none" stroke="#bfbfbf" points="1012.5,-328 1129.5,-328 "/>
<text text-anchor="middle" x="1071" y="-316" font-family="Helvetica,sans-Serif" font-size="10.00" fill="#000000"> </text>
</g>
<!-- Node15&#45;&gt;Node2 -->
<g id="edge17" class="edge">
<title>Node15&#45;&gt;Node2</title>
<path fill="none" stroke="#404040" d="M1061.962,-308.8702C1050.3125,-273.2293 1028.6051,-210.8488 1004,-160 994.9696,-141.3378 990.7232,-137.7437 980,-120 978.445,-117.427 976.856,-114.8011 975.2494,-112.1491"/>
<polygon fill="none" stroke="#404040" points="975.2248,-112.1084 968.693,-109.0528 969.0014,-101.8483 975.5331,-104.9039 975.2248,-112.1084"/>
<text text-anchor="middle" x="1014" y="-128.5" font-family="Helvetica,sans-Serif" font-size="10.00" fill="#000000"> #mTree</text>
</g>
<!-- Node16 -->
<g id="node15" class="node">
<title>Node16</title>
<g id="a_node15"><a xlink:href="../../dc/daa/classo2_1_1dataformats_1_1MCTruthContainer.html" target="_top" xlink:title="{o2::dataformats::MCTruth\lContainer\&lt; o2::MCCompLabel \&gt;\n||+ MCTruthContainer()\l+ MCTruthContainer()\l+ MCTruthContainer()\l+ MCTruthContainer()\l+ ~MCTruthContainer()\l+ operator=()\l+ operator=()\l+ getMCTruthHeader()\l+ getElement()\l+ getIndexedSize()\l+ getNElements()\l+ getLabels()\l+ getLabels()\l+ clear()\l+ addElement()\l+ addElements()\l+ addElements()\l+ addElementRandomAccess()\l+ setFrom()\l+ mergeAtBack()\l+ mergeAtBack()\l+ flatten_to()\l+ restore_from()\l+ print()\l+ inflate()\l+ deflate()\l+ ClassDefNV()\l}">
<polygon fill="none" stroke="#000000" points="1148,-160.5 1148,-514.5 1322,-514.5 1322,-160.5 1148,-160.5"/>
<text text-anchor="start" x="1156" y="-502.5" font-family="Helvetica,sans-Serif" font-size="10.00" fill="#000000">o2::dataformats::MCTruth</text>
<text text-anchor="middle" x="1235" y="-491.5" font-family="Helvetica,sans-Serif" font-size="10.00" fill="#000000">Container&lt; o2::MCCompLabel &gt;</text>
<polyline fill="none" stroke="#000000" points="1148,-484.5 1322,-484.5 "/>
<text text-anchor="middle" x="1235" y="-472.5" font-family="Helvetica,sans-Serif" font-size="10.00" fill="#000000"> </text>
<polyline fill="none" stroke="#000000" points="1148,-465.5 1322,-465.5 "/>
<text text-anchor="start" x="1156" y="-453.5" font-family="Helvetica,sans-Serif" font-size="10.00" fill="#000000">+ MCTruthContainer()</text>
<text text-anchor="start" x="1156" y="-442.5" font-family="Helvetica,sans-Serif" font-size="10.00" fill="#000000">+ MCTruthContainer()</text>
<text text-anchor="start" x="1156" y="-431.5" font-family="Helvetica,sans-Serif" font-size="10.00" fill="#000000">+ MCTruthContainer()</text>
<text text-anchor="start" x="1156" y="-420.5" font-family="Helvetica,sans-Serif" font-size="10.00" fill="#000000">+ MCTruthContainer()</text>
<text text-anchor="start" x="1156" y="-409.5" font-family="Helvetica,sans-Serif" font-size="10.00" fill="#000000">+ ~MCTruthContainer()</text>
<text text-anchor="start" x="1156" y="-398.5" font-family="Helvetica,sans-Serif" font-size="10.00" fill="#000000">+ operator=()</text>
<text text-anchor="start" x="1156" y="-387.5" font-family="Helvetica,sans-Serif" font-size="10.00" fill="#000000">+ operator=()</text>
<text text-anchor="start" x="1156" y="-376.5" font-family="Helvetica,sans-Serif" font-size="10.00" fill="#000000">+ getMCTruthHeader()</text>
<text text-anchor="start" x="1156" y="-365.5" font-family="Helvetica,sans-Serif" font-size="10.00" fill="#000000">+ getElement()</text>
<text text-anchor="start" x="1156" y="-354.5" font-family="Helvetica,sans-Serif" font-size="10.00" fill="#000000">+ getIndexedSize()</text>
<text text-anchor="start" x="1156" y="-343.5" font-family="Helvetica,sans-Serif" font-size="10.00" fill="#000000">+ getNElements()</text>
<text text-anchor="start" x="1156" y="-332.5" font-family="Helvetica,sans-Serif" font-size="10.00" fill="#000000">+ getLabels()</text>
<text text-anchor="start" x="1156" y="-321.5" font-family="Helvetica,sans-Serif" font-size="10.00" fill="#000000">+ getLabels()</text>
<text text-anchor="start" x="1156" y="-310.5" font-family="Helvetica,sans-Serif" font-size="10.00" fill="#000000">+ clear()</text>
<text text-anchor="start" x="1156" y="-299.5" font-family="Helvetica,sans-Serif" font-size="10.00" fill="#000000">+ addElement()</text>
<text text-anchor="start" x="1156" y="-288.5" font-family="Helvetica,sans-Serif" font-size="10.00" fill="#000000">+ addElements()</text>
<text text-anchor="start" x="1156" y="-277.5" font-family="Helvetica,sans-Serif" font-size="10.00" fill="#000000">+ addElements()</text>
<text text-anchor="start" x="1156" y="-266.5" font-family="Helvetica,sans-Serif" font-size="10.00" fill="#000000">+ addElementRandomAccess()</text>
<text text-anchor="start" x="1156" y="-255.5" font-family="Helvetica,sans-Serif" font-size="10.00" fill="#000000">+ setFrom()</text>
<text text-anchor="start" x="1156" y="-244.5" font-family="Helvetica,sans-Serif" font-size="10.00" fill="#000000">+ mergeAtBack()</text>
<text text-anchor="start" x="1156" y="-233.5" font-family="Helvetica,sans-Serif" font-size="10.00" fill="#000000">+ mergeAtBack()</text>
<text text-anchor="start" x="1156" y="-222.5" font-family="Helvetica,sans-Serif" font-size="10.00" fill="#000000">+ flatten_to()</text>
<text text-anchor="start" x="1156" y="-211.5" font-family="Helvetica,sans-Serif" font-size="10.00" fill="#000000">+ restore_from()</text>
<text text-anchor="start" x="1156" y="-200.5" font-family="Helvetica,sans-Serif" font-size="10.00" fill="#000000">+ print()</text>
<text text-anchor="start" x="1156" y="-189.5" font-family="Helvetica,sans-Serif" font-size="10.00" fill="#000000">+ inflate()</text>
<text text-anchor="start" x="1156" y="-178.5" font-family="Helvetica,sans-Serif" font-size="10.00" fill="#000000">+ deflate()</text>
<text text-anchor="start" x="1156" y="-167.5" font-family="Helvetica,sans-Serif" font-size="10.00" fill="#000000">+ ClassDefNV()</text>
</a>
</g>
</g>
<!-- Node16&#45;&gt;Node2 -->
<g id="edge18" class="edge">
<title>Node16&#45;&gt;Node2</title>
<path fill="none" stroke="#404040" d="M1147.7103,-169.2398C1144.8746,-166.06 1141.9711,-162.9744 1139,-160 1101.2722,-122.2301 1047.7143,-94.0629 1005.3695,-75.8325"/>
<polygon fill="none" stroke="#404040" points="1005.3685,-75.8321 998.2875,-77.1955 994.3055,-71.1835 1001.3866,-69.8201 1005.3685,-75.8321"/>
<text text-anchor="middle" x="1153" y="-134" font-family="Helvetica,sans-Serif" font-size="10.00" fill="#000000"> #mMCTruthInp</text>
<text text-anchor="middle" x="1153" y="-123" font-family="Helvetica,sans-Serif" font-size="10.00" fill="#000000">#mMCTruth</text>
</g>
<!-- Node17 -->
<g id="node16" class="node">
<title>Node17</title>
<g id="a_node16"><a xlink:href="../../dc/daa/classo2_1_1dataformats_1_1MCTruthContainer.html" target="_top" xlink:title="A container to hold and manage MC truth information/labels. ">
<polygon fill="none" stroke="#000000" points="1151,-639.5 1151,-993.5 1319,-993.5 1319,-639.5 1151,-639.5"/>
<text text-anchor="start" x="1159" y="-981.5" font-family="Helvetica,sans-Serif" font-size="10.00" fill="#000000">o2::dataformats::MCTruth</text>
<text text-anchor="middle" x="1235" y="-970.5" font-family="Helvetica,sans-Serif" font-size="10.00" fill="#000000">Container&lt; TruthElement &gt;</text>
<polyline fill="none" stroke="#000000" points="1151,-963.5 1319,-963.5 "/>
<text text-anchor="middle" x="1235" y="-951.5" font-family="Helvetica,sans-Serif" font-size="10.00" fill="#000000"> </text>
<polyline fill="none" stroke="#000000" points="1151,-944.5 1319,-944.5 "/>
<text text-anchor="start" x="1159" y="-932.5" font-family="Helvetica,sans-Serif" font-size="10.00" fill="#000000">+ MCTruthContainer()</text>
<text text-anchor="start" x="1159" y="-921.5" font-family="Helvetica,sans-Serif" font-size="10.00" fill="#000000">+ ~MCTruthContainer()</text>
<text text-anchor="start" x="1159" y="-910.5" font-family="Helvetica,sans-Serif" font-size="10.00" fill="#000000">+ MCTruthContainer()</text>
<text text-anchor="start" x="1159" y="-899.5" font-family="Helvetica,sans-Serif" font-size="10.00" fill="#000000">+ MCTruthContainer()</text>
<text text-anchor="start" x="1159" y="-888.5" font-family="Helvetica,sans-Serif" font-size="10.00" fill="#000000">+ MCTruthContainer()</text>
<text text-anchor="start" x="1159" y="-877.5" font-family="Helvetica,sans-Serif" font-size="10.00" fill="#000000">+ operator=()</text>
<text text-anchor="start" x="1159" y="-866.5" font-family="Helvetica,sans-Serif" font-size="10.00" fill="#000000">+ operator=()</text>
<text text-anchor="start" x="1159" y="-855.5" font-family="Helvetica,sans-Serif" font-size="10.00" fill="#000000">+ getMCTruthHeader()</text>
<text text-anchor="start" x="1159" y="-844.5" font-family="Helvetica,sans-Serif" font-size="10.00" fill="#000000">+ getElement()</text>
<text text-anchor="start" x="1159" y="-833.5" font-family="Helvetica,sans-Serif" font-size="10.00" fill="#000000">+ getIndexedSize()</text>
<text text-anchor="start" x="1159" y="-822.5" font-family="Helvetica,sans-Serif" font-size="10.00" fill="#000000">+ getNElements()</text>
<text text-anchor="start" x="1159" y="-811.5" font-family="Helvetica,sans-Serif" font-size="10.00" fill="#000000">+ getLabels()</text>
<text text-anchor="start" x="1159" y="-800.5" font-family="Helvetica,sans-Serif" font-size="10.00" fill="#000000">+ getLabels()</text>
<text text-anchor="start" x="1159" y="-789.5" font-family="Helvetica,sans-Serif" font-size="10.00" fill="#000000">+ clear()</text>
<text text-anchor="start" x="1159" y="-778.5" font-family="Helvetica,sans-Serif" font-size="10.00" fill="#000000">+ addElement()</text>
<text text-anchor="start" x="1159" y="-767.5" font-family="Helvetica,sans-Serif" font-size="10.00" fill="#000000">+ addElements()</text>
<text text-anchor="start" x="1159" y="-756.5" font-family="Helvetica,sans-Serif" font-size="10.00" fill="#000000">+ addElements()</text>
<text text-anchor="start" x="1159" y="-745.5" font-family="Helvetica,sans-Serif" font-size="10.00" fill="#000000">+ addElementRandomAccess()</text>
<text text-anchor="start" x="1159" y="-734.5" font-family="Helvetica,sans-Serif" font-size="10.00" fill="#000000">+ setFrom()</text>
<text text-anchor="start" x="1159" y="-723.5" font-family="Helvetica,sans-Serif" font-size="10.00" fill="#000000">+ mergeAtBack()</text>
<text text-anchor="start" x="1159" y="-712.5" font-family="Helvetica,sans-Serif" font-size="10.00" fill="#000000">+ mergeAtBack()</text>
<text text-anchor="start" x="1159" y="-701.5" font-family="Helvetica,sans-Serif" font-size="10.00" fill="#000000">+ flatten_to()</text>
<text text-anchor="start" x="1159" y="-690.5" font-family="Helvetica,sans-Serif" font-size="10.00" fill="#000000">+ restore_from()</text>
<text text-anchor="start" x="1159" y="-679.5" font-family="Helvetica,sans-Serif" font-size="10.00" fill="#000000">+ print()</text>
<text text-anchor="start" x="1159" y="-668.5" font-family="Helvetica,sans-Serif" font-size="10.00" fill="#000000">+ inflate()</text>
<text text-anchor="start" x="1159" y="-657.5" font-family="Helvetica,sans-Serif" font-size="10.00" fill="#000000">+ deflate()</text>
<text text-anchor="start" x="1159" y="-646.5" font-family="Helvetica,sans-Serif" font-size="10.00" fill="#000000">+ ClassDefNV()</text>
</a>
</g>
</g>
<!-- Node17&#45;&gt;Node16 -->
<g id="edge19" class="edge">
<title>Node17&#45;&gt;Node16</title>
<path fill="none" stroke="#ffa500" d="M1235,-629.415C1235,-591.6256 1235,-552.0056 1235,-514.5727"/>
<polygon fill="#ffa500" stroke="#ffa500" points="1231.5001,-629.499 1235,-639.499 1238.5001,-629.499 1231.5001,-629.499"/>
<text text-anchor="middle" x="1292" y="-574.5" font-family="Helvetica,sans-Serif" font-size="10.00" fill="#000000"> &lt; o2::MCCompLabel &gt;</text>
</g>
<!-- Node18 -->
<g id="node17" class="node">
<title>Node18</title>
<polygon fill="none" stroke="#bfbfbf" points="1340.5,-309 1340.5,-366 1423.5,-366 1423.5,-309 1340.5,-309"/>
<text text-anchor="middle" x="1382" y="-354" font-family="Helvetica,sans-Serif" font-size="10.00" fill="#000000">vector&lt; int &gt;</text>
<polyline fill="none" stroke="#bfbfbf" points="1340.5,-347 1423.5,-347 "/>
<text text-anchor="middle" x="1382" y="-335" font-family="Helvetica,sans-Serif" font-size="10.00" fill="#000000"> </text>
<polyline fill="none" stroke="#bfbfbf" points="1340.5,-328 1423.5,-328 "/>
<text text-anchor="middle" x="1382" y="-316" font-family="Helvetica,sans-Serif" font-size="10.00" fill="#000000"> </text>
</g>
<!-- Node18&#45;&gt;Node2 -->
<g id="edge20" class="edge">
<title>Node18&#45;&gt;Node2</title>
<path fill="none" stroke="#404040" d="M1381.8558,-308.7228C1380.0696,-269.6972 1371.0032,-200.2546 1331,-160 1285.6042,-114.3189 1106.2804,-78.5202 1006.2886,-61.6257"/>
<polygon fill="none" stroke="#404040" points="1006.043,-61.5848 999.4667,-64.5434 994.2064,-59.611 1000.7826,-56.6524 1006.043,-61.5848"/>
<text text-anchor="middle" x="1333" y="-128.5" font-family="Helvetica,sans-Serif" font-size="10.00" fill="#000000"> #mClusInd</text>
</g>
<!-- Node19 -->
<g id="node18" class="node">
<title>Node19</title>
<polygon fill="none" stroke="#bfbfbf" points="1442,-309 1442,-366 1480,-366 1480,-309 1442,-309"/>
<text text-anchor="middle" x="1461" y="-354" font-family="Helvetica,sans-Serif" font-size="10.00" fill="#000000">bool</text>
<polyline fill="none" stroke="#bfbfbf" points="1442,-347 1480,-347 "/>
<text text-anchor="middle" x="1461" y="-335" font-family="Helvetica,sans-Serif" font-size="10.00" fill="#000000"> </text>
<polyline fill="none" stroke="#bfbfbf" points="1442,-328 1480,-328 "/>
<text text-anchor="middle" x="1461" y="-316" font-family="Helvetica,sans-Serif" font-size="10.00" fill="#000000"> </text>
</g>
<!-- Node19&#45;&gt;Node2 -->
<g id="edge22" class="edge">
<title>Node19&#45;&gt;Node2</title>
<path fill="none" stroke="#404040" d="M1463.5645,-308.6968C1465.4243,-271.1874 1463.4916,-205.0982 1433,-160 1413.575,-131.2697 1398.5898,-131.8604 1366,-120 1244.1537,-75.6564 1092.4727,-59.7474 1006.293,-54.0844"/>
<polygon fill="none" stroke="#404040" points="1006.0412,-54.0687 999.8037,-57.6871 994.0646,-53.321 1000.3021,-49.7026 1006.0412,-54.0687"/>
<text text-anchor="middle" x="1444.5" y="-128.5" font-family="Helvetica,sans-Serif" font-size="10.00" fill="#000000"> #mUseMC</text>
</g>
<!-- Node20 -->
<g id="node19" class="node">
<title>Node20</title>
<polygon fill="none" stroke="#bfbfbf" points="1498.5,-309 1498.5,-366 1653.5,-366 1653.5,-309 1498.5,-309"/>
<text text-anchor="middle" x="1576" y="-354" font-family="Helvetica,sans-Serif" font-size="10.00" fill="#000000">vector&lt; o2::its::TrackITS &gt; *</text>
<polyline fill="none" stroke="#bfbfbf" points="1498.5,-347 1653.5,-347 "/>
<text text-anchor="middle" x="1576" y="-335" font-family="Helvetica,sans-Serif" font-size="10.00" fill="#000000"> </text>
<polyline fill="none" stroke="#bfbfbf" points="1498.5,-328 1653.5,-328 "/>
<text text-anchor="middle" x="1576" y="-316" font-family="Helvetica,sans-Serif" font-size="10.00" fill="#000000"> </text>
</g>
<!-- Node20&#45;&gt;Node2 -->
<g id="edge23" class="edge">
<title>Node20&#45;&gt;Node2</title>
<path fill="none" stroke="#404040" d="M1571.7713,-308.6448C1563.1189,-260.8618 1538.6281,-166.0192 1476,-120 1438.7926,-92.66 1142.8208,-66.7125 1006.4134,-56.0709"/>
<polygon fill="none" stroke="#404040" points="1006.0816,-56.0453 999.7908,-59.5704 994.1173,-55.1194 1000.4081,-51.5942 1006.0816,-56.0453"/>
<text text-anchor="middle" x="1532.5" y="-128.5" font-family="Helvetica,sans-Serif" font-size="10.00" fill="#000000"> #mTracksInp</text>
</g>
<!-- Node21 -->
<g id="node20" class="node">
<title>Node21</title>
<polygon fill="none" stroke="#bfbfbf" points="1671.5,-303.5 1671.5,-371.5 1808.5,-371.5 1808.5,-303.5 1671.5,-303.5"/>
<text text-anchor="start" x="1679.5" y="-359.5" font-family="Helvetica,sans-Serif" font-size="10.00" fill="#000000">vector&lt; o2::dataformats</text>
<text text-anchor="middle" x="1740" y="-348.5" font-family="Helvetica,sans-Serif" font-size="10.00" fill="#000000">::Vertex &gt; *</text>
<polyline fill="none" stroke="#bfbfbf" points="1671.5,-341.5 1808.5,-341.5 "/>
<text text-anchor="middle" x="1740" y="-329.5" font-family="Helvetica,sans-Serif" font-size="10.00" fill="#000000"> </text>
<polyline fill="none" stroke="#bfbfbf" points="1671.5,-322.5 1808.5,-322.5 "/>
<text text-anchor="middle" x="1740" y="-310.5" font-family="Helvetica,sans-Serif" font-size="10.00" fill="#000000"> </text>
</g>
<!-- Node21&#45;&gt;Node2 -->
<g id="edge24" class="edge">
<title>Node21&#45;&gt;Node2</title>
<path fill="none" stroke="#404040" d="M1733.2114,-303.4709C1723.7604,-264.215 1703.0846,-199.96 1663,-160 1631.1347,-128.2338 1613.5113,-131.457 1570,-120 1464.8369,-92.3093 1147.1126,-66.3655 1006.3683,-55.886"/>
<polygon fill="none" stroke="#404040" points="1006.0865,-55.8652 999.8077,-59.4116 994.1192,-54.9797 1000.398,-51.4334 1006.0865,-55.8652"/>
<text text-anchor="middle" x="1678" y="-128.5" font-family="Helvetica,sans-Serif" font-size="10.00" fill="#000000"> #mVerticesInp</text>
</g>
<!-- Node22 -->
<g id="node21" class="node">
<title>Node22</title>
<polygon fill="none" stroke="#bfbfbf" points="1827,-303.5 1827,-371.5 1933,-371.5 1933,-303.5 1827,-303.5"/>
<text text-anchor="start" x="1835" y="-359.5" font-family="Helvetica,sans-Serif" font-size="10.00" fill="#000000">vector&lt; o2::itsmft</text>
<text text-anchor="middle" x="1880" y="-348.5" font-family="Helvetica,sans-Serif" font-size="10.00" fill="#000000">::ROFRecord &gt; *</text>
<polyline fill="none" stroke="#bfbfbf" points="1827,-341.5 1933,-341.5 "/>
<text text-anchor="middle" x="1880" y="-329.5" font-family="Helvetica,sans-Serif" font-size="10.00" fill="#000000"> </text>
<polyline fill="none" stroke="#bfbfbf" points="1827,-322.5 1933,-322.5 "/>
<text text-anchor="middle" x="1880" y="-310.5" font-family="Helvetica,sans-Serif" font-size="10.00" fill="#000000"> </text>
</g>
<!-- Node22&#45;&gt;Node2 -->
<g id="edge25" class="edge">
<title>Node22&#45;&gt;Node2</title>
<path fill="none" stroke="#404040" d="M1876.4972,-303.4429C1870.7536,-264.1602 1855.8781,-199.8799 1818,-160 1785.602,-125.8898 1765.7205,-131.0803 1720,-120 1585.339,-87.3649 1171.276,-63.0432 1006.5893,-54.4163"/>
<polygon fill="none" stroke="#404040" points="1006.219,-54.3972 1000.0194,-58.0803 994.2351,-53.7742 1000.4347,-50.0911 1006.219,-54.3972"/>
<text text-anchor="middle" x="1850.5" y="-134" font-family="Helvetica,sans-Serif" font-size="10.00" fill="#000000"> #mROFRecInp</text>
<text text-anchor="middle" x="1850.5" y="-123" font-family="Helvetica,sans-Serif" font-size="10.00" fill="#000000">#mVerticesROFRecInp</text>
</g>
</g>
</svg>
