<?xml version="1.0" encoding="UTF-8" standalone="no"?>
<!DOCTYPE svg PUBLIC "-//W3C//DTD SVG 1.1//EN"
 "http://www.w3.org/Graphics/SVG/1.1/DTD/svg11.dtd">
<!-- Generated by graphviz version 2.40.1 (20161225.0304)
 -->
<!-- Title: o2::ctf::EncodedBlocks&lt; H, N, W &gt; Pages: 1 -->
<svg width="736pt" height="760pt"
 viewBox="0.00 0.00 735.50 760.00" xmlns="http://www.w3.org/2000/svg" xmlns:xlink="http://www.w3.org/1999/xlink">
<g id="graph0" class="graph" transform="scale(1 1) rotate(0) translate(4 756)">
<title>o2::ctf::EncodedBlocks&lt; H, N, W &gt;</title>
<!-- Node5 -->
<g id="node1" class="node">
<title>Node5</title>
<polygon fill="#bfbfbf" stroke="#000000" points="200,-.5 200,-497.5 369,-497.5 369,-.5 200,-.5"/>
<text text-anchor="start" x="208" y="-485.5" font-family="Helvetica,sans-Serif" font-size="10.00" fill="#000000">o2::ctf::EncodedBlocks</text>
<text text-anchor="middle" x="284.5" y="-474.5" font-family="Helvetica,sans-Serif" font-size="10.00" fill="#000000">&lt; H, N, W &gt;</text>
<polyline fill="none" stroke="#000000" points="200,-467.5 369,-467.5 "/>
<text text-anchor="middle" x="284.5" y="-455.5" font-family="Helvetica,sans-Serif" font-size="10.00" fill="#000000"> </text>
<polyline fill="none" stroke="#000000" points="200,-448.5 369,-448.5 "/>
<text text-anchor="start" x="208" y="-436.5" font-family="Helvetica,sans-Serif" font-size="10.00" fill="#000000">+ setHeader()</text>
<text text-anchor="start" x="208" y="-425.5" font-family="Helvetica,sans-Serif" font-size="10.00" fill="#000000">+ getHeader()</text>
<text text-anchor="start" x="208" y="-414.5" font-family="Helvetica,sans-Serif" font-size="10.00" fill="#000000">+ getHeader()</text>
<text text-anchor="start" x="208" y="-403.5" font-family="Helvetica,sans-Serif" font-size="10.00" fill="#000000">+ getMetadata()</text>
<text text-anchor="start" x="208" y="-392.5" font-family="Helvetica,sans-Serif" font-size="10.00" fill="#000000">+ setANSHeader()</text>
<text text-anchor="start" x="208" y="-381.5" font-family="Helvetica,sans-Serif" font-size="10.00" fill="#000000">+ getANSHeader()</text>
<text text-anchor="start" x="208" y="-370.5" font-family="Helvetica,sans-Serif" font-size="10.00" fill="#000000">+ getANSHeader()</text>
<text text-anchor="start" x="208" y="-359.5" font-family="Helvetica,sans-Serif" font-size="10.00" fill="#000000">+ empty()</text>
<text text-anchor="start" x="208" y="-348.5" font-family="Helvetica,sans-Serif" font-size="10.00" fill="#000000">+ flat()</text>
<text text-anchor="start" x="208" y="-337.5" font-family="Helvetica,sans-Serif" font-size="10.00" fill="#000000">+ clear()</text>
<text text-anchor="start" x="208" y="-326.5" font-family="Helvetica,sans-Serif" font-size="10.00" fill="#000000">+ compactify()</text>
<text text-anchor="start" x="208" y="-315.5" font-family="Helvetica,sans-Serif" font-size="10.00" fill="#000000">+ size()</text>
<text text-anchor="start" x="208" y="-304.5" font-family="Helvetica,sans-Serif" font-size="10.00" fill="#000000">+ getFreeSize()</text>
<text text-anchor="start" x="208" y="-293.5" font-family="Helvetica,sans-Serif" font-size="10.00" fill="#000000">+ copyToFlat()</text>
<text text-anchor="start" x="208" y="-282.5" font-family="Helvetica,sans-Serif" font-size="10.00" fill="#000000">+ copyToFlat()</text>
<text text-anchor="start" x="208" y="-271.5" font-family="Helvetica,sans-Serif" font-size="10.00" fill="#000000">+ appendToTree()</text>
<text text-anchor="start" x="208" y="-260.5" font-family="Helvetica,sans-Serif" font-size="10.00" fill="#000000">+ readFromTree()</text>
<text text-anchor="start" x="208" y="-249.5" font-family="Helvetica,sans-Serif" font-size="10.00" fill="#000000">+ encode()</text>
<text text-anchor="start" x="208" y="-238.5" font-family="Helvetica,sans-Serif" font-size="10.00" fill="#000000">+ encode()</text>
<text text-anchor="start" x="208" y="-227.5" font-family="Helvetica,sans-Serif" font-size="10.00" fill="#000000">+ decode()</text>
<text text-anchor="start" x="208" y="-216.5" font-family="Helvetica,sans-Serif" font-size="10.00" fill="#000000">+ decode()</text>
<text text-anchor="start" x="208" y="-205.5" font-family="Helvetica,sans-Serif" font-size="10.00" fill="#000000">+ print()</text>
<text text-anchor="start" x="208" y="-194.5" font-family="Helvetica,sans-Serif" font-size="10.00" fill="#000000">+ getNBlocks()</text>
<text text-anchor="start" x="208" y="-183.5" font-family="Helvetica,sans-Serif" font-size="10.00" fill="#000000">+ getMinAlignedSize()</text>
<text text-anchor="start" x="208" y="-172.5" font-family="Helvetica,sans-Serif" font-size="10.00" fill="#000000">+ get()</text>
<text text-anchor="start" x="208" y="-161.5" font-family="Helvetica,sans-Serif" font-size="10.00" fill="#000000">+ get()</text>
<text text-anchor="start" x="208" y="-150.5" font-family="Helvetica,sans-Serif" font-size="10.00" fill="#000000">+ getImage()</text>
<text text-anchor="start" x="208" y="-139.5" font-family="Helvetica,sans-Serif" font-size="10.00" fill="#000000">+ create()</text>
<text text-anchor="start" x="208" y="-128.5" font-family="Helvetica,sans-Serif" font-size="10.00" fill="#000000">+ create()</text>
<text text-anchor="start" x="208" y="-117.5" font-family="Helvetica,sans-Serif" font-size="10.00" fill="#000000">+ estimateBlockSize()</text>
<text text-anchor="start" x="208" y="-106.5" font-family="Helvetica,sans-Serif" font-size="10.00" fill="#000000">+ expand()</text>
<text text-anchor="start" x="208" y="-95.5" font-family="Helvetica,sans-Serif" font-size="10.00" fill="#000000">+ readFromTree()</text>
<text text-anchor="start" x="208" y="-84.5" font-family="Helvetica,sans-Serif" font-size="10.00" fill="#000000"># init()</text>
<text text-anchor="start" x="208" y="-73.5" font-family="Helvetica,sans-Serif" font-size="10.00" fill="#000000"># estimateSize()</text>
<text text-anchor="start" x="208" y="-62.5" font-family="Helvetica,sans-Serif" font-size="10.00" fill="#000000"># estimateSizeFromMetadata()</text>
<text text-anchor="start" x="208" y="-51.5" font-family="Helvetica,sans-Serif" font-size="10.00" fill="#000000"># fillFlatCopy()</text>
<text text-anchor="start" x="208" y="-40.5" font-family="Helvetica,sans-Serif" font-size="10.00" fill="#000000"># ClassDefNV()</text>
<text text-anchor="start" x="208" y="-29.5" font-family="Helvetica,sans-Serif" font-size="10.00" fill="#000000"># relocate()</text>
<text text-anchor="start" x="208" y="-18.5" font-family="Helvetica,sans-Serif" font-size="10.00" fill="#000000"># fillTreeBranch()</text>
<text text-anchor="start" x="208" y="-7.5" font-family="Helvetica,sans-Serif" font-size="10.00" fill="#000000"># readTreeBranch()</text>
</g>
<!-- Node6 -->
<g id="node2" class="node">
<title>Node6</title>
<polygon fill="none" stroke="#bfbfbf" points="0,-562 0,-619 161,-619 161,-562 0,-562"/>
<text text-anchor="middle" x="80.5" y="-607" font-family="Helvetica,sans-Serif" font-size="10.00" fill="#000000">array&lt; o2::ctf::Metadata, N &gt;</text>
<polyline fill="none" stroke="#bfbfbf" points="0,-600 161,-600 "/>
<text text-anchor="middle" x="80.5" y="-588" font-family="Helvetica,sans-Serif" font-size="10.00" fill="#000000"> </text>
<polyline fill="none" stroke="#bfbfbf" points="0,-581 161,-581 "/>
<text text-anchor="middle" x="80.5" y="-569" font-family="Helvetica,sans-Serif" font-size="10.00" fill="#000000"> </text>
</g>
<!-- Node6&#45;&gt;Node5 -->
<g id="edge1" class="edge">
<title>Node6&#45;&gt;Node5</title>
<path fill="none" stroke="#404040" d="M97.542,-561.9713C118.9056,-526.2083 157.1476,-462.1904 193.5031,-401.3306"/>
<polygon fill="none" stroke="#404040" points="193.6361,-401.1078 193.2792,-393.9055 199.7902,-390.8059 200.1471,-398.0082 193.6361,-401.1078"/>
<text text-anchor="middle" x="159" y="-519" font-family="Helvetica,sans-Serif" font-size="10.00" fill="#000000"> #mMetadata</text>
</g>
<!-- Node7 -->
<g id="node3" class="node">
<title>Node7</title>
<polygon fill="none" stroke="#bfbfbf" points="179,-562 179,-619 208,-619 208,-562 179,-562"/>
<text text-anchor="middle" x="193.5" y="-607" font-family="Helvetica,sans-Serif" font-size="10.00" fill="#000000">H</text>
<polyline fill="none" stroke="#bfbfbf" points="179,-600 208,-600 "/>
<text text-anchor="middle" x="193.5" y="-588" font-family="Helvetica,sans-Serif" font-size="10.00" fill="#000000"> </text>
<polyline fill="none" stroke="#bfbfbf" points="179,-581 208,-581 "/>
<text text-anchor="middle" x="193.5" y="-569" font-family="Helvetica,sans-Serif" font-size="10.00" fill="#000000"> </text>
</g>
<!-- Node7&#45;&gt;Node5 -->
<g id="edge2" class="edge">
<title>Node7&#45;&gt;Node5</title>
<path fill="none" stroke="#404040" d="M201.1021,-561.9713C204.7964,-548.1074 209.6222,-529.9974 215.0918,-509.4713"/>
<polygon fill="none" stroke="#404040" points="215.1037,-509.4264 212.7836,-502.5987 218.1936,-497.831 220.5138,-504.6587 215.1037,-509.4264"/>
<text text-anchor="middle" x="242" y="-519" font-family="Helvetica,sans-Serif" font-size="10.00" fill="#000000"> #mHeader</text>
</g>
<!-- Node8 -->
<g id="node4" class="node">
<title>Node8</title>
<polygon fill="none" stroke="#bfbfbf" points="226,-556.5 226,-624.5 343,-624.5 343,-556.5 226,-556.5"/>
<text text-anchor="start" x="234" y="-612.5" font-family="Helvetica,sans-Serif" font-size="10.00" fill="#000000">array&lt; o2::ctf::Block</text>
<text text-anchor="middle" x="284.5" y="-601.5" font-family="Helvetica,sans-Serif" font-size="10.00" fill="#000000">&lt; W &gt;, N &gt;</text>
<polyline fill="none" stroke="#bfbfbf" points="226,-594.5 343,-594.5 "/>
<text text-anchor="middle" x="284.5" y="-582.5" font-family="Helvetica,sans-Serif" font-size="10.00" fill="#000000"> </text>
<polyline fill="none" stroke="#bfbfbf" points="226,-575.5 343,-575.5 "/>
<text text-anchor="middle" x="284.5" y="-563.5" font-family="Helvetica,sans-Serif" font-size="10.00" fill="#000000"> </text>
</g>
<!-- Node8&#45;&gt;Node5 -->
<g id="edge3" class="edge">
<title>Node8&#45;&gt;Node5</title>
<path fill="none" stroke="#404040" d="M284.5,-556.1921C284.5,-543.281 284.5,-527.3915 284.5,-509.6987"/>
<polygon fill="none" stroke="#404040" points="284.5001,-509.5022 280.5,-503.5022 284.5,-497.5022 288.5,-503.5021 284.5001,-509.5022"/>
<text text-anchor="middle" x="311.5" y="-519" font-family="Helvetica,sans-Serif" font-size="10.00" fill="#000000"> #mBlocks</text>
</g>
<!-- Node9 -->
<g id="node5" class="node">
<title>Node9</title>
<g id="a_node5"><a xlink:href="../../dc/dbb/structo2_1_1ctf_1_1ANSHeader.html" target="_top" xlink:title="&gt;&gt;======================== Auxiliary classes =======================&gt;&gt; ">
<polygon fill="none" stroke="#000000" points="361,-556.5 361,-624.5 470,-624.5 470,-556.5 361,-556.5"/>
<text text-anchor="middle" x="415.5" y="-612.5" font-family="Helvetica,sans-Serif" font-size="10.00" fill="#000000">o2::ctf::ANSHeader</text>
<polyline fill="none" stroke="#000000" points="361,-605.5 470,-605.5 "/>
<text text-anchor="middle" x="415.5" y="-593.5" font-family="Helvetica,sans-Serif" font-size="10.00" fill="#000000"> </text>
<polyline fill="none" stroke="#000000" points="361,-586.5 470,-586.5 "/>
<text text-anchor="start" x="369" y="-574.5" font-family="Helvetica,sans-Serif" font-size="10.00" fill="#000000">+ clear()</text>
<text text-anchor="start" x="369" y="-563.5" font-family="Helvetica,sans-Serif" font-size="10.00" fill="#000000">+ ClassDefNV()</text>
</a>
</g>
</g>
<!-- Node9&#45;&gt;Node5 -->
<g id="edge4" class="edge">
<title>Node9&#45;&gt;Node5</title>
<path fill="none" stroke="#404040" d="M402.3394,-556.1921C394.8027,-536.5448 384.6202,-510.0005 373.3806,-480.7001"/>
<polygon fill="none" stroke="#404040" points="373.3223,-480.548 367.4387,-476.3787 369.0244,-469.3441 374.908,-473.5134 373.3223,-480.548"/>
<text text-anchor="middle" x="429" y="-519" font-family="Helvetica,sans-Serif" font-size="10.00" fill="#000000"> #mANSHeader</text>
</g>
<!-- Node10 -->
<g id="node6" class="node">
<title>Node10</title>
<polygon fill="none" stroke="#bfbfbf" points="384.5,-694.5 384.5,-751.5 434.5,-751.5 434.5,-694.5 384.5,-694.5"/>
<text text-anchor="middle" x="409.5" y="-739.5" font-family="Helvetica,sans-Serif" font-size="10.00" fill="#000000">uint8_t</text>
<polyline fill="none" stroke="#bfbfbf" points="384.5,-732.5 434.5,-732.5 "/>
<text text-anchor="middle" x="409.5" y="-720.5" font-family="Helvetica,sans-Serif" font-size="10.00" fill="#000000"> </text>
<polyline fill="none" stroke="#bfbfbf" points="384.5,-713.5 434.5,-713.5 "/>
<text text-anchor="middle" x="409.5" y="-701.5" font-family="Helvetica,sans-Serif" font-size="10.00" fill="#000000"> </text>
</g>
<!-- Node10&#45;&gt;Node9 -->
<g id="edge5" class="edge">
<title>Node10&#45;&gt;Node9</title>
<path fill="none" stroke="#404040" d="M409.5036,-694.4524C409.6112,-682.0204 409.8814,-667.2839 410.5,-654 410.7558,-648.5078 411.1008,-642.7538 411.4907,-637.0468"/>
<polygon fill="none" stroke="#404040" points="411.5151,-636.7157 407.9679,-630.4374 412.399,-624.7483 415.9462,-631.0266 411.5151,-636.7157"/>
<text text-anchor="middle" x="448.5" y="-668" font-family="Helvetica,sans-Serif" font-size="10.00" fill="#000000"> +minorVersion</text>
<text text-anchor="middle" x="448.5" y="-657" font-family="Helvetica,sans-Serif" font-size="10.00" fill="#000000">+majorVersion</text>
</g>
<!-- Node11 -->
<g id="node7" class="node">
<title>Node11</title>
<g id="a_node7"><a xlink:href="../../d0/d1c/structo2_1_1ctf_1_1Registry.html" target="_top" xlink:title="registry struct for the buffer start and offsets of writable space ">
<polygon fill="none" stroke="#000000" points="500.5,-545.5 500.5,-635.5 622.5,-635.5 622.5,-545.5 500.5,-545.5"/>
<text text-anchor="middle" x="561.5" y="-623.5" font-family="Helvetica,sans-Serif" font-size="10.00" fill="#000000">o2::ctf::Registry</text>
<polyline fill="none" stroke="#000000" points="500.5,-616.5 622.5,-616.5 "/>
<text text-anchor="middle" x="561.5" y="-604.5" font-family="Helvetica,sans-Serif" font-size="10.00" fill="#000000"> </text>
<polyline fill="none" stroke="#000000" points="500.5,-597.5 622.5,-597.5 "/>
<text text-anchor="start" x="508.5" y="-585.5" font-family="Helvetica,sans-Serif" font-size="10.00" fill="#000000">+ getFreeBlockStart()</text>
<text text-anchor="start" x="508.5" y="-574.5" font-family="Helvetica,sans-Serif" font-size="10.00" fill="#000000">+ shrinkFreeBlock()</text>
<text text-anchor="start" x="508.5" y="-563.5" font-family="Helvetica,sans-Serif" font-size="10.00" fill="#000000">+ getFreeSize()</text>
<text text-anchor="start" x="508.5" y="-552.5" font-family="Helvetica,sans-Serif" font-size="10.00" fill="#000000">+ ClassDefNV()</text>
</a>
</g>
</g>
<!-- Node11&#45;&gt;Node5 -->
<g id="edge6" class="edge">
<title>Node11&#45;&gt;Node5</title>
<path fill="none" stroke="#404040" d="M524.7165,-545.1514C487.1317,-498.8148 427.2739,-425.0191 376.7146,-362.6869"/>
<polygon fill="none" stroke="#404040" points="376.5654,-362.503 369.6792,-360.363 369.006,-353.1834 375.8923,-355.3234 376.5654,-362.503"/>
<text text-anchor="middle" x="540" y="-519" font-family="Helvetica,sans-Serif" font-size="10.00" fill="#000000"> #mRegistry</text>
</g>
<!-- Node12 -->
<g id="node8" class="node">
<title>Node12</title>
<polygon fill="none" stroke="#bfbfbf" points="488.5,-694.5 488.5,-751.5 526.5,-751.5 526.5,-694.5 488.5,-694.5"/>
<text text-anchor="middle" x="507.5" y="-739.5" font-family="Helvetica,sans-Serif" font-size="10.00" fill="#000000">char</text>
<polyline fill="none" stroke="#bfbfbf" points="488.5,-732.5 526.5,-732.5 "/>
<text text-anchor="middle" x="507.5" y="-720.5" font-family="Helvetica,sans-Serif" font-size="10.00" fill="#000000"> </text>
<polyline fill="none" stroke="#bfbfbf" points="488.5,-713.5 526.5,-713.5 "/>
<text text-anchor="middle" x="507.5" y="-701.5" font-family="Helvetica,sans-Serif" font-size="10.00" fill="#000000"> </text>
</g>
<!-- Node12&#45;&gt;Node11 -->
<g id="edge7" class="edge">
<title>Node12&#45;&gt;Node11</title>
<path fill="none" stroke="#404040" d="M512.6647,-694.2231C515.4141,-681.6167 519.316,-666.8086 524.5,-654 525.4918,-651.5495 526.5654,-649.0798 527.701,-646.6099"/>
<polygon fill="none" stroke="#404040" points="527.7057,-646.6004 526.7743,-639.4497 533.0167,-635.8397 533.9481,-642.9904 527.7057,-646.6004"/>
<text text-anchor="middle" x="542.5" y="-662.5" font-family="Helvetica,sans-Serif" font-size="10.00" fill="#000000"> +head</text>
</g>
<!-- Node13 -->
<g id="node9" class="node">
<title>Node13</title>
<polygon fill="none" stroke="#bfbfbf" points="545,-694.5 545,-751.5 590,-751.5 590,-694.5 545,-694.5"/>
<text text-anchor="middle" x="567.5" y="-739.5" font-family="Helvetica,sans-Serif" font-size="10.00" fill="#000000">size_t</text>
<polyline fill="none" stroke="#bfbfbf" points="545,-732.5 590,-732.5 "/>
<text text-anchor="middle" x="567.5" y="-720.5" font-family="Helvetica,sans-Serif" font-size="10.00" fill="#000000"> </text>
<polyline fill="none" stroke="#bfbfbf" points="545,-713.5 590,-713.5 "/>
<text text-anchor="middle" x="567.5" y="-701.5" font-family="Helvetica,sans-Serif" font-size="10.00" fill="#000000"> </text>
</g>
<!-- Node13&#45;&gt;Node11 -->
<g id="edge8" class="edge">
<title>Node13&#45;&gt;Node11</title>
<path fill="none" stroke="#404040" d="M566.1981,-694.2495C565.5801,-680.6028 564.8188,-663.791 564.0904,-647.7042"/>
<polygon fill="none" stroke="#404040" points="564.0856,-647.5961 559.8182,-641.7832 563.5426,-635.6084 567.81,-641.4213 564.0856,-647.5961"/>
<text text-anchor="middle" x="602" y="-668" font-family="Helvetica,sans-Serif" font-size="10.00" fill="#000000"> +offsFreeStart</text>
<text text-anchor="middle" x="602" y="-657" font-family="Helvetica,sans-Serif" font-size="10.00" fill="#000000">+size</text>
</g>
<!-- Node14 -->
<g id="node10" class="node">
<title>Node14</title>
<polygon fill="none" stroke="#bfbfbf" points="649,-694.5 649,-751.5 678,-751.5 678,-694.5 649,-694.5"/>
<text text-anchor="middle" x="663.5" y="-739.5" font-family="Helvetica,sans-Serif" font-size="10.00" fill="#000000">int</text>
<polyline fill="none" stroke="#bfbfbf" points="649,-732.5 678,-732.5 "/>
<text text-anchor="middle" x="663.5" y="-720.5" font-family="Helvetica,sans-Serif" font-size="10.00" fill="#000000"> </text>
<polyline fill="none" stroke="#bfbfbf" points="649,-713.5 678,-713.5 "/>
<text text-anchor="middle" x="663.5" y="-701.5" font-family="Helvetica,sans-Serif" font-size="10.00" fill="#000000"> </text>
</g>
<!-- Node14&#45;&gt;Node11 -->
<g id="edge9" class="edge">
<title>Node14&#45;&gt;Node11</title>
<path fill="none" stroke="#404040" d="M658.3925,-694.4314C655.0806,-681.2948 649.7866,-666.0023 641.5,-654 638.413,-649.5288 634.919,-645.2183 631.1595,-641.094"/>
<polygon fill="none" stroke="#404040" points="630.9855,-640.9175 623.9246,-639.4534 622.5603,-632.3725 629.6212,-633.8366 630.9855,-640.9175"/>
<text text-anchor="middle" x="689.5" y="-662.5" font-family="Helvetica,sans-Serif" font-size="10.00" fill="#000000"> +nFilledBlocks</text>
</g>
</g>
</svg>
