<?xml version="1.0" encoding="UTF-8" standalone="no"?>
<!DOCTYPE svg PUBLIC "-//W3C//DTD SVG 1.1//EN"
 "http://www.w3.org/Graphics/SVG/1.1/DTD/svg11.dtd">
<!-- Generated by graphviz version 2.40.1 (20161225.0304)
 -->
<!-- Title: /home/travis/build/AliceO2Group/AliceO2/Detectors/TRD/base/include/TRDBase/ChamberStatus.h Pages: 1 -->
<!--zoomable 517 -->
<svg id="main" version="1.1" xmlns="http://www.w3.org/2000/svg" xmlns:xlink="http://www.w3.org/1999/xlink" xml:space="preserve" onload="init(evt)">
<style type="text/css"><![CDATA[
.edge:hover path { stroke: red; }
.edge:hover polygon { stroke: red; fill: red; }
]]></style>
<script type="text/javascript"><![CDATA[
var edges = document.getElementsByTagName('g');
if (edges && edges.length) {
  for (var i=0;i<edges.length;i++) {
    if (edges[i].id.substr(0,4)=='edge') {
      edges[i].setAttribute('class','edge');
    }
  }
}
]]></script>
        <defs>
                <circle id="rim" cx="0" cy="0" r="7"/>
                <circle id="rim2" cx="0" cy="0" r="3.5"/>
                <g id="zoomPlus">
                        <use xlink:href="#rim" fill="#404040">
                                <set attributeName="fill" to="#808080" begin="zoomplus.mouseover" end="zoomplus.mouseout"/>
                        </use>
                        <path d="M-4,0h8M0,-4v8" fill="none" stroke="white" stroke-width="1.5" pointer-events="none"/>
                </g>
                <g id="zoomMin">
                        <use xlink:href="#rim" fill="#404040">
                                <set attributeName="fill" to="#808080" begin="zoomminus.mouseover" end="zoomminus.mouseout"/>
                        </use>
                        <path d="M-4,0h8" fill="none" stroke="white" stroke-width="1.5" pointer-events="none"/>
                </g>
                <g id="dirArrow">
                        <path fill="none" stroke="white" stroke-width="1.5" d="M0,-3.0v7 M-2.5,-0.5L0,-3.0L2.5,-0.5"/>
                </g>
               <g id="resetDef">
                       <use xlink:href="#rim2" fill="#404040">
                               <set attributeName="fill" to="#808080" begin="reset.mouseover" end="reset.mouseout"/>
                       </use>
               </g>
        </defs>

<script type="text/javascript">
var viewWidth = 1136;
var viewHeight = 517;
var sectionId = 'dynsection-1';
</script>
<script xlink:href="../../svgpan.js"/>
<svg id="graph" class="graph">
<g id="viewport">
<title>/home/travis/build/AliceO2Group/AliceO2/Detectors/TRD/base/include/TRDBase/ChamberStatus.h</title>
<!-- Node47 -->
<g id="node1" class="node">
<title>Node47</title>
<polygon fill="#bfbfbf" stroke="#000000" points="901,-456.5 901,-508.5 1056,-508.5 1056,-456.5 901,-456.5"/>
<text text-anchor="start" x="909" y="-496.5" font-family="Helvetica,sans-Serif" font-size="10.00" fill="#000000">/home/travis/build</text>
<text text-anchor="start" x="909" y="-485.5" font-family="Helvetica,sans-Serif" font-size="10.00" fill="#000000">/AliceO2Group/AliceO2</text>
<text text-anchor="start" x="909" y="-474.5" font-family="Helvetica,sans-Serif" font-size="10.00" fill="#000000">/Detectors/TRD/base/include</text>
<text text-anchor="middle" x="978.5" y="-463.5" font-family="Helvetica,sans-Serif" font-size="10.00" fill="#000000">/TRDBase/ChamberStatus.h</text>
</g>
<!-- Node48 -->
<g id="node2" class="node">
<title>Node48</title>
<g id="a_node2"><a xlink:href="../../d4/d17/Calibrations_8h.html" target="_top" xlink:title="/home/travis/build\l/AliceO2Group/AliceO2\l/Detectors/TRD/base/include\l/TRDBase/Calibrations.h">
<polygon fill="none" stroke="#000000" points="820,-367.5 820,-419.5 975,-419.5 975,-367.5 820,-367.5"/>
<text text-anchor="start" x="828" y="-407.5" font-family="Helvetica,sans-Serif" font-size="10.00" fill="#000000">/home/travis/build</text>
<text text-anchor="start" x="828" y="-396.5" font-family="Helvetica,sans-Serif" font-size="10.00" fill="#000000">/AliceO2Group/AliceO2</text>
<text text-anchor="start" x="828" y="-385.5" font-family="Helvetica,sans-Serif" font-size="10.00" fill="#000000">/Detectors/TRD/base/include</text>
<text text-anchor="middle" x="897.5" y="-374.5" font-family="Helvetica,sans-Serif" font-size="10.00" fill="#000000">/TRDBase/Calibrations.h</text>
</a>
</g>
</g>
<!-- Node47&#45;&gt;Node48 -->
<g id="edge1" class="edge">
<title>Node47&#45;&gt;Node48</title>
<path fill="none" stroke="#191970" d="M947.7527,-448.7159C938.953,-439.0472 929.5003,-428.6608 921.194,-419.5341"/>
<polygon fill="#191970" stroke="#191970" points="945.3161,-451.2386 954.6354,-456.2784 950.493,-446.527 945.3161,-451.2386"/>
</g>
<!-- Node61 -->
<g id="node15" class="node">
<title>Node61</title>
<g id="a_node15"><a xlink:href="../../d6/ddd/ChamberStatus_8cxx.html" target="_top" xlink:title="/home/travis/build\l/AliceO2Group/AliceO2\l/Detectors/TRD/base/src\l/ChamberStatus.cxx">
<polygon fill="none" stroke="#000000" points="993.5,-367.5 993.5,-419.5 1127.5,-419.5 1127.5,-367.5 993.5,-367.5"/>
<text text-anchor="start" x="1001.5" y="-407.5" font-family="Helvetica,sans-Serif" font-size="10.00" fill="#000000">/home/travis/build</text>
<text text-anchor="start" x="1001.5" y="-396.5" font-family="Helvetica,sans-Serif" font-size="10.00" fill="#000000">/AliceO2Group/AliceO2</text>
<text text-anchor="start" x="1001.5" y="-385.5" font-family="Helvetica,sans-Serif" font-size="10.00" fill="#000000">/Detectors/TRD/base/src</text>
<text text-anchor="middle" x="1060.5" y="-374.5" font-family="Helvetica,sans-Serif" font-size="10.00" fill="#000000">/ChamberStatus.cxx</text>
</a>
</g>
</g>
<!-- Node47&#45;&gt;Node61 -->
<g id="edge20" class="edge">
<title>Node47&#45;&gt;Node61</title>
<path fill="none" stroke="#191970" d="M1009.6269,-448.7159C1018.5352,-439.0472 1028.1047,-428.6608 1036.5135,-419.5341"/>
<polygon fill="#191970" stroke="#191970" points="1006.8611,-446.5525 1002.6592,-456.2784 1012.0092,-451.2956 1006.8611,-446.5525"/>
</g>
<!-- Node49 -->
<g id="node3" class="node">
<title>Node49</title>
<g id="a_node3"><a xlink:href="../../dc/db4/Calibrations_8cxx.html" target="_top" xlink:title="/home/travis/build\l/AliceO2Group/AliceO2\l/Detectors/TRD/base/src\l/Calibrations.cxx">
<polygon fill="none" stroke="#000000" points="557.5,-278.5 557.5,-330.5 691.5,-330.5 691.5,-278.5 557.5,-278.5"/>
<text text-anchor="start" x="565.5" y="-318.5" font-family="Helvetica,sans-Serif" font-size="10.00" fill="#000000">/home/travis/build</text>
<text text-anchor="start" x="565.5" y="-307.5" font-family="Helvetica,sans-Serif" font-size="10.00" fill="#000000">/AliceO2Group/AliceO2</text>
<text text-anchor="start" x="565.5" y="-296.5" font-family="Helvetica,sans-Serif" font-size="10.00" fill="#000000">/Detectors/TRD/base/src</text>
<text text-anchor="middle" x="624.5" y="-285.5" font-family="Helvetica,sans-Serif" font-size="10.00" fill="#000000">/Calibrations.cxx</text>
</a>
</g>
</g>
<!-- Node48&#45;&gt;Node49 -->
<g id="edge2" class="edge">
<title>Node48&#45;&gt;Node49</title>
<path fill="none" stroke="#191970" d="M809.7225,-366.236C775.5607,-355.4725 736.1337,-342.8624 700.5,-331 697.5832,-330.029 694.6064,-329.0292 691.6016,-328.0127"/>
<polygon fill="#191970" stroke="#191970" points="809.087,-369.7051 819.6764,-369.367 811.1874,-363.0277 809.087,-369.7051"/>
</g>
<!-- Node50 -->
<g id="node4" class="node">
<title>Node50</title>
<g id="a_node4"><a xlink:href="../../d4/dae/TRD_2simulation_2include_2TRDSimulation_2Digitizer_8h.html" target="_top" xlink:title="/home/travis/build\l/AliceO2Group/AliceO2\l/Detectors/TRD/simulation\l/include/TRDSimulation/Digitizer.h">
<polygon fill="none" stroke="#000000" points="710,-278.5 710,-330.5 893,-330.5 893,-278.5 710,-278.5"/>
<text text-anchor="start" x="718" y="-318.5" font-family="Helvetica,sans-Serif" font-size="10.00" fill="#000000">/home/travis/build</text>
<text text-anchor="start" x="718" y="-307.5" font-family="Helvetica,sans-Serif" font-size="10.00" fill="#000000">/AliceO2Group/AliceO2</text>
<text text-anchor="start" x="718" y="-296.5" font-family="Helvetica,sans-Serif" font-size="10.00" fill="#000000">/Detectors/TRD/simulation</text>
<text text-anchor="middle" x="801.5" y="-285.5" font-family="Helvetica,sans-Serif" font-size="10.00" fill="#000000">/include/TRDSimulation/Digitizer.h</text>
</a>
</g>
</g>
<!-- Node48&#45;&gt;Node50 -->
<g id="edge3" class="edge">
<title>Node48&#45;&gt;Node50</title>
<path fill="none" stroke="#191970" d="M861.6774,-360.2894C851.0737,-350.459 839.6212,-339.8415 829.5818,-330.5341"/>
<polygon fill="#191970" stroke="#191970" points="859.5031,-363.0464 869.2161,-367.2784 864.2622,-357.9131 859.5031,-363.0464"/>
</g>
<!-- Node55 -->
<g id="node9" class="node">
<title>Node55</title>
<g id="a_node9"><a xlink:href="../../dd/de7/TRDTrapSimulatorSpec_8cxx.html" target="_top" xlink:title="/home/travis/build\l/AliceO2Group/AliceO2\l/Detectors/TRD/workflow\l/src/TRDTrapSimulatorSpec.cxx">
<polygon fill="none" stroke="#000000" points="659.5,-.5 659.5,-52.5 827.5,-52.5 827.5,-.5 659.5,-.5"/>
<text text-anchor="start" x="667.5" y="-40.5" font-family="Helvetica,sans-Serif" font-size="10.00" fill="#000000">/home/travis/build</text>
<text text-anchor="start" x="667.5" y="-29.5" font-family="Helvetica,sans-Serif" font-size="10.00" fill="#000000">/AliceO2Group/AliceO2</text>
<text text-anchor="start" x="667.5" y="-18.5" font-family="Helvetica,sans-Serif" font-size="10.00" fill="#000000">/Detectors/TRD/workflow</text>
<text text-anchor="middle" x="743.5" y="-7.5" font-family="Helvetica,sans-Serif" font-size="10.00" fill="#000000">/src/TRDTrapSimulatorSpec.cxx</text>
</a>
</g>
</g>
<!-- Node48&#45;&gt;Node55 -->
<g id="edge19" class="edge">
<title>Node48&#45;&gt;Node55</title>
<path fill="none" stroke="#191970" d="M971.8098,-363.0492C1049.8165,-326.4261 1155.1567,-260.8435 1108.5,-189 1046.7312,-93.8863 914.9782,-53.9815 827.8305,-37.5618"/>
<polygon fill="#191970" stroke="#191970" points="970.0581,-360.0027 962.4443,-367.3703 972.9907,-366.3588 970.0581,-360.0027"/>
</g>
<!-- Node60 -->
<g id="node14" class="node">
<title>Node60</title>
<g id="a_node14"><a xlink:href="../../d6/df2/TRDDigitizerSpec_8cxx.html" target="_top" xlink:title="/home/travis/build\l/AliceO2Group/AliceO2\l/Detectors/TRD/workflow\l/src/TRDDigitizerSpec.cxx">
<polygon fill="none" stroke="#000000" points="957.5,-189.5 957.5,-241.5 1099.5,-241.5 1099.5,-189.5 957.5,-189.5"/>
<text text-anchor="start" x="965.5" y="-229.5" font-family="Helvetica,sans-Serif" font-size="10.00" fill="#000000">/home/travis/build</text>
<text text-anchor="start" x="965.5" y="-218.5" font-family="Helvetica,sans-Serif" font-size="10.00" fill="#000000">/AliceO2Group/AliceO2</text>
<text text-anchor="start" x="965.5" y="-207.5" font-family="Helvetica,sans-Serif" font-size="10.00" fill="#000000">/Detectors/TRD/workflow</text>
<text text-anchor="middle" x="1028.5" y="-196.5" font-family="Helvetica,sans-Serif" font-size="10.00" fill="#000000">/src/TRDDigitizerSpec.cxx</text>
</a>
</g>
</g>
<!-- Node48&#45;&gt;Node60 -->
<g id="edge18" class="edge">
<title>Node48&#45;&gt;Node60</title>
<path fill="none" stroke="#191970" d="M922.9639,-358.9002C948.2552,-324.5349 986.4662,-272.6146 1009.3046,-241.5823"/>
<polygon fill="#191970" stroke="#191970" points="919.938,-357.1069 916.8295,-367.2355 925.5758,-361.2561 919.938,-357.1069"/>
</g>
<!-- Node51 -->
<g id="node5" class="node">
<title>Node51</title>
<g id="a_node5"><a xlink:href="../../d7/d42/TrapSimulator_8h.html" target="_top" xlink:title="/home/travis/build\l/AliceO2Group/AliceO2\l/Detectors/TRD/simulation\l/include/TRDSimulation/TrapSimulator.h">
<polygon fill="none" stroke="#000000" points="384,-189.5 384,-241.5 593,-241.5 593,-189.5 384,-189.5"/>
<text text-anchor="start" x="392" y="-229.5" font-family="Helvetica,sans-Serif" font-size="10.00" fill="#000000">/home/travis/build</text>
<text text-anchor="start" x="392" y="-218.5" font-family="Helvetica,sans-Serif" font-size="10.00" fill="#000000">/AliceO2Group/AliceO2</text>
<text text-anchor="start" x="392" y="-207.5" font-family="Helvetica,sans-Serif" font-size="10.00" fill="#000000">/Detectors/TRD/simulation</text>
<text text-anchor="middle" x="488.5" y="-196.5" font-family="Helvetica,sans-Serif" font-size="10.00" fill="#000000">/include/TRDSimulation/TrapSimulator.h</text>
</a>
</g>
</g>
<!-- Node50&#45;&gt;Node51 -->
<g id="edge4" class="edge">
<title>Node50&#45;&gt;Node51</title>
<path fill="none" stroke="#191970" d="M700.0047,-275.6403C661.3913,-264.6608 617.6593,-252.2258 580.0233,-241.5242"/>
<polygon fill="#191970" stroke="#191970" points="699.1286,-279.0299 709.7046,-278.3984 701.0431,-272.2968 699.1286,-279.0299"/>
</g>
<!-- Node53 -->
<g id="node7" class="node">
<title>Node53</title>
<g id="a_node7"><a xlink:href="../../da/deb/TrapSimulator_8cxx.html" target="_top" xlink:title="/home/travis/build\l/AliceO2Group/AliceO2\l/Detectors/TRD/simulation\l/src/TrapSimulator.cxx">
<polygon fill="none" stroke="#000000" points="0,-95 0,-147 145,-147 145,-95 0,-95"/>
<text text-anchor="start" x="8" y="-135" font-family="Helvetica,sans-Serif" font-size="10.00" fill="#000000">/home/travis/build</text>
<text text-anchor="start" x="8" y="-124" font-family="Helvetica,sans-Serif" font-size="10.00" fill="#000000">/AliceO2Group/AliceO2</text>
<text text-anchor="start" x="8" y="-113" font-family="Helvetica,sans-Serif" font-size="10.00" fill="#000000">/Detectors/TRD/simulation</text>
<text text-anchor="middle" x="72.5" y="-102" font-family="Helvetica,sans-Serif" font-size="10.00" fill="#000000">/src/TrapSimulator.cxx</text>
</a>
</g>
</g>
<!-- Node50&#45;&gt;Node53 -->
<g id="edge14" class="edge">
<title>Node50&#45;&gt;Node53</title>
<path fill="none" stroke="#191970" d="M699.8438,-278.0256C555.2674,-252.5685 512.7219,-276.6365 374.5,-242 283.6883,-219.2438 183.8706,-175.2312 124.7777,-147.0271"/>
<polygon fill="#191970" stroke="#191970" points="699.5099,-281.522 709.9736,-279.8602 700.7574,-274.6341 699.5099,-281.522"/>
</g>
<!-- Node50&#45;&gt;Node55 -->
<g id="edge17" class="edge">
<title>Node50&#45;&gt;Node55</title>
<path fill="none" stroke="#191970" d="M790.8029,-268.4575C788.4947,-259.8424 786.231,-250.638 784.5,-242 771.0249,-174.7584 779.9383,-155.8182 764.5,-89 761.6912,-76.8432 757.4672,-63.7081 753.5423,-52.6317"/>
<polygon fill="#191970" stroke="#191970" points="787.4665,-269.5246 793.5037,-278.2311 794.2136,-267.6601 787.4665,-269.5246"/>
</g>
<!-- Node58 -->
<g id="node12" class="node">
<title>Node58</title>
<g id="a_node12"><a xlink:href="../../d7/da6/TRDDigitReaderSpec_8cxx.html" target="_top" xlink:title="/home/travis/build\l/AliceO2Group/AliceO2\l/Detectors/TRD/workflow\l/src/TRDDigitReaderSpec.cxx">
<polygon fill="none" stroke="#000000" points="597.5,-95 597.5,-147 755.5,-147 755.5,-95 597.5,-95"/>
<text text-anchor="start" x="605.5" y="-135" font-family="Helvetica,sans-Serif" font-size="10.00" fill="#000000">/home/travis/build</text>
<text text-anchor="start" x="605.5" y="-124" font-family="Helvetica,sans-Serif" font-size="10.00" fill="#000000">/AliceO2Group/AliceO2</text>
<text text-anchor="start" x="605.5" y="-113" font-family="Helvetica,sans-Serif" font-size="10.00" fill="#000000">/Detectors/TRD/workflow</text>
<text text-anchor="middle" x="676.5" y="-102" font-family="Helvetica,sans-Serif" font-size="10.00" fill="#000000">/src/TRDDigitReaderSpec.cxx</text>
</a>
</g>
</g>
<!-- Node50&#45;&gt;Node58 -->
<g id="edge16" class="edge">
<title>Node50&#45;&gt;Node58</title>
<path fill="none" stroke="#191970" d="M772.8921,-270.2549C765.69,-261.2291 758.1274,-251.386 751.5,-242 729.1186,-210.3028 705.9808,-171.9744 691.4324,-147.0701"/>
<polygon fill="#191970" stroke="#191970" points="770.3633,-272.6945 779.3678,-278.2775 775.8103,-268.2978 770.3633,-272.6945"/>
</g>
<!-- Node59 -->
<g id="node13" class="node">
<title>Node59</title>
<g id="a_node13"><a xlink:href="../../d7/d40/TRD_2simulation_2src_2Digitizer_8cxx.html" target="_top" xlink:title="/home/travis/build\l/AliceO2Group/AliceO2\l/Detectors/TRD/simulation\l/src/Digitizer.cxx">
<polygon fill="none" stroke="#000000" points="794,-189.5 794,-241.5 939,-241.5 939,-189.5 794,-189.5"/>
<text text-anchor="start" x="802" y="-229.5" font-family="Helvetica,sans-Serif" font-size="10.00" fill="#000000">/home/travis/build</text>
<text text-anchor="start" x="802" y="-218.5" font-family="Helvetica,sans-Serif" font-size="10.00" fill="#000000">/AliceO2Group/AliceO2</text>
<text text-anchor="start" x="802" y="-207.5" font-family="Helvetica,sans-Serif" font-size="10.00" fill="#000000">/Detectors/TRD/simulation</text>
<text text-anchor="middle" x="866.5" y="-196.5" font-family="Helvetica,sans-Serif" font-size="10.00" fill="#000000">/src/Digitizer.cxx</text>
</a>
</g>
</g>
<!-- Node50&#45;&gt;Node59 -->
<g id="edge13" class="edge">
<title>Node50&#45;&gt;Node59</title>
<path fill="none" stroke="#191970" d="M826.5939,-270.1407C833.5353,-260.6363 840.9528,-250.4801 847.4863,-241.5341"/>
<polygon fill="#191970" stroke="#191970" points="823.7221,-268.1386 820.6506,-278.2784 829.375,-272.2671 823.7221,-268.1386"/>
</g>
<!-- Node50&#45;&gt;Node60 -->
<g id="edge15" class="edge">
<title>Node50&#45;&gt;Node60</title>
<path fill="none" stroke="#191970" d="M877.5885,-274.6679C904.9064,-263.9574 935.48,-251.9704 961.9275,-241.6011"/>
<polygon fill="#191970" stroke="#191970" points="876.1061,-271.4897 868.0737,-278.3984 878.6613,-278.0067 876.1061,-271.4897"/>
</g>
<!-- Node52 -->
<g id="node6" class="node">
<title>Node52</title>
<g id="a_node6"><a xlink:href="../../db/dc3/TrapConfigHandler_8cxx.html" target="_top" xlink:title="/home/travis/build\l/AliceO2Group/AliceO2\l/Detectors/TRD/simulation\l/src/TrapConfigHandler.cxx">
<polygon fill="none" stroke="#000000" points="163.5,-95 163.5,-147 309.5,-147 309.5,-95 163.5,-95"/>
<text text-anchor="start" x="171.5" y="-135" font-family="Helvetica,sans-Serif" font-size="10.00" fill="#000000">/home/travis/build</text>
<text text-anchor="start" x="171.5" y="-124" font-family="Helvetica,sans-Serif" font-size="10.00" fill="#000000">/AliceO2Group/AliceO2</text>
<text text-anchor="start" x="171.5" y="-113" font-family="Helvetica,sans-Serif" font-size="10.00" fill="#000000">/Detectors/TRD/simulation</text>
<text text-anchor="middle" x="236.5" y="-102" font-family="Helvetica,sans-Serif" font-size="10.00" fill="#000000">/src/TrapConfigHandler.cxx</text>
</a>
</g>
</g>
<!-- Node51&#45;&gt;Node52 -->
<g id="edge5" class="edge">
<title>Node51&#45;&gt;Node52</title>
<path fill="none" stroke="#191970" d="M406.6683,-185.7859C378.6634,-175.5185 347.1713,-163.8636 318.5,-153 313.4984,-151.1049 308.3317,-149.1298 303.1385,-147.1321"/>
<polygon fill="#191970" stroke="#191970" points="405.8244,-189.2042 416.4182,-189.3562 408.2315,-182.631 405.8244,-189.2042"/>
</g>
<!-- Node51&#45;&gt;Node53 -->
<g id="edge6" class="edge">
<title>Node51&#45;&gt;Node53</title>
<path fill="none" stroke="#191970" d="M374.0209,-199.5119C308.9624,-189.0786 226.3879,-173.5571 154.5,-153 148.476,-151.2774 142.2782,-149.2857 136.1169,-147.1554"/>
<polygon fill="#191970" stroke="#191970" points="373.473,-202.9687 383.8978,-201.0784 374.5696,-196.0551 373.473,-202.9687"/>
</g>
<!-- Node54 -->
<g id="node8" class="node">
<title>Node54</title>
<g id="a_node8"><a xlink:href="../../dc/d96/TRDTrapSimulatorSpec_8h.html" target="_top" xlink:title="/home/travis/build\l/AliceO2Group/AliceO2\l/Detectors/TRD/workflow\l/include/TRDWorkflow/TRDTrapSimulator\lSpec.h">
<polygon fill="none" stroke="#000000" points="327.5,-89.5 327.5,-152.5 541.5,-152.5 541.5,-89.5 327.5,-89.5"/>
<text text-anchor="start" x="335.5" y="-140.5" font-family="Helvetica,sans-Serif" font-size="10.00" fill="#000000">/home/travis/build</text>
<text text-anchor="start" x="335.5" y="-129.5" font-family="Helvetica,sans-Serif" font-size="10.00" fill="#000000">/AliceO2Group/AliceO2</text>
<text text-anchor="start" x="335.5" y="-118.5" font-family="Helvetica,sans-Serif" font-size="10.00" fill="#000000">/Detectors/TRD/workflow</text>
<text text-anchor="start" x="335.5" y="-107.5" font-family="Helvetica,sans-Serif" font-size="10.00" fill="#000000">/include/TRDWorkflow/TRDTrapSimulator</text>
<text text-anchor="middle" x="434.5" y="-96.5" font-family="Helvetica,sans-Serif" font-size="10.00" fill="#000000">Spec.h</text>
</a>
</g>
</g>
<!-- Node51&#45;&gt;Node54 -->
<g id="edge7" class="edge">
<title>Node51&#45;&gt;Node54</title>
<path fill="none" stroke="#191970" d="M468.5422,-180.5739C463.3258,-171.4451 457.7322,-161.6564 452.6173,-152.7054"/>
<polygon fill="#191970" stroke="#191970" points="465.601,-182.4814 473.6013,-189.4273 471.6787,-179.0084 465.601,-182.4814"/>
</g>
<!-- Node51&#45;&gt;Node55 -->
<g id="edge12" class="edge">
<title>Node51&#45;&gt;Node55</title>
<path fill="none" stroke="#191970" d="M524.3303,-182.4041C533.3467,-173.2853 542.6763,-163.1099 550.5,-153 570.7455,-126.8382 563.3943,-110.5413 588.5,-89 608.7586,-71.6176 634.4747,-58.6569 659.1092,-49.1847"/>
<polygon fill="#191970" stroke="#191970" points="521.8404,-179.944 517.2012,-189.4692 526.7678,-184.916 521.8404,-179.944"/>
</g>
<!-- Node51&#45;&gt;Node58 -->
<g id="edge11" class="edge">
<title>Node51&#45;&gt;Node58</title>
<path fill="none" stroke="#191970" d="M549.467,-184.8544C573.6734,-172.6868 601.2284,-158.836 624.4737,-147.1515"/>
<polygon fill="#191970" stroke="#191970" points="547.7323,-181.8089 540.3695,-189.4273 550.8762,-188.0633 547.7323,-181.8089"/>
</g>
<!-- Node54&#45;&gt;Node55 -->
<g id="edge8" class="edge">
<title>Node54&#45;&gt;Node55</title>
<path fill="none" stroke="#191970" d="M547.6316,-86.4015C584.5512,-75.1106 624.8731,-62.7791 659.2837,-52.2555"/>
<polygon fill="#191970" stroke="#191970" points="546.3613,-83.1299 537.8221,-89.4015 548.4085,-89.8239 546.3613,-83.1299"/>
</g>
<!-- Node56 -->
<g id="node10" class="node">
<title>Node56</title>
<g id="a_node10"><a xlink:href="../../d2/dc0/TRDTrapSimulatorWorkFlow_8cxx.html" target="_top" xlink:title="/home/travis/build\l/AliceO2Group/AliceO2\l/Detectors/TRD/workflow\l/src/TRDTrapSimulatorWorkFlow.cxx">
<polygon fill="none" stroke="#000000" points="177,-.5 177,-52.5 368,-52.5 368,-.5 177,-.5"/>
<text text-anchor="start" x="185" y="-40.5" font-family="Helvetica,sans-Serif" font-size="10.00" fill="#000000">/home/travis/build</text>
<text text-anchor="start" x="185" y="-29.5" font-family="Helvetica,sans-Serif" font-size="10.00" fill="#000000">/AliceO2Group/AliceO2</text>
<text text-anchor="start" x="185" y="-18.5" font-family="Helvetica,sans-Serif" font-size="10.00" fill="#000000">/Detectors/TRD/workflow</text>
<text text-anchor="middle" x="272.5" y="-7.5" font-family="Helvetica,sans-Serif" font-size="10.00" fill="#000000">/src/TRDTrapSimulatorWorkFlow.cxx</text>
</a>
</g>
</g>
<!-- Node54&#45;&gt;Node56 -->
<g id="edge9" class="edge">
<title>Node54&#45;&gt;Node56</title>
<path fill="none" stroke="#191970" d="M371.3633,-84.1703C353.3168,-73.6431 334.0253,-62.3898 317.3185,-52.6442"/>
<polygon fill="#191970" stroke="#191970" points="369.7043,-87.2545 380.1057,-89.27 373.2314,-81.208 369.7043,-87.2545"/>
</g>
<!-- Node57 -->
<g id="node11" class="node">
<title>Node57</title>
<g id="a_node11"><a xlink:href="../../d2/dd7/SimpleDigitizerWorkflow_8cxx.html" target="_top" xlink:title="/home/travis/build\l/AliceO2Group/AliceO2\l/Steer/DigitizerWorkflow\l/src/SimpleDigitizerWorkflow.cxx">
<polygon fill="none" stroke="#000000" points="386.5,-.5 386.5,-52.5 562.5,-52.5 562.5,-.5 386.5,-.5"/>
<text text-anchor="start" x="394.5" y="-40.5" font-family="Helvetica,sans-Serif" font-size="10.00" fill="#000000">/home/travis/build</text>
<text text-anchor="start" x="394.5" y="-29.5" font-family="Helvetica,sans-Serif" font-size="10.00" fill="#000000">/AliceO2Group/AliceO2</text>
<text text-anchor="start" x="394.5" y="-18.5" font-family="Helvetica,sans-Serif" font-size="10.00" fill="#000000">/Steer/DigitizerWorkflow</text>
<text text-anchor="middle" x="474.5" y="-7.5" font-family="Helvetica,sans-Serif" font-size="10.00" fill="#000000">/src/SimpleDigitizerWorkflow.cxx</text>
</a>
</g>
</g>
<!-- Node54&#45;&gt;Node57 -->
<g id="edge10" class="edge">
<title>Node54&#45;&gt;Node57</title>
<path fill="none" stroke="#191970" d="M451.9269,-79.8289C455.8325,-70.6021 459.8711,-61.0608 463.4337,-52.6442"/>
<polygon fill="#191970" stroke="#191970" points="448.6056,-78.6967 447.9307,-89.27 455.0519,-81.4253 448.6056,-78.6967"/>
</g>
</g>
</svg>
        <g id="navigator" transform="translate(0 0)" fill="#404254">
                <rect fill="#f2f5e9" fill-opacity="0.5" stroke="#606060" stroke-width=".5" x="0" y="0" width="60" height="60"/>
                <use id="zoomplus" xlink:href="#zoomPlus" x="17" y="9" onmousedown="handleZoom(evt,'in')"/>
                <use id="zoomminus" xlink:href="#zoomMin" x="42" y="9" onmousedown="handleZoom(evt,'out')"/>
                <use id="reset" xlink:href="#resetDef" x="30" y="36" onmousedown="handleReset()"/>
                <g id="arrowUp" xlink:href="#dirArrow" transform="translate(30 24)" onmousedown="handlePan(0,-1)">
                  <use xlink:href="#rim" fill="#404040">
                        <set attributeName="fill" to="#808080" begin="arrowUp.mouseover" end="arrowUp.mouseout"/>
                  </use>
                  <path fill="none" stroke="white" stroke-width="1.5" d="M0,-3.0v7 M-2.5,-0.5L0,-3.0L2.5,-0.5"/>
                </g>
                <g id="arrowRight" xlink:href="#dirArrow" transform="rotate(90) translate(36 -43)" onmousedown="handlePan(1,0)">
                  <use xlink:href="#rim" fill="#404040">
                        <set attributeName="fill" to="#808080" begin="arrowRight.mouseover" end="arrowRight.mouseout"/>
                  </use>
                  <path fill="none" stroke="white" stroke-width="1.5" d="M0,-3.0v7 M-2.5,-0.5L0,-3.0L2.5,-0.5"/>
                </g>
                <g id="arrowDown" xlink:href="#dirArrow" transform="rotate(180) translate(-30 -48)" onmousedown="handlePan(0,1)">
                  <use xlink:href="#rim" fill="#404040">
                        <set attributeName="fill" to="#808080" begin="arrowDown.mouseover" end="arrowDown.mouseout"/>
                  </use>
                  <path fill="none" stroke="white" stroke-width="1.5" d="M0,-3.0v7 M-2.5,-0.5L0,-3.0L2.5,-0.5"/>
                </g>
                <g id="arrowLeft" xlink:href="#dirArrow" transform="rotate(270) translate(-36 17)" onmousedown="handlePan(-1,0)">
                  <use xlink:href="#rim" fill="#404040">
                        <set attributeName="fill" to="#808080" begin="arrowLeft.mouseover" end="arrowLeft.mouseout"/>
                  </use>
                  <path fill="none" stroke="white" stroke-width="1.5" d="M0,-3.0v7 M-2.5,-0.5L0,-3.0L2.5,-0.5"/>
                </g>
        </g>
        <svg viewBox="0 0 15 15" width="100%" height="30px" preserveAspectRatio="xMaxYMin meet">
         <g id="arrow_out" transform="scale(0.3 0.3)">
          <a xlink:href="ChamberStatus_8h__dep__incl_org.svg" target="_base">
           <rect id="button" ry="5" rx="5" y="6" x="6" height="38" width="38"
                fill="#f2f5e9" fill-opacity="0.5" stroke="#606060" stroke-width="1.0"/>
           <path id="arrow"
             d="M 11.500037,31.436501 C 11.940474,20.09759 22.043105,11.32322 32.158766,21.979434 L 37.068811,17.246167 C 37.068811,17.246167 37.088388,32 37.088388,32 L 22.160133,31.978069 C 22.160133,31.978069 26.997745,27.140456 26.997745,27.140456 C 18.528582,18.264221 13.291696,25.230495 11.500037,31.436501 z"
             style="fill:#404040;"/>
          </a>
         </g>
        </svg>
</svg>
