<?xml version="1.0" encoding="UTF-8" standalone="no"?>
<!DOCTYPE svg PUBLIC "-//W3C//DTD SVG 1.1//EN"
 "http://www.w3.org/Graphics/SVG/1.1/DTD/svg11.dtd">
<!-- Generated by graphviz version 2.40.1 (20161225.0304)
 -->
<!-- Title: /home/travis/build/AliceO2Group/AliceO2/Detectors/ITSMFT/common/reconstruction/include/ITSMFTReconstruction/ChipMappingITS.h Pages: 1 -->
<!--zoomable 363 -->
<svg id="main" version="1.1" xmlns="http://www.w3.org/2000/svg" xmlns:xlink="http://www.w3.org/1999/xlink" xml:space="preserve" onload="init(evt)">
<style type="text/css"><![CDATA[
.edge:hover path { stroke: red; }
.edge:hover polygon { stroke: red; fill: red; }
]]></style>
<script type="text/javascript"><![CDATA[
var edges = document.getElementsByTagName('g');
if (edges && edges.length) {
  for (var i=0;i<edges.length;i++) {
    if (edges[i].id.substr(0,4)=='edge') {
      edges[i].setAttribute('class','edge');
    }
  }
}
]]></script>
        <defs>
                <circle id="rim" cx="0" cy="0" r="7"/>
                <circle id="rim2" cx="0" cy="0" r="3.5"/>
                <g id="zoomPlus">
                        <use xlink:href="#rim" fill="#404040">
                                <set attributeName="fill" to="#808080" begin="zoomplus.mouseover" end="zoomplus.mouseout"/>
                        </use>
                        <path d="M-4,0h8M0,-4v8" fill="none" stroke="white" stroke-width="1.5" pointer-events="none"/>
                </g>
                <g id="zoomMin">
                        <use xlink:href="#rim" fill="#404040">
                                <set attributeName="fill" to="#808080" begin="zoomminus.mouseover" end="zoomminus.mouseout"/>
                        </use>
                        <path d="M-4,0h8" fill="none" stroke="white" stroke-width="1.5" pointer-events="none"/>
                </g>
                <g id="dirArrow">
                        <path fill="none" stroke="white" stroke-width="1.5" d="M0,-3.0v7 M-2.5,-0.5L0,-3.0L2.5,-0.5"/>
                </g>
               <g id="resetDef">
                       <use xlink:href="#rim2" fill="#404040">
                               <set attributeName="fill" to="#808080" begin="reset.mouseover" end="reset.mouseout"/>
                       </use>
               </g>
        </defs>

<script type="text/javascript">
var viewWidth = 1331;
var viewHeight = 363;
var sectionId = 'dynsection-0';
</script>
<script xlink:href="../../svgpan.js"/>
<svg id="graph" class="graph">
<g id="viewport">
<title>/home/travis/build/AliceO2Group/AliceO2/Detectors/ITSMFT/common/reconstruction/include/ITSMFTReconstruction/ChipMappingITS.h</title>
<!-- Node0 -->
<g id="node1" class="node">
<title>Node0</title>
<polygon fill="#bfbfbf" stroke="#000000" points="147.9076,-291.5 147.9076,-354.5 363.9076,-354.5 363.9076,-291.5 147.9076,-291.5"/>
<text text-anchor="start" x="155.9076" y="-342.5" font-family="Helvetica,sans-Serif" font-size="10.00" fill="#000000">/home/travis/build</text>
<text text-anchor="start" x="155.9076" y="-331.5" font-family="Helvetica,sans-Serif" font-size="10.00" fill="#000000">/AliceO2Group/AliceO2</text>
<text text-anchor="start" x="155.9076" y="-320.5" font-family="Helvetica,sans-Serif" font-size="10.00" fill="#000000">/Detectors/ITSMFT/common</text>
<text text-anchor="start" x="155.9076" y="-309.5" font-family="Helvetica,sans-Serif" font-size="10.00" fill="#000000">/reconstruction/include</text>
<text text-anchor="middle" x="255.9076" y="-298.5" font-family="Helvetica,sans-Serif" font-size="10.00" fill="#000000">/ITSMFTReconstruction/ChipMappingITS.h</text>
</g>
<!-- Node1 -->
<g id="node2" class="node">
<title>Node1</title>
<polygon fill="none" stroke="#bfbfbf" points="108.4076,-168.5 108.4076,-187.5 167.4076,-187.5 167.4076,-168.5 108.4076,-168.5"/>
<text text-anchor="middle" x="137.9076" y="-175.5" font-family="Helvetica,sans-Serif" font-size="10.00" fill="#000000">Rtypes.h</text>
</g>
<!-- Node0&#45;&gt;Node1 -->
<g id="edge1" class="edge">
<title>Node0&#45;&gt;Node1</title>
<path fill="none" stroke="#191970" d="M249.147,-291.1601C243.4027,-270.2054 233.3925,-243.2028 216.9076,-224 205.0077,-210.1383 187.837,-199.4419 172.5413,-191.867"/>
<polygon fill="#191970" stroke="#191970" points="173.8646,-188.622 163.3238,-187.5534 170.8976,-194.9621 173.8646,-188.622"/>
</g>
<!-- Node2 -->
<g id="node3" class="node">
<title>Node2</title>
<polygon fill="none" stroke="#bfbfbf" points="163.9076,-112.5 163.9076,-131.5 205.9076,-131.5 205.9076,-112.5 163.9076,-112.5"/>
<text text-anchor="middle" x="184.9076" y="-119.5" font-family="Helvetica,sans-Serif" font-size="10.00" fill="#000000">array</text>
</g>
<!-- Node0&#45;&gt;Node2 -->
<g id="edge2" class="edge">
<title>Node0&#45;&gt;Node2</title>
<path fill="none" stroke="#191970" d="M253.935,-291.1187C252.0196,-271.378 248.2613,-245.7362 240.9076,-224 230.3365,-192.7542 210.4689,-159.8719 197.4641,-140.1518"/>
<polygon fill="#191970" stroke="#191970" points="200.1901,-137.9338 191.702,-131.5932 194.3835,-141.8431 200.1901,-137.9338"/>
</g>
<!-- Node3 -->
<g id="node4" class="node">
<title>Node3</title>
<polygon fill="none" stroke="#bfbfbf" points="159.4076,-230 159.4076,-249 208.4076,-249 208.4076,-230 159.4076,-230"/>
<text text-anchor="middle" x="183.9076" y="-237" font-family="Helvetica,sans-Serif" font-size="10.00" fill="#000000">cstdlib</text>
</g>
<!-- Node0&#45;&gt;Node3 -->
<g id="edge3" class="edge">
<title>Node0&#45;&gt;Node3</title>
<path fill="none" stroke="#191970" d="M228.6875,-291.4322C218.6074,-279.7421 207.5492,-266.9178 198.9439,-256.9379"/>
<polygon fill="#191970" stroke="#191970" points="201.5485,-254.5989 192.3675,-249.3112 196.2472,-259.1702 201.5485,-254.5989"/>
</g>
<!-- Node4 -->
<g id="node5" class="node">
<title>Node4</title>
<polygon fill="none" stroke="#bfbfbf" points="75.9076,-112.5 75.9076,-131.5 125.9076,-131.5 125.9076,-112.5 75.9076,-112.5"/>
<text text-anchor="middle" x="100.9076" y="-119.5" font-family="Helvetica,sans-Serif" font-size="10.00" fill="#000000">cstdint</text>
</g>
<!-- Node0&#45;&gt;Node4 -->
<g id="edge4" class="edge">
<title>Node0&#45;&gt;Node4</title>
<path fill="none" stroke="#191970" d="M147.5845,-299.5453C85.4401,-284.9949 17.9544,-266.874 8.9076,-255 -22.6213,-213.6181 39.6917,-162.462 76.5164,-137.3615"/>
<polygon fill="#191970" stroke="#191970" points="78.8585,-140.0079 85.2568,-131.5632 74.9888,-134.1747 78.8585,-140.0079"/>
</g>
<!-- Node5 -->
<g id="node6" class="node">
<title>Node5</title>
<polygon fill="none" stroke="#bfbfbf" points="645.9076,-112.5 645.9076,-131.5 689.9076,-131.5 689.9076,-112.5 645.9076,-112.5"/>
<text text-anchor="middle" x="667.9076" y="-119.5" font-family="Helvetica,sans-Serif" font-size="10.00" fill="#000000">string</text>
</g>
<!-- Node0&#45;&gt;Node5 -->
<g id="edge5" class="edge">
<title>Node0&#45;&gt;Node5</title>
<path fill="none" stroke="#191970" d="M363.9549,-304.6317C419.137,-293.495 486.7294,-277.1137 544.9076,-255 603.4618,-232.7434 636.8247,-241.8018 668.9076,-188 677.1511,-174.1759 676.0481,-155.6541 673.373,-141.7505"/>
<polygon fill="#191970" stroke="#191970" points="676.7239,-140.7088 671.0391,-131.7682 669.9077,-142.3025 676.7239,-140.7088"/>
</g>
<!-- Node6 -->
<g id="node7" class="node">
<title>Node6</title>
<g id="a_node7"><a xlink:href="../../dc/dcd/DataHeader_8h.html" target="_top" xlink:title="Headers/DataHeader.h">
<polygon fill="none" stroke="#000000" points="813.4076,-168.5 813.4076,-187.5 940.4076,-187.5 940.4076,-168.5 813.4076,-168.5"/>
<text text-anchor="middle" x="876.9076" y="-175.5" font-family="Helvetica,sans-Serif" font-size="10.00" fill="#000000">Headers/DataHeader.h</text>
</a>
</g>
</g>
<!-- Node0&#45;&gt;Node6 -->
<g id="edge6" class="edge">
<title>Node0&#45;&gt;Node6</title>
<path fill="none" stroke="#191970" d="M363.9606,-316.6783C459.3631,-308.8707 601.3209,-291.78 719.9076,-255 769.3582,-239.6627 822.5991,-210.5877 852.6341,-192.8853"/>
<polygon fill="#191970" stroke="#191970" points="854.7449,-195.7014 861.536,-187.5693 851.1559,-189.6915 854.7449,-195.7014"/>
</g>
<!-- Node15 -->
<g id="node16" class="node">
<title>Node15</title>
<g id="a_node16"><a xlink:href="../../dc/dd8/RUInfo_8h.html" target="_top" xlink:title="ITSMFTReconstruction\l/RUInfo.h">
<polygon fill="none" stroke="#000000" points="18.4076,-224.5 18.4076,-254.5 141.4076,-254.5 141.4076,-224.5 18.4076,-224.5"/>
<text text-anchor="start" x="26.4076" y="-242.5" font-family="Helvetica,sans-Serif" font-size="10.00" fill="#000000">ITSMFTReconstruction</text>
<text text-anchor="middle" x="79.9076" y="-231.5" font-family="Helvetica,sans-Serif" font-size="10.00" fill="#000000">/RUInfo.h</text>
</a>
</g>
</g>
<!-- Node0&#45;&gt;Node15 -->
<g id="edge17" class="edge">
<title>Node0&#45;&gt;Node15</title>
<path fill="none" stroke="#191970" d="M189.3695,-291.4322C166.3439,-280.5081 141.2305,-268.5935 120.8728,-258.9352"/>
<polygon fill="#191970" stroke="#191970" points="122.1207,-255.6534 111.5857,-254.5291 119.1202,-261.9777 122.1207,-255.6534"/>
</g>
<!-- Node16 -->
<g id="node17" class="node">
<title>Node16</title>
<g id="a_node17"><a xlink:href="../../d6/d31/DetID_8h.html" target="_top" xlink:title="DetectorsCommonDataFormats\l/DetID.h">
<polygon fill="none" stroke="#000000" points="365.4076,-224.5 365.4076,-254.5 536.4076,-254.5 536.4076,-224.5 365.4076,-224.5"/>
<text text-anchor="start" x="373.4076" y="-242.5" font-family="Helvetica,sans-Serif" font-size="10.00" fill="#000000">DetectorsCommonDataFormats</text>
<text text-anchor="middle" x="450.9076" y="-231.5" font-family="Helvetica,sans-Serif" font-size="10.00" fill="#000000">/DetID.h</text>
</a>
</g>
</g>
<!-- Node0&#45;&gt;Node16 -->
<g id="edge20" class="edge">
<title>Node0&#45;&gt;Node16</title>
<path fill="none" stroke="#191970" d="M329.6287,-291.4322C355.4864,-280.3598 383.7205,-268.2699 406.4356,-258.5431"/>
<polygon fill="#191970" stroke="#191970" points="407.9948,-261.6829 415.8097,-254.5291 405.2393,-255.2481 407.9948,-261.6829"/>
</g>
<!-- Node6&#45;&gt;Node4 -->
<g id="edge7" class="edge">
<title>Node6&#45;&gt;Node4</title>
<path fill="none" stroke="#191970" d="M813.1506,-174.9187C661.2865,-167.4205 281.424,-147.6878 154.9076,-132 148.846,-131.2484 142.4366,-130.2467 136.233,-129.1672"/>
<polygon fill="#191970" stroke="#191970" points="136.5521,-125.6675 126.0849,-127.3074 135.2902,-132.5528 136.5521,-125.6675"/>
</g>
<!-- Node6&#45;&gt;Node5 -->
<g id="edge13" class="edge">
<title>Node6&#45;&gt;Node5</title>
<path fill="none" stroke="#191970" d="M837.1339,-168.4364C803.0597,-160.0838 752.4743,-147.308 700.0222,-132.2133"/>
<polygon fill="#191970" stroke="#191970" points="700.7892,-128.7916 690.2101,-129.3684 698.8398,-135.5148 700.7892,-128.7916"/>
</g>
<!-- Node7 -->
<g id="node8" class="node">
<title>Node7</title>
<polygon fill="none" stroke="#bfbfbf" points="1075.9076,-112.5 1075.9076,-131.5 1133.9076,-131.5 1133.9076,-112.5 1075.9076,-112.5"/>
<text text-anchor="middle" x="1104.9076" y="-119.5" font-family="Helvetica,sans-Serif" font-size="10.00" fill="#000000">memory</text>
</g>
<!-- Node6&#45;&gt;Node7 -->
<g id="edge8" class="edge">
<title>Node6&#45;&gt;Node7</title>
<path fill="none" stroke="#191970" d="M917.365,-168.4501C953.7637,-159.8035 1008.9611,-146.5565 1065.9681,-132.2042"/>
<polygon fill="#191970" stroke="#191970" points="1067.0376,-135.5441 1075.8767,-129.7029 1065.3242,-128.757 1067.0376,-135.5441"/>
</g>
<!-- Node8 -->
<g id="node9" class="node">
<title>Node8</title>
<polygon fill="none" stroke="#bfbfbf" points="707.9076,-112.5 707.9076,-131.5 759.9076,-131.5 759.9076,-112.5 707.9076,-112.5"/>
<text text-anchor="middle" x="733.9076" y="-119.5" font-family="Helvetica,sans-Serif" font-size="10.00" fill="#000000">cassert</text>
</g>
<!-- Node6&#45;&gt;Node8 -->
<g id="edge9" class="edge">
<title>Node6&#45;&gt;Node8</title>
<path fill="none" stroke="#191970" d="M852.325,-168.3733C828.958,-159.2226 793.6213,-145.3844 767.6292,-135.2057"/>
<polygon fill="#191970" stroke="#191970" points="768.7571,-131.8886 758.1694,-131.5011 766.2046,-138.4066 768.7571,-131.8886"/>
</g>
<!-- Node9 -->
<g id="node10" class="node">
<title>Node9</title>
<polygon fill="none" stroke="#bfbfbf" points="1151.9076,-112.5 1151.9076,-131.5 1201.9076,-131.5 1201.9076,-112.5 1151.9076,-112.5"/>
<text text-anchor="middle" x="1176.9076" y="-119.5" font-family="Helvetica,sans-Serif" font-size="10.00" fill="#000000">cstring</text>
</g>
<!-- Node6&#45;&gt;Node9 -->
<g id="edge10" class="edge">
<title>Node6&#45;&gt;Node9</title>
<path fill="none" stroke="#191970" d="M940.4689,-169.1071C992.2906,-161.3786 1067.5214,-149.0745 1141.7519,-132.0702"/>
<polygon fill="#191970" stroke="#191970" points="1142.7924,-135.4219 1151.742,-129.7514 1141.2096,-128.6031 1142.7924,-135.4219"/>
</g>
<!-- Node10 -->
<g id="node11" class="node">
<title>Node10</title>
<polygon fill="none" stroke="#bfbfbf" points="918.9076,-56.5 918.9076,-75.5 982.9076,-75.5 982.9076,-56.5 918.9076,-56.5"/>
<text text-anchor="middle" x="950.9076" y="-63.5" font-family="Helvetica,sans-Serif" font-size="10.00" fill="#000000">algorithm</text>
</g>
<!-- Node6&#45;&gt;Node10 -->
<g id="edge11" class="edge">
<title>Node6&#45;&gt;Node10</title>
<path fill="none" stroke="#191970" d="M940.4896,-173.6953C1032.4191,-166.8156 1193.4312,-152.0482 1210.9076,-132 1216.7485,-125.2995 1216.6193,-118.8109 1210.9076,-112 1183.6472,-79.4932 1059.8836,-69.9457 993.4191,-67.1506"/>
<polygon fill="#191970" stroke="#191970" points="993.3954,-63.6471 983.2675,-66.7575 993.1245,-70.6419 993.3954,-63.6471"/>
</g>
<!-- Node11 -->
<g id="node12" class="node">
<title>Node11</title>
<polygon fill="none" stroke="#bfbfbf" points="1258.4076,-112.5 1258.4076,-131.5 1323.4076,-131.5 1323.4076,-112.5 1258.4076,-112.5"/>
<text text-anchor="middle" x="1290.9076" y="-119.5" font-family="Helvetica,sans-Serif" font-size="10.00" fill="#000000">stdexcept</text>
</g>
<!-- Node6&#45;&gt;Node11 -->
<g id="edge12" class="edge">
<title>Node6&#45;&gt;Node11</title>
<path fill="none" stroke="#191970" d="M940.4666,-171.6906C1013.8348,-164.0241 1138.007,-149.8696 1243.9076,-132 1245.3728,-131.7528 1246.8618,-131.4915 1248.3639,-131.2194"/>
<polygon fill="#191970" stroke="#191970" points="1249.1999,-134.6229 1258.3601,-129.2992 1247.8794,-127.7485 1249.1999,-134.6229"/>
</g>
<!-- Node12 -->
<g id="node13" class="node">
<title>Node12</title>
<polygon fill="none" stroke="#bfbfbf" points="777.9076,-112.5 777.9076,-131.5 827.9076,-131.5 827.9076,-112.5 777.9076,-112.5"/>
<text text-anchor="middle" x="802.9076" y="-119.5" font-family="Helvetica,sans-Serif" font-size="10.00" fill="#000000">climits</text>
</g>
<!-- Node6&#45;&gt;Node12 -->
<g id="edge14" class="edge">
<title>Node6&#45;&gt;Node12</title>
<path fill="none" stroke="#191970" d="M864.0178,-168.2455C852.9822,-159.8943 836.8784,-147.7076 823.9722,-137.9408"/>
<polygon fill="#191970" stroke="#191970" points="825.7358,-134.8862 815.6497,-131.6427 821.5117,-140.4681 825.7358,-134.8862"/>
</g>
<!-- Node13 -->
<g id="node14" class="node">
<title>Node13</title>
<g id="a_node14"><a xlink:href="../../d7/df8/Types_8h.html" target="_top" xlink:title="MemoryResources/Types.h">
<polygon fill="none" stroke="#000000" points="845.9076,-112.5 845.9076,-131.5 991.9076,-131.5 991.9076,-112.5 845.9076,-112.5"/>
<text text-anchor="middle" x="918.9076" y="-119.5" font-family="Helvetica,sans-Serif" font-size="10.00" fill="#000000">MemoryResources/Types.h</text>
</a>
</g>
</g>
<!-- Node6&#45;&gt;Node13 -->
<g id="edge15" class="edge">
<title>Node6&#45;&gt;Node13</title>
<path fill="none" stroke="#191970" d="M884.2234,-168.2455C890.1255,-160.3761 898.5818,-149.101 905.6669,-139.6542"/>
<polygon fill="#191970" stroke="#191970" points="908.4755,-141.7427 911.6756,-131.6427 902.8755,-137.5427 908.4755,-141.7427"/>
</g>
<!-- Node14 -->
<g id="node15" class="node">
<title>Node14</title>
<polygon fill="none" stroke="#bfbfbf" points="1010.4076,-112.5 1010.4076,-131.5 1057.4076,-131.5 1057.4076,-112.5 1010.4076,-112.5"/>
<text text-anchor="middle" x="1033.9076" y="-119.5" font-family="Helvetica,sans-Serif" font-size="10.00" fill="#000000">cerrno</text>
</g>
<!-- Node6&#45;&gt;Node14 -->
<g id="edge16" class="edge">
<title>Node6&#45;&gt;Node14</title>
<path fill="none" stroke="#191970" d="M903.8968,-168.3733C930.7186,-158.8062 971.905,-144.1156 1000.7135,-133.8399"/>
<polygon fill="#191970" stroke="#191970" points="1002.1005,-137.0613 1010.3434,-130.4051 999.7487,-130.4681 1002.1005,-137.0613"/>
</g>
<!-- Node15&#45;&gt;Node1 -->
<g id="edge18" class="edge">
<title>Node15&#45;&gt;Node1</title>
<path fill="none" stroke="#191970" d="M94.2447,-224.2977C102.5472,-215.4941 113.0258,-204.3833 121.6365,-195.2529"/>
<polygon fill="#191970" stroke="#191970" points="124.3063,-197.5234 128.621,-187.8469 119.2137,-192.7206 124.3063,-197.5234"/>
</g>
<!-- Node15&#45;&gt;Node4 -->
<g id="edge19" class="edge">
<title>Node15&#45;&gt;Node4</title>
<path fill="none" stroke="#191970" d="M82.653,-224.1389C86.4365,-202.9692 93.2551,-164.8174 97.4026,-141.6112"/>
<polygon fill="#191970" stroke="#191970" points="100.885,-142.0193 99.1991,-131.5595 93.9942,-140.7877 100.885,-142.0193"/>
</g>
<!-- Node16&#45;&gt;Node1 -->
<g id="edge21" class="edge">
<title>Node16&#45;&gt;Node1</title>
<path fill="none" stroke="#191970" d="M368.3492,-224.4526C315.0518,-214.5513 244.2727,-201.0528 181.9076,-188 180.4699,-187.6991 179.0068,-187.3886 177.5297,-187.0716"/>
<polygon fill="#191970" stroke="#191970" points="178.2169,-183.6392 167.6993,-184.9163 176.7177,-190.4768 178.2169,-183.6392"/>
</g>
<!-- Node16&#45;&gt;Node2 -->
<g id="edge22" class="edge">
<title>Node16&#45;&gt;Node2</title>
<path fill="none" stroke="#191970" d="M392.59,-224.4675C361.6787,-215.5766 323.4706,-203.0981 290.9076,-188 260.0699,-173.7019 227.2426,-152.1593 206.4315,-137.6103"/>
<polygon fill="#191970" stroke="#191970" points="208.2105,-134.5814 198.0272,-131.657 204.1642,-140.2935 208.2105,-134.5814"/>
</g>
<!-- Node16&#45;&gt;Node4 -->
<g id="edge25" class="edge">
<title>Node16&#45;&gt;Node4</title>
<path fill="none" stroke="#191970" d="M381.1277,-224.4713C342.3261,-215.3847 293.4296,-202.7202 250.9076,-188 207.4285,-172.9485 159.0227,-150.5754 129.2656,-136.1374"/>
<polygon fill="#191970" stroke="#191970" points="130.4439,-132.8175 119.9231,-131.5673 127.368,-139.1055 130.4439,-132.8175"/>
</g>
<!-- Node16&#45;&gt;Node5 -->
<g id="edge27" class="edge">
<title>Node16&#45;&gt;Node5</title>
<path fill="none" stroke="#191970" d="M536.651,-225.6198C581.9691,-216.6623 631.5407,-203.748 647.9076,-188 660.4204,-175.9604 665.1745,-156.3793 666.945,-141.6659"/>
<polygon fill="#191970" stroke="#191970" points="670.4437,-141.8275 667.7964,-131.5688 663.4685,-141.2393 670.4437,-141.8275"/>
</g>
<!-- Node16&#45;&gt;Node6 -->
<g id="edge40" class="edge">
<title>Node16&#45;&gt;Node6</title>
<path fill="none" stroke="#191970" d="M536.6026,-227.1285C614.6882,-215.8556 728.8285,-199.3776 802.9937,-188.6707"/>
<polygon fill="#191970" stroke="#191970" points="803.7882,-192.0923 813.1855,-187.1993 802.788,-185.1642 803.7882,-192.0923"/>
</g>
<!-- Node16&#45;&gt;Node8 -->
<g id="edge24" class="edge">
<title>Node16&#45;&gt;Node8</title>
<path fill="none" stroke="#191970" d="M536.4684,-230.5808C578.4245,-223.4702 628.4909,-210.7407 668.9076,-188 690.2315,-176.0019 709.1673,-154.9541 721.0221,-139.8507"/>
<polygon fill="#191970" stroke="#191970" points="723.903,-141.8438 727.1482,-131.7582 718.3218,-137.6188 723.903,-141.8438"/>
</g>
<!-- Node17 -->
<g id="node18" class="node">
<title>Node17</title>
<polygon fill="none" stroke="#bfbfbf" points="503.9076,-168.5 503.9076,-187.5 547.9076,-187.5 547.9076,-168.5 503.9076,-168.5"/>
<text text-anchor="middle" x="525.9076" y="-175.5" font-family="Helvetica,sans-Serif" font-size="10.00" fill="#000000">bitset</text>
</g>
<!-- Node16&#45;&gt;Node17 -->
<g id="edge23" class="edge">
<title>Node16&#45;&gt;Node17</title>
<path fill="none" stroke="#191970" d="M469.4469,-224.2977C480.5084,-215.2274 494.5567,-203.7077 505.8729,-194.4285"/>
<polygon fill="#191970" stroke="#191970" points="508.3857,-196.8942 513.8991,-187.8469 503.9471,-191.4813 508.3857,-196.8942"/>
</g>
<!-- Node18 -->
<g id="node19" class="node">
<title>Node18</title>
<polygon fill="none" stroke="#bfbfbf" points="566.4076,-168.5 566.4076,-187.5 639.4076,-187.5 639.4076,-168.5 566.4076,-168.5"/>
<text text-anchor="middle" x="602.9076" y="-175.5" font-family="Helvetica,sans-Serif" font-size="10.00" fill="#000000">string_view</text>
</g>
<!-- Node16&#45;&gt;Node18 -->
<g id="edge26" class="edge">
<title>Node16&#45;&gt;Node18</title>
<path fill="none" stroke="#191970" d="M488.091,-224.4554C513.1188,-214.329 545.8239,-201.0964 569.9241,-191.3453"/>
<polygon fill="#191970" stroke="#191970" points="571.3958,-194.5256 579.353,-187.5303 568.7702,-188.0366 571.3958,-194.5256"/>
</g>
<!-- Node19 -->
<g id="node20" class="node">
<title>Node19</title>
<polygon fill="none" stroke="#bfbfbf" points="416.4076,-168.5 416.4076,-187.5 485.4076,-187.5 485.4076,-168.5 416.4076,-168.5"/>
<text text-anchor="middle" x="450.9076" y="-175.5" font-family="Helvetica,sans-Serif" font-size="10.00" fill="#000000">type_traits</text>
</g>
<!-- Node16&#45;&gt;Node19 -->
<g id="edge28" class="edge">
<title>Node16&#45;&gt;Node19</title>
<path fill="none" stroke="#191970" d="M450.9076,-224.2977C450.9076,-216.3834 450.9076,-206.6043 450.9076,-198.0759"/>
<polygon fill="#191970" stroke="#191970" points="454.4077,-197.8469 450.9076,-187.8469 447.4077,-197.847 454.4077,-197.8469"/>
</g>
<!-- Node20 -->
<g id="node21" class="node">
<title>Node20</title>
<g id="a_node21"><a xlink:href="../../d9/d52/Common_2MathUtils_2include_2MathUtils_2Utils_8h.html" target="_top" xlink:title="MathUtils/Utils.h">
<polygon fill="none" stroke="#000000" points="299.9076,-168.5 299.9076,-187.5 397.9076,-187.5 397.9076,-168.5 299.9076,-168.5"/>
<text text-anchor="middle" x="348.9076" y="-175.5" font-family="Helvetica,sans-Serif" font-size="10.00" fill="#000000">MathUtils/Utils.h</text>
</a>
</g>
</g>
<!-- Node16&#45;&gt;Node20 -->
<g id="edge29" class="edge">
<title>Node16&#45;&gt;Node20</title>
<path fill="none" stroke="#191970" d="M425.9556,-224.4554C409.9816,-214.8241 389.3473,-202.3828 373.4533,-192.7996"/>
<polygon fill="#191970" stroke="#191970" points="375.085,-189.6965 364.714,-187.5303 371.4705,-195.6912 375.085,-189.6965"/>
</g>
<!-- Node20&#45;&gt;Node2 -->
<g id="edge30" class="edge">
<title>Node20&#45;&gt;Node2</title>
<path fill="none" stroke="#191970" d="M320.715,-168.3733C291.423,-158.3711 245.7302,-142.7687 215.5585,-132.4662"/>
<polygon fill="#191970" stroke="#191970" points="216.5621,-129.1105 205.9675,-129.1912 214.3,-135.7349 216.5621,-129.1105"/>
</g>
<!-- Node21 -->
<g id="node22" class="node">
<title>Node21</title>
<polygon fill="none" stroke="#bfbfbf" points="574.4076,-56.5 574.4076,-75.5 621.4076,-75.5 621.4076,-56.5 574.4076,-56.5"/>
<text text-anchor="middle" x="597.9076" y="-63.5" font-family="Helvetica,sans-Serif" font-size="10.00" fill="#000000">cmath</text>
</g>
<!-- Node20&#45;&gt;Node21 -->
<g id="edge31" class="edge">
<title>Node20&#45;&gt;Node21</title>
<path fill="none" stroke="#191970" d="M398.0052,-169.3309C470.0966,-156.5462 596.3017,-133.9298 597.9076,-132 608.4208,-119.3667 607.1528,-100.1704 604.0052,-85.7317"/>
<polygon fill="#191970" stroke="#191970" points="607.3233,-84.5868 601.3959,-75.8052 600.5533,-86.3664 607.3233,-84.5868"/>
</g>
<!-- Node22 -->
<g id="node23" class="node">
<title>Node22</title>
<g id="a_node23"><a xlink:href="../../df/d21/GPUCommonDef_8h.html" target="_top" xlink:title="GPUCommonDef.h">
<polygon fill="none" stroke="#000000" points="430.4076,-56.5 430.4076,-75.5 537.4076,-75.5 537.4076,-56.5 430.4076,-56.5"/>
<text text-anchor="middle" x="483.9076" y="-63.5" font-family="Helvetica,sans-Serif" font-size="10.00" fill="#000000">GPUCommonDef.h</text>
</a>
</g>
</g>
<!-- Node20&#45;&gt;Node22 -->
<g id="edge32" class="edge">
<title>Node20&#45;&gt;Node22</title>
<path fill="none" stroke="#191970" d="M368.972,-168.4772C385.4527,-160.1323 408.9259,-147.0123 426.9076,-132 443.8777,-117.8322 460.0328,-98.3548 470.7818,-84.2338"/>
<polygon fill="#191970" stroke="#191970" points="473.8654,-85.9521 477.0189,-75.8375 468.2461,-81.7778 473.8654,-85.9521"/>
</g>
<!-- Node25 -->
<g id="node26" class="node">
<title>Node25</title>
<g id="a_node26"><a xlink:href="../../d6/da2/GPUCommonMath_8h.html" target="_top" xlink:title="GPUCommonMath.h">
<polygon fill="none" stroke="#000000" points="474.4076,-112.5 474.4076,-131.5 589.4076,-131.5 589.4076,-112.5 474.4076,-112.5"/>
<text text-anchor="middle" x="531.9076" y="-119.5" font-family="Helvetica,sans-Serif" font-size="10.00" fill="#000000">GPUCommonMath.h</text>
</a>
</g>
</g>
<!-- Node20&#45;&gt;Node25 -->
<g id="edge35" class="edge">
<title>Node20&#45;&gt;Node25</title>
<path fill="none" stroke="#191970" d="M380.3664,-168.3733C410.9282,-159.021 457.4902,-144.7725 490.9337,-134.5385"/>
<polygon fill="#191970" stroke="#191970" points="492.3211,-137.7742 500.8593,-131.5011 490.2728,-131.0806 492.3211,-137.7742"/>
</g>
<!-- Node26 -->
<g id="node27" class="node">
<title>Node26</title>
<g id="a_node27"><a xlink:href="../../d6/d84/MathConstants_8h.html" target="_top" xlink:title="useful math constants ">
<polygon fill="none" stroke="#000000" points="223.9076,-112.5 223.9076,-131.5 417.9076,-131.5 417.9076,-112.5 223.9076,-112.5"/>
<text text-anchor="middle" x="320.9076" y="-119.5" font-family="Helvetica,sans-Serif" font-size="10.00" fill="#000000">CommonConstants/MathConstants.h</text>
</a>
</g>
</g>
<!-- Node20&#45;&gt;Node26 -->
<g id="edge39" class="edge">
<title>Node20&#45;&gt;Node26</title>
<path fill="none" stroke="#191970" d="M344.0303,-168.2455C340.2562,-160.6973 334.9155,-150.0158 330.3174,-140.8197"/>
<polygon fill="#191970" stroke="#191970" points="333.3316,-139.0217 325.7289,-131.6427 327.0706,-142.1522 333.3316,-139.0217"/>
</g>
<!-- Node23 -->
<g id="node24" class="node">
<title>Node23</title>
<g id="a_node24"><a xlink:href="../../d5/d93/GPUCommonDefSettings_8h.html" target="_top" xlink:title="GPUCommonDefSettings.h">
<polygon fill="none" stroke="#000000" points="332.9076,-.5 332.9076,-19.5 480.9076,-19.5 480.9076,-.5 332.9076,-.5"/>
<text text-anchor="middle" x="406.9076" y="-7.5" font-family="Helvetica,sans-Serif" font-size="10.00" fill="#000000">GPUCommonDefSettings.h</text>
</a>
</g>
</g>
<!-- Node22&#45;&gt;Node23 -->
<g id="edge33" class="edge">
<title>Node22&#45;&gt;Node23</title>
<path fill="none" stroke="#191970" d="M470.4952,-56.2455C458.9019,-47.814 441.9328,-35.4729 428.4397,-25.6598"/>
<polygon fill="#191970" stroke="#191970" points="430.3122,-22.6938 420.1663,-19.6427 426.195,-28.355 430.3122,-22.6938"/>
</g>
<!-- Node24 -->
<g id="node25" class="node">
<title>Node24</title>
<g id="a_node25"><a xlink:href="../../da/d5a/GPUCommonDefAPI_8h.html" target="_top" xlink:title="GPUCommonDefAPI.h">
<polygon fill="none" stroke="#000000" points="498.9076,-.5 498.9076,-19.5 622.9076,-19.5 622.9076,-.5 498.9076,-.5"/>
<text text-anchor="middle" x="560.9076" y="-7.5" font-family="Helvetica,sans-Serif" font-size="10.00" fill="#000000">GPUCommonDefAPI.h</text>
</a>
</g>
</g>
<!-- Node22&#45;&gt;Node24 -->
<g id="edge34" class="edge">
<title>Node22&#45;&gt;Node24</title>
<path fill="none" stroke="#191970" d="M497.32,-56.2455C508.9133,-47.814 525.8823,-35.4729 539.3754,-25.6598"/>
<polygon fill="#191970" stroke="#191970" points="541.6201,-28.355 547.6489,-19.6427 537.5029,-22.6938 541.6201,-28.355"/>
</g>
<!-- Node25&#45;&gt;Node10 -->
<g id="edge38" class="edge">
<title>Node25&#45;&gt;Node10</title>
<path fill="none" stroke="#191970" d="M589.7278,-114.2722C675.1712,-102.8526 833.1652,-81.7365 908.6336,-71.65"/>
<polygon fill="#191970" stroke="#191970" points="909.2705,-75.0961 918.7187,-70.3021 908.3431,-68.1578 909.2705,-75.0961"/>
</g>
<!-- Node25&#45;&gt;Node21 -->
<g id="edge37" class="edge">
<title>Node25&#45;&gt;Node21</title>
<path fill="none" stroke="#191970" d="M543.4039,-112.2455C553.1518,-103.9746 567.3335,-91.9416 578.7874,-82.2232"/>
<polygon fill="#191970" stroke="#191970" points="581.1823,-84.7813 586.543,-75.6427 576.6534,-79.4437 581.1823,-84.7813"/>
</g>
<!-- Node25&#45;&gt;Node22 -->
<g id="edge36" class="edge">
<title>Node25&#45;&gt;Node22</title>
<path fill="none" stroke="#191970" d="M523.5466,-112.2455C516.7326,-104.2958 506.9395,-92.8706 498.7924,-83.3656"/>
<polygon fill="#191970" stroke="#191970" points="501.3381,-80.9575 492.1727,-75.6427 496.0233,-85.513 501.3381,-80.9575"/>
</g>
</g>
</svg>
        <g id="navigator" transform="translate(0 0)" fill="#404254">
                <rect fill="#f2f5e9" fill-opacity="0.5" stroke="#606060" stroke-width=".5" x="0" y="0" width="60" height="60"/>
                <use id="zoomplus" xlink:href="#zoomPlus" x="17" y="9" onmousedown="handleZoom(evt,'in')"/>
                <use id="zoomminus" xlink:href="#zoomMin" x="42" y="9" onmousedown="handleZoom(evt,'out')"/>
                <use id="reset" xlink:href="#resetDef" x="30" y="36" onmousedown="handleReset()"/>
                <g id="arrowUp" xlink:href="#dirArrow" transform="translate(30 24)" onmousedown="handlePan(0,-1)">
                  <use xlink:href="#rim" fill="#404040">
                        <set attributeName="fill" to="#808080" begin="arrowUp.mouseover" end="arrowUp.mouseout"/>
                  </use>
                  <path fill="none" stroke="white" stroke-width="1.5" d="M0,-3.0v7 M-2.5,-0.5L0,-3.0L2.5,-0.5"/>
                </g>
                <g id="arrowRight" xlink:href="#dirArrow" transform="rotate(90) translate(36 -43)" onmousedown="handlePan(1,0)">
                  <use xlink:href="#rim" fill="#404040">
                        <set attributeName="fill" to="#808080" begin="arrowRight.mouseover" end="arrowRight.mouseout"/>
                  </use>
                  <path fill="none" stroke="white" stroke-width="1.5" d="M0,-3.0v7 M-2.5,-0.5L0,-3.0L2.5,-0.5"/>
                </g>
                <g id="arrowDown" xlink:href="#dirArrow" transform="rotate(180) translate(-30 -48)" onmousedown="handlePan(0,1)">
                  <use xlink:href="#rim" fill="#404040">
                        <set attributeName="fill" to="#808080" begin="arrowDown.mouseover" end="arrowDown.mouseout"/>
                  </use>
                  <path fill="none" stroke="white" stroke-width="1.5" d="M0,-3.0v7 M-2.5,-0.5L0,-3.0L2.5,-0.5"/>
                </g>
                <g id="arrowLeft" xlink:href="#dirArrow" transform="rotate(270) translate(-36 17)" onmousedown="handlePan(-1,0)">
                  <use xlink:href="#rim" fill="#404040">
                        <set attributeName="fill" to="#808080" begin="arrowLeft.mouseover" end="arrowLeft.mouseout"/>
                  </use>
                  <path fill="none" stroke="white" stroke-width="1.5" d="M0,-3.0v7 M-2.5,-0.5L0,-3.0L2.5,-0.5"/>
                </g>
        </g>
        <svg viewBox="0 0 15 15" width="100%" height="30px" preserveAspectRatio="xMaxYMin meet">
         <g id="arrow_out" transform="scale(0.3 0.3)">
          <a xlink:href="ChipMappingITS_8h__incl_org.svg" target="_base">
           <rect id="button" ry="5" rx="5" y="6" x="6" height="38" width="38"
                fill="#f2f5e9" fill-opacity="0.5" stroke="#606060" stroke-width="1.0"/>
           <path id="arrow"
             d="M 11.500037,31.436501 C 11.940474,20.09759 22.043105,11.32322 32.158766,21.979434 L 37.068811,17.246167 C 37.068811,17.246167 37.088388,32 37.088388,32 L 22.160133,31.978069 C 22.160133,31.978069 26.997745,27.140456 26.997745,27.140456 C 18.528582,18.264221 13.291696,25.230495 11.500037,31.436501 z"
             style="fill:#404040;"/>
          </a>
         </g>
        </svg>
</svg>
