<?xml version="1.0" encoding="UTF-8" standalone="no"?>
<!DOCTYPE svg PUBLIC "-//W3C//DTD SVG 1.1//EN"
 "http://www.w3.org/Graphics/SVG/1.1/DTD/svg11.dtd">
<!-- Generated by graphviz version 2.40.1 (20161225.0304)
 -->
<!-- Title: /home/travis/build/AliceO2Group/AliceO2/Detectors/MUON/MID/Raw/src/LocalBoardRO.cxx Pages: 1 -->
<svg width="488pt" height="173pt"
 viewBox="0.00 0.00 487.50 173.00" xmlns="http://www.w3.org/2000/svg" xmlns:xlink="http://www.w3.org/1999/xlink">
<g id="graph0" class="graph" transform="scale(1 1) rotate(0) translate(4 169)">
<title>/home/travis/build/AliceO2Group/AliceO2/Detectors/MUON/MID/Raw/src/LocalBoardRO.cxx</title>
<!-- Node0 -->
<g id="node1" class="node">
<title>Node0</title>
<polygon fill="#bfbfbf" stroke="#000000" points="221,-112.5 221,-164.5 367,-164.5 367,-112.5 221,-112.5"/>
<text text-anchor="start" x="229" y="-152.5" font-family="Helvetica,sans-Serif" font-size="10.00" fill="#000000">/home/travis/build</text>
<text text-anchor="start" x="229" y="-141.5" font-family="Helvetica,sans-Serif" font-size="10.00" fill="#000000">/AliceO2Group/AliceO2</text>
<text text-anchor="start" x="229" y="-130.5" font-family="Helvetica,sans-Serif" font-size="10.00" fill="#000000">/Detectors/MUON/MID/Raw</text>
<text text-anchor="middle" x="294" y="-119.5" font-family="Helvetica,sans-Serif" font-size="10.00" fill="#000000">/src/LocalBoardRO.cxx</text>
</g>
<!-- Node1 -->
<g id="node2" class="node">
<title>Node1</title>
<g id="a_node2"><a xlink:href="../../d3/d4a/LocalBoardRO_8h.html" target="_top" xlink:title="Structure to store the FEE local board information. ">
<polygon fill="none" stroke="#000000" points="168,-56.5 168,-75.5 304,-75.5 304,-56.5 168,-56.5"/>
<text text-anchor="middle" x="236" y="-63.5" font-family="Helvetica,sans-Serif" font-size="10.00" fill="#000000">MIDRaw/LocalBoardRO.h</text>
</a>
</g>
</g>
<!-- Node0&#45;&gt;Node1 -->
<g id="edge1" class="edge">
<title>Node0&#45;&gt;Node1</title>
<path fill="none" stroke="#191970" d="M273.0607,-112.3258C265.3705,-102.7131 256.8588,-92.0735 249.9339,-83.4174"/>
<polygon fill="#191970" stroke="#191970" points="252.6072,-81.1563 243.6272,-75.534 247.1411,-85.5292 252.6072,-81.1563"/>
</g>
<!-- Node5 -->
<g id="node6" class="node">
<title>Node5</title>
<polygon fill="none" stroke="#bfbfbf" points="322,-56.5 322,-75.5 382,-75.5 382,-56.5 322,-56.5"/>
<text text-anchor="middle" x="352" y="-63.5" font-family="Helvetica,sans-Serif" font-size="10.00" fill="#000000">iostream</text>
</g>
<!-- Node0&#45;&gt;Node5 -->
<g id="edge5" class="edge">
<title>Node0&#45;&gt;Node5</title>
<path fill="none" stroke="#191970" d="M314.9393,-112.3258C322.6295,-102.7131 331.1412,-92.0735 338.0661,-83.4174"/>
<polygon fill="#191970" stroke="#191970" points="340.8589,-85.5292 344.3728,-75.534 335.3928,-81.1563 340.8589,-85.5292"/>
</g>
<!-- Node6 -->
<g id="node7" class="node">
<title>Node6</title>
<polygon fill="none" stroke="#bfbfbf" points="400.5,-56.5 400.5,-75.5 479.5,-75.5 479.5,-56.5 400.5,-56.5"/>
<text text-anchor="middle" x="440" y="-63.5" font-family="Helvetica,sans-Serif" font-size="10.00" fill="#000000">fmt/format.h</text>
</g>
<!-- Node0&#45;&gt;Node6 -->
<g id="edge6" class="edge">
<title>Node0&#45;&gt;Node6</title>
<path fill="none" stroke="#191970" d="M346.7094,-112.3258C368.6888,-101.4114 393.3341,-89.1731 411.7717,-80.0175"/>
<polygon fill="#191970" stroke="#191970" points="413.4006,-83.1164 420.8005,-75.534 410.2873,-76.8469 413.4006,-83.1164"/>
</g>
<!-- Node7 -->
<g id="node8" class="node">
<title>Node7</title>
<g id="a_node8"><a xlink:href="../../d2/da5/CrateParameters_8h.html" target="_top" xlink:title="MID RO crate parameters. ">
<polygon fill="none" stroke="#000000" points="0,-56.5 0,-75.5 150,-75.5 150,-56.5 0,-56.5"/>
<text text-anchor="middle" x="75" y="-63.5" font-family="Helvetica,sans-Serif" font-size="10.00" fill="#000000">MIDRaw/CrateParameters.h</text>
</a>
</g>
</g>
<!-- Node0&#45;&gt;Node7 -->
<g id="edge7" class="edge">
<title>Node0&#45;&gt;Node7</title>
<path fill="none" stroke="#191970" d="M220.7717,-114.2578C184.7989,-102.349 142.9384,-88.491 113.3284,-78.6886"/>
<polygon fill="#191970" stroke="#191970" points="114.3758,-75.3486 103.7825,-75.5285 112.1759,-81.994 114.3758,-75.3486"/>
</g>
<!-- Node2 -->
<g id="node3" class="node">
<title>Node2</title>
<polygon fill="none" stroke="#bfbfbf" points="136,-.5 136,-19.5 186,-19.5 186,-.5 136,-.5"/>
<text text-anchor="middle" x="161" y="-7.5" font-family="Helvetica,sans-Serif" font-size="10.00" fill="#000000">cstdint</text>
</g>
<!-- Node1&#45;&gt;Node2 -->
<g id="edge2" class="edge">
<title>Node1&#45;&gt;Node2</title>
<path fill="none" stroke="#191970" d="M222.936,-56.2455C211.6438,-47.814 195.1155,-35.4729 181.9729,-25.6598"/>
<polygon fill="#191970" stroke="#191970" points="184.0211,-22.8211 173.9143,-19.6427 179.8331,-28.4301 184.0211,-22.8211"/>
</g>
<!-- Node3 -->
<g id="node4" class="node">
<title>Node3</title>
<polygon fill="none" stroke="#bfbfbf" points="62,-.5 62,-19.5 104,-19.5 104,-.5 62,-.5"/>
<text text-anchor="middle" x="83" y="-7.5" font-family="Helvetica,sans-Serif" font-size="10.00" fill="#000000">array</text>
</g>
<!-- Node1&#45;&gt;Node3 -->
<g id="edge3" class="edge">
<title>Node1&#45;&gt;Node3</title>
<path fill="none" stroke="#191970" d="M209.6984,-56.3733C183.0653,-46.6252 141.8989,-31.5578 113.7678,-21.2614"/>
<polygon fill="#191970" stroke="#191970" points="114.6383,-17.853 104.0445,-17.7026 112.2322,-24.4265 114.6383,-17.853"/>
</g>
<!-- Node4 -->
<g id="node5" class="node">
<title>Node4</title>
<polygon fill="none" stroke="#bfbfbf" points="211.5,-.5 211.5,-19.5 260.5,-19.5 260.5,-.5 211.5,-.5"/>
<text text-anchor="middle" x="236" y="-7.5" font-family="Helvetica,sans-Serif" font-size="10.00" fill="#000000">iosfwd</text>
</g>
<!-- Node1&#45;&gt;Node4 -->
<g id="edge4" class="edge">
<title>Node1&#45;&gt;Node4</title>
<path fill="none" stroke="#191970" d="M236,-56.2455C236,-48.9382 236,-38.6944 236,-29.7046"/>
<polygon fill="#191970" stroke="#191970" points="239.5001,-29.6426 236,-19.6427 232.5001,-29.6427 239.5001,-29.6426"/>
</g>
<!-- Node7&#45;&gt;Node2 -->
<g id="edge8" class="edge">
<title>Node7&#45;&gt;Node2</title>
<path fill="none" stroke="#191970" d="M89.9801,-56.2455C103.1751,-47.6534 122.6051,-35.0014 137.8079,-25.1018"/>
<polygon fill="#191970" stroke="#191970" points="139.7215,-28.0325 146.1916,-19.6427 135.9017,-22.1665 139.7215,-28.0325"/>
</g>
<!-- Node7&#45;&gt;Node3 -->
<g id="edge9" class="edge">
<title>Node7&#45;&gt;Node3</title>
<path fill="none" stroke="#191970" d="M76.3935,-56.2455C77.4374,-48.9382 78.9008,-38.6944 80.1851,-29.7046"/>
<polygon fill="#191970" stroke="#191970" points="83.673,-30.0372 81.6225,-19.6427 76.7434,-29.0472 83.673,-30.0372"/>
</g>
</g>
</svg>
