<?xml version="1.0" encoding="UTF-8" standalone="no"?>
<!DOCTYPE svg PUBLIC "-//W3C//DTD SVG 1.1//EN"
 "http://www.w3.org/Graphics/SVG/1.1/DTD/svg11.dtd">
<!-- Generated by graphviz version 2.40.1 (20161225.0304)
 -->
<!-- Title: /home/travis/build/AliceO2Group/AliceO2/Detectors/MUON/MCH/Base/include/MCHBase/ClusterBlock.h Pages: 1 -->
<svg width="1963pt" height="517pt"
 viewBox="0.00 0.00 1962.50 517.00" xmlns="http://www.w3.org/2000/svg" xmlns:xlink="http://www.w3.org/1999/xlink">
<g id="graph0" class="graph" transform="scale(1 1) rotate(0) translate(4 513)">
<title>/home/travis/build/AliceO2Group/AliceO2/Detectors/MUON/MCH/Base/include/MCHBase/ClusterBlock.h</title>
<!-- Node2 -->
<g id="node1" class="node">
<title>Node2</title>
<polygon fill="#bfbfbf" stroke="#000000" points="1060.5,-456.5 1060.5,-508.5 1238.5,-508.5 1238.5,-456.5 1060.5,-456.5"/>
<text text-anchor="start" x="1068.5" y="-496.5" font-family="Helvetica,sans-Serif" font-size="10.00" fill="#000000">/home/travis/build</text>
<text text-anchor="start" x="1068.5" y="-485.5" font-family="Helvetica,sans-Serif" font-size="10.00" fill="#000000">/AliceO2Group/AliceO2</text>
<text text-anchor="start" x="1068.5" y="-474.5" font-family="Helvetica,sans-Serif" font-size="10.00" fill="#000000">/Detectors/MUON/MCH/Base</text>
<text text-anchor="middle" x="1149.5" y="-463.5" font-family="Helvetica,sans-Serif" font-size="10.00" fill="#000000">/include/MCHBase/ClusterBlock.h</text>
</g>
<!-- Node3 -->
<g id="node2" class="node">
<title>Node3</title>
<g id="a_node2"><a xlink:href="../../d8/d13/ClusterBlock_8cxx.html" target="_top" xlink:title="Implementation of the MCH cluster minimal structure. ">
<polygon fill="none" stroke="#000000" points="0,-362 0,-414 153,-414 153,-362 0,-362"/>
<text text-anchor="start" x="8" y="-402" font-family="Helvetica,sans-Serif" font-size="10.00" fill="#000000">/home/travis/build</text>
<text text-anchor="start" x="8" y="-391" font-family="Helvetica,sans-Serif" font-size="10.00" fill="#000000">/AliceO2Group/AliceO2</text>
<text text-anchor="start" x="8" y="-380" font-family="Helvetica,sans-Serif" font-size="10.00" fill="#000000">/Detectors/MUON/MCH/Base</text>
<text text-anchor="middle" x="76.5" y="-369" font-family="Helvetica,sans-Serif" font-size="10.00" fill="#000000">/src/ClusterBlock.cxx</text>
</a>
</g>
</g>
<!-- Node2&#45;&gt;Node3 -->
<g id="edge1" class="edge">
<title>Node2&#45;&gt;Node3</title>
<path fill="none" stroke="#191970" d="M1050.3286,-479.9577C834.6703,-473.822 328.9787,-455.9801 161.5,-420 154.2543,-418.4434 146.8041,-416.3797 139.4687,-414.0477"/>
<polygon fill="#191970" stroke="#191970" points="1050.2816,-483.4576 1060.3763,-480.241 1050.479,-476.4604 1050.2816,-483.4576"/>
</g>
<!-- Node4 -->
<g id="node3" class="node">
<title>Node4</title>
<g id="a_node3"><a xlink:href="../../db/d3a/ClusterFinderOriginal_8h.html" target="_top" xlink:title="Definition of a class to reconstruct clusters with the original MLEM algorithm. ">
<polygon fill="none" stroke="#000000" points="171,-356.5 171,-419.5 368,-419.5 368,-356.5 171,-356.5"/>
<text text-anchor="start" x="179" y="-407.5" font-family="Helvetica,sans-Serif" font-size="10.00" fill="#000000">/home/travis/build</text>
<text text-anchor="start" x="179" y="-396.5" font-family="Helvetica,sans-Serif" font-size="10.00" fill="#000000">/AliceO2Group/AliceO2</text>
<text text-anchor="start" x="179" y="-385.5" font-family="Helvetica,sans-Serif" font-size="10.00" fill="#000000">/Detectors/MUON/MCH/Clustering</text>
<text text-anchor="start" x="179" y="-374.5" font-family="Helvetica,sans-Serif" font-size="10.00" fill="#000000">/include/MCHClustering/ClusterFinder</text>
<text text-anchor="middle" x="269.5" y="-363.5" font-family="Helvetica,sans-Serif" font-size="10.00" fill="#000000">Original.h</text>
</a>
</g>
</g>
<!-- Node2&#45;&gt;Node4 -->
<g id="edge2" class="edge">
<title>Node2&#45;&gt;Node4</title>
<path fill="none" stroke="#191970" d="M1050.1413,-480.5645C903.1441,-476.3147 619.5469,-462.8008 382.5,-420 377.7847,-419.1486 372.9829,-418.1839 368.1502,-417.1338"/>
<polygon fill="#191970" stroke="#191970" points="1050.3923,-484.0728 1060.4866,-480.8548 1050.5887,-477.0756 1050.3923,-484.0728"/>
</g>
<!-- Node6 -->
<g id="node5" class="node">
<title>Node6</title>
<g id="a_node5"><a xlink:href="../../d1/d4a/ClusterFinderOriginalSpec_8cxx.html" target="_top" xlink:title="Implementation of a data processor to run the original MLEM cluster finder. ">
<polygon fill="none" stroke="#000000" points="224.5,-267.5 224.5,-319.5 406.5,-319.5 406.5,-267.5 224.5,-267.5"/>
<text text-anchor="start" x="232.5" y="-307.5" font-family="Helvetica,sans-Serif" font-size="10.00" fill="#000000">/home/travis/build</text>
<text text-anchor="start" x="232.5" y="-296.5" font-family="Helvetica,sans-Serif" font-size="10.00" fill="#000000">/AliceO2Group/AliceO2</text>
<text text-anchor="start" x="232.5" y="-285.5" font-family="Helvetica,sans-Serif" font-size="10.00" fill="#000000">/Detectors/MUON/MCH/Workflow</text>
<text text-anchor="middle" x="315.5" y="-274.5" font-family="Helvetica,sans-Serif" font-size="10.00" fill="#000000">/src/ClusterFinderOriginalSpec.cxx</text>
</a>
</g>
</g>
<!-- Node2&#45;&gt;Node6 -->
<g id="edge35" class="edge">
<title>Node2&#45;&gt;Node6</title>
<path fill="none" stroke="#191970" d="M1050.398,-478.6923C863.6784,-470.837 473.6624,-450.9361 420.5,-420 390.6655,-402.6388 398.4127,-382.671 376.5,-356 366.201,-343.4647 353.8548,-330.4895 342.9719,-319.632"/>
<polygon fill="#191970" stroke="#191970" points="1050.3572,-482.1936 1060.4945,-479.1137 1050.6491,-475.1996 1050.3572,-482.1936"/>
</g>
<!-- Node7 -->
<g id="node6" class="node">
<title>Node7</title>
<g id="a_node6"><a xlink:href="../../d3/d5c/Detectors_2MUON_2MCH_2Tracking_2include_2MCHTracking_2Cluster_8h.html" target="_top" xlink:title="/home/travis/build\l/AliceO2Group/AliceO2\l/Detectors/MUON/MCH/Tracking\l/include/MCHTracking/Cluster.h">
<polygon fill="none" stroke="#000000" points="819.5,-362 819.5,-414 989.5,-414 989.5,-362 819.5,-362"/>
<text text-anchor="start" x="827.5" y="-402" font-family="Helvetica,sans-Serif" font-size="10.00" fill="#000000">/home/travis/build</text>
<text text-anchor="start" x="827.5" y="-391" font-family="Helvetica,sans-Serif" font-size="10.00" fill="#000000">/AliceO2Group/AliceO2</text>
<text text-anchor="start" x="827.5" y="-380" font-family="Helvetica,sans-Serif" font-size="10.00" fill="#000000">/Detectors/MUON/MCH/Tracking</text>
<text text-anchor="middle" x="904.5" y="-369" font-family="Helvetica,sans-Serif" font-size="10.00" fill="#000000">/include/MCHTracking/Cluster.h</text>
</a>
</g>
</g>
<!-- Node2&#45;&gt;Node7 -->
<g id="edge5" class="edge">
<title>Node2&#45;&gt;Node7</title>
<path fill="none" stroke="#191970" d="M1072.5405,-452.8156C1040.4049,-440.4205 1003.3941,-426.1449 972.3002,-414.1515"/>
<polygon fill="#191970" stroke="#191970" points="1071.3145,-456.094 1081.9041,-456.4273 1073.8337,-449.563 1071.3145,-456.094"/>
</g>
<!-- Node12 -->
<g id="node11" class="node">
<title>Node12</title>
<g id="a_node11"><a xlink:href="../../dd/dea/TrackFinderSpec_8cxx.html" target="_top" xlink:title="Implementation of a data processor to read clusters, reconstruct tracks and send them. ">
<polygon fill="none" stroke="#000000" points="1093.5,-.5 1093.5,-52.5 1263.5,-52.5 1263.5,-.5 1093.5,-.5"/>
<text text-anchor="start" x="1101.5" y="-40.5" font-family="Helvetica,sans-Serif" font-size="10.00" fill="#000000">/home/travis/build</text>
<text text-anchor="start" x="1101.5" y="-29.5" font-family="Helvetica,sans-Serif" font-size="10.00" fill="#000000">/AliceO2Group/AliceO2</text>
<text text-anchor="start" x="1101.5" y="-18.5" font-family="Helvetica,sans-Serif" font-size="10.00" fill="#000000">/Detectors/MUON/MCH/Tracking</text>
<text text-anchor="middle" x="1178.5" y="-7.5" font-family="Helvetica,sans-Serif" font-size="10.00" fill="#000000">/src/TrackFinderSpec.cxx</text>
</a>
</g>
</g>
<!-- Node2&#45;&gt;Node12 -->
<g id="edge33" class="edge">
<title>Node2&#45;&gt;Node12</title>
<path fill="none" stroke="#191970" d="M1232.9537,-452.1783C1297.6988,-422.6616 1376.5,-370.8488 1376.5,-293.5 1376.5,-293.5 1376.5,-293.5 1376.5,-204.5 1376.5,-151.3499 1381.2383,-128.341 1345.5,-89 1324.164,-65.5132 1293.1413,-50.8147 1263.6092,-41.6322"/>
<polygon fill="#191970" stroke="#191970" points="1231.232,-449.1133 1223.5142,-456.3718 1234.074,-455.5104 1231.232,-449.1133"/>
</g>
<!-- Node16 -->
<g id="node15" class="node">
<title>Node16</title>
<g id="a_node15"><a xlink:href="../../d7/d30/TrackFinderOriginalSpec_8cxx.html" target="_top" xlink:title="Implementation of a data processor to read clusters, reconstruct tracks and send them. ">
<polygon fill="none" stroke="#000000" points="367,-.5 367,-52.5 540,-52.5 540,-.5 367,-.5"/>
<text text-anchor="start" x="375" y="-40.5" font-family="Helvetica,sans-Serif" font-size="10.00" fill="#000000">/home/travis/build</text>
<text text-anchor="start" x="375" y="-29.5" font-family="Helvetica,sans-Serif" font-size="10.00" fill="#000000">/AliceO2Group/AliceO2</text>
<text text-anchor="start" x="375" y="-18.5" font-family="Helvetica,sans-Serif" font-size="10.00" fill="#000000">/Detectors/MUON/MCH/Tracking</text>
<text text-anchor="middle" x="453.5" y="-7.5" font-family="Helvetica,sans-Serif" font-size="10.00" fill="#000000">/src/TrackFinderOriginalSpec.cxx</text>
</a>
</g>
</g>
<!-- Node2&#45;&gt;Node16 -->
<g id="edge32" class="edge">
<title>Node2&#45;&gt;Node16</title>
<path fill="none" stroke="#191970" d="M1050.3545,-476.9751C854.0073,-463.3106 434.5,-419.3857 434.5,-293.5 434.5,-293.5 434.5,-293.5 434.5,-204.5 434.5,-150.2683 443.328,-87.2648 448.949,-52.6459"/>
<polygon fill="#191970" stroke="#191970" points="1050.1751,-480.4709 1060.3904,-477.6606 1050.6523,-473.4871 1050.1751,-480.4709"/>
</g>
<!-- Node18 -->
<g id="node17" class="node">
<title>Node18</title>
<g id="a_node17"><a xlink:href="../../d8/dee/MUON_2MCH_2Tracking_2src_2TrackFitterSpec_8cxx.html" target="_top" xlink:title="/home/travis/build\l/AliceO2Group/AliceO2\l/Detectors/MUON/MCH/Tracking\l/src/TrackFitterSpec.cxx">
<polygon fill="none" stroke="#000000" points="1140.5,-89.5 1140.5,-141.5 1310.5,-141.5 1310.5,-89.5 1140.5,-89.5"/>
<text text-anchor="start" x="1148.5" y="-129.5" font-family="Helvetica,sans-Serif" font-size="10.00" fill="#000000">/home/travis/build</text>
<text text-anchor="start" x="1148.5" y="-118.5" font-family="Helvetica,sans-Serif" font-size="10.00" fill="#000000">/AliceO2Group/AliceO2</text>
<text text-anchor="start" x="1148.5" y="-107.5" font-family="Helvetica,sans-Serif" font-size="10.00" fill="#000000">/Detectors/MUON/MCH/Tracking</text>
<text text-anchor="middle" x="1225.5" y="-96.5" font-family="Helvetica,sans-Serif" font-size="10.00" fill="#000000">/src/TrackFitterSpec.cxx</text>
</a>
</g>
</g>
<!-- Node2&#45;&gt;Node18 -->
<g id="edge34" class="edge">
<title>Node2&#45;&gt;Node18</title>
<path fill="none" stroke="#191970" d="M1183.1198,-448.9456C1211.3957,-418.2909 1249.9367,-370.2109 1267.5,-320 1288.346,-260.4045 1291.1951,-237.9856 1271.5,-178 1267.1711,-164.8155 1258.8792,-152.1229 1250.5139,-141.6606"/>
<polygon fill="#191970" stroke="#191970" points="1180.4592,-446.6661 1176.1712,-456.3544 1185.565,-451.4548 1180.4592,-446.6661"/>
</g>
<!-- Node21 -->
<g id="node20" class="node">
<title>Node21</title>
<g id="a_node20"><a xlink:href="../../db/d71/ClusterSamplerSpec_8cxx.html" target="_top" xlink:title="Implementation of a data processor to read and send clusters. ">
<polygon fill="none" stroke="#000000" points="1404.5,-362 1404.5,-414 1574.5,-414 1574.5,-362 1404.5,-362"/>
<text text-anchor="start" x="1412.5" y="-402" font-family="Helvetica,sans-Serif" font-size="10.00" fill="#000000">/home/travis/build</text>
<text text-anchor="start" x="1412.5" y="-391" font-family="Helvetica,sans-Serif" font-size="10.00" fill="#000000">/AliceO2Group/AliceO2</text>
<text text-anchor="start" x="1412.5" y="-380" font-family="Helvetica,sans-Serif" font-size="10.00" fill="#000000">/Detectors/MUON/MCH/Tracking</text>
<text text-anchor="middle" x="1489.5" y="-369" font-family="Helvetica,sans-Serif" font-size="10.00" fill="#000000">/src/ClusterSamplerSpec.cxx</text>
</a>
</g>
</g>
<!-- Node2&#45;&gt;Node21 -->
<g id="edge30" class="edge">
<title>Node2&#45;&gt;Node21</title>
<path fill="none" stroke="#191970" d="M1248.3215,-458.2694C1292.0523,-447.1875 1344.0056,-433.5303 1390.5,-420 1397.0038,-418.1073 1403.7266,-416.0825 1410.4645,-414.0048"/>
<polygon fill="#191970" stroke="#191970" points="1247.3847,-454.896 1238.5464,-460.7384 1249.099,-461.6828 1247.3847,-454.896"/>
</g>
<!-- Node22 -->
<g id="node21" class="node">
<title>Node22</title>
<g id="a_node21"><a xlink:href="../../d1/d96/TrackAtVertexSpec_8cxx.html" target="_top" xlink:title="Implementation of a data processor to extrapolate the tracks to the vertex. ">
<polygon fill="none" stroke="#000000" points="1592.5,-362 1592.5,-414 1762.5,-414 1762.5,-362 1592.5,-362"/>
<text text-anchor="start" x="1600.5" y="-402" font-family="Helvetica,sans-Serif" font-size="10.00" fill="#000000">/home/travis/build</text>
<text text-anchor="start" x="1600.5" y="-391" font-family="Helvetica,sans-Serif" font-size="10.00" fill="#000000">/AliceO2Group/AliceO2</text>
<text text-anchor="start" x="1600.5" y="-380" font-family="Helvetica,sans-Serif" font-size="10.00" fill="#000000">/Detectors/MUON/MCH/Tracking</text>
<text text-anchor="middle" x="1677.5" y="-369" font-family="Helvetica,sans-Serif" font-size="10.00" fill="#000000">/src/TrackAtVertexSpec.cxx</text>
</a>
</g>
</g>
<!-- Node2&#45;&gt;Node22 -->
<g id="edge31" class="edge">
<title>Node2&#45;&gt;Node22</title>
<path fill="none" stroke="#191970" d="M1248.5605,-473.5088C1337.1714,-464.2215 1470.1726,-447.2019 1583.5,-420 1590.7081,-418.2698 1598.1468,-416.2181 1605.5353,-414.0016"/>
<polygon fill="#191970" stroke="#191970" points="1248.1034,-470.0373 1238.5169,-474.5483 1248.8241,-477.0001 1248.1034,-470.0373"/>
</g>
<!-- Node23 -->
<g id="node22" class="node">
<title>Node23</title>
<g id="a_node22"><a xlink:href="../../d8/d48/ClusterSinkSpec_8cxx.html" target="_top" xlink:title="Implementation of a data processor to write clusters. ">
<polygon fill="none" stroke="#000000" points="1780.5,-362 1780.5,-414 1954.5,-414 1954.5,-362 1780.5,-362"/>
<text text-anchor="start" x="1788.5" y="-402" font-family="Helvetica,sans-Serif" font-size="10.00" fill="#000000">/home/travis/build</text>
<text text-anchor="start" x="1788.5" y="-391" font-family="Helvetica,sans-Serif" font-size="10.00" fill="#000000">/AliceO2Group/AliceO2</text>
<text text-anchor="start" x="1788.5" y="-380" font-family="Helvetica,sans-Serif" font-size="10.00" fill="#000000">/Detectors/MUON/MCH/Workflow</text>
<text text-anchor="middle" x="1867.5" y="-369" font-family="Helvetica,sans-Serif" font-size="10.00" fill="#000000">/src/ClusterSinkSpec.cxx</text>
</a>
</g>
</g>
<!-- Node2&#45;&gt;Node23 -->
<g id="edge36" class="edge">
<title>Node2&#45;&gt;Node23</title>
<path fill="none" stroke="#191970" d="M1248.7277,-479.2987C1372.3747,-473.766 1589.5708,-458.9572 1771.5,-420 1779.2304,-418.3446 1787.2095,-416.2825 1795.1108,-414.0077"/>
<polygon fill="#191970" stroke="#191970" points="1248.3623,-475.8112 1238.5244,-479.7436 1248.6674,-482.8046 1248.3623,-475.8112"/>
</g>
<!-- Node5 -->
<g id="node4" class="node">
<title>Node5</title>
<g id="a_node4"><a xlink:href="../../d0/dff/ClusterFinderOriginal_8cxx.html" target="_top" xlink:title="Definition of a class to reconstruct clusters with the original MLEM algorithm. ">
<polygon fill="none" stroke="#000000" points="27,-267.5 27,-319.5 206,-319.5 206,-267.5 27,-267.5"/>
<text text-anchor="start" x="35" y="-307.5" font-family="Helvetica,sans-Serif" font-size="10.00" fill="#000000">/home/travis/build</text>
<text text-anchor="start" x="35" y="-296.5" font-family="Helvetica,sans-Serif" font-size="10.00" fill="#000000">/AliceO2Group/AliceO2</text>
<text text-anchor="start" x="35" y="-285.5" font-family="Helvetica,sans-Serif" font-size="10.00" fill="#000000">/Detectors/MUON/MCH/Clustering</text>
<text text-anchor="middle" x="116.5" y="-274.5" font-family="Helvetica,sans-Serif" font-size="10.00" fill="#000000">/src/ClusterFinderOriginal.cxx</text>
</a>
</g>
</g>
<!-- Node4&#45;&gt;Node5 -->
<g id="edge3" class="edge">
<title>Node4&#45;&gt;Node5</title>
<path fill="none" stroke="#191970" d="M209.4058,-350.883C192.4959,-340.4387 174.4638,-329.3012 158.8286,-319.6442"/>
<polygon fill="#191970" stroke="#191970" points="207.7804,-353.9928 218.1276,-356.27 211.4588,-348.0372 207.7804,-353.9928"/>
</g>
<!-- Node4&#45;&gt;Node6 -->
<g id="edge4" class="edge">
<title>Node4&#45;&gt;Node6</title>
<path fill="none" stroke="#191970" d="M289.3992,-347.1201C293.9345,-337.8031 298.6336,-328.1494 302.7737,-319.6442"/>
<polygon fill="#191970" stroke="#191970" points="286.1751,-345.7468 284.9453,-356.27 292.4691,-348.8105 286.1751,-345.7468"/>
</g>
<!-- Node8 -->
<g id="node7" class="node">
<title>Node8</title>
<g id="a_node7"><a xlink:href="../../df/d7a/Detectors_2MUON_2MCH_2Tracking_2include_2MCHTracking_2Track_8h.html" target="_top" xlink:title="/home/travis/build\l/AliceO2Group/AliceO2\l/Detectors/MUON/MCH/Tracking\l/include/MCHTracking/Track.h">
<polygon fill="none" stroke="#000000" points="650.5,-267.5 650.5,-319.5 820.5,-319.5 820.5,-267.5 650.5,-267.5"/>
<text text-anchor="start" x="658.5" y="-307.5" font-family="Helvetica,sans-Serif" font-size="10.00" fill="#000000">/home/travis/build</text>
<text text-anchor="start" x="658.5" y="-296.5" font-family="Helvetica,sans-Serif" font-size="10.00" fill="#000000">/AliceO2Group/AliceO2</text>
<text text-anchor="start" x="658.5" y="-285.5" font-family="Helvetica,sans-Serif" font-size="10.00" fill="#000000">/Detectors/MUON/MCH/Tracking</text>
<text text-anchor="middle" x="735.5" y="-274.5" font-family="Helvetica,sans-Serif" font-size="10.00" fill="#000000">/include/MCHTracking/Track.h</text>
</a>
</g>
</g>
<!-- Node7&#45;&gt;Node8 -->
<g id="edge6" class="edge">
<title>Node7&#45;&gt;Node8</title>
<path fill="none" stroke="#191970" d="M849.1187,-357.0324C827.4983,-344.9429 802.9803,-331.2331 782.2683,-319.6515"/>
<polygon fill="#191970" stroke="#191970" points="847.4363,-360.1016 857.8726,-361.9273 850.8527,-353.9919 847.4363,-360.1016"/>
</g>
<!-- Node10 -->
<g id="node9" class="node">
<title>Node10</title>
<g id="a_node9"><a xlink:href="../../d5/d91/TrackFinder_8h.html" target="_top" xlink:title="Definition of a class to reconstruct tracks. ">
<polygon fill="none" stroke="#000000" points="726.5,-89.5 726.5,-141.5 896.5,-141.5 896.5,-89.5 726.5,-89.5"/>
<text text-anchor="start" x="734.5" y="-129.5" font-family="Helvetica,sans-Serif" font-size="10.00" fill="#000000">/home/travis/build</text>
<text text-anchor="start" x="734.5" y="-118.5" font-family="Helvetica,sans-Serif" font-size="10.00" fill="#000000">/AliceO2Group/AliceO2</text>
<text text-anchor="start" x="734.5" y="-107.5" font-family="Helvetica,sans-Serif" font-size="10.00" fill="#000000">/Detectors/MUON/MCH/Tracking</text>
<text text-anchor="middle" x="811.5" y="-96.5" font-family="Helvetica,sans-Serif" font-size="10.00" fill="#000000">/src/TrackFinder.h</text>
</a>
</g>
</g>
<!-- Node7&#45;&gt;Node10 -->
<g id="edge23" class="edge">
<title>Node7&#45;&gt;Node10</title>
<path fill="none" stroke="#191970" d="M809.2778,-375.7282C742.7541,-364.9736 662.2698,-346.8229 641.5,-320 590.691,-254.3833 695.0451,-180.0909 761.7166,-141.6559"/>
<polygon fill="#191970" stroke="#191970" points="808.979,-379.2243 819.4024,-377.3261 810.0704,-372.3098 808.979,-379.2243"/>
</g>
<!-- Node7&#45;&gt;Node12 -->
<g id="edge27" class="edge">
<title>Node7&#45;&gt;Node12</title>
<path fill="none" stroke="#191970" d="M999.6502,-381.3434C1093.7089,-372.8522 1228.9814,-354.8807 1267.5,-320 1345.5053,-249.3619 1376.888,-177.2111 1319.5,-89 1306.5044,-69.0244 1285.5028,-55.3841 1263.6327,-46.0883"/>
<polygon fill="#191970" stroke="#191970" points="999.1935,-377.87 989.5393,-382.2342 999.8079,-384.843 999.1935,-377.87"/>
</g>
<!-- Node13 -->
<g id="node12" class="node">
<title>Node13</title>
<g id="a_node12"><a xlink:href="../../de/d6b/MUON_2MCH_2Tracking_2src_2TrackFitter_8h.html" target="_top" xlink:title="/home/travis/build\l/AliceO2Group/AliceO2\l/Detectors/MUON/MCH/Tracking\l/src/TrackFitter.h">
<polygon fill="none" stroke="#000000" points="970.5,-178.5 970.5,-230.5 1140.5,-230.5 1140.5,-178.5 970.5,-178.5"/>
<text text-anchor="start" x="978.5" y="-218.5" font-family="Helvetica,sans-Serif" font-size="10.00" fill="#000000">/home/travis/build</text>
<text text-anchor="start" x="978.5" y="-207.5" font-family="Helvetica,sans-Serif" font-size="10.00" fill="#000000">/AliceO2Group/AliceO2</text>
<text text-anchor="start" x="978.5" y="-196.5" font-family="Helvetica,sans-Serif" font-size="10.00" fill="#000000">/Detectors/MUON/MCH/Tracking</text>
<text text-anchor="middle" x="1055.5" y="-185.5" font-family="Helvetica,sans-Serif" font-size="10.00" fill="#000000">/src/TrackFitter.h</text>
</a>
</g>
</g>
<!-- Node7&#45;&gt;Node13 -->
<g id="edge24" class="edge">
<title>Node7&#45;&gt;Node13</title>
<path fill="none" stroke="#191970" d="M878.5361,-353.0449C862.8449,-327.3068 849.1063,-292.4985 867.5,-267 870.8705,-262.3276 922.222,-245.4225 970.401,-230.3709"/>
<polygon fill="#191970" stroke="#191970" points="875.7706,-355.2159 884.1182,-361.7403 881.6613,-351.4343 875.7706,-355.2159"/>
</g>
<!-- Node14 -->
<g id="node13" class="node">
<title>Node14</title>
<g id="a_node13"><a xlink:href="../../d7/d7f/TrackFinderOriginal_8h.html" target="_top" xlink:title="Definition of a class to reconstruct tracks with the original algorithm. ">
<polygon fill="none" stroke="#000000" points="538.5,-89.5 538.5,-141.5 708.5,-141.5 708.5,-89.5 538.5,-89.5"/>
<text text-anchor="start" x="546.5" y="-129.5" font-family="Helvetica,sans-Serif" font-size="10.00" fill="#000000">/home/travis/build</text>
<text text-anchor="start" x="546.5" y="-118.5" font-family="Helvetica,sans-Serif" font-size="10.00" fill="#000000">/AliceO2Group/AliceO2</text>
<text text-anchor="start" x="546.5" y="-107.5" font-family="Helvetica,sans-Serif" font-size="10.00" fill="#000000">/Detectors/MUON/MCH/Tracking</text>
<text text-anchor="middle" x="623.5" y="-96.5" font-family="Helvetica,sans-Serif" font-size="10.00" fill="#000000">/src/TrackFinderOriginal.h</text>
</a>
</g>
</g>
<!-- Node7&#45;&gt;Node14 -->
<g id="edge25" class="edge">
<title>Node7&#45;&gt;Node14</title>
<path fill="none" stroke="#191970" d="M809.3536,-377.4196C737.4935,-367.2432 647.4562,-349.052 624.5,-320 583.6681,-268.3254 601.4855,-184.1641 614.3957,-141.7286"/>
<polygon fill="#191970" stroke="#191970" points="808.9789,-380.901 819.3638,-378.8026 809.937,-373.9669 808.9789,-380.901"/>
</g>
<!-- Node7&#45;&gt;Node16 -->
<g id="edge26" class="edge">
<title>Node7&#45;&gt;Node16</title>
<path fill="none" stroke="#191970" d="M809.2011,-375.0045C732.4747,-363.0676 632.0787,-343.6653 598.5,-320 505.3559,-254.3547 469.1693,-111.5016 457.8568,-52.6468"/>
<polygon fill="#191970" stroke="#191970" points="808.9692,-378.5098 819.3843,-376.5669 810.0308,-371.5907 808.9692,-378.5098"/>
</g>
<!-- Node7&#45;&gt;Node18 -->
<g id="edge28" class="edge">
<title>Node7&#45;&gt;Node18</title>
<path fill="none" stroke="#191970" d="M999.9986,-382.0616C1089.2518,-374.2827 1213.1877,-356.9965 1243.5,-320 1285.5137,-268.7219 1256.9742,-184.0031 1238.2253,-141.5066"/>
<polygon fill="#191970" stroke="#191970" points="999.5112,-378.5902 989.8411,-382.9192 1000.1001,-385.5654 999.5112,-378.5902"/>
</g>
<!-- Node19 -->
<g id="node18" class="node">
<title>Node19</title>
<g id="a_node18"><a xlink:href="../../d6/d5f/Detectors_2MUON_2MCH_2Tracking_2src_2Cluster_8cxx.html" target="_top" xlink:title="/home/travis/build\l/AliceO2Group/AliceO2\l/Detectors/MUON/MCH/Tracking\l/src/Cluster.cxx">
<polygon fill="none" stroke="#000000" points="876.5,-267.5 876.5,-319.5 1046.5,-319.5 1046.5,-267.5 876.5,-267.5"/>
<text text-anchor="start" x="884.5" y="-307.5" font-family="Helvetica,sans-Serif" font-size="10.00" fill="#000000">/home/travis/build</text>
<text text-anchor="start" x="884.5" y="-296.5" font-family="Helvetica,sans-Serif" font-size="10.00" fill="#000000">/AliceO2Group/AliceO2</text>
<text text-anchor="start" x="884.5" y="-285.5" font-family="Helvetica,sans-Serif" font-size="10.00" fill="#000000">/Detectors/MUON/MCH/Tracking</text>
<text text-anchor="middle" x="961.5" y="-274.5" font-family="Helvetica,sans-Serif" font-size="10.00" fill="#000000">/src/Cluster.cxx</text>
</a>
</g>
</g>
<!-- Node7&#45;&gt;Node19 -->
<g id="edge22" class="edge">
<title>Node7&#45;&gt;Node19</title>
<path fill="none" stroke="#191970" d="M925.421,-353.3151C932.0967,-342.2475 939.3707,-330.1881 945.6271,-319.8157"/>
<polygon fill="#191970" stroke="#191970" points="922.3943,-351.5566 920.2264,-361.9273 928.3884,-355.1721 922.3943,-351.5566"/>
</g>
<!-- Node20 -->
<g id="node19" class="node">
<title>Node20</title>
<g id="a_node19"><a xlink:href="../../dc/d16/TrackParam_8cxx.html" target="_top" xlink:title="Implementation of the MCH track parameters for internal use. ">
<polygon fill="none" stroke="#000000" points="1064.5,-267.5 1064.5,-319.5 1234.5,-319.5 1234.5,-267.5 1064.5,-267.5"/>
<text text-anchor="start" x="1072.5" y="-307.5" font-family="Helvetica,sans-Serif" font-size="10.00" fill="#000000">/home/travis/build</text>
<text text-anchor="start" x="1072.5" y="-296.5" font-family="Helvetica,sans-Serif" font-size="10.00" fill="#000000">/AliceO2Group/AliceO2</text>
<text text-anchor="start" x="1072.5" y="-285.5" font-family="Helvetica,sans-Serif" font-size="10.00" fill="#000000">/Detectors/MUON/MCH/Tracking</text>
<text text-anchor="middle" x="1149.5" y="-274.5" font-family="Helvetica,sans-Serif" font-size="10.00" fill="#000000">/src/TrackParam.cxx</text>
</a>
</g>
</g>
<!-- Node7&#45;&gt;Node20 -->
<g id="edge29" class="edge">
<title>Node7&#45;&gt;Node20</title>
<path fill="none" stroke="#191970" d="M981.4595,-358.3156C1013.5951,-345.9205 1050.6059,-331.6449 1081.6998,-319.6515"/>
<polygon fill="#191970" stroke="#191970" points="980.1663,-355.063 972.0959,-361.9273 982.6855,-361.594 980.1663,-355.063"/>
</g>
<!-- Node9 -->
<g id="node8" class="node">
<title>Node9</title>
<g id="a_node8"><a xlink:href="../../d9/da9/Detectors_2MUON_2MCH_2Tracking_2src_2Track_8cxx.html" target="_top" xlink:title="/home/travis/build\l/AliceO2Group/AliceO2\l/Detectors/MUON/MCH/Tracking\l/src/Track.cxx">
<polygon fill="none" stroke="#000000" points="782.5,-178.5 782.5,-230.5 952.5,-230.5 952.5,-178.5 782.5,-178.5"/>
<text text-anchor="start" x="790.5" y="-218.5" font-family="Helvetica,sans-Serif" font-size="10.00" fill="#000000">/home/travis/build</text>
<text text-anchor="start" x="790.5" y="-207.5" font-family="Helvetica,sans-Serif" font-size="10.00" fill="#000000">/AliceO2Group/AliceO2</text>
<text text-anchor="start" x="790.5" y="-196.5" font-family="Helvetica,sans-Serif" font-size="10.00" fill="#000000">/Detectors/MUON/MCH/Tracking</text>
<text text-anchor="middle" x="867.5" y="-185.5" font-family="Helvetica,sans-Serif" font-size="10.00" fill="#000000">/src/Track.cxx</text>
</a>
</g>
</g>
<!-- Node8&#45;&gt;Node9 -->
<g id="edge7" class="edge">
<title>Node8&#45;&gt;Node9</title>
<path fill="none" stroke="#191970" d="M783.063,-261.431C798.1101,-251.2856 814.5473,-240.203 828.8876,-230.5341"/>
<polygon fill="#191970" stroke="#191970" points="780.7252,-258.786 774.3904,-267.2784 784.6385,-264.59 780.7252,-258.786"/>
</g>
<!-- Node8&#45;&gt;Node10 -->
<g id="edge8" class="edge">
<title>Node8&#45;&gt;Node10</title>
<path fill="none" stroke="#191970" d="M729.9977,-257.332C728.0485,-233.633 728.7319,-202.605 740.5,-178 747.3021,-163.778 758.987,-151.4334 770.9361,-141.5582"/>
<polygon fill="#191970" stroke="#191970" points="726.52,-257.73 731.0086,-267.327 733.4844,-257.0255 726.52,-257.73"/>
</g>
<!-- Node8&#45;&gt;Node12 -->
<g id="edge20" class="edge">
<title>Node8&#45;&gt;Node12</title>
<path fill="none" stroke="#191970" d="M738.5065,-257.1989C742.5152,-231.6888 751.8404,-198.5699 773.5,-178 817.5936,-136.1248 855.5711,-176.7114 905.5,-142 929.2984,-125.455 919.6495,-105.4698 943.5,-89 987.6185,-58.5342 1045.7988,-42.9143 1093.231,-34.9084"/>
<polygon fill="#191970" stroke="#191970" points="735.0183,-256.8757 737.134,-267.2571 741.954,-257.8222 735.0183,-256.8757"/>
</g>
<!-- Node8&#45;&gt;Node13 -->
<g id="edge11" class="edge">
<title>Node8&#45;&gt;Node13</title>
<path fill="none" stroke="#191970" d="M830.4203,-267.3629C870.835,-256.2051 918.4859,-243.0108 961.5,-231 964.4396,-230.1792 967.4305,-229.3428 970.4509,-228.4971"/>
<polygon fill="#191970" stroke="#191970" points="829.2861,-264.045 820.5777,-270.0795 831.1485,-270.7927 829.2861,-264.045"/>
</g>
<!-- Node8&#45;&gt;Node14 -->
<g id="edge18" class="edge">
<title>Node8&#45;&gt;Node14</title>
<path fill="none" stroke="#191970" d="M713.4539,-258.4624C691.8296,-224.0953 659.3545,-172.4831 639.9113,-141.5823"/>
<polygon fill="#191970" stroke="#191970" points="710.686,-260.6355 718.974,-267.2355 716.6107,-256.9076 710.686,-260.6355"/>
</g>
<!-- Node8&#45;&gt;Node16 -->
<g id="edge19" class="edge">
<title>Node8&#45;&gt;Node16</title>
<path fill="none" stroke="#191970" d="M682.3728,-261.929C638.1891,-234.0106 575.3441,-190.2985 529.5,-142 503.5556,-114.6666 480.849,-77.4182 467.1668,-52.6966"/>
<polygon fill="#191970" stroke="#191970" points="680.6169,-264.959 690.9501,-267.2988 684.3314,-259.0258 680.6169,-264.959"/>
</g>
<!-- Node8&#45;&gt;Node18 -->
<g id="edge21" class="edge">
<title>Node8&#45;&gt;Node18</title>
<path fill="none" stroke="#191970" d="M830.4684,-273.5938C842.9002,-271.2351 855.4878,-268.97 867.5,-267 992.1849,-246.5523 1042.3077,-297.8898 1149.5,-231 1182.7953,-210.2231 1204.5616,-168.8728 1215.9442,-141.7033"/>
<polygon fill="#191970" stroke="#191970" points="829.705,-270.1763 820.5458,-275.5016 831.0268,-277.0504 829.705,-270.1763"/>
</g>
<!-- Node11 -->
<g id="node10" class="node">
<title>Node11</title>
<g id="a_node10"><a xlink:href="../../d1/d8b/TrackFinder_8cxx.html" target="_top" xlink:title="Implementation of a class to reconstruct tracks. ">
<polygon fill="none" stroke="#000000" points="746.5,-.5 746.5,-52.5 916.5,-52.5 916.5,-.5 746.5,-.5"/>
<text text-anchor="start" x="754.5" y="-40.5" font-family="Helvetica,sans-Serif" font-size="10.00" fill="#000000">/home/travis/build</text>
<text text-anchor="start" x="754.5" y="-29.5" font-family="Helvetica,sans-Serif" font-size="10.00" fill="#000000">/AliceO2Group/AliceO2</text>
<text text-anchor="start" x="754.5" y="-18.5" font-family="Helvetica,sans-Serif" font-size="10.00" fill="#000000">/Detectors/MUON/MCH/Tracking</text>
<text text-anchor="middle" x="831.5" y="-7.5" font-family="Helvetica,sans-Serif" font-size="10.00" fill="#000000">/src/TrackFinder.cxx</text>
</a>
</g>
</g>
<!-- Node10&#45;&gt;Node11 -->
<g id="edge9" class="edge">
<title>Node10&#45;&gt;Node11</title>
<path fill="none" stroke="#191970" d="M819.611,-79.4059C821.6327,-70.4097 823.7611,-60.9379 825.6496,-52.5341"/>
<polygon fill="#191970" stroke="#191970" points="816.1702,-78.7543 817.3925,-89.2784 822.9999,-80.2892 816.1702,-78.7543"/>
</g>
<!-- Node10&#45;&gt;Node12 -->
<g id="edge10" class="edge">
<title>Node10&#45;&gt;Node12</title>
<path fill="none" stroke="#191970" d="M906.6154,-89.9769C907.9182,-89.6479 909.2136,-89.3221 910.5,-89 971.4446,-73.7411 1040.4923,-57.6672 1093.2377,-45.6417"/>
<polygon fill="#191970" stroke="#191970" points="905.3343,-86.6915 896.5093,-92.5542 907.0641,-93.4744 905.3343,-86.6915"/>
</g>
<!-- Node13&#45;&gt;Node10 -->
<g id="edge12" class="edge">
<title>Node13&#45;&gt;Node10</title>
<path fill="none" stroke="#191970" d="M974.4818,-174.9483C944.9238,-164.1669 911.7345,-152.061 883.0581,-141.6011"/>
<polygon fill="#191970" stroke="#191970" points="973.3467,-178.2598 983.9406,-178.3984 975.7454,-171.6836 973.3467,-178.2598"/>
</g>
<!-- Node13&#45;&gt;Node14 -->
<g id="edge13" class="edge">
<title>Node13&#45;&gt;Node14</title>
<path fill="none" stroke="#191970" d="M960.3355,-177.8702C852.5028,-155.6293 821.5552,-164.2475 717.5,-142 714.5984,-141.3796 711.6542,-140.7202 708.6868,-140.03"/>
<polygon fill="#191970" stroke="#191970" points="959.8067,-181.3355 970.3132,-179.97 961.2484,-174.4856 959.8067,-181.3355"/>
</g>
<!-- Node17 -->
<g id="node16" class="node">
<title>Node17</title>
<g id="a_node16"><a xlink:href="../../de/db3/MUON_2MCH_2Tracking_2src_2TrackFitter_8cxx.html" target="_top" xlink:title="/home/travis/build\l/AliceO2Group/AliceO2\l/Detectors/MUON/MCH/Tracking\l/src/TrackFitter.cxx">
<polygon fill="none" stroke="#000000" points="952.5,-89.5 952.5,-141.5 1122.5,-141.5 1122.5,-89.5 952.5,-89.5"/>
<text text-anchor="start" x="960.5" y="-129.5" font-family="Helvetica,sans-Serif" font-size="10.00" fill="#000000">/home/travis/build</text>
<text text-anchor="start" x="960.5" y="-118.5" font-family="Helvetica,sans-Serif" font-size="10.00" fill="#000000">/AliceO2Group/AliceO2</text>
<text text-anchor="start" x="960.5" y="-107.5" font-family="Helvetica,sans-Serif" font-size="10.00" fill="#000000">/Detectors/MUON/MCH/Tracking</text>
<text text-anchor="middle" x="1037.5" y="-96.5" font-family="Helvetica,sans-Serif" font-size="10.00" fill="#000000">/src/TrackFitter.cxx</text>
</a>
</g>
</g>
<!-- Node13&#45;&gt;Node17 -->
<g id="edge16" class="edge">
<title>Node13&#45;&gt;Node17</title>
<path fill="none" stroke="#191970" d="M1048.2001,-168.4059C1046.3806,-159.4097 1044.465,-149.9379 1042.7653,-141.5341"/>
<polygon fill="#191970" stroke="#191970" points="1044.7838,-169.1707 1050.1968,-178.2784 1051.6449,-167.783 1044.7838,-169.1707"/>
</g>
<!-- Node13&#45;&gt;Node18 -->
<g id="edge17" class="edge">
<title>Node13&#45;&gt;Node18</title>
<path fill="none" stroke="#191970" d="M1114.5897,-173.5648C1134.5477,-163.1162 1156.6129,-151.5644 1175.7718,-141.5341"/>
<polygon fill="#191970" stroke="#191970" points="1112.8221,-170.5395 1105.5861,-178.2784 1116.0688,-176.741 1112.8221,-170.5395"/>
</g>
<!-- Node15 -->
<g id="node14" class="node">
<title>Node15</title>
<g id="a_node14"><a xlink:href="../../d6/d6d/TrackFinderOriginal_8cxx.html" target="_top" xlink:title="Implementation of a class to reconstruct tracks with the original algorithm. ">
<polygon fill="none" stroke="#000000" points="558.5,-.5 558.5,-52.5 728.5,-52.5 728.5,-.5 558.5,-.5"/>
<text text-anchor="start" x="566.5" y="-40.5" font-family="Helvetica,sans-Serif" font-size="10.00" fill="#000000">/home/travis/build</text>
<text text-anchor="start" x="566.5" y="-29.5" font-family="Helvetica,sans-Serif" font-size="10.00" fill="#000000">/AliceO2Group/AliceO2</text>
<text text-anchor="start" x="566.5" y="-18.5" font-family="Helvetica,sans-Serif" font-size="10.00" fill="#000000">/Detectors/MUON/MCH/Tracking</text>
<text text-anchor="middle" x="643.5" y="-7.5" font-family="Helvetica,sans-Serif" font-size="10.00" fill="#000000">/src/TrackFinderOriginal.cxx</text>
</a>
</g>
</g>
<!-- Node14&#45;&gt;Node15 -->
<g id="edge14" class="edge">
<title>Node14&#45;&gt;Node15</title>
<path fill="none" stroke="#191970" d="M631.611,-79.4059C633.6327,-70.4097 635.7611,-60.9379 637.6496,-52.5341"/>
<polygon fill="#191970" stroke="#191970" points="628.1702,-78.7543 629.3925,-89.2784 634.9999,-80.2892 628.1702,-78.7543"/>
</g>
<!-- Node14&#45;&gt;Node16 -->
<g id="edge15" class="edge">
<title>Node14&#45;&gt;Node16</title>
<path fill="none" stroke="#191970" d="M564.4103,-84.5648C544.4523,-74.1162 522.3871,-62.5644 503.2282,-52.5341"/>
<polygon fill="#191970" stroke="#191970" points="562.9312,-87.741 573.4139,-89.2784 566.1779,-81.5395 562.9312,-87.741"/>
</g>
</g>
</svg>
