<?xml version="1.0" encoding="UTF-8" standalone="no"?>
<!DOCTYPE svg PUBLIC "-//W3C//DTD SVG 1.1//EN"
 "http://www.w3.org/Graphics/SVG/1.1/DTD/svg11.dtd">
<!-- Generated by graphviz version 2.40.1 (20161225.0304)
 -->
<!-- Title: o2::zdc::OrbitRecData Pages: 1 -->
<svg width="568pt" height="650pt"
 viewBox="0.00 0.00 567.50 650.00" xmlns="http://www.w3.org/2000/svg" xmlns:xlink="http://www.w3.org/1999/xlink">
<g id="graph0" class="graph" transform="scale(1 1) rotate(0) translate(4 646)">
<title>o2::zdc::OrbitRecData</title>
<!-- Node1 -->
<g id="node1" class="node">
<title>Node1</title>
<polygon fill="#bfbfbf" stroke="#000000" points="249.5,-.5 249.5,-68.5 371.5,-68.5 371.5,-.5 249.5,-.5"/>
<text text-anchor="middle" x="310.5" y="-56.5" font-family="Helvetica,sans-Serif" font-size="10.00" fill="#000000">o2::zdc::OrbitRecData</text>
<polyline fill="none" stroke="#000000" points="249.5,-49.5 371.5,-49.5 "/>
<text text-anchor="middle" x="310.5" y="-37.5" font-family="Helvetica,sans-Serif" font-size="10.00" fill="#000000"> </text>
<polyline fill="none" stroke="#000000" points="249.5,-30.5 371.5,-30.5 "/>
<text text-anchor="start" x="257.5" y="-18.5" font-family="Helvetica,sans-Serif" font-size="10.00" fill="#000000">+ print()</text>
<text text-anchor="start" x="257.5" y="-7.5" font-family="Helvetica,sans-Serif" font-size="10.00" fill="#000000">+ ClassDefNV()</text>
</g>
<!-- Node2 -->
<g id="node2" class="node">
<title>Node2</title>
<polygon fill="none" stroke="#bfbfbf" points="0,-292.5 0,-349.5 163,-349.5 163,-292.5 0,-292.5"/>
<text text-anchor="middle" x="81.5" y="-337.5" font-family="Helvetica,sans-Serif" font-size="10.00" fill="#000000">array&lt; uint16_t, NChannels &gt;</text>
<polyline fill="none" stroke="#bfbfbf" points="0,-330.5 163,-330.5 "/>
<text text-anchor="middle" x="81.5" y="-318.5" font-family="Helvetica,sans-Serif" font-size="10.00" fill="#000000"> </text>
<polyline fill="none" stroke="#bfbfbf" points="0,-311.5 163,-311.5 "/>
<text text-anchor="middle" x="81.5" y="-299.5" font-family="Helvetica,sans-Serif" font-size="10.00" fill="#000000"> </text>
</g>
<!-- Node2&#45;&gt;Node1 -->
<g id="edge1" class="edge">
<title>Node2&#45;&gt;Node1</title>
<path fill="none" stroke="#404040" d="M88.016,-292.4118C98.9677,-249.7221 124.6073,-168.7069 171.5,-116 189.8823,-95.3385 214.7958,-78.4809 238.455,-65.5704"/>
<polygon fill="none" stroke="#404040" points="238.5875,-65.5008 242.037,-59.1682 249.2092,-59.9168 245.7597,-66.2494 238.5875,-65.5008"/>
<text text-anchor="middle" x="224.5" y="-90" font-family="Helvetica,sans-Serif" font-size="10.00" fill="#000000"> +scalers</text>
</g>
<!-- Node3 -->
<g id="node3" class="node">
<title>Node3</title>
<polygon fill="none" stroke="#bfbfbf" points="181,-287 181,-355 318,-355 318,-287 181,-287"/>
<text text-anchor="start" x="189" y="-343" font-family="Helvetica,sans-Serif" font-size="10.00" fill="#000000">array&lt; uint16_t, NScaler</text>
<text text-anchor="middle" x="249.5" y="-332" font-family="Helvetica,sans-Serif" font-size="10.00" fill="#000000">Combination &gt;</text>
<polyline fill="none" stroke="#bfbfbf" points="181,-325 318,-325 "/>
<text text-anchor="middle" x="249.5" y="-313" font-family="Helvetica,sans-Serif" font-size="10.00" fill="#000000"> </text>
<polyline fill="none" stroke="#bfbfbf" points="181,-306 318,-306 "/>
<text text-anchor="middle" x="249.5" y="-294" font-family="Helvetica,sans-Serif" font-size="10.00" fill="#000000"> </text>
</g>
<!-- Node3&#45;&gt;Node1 -->
<g id="edge2" class="edge">
<title>Node3&#45;&gt;Node1</title>
<path fill="none" stroke="#404040" d="M248.3209,-286.9277C247.8045,-240.333 250.8073,-154.787 275.5,-87 276.4291,-84.4493 277.5063,-81.9005 278.6943,-79.3771"/>
<polygon fill="none" stroke="#404040" points="278.8284,-79.1267 278.1362,-71.9489 284.4957,-68.5493 285.1879,-75.7271 278.8284,-79.1267"/>
<text text-anchor="middle" x="313" y="-90" font-family="Helvetica,sans-Serif" font-size="10.00" fill="#000000"> +scalersComb</text>
</g>
<!-- Node4 -->
<g id="node4" class="node">
<title>Node4</title>
<g id="a_node4"><a xlink:href="../../d1/d21/structo2_1_1InteractionRecord.html" target="_top" xlink:title="{o2::InteractionRecord\n||+ InteractionRecord()\l+ InteractionRecord()\l+ InteractionRecord()\l+ InteractionRecord()\l+ clear()\l+ isDummy()\l+ setFromNS()\l+ bc2ns()\l+ operator==()\l+ operator!=()\l+ differenceInBC()\l+ toLong()\l+ setFromLong()\l+ operator\&gt;()\l+ operator\&gt;=()\l+ operator\&lt;()\l+ operator\&lt;=()\l+ operator&#45;&#45;()\l+ operator&#45;&#45;()\l+ operator++()\l+ operator++()\l+ operator+=()\l+ operator&#45;=()\l+ operator+=()\l+ operator&#45;=()\l+ operator+()\l+ operator&#45;()\l+ operator+()\l+ operator&#45;()\l+ print()\l+ ClassDefNV()\l+ bc2ns()\l+ ns2bc()\l}">
<polygon fill="none" stroke="#000000" points="336,-116.5 336,-525.5 457,-525.5 457,-116.5 336,-116.5"/>
<text text-anchor="middle" x="396.5" y="-513.5" font-family="Helvetica,sans-Serif" font-size="10.00" fill="#000000">o2::InteractionRecord</text>
<polyline fill="none" stroke="#000000" points="336,-506.5 457,-506.5 "/>
<text text-anchor="middle" x="396.5" y="-494.5" font-family="Helvetica,sans-Serif" font-size="10.00" fill="#000000"> </text>
<polyline fill="none" stroke="#000000" points="336,-487.5 457,-487.5 "/>
<text text-anchor="start" x="344" y="-475.5" font-family="Helvetica,sans-Serif" font-size="10.00" fill="#000000">+ InteractionRecord()</text>
<text text-anchor="start" x="344" y="-464.5" font-family="Helvetica,sans-Serif" font-size="10.00" fill="#000000">+ InteractionRecord()</text>
<text text-anchor="start" x="344" y="-453.5" font-family="Helvetica,sans-Serif" font-size="10.00" fill="#000000">+ InteractionRecord()</text>
<text text-anchor="start" x="344" y="-442.5" font-family="Helvetica,sans-Serif" font-size="10.00" fill="#000000">+ InteractionRecord()</text>
<text text-anchor="start" x="344" y="-431.5" font-family="Helvetica,sans-Serif" font-size="10.00" fill="#000000">+ clear()</text>
<text text-anchor="start" x="344" y="-420.5" font-family="Helvetica,sans-Serif" font-size="10.00" fill="#000000">+ isDummy()</text>
<text text-anchor="start" x="344" y="-409.5" font-family="Helvetica,sans-Serif" font-size="10.00" fill="#000000">+ setFromNS()</text>
<text text-anchor="start" x="344" y="-398.5" font-family="Helvetica,sans-Serif" font-size="10.00" fill="#000000">+ bc2ns()</text>
<text text-anchor="start" x="344" y="-387.5" font-family="Helvetica,sans-Serif" font-size="10.00" fill="#000000">+ operator==()</text>
<text text-anchor="start" x="344" y="-376.5" font-family="Helvetica,sans-Serif" font-size="10.00" fill="#000000">+ operator!=()</text>
<text text-anchor="start" x="344" y="-365.5" font-family="Helvetica,sans-Serif" font-size="10.00" fill="#000000">+ differenceInBC()</text>
<text text-anchor="start" x="344" y="-354.5" font-family="Helvetica,sans-Serif" font-size="10.00" fill="#000000">+ toLong()</text>
<text text-anchor="start" x="344" y="-343.5" font-family="Helvetica,sans-Serif" font-size="10.00" fill="#000000">+ setFromLong()</text>
<text text-anchor="start" x="344" y="-332.5" font-family="Helvetica,sans-Serif" font-size="10.00" fill="#000000">+ operator&gt;()</text>
<text text-anchor="start" x="344" y="-321.5" font-family="Helvetica,sans-Serif" font-size="10.00" fill="#000000">+ operator&gt;=()</text>
<text text-anchor="start" x="344" y="-310.5" font-family="Helvetica,sans-Serif" font-size="10.00" fill="#000000">+ operator&lt;()</text>
<text text-anchor="start" x="344" y="-299.5" font-family="Helvetica,sans-Serif" font-size="10.00" fill="#000000">+ operator&lt;=()</text>
<text text-anchor="start" x="344" y="-288.5" font-family="Helvetica,sans-Serif" font-size="10.00" fill="#000000">+ operator&#45;&#45;()</text>
<text text-anchor="start" x="344" y="-277.5" font-family="Helvetica,sans-Serif" font-size="10.00" fill="#000000">+ operator&#45;&#45;()</text>
<text text-anchor="start" x="344" y="-266.5" font-family="Helvetica,sans-Serif" font-size="10.00" fill="#000000">+ operator++()</text>
<text text-anchor="start" x="344" y="-255.5" font-family="Helvetica,sans-Serif" font-size="10.00" fill="#000000">+ operator++()</text>
<text text-anchor="start" x="344" y="-244.5" font-family="Helvetica,sans-Serif" font-size="10.00" fill="#000000">+ operator+=()</text>
<text text-anchor="start" x="344" y="-233.5" font-family="Helvetica,sans-Serif" font-size="10.00" fill="#000000">+ operator&#45;=()</text>
<text text-anchor="start" x="344" y="-222.5" font-family="Helvetica,sans-Serif" font-size="10.00" fill="#000000">+ operator+=()</text>
<text text-anchor="start" x="344" y="-211.5" font-family="Helvetica,sans-Serif" font-size="10.00" fill="#000000">+ operator&#45;=()</text>
<text text-anchor="start" x="344" y="-200.5" font-family="Helvetica,sans-Serif" font-size="10.00" fill="#000000">+ operator+()</text>
<text text-anchor="start" x="344" y="-189.5" font-family="Helvetica,sans-Serif" font-size="10.00" fill="#000000">+ operator&#45;()</text>
<text text-anchor="start" x="344" y="-178.5" font-family="Helvetica,sans-Serif" font-size="10.00" fill="#000000">+ operator+()</text>
<text text-anchor="start" x="344" y="-167.5" font-family="Helvetica,sans-Serif" font-size="10.00" fill="#000000">+ operator&#45;()</text>
<text text-anchor="start" x="344" y="-156.5" font-family="Helvetica,sans-Serif" font-size="10.00" fill="#000000">+ print()</text>
<text text-anchor="start" x="344" y="-145.5" font-family="Helvetica,sans-Serif" font-size="10.00" fill="#000000">+ ClassDefNV()</text>
<text text-anchor="start" x="344" y="-134.5" font-family="Helvetica,sans-Serif" font-size="10.00" fill="#000000">+ bc2ns()</text>
<text text-anchor="start" x="344" y="-123.5" font-family="Helvetica,sans-Serif" font-size="10.00" fill="#000000">+ ns2bc()</text>
</a>
</g>
</g>
<!-- Node4&#45;&gt;Node1 -->
<g id="edge3" class="edge">
<title>Node4&#45;&gt;Node1</title>
<path fill="none" stroke="#404040" d="M362.0997,-116.318C358.5997,-106.268 354.7451,-96.4401 350.5,-87 349.3104,-84.3547 347.9651,-81.7192 346.5063,-79.1175"/>
<polygon fill="none" stroke="#404040" points="346.339,-78.8498 339.7672,-75.8813 339.9796,-68.6734 346.5514,-71.6418 346.339,-78.8498"/>
<text text-anchor="middle" x="362" y="-90" font-family="Helvetica,sans-Serif" font-size="10.00" fill="#000000"> +ir</text>
</g>
<!-- Node5 -->
<g id="node5" class="node">
<title>Node5</title>
<polygon fill="none" stroke="#bfbfbf" points="272.5,-584.5 272.5,-641.5 322.5,-641.5 322.5,-584.5 272.5,-584.5"/>
<text text-anchor="middle" x="297.5" y="-629.5" font-family="Helvetica,sans-Serif" font-size="10.00" fill="#000000">double</text>
<polyline fill="none" stroke="#bfbfbf" points="272.5,-622.5 322.5,-622.5 "/>
<text text-anchor="middle" x="297.5" y="-610.5" font-family="Helvetica,sans-Serif" font-size="10.00" fill="#000000"> </text>
<polyline fill="none" stroke="#bfbfbf" points="272.5,-603.5 322.5,-603.5 "/>
<text text-anchor="middle" x="297.5" y="-591.5" font-family="Helvetica,sans-Serif" font-size="10.00" fill="#000000"> </text>
</g>
<!-- Node5&#45;&gt;Node4 -->
<g id="edge4" class="edge">
<title>Node5&#45;&gt;Node4</title>
<path fill="none" stroke="#404040" d="M303.5232,-584.1867C306.6426,-571.5736 310.9705,-556.7703 316.5,-544 320.2254,-535.3963 323.5353,-534.496 327.5,-526 328.6612,-523.5116 329.8124,-520.9981 330.9531,-518.4629"/>
<polygon fill="none" stroke="#404040" points="331.065,-518.208 329.8131,-511.1064 335.887,-507.2194 337.1388,-514.3211 331.065,-518.208"/>
<text text-anchor="middle" x="354.5" y="-552.5" font-family="Helvetica,sans-Serif" font-size="10.00" fill="#000000"> +DummyTime</text>
</g>
<!-- Node6 -->
<g id="node6" class="node">
<title>Node6</title>
<polygon fill="none" stroke="#bfbfbf" points="368.5,-584.5 368.5,-641.5 424.5,-641.5 424.5,-584.5 368.5,-584.5"/>
<text text-anchor="middle" x="396.5" y="-629.5" font-family="Helvetica,sans-Serif" font-size="10.00" fill="#000000">uint16_t</text>
<polyline fill="none" stroke="#bfbfbf" points="368.5,-622.5 424.5,-622.5 "/>
<text text-anchor="middle" x="396.5" y="-610.5" font-family="Helvetica,sans-Serif" font-size="10.00" fill="#000000"> </text>
<polyline fill="none" stroke="#bfbfbf" points="368.5,-603.5 424.5,-603.5 "/>
<text text-anchor="middle" x="396.5" y="-591.5" font-family="Helvetica,sans-Serif" font-size="10.00" fill="#000000"> </text>
</g>
<!-- Node6&#45;&gt;Node4 -->
<g id="edge5" class="edge">
<title>Node6&#45;&gt;Node4</title>
<path fill="none" stroke="#404040" d="M396.5,-584.4702C396.5,-571.8153 396.5,-555.704 396.5,-537.7022"/>
<polygon fill="none" stroke="#404040" points="396.5001,-537.6168 392.5,-531.6168 396.5,-525.6168 400.5,-531.6167 396.5001,-537.6168"/>
<text text-anchor="middle" x="428.5" y="-558" font-family="Helvetica,sans-Serif" font-size="10.00" fill="#000000"> +DummyBC</text>
<text text-anchor="middle" x="428.5" y="-547" font-family="Helvetica,sans-Serif" font-size="10.00" fill="#000000">+bc</text>
</g>
<!-- Node7 -->
<g id="node7" class="node">
<title>Node7</title>
<g id="a_node7"><a xlink:href="../../d3/d87/classuint32__t.html" target="_top" xlink:title="{uint32_t\n||}">
<polygon fill="none" stroke="#000000" points="455.5,-584.5 455.5,-641.5 511.5,-641.5 511.5,-584.5 455.5,-584.5"/>
<text text-anchor="middle" x="483.5" y="-629.5" font-family="Helvetica,sans-Serif" font-size="10.00" fill="#000000">uint32_t</text>
<polyline fill="none" stroke="#000000" points="455.5,-622.5 511.5,-622.5 "/>
<text text-anchor="middle" x="483.5" y="-610.5" font-family="Helvetica,sans-Serif" font-size="10.00" fill="#000000"> </text>
<polyline fill="none" stroke="#000000" points="455.5,-603.5 511.5,-603.5 "/>
<text text-anchor="middle" x="483.5" y="-591.5" font-family="Helvetica,sans-Serif" font-size="10.00" fill="#000000"> </text>
</a>
</g>
</g>
<!-- Node7&#45;&gt;Node4 -->
<g id="edge6" class="edge">
<title>Node7&#45;&gt;Node4</title>
<path fill="none" stroke="#404040" d="M474.9997,-584.4702C471.1042,-571.3957 466.1095,-554.6318 460.53,-535.9054"/>
<polygon fill="none" stroke="#404040" points="460.5102,-535.8387 454.9635,-531.2307 457.0837,-524.3383 462.6304,-528.9463 460.5102,-535.8387"/>
<text text-anchor="middle" x="504.5" y="-558" font-family="Helvetica,sans-Serif" font-size="10.00" fill="#000000"> +orbit</text>
<text text-anchor="middle" x="504.5" y="-547" font-family="Helvetica,sans-Serif" font-size="10.00" fill="#000000">+DummyOrbit</text>
</g>
<!-- Node8 -->
<g id="node8" class="node">
<title>Node8</title>
<polygon fill="none" stroke="#bfbfbf" points="475.5,-292.5 475.5,-349.5 519.5,-349.5 519.5,-292.5 475.5,-292.5"/>
<text text-anchor="middle" x="497.5" y="-337.5" font-family="Helvetica,sans-Serif" font-size="10.00" fill="#000000">static</text>
<polyline fill="none" stroke="#bfbfbf" points="475.5,-330.5 519.5,-330.5 "/>
<text text-anchor="middle" x="497.5" y="-318.5" font-family="Helvetica,sans-Serif" font-size="10.00" fill="#000000"> </text>
<polyline fill="none" stroke="#bfbfbf" points="475.5,-311.5 519.5,-311.5 "/>
<text text-anchor="middle" x="497.5" y="-299.5" font-family="Helvetica,sans-Serif" font-size="10.00" fill="#000000"> </text>
</g>
<!-- Node8&#45;&gt;Node1 -->
<g id="edge7" class="edge">
<title>Node8&#45;&gt;Node1</title>
<path fill="none" stroke="#404040" d="M500.8203,-292.18C504.1687,-249.5535 504.3401,-169.0353 466.5,-116 446.4352,-87.8779 413.6673,-68.6994 383.3297,-56.0499"/>
<polygon fill="none" stroke="#404040" points="383.0139,-55.9252 375.9639,-57.4411 371.8531,-51.5165 378.903,-50.0006 383.0139,-55.9252"/>
<text text-anchor="middle" x="503.5" y="-90" font-family="Helvetica,sans-Serif" font-size="10.00" fill="#000000"> +NScalerCombination</text>
</g>
</g>
</svg>
