<?xml version="1.0" encoding="UTF-8" standalone="no"?>
<!DOCTYPE svg PUBLIC "-//W3C//DTD SVG 1.1//EN"
 "http://www.w3.org/Graphics/SVG/1.1/DTD/svg11.dtd">
<!-- Generated by graphviz version 2.40.1 (20161225.0304)
 -->
<!-- Title: o2::steer::EventPart Pages: 1 -->
<svg width="120pt" height="237pt"
 viewBox="0.00 0.00 120.00 237.00" xmlns="http://www.w3.org/2000/svg" xmlns:xlink="http://www.w3.org/1999/xlink">
<g id="graph0" class="graph" transform="scale(1 1) rotate(0) translate(4 233)">
<title>o2::steer::EventPart</title>
<!-- Node1 -->
<g id="node1" class="node">
<title>Node1</title>
<polygon fill="#bfbfbf" stroke="#000000" points="0,-.5 0,-112.5 112,-112.5 112,-.5 0,-.5"/>
<text text-anchor="middle" x="56" y="-100.5" font-family="Helvetica,sans-Serif" font-size="10.00" fill="#000000">o2::steer::EventPart</text>
<polyline fill="none" stroke="#000000" points="0,-93.5 112,-93.5 "/>
<text text-anchor="middle" x="56" y="-81.5" font-family="Helvetica,sans-Serif" font-size="10.00" fill="#000000"> </text>
<polyline fill="none" stroke="#000000" points="0,-74.5 112,-74.5 "/>
<text text-anchor="start" x="8" y="-62.5" font-family="Helvetica,sans-Serif" font-size="10.00" fill="#000000">+ EventPart()</text>
<text text-anchor="start" x="8" y="-51.5" font-family="Helvetica,sans-Serif" font-size="10.00" fill="#000000">+ EventPart()</text>
<text text-anchor="start" x="8" y="-40.5" font-family="Helvetica,sans-Serif" font-size="10.00" fill="#000000">+ ClassDefNV()</text>
<text text-anchor="start" x="8" y="-29.5" font-family="Helvetica,sans-Serif" font-size="10.00" fill="#000000">+ isSignal()</text>
<text text-anchor="start" x="8" y="-18.5" font-family="Helvetica,sans-Serif" font-size="10.00" fill="#000000">+ isBackGround()</text>
<text text-anchor="start" x="8" y="-7.5" font-family="Helvetica,sans-Serif" font-size="10.00" fill="#000000">+ isQED()</text>
</g>
<!-- Node2 -->
<g id="node2" class="node">
<title>Node2</title>
<polygon fill="none" stroke="#bfbfbf" points="41.5,-171.5 41.5,-228.5 70.5,-228.5 70.5,-171.5 41.5,-171.5"/>
<text text-anchor="middle" x="56" y="-216.5" font-family="Helvetica,sans-Serif" font-size="10.00" fill="#000000">int</text>
<polyline fill="none" stroke="#bfbfbf" points="41.5,-209.5 70.5,-209.5 "/>
<text text-anchor="middle" x="56" y="-197.5" font-family="Helvetica,sans-Serif" font-size="10.00" fill="#000000"> </text>
<polyline fill="none" stroke="#bfbfbf" points="41.5,-190.5 70.5,-190.5 "/>
<text text-anchor="middle" x="56" y="-178.5" font-family="Helvetica,sans-Serif" font-size="10.00" fill="#000000"> </text>
</g>
<!-- Node2&#45;&gt;Node1 -->
<g id="edge1" class="edge">
<title>Node2&#45;&gt;Node1</title>
<path fill="none" stroke="#404040" d="M56,-171.3055C56,-157.9442 56,-141.4218 56,-125.1157"/>
<polygon fill="none" stroke="#404040" points="56.0001,-124.7445 52,-118.7445 56,-112.7445 60,-118.7444 56.0001,-124.7445"/>
<text text-anchor="middle" x="83.5" y="-145" font-family="Helvetica,sans-Serif" font-size="10.00" fill="#000000"> +sourceID</text>
<text text-anchor="middle" x="83.5" y="-134" font-family="Helvetica,sans-Serif" font-size="10.00" fill="#000000">+entryID</text>
</g>
</g>
</svg>
