<?xml version="1.0" encoding="UTF-8" standalone="no"?>
<!DOCTYPE svg PUBLIC "-//W3C//DTD SVG 1.1//EN"
 "http://www.w3.org/Graphics/SVG/1.1/DTD/svg11.dtd">
<!-- Generated by graphviz version 2.40.1 (20161225.0304)
 -->
<!-- Title: /home/travis/build/AliceO2Group/AliceO2/Detectors/TRD/base/include/TRDBase/ChamberStatus.h Pages: 1 -->
<svg width="2694pt" height="497pt"
 viewBox="0.00 0.00 2694.00 497.00" xmlns="http://www.w3.org/2000/svg" xmlns:xlink="http://www.w3.org/1999/xlink">
<g id="graph0" class="graph" transform="scale(1 1) rotate(0) translate(4 493)">
<title>/home/travis/build/AliceO2Group/AliceO2/Detectors/TRD/base/include/TRDBase/ChamberStatus.h</title>
<!-- Node0 -->
<g id="node1" class="node">
<title>Node0</title>
<polygon fill="#bfbfbf" stroke="#000000" points="878.5,-436.5 878.5,-488.5 1033.5,-488.5 1033.5,-436.5 878.5,-436.5"/>
<text text-anchor="start" x="886.5" y="-476.5" font-family="Helvetica,sans-Serif" font-size="10.00" fill="#000000">/home/travis/build</text>
<text text-anchor="start" x="886.5" y="-465.5" font-family="Helvetica,sans-Serif" font-size="10.00" fill="#000000">/AliceO2Group/AliceO2</text>
<text text-anchor="start" x="886.5" y="-454.5" font-family="Helvetica,sans-Serif" font-size="10.00" fill="#000000">/Detectors/TRD/base/include</text>
<text text-anchor="middle" x="956" y="-443.5" font-family="Helvetica,sans-Serif" font-size="10.00" fill="#000000">/TRDBase/ChamberStatus.h</text>
</g>
<!-- Node1 -->
<g id="node2" class="node">
<title>Node1</title>
<polygon fill="none" stroke="#bfbfbf" points="1109,-118 1109,-137 1151,-137 1151,-118 1109,-118"/>
<text text-anchor="middle" x="1130" y="-125" font-family="Helvetica,sans-Serif" font-size="10.00" fill="#000000">array</text>
</g>
<!-- Node0&#45;&gt;Node1 -->
<g id="edge1" class="edge">
<title>Node0&#45;&gt;Node1</title>
<path fill="none" stroke="#191970" d="M950.7693,-436.439C943.4728,-395.3638 932.7503,-313.3131 948,-246 955.2913,-213.8158 954.9385,-200.4688 980,-179 1022.2871,-142.7751 1048.3771,-163.8691 1100,-143 1101.1923,-142.518 1102.4006,-142.0048 1103.6133,-141.4692"/>
<polygon fill="#191970" stroke="#191970" points="1105.2941,-144.5451 1112.8067,-137.0744 1102.275,-138.2297 1105.2941,-144.5451"/>
</g>
<!-- Node2 -->
<g id="node3" class="node">
<title>Node2</title>
<g id="a_node3"><a xlink:href="../../dd/d07/TRDGeometry_8h.html" target="_top" xlink:title="TRDBase/TRDGeometry.h">
<polygon fill="none" stroke="#000000" points="772,-380.5 772,-399.5 912,-399.5 912,-380.5 772,-380.5"/>
<text text-anchor="middle" x="842" y="-387.5" font-family="Helvetica,sans-Serif" font-size="10.00" fill="#000000">TRDBase/TRDGeometry.h</text>
</a>
</g>
</g>
<!-- Node0&#45;&gt;Node2 -->
<g id="edge2" class="edge">
<title>Node0&#45;&gt;Node2</title>
<path fill="none" stroke="#191970" d="M914.8434,-436.3258C898.3111,-425.8119 879.8473,-414.0696 865.6455,-405.0377"/>
<polygon fill="#191970" stroke="#191970" points="867.3078,-401.9471 856.9914,-399.534 863.5513,-407.8538 867.3078,-401.9471"/>
</g>
<!-- Node46 -->
<g id="node47" class="node">
<title>Node46</title>
<g id="a_node47"><a xlink:href="../../d9/df4/TRDSimParam_8h.html" target="_top" xlink:title="TRDBase/TRDSimParam.h">
<polygon fill="none" stroke="#000000" points="1612.5,-380.5 1612.5,-399.5 1755.5,-399.5 1755.5,-380.5 1612.5,-380.5"/>
<text text-anchor="middle" x="1684" y="-387.5" font-family="Helvetica,sans-Serif" font-size="10.00" fill="#000000">TRDBase/TRDSimParam.h</text>
</a>
</g>
</g>
<!-- Node0&#45;&gt;Node46 -->
<g id="edge65" class="edge">
<title>Node0&#45;&gt;Node46</title>
<path fill="none" stroke="#191970" d="M1033.5638,-454.7756C1171.9775,-440.9913 1460.2682,-412.281 1601.8907,-398.1771"/>
<polygon fill="#191970" stroke="#191970" points="1602.6389,-401.62 1612.2428,-397.1461 1601.9452,-394.6544 1602.6389,-401.62"/>
</g>
<!-- Node3 -->
<g id="node4" class="node">
<title>Node3</title>
<g id="a_node4"><a xlink:href="../../d8/dad/TRDGeometryBase_8h.html" target="_top" xlink:title="TRDBase/TRDGeometryBase.h">
<polygon fill="none" stroke="#000000" points="2400,-319 2400,-338 2566,-338 2566,-319 2400,-319"/>
<text text-anchor="middle" x="2483" y="-326" font-family="Helvetica,sans-Serif" font-size="10.00" fill="#000000">TRDBase/TRDGeometryBase.h</text>
</a>
</g>
</g>
<!-- Node2&#45;&gt;Node3 -->
<g id="edge3" class="edge">
<title>Node2&#45;&gt;Node3</title>
<path fill="none" stroke="#191970" d="M912.249,-387.3673C1173.9489,-377.5595 2092.4019,-343.1385 2389.5133,-332.0036"/>
<polygon fill="#191970" stroke="#191970" points="2389.9564,-335.4896 2399.8183,-331.6174 2389.6942,-328.4945 2389.9564,-335.4896"/>
</g>
<!-- Node11 -->
<g id="node12" class="node">
<title>Node11</title>
<g id="a_node12"><a xlink:href="../../d4/d20/DetMatrixCache_8h.html" target="_top" xlink:title="DetectorsCommonDataFormats\l/DetMatrixCache.h">
<polygon fill="none" stroke="#000000" points="756.5,-313.5 756.5,-343.5 927.5,-343.5 927.5,-313.5 756.5,-313.5"/>
<text text-anchor="start" x="764.5" y="-331.5" font-family="Helvetica,sans-Serif" font-size="10.00" fill="#000000">DetectorsCommonDataFormats</text>
<text text-anchor="middle" x="842" y="-320.5" font-family="Helvetica,sans-Serif" font-size="10.00" fill="#000000">/DetMatrixCache.h</text>
</a>
</g>
</g>
<!-- Node2&#45;&gt;Node11 -->
<g id="edge13" class="edge">
<title>Node2&#45;&gt;Node11</title>
<path fill="none" stroke="#191970" d="M842,-380.3906C842,-373.2234 842,-363.0862 842,-353.671"/>
<polygon fill="#191970" stroke="#191970" points="845.5001,-353.5446 842,-343.5446 838.5001,-353.5446 845.5001,-353.5446"/>
</g>
<!-- Node15 -->
<g id="node16" class="node">
<title>Node15</title>
<polygon fill="none" stroke="#bfbfbf" points="766.5,-252 766.5,-271 813.5,-271 813.5,-252 766.5,-252"/>
<text text-anchor="middle" x="790" y="-259" font-family="Helvetica,sans-Serif" font-size="10.00" fill="#000000">vector</text>
</g>
<!-- Node2&#45;&gt;Node15 -->
<g id="edge63" class="edge">
<title>Node2&#45;&gt;Node15</title>
<path fill="none" stroke="#191970" d="M799.4495,-380.4528C779.924,-373.7153 758.582,-362.4765 747,-344 733.2374,-322.0449 753.6115,-295.2075 770.7417,-278.2294"/>
<polygon fill="#191970" stroke="#191970" points="773.3583,-280.5735 778.2498,-271.1754 768.5652,-275.4718 773.3583,-280.5735"/>
</g>
<!-- Node16 -->
<g id="node17" class="node">
<title>Node16</title>
<g id="a_node17"><a xlink:href="../../d6/d31/DetID_8h.html" target="_top" xlink:title="DetectorsCommonDataFormats\l/DetID.h">
<polygon fill="none" stroke="#000000" points="521.5,-246.5 521.5,-276.5 692.5,-276.5 692.5,-246.5 521.5,-246.5"/>
<text text-anchor="start" x="529.5" y="-264.5" font-family="Helvetica,sans-Serif" font-size="10.00" fill="#000000">DetectorsCommonDataFormats</text>
<text text-anchor="middle" x="607" y="-253.5" font-family="Helvetica,sans-Serif" font-size="10.00" fill="#000000">/DetID.h</text>
</a>
</g>
</g>
<!-- Node2&#45;&gt;Node16 -->
<g id="edge61" class="edge">
<title>Node2&#45;&gt;Node16</title>
<path fill="none" stroke="#191970" d="M818.2402,-380.4922C797.0731,-371.7638 765.4478,-358.0836 739,-344 703.2108,-324.9421 664.0307,-299.8846 637.7282,-282.4065"/>
<polygon fill="#191970" stroke="#191970" points="639.5841,-279.4371 629.3254,-276.7894 635.6938,-285.2566 639.5841,-279.4371"/>
</g>
<!-- Node21 -->
<g id="node22" class="node">
<title>Node21</title>
<polygon fill="none" stroke="#bfbfbf" points="0,-118 0,-137 44,-137 44,-118 0,-118"/>
<text text-anchor="middle" x="22" y="-125" font-family="Helvetica,sans-Serif" font-size="10.00" fill="#000000">string</text>
</g>
<!-- Node2&#45;&gt;Node21 -->
<g id="edge62" class="edge">
<title>Node2&#45;&gt;Node21</title>
<path fill="none" stroke="#191970" d="M779.2998,-380.4618C655.3057,-360.147 371.6677,-306.4095 151,-210 109.7772,-191.9898 66.6872,-161.7423 42.2101,-143.3048"/>
<polygon fill="#191970" stroke="#191970" points="44.1444,-140.378 34.0724,-137.0909 39.8961,-145.9416 44.1444,-140.378"/>
</g>
<!-- Node29 -->
<g id="node30" class="node">
<title>Node29</title>
<polygon fill="none" stroke="#bfbfbf" points="1169,-118 1169,-137 1227,-137 1227,-118 1169,-118"/>
<text text-anchor="middle" x="1198" y="-125" font-family="Helvetica,sans-Serif" font-size="10.00" fill="#000000">memory</text>
</g>
<!-- Node2&#45;&gt;Node29 -->
<g id="edge64" class="edge">
<title>Node2&#45;&gt;Node29</title>
<path fill="none" stroke="#191970" d="M876.7884,-380.48C927.829,-365.204 1024.0817,-331.2987 1090,-277 1131.314,-242.9685 1128.5536,-222.3141 1160,-179 1168.0968,-167.8476 1177.2678,-155.4128 1184.5716,-145.5562"/>
<polygon fill="#191970" stroke="#191970" points="1187.5205,-147.4557 1190.6698,-137.3397 1181.8995,-143.2838 1187.5205,-147.4557"/>
</g>
<!-- Node4 -->
<g id="node5" class="node">
<title>Node4</title>
<g id="a_node5"><a xlink:href="../../df/d21/GPUCommonDef_8h.html" target="_top" xlink:title="GPUCommonDef.h">
<polygon fill="none" stroke="#000000" points="1588.5,-56.5 1588.5,-75.5 1695.5,-75.5 1695.5,-56.5 1588.5,-56.5"/>
<text text-anchor="middle" x="1642" y="-63.5" font-family="Helvetica,sans-Serif" font-size="10.00" fill="#000000">GPUCommonDef.h</text>
</a>
</g>
</g>
<!-- Node3&#45;&gt;Node4 -->
<g id="edge4" class="edge">
<title>Node3&#45;&gt;Node4</title>
<path fill="none" stroke="#191970" d="M2535.5623,-318.9595C2578.2783,-310.0107 2633.5781,-295.283 2647,-277 2674.0621,-240.1367 2725.8424,-200.2162 2631,-112 2597.0818,-80.4515 1918.8532,-69.416 1705.6014,-66.7183"/>
<polygon fill="#191970" stroke="#191970" points="1705.5459,-63.2174 1695.503,-66.5924 1705.4586,-70.2169 1705.5459,-63.2174"/>
</g>
<!-- Node7 -->
<g id="node8" class="node">
<title>Node7</title>
<g id="a_node8"><a xlink:href="../../da/d32/TRDCommonParam_8h.html" target="_top" xlink:title="TRDBase/TRDCommonParam.h">
<polygon fill="none" stroke="#000000" points="2314,-252 2314,-271 2482,-271 2482,-252 2314,-252"/>
<text text-anchor="middle" x="2398" y="-259" font-family="Helvetica,sans-Serif" font-size="10.00" fill="#000000">TRDBase/TRDCommonParam.h</text>
</a>
</g>
</g>
<!-- Node3&#45;&gt;Node7 -->
<g id="edge7" class="edge">
<title>Node3&#45;&gt;Node7</title>
<path fill="none" stroke="#191970" d="M2470.8216,-318.9005C2457.0616,-308.0544 2434.4535,-290.2339 2418.0738,-277.3229"/>
<polygon fill="#191970" stroke="#191970" points="2420.1761,-274.5234 2410.1558,-271.0817 2415.8427,-280.0209 2420.1761,-274.5234"/>
</g>
<!-- Node10 -->
<g id="node11" class="node">
<title>Node10</title>
<g id="a_node11"><a xlink:href="../../de/df3/TRDPadPlane_8h.html" target="_top" xlink:title="TRDBase/TRDPadPlane.h">
<polygon fill="none" stroke="#000000" points="2500.5,-252 2500.5,-271 2637.5,-271 2637.5,-252 2500.5,-252"/>
<text text-anchor="middle" x="2569" y="-259" font-family="Helvetica,sans-Serif" font-size="10.00" fill="#000000">TRDBase/TRDPadPlane.h</text>
</a>
</g>
</g>
<!-- Node3&#45;&gt;Node10 -->
<g id="edge10" class="edge">
<title>Node3&#45;&gt;Node10</title>
<path fill="none" stroke="#191970" d="M2495.3217,-318.9005C2509.2435,-308.0544 2532.1176,-290.2339 2548.69,-277.3229"/>
<polygon fill="#191970" stroke="#191970" points="2550.9636,-279.9885 2556.7012,-271.0817 2546.6615,-274.4664 2550.9636,-279.9885"/>
</g>
<!-- Node5 -->
<g id="node6" class="node">
<title>Node5</title>
<g id="a_node6"><a xlink:href="../../d5/d93/GPUCommonDefSettings_8h.html" target="_top" xlink:title="GPUCommonDefSettings.h">
<polygon fill="none" stroke="#000000" points="1491,-.5 1491,-19.5 1639,-19.5 1639,-.5 1491,-.5"/>
<text text-anchor="middle" x="1565" y="-7.5" font-family="Helvetica,sans-Serif" font-size="10.00" fill="#000000">GPUCommonDefSettings.h</text>
</a>
</g>
</g>
<!-- Node4&#45;&gt;Node5 -->
<g id="edge5" class="edge">
<title>Node4&#45;&gt;Node5</title>
<path fill="none" stroke="#191970" d="M1628.5876,-56.2455C1616.9943,-47.814 1600.0252,-35.4729 1586.5322,-25.6598"/>
<polygon fill="#191970" stroke="#191970" points="1588.4047,-22.6938 1578.2587,-19.6427 1584.2874,-28.355 1588.4047,-22.6938"/>
</g>
<!-- Node6 -->
<g id="node7" class="node">
<title>Node6</title>
<g id="a_node7"><a xlink:href="../../da/d5a/GPUCommonDefAPI_8h.html" target="_top" xlink:title="GPUCommonDefAPI.h">
<polygon fill="none" stroke="#000000" points="1657,-.5 1657,-19.5 1781,-19.5 1781,-.5 1657,-.5"/>
<text text-anchor="middle" x="1719" y="-7.5" font-family="Helvetica,sans-Serif" font-size="10.00" fill="#000000">GPUCommonDefAPI.h</text>
</a>
</g>
</g>
<!-- Node4&#45;&gt;Node6 -->
<g id="edge6" class="edge">
<title>Node4&#45;&gt;Node6</title>
<path fill="none" stroke="#191970" d="M1655.4124,-56.2455C1667.0057,-47.814 1683.9748,-35.4729 1697.4678,-25.6598"/>
<polygon fill="#191970" stroke="#191970" points="1699.7126,-28.355 1705.7413,-19.6427 1695.5953,-22.6938 1699.7126,-28.355"/>
</g>
<!-- Node8 -->
<g id="node9" class="node">
<title>Node8</title>
<g id="a_node9"><a xlink:href="../../d2/d45/GPUCommonRtypes_8h.html" target="_top" xlink:title="GPUCommonRtypes.h">
<polygon fill="none" stroke="#000000" points="2474.5,-185 2474.5,-204 2599.5,-204 2599.5,-185 2474.5,-185"/>
<text text-anchor="middle" x="2537" y="-192" font-family="Helvetica,sans-Serif" font-size="10.00" fill="#000000">GPUCommonRtypes.h</text>
</a>
</g>
</g>
<!-- Node7&#45;&gt;Node8 -->
<g id="edge8" class="edge">
<title>Node7&#45;&gt;Node8</title>
<path fill="none" stroke="#191970" d="M2417.9153,-251.9005C2441.4491,-240.5569 2480.8101,-221.5844 2507.7929,-208.5783"/>
<polygon fill="#191970" stroke="#191970" points="2509.6332,-211.5766 2517.1216,-204.0817 2506.5937,-205.2709 2509.6332,-211.5766"/>
</g>
<!-- Node9 -->
<g id="node10" class="node">
<title>Node9</title>
<polygon fill="none" stroke="#bfbfbf" points="2150.5,-118 2150.5,-137 2209.5,-137 2209.5,-118 2150.5,-118"/>
<text text-anchor="middle" x="2180" y="-125" font-family="Helvetica,sans-Serif" font-size="10.00" fill="#000000">Rtypes.h</text>
</g>
<!-- Node8&#45;&gt;Node9 -->
<g id="edge9" class="edge">
<title>Node8&#45;&gt;Node9</title>
<path fill="none" stroke="#191970" d="M2495.8002,-184.9929C2486.0557,-182.8867 2475.6823,-180.7602 2466,-179 2356.8514,-159.157 2326.1658,-171.682 2219,-143 2216.3848,-142.3001 2213.7073,-141.4768 2211.0404,-140.5807"/>
<polygon fill="#191970" stroke="#191970" points="2212.1542,-137.2613 2201.5605,-137.1071 2209.7458,-143.834 2212.1542,-137.2613"/>
</g>
<!-- Node10&#45;&gt;Node4 -->
<g id="edge12" class="edge">
<title>Node10&#45;&gt;Node4</title>
<path fill="none" stroke="#191970" d="M2579.921,-251.7122C2589.6731,-242.1761 2603.274,-226.7068 2609,-210 2623.1215,-168.7972 2639.0578,-143.5216 2609,-112 2577.8292,-79.3112 1916.9818,-69.084 1706.0805,-66.6465"/>
<polygon fill="#191970" stroke="#191970" points="1705.8283,-63.1435 1695.7892,-66.5296 1705.7487,-70.143 1705.8283,-63.1435"/>
</g>
<!-- Node10&#45;&gt;Node8 -->
<g id="edge11" class="edge">
<title>Node10&#45;&gt;Node8</title>
<path fill="none" stroke="#191970" d="M2564.4152,-251.9005C2559.6152,-241.8505 2551.9551,-225.8122 2545.9506,-213.2403"/>
<polygon fill="#191970" stroke="#191970" points="2549.0444,-211.5968 2541.5763,-204.0817 2542.7279,-214.6137 2549.0444,-211.5968"/>
</g>
<!-- Node11&#45;&gt;Node1 -->
<g id="edge18" class="edge">
<title>Node11&#45;&gt;Node1</title>
<path fill="none" stroke="#191970" d="M844.1032,-313.4023C849.2093,-282.8179 865.2314,-213.5254 909,-179 976.8226,-125.5004 1018.3222,-171.1222 1100,-143 1101.4204,-142.5109 1102.8571,-141.9645 1104.2924,-141.377"/>
<polygon fill="#191970" stroke="#191970" points="1105.9619,-144.461 1113.5616,-137.0789 1103.0171,-138.1105 1105.9619,-144.461"/>
</g>
<!-- Node11&#45;&gt;Node8 -->
<g id="edge17" class="edge">
<title>Node11&#45;&gt;Node8</title>
<path fill="none" stroke="#191970" d="M927.7445,-327.4749C1119.2036,-324.5703 1595.9103,-313.9214 1993,-277 2098.7044,-267.1716 2361.5137,-228.7787 2466,-210 2472.3563,-208.8576 2479.0094,-207.5524 2485.5863,-206.1951"/>
<polygon fill="#191970" stroke="#191970" points="2486.7452,-209.5275 2495.8053,-204.0353 2485.2977,-202.6788 2486.7452,-209.5275"/>
</g>
<!-- Node12 -->
<g id="node13" class="node">
<title>Node12</title>
<g id="a_node13"><a xlink:href="../../df/d5b/GPUCommonLogger_8h.html" target="_top" xlink:title="GPUCommonLogger.h">
<polygon fill="none" stroke="#000000" points="957.5,-252 957.5,-271 1080.5,-271 1080.5,-252 957.5,-252"/>
<text text-anchor="middle" x="1019" y="-259" font-family="Helvetica,sans-Serif" font-size="10.00" fill="#000000">GPUCommonLogger.h</text>
</a>
</g>
</g>
<!-- Node11&#45;&gt;Node12 -->
<g id="edge14" class="edge">
<title>Node11&#45;&gt;Node12</title>
<path fill="none" stroke="#191970" d="M881.7223,-313.4639C912.5824,-301.7824 954.95,-285.7449 984.4233,-274.5884"/>
<polygon fill="#191970" stroke="#191970" points="985.7757,-277.8189 993.889,-271.0053 983.2975,-271.2722 985.7757,-277.8189"/>
</g>
<!-- Node11&#45;&gt;Node15 -->
<g id="edge19" class="edge">
<title>Node11&#45;&gt;Node15</title>
<path fill="none" stroke="#191970" d="M830.2004,-313.2967C822.3345,-303.1618 811.9673,-289.804 803.7312,-279.1921"/>
<polygon fill="#191970" stroke="#191970" points="806.312,-276.8089 797.4158,-271.055 800.7821,-281.1008 806.312,-276.8089"/>
</g>
<!-- Node11&#45;&gt;Node16 -->
<g id="edge20" class="edge">
<title>Node11&#45;&gt;Node16</title>
<path fill="none" stroke="#191970" d="M789.2614,-313.4639C753.8578,-303.3701 707.0469,-290.024 669.7303,-279.3848"/>
<polygon fill="#191970" stroke="#191970" points="670.5451,-275.9777 659.9686,-276.6017 668.6257,-282.7094 670.5451,-275.9777"/>
</g>
<!-- Node35 -->
<g id="node36" class="node">
<title>Node35</title>
<g id="a_node36"><a xlink:href="../../dd/d76/Cartesian3D_8h.html" target="_top" xlink:title="MathUtils/Cartesian3D.h">
<polygon fill="none" stroke="#000000" points="1848.5,-252 1848.5,-271 1983.5,-271 1983.5,-252 1848.5,-252"/>
<text text-anchor="middle" x="1916" y="-259" font-family="Helvetica,sans-Serif" font-size="10.00" fill="#000000">MathUtils/Cartesian3D.h</text>
</a>
</g>
</g>
<!-- Node11&#45;&gt;Node35 -->
<g id="edge49" class="edge">
<title>Node11&#45;&gt;Node35</title>
<path fill="none" stroke="#191970" d="M927.6231,-323.1585C1131.3325,-310.4504 1642.3919,-278.5687 1838.0876,-266.3605"/>
<polygon fill="#191970" stroke="#191970" points="1838.523,-269.8402 1848.2857,-265.7243 1838.0871,-262.8538 1838.523,-269.8402"/>
</g>
<!-- Node13 -->
<g id="node14" class="node">
<title>Node13</title>
<polygon fill="none" stroke="#bfbfbf" points="989,-185 989,-204 1049,-204 1049,-185 989,-185"/>
<text text-anchor="middle" x="1019" y="-192" font-family="Helvetica,sans-Serif" font-size="10.00" fill="#000000">iostream</text>
</g>
<!-- Node12&#45;&gt;Node13 -->
<g id="edge15" class="edge">
<title>Node12&#45;&gt;Node13</title>
<path fill="none" stroke="#191970" d="M1019,-251.9005C1019,-242.149 1019,-226.7597 1019,-214.3695"/>
<polygon fill="#191970" stroke="#191970" points="1022.5001,-214.0816 1019,-204.0817 1015.5001,-214.0817 1022.5001,-214.0816"/>
</g>
<!-- Node14 -->
<g id="node15" class="node">
<title>Node14</title>
<polygon fill="none" stroke="#bfbfbf" points="1067,-185 1067,-204 1113,-204 1113,-185 1067,-185"/>
<text text-anchor="middle" x="1090" y="-192" font-family="Helvetica,sans-Serif" font-size="10.00" fill="#000000">cstdio</text>
</g>
<!-- Node12&#45;&gt;Node14 -->
<g id="edge16" class="edge">
<title>Node12&#45;&gt;Node14</title>
<path fill="none" stroke="#191970" d="M1029.1726,-251.9005C1040.4553,-241.2535 1058.8601,-223.8856 1072.4742,-211.0385"/>
<polygon fill="#191970" stroke="#191970" points="1074.9754,-213.4905 1079.8463,-204.0817 1070.1712,-208.3994 1074.9754,-213.4905"/>
</g>
<!-- Node16&#45;&gt;Node1 -->
<g id="edge22" class="edge">
<title>Node16&#45;&gt;Node1</title>
<path fill="none" stroke="#191970" d="M692.5206,-249.3611C734.3049,-241.4807 784.5913,-229.0332 827,-210 848.8244,-200.2051 848.8281,-187.9807 871,-179 966.4918,-140.3214 1002.0867,-175.0578 1100,-143 1101.4625,-142.5212 1102.9405,-141.9776 1104.4154,-141.3875"/>
<polygon fill="#191970" stroke="#191970" points="1106.2905,-144.3772 1113.9081,-137.0136 1103.3612,-138.0196 1106.2905,-144.3772"/>
</g>
<!-- Node16&#45;&gt;Node9 -->
<g id="edge21" class="edge">
<title>Node16&#45;&gt;Node9</title>
<path fill="none" stroke="#191970" d="M688.2661,-246.4534C738.7267,-236.7885 804.8274,-223.5449 863,-210 915.3928,-197.8009 926.8174,-187.0893 980,-179 1211.3097,-143.8166 1959.1694,-130.7431 2140.246,-128.052"/>
<polygon fill="#191970" stroke="#191970" points="2140.4364,-131.5497 2150.384,-127.9034 2140.3338,-124.5504 2140.4364,-131.5497"/>
</g>
<!-- Node17 -->
<g id="node18" class="node">
<title>Node17</title>
<polygon fill="none" stroke="#bfbfbf" points="258,-185 258,-204 302,-204 302,-185 258,-185"/>
<text text-anchor="middle" x="280" y="-192" font-family="Helvetica,sans-Serif" font-size="10.00" fill="#000000">bitset</text>
</g>
<!-- Node16&#45;&gt;Node17 -->
<g id="edge23" class="edge">
<title>Node16&#45;&gt;Node17</title>
<path fill="none" stroke="#191970" d="M521.1871,-253.2647C461.2163,-245.9015 379.8695,-232.6664 311,-210 309.3889,-209.4698 307.7568,-208.8684 306.1278,-208.2179"/>
<polygon fill="#191970" stroke="#191970" points="307.5557,-205.0225 297.0002,-204.1101 304.6828,-211.4058 307.5557,-205.0225"/>
</g>
<!-- Node18 -->
<g id="node19" class="node">
<title>Node18</title>
<polygon fill="none" stroke="#bfbfbf" points="483,-118 483,-137 535,-137 535,-118 483,-118"/>
<text text-anchor="middle" x="509" y="-125" font-family="Helvetica,sans-Serif" font-size="10.00" fill="#000000">cassert</text>
</g>
<!-- Node16&#45;&gt;Node18 -->
<g id="edge24" class="edge">
<title>Node16&#45;&gt;Node18</title>
<path fill="none" stroke="#191970" d="M544.7751,-246.4969C511.2501,-237.0198 474.785,-223.9574 465,-210 449.9699,-188.5609 471.347,-161.3868 489.2201,-144.2155"/>
<polygon fill="#191970" stroke="#191970" points="492.0089,-146.4094 497.0421,-137.0864 487.2936,-141.2358 492.0089,-146.4094"/>
</g>
<!-- Node19 -->
<g id="node20" class="node">
<title>Node19</title>
<polygon fill="none" stroke="#bfbfbf" points="553,-118 553,-137 603,-137 603,-118 553,-118"/>
<text text-anchor="middle" x="578" y="-125" font-family="Helvetica,sans-Serif" font-size="10.00" fill="#000000">cstdint</text>
</g>
<!-- Node16&#45;&gt;Node19 -->
<g id="edge25" class="edge">
<title>Node16&#45;&gt;Node19</title>
<path fill="none" stroke="#191970" d="M603.3263,-246.1997C600.8962,-235.9676 597.6768,-222.1951 595,-210 590.3128,-188.6457 585.3025,-164.097 581.9449,-147.3674"/>
<polygon fill="#191970" stroke="#191970" points="585.2992,-146.291 579.9088,-137.1699 578.4347,-147.6617 585.2992,-146.291"/>
</g>
<!-- Node20 -->
<g id="node21" class="node">
<title>Node20</title>
<polygon fill="none" stroke="#bfbfbf" points="474.5,-185 474.5,-204 547.5,-204 547.5,-185 474.5,-185"/>
<text text-anchor="middle" x="511" y="-192" font-family="Helvetica,sans-Serif" font-size="10.00" fill="#000000">string_view</text>
</g>
<!-- Node16&#45;&gt;Node20 -->
<g id="edge26" class="edge">
<title>Node16&#45;&gt;Node20</title>
<path fill="none" stroke="#191970" d="M585.2161,-246.2967C569.678,-235.4524 548.8529,-220.9182 533.2176,-210.006"/>
<polygon fill="#191970" stroke="#191970" points="534.8942,-206.908 524.6907,-204.055 530.8879,-212.6483 534.8942,-206.908"/>
</g>
<!-- Node16&#45;&gt;Node21 -->
<g id="edge27" class="edge">
<title>Node16&#45;&gt;Node21</title>
<path fill="none" stroke="#191970" d="M521.4141,-254.1829C448.2814,-246.7476 340.6639,-232.9896 249,-210 177.1188,-191.972 96.2971,-159.516 53.1381,-141.1454"/>
<polygon fill="#191970" stroke="#191970" points="54.3301,-137.8483 43.7602,-137.1223 51.5704,-144.2813 54.3301,-137.8483"/>
</g>
<!-- Node22 -->
<g id="node23" class="node">
<title>Node22</title>
<polygon fill="none" stroke="#bfbfbf" points="604.5,-185 604.5,-204 673.5,-204 673.5,-185 604.5,-185"/>
<text text-anchor="middle" x="639" y="-192" font-family="Helvetica,sans-Serif" font-size="10.00" fill="#000000">type_traits</text>
</g>
<!-- Node16&#45;&gt;Node22 -->
<g id="edge28" class="edge">
<title>Node16&#45;&gt;Node22</title>
<path fill="none" stroke="#191970" d="M614.2613,-246.2967C618.9566,-236.4658 625.1002,-223.6026 630.0904,-213.1545"/>
<polygon fill="#191970" stroke="#191970" points="633.2849,-214.587 634.4364,-204.055 626.9683,-211.5702 633.2849,-214.587"/>
</g>
<!-- Node23 -->
<g id="node24" class="node">
<title>Node23</title>
<g id="a_node24"><a xlink:href="../../d9/d52/Common_2MathUtils_2include_2MathUtils_2Utils_8h.html" target="_top" xlink:title="MathUtils/Utils.h">
<polygon fill="none" stroke="#000000" points="320,-185 320,-204 418,-204 418,-185 320,-185"/>
<text text-anchor="middle" x="369" y="-192" font-family="Helvetica,sans-Serif" font-size="10.00" fill="#000000">MathUtils/Utils.h</text>
</a>
</g>
</g>
<!-- Node16&#45;&gt;Node23 -->
<g id="edge29" class="edge">
<title>Node16&#45;&gt;Node23</title>
<path fill="none" stroke="#191970" d="M553.5882,-246.4639C511.0101,-234.4776 452.1409,-217.9052 412.4274,-206.7254"/>
<polygon fill="#191970" stroke="#191970" points="413.3394,-203.3461 402.765,-204.0053 411.4424,-210.0842 413.3394,-203.3461"/>
</g>
<!-- Node28 -->
<g id="node29" class="node">
<title>Node28</title>
<g id="a_node29"><a xlink:href="../../dc/dcd/DataHeader_8h.html" target="_top" xlink:title="Headers/DataHeader.h">
<polygon fill="none" stroke="#000000" points="691.5,-185 691.5,-204 818.5,-204 818.5,-185 691.5,-185"/>
<text text-anchor="middle" x="755" y="-192" font-family="Helvetica,sans-Serif" font-size="10.00" fill="#000000">Headers/DataHeader.h</text>
</a>
</g>
</g>
<!-- Node16&#45;&gt;Node28 -->
<g id="edge38" class="edge">
<title>Node16&#45;&gt;Node28</title>
<path fill="none" stroke="#191970" d="M640.2141,-246.4639C665.494,-235.0196 700.0092,-219.3945 724.5739,-208.274"/>
<polygon fill="#191970" stroke="#191970" points="726.1188,-211.4166 733.7854,-204.1039 723.2319,-205.0396 726.1188,-211.4166"/>
</g>
<!-- Node23&#45;&gt;Node1 -->
<g id="edge30" class="edge">
<title>Node23&#45;&gt;Node1</title>
<path fill="none" stroke="#191970" d="M418.1987,-185.5538C433.1818,-183.1002 449.727,-180.6614 465,-179 605.5088,-163.7154 963.6615,-180.258 1100,-143 1101.7107,-142.5325 1103.4359,-141.9591 1105.1485,-141.3113"/>
<polygon fill="#191970" stroke="#191970" points="1106.9688,-144.3287 1114.6272,-137.0075 1104.0748,-137.9549 1106.9688,-144.3287"/>
</g>
<!-- Node23&#45;&gt;Node4 -->
<g id="edge32" class="edge">
<title>Node23&#45;&gt;Node4</title>
<path fill="none" stroke="#191970" d="M381.6791,-184.6608C394.9863,-174.3214 416.5028,-157.5677 435,-143 452.3951,-129.3003 453.2423,-119.7064 474,-112 577.5205,-73.5674 1349.3168,-67.2349 1578.2028,-66.2002"/>
<polygon fill="#191970" stroke="#191970" points="1578.3825,-69.6995 1588.3672,-66.1561 1578.3521,-62.6996 1578.3825,-69.6995"/>
</g>
<!-- Node24 -->
<g id="node25" class="node">
<title>Node24</title>
<polygon fill="none" stroke="#bfbfbf" points="252.5,-56.5 252.5,-75.5 299.5,-75.5 299.5,-56.5 252.5,-56.5"/>
<text text-anchor="middle" x="276" y="-63.5" font-family="Helvetica,sans-Serif" font-size="10.00" fill="#000000">cmath</text>
</g>
<!-- Node23&#45;&gt;Node24 -->
<g id="edge31" class="edge">
<title>Node23&#45;&gt;Node24</title>
<path fill="none" stroke="#191970" d="M335.7062,-184.9981C327.6553,-182.8682 319.0503,-180.7299 311,-179 262.5665,-168.5922 123.0766,-180.7521 91,-143 47.0438,-91.2663 177.5895,-73.6617 242.1478,-68.2149"/>
<polygon fill="#191970" stroke="#191970" points="242.5816,-71.6917 252.2747,-67.4145 242.03,-64.7134 242.5816,-71.6917"/>
</g>
<!-- Node25 -->
<g id="node26" class="node">
<title>Node25</title>
<g id="a_node26"><a xlink:href="../../d6/da2/GPUCommonMath_8h.html" target="_top" xlink:title="GPUCommonMath.h">
<polygon fill="none" stroke="#000000" points="311.5,-118 311.5,-137 426.5,-137 426.5,-118 311.5,-118"/>
<text text-anchor="middle" x="369" y="-125" font-family="Helvetica,sans-Serif" font-size="10.00" fill="#000000">GPUCommonMath.h</text>
</a>
</g>
</g>
<!-- Node23&#45;&gt;Node25 -->
<g id="edge33" class="edge">
<title>Node23&#45;&gt;Node25</title>
<path fill="none" stroke="#191970" d="M369,-184.9005C369,-175.149 369,-159.7597 369,-147.3695"/>
<polygon fill="#191970" stroke="#191970" points="372.5001,-147.0816 369,-137.0817 365.5001,-147.0817 372.5001,-147.0816"/>
</g>
<!-- Node27 -->
<g id="node28" class="node">
<title>Node27</title>
<g id="a_node28"><a xlink:href="../../d6/d84/MathConstants_8h.html" target="_top" xlink:title="useful math constants ">
<polygon fill="none" stroke="#000000" points="100,-118 100,-137 294,-137 294,-118 100,-118"/>
<text text-anchor="middle" x="197" y="-125" font-family="Helvetica,sans-Serif" font-size="10.00" fill="#000000">CommonConstants/MathConstants.h</text>
</a>
</g>
</g>
<!-- Node23&#45;&gt;Node27 -->
<g id="edge37" class="edge">
<title>Node23&#45;&gt;Node27</title>
<path fill="none" stroke="#191970" d="M344.3566,-184.9005C314.5971,-173.3082 264.3844,-153.7486 230.967,-140.7313"/>
<polygon fill="#191970" stroke="#191970" points="232.1861,-137.4501 221.5977,-137.0817 229.6453,-143.9727 232.1861,-137.4501"/>
</g>
<!-- Node25&#45;&gt;Node4 -->
<g id="edge34" class="edge">
<title>Node25&#45;&gt;Node4</title>
<path fill="none" stroke="#191970" d="M407.2752,-117.9693C418.112,-115.6237 429.9629,-113.3887 441,-112 664.0424,-83.9368 1362.4497,-70.5264 1577.997,-66.9836"/>
<polygon fill="#191970" stroke="#191970" points="1578.2528,-70.48 1588.1944,-66.8175 1578.1387,-63.481 1578.2528,-70.48"/>
</g>
<!-- Node25&#45;&gt;Node24 -->
<g id="edge35" class="edge">
<title>Node25&#45;&gt;Node24</title>
<path fill="none" stroke="#191970" d="M354.4688,-117.8906C339.5906,-108.0519 316.2496,-92.6167 298.8872,-81.1351"/>
<polygon fill="#191970" stroke="#191970" points="300.701,-78.1385 290.4292,-75.5419 296.8398,-83.9773 300.701,-78.1385"/>
</g>
<!-- Node26 -->
<g id="node27" class="node">
<title>Node26</title>
<polygon fill="none" stroke="#bfbfbf" points="429,-56.5 429,-75.5 493,-75.5 493,-56.5 429,-56.5"/>
<text text-anchor="middle" x="461" y="-63.5" font-family="Helvetica,sans-Serif" font-size="10.00" fill="#000000">algorithm</text>
</g>
<!-- Node25&#45;&gt;Node26 -->
<g id="edge36" class="edge">
<title>Node25&#45;&gt;Node26</title>
<path fill="none" stroke="#191970" d="M383.375,-117.8906C398.0931,-108.0519 421.1832,-92.6167 438.3589,-81.1351"/>
<polygon fill="#191970" stroke="#191970" points="440.3575,-84.0091 446.7259,-75.5419 436.4673,-78.1896 440.3575,-84.0091"/>
</g>
<!-- Node28&#45;&gt;Node18 -->
<g id="edge41" class="edge">
<title>Node28&#45;&gt;Node18</title>
<path fill="none" stroke="#191970" d="M712.1262,-184.9826C659.8872,-173.2209 574.7872,-153.4817 544,-143 542.1599,-142.3735 540.2833,-141.6879 538.4027,-140.9647"/>
<polygon fill="#191970" stroke="#191970" points="539.6947,-137.7116 529.1154,-137.137 537.0273,-144.1835 539.6947,-137.7116"/>
</g>
<!-- Node28&#45;&gt;Node19 -->
<g id="edge39" class="edge">
<title>Node28&#45;&gt;Node19</title>
<path fill="none" stroke="#191970" d="M728.9952,-184.9812C701.2071,-174.7663 655.8961,-157.9852 617,-143 615.1643,-142.2928 613.282,-141.5623 611.3834,-140.8214"/>
<polygon fill="#191970" stroke="#191970" points="612.481,-137.4922 601.8938,-137.0886 609.9186,-144.0063 612.481,-137.4922"/>
</g>
<!-- Node28&#45;&gt;Node21 -->
<g id="edge45" class="edge">
<title>Node28&#45;&gt;Node21</title>
<path fill="none" stroke="#191970" d="M715.4062,-184.9761C704.6263,-182.6894 692.9125,-180.4825 682,-179 421.2419,-143.5743 351.5455,-179.9568 91,-143 78.901,-141.2838 65.7799,-138.5591 54.2604,-135.8696"/>
<polygon fill="#191970" stroke="#191970" points="54.7493,-132.387 44.2068,-133.4393 53.1045,-139.191 54.7493,-132.387"/>
</g>
<!-- Node28&#45;&gt;Node26 -->
<g id="edge43" class="edge">
<title>Node28&#45;&gt;Node26</title>
<path fill="none" stroke="#191970" d="M731.6575,-184.8905C709.8215,-175.4803 676.6638,-160.0962 650,-143 631.6517,-131.2355 631.2313,-122.2577 612,-112 577.4584,-93.5759 534.4478,-81.3902 503.1755,-74.2175"/>
<polygon fill="#191970" stroke="#191970" points="503.5695,-70.72 493.0493,-71.9754 502.0562,-77.5545 503.5695,-70.72"/>
</g>
<!-- Node28&#45;&gt;Node29 -->
<g id="edge40" class="edge">
<title>Node28&#45;&gt;Node29</title>
<path fill="none" stroke="#191970" d="M818.5182,-188.4628C915.7936,-178.8717 1097.0171,-159.5451 1160,-143 1162.6229,-142.311 1165.3059,-141.4842 1167.9732,-140.5759"/>
<polygon fill="#191970" stroke="#191970" points="1169.2943,-143.8185 1177.4281,-137.0294 1166.8359,-137.2644 1169.2943,-143.8185"/>
</g>
<!-- Node30 -->
<g id="node31" class="node">
<title>Node30</title>
<polygon fill="none" stroke="#bfbfbf" points="725,-118 725,-137 775,-137 775,-118 725,-118"/>
<text text-anchor="middle" x="750" y="-125" font-family="Helvetica,sans-Serif" font-size="10.00" fill="#000000">cstring</text>
</g>
<!-- Node28&#45;&gt;Node30 -->
<g id="edge42" class="edge">
<title>Node28&#45;&gt;Node30</title>
<path fill="none" stroke="#191970" d="M754.2836,-184.9005C753.5559,-175.149 752.4074,-159.7597 751.4828,-147.3695"/>
<polygon fill="#191970" stroke="#191970" points="754.9496,-146.7934 750.715,-137.0817 747.969,-147.3144 754.9496,-146.7934"/>
</g>
<!-- Node31 -->
<g id="node32" class="node">
<title>Node31</title>
<polygon fill="none" stroke="#bfbfbf" points="793.5,-118 793.5,-137 858.5,-137 858.5,-118 793.5,-118"/>
<text text-anchor="middle" x="826" y="-125" font-family="Helvetica,sans-Serif" font-size="10.00" fill="#000000">stdexcept</text>
</g>
<!-- Node28&#45;&gt;Node31 -->
<g id="edge44" class="edge">
<title>Node28&#45;&gt;Node31</title>
<path fill="none" stroke="#191970" d="M765.1726,-184.9005C776.4553,-174.2535 794.8601,-156.8856 808.4742,-144.0385"/>
<polygon fill="#191970" stroke="#191970" points="810.9754,-146.4905 815.8463,-137.0817 806.1712,-141.3994 810.9754,-146.4905"/>
</g>
<!-- Node32 -->
<g id="node33" class="node">
<title>Node32</title>
<polygon fill="none" stroke="#bfbfbf" points="877,-118 877,-137 927,-137 927,-118 877,-118"/>
<text text-anchor="middle" x="902" y="-125" font-family="Helvetica,sans-Serif" font-size="10.00" fill="#000000">climits</text>
</g>
<!-- Node28&#45;&gt;Node32 -->
<g id="edge46" class="edge">
<title>Node28&#45;&gt;Node32</title>
<path fill="none" stroke="#191970" d="M776.0615,-184.9005C801.1681,-173.4574 843.3077,-154.2509 871.8598,-141.2374"/>
<polygon fill="#191970" stroke="#191970" points="873.3297,-144.4139 880.9776,-137.0817 870.4265,-138.0443 873.3297,-144.4139"/>
</g>
<!-- Node33 -->
<g id="node34" class="node">
<title>Node33</title>
<g id="a_node34"><a xlink:href="../../d7/df8/Types_8h.html" target="_top" xlink:title="MemoryResources/Types.h">
<polygon fill="none" stroke="#000000" points="945,-118 945,-137 1091,-137 1091,-118 945,-118"/>
<text text-anchor="middle" x="1018" y="-125" font-family="Helvetica,sans-Serif" font-size="10.00" fill="#000000">MemoryResources/Types.h</text>
</a>
</g>
</g>
<!-- Node28&#45;&gt;Node33 -->
<g id="edge47" class="edge">
<title>Node28&#45;&gt;Node33</title>
<path fill="none" stroke="#191970" d="M792.4022,-184.9717C839.2014,-173.0495 919.3914,-152.6208 970.4881,-139.6038"/>
<polygon fill="#191970" stroke="#191970" points="971.4746,-142.9643 980.301,-137.1039 969.7465,-136.181 971.4746,-142.9643"/>
</g>
<!-- Node34 -->
<g id="node35" class="node">
<title>Node34</title>
<polygon fill="none" stroke="#bfbfbf" points="659.5,-118 659.5,-137 706.5,-137 706.5,-118 659.5,-118"/>
<text text-anchor="middle" x="683" y="-125" font-family="Helvetica,sans-Serif" font-size="10.00" fill="#000000">cerrno</text>
</g>
<!-- Node28&#45;&gt;Node34 -->
<g id="edge48" class="edge">
<title>Node28&#45;&gt;Node34</title>
<path fill="none" stroke="#191970" d="M744.6842,-184.9005C733.2425,-174.2535 714.5785,-156.8856 700.7727,-144.0385"/>
<polygon fill="#191970" stroke="#191970" points="703.0017,-141.3317 693.2967,-137.0817 698.2331,-146.4562 703.0017,-141.3317"/>
</g>
<!-- Node35&#45;&gt;Node9 -->
<g id="edge55" class="edge">
<title>Node35&#45;&gt;Node9</title>
<path fill="none" stroke="#191970" d="M1983.7568,-256.4909C2082.2392,-248.5132 2255.291,-231.5929 2274,-210 2283.0221,-199.5871 2281.022,-190.854 2274,-179 2267.0508,-167.2689 2237.2542,-152.0923 2213.0453,-141.2592"/>
<polygon fill="#191970" stroke="#191970" points="2214.3304,-138.0011 2203.7665,-137.1929 2211.5207,-144.4125 2214.3304,-138.0011"/>
</g>
<!-- Node36 -->
<g id="node37" class="node">
<title>Node36</title>
<polygon fill="none" stroke="#bfbfbf" points="1169,-179.5 1169,-209.5 1333,-209.5 1333,-179.5 1169,-179.5"/>
<text text-anchor="start" x="1177" y="-197.5" font-family="Helvetica,sans-Serif" font-size="10.00" fill="#000000">Math/GenVector/Displacement</text>
<text text-anchor="middle" x="1251" y="-186.5" font-family="Helvetica,sans-Serif" font-size="10.00" fill="#000000">Vector3D.h</text>
</g>
<!-- Node35&#45;&gt;Node36 -->
<g id="edge50" class="edge">
<title>Node35&#45;&gt;Node36</title>
<path fill="none" stroke="#191970" d="M1848.3356,-257.1193C1742.8393,-249.9137 1532.5797,-234.0481 1343.3484,-209.9745"/>
<polygon fill="#191970" stroke="#191970" points="1343.5758,-206.4751 1333.2118,-208.6744 1342.6853,-213.4182 1343.5758,-206.4751"/>
</g>
<!-- Node37 -->
<g id="node38" class="node">
<title>Node37</title>
<polygon fill="none" stroke="#bfbfbf" points="1351.5,-185 1351.5,-204 1540.5,-204 1540.5,-185 1351.5,-185"/>
<text text-anchor="middle" x="1446" y="-192" font-family="Helvetica,sans-Serif" font-size="10.00" fill="#000000">Math/GenVector/PositionVector3D.h</text>
</g>
<!-- Node35&#45;&gt;Node37 -->
<g id="edge51" class="edge">
<title>Node35&#45;&gt;Node37</title>
<path fill="none" stroke="#191970" d="M1848.1834,-252.1261C1774.6941,-241.9287 1653.9889,-225.0651 1550,-210 1540.1087,-208.567 1529.6913,-207.038 1519.4254,-205.5196"/>
<polygon fill="#191970" stroke="#191970" points="1519.6402,-202.0133 1509.235,-204.0087 1518.6135,-208.9376 1519.6402,-202.0133"/>
</g>
<!-- Node38 -->
<g id="node39" class="node">
<title>Node38</title>
<polygon fill="none" stroke="#bfbfbf" points="1559,-185 1559,-204 1719,-204 1719,-185 1559,-185"/>
<text text-anchor="middle" x="1639" y="-192" font-family="Helvetica,sans-Serif" font-size="10.00" fill="#000000">Math/GenVector/Rotation3D.h</text>
</g>
<!-- Node35&#45;&gt;Node38 -->
<g id="edge52" class="edge">
<title>Node35&#45;&gt;Node38</title>
<path fill="none" stroke="#191970" d="M1876.6068,-251.9717C1827.2138,-240.0246 1742.5056,-219.5357 1688.7051,-206.5225"/>
<polygon fill="#191970" stroke="#191970" points="1689.2483,-203.0531 1678.7058,-204.1039 1687.6026,-209.8569 1689.2483,-203.0531"/>
</g>
<!-- Node39 -->
<g id="node40" class="node">
<title>Node39</title>
<polygon fill="none" stroke="#bfbfbf" points="1737,-185 1737,-204 1905,-204 1905,-185 1737,-185"/>
<text text-anchor="middle" x="1821" y="-192" font-family="Helvetica,sans-Serif" font-size="10.00" fill="#000000">Math/GenVector/Transform3D.h</text>
</g>
<!-- Node35&#45;&gt;Node39 -->
<g id="edge53" class="edge">
<title>Node35&#45;&gt;Node39</title>
<path fill="none" stroke="#191970" d="M1902.3888,-251.9005C1886.8689,-240.9549 1861.2777,-222.9064 1842.9333,-209.9688"/>
<polygon fill="#191970" stroke="#191970" points="1844.7752,-206.9849 1834.5859,-204.0817 1840.7408,-212.7054 1844.7752,-206.9849"/>
</g>
<!-- Node40 -->
<g id="node41" class="node">
<title>Node40</title>
<polygon fill="none" stroke="#bfbfbf" points="1923.5,-185 1923.5,-204 2096.5,-204 2096.5,-185 1923.5,-185"/>
<text text-anchor="middle" x="2010" y="-192" font-family="Helvetica,sans-Serif" font-size="10.00" fill="#000000">Math/GenVector/Translation3D.h</text>
</g>
<!-- Node35&#45;&gt;Node40 -->
<g id="edge54" class="edge">
<title>Node35&#45;&gt;Node40</title>
<path fill="none" stroke="#191970" d="M1929.4679,-251.9005C1944.8244,-240.9549 1970.1463,-222.9064 1988.2976,-209.9688"/>
<polygon fill="#191970" stroke="#191970" points="1990.4454,-212.736 1996.5571,-204.0817 1986.3824,-207.0358 1990.4454,-212.736"/>
</g>
<!-- Node41 -->
<g id="node42" class="node">
<title>Node41</title>
<polygon fill="none" stroke="#bfbfbf" points="2115,-185 2115,-204 2197,-204 2197,-185 2115,-185"/>
<text text-anchor="middle" x="2156" y="-192" font-family="Helvetica,sans-Serif" font-size="10.00" fill="#000000">TGeoMatrix.h</text>
</g>
<!-- Node35&#45;&gt;Node41 -->
<g id="edge56" class="edge">
<title>Node35&#45;&gt;Node41</title>
<path fill="none" stroke="#191970" d="M1952.8886,-251.921C1991.2507,-241.8612 2052.9953,-225.3939 2106,-210 2109.3301,-209.0329 2112.7782,-208.0097 2116.2353,-206.9687"/>
<polygon fill="#191970" stroke="#191970" points="2117.3661,-210.2831 2125.911,-204.0193 2115.325,-203.5872 2117.3661,-210.2831"/>
</g>
<!-- Node42 -->
<g id="node43" class="node">
<title>Node42</title>
<polygon fill="none" stroke="#bfbfbf" points="2215.5,-185 2215.5,-204 2264.5,-204 2264.5,-185 2215.5,-185"/>
<text text-anchor="middle" x="2240" y="-192" font-family="Helvetica,sans-Serif" font-size="10.00" fill="#000000">iosfwd</text>
</g>
<!-- Node35&#45;&gt;Node42 -->
<g id="edge57" class="edge">
<title>Node35&#45;&gt;Node42</title>
<path fill="none" stroke="#191970" d="M1983.6589,-254.3805C2043.1747,-246.969 2131.6645,-233.1368 2206,-210 2207.9047,-209.4072 2209.8424,-208.7331 2211.7776,-208.0059"/>
<polygon fill="#191970" stroke="#191970" points="2213.3814,-211.1296 2221.2698,-204.0569 2210.6925,-204.6666 2213.3814,-211.1296"/>
</g>
<!-- Node43 -->
<g id="node44" class="node">
<title>Node43</title>
<g id="a_node44"><a xlink:href="../../d2/dd0/Cartesian2D_8h.html" target="_top" xlink:title="MathUtils/Cartesian2D.h">
<polygon fill="none" stroke="#000000" points="2321.5,-185 2321.5,-204 2456.5,-204 2456.5,-185 2321.5,-185"/>
<text text-anchor="middle" x="2389" y="-192" font-family="Helvetica,sans-Serif" font-size="10.00" fill="#000000">MathUtils/Cartesian2D.h</text>
</a>
</g>
</g>
<!-- Node35&#45;&gt;Node43 -->
<g id="edge58" class="edge">
<title>Node35&#45;&gt;Node43</title>
<path fill="none" stroke="#191970" d="M1983.6273,-253.7556C2061.7119,-244.5443 2193.9293,-228.1185 2307,-210 2314.7452,-208.7589 2322.882,-207.3495 2330.8983,-205.8985"/>
<polygon fill="#191970" stroke="#191970" points="2331.7484,-209.3009 2340.9493,-204.0478 2330.4808,-202.4166 2331.7484,-209.3009"/>
</g>
<!-- Node44 -->
<g id="node45" class="node">
<title>Node44</title>
<polygon fill="none" stroke="#bfbfbf" points="2228,-112.5 2228,-142.5 2392,-142.5 2392,-112.5 2228,-112.5"/>
<text text-anchor="start" x="2236" y="-130.5" font-family="Helvetica,sans-Serif" font-size="10.00" fill="#000000">Math/GenVector/Displacement</text>
<text text-anchor="middle" x="2310" y="-119.5" font-family="Helvetica,sans-Serif" font-size="10.00" fill="#000000">Vector2D.h</text>
</g>
<!-- Node43&#45;&gt;Node44 -->
<g id="edge59" class="edge">
<title>Node43&#45;&gt;Node44</title>
<path fill="none" stroke="#191970" d="M2377.6812,-184.9005C2366.7678,-175.6448 2349.8657,-161.3101 2335.6828,-149.2816"/>
<polygon fill="#191970" stroke="#191970" points="2337.6026,-146.3206 2327.7122,-142.5218 2333.0749,-151.6592 2337.6026,-146.3206"/>
</g>
<!-- Node45 -->
<g id="node46" class="node">
<title>Node45</title>
<polygon fill="none" stroke="#bfbfbf" points="2410.5,-118 2410.5,-137 2599.5,-137 2599.5,-118 2410.5,-118"/>
<text text-anchor="middle" x="2505" y="-125" font-family="Helvetica,sans-Serif" font-size="10.00" fill="#000000">Math/GenVector/PositionVector2D.h</text>
</g>
<!-- Node43&#45;&gt;Node45 -->
<g id="edge60" class="edge">
<title>Node43&#45;&gt;Node45</title>
<path fill="none" stroke="#191970" d="M2405.62,-184.9005C2425.0012,-173.7062 2457.2455,-155.0823 2479.7315,-142.0947"/>
<polygon fill="#191970" stroke="#191970" points="2481.502,-145.114 2488.4109,-137.0817 2478.0009,-139.0525 2481.502,-145.114"/>
</g>
<!-- Node46&#45;&gt;Node8 -->
<g id="edge66" class="edge">
<title>Node46&#45;&gt;Node8</title>
<path fill="none" stroke="#191970" d="M1724.658,-380.4324C1823.7962,-357.1339 2085.9041,-295.719 2305,-246 2366.1002,-232.1346 2436.3477,-216.5972 2483.3904,-206.2504"/>
<polygon fill="#191970" stroke="#191970" points="2484.3427,-209.6247 2493.3581,-204.0593 2482.8399,-202.7879 2484.3427,-209.6247"/>
</g>
</g>
</svg>
