<?xml version="1.0" encoding="UTF-8" standalone="no"?>
<!DOCTYPE svg PUBLIC "-//W3C//DTD SVG 1.1//EN"
 "http://www.w3.org/Graphics/SVG/1.1/DTD/svg11.dtd">
<!-- Generated by graphviz version 2.40.1 (20161225.0304)
 -->
<!-- Title: o2::globaltracking::InteractionCandidate Pages: 1 -->
<svg width="570pt" height="881pt"
 viewBox="0.00 0.00 570.00 881.00" xmlns="http://www.w3.org/2000/svg" xmlns:xlink="http://www.w3.org/1999/xlink">
<g id="graph0" class="graph" transform="scale(1 1) rotate(0) translate(4 877)">
<title>o2::globaltracking::InteractionCandidate</title>
<!-- Node2 -->
<g id="node1" class="node">
<title>Node2</title>
<polygon fill="#bfbfbf" stroke="#000000" points="327.5,-.5 327.5,-79.5 464.5,-79.5 464.5,-.5 327.5,-.5"/>
<text text-anchor="start" x="335.5" y="-67.5" font-family="Helvetica,sans-Serif" font-size="10.00" fill="#000000">o2::globaltracking</text>
<text text-anchor="middle" x="396" y="-56.5" font-family="Helvetica,sans-Serif" font-size="10.00" fill="#000000">::InteractionCandidate</text>
<polyline fill="none" stroke="#000000" points="327.5,-49.5 464.5,-49.5 "/>
<text text-anchor="middle" x="396" y="-37.5" font-family="Helvetica,sans-Serif" font-size="10.00" fill="#000000"> </text>
<polyline fill="none" stroke="#000000" points="327.5,-30.5 464.5,-30.5 "/>
<text text-anchor="start" x="335.5" y="-18.5" font-family="Helvetica,sans-Serif" font-size="10.00" fill="#000000">+ InteractionCandidate()</text>
<text text-anchor="start" x="335.5" y="-7.5" font-family="Helvetica,sans-Serif" font-size="10.00" fill="#000000">+ InteractionCandidate()</text>
</g>
<!-- Node3 -->
<g id="node2" class="node">
<title>Node3</title>
<g id="a_node2"><a xlink:href="../../d1/d21/structo2_1_1InteractionRecord.html" target="_top" xlink:title="{o2::InteractionRecord\n||+ InteractionRecord()\l+ InteractionRecord()\l+ InteractionRecord()\l+ InteractionRecord()\l+ clear()\l+ isDummy()\l+ setFromNS()\l+ bc2ns()\l+ operator==()\l+ operator!=()\l+ differenceInBC()\l+ toLong()\l+ setFromLong()\l+ operator\&gt;()\l+ operator\&gt;=()\l+ operator\&lt;()\l+ operator\&lt;=()\l+ operator&#45;&#45;()\l+ operator&#45;&#45;()\l+ operator++()\l+ operator++()\l+ operator+=()\l+ operator&#45;=()\l+ operator+=()\l+ operator&#45;=()\l+ operator+()\l+ operator&#45;()\l+ operator+()\l+ operator&#45;()\l+ print()\l+ ClassDefNV()\l+ bc2ns()\l+ ns2bc()\l}">
<polygon fill="none" stroke="#000000" points="102.5,-127.5 102.5,-536.5 223.5,-536.5 223.5,-127.5 102.5,-127.5"/>
<text text-anchor="middle" x="163" y="-524.5" font-family="Helvetica,sans-Serif" font-size="10.00" fill="#000000">o2::InteractionRecord</text>
<polyline fill="none" stroke="#000000" points="102.5,-517.5 223.5,-517.5 "/>
<text text-anchor="middle" x="163" y="-505.5" font-family="Helvetica,sans-Serif" font-size="10.00" fill="#000000"> </text>
<polyline fill="none" stroke="#000000" points="102.5,-498.5 223.5,-498.5 "/>
<text text-anchor="start" x="110.5" y="-486.5" font-family="Helvetica,sans-Serif" font-size="10.00" fill="#000000">+ InteractionRecord()</text>
<text text-anchor="start" x="110.5" y="-475.5" font-family="Helvetica,sans-Serif" font-size="10.00" fill="#000000">+ InteractionRecord()</text>
<text text-anchor="start" x="110.5" y="-464.5" font-family="Helvetica,sans-Serif" font-size="10.00" fill="#000000">+ InteractionRecord()</text>
<text text-anchor="start" x="110.5" y="-453.5" font-family="Helvetica,sans-Serif" font-size="10.00" fill="#000000">+ InteractionRecord()</text>
<text text-anchor="start" x="110.5" y="-442.5" font-family="Helvetica,sans-Serif" font-size="10.00" fill="#000000">+ clear()</text>
<text text-anchor="start" x="110.5" y="-431.5" font-family="Helvetica,sans-Serif" font-size="10.00" fill="#000000">+ isDummy()</text>
<text text-anchor="start" x="110.5" y="-420.5" font-family="Helvetica,sans-Serif" font-size="10.00" fill="#000000">+ setFromNS()</text>
<text text-anchor="start" x="110.5" y="-409.5" font-family="Helvetica,sans-Serif" font-size="10.00" fill="#000000">+ bc2ns()</text>
<text text-anchor="start" x="110.5" y="-398.5" font-family="Helvetica,sans-Serif" font-size="10.00" fill="#000000">+ operator==()</text>
<text text-anchor="start" x="110.5" y="-387.5" font-family="Helvetica,sans-Serif" font-size="10.00" fill="#000000">+ operator!=()</text>
<text text-anchor="start" x="110.5" y="-376.5" font-family="Helvetica,sans-Serif" font-size="10.00" fill="#000000">+ differenceInBC()</text>
<text text-anchor="start" x="110.5" y="-365.5" font-family="Helvetica,sans-Serif" font-size="10.00" fill="#000000">+ toLong()</text>
<text text-anchor="start" x="110.5" y="-354.5" font-family="Helvetica,sans-Serif" font-size="10.00" fill="#000000">+ setFromLong()</text>
<text text-anchor="start" x="110.5" y="-343.5" font-family="Helvetica,sans-Serif" font-size="10.00" fill="#000000">+ operator&gt;()</text>
<text text-anchor="start" x="110.5" y="-332.5" font-family="Helvetica,sans-Serif" font-size="10.00" fill="#000000">+ operator&gt;=()</text>
<text text-anchor="start" x="110.5" y="-321.5" font-family="Helvetica,sans-Serif" font-size="10.00" fill="#000000">+ operator&lt;()</text>
<text text-anchor="start" x="110.5" y="-310.5" font-family="Helvetica,sans-Serif" font-size="10.00" fill="#000000">+ operator&lt;=()</text>
<text text-anchor="start" x="110.5" y="-299.5" font-family="Helvetica,sans-Serif" font-size="10.00" fill="#000000">+ operator&#45;&#45;()</text>
<text text-anchor="start" x="110.5" y="-288.5" font-family="Helvetica,sans-Serif" font-size="10.00" fill="#000000">+ operator&#45;&#45;()</text>
<text text-anchor="start" x="110.5" y="-277.5" font-family="Helvetica,sans-Serif" font-size="10.00" fill="#000000">+ operator++()</text>
<text text-anchor="start" x="110.5" y="-266.5" font-family="Helvetica,sans-Serif" font-size="10.00" fill="#000000">+ operator++()</text>
<text text-anchor="start" x="110.5" y="-255.5" font-family="Helvetica,sans-Serif" font-size="10.00" fill="#000000">+ operator+=()</text>
<text text-anchor="start" x="110.5" y="-244.5" font-family="Helvetica,sans-Serif" font-size="10.00" fill="#000000">+ operator&#45;=()</text>
<text text-anchor="start" x="110.5" y="-233.5" font-family="Helvetica,sans-Serif" font-size="10.00" fill="#000000">+ operator+=()</text>
<text text-anchor="start" x="110.5" y="-222.5" font-family="Helvetica,sans-Serif" font-size="10.00" fill="#000000">+ operator&#45;=()</text>
<text text-anchor="start" x="110.5" y="-211.5" font-family="Helvetica,sans-Serif" font-size="10.00" fill="#000000">+ operator+()</text>
<text text-anchor="start" x="110.5" y="-200.5" font-family="Helvetica,sans-Serif" font-size="10.00" fill="#000000">+ operator&#45;()</text>
<text text-anchor="start" x="110.5" y="-189.5" font-family="Helvetica,sans-Serif" font-size="10.00" fill="#000000">+ operator+()</text>
<text text-anchor="start" x="110.5" y="-178.5" font-family="Helvetica,sans-Serif" font-size="10.00" fill="#000000">+ operator&#45;()</text>
<text text-anchor="start" x="110.5" y="-167.5" font-family="Helvetica,sans-Serif" font-size="10.00" fill="#000000">+ print()</text>
<text text-anchor="start" x="110.5" y="-156.5" font-family="Helvetica,sans-Serif" font-size="10.00" fill="#000000">+ ClassDefNV()</text>
<text text-anchor="start" x="110.5" y="-145.5" font-family="Helvetica,sans-Serif" font-size="10.00" fill="#000000">+ bc2ns()</text>
<text text-anchor="start" x="110.5" y="-134.5" font-family="Helvetica,sans-Serif" font-size="10.00" fill="#000000">+ ns2bc()</text>
</a>
</g>
</g>
<!-- Node3&#45;&gt;Node2 -->
<g id="edge1" class="edge">
<title>Node3&#45;&gt;Node2</title>
<path fill="none" stroke="#191970" d="M228.5311,-172.3134C244.105,-145.4984 262.5582,-119.4547 284,-98 296.3057,-85.6869 311.7696,-75.4279 327.2435,-67.1347"/>
<polygon fill="none" stroke="#191970" points="225.4692,-170.6176 223.5756,-181.0418 231.5565,-174.0736 225.4692,-170.6176"/>
</g>
<!-- Node4 -->
<g id="node3" class="node">
<title>Node4</title>
<polygon fill="none" stroke="#bfbfbf" points="0,-705.5 0,-762.5 50,-762.5 50,-705.5 0,-705.5"/>
<text text-anchor="middle" x="25" y="-750.5" font-family="Helvetica,sans-Serif" font-size="10.00" fill="#000000">double</text>
<polyline fill="none" stroke="#bfbfbf" points="0,-743.5 50,-743.5 "/>
<text text-anchor="middle" x="25" y="-731.5" font-family="Helvetica,sans-Serif" font-size="10.00" fill="#000000"> </text>
<polyline fill="none" stroke="#bfbfbf" points="0,-724.5 50,-724.5 "/>
<text text-anchor="middle" x="25" y="-712.5" font-family="Helvetica,sans-Serif" font-size="10.00" fill="#000000"> </text>
</g>
<!-- Node4&#45;&gt;Node3 -->
<g id="edge2" class="edge">
<title>Node4&#45;&gt;Node3</title>
<path fill="none" stroke="#404040" d="M24.6975,-705.4274C25.0672,-669.5236 28.2196,-606.3831 44,-555 56.4292,-514.529 76.3911,-472.8904 96.443,-436.7122"/>
<polygon fill="none" stroke="#404040" points="96.493,-436.6232 95.9485,-429.4327 102.3765,-426.1645 102.921,-433.355 96.493,-436.6232"/>
<text text-anchor="middle" x="82" y="-563.5" font-family="Helvetica,sans-Serif" font-size="10.00" fill="#000000"> +DummyTime</text>
</g>
<!-- Node5 -->
<g id="node4" class="node">
<title>Node5</title>
<polygon fill="none" stroke="#bfbfbf" points="96,-705.5 96,-762.5 152,-762.5 152,-705.5 96,-705.5"/>
<text text-anchor="middle" x="124" y="-750.5" font-family="Helvetica,sans-Serif" font-size="10.00" fill="#000000">uint16_t</text>
<polyline fill="none" stroke="#bfbfbf" points="96,-743.5 152,-743.5 "/>
<text text-anchor="middle" x="124" y="-731.5" font-family="Helvetica,sans-Serif" font-size="10.00" fill="#000000"> </text>
<polyline fill="none" stroke="#bfbfbf" points="96,-724.5 152,-724.5 "/>
<text text-anchor="middle" x="124" y="-712.5" font-family="Helvetica,sans-Serif" font-size="10.00" fill="#000000"> </text>
</g>
<!-- Node5&#45;&gt;Node3 -->
<g id="edge3" class="edge">
<title>Node5&#45;&gt;Node3</title>
<path fill="none" stroke="#404040" d="M122.7271,-705.412C121.481,-670.0218 120.3728,-607.9396 125,-555 125.1822,-552.9154 125.3733,-550.821 125.5728,-548.7181"/>
<polygon fill="none" stroke="#404040" points="125.5919,-548.5287 122.2187,-542.1552 126.8045,-536.5901 130.1777,-542.9636 125.5919,-548.5287"/>
<text text-anchor="middle" x="157" y="-569" font-family="Helvetica,sans-Serif" font-size="10.00" fill="#000000"> +DummyBC</text>
<text text-anchor="middle" x="157" y="-558" font-family="Helvetica,sans-Serif" font-size="10.00" fill="#000000">+bc</text>
</g>
<!-- Node6 -->
<g id="node5" class="node">
<title>Node6</title>
<g id="a_node5"><a xlink:href="../../d3/d87/classuint32__t.html" target="_top" xlink:title="{uint32_t\n||}">
<polygon fill="none" stroke="#000000" points="220,-705.5 220,-762.5 276,-762.5 276,-705.5 220,-705.5"/>
<text text-anchor="middle" x="248" y="-750.5" font-family="Helvetica,sans-Serif" font-size="10.00" fill="#000000">uint32_t</text>
<polyline fill="none" stroke="#000000" points="220,-743.5 276,-743.5 "/>
<text text-anchor="middle" x="248" y="-731.5" font-family="Helvetica,sans-Serif" font-size="10.00" fill="#000000"> </text>
<polyline fill="none" stroke="#000000" points="220,-724.5 276,-724.5 "/>
<text text-anchor="middle" x="248" y="-712.5" font-family="Helvetica,sans-Serif" font-size="10.00" fill="#000000"> </text>
</a>
</g>
</g>
<!-- Node6&#45;&gt;Node2 -->
<g id="edge7" class="edge">
<title>Node6&#45;&gt;Node2</title>
<path fill="none" stroke="#404040" d="M256.158,-705.3436C264.6835,-674.0814 277.6805,-622.424 284,-577 311.595,-378.6493 224.6264,-309.5352 307,-127 313.4451,-112.7181 323.38,-99.5466 334.3107,-88.0023"/>
<polygon fill="none" stroke="#404040" points="334.3322,-87.9808 335.7503,-80.9105 342.8221,-79.5001 341.4041,-86.5704 334.3322,-87.9808"/>
<text text-anchor="middle" x="322" y="-329.5" font-family="Helvetica,sans-Serif" font-size="10.00" fill="#000000"> +flag</text>
</g>
<!-- Node6&#45;&gt;Node3 -->
<g id="edge4" class="edge">
<title>Node6&#45;&gt;Node3</title>
<path fill="none" stroke="#404040" d="M241.1898,-705.4046C233.7646,-673.978 221.6524,-621.9772 212,-577 209.9941,-567.6529 207.9703,-558.0994 205.9468,-548.4443"/>
<polygon fill="none" stroke="#404040" points="205.9315,-548.3707 200.79,-543.3145 203.4797,-536.6238 208.6212,-541.68 205.9315,-548.3707"/>
<text text-anchor="middle" x="248" y="-569" font-family="Helvetica,sans-Serif" font-size="10.00" fill="#000000"> +orbit</text>
<text text-anchor="middle" x="248" y="-558" font-family="Helvetica,sans-Serif" font-size="10.00" fill="#000000">+DummyOrbit</text>
</g>
<!-- Node7 -->
<g id="node6" class="node">
<title>Node7</title>
<g id="a_node6"><a xlink:href="../../df/d6b/classo2_1_1utils_1_1Bracket.html" target="_top" xlink:title="{o2::utils::Bracket\l\&lt; float \&gt;\n||+ Bracket()\l+ Bracket()\l+ Bracket()\l+ ~Bracket()\l+ set()\l+ operator\&lt;()\l+ operator\&lt;()\l+ operator\&gt;()\l+ operator\&gt;()\l+ operator==()\l+ setMax()\l+ setMin()\l+ max()\l+ max()\l+ min()\l+ min()\l+ mean()\l+ delta()\l+ update()\l+ isOutside()\l+ isOutside()\l}">
<polygon fill="none" stroke="#000000" points="346.5,-188 346.5,-476 445.5,-476 445.5,-188 346.5,-188"/>
<text text-anchor="start" x="354.5" y="-464" font-family="Helvetica,sans-Serif" font-size="10.00" fill="#000000">o2::utils::Bracket</text>
<text text-anchor="middle" x="396" y="-453" font-family="Helvetica,sans-Serif" font-size="10.00" fill="#000000">&lt; float &gt;</text>
<polyline fill="none" stroke="#000000" points="346.5,-446 445.5,-446 "/>
<text text-anchor="middle" x="396" y="-434" font-family="Helvetica,sans-Serif" font-size="10.00" fill="#000000"> </text>
<polyline fill="none" stroke="#000000" points="346.5,-427 445.5,-427 "/>
<text text-anchor="start" x="354.5" y="-415" font-family="Helvetica,sans-Serif" font-size="10.00" fill="#000000">+ Bracket()</text>
<text text-anchor="start" x="354.5" y="-404" font-family="Helvetica,sans-Serif" font-size="10.00" fill="#000000">+ Bracket()</text>
<text text-anchor="start" x="354.5" y="-393" font-family="Helvetica,sans-Serif" font-size="10.00" fill="#000000">+ Bracket()</text>
<text text-anchor="start" x="354.5" y="-382" font-family="Helvetica,sans-Serif" font-size="10.00" fill="#000000">+ ~Bracket()</text>
<text text-anchor="start" x="354.5" y="-371" font-family="Helvetica,sans-Serif" font-size="10.00" fill="#000000">+ set()</text>
<text text-anchor="start" x="354.5" y="-360" font-family="Helvetica,sans-Serif" font-size="10.00" fill="#000000">+ operator&lt;()</text>
<text text-anchor="start" x="354.5" y="-349" font-family="Helvetica,sans-Serif" font-size="10.00" fill="#000000">+ operator&lt;()</text>
<text text-anchor="start" x="354.5" y="-338" font-family="Helvetica,sans-Serif" font-size="10.00" fill="#000000">+ operator&gt;()</text>
<text text-anchor="start" x="354.5" y="-327" font-family="Helvetica,sans-Serif" font-size="10.00" fill="#000000">+ operator&gt;()</text>
<text text-anchor="start" x="354.5" y="-316" font-family="Helvetica,sans-Serif" font-size="10.00" fill="#000000">+ operator==()</text>
<text text-anchor="start" x="354.5" y="-305" font-family="Helvetica,sans-Serif" font-size="10.00" fill="#000000">+ setMax()</text>
<text text-anchor="start" x="354.5" y="-294" font-family="Helvetica,sans-Serif" font-size="10.00" fill="#000000">+ setMin()</text>
<text text-anchor="start" x="354.5" y="-283" font-family="Helvetica,sans-Serif" font-size="10.00" fill="#000000">+ max()</text>
<text text-anchor="start" x="354.5" y="-272" font-family="Helvetica,sans-Serif" font-size="10.00" fill="#000000">+ max()</text>
<text text-anchor="start" x="354.5" y="-261" font-family="Helvetica,sans-Serif" font-size="10.00" fill="#000000">+ min()</text>
<text text-anchor="start" x="354.5" y="-250" font-family="Helvetica,sans-Serif" font-size="10.00" fill="#000000">+ min()</text>
<text text-anchor="start" x="354.5" y="-239" font-family="Helvetica,sans-Serif" font-size="10.00" fill="#000000">+ mean()</text>
<text text-anchor="start" x="354.5" y="-228" font-family="Helvetica,sans-Serif" font-size="10.00" fill="#000000">+ delta()</text>
<text text-anchor="start" x="354.5" y="-217" font-family="Helvetica,sans-Serif" font-size="10.00" fill="#000000">+ update()</text>
<text text-anchor="start" x="354.5" y="-206" font-family="Helvetica,sans-Serif" font-size="10.00" fill="#000000">+ isOutside()</text>
<text text-anchor="start" x="354.5" y="-195" font-family="Helvetica,sans-Serif" font-size="10.00" fill="#000000">+ isOutside()</text>
</a>
</g>
</g>
<!-- Node7&#45;&gt;Node2 -->
<g id="edge5" class="edge">
<title>Node7&#45;&gt;Node2</title>
<path fill="none" stroke="#404040" d="M396,-187.7109C396,-153.3521 396,-118.8669 396,-91.8683"/>
<polygon fill="none" stroke="#404040" points="396.0001,-91.6344 392,-85.6344 396,-79.6344 400,-85.6344 396.0001,-91.6344"/>
<text text-anchor="middle" x="423.5" y="-101" font-family="Helvetica,sans-Serif" font-size="10.00" fill="#000000"> +timeBins</text>
</g>
<!-- Node8 -->
<g id="node7" class="node">
<title>Node8</title>
<g id="a_node7"><a xlink:href="../../df/d6b/classo2_1_1utils_1_1Bracket.html" target="_top" xlink:title="{o2::utils::Bracket\&lt; T \&gt;\n||+ Bracket()\l+ Bracket()\l+ Bracket()\l+ ~Bracket()\l+ set()\l+ operator\&lt;()\l+ operator\&gt;()\l+ operator\&lt;()\l+ operator\&gt;()\l+ operator==()\l+ setMax()\l+ setMin()\l+ max()\l+ min()\l+ max()\l+ min()\l+ mean()\l+ delta()\l+ update()\l+ isOutside()\l+ isOutside()\l}">
<polygon fill="none" stroke="#000000" points="332,-595.5 332,-872.5 460,-872.5 460,-595.5 332,-595.5"/>
<text text-anchor="middle" x="396" y="-860.5" font-family="Helvetica,sans-Serif" font-size="10.00" fill="#000000">o2::utils::Bracket&lt; T &gt;</text>
<polyline fill="none" stroke="#000000" points="332,-853.5 460,-853.5 "/>
<text text-anchor="middle" x="396" y="-841.5" font-family="Helvetica,sans-Serif" font-size="10.00" fill="#000000"> </text>
<polyline fill="none" stroke="#000000" points="332,-834.5 460,-834.5 "/>
<text text-anchor="start" x="340" y="-822.5" font-family="Helvetica,sans-Serif" font-size="10.00" fill="#000000">+ Bracket()</text>
<text text-anchor="start" x="340" y="-811.5" font-family="Helvetica,sans-Serif" font-size="10.00" fill="#000000">+ Bracket()</text>
<text text-anchor="start" x="340" y="-800.5" font-family="Helvetica,sans-Serif" font-size="10.00" fill="#000000">+ Bracket()</text>
<text text-anchor="start" x="340" y="-789.5" font-family="Helvetica,sans-Serif" font-size="10.00" fill="#000000">+ ~Bracket()</text>
<text text-anchor="start" x="340" y="-778.5" font-family="Helvetica,sans-Serif" font-size="10.00" fill="#000000">+ set()</text>
<text text-anchor="start" x="340" y="-767.5" font-family="Helvetica,sans-Serif" font-size="10.00" fill="#000000">+ operator&lt;()</text>
<text text-anchor="start" x="340" y="-756.5" font-family="Helvetica,sans-Serif" font-size="10.00" fill="#000000">+ operator&gt;()</text>
<text text-anchor="start" x="340" y="-745.5" font-family="Helvetica,sans-Serif" font-size="10.00" fill="#000000">+ operator&lt;()</text>
<text text-anchor="start" x="340" y="-734.5" font-family="Helvetica,sans-Serif" font-size="10.00" fill="#000000">+ operator&gt;()</text>
<text text-anchor="start" x="340" y="-723.5" font-family="Helvetica,sans-Serif" font-size="10.00" fill="#000000">+ operator==()</text>
<text text-anchor="start" x="340" y="-712.5" font-family="Helvetica,sans-Serif" font-size="10.00" fill="#000000">+ setMax()</text>
<text text-anchor="start" x="340" y="-701.5" font-family="Helvetica,sans-Serif" font-size="10.00" fill="#000000">+ setMin()</text>
<text text-anchor="start" x="340" y="-690.5" font-family="Helvetica,sans-Serif" font-size="10.00" fill="#000000">+ max()</text>
<text text-anchor="start" x="340" y="-679.5" font-family="Helvetica,sans-Serif" font-size="10.00" fill="#000000">+ min()</text>
<text text-anchor="start" x="340" y="-668.5" font-family="Helvetica,sans-Serif" font-size="10.00" fill="#000000">+ max()</text>
<text text-anchor="start" x="340" y="-657.5" font-family="Helvetica,sans-Serif" font-size="10.00" fill="#000000">+ min()</text>
<text text-anchor="start" x="340" y="-646.5" font-family="Helvetica,sans-Serif" font-size="10.00" fill="#000000">+ mean()</text>
<text text-anchor="start" x="340" y="-635.5" font-family="Helvetica,sans-Serif" font-size="10.00" fill="#000000">+ delta()</text>
<text text-anchor="start" x="340" y="-624.5" font-family="Helvetica,sans-Serif" font-size="10.00" fill="#000000">+ update()</text>
<text text-anchor="start" x="340" y="-613.5" font-family="Helvetica,sans-Serif" font-size="10.00" fill="#000000">+ isOutside()</text>
<text text-anchor="start" x="340" y="-602.5" font-family="Helvetica,sans-Serif" font-size="10.00" fill="#000000">+ isOutside()</text>
</a>
</g>
</g>
<!-- Node8&#45;&gt;Node7 -->
<g id="edge6" class="edge">
<title>Node8&#45;&gt;Node7</title>
<path fill="none" stroke="#ffa500" d="M396,-584.9236C396,-549.3928 396,-511.538 396,-476.2293"/>
<polygon fill="#ffa500" stroke="#ffa500" points="392.5001,-585.373 396,-595.373 399.5001,-585.373 392.5001,-585.373"/>
<text text-anchor="middle" x="420" y="-563.5" font-family="Helvetica,sans-Serif" font-size="10.00" fill="#000000"> &lt; float &gt;</text>
</g>
<!-- Node9 -->
<g id="node8" class="node">
<title>Node9</title>
<polygon fill="none" stroke="#bfbfbf" points="463.5,-303.5 463.5,-360.5 492.5,-360.5 492.5,-303.5 463.5,-303.5"/>
<text text-anchor="middle" x="478" y="-348.5" font-family="Helvetica,sans-Serif" font-size="10.00" fill="#000000">int</text>
<polyline fill="none" stroke="#bfbfbf" points="463.5,-341.5 492.5,-341.5 "/>
<text text-anchor="middle" x="478" y="-329.5" font-family="Helvetica,sans-Serif" font-size="10.00" fill="#000000"> </text>
<polyline fill="none" stroke="#bfbfbf" points="463.5,-322.5 492.5,-322.5 "/>
<text text-anchor="middle" x="478" y="-310.5" font-family="Helvetica,sans-Serif" font-size="10.00" fill="#000000"> </text>
</g>
<!-- Node9&#45;&gt;Node2 -->
<g id="edge8" class="edge">
<title>Node9&#45;&gt;Node2</title>
<path fill="none" stroke="#404040" d="M481.0003,-303.36C484.5375,-257.5534 486.352,-166.0472 454,-98 452.6625,-95.1867 451.13,-92.4307 449.4457,-89.7427"/>
<polygon fill="none" stroke="#404040" points="449.269,-89.4956 442.5249,-86.9424 442.2878,-79.7352 449.0318,-82.2883 449.269,-89.4956"/>
<text text-anchor="middle" x="476" y="-101" font-family="Helvetica,sans-Serif" font-size="10.00" fill="#000000"> +rofITS</text>
</g>
<!-- Node10 -->
<g id="node9" class="node">
<title>Node10</title>
<polygon fill="none" stroke="#bfbfbf" points="516,-303.5 516,-360.5 562,-360.5 562,-303.5 516,-303.5"/>
<text text-anchor="middle" x="539" y="-348.5" font-family="Helvetica,sans-Serif" font-size="10.00" fill="#000000">void *</text>
<polyline fill="none" stroke="#bfbfbf" points="516,-341.5 562,-341.5 "/>
<text text-anchor="middle" x="539" y="-329.5" font-family="Helvetica,sans-Serif" font-size="10.00" fill="#000000"> </text>
<polyline fill="none" stroke="#bfbfbf" points="516,-322.5 562,-322.5 "/>
<text text-anchor="middle" x="539" y="-310.5" font-family="Helvetica,sans-Serif" font-size="10.00" fill="#000000"> </text>
</g>
<!-- Node10&#45;&gt;Node2 -->
<g id="edge9" class="edge">
<title>Node10&#45;&gt;Node2</title>
<path fill="none" stroke="#404040" d="M541.741,-303.129C544.7108,-255.7779 544.1106,-160.6302 500,-98 493.2852,-88.4661 484.4805,-80.3177 474.8327,-73.4072"/>
<polygon fill="none" stroke="#404040" points="474.5603,-73.2286 467.3494,-73.2829 464.5258,-66.6476 471.7367,-66.5932 474.5603,-73.2286"/>
<text text-anchor="middle" x="530.5" y="-101" font-family="Helvetica,sans-Serif" font-size="10.00" fill="#000000"> +clRefPtr</text>
</g>
</g>
</svg>
