<?xml version="1.0" encoding="UTF-8" standalone="no"?>
<!DOCTYPE svg PUBLIC "-//W3C//DTD SVG 1.1//EN"
 "http://www.w3.org/Graphics/SVG/1.1/DTD/svg11.dtd">
<!-- Generated by graphviz version 2.40.1 (20161225.0304)
 -->
<!-- Title: /home/travis/build/AliceO2Group/AliceO2/Detectors/ITSMFT/ITS/tracking/include/ITStracking/ClusterLines.h Pages: 1 -->
<!--zoomable 464 -->
<svg id="main" version="1.1" xmlns="http://www.w3.org/2000/svg" xmlns:xlink="http://www.w3.org/1999/xlink" xml:space="preserve" onload="init(evt)">
<style type="text/css"><![CDATA[
.edge:hover path { stroke: red; }
.edge:hover polygon { stroke: red; fill: red; }
]]></style>
<script type="text/javascript"><![CDATA[
var edges = document.getElementsByTagName('g');
if (edges && edges.length) {
  for (var i=0;i<edges.length;i++) {
    if (edges[i].id.substr(0,4)=='edge') {
      edges[i].setAttribute('class','edge');
    }
  }
}
]]></script>
        <defs>
                <circle id="rim" cx="0" cy="0" r="7"/>
                <circle id="rim2" cx="0" cy="0" r="3.5"/>
                <g id="zoomPlus">
                        <use xlink:href="#rim" fill="#404040">
                                <set attributeName="fill" to="#808080" begin="zoomplus.mouseover" end="zoomplus.mouseout"/>
                        </use>
                        <path d="M-4,0h8M0,-4v8" fill="none" stroke="white" stroke-width="1.5" pointer-events="none"/>
                </g>
                <g id="zoomMin">
                        <use xlink:href="#rim" fill="#404040">
                                <set attributeName="fill" to="#808080" begin="zoomminus.mouseover" end="zoomminus.mouseout"/>
                        </use>
                        <path d="M-4,0h8" fill="none" stroke="white" stroke-width="1.5" pointer-events="none"/>
                </g>
                <g id="dirArrow">
                        <path fill="none" stroke="white" stroke-width="1.5" d="M0,-3.0v7 M-2.5,-0.5L0,-3.0L2.5,-0.5"/>
                </g>
               <g id="resetDef">
                       <use xlink:href="#rim2" fill="#404040">
                               <set attributeName="fill" to="#808080" begin="reset.mouseover" end="reset.mouseout"/>
                       </use>
               </g>
        </defs>

<script type="text/javascript">
var viewWidth = 1083;
var viewHeight = 464;
var sectionId = 'dynsection-0';
</script>
<script xlink:href="../../svgpan.js"/>
<svg id="graph" class="graph">
<g id="viewport">
<title>/home/travis/build/AliceO2Group/AliceO2/Detectors/ITSMFT/ITS/tracking/include/ITStracking/ClusterLines.h</title>
<!-- Node0 -->
<g id="node1" class="node">
<title>Node0</title>
<polygon fill="#bfbfbf" stroke="#000000" points="184.5,-392.5 184.5,-455.5 339.5,-455.5 339.5,-392.5 184.5,-392.5"/>
<text text-anchor="start" x="192.5" y="-443.5" font-family="Helvetica,sans-Serif" font-size="10.00" fill="#000000">/home/travis/build</text>
<text text-anchor="start" x="192.5" y="-432.5" font-family="Helvetica,sans-Serif" font-size="10.00" fill="#000000">/AliceO2Group/AliceO2</text>
<text text-anchor="start" x="192.5" y="-421.5" font-family="Helvetica,sans-Serif" font-size="10.00" fill="#000000">/Detectors/ITSMFT/ITS</text>
<text text-anchor="start" x="192.5" y="-410.5" font-family="Helvetica,sans-Serif" font-size="10.00" fill="#000000">/tracking/include/ITStracking</text>
<text text-anchor="middle" x="262" y="-399.5" font-family="Helvetica,sans-Serif" font-size="10.00" fill="#000000">/ClusterLines.h</text>
</g>
<!-- Node1 -->
<g id="node2" class="node">
<title>Node1</title>
<polygon fill="none" stroke="#bfbfbf" points="146,-56.5 146,-75.5 188,-75.5 188,-56.5 146,-56.5"/>
<text text-anchor="middle" x="167" y="-63.5" font-family="Helvetica,sans-Serif" font-size="10.00" fill="#000000">array</text>
</g>
<!-- Node0&#45;&gt;Node1 -->
<g id="edge1" class="edge">
<title>Node0&#45;&gt;Node1</title>
<path fill="none" stroke="#191970" d="M184.4548,-416.93C107.1973,-405.1201 0,-373.66 0,-290 0,-290 0,-290 0,-178 0,-113.2787 87.587,-83.5594 135.8991,-72.0895"/>
<polygon fill="#191970" stroke="#191970" points="136.8604,-75.4608 145.8493,-69.8528 135.3252,-68.6312 136.8604,-75.4608"/>
</g>
<!-- Node2 -->
<g id="node3" class="node">
<title>Node2</title>
<polygon fill="none" stroke="#bfbfbf" points="76.5,-112.5 76.5,-131.5 123.5,-131.5 123.5,-112.5 76.5,-112.5"/>
<text text-anchor="middle" x="100" y="-119.5" font-family="Helvetica,sans-Serif" font-size="10.00" fill="#000000">vector</text>
</g>
<!-- Node0&#45;&gt;Node2 -->
<g id="edge2" class="edge">
<title>Node0&#45;&gt;Node2</title>
<path fill="none" stroke="#191970" d="M184.4661,-401.675C133.4298,-381.6855 76,-346.6141 76,-290 76,-290 76,-290 76,-234 76,-200.8465 86.1789,-163.3737 93.2788,-141.2684"/>
<polygon fill="#191970" stroke="#191970" points="96.6138,-142.3312 96.4587,-131.7375 89.9736,-140.1157 96.6138,-142.3312"/>
</g>
<!-- Node3 -->
<g id="node4" class="node">
<title>Node3</title>
<g id="a_node4"><a xlink:href="../../da/d7f/Detectors_2ITSMFT_2ITS_2tracking_2include_2ITStracking_2Cluster_8h.html" target="_top" xlink:title="ITStracking/Cluster.h">
<polygon fill="none" stroke="#000000" points="247.5,-280.5 247.5,-299.5 364.5,-299.5 364.5,-280.5 247.5,-280.5"/>
<text text-anchor="middle" x="306" y="-287.5" font-family="Helvetica,sans-Serif" font-size="10.00" fill="#000000">ITStracking/Cluster.h</text>
</a>
</g>
</g>
<!-- Node0&#45;&gt;Node3 -->
<g id="edge3" class="edge">
<title>Node0&#45;&gt;Node3</title>
<path fill="none" stroke="#191970" d="M272.4274,-392.2439C280.906,-366.4228 292.5903,-330.8386 299.7024,-309.1792"/>
<polygon fill="#191970" stroke="#191970" points="303.0836,-310.1006 302.878,-299.5078 296.433,-307.9168 303.0836,-310.1006"/>
</g>
<!-- Node4 -->
<g id="node5" class="node">
<title>Node4</title>
<g id="a_node5"><a xlink:href="../../df/d3d/Definitions_8h.html" target="_top" xlink:title="ITStracking/Definitions.h">
<polygon fill="none" stroke="#000000" points="180,-112.5 180,-131.5 316,-131.5 316,-112.5 180,-112.5"/>
<text text-anchor="middle" x="248" y="-119.5" font-family="Helvetica,sans-Serif" font-size="10.00" fill="#000000">ITStracking/Definitions.h</text>
</a>
</g>
</g>
<!-- Node0&#45;&gt;Node4 -->
<g id="edge39" class="edge">
<title>Node0&#45;&gt;Node4</title>
<path fill="none" stroke="#191970" d="M233.5437,-392.3966C213.4185,-366.7199 190,-328.5578 190,-290 190,-290 190,-290 190,-234 190,-197.0488 215.202,-160.1465 232.3808,-139.2847"/>
<polygon fill="#191970" stroke="#191970" points="235.0985,-141.4919 238.9375,-131.6171 229.7784,-136.9426 235.0985,-141.4919"/>
</g>
<!-- Node14 -->
<g id="node15" class="node">
<title>Node14</title>
<g id="a_node15"><a xlink:href="../../d6/da2/GPUCommonMath_8h.html" target="_top" xlink:title="GPUCommonMath.h">
<polygon fill="none" stroke="#000000" points="842.5,-112.5 842.5,-131.5 957.5,-131.5 957.5,-112.5 842.5,-112.5"/>
<text text-anchor="middle" x="900" y="-119.5" font-family="Helvetica,sans-Serif" font-size="10.00" fill="#000000">GPUCommonMath.h</text>
</a>
</g>
</g>
<!-- Node0&#45;&gt;Node14 -->
<g id="edge45" class="edge">
<title>Node0&#45;&gt;Node14</title>
<path fill="none" stroke="#191970" d="M339.8219,-423.0272C527.5545,-419.8752 993.3107,-406.9481 1040,-356 1096.5867,-294.2517 1079.2613,-233.4497 1027,-168 1016.8993,-155.3503 980.757,-142.9659 949.5987,-134.2397"/>
<polygon fill="#191970" stroke="#191970" points="950.2654,-130.7938 939.6968,-131.5393 948.4236,-137.5471 950.2654,-130.7938"/>
</g>
<!-- Node21 -->
<g id="node22" class="node">
<title>Node21</title>
<g id="a_node22"><a xlink:href="../../d8/db3/ITSMFT_2ITS_2tracking_2include_2ITStracking_2Tracklet_8h.html" target="_top" xlink:title="ITStracking/Tracklet.h">
<polygon fill="none" stroke="#000000" points="909,-336.5 909,-355.5 1031,-355.5 1031,-336.5 909,-336.5"/>
<text text-anchor="middle" x="970" y="-343.5" font-family="Helvetica,sans-Serif" font-size="10.00" fill="#000000">ITStracking/Tracklet.h</text>
</a>
</g>
</g>
<!-- Node0&#45;&gt;Node21 -->
<g id="edge40" class="edge">
<title>Node0&#45;&gt;Node21</title>
<path fill="none" stroke="#191970" d="M339.7937,-415.4295C478.0817,-400.1944 764.6989,-368.6179 898.4082,-353.8872"/>
<polygon fill="#191970" stroke="#191970" points="898.9853,-357.3449 908.5418,-352.7708 898.2186,-350.387 898.9853,-357.3449"/>
</g>
<!-- Node3&#45;&gt;Node1 -->
<g id="edge4" class="edge">
<title>Node3&#45;&gt;Node1</title>
<path fill="none" stroke="#191970" d="M269.56,-280.4095C211.1993,-262.6797 99.9744,-218.4414 67,-132 54.4693,-99.1511 102.0732,-80.9085 135.8699,-72.3039"/>
<polygon fill="#191970" stroke="#191970" points="136.9129,-75.6537 145.8334,-69.9375 135.2953,-68.8431 136.9129,-75.6537"/>
</g>
<!-- Node3&#45;&gt;Node4 -->
<g id="edge5" class="edge">
<title>Node3&#45;&gt;Node4</title>
<path fill="none" stroke="#191970" d="M285.8439,-280.4543C272.1185,-272.7394 255.0365,-260.4561 247,-244 230.8876,-211.0069 237.0544,-166.7565 242.716,-141.6222"/>
<polygon fill="#191970" stroke="#191970" points="246.1376,-142.3643 245.1224,-131.8183 239.3394,-140.6956 246.1376,-142.3643"/>
</g>
<!-- Node9 -->
<g id="node10" class="node">
<title>Node9</title>
<g id="a_node10"><a xlink:href="../../dc/d3e/MathUtils_8h.html" target="_top" xlink:title="ITStracking/MathUtils.h">
<polygon fill="none" stroke="#000000" points="701,-224.5 701,-243.5 831,-243.5 831,-224.5 701,-224.5"/>
<text text-anchor="middle" x="766" y="-231.5" font-family="Helvetica,sans-Serif" font-size="10.00" fill="#000000">ITStracking/MathUtils.h</text>
</a>
</g>
</g>
<!-- Node3&#45;&gt;Node9 -->
<g id="edge11" class="edge">
<title>Node3&#45;&gt;Node9</title>
<path fill="none" stroke="#191970" d="M364.7266,-282.8507C447.8369,-272.7329 599.7812,-254.2353 690.9667,-243.1345"/>
<polygon fill="#191970" stroke="#191970" points="691.4549,-246.601 700.9586,-241.9181 690.6089,-239.6523 691.4549,-246.601"/>
</g>
<!-- Node19 -->
<g id="node20" class="node">
<title>Node19</title>
<g id="a_node20"><a xlink:href="../../dc/ddf/ITS_2tracking_2include_2ITStracking_2IndexTableUtils_8h.html" target="_top" xlink:title="ITStracking/IndexTableUtils.h">
<polygon fill="none" stroke="#000000" points="256,-224.5 256,-243.5 414,-243.5 414,-224.5 256,-224.5"/>
<text text-anchor="middle" x="335" y="-231.5" font-family="Helvetica,sans-Serif" font-size="10.00" fill="#000000">ITStracking/IndexTableUtils.h</text>
</a>
</g>
</g>
<!-- Node3&#45;&gt;Node19 -->
<g id="edge31" class="edge">
<title>Node3&#45;&gt;Node19</title>
<path fill="none" stroke="#191970" d="M311.0514,-280.2455C315.0019,-272.617 320.6097,-261.7881 325.4058,-252.5267"/>
<polygon fill="#191970" stroke="#191970" points="328.5159,-254.1321 330.0065,-243.6427 322.2999,-250.9131 328.5159,-254.1321"/>
</g>
<!-- Node4&#45;&gt;Node1 -->
<g id="edge6" class="edge">
<title>Node4&#45;&gt;Node1</title>
<path fill="none" stroke="#191970" d="M233.8909,-112.2455C221.5791,-103.7337 203.5042,-91.2375 189.2462,-81.3801"/>
<polygon fill="#191970" stroke="#191970" points="191.1634,-78.4506 180.9474,-75.6427 187.1826,-84.2085 191.1634,-78.4506"/>
</g>
<!-- Node5 -->
<g id="node6" class="node">
<title>Node5</title>
<g id="a_node6"><a xlink:href="../../df/d21/GPUCommonDef_8h.html" target="_top" xlink:title="GPUCommonDef.h">
<polygon fill="none" stroke="#000000" points="570.5,-56.5 570.5,-75.5 677.5,-75.5 677.5,-56.5 570.5,-56.5"/>
<text text-anchor="middle" x="624" y="-63.5" font-family="Helvetica,sans-Serif" font-size="10.00" fill="#000000">GPUCommonDef.h</text>
</a>
</g>
</g>
<!-- Node4&#45;&gt;Node5 -->
<g id="edge7" class="edge">
<title>Node4&#45;&gt;Node5</title>
<path fill="none" stroke="#191970" d="M312.2095,-112.4369C381.4376,-102.1263 490.9797,-85.8115 560.0909,-75.5184"/>
<polygon fill="#191970" stroke="#191970" points="561.0285,-78.9174 570.4038,-73.9824 559.9973,-71.9938 561.0285,-78.9174"/>
</g>
<!-- Node8 -->
<g id="node9" class="node">
<title>Node8</title>
<polygon fill="none" stroke="#bfbfbf" points="221.5,-56.5 221.5,-75.5 274.5,-75.5 274.5,-56.5 221.5,-56.5"/>
<text text-anchor="middle" x="248" y="-63.5" font-family="Helvetica,sans-Serif" font-size="10.00" fill="#000000">cstddef</text>
</g>
<!-- Node4&#45;&gt;Node8 -->
<g id="edge10" class="edge">
<title>Node4&#45;&gt;Node8</title>
<path fill="none" stroke="#191970" d="M248,-112.2455C248,-104.9382 248,-94.6944 248,-85.7046"/>
<polygon fill="#191970" stroke="#191970" points="251.5001,-85.6426 248,-75.6427 244.5001,-85.6427 251.5001,-85.6426"/>
</g>
<!-- Node6 -->
<g id="node7" class="node">
<title>Node6</title>
<g id="a_node7"><a xlink:href="../../d5/d93/GPUCommonDefSettings_8h.html" target="_top" xlink:title="GPUCommonDefSettings.h">
<polygon fill="none" stroke="#000000" points="473,-.5 473,-19.5 621,-19.5 621,-.5 473,-.5"/>
<text text-anchor="middle" x="547" y="-7.5" font-family="Helvetica,sans-Serif" font-size="10.00" fill="#000000">GPUCommonDefSettings.h</text>
</a>
</g>
</g>
<!-- Node5&#45;&gt;Node6 -->
<g id="edge8" class="edge">
<title>Node5&#45;&gt;Node6</title>
<path fill="none" stroke="#191970" d="M610.5876,-56.2455C598.9943,-47.814 582.0252,-35.4729 568.5322,-25.6598"/>
<polygon fill="#191970" stroke="#191970" points="570.4047,-22.6938 560.2587,-19.6427 566.2874,-28.355 570.4047,-22.6938"/>
</g>
<!-- Node7 -->
<g id="node8" class="node">
<title>Node7</title>
<g id="a_node8"><a xlink:href="../../da/d5a/GPUCommonDefAPI_8h.html" target="_top" xlink:title="GPUCommonDefAPI.h">
<polygon fill="none" stroke="#000000" points="639,-.5 639,-19.5 763,-19.5 763,-.5 639,-.5"/>
<text text-anchor="middle" x="701" y="-7.5" font-family="Helvetica,sans-Serif" font-size="10.00" fill="#000000">GPUCommonDefAPI.h</text>
</a>
</g>
</g>
<!-- Node5&#45;&gt;Node7 -->
<g id="edge9" class="edge">
<title>Node5&#45;&gt;Node7</title>
<path fill="none" stroke="#191970" d="M637.4124,-56.2455C649.0057,-47.814 665.9748,-35.4729 679.4678,-25.6598"/>
<polygon fill="#191970" stroke="#191970" points="681.7126,-28.355 687.7413,-19.6427 677.5953,-22.6938 681.7126,-28.355"/>
</g>
<!-- Node9&#45;&gt;Node1 -->
<g id="edge12" class="edge">
<title>Node9&#45;&gt;Node1</title>
<path fill="none" stroke="#191970" d="M727.324,-224.4669C692.1324,-215.6149 638.8386,-201.7645 593,-188 518.0233,-165.4859 497.0197,-164.9333 426,-132 410.4414,-124.7852 408.9857,-118.2113 393,-112 316.5481,-82.2945 292.2607,-92.8974 212,-76 207.4725,-75.0468 202.6949,-74.0142 198.0111,-72.9865"/>
<polygon fill="#191970" stroke="#191970" points="198.5611,-69.5236 188.0408,-70.7777 197.047,-76.3579 198.5611,-69.5236"/>
</g>
<!-- Node9&#45;&gt;Node5 -->
<g id="edge30" class="edge">
<title>Node9&#45;&gt;Node5</title>
<path fill="none" stroke="#191970" d="M768.5365,-224.2112C773.7324,-201.748 783.0286,-145.8353 757,-112 746.8408,-98.7938 709.7547,-86.6024 677.3174,-78.093"/>
<polygon fill="#191970" stroke="#191970" points="677.9896,-74.6525 667.4348,-75.5734 676.2601,-81.4355 677.9896,-74.6525"/>
</g>
<!-- Node10 -->
<g id="node11" class="node">
<title>Node10</title>
<polygon fill="none" stroke="#bfbfbf" points="913.5,-56.5 913.5,-75.5 960.5,-75.5 960.5,-56.5 913.5,-56.5"/>
<text text-anchor="middle" x="937" y="-63.5" font-family="Helvetica,sans-Serif" font-size="10.00" fill="#000000">cmath</text>
</g>
<!-- Node9&#45;&gt;Node10 -->
<g id="edge13" class="edge">
<title>Node9&#45;&gt;Node10</title>
<path fill="none" stroke="#191970" d="M793.5895,-224.3633C844.2736,-206.0079 948.7085,-164.9246 967,-132 975.909,-115.9637 964.9493,-96.794 953.857,-83.2569"/>
<polygon fill="#191970" stroke="#191970" points="956.3587,-80.8025 947.1098,-75.6344 951.1171,-85.4422 956.3587,-80.8025"/>
</g>
<!-- Node11 -->
<g id="node12" class="node">
<title>Node11</title>
<polygon fill="none" stroke="#bfbfbf" points="794,-168.5 794,-187.5 846,-187.5 846,-168.5 794,-168.5"/>
<text text-anchor="middle" x="820" y="-175.5" font-family="Helvetica,sans-Serif" font-size="10.00" fill="#000000">cassert</text>
</g>
<!-- Node9&#45;&gt;Node11 -->
<g id="edge14" class="edge">
<title>Node9&#45;&gt;Node11</title>
<path fill="none" stroke="#191970" d="M775.4061,-224.2455C783.1493,-216.2155 794.312,-204.6394 803.5318,-195.0781"/>
<polygon fill="#191970" stroke="#191970" points="806.2798,-197.2706 810.7017,-187.6427 801.2409,-192.4117 806.2798,-197.2706"/>
</g>
<!-- Node12 -->
<g id="node13" class="node">
<title>Node12</title>
<polygon fill="none" stroke="#bfbfbf" points="940,-168.5 940,-187.5 1000,-187.5 1000,-168.5 940,-168.5"/>
<text text-anchor="middle" x="970" y="-175.5" font-family="Helvetica,sans-Serif" font-size="10.00" fill="#000000">iostream</text>
</g>
<!-- Node9&#45;&gt;Node12 -->
<g id="edge15" class="edge">
<title>Node9&#45;&gt;Node12</title>
<path fill="none" stroke="#191970" d="M801.0689,-224.3733C836.7852,-214.5688 892.1043,-199.3831 929.626,-189.0831"/>
<polygon fill="#191970" stroke="#191970" points="930.9893,-192.3384 939.7061,-186.316 929.1363,-185.5881 930.9893,-192.3384"/>
</g>
<!-- Node13 -->
<g id="node14" class="node">
<title>Node13</title>
<g id="a_node14"><a xlink:href="../../d9/d52/Common_2MathUtils_2include_2MathUtils_2Utils_8h.html" target="_top" xlink:title="MathUtils/Utils.h">
<polygon fill="none" stroke="#000000" points="602,-168.5 602,-187.5 700,-187.5 700,-168.5 602,-168.5"/>
<text text-anchor="middle" x="651" y="-175.5" font-family="Helvetica,sans-Serif" font-size="10.00" fill="#000000">MathUtils/Utils.h</text>
</a>
</g>
</g>
<!-- Node9&#45;&gt;Node13 -->
<g id="edge16" class="edge">
<title>Node9&#45;&gt;Node13</title>
<path fill="none" stroke="#191970" d="M746.2308,-224.3733C727.8531,-215.4241 700.2688,-201.9917 679.5107,-191.8835"/>
<polygon fill="#191970" stroke="#191970" points="681.0343,-188.7325 670.5112,-187.5011 677.9696,-195.026 681.0343,-188.7325"/>
</g>
<!-- Node9&#45;&gt;Node14 -->
<g id="edge29" class="edge">
<title>Node9&#45;&gt;Node14</title>
<path fill="none" stroke="#191970" d="M792.2276,-224.4988C811.1477,-216.7354 836.5085,-204.373 855,-188 870.1852,-174.5545 882.7069,-154.931 890.6522,-140.5766"/>
<polygon fill="#191970" stroke="#191970" points="893.808,-142.0963 895.3982,-131.6215 887.6229,-138.8183 893.808,-142.0963"/>
</g>
<!-- Node17 -->
<g id="node18" class="node">
<title>Node17</title>
<g id="a_node18"><a xlink:href="../../d0/d86/Detectors_2ITSMFT_2ITS_2tracking_2include_2ITStracking_2Constants_8h.html" target="_top" xlink:title="ITStracking/Constants.h">
<polygon fill="none" stroke="#000000" points="358,-168.5 358,-187.5 490,-187.5 490,-168.5 358,-168.5"/>
<text text-anchor="middle" x="424" y="-175.5" font-family="Helvetica,sans-Serif" font-size="10.00" fill="#000000">ITStracking/Constants.h</text>
</a>
</g>
</g>
<!-- Node9&#45;&gt;Node17 -->
<g id="edge25" class="edge">
<title>Node9&#45;&gt;Node17</title>
<path fill="none" stroke="#191970" d="M707.5967,-224.4369C647.9594,-214.6717 555.4302,-199.5207 492.4035,-189.2006"/>
<polygon fill="#191970" stroke="#191970" points="492.5966,-185.6857 482.1624,-187.5237 491.4654,-192.5937 492.5966,-185.6857"/>
</g>
<!-- Node13&#45;&gt;Node1 -->
<g id="edge17" class="edge">
<title>Node13&#45;&gt;Node1</title>
<path fill="none" stroke="#191970" d="M622.5183,-168.4605C580.0942,-154.5227 497.6102,-128.4649 426,-112 332.005,-90.3883 306.663,-94.4674 212,-76 207.4588,-75.1141 202.6738,-74.1183 197.9865,-73.1075"/>
<polygon fill="#191970" stroke="#191970" points="198.5337,-69.6441 188.0145,-70.9073 197.0255,-76.4797 198.5337,-69.6441"/>
</g>
<!-- Node13&#45;&gt;Node5 -->
<g id="edge19" class="edge">
<title>Node13&#45;&gt;Node5</title>
<path fill="none" stroke="#191970" d="M601.7472,-169.1473C580.5293,-162.6279 557.7111,-151.3725 545,-132 530.4413,-109.8116 559.3521,-91.1578 586.2019,-79.4036"/>
<polygon fill="#191970" stroke="#191970" points="587.6371,-82.5975 595.5384,-75.5392 584.96,-76.1297 587.6371,-82.5975"/>
</g>
<!-- Node13&#45;&gt;Node10 -->
<g id="edge18" class="edge">
<title>Node13&#45;&gt;Node10</title>
<path fill="none" stroke="#191970" d="M675.3842,-168.4509C726.7181,-148.3482 845.971,-101.6477 904.0423,-78.9065"/>
<polygon fill="#191970" stroke="#191970" points="905.4463,-82.1156 913.4815,-75.21 902.8937,-75.5975 905.4463,-82.1156"/>
</g>
<!-- Node13&#45;&gt;Node14 -->
<g id="edge20" class="edge">
<title>Node13&#45;&gt;Node14</title>
<path fill="none" stroke="#191970" d="M693.5217,-168.4369C736.1361,-158.8529 801.8176,-144.0812 847.621,-133.78"/>
<polygon fill="#191970" stroke="#191970" points="848.6654,-137.1326 857.6537,-131.5237 847.1294,-130.3032 848.6654,-137.1326"/>
</g>
<!-- Node16 -->
<g id="node17" class="node">
<title>Node16</title>
<g id="a_node17"><a xlink:href="../../d6/d84/MathConstants_8h.html" target="_top" xlink:title="useful math constants ">
<polygon fill="none" stroke="#000000" points="554,-112.5 554,-131.5 748,-131.5 748,-112.5 554,-112.5"/>
<text text-anchor="middle" x="651" y="-119.5" font-family="Helvetica,sans-Serif" font-size="10.00" fill="#000000">CommonConstants/MathConstants.h</text>
</a>
</g>
</g>
<!-- Node13&#45;&gt;Node16 -->
<g id="edge24" class="edge">
<title>Node13&#45;&gt;Node16</title>
<path fill="none" stroke="#191970" d="M651,-168.2455C651,-160.9382 651,-150.6944 651,-141.7046"/>
<polygon fill="#191970" stroke="#191970" points="654.5001,-141.6426 651,-131.6427 647.5001,-141.6427 654.5001,-141.6426"/>
</g>
<!-- Node14&#45;&gt;Node5 -->
<g id="edge21" class="edge">
<title>Node14&#45;&gt;Node5</title>
<path fill="none" stroke="#191970" d="M852.8675,-112.4369C805.2353,-102.7724 731.6033,-87.8326 680.7834,-77.5213"/>
<polygon fill="#191970" stroke="#191970" points="681.4344,-74.0821 670.9381,-75.5237 680.0424,-80.9423 681.4344,-74.0821"/>
</g>
<!-- Node14&#45;&gt;Node10 -->
<g id="edge22" class="edge">
<title>Node14&#45;&gt;Node10</title>
<path fill="none" stroke="#191970" d="M906.4449,-112.2455C911.5382,-104.5367 918.7908,-93.5598 924.952,-84.2348"/>
<polygon fill="#191970" stroke="#191970" points="928.0365,-85.9155 930.6289,-75.6427 922.1962,-82.0566 928.0365,-85.9155"/>
</g>
<!-- Node15 -->
<g id="node16" class="node">
<title>Node15</title>
<polygon fill="none" stroke="#bfbfbf" points="831,-56.5 831,-75.5 895,-75.5 895,-56.5 831,-56.5"/>
<text text-anchor="middle" x="863" y="-63.5" font-family="Helvetica,sans-Serif" font-size="10.00" fill="#000000">algorithm</text>
</g>
<!-- Node14&#45;&gt;Node15 -->
<g id="edge23" class="edge">
<title>Node14&#45;&gt;Node15</title>
<path fill="none" stroke="#191970" d="M893.5551,-112.2455C888.4618,-104.5367 881.2092,-93.5598 875.048,-84.2348"/>
<polygon fill="#191970" stroke="#191970" points="877.8038,-82.0566 869.3711,-75.6427 871.9635,-85.9155 877.8038,-82.0566"/>
</g>
<!-- Node17&#45;&gt;Node2 -->
<g id="edge27" class="edge">
<title>Node17&#45;&gt;Node2</title>
<path fill="none" stroke="#191970" d="M368.6706,-168.4369C301.2617,-156.786 189.4954,-137.4683 133.7645,-127.8358"/>
<polygon fill="#191970" stroke="#191970" points="134.1643,-124.3531 123.7142,-126.0988 132.972,-131.2508 134.1643,-124.3531"/>
</g>
<!-- Node17&#45;&gt;Node4 -->
<g id="edge28" class="edge">
<title>Node17&#45;&gt;Node4</title>
<path fill="none" stroke="#191970" d="M393.7445,-168.3733C364.3517,-159.021 319.5708,-144.7725 287.4066,-134.5385"/>
<polygon fill="#191970" stroke="#191970" points="288.4512,-131.198 277.8607,-131.5011 286.3287,-137.8685 288.4512,-131.198"/>
</g>
<!-- Node18 -->
<g id="node19" class="node">
<title>Node18</title>
<polygon fill="none" stroke="#bfbfbf" points="334,-112.5 334,-131.5 384,-131.5 384,-112.5 334,-112.5"/>
<text text-anchor="middle" x="359" y="-119.5" font-family="Helvetica,sans-Serif" font-size="10.00" fill="#000000">climits</text>
</g>
<!-- Node17&#45;&gt;Node18 -->
<g id="edge26" class="edge">
<title>Node17&#45;&gt;Node18</title>
<path fill="none" stroke="#191970" d="M412.6779,-168.2455C403.0777,-159.9746 389.1108,-147.9416 377.8305,-138.2232"/>
<polygon fill="#191970" stroke="#191970" points="380.053,-135.5182 370.1924,-131.6427 375.484,-140.8214 380.053,-135.5182"/>
</g>
<!-- Node19&#45;&gt;Node1 -->
<g id="edge32" class="edge">
<title>Node19&#45;&gt;Node1</title>
<path fill="none" stroke="#191970" d="M302.2234,-224.4802C262.8443,-211.0684 198.6326,-182.4293 171,-132 163.329,-118.0004 162.8116,-99.7351 163.9396,-85.9694"/>
<polygon fill="#191970" stroke="#191970" points="167.4603,-85.9975 165.1531,-75.6569 160.5083,-85.1793 167.4603,-85.9975"/>
</g>
<!-- Node19&#45;&gt;Node2 -->
<g id="edge34" class="edge">
<title>Node19&#45;&gt;Node2</title>
<path fill="none" stroke="#191970" d="M269.5409,-224.4554C220.6028,-216.2757 158.7225,-203.3932 138,-188 122.4556,-176.4532 112.26,-156.5175 106.3806,-141.5702"/>
<polygon fill="#191970" stroke="#191970" points="109.5287,-139.9818 102.8476,-131.7591 102.9427,-142.3535 109.5287,-139.9818"/>
</g>
<!-- Node19&#45;&gt;Node4 -->
<g id="edge36" class="edge">
<title>Node19&#45;&gt;Node4</title>
<path fill="none" stroke="#191970" d="M333.3047,-224.1844C330.548,-210.4808 324.0378,-185.3497 311,-168 301.5071,-155.3676 287.5802,-144.6946 275.2332,-136.819"/>
<polygon fill="#191970" stroke="#191970" points="276.9738,-133.7813 266.6079,-131.5908 273.3453,-139.7675 276.9738,-133.7813"/>
</g>
<!-- Node19&#45;&gt;Node5 -->
<g id="edge38" class="edge">
<title>Node19&#45;&gt;Node5</title>
<path fill="none" stroke="#191970" d="M385.6281,-224.4785C427.1041,-215.8443 481.6714,-202.3108 499,-188 528.1185,-163.9525 510.6014,-139.0053 537,-112 550.7776,-97.9057 569.8045,-87.173 586.5521,-79.6343"/>
<polygon fill="#191970" stroke="#191970" points="588.2685,-82.7073 596.0925,-75.5635 585.5212,-76.2689 588.2685,-82.7073"/>
</g>
<!-- Node19&#45;&gt;Node14 -->
<g id="edge37" class="edge">
<title>Node19&#45;&gt;Node14</title>
<path fill="none" stroke="#191970" d="M414.2793,-229.1057C490.5661,-223.2598 608.779,-211.2064 709,-188 766.4172,-174.7049 830.725,-150.4385 868.156,-135.3246"/>
<polygon fill="#191970" stroke="#191970" points="869.5837,-138.5223 877.5227,-131.5064 866.9413,-132.0402 869.5837,-138.5223"/>
</g>
<!-- Node19&#45;&gt;Node17 -->
<g id="edge35" class="edge">
<title>Node19&#45;&gt;Node17</title>
<path fill="none" stroke="#191970" d="M350.5026,-224.2455C364.158,-215.6534 384.2657,-203.0014 399.9989,-193.1018"/>
<polygon fill="#191970" stroke="#191970" points="402.0751,-195.9307 408.675,-187.6427 398.3471,-190.006 402.0751,-195.9307"/>
</g>
<!-- Node20 -->
<g id="node21" class="node">
<title>Node20</title>
<polygon fill="none" stroke="#bfbfbf" points="256.5,-168.5 256.5,-187.5 301.5,-187.5 301.5,-168.5 256.5,-168.5"/>
<text text-anchor="middle" x="279" y="-175.5" font-family="Helvetica,sans-Serif" font-size="10.00" fill="#000000">utility</text>
</g>
<!-- Node19&#45;&gt;Node20 -->
<g id="edge33" class="edge">
<title>Node19&#45;&gt;Node20</title>
<path fill="none" stroke="#191970" d="M325.2455,-224.2455C317.1352,-216.1352 305.4075,-204.4075 295.7919,-194.7919"/>
<polygon fill="#191970" stroke="#191970" points="298.1887,-192.2389 288.6427,-187.6427 293.2389,-197.1887 298.1887,-192.2389"/>
</g>
<!-- Node21&#45;&gt;Node3 -->
<g id="edge41" class="edge">
<title>Node21&#45;&gt;Node3</title>
<path fill="none" stroke="#191970" d="M908.7227,-340.832C784.7818,-330.3792 505.0896,-306.7907 374.979,-295.8175"/>
<polygon fill="#191970" stroke="#191970" points="375.0022,-292.3071 364.7435,-294.9543 374.4139,-299.2824 375.0022,-292.3071"/>
</g>
<!-- Node21&#45;&gt;Node5 -->
<g id="edge44" class="edge">
<title>Node21&#45;&gt;Node5</title>
<path fill="none" stroke="#191970" d="M982.5876,-336.308C992.8958,-327.7664 1007.1711,-314.4586 1016,-300 1029.6244,-277.6879 1029.9511,-269.8276 1034,-244 1044.1893,-179.0025 1026.4652,-140.1494 967,-112 918.8609,-89.2121 772.8874,-75.9249 687.6789,-69.9087"/>
<polygon fill="#191970" stroke="#191970" points="687.8174,-66.41 677.5996,-69.2109 687.3339,-73.3933 687.8174,-66.41"/>
</g>
<!-- Node21&#45;&gt;Node12 -->
<g id="edge42" class="edge">
<title>Node21&#45;&gt;Node12</title>
<path fill="none" stroke="#191970" d="M970,-336.4862C970,-309.9293 970,-234.5651 970,-198.1655"/>
<polygon fill="#191970" stroke="#191970" points="973.5001,-197.8278 970,-187.8279 966.5001,-197.8279 973.5001,-197.8278"/>
</g>
<!-- Node21&#45;&gt;Node14 -->
<g id="edge43" class="edge">
<title>Node21&#45;&gt;Node14</title>
<path fill="none" stroke="#191970" d="M976.8825,-336.1863C995.9547,-307.6739 1045.7258,-223.3612 1009,-168 998.5095,-152.1864 981.3939,-141.7957 963.8016,-134.9732"/>
<polygon fill="#191970" stroke="#191970" points="964.6129,-131.5486 954.018,-131.5383 962.2939,-138.1534 964.6129,-131.5486"/>
</g>
</g>
</svg>
        <g id="navigator" transform="translate(0 0)" fill="#404254">
                <rect fill="#f2f5e9" fill-opacity="0.5" stroke="#606060" stroke-width=".5" x="0" y="0" width="60" height="60"/>
                <use id="zoomplus" xlink:href="#zoomPlus" x="17" y="9" onmousedown="handleZoom(evt,'in')"/>
                <use id="zoomminus" xlink:href="#zoomMin" x="42" y="9" onmousedown="handleZoom(evt,'out')"/>
                <use id="reset" xlink:href="#resetDef" x="30" y="36" onmousedown="handleReset()"/>
                <g id="arrowUp" xlink:href="#dirArrow" transform="translate(30 24)" onmousedown="handlePan(0,-1)">
                  <use xlink:href="#rim" fill="#404040">
                        <set attributeName="fill" to="#808080" begin="arrowUp.mouseover" end="arrowUp.mouseout"/>
                  </use>
                  <path fill="none" stroke="white" stroke-width="1.5" d="M0,-3.0v7 M-2.5,-0.5L0,-3.0L2.5,-0.5"/>
                </g>
                <g id="arrowRight" xlink:href="#dirArrow" transform="rotate(90) translate(36 -43)" onmousedown="handlePan(1,0)">
                  <use xlink:href="#rim" fill="#404040">
                        <set attributeName="fill" to="#808080" begin="arrowRight.mouseover" end="arrowRight.mouseout"/>
                  </use>
                  <path fill="none" stroke="white" stroke-width="1.5" d="M0,-3.0v7 M-2.5,-0.5L0,-3.0L2.5,-0.5"/>
                </g>
                <g id="arrowDown" xlink:href="#dirArrow" transform="rotate(180) translate(-30 -48)" onmousedown="handlePan(0,1)">
                  <use xlink:href="#rim" fill="#404040">
                        <set attributeName="fill" to="#808080" begin="arrowDown.mouseover" end="arrowDown.mouseout"/>
                  </use>
                  <path fill="none" stroke="white" stroke-width="1.5" d="M0,-3.0v7 M-2.5,-0.5L0,-3.0L2.5,-0.5"/>
                </g>
                <g id="arrowLeft" xlink:href="#dirArrow" transform="rotate(270) translate(-36 17)" onmousedown="handlePan(-1,0)">
                  <use xlink:href="#rim" fill="#404040">
                        <set attributeName="fill" to="#808080" begin="arrowLeft.mouseover" end="arrowLeft.mouseout"/>
                  </use>
                  <path fill="none" stroke="white" stroke-width="1.5" d="M0,-3.0v7 M-2.5,-0.5L0,-3.0L2.5,-0.5"/>
                </g>
        </g>
        <svg viewBox="0 0 15 15" width="100%" height="30px" preserveAspectRatio="xMaxYMin meet">
         <g id="arrow_out" transform="scale(0.3 0.3)">
          <a xlink:href="ClusterLines_8h__incl_org.svg" target="_base">
           <rect id="button" ry="5" rx="5" y="6" x="6" height="38" width="38"
                fill="#f2f5e9" fill-opacity="0.5" stroke="#606060" stroke-width="1.0"/>
           <path id="arrow"
             d="M 11.500037,31.436501 C 11.940474,20.09759 22.043105,11.32322 32.158766,21.979434 L 37.068811,17.246167 C 37.068811,17.246167 37.088388,32 37.088388,32 L 22.160133,31.978069 C 22.160133,31.978069 26.997745,27.140456 26.997745,27.140456 C 18.528582,18.264221 13.291696,25.230495 11.500037,31.436501 z"
             style="fill:#404040;"/>
          </a>
         </g>
        </svg>
</svg>
