<?xml version="1.0" encoding="UTF-8" standalone="no"?>
<!DOCTYPE svg PUBLIC "-//W3C//DTD SVG 1.1//EN"
 "http://www.w3.org/Graphics/SVG/1.1/DTD/svg11.dtd">
<!-- Generated by graphviz version 2.40.1 (20161225.0304)
 -->
<!-- Title: /home/travis/build/AliceO2Group/AliceO2/Detectors/MUON/MCH/Workflow/src Pages: 1 -->
<svg width="566pt" height="367pt"
 viewBox="0.00 0.00 565.55 367.00" xmlns="http://www.w3.org/2000/svg" xmlns:xlink="http://www.w3.org/1999/xlink">
<g id="graph0" class="graph" transform="scale(1 1) rotate(0) translate(4 363)">
<title>/home/travis/build/AliceO2Group/AliceO2/Detectors/MUON/MCH/Workflow/src</title>
<g id="clust1" class="cluster">
<title>clusterdir_04ece05d7c7fe751e39bd0511b9068fc</title>
<g id="a_clust1"><a xlink:href="dir_04ece05d7c7fe751e39bd0511b9068fc.html" target="_top" xlink:title="Workflow">
<polygon fill="#ddddee" stroke="#000000" points="282.8708,-280 282.8708,-351 352.8708,-351 352.8708,-280 282.8708,-280"/>
<text text-anchor="middle" x="317.8708" y="-339" font-family="Helvetica,sans-Serif" font-size="10.00" fill="#000000">Workflow</text>
</a>
</g>
</g>
<!-- dir_e2a306cbeddc37280b8dde7d223d74dd -->
<g id="node1" class="node">
<title>dir_e2a306cbeddc37280b8dde7d223d74dd</title>
<g id="a_node1"><a xlink:href="dir_e2a306cbeddc37280b8dde7d223d74dd.html" target="_top" xlink:title="src">
<polygon fill="#eeeeff" stroke="#000000" points="344.8708,-324 290.8708,-324 290.8708,-288 344.8708,-288 344.8708,-324"/>
<text text-anchor="middle" x="317.8708" y="-303.5" font-family="Helvetica,sans-Serif" font-size="10.00" fill="#000000">src</text>
</a>
</g>
</g>
<!-- dir_6229e1f1a243f5ed3f0013dfa4f13deb -->
<g id="node2" class="node">
<title>dir_6229e1f1a243f5ed3f0013dfa4f13deb</title>
<g id="a_node2"><a xlink:href="dir_6229e1f1a243f5ed3f0013dfa4f13deb.html" target="_top" xlink:title="PreClustering">
<polygon fill="none" stroke="#ff0000" points="99.8708,-180 17.8708,-180 17.8708,-144 99.8708,-144 99.8708,-180"/>
<text text-anchor="middle" x="58.8708" y="-159.5" font-family="Helvetica,sans-Serif" font-size="10.00" fill="#000000">PreClustering</text>
</a>
</g>
</g>
<!-- dir_e2a306cbeddc37280b8dde7d223d74dd&#45;&gt;dir_6229e1f1a243f5ed3f0013dfa4f13deb -->
<g id="edge6" class="edge">
<title>dir_e2a306cbeddc37280b8dde7d223d74dd&#45;&gt;dir_6229e1f1a243f5ed3f0013dfa4f13deb</title>
<path fill="none" stroke="#000000" d="M290.6382,-302.6751C237.4206,-295.6755 122.2507,-277.902 92.8708,-252 74.9466,-236.1976 66.4377,-209.9502 62.4185,-189.867"/>
<polygon fill="#000000" stroke="#000000" points="65.8663,-189.2644 60.6999,-180.0146 58.9704,-190.4673 65.8663,-189.2644"/>
<g id="a_edge6&#45;headlabel"><a xlink:href="dir_000563_000539.html" target="_top" xlink:title="1">
<text text-anchor="middle" x="69.281" y="-189.8177" font-family="Helvetica,sans-Serif" font-size="10.00" fill="#000000">1</text>
</a>
</g>
</g>
<!-- dir_1155c84989a046e7de4bf0156dc4b34c -->
<g id="node3" class="node">
<title>dir_1155c84989a046e7de4bf0156dc4b34c</title>
<g id="a_node3"><a xlink:href="dir_1155c84989a046e7de4bf0156dc4b34c.html" target="_top" xlink:title="Base">
<polygon fill="none" stroke="#ff0000" points="121.8708,-108 67.8708,-108 67.8708,-72 121.8708,-72 121.8708,-108"/>
<text text-anchor="middle" x="94.8708" y="-87.5" font-family="Helvetica,sans-Serif" font-size="10.00" fill="#000000">Base</text>
</a>
</g>
</g>
<!-- dir_e2a306cbeddc37280b8dde7d223d74dd&#45;&gt;dir_1155c84989a046e7de4bf0156dc4b34c -->
<g id="edge7" class="edge">
<title>dir_e2a306cbeddc37280b8dde7d223d74dd&#45;&gt;dir_1155c84989a046e7de4bf0156dc4b34c</title>
<path fill="none" stroke="#000000" d="M290.8419,-302.5055C234.0429,-294.7935 104.4378,-275.1512 66.8708,-252 20.4874,-223.4155 -17.4915,-191.6815 8.8708,-144 19.4764,-124.8177 40.0648,-111.5309 58.4381,-102.9375"/>
<polygon fill="#000000" stroke="#000000" points="60.0115,-106.0698 67.7797,-98.8652 57.2141,-99.653 60.0115,-106.0698"/>
<g id="a_edge7&#45;headlabel"><a xlink:href="dir_000563_000133.html" target="_top" xlink:title="13">
<text text-anchor="middle" x="57.851" y="-107.6089" font-family="Helvetica,sans-Serif" font-size="10.00" fill="#000000">13</text>
</a>
</g>
</g>
<!-- dir_888858b226b7bc70f7e8b18d57d75108 -->
<g id="node4" class="node">
<title>dir_888858b226b7bc70f7e8b18d57d75108</title>
<g id="a_node4"><a xlink:href="dir_888858b226b7bc70f7e8b18d57d75108.html" target="_top" xlink:title="Clustering">
<polygon fill="none" stroke="#ff0000" points="167.8708,-252 101.8708,-252 101.8708,-216 167.8708,-216 167.8708,-252"/>
<text text-anchor="middle" x="134.8708" y="-231.5" font-family="Helvetica,sans-Serif" font-size="10.00" fill="#000000">Clustering</text>
</a>
</g>
</g>
<!-- dir_e2a306cbeddc37280b8dde7d223d74dd&#45;&gt;dir_888858b226b7bc70f7e8b18d57d75108 -->
<g id="edge8" class="edge">
<title>dir_e2a306cbeddc37280b8dde7d223d74dd&#45;&gt;dir_888858b226b7bc70f7e8b18d57d75108</title>
<path fill="none" stroke="#000000" d="M290.8685,-295.3762C260.9694,-283.6126 212.3759,-264.4938 177.3633,-250.7184"/>
<polygon fill="#000000" stroke="#000000" points="178.4621,-247.3896 167.875,-246.9852 175.8992,-253.9035 178.4621,-247.3896"/>
<g id="a_edge8&#45;headlabel"><a xlink:href="dir_000563_000526.html" target="_top" xlink:title="1">
<text text-anchor="middle" x="182.8466" y="-243.5634" font-family="Helvetica,sans-Serif" font-size="10.00" fill="#000000">1</text>
</a>
</g>
</g>
<!-- dir_ade19310a6abca7155cb213ca0a7e06d -->
<g id="node5" class="node">
<title>dir_ade19310a6abca7155cb213ca0a7e06d</title>
<g id="a_node5"><a xlink:href="dir_ade19310a6abca7155cb213ca0a7e06d.html" target="_top" xlink:title="include">
<polygon fill="none" stroke="#ff0000" points="530.8708,-252 476.8708,-252 476.8708,-216 530.8708,-216 530.8708,-252"/>
<text text-anchor="middle" x="503.8708" y="-231.5" font-family="Helvetica,sans-Serif" font-size="10.00" fill="#000000">include</text>
</a>
</g>
</g>
<!-- dir_e2a306cbeddc37280b8dde7d223d74dd&#45;&gt;dir_ade19310a6abca7155cb213ca0a7e06d -->
<g id="edge9" class="edge">
<title>dir_e2a306cbeddc37280b8dde7d223d74dd&#45;&gt;dir_ade19310a6abca7155cb213ca0a7e06d</title>
<path fill="none" stroke="#000000" d="M345.0404,-296.4065C374.3102,-285.9495 422.167,-268.4986 462.8708,-252 464.2667,-251.4342 465.6861,-250.851 467.1175,-250.2561"/>
<polygon fill="#000000" stroke="#000000" points="468.7782,-253.3535 476.616,-246.2248 466.0434,-246.9099 468.7782,-253.3535"/>
<g id="a_edge9&#45;headlabel"><a xlink:href="dir_000563_000561.html" target="_top" xlink:title="6">
<text text-anchor="middle" x="466.5786" y="-254.8715" font-family="Helvetica,sans-Serif" font-size="10.00" fill="#000000">6</text>
</a>
</g>
</g>
<!-- dir_bcbb2cf9a3d3d83e5515c82071a07177 -->
<g id="node6" class="node">
<title>dir_bcbb2cf9a3d3d83e5515c82071a07177</title>
<g id="a_node6"><a xlink:href="dir_bcbb2cf9a3d3d83e5515c82071a07177.html" target="_top" xlink:title="Framework">
<polygon fill="none" stroke="#ff0000" points="501.3708,-108 430.3708,-108 430.3708,-72 501.3708,-72 501.3708,-108"/>
<text text-anchor="middle" x="465.8708" y="-87.5" font-family="Helvetica,sans-Serif" font-size="10.00" fill="#000000">Framework</text>
</a>
</g>
</g>
<!-- dir_e2a306cbeddc37280b8dde7d223d74dd&#45;&gt;dir_bcbb2cf9a3d3d83e5515c82071a07177 -->
<g id="edge10" class="edge">
<title>dir_e2a306cbeddc37280b8dde7d223d74dd&#45;&gt;dir_bcbb2cf9a3d3d83e5515c82071a07177</title>
<path fill="none" stroke="#000000" d="M344.8012,-287.9234C374.9433,-266.121 422.7141,-226.5426 446.8708,-180 456.8333,-160.8053 461.5724,-136.7334 463.8266,-118.3156"/>
<polygon fill="#000000" stroke="#000000" points="467.3248,-118.515 464.8874,-108.2044 460.363,-117.7846 467.3248,-118.515"/>
<g id="a_edge10&#45;headlabel"><a xlink:href="dir_000563_000013.html" target="_top" xlink:title="95">
<text text-anchor="middle" x="469.7736" y="-119.8862" font-family="Helvetica,sans-Serif" font-size="10.00" fill="#000000">95</text>
</a>
</g>
</g>
<!-- dir_f8de85f281636d081fd2e7e06b0134d2 -->
<g id="node7" class="node">
<title>dir_f8de85f281636d081fd2e7e06b0134d2</title>
<g id="a_node7"><a xlink:href="dir_f8de85f281636d081fd2e7e06b0134d2.html" target="_top" xlink:title="Raw">
<polygon fill="none" stroke="#ff0000" points="344.8708,-252 290.8708,-252 290.8708,-216 344.8708,-216 344.8708,-252"/>
<text text-anchor="middle" x="317.8708" y="-231.5" font-family="Helvetica,sans-Serif" font-size="10.00" fill="#000000">Raw</text>
</a>
</g>
</g>
<!-- dir_e2a306cbeddc37280b8dde7d223d74dd&#45;&gt;dir_f8de85f281636d081fd2e7e06b0134d2 -->
<g id="edge11" class="edge">
<title>dir_e2a306cbeddc37280b8dde7d223d74dd&#45;&gt;dir_f8de85f281636d081fd2e7e06b0134d2</title>
<path fill="none" stroke="#000000" d="M317.8708,-287.8314C317.8708,-280.131 317.8708,-270.9743 317.8708,-262.4166"/>
<polygon fill="#000000" stroke="#000000" points="321.3709,-262.4132 317.8708,-252.4133 314.3709,-262.4133 321.3709,-262.4132"/>
<g id="a_edge11&#45;headlabel"><a xlink:href="dir_000563_000419.html" target="_top" xlink:title="6">
<text text-anchor="middle" x="324.2101" y="-263.5079" font-family="Helvetica,sans-Serif" font-size="10.00" fill="#000000">6</text>
</a>
</g>
</g>
<!-- dir_26637d1bd82229bc9ed97f7e706be743 -->
<g id="node8" class="node">
<title>dir_26637d1bd82229bc9ed97f7e706be743</title>
<g id="a_node8"><a xlink:href="dir_26637d1bd82229bc9ed97f7e706be743.html" target="_top" xlink:title="Raw">
<polygon fill="none" stroke="#ff0000" points="437.8708,-180 383.8708,-180 383.8708,-144 437.8708,-144 437.8708,-180"/>
<text text-anchor="middle" x="410.8708" y="-159.5" font-family="Helvetica,sans-Serif" font-size="10.00" fill="#000000">Raw</text>
</a>
</g>
</g>
<!-- dir_e2a306cbeddc37280b8dde7d223d74dd&#45;&gt;dir_26637d1bd82229bc9ed97f7e706be743 -->
<g id="edge12" class="edge">
<title>dir_e2a306cbeddc37280b8dde7d223d74dd&#45;&gt;dir_26637d1bd82229bc9ed97f7e706be743</title>
<path fill="none" stroke="#000000" d="M330.3079,-287.5764C337.2929,-277.1714 346.1347,-263.904 353.8708,-252 367.6024,-230.8704 382.8634,-206.7384 394.1363,-188.7852"/>
<polygon fill="#000000" stroke="#000000" points="397.2921,-190.3405 399.6384,-180.0087 391.3613,-186.6222 397.2921,-190.3405"/>
<g id="a_edge12&#45;headlabel"><a xlink:href="dir_000563_000576.html" target="_top" xlink:title="3">
<text text-anchor="middle" x="397.7885" y="-192.3942" font-family="Helvetica,sans-Serif" font-size="10.00" fill="#000000">3</text>
</a>
</g>
</g>
<!-- dir_2171f7ec022c5423887b07c69b2f5b48 -->
<g id="node9" class="node">
<title>dir_2171f7ec022c5423887b07c69b2f5b48</title>
<g id="a_node9"><a xlink:href="dir_2171f7ec022c5423887b07c69b2f5b48.html" target="_top" xlink:title="DataFormats">
<polygon fill="none" stroke="#ff0000" points="505.8708,-36 425.8708,-36 425.8708,0 505.8708,0 505.8708,-36"/>
<text text-anchor="middle" x="465.8708" y="-15.5" font-family="Helvetica,sans-Serif" font-size="10.00" fill="#000000">DataFormats</text>
</a>
</g>
</g>
<!-- dir_e2a306cbeddc37280b8dde7d223d74dd&#45;&gt;dir_2171f7ec022c5423887b07c69b2f5b48 -->
<g id="edge13" class="edge">
<title>dir_e2a306cbeddc37280b8dde7d223d74dd&#45;&gt;dir_2171f7ec022c5423887b07c69b2f5b48</title>
<path fill="none" stroke="#000000" d="M345.1928,-303.4855C399.0774,-297.9014 515.9122,-282.485 539.8708,-252 565.0148,-220.0067 569.3431,-196.8489 509.8708,-72 505.1414,-62.0717 498.2199,-52.383 491.2604,-44.0165"/>
<polygon fill="#000000" stroke="#000000" points="493.8581,-41.67 484.6466,-36.4354 488.5832,-46.2718 493.8581,-41.67"/>
<g id="a_edge13&#45;headlabel"><a xlink:href="dir_000563_000076.html" target="_top" xlink:title="3">
<text text-anchor="middle" x="498.3606" y="-40.0121" font-family="Helvetica,sans-Serif" font-size="10.00" fill="#000000">3</text>
</a>
</g>
</g>
<!-- dir_b098e3604916eca5f90f2bb1c75b7880 -->
<g id="node10" class="node">
<title>dir_b098e3604916eca5f90f2bb1c75b7880</title>
<g id="a_node10"><a xlink:href="dir_b098e3604916eca5f90f2bb1c75b7880.html" target="_top" xlink:title="Mapping">
<polygon fill="none" stroke="#ff0000" points="213.8708,-108 155.8708,-108 155.8708,-72 213.8708,-72 213.8708,-108"/>
<text text-anchor="middle" x="184.8708" y="-87.5" font-family="Helvetica,sans-Serif" font-size="10.00" fill="#000000">Mapping</text>
</a>
</g>
</g>
<!-- dir_e2a306cbeddc37280b8dde7d223d74dd&#45;&gt;dir_b098e3604916eca5f90f2bb1c75b7880 -->
<g id="edge14" class="edge">
<title>dir_e2a306cbeddc37280b8dde7d223d74dd&#45;&gt;dir_b098e3604916eca5f90f2bb1c75b7880</title>
<path fill="none" stroke="#000000" d="M305.3179,-287.6506C298.2966,-277.2689 289.4571,-263.9999 281.8708,-252 252.2161,-205.0926 219.3639,-149.3812 200.5111,-117.0223"/>
<polygon fill="#000000" stroke="#000000" points="203.4063,-115.0385 195.3538,-108.1532 197.355,-118.5573 203.4063,-115.0385"/>
<g id="a_edge14&#45;headlabel"><a xlink:href="dir_000563_000515.html" target="_top" xlink:title="5">
<text text-anchor="middle" x="207.6677" y="-114.2187" font-family="Helvetica,sans-Serif" font-size="10.00" fill="#000000">5</text>
</a>
</g>
</g>
<!-- dir_6229e1f1a243f5ed3f0013dfa4f13deb&#45;&gt;dir_1155c84989a046e7de4bf0156dc4b34c -->
<g id="edge1" class="edge">
<title>dir_6229e1f1a243f5ed3f0013dfa4f13deb&#45;&gt;dir_1155c84989a046e7de4bf0156dc4b34c</title>
<path fill="none" stroke="#000000" d="M67.9551,-143.8314C71.9323,-135.8771 76.6863,-126.369 81.0847,-117.5723"/>
<polygon fill="#000000" stroke="#000000" points="84.3225,-118.9228 85.6642,-108.4133 78.0615,-115.7923 84.3225,-118.9228"/>
<g id="a_edge1&#45;headlabel"><a xlink:href="dir_000539_000133.html" target="_top" xlink:title="2">
<text text-anchor="middle" x="85.2545" y="-120.9077" font-family="Helvetica,sans-Serif" font-size="10.00" fill="#000000">2</text>
</a>
</g>
</g>
<!-- dir_6229e1f1a243f5ed3f0013dfa4f13deb&#45;&gt;dir_b098e3604916eca5f90f2bb1c75b7880 -->
<g id="edge2" class="edge">
<title>dir_6229e1f1a243f5ed3f0013dfa4f13deb&#45;&gt;dir_b098e3604916eca5f90f2bb1c75b7880</title>
<path fill="none" stroke="#000000" d="M90.6659,-143.8314C107.6763,-134.1111 128.7472,-122.0706 146.645,-111.8433"/>
<polygon fill="#000000" stroke="#000000" points="148.731,-114.6825 155.6769,-106.6822 145.258,-108.6048 148.731,-114.6825"/>
<g id="a_edge2&#45;headlabel"><a xlink:href="dir_000539_000515.html" target="_top" xlink:title="2">
<text text-anchor="middle" x="147.0186" y="-116.4311" font-family="Helvetica,sans-Serif" font-size="10.00" fill="#000000">2</text>
</a>
</g>
</g>
<!-- dir_888858b226b7bc70f7e8b18d57d75108&#45;&gt;dir_6229e1f1a243f5ed3f0013dfa4f13deb -->
<g id="edge3" class="edge">
<title>dir_888858b226b7bc70f7e8b18d57d75108&#45;&gt;dir_6229e1f1a243f5ed3f0013dfa4f13deb</title>
<path fill="none" stroke="#000000" d="M115.6928,-215.8314C106.512,-207.1337 95.3702,-196.5783 85.3932,-187.1265"/>
<polygon fill="#000000" stroke="#000000" points="87.7093,-184.4995 78.0427,-180.1628 82.8951,-189.5811 87.7093,-184.4995"/>
<g id="a_edge3&#45;headlabel"><a xlink:href="dir_000526_000539.html" target="_top" xlink:title="1">
<text text-anchor="middle" x="92.2715" y="-182.4104" font-family="Helvetica,sans-Serif" font-size="10.00" fill="#000000">1</text>
</a>
</g>
</g>
<!-- dir_888858b226b7bc70f7e8b18d57d75108&#45;&gt;dir_1155c84989a046e7de4bf0156dc4b34c -->
<g id="edge4" class="edge">
<title>dir_888858b226b7bc70f7e8b18d57d75108&#45;&gt;dir_1155c84989a046e7de4bf0156dc4b34c</title>
<path fill="none" stroke="#000000" d="M129.8048,-215.7623C122.9521,-191.0928 110.6652,-146.8598 102.6411,-117.9731"/>
<polygon fill="#000000" stroke="#000000" points="105.9445,-116.788 99.8957,-108.0896 99.1999,-118.6616 105.9445,-116.788"/>
<g id="a_edge4&#45;headlabel"><a xlink:href="dir_000526_000133.html" target="_top" xlink:title="2">
<text text-anchor="middle" x="109.6422" y="-116.9916" font-family="Helvetica,sans-Serif" font-size="10.00" fill="#000000">2</text>
</a>
</g>
</g>
<!-- dir_888858b226b7bc70f7e8b18d57d75108&#45;&gt;dir_b098e3604916eca5f90f2bb1c75b7880 -->
<g id="edge5" class="edge">
<title>dir_888858b226b7bc70f7e8b18d57d75108&#45;&gt;dir_b098e3604916eca5f90f2bb1c75b7880</title>
<path fill="none" stroke="#000000" d="M141.2033,-215.7623C149.8067,-190.9846 165.2627,-146.4714 175.2896,-117.5939"/>
<polygon fill="#000000" stroke="#000000" points="178.6159,-118.6844 178.5897,-108.0896 172.0031,-116.3883 178.6159,-118.6844"/>
<g id="a_edge5&#45;headlabel"><a xlink:href="dir_000526_000515.html" target="_top" xlink:title="1">
<text text-anchor="middle" x="180.119" y="-120.5114" font-family="Helvetica,sans-Serif" font-size="10.00" fill="#000000">1</text>
</a>
</g>
</g>
<!-- dir_ade19310a6abca7155cb213ca0a7e06d&#45;&gt;dir_bcbb2cf9a3d3d83e5515c82071a07177 -->
<g id="edge15" class="edge">
<title>dir_ade19310a6abca7155cb213ca0a7e06d&#45;&gt;dir_bcbb2cf9a3d3d83e5515c82071a07177</title>
<path fill="none" stroke="#000000" d="M499.0581,-215.7623C492.5481,-191.0928 480.8755,-146.8598 473.2526,-117.9731"/>
<polygon fill="#000000" stroke="#000000" points="476.5802,-116.8656 470.6445,-108.0896 469.8119,-118.6517 476.5802,-116.8656"/>
<g id="a_edge15&#45;headlabel"><a xlink:href="dir_000561_000013.html" target="_top" xlink:title="3">
<text text-anchor="middle" x="480.2426" y="-117.1168" font-family="Helvetica,sans-Serif" font-size="10.00" fill="#000000">3</text>
</a>
</g>
</g>
<!-- dir_bcbb2cf9a3d3d83e5515c82071a07177&#45;&gt;dir_2171f7ec022c5423887b07c69b2f5b48 -->
<g id="edge16" class="edge">
<title>dir_bcbb2cf9a3d3d83e5515c82071a07177&#45;&gt;dir_2171f7ec022c5423887b07c69b2f5b48</title>
<path fill="none" stroke="#000000" d="M459.9184,-71.8314C459.168,-64.131 458.9471,-54.9743 459.2557,-46.4166"/>
<polygon fill="#000000" stroke="#000000" points="462.75,-46.6161 459.8948,-36.4133 455.7643,-46.1697 462.75,-46.6161"/>
<g id="a_edge16&#45;headlabel"><a xlink:href="dir_000013_000076.html" target="_top" xlink:title="82">
<text text-anchor="middle" x="465.3544" y="-47.8844" font-family="Helvetica,sans-Serif" font-size="10.00" fill="#000000">82</text>
</a>
</g>
</g>
<!-- dir_f8de85f281636d081fd2e7e06b0134d2&#45;&gt;dir_1155c84989a046e7de4bf0156dc4b34c -->
<g id="edge19" class="edge">
<title>dir_f8de85f281636d081fd2e7e06b0134d2&#45;&gt;dir_1155c84989a046e7de4bf0156dc4b34c</title>
<path fill="none" stroke="#000000" d="M290.5266,-216.3428C250.2929,-190.3622 175.1078,-141.8123 130.5692,-113.0519"/>
<polygon fill="#000000" stroke="#000000" points="132.3889,-110.0607 122.0895,-107.5762 128.5916,-115.9412 132.3889,-110.0607"/>
<g id="a_edge19&#45;headlabel"><a xlink:href="dir_000419_000133.html" target="_top" xlink:title="5">
<text text-anchor="middle" x="136.9489" y="-107.1254" font-family="Helvetica,sans-Serif" font-size="10.00" fill="#000000">5</text>
</a>
</g>
</g>
<!-- dir_f8de85f281636d081fd2e7e06b0134d2&#45;&gt;dir_bcbb2cf9a3d3d83e5515c82071a07177 -->
<g id="edge20" class="edge">
<title>dir_f8de85f281636d081fd2e7e06b0134d2&#45;&gt;dir_bcbb2cf9a3d3d83e5515c82071a07177</title>
<path fill="none" stroke="#000000" d="M326.2347,-215.6724C335.8403,-196.1265 353.114,-165.1345 374.8708,-144 388.1993,-131.0527 405.2016,-119.9065 420.8938,-111.1595"/>
<polygon fill="#000000" stroke="#000000" points="422.7955,-114.1108 429.9441,-106.2911 419.4793,-107.9461 422.7955,-114.1108"/>
<g id="a_edge20&#45;headlabel"><a xlink:href="dir_000419_000013.html" target="_top" xlink:title="2">
<text text-anchor="middle" x="420.9749" y="-115.8141" font-family="Helvetica,sans-Serif" font-size="10.00" fill="#000000">2</text>
</a>
</g>
</g>
<!-- dir_f8de85f281636d081fd2e7e06b0134d2&#45;&gt;dir_26637d1bd82229bc9ed97f7e706be743 -->
<g id="edge21" class="edge">
<title>dir_f8de85f281636d081fd2e7e06b0134d2&#45;&gt;dir_26637d1bd82229bc9ed97f7e706be743</title>
<path fill="none" stroke="#000000" d="M341.3386,-215.8314C352.9035,-206.8779 367.0112,-195.9558 379.4891,-186.2955"/>
<polygon fill="#000000" stroke="#000000" points="381.6458,-189.0521 387.4105,-180.1628 377.3606,-183.5171 381.6458,-189.0521"/>
<g id="a_edge21&#45;headlabel"><a xlink:href="dir_000419_000576.html" target="_top" xlink:title="10">
<text text-anchor="middle" x="380.5416" y="-190.9977" font-family="Helvetica,sans-Serif" font-size="10.00" fill="#000000">10</text>
</a>
</g>
</g>
<!-- dir_f8de85f281636d081fd2e7e06b0134d2&#45;&gt;dir_2171f7ec022c5423887b07c69b2f5b48 -->
<g id="edge22" class="edge">
<title>dir_f8de85f281636d081fd2e7e06b0134d2&#45;&gt;dir_2171f7ec022c5423887b07c69b2f5b48</title>
<path fill="none" stroke="#000000" d="M320.6669,-215.8403C324.1159,-196.9843 331.1482,-167.0723 343.8708,-144 366.4865,-102.9869 405.969,-65.7709 433.885,-42.5955"/>
<polygon fill="#000000" stroke="#000000" points="436.2481,-45.1847 441.7865,-36.1527 431.8245,-39.7596 436.2481,-45.1847"/>
<g id="a_edge22&#45;headlabel"><a xlink:href="dir_000419_000076.html" target="_top" xlink:title="12">
<text text-anchor="middle" x="435.2565" y="-47.1567" font-family="Helvetica,sans-Serif" font-size="10.00" fill="#000000">12</text>
</a>
</g>
</g>
<!-- dir_f8de85f281636d081fd2e7e06b0134d2&#45;&gt;dir_b098e3604916eca5f90f2bb1c75b7880 -->
<g id="edge23" class="edge">
<title>dir_f8de85f281636d081fd2e7e06b0134d2&#45;&gt;dir_b098e3604916eca5f90f2bb1c75b7880</title>
<path fill="none" stroke="#000000" d="M307.7212,-215.8564C296.5176,-196.745 277.2197,-166.3766 255.8708,-144 245.548,-133.1803 232.911,-122.8399 221.1742,-114.1567"/>
<polygon fill="#000000" stroke="#000000" points="222.9918,-111.1523 212.8331,-108.1436 218.8983,-116.8307 222.9918,-111.1523"/>
<g id="a_edge23&#45;headlabel"><a xlink:href="dir_000419_000515.html" target="_top" xlink:title="1">
<text text-anchor="middle" x="227.568" y="-108.4512" font-family="Helvetica,sans-Serif" font-size="10.00" fill="#000000">1</text>
</a>
</g>
</g>
<!-- dir_26637d1bd82229bc9ed97f7e706be743&#45;&gt;dir_bcbb2cf9a3d3d83e5515c82071a07177 -->
<g id="edge17" class="edge">
<title>dir_26637d1bd82229bc9ed97f7e706be743&#45;&gt;dir_bcbb2cf9a3d3d83e5515c82071a07177</title>
<path fill="none" stroke="#000000" d="M424.7496,-143.8314C431.0844,-135.5386 438.7092,-125.557 445.6634,-116.4533"/>
<polygon fill="#000000" stroke="#000000" points="448.516,-118.4847 451.8051,-108.4133 442.9533,-114.2353 448.516,-118.4847"/>
<g id="a_edge17&#45;headlabel"><a xlink:href="dir_000576_000013.html" target="_top" xlink:title="25">
<text text-anchor="middle" x="448.5903" y="-120.5647" font-family="Helvetica,sans-Serif" font-size="10.00" fill="#000000">25</text>
</a>
</g>
</g>
<!-- dir_26637d1bd82229bc9ed97f7e706be743&#45;&gt;dir_2171f7ec022c5423887b07c69b2f5b48 -->
<g id="edge18" class="edge">
<title>dir_26637d1bd82229bc9ed97f7e706be743&#45;&gt;dir_2171f7ec022c5423887b07c69b2f5b48</title>
<path fill="none" stroke="#000000" d="M409.8883,-143.9854C409.5364,-125.2478 410.8897,-95.431 420.8708,-72 425.22,-61.7902 432.1576,-52.0199 439.2959,-43.6653"/>
<polygon fill="#000000" stroke="#000000" points="442.0085,-45.884 446.1233,-36.1208 436.8182,-41.187 442.0085,-45.884"/>
<g id="a_edge18&#45;headlabel"><a xlink:href="dir_000576_000076.html" target="_top" xlink:title="15">
<text text-anchor="middle" x="441.7017" y="-47.9543" font-family="Helvetica,sans-Serif" font-size="10.00" fill="#000000">15</text>
</a>
</g>
</g>
<!-- dir_2171f7ec022c5423887b07c69b2f5b48&#45;&gt;dir_bcbb2cf9a3d3d83e5515c82071a07177 -->
<g id="edge24" class="edge">
<title>dir_2171f7ec022c5423887b07c69b2f5b48&#45;&gt;dir_bcbb2cf9a3d3d83e5515c82071a07177</title>
<path fill="none" stroke="#000000" d="M471.8468,-36.4133C472.5779,-44.0593 472.7911,-53.1084 472.4863,-61.5726"/>
<polygon fill="#000000" stroke="#000000" points="468.9756,-61.6264 471.8232,-71.8314 475.961,-62.078 468.9756,-61.6264"/>
<g id="a_edge24&#45;headlabel"><a xlink:href="dir_000076_000013.html" target="_top" xlink:title="11">
<text text-anchor="middle" x="466.374" y="-55.3562" font-family="Helvetica,sans-Serif" font-size="10.00" fill="#000000">11</text>
</a>
</g>
</g>
</g>
</svg>
