<?xml version="1.0" encoding="UTF-8" standalone="no"?>
<!DOCTYPE svg PUBLIC "-//W3C//DTD SVG 1.1//EN"
 "http://www.w3.org/Graphics/SVG/1.1/DTD/svg11.dtd">
<!-- Generated by graphviz version 2.40.1 (20161225.0304)
 -->
<!-- Title: /home/travis/build/AliceO2Group/AliceO2/Detectors/ITSMFT/ITS/reconstruction/include Pages: 1 -->
<svg width="232pt" height="375pt"
 viewBox="0.00 0.00 232.00 375.00" xmlns="http://www.w3.org/2000/svg" xmlns:xlink="http://www.w3.org/1999/xlink">
<g id="graph0" class="graph" transform="scale(1 1) rotate(0) translate(4 371)">
<title>/home/travis/build/AliceO2Group/AliceO2/Detectors/ITSMFT/ITS/reconstruction/include</title>
<g id="clust1" class="cluster">
<title>clusterdir_5125ceb2b58f632ed0a3019fe2d5cbbc</title>
<g id="a_clust1"><a xlink:href="dir_5125ceb2b58f632ed0a3019fe2d5cbbc.html" target="_top" xlink:title="reconstruction">
<polygon fill="#ddddee" stroke="#000000" points="8,-272 8,-359 216,-359 216,-272 8,-272"/>
<text text-anchor="middle" x="112" y="-347" font-family="Helvetica,sans-Serif" font-size="10.00" fill="#000000">reconstruction</text>
</a>
</g>
</g>
<g id="clust2" class="cluster">
<title>clusterdir_a7418508cffd1c8afbbd736339058404</title>
<g id="a_clust2"><a xlink:href="dir_a7418508cffd1c8afbbd736339058404.html" target="_top">
<polygon fill="#eeeeff" stroke="#000000" points="16,-280 16,-332 208,-332 208,-280 16,-280"/>
</a>
</g>
</g>
<!-- dir_a7418508cffd1c8afbbd736339058404 -->
<g id="node1" class="node">
<title>dir_a7418508cffd1c8afbbd736339058404</title>
<text text-anchor="middle" x="173" y="-303.5" font-family="Helvetica,sans-Serif" font-size="10.00" fill="#000000">include</text>
</g>
<!-- dir_b15c23a2d1afdaa7d6916e7a87292e69 -->
<g id="node2" class="node">
<title>dir_b15c23a2d1afdaa7d6916e7a87292e69</title>
<g id="a_node2"><a xlink:href="dir_b15c23a2d1afdaa7d6916e7a87292e69.html" target="_top" xlink:title="ITSReconstruction">
<polygon fill="#ffffff" stroke="#000000" points="128,-324 24,-324 24,-288 128,-288 128,-324"/>
<text text-anchor="middle" x="76" y="-303.5" font-family="Helvetica,sans-Serif" font-size="10.00" fill="#000000">ITSReconstruction</text>
</a>
</g>
</g>
<!-- dir_eedff867f3c4e67d20b227cb6e0f96ab -->
<g id="node3" class="node">
<title>dir_eedff867f3c4e67d20b227cb6e0f96ab</title>
<g id="a_node3"><a xlink:href="dir_eedff867f3c4e67d20b227cb6e0f96ab.html" target="_top" xlink:title="base">
<polygon fill="none" stroke="#ff0000" points="76,-252 22,-252 22,-216 76,-216 76,-252"/>
<text text-anchor="middle" x="49" y="-231.5" font-family="Helvetica,sans-Serif" font-size="10.00" fill="#000000">base</text>
</a>
</g>
</g>
<!-- dir_b15c23a2d1afdaa7d6916e7a87292e69&#45;&gt;dir_eedff867f3c4e67d20b227cb6e0f96ab -->
<g id="edge7" class="edge">
<title>dir_b15c23a2d1afdaa7d6916e7a87292e69&#45;&gt;dir_eedff867f3c4e67d20b227cb6e0f96ab</title>
<path fill="none" stroke="#000000" d="M69.1868,-287.8314C66.2356,-279.9617 62.7142,-270.5712 59.445,-261.8533"/>
<polygon fill="#000000" stroke="#000000" points="62.6934,-260.5476 55.905,-252.4133 56.1391,-263.0055 62.6934,-260.5476"/>
<g id="a_edge7&#45;headlabel"><a xlink:href="dir_000501_000479.html" target="_top" xlink:title="1">
<text text-anchor="middle" x="66.614" y="-260.4164" font-family="Helvetica,sans-Serif" font-size="10.00" fill="#000000">1</text>
</a>
</g>
</g>
<!-- dir_4ab6b4cc6a7edbff49100e9123df213f -->
<g id="node4" class="node">
<title>dir_4ab6b4cc6a7edbff49100e9123df213f</title>
<g id="a_node4"><a xlink:href="dir_4ab6b4cc6a7edbff49100e9123df213f.html" target="_top" xlink:title="Common">
<polygon fill="none" stroke="#ff0000" points="193.5,-180 132.5,-180 132.5,-144 193.5,-144 193.5,-180"/>
<text text-anchor="middle" x="163" y="-159.5" font-family="Helvetica,sans-Serif" font-size="10.00" fill="#000000">Common</text>
</a>
</g>
</g>
<!-- dir_b15c23a2d1afdaa7d6916e7a87292e69&#45;&gt;dir_4ab6b4cc6a7edbff49100e9123df213f -->
<g id="edge8" class="edge">
<title>dir_b15c23a2d1afdaa7d6916e7a87292e69&#45;&gt;dir_4ab6b4cc6a7edbff49100e9123df213f</title>
<path fill="none" stroke="#000000" d="M91.7211,-287.6725C100.0485,-277.5182 110.1478,-264.4594 118,-252 130.7112,-231.8305 142.6585,-207.5883 151.0439,-189.3477"/>
<polygon fill="#000000" stroke="#000000" points="154.2705,-190.7067 155.2036,-180.153 147.8928,-187.8213 154.2705,-190.7067"/>
<g id="a_edge8&#45;headlabel"><a xlink:href="dir_000501_000027.html" target="_top" xlink:title="8">
<text text-anchor="middle" x="155.3758" y="-192.652" font-family="Helvetica,sans-Serif" font-size="10.00" fill="#000000">8</text>
</a>
</g>
</g>
<!-- dir_85bf31a2e8d306e7598ffcb73f8df6bf -->
<g id="node5" class="node">
<title>dir_85bf31a2e8d306e7598ffcb73f8df6bf</title>
<g id="a_node5"><a xlink:href="dir_85bf31a2e8d306e7598ffcb73f8df6bf.html" target="_top" xlink:title="common">
<polygon fill="none" stroke="#ff0000" points="125.5,-36 66.5,-36 66.5,0 125.5,0 125.5,-36"/>
<text text-anchor="middle" x="96" y="-15.5" font-family="Helvetica,sans-Serif" font-size="10.00" fill="#000000">common</text>
</a>
</g>
</g>
<!-- dir_b15c23a2d1afdaa7d6916e7a87292e69&#45;&gt;dir_85bf31a2e8d306e7598ffcb73f8df6bf -->
<g id="edge9" class="edge">
<title>dir_b15c23a2d1afdaa7d6916e7a87292e69&#45;&gt;dir_85bf31a2e8d306e7598ffcb73f8df6bf</title>
<path fill="none" stroke="#000000" d="M45.0239,-287.8776C32.6431,-278.8263 19.7418,-266.6581 13,-252 6.3143,-237.4638 11.7883,-231.9541 13,-216 17.903,-151.4433 4.0233,-128.8511 35,-72 41.0799,-60.8416 50.4055,-50.8643 59.9498,-42.6135"/>
<polygon fill="#000000" stroke="#000000" points="62.4053,-45.1277 67.952,-36.1007 57.9867,-39.6985 62.4053,-45.1277"/>
<g id="a_edge9&#45;headlabel"><a xlink:href="dir_000501_000061.html" target="_top" xlink:title="9">
<text text-anchor="middle" x="61.4096" y="-47.0988" font-family="Helvetica,sans-Serif" font-size="10.00" fill="#000000">9</text>
</a>
</g>
</g>
<!-- dir_2171f7ec022c5423887b07c69b2f5b48 -->
<g id="node6" class="node">
<title>dir_2171f7ec022c5423887b07c69b2f5b48</title>
<g id="a_node6"><a xlink:href="dir_2171f7ec022c5423887b07c69b2f5b48.html" target="_top" xlink:title="DataFormats">
<polygon fill="none" stroke="#ff0000" points="136,-108 56,-108 56,-72 136,-72 136,-108"/>
<text text-anchor="middle" x="96" y="-87.5" font-family="Helvetica,sans-Serif" font-size="10.00" fill="#000000">DataFormats</text>
</a>
</g>
</g>
<!-- dir_b15c23a2d1afdaa7d6916e7a87292e69&#45;&gt;dir_2171f7ec022c5423887b07c69b2f5b48 -->
<g id="edge10" class="edge">
<title>dir_b15c23a2d1afdaa7d6916e7a87292e69&#45;&gt;dir_2171f7ec022c5423887b07c69b2f5b48</title>
<path fill="none" stroke="#000000" d="M79.5288,-287.5689C81.4064,-277.1616 83.6083,-263.8943 85,-252 90.4744,-205.2114 93.4889,-150.4775 94.9224,-118.1083"/>
<polygon fill="#000000" stroke="#000000" points="98.4228,-118.1712 95.3492,-108.032 91.429,-117.8749 98.4228,-118.1712"/>
<g id="a_edge10&#45;headlabel"><a xlink:href="dir_000501_000076.html" target="_top" xlink:title="9">
<text text-anchor="middle" x="101.1075" y="-119.3827" font-family="Helvetica,sans-Serif" font-size="10.00" fill="#000000">9</text>
</a>
</g>
</g>
<!-- dir_eedff867f3c4e67d20b227cb6e0f96ab&#45;&gt;dir_4ab6b4cc6a7edbff49100e9123df213f -->
<g id="edge1" class="edge">
<title>dir_eedff867f3c4e67d20b227cb6e0f96ab&#45;&gt;dir_4ab6b4cc6a7edbff49100e9123df213f</title>
<path fill="none" stroke="#000000" d="M76.0164,-216.937C90.7939,-207.6038 109.3302,-195.8967 125.4903,-185.6904"/>
<polygon fill="#000000" stroke="#000000" points="127.5987,-188.4984 134.1847,-180.1992 123.8608,-182.5799 127.5987,-188.4984"/>
<g id="a_edge1&#45;headlabel"><a xlink:href="dir_000479_000027.html" target="_top" xlink:title="2">
<text text-anchor="middle" x="126.0757" y="-190.3184" font-family="Helvetica,sans-Serif" font-size="10.00" fill="#000000">2</text>
</a>
</g>
</g>
<!-- dir_eedff867f3c4e67d20b227cb6e0f96ab&#45;&gt;dir_85bf31a2e8d306e7598ffcb73f8df6bf -->
<g id="edge2" class="edge">
<title>dir_eedff867f3c4e67d20b227cb6e0f96ab&#45;&gt;dir_85bf31a2e8d306e7598ffcb73f8df6bf</title>
<path fill="none" stroke="#000000" d="M44.5138,-215.7316C37.8552,-184.8913 28.0561,-121.0678 47,-72 51.1192,-61.3306 58.4336,-51.4665 66.1749,-43.1681"/>
<polygon fill="#000000" stroke="#000000" points="68.7348,-45.558 73.325,-36.0091 63.7819,-40.6113 68.7348,-45.558"/>
<g id="a_edge2&#45;headlabel"><a xlink:href="dir_000479_000061.html" target="_top" xlink:title="2">
<text text-anchor="middle" x="68.2035" y="-47.6077" font-family="Helvetica,sans-Serif" font-size="10.00" fill="#000000">2</text>
</a>
</g>
</g>
<!-- dir_eedff867f3c4e67d20b227cb6e0f96ab&#45;&gt;dir_2171f7ec022c5423887b07c69b2f5b48 -->
<g id="edge3" class="edge">
<title>dir_eedff867f3c4e67d20b227cb6e0f96ab&#45;&gt;dir_2171f7ec022c5423887b07c69b2f5b48</title>
<path fill="none" stroke="#000000" d="M54.9526,-215.7623C63.0044,-191.0928 77.4416,-146.8598 86.8699,-117.9731"/>
<polygon fill="#000000" stroke="#000000" points="90.3201,-118.6821 90.0957,-108.0896 83.6656,-116.5101 90.3201,-118.6821"/>
<g id="a_edge3&#45;headlabel"><a xlink:href="dir_000479_000076.html" target="_top" xlink:title="1">
<text text-anchor="middle" x="91.904" y="-120.4802" font-family="Helvetica,sans-Serif" font-size="10.00" fill="#000000">1</text>
</a>
</g>
</g>
<!-- dir_4ab6b4cc6a7edbff49100e9123df213f&#45;&gt;dir_2171f7ec022c5423887b07c69b2f5b48 -->
<g id="edge4" class="edge">
<title>dir_4ab6b4cc6a7edbff49100e9123df213f&#45;&gt;dir_2171f7ec022c5423887b07c69b2f5b48</title>
<path fill="none" stroke="#000000" d="M140.1407,-143.8314C131.5287,-135.454 121.9396,-125.3531 113.8358,-116.1749"/>
<polygon fill="#000000" stroke="#000000" points="116.3335,-113.7115 107.1586,-108.4133 111.027,-118.2767 116.3335,-113.7115"/>
<g id="a_edge4&#45;headlabel"><a xlink:href="dir_000027_000076.html" target="_top" xlink:title="2">
<text text-anchor="middle" x="120.8301" y="-112.0848" font-family="Helvetica,sans-Serif" font-size="10.00" fill="#000000">2</text>
</a>
</g>
</g>
<!-- dir_85bf31a2e8d306e7598ffcb73f8df6bf&#45;&gt;dir_4ab6b4cc6a7edbff49100e9123df213f -->
<g id="edge5" class="edge">
<title>dir_85bf31a2e8d306e7598ffcb73f8df6bf&#45;&gt;dir_4ab6b4cc6a7edbff49100e9123df213f</title>
<path fill="none" stroke="#000000" d="M117.0016,-36.0439C126.9646,-45.7235 138.1588,-58.4364 145,-72 154.7177,-91.2667 159.1912,-115.3345 161.2495,-133.7324"/>
<polygon fill="#000000" stroke="#000000" points="157.7784,-134.2041 162.2037,-143.8305 164.7473,-133.5455 157.7784,-134.2041"/>
<g id="a_edge5&#45;headlabel"><a xlink:href="dir_000061_000027.html" target="_top" xlink:title="21">
<text text-anchor="middle" x="154.6136" y="-128.3925" font-family="Helvetica,sans-Serif" font-size="10.00" fill="#000000">21</text>
</a>
</g>
</g>
<!-- dir_85bf31a2e8d306e7598ffcb73f8df6bf&#45;&gt;dir_2171f7ec022c5423887b07c69b2f5b48 -->
<g id="edge6" class="edge">
<title>dir_85bf31a2e8d306e7598ffcb73f8df6bf&#45;&gt;dir_2171f7ec022c5423887b07c69b2f5b48</title>
<path fill="none" stroke="#000000" d="M101.976,-36.4133C102.7071,-44.0593 102.9203,-53.1084 102.6155,-61.5726"/>
<polygon fill="#000000" stroke="#000000" points="99.1048,-61.6264 101.9524,-71.8314 106.0902,-62.078 99.1048,-61.6264"/>
<g id="a_edge6&#45;headlabel"><a xlink:href="dir_000061_000076.html" target="_top" xlink:title="70">
<text text-anchor="middle" x="96.5032" y="-55.3562" font-family="Helvetica,sans-Serif" font-size="10.00" fill="#000000">70</text>
</a>
</g>
</g>
<!-- dir_2171f7ec022c5423887b07c69b2f5b48&#45;&gt;dir_4ab6b4cc6a7edbff49100e9123df213f -->
<g id="edge11" class="edge">
<title>dir_2171f7ec022c5423887b07c69b2f5b48&#45;&gt;dir_4ab6b4cc6a7edbff49100e9123df213f</title>
<path fill="none" stroke="#000000" d="M118.8533,-108.1628C127.5311,-116.6038 137.2017,-126.7956 145.3453,-136.0303"/>
<polygon fill="#000000" stroke="#000000" points="142.8748,-138.5257 152.0455,-143.8314 148.185,-133.9648 142.8748,-138.5257"/>
<g id="a_edge11&#45;headlabel"><a xlink:href="dir_000076_000027.html" target="_top" xlink:title="35">
<text text-anchor="middle" x="138.3789" y="-135.1488" font-family="Helvetica,sans-Serif" font-size="10.00" fill="#000000">35</text>
</a>
</g>
</g>
<!-- dir_2171f7ec022c5423887b07c69b2f5b48&#45;&gt;dir_85bf31a2e8d306e7598ffcb73f8df6bf -->
<g id="edge12" class="edge">
<title>dir_2171f7ec022c5423887b07c69b2f5b48&#45;&gt;dir_85bf31a2e8d306e7598ffcb73f8df6bf</title>
<path fill="none" stroke="#000000" d="M90.0476,-71.8314C89.2972,-64.131 89.0763,-54.9743 89.3849,-46.4166"/>
<polygon fill="#000000" stroke="#000000" points="92.8792,-46.6161 90.024,-36.4133 85.8935,-46.1697 92.8792,-46.6161"/>
<g id="a_edge12&#45;headlabel"><a xlink:href="dir_000076_000061.html" target="_top" xlink:title="1">
<text text-anchor="middle" x="95.4836" y="-47.8844" font-family="Helvetica,sans-Serif" font-size="10.00" fill="#000000">1</text>
</a>
</g>
</g>
</g>
</svg>
