<?xml version="1.0" encoding="UTF-8" standalone="no"?>
<!DOCTYPE svg PUBLIC "-//W3C//DTD SVG 1.1//EN"
 "http://www.w3.org/Graphics/SVG/1.1/DTD/svg11.dtd">
<!-- Generated by graphviz version 2.40.1 (20161225.0304)
 -->
<!-- Title: /home/travis/build/AliceO2Group/AliceO2/Detectors/ITSMFT/MFT Pages: 1 -->
<svg width="914pt" height="591pt"
 viewBox="0.00 0.00 914.00 591.00" xmlns="http://www.w3.org/2000/svg" xmlns:xlink="http://www.w3.org/1999/xlink">
<g id="graph0" class="graph" transform="scale(1 1) rotate(0) translate(4 587)">
<title>/home/travis/build/AliceO2Group/AliceO2/Detectors/ITSMFT/MFT</title>
<g id="clust1" class="cluster">
<title>clusterdir_1306292b77b40360479b729ac9ee7efe</title>
<g id="a_clust1"><a xlink:href="dir_1306292b77b40360479b729ac9ee7efe.html" target="_top" xlink:title="ITSMFT">
<polygon fill="#ddddee" stroke="#000000" points="226,-344 226,-575 504,-575 504,-344 226,-344"/>
<text text-anchor="middle" x="365" y="-563" font-family="Helvetica,sans-Serif" font-size="10.00" fill="#000000">ITSMFT</text>
</a>
</g>
</g>
<g id="clust2" class="cluster">
<title>clusterdir_f39d1cd569ca2d16022b762a0e4a53c8</title>
<g id="a_clust2"><a xlink:href="dir_f39d1cd569ca2d16022b762a0e4a53c8.html" target="_top">
<polygon fill="#eeeeff" stroke="#000000" points="234,-352 234,-548 496,-548 496,-352 234,-352"/>
</a>
</g>
</g>
<!-- dir_f39d1cd569ca2d16022b762a0e4a53c8 -->
<g id="node1" class="node">
<title>dir_f39d1cd569ca2d16022b762a0e4a53c8</title>
<text text-anchor="middle" x="433" y="-519.5" font-family="Helvetica,sans-Serif" font-size="10.00" fill="#000000">MFT</text>
</g>
<!-- dir_7e732ae97f4f941436b6909b27d4da36 -->
<g id="node2" class="node">
<title>dir_7e732ae97f4f941436b6909b27d4da36</title>
<g id="a_node2"><a xlink:href="dir_7e732ae97f4f941436b6909b27d4da36.html" target="_top" xlink:title="base">
<polygon fill="#ffffff" stroke="#ff0000" points="352,-396 298,-396 298,-360 352,-360 352,-396"/>
<text text-anchor="middle" x="325" y="-375.5" font-family="Helvetica,sans-Serif" font-size="10.00" fill="#000000">base</text>
</a>
</g>
</g>
<!-- dir_4ab6b4cc6a7edbff49100e9123df213f -->
<g id="node7" class="node">
<title>dir_4ab6b4cc6a7edbff49100e9123df213f</title>
<g id="a_node7"><a xlink:href="dir_4ab6b4cc6a7edbff49100e9123df213f.html" target="_top" xlink:title="Common">
<polygon fill="none" stroke="#ff0000" points="621.5,-396 560.5,-396 560.5,-360 621.5,-360 621.5,-396"/>
<text text-anchor="middle" x="591" y="-375.5" font-family="Helvetica,sans-Serif" font-size="10.00" fill="#000000">Common</text>
</a>
</g>
</g>
<!-- dir_7e732ae97f4f941436b6909b27d4da36&#45;&gt;dir_4ab6b4cc6a7edbff49100e9123df213f -->
<g id="edge35" class="edge">
<title>dir_7e732ae97f4f941436b6909b27d4da36&#45;&gt;dir_4ab6b4cc6a7edbff49100e9123df213f</title>
<path fill="none" stroke="#000000" d="M352.0156,-378C418.0199,-378 484.0242,-378 550.0285,-378"/>
<polygon fill="#000000" stroke="#000000" points="550.1935,-381.5001 560.1934,-378 550.1934,-374.5001 550.1935,-381.5001"/>
<g id="a_edge35&#45;headlabel"><a xlink:href="dir_000167_000027.html" target="_top" xlink:title="4">
<text text-anchor="middle" x="546.5988" y="-381.8393" font-family="Helvetica,sans-Serif" font-size="10.00" fill="#000000">4</text>
</a>
</g>
</g>
<!-- dir_37c90836491b695b472bf98d1be8336b -->
<g id="node8" class="node">
<title>dir_37c90836491b695b472bf98d1be8336b</title>
<g id="a_node8"><a xlink:href="dir_37c90836491b695b472bf98d1be8336b.html" target="_top" xlink:title="Base">
<polygon fill="none" stroke="#ff0000" points="482,-108 428,-108 428,-72 482,-72 482,-108"/>
<text text-anchor="middle" x="455" y="-87.5" font-family="Helvetica,sans-Serif" font-size="10.00" fill="#000000">Base</text>
</a>
</g>
</g>
<!-- dir_7e732ae97f4f941436b6909b27d4da36&#45;&gt;dir_37c90836491b695b472bf98d1be8336b -->
<g id="edge36" class="edge">
<title>dir_7e732ae97f4f941436b6909b27d4da36&#45;&gt;dir_37c90836491b695b472bf98d1be8336b</title>
<path fill="none" stroke="#000000" d="M325.284,-359.9188C326.0611,-341.3859 328.6563,-311.9681 337,-288 360.2023,-221.3495 407.4386,-152.561 434.5825,-116.2125"/>
<polygon fill="#000000" stroke="#000000" points="437.4656,-118.2026 440.7007,-108.1138 431.8802,-113.9832 437.4656,-118.2026"/>
<g id="a_edge36&#45;headlabel"><a xlink:href="dir_000167_000274.html" target="_top" xlink:title="2">
<text text-anchor="middle" x="437.5643" y="-120.2822" font-family="Helvetica,sans-Serif" font-size="10.00" fill="#000000">2</text>
</a>
</g>
</g>
<!-- dir_85bf31a2e8d306e7598ffcb73f8df6bf -->
<g id="node9" class="node">
<title>dir_85bf31a2e8d306e7598ffcb73f8df6bf</title>
<g id="a_node9"><a xlink:href="dir_85bf31a2e8d306e7598ffcb73f8df6bf.html" target="_top" xlink:title="common">
<polygon fill="none" stroke="#ff0000" points="290.5,-180 231.5,-180 231.5,-144 290.5,-144 290.5,-180"/>
<text text-anchor="middle" x="261" y="-159.5" font-family="Helvetica,sans-Serif" font-size="10.00" fill="#000000">common</text>
</a>
</g>
</g>
<!-- dir_7e732ae97f4f941436b6909b27d4da36&#45;&gt;dir_85bf31a2e8d306e7598ffcb73f8df6bf -->
<g id="edge37" class="edge">
<title>dir_7e732ae97f4f941436b6909b27d4da36&#45;&gt;dir_85bf31a2e8d306e7598ffcb73f8df6bf</title>
<path fill="none" stroke="#000000" d="M310.3854,-359.523C303.1898,-349.5354 295.0062,-336.6771 290,-324 272.3684,-279.352 265.3889,-223.5331 262.674,-190.436"/>
<polygon fill="#000000" stroke="#000000" points="266.1398,-189.8445 261.9076,-180.1317 259.1591,-190.3638 266.1398,-189.8445"/>
<g id="a_edge37&#45;headlabel"><a xlink:href="dir_000167_000061.html" target="_top" xlink:title="7">
<text text-anchor="middle" x="269.2378" y="-190.7187" font-family="Helvetica,sans-Serif" font-size="10.00" fill="#000000">7</text>
</a>
</g>
</g>
<!-- dir_2171f7ec022c5423887b07c69b2f5b48 -->
<g id="node13" class="node">
<title>dir_2171f7ec022c5423887b07c69b2f5b48</title>
<g id="a_node13"><a xlink:href="dir_2171f7ec022c5423887b07c69b2f5b48.html" target="_top" xlink:title="DataFormats">
<polygon fill="none" stroke="#ff0000" points="548,-252 468,-252 468,-216 548,-216 548,-252"/>
<text text-anchor="middle" x="508" y="-231.5" font-family="Helvetica,sans-Serif" font-size="10.00" fill="#000000">DataFormats</text>
</a>
</g>
</g>
<!-- dir_7e732ae97f4f941436b6909b27d4da36&#45;&gt;dir_2171f7ec022c5423887b07c69b2f5b48 -->
<g id="edge38" class="edge">
<title>dir_7e732ae97f4f941436b6909b27d4da36&#45;&gt;dir_2171f7ec022c5423887b07c69b2f5b48</title>
<path fill="none" stroke="#000000" d="M328.9309,-359.68C334.1432,-339.5521 345.2108,-307.4982 366,-288 391.3211,-264.2514 428.1417,-250.6486 457.9436,-243.0366"/>
<polygon fill="#000000" stroke="#000000" points="458.8492,-246.4187 467.7545,-240.6789 457.2134,-239.6125 458.8492,-246.4187"/>
<g id="a_edge38&#45;headlabel"><a xlink:href="dir_000167_000076.html" target="_top" xlink:title="1">
<text text-anchor="middle" x="456.0175" y="-247.5193" font-family="Helvetica,sans-Serif" font-size="10.00" fill="#000000">1</text>
</a>
</g>
</g>
<!-- dir_3d8e691f27a9a1a3f5b37028248bc44b -->
<g id="node3" class="node">
<title>dir_3d8e691f27a9a1a3f5b37028248bc44b</title>
<g id="a_node3"><a xlink:href="dir_3d8e691f27a9a1a3f5b37028248bc44b.html" target="_top" xlink:title="reconstruction">
<polygon fill="#ffffff" stroke="#ff0000" points="328,-468 242,-468 242,-432 328,-432 328,-468"/>
<text text-anchor="middle" x="285" y="-447.5" font-family="Helvetica,sans-Serif" font-size="10.00" fill="#000000">reconstruction</text>
</a>
</g>
</g>
<!-- dir_3d8e691f27a9a1a3f5b37028248bc44b&#45;&gt;dir_7e732ae97f4f941436b6909b27d4da36 -->
<g id="edge2" class="edge">
<title>dir_3d8e691f27a9a1a3f5b37028248bc44b&#45;&gt;dir_7e732ae97f4f941436b6909b27d4da36</title>
<path fill="none" stroke="#000000" d="M295.0937,-431.8314C299.5597,-423.7925 304.9075,-414.1666 309.8379,-405.2918"/>
<polygon fill="#000000" stroke="#000000" points="312.9735,-406.8546 314.7704,-396.4133 306.8544,-403.4551 312.9735,-406.8546"/>
<g id="a_edge2&#45;headlabel"><a xlink:href="dir_000502_000167.html" target="_top" xlink:title="2">
<text text-anchor="middle" x="313.7098" y="-408.8757" font-family="Helvetica,sans-Serif" font-size="10.00" fill="#000000">2</text>
</a>
</g>
</g>
<!-- dir_3d8e691f27a9a1a3f5b37028248bc44b&#45;&gt;dir_85bf31a2e8d306e7598ffcb73f8df6bf -->
<g id="edge1" class="edge">
<title>dir_3d8e691f27a9a1a3f5b37028248bc44b&#45;&gt;dir_85bf31a2e8d306e7598ffcb73f8df6bf</title>
<path fill="none" stroke="#000000" d="M241.7448,-440.4071C217.9303,-432.6788 190.365,-419.1479 176,-396 133.8165,-328.0254 137.4766,-286.1138 176,-216 185.8737,-198.0295 204.5406,-185.191 221.8715,-176.5539"/>
<polygon fill="#000000" stroke="#000000" points="223.6989,-179.5645 231.298,-172.1818 220.7536,-173.2143 223.6989,-179.5645"/>
<g id="a_edge1&#45;headlabel"><a xlink:href="dir_000502_000061.html" target="_top" xlink:title="5">
<text text-anchor="middle" x="221.6326" y="-181.1526" font-family="Helvetica,sans-Serif" font-size="10.00" fill="#000000">5</text>
</a>
</g>
</g>
<!-- dir_3d8e691f27a9a1a3f5b37028248bc44b&#45;&gt;dir_2171f7ec022c5423887b07c69b2f5b48 -->
<g id="edge3" class="edge">
<title>dir_3d8e691f27a9a1a3f5b37028248bc44b&#45;&gt;dir_2171f7ec022c5423887b07c69b2f5b48</title>
<path fill="none" stroke="#000000" d="M313.5299,-431.8765C328.2776,-421.9855 346.2304,-409.1071 361,-396 410.2305,-352.3111 460.1774,-293.5274 487.3069,-260.1114"/>
<polygon fill="#000000" stroke="#000000" points="490.1446,-262.168 493.6983,-252.1869 484.6959,-257.7735 490.1446,-262.168"/>
<g id="a_edge3&#45;headlabel"><a xlink:href="dir_000502_000076.html" target="_top" xlink:title="6">
<text text-anchor="middle" x="490.098" y="-264.2485" font-family="Helvetica,sans-Serif" font-size="10.00" fill="#000000">6</text>
</a>
</g>
</g>
<!-- dir_a336bf94aab96007822cb34c9e2cb8a5 -->
<g id="node4" class="node">
<title>dir_a336bf94aab96007822cb34c9e2cb8a5</title>
<g id="a_node4"><a xlink:href="dir_a336bf94aab96007822cb34c9e2cb8a5.html" target="_top" xlink:title="simulation">
<polygon fill="#ffffff" stroke="#ff0000" points="414,-468 346,-468 346,-432 414,-432 414,-468"/>
<text text-anchor="middle" x="380" y="-447.5" font-family="Helvetica,sans-Serif" font-size="10.00" fill="#000000">simulation</text>
</a>
</g>
</g>
<!-- dir_a336bf94aab96007822cb34c9e2cb8a5&#45;&gt;dir_7e732ae97f4f941436b6909b27d4da36 -->
<g id="edge16" class="edge">
<title>dir_a336bf94aab96007822cb34c9e2cb8a5&#45;&gt;dir_7e732ae97f4f941436b6909b27d4da36</title>
<path fill="none" stroke="#000000" d="M366.1212,-431.8314C359.7864,-423.5386 352.1616,-413.557 345.2074,-404.4533"/>
<polygon fill="#000000" stroke="#000000" points="347.9175,-402.2353 339.0657,-396.4133 342.3548,-406.4847 347.9175,-402.2353"/>
<g id="a_edge16&#45;headlabel"><a xlink:href="dir_000296_000167.html" target="_top" xlink:title="1">
<text text-anchor="middle" x="352.3558" y="-400.8683" font-family="Helvetica,sans-Serif" font-size="10.00" fill="#000000">1</text>
</a>
</g>
</g>
<!-- dir_a336bf94aab96007822cb34c9e2cb8a5&#45;&gt;dir_4ab6b4cc6a7edbff49100e9123df213f -->
<g id="edge13" class="edge">
<title>dir_a336bf94aab96007822cb34c9e2cb8a5&#45;&gt;dir_4ab6b4cc6a7edbff49100e9123df213f</title>
<path fill="none" stroke="#000000" d="M414.1628,-435.3895C417.1391,-434.2109 420.1151,-433.0653 423,-432 466.16,-416.0632 516.4961,-400.2413 550.7364,-389.8838"/>
<polygon fill="#000000" stroke="#000000" points="551.8157,-393.2141 560.3833,-386.9815 549.7989,-386.5109 551.8157,-393.2141"/>
<g id="a_edge13&#45;headlabel"><a xlink:href="dir_000296_000027.html" target="_top" xlink:title="4">
<text text-anchor="middle" x="549.1915" y="-394.4686" font-family="Helvetica,sans-Serif" font-size="10.00" fill="#000000">4</text>
</a>
</g>
</g>
<!-- dir_a336bf94aab96007822cb34c9e2cb8a5&#45;&gt;dir_37c90836491b695b472bf98d1be8336b -->
<g id="edge14" class="edge">
<title>dir_a336bf94aab96007822cb34c9e2cb8a5&#45;&gt;dir_37c90836491b695b472bf98d1be8336b</title>
<path fill="none" stroke="#000000" d="M345.9262,-435.1324C342.9306,-434.0096 339.9259,-432.9471 337,-432 270.1263,-410.354 231.9282,-446.4646 183,-396 126.5944,-337.8233 123.7886,-291.1891 154,-216 170.5248,-174.8737 184.4855,-165.9334 223,-144 285.3079,-108.5167 369.6385,-96.3274 417.5782,-92.1554"/>
<polygon fill="#000000" stroke="#000000" points="418.1154,-95.6238 427.8055,-91.3398 417.5589,-88.646 418.1154,-95.6238"/>
<g id="a_edge14&#45;headlabel"><a xlink:href="dir_000296_000274.html" target="_top" xlink:title="1">
<text text-anchor="middle" x="414.7578" y="-96.2398" font-family="Helvetica,sans-Serif" font-size="10.00" fill="#000000">1</text>
</a>
</g>
</g>
<!-- dir_a336bf94aab96007822cb34c9e2cb8a5&#45;&gt;dir_85bf31a2e8d306e7598ffcb73f8df6bf -->
<g id="edge15" class="edge">
<title>dir_a336bf94aab96007822cb34c9e2cb8a5&#45;&gt;dir_85bf31a2e8d306e7598ffcb73f8df6bf</title>
<path fill="none" stroke="#000000" d="M345.8671,-435.3069C342.8843,-434.1462 339.8987,-433.0273 337,-432 283.3118,-412.9731 248.1547,-441.584 214,-396 166.03,-331.9775 185.9603,-290.9251 214,-216 217.8954,-205.5911 224.8041,-195.8652 232.1456,-187.6152"/>
<polygon fill="#000000" stroke="#000000" points="234.8643,-189.8358 239.2328,-180.1835 229.7986,-185.0048 234.8643,-189.8358"/>
<g id="a_edge15&#45;headlabel"><a xlink:href="dir_000296_000061.html" target="_top" xlink:title="9">
<text text-anchor="middle" x="234.4383" y="-191.8966" font-family="Helvetica,sans-Serif" font-size="10.00" fill="#000000">9</text>
</a>
</g>
</g>
<!-- dir_bcbb2cf9a3d3d83e5515c82071a07177 -->
<g id="node11" class="node">
<title>dir_bcbb2cf9a3d3d83e5515c82071a07177</title>
<g id="a_node11"><a xlink:href="dir_bcbb2cf9a3d3d83e5515c82071a07177.html" target="_top" xlink:title="Framework">
<polygon fill="none" stroke="#ff0000" points="639.5,-36 568.5,-36 568.5,0 639.5,0 639.5,-36"/>
<text text-anchor="middle" x="604" y="-15.5" font-family="Helvetica,sans-Serif" font-size="10.00" fill="#000000">Framework</text>
</a>
</g>
</g>
<!-- dir_a336bf94aab96007822cb34c9e2cb8a5&#45;&gt;dir_bcbb2cf9a3d3d83e5515c82071a07177 -->
<g id="edge17" class="edge">
<title>dir_a336bf94aab96007822cb34c9e2cb8a5&#45;&gt;dir_bcbb2cf9a3d3d83e5515c82071a07177</title>
<path fill="none" stroke="#000000" d="M414.4548,-434.6449C417.3141,-433.657 420.1866,-432.757 423,-432 637.2315,-374.3577 906,-527.8508 906,-306 906,-306 906,-306 906,-162 906,-114.1711 886.3503,-99.1874 847,-72 815.4895,-50.2292 711.1251,-32.719 649.8954,-24.006"/>
<polygon fill="#000000" stroke="#000000" points="650.1129,-20.5024 639.7243,-22.583 649.1429,-27.4349 650.1129,-20.5024"/>
<g id="a_edge17&#45;headlabel"><a xlink:href="dir_000296_000013.html" target="_top" xlink:title="1">
<text text-anchor="middle" x="654.0662" y="-15.6885" font-family="Helvetica,sans-Serif" font-size="10.00" fill="#000000">1</text>
</a>
</g>
</g>
<!-- dir_26637d1bd82229bc9ed97f7e706be743 -->
<g id="node12" class="node">
<title>dir_26637d1bd82229bc9ed97f7e706be743</title>
<g id="a_node12"><a xlink:href="dir_26637d1bd82229bc9ed97f7e706be743.html" target="_top" xlink:title="Raw">
<polygon fill="none" stroke="#ff0000" points="716,-108 662,-108 662,-72 716,-72 716,-108"/>
<text text-anchor="middle" x="689" y="-87.5" font-family="Helvetica,sans-Serif" font-size="10.00" fill="#000000">Raw</text>
</a>
</g>
</g>
<!-- dir_a336bf94aab96007822cb34c9e2cb8a5&#45;&gt;dir_26637d1bd82229bc9ed97f7e706be743 -->
<g id="edge18" class="edge">
<title>dir_a336bf94aab96007822cb34c9e2cb8a5&#45;&gt;dir_26637d1bd82229bc9ed97f7e706be743</title>
<path fill="none" stroke="#000000" d="M414.0165,-434.9461C417.0246,-433.8637 420.0478,-432.8614 423,-432 563.0589,-391.1318 655.4209,-447.5645 733,-324 775.541,-256.2427 764.1003,-216.8365 731,-144 726.5039,-134.1064 719.8563,-124.3867 713.1695,-115.9804"/>
<polygon fill="#000000" stroke="#000000" points="715.6453,-113.4847 706.548,-108.0542 710.2732,-117.9726 715.6453,-113.4847"/>
<g id="a_edge18&#45;headlabel"><a xlink:href="dir_000296_000576.html" target="_top" xlink:title="1">
<text text-anchor="middle" x="720.1288" y="-111.923" font-family="Helvetica,sans-Serif" font-size="10.00" fill="#000000">1</text>
</a>
</g>
</g>
<!-- dir_a336bf94aab96007822cb34c9e2cb8a5&#45;&gt;dir_2171f7ec022c5423887b07c69b2f5b48 -->
<g id="edge19" class="edge">
<title>dir_a336bf94aab96007822cb34c9e2cb8a5&#45;&gt;dir_2171f7ec022c5423887b07c69b2f5b48</title>
<path fill="none" stroke="#000000" d="M390.693,-431.9555C413.1871,-393.9967 465.5036,-305.7127 492.0043,-260.9928"/>
<polygon fill="#000000" stroke="#000000" points="495.1603,-262.5323 497.2474,-252.1451 489.1383,-258.9637 495.1603,-262.5323"/>
<g id="a_edge19&#45;headlabel"><a xlink:href="dir_000296_000076.html" target="_top" xlink:title="9">
<text text-anchor="middle" x="495.7704" y="-264.5722" font-family="Helvetica,sans-Serif" font-size="10.00" fill="#000000">9</text>
</a>
</g>
</g>
<!-- dir_0a8d7fd788ce6274650fdef0765535ce -->
<g id="node5" class="node">
<title>dir_0a8d7fd788ce6274650fdef0765535ce</title>
<g id="a_node5"><a xlink:href="dir_0a8d7fd788ce6274650fdef0765535ce.html" target="_top" xlink:title="tracking">
<polygon fill="#ffffff" stroke="#ff0000" points="488,-468 432,-468 432,-432 488,-432 488,-468"/>
<text text-anchor="middle" x="460" y="-447.5" font-family="Helvetica,sans-Serif" font-size="10.00" fill="#000000">tracking</text>
</a>
</g>
</g>
<!-- dir_0a8d7fd788ce6274650fdef0765535ce&#45;&gt;dir_7e732ae97f4f941436b6909b27d4da36 -->
<g id="edge31" class="edge">
<title>dir_0a8d7fd788ce6274650fdef0765535ce&#45;&gt;dir_7e732ae97f4f941436b6909b27d4da36</title>
<path fill="none" stroke="#000000" d="M431.6996,-434.9064C411.2685,-424.0099 383.5051,-409.2027 361.4202,-397.4241"/>
<polygon fill="#000000" stroke="#000000" points="362.8115,-394.1995 352.3409,-392.5818 359.5173,-400.376 362.8115,-394.1995"/>
<g id="a_edge31&#45;headlabel"><a xlink:href="dir_000111_000167.html" target="_top" xlink:title="2">
<text text-anchor="middle" x="367.3193" y="-390.8858" font-family="Helvetica,sans-Serif" font-size="10.00" fill="#000000">2</text>
</a>
</g>
</g>
<!-- dir_0a8d7fd788ce6274650fdef0765535ce&#45;&gt;dir_4ab6b4cc6a7edbff49100e9123df213f -->
<g id="edge29" class="edge">
<title>dir_0a8d7fd788ce6274650fdef0765535ce&#45;&gt;dir_4ab6b4cc6a7edbff49100e9123df213f</title>
<path fill="none" stroke="#000000" d="M488.1028,-434.5542C506.5706,-424.4039 531.0034,-410.9752 551.4262,-399.7505"/>
<polygon fill="#000000" stroke="#000000" points="553.1193,-402.8138 560.1971,-394.9298 549.7477,-396.6793 553.1193,-402.8138"/>
<g id="a_edge29&#45;headlabel"><a xlink:href="dir_000111_000027.html" target="_top" xlink:title="14">
<text text-anchor="middle" x="551.3367" y="-404.5333" font-family="Helvetica,sans-Serif" font-size="10.00" fill="#000000">14</text>
</a>
</g>
</g>
<!-- dir_0a8d7fd788ce6274650fdef0765535ce&#45;&gt;dir_85bf31a2e8d306e7598ffcb73f8df6bf -->
<g id="edge30" class="edge">
<title>dir_0a8d7fd788ce6274650fdef0765535ce&#45;&gt;dir_85bf31a2e8d306e7598ffcb73f8df6bf</title>
<path fill="none" stroke="#000000" d="M431.9607,-435.676C428.9694,-434.354 425.9442,-433.1002 423,-432 365.2341,-410.4137 331.0436,-441.1132 289,-396 236.2444,-339.3926 246.1549,-238.714 254.9332,-189.975"/>
<polygon fill="#000000" stroke="#000000" points="258.3765,-190.6033 256.8221,-180.1232 251.5017,-189.2852 258.3765,-190.6033"/>
<g id="a_edge30&#45;headlabel"><a xlink:href="dir_000111_000061.html" target="_top" xlink:title="2">
<text text-anchor="middle" x="260.4882" y="-192.1683" font-family="Helvetica,sans-Serif" font-size="10.00" fill="#000000">2</text>
</a>
</g>
</g>
<!-- dir_f511f1e9c03c071966ae594f00bbc5e0 -->
<g id="node10" class="node">
<title>dir_f511f1e9c03c071966ae594f00bbc5e0</title>
<g id="a_node10"><a xlink:href="dir_f511f1e9c03c071966ae594f00bbc5e0.html" target="_top" xlink:title="GPU">
<polygon fill="none" stroke="#ff0000" points="670,-324 616,-324 616,-288 670,-288 670,-324"/>
<text text-anchor="middle" x="643" y="-303.5" font-family="Helvetica,sans-Serif" font-size="10.00" fill="#000000">GPU</text>
</a>
</g>
</g>
<!-- dir_0a8d7fd788ce6274650fdef0765535ce&#45;&gt;dir_f511f1e9c03c071966ae594f00bbc5e0 -->
<g id="edge32" class="edge">
<title>dir_0a8d7fd788ce6274650fdef0765535ce&#45;&gt;dir_f511f1e9c03c071966ae594f00bbc5e0</title>
<path fill="none" stroke="#000000" d="M471.6931,-431.9844C487.4832,-408.879 517.635,-368.8346 552,-344 568.2398,-332.264 588.6495,-323.3167 606.0225,-317.0611"/>
<polygon fill="#000000" stroke="#000000" points="607.5247,-320.2459 615.8461,-313.6882 605.2515,-313.6253 607.5247,-320.2459"/>
<g id="a_edge32&#45;headlabel"><a xlink:href="dir_000111_000685.html" target="_top" xlink:title="1">
<text text-anchor="middle" x="605.0469" y="-321.5986" font-family="Helvetica,sans-Serif" font-size="10.00" fill="#000000">1</text>
</a>
</g>
</g>
<!-- dir_0a8d7fd788ce6274650fdef0765535ce&#45;&gt;dir_bcbb2cf9a3d3d83e5515c82071a07177 -->
<g id="edge33" class="edge">
<title>dir_0a8d7fd788ce6274650fdef0765535ce&#45;&gt;dir_bcbb2cf9a3d3d83e5515c82071a07177</title>
<path fill="none" stroke="#000000" d="M488.0435,-446.316C580.2223,-433.4336 868,-386.7493 868,-306 868,-306 868,-306 868,-162 868,-63.7701 725.3952,-32.1463 649.8039,-22.2835"/>
<polygon fill="#000000" stroke="#000000" points="649.9562,-18.776 639.6042,-21.0316 649.1033,-25.7239 649.9562,-18.776"/>
<g id="a_edge33&#45;headlabel"><a xlink:href="dir_000111_000013.html" target="_top" xlink:title="1">
<text text-anchor="middle" x="653.8699" y="-13.8957" font-family="Helvetica,sans-Serif" font-size="10.00" fill="#000000">1</text>
</a>
</g>
</g>
<!-- dir_0a8d7fd788ce6274650fdef0765535ce&#45;&gt;dir_2171f7ec022c5423887b07c69b2f5b48 -->
<g id="edge34" class="edge">
<title>dir_0a8d7fd788ce6274650fdef0765535ce&#45;&gt;dir_2171f7ec022c5423887b07c69b2f5b48</title>
<path fill="none" stroke="#000000" d="M464.0099,-431.9555C472.3746,-394.3144 491.7363,-307.1867 501.7501,-262.1246"/>
<polygon fill="#000000" stroke="#000000" points="505.215,-262.6662 503.9678,-252.1451 498.3817,-261.1477 505.215,-262.6662"/>
<g id="a_edge34&#45;headlabel"><a xlink:href="dir_000111_000076.html" target="_top" xlink:title="19">
<text text-anchor="middle" x="507.207" y="-264.2911" font-family="Helvetica,sans-Serif" font-size="10.00" fill="#000000">19</text>
</a>
</g>
</g>
<!-- dir_d0619917fd3ee0979a990dc471c60823 -->
<g id="node6" class="node">
<title>dir_d0619917fd3ee0979a990dc471c60823</title>
<g id="a_node6"><a xlink:href="dir_d0619917fd3ee0979a990dc471c60823.html" target="_top" xlink:title="workflow">
<polygon fill="#ffffff" stroke="#ff0000" points="359.5,-540 298.5,-540 298.5,-504 359.5,-504 359.5,-540"/>
<text text-anchor="middle" x="329" y="-519.5" font-family="Helvetica,sans-Serif" font-size="10.00" fill="#000000">workflow</text>
</a>
</g>
</g>
<!-- dir_d0619917fd3ee0979a990dc471c60823&#45;&gt;dir_0a8d7fd788ce6274650fdef0765535ce -->
<g id="edge7" class="edge">
<title>dir_d0619917fd3ee0979a990dc471c60823&#45;&gt;dir_0a8d7fd788ce6274650fdef0765535ce</title>
<path fill="none" stroke="#000000" d="M359.7137,-505.1192C378.6009,-494.7385 402.9243,-481.3699 422.8864,-470.3983"/>
<polygon fill="#000000" stroke="#000000" points="424.6383,-473.4293 431.7161,-465.5454 421.2667,-467.2948 424.6383,-473.4293"/>
<g id="a_edge7&#45;headlabel"><a xlink:href="dir_000401_000111.html" target="_top" xlink:title="13">
<text text-anchor="middle" x="422.8557" y="-475.1488" font-family="Helvetica,sans-Serif" font-size="10.00" fill="#000000">13</text>
</a>
</g>
</g>
<!-- dir_d0619917fd3ee0979a990dc471c60823&#45;&gt;dir_4ab6b4cc6a7edbff49100e9123df213f -->
<g id="edge4" class="edge">
<title>dir_d0619917fd3ee0979a990dc471c60823&#45;&gt;dir_4ab6b4cc6a7edbff49100e9123df213f</title>
<path fill="none" stroke="#000000" d="M359.7675,-513.7044C371.4166,-510.6033 384.8061,-507.0866 397,-504 463.0447,-487.2823 492.6893,-510.4188 546,-468 565.6462,-452.3677 577.4163,-425.9219 583.9617,-405.731"/>
<polygon fill="#000000" stroke="#000000" points="587.3253,-406.699 586.8446,-396.1151 580.6202,-404.6887 587.3253,-406.699"/>
<g id="a_edge4&#45;headlabel"><a xlink:href="dir_000401_000027.html" target="_top" xlink:title="4">
<text text-anchor="middle" x="589.0128" y="-408.4576" font-family="Helvetica,sans-Serif" font-size="10.00" fill="#000000">4</text>
</a>
</g>
</g>
<!-- dir_d0619917fd3ee0979a990dc471c60823&#45;&gt;dir_37c90836491b695b472bf98d1be8336b -->
<g id="edge5" class="edge">
<title>dir_d0619917fd3ee0979a990dc471c60823&#45;&gt;dir_37c90836491b695b472bf98d1be8336b</title>
<path fill="none" stroke="#000000" d="M298.4079,-513.8593C223.6948,-493.0798 38,-435.6363 38,-378 38,-378 38,-378 38,-234 38,-163.3613 103.7814,-171.136 169,-144 253.5885,-108.8047 361.8224,-96.3761 417.7753,-92.1198"/>
<polygon fill="#000000" stroke="#000000" points="418.1967,-95.5987 427.9218,-91.3948 417.6978,-88.6165 418.1967,-95.5987"/>
<g id="a_edge5&#45;headlabel"><a xlink:href="dir_000401_000274.html" target="_top" xlink:title="4">
<text text-anchor="middle" x="414.8136" y="-96.1869" font-family="Helvetica,sans-Serif" font-size="10.00" fill="#000000">4</text>
</a>
</g>
</g>
<!-- dir_d0619917fd3ee0979a990dc471c60823&#45;&gt;dir_85bf31a2e8d306e7598ffcb73f8df6bf -->
<g id="edge6" class="edge">
<title>dir_d0619917fd3ee0979a990dc471c60823&#45;&gt;dir_85bf31a2e8d306e7598ffcb73f8df6bf</title>
<path fill="none" stroke="#000000" d="M298.4649,-511.3747C255.4606,-494.5452 178.7604,-457.2363 147,-396 110.1393,-324.9298 106.1225,-280.1672 154,-216 170.441,-193.9652 198.4131,-180.2911 221.6341,-172.2171"/>
<polygon fill="#000000" stroke="#000000" points="222.8197,-175.5121 231.2476,-169.0917 220.6554,-168.8551 222.8197,-175.5121"/>
<g id="a_edge6&#45;headlabel"><a xlink:href="dir_000401_000061.html" target="_top" xlink:title="5">
<text text-anchor="middle" x="220.2791" y="-176.8236" font-family="Helvetica,sans-Serif" font-size="10.00" fill="#000000">5</text>
</a>
</g>
</g>
<!-- dir_d0619917fd3ee0979a990dc471c60823&#45;&gt;dir_bcbb2cf9a3d3d83e5515c82071a07177 -->
<g id="edge8" class="edge">
<title>dir_d0619917fd3ee0979a990dc471c60823&#45;&gt;dir_bcbb2cf9a3d3d83e5515c82071a07177</title>
<path fill="none" stroke="#000000" d="M298.2871,-517.6142C240.8329,-509.0286 119.5973,-489.001 83,-468 35.8053,-440.9178 0,-432.4131 0,-378 0,-378 0,-378 0,-162 0,-47.2352 417.8271,-23.7615 558.4467,-19.1112"/>
<polygon fill="#000000" stroke="#000000" points="558.5868,-22.6086 568.472,-18.7963 558.367,-15.6121 558.5868,-22.6086"/>
<g id="a_edge8&#45;headlabel"><a xlink:href="dir_000401_000013.html" target="_top" xlink:title="31">
<text text-anchor="middle" x="555.0831" y="-23.0593" font-family="Helvetica,sans-Serif" font-size="10.00" fill="#000000">31</text>
</a>
</g>
</g>
<!-- dir_d0619917fd3ee0979a990dc471c60823&#45;&gt;dir_2171f7ec022c5423887b07c69b2f5b48 -->
<g id="edge9" class="edge">
<title>dir_d0619917fd3ee0979a990dc471c60823&#45;&gt;dir_2171f7ec022c5423887b07c69b2f5b48</title>
<path fill="none" stroke="#000000" d="M359.6057,-513.1411C406.8762,-499.3209 492.6934,-473.6254 497,-468 543.4278,-407.3546 527.658,-309.7607 515.9599,-262.0636"/>
<polygon fill="#000000" stroke="#000000" points="519.2867,-260.9471 513.4042,-252.1353 512.5077,-262.6922 519.2867,-260.9471"/>
<g id="a_edge9&#45;headlabel"><a xlink:href="dir_000401_000076.html" target="_top" xlink:title="32">
<text text-anchor="middle" x="522.9323" y="-261.2205" font-family="Helvetica,sans-Serif" font-size="10.00" fill="#000000">32</text>
</a>
</g>
</g>
<!-- dir_4ab6b4cc6a7edbff49100e9123df213f&#45;&gt;dir_f511f1e9c03c071966ae594f00bbc5e0 -->
<g id="edge10" class="edge">
<title>dir_4ab6b4cc6a7edbff49100e9123df213f&#45;&gt;dir_f511f1e9c03c071966ae594f00bbc5e0</title>
<path fill="none" stroke="#000000" d="M598.1694,-359.8314C603.3505,-351.5386 610.3654,-341.557 617.3603,-332.4533"/>
<polygon fill="#000000" stroke="#000000" points="620.2625,-334.4262 623.7255,-324.4133 614.7742,-330.0812 620.2625,-334.4262"/>
<g id="a_edge10&#45;headlabel"><a xlink:href="dir_000027_000685.html" target="_top" xlink:title="3">
<text text-anchor="middle" x="620.2574" y="-336.5068" font-family="Helvetica,sans-Serif" font-size="10.00" fill="#000000">3</text>
</a>
</g>
</g>
<!-- dir_4ab6b4cc6a7edbff49100e9123df213f&#45;&gt;dir_bcbb2cf9a3d3d83e5515c82071a07177 -->
<g id="edge11" class="edge">
<title>dir_4ab6b4cc6a7edbff49100e9123df213f&#45;&gt;dir_bcbb2cf9a3d3d83e5515c82071a07177</title>
<path fill="none" stroke="#000000" d="M621.666,-374.0248C652.403,-368.4954 698.3457,-355.3203 724,-324 744.5568,-298.903 733.3242,-284.3309 736,-252 742.639,-171.782 764.3611,-136.3445 716,-72 699.7342,-50.3584 672.8516,-37.2025 649.4257,-29.3039"/>
<polygon fill="#000000" stroke="#000000" points="650.228,-25.8874 639.6387,-26.2313 648.1312,-32.566 650.228,-25.8874"/>
<g id="a_edge11&#45;headlabel"><a xlink:href="dir_000027_000013.html" target="_top" xlink:title="2">
<text text-anchor="middle" x="654.508" y="-21.7551" font-family="Helvetica,sans-Serif" font-size="10.00" fill="#000000">2</text>
</a>
</g>
</g>
<!-- dir_4ab6b4cc6a7edbff49100e9123df213f&#45;&gt;dir_2171f7ec022c5423887b07c69b2f5b48 -->
<g id="edge12" class="edge">
<title>dir_4ab6b4cc6a7edbff49100e9123df213f&#45;&gt;dir_2171f7ec022c5423887b07c69b2f5b48</title>
<path fill="none" stroke="#000000" d="M576.2055,-359.9924C565.5027,-341.5181 551.4224,-312.1462 537,-288 531.5028,-278.7965 524.9511,-269.1112 519.2875,-260.5242"/>
<polygon fill="#000000" stroke="#000000" points="522.1643,-258.5275 513.7883,-252.0395 516.2901,-262.3347 522.1643,-258.5275"/>
<g id="a_edge12&#45;headlabel"><a xlink:href="dir_000027_000076.html" target="_top" xlink:title="2">
<text text-anchor="middle" x="526.5019" y="-257.4998" font-family="Helvetica,sans-Serif" font-size="10.00" fill="#000000">2</text>
</a>
</g>
</g>
<!-- dir_37c90836491b695b472bf98d1be8336b&#45;&gt;dir_4ab6b4cc6a7edbff49100e9123df213f -->
<g id="edge20" class="edge">
<title>dir_37c90836491b695b472bf98d1be8336b&#45;&gt;dir_4ab6b4cc6a7edbff49100e9123df213f</title>
<path fill="none" stroke="#000000" d="M482.3928,-103.4895C533.2167,-130.316 640.4463,-195.8235 679,-288 685.1739,-302.7609 686.8137,-310.0377 679,-324 668.6385,-342.515 649.0454,-355.453 630.9727,-364.0129"/>
<polygon fill="#000000" stroke="#000000" points="629.4536,-360.8575 621.7174,-368.0964 632.2793,-367.2618 629.4536,-360.8575"/>
<g id="a_edge20&#45;headlabel"><a xlink:href="dir_000274_000027.html" target="_top" xlink:title="16">
<text text-anchor="middle" x="631.5962" y="-354.3089" font-family="Helvetica,sans-Serif" font-size="10.00" fill="#000000">16</text>
</a>
</g>
</g>
<!-- dir_37c90836491b695b472bf98d1be8336b&#45;&gt;dir_f511f1e9c03c071966ae594f00bbc5e0 -->
<g id="edge21" class="edge">
<title>dir_37c90836491b695b472bf98d1be8336b&#45;&gt;dir_f511f1e9c03c071966ae594f00bbc5e0</title>
<path fill="none" stroke="#000000" d="M471.9096,-108.3802C481.4111,-118.7716 493.4462,-132.0399 504,-144 545.8659,-191.4448 593.7184,-247.6656 620.9482,-279.8506"/>
<polygon fill="#000000" stroke="#000000" points="618.6065,-282.5021 627.7351,-287.8798 623.9525,-277.9831 618.6065,-282.5021"/>
<g id="a_edge21&#45;headlabel"><a xlink:href="dir_000274_000685.html" target="_top" xlink:title="14">
<text text-anchor="middle" x="614.1177" y="-279.0897" font-family="Helvetica,sans-Serif" font-size="10.00" fill="#000000">14</text>
</a>
</g>
</g>
<!-- dir_37c90836491b695b472bf98d1be8336b&#45;&gt;dir_bcbb2cf9a3d3d83e5515c82071a07177 -->
<g id="edge22" class="edge">
<title>dir_37c90836491b695b472bf98d1be8336b&#45;&gt;dir_bcbb2cf9a3d3d83e5515c82071a07177</title>
<path fill="none" stroke="#000000" d="M482.3289,-76.7941C503.7839,-66.4266 534.1057,-51.7744 559.1116,-39.691"/>
<polygon fill="#000000" stroke="#000000" points="560.9244,-42.7023 568.4055,-35.2 557.8788,-36.3996 560.9244,-42.7023"/>
<g id="a_edge22&#45;headlabel"><a xlink:href="dir_000274_000013.html" target="_top" xlink:title="1">
<text text-anchor="middle" x="558.9232" y="-44.3227" font-family="Helvetica,sans-Serif" font-size="10.00" fill="#000000">1</text>
</a>
</g>
</g>
<!-- dir_37c90836491b695b472bf98d1be8336b&#45;&gt;dir_2171f7ec022c5423887b07c69b2f5b48 -->
<g id="edge23" class="edge">
<title>dir_37c90836491b695b472bf98d1be8336b&#45;&gt;dir_2171f7ec022c5423887b07c69b2f5b48</title>
<path fill="none" stroke="#000000" d="M466.3163,-108.0896C477.8466,-132.6805 494.3988,-176.905 503.124,-205.8531"/>
<polygon fill="#000000" stroke="#000000" points="499.8437,-207.1117 505.9607,-215.7623 506.5734,-205.1852 499.8437,-207.1117"/>
<g id="a_edge23&#45;headlabel"><a xlink:href="dir_000274_000076.html" target="_top" xlink:title="12">
<text text-anchor="middle" x="496.1248" y="-201.9373" font-family="Helvetica,sans-Serif" font-size="10.00" fill="#000000">12</text>
</a>
</g>
</g>
<!-- dir_85bf31a2e8d306e7598ffcb73f8df6bf&#45;&gt;dir_4ab6b4cc6a7edbff49100e9123df213f -->
<g id="edge24" class="edge">
<title>dir_85bf31a2e8d306e7598ffcb73f8df6bf&#45;&gt;dir_4ab6b4cc6a7edbff49100e9123df213f</title>
<path fill="none" stroke="#000000" d="M288.7216,-180.1451C348.3089,-219.1477 488.5581,-310.9471 554.95,-354.4037"/>
<polygon fill="#000000" stroke="#000000" points="553.1481,-357.4073 563.432,-359.9555 556.9818,-351.5504 553.1481,-357.4073"/>
<g id="a_edge24&#45;headlabel"><a xlink:href="dir_000061_000027.html" target="_top" xlink:title="21">
<text text-anchor="middle" x="548.5856" y="-355.3143" font-family="Helvetica,sans-Serif" font-size="10.00" fill="#000000">21</text>
</a>
</g>
</g>
<!-- dir_85bf31a2e8d306e7598ffcb73f8df6bf&#45;&gt;dir_37c90836491b695b472bf98d1be8336b -->
<g id="edge25" class="edge">
<title>dir_85bf31a2e8d306e7598ffcb73f8df6bf&#45;&gt;dir_37c90836491b695b472bf98d1be8336b</title>
<path fill="none" stroke="#000000" d="M290.7533,-149.627C295.505,-147.7092 300.3776,-145.7766 305,-144 343.2988,-129.2801 387.5406,-113.5005 418.0001,-102.8244"/>
<polygon fill="#000000" stroke="#000000" points="419.488,-106.012 427.773,-99.4083 417.1782,-99.4041 419.488,-106.012"/>
<g id="a_edge25&#45;headlabel"><a xlink:href="dir_000061_000274.html" target="_top" xlink:title="2">
<text text-anchor="middle" x="417.0316" y="-107.3783" font-family="Helvetica,sans-Serif" font-size="10.00" fill="#000000">2</text>
</a>
</g>
</g>
<!-- dir_85bf31a2e8d306e7598ffcb73f8df6bf&#45;&gt;dir_bcbb2cf9a3d3d83e5515c82071a07177 -->
<g id="edge26" class="edge">
<title>dir_85bf31a2e8d306e7598ffcb73f8df6bf&#45;&gt;dir_bcbb2cf9a3d3d83e5515c82071a07177</title>
<path fill="none" stroke="#000000" d="M288.2415,-143.8537C318.9544,-124.0301 370.8964,-92.3885 419,-72 465.094,-52.4633 520.506,-37.3167 558.5967,-28.1026"/>
<polygon fill="#000000" stroke="#000000" points="559.4563,-31.4958 568.3742,-25.7756 557.8356,-24.686 559.4563,-31.4958"/>
<g id="a_edge26&#45;headlabel"><a xlink:href="dir_000061_000013.html" target="_top" xlink:title="32">
<text text-anchor="middle" x="556.6167" y="-32.5901" font-family="Helvetica,sans-Serif" font-size="10.00" fill="#000000">32</text>
</a>
</g>
</g>
<!-- dir_85bf31a2e8d306e7598ffcb73f8df6bf&#45;&gt;dir_26637d1bd82229bc9ed97f7e706be743 -->
<g id="edge27" class="edge">
<title>dir_85bf31a2e8d306e7598ffcb73f8df6bf&#45;&gt;dir_26637d1bd82229bc9ed97f7e706be743</title>
<path fill="none" stroke="#000000" d="M290.7563,-156.9943C366.8382,-144.1954 568.3392,-110.2981 651.8907,-96.2427"/>
<polygon fill="#000000" stroke="#000000" points="652.6641,-99.6618 661.9449,-94.5513 651.5028,-92.7588 652.6641,-99.6618"/>
<g id="a_edge27&#45;headlabel"><a xlink:href="dir_000061_000576.html" target="_top" xlink:title="7">
<text text-anchor="middle" x="649.5903" y="-100.558" font-family="Helvetica,sans-Serif" font-size="10.00" fill="#000000">7</text>
</a>
</g>
</g>
<!-- dir_85bf31a2e8d306e7598ffcb73f8df6bf&#45;&gt;dir_2171f7ec022c5423887b07c69b2f5b48 -->
<g id="edge28" class="edge">
<title>dir_85bf31a2e8d306e7598ffcb73f8df6bf&#45;&gt;dir_2171f7ec022c5423887b07c69b2f5b48</title>
<path fill="none" stroke="#000000" d="M290.6451,-168.2779C328.5044,-177.509 395.4981,-195.5728 458.2536,-214.5806"/>
<polygon fill="#000000" stroke="#000000" points="457.2942,-217.9471 467.8802,-217.5143 459.3348,-211.2512 457.2942,-217.9471"/>
<g id="a_edge28&#45;headlabel"><a xlink:href="dir_000061_000076.html" target="_top" xlink:title="70">
<text text-anchor="middle" x="453.028" y="-217.1153" font-family="Helvetica,sans-Serif" font-size="10.00" fill="#000000">70</text>
</a>
</g>
</g>
<!-- dir_f511f1e9c03c071966ae594f00bbc5e0&#45;&gt;dir_4ab6b4cc6a7edbff49100e9123df213f -->
<g id="edge39" class="edge">
<title>dir_f511f1e9c03c071966ae594f00bbc5e0&#45;&gt;dir_4ab6b4cc6a7edbff49100e9123df213f</title>
<path fill="none" stroke="#000000" d="M635.6775,-324.4133C630.4607,-332.7389 623.4281,-342.7282 616.4337,-351.8144"/>
<polygon fill="#000000" stroke="#000000" points="613.5469,-349.8218 610.0742,-359.8314 619.031,-354.1721 613.5469,-349.8218"/>
<g id="a_edge39&#45;headlabel"><a xlink:href="dir_000685_000027.html" target="_top" xlink:title="2">
<text text-anchor="middle" x="613.5564" y="-342.7412" font-family="Helvetica,sans-Serif" font-size="10.00" fill="#000000">2</text>
</a>
</g>
</g>
<!-- dir_f511f1e9c03c071966ae594f00bbc5e0&#45;&gt;dir_26637d1bd82229bc9ed97f7e706be743 -->
<g id="edge40" class="edge">
<title>dir_f511f1e9c03c071966ae594f00bbc5e0&#45;&gt;dir_26637d1bd82229bc9ed97f7e706be743</title>
<path fill="none" stroke="#000000" d="M642.8969,-287.9555C647.4642,-250.235 665.8275,-162.8188 678.3659,-117.8399"/>
<polygon fill="#000000" stroke="#000000" points="681.7536,-118.7244 681.1806,-108.1451 675.0312,-116.7726 681.7536,-118.7244"/>
<g id="a_edge40&#45;headlabel"><a xlink:href="dir_000685_000576.html" target="_top" xlink:title="1">
<text text-anchor="middle" x="683.4781" y="-120.4681" font-family="Helvetica,sans-Serif" font-size="10.00" fill="#000000">1</text>
</a>
</g>
</g>
<!-- dir_f511f1e9c03c071966ae594f00bbc5e0&#45;&gt;dir_2171f7ec022c5423887b07c69b2f5b48 -->
<g id="edge41" class="edge">
<title>dir_f511f1e9c03c071966ae594f00bbc5e0&#45;&gt;dir_2171f7ec022c5423887b07c69b2f5b48</title>
<path fill="none" stroke="#000000" d="M615.8688,-294.2717C595.4825,-284.2553 567.4993,-269.5465 545.085,-257.1671"/>
<polygon fill="#000000" stroke="#000000" points="546.6111,-254.0109 536.1719,-252.2013 543.2042,-260.1259 546.6111,-254.0109"/>
<g id="a_edge41&#45;headlabel"><a xlink:href="dir_000685_000076.html" target="_top" xlink:title="15">
<text text-anchor="middle" x="551.1331" y="-250.78" font-family="Helvetica,sans-Serif" font-size="10.00" fill="#000000">15</text>
</a>
</g>
</g>
<!-- dir_bcbb2cf9a3d3d83e5515c82071a07177&#45;&gt;dir_4ab6b4cc6a7edbff49100e9123df213f -->
<g id="edge42" class="edge">
<title>dir_bcbb2cf9a3d3d83e5515c82071a07177&#45;&gt;dir_4ab6b4cc6a7edbff49100e9123df213f</title>
<path fill="none" stroke="#000000" d="M639.7586,-22.6733C670.149,-28.8394 711.8861,-42.5775 734,-72 782.3611,-136.3445 760.639,-171.782 754,-252 751.3242,-284.3309 762.5568,-298.903 742,-324 715.3041,-356.592 666.6389,-369.5354 631.627,-374.6612"/>
<polygon fill="#000000" stroke="#000000" points="631.1531,-371.1933 621.6921,-375.9619 632.0619,-378.134 631.1531,-371.1933"/>
<g id="a_edge42&#45;headlabel"><a xlink:href="dir_000013_000027.html" target="_top" xlink:title="8">
<text text-anchor="middle" x="634.3487" y="-365.4114" font-family="Helvetica,sans-Serif" font-size="10.00" fill="#000000">8</text>
</a>
</g>
</g>
<!-- dir_bcbb2cf9a3d3d83e5515c82071a07177&#45;&gt;dir_2171f7ec022c5423887b07c69b2f5b48 -->
<g id="edge43" class="edge">
<title>dir_bcbb2cf9a3d3d83e5515c82071a07177&#45;&gt;dir_2171f7ec022c5423887b07c69b2f5b48</title>
<path fill="none" stroke="#000000" d="M599.8907,-36.1451C586.4907,-74.1129 547.6143,-162.1133 524.7287,-206.8447"/>
<polygon fill="#000000" stroke="#000000" points="521.497,-205.4719 519.9657,-215.9555 527.7004,-208.715 521.497,-205.4719"/>
<g id="a_edge43&#45;headlabel"><a xlink:href="dir_000013_000076.html" target="_top" xlink:title="82">
<text text-anchor="middle" x="520.6462" y="-198.4709" font-family="Helvetica,sans-Serif" font-size="10.00" fill="#000000">82</text>
</a>
</g>
</g>
<!-- dir_26637d1bd82229bc9ed97f7e706be743&#45;&gt;dir_4ab6b4cc6a7edbff49100e9123df213f -->
<g id="edge44" class="edge">
<title>dir_26637d1bd82229bc9ed97f7e706be743&#45;&gt;dir_4ab6b4cc6a7edbff49100e9123df213f</title>
<path fill="none" stroke="#000000" d="M697.9126,-108.2303C717.0099,-150.1696 756.6573,-255.1677 712,-324 694.3257,-351.2422 659.3514,-364.8601 631.5304,-371.5957"/>
<polygon fill="#000000" stroke="#000000" points="630.6592,-368.2037 621.6495,-373.7783 632.1691,-375.0389 630.6592,-368.2037"/>
<g id="a_edge44&#45;headlabel"><a xlink:href="dir_000576_000027.html" target="_top" xlink:title="10">
<text text-anchor="middle" x="633.5568" y="-362.156" font-family="Helvetica,sans-Serif" font-size="10.00" fill="#000000">10</text>
</a>
</g>
</g>
<!-- dir_26637d1bd82229bc9ed97f7e706be743&#45;&gt;dir_f511f1e9c03c071966ae594f00bbc5e0 -->
<g id="edge45" class="edge">
<title>dir_26637d1bd82229bc9ed97f7e706be743&#45;&gt;dir_f511f1e9c03c071966ae594f00bbc5e0</title>
<path fill="none" stroke="#000000" d="M689.0909,-108.1451C684.4991,-145.9537 666.1288,-233.3762 653.6007,-278.2797"/>
<polygon fill="#000000" stroke="#000000" points="650.2186,-277.376 650.7887,-287.9555 656.9405,-279.3296 650.2186,-277.376"/>
<g id="a_edge45&#45;headlabel"><a xlink:href="dir_000576_000685.html" target="_top" xlink:title="2">
<text text-anchor="middle" x="648.4952" y="-270.6319" font-family="Helvetica,sans-Serif" font-size="10.00" fill="#000000">2</text>
</a>
</g>
</g>
<!-- dir_26637d1bd82229bc9ed97f7e706be743&#45;&gt;dir_bcbb2cf9a3d3d83e5515c82071a07177 -->
<g id="edge46" class="edge">
<title>dir_26637d1bd82229bc9ed97f7e706be743&#45;&gt;dir_bcbb2cf9a3d3d83e5515c82071a07177</title>
<path fill="none" stroke="#000000" d="M667.5509,-71.8314C657.1822,-63.0485 644.5771,-52.3712 633.3354,-42.8489"/>
<polygon fill="#000000" stroke="#000000" points="635.3349,-39.9556 625.4422,-36.1628 630.8105,-45.297 635.3349,-39.9556"/>
<g id="a_edge46&#45;headlabel"><a xlink:href="dir_000576_000013.html" target="_top" xlink:title="25">
<text text-anchor="middle" x="639.9129" y="-37.6125" font-family="Helvetica,sans-Serif" font-size="10.00" fill="#000000">25</text>
</a>
</g>
</g>
<!-- dir_26637d1bd82229bc9ed97f7e706be743&#45;&gt;dir_2171f7ec022c5423887b07c69b2f5b48 -->
<g id="edge47" class="edge">
<title>dir_26637d1bd82229bc9ed97f7e706be743&#45;&gt;dir_2171f7ec022c5423887b07c69b2f5b48</title>
<path fill="none" stroke="#000000" d="M666.2624,-108.0896C634.1328,-133.6512 575.3383,-180.427 539.1627,-209.2076"/>
<polygon fill="#000000" stroke="#000000" points="536.5703,-206.7975 530.9238,-215.7623 540.9284,-212.2754 536.5703,-206.7975"/>
<g id="a_edge47&#45;headlabel"><a xlink:href="dir_000576_000076.html" target="_top" xlink:title="15">
<text text-anchor="middle" x="537.6156" y="-199.8377" font-family="Helvetica,sans-Serif" font-size="10.00" fill="#000000">15</text>
</a>
</g>
</g>
<!-- dir_2171f7ec022c5423887b07c69b2f5b48&#45;&gt;dir_4ab6b4cc6a7edbff49100e9123df213f -->
<g id="edge48" class="edge">
<title>dir_2171f7ec022c5423887b07c69b2f5b48&#45;&gt;dir_4ab6b4cc6a7edbff49100e9123df213f</title>
<path fill="none" stroke="#000000" d="M529.6422,-252.0395C538.2721,-262.3243 547.5932,-275.5995 555,-288 567.1689,-308.3734 579.0942,-332.467 586.2632,-350.5959"/>
<polygon fill="#000000" stroke="#000000" points="582.9845,-351.8208 589.728,-359.9924 589.5522,-349.399 582.9845,-351.8208"/>
<g id="a_edge48&#45;headlabel"><a xlink:href="dir_000076_000027.html" target="_top" xlink:title="35">
<text text-anchor="middle" x="579.077" y="-346.9304" font-family="Helvetica,sans-Serif" font-size="10.00" fill="#000000">35</text>
</a>
</g>
</g>
<!-- dir_2171f7ec022c5423887b07c69b2f5b48&#45;&gt;dir_37c90836491b695b472bf98d1be8336b -->
<g id="edge49" class="edge">
<title>dir_2171f7ec022c5423887b07c69b2f5b48&#45;&gt;dir_37c90836491b695b472bf98d1be8336b</title>
<path fill="none" stroke="#000000" d="M496.6143,-215.7623C485.064,-191.0928 468.5174,-146.8598 459.8236,-117.9731"/>
<polygon fill="#000000" stroke="#000000" points="463.1124,-116.7433 456.9997,-108.0896 456.3817,-118.6664 463.1124,-116.7433"/>
<g id="a_edge49&#45;headlabel"><a xlink:href="dir_000076_000274.html" target="_top" xlink:title="1">
<text text-anchor="middle" x="466.8298" y="-116.9196" font-family="Helvetica,sans-Serif" font-size="10.00" fill="#000000">1</text>
</a>
</g>
</g>
<!-- dir_2171f7ec022c5423887b07c69b2f5b48&#45;&gt;dir_85bf31a2e8d306e7598ffcb73f8df6bf -->
<g id="edge50" class="edge">
<title>dir_2171f7ec022c5423887b07c69b2f5b48&#45;&gt;dir_85bf31a2e8d306e7598ffcb73f8df6bf</title>
<path fill="none" stroke="#000000" d="M467.9281,-223.2696C460.2619,-220.8109 452.3699,-218.2579 445,-216 395.4339,-200.8148 338.1889,-185.0141 300.7668,-174.4579"/>
<polygon fill="#000000" stroke="#000000" points="301.3357,-170.9814 290.7604,-171.6244 299.4285,-177.7166 301.3357,-170.9814"/>
<g id="a_edge50&#45;headlabel"><a xlink:href="dir_000076_000061.html" target="_top" xlink:title="1">
<text text-anchor="middle" x="305.5678" y="-166.7288" font-family="Helvetica,sans-Serif" font-size="10.00" fill="#000000">1</text>
</a>
</g>
</g>
<!-- dir_2171f7ec022c5423887b07c69b2f5b48&#45;&gt;dir_f511f1e9c03c071966ae594f00bbc5e0 -->
<g id="edge51" class="edge">
<title>dir_2171f7ec022c5423887b07c69b2f5b48&#45;&gt;dir_f511f1e9c03c071966ae594f00bbc5e0</title>
<path fill="none" stroke="#000000" d="M548.0473,-252.1832C566.6847,-261.6326 588.631,-273.2718 606.771,-283.306"/>
<polygon fill="#000000" stroke="#000000" points="605.4347,-286.5684 615.8724,-288.3868 608.8468,-280.4563 605.4347,-286.5684"/>
<g id="a_edge51&#45;headlabel"><a xlink:href="dir_000076_000685.html" target="_top" xlink:title="18">
<text text-anchor="middle" x="600.9121" y="-284.7954" font-family="Helvetica,sans-Serif" font-size="10.00" fill="#000000">18</text>
</a>
</g>
</g>
<!-- dir_2171f7ec022c5423887b07c69b2f5b48&#45;&gt;dir_bcbb2cf9a3d3d83e5515c82071a07177 -->
<g id="edge52" class="edge">
<title>dir_2171f7ec022c5423887b07c69b2f5b48&#45;&gt;dir_bcbb2cf9a3d3d83e5515c82071a07177</title>
<path fill="none" stroke="#000000" d="M512.0739,-215.9555C525.4288,-178.0762 564.2968,-90.0818 587.2106,-45.274"/>
<polygon fill="#000000" stroke="#000000" points="590.4515,-46.629 591.9804,-36.1451 584.2473,-43.3873 590.4515,-46.629"/>
<g id="a_edge52&#45;headlabel"><a xlink:href="dir_000076_000013.html" target="_top" xlink:title="11">
<text text-anchor="middle" x="591.3034" y="-48.6298" font-family="Helvetica,sans-Serif" font-size="10.00" fill="#000000">11</text>
</a>
</g>
</g>
</g>
</svg>
