<?xml version="1.0" encoding="UTF-8" standalone="no"?>
<!DOCTYPE svg PUBLIC "-//W3C//DTD SVG 1.1//EN"
 "http://www.w3.org/Graphics/SVG/1.1/DTD/svg11.dtd">
<!-- Generated by graphviz version 2.40.1 (20161225.0304)
 -->
<!-- Title: /home/travis/build/AliceO2Group/AliceO2/Detectors/ITSMFT/common/workflow Pages: 1 -->
<svg width="372pt" height="519pt"
 viewBox="0.00 0.00 372.00 519.00" xmlns="http://www.w3.org/2000/svg" xmlns:xlink="http://www.w3.org/1999/xlink">
<g id="graph0" class="graph" transform="scale(1 1) rotate(0) translate(4 515)">
<title>/home/travis/build/AliceO2Group/AliceO2/Detectors/ITSMFT/common/workflow</title>
<g id="clust1" class="cluster">
<title>clusterdir_85bf31a2e8d306e7598ffcb73f8df6bf</title>
<g id="a_clust1"><a xlink:href="dir_85bf31a2e8d306e7598ffcb73f8df6bf.html" target="_top" xlink:title="common">
<polygon fill="#ddddee" stroke="#000000" points="190,-344 190,-503 356,-503 356,-344 190,-344"/>
<text text-anchor="middle" x="273" y="-491" font-family="Helvetica,sans-Serif" font-size="10.00" fill="#000000">common</text>
</a>
</g>
</g>
<g id="clust2" class="cluster">
<title>clusterdir_cd7d5e2598ca22d0234e65e7e58f6fe3</title>
<g id="a_clust2"><a xlink:href="dir_cd7d5e2598ca22d0234e65e7e58f6fe3.html" target="_top">
<polygon fill="#eeeeff" stroke="#000000" points="198,-352 198,-476 348,-476 348,-352 198,-352"/>
</a>
</g>
</g>
<!-- dir_cd7d5e2598ca22d0234e65e7e58f6fe3 -->
<g id="node1" class="node">
<title>dir_cd7d5e2598ca22d0234e65e7e58f6fe3</title>
<text text-anchor="middle" x="309" y="-447.5" font-family="Helvetica,sans-Serif" font-size="10.00" fill="#000000">workflow</text>
</g>
<!-- dir_ddb3898f7e3847431eff59fd5513b916 -->
<g id="node2" class="node">
<title>dir_ddb3898f7e3847431eff59fd5513b916</title>
<g id="a_node2"><a xlink:href="dir_ddb3898f7e3847431eff59fd5513b916.html" target="_top" xlink:title="include">
<polygon fill="#ffffff" stroke="#ff0000" points="328,-396 274,-396 274,-360 328,-360 328,-396"/>
<text text-anchor="middle" x="301" y="-375.5" font-family="Helvetica,sans-Serif" font-size="10.00" fill="#000000">include</text>
</a>
</g>
</g>
<!-- dir_2174d8cbbd82d5c404dd04814f845a3a -->
<g id="node4" class="node">
<title>dir_2174d8cbbd82d5c404dd04814f845a3a</title>
<g id="a_node4"><a xlink:href="dir_2174d8cbbd82d5c404dd04814f845a3a.html" target="_top" xlink:title="reconstruction">
<polygon fill="none" stroke="#ff0000" points="218,-324 132,-324 132,-288 218,-288 218,-324"/>
<text text-anchor="middle" x="175" y="-303.5" font-family="Helvetica,sans-Serif" font-size="10.00" fill="#000000">reconstruction</text>
</a>
</g>
</g>
<!-- dir_ddb3898f7e3847431eff59fd5513b916&#45;&gt;dir_2174d8cbbd82d5c404dd04814f845a3a -->
<g id="edge1" class="edge">
<title>dir_ddb3898f7e3847431eff59fd5513b916&#45;&gt;dir_2174d8cbbd82d5c404dd04814f845a3a</title>
<path fill="none" stroke="#000000" d="M273.9698,-362.5542C256.9904,-352.8517 234.7688,-340.1536 215.6845,-329.2483"/>
<polygon fill="#000000" stroke="#000000" points="217.3057,-326.1436 206.8867,-324.221 213.8327,-332.2213 217.3057,-326.1436"/>
<g id="a_edge1&#45;headlabel"><a xlink:href="dir_000491_000361.html" target="_top" xlink:title="3">
<text text-anchor="middle" x="221.8353" y="-322.9618" font-family="Helvetica,sans-Serif" font-size="10.00" fill="#000000">3</text>
</a>
</g>
</g>
<!-- dir_bcbb2cf9a3d3d83e5515c82071a07177 -->
<g id="node7" class="node">
<title>dir_bcbb2cf9a3d3d83e5515c82071a07177</title>
<g id="a_node7"><a xlink:href="dir_bcbb2cf9a3d3d83e5515c82071a07177.html" target="_top" xlink:title="Framework">
<polygon fill="none" stroke="#ff0000" points="269.5,-180 198.5,-180 198.5,-144 269.5,-144 269.5,-180"/>
<text text-anchor="middle" x="234" y="-159.5" font-family="Helvetica,sans-Serif" font-size="10.00" fill="#000000">Framework</text>
</a>
</g>
</g>
<!-- dir_ddb3898f7e3847431eff59fd5513b916&#45;&gt;dir_bcbb2cf9a3d3d83e5515c82071a07177 -->
<g id="edge2" class="edge">
<title>dir_ddb3898f7e3847431eff59fd5513b916&#45;&gt;dir_bcbb2cf9a3d3d83e5515c82071a07177</title>
<path fill="none" stroke="#000000" d="M297.6111,-359.6638C291.7156,-329.2571 278.4173,-266.7217 260,-216 256.7489,-207.0464 252.4981,-197.591 248.3784,-189.1375"/>
<polygon fill="#000000" stroke="#000000" points="251.4563,-187.4674 243.843,-180.0993 245.1998,-190.6069 251.4563,-187.4674"/>
<g id="a_edge2&#45;headlabel"><a xlink:href="dir_000491_000013.html" target="_top" xlink:title="9">
<text text-anchor="middle" x="255.6061" y="-186.9068" font-family="Helvetica,sans-Serif" font-size="10.00" fill="#000000">9</text>
</a>
</g>
</g>
<!-- dir_2171f7ec022c5423887b07c69b2f5b48 -->
<g id="node8" class="node">
<title>dir_2171f7ec022c5423887b07c69b2f5b48</title>
<g id="a_node8"><a xlink:href="dir_2171f7ec022c5423887b07c69b2f5b48.html" target="_top" xlink:title="DataFormats">
<polygon fill="none" stroke="#ff0000" points="210,-108 130,-108 130,-72 210,-72 210,-108"/>
<text text-anchor="middle" x="170" y="-87.5" font-family="Helvetica,sans-Serif" font-size="10.00" fill="#000000">DataFormats</text>
</a>
</g>
</g>
<!-- dir_ddb3898f7e3847431eff59fd5513b916&#45;&gt;dir_2171f7ec022c5423887b07c69b2f5b48 -->
<g id="edge3" class="edge">
<title>dir_ddb3898f7e3847431eff59fd5513b916&#45;&gt;dir_2171f7ec022c5423887b07c69b2f5b48</title>
<path fill="none" stroke="#000000" d="M304.9998,-359.7468C313.1929,-317.3049 327.2947,-210.5418 279,-144 264.7468,-124.3615 241.3297,-111.4734 219.8464,-103.2323"/>
<polygon fill="#000000" stroke="#000000" points="220.7462,-99.8371 210.1516,-99.7653 218.389,-106.4283 220.7462,-99.8371"/>
<g id="a_edge3&#45;headlabel"><a xlink:href="dir_000491_000076.html" target="_top" xlink:title="8">
<text text-anchor="middle" x="225.0869" y="-95.874" font-family="Helvetica,sans-Serif" font-size="10.00" fill="#000000">8</text>
</a>
</g>
</g>
<!-- dir_98223cd4f657b249d6dd7fcd39e2d94b -->
<g id="node3" class="node">
<title>dir_98223cd4f657b249d6dd7fcd39e2d94b</title>
<g id="a_node3"><a xlink:href="dir_98223cd4f657b249d6dd7fcd39e2d94b.html" target="_top" xlink:title="src">
<polygon fill="#ffffff" stroke="#000000" points="260,-468 206,-468 206,-432 260,-432 260,-468"/>
<text text-anchor="middle" x="233" y="-447.5" font-family="Helvetica,sans-Serif" font-size="10.00" fill="#000000">src</text>
</a>
</g>
</g>
<!-- dir_98223cd4f657b249d6dd7fcd39e2d94b&#45;&gt;dir_ddb3898f7e3847431eff59fd5513b916 -->
<g id="edge12" class="edge">
<title>dir_98223cd4f657b249d6dd7fcd39e2d94b&#45;&gt;dir_ddb3898f7e3847431eff59fd5513b916</title>
<path fill="none" stroke="#000000" d="M250.1593,-431.8314C258.1511,-423.3694 267.8038,-413.1489 276.5416,-403.8971"/>
<polygon fill="#000000" stroke="#000000" points="279.288,-406.0866 283.6097,-396.4133 274.1989,-401.2802 279.288,-406.0866"/>
<g id="a_edge12&#45;headlabel"><a xlink:href="dir_000493_000491.html" target="_top" xlink:title="8">
<text text-anchor="middle" x="278.884" y="-408.1494" font-family="Helvetica,sans-Serif" font-size="10.00" fill="#000000">8</text>
</a>
</g>
</g>
<!-- dir_98223cd4f657b249d6dd7fcd39e2d94b&#45;&gt;dir_2174d8cbbd82d5c404dd04814f845a3a -->
<g id="edge13" class="edge">
<title>dir_98223cd4f657b249d6dd7fcd39e2d94b&#45;&gt;dir_2174d8cbbd82d5c404dd04814f845a3a</title>
<path fill="none" stroke="#000000" d="M225.6543,-431.7623C215.6744,-406.9846 197.7454,-362.4714 186.1142,-333.5939"/>
<polygon fill="#000000" stroke="#000000" points="189.2688,-332.0578 182.2861,-324.0896 182.7757,-334.6731 189.2688,-332.0578"/>
<g id="a_edge13&#45;headlabel"><a xlink:href="dir_000493_000361.html" target="_top" xlink:title="6">
<text text-anchor="middle" x="193.2454" y="-331.8314" font-family="Helvetica,sans-Serif" font-size="10.00" fill="#000000">6</text>
</a>
</g>
</g>
<!-- dir_4ab6b4cc6a7edbff49100e9123df213f -->
<g id="node5" class="node">
<title>dir_4ab6b4cc6a7edbff49100e9123df213f</title>
<g id="a_node5"><a xlink:href="dir_4ab6b4cc6a7edbff49100e9123df213f.html" target="_top" xlink:title="Common">
<polygon fill="none" stroke="#ff0000" points="141.5,-252 80.5,-252 80.5,-216 141.5,-216 141.5,-252"/>
<text text-anchor="middle" x="111" y="-231.5" font-family="Helvetica,sans-Serif" font-size="10.00" fill="#000000">Common</text>
</a>
</g>
</g>
<!-- dir_98223cd4f657b249d6dd7fcd39e2d94b&#45;&gt;dir_4ab6b4cc6a7edbff49100e9123df213f -->
<g id="edge14" class="edge">
<title>dir_98223cd4f657b249d6dd7fcd39e2d94b&#45;&gt;dir_4ab6b4cc6a7edbff49100e9123df213f</title>
<path fill="none" stroke="#000000" d="M210.5349,-431.7242C184.6957,-409.2979 143.2402,-368.7063 123,-324 114.1957,-304.5533 111.3482,-280.4959 110.6191,-262.1478"/>
<polygon fill="#000000" stroke="#000000" points="114.117,-262.0059 110.4055,-252.0824 107.1185,-262.1544 114.117,-262.0059"/>
<g id="a_edge14&#45;headlabel"><a xlink:href="dir_000493_000027.html" target="_top" xlink:title="4">
<text text-anchor="middle" x="117.0317" y="-263.0395" font-family="Helvetica,sans-Serif" font-size="10.00" fill="#000000">4</text>
</a>
</g>
</g>
<!-- dir_7c9998090bca7c4aa89c05dd66fe73f5 -->
<g id="node6" class="node">
<title>dir_7c9998090bca7c4aa89c05dd66fe73f5</title>
<g id="a_node6"><a xlink:href="dir_7c9998090bca7c4aa89c05dd66fe73f5.html" target="_top" xlink:title="base">
<polygon fill="none" stroke="#ff0000" points="103,-36 49,-36 49,0 103,0 103,-36"/>
<text text-anchor="middle" x="76" y="-15.5" font-family="Helvetica,sans-Serif" font-size="10.00" fill="#000000">base</text>
</a>
</g>
</g>
<!-- dir_98223cd4f657b249d6dd7fcd39e2d94b&#45;&gt;dir_7c9998090bca7c4aa89c05dd66fe73f5 -->
<g id="edge15" class="edge">
<title>dir_98223cd4f657b249d6dd7fcd39e2d94b&#45;&gt;dir_7c9998090bca7c4aa89c05dd66fe73f5</title>
<path fill="none" stroke="#000000" d="M205.8159,-446.2279C144.3531,-436.0122 0,-401.8199 0,-306 0,-306 0,-306 0,-162 0,-116.656 29.8384,-71.5999 52.1226,-44.2735"/>
<polygon fill="#000000" stroke="#000000" points="55.0006,-46.2889 58.7544,-36.3814 49.6415,-41.7856 55.0006,-46.2889"/>
<g id="a_edge15&#45;headlabel"><a xlink:href="dir_000493_000476.html" target="_top" xlink:title="1">
<text text-anchor="middle" x="54.8618" y="-48.3675" font-family="Helvetica,sans-Serif" font-size="10.00" fill="#000000">1</text>
</a>
</g>
</g>
<!-- dir_98223cd4f657b249d6dd7fcd39e2d94b&#45;&gt;dir_bcbb2cf9a3d3d83e5515c82071a07177 -->
<g id="edge16" class="edge">
<title>dir_98223cd4f657b249d6dd7fcd39e2d94b&#45;&gt;dir_bcbb2cf9a3d3d83e5515c82071a07177</title>
<path fill="none" stroke="#000000" d="M233.0626,-431.9843C233.2316,-383.2939 233.6986,-248.7961 233.9026,-190.0573"/>
<polygon fill="#000000" stroke="#000000" points="237.4026,-190.021 233.9375,-180.0089 230.4027,-189.9966 237.4026,-190.021"/>
<g id="a_edge16&#45;headlabel"><a xlink:href="dir_000493_000013.html" target="_top" xlink:title="16">
<text text-anchor="middle" x="240.2295" y="-191.1254" font-family="Helvetica,sans-Serif" font-size="10.00" fill="#000000">16</text>
</a>
</g>
</g>
<!-- dir_98223cd4f657b249d6dd7fcd39e2d94b&#45;&gt;dir_2171f7ec022c5423887b07c69b2f5b48 -->
<g id="edge17" class="edge">
<title>dir_98223cd4f657b249d6dd7fcd39e2d94b&#45;&gt;dir_2171f7ec022c5423887b07c69b2f5b48</title>
<path fill="none" stroke="#000000" d="M260.2101,-436.563C290.1225,-421.6886 334.3356,-399.3559 337,-396 362.6714,-363.6662 360,-347.2855 360,-306 360,-306 360,-306 360,-234 360,-163.7188 276.4064,-123.3175 220.1144,-104.0787"/>
<polygon fill="#000000" stroke="#000000" points="220.8872,-100.6482 210.2941,-100.8403 218.6949,-107.2961 220.8872,-100.6482"/>
<g id="a_edge17&#45;headlabel"><a xlink:href="dir_000493_000076.html" target="_top" xlink:title="14">
<text text-anchor="middle" x="225.1902" y="-96.5774" font-family="Helvetica,sans-Serif" font-size="10.00" fill="#000000">14</text>
</a>
</g>
</g>
<!-- dir_2174d8cbbd82d5c404dd04814f845a3a&#45;&gt;dir_4ab6b4cc6a7edbff49100e9123df213f -->
<g id="edge4" class="edge">
<title>dir_2174d8cbbd82d5c404dd04814f845a3a&#45;&gt;dir_4ab6b4cc6a7edbff49100e9123df213f</title>
<path fill="none" stroke="#000000" d="M158.8501,-287.8314C151.3283,-279.3694 142.2435,-269.1489 134.0196,-259.8971"/>
<polygon fill="#000000" stroke="#000000" points="136.627,-257.5621 127.3673,-252.4133 131.3951,-262.2127 136.627,-257.5621"/>
<g id="a_edge4&#45;headlabel"><a xlink:href="dir_000361_000027.html" target="_top" xlink:title="8">
<text text-anchor="middle" x="141.1372" y="-255.8624" font-family="Helvetica,sans-Serif" font-size="10.00" fill="#000000">8</text>
</a>
</g>
</g>
<!-- dir_2174d8cbbd82d5c404dd04814f845a3a&#45;&gt;dir_7c9998090bca7c4aa89c05dd66fe73f5 -->
<g id="edge5" class="edge">
<title>dir_2174d8cbbd82d5c404dd04814f845a3a&#45;&gt;dir_7c9998090bca7c4aa89c05dd66fe73f5</title>
<path fill="none" stroke="#000000" d="M131.8116,-295.2202C109.5101,-287.2248 84.2569,-273.8208 71,-252 31.5743,-187.1055 52.3703,-92.2689 66.4774,-45.7803"/>
<polygon fill="#000000" stroke="#000000" points="69.8618,-46.6858 69.5345,-36.096 63.1865,-44.5785 69.8618,-46.6858"/>
<g id="a_edge5&#45;headlabel"><a xlink:href="dir_000361_000476.html" target="_top" xlink:title="4">
<text text-anchor="middle" x="71.4874" y="-48.4683" font-family="Helvetica,sans-Serif" font-size="10.00" fill="#000000">4</text>
</a>
</g>
</g>
<!-- dir_2174d8cbbd82d5c404dd04814f845a3a&#45;&gt;dir_bcbb2cf9a3d3d83e5515c82071a07177 -->
<g id="edge6" class="edge">
<title>dir_2174d8cbbd82d5c404dd04814f845a3a&#45;&gt;dir_bcbb2cf9a3d3d83e5515c82071a07177</title>
<path fill="none" stroke="#000000" d="M182.4724,-287.7623C192.6243,-262.9846 210.8624,-218.4714 222.6942,-189.5939"/>
<polygon fill="#000000" stroke="#000000" points="226.0356,-190.67 226.5883,-180.0896 219.5582,-188.0161 226.0356,-190.67"/>
<g id="a_edge6&#45;headlabel"><a xlink:href="dir_000361_000013.html" target="_top" xlink:title="6">
<text text-anchor="middle" x="227.3001" y="-192.5727" font-family="Helvetica,sans-Serif" font-size="10.00" fill="#000000">6</text>
</a>
</g>
</g>
<!-- dir_2174d8cbbd82d5c404dd04814f845a3a&#45;&gt;dir_2171f7ec022c5423887b07c69b2f5b48 -->
<g id="edge7" class="edge">
<title>dir_2174d8cbbd82d5c404dd04814f845a3a&#45;&gt;dir_2171f7ec022c5423887b07c69b2f5b48</title>
<path fill="none" stroke="#000000" d="M174.5823,-287.9555C173.7128,-250.3938 171.7026,-163.5541 170.6576,-118.4103"/>
<polygon fill="#000000" stroke="#000000" points="174.1506,-118.0614 170.42,-108.1451 167.1525,-118.2234 174.1506,-118.0614"/>
<g id="a_edge7&#45;headlabel"><a xlink:href="dir_000361_000076.html" target="_top" xlink:title="36">
<text text-anchor="middle" x="177.0722" y="-119.0893" font-family="Helvetica,sans-Serif" font-size="10.00" fill="#000000">36</text>
</a>
</g>
</g>
<!-- dir_4ab6b4cc6a7edbff49100e9123df213f&#45;&gt;dir_bcbb2cf9a3d3d83e5515c82071a07177 -->
<g id="edge8" class="edge">
<title>dir_4ab6b4cc6a7edbff49100e9123df213f&#45;&gt;dir_bcbb2cf9a3d3d83e5515c82071a07177</title>
<path fill="none" stroke="#000000" d="M136.0857,-215.8314C151.4009,-206.324 171.3155,-194.5968 189.2219,-184.5177"/>
<polygon fill="#000000" stroke="#000000" points="191.3384,-187.3449 198.3677,-179.4177 187.9292,-181.2312 191.3384,-187.3449"/>
<g id="a_edge8&#45;headlabel"><a xlink:href="dir_000027_000013.html" target="_top" xlink:title="2">
<text text-anchor="middle" x="189.5818" y="-189.0753" font-family="Helvetica,sans-Serif" font-size="10.00" fill="#000000">2</text>
</a>
</g>
</g>
<!-- dir_4ab6b4cc6a7edbff49100e9123df213f&#45;&gt;dir_2171f7ec022c5423887b07c69b2f5b48 -->
<g id="edge9" class="edge">
<title>dir_4ab6b4cc6a7edbff49100e9123df213f&#45;&gt;dir_2171f7ec022c5423887b07c69b2f5b48</title>
<path fill="none" stroke="#000000" d="M113.7992,-215.7623C121.5032,-190.8764 139.6072,-146.0822 153.4283,-117.2165"/>
<polygon fill="#000000" stroke="#000000" points="156.6453,-118.6063 157.93,-108.0896 150.3674,-115.5098 156.6453,-118.6063"/>
<g id="a_edge9&#45;headlabel"><a xlink:href="dir_000027_000076.html" target="_top" xlink:title="2">
<text text-anchor="middle" x="157.6016" y="-120.586" font-family="Helvetica,sans-Serif" font-size="10.00" fill="#000000">2</text>
</a>
</g>
</g>
<!-- dir_7c9998090bca7c4aa89c05dd66fe73f5&#45;&gt;dir_4ab6b4cc6a7edbff49100e9123df213f -->
<g id="edge10" class="edge">
<title>dir_7c9998090bca7c4aa89c05dd66fe73f5&#45;&gt;dir_4ab6b4cc6a7edbff49100e9123df213f</title>
<path fill="none" stroke="#000000" d="M78.9402,-36.1451C85.0537,-73.8741 99.1726,-161.0083 106.4622,-205.9956"/>
<polygon fill="#000000" stroke="#000000" points="103.0216,-206.6441 108.0761,-215.9555 109.9315,-205.5244 103.0216,-206.6441"/>
<g id="a_edge10&#45;headlabel"><a xlink:href="dir_000476_000027.html" target="_top" xlink:title="4">
<text text-anchor="middle" x="99.644" y="-201.0499" font-family="Helvetica,sans-Serif" font-size="10.00" fill="#000000">4</text>
</a>
</g>
</g>
<!-- dir_7c9998090bca7c4aa89c05dd66fe73f5&#45;&gt;dir_2171f7ec022c5423887b07c69b2f5b48 -->
<g id="edge11" class="edge">
<title>dir_7c9998090bca7c4aa89c05dd66fe73f5&#45;&gt;dir_2171f7ec022c5423887b07c69b2f5b48</title>
<path fill="none" stroke="#000000" d="M103.2345,-34.4393C116.1932,-43.5855 131.5155,-55.1507 144.2712,-65.3585"/>
<polygon fill="#000000" stroke="#000000" points="142.2652,-68.2384 152.2322,-71.8314 146.6812,-62.8071 142.2652,-68.2384"/>
<g id="a_edge11&#45;headlabel"><a xlink:href="dir_000476_000076.html" target="_top" xlink:title="2">
<text text-anchor="middle" x="137.685" y="-65.6737" font-family="Helvetica,sans-Serif" font-size="10.00" fill="#000000">2</text>
</a>
</g>
</g>
<!-- dir_bcbb2cf9a3d3d83e5515c82071a07177&#45;&gt;dir_4ab6b4cc6a7edbff49100e9123df213f -->
<g id="edge18" class="edge">
<title>dir_bcbb2cf9a3d3d83e5515c82071a07177&#45;&gt;dir_4ab6b4cc6a7edbff49100e9123df213f</title>
<path fill="none" stroke="#000000" d="M209.1177,-180.0423C192.2902,-190.4947 169.8448,-203.6621 150.6168,-214.3727"/>
<polygon fill="#000000" stroke="#000000" points="148.8262,-211.3631 141.7585,-219.256 152.2057,-217.4933 148.8262,-211.3631"/>
<g id="a_edge18&#45;headlabel"><a xlink:href="dir_000013_000027.html" target="_top" xlink:title="8">
<text text-anchor="middle" x="150.6035" y="-204.6413" font-family="Helvetica,sans-Serif" font-size="10.00" fill="#000000">8</text>
</a>
</g>
</g>
<!-- dir_bcbb2cf9a3d3d83e5515c82071a07177&#45;&gt;dir_2171f7ec022c5423887b07c69b2f5b48 -->
<g id="edge19" class="edge">
<title>dir_bcbb2cf9a3d3d83e5515c82071a07177&#45;&gt;dir_2171f7ec022c5423887b07c69b2f5b48</title>
<path fill="none" stroke="#000000" d="M211.8977,-143.8314C203.6348,-135.454 194.4665,-125.3531 186.7452,-116.1749"/>
<polygon fill="#000000" stroke="#000000" points="189.4341,-113.9341 180.3913,-108.4133 184.0175,-118.3683 189.4341,-113.9341"/>
<g id="a_edge19&#45;headlabel"><a xlink:href="dir_000013_000076.html" target="_top" xlink:title="82">
<text text-anchor="middle" x="193.908" y="-112.4171" font-family="Helvetica,sans-Serif" font-size="10.00" fill="#000000">82</text>
</a>
</g>
</g>
<!-- dir_2171f7ec022c5423887b07c69b2f5b48&#45;&gt;dir_4ab6b4cc6a7edbff49100e9123df213f -->
<g id="edge20" class="edge">
<title>dir_2171f7ec022c5423887b07c69b2f5b48&#45;&gt;dir_4ab6b4cc6a7edbff49100e9123df213f</title>
<path fill="none" stroke="#000000" d="M167.2466,-108.0896C159.584,-132.8962 141.4921,-177.6824 127.6542,-206.6113"/>
<polygon fill="#000000" stroke="#000000" points="124.4256,-205.2451 123.1456,-215.7623 130.7048,-208.3388 124.4256,-205.2451"/>
<g id="a_edge20&#45;headlabel"><a xlink:href="dir_000076_000027.html" target="_top" xlink:title="35">
<text text-anchor="middle" x="123.4673" y="-198.2658" font-family="Helvetica,sans-Serif" font-size="10.00" fill="#000000">35</text>
</a>
</g>
</g>
<!-- dir_2171f7ec022c5423887b07c69b2f5b48&#45;&gt;dir_7c9998090bca7c4aa89c05dd66fe73f5 -->
<g id="edge21" class="edge">
<title>dir_2171f7ec022c5423887b07c69b2f5b48&#45;&gt;dir_7c9998090bca7c4aa89c05dd66fe73f5</title>
<path fill="none" stroke="#000000" d="M140.3274,-71.8314C127.8853,-62.9632 113.6241,-52.1637 101.6417,-42.5718"/>
<polygon fill="#000000" stroke="#000000" points="103.7274,-39.7567 93.7608,-36.1628 99.3109,-45.1876 103.7274,-39.7567"/>
<g id="a_edge21&#45;headlabel"><a xlink:href="dir_000076_000476.html" target="_top" xlink:title="1">
<text text-anchor="middle" x="108.3076" y="-37.3218" font-family="Helvetica,sans-Serif" font-size="10.00" fill="#000000">1</text>
</a>
</g>
</g>
<!-- dir_2171f7ec022c5423887b07c69b2f5b48&#45;&gt;dir_bcbb2cf9a3d3d83e5515c82071a07177 -->
<g id="edge22" class="edge">
<title>dir_2171f7ec022c5423887b07c69b2f5b48&#45;&gt;dir_bcbb2cf9a3d3d83e5515c82071a07177</title>
<path fill="none" stroke="#000000" d="M192.3434,-108.4133C200.54,-116.7389 209.6014,-126.7282 217.2458,-135.8144"/>
<polygon fill="#000000" stroke="#000000" points="214.7623,-138.3063 223.8025,-143.8314 220.1809,-133.8747 214.7623,-138.3063"/>
<g id="a_edge22&#45;headlabel"><a xlink:href="dir_000076_000013.html" target="_top" xlink:title="11">
<text text-anchor="middle" x="210.2888" y="-134.8213" font-family="Helvetica,sans-Serif" font-size="10.00" fill="#000000">11</text>
</a>
</g>
</g>
</g>
</svg>
