<?xml version="1.0" encoding="UTF-8" standalone="no"?>
<!DOCTYPE svg PUBLIC "-//W3C//DTD SVG 1.1//EN"
 "http://www.w3.org/Graphics/SVG/1.1/DTD/svg11.dtd">
<!-- Generated by graphviz version 2.40.1 (20161225.0304)
 -->
<!-- Title: /home/travis/build/AliceO2Group/AliceO2/Detectors/TPC/calibration/run Pages: 1 -->
<svg width="370pt" height="511pt"
 viewBox="0.00 0.00 369.63 511.00" xmlns="http://www.w3.org/2000/svg" xmlns:xlink="http://www.w3.org/1999/xlink">
<g id="graph0" class="graph" transform="scale(1 1) rotate(0) translate(4 507)">
<title>/home/travis/build/AliceO2Group/AliceO2/Detectors/TPC/calibration/run</title>
<g id="clust1" class="cluster">
<title>clusterdir_4995562033b321477cfe3c34a14a5189</title>
<g id="a_clust1"><a xlink:href="dir_4995562033b321477cfe3c34a14a5189.html" target="_top" xlink:title="calibration">
<polygon fill="#ddddee" stroke="#000000" points="127,-424 127,-495 197,-495 197,-424 127,-424"/>
<text text-anchor="middle" x="162" y="-483" font-family="Helvetica,sans-Serif" font-size="10.00" fill="#000000">calibration</text>
</a>
</g>
</g>
<!-- dir_f282d1da34b97e1c0e067a2536157d8a -->
<g id="node1" class="node">
<title>dir_f282d1da34b97e1c0e067a2536157d8a</title>
<g id="a_node1"><a xlink:href="dir_f282d1da34b97e1c0e067a2536157d8a.html" target="_top" xlink:title="run">
<polygon fill="#eeeeff" stroke="#000000" points="189,-468 135,-468 135,-432 189,-432 189,-468"/>
<text text-anchor="middle" x="162" y="-447.5" font-family="Helvetica,sans-Serif" font-size="10.00" fill="#000000">run</text>
</a>
</g>
</g>
<!-- dir_4ab6b4cc6a7edbff49100e9123df213f -->
<g id="node2" class="node">
<title>dir_4ab6b4cc6a7edbff49100e9123df213f</title>
<g id="a_node2"><a xlink:href="dir_4ab6b4cc6a7edbff49100e9123df213f.html" target="_top" xlink:title="Common">
<polygon fill="none" stroke="#ff0000" points="144.5,-180 83.5,-180 83.5,-144 144.5,-144 144.5,-180"/>
<text text-anchor="middle" x="114" y="-159.5" font-family="Helvetica,sans-Serif" font-size="10.00" fill="#000000">Common</text>
</a>
</g>
</g>
<!-- dir_f282d1da34b97e1c0e067a2536157d8a&#45;&gt;dir_4ab6b4cc6a7edbff49100e9123df213f -->
<g id="edge7" class="edge">
<title>dir_f282d1da34b97e1c0e067a2536157d8a&#45;&gt;dir_4ab6b4cc6a7edbff49100e9123df213f</title>
<path fill="none" stroke="#000000" d="M134.9774,-434.6789C121.4784,-425.4052 106.4641,-412.2286 99,-396 67.438,-327.3772 89.5076,-235.3031 104.0456,-189.8216"/>
<polygon fill="#000000" stroke="#000000" points="107.4523,-190.6679 107.2769,-180.0745 100.8079,-188.4651 107.4523,-190.6679"/>
<g id="a_edge7&#45;headlabel"><a xlink:href="dir_000606_000027.html" target="_top" xlink:title="1">
<text text-anchor="middle" x="109.0163" y="-192.4733" font-family="Helvetica,sans-Serif" font-size="10.00" fill="#000000">1</text>
</a>
</g>
</g>
<!-- dir_a5de047958dd458e809773c6ffaa8478 -->
<g id="node3" class="node">
<title>dir_a5de047958dd458e809773c6ffaa8478</title>
<g id="a_node3"><a xlink:href="dir_a5de047958dd458e809773c6ffaa8478.html" target="_top" xlink:title="reconstruction">
<polygon fill="none" stroke="#ff0000" points="304,-324 218,-324 218,-288 304,-288 304,-324"/>
<text text-anchor="middle" x="261" y="-303.5" font-family="Helvetica,sans-Serif" font-size="10.00" fill="#000000">reconstruction</text>
</a>
</g>
</g>
<!-- dir_f282d1da34b97e1c0e067a2536157d8a&#45;&gt;dir_a5de047958dd458e809773c6ffaa8478 -->
<g id="edge8" class="edge">
<title>dir_f282d1da34b97e1c0e067a2536157d8a&#45;&gt;dir_a5de047958dd458e809773c6ffaa8478</title>
<path fill="none" stroke="#000000" d="M176.8334,-431.8377C185.0838,-421.5145 195.3928,-408.2418 204,-396 218.4939,-375.3858 233.7058,-351.2206 244.7659,-333.1236"/>
<polygon fill="#000000" stroke="#000000" points="247.9469,-334.6283 250.1453,-324.264 241.9635,-330.9952 247.9469,-334.6283"/>
<g id="a_edge8&#45;headlabel"><a xlink:href="dir_000606_000370.html" target="_top" xlink:title="1">
<text text-anchor="middle" x="248.5082" y="-336.6744" font-family="Helvetica,sans-Serif" font-size="10.00" fill="#000000">1</text>
</a>
</g>
</g>
<!-- dir_2168d348e8784d0b706f7ff616321664 -->
<g id="node4" class="node">
<title>dir_2168d348e8784d0b706f7ff616321664</title>
<g id="a_node4"><a xlink:href="dir_2168d348e8784d0b706f7ff616321664.html" target="_top" xlink:title="include">
<polygon fill="none" stroke="#ff0000" points="162,-396 108,-396 108,-360 162,-360 162,-396"/>
<text text-anchor="middle" x="135" y="-375.5" font-family="Helvetica,sans-Serif" font-size="10.00" fill="#000000">include</text>
</a>
</g>
</g>
<!-- dir_f282d1da34b97e1c0e067a2536157d8a&#45;&gt;dir_2168d348e8784d0b706f7ff616321664 -->
<g id="edge9" class="edge">
<title>dir_f282d1da34b97e1c0e067a2536157d8a&#45;&gt;dir_2168d348e8784d0b706f7ff616321664</title>
<path fill="none" stroke="#000000" d="M155.1868,-431.8314C152.2356,-423.9617 148.7142,-414.5712 145.445,-405.8533"/>
<polygon fill="#000000" stroke="#000000" points="148.6934,-404.5476 141.905,-396.4133 142.1391,-407.0055 148.6934,-404.5476"/>
<g id="a_edge9&#45;headlabel"><a xlink:href="dir_000606_000604.html" target="_top" xlink:title="1">
<text text-anchor="middle" x="152.614" y="-404.4164" font-family="Helvetica,sans-Serif" font-size="10.00" fill="#000000">1</text>
</a>
</g>
</g>
<!-- dir_bcbb2cf9a3d3d83e5515c82071a07177 -->
<g id="node5" class="node">
<title>dir_bcbb2cf9a3d3d83e5515c82071a07177</title>
<g id="a_node5"><a xlink:href="dir_bcbb2cf9a3d3d83e5515c82071a07177.html" target="_top" xlink:title="Framework">
<polygon fill="none" stroke="#ff0000" points="222.5,-108 151.5,-108 151.5,-72 222.5,-72 222.5,-108"/>
<text text-anchor="middle" x="187" y="-87.5" font-family="Helvetica,sans-Serif" font-size="10.00" fill="#000000">Framework</text>
</a>
</g>
</g>
<!-- dir_f282d1da34b97e1c0e067a2536157d8a&#45;&gt;dir_bcbb2cf9a3d3d83e5515c82071a07177 -->
<g id="edge10" class="edge">
<title>dir_f282d1da34b97e1c0e067a2536157d8a&#45;&gt;dir_bcbb2cf9a3d3d83e5515c82071a07177</title>
<path fill="none" stroke="#000000" d="M165.4583,-431.5604C167.3137,-421.1504 169.5171,-407.8833 171,-396 182.9285,-300.4086 184.9965,-276.2495 189,-180 189.8552,-159.439 189.3016,-136.2194 188.5621,-118.5155"/>
<polygon fill="#000000" stroke="#000000" points="192.047,-118.1057 188.0886,-108.2781 185.0545,-118.4292 192.047,-118.1057"/>
<g id="a_edge10&#45;headlabel"><a xlink:href="dir_000606_000013.html" target="_top" xlink:title="10">
<text text-anchor="middle" x="195.0492" y="-119.0653" font-family="Helvetica,sans-Serif" font-size="10.00" fill="#000000">10</text>
</a>
</g>
</g>
<!-- dir_26637d1bd82229bc9ed97f7e706be743 -->
<g id="node6" class="node">
<title>dir_26637d1bd82229bc9ed97f7e706be743</title>
<g id="a_node6"><a xlink:href="dir_26637d1bd82229bc9ed97f7e706be743.html" target="_top" xlink:title="Raw">
<polygon fill="none" stroke="#ff0000" points="348,-252 294,-252 294,-216 348,-216 348,-252"/>
<text text-anchor="middle" x="321" y="-231.5" font-family="Helvetica,sans-Serif" font-size="10.00" fill="#000000">Raw</text>
</a>
</g>
</g>
<!-- dir_f282d1da34b97e1c0e067a2536157d8a&#45;&gt;dir_26637d1bd82229bc9ed97f7e706be743 -->
<g id="edge11" class="edge">
<title>dir_f282d1da34b97e1c0e067a2536157d8a&#45;&gt;dir_26637d1bd82229bc9ed97f7e706be743</title>
<path fill="none" stroke="#000000" d="M189.0104,-436.4529C224.5376,-416.998 285.6539,-377.5092 313,-324 322.6671,-305.084 324.3452,-280.9959 323.7814,-262.501"/>
<polygon fill="#000000" stroke="#000000" points="327.2669,-262.1364 323.2338,-252.3392 320.2771,-262.5131 327.2669,-262.1364"/>
<g id="a_edge11&#45;headlabel"><a xlink:href="dir_000606_000576.html" target="_top" xlink:title="1">
<text text-anchor="middle" x="330.2954" y="-263.073" font-family="Helvetica,sans-Serif" font-size="10.00" fill="#000000">1</text>
</a>
</g>
</g>
<!-- dir_2171f7ec022c5423887b07c69b2f5b48 -->
<g id="node7" class="node">
<title>dir_2171f7ec022c5423887b07c69b2f5b48</title>
<g id="a_node7"><a xlink:href="dir_2171f7ec022c5423887b07c69b2f5b48.html" target="_top" xlink:title="DataFormats">
<polygon fill="none" stroke="#ff0000" points="190,-36 110,-36 110,0 190,0 190,-36"/>
<text text-anchor="middle" x="150" y="-15.5" font-family="Helvetica,sans-Serif" font-size="10.00" fill="#000000">DataFormats</text>
</a>
</g>
</g>
<!-- dir_f282d1da34b97e1c0e067a2536157d8a&#45;&gt;dir_2171f7ec022c5423887b07c69b2f5b48 -->
<g id="edge12" class="edge">
<title>dir_f282d1da34b97e1c0e067a2536157d8a&#45;&gt;dir_2171f7ec022c5423887b07c69b2f5b48</title>
<path fill="none" stroke="#000000" d="M134.8848,-440.333C88.7674,-421.9515 0,-377.3088 0,-306 0,-306 0,-306 0,-162 0,-105.0433 56.9771,-63.5954 100.6994,-40.1745"/>
<polygon fill="#000000" stroke="#000000" points="102.5383,-43.1635 109.8028,-35.4512 99.3145,-36.95 102.5383,-43.1635"/>
<g id="a_edge12&#45;headlabel"><a xlink:href="dir_000606_000076.html" target="_top" xlink:title="1">
<text text-anchor="middle" x="100.6552" y="-44.8391" font-family="Helvetica,sans-Serif" font-size="10.00" fill="#000000">1</text>
</a>
</g>
</g>
<!-- dir_4ab6b4cc6a7edbff49100e9123df213f&#45;&gt;dir_bcbb2cf9a3d3d83e5515c82071a07177 -->
<g id="edge1" class="edge">
<title>dir_4ab6b4cc6a7edbff49100e9123df213f&#45;&gt;dir_bcbb2cf9a3d3d83e5515c82071a07177</title>
<path fill="none" stroke="#000000" d="M126.4686,-143.8314C134.4394,-135.1337 144.9694,-124.5783 155.056,-115.1265"/>
<polygon fill="#000000" stroke="#000000" points="157.6386,-117.5066 162.6331,-108.1628 152.9019,-112.3526 157.6386,-117.5066"/>
<g id="a_edge1&#45;headlabel"><a xlink:href="dir_000027_000013.html" target="_top" xlink:title="2">
<text text-anchor="middle" x="156.9132" y="-119.5294" font-family="Helvetica,sans-Serif" font-size="10.00" fill="#000000">2</text>
</a>
</g>
</g>
<!-- dir_4ab6b4cc6a7edbff49100e9123df213f&#45;&gt;dir_2171f7ec022c5423887b07c69b2f5b48 -->
<g id="edge2" class="edge">
<title>dir_4ab6b4cc6a7edbff49100e9123df213f&#45;&gt;dir_2171f7ec022c5423887b07c69b2f5b48</title>
<path fill="none" stroke="#000000" d="M113.8863,-143.7623C117.5992,-118.9846 128.4698,-74.4714 137.6551,-45.5939"/>
<polygon fill="#000000" stroke="#000000" points="140.9813,-46.6832 140.8193,-36.0896 134.3397,-44.472 140.9813,-46.6832"/>
<g id="a_edge2&#45;headlabel"><a xlink:href="dir_000027_000076.html" target="_top" xlink:title="2">
<text text-anchor="middle" x="142.5398" y="-48.4906" font-family="Helvetica,sans-Serif" font-size="10.00" fill="#000000">2</text>
</a>
</g>
</g>
<!-- dir_a5de047958dd458e809773c6ffaa8478&#45;&gt;dir_4ab6b4cc6a7edbff49100e9123df213f -->
<g id="edge3" class="edge">
<title>dir_a5de047958dd458e809773c6ffaa8478&#45;&gt;dir_4ab6b4cc6a7edbff49100e9123df213f</title>
<path fill="none" stroke="#000000" d="M242.3823,-287.7623C216.4258,-262.3354 169.2529,-216.1253 139.8851,-187.3569"/>
<polygon fill="#000000" stroke="#000000" points="142.0593,-184.5872 132.4665,-180.0896 137.1609,-189.5877 142.0593,-184.5872"/>
<g id="a_edge3&#45;headlabel"><a xlink:href="dir_000370_000027.html" target="_top" xlink:title="2">
<text text-anchor="middle" x="146.614" y="-182.5743" font-family="Helvetica,sans-Serif" font-size="10.00" fill="#000000">2</text>
</a>
</g>
</g>
<!-- dir_a5de047958dd458e809773c6ffaa8478&#45;&gt;dir_bcbb2cf9a3d3d83e5515c82071a07177 -->
<g id="edge4" class="edge">
<title>dir_a5de047958dd458e809773c6ffaa8478&#45;&gt;dir_bcbb2cf9a3d3d83e5515c82071a07177</title>
<path fill="none" stroke="#000000" d="M259.3082,-287.7785C255.9438,-257.0074 246.7688,-193.2831 225,-144 220.806,-134.5051 214.8249,-124.9713 208.8456,-116.614"/>
<polygon fill="#000000" stroke="#000000" points="211.4816,-114.2945 202.6902,-108.3816 205.8754,-118.4863 211.4816,-114.2945"/>
<g id="a_edge4&#45;headlabel"><a xlink:href="dir_000370_000013.html" target="_top" xlink:title="2">
<text text-anchor="middle" x="215.908" y="-112.9731" font-family="Helvetica,sans-Serif" font-size="10.00" fill="#000000">2</text>
</a>
</g>
</g>
<!-- dir_a5de047958dd458e809773c6ffaa8478&#45;&gt;dir_26637d1bd82229bc9ed97f7e706be743 -->
<g id="edge5" class="edge">
<title>dir_a5de047958dd458e809773c6ffaa8478&#45;&gt;dir_26637d1bd82229bc9ed97f7e706be743</title>
<path fill="none" stroke="#000000" d="M276.1405,-287.8314C283.1217,-279.454 291.5391,-269.3531 299.1876,-260.1749"/>
<polygon fill="#000000" stroke="#000000" points="301.9425,-262.3362 305.6556,-252.4133 296.5649,-257.8548 301.9425,-262.3362"/>
<g id="a_edge5&#45;headlabel"><a xlink:href="dir_000370_000576.html" target="_top" xlink:title="3">
<text text-anchor="middle" x="301.8225" y="-264.4152" font-family="Helvetica,sans-Serif" font-size="10.00" fill="#000000">3</text>
</a>
</g>
</g>
<!-- dir_a5de047958dd458e809773c6ffaa8478&#45;&gt;dir_2171f7ec022c5423887b07c69b2f5b48 -->
<g id="edge6" class="edge">
<title>dir_a5de047958dd458e809773c6ffaa8478&#45;&gt;dir_2171f7ec022c5423887b07c69b2f5b48</title>
<path fill="none" stroke="#000000" d="M304.1838,-293.0338C323.9605,-284.6924 345.5119,-271.643 357,-252 365.0775,-238.1886 360.5009,-231.6123 357,-216 340.7388,-143.4829 329.525,-119.0535 272,-72 250.8059,-54.6639 223.1712,-41.8239 199.5633,-33.0243"/>
<polygon fill="#000000" stroke="#000000" points="200.6566,-29.6981 190.0621,-29.616 198.293,-36.287 200.6566,-29.6981"/>
<g id="a_edge6&#45;headlabel"><a xlink:href="dir_000370_000076.html" target="_top" xlink:title="47">
<text text-anchor="middle" x="204.9987" y="-25.7393" font-family="Helvetica,sans-Serif" font-size="10.00" fill="#000000">47</text>
</a>
</g>
</g>
<!-- dir_2168d348e8784d0b706f7ff616321664&#45;&gt;dir_4ab6b4cc6a7edbff49100e9123df213f -->
<g id="edge13" class="edge">
<title>dir_2168d348e8784d0b706f7ff616321664&#45;&gt;dir_4ab6b4cc6a7edbff49100e9123df213f</title>
<path fill="none" stroke="#000000" d="M133.2457,-359.9555C129.5861,-322.3144 121.1154,-235.1867 116.7343,-190.1246"/>
<polygon fill="#000000" stroke="#000000" points="120.2154,-189.7594 115.7641,-180.1451 113.2483,-190.4369 120.2154,-189.7594"/>
<g id="a_edge13&#45;headlabel"><a xlink:href="dir_000604_000027.html" target="_top" xlink:title="7">
<text text-anchor="middle" x="123.3891" y="-190.5625" font-family="Helvetica,sans-Serif" font-size="10.00" fill="#000000">7</text>
</a>
</g>
</g>
<!-- dir_2168d348e8784d0b706f7ff616321664&#45;&gt;dir_a5de047958dd458e809773c6ffaa8478 -->
<g id="edge14" class="edge">
<title>dir_2168d348e8784d0b706f7ff616321664&#45;&gt;dir_a5de047958dd458e809773c6ffaa8478</title>
<path fill="none" stroke="#000000" d="M162.0302,-362.5542C179.0096,-352.8517 201.2312,-340.1536 220.3155,-329.2483"/>
<polygon fill="#000000" stroke="#000000" points="222.1673,-332.2213 229.1133,-324.221 218.6943,-326.1436 222.1673,-332.2213"/>
<g id="a_edge14&#45;headlabel"><a xlink:href="dir_000604_000370.html" target="_top" xlink:title="4">
<text text-anchor="middle" x="220.455" y="-333.9698" font-family="Helvetica,sans-Serif" font-size="10.00" fill="#000000">4</text>
</a>
</g>
</g>
<!-- dir_2168d348e8784d0b706f7ff616321664&#45;&gt;dir_bcbb2cf9a3d3d83e5515c82071a07177 -->
<g id="edge15" class="edge">
<title>dir_2168d348e8784d0b706f7ff616321664&#45;&gt;dir_bcbb2cf9a3d3d83e5515c82071a07177</title>
<path fill="none" stroke="#000000" d="M138.2528,-359.9843C147.0441,-311.2939 171.3285,-176.7961 181.9341,-118.0573"/>
<polygon fill="#000000" stroke="#000000" points="185.4158,-118.4717 183.7484,-108.0089 178.5272,-117.2278 185.4158,-118.4717"/>
<g id="a_edge15&#45;headlabel"><a xlink:href="dir_000604_000013.html" target="_top" xlink:title="1">
<text text-anchor="middle" x="187.5713" y="-120.0136" font-family="Helvetica,sans-Serif" font-size="10.00" fill="#000000">1</text>
</a>
</g>
</g>
<!-- dir_2168d348e8784d0b706f7ff616321664&#45;&gt;dir_2171f7ec022c5423887b07c69b2f5b48 -->
<g id="edge16" class="edge">
<title>dir_2168d348e8784d0b706f7ff616321664&#45;&gt;dir_2171f7ec022c5423887b07c69b2f5b48</title>
<path fill="none" stroke="#000000" d="M123.594,-359.7408C100.3938,-320.268 51.7176,-224.0836 74,-144 84.536,-106.1332 109.86,-68.27 128.3905,-44.0841"/>
<polygon fill="#000000" stroke="#000000" points="131.2158,-46.1531 134.6263,-36.1221 125.7049,-41.8369 131.2158,-46.1531"/>
<g id="a_edge16&#45;headlabel"><a xlink:href="dir_000604_000076.html" target="_top" xlink:title="8">
<text text-anchor="middle" x="131.2348" y="-48.2337" font-family="Helvetica,sans-Serif" font-size="10.00" fill="#000000">8</text>
</a>
</g>
</g>
<!-- dir_bcbb2cf9a3d3d83e5515c82071a07177&#45;&gt;dir_4ab6b4cc6a7edbff49100e9123df213f -->
<g id="edge17" class="edge">
<title>dir_bcbb2cf9a3d3d83e5515c82071a07177&#45;&gt;dir_4ab6b4cc6a7edbff49100e9123df213f</title>
<path fill="none" stroke="#000000" d="M174.307,-108.4133C166.3498,-117.0787 155.9,-127.5464 145.8919,-136.9223"/>
<polygon fill="#000000" stroke="#000000" points="143.3684,-134.4879 138.3734,-143.8314 148.1048,-139.6422 143.3684,-134.4879"/>
<g id="a_edge17&#45;headlabel"><a xlink:href="dir_000013_000027.html" target="_top" xlink:title="8">
<text text-anchor="middle" x="144.094" y="-127.4651" font-family="Helvetica,sans-Serif" font-size="10.00" fill="#000000">8</text>
</a>
</g>
</g>
<!-- dir_bcbb2cf9a3d3d83e5515c82071a07177&#45;&gt;dir_2171f7ec022c5423887b07c69b2f5b48 -->
<g id="edge18" class="edge">
<title>dir_bcbb2cf9a3d3d83e5515c82071a07177&#45;&gt;dir_2171f7ec022c5423887b07c69b2f5b48</title>
<path fill="none" stroke="#000000" d="M171.7109,-71.8314C166.8482,-63.8771 161.7519,-54.369 157.5863,-45.5723"/>
<polygon fill="#000000" stroke="#000000" points="160.7667,-44.1105 153.4864,-36.4133 154.3776,-46.9706 160.7667,-44.1105"/>
<g id="a_edge18&#45;headlabel"><a xlink:href="dir_000013_000076.html" target="_top" xlink:title="82">
<text text-anchor="middle" x="164.8267" y="-43.7314" font-family="Helvetica,sans-Serif" font-size="10.00" fill="#000000">82</text>
</a>
</g>
</g>
<!-- dir_26637d1bd82229bc9ed97f7e706be743&#45;&gt;dir_4ab6b4cc6a7edbff49100e9123df213f -->
<g id="edge19" class="edge">
<title>dir_26637d1bd82229bc9ed97f7e706be743&#45;&gt;dir_4ab6b4cc6a7edbff49100e9123df213f</title>
<path fill="none" stroke="#000000" d="M293.9384,-224.5873C258.3273,-212.2008 195.4391,-190.3267 154.2417,-175.9971"/>
<polygon fill="#000000" stroke="#000000" points="155.3718,-172.6846 144.7769,-172.705 153.0721,-179.296 155.3718,-172.6846"/>
<g id="a_edge19&#45;headlabel"><a xlink:href="dir_000576_000027.html" target="_top" xlink:title="10">
<text text-anchor="middle" x="159.6996" y="-168.6837" font-family="Helvetica,sans-Serif" font-size="10.00" fill="#000000">10</text>
</a>
</g>
</g>
<!-- dir_26637d1bd82229bc9ed97f7e706be743&#45;&gt;dir_bcbb2cf9a3d3d83e5515c82071a07177 -->
<g id="edge20" class="edge">
<title>dir_26637d1bd82229bc9ed97f7e706be743&#45;&gt;dir_bcbb2cf9a3d3d83e5515c82071a07177</title>
<path fill="none" stroke="#000000" d="M315.2639,-215.647C308.4218,-196.0793 295.414,-165.0689 276,-144 263.6124,-130.5564 247.1197,-119.3062 231.6998,-110.6148"/>
<polygon fill="#000000" stroke="#000000" points="233.2453,-107.4716 222.7838,-105.7958 229.9169,-113.6297 233.2453,-107.4716"/>
<g id="a_edge20&#45;headlabel"><a xlink:href="dir_000576_000013.html" target="_top" xlink:title="25">
<text text-anchor="middle" x="237.7576" y="-104.1829" font-family="Helvetica,sans-Serif" font-size="10.00" fill="#000000">25</text>
</a>
</g>
</g>
<!-- dir_26637d1bd82229bc9ed97f7e706be743&#45;&gt;dir_2171f7ec022c5423887b07c69b2f5b48 -->
<g id="edge21" class="edge">
<title>dir_26637d1bd82229bc9ed97f7e706be743&#45;&gt;dir_2171f7ec022c5423887b07c69b2f5b48</title>
<path fill="none" stroke="#000000" d="M320.1506,-215.7248C318.6039,-196.7748 314.249,-166.7869 302,-144 277.5384,-98.4939 229.1898,-62.8948 193.5621,-41.3117"/>
<polygon fill="#000000" stroke="#000000" points="195.1895,-38.2079 184.8006,-36.129 191.6255,-44.2327 195.1895,-38.2079"/>
<g id="a_edge21&#45;headlabel"><a xlink:href="dir_000576_000076.html" target="_top" xlink:title="15">
<text text-anchor="middle" x="199.7288" y="-35.0942" font-family="Helvetica,sans-Serif" font-size="10.00" fill="#000000">15</text>
</a>
</g>
</g>
<!-- dir_2171f7ec022c5423887b07c69b2f5b48&#45;&gt;dir_4ab6b4cc6a7edbff49100e9123df213f -->
<g id="edge22" class="edge">
<title>dir_2171f7ec022c5423887b07c69b2f5b48&#45;&gt;dir_4ab6b4cc6a7edbff49100e9123df213f</title>
<path fill="none" stroke="#000000" d="M150.1359,-36.0896C146.4516,-60.7884 135.5919,-105.2933 126.3999,-134.2331"/>
<polygon fill="#000000" stroke="#000000" points="123.0654,-133.1688 123.2326,-143.7623 129.7081,-135.3767 123.0654,-133.1688"/>
<g id="a_edge22&#45;headlabel"><a xlink:href="dir_000076_000027.html" target="_top" xlink:title="35">
<text text-anchor="middle" x="121.5048" y="-126.3621" font-family="Helvetica,sans-Serif" font-size="10.00" fill="#000000">35</text>
</a>
</g>
</g>
<!-- dir_2171f7ec022c5423887b07c69b2f5b48&#45;&gt;dir_bcbb2cf9a3d3d83e5515c82071a07177 -->
<g id="edge23" class="edge">
<title>dir_2171f7ec022c5423887b07c69b2f5b48&#45;&gt;dir_bcbb2cf9a3d3d83e5515c82071a07177</title>
<path fill="none" stroke="#000000" d="M165.4384,-36.4133C170.3058,-44.3991 175.3948,-53.9155 179.5413,-62.6975"/>
<polygon fill="#000000" stroke="#000000" points="176.3454,-64.1246 183.6157,-71.8314 182.7382,-61.2729 176.3454,-64.1246"/>
<g id="a_edge23&#45;headlabel"><a xlink:href="dir_000076_000013.html" target="_top" xlink:title="11">
<text text-anchor="middle" x="172.2881" y="-59.4985" font-family="Helvetica,sans-Serif" font-size="10.00" fill="#000000">11</text>
</a>
</g>
</g>
</g>
</svg>
