<?xml version="1.0" encoding="UTF-8" standalone="no"?>
<!DOCTYPE svg PUBLIC "-//W3C//DTD SVG 1.1//EN"
 "http://www.w3.org/Graphics/SVG/1.1/DTD/svg11.dtd">
<!-- Generated by graphviz version 2.40.1 (20161225.0304)
 -->
<!-- Title: /home/travis/build/AliceO2Group/AliceO2/Detectors/ITSMFT/common Pages: 1 -->
<svg width="566pt" height="447pt"
 viewBox="0.00 0.00 566.40 447.00" xmlns="http://www.w3.org/2000/svg" xmlns:xlink="http://www.w3.org/1999/xlink">
<g id="graph0" class="graph" transform="scale(1 1) rotate(0) translate(4 443)">
<title>/home/travis/build/AliceO2Group/AliceO2/Detectors/ITSMFT/common</title>
<g id="clust1" class="cluster">
<title>clusterdir_1306292b77b40360479b729ac9ee7efe</title>
<g id="a_clust1"><a xlink:href="dir_1306292b77b40360479b729ac9ee7efe.html" target="_top" xlink:title="ITSMFT">
<polygon fill="#ddddee" stroke="#000000" points="8,-200 8,-431 266,-431 266,-200 8,-200"/>
<text text-anchor="middle" x="137" y="-419" font-family="Helvetica,sans-Serif" font-size="10.00" fill="#000000">ITSMFT</text>
</a>
</g>
</g>
<g id="clust2" class="cluster">
<title>clusterdir_85bf31a2e8d306e7598ffcb73f8df6bf</title>
<g id="a_clust2"><a xlink:href="dir_85bf31a2e8d306e7598ffcb73f8df6bf.html" target="_top">
<polygon fill="#eeeeff" stroke="#000000" points="16,-208 16,-404 258,-404 258,-208 16,-208"/>
</a>
</g>
</g>
<!-- dir_85bf31a2e8d306e7598ffcb73f8df6bf -->
<g id="node1" class="node">
<title>dir_85bf31a2e8d306e7598ffcb73f8df6bf</title>
<text text-anchor="middle" x="220" y="-375.5" font-family="Helvetica,sans-Serif" font-size="10.00" fill="#000000">common</text>
</g>
<!-- dir_7c9998090bca7c4aa89c05dd66fe73f5 -->
<g id="node2" class="node">
<title>dir_7c9998090bca7c4aa89c05dd66fe73f5</title>
<g id="a_node2"><a xlink:href="dir_7c9998090bca7c4aa89c05dd66fe73f5.html" target="_top" xlink:title="base">
<polygon fill="#ffffff" stroke="#ff0000" points="142,-252 88,-252 88,-216 142,-216 142,-252"/>
<text text-anchor="middle" x="115" y="-231.5" font-family="Helvetica,sans-Serif" font-size="10.00" fill="#000000">base</text>
</a>
</g>
</g>
<!-- dir_4ab6b4cc6a7edbff49100e9123df213f -->
<g id="node6" class="node">
<title>dir_4ab6b4cc6a7edbff49100e9123df213f</title>
<g id="a_node6"><a xlink:href="dir_4ab6b4cc6a7edbff49100e9123df213f.html" target="_top" xlink:title="Common">
<polygon fill="none" stroke="#ff0000" points="335.5,-252 274.5,-252 274.5,-216 335.5,-216 335.5,-252"/>
<text text-anchor="middle" x="305" y="-231.5" font-family="Helvetica,sans-Serif" font-size="10.00" fill="#000000">Common</text>
</a>
</g>
</g>
<!-- dir_7c9998090bca7c4aa89c05dd66fe73f5&#45;&gt;dir_4ab6b4cc6a7edbff49100e9123df213f -->
<g id="edge20" class="edge">
<title>dir_7c9998090bca7c4aa89c05dd66fe73f5&#45;&gt;dir_4ab6b4cc6a7edbff49100e9123df213f</title>
<path fill="none" stroke="#000000" d="M142.0898,-234C182.8505,-234 223.6112,-234 264.3719,-234"/>
<polygon fill="#000000" stroke="#000000" points="264.4544,-237.5001 274.4543,-234 264.4543,-230.5001 264.4544,-237.5001"/>
<g id="a_edge20&#45;headlabel"><a xlink:href="dir_000476_000027.html" target="_top" xlink:title="4">
<text text-anchor="middle" x="260.8597" y="-237.8393" font-family="Helvetica,sans-Serif" font-size="10.00" fill="#000000">4</text>
</a>
</g>
</g>
<!-- dir_2171f7ec022c5423887b07c69b2f5b48 -->
<g id="node11" class="node">
<title>dir_2171f7ec022c5423887b07c69b2f5b48</title>
<g id="a_node11"><a xlink:href="dir_2171f7ec022c5423887b07c69b2f5b48.html" target="_top" xlink:title="DataFormats">
<polygon fill="none" stroke="#ff0000" points="343,-108 263,-108 263,-72 343,-72 343,-108"/>
<text text-anchor="middle" x="303" y="-87.5" font-family="Helvetica,sans-Serif" font-size="10.00" fill="#000000">DataFormats</text>
</a>
</g>
</g>
<!-- dir_7c9998090bca7c4aa89c05dd66fe73f5&#45;&gt;dir_2171f7ec022c5423887b07c69b2f5b48 -->
<g id="edge21" class="edge">
<title>dir_7c9998090bca7c4aa89c05dd66fe73f5&#45;&gt;dir_2171f7ec022c5423887b07c69b2f5b48</title>
<path fill="none" stroke="#000000" d="M119.7919,-215.6537C125.9407,-195.5021 138.4703,-163.4272 160,-144 185.9323,-120.6002 223,-106.9875 252.8976,-99.2836"/>
<polygon fill="#000000" stroke="#000000" points="253.8454,-102.6553 262.7355,-96.8919 252.1917,-95.8534 253.8454,-102.6553"/>
<g id="a_edge21&#45;headlabel"><a xlink:href="dir_000476_000076.html" target="_top" xlink:title="2">
<text text-anchor="middle" x="251.0232" y="-103.7633" font-family="Helvetica,sans-Serif" font-size="10.00" fill="#000000">2</text>
</a>
</g>
</g>
<!-- dir_2174d8cbbd82d5c404dd04814f845a3a -->
<g id="node3" class="node">
<title>dir_2174d8cbbd82d5c404dd04814f845a3a</title>
<g id="a_node3"><a xlink:href="dir_2174d8cbbd82d5c404dd04814f845a3a.html" target="_top" xlink:title="reconstruction">
<polygon fill="#ffffff" stroke="#ff0000" points="215,-324 129,-324 129,-288 215,-288 215,-324"/>
<text text-anchor="middle" x="172" y="-303.5" font-family="Helvetica,sans-Serif" font-size="10.00" fill="#000000">reconstruction</text>
</a>
</g>
</g>
<!-- dir_2174d8cbbd82d5c404dd04814f845a3a&#45;&gt;dir_7c9998090bca7c4aa89c05dd66fe73f5 -->
<g id="edge3" class="edge">
<title>dir_2174d8cbbd82d5c404dd04814f845a3a&#45;&gt;dir_7c9998090bca7c4aa89c05dd66fe73f5</title>
<path fill="none" stroke="#000000" d="M157.6165,-287.8314C151.0514,-279.5386 143.1493,-269.557 135.9422,-260.4533"/>
<polygon fill="#000000" stroke="#000000" points="138.5284,-258.0813 129.5772,-252.4133 133.0401,-262.4262 138.5284,-258.0813"/>
<g id="a_edge3&#45;headlabel"><a xlink:href="dir_000361_000476.html" target="_top" xlink:title="4">
<text text-anchor="middle" x="142.9857" y="-256.6373" font-family="Helvetica,sans-Serif" font-size="10.00" fill="#000000">4</text>
</a>
</g>
</g>
<!-- dir_2174d8cbbd82d5c404dd04814f845a3a&#45;&gt;dir_4ab6b4cc6a7edbff49100e9123df213f -->
<g id="edge1" class="edge">
<title>dir_2174d8cbbd82d5c404dd04814f845a3a&#45;&gt;dir_4ab6b4cc6a7edbff49100e9123df213f</title>
<path fill="none" stroke="#000000" d="M205.5615,-287.8314C223.6816,-278.022 246.1669,-265.8495 265.1697,-255.5623"/>
<polygon fill="#000000" stroke="#000000" points="267.0564,-258.5209 274.1842,-250.6822 263.7239,-252.365 267.0564,-258.5209"/>
<g id="a_edge1&#45;headlabel"><a xlink:href="dir_000361_000027.html" target="_top" xlink:title="8">
<text text-anchor="middle" x="265.247" y="-260.229" font-family="Helvetica,sans-Serif" font-size="10.00" fill="#000000">8</text>
</a>
</g>
</g>
<!-- dir_b05a5fa85f84bfc9013183c9d87f9a36 -->
<g id="node7" class="node">
<title>dir_b05a5fa85f84bfc9013183c9d87f9a36</title>
<g id="a_node7"><a xlink:href="dir_b05a5fa85f84bfc9013183c9d87f9a36.html" target="_top" xlink:title="Utilities">
<polygon fill="none" stroke="#ff0000" points="327.5,-36 272.5,-36 272.5,0 327.5,0 327.5,-36"/>
<text text-anchor="middle" x="300" y="-15.5" font-family="Helvetica,sans-Serif" font-size="10.00" fill="#000000">Utilities</text>
</a>
</g>
</g>
<!-- dir_2174d8cbbd82d5c404dd04814f845a3a&#45;&gt;dir_b05a5fa85f84bfc9013183c9d87f9a36 -->
<g id="edge2" class="edge">
<title>dir_2174d8cbbd82d5c404dd04814f845a3a&#45;&gt;dir_b05a5fa85f84bfc9013183c9d87f9a36</title>
<path fill="none" stroke="#000000" d="M128.6751,-292.0544C109.9136,-283.6163 89.8056,-270.7693 79,-252 67.4691,-231.9709 73.2198,-222.3766 79,-200 101.9154,-111.2895 206.416,-55.968 263.1275,-31.9467"/>
<polygon fill="#000000" stroke="#000000" points="264.5576,-35.1429 272.4652,-28.0916 261.8863,-28.6727 264.5576,-35.1429"/>
<g id="a_edge2&#45;headlabel"><a xlink:href="dir_000361_000572.html" target="_top" xlink:title="1">
<text text-anchor="middle" x="262.3185" y="-36.639" font-family="Helvetica,sans-Serif" font-size="10.00" fill="#000000">1</text>
</a>
</g>
</g>
<!-- dir_bcbb2cf9a3d3d83e5515c82071a07177 -->
<g id="node9" class="node">
<title>dir_bcbb2cf9a3d3d83e5515c82071a07177</title>
<g id="a_node9"><a xlink:href="dir_bcbb2cf9a3d3d83e5515c82071a07177.html" target="_top" xlink:title="Framework">
<polygon fill="none" stroke="#ff0000" points="449.5,-180 378.5,-180 378.5,-144 449.5,-144 449.5,-180"/>
<text text-anchor="middle" x="414" y="-159.5" font-family="Helvetica,sans-Serif" font-size="10.00" fill="#000000">Framework</text>
</a>
</g>
</g>
<!-- dir_2174d8cbbd82d5c404dd04814f845a3a&#45;&gt;dir_bcbb2cf9a3d3d83e5515c82071a07177 -->
<g id="edge4" class="edge">
<title>dir_2174d8cbbd82d5c404dd04814f845a3a&#45;&gt;dir_bcbb2cf9a3d3d83e5515c82071a07177</title>
<path fill="none" stroke="#000000" d="M183.2442,-287.6182C198.8283,-263.7323 229.2665,-222.437 266,-200 297.1195,-180.992 337.4911,-171.4407 368.2064,-166.6708"/>
<polygon fill="#000000" stroke="#000000" points="368.8255,-170.1179 378.2254,-165.2298 367.8289,-163.1892 368.8255,-170.1179"/>
<g id="a_edge4&#45;headlabel"><a xlink:href="dir_000361_000013.html" target="_top" xlink:title="6">
<text text-anchor="middle" x="365.6717" y="-170.9399" font-family="Helvetica,sans-Serif" font-size="10.00" fill="#000000">6</text>
</a>
</g>
</g>
<!-- dir_26637d1bd82229bc9ed97f7e706be743 -->
<g id="node10" class="node">
<title>dir_26637d1bd82229bc9ed97f7e706be743</title>
<g id="a_node10"><a xlink:href="dir_26637d1bd82229bc9ed97f7e706be743.html" target="_top" xlink:title="Raw">
<polygon fill="none" stroke="#ff0000" points="484,-324 430,-324 430,-288 484,-288 484,-324"/>
<text text-anchor="middle" x="457" y="-303.5" font-family="Helvetica,sans-Serif" font-size="10.00" fill="#000000">Raw</text>
</a>
</g>
</g>
<!-- dir_2174d8cbbd82d5c404dd04814f845a3a&#45;&gt;dir_26637d1bd82229bc9ed97f7e706be743 -->
<g id="edge5" class="edge">
<title>dir_2174d8cbbd82d5c404dd04814f845a3a&#45;&gt;dir_26637d1bd82229bc9ed97f7e706be743</title>
<path fill="none" stroke="#000000" d="M215.1396,-306C283.276,-306 351.4124,-306 419.5488,-306"/>
<polygon fill="#000000" stroke="#000000" points="419.6018,-309.5001 429.6018,-306 419.6017,-302.5001 419.6018,-309.5001"/>
<g id="a_edge5&#45;headlabel"><a xlink:href="dir_000361_000576.html" target="_top" xlink:title="5">
<text text-anchor="middle" x="416.0071" y="-309.8393" font-family="Helvetica,sans-Serif" font-size="10.00" fill="#000000">5</text>
</a>
</g>
</g>
<!-- dir_2174d8cbbd82d5c404dd04814f845a3a&#45;&gt;dir_2171f7ec022c5423887b07c69b2f5b48 -->
<g id="edge6" class="edge">
<title>dir_2174d8cbbd82d5c404dd04814f845a3a&#45;&gt;dir_2171f7ec022c5423887b07c69b2f5b48</title>
<path fill="none" stroke="#000000" d="M170.8482,-287.7502C169.7637,-255.5196 171.8519,-187.7937 204,-144 216.2335,-127.335 235.2184,-115.2304 253.3038,-106.7595"/>
<polygon fill="#000000" stroke="#000000" points="254.8927,-109.8844 262.6388,-102.6561 252.0758,-103.4762 254.8927,-109.8844"/>
<g id="a_edge6&#45;headlabel"><a xlink:href="dir_000361_000076.html" target="_top" xlink:title="36">
<text text-anchor="middle" x="252.7445" y="-111.4301" font-family="Helvetica,sans-Serif" font-size="10.00" fill="#000000">36</text>
</a>
</g>
</g>
<!-- dir_948e043a2a9c0d8c3d26178da976c005 -->
<g id="node4" class="node">
<title>dir_948e043a2a9c0d8c3d26178da976c005</title>
<g id="a_node4"><a xlink:href="dir_948e043a2a9c0d8c3d26178da976c005.html" target="_top" xlink:title="simulation">
<polygon fill="#ffffff" stroke="#ff0000" points="172,-396 104,-396 104,-360 172,-360 172,-396"/>
<text text-anchor="middle" x="138" y="-375.5" font-family="Helvetica,sans-Serif" font-size="10.00" fill="#000000">simulation</text>
</a>
</g>
</g>
<!-- dir_948e043a2a9c0d8c3d26178da976c005&#45;&gt;dir_7c9998090bca7c4aa89c05dd66fe73f5 -->
<g id="edge25" class="edge">
<title>dir_948e043a2a9c0d8c3d26178da976c005&#45;&gt;dir_7c9998090bca7c4aa89c05dd66fe73f5</title>
<path fill="none" stroke="#000000" d="M130.5953,-359.8291C126.7317,-349.5031 122.3347,-336.2306 120,-324 116.0937,-303.5367 114.898,-280.0182 114.6501,-262.1557"/>
<polygon fill="#000000" stroke="#000000" points="118.1499,-262.0837 114.6014,-252.1008 111.15,-262.1177 118.1499,-262.0837"/>
<g id="a_edge25&#45;headlabel"><a xlink:href="dir_000062_000476.html" target="_top" xlink:title="5">
<text text-anchor="middle" x="121.0065" y="-263.1645" font-family="Helvetica,sans-Serif" font-size="10.00" fill="#000000">5</text>
</a>
</g>
</g>
<!-- dir_948e043a2a9c0d8c3d26178da976c005&#45;&gt;dir_2174d8cbbd82d5c404dd04814f845a3a -->
<g id="edge22" class="edge">
<title>dir_948e043a2a9c0d8c3d26178da976c005&#45;&gt;dir_2174d8cbbd82d5c404dd04814f845a3a</title>
<path fill="none" stroke="#000000" d="M146.5796,-359.8314C150.3358,-351.8771 154.8257,-342.369 158.9798,-333.5723"/>
<polygon fill="#000000" stroke="#000000" points="162.1996,-334.9503 163.3048,-324.4133 155.8699,-331.9612 162.1996,-334.9503"/>
<g id="a_edge22&#45;headlabel"><a xlink:href="dir_000062_000361.html" target="_top" xlink:title="6">
<text text-anchor="middle" x="163.2321" y="-336.9131" font-family="Helvetica,sans-Serif" font-size="10.00" fill="#000000">6</text>
</a>
</g>
</g>
<!-- dir_948e043a2a9c0d8c3d26178da976c005&#45;&gt;dir_4ab6b4cc6a7edbff49100e9123df213f -->
<g id="edge23" class="edge">
<title>dir_948e043a2a9c0d8c3d26178da976c005&#45;&gt;dir_4ab6b4cc6a7edbff49100e9123df213f</title>
<path fill="none" stroke="#000000" d="M172.4711,-363.5471C175.6778,-362.309 178.8901,-361.1079 182,-360 233.6514,-341.6001 266.1623,-367.1443 300,-324 313.4451,-306.8571 313.7454,-281.7426 311.2215,-262.3968"/>
<polygon fill="#000000" stroke="#000000" points="314.6452,-261.6432 309.5943,-252.3299 307.7349,-262.7603 314.6452,-261.6432"/>
<g id="a_edge23&#45;headlabel"><a xlink:href="dir_000062_000027.html" target="_top" xlink:title="5">
<text text-anchor="middle" x="318.0216" y="-262.2388" font-family="Helvetica,sans-Serif" font-size="10.00" fill="#000000">5</text>
</a>
</g>
</g>
<!-- dir_37c90836491b695b472bf98d1be8336b -->
<g id="node8" class="node">
<title>dir_37c90836491b695b472bf98d1be8336b</title>
<g id="a_node8"><a xlink:href="dir_37c90836491b695b472bf98d1be8336b.html" target="_top" xlink:title="Base">
<polygon fill="none" stroke="#ff0000" points="400,-36 346,-36 346,0 400,0 400,-36"/>
<text text-anchor="middle" x="373" y="-15.5" font-family="Helvetica,sans-Serif" font-size="10.00" fill="#000000">Base</text>
</a>
</g>
</g>
<!-- dir_948e043a2a9c0d8c3d26178da976c005&#45;&gt;dir_37c90836491b695b472bf98d1be8336b -->
<g id="edge24" class="edge">
<title>dir_948e043a2a9c0d8c3d26178da976c005&#45;&gt;dir_37c90836491b695b472bf98d1be8336b</title>
<path fill="none" stroke="#000000" d="M172.2845,-362.9376C175.5304,-361.8274 178.8027,-360.8225 182,-360 249.379,-342.6675 440.5996,-369.7662 493,-324 524.0953,-296.8416 516,-275.2855 516,-234 516,-234 516,-234 516,-162 516,-101.4392 451.5318,-57.2848 409.1679,-34.8075"/>
<polygon fill="#000000" stroke="#000000" points="410.7273,-31.6738 400.2338,-30.2119 407.5253,-37.8985 410.7273,-31.6738"/>
<g id="a_edge24&#45;headlabel"><a xlink:href="dir_000062_000274.html" target="_top" xlink:title="2">
<text text-anchor="middle" x="415.2225" y="-28.2931" font-family="Helvetica,sans-Serif" font-size="10.00" fill="#000000">2</text>
</a>
</g>
</g>
<!-- dir_948e043a2a9c0d8c3d26178da976c005&#45;&gt;dir_bcbb2cf9a3d3d83e5515c82071a07177 -->
<g id="edge26" class="edge">
<title>dir_948e043a2a9c0d8c3d26178da976c005&#45;&gt;dir_bcbb2cf9a3d3d83e5515c82071a07177</title>
<path fill="none" stroke="#000000" d="M172.424,-363.4107C175.6406,-362.2012 178.8681,-361.044 182,-360 242.1332,-339.9556 266.7701,-358.4145 320,-324 368.2977,-292.7742 394.728,-227.3663 406.4526,-189.9147"/>
<polygon fill="#000000" stroke="#000000" points="409.8625,-190.7281 409.3755,-180.1445 403.1561,-188.7218 409.8625,-190.7281"/>
<g id="a_edge26&#45;headlabel"><a xlink:href="dir_000062_000013.html" target="_top" xlink:title="1">
<text text-anchor="middle" x="411.5524" y="-192.4857" font-family="Helvetica,sans-Serif" font-size="10.00" fill="#000000">1</text>
</a>
</g>
</g>
<!-- dir_948e043a2a9c0d8c3d26178da976c005&#45;&gt;dir_26637d1bd82229bc9ed97f7e706be743 -->
<g id="edge27" class="edge">
<title>dir_948e043a2a9c0d8c3d26178da976c005&#45;&gt;dir_26637d1bd82229bc9ed97f7e706be743</title>
<path fill="none" stroke="#000000" d="M172.3186,-363.065C175.5573,-361.928 178.8187,-360.8821 182,-360 283.3978,-331.8845 314.967,-353.3995 416,-324 417.2596,-323.6335 418.5313,-323.2371 419.808,-322.8163"/>
<polygon fill="#000000" stroke="#000000" points="421.4104,-325.9555 429.5766,-319.2054 418.9833,-319.3897 421.4104,-325.9555"/>
<g id="a_edge27&#45;headlabel"><a xlink:href="dir_000062_000576.html" target="_top" xlink:title="2">
<text text-anchor="middle" x="419.0231" y="-327.3649" font-family="Helvetica,sans-Serif" font-size="10.00" fill="#000000">2</text>
</a>
</g>
</g>
<!-- dir_948e043a2a9c0d8c3d26178da976c005&#45;&gt;dir_2171f7ec022c5423887b07c69b2f5b48 -->
<g id="edge28" class="edge">
<title>dir_948e043a2a9c0d8c3d26178da976c005&#45;&gt;dir_2171f7ec022c5423887b07c69b2f5b48</title>
<path fill="none" stroke="#000000" d="M172.274,-362.896C175.5221,-361.7945 178.7978,-360.803 182,-360 257.4111,-341.0894 477.9304,-381.7339 530,-324 570.1579,-279.4735 578.1246,-238.4571 480,-144 461.7631,-126.4447 398.9111,-110.0409 353.2803,-100.0228"/>
<polygon fill="#000000" stroke="#000000" points="353.7622,-96.5464 343.2493,-97.8616 352.2878,-103.3893 353.7622,-96.5464"/>
<g id="a_edge28&#45;headlabel"><a xlink:href="dir_000062_000076.html" target="_top" xlink:title="10">
<text text-anchor="middle" x="357.8741" y="-92.0278" font-family="Helvetica,sans-Serif" font-size="10.00" fill="#000000">10</text>
</a>
</g>
</g>
<!-- dir_cd7d5e2598ca22d0234e65e7e58f6fe3 -->
<g id="node5" class="node">
<title>dir_cd7d5e2598ca22d0234e65e7e58f6fe3</title>
<g id="a_node5"><a xlink:href="dir_cd7d5e2598ca22d0234e65e7e58f6fe3.html" target="_top" xlink:title="workflow">
<polygon fill="#ffffff" stroke="#ff0000" points="85.5,-396 24.5,-396 24.5,-360 85.5,-360 85.5,-396"/>
<text text-anchor="middle" x="55" y="-375.5" font-family="Helvetica,sans-Serif" font-size="10.00" fill="#000000">workflow</text>
</a>
</g>
</g>
<!-- dir_cd7d5e2598ca22d0234e65e7e58f6fe3&#45;&gt;dir_7c9998090bca7c4aa89c05dd66fe73f5 -->
<g id="edge9" class="edge">
<title>dir_cd7d5e2598ca22d0234e65e7e58f6fe3&#45;&gt;dir_7c9998090bca7c4aa89c05dd66fe73f5</title>
<path fill="none" stroke="#000000" d="M62.599,-359.7623C72.9231,-334.9846 91.4703,-290.4714 103.5025,-261.5939"/>
<polygon fill="#000000" stroke="#000000" points="106.8472,-262.6666 107.4627,-252.0896 100.3857,-259.9742 106.8472,-262.6666"/>
<g id="a_edge9&#45;headlabel"><a xlink:href="dir_000490_000476.html" target="_top" xlink:title="1">
<text text-anchor="middle" x="108.0856" y="-264.5767" font-family="Helvetica,sans-Serif" font-size="10.00" fill="#000000">1</text>
</a>
</g>
</g>
<!-- dir_cd7d5e2598ca22d0234e65e7e58f6fe3&#45;&gt;dir_2174d8cbbd82d5c404dd04814f845a3a -->
<g id="edge7" class="edge">
<title>dir_cd7d5e2598ca22d0234e65e7e58f6fe3&#45;&gt;dir_2174d8cbbd82d5c404dd04814f845a3a</title>
<path fill="none" stroke="#000000" d="M84.524,-359.8314C99.4891,-350.6221 117.8386,-339.3301 133.8603,-329.4706"/>
<polygon fill="#000000" stroke="#000000" points="135.8032,-332.3847 142.4854,-324.1628 132.1345,-326.423 135.8032,-332.3847"/>
<g id="a_edge7&#45;headlabel"><a xlink:href="dir_000490_000361.html" target="_top" xlink:title="9">
<text text-anchor="middle" x="134.2298" y="-334.1866" font-family="Helvetica,sans-Serif" font-size="10.00" fill="#000000">9</text>
</a>
</g>
</g>
<!-- dir_cd7d5e2598ca22d0234e65e7e58f6fe3&#45;&gt;dir_4ab6b4cc6a7edbff49100e9123df213f -->
<g id="edge8" class="edge">
<title>dir_cd7d5e2598ca22d0234e65e7e58f6fe3&#45;&gt;dir_4ab6b4cc6a7edbff49100e9123df213f</title>
<path fill="none" stroke="#000000" d="M85.7562,-363.3963C88.8456,-362.1607 91.9628,-361.0026 95,-360 166.2756,-336.4722 200.7496,-370.0778 260,-324 279.8189,-308.5872 291.5678,-282.1145 298.0614,-261.8577"/>
<polygon fill="#000000" stroke="#000000" points="301.436,-262.7882 300.9162,-252.2061 294.7235,-260.8027 301.436,-262.7882"/>
<g id="a_edge8&#45;headlabel"><a xlink:href="dir_000490_000027.html" target="_top" xlink:title="4">
<text text-anchor="middle" x="303.1392" y="-264.5405" font-family="Helvetica,sans-Serif" font-size="10.00" fill="#000000">4</text>
</a>
</g>
</g>
<!-- dir_cd7d5e2598ca22d0234e65e7e58f6fe3&#45;&gt;dir_bcbb2cf9a3d3d83e5515c82071a07177 -->
<g id="edge10" class="edge">
<title>dir_cd7d5e2598ca22d0234e65e7e58f6fe3&#45;&gt;dir_bcbb2cf9a3d3d83e5515c82071a07177</title>
<path fill="none" stroke="#000000" d="M85.726,-363.3022C88.8214,-362.0857 91.9484,-360.9577 95,-360 177.8368,-334.0029 212.4894,-368.5639 287,-324 345.667,-288.912 335.9836,-253.9223 378,-200 381.1995,-195.8938 384.7696,-191.7227 388.3843,-187.7213"/>
<polygon fill="#000000" stroke="#000000" points="391.0462,-189.9986 395.3045,-180.2972 385.9258,-185.2256 391.0462,-189.9986"/>
<g id="a_edge10&#45;headlabel"><a xlink:href="dir_000490_000013.html" target="_top" xlink:title="25">
<text text-anchor="middle" x="390.6722" y="-192.0639" font-family="Helvetica,sans-Serif" font-size="10.00" fill="#000000">25</text>
</a>
</g>
</g>
<!-- dir_cd7d5e2598ca22d0234e65e7e58f6fe3&#45;&gt;dir_2171f7ec022c5423887b07c69b2f5b48 -->
<g id="edge11" class="edge">
<title>dir_cd7d5e2598ca22d0234e65e7e58f6fe3&#45;&gt;dir_2171f7ec022c5423887b07c69b2f5b48</title>
<path fill="none" stroke="#000000" d="M85.8191,-363.5779C88.8957,-362.3055 91.9928,-361.0892 95,-360 150.9661,-339.7292 180.8005,-364.9502 224,-324 224.2441,-323.7686 272.7194,-179.904 293.6053,-117.896"/>
<polygon fill="#000000" stroke="#000000" points="296.9488,-118.934 296.8238,-108.3399 290.3149,-116.6996 296.9488,-118.934"/>
<g id="a_edge11&#45;headlabel"><a xlink:href="dir_000490_000076.html" target="_top" xlink:title="22">
<text text-anchor="middle" x="298.4922" y="-120.7469" font-family="Helvetica,sans-Serif" font-size="10.00" fill="#000000">22</text>
</a>
</g>
</g>
<!-- dir_4ab6b4cc6a7edbff49100e9123df213f&#45;&gt;dir_bcbb2cf9a3d3d83e5515c82071a07177 -->
<g id="edge12" class="edge">
<title>dir_4ab6b4cc6a7edbff49100e9123df213f&#45;&gt;dir_bcbb2cf9a3d3d83e5515c82071a07177</title>
<path fill="none" stroke="#000000" d="M319.3881,-215.8499C325.9506,-210.5744 333.6843,-204.9134 341,-200 349.8608,-194.0488 359.6667,-187.9819 369.1875,-182.4934"/>
<polygon fill="#000000" stroke="#000000" points="371.1879,-185.384 378.1882,-177.4313 367.7564,-179.2828 371.1879,-185.384"/>
<g id="a_edge12&#45;headlabel"><a xlink:href="dir_000027_000013.html" target="_top" xlink:title="2">
<text text-anchor="middle" x="369.4466" y="-187.1208" font-family="Helvetica,sans-Serif" font-size="10.00" fill="#000000">2</text>
</a>
</g>
</g>
<!-- dir_4ab6b4cc6a7edbff49100e9123df213f&#45;&gt;dir_2171f7ec022c5423887b07c69b2f5b48 -->
<g id="edge13" class="edge">
<title>dir_4ab6b4cc6a7edbff49100e9123df213f&#45;&gt;dir_2171f7ec022c5423887b07c69b2f5b48</title>
<path fill="none" stroke="#000000" d="M300.0735,-215.7623C297.2726,-191.201 296.3874,-147.2474 297.8964,-118.3541"/>
<polygon fill="#000000" stroke="#000000" points="301.4078,-118.3037 298.593,-108.0896 294.4238,-117.8297 301.4078,-118.3037"/>
<g id="a_edge13&#45;headlabel"><a xlink:href="dir_000027_000076.html" target="_top" xlink:title="2">
<text text-anchor="middle" x="303.9972" y="-119.5822" font-family="Helvetica,sans-Serif" font-size="10.00" fill="#000000">2</text>
</a>
</g>
</g>
<!-- dir_b05a5fa85f84bfc9013183c9d87f9a36&#45;&gt;dir_4ab6b4cc6a7edbff49100e9123df213f -->
<g id="edge14" class="edge">
<title>dir_b05a5fa85f84bfc9013183c9d87f9a36&#45;&gt;dir_4ab6b4cc6a7edbff49100e9123df213f</title>
<path fill="none" stroke="#000000" d="M278.6873,-36.2692C269.1866,-45.8244 259.021,-58.3628 254,-72 248.4718,-87.0146 250.9421,-92.2949 254,-108 260.9281,-143.582 277.9042,-181.8286 290.3756,-206.7309"/>
<polygon fill="#000000" stroke="#000000" points="287.3988,-208.597 295.0699,-215.9049 293.6304,-205.4083 287.3988,-208.597"/>
<g id="a_edge14&#45;headlabel"><a xlink:href="dir_000572_000027.html" target="_top" xlink:title="1">
<text text-anchor="middle" x="283.2338" y="-204.1903" font-family="Helvetica,sans-Serif" font-size="10.00" fill="#000000">1</text>
</a>
</g>
</g>
<!-- dir_b05a5fa85f84bfc9013183c9d87f9a36&#45;&gt;dir_bcbb2cf9a3d3d83e5515c82071a07177 -->
<g id="edge15" class="edge">
<title>dir_b05a5fa85f84bfc9013183c9d87f9a36&#45;&gt;dir_bcbb2cf9a3d3d83e5515c82071a07177</title>
<path fill="none" stroke="#000000" d="M319.0756,-36.2957C329.2718,-46.4407 341.791,-59.5007 352,-72 368.6065,-92.332 385.3729,-116.9758 397.2756,-135.3316"/>
<polygon fill="#000000" stroke="#000000" points="394.3585,-137.2665 402.706,-143.7911 400.2492,-133.485 394.3585,-137.2665"/>
<g id="a_edge15&#45;headlabel"><a xlink:href="dir_000572_000013.html" target="_top" xlink:title="33">
<text text-anchor="middle" x="390.0274" y="-133.2753" font-family="Helvetica,sans-Serif" font-size="10.00" fill="#000000">33</text>
</a>
</g>
</g>
<!-- dir_b05a5fa85f84bfc9013183c9d87f9a36&#45;&gt;dir_2171f7ec022c5423887b07c69b2f5b48 -->
<g id="edge16" class="edge">
<title>dir_b05a5fa85f84bfc9013183c9d87f9a36&#45;&gt;dir_2171f7ec022c5423887b07c69b2f5b48</title>
<path fill="none" stroke="#000000" d="M306.7432,-36.4133C307.7929,-44.0593 308.3831,-53.1084 308.431,-61.5726"/>
<polygon fill="#000000" stroke="#000000" points="304.926,-61.7536 308.1954,-71.8314 311.9242,-61.9144 304.926,-61.7536"/>
<g id="a_edge16&#45;headlabel"><a xlink:href="dir_000572_000076.html" target="_top" xlink:title="48">
<text text-anchor="middle" x="302.1699" y="-55.5948" font-family="Helvetica,sans-Serif" font-size="10.00" fill="#000000">48</text>
</a>
</g>
</g>
<!-- dir_37c90836491b695b472bf98d1be8336b&#45;&gt;dir_4ab6b4cc6a7edbff49100e9123df213f -->
<g id="edge17" class="edge">
<title>dir_37c90836491b695b472bf98d1be8336b&#45;&gt;dir_4ab6b4cc6a7edbff49100e9123df213f</title>
<path fill="none" stroke="#000000" d="M369.3663,-36.0733C365.5557,-54.3491 359.1368,-83.3404 352,-108 342.5829,-140.5388 338.95,-148.3037 327,-180 323.7658,-188.5784 320.0667,-197.8453 316.6363,-206.24"/>
<polygon fill="#000000" stroke="#000000" points="313.3529,-205.0214 312.7767,-215.6005 319.8244,-207.6897 313.3529,-205.0214"/>
<g id="a_edge17&#45;headlabel"><a xlink:href="dir_000274_000027.html" target="_top" xlink:title="16">
<text text-anchor="middle" x="312.0982" y="-198.1159" font-family="Helvetica,sans-Serif" font-size="10.00" fill="#000000">16</text>
</a>
</g>
</g>
<!-- dir_37c90836491b695b472bf98d1be8336b&#45;&gt;dir_bcbb2cf9a3d3d83e5515c82071a07177 -->
<g id="edge18" class="edge">
<title>dir_37c90836491b695b472bf98d1be8336b&#45;&gt;dir_bcbb2cf9a3d3d83e5515c82071a07177</title>
<path fill="none" stroke="#000000" d="M396.3909,-36.162C406.6333,-45.6063 417.5459,-58.0818 423,-72 430.7469,-91.769 427.7994,-115.7627 423.2936,-134.0031"/>
<polygon fill="#000000" stroke="#000000" points="419.8925,-133.1709 420.6091,-143.7414 426.6408,-135.0311 419.8925,-133.1709"/>
<g id="a_edge18&#45;headlabel"><a xlink:href="dir_000274_000013.html" target="_top" xlink:title="1">
<text text-anchor="middle" x="418.1105" y="-126.451" font-family="Helvetica,sans-Serif" font-size="10.00" fill="#000000">1</text>
</a>
</g>
</g>
<!-- dir_37c90836491b695b472bf98d1be8336b&#45;&gt;dir_2171f7ec022c5423887b07c69b2f5b48 -->
<g id="edge19" class="edge">
<title>dir_37c90836491b695b472bf98d1be8336b&#45;&gt;dir_2171f7ec022c5423887b07c69b2f5b48</title>
<path fill="none" stroke="#000000" d="M361.0742,-36.4133C353.4781,-45.0787 343.4644,-55.5464 333.847,-64.9223"/>
<polygon fill="#000000" stroke="#000000" points="331.4284,-62.3924 326.6163,-71.8314 336.2644,-67.4534 331.4284,-62.3924"/>
<g id="a_edge19&#45;headlabel"><a xlink:href="dir_000274_000076.html" target="_top" xlink:title="12">
<text text-anchor="middle" x="332.0659" y="-55.3563" font-family="Helvetica,sans-Serif" font-size="10.00" fill="#000000">12</text>
</a>
</g>
</g>
<!-- dir_bcbb2cf9a3d3d83e5515c82071a07177&#45;&gt;dir_4ab6b4cc6a7edbff49100e9123df213f -->
<g id="edge29" class="edge">
<title>dir_bcbb2cf9a3d3d83e5515c82071a07177&#45;&gt;dir_4ab6b4cc6a7edbff49100e9123df213f</title>
<path fill="none" stroke="#000000" d="M390.5314,-180.0635C380.6316,-186.158 369.1908,-193.1556 359,-200 354.1051,-203.2876 349.0231,-206.9098 343.9956,-210.5273"/>
<polygon fill="#000000" stroke="#000000" points="341.6995,-207.8676 335.6291,-216.551 345.7896,-213.5485 341.6995,-207.8676"/>
<g id="a_edge29&#45;headlabel"><a xlink:href="dir_000013_000027.html" target="_top" xlink:title="8">
<text text-anchor="middle" x="342.9578" y="-200.9632" font-family="Helvetica,sans-Serif" font-size="10.00" fill="#000000">8</text>
</a>
</g>
</g>
<!-- dir_bcbb2cf9a3d3d83e5515c82071a07177&#45;&gt;dir_2171f7ec022c5423887b07c69b2f5b48 -->
<g id="edge30" class="edge">
<title>dir_bcbb2cf9a3d3d83e5515c82071a07177&#45;&gt;dir_2171f7ec022c5423887b07c69b2f5b48</title>
<path fill="none" stroke="#000000" d="M380.0376,-143.8314C365.2221,-134.7927 348.0431,-123.7476 333.6244,-114.0198"/>
<polygon fill="#000000" stroke="#000000" points="335.2809,-110.9128 325.0492,-108.1628 331.3328,-116.6932 335.2809,-110.9128"/>
<g id="a_edge30&#45;headlabel"><a xlink:href="dir_000013_000076.html" target="_top" xlink:title="82">
<text text-anchor="middle" x="339.8506" y="-108.0956" font-family="Helvetica,sans-Serif" font-size="10.00" fill="#000000">82</text>
</a>
</g>
</g>
<!-- dir_26637d1bd82229bc9ed97f7e706be743&#45;&gt;dir_4ab6b4cc6a7edbff49100e9123df213f -->
<g id="edge31" class="edge">
<title>dir_26637d1bd82229bc9ed97f7e706be743&#45;&gt;dir_4ab6b4cc6a7edbff49100e9123df213f</title>
<path fill="none" stroke="#000000" d="M429.8254,-293.1278C406.1459,-281.9112 371.5,-265.5 344.7129,-252.8114"/>
<polygon fill="#000000" stroke="#000000" points="346.1323,-249.611 335.5966,-248.4931 343.1357,-255.9371 346.1323,-249.611"/>
<g id="a_edge31&#45;headlabel"><a xlink:href="dir_000576_000027.html" target="_top" xlink:title="10">
<text text-anchor="middle" x="350.5963" y="-246.0838" font-family="Helvetica,sans-Serif" font-size="10.00" fill="#000000">10</text>
</a>
</g>
</g>
<!-- dir_26637d1bd82229bc9ed97f7e706be743&#45;&gt;dir_bcbb2cf9a3d3d83e5515c82071a07177 -->
<g id="edge32" class="edge">
<title>dir_26637d1bd82229bc9ed97f7e706be743&#45;&gt;dir_bcbb2cf9a3d3d83e5515c82071a07177</title>
<path fill="none" stroke="#000000" d="M451.554,-287.7623C444.1874,-263.0928 430.979,-218.8598 422.3531,-189.9731"/>
<polygon fill="#000000" stroke="#000000" points="425.6168,-188.6701 419.4018,-180.0896 418.9094,-190.673 425.6168,-188.6701"/>
<g id="a_edge32&#45;headlabel"><a xlink:href="dir_000576_000013.html" target="_top" xlink:title="25">
<text text-anchor="middle" x="429.3658" y="-188.802" font-family="Helvetica,sans-Serif" font-size="10.00" fill="#000000">25</text>
</a>
</g>
</g>
<!-- dir_26637d1bd82229bc9ed97f7e706be743&#45;&gt;dir_2171f7ec022c5423887b07c69b2f5b48 -->
<g id="edge33" class="edge">
<title>dir_26637d1bd82229bc9ed97f7e706be743&#45;&gt;dir_2171f7ec022c5423887b07c69b2f5b48</title>
<path fill="none" stroke="#000000" d="M463.5114,-287.9295C473.8817,-255.6831 489.9982,-187.5329 459,-144 446.3683,-126.2605 393.7596,-110.5529 353.0885,-100.7162"/>
<polygon fill="#000000" stroke="#000000" points="353.8375,-97.2969 343.3008,-98.4049 352.2287,-104.1095 353.8375,-97.2969"/>
<g id="a_edge33&#45;headlabel"><a xlink:href="dir_000576_000076.html" target="_top" xlink:title="15">
<text text-anchor="middle" x="357.9884" y="-92.8597" font-family="Helvetica,sans-Serif" font-size="10.00" fill="#000000">15</text>
</a>
</g>
</g>
<!-- dir_2171f7ec022c5423887b07c69b2f5b48&#45;&gt;dir_7c9998090bca7c4aa89c05dd66fe73f5 -->
<g id="edge37" class="edge">
<title>dir_2171f7ec022c5423887b07c69b2f5b48&#45;&gt;dir_7c9998090bca7c4aa89c05dd66fe73f5</title>
<path fill="none" stroke="#000000" d="M262.6904,-97.5254C217.2651,-106.8414 147.4649,-123.9539 130,-144 115.4257,-160.7283 112.3091,-186.0924 112.4753,-205.6352"/>
<polygon fill="#000000" stroke="#000000" points="108.9841,-205.9387 112.8535,-215.8017 115.9793,-205.6784 108.9841,-205.9387"/>
<g id="a_edge37&#45;headlabel"><a xlink:href="dir_000076_000476.html" target="_top" xlink:title="1">
<text text-anchor="middle" x="106.0133" y="-199.9521" font-family="Helvetica,sans-Serif" font-size="10.00" fill="#000000">1</text>
</a>
</g>
</g>
<!-- dir_2171f7ec022c5423887b07c69b2f5b48&#45;&gt;dir_4ab6b4cc6a7edbff49100e9123df213f -->
<g id="edge34" class="edge">
<title>dir_2171f7ec022c5423887b07c69b2f5b48&#45;&gt;dir_4ab6b4cc6a7edbff49100e9123df213f</title>
<path fill="none" stroke="#000000" d="M307.9095,-108.0896C310.7182,-132.5727 311.6121,-176.5174 310.1127,-205.4713"/>
<polygon fill="#000000" stroke="#000000" points="306.5996,-205.5498 309.4199,-215.7623 313.5838,-206.02 306.5996,-205.5498"/>
<g id="a_edge34&#45;headlabel"><a xlink:href="dir_000076_000027.html" target="_top" xlink:title="35">
<text text-anchor="middle" x="304.0081" y="-199.2726" font-family="Helvetica,sans-Serif" font-size="10.00" fill="#000000">35</text>
</a>
</g>
</g>
<!-- dir_2171f7ec022c5423887b07c69b2f5b48&#45;&gt;dir_b05a5fa85f84bfc9013183c9d87f9a36 -->
<g id="edge35" class="edge">
<title>dir_2171f7ec022c5423887b07c69b2f5b48&#45;&gt;dir_b05a5fa85f84bfc9013183c9d87f9a36</title>
<path fill="none" stroke="#000000" d="M296.2906,-71.8314C295.2193,-64.131 294.6169,-54.9743 294.5689,-46.4166"/>
<polygon fill="#000000" stroke="#000000" points="298.0681,-46.4886 294.7912,-36.4133 291.0698,-46.333 298.0681,-46.4886"/>
<g id="a_edge35&#45;headlabel"><a xlink:href="dir_000076_000572.html" target="_top" xlink:title="1">
<text text-anchor="middle" x="300.8269" y="-47.6454" font-family="Helvetica,sans-Serif" font-size="10.00" fill="#000000">1</text>
</a>
</g>
</g>
<!-- dir_2171f7ec022c5423887b07c69b2f5b48&#45;&gt;dir_37c90836491b695b472bf98d1be8336b -->
<g id="edge36" class="edge">
<title>dir_2171f7ec022c5423887b07c69b2f5b48&#45;&gt;dir_37c90836491b695b472bf98d1be8336b</title>
<path fill="none" stroke="#000000" d="M314.7116,-71.8314C322.32,-63.1337 332.4101,-52.5783 342.1029,-43.1265"/>
<polygon fill="#000000" stroke="#000000" points="344.5783,-45.6021 349.3899,-36.1628 339.7421,-40.5414 344.5783,-45.6021"/>
<g id="a_edge36&#45;headlabel"><a xlink:href="dir_000076_000274.html" target="_top" xlink:title="1">
<text text-anchor="middle" x="343.9412" y="-47.6382" font-family="Helvetica,sans-Serif" font-size="10.00" fill="#000000">1</text>
</a>
</g>
</g>
<!-- dir_2171f7ec022c5423887b07c69b2f5b48&#45;&gt;dir_bcbb2cf9a3d3d83e5515c82071a07177 -->
<g id="edge38" class="edge">
<title>dir_2171f7ec022c5423887b07c69b2f5b48&#45;&gt;dir_bcbb2cf9a3d3d83e5515c82071a07177</title>
<path fill="none" stroke="#000000" d="M336.9529,-108.1628C351.7673,-117.2007 368.9465,-128.2456 383.3664,-137.9739"/>
<polygon fill="#000000" stroke="#000000" points="381.7106,-141.0815 391.9424,-143.8314 385.6587,-135.3011 381.7106,-141.0815"/>
<g id="a_edge38&#45;headlabel"><a xlink:href="dir_000076_000013.html" target="_top" xlink:title="11">
<text text-anchor="middle" x="377.141" y="-138.8988" font-family="Helvetica,sans-Serif" font-size="10.00" fill="#000000">11</text>
</a>
</g>
</g>
</g>
</svg>
