<?xml version="1.0" encoding="UTF-8" standalone="no"?>
<!DOCTYPE svg PUBLIC "-//W3C//DTD SVG 1.1//EN"
 "http://www.w3.org/Graphics/SVG/1.1/DTD/svg11.dtd">
<!-- Generated by graphviz version 2.40.1 (20161225.0304)
 -->
<!-- Title: /home/travis/build/AliceO2Group/AliceO2/Detectors/TPC/reconstruction Pages: 1 -->
<!--zoomable 591 -->
<svg id="main" version="1.1" xmlns="http://www.w3.org/2000/svg" xmlns:xlink="http://www.w3.org/1999/xlink" xml:space="preserve" onload="init(evt)">
<style type="text/css"><![CDATA[
.edge:hover path { stroke: red; }
.edge:hover polygon { stroke: red; fill: red; }
]]></style>
<script type="text/javascript"><![CDATA[
var edges = document.getElementsByTagName('g');
if (edges && edges.length) {
  for (var i=0;i<edges.length;i++) {
    if (edges[i].id.substr(0,4)=='edge') {
      edges[i].setAttribute('class','edge');
    }
  }
}
]]></script>
        <defs>
                <circle id="rim" cx="0" cy="0" r="7"/>
                <circle id="rim2" cx="0" cy="0" r="3.5"/>
                <g id="zoomPlus">
                        <use xlink:href="#rim" fill="#404040">
                                <set attributeName="fill" to="#808080" begin="zoomplus.mouseover" end="zoomplus.mouseout"/>
                        </use>
                        <path d="M-4,0h8M0,-4v8" fill="none" stroke="white" stroke-width="1.5" pointer-events="none"/>
                </g>
                <g id="zoomMin">
                        <use xlink:href="#rim" fill="#404040">
                                <set attributeName="fill" to="#808080" begin="zoomminus.mouseover" end="zoomminus.mouseout"/>
                        </use>
                        <path d="M-4,0h8" fill="none" stroke="white" stroke-width="1.5" pointer-events="none"/>
                </g>
                <g id="dirArrow">
                        <path fill="none" stroke="white" stroke-width="1.5" d="M0,-3.0v7 M-2.5,-0.5L0,-3.0L2.5,-0.5"/>
                </g>
               <g id="resetDef">
                       <use xlink:href="#rim2" fill="#404040">
                               <set attributeName="fill" to="#808080" begin="reset.mouseover" end="reset.mouseout"/>
                       </use>
               </g>
        </defs>

<script type="text/javascript">
var viewWidth = 686;
var viewHeight = 591;
var sectionId = 'dynsection-0';
</script>
<script xlink:href="svgpan.js"/>
<svg id="graph" class="graph">
<g id="viewport">
<title>/home/travis/build/AliceO2Group/AliceO2/Detectors/TPC/reconstruction</title>
<g id="clust1" class="cluster">
<title>clusterdir_a597e8e061b11201a1dff411feb10d0b</title>
<g id="a_clust1"><a xlink:href="dir_a597e8e061b11201a1dff411feb10d0b.html" target="_top" xlink:title="TPC">
<polygon fill="#ddddee" stroke="#000000" points="305,-416 305,-575 639,-575 639,-416 305,-416"/>
<text text-anchor="middle" x="472" y="-563" font-family="Helvetica,sans-Serif" font-size="10.00" fill="#000000">TPC</text>
</a>
</g>
</g>
<g id="clust2" class="cluster">
<title>clusterdir_a5de047958dd458e809773c6ffaa8478</title>
<g id="a_clust2"><a xlink:href="dir_a5de047958dd458e809773c6ffaa8478.html" target="_top">
<polygon fill="#eeeeff" stroke="#000000" points="313,-424 313,-548 631,-548 631,-424 313,-424"/>
</a>
</g>
</g>
<!-- dir_a5de047958dd458e809773c6ffaa8478 -->
<g id="node1" class="node">
<title>dir_a5de047958dd458e809773c6ffaa8478</title>
<text text-anchor="middle" x="580" y="-519.5" font-family="Helvetica,sans-Serif" font-size="10.00" fill="#000000">reconstruction</text>
</g>
<!-- dir_396d171119822f66a36fe1ebf998d1a3 -->
<g id="node2" class="node">
<title>dir_396d171119822f66a36fe1ebf998d1a3</title>
<g id="a_node2"><a xlink:href="dir_396d171119822f66a36fe1ebf998d1a3.html" target="_top" xlink:title="include">
<polygon fill="#ffffff" stroke="#ff0000" points="375,-468 321,-468 321,-432 375,-432 375,-468"/>
<text text-anchor="middle" x="348" y="-447.5" font-family="Helvetica,sans-Serif" font-size="10.00" fill="#000000">include</text>
</a>
</g>
</g>
<!-- dir_677b030cc750909e4cd27413873678d8 -->
<g id="node6" class="node">
<title>dir_677b030cc750909e4cd27413873678d8</title>
<g id="a_node6"><a xlink:href="dir_677b030cc750909e4cd27413873678d8.html" target="_top" xlink:title="base">
<polygon fill="none" stroke="#ff0000" points="297,-468 243,-468 243,-432 297,-432 297,-468"/>
<text text-anchor="middle" x="270" y="-447.5" font-family="Helvetica,sans-Serif" font-size="10.00" fill="#000000">base</text>
</a>
</g>
</g>
<!-- dir_396d171119822f66a36fe1ebf998d1a3&#45;&gt;dir_677b030cc750909e4cd27413873678d8 -->
<g id="edge14" class="edge">
<title>dir_396d171119822f66a36fe1ebf998d1a3&#45;&gt;dir_677b030cc750909e4cd27413873678d8</title>
<path fill="none" stroke="#000000" d="M320.9685,-450C316.3722,-450 311.7758,-450 307.1795,-450"/>
<polygon fill="#000000" stroke="#000000" points="307.1172,-446.5001 297.1172,-450 307.1172,-453.5001 307.1172,-446.5001"/>
<g id="a_edge14&#45;headlabel"><a xlink:href="dir_000371_000050.html" target="_top" xlink:title="8">
<text text-anchor="middle" x="310.7118" y="-441.1607" font-family="Helvetica,sans-Serif" font-size="10.00" fill="#000000">8</text>
</a>
</g>
</g>
<!-- dir_4ab6b4cc6a7edbff49100e9123df213f -->
<g id="node7" class="node">
<title>dir_4ab6b4cc6a7edbff49100e9123df213f</title>
<g id="a_node7"><a xlink:href="dir_4ab6b4cc6a7edbff49100e9123df213f.html" target="_top" xlink:title="Common">
<polygon fill="none" stroke="#ff0000" points="258.5,-396 197.5,-396 197.5,-360 258.5,-360 258.5,-396"/>
<text text-anchor="middle" x="228" y="-375.5" font-family="Helvetica,sans-Serif" font-size="10.00" fill="#000000">Common</text>
</a>
</g>
</g>
<!-- dir_396d171119822f66a36fe1ebf998d1a3&#45;&gt;dir_4ab6b4cc6a7edbff49100e9123df213f -->
<g id="edge15" class="edge">
<title>dir_396d171119822f66a36fe1ebf998d1a3&#45;&gt;dir_4ab6b4cc6a7edbff49100e9123df213f</title>
<path fill="none" stroke="#000000" d="M327.3382,-431.7241C320.7526,-426.3299 313.2806,-420.6352 306,-416 294.1531,-408.4577 280.5895,-401.3689 268.131,-395.4036"/>
<polygon fill="#000000" stroke="#000000" points="269.4074,-392.1367 258.8661,-391.072 266.4427,-398.4779 269.4074,-392.1367"/>
<g id="a_edge15&#45;headlabel"><a xlink:href="dir_000371_000027.html" target="_top" xlink:title="2">
<text text-anchor="middle" x="273.8661" y="-388.587" font-family="Helvetica,sans-Serif" font-size="10.00" fill="#000000">2</text>
</a>
</g>
</g>
<!-- dir_b05a5fa85f84bfc9013183c9d87f9a36 -->
<g id="node8" class="node">
<title>dir_b05a5fa85f84bfc9013183c9d87f9a36</title>
<g id="a_node8"><a xlink:href="dir_b05a5fa85f84bfc9013183c9d87f9a36.html" target="_top" xlink:title="Utilities">
<polygon fill="none" stroke="#ff0000" points="243.5,-108 188.5,-108 188.5,-72 243.5,-72 243.5,-108"/>
<text text-anchor="middle" x="216" y="-87.5" font-family="Helvetica,sans-Serif" font-size="10.00" fill="#000000">Utilities</text>
</a>
</g>
</g>
<!-- dir_396d171119822f66a36fe1ebf998d1a3&#45;&gt;dir_b05a5fa85f84bfc9013183c9d87f9a36 -->
<g id="edge16" class="edge">
<title>dir_396d171119822f66a36fe1ebf998d1a3&#45;&gt;dir_b05a5fa85f84bfc9013183c9d87f9a36</title>
<path fill="none" stroke="#000000" d="M329.744,-431.8125C322.8289,-425.8941 314.5499,-419.8614 306,-416 257.5223,-394.106 232.1687,-425.6404 188,-396 148.8809,-369.7483 132,-353.1111 132,-306 132,-306 132,-306 132,-234 132,-187.3742 165.2643,-142.406 189.9272,-115.4732"/>
<polygon fill="#000000" stroke="#000000" points="192.6229,-117.7162 196.9391,-108.0404 187.531,-112.9127 192.6229,-117.7162"/>
<g id="a_edge16&#45;headlabel"><a xlink:href="dir_000371_000572.html" target="_top" xlink:title="1">
<text text-anchor="middle" x="192.2216" y="-119.7792" font-family="Helvetica,sans-Serif" font-size="10.00" fill="#000000">1</text>
</a>
</g>
</g>
<!-- dir_f511f1e9c03c071966ae594f00bbc5e0 -->
<g id="node9" class="node">
<title>dir_f511f1e9c03c071966ae594f00bbc5e0</title>
<g id="a_node9"><a xlink:href="dir_f511f1e9c03c071966ae594f00bbc5e0.html" target="_top" xlink:title="GPU">
<polygon fill="none" stroke="#ff0000" points="422,-324 368,-324 368,-288 422,-288 422,-324"/>
<text text-anchor="middle" x="395" y="-303.5" font-family="Helvetica,sans-Serif" font-size="10.00" fill="#000000">GPU</text>
</a>
</g>
</g>
<!-- dir_396d171119822f66a36fe1ebf998d1a3&#45;&gt;dir_f511f1e9c03c071966ae594f00bbc5e0 -->
<g id="edge17" class="edge">
<title>dir_396d171119822f66a36fe1ebf998d1a3&#45;&gt;dir_f511f1e9c03c071966ae594f00bbc5e0</title>
<path fill="none" stroke="#000000" d="M353.9526,-431.7623C362.0044,-407.0928 376.4416,-362.8598 385.8699,-333.9731"/>
<polygon fill="#000000" stroke="#000000" points="389.3201,-334.6821 389.0957,-324.0896 382.6656,-332.5101 389.3201,-334.6821"/>
<g id="a_edge17&#45;headlabel"><a xlink:href="dir_000371_000685.html" target="_top" xlink:title="1">
<text text-anchor="middle" x="390.904" y="-336.4802" font-family="Helvetica,sans-Serif" font-size="10.00" fill="#000000">1</text>
</a>
</g>
</g>
<!-- dir_26637d1bd82229bc9ed97f7e706be743 -->
<g id="node11" class="node">
<title>dir_26637d1bd82229bc9ed97f7e706be743</title>
<g id="a_node11"><a xlink:href="dir_26637d1bd82229bc9ed97f7e706be743.html" target="_top" xlink:title="Raw">
<polygon fill="none" stroke="#ff0000" points="346,-252 292,-252 292,-216 346,-216 346,-252"/>
<text text-anchor="middle" x="319" y="-231.5" font-family="Helvetica,sans-Serif" font-size="10.00" fill="#000000">Raw</text>
</a>
</g>
</g>
<!-- dir_396d171119822f66a36fe1ebf998d1a3&#45;&gt;dir_26637d1bd82229bc9ed97f7e706be743 -->
<g id="edge18" class="edge">
<title>dir_396d171119822f66a36fe1ebf998d1a3&#45;&gt;dir_26637d1bd82229bc9ed97f7e706be743</title>
<path fill="none" stroke="#000000" d="M345.5774,-431.9555C340.5237,-394.3144 328.826,-307.1867 322.776,-262.1246"/>
<polygon fill="#000000" stroke="#000000" points="326.2358,-261.5904 321.4361,-252.1451 319.298,-262.5219 326.2358,-261.5904"/>
<g id="a_edge18&#45;headlabel"><a xlink:href="dir_000371_000576.html" target="_top" xlink:title="1">
<text text-anchor="middle" x="329.528" y="-262.2753" font-family="Helvetica,sans-Serif" font-size="10.00" fill="#000000">1</text>
</a>
</g>
</g>
<!-- dir_2171f7ec022c5423887b07c69b2f5b48 -->
<g id="node12" class="node">
<title>dir_2171f7ec022c5423887b07c69b2f5b48</title>
<g id="a_node12"><a xlink:href="dir_2171f7ec022c5423887b07c69b2f5b48.html" target="_top" xlink:title="DataFormats">
<polygon fill="none" stroke="#ff0000" points="461,-180 381,-180 381,-144 461,-144 461,-180"/>
<text text-anchor="middle" x="421" y="-159.5" font-family="Helvetica,sans-Serif" font-size="10.00" fill="#000000">DataFormats</text>
</a>
</g>
</g>
<!-- dir_396d171119822f66a36fe1ebf998d1a3&#45;&gt;dir_2171f7ec022c5423887b07c69b2f5b48 -->
<g id="edge19" class="edge">
<title>dir_396d171119822f66a36fe1ebf998d1a3&#45;&gt;dir_2171f7ec022c5423887b07c69b2f5b48</title>
<path fill="none" stroke="#000000" d="M365.2198,-431.7718C385.6249,-408.7704 418.4379,-366.9951 431,-324 444.2635,-278.6042 435.8374,-223.1009 428.4606,-190.2553"/>
<polygon fill="#000000" stroke="#000000" points="431.8435,-189.3518 426.1312,-180.4288 425.0322,-190.9665 431.8435,-189.3518"/>
<g id="a_edge19&#45;headlabel"><a xlink:href="dir_000371_000076.html" target="_top" xlink:title="23">
<text text-anchor="middle" x="435.4353" y="-189.6947" font-family="Helvetica,sans-Serif" font-size="10.00" fill="#000000">23</text>
</a>
</g>
</g>
<!-- dir_f9c1a6d4eb662f0614520771b81d0fc2 -->
<g id="node3" class="node">
<title>dir_f9c1a6d4eb662f0614520771b81d0fc2</title>
<g id="a_node3"><a xlink:href="dir_f9c1a6d4eb662f0614520771b81d0fc2.html" target="_top" xlink:title="run">
<polygon fill="#ffffff" stroke="#000000" points="375,-540 321,-540 321,-504 375,-504 375,-540"/>
<text text-anchor="middle" x="348" y="-519.5" font-family="Helvetica,sans-Serif" font-size="10.00" fill="#000000">run</text>
</a>
</g>
</g>
<!-- dir_f9c1a6d4eb662f0614520771b81d0fc2&#45;&gt;dir_396d171119822f66a36fe1ebf998d1a3 -->
<g id="edge2" class="edge">
<title>dir_f9c1a6d4eb662f0614520771b81d0fc2&#45;&gt;dir_396d171119822f66a36fe1ebf998d1a3</title>
<path fill="none" stroke="#000000" d="M348,-503.8314C348,-496.131 348,-486.9743 348,-478.4166"/>
<polygon fill="#000000" stroke="#000000" points="351.5001,-478.4132 348,-468.4133 344.5001,-478.4133 351.5001,-478.4132"/>
<g id="a_edge2&#45;headlabel"><a xlink:href="dir_000618_000371.html" target="_top" xlink:title="5">
<text text-anchor="middle" x="354.3393" y="-479.5079" font-family="Helvetica,sans-Serif" font-size="10.00" fill="#000000">5</text>
</a>
</g>
</g>
<!-- dir_f9c1a6d4eb662f0614520771b81d0fc2&#45;&gt;dir_677b030cc750909e4cd27413873678d8 -->
<g id="edge1" class="edge">
<title>dir_f9c1a6d4eb662f0614520771b81d0fc2&#45;&gt;dir_677b030cc750909e4cd27413873678d8</title>
<path fill="none" stroke="#000000" d="M328.3173,-503.8314C318.8949,-495.1337 307.4599,-484.5783 297.2204,-475.1265"/>
<polygon fill="#000000" stroke="#000000" points="299.3984,-472.3738 289.6764,-468.1628 294.6505,-477.5175 299.3984,-472.3738"/>
<g id="a_edge1&#45;headlabel"><a xlink:href="dir_000618_000050.html" target="_top" xlink:title="1">
<text text-anchor="middle" x="303.9656" y="-470.2257" font-family="Helvetica,sans-Serif" font-size="10.00" fill="#000000">1</text>
</a>
</g>
</g>
<!-- dir_f9c1a6d4eb662f0614520771b81d0fc2&#45;&gt;dir_2171f7ec022c5423887b07c69b2f5b48 -->
<g id="edge3" class="edge">
<title>dir_f9c1a6d4eb662f0614520771b81d0fc2&#45;&gt;dir_2171f7ec022c5423887b07c69b2f5b48</title>
<path fill="none" stroke="#000000" d="M375.0344,-507.0986C424.8293,-478.7252 526,-416.3578 526,-378 526,-378 526,-378 526,-306 526,-256.4381 484.8892,-212.5199 454.1157,-186.5876"/>
<polygon fill="#000000" stroke="#000000" points="456.1074,-183.6951 446.1501,-180.0752 451.6767,-189.1145 456.1074,-183.6951"/>
<g id="a_edge3&#45;headlabel"><a xlink:href="dir_000618_000076.html" target="_top" xlink:title="1">
<text text-anchor="middle" x="460.6874" y="-181.2722" font-family="Helvetica,sans-Serif" font-size="10.00" fill="#000000">1</text>
</a>
</g>
</g>
<!-- dir_0c8c50542de1d83a040084fab225b0f7 -->
<g id="node4" class="node">
<title>dir_0c8c50542de1d83a040084fab225b0f7</title>
<g id="a_node4"><a xlink:href="dir_0c8c50542de1d83a040084fab225b0f7.html" target="_top" xlink:title="src">
<polygon fill="#ffffff" stroke="#000000" points="519,-540 465,-540 465,-504 519,-504 519,-540"/>
<text text-anchor="middle" x="492" y="-519.5" font-family="Helvetica,sans-Serif" font-size="10.00" fill="#000000">src</text>
</a>
</g>
</g>
<!-- dir_0c8c50542de1d83a040084fab225b0f7&#45;&gt;dir_396d171119822f66a36fe1ebf998d1a3 -->
<g id="edge31" class="edge">
<title>dir_0c8c50542de1d83a040084fab225b0f7&#45;&gt;dir_396d171119822f66a36fe1ebf998d1a3</title>
<path fill="none" stroke="#000000" d="M464.9147,-508.4574C442.2307,-497.1153 409.6433,-480.8217 384.6319,-468.316"/>
<polygon fill="#000000" stroke="#000000" points="385.963,-465.0684 375.4534,-463.7267 382.8325,-471.3294 385.963,-465.0684"/>
<g id="a_edge31&#45;headlabel"><a xlink:href="dir_000488_000371.html" target="_top" xlink:title="21">
<text text-anchor="middle" x="390.4478" y="-461.6364" font-family="Helvetica,sans-Serif" font-size="10.00" fill="#000000">21</text>
</a>
</g>
</g>
<!-- dir_0c8c50542de1d83a040084fab225b0f7&#45;&gt;dir_677b030cc750909e4cd27413873678d8 -->
<g id="edge30" class="edge">
<title>dir_0c8c50542de1d83a040084fab225b0f7&#45;&gt;dir_677b030cc750909e4cd27413873678d8</title>
<path fill="none" stroke="#000000" d="M464.7628,-507.5928C461.8437,-506.287 458.8862,-505.0598 456,-504 392.8582,-480.8147 372.4962,-490.1962 309,-468 308.2873,-467.7508 307.5699,-467.4932 306.8494,-467.2283"/>
<polygon fill="#000000" stroke="#000000" points="308.0103,-463.923 297.4259,-463.4531 305.4071,-470.4209 308.0103,-463.923"/>
<g id="a_edge30&#45;headlabel"><a xlink:href="dir_000488_000050.html" target="_top" xlink:title="21">
<text text-anchor="middle" x="312.4029" y="-460.124" font-family="Helvetica,sans-Serif" font-size="10.00" fill="#000000">21</text>
</a>
</g>
</g>
<!-- dir_0c8c50542de1d83a040084fab225b0f7&#45;&gt;dir_f511f1e9c03c071966ae594f00bbc5e0 -->
<g id="edge32" class="edge">
<title>dir_0c8c50542de1d83a040084fab225b0f7&#45;&gt;dir_f511f1e9c03c071966ae594f00bbc5e0</title>
<path fill="none" stroke="#000000" d="M483.8967,-503.9555C466.886,-466.0762 427.3701,-378.0818 407.2481,-333.274"/>
<polygon fill="#000000" stroke="#000000" points="410.438,-331.8336 403.1485,-324.1451 404.0523,-334.7013 410.438,-331.8336"/>
<g id="a_edge32&#45;headlabel"><a xlink:href="dir_000488_000685.html" target="_top" xlink:title="7">
<text text-anchor="middle" x="414.5006" y="-331.4496" font-family="Helvetica,sans-Serif" font-size="10.00" fill="#000000">7</text>
</a>
</g>
</g>
<!-- dir_bcbb2cf9a3d3d83e5515c82071a07177 -->
<g id="node10" class="node">
<title>dir_bcbb2cf9a3d3d83e5515c82071a07177</title>
<g id="a_node10"><a xlink:href="dir_bcbb2cf9a3d3d83e5515c82071a07177.html" target="_top" xlink:title="Framework">
<polygon fill="none" stroke="#ff0000" points="167.5,-36 96.5,-36 96.5,0 167.5,0 167.5,-36"/>
<text text-anchor="middle" x="132" y="-15.5" font-family="Helvetica,sans-Serif" font-size="10.00" fill="#000000">Framework</text>
</a>
</g>
</g>
<!-- dir_0c8c50542de1d83a040084fab225b0f7&#45;&gt;dir_bcbb2cf9a3d3d83e5515c82071a07177 -->
<g id="edge33" class="edge">
<title>dir_0c8c50542de1d83a040084fab225b0f7&#45;&gt;dir_bcbb2cf9a3d3d83e5515c82071a07177</title>
<path fill="none" stroke="#000000" d="M519.0822,-508.3456C522.0846,-506.8656 525.1029,-505.3924 528,-504 606.4726,-466.2841 678,-465.0657 678,-378 678,-378 678,-378 678,-162 678,-58.9161 309.5228,-28.0188 177.9784,-20.273"/>
<polygon fill="#000000" stroke="#000000" points="178.0078,-16.7691 167.8246,-19.6937 177.6089,-23.7577 178.0078,-16.7691"/>
<g id="a_edge33&#45;headlabel"><a xlink:href="dir_000488_000013.html" target="_top" xlink:title="2">
<text text-anchor="middle" x="181.7582" y="-11.6391" font-family="Helvetica,sans-Serif" font-size="10.00" fill="#000000">2</text>
</a>
</g>
</g>
<!-- dir_0c8c50542de1d83a040084fab225b0f7&#45;&gt;dir_26637d1bd82229bc9ed97f7e706be743 -->
<g id="edge34" class="edge">
<title>dir_0c8c50542de1d83a040084fab225b0f7&#45;&gt;dir_26637d1bd82229bc9ed97f7e706be743</title>
<path fill="none" stroke="#000000" d="M492.3697,-503.752C492.2637,-460.8566 486.1915,-352.3878 431,-288 411.6146,-265.3845 380.5869,-251.4601 356.1,-243.4283"/>
<polygon fill="#000000" stroke="#000000" points="356.9861,-240.039 346.3987,-240.4367 354.9233,-246.7282 356.9861,-240.039"/>
<g id="a_edge34&#45;headlabel"><a xlink:href="dir_000488_000576.html" target="_top" xlink:title="2">
<text text-anchor="middle" x="361.2577" y="-235.885" font-family="Helvetica,sans-Serif" font-size="10.00" fill="#000000">2</text>
</a>
</g>
</g>
<!-- dir_0c8c50542de1d83a040084fab225b0f7&#45;&gt;dir_2171f7ec022c5423887b07c69b2f5b48 -->
<g id="edge35" class="edge">
<title>dir_0c8c50542de1d83a040084fab225b0f7&#45;&gt;dir_2171f7ec022c5423887b07c69b2f5b48</title>
<path fill="none" stroke="#000000" d="M518.1187,-503.8062C560.6066,-473.2338 640,-411.6091 640,-378 640,-378 640,-378 640,-306 640,-225.6611 535.8348,-187.6442 471.1829,-171.7855"/>
<polygon fill="#000000" stroke="#000000" points="471.704,-168.3125 461.168,-169.4274 470.0996,-175.1262 471.704,-168.3125"/>
<g id="a_edge35&#45;headlabel"><a xlink:href="dir_000488_000076.html" target="_top" xlink:title="13">
<text text-anchor="middle" x="475.8536" y="-163.8726" font-family="Helvetica,sans-Serif" font-size="10.00" fill="#000000">13</text>
</a>
</g>
</g>
<!-- dir_064d7f478c030df51e47c94b08ab25b1 -->
<g id="node5" class="node">
<title>dir_064d7f478c030df51e47c94b08ab25b1</title>
<g id="a_node5"><a xlink:href="dir_064d7f478c030df51e47c94b08ab25b1.html" target="_top" xlink:title="test">
<polygon fill="#ffffff" stroke="#000000" points="447,-540 393,-540 393,-504 447,-504 447,-540"/>
<text text-anchor="middle" x="420" y="-519.5" font-family="Helvetica,sans-Serif" font-size="10.00" fill="#000000">test</text>
</a>
</g>
</g>
<!-- dir_064d7f478c030df51e47c94b08ab25b1&#45;&gt;dir_396d171119822f66a36fe1ebf998d1a3 -->
<g id="edge21" class="edge">
<title>dir_064d7f478c030df51e47c94b08ab25b1&#45;&gt;dir_396d171119822f66a36fe1ebf998d1a3</title>
<path fill="none" stroke="#000000" d="M401.8314,-503.8314C393.2848,-495.2848 382.9443,-484.9443 373.6198,-475.6198"/>
<polygon fill="#000000" stroke="#000000" points="375.9592,-473.0095 366.4133,-468.4133 371.0095,-477.9592 375.9592,-473.0095"/>
<g id="a_edge21&#45;headlabel"><a xlink:href="dir_000619_000371.html" target="_top" xlink:title="6">
<text text-anchor="middle" x="380.5087" y="-471.0436" font-family="Helvetica,sans-Serif" font-size="10.00" fill="#000000">6</text>
</a>
</g>
</g>
<!-- dir_064d7f478c030df51e47c94b08ab25b1&#45;&gt;dir_677b030cc750909e4cd27413873678d8 -->
<g id="edge20" class="edge">
<title>dir_064d7f478c030df51e47c94b08ab25b1&#45;&gt;dir_677b030cc750909e4cd27413873678d8</title>
<path fill="none" stroke="#000000" d="M392.9037,-508.3747C389.904,-506.8893 386.8901,-505.4068 384,-504 358.1558,-491.4197 328.8463,-477.5449 306.4182,-467.0097"/>
<polygon fill="#000000" stroke="#000000" points="307.7975,-463.7908 297.2576,-462.7126 304.8247,-470.1282 307.7975,-463.7908"/>
<g id="a_edge20&#45;headlabel"><a xlink:href="dir_000619_000050.html" target="_top" xlink:title="7">
<text text-anchor="middle" x="312.2576" y="-460.2468" font-family="Helvetica,sans-Serif" font-size="10.00" fill="#000000">7</text>
</a>
</g>
</g>
<!-- dir_064d7f478c030df51e47c94b08ab25b1&#45;&gt;dir_f511f1e9c03c071966ae594f00bbc5e0 -->
<g id="edge22" class="edge">
<title>dir_064d7f478c030df51e47c94b08ab25b1&#45;&gt;dir_f511f1e9c03c071966ae594f00bbc5e0</title>
<path fill="none" stroke="#000000" d="M417.9115,-503.9555C413.5549,-466.3144 403.4707,-379.1867 398.2552,-334.1246"/>
<polygon fill="#000000" stroke="#000000" points="401.7267,-333.6763 397.1001,-324.1451 394.7732,-334.4812 401.7267,-333.6763"/>
<g id="a_edge22&#45;headlabel"><a xlink:href="dir_000619_000685.html" target="_top" xlink:title="4">
<text text-anchor="middle" x="404.9604" y="-334.4207" font-family="Helvetica,sans-Serif" font-size="10.00" fill="#000000">4</text>
</a>
</g>
</g>
<!-- dir_064d7f478c030df51e47c94b08ab25b1&#45;&gt;dir_2171f7ec022c5423887b07c69b2f5b48 -->
<g id="edge23" class="edge">
<title>dir_064d7f478c030df51e47c94b08ab25b1&#45;&gt;dir_2171f7ec022c5423887b07c69b2f5b48</title>
<path fill="none" stroke="#000000" d="M447.0441,-508.2649C450.0536,-506.8 453.084,-505.3524 456,-504 492.8472,-486.9103 513.4241,-498.7164 540,-468 567.0865,-436.6934 564,-419.3978 564,-378 564,-378 564,-378 564,-306 564,-264.6022 566.7547,-247.5906 540,-216 522.345,-195.1538 494.9716,-181.9712 470.9278,-173.8549"/>
<polygon fill="#000000" stroke="#000000" points="471.8034,-170.461 461.2134,-170.7819 469.6921,-177.135 471.8034,-170.461"/>
<g id="a_edge23&#45;headlabel"><a xlink:href="dir_000619_000076.html" target="_top" xlink:title="10">
<text text-anchor="middle" x="476.087" y="-166.338" font-family="Helvetica,sans-Serif" font-size="10.00" fill="#000000">10</text>
</a>
</g>
</g>
<!-- dir_677b030cc750909e4cd27413873678d8&#45;&gt;dir_4ab6b4cc6a7edbff49100e9123df213f -->
<g id="edge4" class="edge">
<title>dir_677b030cc750909e4cd27413873678d8&#45;&gt;dir_4ab6b4cc6a7edbff49100e9123df213f</title>
<path fill="none" stroke="#000000" d="M259.4016,-431.8314C254.7123,-423.7925 249.0972,-414.1666 243.9202,-405.2918"/>
<polygon fill="#000000" stroke="#000000" points="246.8031,-403.2875 238.7411,-396.4133 240.7566,-406.8146 246.8031,-403.2875"/>
<g id="a_edge4&#45;headlabel"><a xlink:href="dir_000050_000027.html" target="_top" xlink:title="14">
<text text-anchor="middle" x="251.0667" y="-402.4618" font-family="Helvetica,sans-Serif" font-size="10.00" fill="#000000">14</text>
</a>
</g>
</g>
<!-- dir_677b030cc750909e4cd27413873678d8&#45;&gt;dir_bcbb2cf9a3d3d83e5515c82071a07177 -->
<g id="edge5" class="edge">
<title>dir_677b030cc750909e4cd27413873678d8&#45;&gt;dir_bcbb2cf9a3d3d83e5515c82071a07177</title>
<path fill="none" stroke="#000000" d="M242.8752,-448.1677C174.4068,-441.9276 0,-415.3047 0,-306 0,-306 0,-306 0,-162 0,-108.4679 50.1833,-66.2045 88.6654,-41.6652"/>
<polygon fill="#000000" stroke="#000000" points="90.994,-44.3409 97.6631,-36.1085 87.3158,-38.3851 90.994,-44.3409"/>
<g id="a_edge5&#45;headlabel"><a xlink:href="dir_000050_000013.html" target="_top" xlink:title="1">
<text text-anchor="middle" x="89.4275" y="-46.1454" font-family="Helvetica,sans-Serif" font-size="10.00" fill="#000000">1</text>
</a>
</g>
</g>
<!-- dir_677b030cc750909e4cd27413873678d8&#45;&gt;dir_26637d1bd82229bc9ed97f7e706be743 -->
<g id="edge6" class="edge">
<title>dir_677b030cc750909e4cd27413873678d8&#45;&gt;dir_26637d1bd82229bc9ed97f7e706be743</title>
<path fill="none" stroke="#000000" d="M274.0934,-431.9555C282.6324,-394.3144 302.3975,-307.1867 312.6199,-262.1246"/>
<polygon fill="#000000" stroke="#000000" points="316.0846,-262.6716 314.8838,-252.1451 309.2581,-261.1229 316.0846,-262.6716"/>
<g id="a_edge6&#45;headlabel"><a xlink:href="dir_000050_000576.html" target="_top" xlink:title="2">
<text text-anchor="middle" x="318.0584" y="-264.3053" font-family="Helvetica,sans-Serif" font-size="10.00" fill="#000000">2</text>
</a>
</g>
</g>
<!-- dir_677b030cc750909e4cd27413873678d8&#45;&gt;dir_2171f7ec022c5423887b07c69b2f5b48 -->
<g id="edge7" class="edge">
<title>dir_677b030cc750909e4cd27413873678d8&#45;&gt;dir_2171f7ec022c5423887b07c69b2f5b48</title>
<path fill="none" stroke="#000000" d="M242.9325,-440.2673C223.7936,-431.7934 199.5624,-417.4586 188,-396 154.7826,-334.3519 204.5353,-260.701 255,-216 287.1071,-187.5599 334.45,-174.0613 370.3693,-167.6759"/>
<polygon fill="#000000" stroke="#000000" points="371.3474,-171.0621 380.6467,-165.9853 370.2112,-164.1549 371.3474,-171.0621"/>
<g id="a_edge7&#45;headlabel"><a xlink:href="dir_000050_000076.html" target="_top" xlink:title="21">
<text text-anchor="middle" x="368.2613" y="-171.9471" font-family="Helvetica,sans-Serif" font-size="10.00" fill="#000000">21</text>
</a>
</g>
</g>
<!-- dir_4ab6b4cc6a7edbff49100e9123df213f&#45;&gt;dir_f511f1e9c03c071966ae594f00bbc5e0 -->
<g id="edge8" class="edge">
<title>dir_4ab6b4cc6a7edbff49100e9123df213f&#45;&gt;dir_f511f1e9c03c071966ae594f00bbc5e0</title>
<path fill="none" stroke="#000000" d="M258.5581,-362.3771C286.8152,-349.539 328.6466,-331.5458 358.6094,-319.3669"/>
<polygon fill="#000000" stroke="#000000" points="359.9193,-322.6126 367.8883,-315.6309 357.3048,-316.1192 359.9193,-322.6126"/>
<g id="a_edge8&#45;headlabel"><a xlink:href="dir_000027_000685.html" target="_top" xlink:title="3">
<text text-anchor="middle" x="357.6452" y="-324.0889" font-family="Helvetica,sans-Serif" font-size="10.00" fill="#000000">3</text>
</a>
</g>
</g>
<!-- dir_4ab6b4cc6a7edbff49100e9123df213f&#45;&gt;dir_bcbb2cf9a3d3d83e5515c82071a07177 -->
<g id="edge9" class="edge">
<title>dir_4ab6b4cc6a7edbff49100e9123df213f&#45;&gt;dir_bcbb2cf9a3d3d83e5515c82071a07177</title>
<path fill="none" stroke="#000000" d="M197.4593,-370.8272C143.5582,-355.0852 38,-312.5035 38,-234 38,-234 38,-234 38,-162 38,-115.2973 71.5673,-70.4253 98.7468,-43.5264"/>
<polygon fill="#000000" stroke="#000000" points="101.3752,-45.8569 106.2102,-36.4296 96.5516,-40.7841 101.3752,-45.8569"/>
<g id="a_edge9&#45;headlabel"><a xlink:href="dir_000027_000013.html" target="_top" xlink:title="2">
<text text-anchor="middle" x="100.7268" y="-47.8914" font-family="Helvetica,sans-Serif" font-size="10.00" fill="#000000">2</text>
</a>
</g>
</g>
<!-- dir_4ab6b4cc6a7edbff49100e9123df213f&#45;&gt;dir_2171f7ec022c5423887b07c69b2f5b48 -->
<g id="edge10" class="edge">
<title>dir_4ab6b4cc6a7edbff49100e9123df213f&#45;&gt;dir_2171f7ec022c5423887b07c69b2f5b48</title>
<path fill="none" stroke="#000000" d="M223.9955,-359.9054C223.484,-327.0089 234.8125,-257.0203 274,-216 299.2568,-189.5619 339.0017,-175.8357 370.9044,-168.8553"/>
<polygon fill="#000000" stroke="#000000" points="371.8526,-172.2344 380.9585,-166.8185 370.4626,-165.3738 371.8526,-172.2344"/>
<g id="a_edge10&#45;headlabel"><a xlink:href="dir_000027_000076.html" target="_top" xlink:title="2">
<text text-anchor="middle" x="368.8932" y="-173.2308" font-family="Helvetica,sans-Serif" font-size="10.00" fill="#000000">2</text>
</a>
</g>
</g>
<!-- dir_b05a5fa85f84bfc9013183c9d87f9a36&#45;&gt;dir_4ab6b4cc6a7edbff49100e9123df213f -->
<g id="edge11" class="edge">
<title>dir_b05a5fa85f84bfc9013183c9d87f9a36&#45;&gt;dir_4ab6b4cc6a7edbff49100e9123df213f</title>
<path fill="none" stroke="#000000" d="M216.7504,-108.0089C218.7788,-156.6912 224.3829,-291.1886 226.8306,-349.9345"/>
<polygon fill="#000000" stroke="#000000" points="223.336,-350.1387 227.2493,-359.9843 230.3299,-349.8472 223.336,-350.1387"/>
<g id="a_edge11&#45;headlabel"><a xlink:href="dir_000572_000027.html" target="_top" xlink:title="1">
<text text-anchor="middle" x="220.3496" y="-344.1654" font-family="Helvetica,sans-Serif" font-size="10.00" fill="#000000">1</text>
</a>
</g>
</g>
<!-- dir_b05a5fa85f84bfc9013183c9d87f9a36&#45;&gt;dir_bcbb2cf9a3d3d83e5515c82071a07177 -->
<g id="edge12" class="edge">
<title>dir_b05a5fa85f84bfc9013183c9d87f9a36&#45;&gt;dir_bcbb2cf9a3d3d83e5515c82071a07177</title>
<path fill="none" stroke="#000000" d="M194.8033,-71.8314C184.5566,-63.0485 172.0997,-52.3712 160.9903,-42.8489"/>
<polygon fill="#000000" stroke="#000000" points="163.0603,-40.0134 153.19,-36.1628 158.5048,-45.3282 163.0603,-40.0134"/>
<g id="a_edge12&#45;headlabel"><a xlink:href="dir_000572_000013.html" target="_top" xlink:title="33">
<text text-anchor="middle" x="167.6373" y="-37.697" font-family="Helvetica,sans-Serif" font-size="10.00" fill="#000000">33</text>
</a>
</g>
</g>
<!-- dir_b05a5fa85f84bfc9013183c9d87f9a36&#45;&gt;dir_2171f7ec022c5423887b07c69b2f5b48 -->
<g id="edge13" class="edge">
<title>dir_b05a5fa85f84bfc9013183c9d87f9a36&#45;&gt;dir_2171f7ec022c5423887b07c69b2f5b48</title>
<path fill="none" stroke="#000000" d="M243.7826,-98.1851C276.4839,-108.8513 331.1157,-127.8505 371.15,-142.3533"/>
<polygon fill="#000000" stroke="#000000" points="370.1405,-145.7105 380.7345,-145.8418 372.5347,-139.1326 370.1405,-145.7105"/>
<g id="a_edge13&#45;headlabel"><a xlink:href="dir_000572_000076.html" target="_top" xlink:title="48">
<text text-anchor="middle" x="365.7916" y="-144.6492" font-family="Helvetica,sans-Serif" font-size="10.00" fill="#000000">48</text>
</a>
</g>
</g>
<!-- dir_f511f1e9c03c071966ae594f00bbc5e0&#45;&gt;dir_4ab6b4cc6a7edbff49100e9123df213f -->
<g id="edge24" class="edge">
<title>dir_f511f1e9c03c071966ae594f00bbc5e0&#45;&gt;dir_4ab6b4cc6a7edbff49100e9123df213f</title>
<path fill="none" stroke="#000000" d="M367.8377,-320.075C340.8072,-332.4393 299.2421,-350.3766 268.377,-363.0072"/>
<polygon fill="#000000" stroke="#000000" points="266.7141,-359.9047 258.7638,-366.9078 269.346,-366.3911 266.7141,-359.9047"/>
<g id="a_edge24&#45;headlabel"><a xlink:href="dir_000685_000027.html" target="_top" xlink:title="2">
<text text-anchor="middle" x="268.9775" y="-353.4223" font-family="Helvetica,sans-Serif" font-size="10.00" fill="#000000">2</text>
</a>
</g>
</g>
<!-- dir_f511f1e9c03c071966ae594f00bbc5e0&#45;&gt;dir_b05a5fa85f84bfc9013183c9d87f9a36 -->
<g id="edge25" class="edge">
<title>dir_f511f1e9c03c071966ae594f00bbc5e0&#45;&gt;dir_b05a5fa85f84bfc9013183c9d87f9a36</title>
<path fill="none" stroke="#000000" d="M389.4668,-287.9372C383.0863,-268.8933 371.337,-238.5807 355,-216 325.4201,-175.1151 280.7315,-137.567 250.0566,-114.292"/>
<polygon fill="#000000" stroke="#000000" points="251.9043,-111.3032 241.8006,-108.1148 247.7107,-116.908 251.9043,-111.3032"/>
<g id="a_edge25&#45;headlabel"><a xlink:href="dir_000685_000572.html" target="_top" xlink:title="4">
<text text-anchor="middle" x="256.4834" y="-108.6832" font-family="Helvetica,sans-Serif" font-size="10.00" fill="#000000">4</text>
</a>
</g>
</g>
<!-- dir_f511f1e9c03c071966ae594f00bbc5e0&#45;&gt;dir_26637d1bd82229bc9ed97f7e706be743 -->
<g id="edge26" class="edge">
<title>dir_f511f1e9c03c071966ae594f00bbc5e0&#45;&gt;dir_26637d1bd82229bc9ed97f7e706be743</title>
<path fill="none" stroke="#000000" d="M369.8696,-287.8314C360.0153,-279.2848 348.9198,-268.9443 339.549,-259.6198"/>
<polygon fill="#000000" stroke="#000000" points="341.968,-257.088 332.4602,-252.4133 336.9776,-261.9968 341.968,-257.088"/>
<g id="a_edge26&#45;headlabel"><a xlink:href="dir_000685_000576.html" target="_top" xlink:title="1">
<text text-anchor="middle" x="346.5129" y="-255.1595" font-family="Helvetica,sans-Serif" font-size="10.00" fill="#000000">1</text>
</a>
</g>
</g>
<!-- dir_f511f1e9c03c071966ae594f00bbc5e0&#45;&gt;dir_2171f7ec022c5423887b07c69b2f5b48 -->
<g id="edge27" class="edge">
<title>dir_f511f1e9c03c071966ae594f00bbc5e0&#45;&gt;dir_2171f7ec022c5423887b07c69b2f5b48</title>
<path fill="none" stroke="#000000" d="M393.6197,-287.7623C395.6033,-263.0928 403.3235,-218.8598 410.4773,-189.9731"/>
<polygon fill="#000000" stroke="#000000" points="413.9179,-190.6509 413.0755,-180.0896 407.148,-188.8711 413.9179,-190.6509"/>
<g id="a_edge27&#45;headlabel"><a xlink:href="dir_000685_000076.html" target="_top" xlink:title="15">
<text text-anchor="middle" x="415.75" y="-192.3493" font-family="Helvetica,sans-Serif" font-size="10.00" fill="#000000">15</text>
</a>
</g>
</g>
<!-- dir_bcbb2cf9a3d3d83e5515c82071a07177&#45;&gt;dir_4ab6b4cc6a7edbff49100e9123df213f -->
<g id="edge28" class="edge">
<title>dir_bcbb2cf9a3d3d83e5515c82071a07177&#45;&gt;dir_4ab6b4cc6a7edbff49100e9123df213f</title>
<path fill="none" stroke="#000000" d="M118.3611,-36.4296C96.1758,-62.004 56,-110.9064 56,-162 56,-234 56,-234 56,-234 56,-302.6576 136.7405,-343.839 187.6882,-363.6197"/>
<polygon fill="#000000" stroke="#000000" points="186.5461,-366.9295 197.138,-367.1792 189.0136,-360.3788 186.5461,-366.9295"/>
<g id="a_edge28&#45;headlabel"><a xlink:href="dir_000013_000027.html" target="_top" xlink:title="8">
<text text-anchor="middle" x="182.1814" y="-365.8195" font-family="Helvetica,sans-Serif" font-size="10.00" fill="#000000">8</text>
</a>
</g>
</g>
<!-- dir_bcbb2cf9a3d3d83e5515c82071a07177&#45;&gt;dir_2171f7ec022c5423887b07c69b2f5b48 -->
<g id="edge29" class="edge">
<title>dir_bcbb2cf9a3d3d83e5515c82071a07177&#45;&gt;dir_2171f7ec022c5423887b07c69b2f5b48</title>
<path fill="none" stroke="#000000" d="M167.5249,-30.1328C193.8447,-40.7487 230.0296,-56.8059 261,-72 304.8669,-93.5211 354.0752,-119.9997 386.3253,-138.6476"/>
<polygon fill="#000000" stroke="#000000" points="384.9591,-141.9032 395.3585,-143.9288 388.4921,-135.8601 384.9591,-141.9032"/>
<g id="a_edge29&#45;headlabel"><a xlink:href="dir_000013_000076.html" target="_top" xlink:title="82">
<text text-anchor="middle" x="380.4229" y="-140.0401" font-family="Helvetica,sans-Serif" font-size="10.00" fill="#000000">82</text>
</a>
</g>
</g>
<!-- dir_26637d1bd82229bc9ed97f7e706be743&#45;&gt;dir_4ab6b4cc6a7edbff49100e9123df213f -->
<g id="edge36" class="edge">
<title>dir_26637d1bd82229bc9ed97f7e706be743&#45;&gt;dir_4ab6b4cc6a7edbff49100e9123df213f</title>
<path fill="none" stroke="#000000" d="M307.5684,-252.0896C291.8238,-277.0041 263.3433,-322.0722 245.0703,-350.9877"/>
<polygon fill="#000000" stroke="#000000" points="241.9087,-349.439 239.5252,-359.7623 247.8261,-353.1786 241.9087,-349.439"/>
<g id="a_edge36&#45;headlabel"><a xlink:href="dir_000576_000027.html" target="_top" xlink:title="10">
<text text-anchor="middle" x="241.4287" y="-342.3836" font-family="Helvetica,sans-Serif" font-size="10.00" fill="#000000">10</text>
</a>
</g>
</g>
<!-- dir_26637d1bd82229bc9ed97f7e706be743&#45;&gt;dir_f511f1e9c03c071966ae594f00bbc5e0 -->
<g id="edge37" class="edge">
<title>dir_26637d1bd82229bc9ed97f7e706be743&#45;&gt;dir_f511f1e9c03c071966ae594f00bbc5e0</title>
<path fill="none" stroke="#000000" d="M344.1237,-252.1628C354.0532,-260.7744 365.2438,-271.2081 374.6606,-280.5888"/>
<polygon fill="#000000" stroke="#000000" points="372.27,-283.1497 381.7744,-287.8314 377.2639,-278.2446 372.27,-283.1497"/>
<g id="a_edge37&#45;headlabel"><a xlink:href="dir_000576_000685.html" target="_top" xlink:title="2">
<text text-anchor="middle" x="367.7256" y="-280.0749" font-family="Helvetica,sans-Serif" font-size="10.00" fill="#000000">2</text>
</a>
</g>
</g>
<!-- dir_26637d1bd82229bc9ed97f7e706be743&#45;&gt;dir_bcbb2cf9a3d3d83e5515c82071a07177 -->
<g id="edge38" class="edge">
<title>dir_26637d1bd82229bc9ed97f7e706be743&#45;&gt;dir_bcbb2cf9a3d3d83e5515c82071a07177</title>
<path fill="none" stroke="#000000" d="M294.0155,-215.9671C263.923,-193.3196 213.1666,-152.0574 179,-108 164.0746,-88.7539 151.5693,-64.0661 143.2195,-45.4169"/>
<polygon fill="#000000" stroke="#000000" points="146.3279,-43.7882 139.1303,-36.0136 139.9086,-46.5798 146.3279,-43.7882"/>
<g id="a_edge38&#45;headlabel"><a xlink:href="dir_000576_000013.html" target="_top" xlink:title="25">
<text text-anchor="middle" x="150.3651" y="-43.4523" font-family="Helvetica,sans-Serif" font-size="10.00" fill="#000000">25</text>
</a>
</g>
</g>
<!-- dir_26637d1bd82229bc9ed97f7e706be743&#45;&gt;dir_2171f7ec022c5423887b07c69b2f5b48 -->
<g id="edge39" class="edge">
<title>dir_26637d1bd82229bc9ed97f7e706be743&#45;&gt;dir_2171f7ec022c5423887b07c69b2f5b48</title>
<path fill="none" stroke="#000000" d="M344.7389,-215.8314C357.5437,-206.7927 373.1909,-195.7476 386.9719,-186.0198"/>
<polygon fill="#000000" stroke="#000000" points="389.118,-188.7891 395.2693,-180.1628 385.0812,-183.0703 389.118,-188.7891"/>
<g id="a_edge39&#45;headlabel"><a xlink:href="dir_000576_000076.html" target="_top" xlink:title="15">
<text text-anchor="middle" x="387.8187" y="-190.6816" font-family="Helvetica,sans-Serif" font-size="10.00" fill="#000000">15</text>
</a>
</g>
</g>
<!-- dir_2171f7ec022c5423887b07c69b2f5b48&#45;&gt;dir_4ab6b4cc6a7edbff49100e9123df213f -->
<g id="edge40" class="edge">
<title>dir_2171f7ec022c5423887b07c69b2f5b48&#45;&gt;dir_4ab6b4cc6a7edbff49100e9123df213f</title>
<path fill="none" stroke="#000000" d="M380.7826,-170.1188C352.5078,-177.4455 315.8139,-191.0723 292,-216 256.4863,-253.1746 243.853,-314.1406 236.6129,-349.7297"/>
<polygon fill="#000000" stroke="#000000" points="233.1064,-349.4053 234.5198,-359.9054 239.9629,-350.8157 233.1064,-349.4053"/>
<g id="a_edge40&#45;headlabel"><a xlink:href="dir_000076_000027.html" target="_top" xlink:title="35">
<text text-anchor="middle" x="231.0495" y="-342.8124" font-family="Helvetica,sans-Serif" font-size="10.00" fill="#000000">35</text>
</a>
</g>
</g>
<!-- dir_2171f7ec022c5423887b07c69b2f5b48&#45;&gt;dir_b05a5fa85f84bfc9013183c9d87f9a36 -->
<g id="edge41" class="edge">
<title>dir_2171f7ec022c5423887b07c69b2f5b48&#45;&gt;dir_b05a5fa85f84bfc9013183c9d87f9a36</title>
<path fill="none" stroke="#000000" d="M380.5172,-149.6228C343.4794,-137.2743 289.2943,-118.2866 253.2911,-105.0682"/>
<polygon fill="#000000" stroke="#000000" points="254.2411,-101.6879 243.6478,-101.5032 251.8138,-108.2536 254.2411,-101.6879"/>
<g id="a_edge41&#45;headlabel"><a xlink:href="dir_000076_000572.html" target="_top" xlink:title="1">
<text text-anchor="middle" x="258.5972" y="-97.7712" font-family="Helvetica,sans-Serif" font-size="10.00" fill="#000000">1</text>
</a>
</g>
</g>
<!-- dir_2171f7ec022c5423887b07c69b2f5b48&#45;&gt;dir_f511f1e9c03c071966ae594f00bbc5e0 -->
<g id="edge42" class="edge">
<title>dir_2171f7ec022c5423887b07c69b2f5b48&#45;&gt;dir_f511f1e9c03c071966ae594f00bbc5e0</title>
<path fill="none" stroke="#000000" d="M422.3921,-180.0896C420.4316,-204.6805 412.7217,-248.905 405.5658,-277.8531"/>
<polygon fill="#000000" stroke="#000000" points="402.1183,-277.2014 402.9661,-287.7623 408.8892,-278.9778 402.1183,-277.2014"/>
<g id="a_edge42&#45;headlabel"><a xlink:href="dir_000076_000685.html" target="_top" xlink:title="18">
<text text-anchor="middle" x="400.2841" y="-270.504" font-family="Helvetica,sans-Serif" font-size="10.00" fill="#000000">18</text>
</a>
</g>
</g>
<!-- dir_2171f7ec022c5423887b07c69b2f5b48&#45;&gt;dir_bcbb2cf9a3d3d83e5515c82071a07177 -->
<g id="edge43" class="edge">
<title>dir_2171f7ec022c5423887b07c69b2f5b48&#45;&gt;dir_bcbb2cf9a3d3d83e5515c82071a07177</title>
<path fill="none" stroke="#000000" d="M381.8778,-143.9288C345.8422,-125.2755 291.1971,-95.6454 243,-72 220.7673,-61.0926 195.8473,-49.7404 175.1853,-40.2757"/>
<polygon fill="#000000" stroke="#000000" points="176.565,-37.058 166.0165,-36.0683 173.6455,-43.4201 176.565,-37.058"/>
<g id="a_edge43&#45;headlabel"><a xlink:href="dir_000076_000013.html" target="_top" xlink:title="11">
<text text-anchor="middle" x="181.0162" y="-33.4766" font-family="Helvetica,sans-Serif" font-size="10.00" fill="#000000">11</text>
</a>
</g>
</g>
</g>
</svg>
        <g id="navigator" transform="translate(0 0)" fill="#404254">
                <rect fill="#f2f5e9" fill-opacity="0.5" stroke="#606060" stroke-width=".5" x="0" y="0" width="60" height="60"/>
                <use id="zoomplus" xlink:href="#zoomPlus" x="17" y="9" onmousedown="handleZoom(evt,'in')"/>
                <use id="zoomminus" xlink:href="#zoomMin" x="42" y="9" onmousedown="handleZoom(evt,'out')"/>
                <use id="reset" xlink:href="#resetDef" x="30" y="36" onmousedown="handleReset()"/>
                <g id="arrowUp" xlink:href="#dirArrow" transform="translate(30 24)" onmousedown="handlePan(0,-1)">
                  <use xlink:href="#rim" fill="#404040">
                        <set attributeName="fill" to="#808080" begin="arrowUp.mouseover" end="arrowUp.mouseout"/>
                  </use>
                  <path fill="none" stroke="white" stroke-width="1.5" d="M0,-3.0v7 M-2.5,-0.5L0,-3.0L2.5,-0.5"/>
                </g>
                <g id="arrowRight" xlink:href="#dirArrow" transform="rotate(90) translate(36 -43)" onmousedown="handlePan(1,0)">
                  <use xlink:href="#rim" fill="#404040">
                        <set attributeName="fill" to="#808080" begin="arrowRight.mouseover" end="arrowRight.mouseout"/>
                  </use>
                  <path fill="none" stroke="white" stroke-width="1.5" d="M0,-3.0v7 M-2.5,-0.5L0,-3.0L2.5,-0.5"/>
                </g>
                <g id="arrowDown" xlink:href="#dirArrow" transform="rotate(180) translate(-30 -48)" onmousedown="handlePan(0,1)">
                  <use xlink:href="#rim" fill="#404040">
                        <set attributeName="fill" to="#808080" begin="arrowDown.mouseover" end="arrowDown.mouseout"/>
                  </use>
                  <path fill="none" stroke="white" stroke-width="1.5" d="M0,-3.0v7 M-2.5,-0.5L0,-3.0L2.5,-0.5"/>
                </g>
                <g id="arrowLeft" xlink:href="#dirArrow" transform="rotate(270) translate(-36 17)" onmousedown="handlePan(-1,0)">
                  <use xlink:href="#rim" fill="#404040">
                        <set attributeName="fill" to="#808080" begin="arrowLeft.mouseover" end="arrowLeft.mouseout"/>
                  </use>
                  <path fill="none" stroke="white" stroke-width="1.5" d="M0,-3.0v7 M-2.5,-0.5L0,-3.0L2.5,-0.5"/>
                </g>
        </g>
        <svg viewBox="0 0 15 15" width="100%" height="30px" preserveAspectRatio="xMaxYMin meet">
         <g id="arrow_out" transform="scale(0.3 0.3)">
          <a xlink:href="dir_a5de047958dd458e809773c6ffaa8478_dep_org.svg" target="_base">
           <rect id="button" ry="5" rx="5" y="6" x="6" height="38" width="38"
                fill="#f2f5e9" fill-opacity="0.5" stroke="#606060" stroke-width="1.0"/>
           <path id="arrow"
             d="M 11.500037,31.436501 C 11.940474,20.09759 22.043105,11.32322 32.158766,21.979434 L 37.068811,17.246167 C 37.068811,17.246167 37.088388,32 37.088388,32 L 22.160133,31.978069 C 22.160133,31.978069 26.997745,27.140456 26.997745,27.140456 C 18.528582,18.264221 13.291696,25.230495 11.500037,31.436501 z"
             style="fill:#404040;"/>
          </a>
         </g>
        </svg>
</svg>
