<?xml version="1.0" encoding="UTF-8" standalone="no"?>
<!DOCTYPE svg PUBLIC "-//W3C//DTD SVG 1.1//EN"
 "http://www.w3.org/Graphics/SVG/1.1/DTD/svg11.dtd">
<!-- Generated by graphviz version 2.40.1 (20161225.0304)
 -->
<!-- Title: /home/travis/build/AliceO2Group/AliceO2/Detectors/ITSMFT/ITS/reconstruction/src Pages: 1 -->
<!--zoomable 511 -->
<svg id="main" version="1.1" xmlns="http://www.w3.org/2000/svg" xmlns:xlink="http://www.w3.org/1999/xlink" xml:space="preserve" onload="init(evt)">
<style type="text/css"><![CDATA[
.edge:hover path { stroke: red; }
.edge:hover polygon { stroke: red; fill: red; }
]]></style>
<script type="text/javascript"><![CDATA[
var edges = document.getElementsByTagName('g');
if (edges && edges.length) {
  for (var i=0;i<edges.length;i++) {
    if (edges[i].id.substr(0,4)=='edge') {
      edges[i].setAttribute('class','edge');
    }
  }
}
]]></script>
        <defs>
                <circle id="rim" cx="0" cy="0" r="7"/>
                <circle id="rim2" cx="0" cy="0" r="3.5"/>
                <g id="zoomPlus">
                        <use xlink:href="#rim" fill="#404040">
                                <set attributeName="fill" to="#808080" begin="zoomplus.mouseover" end="zoomplus.mouseout"/>
                        </use>
                        <path d="M-4,0h8M0,-4v8" fill="none" stroke="white" stroke-width="1.5" pointer-events="none"/>
                </g>
                <g id="zoomMin">
                        <use xlink:href="#rim" fill="#404040">
                                <set attributeName="fill" to="#808080" begin="zoomminus.mouseover" end="zoomminus.mouseout"/>
                        </use>
                        <path d="M-4,0h8" fill="none" stroke="white" stroke-width="1.5" pointer-events="none"/>
                </g>
                <g id="dirArrow">
                        <path fill="none" stroke="white" stroke-width="1.5" d="M0,-3.0v7 M-2.5,-0.5L0,-3.0L2.5,-0.5"/>
                </g>
               <g id="resetDef">
                       <use xlink:href="#rim2" fill="#404040">
                               <set attributeName="fill" to="#808080" begin="reset.mouseover" end="reset.mouseout"/>
                       </use>
               </g>
        </defs>

<script type="text/javascript">
var viewWidth = 316;
var viewHeight = 511;
var sectionId = 'dynsection-0';
</script>
<script xlink:href="svgpan.js"/>
<svg id="graph" class="graph">
<g id="viewport">
<title>/home/travis/build/AliceO2Group/AliceO2/Detectors/ITSMFT/ITS/reconstruction/src</title>
<g id="clust1" class="cluster">
<title>clusterdir_5125ceb2b58f632ed0a3019fe2d5cbbc</title>
<g id="a_clust1"><a xlink:href="dir_5125ceb2b58f632ed0a3019fe2d5cbbc.html" target="_top" xlink:title="reconstruction">
<polygon fill="#ddddee" stroke="#000000" points="75,-424 75,-495 161,-495 161,-424 75,-424"/>
<text text-anchor="middle" x="118" y="-483" font-family="Helvetica,sans-Serif" font-size="10.00" fill="#000000">reconstruction</text>
</a>
</g>
</g>
<!-- dir_912fdeb75838ec7e9173df897dc72438 -->
<g id="node1" class="node">
<title>dir_912fdeb75838ec7e9173df897dc72438</title>
<g id="a_node1"><a xlink:href="dir_912fdeb75838ec7e9173df897dc72438.html" target="_top" xlink:title="src">
<polygon fill="#eeeeff" stroke="#000000" points="145,-468 91,-468 91,-432 145,-432 145,-468"/>
<text text-anchor="middle" x="118" y="-447.5" font-family="Helvetica,sans-Serif" font-size="10.00" fill="#000000">src</text>
</a>
</g>
</g>
<!-- dir_eedff867f3c4e67d20b227cb6e0f96ab -->
<g id="node2" class="node">
<title>dir_eedff867f3c4e67d20b227cb6e0f96ab</title>
<g id="a_node2"><a xlink:href="dir_eedff867f3c4e67d20b227cb6e0f96ab.html" target="_top" xlink:title="base">
<polygon fill="none" stroke="#ff0000" points="280,-324 226,-324 226,-288 280,-288 280,-324"/>
<text text-anchor="middle" x="253" y="-303.5" font-family="Helvetica,sans-Serif" font-size="10.00" fill="#000000">base</text>
</a>
</g>
</g>
<!-- dir_912fdeb75838ec7e9173df897dc72438&#45;&gt;dir_eedff867f3c4e67d20b227cb6e0f96ab -->
<g id="edge8" class="edge">
<title>dir_912fdeb75838ec7e9173df897dc72438&#45;&gt;dir_eedff867f3c4e67d20b227cb6e0f96ab</title>
<path fill="none" stroke="#000000" d="M145.0971,-433.5181C159.9345,-423.7205 178.0784,-410.4139 192,-396 210.3689,-376.9815 226.8993,-351.8296 238.1035,-332.9506"/>
<polygon fill="#000000" stroke="#000000" points="241.1661,-334.6464 243.1606,-324.241 235.1125,-331.1315 241.1661,-334.6464"/>
<g id="a_edge8&#45;headlabel"><a xlink:href="dir_000505_000479.html" target="_top" xlink:title="1">
<text text-anchor="middle" x="241.8165" y="-336.6807" font-family="Helvetica,sans-Serif" font-size="10.00" fill="#000000">1</text>
</a>
</g>
</g>
<!-- dir_4ab6b4cc6a7edbff49100e9123df213f -->
<g id="node3" class="node">
<title>dir_4ab6b4cc6a7edbff49100e9123df213f</title>
<g id="a_node3"><a xlink:href="dir_4ab6b4cc6a7edbff49100e9123df213f.html" target="_top" xlink:title="Common">
<polygon fill="none" stroke="#ff0000" points="127.5,-252 66.5,-252 66.5,-216 127.5,-216 127.5,-252"/>
<text text-anchor="middle" x="97" y="-231.5" font-family="Helvetica,sans-Serif" font-size="10.00" fill="#000000">Common</text>
</a>
</g>
</g>
<!-- dir_912fdeb75838ec7e9173df897dc72438&#45;&gt;dir_4ab6b4cc6a7edbff49100e9123df213f -->
<g id="edge9" class="edge">
<title>dir_912fdeb75838ec7e9173df897dc72438&#45;&gt;dir_4ab6b4cc6a7edbff49100e9123df213f</title>
<path fill="none" stroke="#000000" d="M116.2457,-431.9555C112.5861,-394.3144 104.1154,-307.1867 99.7343,-262.1246"/>
<polygon fill="#000000" stroke="#000000" points="103.2154,-261.7594 98.7641,-252.1451 96.2483,-262.4369 103.2154,-261.7594"/>
<g id="a_edge9&#45;headlabel"><a xlink:href="dir_000505_000027.html" target="_top" xlink:title="5">
<text text-anchor="middle" x="106.3891" y="-262.5625" font-family="Helvetica,sans-Serif" font-size="10.00" fill="#000000">5</text>
</a>
</g>
</g>
<!-- dir_37c90836491b695b472bf98d1be8336b -->
<g id="node4" class="node">
<title>dir_37c90836491b695b472bf98d1be8336b</title>
<g id="a_node4"><a xlink:href="dir_37c90836491b695b472bf98d1be8336b.html" target="_top" xlink:title="Base">
<polygon fill="none" stroke="#ff0000" points="153,-36 99,-36 99,0 153,0 153,-36"/>
<text text-anchor="middle" x="126" y="-15.5" font-family="Helvetica,sans-Serif" font-size="10.00" fill="#000000">Base</text>
</a>
</g>
</g>
<!-- dir_912fdeb75838ec7e9173df897dc72438&#45;&gt;dir_37c90836491b695b472bf98d1be8336b -->
<g id="edge10" class="edge">
<title>dir_912fdeb75838ec7e9173df897dc72438&#45;&gt;dir_37c90836491b695b472bf98d1be8336b</title>
<path fill="none" stroke="#000000" d="M90.9284,-433.4684C56.0908,-409.8816 0,-363.0475 0,-306 0,-306 0,-306 0,-162 0,-106.7971 53.0929,-62.5845 90.3501,-38.3549"/>
<polygon fill="#000000" stroke="#000000" points="92.3794,-41.213 98.9698,-32.9175 88.6446,-35.2926 92.3794,-41.213"/>
<g id="a_edge10&#45;headlabel"><a xlink:href="dir_000505_000274.html" target="_top" xlink:title="1">
<text text-anchor="middle" x="90.854" y="-43.0322" font-family="Helvetica,sans-Serif" font-size="10.00" fill="#000000">1</text>
</a>
</g>
</g>
<!-- dir_85bf31a2e8d306e7598ffcb73f8df6bf -->
<g id="node5" class="node">
<title>dir_85bf31a2e8d306e7598ffcb73f8df6bf</title>
<g id="a_node5"><a xlink:href="dir_85bf31a2e8d306e7598ffcb73f8df6bf.html" target="_top" xlink:title="common">
<polygon fill="none" stroke="#ff0000" points="223.5,-108 164.5,-108 164.5,-72 223.5,-72 223.5,-108"/>
<text text-anchor="middle" x="194" y="-87.5" font-family="Helvetica,sans-Serif" font-size="10.00" fill="#000000">common</text>
</a>
</g>
</g>
<!-- dir_912fdeb75838ec7e9173df897dc72438&#45;&gt;dir_85bf31a2e8d306e7598ffcb73f8df6bf -->
<g id="edge11" class="edge">
<title>dir_912fdeb75838ec7e9173df897dc72438&#45;&gt;dir_85bf31a2e8d306e7598ffcb73f8df6bf</title>
<path fill="none" stroke="#000000" d="M145.2224,-443.1158C197.7591,-428.0141 308,-386.7094 308,-306 308,-306 308,-306 308,-234 308,-183.147 263.7553,-139.7674 230.3936,-114.2861"/>
<polygon fill="#000000" stroke="#000000" points="232.2982,-111.3413 222.1798,-108.1998 228.1307,-116.9655 232.2982,-111.3413"/>
<g id="a_edge11&#45;headlabel"><a xlink:href="dir_000505_000061.html" target="_top" xlink:title="1">
<text text-anchor="middle" x="236.8767" y="-108.7001" font-family="Helvetica,sans-Serif" font-size="10.00" fill="#000000">1</text>
</a>
</g>
</g>
<!-- dir_a7418508cffd1c8afbbd736339058404 -->
<g id="node6" class="node">
<title>dir_a7418508cffd1c8afbbd736339058404</title>
<g id="a_node6"><a xlink:href="dir_a7418508cffd1c8afbbd736339058404.html" target="_top" xlink:title="include">
<polygon fill="none" stroke="#ff0000" points="183,-396 129,-396 129,-360 183,-360 183,-396"/>
<text text-anchor="middle" x="156" y="-375.5" font-family="Helvetica,sans-Serif" font-size="10.00" fill="#000000">include</text>
</a>
</g>
</g>
<!-- dir_912fdeb75838ec7e9173df897dc72438&#45;&gt;dir_a7418508cffd1c8afbbd736339058404 -->
<g id="edge12" class="edge">
<title>dir_912fdeb75838ec7e9173df897dc72438&#45;&gt;dir_a7418508cffd1c8afbbd736339058404</title>
<path fill="none" stroke="#000000" d="M127.589,-431.8314C131.8317,-423.7925 136.9121,-414.1666 141.596,-405.2918"/>
<polygon fill="#000000" stroke="#000000" points="144.7096,-406.8908 146.2819,-396.4133 138.5189,-403.6235 144.7096,-406.8908"/>
<g id="a_edge12&#45;headlabel"><a xlink:href="dir_000505_000500.html" target="_top" xlink:title="6">
<text text-anchor="middle" x="145.5428" y="-408.895" font-family="Helvetica,sans-Serif" font-size="10.00" fill="#000000">6</text>
</a>
</g>
</g>
<!-- dir_2171f7ec022c5423887b07c69b2f5b48 -->
<g id="node7" class="node">
<title>dir_2171f7ec022c5423887b07c69b2f5b48</title>
<g id="a_node7"><a xlink:href="dir_2171f7ec022c5423887b07c69b2f5b48.html" target="_top" xlink:title="DataFormats">
<polygon fill="none" stroke="#ff0000" points="166,-180 86,-180 86,-144 166,-144 166,-180"/>
<text text-anchor="middle" x="126" y="-159.5" font-family="Helvetica,sans-Serif" font-size="10.00" fill="#000000">DataFormats</text>
</a>
</g>
</g>
<!-- dir_912fdeb75838ec7e9173df897dc72438&#45;&gt;dir_2171f7ec022c5423887b07c69b2f5b48 -->
<g id="edge13" class="edge">
<title>dir_912fdeb75838ec7e9173df897dc72438&#45;&gt;dir_2171f7ec022c5423887b07c69b2f5b48</title>
<path fill="none" stroke="#000000" d="M105.0369,-431.8395C77.8525,-391.3443 20.3149,-291.2939 57,-216 62.7304,-204.2386 72.3987,-194.2849 82.7121,-186.2518"/>
<polygon fill="#000000" stroke="#000000" points="85.0013,-188.9159 91.0585,-180.2233 80.9026,-183.2412 85.0013,-188.9159"/>
<g id="a_edge13&#45;headlabel"><a xlink:href="dir_000505_000076.html" target="_top" xlink:title="8">
<text text-anchor="middle" x="83.7497" y="-190.8222" font-family="Helvetica,sans-Serif" font-size="10.00" fill="#000000">8</text>
</a>
</g>
</g>
<!-- dir_eedff867f3c4e67d20b227cb6e0f96ab&#45;&gt;dir_4ab6b4cc6a7edbff49100e9123df213f -->
<g id="edge1" class="edge">
<title>dir_eedff867f3c4e67d20b227cb6e0f96ab&#45;&gt;dir_4ab6b4cc6a7edbff49100e9123df213f</title>
<path fill="none" stroke="#000000" d="M225.8269,-293.4586C201.2001,-282.0924 164.6006,-265.2003 136.6987,-252.3225"/>
<polygon fill="#000000" stroke="#000000" points="138.1459,-249.1357 127.5996,-248.1229 135.2125,-255.4914 138.1459,-249.1357"/>
<g id="a_edge1&#45;headlabel"><a xlink:href="dir_000479_000027.html" target="_top" xlink:title="2">
<text text-anchor="middle" x="142.5995" y="-245.564" font-family="Helvetica,sans-Serif" font-size="10.00" fill="#000000">2</text>
</a>
</g>
</g>
<!-- dir_eedff867f3c4e67d20b227cb6e0f96ab&#45;&gt;dir_37c90836491b695b472bf98d1be8336b -->
<g id="edge2" class="edge">
<title>dir_eedff867f3c4e67d20b227cb6e0f96ab&#45;&gt;dir_37c90836491b695b472bf98d1be8336b</title>
<path fill="none" stroke="#000000" d="M262.1577,-287.5129C266.7013,-277.3118 271.7002,-264.2593 274,-252 289.1286,-171.3577 289.2268,-131.7544 233,-72 213.9955,-51.8032 185.7778,-37.9997 163.0909,-29.4068"/>
<polygon fill="#000000" stroke="#000000" points="164.0248,-26.0232 153.4303,-25.9305 161.6546,-32.6098 164.0248,-26.0232"/>
<g id="a_edge2&#45;headlabel"><a xlink:href="dir_000479_000274.html" target="_top" xlink:title="2">
<text text-anchor="middle" x="168.3684" y="-22.0687" font-family="Helvetica,sans-Serif" font-size="10.00" fill="#000000">2</text>
</a>
</g>
</g>
<!-- dir_eedff867f3c4e67d20b227cb6e0f96ab&#45;&gt;dir_85bf31a2e8d306e7598ffcb73f8df6bf -->
<g id="edge3" class="edge">
<title>dir_eedff867f3c4e67d20b227cb6e0f96ab&#45;&gt;dir_85bf31a2e8d306e7598ffcb73f8df6bf</title>
<path fill="none" stroke="#000000" d="M256.2304,-287.8316C260.8814,-256.8675 266.7908,-192.5165 246,-144 241.4078,-133.2839 233.6625,-123.4554 225.5329,-115.2055"/>
<polygon fill="#000000" stroke="#000000" points="227.7012,-112.438 218.0384,-108.0927 222.8824,-117.5154 227.7012,-112.438"/>
<g id="a_edge3&#45;headlabel"><a xlink:href="dir_000479_000061.html" target="_top" xlink:title="2">
<text text-anchor="middle" x="232.263" y="-110.3531" font-family="Helvetica,sans-Serif" font-size="10.00" fill="#000000">2</text>
</a>
</g>
</g>
<!-- dir_eedff867f3c4e67d20b227cb6e0f96ab&#45;&gt;dir_2171f7ec022c5423887b07c69b2f5b48 -->
<g id="edge4" class="edge">
<title>dir_eedff867f3c4e67d20b227cb6e0f96ab&#45;&gt;dir_2171f7ec022c5423887b07c69b2f5b48</title>
<path fill="none" stroke="#000000" d="M236.9154,-287.7623C214.5857,-262.4436 174.082,-216.5182 148.6881,-187.7251"/>
<polygon fill="#000000" stroke="#000000" points="151.1935,-185.2745 141.954,-180.0896 145.9436,-189.9046 151.1935,-185.2745"/>
<g id="a_edge4&#45;headlabel"><a xlink:href="dir_000479_000076.html" target="_top" xlink:title="1">
<text text-anchor="middle" x="155.7006" y="-183.5923" font-family="Helvetica,sans-Serif" font-size="10.00" fill="#000000">1</text>
</a>
</g>
</g>
<!-- dir_4ab6b4cc6a7edbff49100e9123df213f&#45;&gt;dir_2171f7ec022c5423887b07c69b2f5b48 -->
<g id="edge5" class="edge">
<title>dir_4ab6b4cc6a7edbff49100e9123df213f&#45;&gt;dir_2171f7ec022c5423887b07c69b2f5b48</title>
<path fill="none" stroke="#000000" d="M98.3655,-215.8314C100.7942,-207.8771 104.4137,-198.369 108.3117,-189.5723"/>
<polygon fill="#000000" stroke="#000000" points="111.5298,-190.9532 112.6075,-180.4133 105.1923,-187.9806 111.5298,-190.9532"/>
<g id="a_edge5&#45;headlabel"><a xlink:href="dir_000027_000076.html" target="_top" xlink:title="2">
<text text-anchor="middle" x="112.574" y="-192.9132" font-family="Helvetica,sans-Serif" font-size="10.00" fill="#000000">2</text>
</a>
</g>
</g>
<!-- dir_37c90836491b695b472bf98d1be8336b&#45;&gt;dir_4ab6b4cc6a7edbff49100e9123df213f -->
<g id="edge6" class="edge">
<title>dir_37c90836491b695b472bf98d1be8336b&#45;&gt;dir_4ab6b4cc6a7edbff49100e9123df213f</title>
<path fill="none" stroke="#000000" d="M116.4562,-36.1462C104.4608,-60.077 84.5302,-103.8608 77,-144 74.0498,-159.7257 74.1772,-164.251 77,-180 78.5973,-188.9118 81.5674,-198.2762 84.7391,-206.6578"/>
<polygon fill="#000000" stroke="#000000" points="81.5027,-207.9907 88.4849,-215.9594 87.996,-205.3759 81.5027,-207.9907"/>
<g id="a_edge6&#45;headlabel"><a xlink:href="dir_000274_000027.html" target="_top" xlink:title="16">
<text text-anchor="middle" x="77.5263" y="-203.2169" font-family="Helvetica,sans-Serif" font-size="10.00" fill="#000000">16</text>
</a>
</g>
</g>
<!-- dir_37c90836491b695b472bf98d1be8336b&#45;&gt;dir_2171f7ec022c5423887b07c69b2f5b48 -->
<g id="edge7" class="edge">
<title>dir_37c90836491b695b472bf98d1be8336b&#45;&gt;dir_2171f7ec022c5423887b07c69b2f5b48</title>
<path fill="none" stroke="#000000" d="M130.6583,-36.0896C133.1269,-60.5727 133.4104,-104.5174 131.5089,-133.4713"/>
<polygon fill="#000000" stroke="#000000" points="127.9942,-133.5118 130.6732,-143.7623 134.9712,-134.0785 127.9942,-133.5118"/>
<g id="a_edge7&#45;headlabel"><a xlink:href="dir_000274_000076.html" target="_top" xlink:title="12">
<text text-anchor="middle" x="125.4551" y="-127.1992" font-family="Helvetica,sans-Serif" font-size="10.00" fill="#000000">12</text>
</a>
</g>
</g>
<!-- dir_85bf31a2e8d306e7598ffcb73f8df6bf&#45;&gt;dir_4ab6b4cc6a7edbff49100e9123df213f -->
<g id="edge14" class="edge">
<title>dir_85bf31a2e8d306e7598ffcb73f8df6bf&#45;&gt;dir_4ab6b4cc6a7edbff49100e9123df213f</title>
<path fill="none" stroke="#000000" d="M194.0194,-108.0656C193.2181,-127.3874 189.4981,-158.1892 175,-180 165.4109,-194.4257 150.536,-206.1126 136.3368,-214.8762"/>
<polygon fill="#000000" stroke="#000000" points="134.5092,-211.8902 127.6364,-219.9534 138.0374,-217.9361 134.5092,-211.8902"/>
<g id="a_edge14&#45;headlabel"><a xlink:href="dir_000061_000027.html" target="_top" xlink:title="21">
<text text-anchor="middle" x="136.1829" y="-205.1263" font-family="Helvetica,sans-Serif" font-size="10.00" fill="#000000">21</text>
</a>
</g>
</g>
<!-- dir_85bf31a2e8d306e7598ffcb73f8df6bf&#45;&gt;dir_37c90836491b695b472bf98d1be8336b -->
<g id="edge15" class="edge">
<title>dir_85bf31a2e8d306e7598ffcb73f8df6bf&#45;&gt;dir_37c90836491b695b472bf98d1be8336b</title>
<path fill="none" stroke="#000000" d="M176.8407,-71.8314C168.8489,-63.3694 159.1962,-53.1489 150.4584,-43.8971"/>
<polygon fill="#000000" stroke="#000000" points="152.8011,-41.2802 143.3903,-36.4133 147.712,-46.0866 152.8011,-41.2802"/>
<g id="a_edge15&#45;headlabel"><a xlink:href="dir_000061_000274.html" target="_top" xlink:title="2">
<text text-anchor="middle" x="157.3334" y="-39.444" font-family="Helvetica,sans-Serif" font-size="10.00" fill="#000000">2</text>
</a>
</g>
</g>
<!-- dir_85bf31a2e8d306e7598ffcb73f8df6bf&#45;&gt;dir_2171f7ec022c5423887b07c69b2f5b48 -->
<g id="edge16" class="edge">
<title>dir_85bf31a2e8d306e7598ffcb73f8df6bf&#45;&gt;dir_2171f7ec022c5423887b07c69b2f5b48</title>
<path fill="none" stroke="#000000" d="M182.5857,-108.4133C175.3024,-116.9938 165.6978,-127.3414 156.4257,-136.6463"/>
<polygon fill="#000000" stroke="#000000" points="153.7926,-134.3266 149.1117,-143.8314 158.6981,-139.3202 153.7926,-134.3266"/>
<g id="a_edge16&#45;headlabel"><a xlink:href="dir_000061_000076.html" target="_top" xlink:title="70">
<text text-anchor="middle" x="154.3671" y="-127.2822" font-family="Helvetica,sans-Serif" font-size="10.00" fill="#000000">70</text>
</a>
</g>
</g>
<!-- dir_a7418508cffd1c8afbbd736339058404&#45;&gt;dir_eedff867f3c4e67d20b227cb6e0f96ab -->
<g id="edge17" class="edge">
<title>dir_a7418508cffd1c8afbbd736339058404&#45;&gt;dir_eedff867f3c4e67d20b227cb6e0f96ab</title>
<path fill="none" stroke="#000000" d="M180.4772,-359.8314C192.5395,-350.8779 207.254,-339.9558 220.2686,-330.2955"/>
<polygon fill="#000000" stroke="#000000" points="222.587,-332.9335 228.5306,-324.1628 218.4148,-327.3127 222.587,-332.9335"/>
<g id="a_edge17&#45;headlabel"><a xlink:href="dir_000500_000479.html" target="_top" xlink:title="1">
<text text-anchor="middle" x="221.3929" y="-334.8557" font-family="Helvetica,sans-Serif" font-size="10.00" fill="#000000">1</text>
</a>
</g>
</g>
<!-- dir_a7418508cffd1c8afbbd736339058404&#45;&gt;dir_4ab6b4cc6a7edbff49100e9123df213f -->
<g id="edge18" class="edge">
<title>dir_a7418508cffd1c8afbbd736339058404&#45;&gt;dir_4ab6b4cc6a7edbff49100e9123df213f</title>
<path fill="none" stroke="#000000" d="M148.5276,-359.7623C138.3757,-334.9846 120.1376,-290.4714 108.3058,-261.5939"/>
<polygon fill="#000000" stroke="#000000" points="111.4418,-260.0161 104.4117,-252.0896 104.9644,-262.67 111.4418,-260.0161"/>
<g id="a_edge18&#45;headlabel"><a xlink:href="dir_000500_000027.html" target="_top" xlink:title="8">
<text text-anchor="middle" x="115.4319" y="-259.7659" font-family="Helvetica,sans-Serif" font-size="10.00" fill="#000000">8</text>
</a>
</g>
</g>
<!-- dir_a7418508cffd1c8afbbd736339058404&#45;&gt;dir_85bf31a2e8d306e7598ffcb73f8df6bf -->
<g id="edge19" class="edge">
<title>dir_a7418508cffd1c8afbbd736339058404&#45;&gt;dir_85bf31a2e8d306e7598ffcb73f8df6bf</title>
<path fill="none" stroke="#000000" d="M161.0452,-359.9047C170.4006,-325.3051 190.113,-247.2238 197,-180 198.6306,-164.0833 197.4439,-159.9938 197,-144 196.7718,-135.7771 196.3484,-126.858 195.8902,-118.6823"/>
<polygon fill="#000000" stroke="#000000" points="199.3711,-118.2574 195.2812,-108.4838 192.3836,-118.6747 199.3711,-118.2574"/>
<g id="a_edge19&#45;headlabel"><a xlink:href="dir_000500_000061.html" target="_top" xlink:title="9">
<text text-anchor="middle" x="202.4195" y="-119.1764" font-family="Helvetica,sans-Serif" font-size="10.00" fill="#000000">9</text>
</a>
</g>
</g>
<!-- dir_a7418508cffd1c8afbbd736339058404&#45;&gt;dir_2171f7ec022c5423887b07c69b2f5b48 -->
<g id="edge20" class="edge">
<title>dir_a7418508cffd1c8afbbd736339058404&#45;&gt;dir_2171f7ec022c5423887b07c69b2f5b48</title>
<path fill="none" stroke="#000000" d="M154.1332,-359.9716C150.9502,-330.0077 144.0317,-268.0941 136,-216 134.7129,-207.6518 133.119,-198.6144 131.5848,-190.3647"/>
<polygon fill="#000000" stroke="#000000" points="135.0058,-189.6187 129.701,-180.4475 128.1287,-190.925 135.0058,-189.6187"/>
<g id="a_edge20&#45;headlabel"><a xlink:href="dir_000500_000076.html" target="_top" xlink:title="9">
<text text-anchor="middle" x="138.4659" y="-190.1203" font-family="Helvetica,sans-Serif" font-size="10.00" fill="#000000">9</text>
</a>
</g>
</g>
<!-- dir_2171f7ec022c5423887b07c69b2f5b48&#45;&gt;dir_4ab6b4cc6a7edbff49100e9123df213f -->
<g id="edge21" class="edge">
<title>dir_2171f7ec022c5423887b07c69b2f5b48&#45;&gt;dir_4ab6b4cc6a7edbff49100e9123df213f</title>
<path fill="none" stroke="#000000" d="M124.5596,-180.4133C122.1066,-188.3991 118.4722,-197.9155 114.5686,-206.6975"/>
<polygon fill="#000000" stroke="#000000" points="111.3615,-205.2929 110.2703,-215.8314 117.6952,-208.2735 111.3615,-205.2929"/>
<g id="a_edge21&#45;headlabel"><a xlink:href="dir_000076_000027.html" target="_top" xlink:title="35">
<text text-anchor="middle" x="110.323" y="-198.3315" font-family="Helvetica,sans-Serif" font-size="10.00" fill="#000000">35</text>
</a>
</g>
</g>
<!-- dir_2171f7ec022c5423887b07c69b2f5b48&#45;&gt;dir_37c90836491b695b472bf98d1be8336b -->
<g id="edge22" class="edge">
<title>dir_2171f7ec022c5423887b07c69b2f5b48&#45;&gt;dir_37c90836491b695b472bf98d1be8336b</title>
<path fill="none" stroke="#000000" d="M121.3268,-143.7623C118.867,-119.201 118.5923,-75.2474 120.5026,-46.3541"/>
<polygon fill="#000000" stroke="#000000" points="124.0152,-46.3416 121.3417,-36.0896 117.0385,-45.7712 124.0152,-46.3416"/>
<g id="a_edge22&#45;headlabel"><a xlink:href="dir_000076_000274.html" target="_top" xlink:title="1">
<text text-anchor="middle" x="126.5522" y="-47.6556" font-family="Helvetica,sans-Serif" font-size="10.00" fill="#000000">1</text>
</a>
</g>
</g>
<!-- dir_2171f7ec022c5423887b07c69b2f5b48&#45;&gt;dir_85bf31a2e8d306e7598ffcb73f8df6bf -->
<g id="edge23" class="edge">
<title>dir_2171f7ec022c5423887b07c69b2f5b48&#45;&gt;dir_85bf31a2e8d306e7598ffcb73f8df6bf</title>
<path fill="none" stroke="#000000" d="M137.2069,-143.8314C144.5015,-135.219 154.1788,-124.7851 163.5234,-115.4048"/>
<polygon fill="#000000" stroke="#000000" points="166.2141,-117.6679 170.8944,-108.1628 161.3082,-112.6746 166.2141,-117.6679"/>
<g id="a_edge23&#45;headlabel"><a xlink:href="dir_000076_000061.html" target="_top" xlink:title="1">
<text text-anchor="middle" x="165.6399" y="-119.7124" font-family="Helvetica,sans-Serif" font-size="10.00" fill="#000000">1</text>
</a>
</g>
</g>
</g>
</svg>
        <g id="navigator" transform="translate(0 0)" fill="#404254">
                <rect fill="#f2f5e9" fill-opacity="0.5" stroke="#606060" stroke-width=".5" x="0" y="0" width="60" height="60"/>
                <use id="zoomplus" xlink:href="#zoomPlus" x="17" y="9" onmousedown="handleZoom(evt,'in')"/>
                <use id="zoomminus" xlink:href="#zoomMin" x="42" y="9" onmousedown="handleZoom(evt,'out')"/>
                <use id="reset" xlink:href="#resetDef" x="30" y="36" onmousedown="handleReset()"/>
                <g id="arrowUp" xlink:href="#dirArrow" transform="translate(30 24)" onmousedown="handlePan(0,-1)">
                  <use xlink:href="#rim" fill="#404040">
                        <set attributeName="fill" to="#808080" begin="arrowUp.mouseover" end="arrowUp.mouseout"/>
                  </use>
                  <path fill="none" stroke="white" stroke-width="1.5" d="M0,-3.0v7 M-2.5,-0.5L0,-3.0L2.5,-0.5"/>
                </g>
                <g id="arrowRight" xlink:href="#dirArrow" transform="rotate(90) translate(36 -43)" onmousedown="handlePan(1,0)">
                  <use xlink:href="#rim" fill="#404040">
                        <set attributeName="fill" to="#808080" begin="arrowRight.mouseover" end="arrowRight.mouseout"/>
                  </use>
                  <path fill="none" stroke="white" stroke-width="1.5" d="M0,-3.0v7 M-2.5,-0.5L0,-3.0L2.5,-0.5"/>
                </g>
                <g id="arrowDown" xlink:href="#dirArrow" transform="rotate(180) translate(-30 -48)" onmousedown="handlePan(0,1)">
                  <use xlink:href="#rim" fill="#404040">
                        <set attributeName="fill" to="#808080" begin="arrowDown.mouseover" end="arrowDown.mouseout"/>
                  </use>
                  <path fill="none" stroke="white" stroke-width="1.5" d="M0,-3.0v7 M-2.5,-0.5L0,-3.0L2.5,-0.5"/>
                </g>
                <g id="arrowLeft" xlink:href="#dirArrow" transform="rotate(270) translate(-36 17)" onmousedown="handlePan(-1,0)">
                  <use xlink:href="#rim" fill="#404040">
                        <set attributeName="fill" to="#808080" begin="arrowLeft.mouseover" end="arrowLeft.mouseout"/>
                  </use>
                  <path fill="none" stroke="white" stroke-width="1.5" d="M0,-3.0v7 M-2.5,-0.5L0,-3.0L2.5,-0.5"/>
                </g>
        </g>
        <svg viewBox="0 0 15 15" width="100%" height="30px" preserveAspectRatio="xMaxYMin meet">
         <g id="arrow_out" transform="scale(0.3 0.3)">
          <a xlink:href="dir_912fdeb75838ec7e9173df897dc72438_dep_org.svg" target="_base">
           <rect id="button" ry="5" rx="5" y="6" x="6" height="38" width="38"
                fill="#f2f5e9" fill-opacity="0.5" stroke="#606060" stroke-width="1.0"/>
           <path id="arrow"
             d="M 11.500037,31.436501 C 11.940474,20.09759 22.043105,11.32322 32.158766,21.979434 L 37.068811,17.246167 C 37.068811,17.246167 37.088388,32 37.088388,32 L 22.160133,31.978069 C 22.160133,31.978069 26.997745,27.140456 26.997745,27.140456 C 18.528582,18.264221 13.291696,25.230495 11.500037,31.436501 z"
             style="fill:#404040;"/>
          </a>
         </g>
        </svg>
</svg>
