<?xml version="1.0" encoding="UTF-8" standalone="no"?>
<!DOCTYPE svg PUBLIC "-//W3C//DTD SVG 1.1//EN"
 "http://www.w3.org/Graphics/SVG/1.1/DTD/svg11.dtd">
<!-- Generated by graphviz version 2.40.1 (20161225.0304)
 -->
<!-- Title: /home/travis/build/AliceO2Group/AliceO2/Detectors/MUON/MCH/Workflow Pages: 1 -->
<!--zoomable 375 -->
<svg id="main" version="1.1" xmlns="http://www.w3.org/2000/svg" xmlns:xlink="http://www.w3.org/1999/xlink" xml:space="preserve" onload="init(evt)">
<style type="text/css"><![CDATA[
.edge:hover path { stroke: red; }
.edge:hover polygon { stroke: red; fill: red; }
]]></style>
<script type="text/javascript"><![CDATA[
var edges = document.getElementsByTagName('g');
if (edges && edges.length) {
  for (var i=0;i<edges.length;i++) {
    if (edges[i].id.substr(0,4)=='edge') {
      edges[i].setAttribute('class','edge');
    }
  }
}
]]></script>
        <defs>
                <circle id="rim" cx="0" cy="0" r="7"/>
                <circle id="rim2" cx="0" cy="0" r="3.5"/>
                <g id="zoomPlus">
                        <use xlink:href="#rim" fill="#404040">
                                <set attributeName="fill" to="#808080" begin="zoomplus.mouseover" end="zoomplus.mouseout"/>
                        </use>
                        <path d="M-4,0h8M0,-4v8" fill="none" stroke="white" stroke-width="1.5" pointer-events="none"/>
                </g>
                <g id="zoomMin">
                        <use xlink:href="#rim" fill="#404040">
                                <set attributeName="fill" to="#808080" begin="zoomminus.mouseover" end="zoomminus.mouseout"/>
                        </use>
                        <path d="M-4,0h8" fill="none" stroke="white" stroke-width="1.5" pointer-events="none"/>
                </g>
                <g id="dirArrow">
                        <path fill="none" stroke="white" stroke-width="1.5" d="M0,-3.0v7 M-2.5,-0.5L0,-3.0L2.5,-0.5"/>
                </g>
               <g id="resetDef">
                       <use xlink:href="#rim2" fill="#404040">
                               <set attributeName="fill" to="#808080" begin="reset.mouseover" end="reset.mouseout"/>
                       </use>
               </g>
        </defs>

<script type="text/javascript">
var viewWidth = 516;
var viewHeight = 375;
var sectionId = 'dynsection-0';
</script>
<script xlink:href="svgpan.js"/>
<svg id="graph" class="graph">
<g id="viewport">
<title>/home/travis/build/AliceO2Group/AliceO2/Detectors/MUON/MCH/Workflow</title>
<g id="clust1" class="cluster">
<title>clusterdir_061f7088060f41729027f6c2fce0273e</title>
<g id="a_clust1"><a xlink:href="dir_061f7088060f41729027f6c2fce0273e.html" target="_top" xlink:title="MCH">
<polygon fill="#ddddee" stroke="#000000" points="8,-200 8,-359 174,-359 174,-200 8,-200"/>
<text text-anchor="middle" x="91" y="-347" font-family="Helvetica,sans-Serif" font-size="10.00" fill="#000000">MCH</text>
</a>
</g>
</g>
<g id="clust2" class="cluster">
<title>clusterdir_04ece05d7c7fe751e39bd0511b9068fc</title>
<g id="a_clust2"><a xlink:href="dir_04ece05d7c7fe751e39bd0511b9068fc.html" target="_top">
<polygon fill="#eeeeff" stroke="#000000" points="16,-208 16,-332 166,-332 166,-208 16,-208"/>
</a>
</g>
</g>
<!-- dir_04ece05d7c7fe751e39bd0511b9068fc -->
<g id="node1" class="node">
<title>dir_04ece05d7c7fe751e39bd0511b9068fc</title>
<text text-anchor="middle" x="127" y="-303.5" font-family="Helvetica,sans-Serif" font-size="10.00" fill="#000000">Workflow</text>
</g>
<!-- dir_ade19310a6abca7155cb213ca0a7e06d -->
<g id="node2" class="node">
<title>dir_ade19310a6abca7155cb213ca0a7e06d</title>
<g id="a_node2"><a xlink:href="dir_ade19310a6abca7155cb213ca0a7e06d.html" target="_top" xlink:title="include">
<polygon fill="#ffffff" stroke="#ff0000" points="78,-252 24,-252 24,-216 78,-216 78,-252"/>
<text text-anchor="middle" x="51" y="-231.5" font-family="Helvetica,sans-Serif" font-size="10.00" fill="#000000">include</text>
</a>
</g>
</g>
<!-- dir_bcbb2cf9a3d3d83e5515c82071a07177 -->
<g id="node7" class="node">
<title>dir_bcbb2cf9a3d3d83e5515c82071a07177</title>
<g id="a_node7"><a xlink:href="dir_bcbb2cf9a3d3d83e5515c82071a07177.html" target="_top" xlink:title="Framework">
<polygon fill="none" stroke="#ff0000" points="133.5,-108 62.5,-108 62.5,-72 133.5,-72 133.5,-108"/>
<text text-anchor="middle" x="98" y="-87.5" font-family="Helvetica,sans-Serif" font-size="10.00" fill="#000000">Framework</text>
</a>
</g>
</g>
<!-- dir_ade19310a6abca7155cb213ca0a7e06d&#45;&gt;dir_bcbb2cf9a3d3d83e5515c82071a07177 -->
<g id="edge15" class="edge">
<title>dir_ade19310a6abca7155cb213ca0a7e06d&#45;&gt;dir_bcbb2cf9a3d3d83e5515c82071a07177</title>
<path fill="none" stroke="#000000" d="M48.5941,-215.7587C46.8614,-197.0983 46.166,-167.5806 55,-144 58.8233,-133.7945 65.3563,-124.0256 72.1914,-115.6708"/>
<polygon fill="#000000" stroke="#000000" points="74.8332,-117.9665 78.7586,-108.1257 69.5532,-113.3707 74.8332,-117.9665"/>
<g id="a_edge15&#45;headlabel"><a xlink:href="dir_000561_000013.html" target="_top" xlink:title="3">
<text text-anchor="middle" x="74.6149" y="-120.042" font-family="Helvetica,sans-Serif" font-size="10.00" fill="#000000">3</text>
</a>
</g>
</g>
<!-- dir_e2a306cbeddc37280b8dde7d223d74dd -->
<g id="node3" class="node">
<title>dir_e2a306cbeddc37280b8dde7d223d74dd</title>
<g id="a_node3"><a xlink:href="dir_e2a306cbeddc37280b8dde7d223d74dd.html" target="_top" xlink:title="src">
<polygon fill="#ffffff" stroke="#000000" points="78,-324 24,-324 24,-288 78,-288 78,-324"/>
<text text-anchor="middle" x="51" y="-303.5" font-family="Helvetica,sans-Serif" font-size="10.00" fill="#000000">src</text>
</a>
</g>
</g>
<!-- dir_e2a306cbeddc37280b8dde7d223d74dd&#45;&gt;dir_ade19310a6abca7155cb213ca0a7e06d -->
<g id="edge9" class="edge">
<title>dir_e2a306cbeddc37280b8dde7d223d74dd&#45;&gt;dir_ade19310a6abca7155cb213ca0a7e06d</title>
<path fill="none" stroke="#000000" d="M51,-287.8314C51,-280.131 51,-270.9743 51,-262.4166"/>
<polygon fill="#000000" stroke="#000000" points="54.5001,-262.4132 51,-252.4133 47.5001,-262.4133 54.5001,-262.4132"/>
<g id="a_edge9&#45;headlabel"><a xlink:href="dir_000563_000561.html" target="_top" xlink:title="6">
<text text-anchor="middle" x="57.3393" y="-263.5079" font-family="Helvetica,sans-Serif" font-size="10.00" fill="#000000">6</text>
</a>
</g>
</g>
<!-- dir_6229e1f1a243f5ed3f0013dfa4f13deb -->
<g id="node4" class="node">
<title>dir_6229e1f1a243f5ed3f0013dfa4f13deb</title>
<g id="a_node4"><a xlink:href="dir_6229e1f1a243f5ed3f0013dfa4f13deb.html" target="_top" xlink:title="PreClustering">
<polygon fill="none" stroke="#ff0000" points="479,-180 397,-180 397,-144 479,-144 479,-180"/>
<text text-anchor="middle" x="438" y="-159.5" font-family="Helvetica,sans-Serif" font-size="10.00" fill="#000000">PreClustering</text>
</a>
</g>
</g>
<!-- dir_e2a306cbeddc37280b8dde7d223d74dd&#45;&gt;dir_6229e1f1a243f5ed3f0013dfa4f13deb -->
<g id="edge6" class="edge">
<title>dir_e2a306cbeddc37280b8dde7d223d74dd&#45;&gt;dir_6229e1f1a243f5ed3f0013dfa4f13deb</title>
<path fill="none" stroke="#000000" d="M78.108,-291.2019C81.0523,-289.9723 84.051,-288.8698 87,-288 156.9074,-267.3809 357.4861,-299.2272 413,-252 430.5895,-237.0361 436.3459,-210.8706 437.9911,-190.5962"/>
<polygon fill="#000000" stroke="#000000" points="441.5006,-190.5032 438.5246,-180.335 434.51,-190.1397 441.5006,-190.5032"/>
<g id="a_edge6&#45;headlabel"><a xlink:href="dir_000563_000539.html" target="_top" xlink:title="1">
<text text-anchor="middle" x="444.1495" y="-191.7404" font-family="Helvetica,sans-Serif" font-size="10.00" fill="#000000">1</text>
</a>
</g>
</g>
<!-- dir_1155c84989a046e7de4bf0156dc4b34c -->
<g id="node5" class="node">
<title>dir_1155c84989a046e7de4bf0156dc4b34c</title>
<g id="a_node5"><a xlink:href="dir_1155c84989a046e7de4bf0156dc4b34c.html" target="_top" xlink:title="Base">
<polygon fill="none" stroke="#ff0000" points="355,-108 301,-108 301,-72 355,-72 355,-108"/>
<text text-anchor="middle" x="328" y="-87.5" font-family="Helvetica,sans-Serif" font-size="10.00" fill="#000000">Base</text>
</a>
</g>
</g>
<!-- dir_e2a306cbeddc37280b8dde7d223d74dd&#45;&gt;dir_1155c84989a046e7de4bf0156dc4b34c -->
<g id="edge7" class="edge">
<title>dir_e2a306cbeddc37280b8dde7d223d74dd&#45;&gt;dir_1155c84989a046e7de4bf0156dc4b34c</title>
<path fill="none" stroke="#000000" d="M78.2127,-291.525C81.1366,-290.2324 84.1019,-289.0268 87,-288 156.9306,-263.2229 191.8352,-298.0549 250,-252 292.8772,-218.0498 313.5995,-154.6901 322.4087,-118.0784"/>
<polygon fill="#000000" stroke="#000000" points="325.8795,-118.5989 324.679,-108.0723 319.053,-117.0499 325.8795,-118.5989"/>
<g id="a_edge7&#45;headlabel"><a xlink:href="dir_000563_000133.html" target="_top" xlink:title="13">
<text text-anchor="middle" x="327.8531" y="-120.2326" font-family="Helvetica,sans-Serif" font-size="10.00" fill="#000000">13</text>
</a>
</g>
</g>
<!-- dir_888858b226b7bc70f7e8b18d57d75108 -->
<g id="node6" class="node">
<title>dir_888858b226b7bc70f7e8b18d57d75108</title>
<g id="a_node6"><a xlink:href="dir_888858b226b7bc70f7e8b18d57d75108.html" target="_top" xlink:title="Clustering">
<polygon fill="none" stroke="#ff0000" points="404,-252 338,-252 338,-216 404,-216 404,-252"/>
<text text-anchor="middle" x="371" y="-231.5" font-family="Helvetica,sans-Serif" font-size="10.00" fill="#000000">Clustering</text>
</a>
</g>
</g>
<!-- dir_e2a306cbeddc37280b8dde7d223d74dd&#45;&gt;dir_888858b226b7bc70f7e8b18d57d75108 -->
<g id="edge8" class="edge">
<title>dir_e2a306cbeddc37280b8dde7d223d74dd&#45;&gt;dir_888858b226b7bc70f7e8b18d57d75108</title>
<path fill="none" stroke="#000000" d="M78.1567,-291.3597C81.0915,-290.0994 84.0747,-288.9465 87,-288 181.2668,-257.4996 210.2707,-273.4461 307,-252 313.814,-250.4893 320.9797,-248.6879 327.9508,-246.8176"/>
<polygon fill="#000000" stroke="#000000" points="329.2537,-250.0889 337.9615,-244.0537 327.3907,-243.3414 329.2537,-250.0889"/>
<g id="a_edge8&#45;headlabel"><a xlink:href="dir_000563_000526.html" target="_top" xlink:title="1">
<text text-anchor="middle" x="326.5443" y="-251.2824" font-family="Helvetica,sans-Serif" font-size="10.00" fill="#000000">1</text>
</a>
</g>
</g>
<!-- dir_e2a306cbeddc37280b8dde7d223d74dd&#45;&gt;dir_bcbb2cf9a3d3d83e5515c82071a07177 -->
<g id="edge10" class="edge">
<title>dir_e2a306cbeddc37280b8dde7d223d74dd&#45;&gt;dir_bcbb2cf9a3d3d83e5515c82071a07177</title>
<path fill="none" stroke="#000000" d="M66.6259,-287.7998C74.1894,-277.8878 82.573,-265.0138 87,-252 102.2529,-207.1624 102.2232,-151.4028 100.4007,-118.3687"/>
<polygon fill="#000000" stroke="#000000" points="103.8737,-117.8381 99.7334,-108.0857 96.8884,-118.2914 103.8737,-117.8381"/>
<g id="a_edge10&#45;headlabel"><a xlink:href="dir_000563_000013.html" target="_top" xlink:title="95">
<text text-anchor="middle" x="106.9397" y="-118.7413" font-family="Helvetica,sans-Serif" font-size="10.00" fill="#000000">95</text>
</a>
</g>
</g>
<!-- dir_f8de85f281636d081fd2e7e06b0134d2 -->
<g id="node8" class="node">
<title>dir_f8de85f281636d081fd2e7e06b0134d2</title>
<g id="a_node8"><a xlink:href="dir_f8de85f281636d081fd2e7e06b0134d2.html" target="_top" xlink:title="Raw">
<polygon fill="none" stroke="#ff0000" points="241,-252 187,-252 187,-216 241,-216 241,-252"/>
<text text-anchor="middle" x="214" y="-231.5" font-family="Helvetica,sans-Serif" font-size="10.00" fill="#000000">Raw</text>
</a>
</g>
</g>
<!-- dir_e2a306cbeddc37280b8dde7d223d74dd&#45;&gt;dir_f8de85f281636d081fd2e7e06b0134d2 -->
<g id="edge11" class="edge">
<title>dir_e2a306cbeddc37280b8dde7d223d74dd&#45;&gt;dir_f8de85f281636d081fd2e7e06b0134d2</title>
<path fill="none" stroke="#000000" d="M78.0402,-292.2565C81.0504,-290.7932 84.0821,-289.3483 87,-288 103.7538,-280.2586 146.3383,-262.2776 177.5955,-249.1853"/>
<polygon fill="#000000" stroke="#000000" points="179.0172,-252.3845 186.8912,-245.2958 176.3152,-245.927 179.0172,-252.3845"/>
<g id="a_edge11&#45;headlabel"><a xlink:href="dir_000563_000419.html" target="_top" xlink:title="6">
<text text-anchor="middle" x="176.797" y="-253.8912" font-family="Helvetica,sans-Serif" font-size="10.00" fill="#000000">6</text>
</a>
</g>
</g>
<!-- dir_26637d1bd82229bc9ed97f7e706be743 -->
<g id="node9" class="node">
<title>dir_26637d1bd82229bc9ed97f7e706be743</title>
<g id="a_node9"><a xlink:href="dir_26637d1bd82229bc9ed97f7e706be743.html" target="_top" xlink:title="Raw">
<polygon fill="none" stroke="#ff0000" points="189,-180 135,-180 135,-144 189,-144 189,-180"/>
<text text-anchor="middle" x="162" y="-159.5" font-family="Helvetica,sans-Serif" font-size="10.00" fill="#000000">Raw</text>
</a>
</g>
</g>
<!-- dir_e2a306cbeddc37280b8dde7d223d74dd&#45;&gt;dir_26637d1bd82229bc9ed97f7e706be743 -->
<g id="edge12" class="edge">
<title>dir_e2a306cbeddc37280b8dde7d223d74dd&#45;&gt;dir_26637d1bd82229bc9ed97f7e706be743</title>
<path fill="none" stroke="#000000" d="M78.0923,-289.2781C91.973,-279.6838 108.3565,-266.6458 120,-252 134.8258,-233.3514 145.8825,-208.6161 152.9199,-189.7966"/>
<polygon fill="#000000" stroke="#000000" points="156.247,-190.8872 156.3234,-180.2926 149.6568,-188.5272 156.247,-190.8872"/>
<g id="a_edge12&#45;headlabel"><a xlink:href="dir_000563_000576.html" target="_top" xlink:title="3">
<text text-anchor="middle" x="157.7082" y="-192.7286" font-family="Helvetica,sans-Serif" font-size="10.00" fill="#000000">3</text>
</a>
</g>
</g>
<!-- dir_2171f7ec022c5423887b07c69b2f5b48 -->
<g id="node10" class="node">
<title>dir_2171f7ec022c5423887b07c69b2f5b48</title>
<g id="a_node10"><a xlink:href="dir_2171f7ec022c5423887b07c69b2f5b48.html" target="_top" xlink:title="DataFormats">
<polygon fill="none" stroke="#ff0000" points="138,-36 58,-36 58,0 138,0 138,-36"/>
<text text-anchor="middle" x="98" y="-15.5" font-family="Helvetica,sans-Serif" font-size="10.00" fill="#000000">DataFormats</text>
</a>
</g>
</g>
<!-- dir_e2a306cbeddc37280b8dde7d223d74dd&#45;&gt;dir_2171f7ec022c5423887b07c69b2f5b48 -->
<g id="edge13" class="edge">
<title>dir_e2a306cbeddc37280b8dde7d223d74dd&#45;&gt;dir_2171f7ec022c5423887b07c69b2f5b48</title>
<path fill="none" stroke="#000000" d="M35.0095,-287.9169C27.3462,-278.0371 18.9834,-265.1563 15,-252 8.3028,-229.8805 11.6768,-222.8709 15,-200 23.5331,-141.2738 24.9847,-124.3137 53,-72 58.3264,-62.0539 65.6747,-52.2488 72.8899,-43.78"/>
<polygon fill="#000000" stroke="#000000" points="75.6774,-45.912 79.6964,-36.109 70.4414,-41.2661 75.6774,-45.912"/>
<g id="a_edge13&#45;headlabel"><a xlink:href="dir_000563_000076.html" target="_top" xlink:title="3">
<text text-anchor="middle" x="75.4154" y="-47.9852" font-family="Helvetica,sans-Serif" font-size="10.00" fill="#000000">3</text>
</a>
</g>
</g>
<!-- dir_b098e3604916eca5f90f2bb1c75b7880 -->
<g id="node11" class="node">
<title>dir_b098e3604916eca5f90f2bb1c75b7880</title>
<g id="a_node11"><a xlink:href="dir_b098e3604916eca5f90f2bb1c75b7880.html" target="_top" xlink:title="Mapping">
<polygon fill="none" stroke="#ff0000" points="501,-108 443,-108 443,-72 501,-72 501,-108"/>
<text text-anchor="middle" x="472" y="-87.5" font-family="Helvetica,sans-Serif" font-size="10.00" fill="#000000">Mapping</text>
</a>
</g>
</g>
<!-- dir_e2a306cbeddc37280b8dde7d223d74dd&#45;&gt;dir_b098e3604916eca5f90f2bb1c75b7880 -->
<g id="edge14" class="edge">
<title>dir_e2a306cbeddc37280b8dde7d223d74dd&#45;&gt;dir_b098e3604916eca5f90f2bb1c75b7880</title>
<path fill="none" stroke="#000000" d="M78.101,-291.1783C81.0467,-289.9533 84.0476,-288.8583 87,-288 237.5836,-244.2214 297.6067,-321.8693 438,-252 477.1334,-232.5246 489.0009,-220.6786 505,-180 513.2994,-158.8984 503.4167,-134.7646 492.355,-116.8036"/>
<polygon fill="#000000" stroke="#000000" points="494.9859,-114.4364 486.553,-108.0226 489.1456,-118.2953 494.9859,-114.4364"/>
<g id="a_edge14&#45;headlabel"><a xlink:href="dir_000563_000515.html" target="_top" xlink:title="5">
<text text-anchor="middle" x="499.3364" y="-113.3702" font-family="Helvetica,sans-Serif" font-size="10.00" fill="#000000">5</text>
</a>
</g>
</g>
<!-- dir_6229e1f1a243f5ed3f0013dfa4f13deb&#45;&gt;dir_1155c84989a046e7de4bf0156dc4b34c -->
<g id="edge1" class="edge">
<title>dir_6229e1f1a243f5ed3f0013dfa4f13deb&#45;&gt;dir_1155c84989a046e7de4bf0156dc4b34c</title>
<path fill="none" stroke="#000000" d="M410.2424,-143.8314C396.1965,-134.6377 378.9795,-123.3684 363.9346,-113.5208"/>
<polygon fill="#000000" stroke="#000000" points="365.6516,-110.4616 355.3677,-107.9134 361.8179,-116.3185 365.6516,-110.4616"/>
<g id="a_edge1&#45;headlabel"><a xlink:href="dir_000539_000133.html" target="_top" xlink:title="2">
<text text-anchor="middle" x="370.2141" y="-107.5545" font-family="Helvetica,sans-Serif" font-size="10.00" fill="#000000">2</text>
</a>
</g>
</g>
<!-- dir_6229e1f1a243f5ed3f0013dfa4f13deb&#45;&gt;dir_b098e3604916eca5f90f2bb1c75b7880 -->
<g id="edge2" class="edge">
<title>dir_6229e1f1a243f5ed3f0013dfa4f13deb&#45;&gt;dir_b098e3604916eca5f90f2bb1c75b7880</title>
<path fill="none" stroke="#000000" d="M446.5796,-143.8314C450.3358,-135.8771 454.8257,-126.369 458.9798,-117.5723"/>
<polygon fill="#000000" stroke="#000000" points="462.1996,-118.9503 463.3048,-108.4133 455.8699,-115.9612 462.1996,-118.9503"/>
<g id="a_edge2&#45;headlabel"><a xlink:href="dir_000539_000515.html" target="_top" xlink:title="2">
<text text-anchor="middle" x="463.2321" y="-120.9131" font-family="Helvetica,sans-Serif" font-size="10.00" fill="#000000">2</text>
</a>
</g>
</g>
<!-- dir_888858b226b7bc70f7e8b18d57d75108&#45;&gt;dir_6229e1f1a243f5ed3f0013dfa4f13deb -->
<g id="edge3" class="edge">
<title>dir_888858b226b7bc70f7e8b18d57d75108&#45;&gt;dir_6229e1f1a243f5ed3f0013dfa4f13deb</title>
<path fill="none" stroke="#000000" d="M387.9069,-215.8314C395.7813,-207.3694 405.292,-197.1489 413.9013,-187.8971"/>
<polygon fill="#000000" stroke="#000000" points="416.6153,-190.1183 420.8654,-180.4133 411.4908,-185.3497 416.6153,-190.1183"/>
<g id="a_edge3&#45;headlabel"><a xlink:href="dir_000526_000539.html" target="_top" xlink:title="1">
<text text-anchor="middle" x="416.2451" y="-192.184" font-family="Helvetica,sans-Serif" font-size="10.00" fill="#000000">1</text>
</a>
</g>
</g>
<!-- dir_888858b226b7bc70f7e8b18d57d75108&#45;&gt;dir_1155c84989a046e7de4bf0156dc4b34c -->
<g id="edge4" class="edge">
<title>dir_888858b226b7bc70f7e8b18d57d75108&#45;&gt;dir_1155c84989a046e7de4bf0156dc4b34c</title>
<path fill="none" stroke="#000000" d="M365.554,-215.7623C358.1874,-191.0928 344.979,-146.8598 336.3531,-117.9731"/>
<polygon fill="#000000" stroke="#000000" points="339.6168,-116.6701 333.4018,-108.0896 332.9094,-118.673 339.6168,-116.6701"/>
<g id="a_edge4&#45;headlabel"><a xlink:href="dir_000526_000133.html" target="_top" xlink:title="2">
<text text-anchor="middle" x="343.3658" y="-116.802" font-family="Helvetica,sans-Serif" font-size="10.00" fill="#000000">2</text>
</a>
</g>
</g>
<!-- dir_888858b226b7bc70f7e8b18d57d75108&#45;&gt;dir_b098e3604916eca5f90f2bb1c75b7880 -->
<g id="edge5" class="edge">
<title>dir_888858b226b7bc70f7e8b18d57d75108&#45;&gt;dir_b098e3604916eca5f90f2bb1c75b7880</title>
<path fill="none" stroke="#000000" d="M404.1657,-228.6866C431.8622,-222.3099 469.673,-208.6435 488,-180 499.9451,-161.331 494.0956,-136.2466 486.3117,-117.3024"/>
<polygon fill="#000000" stroke="#000000" points="489.4351,-115.7136 482.1489,-108.022 483.0482,-118.5786 489.4351,-115.7136"/>
<g id="a_edge5&#45;headlabel"><a xlink:href="dir_000526_000515.html" target="_top" xlink:title="1">
<text text-anchor="middle" x="493.4968" y="-115.3314" font-family="Helvetica,sans-Serif" font-size="10.00" fill="#000000">1</text>
</a>
</g>
</g>
<!-- dir_bcbb2cf9a3d3d83e5515c82071a07177&#45;&gt;dir_2171f7ec022c5423887b07c69b2f5b48 -->
<g id="edge16" class="edge">
<title>dir_bcbb2cf9a3d3d83e5515c82071a07177&#45;&gt;dir_2171f7ec022c5423887b07c69b2f5b48</title>
<path fill="none" stroke="#000000" d="M92.0476,-71.8314C91.2972,-64.131 91.0763,-54.9743 91.3849,-46.4166"/>
<polygon fill="#000000" stroke="#000000" points="94.8792,-46.6161 92.024,-36.4133 87.8935,-46.1697 94.8792,-46.6161"/>
<g id="a_edge16&#45;headlabel"><a xlink:href="dir_000013_000076.html" target="_top" xlink:title="82">
<text text-anchor="middle" x="97.4836" y="-47.8844" font-family="Helvetica,sans-Serif" font-size="10.00" fill="#000000">82</text>
</a>
</g>
</g>
<!-- dir_f8de85f281636d081fd2e7e06b0134d2&#45;&gt;dir_1155c84989a046e7de4bf0156dc4b34c -->
<g id="edge19" class="edge">
<title>dir_f8de85f281636d081fd2e7e06b0134d2&#45;&gt;dir_1155c84989a046e7de4bf0156dc4b34c</title>
<path fill="none" stroke="#000000" d="M226.1372,-215.9756C238.7881,-197.488 259.4592,-168.1057 279,-144 286.7688,-134.4164 295.7236,-124.3039 303.8356,-115.454"/>
<polygon fill="#000000" stroke="#000000" points="306.4688,-117.7617 310.6964,-108.0469 301.3333,-113.005 306.4688,-117.7617"/>
<g id="a_edge19&#45;headlabel"><a xlink:href="dir_000419_000133.html" target="_top" xlink:title="5">
<text text-anchor="middle" x="306.1092" y="-119.8282" font-family="Helvetica,sans-Serif" font-size="10.00" fill="#000000">5</text>
</a>
</g>
</g>
<!-- dir_f8de85f281636d081fd2e7e06b0134d2&#45;&gt;dir_bcbb2cf9a3d3d83e5515c82071a07177 -->
<g id="edge20" class="edge">
<title>dir_f8de85f281636d081fd2e7e06b0134d2&#45;&gt;dir_bcbb2cf9a3d3d83e5515c82071a07177</title>
<path fill="none" stroke="#000000" d="M192.3297,-215.6604C185.4296,-210.2637 177.6074,-204.5835 170,-200 151.6006,-188.9143 140.2109,-196.1085 126,-180 110.9288,-162.9164 103.9689,-137.7968 100.7553,-118.4339"/>
<polygon fill="#000000" stroke="#000000" points="104.1958,-117.7667 99.3277,-108.3565 97.2651,-118.7486 104.1958,-117.7667"/>
<g id="a_edge20&#45;headlabel"><a xlink:href="dir_000419_000013.html" target="_top" xlink:title="2">
<text text-anchor="middle" x="107.5112" y="-118.4275" font-family="Helvetica,sans-Serif" font-size="10.00" fill="#000000">2</text>
</a>
</g>
</g>
<!-- dir_f8de85f281636d081fd2e7e06b0134d2&#45;&gt;dir_26637d1bd82229bc9ed97f7e706be743 -->
<g id="edge21" class="edge">
<title>dir_f8de85f281636d081fd2e7e06b0134d2&#45;&gt;dir_26637d1bd82229bc9ed97f7e706be743</title>
<path fill="none" stroke="#000000" d="M200.8782,-215.8314C194.9501,-207.6232 187.8271,-197.7606 181.3067,-188.7323"/>
<polygon fill="#000000" stroke="#000000" points="183.9908,-186.4708 175.2985,-180.4133 178.316,-190.5693 183.9908,-186.4708"/>
<g id="a_edge21&#45;headlabel"><a xlink:href="dir_000419_000576.html" target="_top" xlink:title="10">
<text text-anchor="middle" x="188.3971" y="-185.2226" font-family="Helvetica,sans-Serif" font-size="10.00" fill="#000000">10</text>
</a>
</g>
</g>
<!-- dir_f8de85f281636d081fd2e7e06b0134d2&#45;&gt;dir_2171f7ec022c5423887b07c69b2f5b48 -->
<g id="edge22" class="edge">
<title>dir_f8de85f281636d081fd2e7e06b0134d2&#45;&gt;dir_2171f7ec022c5423887b07c69b2f5b48</title>
<path fill="none" stroke="#000000" d="M212.3051,-215.6926C210.2369,-197.2347 205.9825,-168.1046 198,-144 186.7527,-110.0368 184.1271,-100.1139 162,-72 153.4738,-61.1669 142.4826,-50.95 132.0225,-42.3792"/>
<polygon fill="#000000" stroke="#000000" points="134.1883,-39.6297 124.1767,-36.1629 129.8412,-45.1164 134.1883,-39.6297"/>
<g id="a_edge22&#45;headlabel"><a xlink:href="dir_000419_000076.html" target="_top" xlink:title="12">
<text text-anchor="middle" x="138.7689" y="-37.1366" font-family="Helvetica,sans-Serif" font-size="10.00" fill="#000000">12</text>
</a>
</g>
</g>
<!-- dir_f8de85f281636d081fd2e7e06b0134d2&#45;&gt;dir_b098e3604916eca5f90f2bb1c75b7880 -->
<g id="edge23" class="edge">
<title>dir_f8de85f281636d081fd2e7e06b0134d2&#45;&gt;dir_b098e3604916eca5f90f2bb1c75b7880</title>
<path fill="none" stroke="#000000" d="M241.1229,-218.8616C287.2571,-193.1123 381.1195,-140.724 433.8502,-111.2929"/>
<polygon fill="#000000" stroke="#000000" points="435.858,-114.1806 442.8842,-106.2507 432.4464,-108.0682 435.858,-114.1806"/>
<g id="a_edge23&#45;headlabel"><a xlink:href="dir_000419_000515.html" target="_top" xlink:title="1">
<text text-anchor="middle" x="434.1029" y="-115.9117" font-family="Helvetica,sans-Serif" font-size="10.00" fill="#000000">1</text>
</a>
</g>
</g>
<!-- dir_26637d1bd82229bc9ed97f7e706be743&#45;&gt;dir_bcbb2cf9a3d3d83e5515c82071a07177 -->
<g id="edge17" class="edge">
<title>dir_26637d1bd82229bc9ed97f7e706be743&#45;&gt;dir_bcbb2cf9a3d3d83e5515c82071a07177</title>
<path fill="none" stroke="#000000" d="M145.8501,-143.8314C138.3283,-135.3694 129.2435,-125.1489 121.0196,-115.8971"/>
<polygon fill="#000000" stroke="#000000" points="123.627,-113.5621 114.3673,-108.4133 118.3951,-118.2127 123.627,-113.5621"/>
<g id="a_edge17&#45;headlabel"><a xlink:href="dir_000576_000013.html" target="_top" xlink:title="25">
<text text-anchor="middle" x="128.1372" y="-111.8624" font-family="Helvetica,sans-Serif" font-size="10.00" fill="#000000">25</text>
</a>
</g>
</g>
<!-- dir_26637d1bd82229bc9ed97f7e706be743&#45;&gt;dir_2171f7ec022c5423887b07c69b2f5b48 -->
<g id="edge18" class="edge">
<title>dir_26637d1bd82229bc9ed97f7e706be743&#45;&gt;dir_2171f7ec022c5423887b07c69b2f5b48</title>
<path fill="none" stroke="#000000" d="M160.7608,-143.924C158.8962,-125.1363 154.2853,-95.2792 143,-72 138.159,-62.014 131.079,-52.3086 123.9615,-43.9445"/>
<polygon fill="#000000" stroke="#000000" points="126.4694,-41.4982 117.1979,-36.3709 121.2484,-46.1609 126.4694,-41.4982"/>
<g id="a_edge18&#45;headlabel"><a xlink:href="dir_000576_000076.html" target="_top" xlink:title="15">
<text text-anchor="middle" x="130.9815" y="-39.7881" font-family="Helvetica,sans-Serif" font-size="10.00" fill="#000000">15</text>
</a>
</g>
</g>
<!-- dir_2171f7ec022c5423887b07c69b2f5b48&#45;&gt;dir_bcbb2cf9a3d3d83e5515c82071a07177 -->
<g id="edge24" class="edge">
<title>dir_2171f7ec022c5423887b07c69b2f5b48&#45;&gt;dir_bcbb2cf9a3d3d83e5515c82071a07177</title>
<path fill="none" stroke="#000000" d="M103.976,-36.4133C104.7071,-44.0593 104.9203,-53.1084 104.6155,-61.5726"/>
<polygon fill="#000000" stroke="#000000" points="101.1048,-61.6264 103.9524,-71.8314 108.0902,-62.078 101.1048,-61.6264"/>
<g id="a_edge24&#45;headlabel"><a xlink:href="dir_000076_000013.html" target="_top" xlink:title="11">
<text text-anchor="middle" x="98.5032" y="-55.3562" font-family="Helvetica,sans-Serif" font-size="10.00" fill="#000000">11</text>
</a>
</g>
</g>
</g>
</svg>
        <g id="navigator" transform="translate(0 0)" fill="#404254">
                <rect fill="#f2f5e9" fill-opacity="0.5" stroke="#606060" stroke-width=".5" x="0" y="0" width="60" height="60"/>
                <use id="zoomplus" xlink:href="#zoomPlus" x="17" y="9" onmousedown="handleZoom(evt,'in')"/>
                <use id="zoomminus" xlink:href="#zoomMin" x="42" y="9" onmousedown="handleZoom(evt,'out')"/>
                <use id="reset" xlink:href="#resetDef" x="30" y="36" onmousedown="handleReset()"/>
                <g id="arrowUp" xlink:href="#dirArrow" transform="translate(30 24)" onmousedown="handlePan(0,-1)">
                  <use xlink:href="#rim" fill="#404040">
                        <set attributeName="fill" to="#808080" begin="arrowUp.mouseover" end="arrowUp.mouseout"/>
                  </use>
                  <path fill="none" stroke="white" stroke-width="1.5" d="M0,-3.0v7 M-2.5,-0.5L0,-3.0L2.5,-0.5"/>
                </g>
                <g id="arrowRight" xlink:href="#dirArrow" transform="rotate(90) translate(36 -43)" onmousedown="handlePan(1,0)">
                  <use xlink:href="#rim" fill="#404040">
                        <set attributeName="fill" to="#808080" begin="arrowRight.mouseover" end="arrowRight.mouseout"/>
                  </use>
                  <path fill="none" stroke="white" stroke-width="1.5" d="M0,-3.0v7 M-2.5,-0.5L0,-3.0L2.5,-0.5"/>
                </g>
                <g id="arrowDown" xlink:href="#dirArrow" transform="rotate(180) translate(-30 -48)" onmousedown="handlePan(0,1)">
                  <use xlink:href="#rim" fill="#404040">
                        <set attributeName="fill" to="#808080" begin="arrowDown.mouseover" end="arrowDown.mouseout"/>
                  </use>
                  <path fill="none" stroke="white" stroke-width="1.5" d="M0,-3.0v7 M-2.5,-0.5L0,-3.0L2.5,-0.5"/>
                </g>
                <g id="arrowLeft" xlink:href="#dirArrow" transform="rotate(270) translate(-36 17)" onmousedown="handlePan(-1,0)">
                  <use xlink:href="#rim" fill="#404040">
                        <set attributeName="fill" to="#808080" begin="arrowLeft.mouseover" end="arrowLeft.mouseout"/>
                  </use>
                  <path fill="none" stroke="white" stroke-width="1.5" d="M0,-3.0v7 M-2.5,-0.5L0,-3.0L2.5,-0.5"/>
                </g>
        </g>
        <svg viewBox="0 0 15 15" width="100%" height="30px" preserveAspectRatio="xMaxYMin meet">
         <g id="arrow_out" transform="scale(0.3 0.3)">
          <a xlink:href="dir_04ece05d7c7fe751e39bd0511b9068fc_dep_org.svg" target="_base">
           <rect id="button" ry="5" rx="5" y="6" x="6" height="38" width="38"
                fill="#f2f5e9" fill-opacity="0.5" stroke="#606060" stroke-width="1.0"/>
           <path id="arrow"
             d="M 11.500037,31.436501 C 11.940474,20.09759 22.043105,11.32322 32.158766,21.979434 L 37.068811,17.246167 C 37.068811,17.246167 37.088388,32 37.088388,32 L 22.160133,31.978069 C 22.160133,31.978069 26.997745,27.140456 26.997745,27.140456 C 18.528582,18.264221 13.291696,25.230495 11.500037,31.436501 z"
             style="fill:#404040;"/>
          </a>
         </g>
        </svg>
</svg>
