<?xml version="1.0" encoding="UTF-8" standalone="no"?>
<!DOCTYPE svg PUBLIC "-//W3C//DTD SVG 1.1//EN"
 "http://www.w3.org/Graphics/SVG/1.1/DTD/svg11.dtd">
<!-- Generated by graphviz version 2.40.1 (20161225.0304)
 -->
<!-- Title: /home/travis/build/AliceO2Group/AliceO2/Analysis/DataModel Pages: 1 -->
<svg width="220pt" height="303pt"
 viewBox="0.00 0.00 219.50 303.00" xmlns="http://www.w3.org/2000/svg" xmlns:xlink="http://www.w3.org/1999/xlink">
<g id="graph0" class="graph" transform="scale(1 1) rotate(0) translate(4 299)">
<title>/home/travis/build/AliceO2Group/AliceO2/Analysis/DataModel</title>
<g id="clust1" class="cluster">
<title>clusterdir_19b17cb436010079e3d017a29cb7858f</title>
<g id="a_clust1"><a xlink:href="dir_19b17cb436010079e3d017a29cb7858f.html" target="_top" xlink:title="Analysis">
<polygon fill="#ddddee" stroke="#000000" points="29.5,-128 29.5,-287 203.5,-287 203.5,-128 29.5,-128"/>
<text text-anchor="middle" x="116.5" y="-275" font-family="Helvetica,sans-Serif" font-size="10.00" fill="#000000">Analysis</text>
</a>
</g>
</g>
<g id="clust2" class="cluster">
<title>clusterdir_f41dd59f861c855ea21b0dc3111cb7b0</title>
<g id="a_clust2"><a xlink:href="dir_f41dd59f861c855ea21b0dc3111cb7b0.html" target="_top">
<polygon fill="#eeeeff" stroke="#000000" points="37.5,-136 37.5,-260 195.5,-260 195.5,-136 37.5,-136"/>
</a>
</g>
</g>
<!-- dir_f41dd59f861c855ea21b0dc3111cb7b0 -->
<g id="node1" class="node">
<title>dir_f41dd59f861c855ea21b0dc3111cb7b0</title>
<text text-anchor="middle" x="152.5" y="-231.5" font-family="Helvetica,sans-Serif" font-size="10.00" fill="#000000">DataModel</text>
</g>
<!-- dir_7683e4c5aa7478ea0e5a46a41c8497b7 -->
<g id="node2" class="node">
<title>dir_7683e4c5aa7478ea0e5a46a41c8497b7</title>
<g id="a_node2"><a xlink:href="dir_7683e4c5aa7478ea0e5a46a41c8497b7.html" target="_top" xlink:title="include">
<polygon fill="#ffffff" stroke="#ff0000" points="99.5,-180 45.5,-180 45.5,-144 99.5,-144 99.5,-180"/>
<text text-anchor="middle" x="72.5" y="-159.5" font-family="Helvetica,sans-Serif" font-size="10.00" fill="#000000">include</text>
</a>
</g>
</g>
<!-- dir_4ab6b4cc6a7edbff49100e9123df213f -->
<g id="node4" class="node">
<title>dir_4ab6b4cc6a7edbff49100e9123df213f</title>
<g id="a_node4"><a xlink:href="dir_4ab6b4cc6a7edbff49100e9123df213f.html" target="_top" xlink:title="Common">
<polygon fill="none" stroke="#ff0000" points="61,-108 0,-108 0,-72 61,-72 61,-108"/>
<text text-anchor="middle" x="30.5" y="-87.5" font-family="Helvetica,sans-Serif" font-size="10.00" fill="#000000">Common</text>
</a>
</g>
</g>
<!-- dir_7683e4c5aa7478ea0e5a46a41c8497b7&#45;&gt;dir_4ab6b4cc6a7edbff49100e9123df213f -->
<g id="edge4" class="edge">
<title>dir_7683e4c5aa7478ea0e5a46a41c8497b7&#45;&gt;dir_4ab6b4cc6a7edbff49100e9123df213f</title>
<path fill="none" stroke="#000000" d="M61.9016,-143.8314C57.2123,-135.7925 51.5972,-126.1666 46.4202,-117.2918"/>
<polygon fill="#000000" stroke="#000000" points="49.3031,-115.2875 41.2411,-108.4133 43.2566,-118.8146 49.3031,-115.2875"/>
<g id="a_edge4&#45;headlabel"><a xlink:href="dir_000010_000027.html" target="_top" xlink:title="1">
<text text-anchor="middle" x="53.5667" y="-114.4618" font-family="Helvetica,sans-Serif" font-size="10.00" fill="#000000">1</text>
</a>
</g>
</g>
<!-- dir_bcbb2cf9a3d3d83e5515c82071a07177 -->
<g id="node5" class="node">
<title>dir_bcbb2cf9a3d3d83e5515c82071a07177</title>
<g id="a_node5"><a xlink:href="dir_bcbb2cf9a3d3d83e5515c82071a07177.html" target="_top" xlink:title="Framework">
<polygon fill="none" stroke="#ff0000" points="95,-36 24,-36 24,0 95,0 95,-36"/>
<text text-anchor="middle" x="59.5" y="-15.5" font-family="Helvetica,sans-Serif" font-size="10.00" fill="#000000">Framework</text>
</a>
</g>
</g>
<!-- dir_7683e4c5aa7478ea0e5a46a41c8497b7&#45;&gt;dir_bcbb2cf9a3d3d83e5515c82071a07177 -->
<g id="edge5" class="edge">
<title>dir_7683e4c5aa7478ea0e5a46a41c8497b7&#45;&gt;dir_bcbb2cf9a3d3d83e5515c82071a07177</title>
<path fill="none" stroke="#000000" d="M72.6906,-143.6718C72.6918,-125.4453 72.1847,-96.7121 69.5,-72 68.5877,-63.6025 67.1092,-54.55 65.5656,-46.3016"/>
<polygon fill="#000000" stroke="#000000" points="68.9806,-45.5281 63.6134,-36.3934 62.1127,-46.8814 68.9806,-45.5281"/>
<g id="a_edge5&#45;headlabel"><a xlink:href="dir_000010_000013.html" target="_top" xlink:title="8">
<text text-anchor="middle" x="72.4612" y="-46.0061" font-family="Helvetica,sans-Serif" font-size="10.00" fill="#000000">8</text>
</a>
</g>
</g>
<!-- dir_11c44d21aa48687fb93b207a13bbbfe3 -->
<g id="node3" class="node">
<title>dir_11c44d21aa48687fb93b207a13bbbfe3</title>
<g id="a_node3"><a xlink:href="dir_11c44d21aa48687fb93b207a13bbbfe3.html" target="_top" xlink:title="src">
<polygon fill="#ffffff" stroke="#000000" points="99.5,-252 45.5,-252 45.5,-216 99.5,-216 99.5,-252"/>
<text text-anchor="middle" x="72.5" y="-231.5" font-family="Helvetica,sans-Serif" font-size="10.00" fill="#000000">src</text>
</a>
</g>
</g>
<!-- dir_11c44d21aa48687fb93b207a13bbbfe3&#45;&gt;dir_7683e4c5aa7478ea0e5a46a41c8497b7 -->
<g id="edge1" class="edge">
<title>dir_11c44d21aa48687fb93b207a13bbbfe3&#45;&gt;dir_7683e4c5aa7478ea0e5a46a41c8497b7</title>
<path fill="none" stroke="#000000" d="M72.5,-215.8314C72.5,-208.131 72.5,-198.9743 72.5,-190.4166"/>
<polygon fill="#000000" stroke="#000000" points="76.0001,-190.4132 72.5,-180.4133 69.0001,-190.4133 76.0001,-190.4132"/>
<g id="a_edge1&#45;headlabel"><a xlink:href="dir_000012_000010.html" target="_top" xlink:title="3">
<text text-anchor="middle" x="78.8393" y="-191.5079" font-family="Helvetica,sans-Serif" font-size="10.00" fill="#000000">3</text>
</a>
</g>
</g>
<!-- dir_11c44d21aa48687fb93b207a13bbbfe3&#45;&gt;dir_bcbb2cf9a3d3d83e5515c82071a07177 -->
<g id="edge2" class="edge">
<title>dir_11c44d21aa48687fb93b207a13bbbfe3&#45;&gt;dir_bcbb2cf9a3d3d83e5515c82071a07177</title>
<path fill="none" stroke="#000000" d="M88.4905,-215.9169C96.1538,-206.0371 104.5166,-193.1563 108.5,-180 115.1972,-157.8805 112.9749,-150.6738 108.5,-128 102.6113,-98.1626 87.5925,-66.7154 75.7216,-45.1227"/>
<polygon fill="#000000" stroke="#000000" points="78.661,-43.21 70.6981,-36.2213 72.5648,-46.6504 78.661,-43.21"/>
<g id="a_edge2&#45;headlabel"><a xlink:href="dir_000012_000013.html" target="_top" xlink:title="1">
<text text-anchor="middle" x="82.9004" y="-42.445" font-family="Helvetica,sans-Serif" font-size="10.00" fill="#000000">1</text>
</a>
</g>
</g>
<!-- dir_4ab6b4cc6a7edbff49100e9123df213f&#45;&gt;dir_bcbb2cf9a3d3d83e5515c82071a07177 -->
<g id="edge3" class="edge">
<title>dir_4ab6b4cc6a7edbff49100e9123df213f&#45;&gt;dir_bcbb2cf9a3d3d83e5515c82071a07177</title>
<path fill="none" stroke="#000000" d="M31.8655,-71.8314C34.2942,-63.8771 37.9137,-54.369 41.8117,-45.5723"/>
<polygon fill="#000000" stroke="#000000" points="45.0298,-46.9532 46.1075,-36.4133 38.6923,-43.9806 45.0298,-46.9532"/>
<g id="a_edge3&#45;headlabel"><a xlink:href="dir_000027_000013.html" target="_top" xlink:title="2">
<text text-anchor="middle" x="46.074" y="-48.9132" font-family="Helvetica,sans-Serif" font-size="10.00" fill="#000000">2</text>
</a>
</g>
</g>
<!-- dir_bcbb2cf9a3d3d83e5515c82071a07177&#45;&gt;dir_4ab6b4cc6a7edbff49100e9123df213f -->
<g id="edge6" class="edge">
<title>dir_bcbb2cf9a3d3d83e5515c82071a07177&#45;&gt;dir_4ab6b4cc6a7edbff49100e9123df213f</title>
<path fill="none" stroke="#000000" d="M58.0596,-36.4133C55.6066,-44.3991 51.9722,-53.9155 48.0686,-62.6975"/>
<polygon fill="#000000" stroke="#000000" points="44.8615,-61.2929 43.7703,-71.8314 51.1952,-64.2735 44.8615,-61.2929"/>
<g id="a_edge6&#45;headlabel"><a xlink:href="dir_000013_000027.html" target="_top" xlink:title="8">
<text text-anchor="middle" x="43.823" y="-54.3315" font-family="Helvetica,sans-Serif" font-size="10.00" fill="#000000">8</text>
</a>
</g>
</g>
</g>
</svg>
