<?xml version="1.0" encoding="UTF-8" standalone="no"?>
<!DOCTYPE svg PUBLIC "-//W3C//DTD SVG 1.1//EN"
 "http://www.w3.org/Graphics/SVG/1.1/DTD/svg11.dtd">
<!-- Generated by graphviz version 2.40.1 (20161225.0304)
 -->
<!-- Title: /home/travis/build/AliceO2Group/AliceO2/Detectors/MUON/MCH/Clustering Pages: 1 -->
<svg width="207pt" height="303pt"
 viewBox="0.00 0.00 207.00 303.00" xmlns="http://www.w3.org/2000/svg" xmlns:xlink="http://www.w3.org/1999/xlink">
<g id="graph0" class="graph" transform="scale(1 1) rotate(0) translate(4 299)">
<title>/home/travis/build/AliceO2Group/AliceO2/Detectors/MUON/MCH/Clustering</title>
<g id="clust1" class="cluster">
<title>clusterdir_061f7088060f41729027f6c2fce0273e</title>
<g id="a_clust1"><a xlink:href="dir_061f7088060f41729027f6c2fce0273e.html" target="_top" xlink:title="MCH">
<polygon fill="#ddddee" stroke="#000000" points="21,-128 21,-287 191,-287 191,-128 21,-128"/>
<text text-anchor="middle" x="106" y="-275" font-family="Helvetica,sans-Serif" font-size="10.00" fill="#000000">MCH</text>
</a>
</g>
</g>
<g id="clust2" class="cluster">
<title>clusterdir_888858b226b7bc70f7e8b18d57d75108</title>
<g id="a_clust2"><a xlink:href="dir_888858b226b7bc70f7e8b18d57d75108.html" target="_top">
<polygon fill="#eeeeff" stroke="#000000" points="29,-136 29,-260 183,-260 183,-136 29,-136"/>
</a>
</g>
</g>
<!-- dir_888858b226b7bc70f7e8b18d57d75108 -->
<g id="node1" class="node">
<title>dir_888858b226b7bc70f7e8b18d57d75108</title>
<text text-anchor="middle" x="142" y="-231.5" font-family="Helvetica,sans-Serif" font-size="10.00" fill="#000000">Clustering</text>
</g>
<!-- dir_484f77b1fbf41c1c23153e848cd358eb -->
<g id="node2" class="node">
<title>dir_484f77b1fbf41c1c23153e848cd358eb</title>
<g id="a_node2"><a xlink:href="dir_484f77b1fbf41c1c23153e848cd358eb.html" target="_top" xlink:title="include">
<polygon fill="#ffffff" stroke="#ff0000" points="91,-180 37,-180 37,-144 91,-144 91,-180"/>
<text text-anchor="middle" x="64" y="-159.5" font-family="Helvetica,sans-Serif" font-size="10.00" fill="#000000">include</text>
</a>
</g>
</g>
<!-- dir_6229e1f1a243f5ed3f0013dfa4f13deb -->
<g id="node4" class="node">
<title>dir_6229e1f1a243f5ed3f0013dfa4f13deb</title>
<g id="a_node4"><a xlink:href="dir_6229e1f1a243f5ed3f0013dfa4f13deb.html" target="_top" xlink:title="PreClustering">
<polygon fill="none" stroke="#ff0000" points="105,-108 23,-108 23,-72 105,-72 105,-108"/>
<text text-anchor="middle" x="64" y="-87.5" font-family="Helvetica,sans-Serif" font-size="10.00" fill="#000000">PreClustering</text>
</a>
</g>
</g>
<!-- dir_484f77b1fbf41c1c23153e848cd358eb&#45;&gt;dir_6229e1f1a243f5ed3f0013dfa4f13deb -->
<g id="edge4" class="edge">
<title>dir_484f77b1fbf41c1c23153e848cd358eb&#45;&gt;dir_6229e1f1a243f5ed3f0013dfa4f13deb</title>
<path fill="none" stroke="#000000" d="M64,-143.8314C64,-136.131 64,-126.9743 64,-118.4166"/>
<polygon fill="#000000" stroke="#000000" points="67.5001,-118.4132 64,-108.4133 60.5001,-118.4133 67.5001,-118.4132"/>
<g id="a_edge4&#45;headlabel"><a xlink:href="dir_000527_000539.html" target="_top" xlink:title="1">
<text text-anchor="middle" x="70.3393" y="-119.5079" font-family="Helvetica,sans-Serif" font-size="10.00" fill="#000000">1</text>
</a>
</g>
</g>
<!-- dir_1155c84989a046e7de4bf0156dc4b34c -->
<g id="node5" class="node">
<title>dir_1155c84989a046e7de4bf0156dc4b34c</title>
<g id="a_node5"><a xlink:href="dir_1155c84989a046e7de4bf0156dc4b34c.html" target="_top" xlink:title="Base">
<polygon fill="none" stroke="#ff0000" points="54,-36 0,-36 0,0 54,0 54,-36"/>
<text text-anchor="middle" x="27" y="-15.5" font-family="Helvetica,sans-Serif" font-size="10.00" fill="#000000">Base</text>
</a>
</g>
</g>
<!-- dir_484f77b1fbf41c1c23153e848cd358eb&#45;&gt;dir_1155c84989a046e7de4bf0156dc4b34c -->
<g id="edge5" class="edge">
<title>dir_484f77b1fbf41c1c23153e848cd358eb&#45;&gt;dir_1155c84989a046e7de4bf0156dc4b34c</title>
<path fill="none" stroke="#000000" d="M40.6091,-143.838C30.3667,-134.3937 19.4541,-121.9182 14,-108 6.2116,-88.125 10.2773,-64.1373 15.8476,-45.9261"/>
<polygon fill="#000000" stroke="#000000" points="19.2464,-46.8006 19.1267,-36.2064 12.6136,-44.5628 19.2464,-46.8006"/>
<g id="a_edge5&#45;headlabel"><a xlink:href="dir_000527_000133.html" target="_top" xlink:title="2">
<text text-anchor="middle" x="20.7876" y="-48.6142" font-family="Helvetica,sans-Serif" font-size="10.00" fill="#000000">2</text>
</a>
</g>
</g>
<!-- dir_b098e3604916eca5f90f2bb1c75b7880 -->
<g id="node6" class="node">
<title>dir_b098e3604916eca5f90f2bb1c75b7880</title>
<g id="a_node6"><a xlink:href="dir_b098e3604916eca5f90f2bb1c75b7880.html" target="_top" xlink:title="Mapping">
<polygon fill="none" stroke="#ff0000" points="146,-36 88,-36 88,0 146,0 146,-36"/>
<text text-anchor="middle" x="117" y="-15.5" font-family="Helvetica,sans-Serif" font-size="10.00" fill="#000000">Mapping</text>
</a>
</g>
</g>
<!-- dir_484f77b1fbf41c1c23153e848cd358eb&#45;&gt;dir_b098e3604916eca5f90f2bb1c75b7880 -->
<g id="edge6" class="edge">
<title>dir_484f77b1fbf41c1c23153e848cd358eb&#45;&gt;dir_b098e3604916eca5f90f2bb1c75b7880</title>
<path fill="none" stroke="#000000" d="M86.9252,-143.9979C97.1951,-134.5059 108.2662,-121.9435 114,-108 122.0518,-88.4195 122.4245,-64.3699 120.9892,-46.0588"/>
<polygon fill="#000000" stroke="#000000" points="124.4625,-45.6173 119.9796,-36.0177 117.4977,-46.3177 124.4625,-45.6173"/>
<g id="a_edge6&#45;headlabel"><a xlink:href="dir_000527_000515.html" target="_top" xlink:title="1">
<text text-anchor="middle" x="127.6471" y="-46.4099" font-family="Helvetica,sans-Serif" font-size="10.00" fill="#000000">1</text>
</a>
</g>
</g>
<!-- dir_23922bf0390bd85ad0d381b0a74e736c -->
<g id="node3" class="node">
<title>dir_23922bf0390bd85ad0d381b0a74e736c</title>
<g id="a_node3"><a xlink:href="dir_23922bf0390bd85ad0d381b0a74e736c.html" target="_top" xlink:title="src">
<polygon fill="#ffffff" stroke="#000000" points="91,-252 37,-252 37,-216 91,-216 91,-252"/>
<text text-anchor="middle" x="64" y="-231.5" font-family="Helvetica,sans-Serif" font-size="10.00" fill="#000000">src</text>
</a>
</g>
</g>
<!-- dir_23922bf0390bd85ad0d381b0a74e736c&#45;&gt;dir_484f77b1fbf41c1c23153e848cd358eb -->
<g id="edge1" class="edge">
<title>dir_23922bf0390bd85ad0d381b0a74e736c&#45;&gt;dir_484f77b1fbf41c1c23153e848cd358eb</title>
<path fill="none" stroke="#000000" d="M64,-215.8314C64,-208.131 64,-198.9743 64,-190.4166"/>
<polygon fill="#000000" stroke="#000000" points="67.5001,-190.4132 64,-180.4133 60.5001,-190.4133 67.5001,-190.4132"/>
<g id="a_edge1&#45;headlabel"><a xlink:href="dir_000529_000527.html" target="_top" xlink:title="1">
<text text-anchor="middle" x="70.3393" y="-191.5079" font-family="Helvetica,sans-Serif" font-size="10.00" fill="#000000">1</text>
</a>
</g>
</g>
<!-- dir_6229e1f1a243f5ed3f0013dfa4f13deb&#45;&gt;dir_1155c84989a046e7de4bf0156dc4b34c -->
<g id="edge2" class="edge">
<title>dir_6229e1f1a243f5ed3f0013dfa4f13deb&#45;&gt;dir_1155c84989a046e7de4bf0156dc4b34c</title>
<path fill="none" stroke="#000000" d="M54.6633,-71.8314C50.5757,-63.8771 45.6896,-54.369 41.1691,-45.5723"/>
<polygon fill="#000000" stroke="#000000" points="44.1461,-43.7078 36.4624,-36.4133 37.9201,-46.9074 44.1461,-43.7078"/>
<g id="a_edge2&#45;headlabel"><a xlink:href="dir_000539_000133.html" target="_top" xlink:title="2">
<text text-anchor="middle" x="48.3144" y="-43.1073" font-family="Helvetica,sans-Serif" font-size="10.00" fill="#000000">2</text>
</a>
</g>
</g>
<!-- dir_6229e1f1a243f5ed3f0013dfa4f13deb&#45;&gt;dir_b098e3604916eca5f90f2bb1c75b7880 -->
<g id="edge3" class="edge">
<title>dir_6229e1f1a243f5ed3f0013dfa4f13deb&#45;&gt;dir_b098e3604916eca5f90f2bb1c75b7880</title>
<path fill="none" stroke="#000000" d="M77.3741,-71.8314C83.4162,-63.6232 90.6763,-53.7606 97.3221,-44.7323"/>
<polygon fill="#000000" stroke="#000000" points="100.3363,-46.5415 103.4458,-36.4133 94.6989,-42.3918 100.3363,-46.5415"/>
<g id="a_edge3&#45;headlabel"><a xlink:href="dir_000539_000515.html" target="_top" xlink:title="2">
<text text-anchor="middle" x="100.4919" y="-48.6195" font-family="Helvetica,sans-Serif" font-size="10.00" fill="#000000">2</text>
</a>
</g>
</g>
</g>
</svg>
