<?xml version="1.0" encoding="UTF-8" standalone="no"?>
<!DOCTYPE svg PUBLIC "-//W3C//DTD SVG 1.1//EN"
 "http://www.w3.org/Graphics/SVG/1.1/DTD/svg11.dtd">
<!-- Generated by graphviz version 2.40.1 (20161225.0304)
 -->
<!-- Title: /home/travis/build/AliceO2Group/AliceO2/Analysis/Tutorials/src Pages: 1 -->
<svg width="236pt" height="367pt"
 viewBox="0.00 0.00 236.10 367.00" xmlns="http://www.w3.org/2000/svg" xmlns:xlink="http://www.w3.org/1999/xlink">
<g id="graph0" class="graph" transform="scale(1 1) rotate(0) translate(4 363)">
<title>/home/travis/build/AliceO2Group/AliceO2/Analysis/Tutorials/src</title>
<g id="clust1" class="cluster">
<title>clusterdir_6e355b58bf8669476ee36a32071bc3eb</title>
<g id="a_clust1"><a xlink:href="dir_6e355b58bf8669476ee36a32071bc3eb.html" target="_top" xlink:title="Tutorials">
<polygon fill="#ddddee" stroke="#000000" points="117.5,-280 117.5,-351 187.5,-351 187.5,-280 117.5,-280"/>
<text text-anchor="middle" x="152.5" y="-339" font-family="Helvetica,sans-Serif" font-size="10.00" fill="#000000">Tutorials</text>
</a>
</g>
</g>
<!-- dir_75e6eb4f8361c04b3062a7d58db1db64 -->
<g id="node1" class="node">
<title>dir_75e6eb4f8361c04b3062a7d58db1db64</title>
<g id="a_node1"><a xlink:href="dir_75e6eb4f8361c04b3062a7d58db1db64.html" target="_top" xlink:title="src">
<polygon fill="#eeeeff" stroke="#000000" points="179.5,-324 125.5,-324 125.5,-288 179.5,-288 179.5,-324"/>
<text text-anchor="middle" x="152.5" y="-303.5" font-family="Helvetica,sans-Serif" font-size="10.00" fill="#000000">src</text>
</a>
</g>
</g>
<!-- dir_6af676bf18881990e4083e191d0e63e0 -->
<g id="node2" class="node">
<title>dir_6af676bf18881990e4083e191d0e63e0</title>
<g id="a_node2"><a xlink:href="dir_6af676bf18881990e4083e191d0e63e0.html" target="_top" xlink:title="CCDB">
<polygon fill="none" stroke="#ff0000" points="135.5,-180 81.5,-180 81.5,-144 135.5,-144 135.5,-180"/>
<text text-anchor="middle" x="108.5" y="-159.5" font-family="Helvetica,sans-Serif" font-size="10.00" fill="#000000">CCDB</text>
</a>
</g>
</g>
<!-- dir_75e6eb4f8361c04b3062a7d58db1db64&#45;&gt;dir_6af676bf18881990e4083e191d0e63e0 -->
<g id="edge3" class="edge">
<title>dir_75e6eb4f8361c04b3062a7d58db1db64&#45;&gt;dir_6af676bf18881990e4083e191d0e63e0</title>
<path fill="none" stroke="#000000" d="M136.9855,-287.7612C129.4524,-277.8388 121.0625,-264.9669 116.5,-252 109.5254,-232.1779 107.6595,-208.4574 107.4656,-190.3459"/>
<polygon fill="#000000" stroke="#000000" points="110.9666,-190.1609 107.5243,-180.1409 103.9667,-190.1206 110.9666,-190.1609"/>
<g id="a_edge3&#45;headlabel"><a xlink:href="dir_000018_000019.html" target="_top" xlink:title="1">
<text text-anchor="middle" x="113.7853" y="-191.2717" font-family="Helvetica,sans-Serif" font-size="10.00" fill="#000000">1</text>
</a>
</g>
</g>
<!-- dir_f41dd59f861c855ea21b0dc3111cb7b0 -->
<g id="node3" class="node">
<title>dir_f41dd59f861c855ea21b0dc3111cb7b0</title>
<g id="a_node3"><a xlink:href="dir_f41dd59f861c855ea21b0dc3111cb7b0.html" target="_top" xlink:title="DataModel">
<polygon fill="none" stroke="#ff0000" points="69,-252 0,-252 0,-216 69,-216 69,-252"/>
<text text-anchor="middle" x="34.5" y="-231.5" font-family="Helvetica,sans-Serif" font-size="10.00" fill="#000000">DataModel</text>
</a>
</g>
</g>
<!-- dir_75e6eb4f8361c04b3062a7d58db1db64&#45;&gt;dir_f41dd59f861c855ea21b0dc3111cb7b0 -->
<g id="edge4" class="edge">
<title>dir_75e6eb4f8361c04b3062a7d58db1db64&#45;&gt;dir_f41dd59f861c855ea21b0dc3111cb7b0</title>
<path fill="none" stroke="#000000" d="M125.4284,-289.4817C109.8999,-280.0067 90.1487,-267.9552 73.0246,-257.5065"/>
<polygon fill="#000000" stroke="#000000" points="74.7049,-254.4317 64.3455,-252.2108 71.0588,-260.4072 74.7049,-254.4317"/>
<g id="a_edge4&#45;headlabel"><a xlink:href="dir_000018_000009.html" target="_top" xlink:title="2">
<text text-anchor="middle" x="79.2523" y="-251.3803" font-family="Helvetica,sans-Serif" font-size="10.00" fill="#000000">2</text>
</a>
</g>
</g>
<!-- dir_8d04f135a1eb0fdc4d561ef87bbea216 -->
<g id="node4" class="node">
<title>dir_8d04f135a1eb0fdc4d561ef87bbea216</title>
<g id="a_node4"><a xlink:href="dir_8d04f135a1eb0fdc4d561ef87bbea216.html" target="_top" xlink:title="Core">
<polygon fill="none" stroke="#ff0000" points="179.5,-252 125.5,-252 125.5,-216 179.5,-216 179.5,-252"/>
<text text-anchor="middle" x="152.5" y="-231.5" font-family="Helvetica,sans-Serif" font-size="10.00" fill="#000000">Core</text>
</a>
</g>
</g>
<!-- dir_75e6eb4f8361c04b3062a7d58db1db64&#45;&gt;dir_8d04f135a1eb0fdc4d561ef87bbea216 -->
<g id="edge5" class="edge">
<title>dir_75e6eb4f8361c04b3062a7d58db1db64&#45;&gt;dir_8d04f135a1eb0fdc4d561ef87bbea216</title>
<path fill="none" stroke="#000000" d="M152.5,-287.8314C152.5,-280.131 152.5,-270.9743 152.5,-262.4166"/>
<polygon fill="#000000" stroke="#000000" points="156.0001,-262.4132 152.5,-252.4133 149.0001,-262.4133 156.0001,-262.4132"/>
<g id="a_edge5&#45;headlabel"><a xlink:href="dir_000018_000005.html" target="_top" xlink:title="3">
<text text-anchor="middle" x="158.8393" y="-263.5079" font-family="Helvetica,sans-Serif" font-size="10.00" fill="#000000">3</text>
</a>
</g>
</g>
<!-- dir_bcbb2cf9a3d3d83e5515c82071a07177 -->
<g id="node5" class="node">
<title>dir_bcbb2cf9a3d3d83e5515c82071a07177</title>
<g id="a_node5"><a xlink:href="dir_bcbb2cf9a3d3d83e5515c82071a07177.html" target="_top" xlink:title="Framework">
<polygon fill="none" stroke="#ff0000" points="199,-108 128,-108 128,-72 199,-72 199,-108"/>
<text text-anchor="middle" x="163.5" y="-87.5" font-family="Helvetica,sans-Serif" font-size="10.00" fill="#000000">Framework</text>
</a>
</g>
</g>
<!-- dir_75e6eb4f8361c04b3062a7d58db1db64&#45;&gt;dir_bcbb2cf9a3d3d83e5515c82071a07177 -->
<g id="edge6" class="edge">
<title>dir_75e6eb4f8361c04b3062a7d58db1db64&#45;&gt;dir_bcbb2cf9a3d3d83e5515c82071a07177</title>
<path fill="none" stroke="#000000" d="M168.4905,-287.9169C176.1538,-278.0371 184.5166,-265.1563 188.5,-252 202.4008,-206.0889 187.1569,-150.4023 175.122,-117.7184"/>
<polygon fill="#000000" stroke="#000000" points="178.3771,-116.4315 171.5259,-108.3499 171.842,-118.94 178.3771,-116.4315"/>
<g id="a_edge6&#45;headlabel"><a xlink:href="dir_000018_000013.html" target="_top" xlink:title="50">
<text text-anchor="middle" x="182.3159" y="-116.2699" font-family="Helvetica,sans-Serif" font-size="10.00" fill="#000000">50</text>
</a>
</g>
</g>
<!-- dir_2171f7ec022c5423887b07c69b2f5b48 -->
<g id="node6" class="node">
<title>dir_2171f7ec022c5423887b07c69b2f5b48</title>
<g id="a_node6"><a xlink:href="dir_2171f7ec022c5423887b07c69b2f5b48.html" target="_top" xlink:title="DataFormats">
<polygon fill="none" stroke="#ff0000" points="203.5,-36 123.5,-36 123.5,0 203.5,0 203.5,-36"/>
<text text-anchor="middle" x="163.5" y="-15.5" font-family="Helvetica,sans-Serif" font-size="10.00" fill="#000000">DataFormats</text>
</a>
</g>
</g>
<!-- dir_75e6eb4f8361c04b3062a7d58db1db64&#45;&gt;dir_2171f7ec022c5423887b07c69b2f5b48 -->
<g id="edge7" class="edge">
<title>dir_75e6eb4f8361c04b3062a7d58db1db64&#45;&gt;dir_2171f7ec022c5423887b07c69b2f5b48</title>
<path fill="none" stroke="#000000" d="M177.4551,-287.8333C188.205,-278.4706 199.6368,-266.0646 205.5,-252 236.2844,-178.1548 234.3205,-147.3754 207.5,-72 203.9122,-61.9169 197.5465,-52.3517 190.7524,-44.1515"/>
<polygon fill="#000000" stroke="#000000" points="193.1596,-41.591 183.9026,-36.4375 187.9253,-46.2389 193.1596,-41.591"/>
<g id="a_edge7&#45;headlabel"><a xlink:href="dir_000018_000076.html" target="_top" xlink:title="1">
<text text-anchor="middle" x="197.6694" y="-39.8936" font-family="Helvetica,sans-Serif" font-size="10.00" fill="#000000">1</text>
</a>
</g>
</g>
<!-- dir_6af676bf18881990e4083e191d0e63e0&#45;&gt;dir_bcbb2cf9a3d3d83e5515c82071a07177 -->
<g id="edge1" class="edge">
<title>dir_6af676bf18881990e4083e191d0e63e0&#45;&gt;dir_bcbb2cf9a3d3d83e5515c82071a07177</title>
<path fill="none" stroke="#000000" d="M122.3788,-143.8314C128.7136,-135.5386 136.3384,-125.557 143.2926,-116.4533"/>
<polygon fill="#000000" stroke="#000000" points="146.1452,-118.4847 149.4343,-108.4133 140.5825,-114.2353 146.1452,-118.4847"/>
<g id="a_edge1&#45;headlabel"><a xlink:href="dir_000019_000013.html" target="_top" xlink:title="2">
<text text-anchor="middle" x="146.2195" y="-120.5647" font-family="Helvetica,sans-Serif" font-size="10.00" fill="#000000">2</text>
</a>
</g>
</g>
<!-- dir_f41dd59f861c855ea21b0dc3111cb7b0&#45;&gt;dir_bcbb2cf9a3d3d83e5515c82071a07177 -->
<g id="edge2" class="edge">
<title>dir_f41dd59f861c855ea21b0dc3111cb7b0&#45;&gt;dir_bcbb2cf9a3d3d83e5515c82071a07177</title>
<path fill="none" stroke="#000000" d="M38.5171,-215.9621C43.6344,-196.3799 54.1023,-165.0877 72.5,-144 85.0187,-129.6509 102.3191,-118.0686 118.4763,-109.365"/>
<polygon fill="#000000" stroke="#000000" points="120.5136,-112.2536 127.8126,-104.574 117.3177,-106.0257 120.5136,-112.2536"/>
<g id="a_edge2&#45;headlabel"><a xlink:href="dir_000009_000013.html" target="_top" xlink:title="9">
<text text-anchor="middle" x="118.6118" y="-113.9207" font-family="Helvetica,sans-Serif" font-size="10.00" fill="#000000">9</text>
</a>
</g>
</g>
<!-- dir_8d04f135a1eb0fdc4d561ef87bbea216&#45;&gt;dir_6af676bf18881990e4083e191d0e63e0 -->
<g id="edge8" class="edge">
<title>dir_8d04f135a1eb0fdc4d561ef87bbea216&#45;&gt;dir_6af676bf18881990e4083e191d0e63e0</title>
<path fill="none" stroke="#000000" d="M141.3969,-215.8314C136.4326,-207.7079 130.4778,-197.9637 125.0072,-189.0118"/>
<polygon fill="#000000" stroke="#000000" points="127.9536,-187.121 119.7526,-180.4133 121.9806,-190.7712 127.9536,-187.121"/>
<g id="a_edge8&#45;headlabel"><a xlink:href="dir_000005_000019.html" target="_top" xlink:title="1">
<text text-anchor="middle" x="132.2507" y="-186.2077" font-family="Helvetica,sans-Serif" font-size="10.00" fill="#000000">1</text>
</a>
</g>
</g>
<!-- dir_8d04f135a1eb0fdc4d561ef87bbea216&#45;&gt;dir_bcbb2cf9a3d3d83e5515c82071a07177 -->
<g id="edge9" class="edge">
<title>dir_8d04f135a1eb0fdc4d561ef87bbea216&#45;&gt;dir_bcbb2cf9a3d3d83e5515c82071a07177</title>
<path fill="none" stroke="#000000" d="M153.8932,-215.7623C155.7694,-191.201 159.1269,-147.2474 161.3341,-118.3541"/>
<polygon fill="#000000" stroke="#000000" points="164.8462,-118.3272 162.1182,-108.0896 157.8666,-117.794 164.8462,-118.3272"/>
<g id="a_edge9&#45;headlabel"><a xlink:href="dir_000005_000013.html" target="_top" xlink:title="5">
<text text-anchor="middle" x="167.4036" y="-119.6276" font-family="Helvetica,sans-Serif" font-size="10.00" fill="#000000">5</text>
</a>
</g>
</g>
<!-- dir_bcbb2cf9a3d3d83e5515c82071a07177&#45;&gt;dir_2171f7ec022c5423887b07c69b2f5b48 -->
<g id="edge10" class="edge">
<title>dir_bcbb2cf9a3d3d83e5515c82071a07177&#45;&gt;dir_2171f7ec022c5423887b07c69b2f5b48</title>
<path fill="none" stroke="#000000" d="M157.5476,-71.8314C156.7972,-64.131 156.5763,-54.9743 156.8849,-46.4166"/>
<polygon fill="#000000" stroke="#000000" points="160.3792,-46.6161 157.524,-36.4133 153.3935,-46.1697 160.3792,-46.6161"/>
<g id="a_edge10&#45;headlabel"><a xlink:href="dir_000013_000076.html" target="_top" xlink:title="82">
<text text-anchor="middle" x="162.9836" y="-47.8844" font-family="Helvetica,sans-Serif" font-size="10.00" fill="#000000">82</text>
</a>
</g>
</g>
<!-- dir_2171f7ec022c5423887b07c69b2f5b48&#45;&gt;dir_bcbb2cf9a3d3d83e5515c82071a07177 -->
<g id="edge11" class="edge">
<title>dir_2171f7ec022c5423887b07c69b2f5b48&#45;&gt;dir_bcbb2cf9a3d3d83e5515c82071a07177</title>
<path fill="none" stroke="#000000" d="M169.476,-36.4133C170.2071,-44.0593 170.4203,-53.1084 170.1155,-61.5726"/>
<polygon fill="#000000" stroke="#000000" points="166.6048,-61.6264 169.4524,-71.8314 173.5902,-62.078 166.6048,-61.6264"/>
<g id="a_edge11&#45;headlabel"><a xlink:href="dir_000076_000013.html" target="_top" xlink:title="11">
<text text-anchor="middle" x="164.0032" y="-55.3562" font-family="Helvetica,sans-Serif" font-size="10.00" fill="#000000">11</text>
</a>
</g>
</g>
</g>
</svg>
