<?xml version="1.0" encoding="UTF-8" standalone="no"?>
<!DOCTYPE svg PUBLIC "-//W3C//DTD SVG 1.1//EN"
 "http://www.w3.org/Graphics/SVG/1.1/DTD/svg11.dtd">
<!-- Generated by graphviz version 2.40.1 (20161225.0304)
 -->
<!-- Title: /home/travis/build/AliceO2Group/AliceO2/Detectors/Upgrades/IT3 Pages: 1 -->
<svg width="306pt" height="447pt"
 viewBox="0.00 0.00 306.00 447.00" xmlns="http://www.w3.org/2000/svg" xmlns:xlink="http://www.w3.org/1999/xlink">
<g id="graph0" class="graph" transform="scale(1 1) rotate(0) translate(4 443)">
<title>/home/travis/build/AliceO2Group/AliceO2/Detectors/Upgrades/IT3</title>
<g id="clust1" class="cluster">
<title>clusterdir_4b0885c57a9e0f5b3b724ebcd74c1029</title>
<g id="a_clust1"><a xlink:href="dir_4b0885c57a9e0f5b3b724ebcd74c1029.html" target="_top" xlink:title="Upgrades">
<polygon fill="#ddddee" stroke="#000000" points="26,-272 26,-431 198,-431 198,-272 26,-272"/>
<text text-anchor="middle" x="112" y="-419" font-family="Helvetica,sans-Serif" font-size="10.00" fill="#000000">Upgrades</text>
</a>
</g>
</g>
<g id="clust2" class="cluster">
<title>clusterdir_75fbb39adb6ac7d55ea987143595017c</title>
<g id="a_clust2"><a xlink:href="dir_75fbb39adb6ac7d55ea987143595017c.html" target="_top">
<polygon fill="#eeeeff" stroke="#000000" points="34,-280 34,-404 190,-404 190,-280 34,-280"/>
</a>
</g>
</g>
<!-- dir_75fbb39adb6ac7d55ea987143595017c -->
<g id="node1" class="node">
<title>dir_75fbb39adb6ac7d55ea987143595017c</title>
<text text-anchor="middle" x="155" y="-375.5" font-family="Helvetica,sans-Serif" font-size="10.00" fill="#000000">IT3</text>
</g>
<!-- dir_a01a9dcdab2da3806e7d9bd0ccc92eea -->
<g id="node2" class="node">
<title>dir_a01a9dcdab2da3806e7d9bd0ccc92eea</title>
<g id="a_node2"><a xlink:href="dir_a01a9dcdab2da3806e7d9bd0ccc92eea.html" target="_top" xlink:title="base">
<polygon fill="#ffffff" stroke="#ff0000" points="141,-324 87,-324 87,-288 141,-288 141,-324"/>
<text text-anchor="middle" x="114" y="-303.5" font-family="Helvetica,sans-Serif" font-size="10.00" fill="#000000">base</text>
</a>
</g>
</g>
<!-- dir_4ab6b4cc6a7edbff49100e9123df213f -->
<g id="node4" class="node">
<title>dir_4ab6b4cc6a7edbff49100e9123df213f</title>
<g id="a_node4"><a xlink:href="dir_4ab6b4cc6a7edbff49100e9123df213f.html" target="_top" xlink:title="Common">
<polygon fill="none" stroke="#ff0000" points="203.5,-252 142.5,-252 142.5,-216 203.5,-216 203.5,-252"/>
<text text-anchor="middle" x="173" y="-231.5" font-family="Helvetica,sans-Serif" font-size="10.00" fill="#000000">Common</text>
</a>
</g>
</g>
<!-- dir_a01a9dcdab2da3806e7d9bd0ccc92eea&#45;&gt;dir_4ab6b4cc6a7edbff49100e9123df213f -->
<g id="edge1" class="edge">
<title>dir_a01a9dcdab2da3806e7d9bd0ccc92eea&#45;&gt;dir_4ab6b4cc6a7edbff49100e9123df213f</title>
<path fill="none" stroke="#000000" d="M128.8882,-287.8314C135.753,-279.454 144.0301,-269.3531 151.5511,-260.1749"/>
<polygon fill="#000000" stroke="#000000" points="154.2803,-262.3665 157.9114,-252.4133 148.8659,-257.9297 154.2803,-262.3665"/>
<g id="a_edge1&#45;headlabel"><a xlink:href="dir_000482_000027.html" target="_top" xlink:title="2">
<text text-anchor="middle" x="154.1981" y="-264.4464" font-family="Helvetica,sans-Serif" font-size="10.00" fill="#000000">2</text>
</a>
</g>
</g>
<!-- dir_37c90836491b695b472bf98d1be8336b -->
<g id="node5" class="node">
<title>dir_37c90836491b695b472bf98d1be8336b</title>
<g id="a_node5"><a xlink:href="dir_37c90836491b695b472bf98d1be8336b.html" target="_top" xlink:title="Base">
<polygon fill="none" stroke="#ff0000" points="193,-36 139,-36 139,0 193,0 193,-36"/>
<text text-anchor="middle" x="166" y="-15.5" font-family="Helvetica,sans-Serif" font-size="10.00" fill="#000000">Base</text>
</a>
</g>
</g>
<!-- dir_a01a9dcdab2da3806e7d9bd0ccc92eea&#45;&gt;dir_37c90836491b695b472bf98d1be8336b -->
<g id="edge2" class="edge">
<title>dir_a01a9dcdab2da3806e7d9bd0ccc92eea&#45;&gt;dir_37c90836491b695b472bf98d1be8336b</title>
<path fill="none" stroke="#000000" d="M114.3615,-287.9814C114.9239,-269.7482 116.3568,-240.7892 120,-216 129.5472,-151.0388 137.9826,-135.9186 153,-72 154.9539,-63.6835 157.1124,-54.6559 159.0998,-46.4054"/>
<polygon fill="#000000" stroke="#000000" points="162.5508,-47.0248 161.4975,-36.4824 155.7466,-45.3806 162.5508,-47.0248"/>
<g id="a_edge2&#45;headlabel"><a xlink:href="dir_000482_000274.html" target="_top" xlink:title="2">
<text text-anchor="middle" x="164.4665" y="-48.6857" font-family="Helvetica,sans-Serif" font-size="10.00" fill="#000000">2</text>
</a>
</g>
</g>
<!-- dir_1306292b77b40360479b729ac9ee7efe -->
<g id="node6" class="node">
<title>dir_1306292b77b40360479b729ac9ee7efe</title>
<g id="a_node6"><a xlink:href="dir_1306292b77b40360479b729ac9ee7efe.html" target="_top" xlink:title="ITSMFT">
<polygon fill="none" stroke="#ff0000" points="221,-108 167,-108 167,-72 221,-72 221,-108"/>
<text text-anchor="middle" x="194" y="-87.5" font-family="Helvetica,sans-Serif" font-size="10.00" fill="#000000">ITSMFT</text>
</a>
</g>
</g>
<!-- dir_a01a9dcdab2da3806e7d9bd0ccc92eea&#45;&gt;dir_1306292b77b40360479b729ac9ee7efe -->
<g id="edge3" class="edge">
<title>dir_a01a9dcdab2da3806e7d9bd0ccc92eea&#45;&gt;dir_1306292b77b40360479b729ac9ee7efe</title>
<path fill="none" stroke="#000000" d="M116.8113,-287.7392C119.9354,-269.3176 125.6639,-240.2152 134,-216 146.168,-180.6538 165.4631,-142.1454 178.8746,-117.1256"/>
<polygon fill="#000000" stroke="#000000" points="182.0074,-118.6905 183.6995,-108.2316 175.8545,-115.3525 182.0074,-118.6905"/>
<g id="a_edge3&#45;headlabel"><a xlink:href="dir_000482_000043.html" target="_top" xlink:title="2">
<text text-anchor="middle" x="182.7891" y="-120.704" font-family="Helvetica,sans-Serif" font-size="10.00" fill="#000000">2</text>
</a>
</g>
</g>
<!-- dir_2171f7ec022c5423887b07c69b2f5b48 -->
<g id="node7" class="node">
<title>dir_2171f7ec022c5423887b07c69b2f5b48</title>
<g id="a_node7"><a xlink:href="dir_2171f7ec022c5423887b07c69b2f5b48.html" target="_top" xlink:title="DataFormats">
<polygon fill="none" stroke="#ff0000" points="298,-180 218,-180 218,-144 298,-144 298,-180"/>
<text text-anchor="middle" x="258" y="-159.5" font-family="Helvetica,sans-Serif" font-size="10.00" fill="#000000">DataFormats</text>
</a>
</g>
</g>
<!-- dir_a01a9dcdab2da3806e7d9bd0ccc92eea&#45;&gt;dir_2171f7ec022c5423887b07c69b2f5b48 -->
<g id="edge4" class="edge">
<title>dir_a01a9dcdab2da3806e7d9bd0ccc92eea&#45;&gt;dir_2171f7ec022c5423887b07c69b2f5b48</title>
<path fill="none" stroke="#000000" d="M141.2502,-296.4098C162.9353,-287.6416 192.8802,-272.8512 213,-252 230.0439,-234.3365 241.9345,-208.9504 249.1942,-189.64"/>
<polygon fill="#000000" stroke="#000000" points="252.5094,-190.7635 252.5712,-180.1688 245.916,-188.4125 252.5094,-190.7635"/>
<g id="a_edge4&#45;headlabel"><a xlink:href="dir_000482_000076.html" target="_top" xlink:title="1">
<text text-anchor="middle" x="253.9766" y="-192.6028" font-family="Helvetica,sans-Serif" font-size="10.00" fill="#000000">1</text>
</a>
</g>
</g>
<!-- dir_d96a33a4dd234e2ad5118016dfbe1b32 -->
<g id="node3" class="node">
<title>dir_d96a33a4dd234e2ad5118016dfbe1b32</title>
<g id="a_node3"><a xlink:href="dir_d96a33a4dd234e2ad5118016dfbe1b32.html" target="_top" xlink:title="simulation">
<polygon fill="#ffffff" stroke="#ff0000" points="110,-396 42,-396 42,-360 110,-360 110,-396"/>
<text text-anchor="middle" x="76" y="-375.5" font-family="Helvetica,sans-Serif" font-size="10.00" fill="#000000">simulation</text>
</a>
</g>
</g>
<!-- dir_d96a33a4dd234e2ad5118016dfbe1b32&#45;&gt;dir_a01a9dcdab2da3806e7d9bd0ccc92eea -->
<g id="edge11" class="edge">
<title>dir_d96a33a4dd234e2ad5118016dfbe1b32&#45;&gt;dir_a01a9dcdab2da3806e7d9bd0ccc92eea</title>
<path fill="none" stroke="#000000" d="M85.589,-359.8314C89.8317,-351.7925 94.9121,-342.1666 99.596,-333.2918"/>
<polygon fill="#000000" stroke="#000000" points="102.7096,-334.8908 104.2819,-324.4133 96.5189,-331.6235 102.7096,-334.8908"/>
<g id="a_edge11&#45;headlabel"><a xlink:href="dir_000310_000482.html" target="_top" xlink:title="4">
<text text-anchor="middle" x="103.5428" y="-336.895" font-family="Helvetica,sans-Serif" font-size="10.00" fill="#000000">4</text>
</a>
</g>
</g>
<!-- dir_d96a33a4dd234e2ad5118016dfbe1b32&#45;&gt;dir_37c90836491b695b472bf98d1be8336b -->
<g id="edge12" class="edge">
<title>dir_d96a33a4dd234e2ad5118016dfbe1b32&#45;&gt;dir_37c90836491b695b472bf98d1be8336b</title>
<path fill="none" stroke="#000000" d="M58.7544,-359.6186C36.3312,-333.719 0,-284.0348 0,-234 0,-234 0,-234 0,-162 0,-93.8633 80.7906,-50.7119 129.6476,-30.8461"/>
<polygon fill="#000000" stroke="#000000" points="130.9352,-34.1008 138.9598,-27.183 128.3726,-27.5866 130.9352,-34.1008"/>
<g id="a_edge12&#45;headlabel"><a xlink:href="dir_000310_000274.html" target="_top" xlink:title="2">
<text text-anchor="middle" x="128.6294" y="-35.5588" font-family="Helvetica,sans-Serif" font-size="10.00" fill="#000000">2</text>
</a>
</g>
</g>
<!-- dir_d96a33a4dd234e2ad5118016dfbe1b32&#45;&gt;dir_1306292b77b40360479b729ac9ee7efe -->
<g id="edge13" class="edge">
<title>dir_d96a33a4dd234e2ad5118016dfbe1b32&#45;&gt;dir_1306292b77b40360479b729ac9ee7efe</title>
<path fill="none" stroke="#000000" d="M73.8288,-359.6545C71.8679,-338.2456 70.3335,-301.9567 78,-272 93.9199,-209.7937 108.2389,-196.6468 145,-144 151.7696,-134.305 160.1225,-124.4958 168.0021,-115.9465"/>
<polygon fill="#000000" stroke="#000000" points="170.7241,-118.1618 175.0464,-108.4887 165.6353,-113.3551 170.7241,-118.1618"/>
<g id="a_edge13&#45;headlabel"><a xlink:href="dir_000310_000043.html" target="_top" xlink:title="6">
<text text-anchor="middle" x="170.3199" y="-120.2246" font-family="Helvetica,sans-Serif" font-size="10.00" fill="#000000">6</text>
</a>
</g>
</g>
<!-- dir_d96a33a4dd234e2ad5118016dfbe1b32&#45;&gt;dir_2171f7ec022c5423887b07c69b2f5b48 -->
<g id="edge14" class="edge">
<title>dir_d96a33a4dd234e2ad5118016dfbe1b32&#45;&gt;dir_2171f7ec022c5423887b07c69b2f5b48</title>
<path fill="none" stroke="#000000" d="M110.1524,-361.0905C147.7251,-340.622 206.8973,-302.5178 238,-252 249.4878,-233.3413 254.4085,-208.9022 256.5007,-190.2003"/>
<polygon fill="#000000" stroke="#000000" points="259.9892,-190.4842 257.4149,-180.2069 253.0183,-189.8464 259.9892,-190.4842"/>
<g id="a_edge14&#45;headlabel"><a xlink:href="dir_000310_000076.html" target="_top" xlink:title="3">
<text text-anchor="middle" x="262.4893" y="-191.8225" font-family="Helvetica,sans-Serif" font-size="10.00" fill="#000000">3</text>
</a>
</g>
</g>
<!-- dir_4ab6b4cc6a7edbff49100e9123df213f&#45;&gt;dir_2171f7ec022c5423887b07c69b2f5b48 -->
<g id="edge5" class="edge">
<title>dir_4ab6b4cc6a7edbff49100e9123df213f&#45;&gt;dir_2171f7ec022c5423887b07c69b2f5b48</title>
<path fill="none" stroke="#000000" d="M188.4967,-215.8314C198.1018,-206.9632 210.6893,-196.1637 222.5534,-186.5718"/>
<polygon fill="#000000" stroke="#000000" points="224.9612,-189.1288 230.6059,-180.1628 220.602,-183.6517 224.9612,-189.1288"/>
<g id="a_edge5&#45;headlabel"><a xlink:href="dir_000027_000076.html" target="_top" xlink:title="2">
<text text-anchor="middle" x="223.9168" y="-191.0888" font-family="Helvetica,sans-Serif" font-size="10.00" fill="#000000">2</text>
</a>
</g>
</g>
<!-- dir_37c90836491b695b472bf98d1be8336b&#45;&gt;dir_4ab6b4cc6a7edbff49100e9123df213f -->
<g id="edge6" class="edge">
<title>dir_37c90836491b695b472bf98d1be8336b&#45;&gt;dir_4ab6b4cc6a7edbff49100e9123df213f</title>
<path fill="none" stroke="#000000" d="M162.585,-36.4196C160.8291,-46.8233 158.8774,-60.0908 158,-72 154.5507,-118.8199 161.9035,-173.1326 167.4856,-205.4721"/>
<polygon fill="#000000" stroke="#000000" points="164.0833,-206.3288 169.2927,-215.5545 170.9735,-205.0938 164.0833,-206.3288"/>
<g id="a_edge6&#45;headlabel"><a xlink:href="dir_000274_000027.html" target="_top" xlink:title="16">
<text text-anchor="middle" x="160.6545" y="-200.7914" font-family="Helvetica,sans-Serif" font-size="10.00" fill="#000000">16</text>
</a>
</g>
</g>
<!-- dir_37c90836491b695b472bf98d1be8336b&#45;&gt;dir_2171f7ec022c5423887b07c69b2f5b48 -->
<g id="edge7" class="edge">
<title>dir_37c90836491b695b472bf98d1be8336b&#45;&gt;dir_2171f7ec022c5423887b07c69b2f5b48</title>
<path fill="none" stroke="#000000" d="M193.1141,-30.15C208.8839,-39.8575 227.5068,-54.6769 239,-72 251.3844,-90.6663 258.5305,-115.1049 261.123,-133.8046"/>
<polygon fill="#000000" stroke="#000000" points="257.6441,-134.1911 262.1141,-143.7967 264.6099,-133.5001 257.6441,-134.1911"/>
<g id="a_edge7&#45;headlabel"><a xlink:href="dir_000274_000076.html" target="_top" xlink:title="12">
<text text-anchor="middle" x="254.4639" y="-128.3942" font-family="Helvetica,sans-Serif" font-size="10.00" fill="#000000">12</text>
</a>
</g>
</g>
<!-- dir_1306292b77b40360479b729ac9ee7efe&#45;&gt;dir_4ab6b4cc6a7edbff49100e9123df213f -->
<g id="edge8" class="edge">
<title>dir_1306292b77b40360479b729ac9ee7efe&#45;&gt;dir_4ab6b4cc6a7edbff49100e9123df213f</title>
<path fill="none" stroke="#000000" d="M191.3619,-108.0896C187.7758,-132.6805 181.3264,-176.905 177.1048,-205.8531"/>
<polygon fill="#000000" stroke="#000000" points="173.6395,-205.3619 175.6597,-215.7623 180.5662,-206.3721 173.6395,-205.3619"/>
<g id="a_edge8&#45;headlabel"><a xlink:href="dir_000043_000027.html" target="_top" xlink:title="79">
<text text-anchor="middle" x="171.3485" y="-198.8952" font-family="Helvetica,sans-Serif" font-size="10.00" fill="#000000">79</text>
</a>
</g>
</g>
<!-- dir_1306292b77b40360479b729ac9ee7efe&#45;&gt;dir_37c90836491b695b472bf98d1be8336b -->
<g id="edge9" class="edge">
<title>dir_1306292b77b40360479b729ac9ee7efe&#45;&gt;dir_37c90836491b695b472bf98d1be8336b</title>
<path fill="none" stroke="#000000" d="M186.9344,-71.8314C183.874,-63.9617 180.2221,-54.5712 176.8318,-45.8533"/>
<polygon fill="#000000" stroke="#000000" points="180.0473,-44.4647 173.1607,-36.4133 173.5232,-47.0019 180.0473,-44.4647"/>
<g id="a_edge9&#45;headlabel"><a xlink:href="dir_000043_000274.html" target="_top" xlink:title="21">
<text text-anchor="middle" x="183.9963" y="-44.2859" font-family="Helvetica,sans-Serif" font-size="10.00" fill="#000000">21</text>
</a>
</g>
</g>
<!-- dir_1306292b77b40360479b729ac9ee7efe&#45;&gt;dir_2171f7ec022c5423887b07c69b2f5b48 -->
<g id="edge10" class="edge">
<title>dir_1306292b77b40360479b729ac9ee7efe&#45;&gt;dir_2171f7ec022c5423887b07c69b2f5b48</title>
<path fill="none" stroke="#000000" d="M216.3434,-108.4133C224.54,-116.7389 233.6014,-126.7282 241.2458,-135.8144"/>
<polygon fill="#000000" stroke="#000000" points="238.7623,-138.3063 247.8025,-143.8314 244.1809,-133.8747 238.7623,-138.3063"/>
<g id="a_edge10&#45;headlabel"><a xlink:href="dir_000043_000076.html" target="_top" xlink:title="234">
<text text-anchor="middle" x="234.2888" y="-134.8213" font-family="Helvetica,sans-Serif" font-size="10.00" fill="#000000">234</text>
</a>
</g>
</g>
<!-- dir_2171f7ec022c5423887b07c69b2f5b48&#45;&gt;dir_4ab6b4cc6a7edbff49100e9123df213f -->
<g id="edge15" class="edge">
<title>dir_2171f7ec022c5423887b07c69b2f5b48&#45;&gt;dir_4ab6b4cc6a7edbff49100e9123df213f</title>
<path fill="none" stroke="#000000" d="M242.5096,-180.1628C232.9058,-189.0301 220.3188,-199.8295 208.4543,-209.4219"/>
<polygon fill="#000000" stroke="#000000" points="206.0461,-206.8653 200.4015,-215.8314 210.4054,-212.3423 206.0461,-206.8653"/>
<g id="a_edge15&#45;headlabel"><a xlink:href="dir_000076_000027.html" target="_top" xlink:title="35">
<text text-anchor="middle" x="207.0904" y="-199.9053" font-family="Helvetica,sans-Serif" font-size="10.00" fill="#000000">35</text>
</a>
</g>
</g>
<!-- dir_2171f7ec022c5423887b07c69b2f5b48&#45;&gt;dir_37c90836491b695b472bf98d1be8336b -->
<g id="edge16" class="edge">
<title>dir_2171f7ec022c5423887b07c69b2f5b48&#45;&gt;dir_37c90836491b695b472bf98d1be8336b</title>
<path fill="none" stroke="#000000" d="M248.7605,-143.7967C243.0655,-124.6355 235.7461,-94.226 221,-72 213.7163,-61.0216 203.5691,-51.0488 193.8978,-42.7454"/>
<polygon fill="#000000" stroke="#000000" points="195.8953,-39.8554 185.9592,-36.1778 191.4332,-45.249 195.8953,-39.8554"/>
<g id="a_edge16&#45;headlabel"><a xlink:href="dir_000076_000274.html" target="_top" xlink:title="1">
<text text-anchor="middle" x="200.4748" y="-37.4591" font-family="Helvetica,sans-Serif" font-size="10.00" fill="#000000">1</text>
</a>
</g>
</g>
<!-- dir_2171f7ec022c5423887b07c69b2f5b48&#45;&gt;dir_1306292b77b40360479b729ac9ee7efe -->
<g id="edge17" class="edge">
<title>dir_2171f7ec022c5423887b07c69b2f5b48&#45;&gt;dir_1306292b77b40360479b729ac9ee7efe</title>
<path fill="none" stroke="#000000" d="M235.8977,-143.8314C227.6348,-135.454 218.4665,-125.3531 210.7452,-116.1749"/>
<polygon fill="#000000" stroke="#000000" points="213.4341,-113.9341 204.3913,-108.4133 208.0175,-118.3683 213.4341,-113.9341"/>
<g id="a_edge17&#45;headlabel"><a xlink:href="dir_000076_000043.html" target="_top" xlink:title="1">
<text text-anchor="middle" x="217.908" y="-112.4171" font-family="Helvetica,sans-Serif" font-size="10.00" fill="#000000">1</text>
</a>
</g>
</g>
</g>
</svg>
