<?xml version="1.0" encoding="UTF-8" standalone="no"?>
<!DOCTYPE svg PUBLIC "-//W3C//DTD SVG 1.1//EN"
 "http://www.w3.org/Graphics/SVG/1.1/DTD/svg11.dtd">
<!-- Generated by graphviz version 2.40.1 (20161225.0304)
 -->
<!-- Title: /home/travis/build/AliceO2Group/AliceO2/DataFormats/Detectors/ITSMFT/common/include Pages: 1 -->
<svg width="315pt" height="447pt"
 viewBox="0.00 0.00 315.17 447.00" xmlns="http://www.w3.org/2000/svg" xmlns:xlink="http://www.w3.org/1999/xlink">
<g id="graph0" class="graph" transform="scale(1 1) rotate(0) translate(4 443)">
<title>/home/travis/build/AliceO2Group/AliceO2/DataFormats/Detectors/ITSMFT/common/include</title>
<g id="clust1" class="cluster">
<title>clusterdir_a24d6d0829ce59989bf769e9c553cbcc</title>
<g id="a_clust1"><a xlink:href="dir_a24d6d0829ce59989bf769e9c553cbcc.html" target="_top" xlink:title="common">
<polygon fill="#ddddee" stroke="#000000" points="81.1709,-344 81.1709,-431 299.1709,-431 299.1709,-344 81.1709,-344"/>
<text text-anchor="middle" x="190.1709" y="-419" font-family="Helvetica,sans-Serif" font-size="10.00" fill="#000000">common</text>
</a>
</g>
</g>
<g id="clust2" class="cluster">
<title>clusterdir_90228e13d7e50ca0627558c8e3e745e2</title>
<g id="a_clust2"><a xlink:href="dir_90228e13d7e50ca0627558c8e3e745e2.html" target="_top">
<polygon fill="#eeeeff" stroke="#000000" points="89.1709,-352 89.1709,-404 291.1709,-404 291.1709,-352 89.1709,-352"/>
</a>
</g>
</g>
<!-- dir_90228e13d7e50ca0627558c8e3e745e2 -->
<g id="node1" class="node">
<title>dir_90228e13d7e50ca0627558c8e3e745e2</title>
<text text-anchor="middle" x="256.1709" y="-375.5" font-family="Helvetica,sans-Serif" font-size="10.00" fill="#000000">include</text>
</g>
<!-- dir_574ab9c39fd630a65444236d42c800d1 -->
<g id="node2" class="node">
<title>dir_574ab9c39fd630a65444236d42c800d1</title>
<g id="a_node2"><a xlink:href="dir_574ab9c39fd630a65444236d42c800d1.html" target="_top" xlink:title="DataFormatsITSMFT">
<polygon fill="#ffffff" stroke="#000000" points="211.1709,-396 97.1709,-396 97.1709,-360 211.1709,-360 211.1709,-396"/>
<text text-anchor="middle" x="154.1709" y="-375.5" font-family="Helvetica,sans-Serif" font-size="10.00" fill="#000000">DataFormatsITSMFT</text>
</a>
</g>
</g>
<!-- dir_d269712cc31e133b892a3b3f6424741a -->
<g id="node3" class="node">
<title>dir_d269712cc31e133b892a3b3f6424741a</title>
<g id="a_node3"><a xlink:href="dir_d269712cc31e133b892a3b3f6424741a.html" target="_top" xlink:title="Reconstruction">
<polygon fill="none" stroke="#ff0000" points="125.6709,-324 36.6709,-324 36.6709,-288 125.6709,-288 125.6709,-324"/>
<text text-anchor="middle" x="81.1709" y="-303.5" font-family="Helvetica,sans-Serif" font-size="10.00" fill="#000000">Reconstruction</text>
</a>
</g>
</g>
<!-- dir_574ab9c39fd630a65444236d42c800d1&#45;&gt;dir_d269712cc31e133b892a3b3f6424741a -->
<g id="edge10" class="edge">
<title>dir_574ab9c39fd630a65444236d42c800d1&#45;&gt;dir_d269712cc31e133b892a3b3f6424741a</title>
<path fill="none" stroke="#000000" d="M135.7499,-359.8314C127.018,-351.219 116.4392,-340.7851 106.9286,-331.4048"/>
<polygon fill="#000000" stroke="#000000" points="109.1635,-328.6931 99.586,-324.1628 104.248,-333.6769 109.1635,-328.6931"/>
<g id="a_edge10&#45;headlabel"><a xlink:href="dir_000101_000231.html" target="_top" xlink:title="1">
<text text-anchor="middle" x="113.7165" y="-326.6958" font-family="Helvetica,sans-Serif" font-size="10.00" fill="#000000">1</text>
</a>
</g>
</g>
<!-- dir_4ab6b4cc6a7edbff49100e9123df213f -->
<g id="node4" class="node">
<title>dir_4ab6b4cc6a7edbff49100e9123df213f</title>
<g id="a_node4"><a xlink:href="dir_4ab6b4cc6a7edbff49100e9123df213f.html" target="_top" xlink:title="Common">
<polygon fill="none" stroke="#ff0000" points="138.6709,-180 77.6709,-180 77.6709,-144 138.6709,-144 138.6709,-180"/>
<text text-anchor="middle" x="108.1709" y="-159.5" font-family="Helvetica,sans-Serif" font-size="10.00" fill="#000000">Common</text>
</a>
</g>
</g>
<!-- dir_574ab9c39fd630a65444236d42c800d1&#45;&gt;dir_4ab6b4cc6a7edbff49100e9123df213f -->
<g id="edge11" class="edge">
<title>dir_574ab9c39fd630a65444236d42c800d1&#45;&gt;dir_4ab6b4cc6a7edbff49100e9123df213f</title>
<path fill="none" stroke="#000000" d="M165.0396,-359.887C182.2017,-328.7299 211.1847,-263.7406 186.1709,-216 177.9418,-200.2941 162.8398,-188.2481 148.1007,-179.5613"/>
<polygon fill="#000000" stroke="#000000" points="149.4854,-176.3288 139.0352,-174.584 146.1165,-182.4648 149.4854,-176.3288"/>
<g id="a_edge11&#45;headlabel"><a xlink:href="dir_000101_000027.html" target="_top" xlink:title="1">
<text text-anchor="middle" x="154.0028" y="-173.0699" font-family="Helvetica,sans-Serif" font-size="10.00" fill="#000000">1</text>
</a>
</g>
</g>
<!-- dir_74593c7a91e03746ae2a516888bf9494 -->
<g id="node5" class="node">
<title>dir_74593c7a91e03746ae2a516888bf9494</title>
<g id="a_node5"><a xlink:href="dir_74593c7a91e03746ae2a516888bf9494.html" target="_top" xlink:title="Common">
<polygon fill="none" stroke="#ff0000" points="85.6709,-108 24.6709,-108 24.6709,-72 85.6709,-72 85.6709,-108"/>
<text text-anchor="middle" x="55.1709" y="-87.5" font-family="Helvetica,sans-Serif" font-size="10.00" fill="#000000">Common</text>
</a>
</g>
</g>
<!-- dir_574ab9c39fd630a65444236d42c800d1&#45;&gt;dir_74593c7a91e03746ae2a516888bf9494 -->
<g id="edge12" class="edge">
<title>dir_574ab9c39fd630a65444236d42c800d1&#45;&gt;dir_74593c7a91e03746ae2a516888bf9494</title>
<path fill="none" stroke="#000000" d="M97.1703,-368.4937C71.2084,-361.0079 42.8339,-347.68 27.1709,-324 -15.1859,-259.9633 19.5986,-164.0751 41.1916,-117.4386"/>
<polygon fill="#000000" stroke="#000000" points="44.4216,-118.7965 45.5665,-108.2637 38.1031,-115.7836 44.4216,-118.7965"/>
<g id="a_edge12&#45;headlabel"><a xlink:href="dir_000101_000087.html" target="_top" xlink:title="1">
<text text-anchor="middle" x="45.4373" y="-120.7631" font-family="Helvetica,sans-Serif" font-size="10.00" fill="#000000">1</text>
</a>
</g>
</g>
<!-- dir_7924ba4398ae4560cd37376e44666c6d -->
<g id="node6" class="node">
<title>dir_7924ba4398ae4560cd37376e44666c6d</title>
<g id="a_node6"><a xlink:href="dir_7924ba4398ae4560cd37376e44666c6d.html" target="_top" xlink:title="common">
<polygon fill="none" stroke="#ff0000" points="177.6709,-252 118.6709,-252 118.6709,-216 177.6709,-216 177.6709,-252"/>
<text text-anchor="middle" x="148.1709" y="-231.5" font-family="Helvetica,sans-Serif" font-size="10.00" fill="#000000">common</text>
</a>
</g>
</g>
<!-- dir_574ab9c39fd630a65444236d42c800d1&#45;&gt;dir_7924ba4398ae4560cd37376e44666c6d -->
<g id="edge13" class="edge">
<title>dir_574ab9c39fd630a65444236d42c800d1&#45;&gt;dir_7924ba4398ae4560cd37376e44666c6d</title>
<path fill="none" stroke="#000000" d="M153.411,-359.7623C152.3876,-335.201 150.5562,-291.2474 149.3523,-262.3541"/>
<polygon fill="#000000" stroke="#000000" points="152.838,-261.9352 148.9247,-252.0896 145.8441,-262.2267 152.838,-261.9352"/>
<g id="a_edge13&#45;headlabel"><a xlink:href="dir_000101_000077.html" target="_top" xlink:title="2">
<text text-anchor="middle" x="155.8244" y="-262.9085" font-family="Helvetica,sans-Serif" font-size="10.00" fill="#000000">2</text>
</a>
</g>
</g>
<!-- dir_bcbb2cf9a3d3d83e5515c82071a07177 -->
<g id="node7" class="node">
<title>dir_bcbb2cf9a3d3d83e5515c82071a07177</title>
<g id="a_node7"><a xlink:href="dir_bcbb2cf9a3d3d83e5515c82071a07177.html" target="_top" xlink:title="Framework">
<polygon fill="none" stroke="#ff0000" points="158.6709,-36 87.6709,-36 87.6709,0 158.6709,0 158.6709,-36"/>
<text text-anchor="middle" x="123.1709" y="-15.5" font-family="Helvetica,sans-Serif" font-size="10.00" fill="#000000">Framework</text>
</a>
</g>
</g>
<!-- dir_574ab9c39fd630a65444236d42c800d1&#45;&gt;dir_bcbb2cf9a3d3d83e5515c82071a07177 -->
<g id="edge14" class="edge">
<title>dir_574ab9c39fd630a65444236d42c800d1&#45;&gt;dir_bcbb2cf9a3d3d83e5515c82071a07177</title>
<path fill="none" stroke="#000000" d="M175.045,-359.8028C201.6319,-334.4918 244.1709,-285.8869 244.1709,-234 244.1709,-234 244.1709,-234 244.1709,-162 244.1709,-110.0034 197.3566,-66.9786 161.9658,-41.8817"/>
<polygon fill="#000000" stroke="#000000" points="163.9263,-38.9822 153.7043,-36.1961 159.9577,-44.7486 163.9263,-38.9822"/>
<g id="a_edge14&#45;headlabel"><a xlink:href="dir_000101_000013.html" target="_top" xlink:title="1">
<text text-anchor="middle" x="168.497" y="-36.1812" font-family="Helvetica,sans-Serif" font-size="10.00" fill="#000000">1</text>
</a>
</g>
</g>
<!-- dir_d269712cc31e133b892a3b3f6424741a&#45;&gt;dir_4ab6b4cc6a7edbff49100e9123df213f -->
<g id="edge1" class="edge">
<title>dir_d269712cc31e133b892a3b3f6424741a&#45;&gt;dir_4ab6b4cc6a7edbff49100e9123df213f</title>
<path fill="none" stroke="#000000" d="M79.9173,-287.7623C82.0722,-263.0928 90.0996,-218.8598 97.4539,-189.9731"/>
<polygon fill="#000000" stroke="#000000" points="100.8947,-190.6561 100.1208,-180.0896 94.1364,-188.8325 100.8947,-190.6561"/>
<g id="a_edge1&#45;headlabel"><a xlink:href="dir_000231_000027.html" target="_top" xlink:title="8">
<text text-anchor="middle" x="102.6996" y="-192.3663" font-family="Helvetica,sans-Serif" font-size="10.00" fill="#000000">8</text>
</a>
</g>
</g>
<!-- dir_d269712cc31e133b892a3b3f6424741a&#45;&gt;dir_74593c7a91e03746ae2a516888bf9494 -->
<g id="edge2" class="edge">
<title>dir_d269712cc31e133b892a3b3f6424741a&#45;&gt;dir_74593c7a91e03746ae2a516888bf9494</title>
<path fill="none" stroke="#000000" d="M78.9989,-287.9555C74.468,-250.3144 63.9804,-163.1867 58.5563,-118.1246"/>
<polygon fill="#000000" stroke="#000000" points="62.0251,-117.6551 57.3551,-108.1451 55.0753,-118.4917 62.0251,-117.6551"/>
<g id="a_edge2&#45;headlabel"><a xlink:href="dir_000231_000087.html" target="_top" xlink:title="1">
<text text-anchor="middle" x="65.2736" y="-118.3847" font-family="Helvetica,sans-Serif" font-size="10.00" fill="#000000">1</text>
</a>
</g>
</g>
<!-- dir_d269712cc31e133b892a3b3f6424741a&#45;&gt;dir_7924ba4398ae4560cd37376e44666c6d -->
<g id="edge3" class="edge">
<title>dir_d269712cc31e133b892a3b3f6424741a&#45;&gt;dir_7924ba4398ae4560cd37376e44666c6d</title>
<path fill="none" stroke="#000000" d="M98.0779,-287.8314C105.9522,-279.3694 115.4629,-269.1489 124.0722,-259.8971"/>
<polygon fill="#000000" stroke="#000000" points="126.7863,-262.1183 131.0364,-252.4133 121.6618,-257.3497 126.7863,-262.1183"/>
<g id="a_edge3&#45;headlabel"><a xlink:href="dir_000231_000077.html" target="_top" xlink:title="4">
<text text-anchor="middle" x="126.4161" y="-264.184" font-family="Helvetica,sans-Serif" font-size="10.00" fill="#000000">4</text>
</a>
</g>
</g>
<!-- dir_d269712cc31e133b892a3b3f6424741a&#45;&gt;dir_bcbb2cf9a3d3d83e5515c82071a07177 -->
<g id="edge4" class="edge">
<title>dir_d269712cc31e133b892a3b3f6424741a&#45;&gt;dir_bcbb2cf9a3d3d83e5515c82071a07177</title>
<path fill="none" stroke="#000000" d="M66.9361,-287.9251C36.3638,-246.7523 -29.3222,-143.9915 15.1709,-72 28.9127,-49.7653 54.8889,-36.3796 77.9219,-28.4976"/>
<polygon fill="#000000" stroke="#000000" points="79.0895,-31.7993 87.5687,-25.4468 76.9787,-25.1251 79.0895,-31.7993"/>
<g id="a_edge4&#45;headlabel"><a xlink:href="dir_000231_000013.html" target="_top" xlink:title="1">
<text text-anchor="middle" x="76.5183" y="-33.0902" font-family="Helvetica,sans-Serif" font-size="10.00" fill="#000000">1</text>
</a>
</g>
</g>
<!-- dir_4ab6b4cc6a7edbff49100e9123df213f&#45;&gt;dir_d269712cc31e133b892a3b3f6424741a -->
<g id="edge5" class="edge">
<title>dir_4ab6b4cc6a7edbff49100e9123df213f&#45;&gt;dir_d269712cc31e133b892a3b3f6424741a</title>
<path fill="none" stroke="#000000" d="M109.4374,-180.0896C107.3061,-204.6805 99.2891,-248.905 91.9322,-277.8531"/>
<polygon fill="#000000" stroke="#000000" points="88.4844,-277.1962 89.2637,-287.7623 95.2436,-279.0164 88.4844,-277.1962"/>
<g id="a_edge5&#45;headlabel"><a xlink:href="dir_000027_000231.html" target="_top" xlink:title="1">
<text text-anchor="middle" x="86.6775" y="-270.4869" font-family="Helvetica,sans-Serif" font-size="10.00" fill="#000000">1</text>
</a>
</g>
</g>
<!-- dir_4ab6b4cc6a7edbff49100e9123df213f&#45;&gt;dir_74593c7a91e03746ae2a516888bf9494 -->
<g id="edge6" class="edge">
<title>dir_4ab6b4cc6a7edbff49100e9123df213f&#45;&gt;dir_74593c7a91e03746ae2a516888bf9494</title>
<path fill="none" stroke="#000000" d="M88.8444,-143.8314C82.0024,-135.6232 74.5441,-125.7606 68.3017,-116.7323"/>
<polygon fill="#000000" stroke="#000000" points="71.2119,-114.7877 62.7491,-108.4133 65.3896,-118.6738 71.2119,-114.7877"/>
<g id="a_edge6&#45;headlabel"><a xlink:href="dir_000027_000087.html" target="_top" xlink:title="1">
<text text-anchor="middle" x="75.5689" y="-113.7013" font-family="Helvetica,sans-Serif" font-size="10.00" fill="#000000">1</text>
</a>
</g>
</g>
<!-- dir_4ab6b4cc6a7edbff49100e9123df213f&#45;&gt;dir_bcbb2cf9a3d3d83e5515c82071a07177 -->
<g id="edge7" class="edge">
<title>dir_4ab6b4cc6a7edbff49100e9123df213f&#45;&gt;dir_bcbb2cf9a3d3d83e5515c82071a07177</title>
<path fill="none" stroke="#000000" d="M105.3975,-143.7623C105.4966,-119.0928 109.8379,-74.8598 114.785,-45.9731"/>
<polygon fill="#000000" stroke="#000000" points="118.2355,-46.5618 116.6283,-36.0896 111.3541,-45.2784 118.2355,-46.5618"/>
<g id="a_edge7&#45;headlabel"><a xlink:href="dir_000027_000013.html" target="_top" xlink:title="2">
<text text-anchor="middle" x="120.3677" y="-48.116" font-family="Helvetica,sans-Serif" font-size="10.00" fill="#000000">2</text>
</a>
</g>
</g>
<!-- dir_74593c7a91e03746ae2a516888bf9494&#45;&gt;dir_4ab6b4cc6a7edbff49100e9123df213f -->
<g id="edge8" class="edge">
<title>dir_74593c7a91e03746ae2a516888bf9494&#45;&gt;dir_4ab6b4cc6a7edbff49100e9123df213f</title>
<path fill="none" stroke="#000000" d="M74.7011,-108.4133C81.4845,-116.569 88.8537,-126.3212 95.0327,-135.257"/>
<polygon fill="#000000" stroke="#000000" points="92.2898,-137.4525 100.7492,-143.8314 98.1141,-133.5694 92.2898,-137.4525"/>
<g id="a_edge8&#45;headlabel"><a xlink:href="dir_000087_000027.html" target="_top" xlink:title="5">
<text text-anchor="middle" x="87.9335" y="-133.5366" font-family="Helvetica,sans-Serif" font-size="10.00" fill="#000000">5</text>
</a>
</g>
</g>
<!-- dir_74593c7a91e03746ae2a516888bf9494&#45;&gt;dir_bcbb2cf9a3d3d83e5515c82071a07177 -->
<g id="edge9" class="edge">
<title>dir_74593c7a91e03746ae2a516888bf9494&#45;&gt;dir_bcbb2cf9a3d3d83e5515c82071a07177</title>
<path fill="none" stroke="#000000" d="M72.3302,-71.8314C80.3221,-63.3694 89.9747,-53.1489 98.7126,-43.8971"/>
<polygon fill="#000000" stroke="#000000" points="101.4589,-46.0866 105.7806,-36.4133 96.3698,-41.2802 101.4589,-46.0866"/>
<g id="a_edge9&#45;headlabel"><a xlink:href="dir_000087_000013.html" target="_top" xlink:title="2">
<text text-anchor="middle" x="101.055" y="-48.1494" font-family="Helvetica,sans-Serif" font-size="10.00" fill="#000000">2</text>
</a>
</g>
</g>
<!-- dir_7924ba4398ae4560cd37376e44666c6d&#45;&gt;dir_4ab6b4cc6a7edbff49100e9123df213f -->
<g id="edge15" class="edge">
<title>dir_7924ba4398ae4560cd37376e44666c6d&#45;&gt;dir_4ab6b4cc6a7edbff49100e9123df213f</title>
<path fill="none" stroke="#000000" d="M138.0772,-215.8314C133.6112,-207.7925 128.2635,-198.1666 123.333,-189.2918"/>
<polygon fill="#000000" stroke="#000000" points="126.3166,-187.4551 118.4005,-180.4133 120.1974,-190.8546 126.3166,-187.4551"/>
<g id="a_edge15&#45;headlabel"><a xlink:href="dir_000077_000027.html" target="_top" xlink:title="2">
<text text-anchor="middle" x="130.5442" y="-186.7185" font-family="Helvetica,sans-Serif" font-size="10.00" fill="#000000">2</text>
</a>
</g>
</g>
<!-- dir_bcbb2cf9a3d3d83e5515c82071a07177&#45;&gt;dir_4ab6b4cc6a7edbff49100e9123df213f -->
<g id="edge16" class="edge">
<title>dir_bcbb2cf9a3d3d83e5515c82071a07177&#45;&gt;dir_4ab6b4cc6a7edbff49100e9123df213f</title>
<path fill="none" stroke="#000000" d="M125.9449,-36.0896C125.8628,-60.6805 121.5312,-104.905 116.5866,-133.8531"/>
<polygon fill="#000000" stroke="#000000" points="113.1312,-133.2909 114.7439,-143.7623 120.0132,-134.5708 113.1312,-133.2909"/>
<g id="a_edge16&#45;headlabel"><a xlink:href="dir_000013_000027.html" target="_top" xlink:title="8">
<text text-anchor="middle" x="110.9969" y="-126.7378" font-family="Helvetica,sans-Serif" font-size="10.00" fill="#000000">8</text>
</a>
</g>
</g>
</g>
</svg>
