<?xml version="1.0" encoding="UTF-8" standalone="no"?>
<!DOCTYPE svg PUBLIC "-//W3C//DTD SVG 1.1//EN"
 "http://www.w3.org/Graphics/SVG/1.1/DTD/svg11.dtd">
<!-- Generated by graphviz version 2.40.1 (20161225.0304)
 -->
<!-- Title: /home/travis/build/AliceO2Group/AliceO2/Detectors/ITSMFT/MFT/tracking/src Pages: 1 -->
<!--zoomable 511 -->
<svg id="main" version="1.1" xmlns="http://www.w3.org/2000/svg" xmlns:xlink="http://www.w3.org/1999/xlink" xml:space="preserve" onload="init(evt)">
<style type="text/css"><![CDATA[
.edge:hover path { stroke: red; }
.edge:hover polygon { stroke: red; fill: red; }
]]></style>
<script type="text/javascript"><![CDATA[
var edges = document.getElementsByTagName('g');
if (edges && edges.length) {
  for (var i=0;i<edges.length;i++) {
    if (edges[i].id.substr(0,4)=='edge') {
      edges[i].setAttribute('class','edge');
    }
  }
}
]]></script>
        <defs>
                <circle id="rim" cx="0" cy="0" r="7"/>
                <circle id="rim2" cx="0" cy="0" r="3.5"/>
                <g id="zoomPlus">
                        <use xlink:href="#rim" fill="#404040">
                                <set attributeName="fill" to="#808080" begin="zoomplus.mouseover" end="zoomplus.mouseout"/>
                        </use>
                        <path d="M-4,0h8M0,-4v8" fill="none" stroke="white" stroke-width="1.5" pointer-events="none"/>
                </g>
                <g id="zoomMin">
                        <use xlink:href="#rim" fill="#404040">
                                <set attributeName="fill" to="#808080" begin="zoomminus.mouseover" end="zoomminus.mouseout"/>
                        </use>
                        <path d="M-4,0h8" fill="none" stroke="white" stroke-width="1.5" pointer-events="none"/>
                </g>
                <g id="dirArrow">
                        <path fill="none" stroke="white" stroke-width="1.5" d="M0,-3.0v7 M-2.5,-0.5L0,-3.0L2.5,-0.5"/>
                </g>
               <g id="resetDef">
                       <use xlink:href="#rim2" fill="#404040">
                               <set attributeName="fill" to="#808080" begin="reset.mouseover" end="reset.mouseout"/>
                       </use>
               </g>
        </defs>

<script type="text/javascript">
var viewWidth = 382;
var viewHeight = 511;
var sectionId = 'dynsection-0';
</script>
<script xlink:href="svgpan.js"/>
<svg id="graph" class="graph">
<g id="viewport">
<title>/home/travis/build/AliceO2Group/AliceO2/Detectors/ITSMFT/MFT/tracking/src</title>
<g id="clust1" class="cluster">
<title>clusterdir_0a8d7fd788ce6274650fdef0765535ce</title>
<g id="a_clust1"><a xlink:href="dir_0a8d7fd788ce6274650fdef0765535ce.html" target="_top" xlink:title="tracking">
<polygon fill="#ddddee" stroke="#000000" points="89,-424 89,-495 159,-495 159,-424 89,-424"/>
<text text-anchor="middle" x="124" y="-483" font-family="Helvetica,sans-Serif" font-size="10.00" fill="#000000">tracking</text>
</a>
</g>
</g>
<!-- dir_119633d0a87109267c245d44b982fe38 -->
<g id="node1" class="node">
<title>dir_119633d0a87109267c245d44b982fe38</title>
<g id="a_node1"><a xlink:href="dir_119633d0a87109267c245d44b982fe38.html" target="_top" xlink:title="src">
<polygon fill="#eeeeff" stroke="#000000" points="151,-468 97,-468 97,-432 151,-432 151,-468"/>
<text text-anchor="middle" x="124" y="-447.5" font-family="Helvetica,sans-Serif" font-size="10.00" fill="#000000">src</text>
</a>
</g>
</g>
<!-- dir_4ab6b4cc6a7edbff49100e9123df213f -->
<g id="node2" class="node">
<title>dir_4ab6b4cc6a7edbff49100e9123df213f</title>
<g id="a_node2"><a xlink:href="dir_4ab6b4cc6a7edbff49100e9123df213f.html" target="_top" xlink:title="Common">
<polygon fill="none" stroke="#ff0000" points="250.5,-252 189.5,-252 189.5,-216 250.5,-216 250.5,-252"/>
<text text-anchor="middle" x="220" y="-231.5" font-family="Helvetica,sans-Serif" font-size="10.00" fill="#000000">Common</text>
</a>
</g>
</g>
<!-- dir_119633d0a87109267c245d44b982fe38&#45;&gt;dir_4ab6b4cc6a7edbff49100e9123df213f -->
<g id="edge13" class="edge">
<title>dir_119633d0a87109267c245d44b982fe38&#45;&gt;dir_4ab6b4cc6a7edbff49100e9123df213f</title>
<path fill="none" stroke="#000000" d="M151.172,-433.431C164.2834,-424.0479 179.0697,-411.1553 188,-396 212.6898,-354.0999 218.7095,-296.5939 219.9612,-262.5637"/>
<polygon fill="#000000" stroke="#000000" points="223.4645,-262.4745 220.2177,-252.3894 216.4667,-262.298 223.4645,-262.4745"/>
<g id="a_edge13&#45;headlabel"><a xlink:href="dir_000153_000027.html" target="_top" xlink:title="9">
<text text-anchor="middle" x="226.2124" y="-263.6395" font-family="Helvetica,sans-Serif" font-size="10.00" fill="#000000">9</text>
</a>
</g>
</g>
<!-- dir_85bf31a2e8d306e7598ffcb73f8df6bf -->
<g id="node3" class="node">
<title>dir_85bf31a2e8d306e7598ffcb73f8df6bf</title>
<g id="a_node3"><a xlink:href="dir_85bf31a2e8d306e7598ffcb73f8df6bf.html" target="_top" xlink:title="common">
<polygon fill="none" stroke="#ff0000" points="228.5,-36 169.5,-36 169.5,0 228.5,0 228.5,-36"/>
<text text-anchor="middle" x="199" y="-15.5" font-family="Helvetica,sans-Serif" font-size="10.00" fill="#000000">common</text>
</a>
</g>
</g>
<!-- dir_119633d0a87109267c245d44b982fe38&#45;&gt;dir_85bf31a2e8d306e7598ffcb73f8df6bf -->
<g id="edge14" class="edge">
<title>dir_119633d0a87109267c245d44b982fe38&#45;&gt;dir_85bf31a2e8d306e7598ffcb73f8df6bf</title>
<path fill="none" stroke="#000000" d="M96.7877,-434.5901C60.2862,-411.6659 0,-364.89 0,-306 0,-306 0,-306 0,-162 0,-84.1556 101.1788,-44.1098 159.2459,-27.5372"/>
<polygon fill="#000000" stroke="#000000" points="160.4908,-30.825 169.2077,-24.8028 158.6379,-24.0747 160.4908,-30.825"/>
<g id="a_edge14&#45;headlabel"><a xlink:href="dir_000153_000061.html" target="_top" xlink:title="1">
<text text-anchor="middle" x="157.7759" y="-32.0144" font-family="Helvetica,sans-Serif" font-size="10.00" fill="#000000">1</text>
</a>
</g>
</g>
<!-- dir_7e732ae97f4f941436b6909b27d4da36 -->
<g id="node4" class="node">
<title>dir_7e732ae97f4f941436b6909b27d4da36</title>
<g id="a_node4"><a xlink:href="dir_7e732ae97f4f941436b6909b27d4da36.html" target="_top" xlink:title="base">
<polygon fill="none" stroke="#ff0000" points="124,-324 70,-324 70,-288 124,-288 124,-324"/>
<text text-anchor="middle" x="97" y="-303.5" font-family="Helvetica,sans-Serif" font-size="10.00" fill="#000000">base</text>
</a>
</g>
</g>
<!-- dir_119633d0a87109267c245d44b982fe38&#45;&gt;dir_7e732ae97f4f941436b6909b27d4da36 -->
<g id="edge15" class="edge">
<title>dir_119633d0a87109267c245d44b982fe38&#45;&gt;dir_7e732ae97f4f941436b6909b27d4da36</title>
<path fill="none" stroke="#000000" d="M120.5804,-431.7623C115.9549,-407.0928 107.6612,-362.8598 102.245,-333.9731"/>
<polygon fill="#000000" stroke="#000000" points="105.6748,-333.2733 100.3918,-324.0896 98.7947,-334.5634 105.6748,-333.2733"/>
<g id="a_edge15&#45;headlabel"><a xlink:href="dir_000153_000167.html" target="_top" xlink:title="1">
<text text-anchor="middle" x="109.1278" y="-333.7831" font-family="Helvetica,sans-Serif" font-size="10.00" fill="#000000">1</text>
</a>
</g>
</g>
<!-- dir_b26747058ac65f3a8006ba5e683c03be -->
<g id="node5" class="node">
<title>dir_b26747058ac65f3a8006ba5e683c03be</title>
<g id="a_node5"><a xlink:href="dir_b26747058ac65f3a8006ba5e683c03be.html" target="_top" xlink:title="include">
<polygon fill="none" stroke="#ff0000" points="179,-396 125,-396 125,-360 179,-360 179,-396"/>
<text text-anchor="middle" x="152" y="-375.5" font-family="Helvetica,sans-Serif" font-size="10.00" fill="#000000">include</text>
</a>
</g>
</g>
<!-- dir_119633d0a87109267c245d44b982fe38&#45;&gt;dir_b26747058ac65f3a8006ba5e683c03be -->
<g id="edge16" class="edge">
<title>dir_119633d0a87109267c245d44b982fe38&#45;&gt;dir_b26747058ac65f3a8006ba5e683c03be</title>
<path fill="none" stroke="#000000" d="M131.0656,-431.8314C134.126,-423.9617 137.7779,-414.5712 141.1682,-405.8533"/>
<polygon fill="#000000" stroke="#000000" points="144.4768,-407.0019 144.8393,-396.4133 137.9527,-404.4647 144.4768,-407.0019"/>
<g id="a_edge16&#45;headlabel"><a xlink:href="dir_000153_000112.html" target="_top" xlink:title="18">
<text text-anchor="middle" x="145.8202" y="-408.8812" font-family="Helvetica,sans-Serif" font-size="10.00" fill="#000000">18</text>
</a>
</g>
</g>
<!-- dir_bcbb2cf9a3d3d83e5515c82071a07177 -->
<g id="node6" class="node">
<title>dir_bcbb2cf9a3d3d83e5515c82071a07177</title>
<g id="a_node6"><a xlink:href="dir_bcbb2cf9a3d3d83e5515c82071a07177.html" target="_top" xlink:title="Framework">
<polygon fill="none" stroke="#ff0000" points="307.5,-180 236.5,-180 236.5,-144 307.5,-144 307.5,-180"/>
<text text-anchor="middle" x="272" y="-159.5" font-family="Helvetica,sans-Serif" font-size="10.00" fill="#000000">Framework</text>
</a>
</g>
</g>
<!-- dir_119633d0a87109267c245d44b982fe38&#45;&gt;dir_bcbb2cf9a3d3d83e5515c82071a07177 -->
<g id="edge17" class="edge">
<title>dir_119633d0a87109267c245d44b982fe38&#45;&gt;dir_bcbb2cf9a3d3d83e5515c82071a07177</title>
<path fill="none" stroke="#000000" d="M151.1378,-438.9037C170.0589,-429.9001 194.582,-415.499 210,-396 258.7287,-334.3732 269.3517,-237.973 271.537,-190.446"/>
<polygon fill="#000000" stroke="#000000" points="275.0413,-190.3897 271.9081,-180.2688 268.0459,-190.1346 275.0413,-190.3897"/>
<g id="a_edge17&#45;headlabel"><a xlink:href="dir_000153_000013.html" target="_top" xlink:title="1">
<text text-anchor="middle" x="277.7478" y="-191.5854" font-family="Helvetica,sans-Serif" font-size="10.00" fill="#000000">1</text>
</a>
</g>
</g>
<!-- dir_2171f7ec022c5423887b07c69b2f5b48 -->
<g id="node7" class="node">
<title>dir_2171f7ec022c5423887b07c69b2f5b48</title>
<g id="a_node7"><a xlink:href="dir_2171f7ec022c5423887b07c69b2f5b48.html" target="_top" xlink:title="DataFormats">
<polygon fill="none" stroke="#ff0000" points="239,-108 159,-108 159,-72 239,-72 239,-108"/>
<text text-anchor="middle" x="199" y="-87.5" font-family="Helvetica,sans-Serif" font-size="10.00" fill="#000000">DataFormats</text>
</a>
</g>
</g>
<!-- dir_119633d0a87109267c245d44b982fe38&#45;&gt;dir_2171f7ec022c5423887b07c69b2f5b48 -->
<g id="edge18" class="edge">
<title>dir_119633d0a87109267c245d44b982fe38&#45;&gt;dir_2171f7ec022c5423887b07c69b2f5b48</title>
<path fill="none" stroke="#000000" d="M104.0537,-431.6161C78.6484,-406.0935 38,-357.2496 38,-306 38,-306 38,-306 38,-234 38,-173.3548 102.249,-131.8655 149.5731,-109.5311"/>
<polygon fill="#000000" stroke="#000000" points="151.1479,-112.6597 158.7882,-105.3197 148.2382,-106.2931 151.1479,-112.6597"/>
<g id="a_edge18&#45;headlabel"><a xlink:href="dir_000153_000076.html" target="_top" xlink:title="8">
<text text-anchor="middle" x="149.0587" y="-114.2362" font-family="Helvetica,sans-Serif" font-size="10.00" fill="#000000">8</text>
</a>
</g>
</g>
<!-- dir_4ab6b4cc6a7edbff49100e9123df213f&#45;&gt;dir_bcbb2cf9a3d3d83e5515c82071a07177 -->
<g id="edge1" class="edge">
<title>dir_4ab6b4cc6a7edbff49100e9123df213f&#45;&gt;dir_bcbb2cf9a3d3d83e5515c82071a07177</title>
<path fill="none" stroke="#000000" d="M227.1694,-215.8314C232.3505,-207.5386 239.3654,-197.557 246.3603,-188.4533"/>
<polygon fill="#000000" stroke="#000000" points="249.2625,-190.4262 252.7255,-180.4133 243.7742,-186.0812 249.2625,-190.4262"/>
<g id="a_edge1&#45;headlabel"><a xlink:href="dir_000027_000013.html" target="_top" xlink:title="2">
<text text-anchor="middle" x="249.2574" y="-192.5068" font-family="Helvetica,sans-Serif" font-size="10.00" fill="#000000">2</text>
</a>
</g>
</g>
<!-- dir_4ab6b4cc6a7edbff49100e9123df213f&#45;&gt;dir_2171f7ec022c5423887b07c69b2f5b48 -->
<g id="edge2" class="edge">
<title>dir_4ab6b4cc6a7edbff49100e9123df213f&#45;&gt;dir_2171f7ec022c5423887b07c69b2f5b48</title>
<path fill="none" stroke="#000000" d="M212.6672,-215.7623C206.6255,-191.201 199.9409,-147.2474 197.6375,-118.3541"/>
<polygon fill="#000000" stroke="#000000" points="201.1122,-117.8453 196.9798,-108.0896 194.1265,-118.293 201.1122,-117.8453"/>
<g id="a_edge2&#45;headlabel"><a xlink:href="dir_000027_000076.html" target="_top" xlink:title="2">
<text text-anchor="middle" x="204.1755" y="-118.751" font-family="Helvetica,sans-Serif" font-size="10.00" fill="#000000">2</text>
</a>
</g>
</g>
<!-- dir_85bf31a2e8d306e7598ffcb73f8df6bf&#45;&gt;dir_4ab6b4cc6a7edbff49100e9123df213f -->
<g id="edge3" class="edge">
<title>dir_85bf31a2e8d306e7598ffcb73f8df6bf&#45;&gt;dir_4ab6b4cc6a7edbff49100e9123df213f</title>
<path fill="none" stroke="#000000" d="M226.9752,-36.1585C256.8696,-57.6249 301.8698,-96.5038 316,-144 320.5624,-159.3357 324.0775,-166.1886 316,-180 303.9157,-200.6624 280.6964,-214.0291 260.1208,-222.2947"/>
<polygon fill="#000000" stroke="#000000" points="258.7447,-219.0724 250.5986,-225.8467 261.1913,-225.6309 258.7447,-219.0724"/>
<g id="a_edge3&#45;headlabel"><a xlink:href="dir_000061_000027.html" target="_top" xlink:title="21">
<text text-anchor="middle" x="261.1203" y="-212.6559" font-family="Helvetica,sans-Serif" font-size="10.00" fill="#000000">21</text>
</a>
</g>
</g>
<!-- dir_85bf31a2e8d306e7598ffcb73f8df6bf&#45;&gt;dir_bcbb2cf9a3d3d83e5515c82071a07177 -->
<g id="edge4" class="edge">
<title>dir_85bf31a2e8d306e7598ffcb73f8df6bf&#45;&gt;dir_bcbb2cf9a3d3d83e5515c82071a07177</title>
<path fill="none" stroke="#000000" d="M219.6416,-36.2327C229.5129,-45.9603 240.7337,-58.6594 248,-72 258.4749,-91.2314 264.5835,-115.3012 268.0141,-133.7089"/>
<polygon fill="#000000" stroke="#000000" points="264.6059,-134.5441 269.7372,-143.8134 271.5063,-133.3673 264.6059,-134.5441"/>
<g id="a_edge4&#45;headlabel"><a xlink:href="dir_000061_000013.html" target="_top" xlink:title="32">
<text text-anchor="middle" x="261.2028" y="-128.9779" font-family="Helvetica,sans-Serif" font-size="10.00" fill="#000000">32</text>
</a>
</g>
</g>
<!-- dir_85bf31a2e8d306e7598ffcb73f8df6bf&#45;&gt;dir_2171f7ec022c5423887b07c69b2f5b48 -->
<g id="edge5" class="edge">
<title>dir_85bf31a2e8d306e7598ffcb73f8df6bf&#45;&gt;dir_2171f7ec022c5423887b07c69b2f5b48</title>
<path fill="none" stroke="#000000" d="M204.976,-36.4133C205.7071,-44.0593 205.9203,-53.1084 205.6155,-61.5726"/>
<polygon fill="#000000" stroke="#000000" points="202.1048,-61.6264 204.9524,-71.8314 209.0902,-62.078 202.1048,-61.6264"/>
<g id="a_edge5&#45;headlabel"><a xlink:href="dir_000061_000076.html" target="_top" xlink:title="70">
<text text-anchor="middle" x="199.5032" y="-55.3562" font-family="Helvetica,sans-Serif" font-size="10.00" fill="#000000">70</text>
</a>
</g>
</g>
<!-- dir_7e732ae97f4f941436b6909b27d4da36&#45;&gt;dir_4ab6b4cc6a7edbff49100e9123df213f -->
<g id="edge6" class="edge">
<title>dir_7e732ae97f4f941436b6909b27d4da36&#45;&gt;dir_4ab6b4cc6a7edbff49100e9123df213f</title>
<path fill="none" stroke="#000000" d="M124.2977,-290.0209C140.8413,-280.3368 162.2266,-267.8186 180.5844,-257.0725"/>
<polygon fill="#000000" stroke="#000000" points="182.4568,-260.0321 189.3188,-251.9597 178.9205,-253.991 182.4568,-260.0321"/>
<g id="a_edge6&#45;headlabel"><a xlink:href="dir_000167_000027.html" target="_top" xlink:title="4">
<text text-anchor="middle" x="180.7889" y="-261.7983" font-family="Helvetica,sans-Serif" font-size="10.00" fill="#000000">4</text>
</a>
</g>
</g>
<!-- dir_7e732ae97f4f941436b6909b27d4da36&#45;&gt;dir_85bf31a2e8d306e7598ffcb73f8df6bf -->
<g id="edge7" class="edge">
<title>dir_7e732ae97f4f941436b6909b27d4da36&#45;&gt;dir_85bf31a2e8d306e7598ffcb73f8df6bf</title>
<path fill="none" stroke="#000000" d="M96.1595,-287.9695C95.5996,-269.7271 95.5078,-240.7611 99,-216 108.4819,-148.77 112.9305,-128.8826 150,-72 156.456,-62.0934 164.7241,-52.227 172.6225,-43.6904"/>
<polygon fill="#000000" stroke="#000000" points="175.3394,-45.913 179.7096,-36.2615 170.2745,-41.0811 175.3394,-45.913"/>
<g id="a_edge7&#45;headlabel"><a xlink:href="dir_000167_000061.html" target="_top" xlink:title="7">
<text text-anchor="middle" x="174.9126" y="-47.9737" font-family="Helvetica,sans-Serif" font-size="10.00" fill="#000000">7</text>
</a>
</g>
</g>
<!-- dir_7e732ae97f4f941436b6909b27d4da36&#45;&gt;dir_2171f7ec022c5423887b07c69b2f5b48 -->
<g id="edge8" class="edge">
<title>dir_7e732ae97f4f941436b6909b27d4da36&#45;&gt;dir_2171f7ec022c5423887b07c69b2f5b48</title>
<path fill="none" stroke="#000000" d="M98.1365,-287.6419C100.8166,-256.1148 109.6294,-190.5828 138,-144 144.6673,-133.0528 154.2585,-123.089 163.868,-114.7844"/>
<polygon fill="#000000" stroke="#000000" points="166.3675,-117.2611 171.8804,-108.2135 161.9286,-111.8484 166.3675,-117.2611"/>
<g id="a_edge8&#45;headlabel"><a xlink:href="dir_000167_000076.html" target="_top" xlink:title="1">
<text text-anchor="middle" x="165.3884" y="-119.2359" font-family="Helvetica,sans-Serif" font-size="10.00" fill="#000000">1</text>
</a>
</g>
</g>
<!-- dir_b26747058ac65f3a8006ba5e683c03be&#45;&gt;dir_4ab6b4cc6a7edbff49100e9123df213f -->
<g id="edge9" class="edge">
<title>dir_b26747058ac65f3a8006ba5e683c03be&#45;&gt;dir_4ab6b4cc6a7edbff49100e9123df213f</title>
<path fill="none" stroke="#000000" d="M160.6122,-359.7623C172.3639,-334.8764 193.5167,-290.0822 207.1478,-261.2165"/>
<polygon fill="#000000" stroke="#000000" points="210.3524,-262.6267 211.4577,-252.0896 204.0227,-259.6376 210.3524,-262.6267"/>
<g id="a_edge9&#45;headlabel"><a xlink:href="dir_000112_000027.html" target="_top" xlink:title="5">
<text text-anchor="middle" x="211.385" y="-264.5894" font-family="Helvetica,sans-Serif" font-size="10.00" fill="#000000">5</text>
</a>
</g>
</g>
<!-- dir_b26747058ac65f3a8006ba5e683c03be&#45;&gt;dir_85bf31a2e8d306e7598ffcb73f8df6bf -->
<g id="edge10" class="edge">
<title>dir_b26747058ac65f3a8006ba5e683c03be&#45;&gt;dir_85bf31a2e8d306e7598ffcb73f8df6bf</title>
<path fill="none" stroke="#000000" d="M179.2216,-366.9376C238.502,-341.9893 374,-279.9397 374,-234 374,-234 374,-234 374,-162 374,-92.1396 289.8155,-49.915 238.224,-30.5976"/>
<polygon fill="#000000" stroke="#000000" points="239.2806,-27.2579 228.6864,-27.1468 236.899,-33.8403 239.2806,-27.2579"/>
<g id="a_edge10&#45;headlabel"><a xlink:href="dir_000112_000061.html" target="_top" xlink:title="1">
<text text-anchor="middle" x="243.6268" y="-23.3109" font-family="Helvetica,sans-Serif" font-size="10.00" fill="#000000">1</text>
</a>
</g>
</g>
<!-- dir_b26747058ac65f3a8006ba5e683c03be&#45;&gt;dir_7e732ae97f4f941436b6909b27d4da36 -->
<g id="edge11" class="edge">
<title>dir_b26747058ac65f3a8006ba5e683c03be&#45;&gt;dir_7e732ae97f4f941436b6909b27d4da36</title>
<path fill="none" stroke="#000000" d="M138.1212,-359.8314C131.7864,-351.5386 124.1616,-341.557 117.2074,-332.4533"/>
<polygon fill="#000000" stroke="#000000" points="119.9175,-330.2353 111.0657,-324.4133 114.3548,-334.4847 119.9175,-330.2353"/>
<g id="a_edge11&#45;headlabel"><a xlink:href="dir_000112_000167.html" target="_top" xlink:title="1">
<text text-anchor="middle" x="124.3558" y="-328.8683" font-family="Helvetica,sans-Serif" font-size="10.00" fill="#000000">1</text>
</a>
</g>
</g>
<!-- dir_b26747058ac65f3a8006ba5e683c03be&#45;&gt;dir_2171f7ec022c5423887b07c69b2f5b48 -->
<g id="edge12" class="edge">
<title>dir_b26747058ac65f3a8006ba5e683c03be&#45;&gt;dir_2171f7ec022c5423887b07c69b2f5b48</title>
<path fill="none" stroke="#000000" d="M154.9401,-359.9843C162.8861,-311.2939 184.8354,-176.7961 194.4212,-118.0573"/>
<polygon fill="#000000" stroke="#000000" points="197.9046,-118.4421 196.0611,-108.0089 190.996,-117.3146 197.9046,-118.4421"/>
<g id="a_edge12&#45;headlabel"><a xlink:href="dir_000112_000076.html" target="_top" xlink:title="11">
<text text-anchor="middle" x="200.128" y="-119.947" font-family="Helvetica,sans-Serif" font-size="10.00" fill="#000000">11</text>
</a>
</g>
</g>
<!-- dir_bcbb2cf9a3d3d83e5515c82071a07177&#45;&gt;dir_4ab6b4cc6a7edbff49100e9123df213f -->
<g id="edge19" class="edge">
<title>dir_bcbb2cf9a3d3d83e5515c82071a07177&#45;&gt;dir_4ab6b4cc6a7edbff49100e9123df213f</title>
<path fill="none" stroke="#000000" d="M264.6775,-180.4133C259.4607,-188.7389 252.4281,-198.7282 245.4337,-207.8144"/>
<polygon fill="#000000" stroke="#000000" points="242.5469,-205.8218 239.0742,-215.8314 248.031,-210.1721 242.5469,-205.8218"/>
<g id="a_edge19&#45;headlabel"><a xlink:href="dir_000013_000027.html" target="_top" xlink:title="8">
<text text-anchor="middle" x="242.5564" y="-198.7412" font-family="Helvetica,sans-Serif" font-size="10.00" fill="#000000">8</text>
</a>
</g>
</g>
<!-- dir_bcbb2cf9a3d3d83e5515c82071a07177&#45;&gt;dir_2171f7ec022c5423887b07c69b2f5b48 -->
<g id="edge20" class="edge">
<title>dir_bcbb2cf9a3d3d83e5515c82071a07177&#45;&gt;dir_2171f7ec022c5423887b07c69b2f5b48</title>
<path fill="none" stroke="#000000" d="M247.6266,-143.8314C238.2225,-135.3694 227.6749,-125.1489 218.7488,-115.8971"/>
<polygon fill="#000000" stroke="#000000" points="221.0996,-113.2884 211.693,-108.4133 216.0063,-118.0904 221.0996,-113.2884"/>
<g id="a_edge20&#45;headlabel"><a xlink:href="dir_000013_000076.html" target="_top" xlink:title="82">
<text text-anchor="middle" x="225.6313" y="-111.4561" font-family="Helvetica,sans-Serif" font-size="10.00" fill="#000000">82</text>
</a>
</g>
</g>
<!-- dir_2171f7ec022c5423887b07c69b2f5b48&#45;&gt;dir_4ab6b4cc6a7edbff49100e9123df213f -->
<g id="edge21" class="edge">
<title>dir_2171f7ec022c5423887b07c69b2f5b48&#45;&gt;dir_4ab6b4cc6a7edbff49100e9123df213f</title>
<path fill="none" stroke="#000000" d="M206.2964,-108.0896C212.3354,-132.5727 219.0276,-176.5174 221.3485,-205.4713"/>
<polygon fill="#000000" stroke="#000000" points="217.8758,-206.0088 222.0135,-215.7623 224.8613,-205.5574 217.8758,-206.0088"/>
<g id="a_edge21&#45;headlabel"><a xlink:href="dir_000076_000027.html" target="_top" xlink:title="35">
<text text-anchor="middle" x="214.8108" y="-200.1048" font-family="Helvetica,sans-Serif" font-size="10.00" fill="#000000">35</text>
</a>
</g>
</g>
<!-- dir_2171f7ec022c5423887b07c69b2f5b48&#45;&gt;dir_85bf31a2e8d306e7598ffcb73f8df6bf -->
<g id="edge22" class="edge">
<title>dir_2171f7ec022c5423887b07c69b2f5b48&#45;&gt;dir_85bf31a2e8d306e7598ffcb73f8df6bf</title>
<path fill="none" stroke="#000000" d="M193.0476,-71.8314C192.2972,-64.131 192.0763,-54.9743 192.3849,-46.4166"/>
<polygon fill="#000000" stroke="#000000" points="195.8792,-46.6161 193.024,-36.4133 188.8935,-46.1697 195.8792,-46.6161"/>
<g id="a_edge22&#45;headlabel"><a xlink:href="dir_000076_000061.html" target="_top" xlink:title="1">
<text text-anchor="middle" x="198.4836" y="-47.8844" font-family="Helvetica,sans-Serif" font-size="10.00" fill="#000000">1</text>
</a>
</g>
</g>
<!-- dir_2171f7ec022c5423887b07c69b2f5b48&#45;&gt;dir_bcbb2cf9a3d3d83e5515c82071a07177 -->
<g id="edge23" class="edge">
<title>dir_2171f7ec022c5423887b07c69b2f5b48&#45;&gt;dir_bcbb2cf9a3d3d83e5515c82071a07177</title>
<path fill="none" stroke="#000000" d="M223.3669,-108.1628C232.8429,-116.6891 243.4806,-127.0016 252.4508,-136.3099"/>
<polygon fill="#000000" stroke="#000000" points="250.1285,-138.9492 259.5314,-143.8314 255.2254,-134.151 250.1285,-138.9492"/>
<g id="a_edge23&#45;headlabel"><a xlink:href="dir_000076_000013.html" target="_top" xlink:title="11">
<text text-anchor="middle" x="245.5973" y="-135.778" font-family="Helvetica,sans-Serif" font-size="10.00" fill="#000000">11</text>
</a>
</g>
</g>
</g>
</svg>
        <g id="navigator" transform="translate(0 0)" fill="#404254">
                <rect fill="#f2f5e9" fill-opacity="0.5" stroke="#606060" stroke-width=".5" x="0" y="0" width="60" height="60"/>
                <use id="zoomplus" xlink:href="#zoomPlus" x="17" y="9" onmousedown="handleZoom(evt,'in')"/>
                <use id="zoomminus" xlink:href="#zoomMin" x="42" y="9" onmousedown="handleZoom(evt,'out')"/>
                <use id="reset" xlink:href="#resetDef" x="30" y="36" onmousedown="handleReset()"/>
                <g id="arrowUp" xlink:href="#dirArrow" transform="translate(30 24)" onmousedown="handlePan(0,-1)">
                  <use xlink:href="#rim" fill="#404040">
                        <set attributeName="fill" to="#808080" begin="arrowUp.mouseover" end="arrowUp.mouseout"/>
                  </use>
                  <path fill="none" stroke="white" stroke-width="1.5" d="M0,-3.0v7 M-2.5,-0.5L0,-3.0L2.5,-0.5"/>
                </g>
                <g id="arrowRight" xlink:href="#dirArrow" transform="rotate(90) translate(36 -43)" onmousedown="handlePan(1,0)">
                  <use xlink:href="#rim" fill="#404040">
                        <set attributeName="fill" to="#808080" begin="arrowRight.mouseover" end="arrowRight.mouseout"/>
                  </use>
                  <path fill="none" stroke="white" stroke-width="1.5" d="M0,-3.0v7 M-2.5,-0.5L0,-3.0L2.5,-0.5"/>
                </g>
                <g id="arrowDown" xlink:href="#dirArrow" transform="rotate(180) translate(-30 -48)" onmousedown="handlePan(0,1)">
                  <use xlink:href="#rim" fill="#404040">
                        <set attributeName="fill" to="#808080" begin="arrowDown.mouseover" end="arrowDown.mouseout"/>
                  </use>
                  <path fill="none" stroke="white" stroke-width="1.5" d="M0,-3.0v7 M-2.5,-0.5L0,-3.0L2.5,-0.5"/>
                </g>
                <g id="arrowLeft" xlink:href="#dirArrow" transform="rotate(270) translate(-36 17)" onmousedown="handlePan(-1,0)">
                  <use xlink:href="#rim" fill="#404040">
                        <set attributeName="fill" to="#808080" begin="arrowLeft.mouseover" end="arrowLeft.mouseout"/>
                  </use>
                  <path fill="none" stroke="white" stroke-width="1.5" d="M0,-3.0v7 M-2.5,-0.5L0,-3.0L2.5,-0.5"/>
                </g>
        </g>
        <svg viewBox="0 0 15 15" width="100%" height="30px" preserveAspectRatio="xMaxYMin meet">
         <g id="arrow_out" transform="scale(0.3 0.3)">
          <a xlink:href="dir_119633d0a87109267c245d44b982fe38_dep_org.svg" target="_base">
           <rect id="button" ry="5" rx="5" y="6" x="6" height="38" width="38"
                fill="#f2f5e9" fill-opacity="0.5" stroke="#606060" stroke-width="1.0"/>
           <path id="arrow"
             d="M 11.500037,31.436501 C 11.940474,20.09759 22.043105,11.32322 32.158766,21.979434 L 37.068811,17.246167 C 37.068811,17.246167 37.088388,32 37.088388,32 L 22.160133,31.978069 C 22.160133,31.978069 26.997745,27.140456 26.997745,27.140456 C 18.528582,18.264221 13.291696,25.230495 11.500037,31.436501 z"
             style="fill:#404040;"/>
          </a>
         </g>
        </svg>
</svg>
