<?xml version="1.0" encoding="UTF-8" standalone="no"?>
<!DOCTYPE svg PUBLIC "-//W3C//DTD SVG 1.1//EN"
 "http://www.w3.org/Graphics/SVG/1.1/DTD/svg11.dtd">
<!-- Generated by graphviz version 2.40.1 (20161225.0304)
 -->
<!-- Title: /home/travis/build/AliceO2Group/AliceO2/Detectors/ITSMFT/ITS/simulation/src Pages: 1 -->
<!--zoomable 583 -->
<svg id="main" version="1.1" xmlns="http://www.w3.org/2000/svg" xmlns:xlink="http://www.w3.org/1999/xlink" xml:space="preserve" onload="init(evt)">
<style type="text/css"><![CDATA[
.edge:hover path { stroke: red; }
.edge:hover polygon { stroke: red; fill: red; }
]]></style>
<script type="text/javascript"><![CDATA[
var edges = document.getElementsByTagName('g');
if (edges && edges.length) {
  for (var i=0;i<edges.length;i++) {
    if (edges[i].id.substr(0,4)=='edge') {
      edges[i].setAttribute('class','edge');
    }
  }
}
]]></script>
        <defs>
                <circle id="rim" cx="0" cy="0" r="7"/>
                <circle id="rim2" cx="0" cy="0" r="3.5"/>
                <g id="zoomPlus">
                        <use xlink:href="#rim" fill="#404040">
                                <set attributeName="fill" to="#808080" begin="zoomplus.mouseover" end="zoomplus.mouseout"/>
                        </use>
                        <path d="M-4,0h8M0,-4v8" fill="none" stroke="white" stroke-width="1.5" pointer-events="none"/>
                </g>
                <g id="zoomMin">
                        <use xlink:href="#rim" fill="#404040">
                                <set attributeName="fill" to="#808080" begin="zoomminus.mouseover" end="zoomminus.mouseout"/>
                        </use>
                        <path d="M-4,0h8" fill="none" stroke="white" stroke-width="1.5" pointer-events="none"/>
                </g>
                <g id="dirArrow">
                        <path fill="none" stroke="white" stroke-width="1.5" d="M0,-3.0v7 M-2.5,-0.5L0,-3.0L2.5,-0.5"/>
                </g>
               <g id="resetDef">
                       <use xlink:href="#rim2" fill="#404040">
                               <set attributeName="fill" to="#808080" begin="reset.mouseover" end="reset.mouseout"/>
                       </use>
               </g>
        </defs>

<script type="text/javascript">
var viewWidth = 496;
var viewHeight = 583;
var sectionId = 'dynsection-0';
</script>
<script xlink:href="svgpan.js"/>
<svg id="graph" class="graph">
<g id="viewport">
<title>/home/travis/build/AliceO2Group/AliceO2/Detectors/ITSMFT/ITS/simulation/src</title>
<g id="clust1" class="cluster">
<title>clusterdir_e6f6998399f381fa585023934f76a907</title>
<g id="a_clust1"><a xlink:href="dir_e6f6998399f381fa585023934f76a907.html" target="_top" xlink:title="simulation">
<polygon fill="#ddddee" stroke="#000000" points="219,-496 219,-567 289,-567 289,-496 219,-496"/>
<text text-anchor="middle" x="254" y="-555" font-family="Helvetica,sans-Serif" font-size="10.00" fill="#000000">simulation</text>
</a>
</g>
</g>
<!-- dir_0355333a068ab019f0e92698f15a77e4 -->
<g id="node1" class="node">
<title>dir_0355333a068ab019f0e92698f15a77e4</title>
<g id="a_node1"><a xlink:href="dir_0355333a068ab019f0e92698f15a77e4.html" target="_top" xlink:title="src">
<polygon fill="#eeeeff" stroke="#000000" points="281,-540 227,-540 227,-504 281,-504 281,-540"/>
<text text-anchor="middle" x="254" y="-519.5" font-family="Helvetica,sans-Serif" font-size="10.00" fill="#000000">src</text>
</a>
</g>
</g>
<!-- dir_eedff867f3c4e67d20b227cb6e0f96ab -->
<g id="node2" class="node">
<title>dir_eedff867f3c4e67d20b227cb6e0f96ab</title>
<g id="a_node2"><a xlink:href="dir_eedff867f3c4e67d20b227cb6e0f96ab.html" target="_top" xlink:title="base">
<polygon fill="none" stroke="#ff0000" points="336,-468 282,-468 282,-432 336,-432 336,-468"/>
<text text-anchor="middle" x="309" y="-447.5" font-family="Helvetica,sans-Serif" font-size="10.00" fill="#000000">base</text>
</a>
</g>
</g>
<!-- dir_0355333a068ab019f0e92698f15a77e4&#45;&gt;dir_eedff867f3c4e67d20b227cb6e0f96ab -->
<g id="edge1" class="edge">
<title>dir_0355333a068ab019f0e92698f15a77e4&#45;&gt;dir_eedff867f3c4e67d20b227cb6e0f96ab</title>
<path fill="none" stroke="#000000" d="M267.8788,-503.8314C274.2136,-495.5386 281.8384,-485.557 288.7926,-476.4533"/>
<polygon fill="#000000" stroke="#000000" points="291.6452,-478.4847 294.9343,-468.4133 286.0825,-474.2353 291.6452,-478.4847"/>
<g id="a_edge1&#45;headlabel"><a xlink:href="dir_000324_000479.html" target="_top" xlink:title="4">
<text text-anchor="middle" x="291.7195" y="-480.5647" font-family="Helvetica,sans-Serif" font-size="10.00" fill="#000000">4</text>
</a>
</g>
</g>
<!-- dir_4ab6b4cc6a7edbff49100e9123df213f -->
<g id="node3" class="node">
<title>dir_4ab6b4cc6a7edbff49100e9123df213f</title>
<g id="a_node3"><a xlink:href="dir_4ab6b4cc6a7edbff49100e9123df213f.html" target="_top" xlink:title="Common">
<polygon fill="none" stroke="#ff0000" points="312.5,-396 251.5,-396 251.5,-360 312.5,-360 312.5,-396"/>
<text text-anchor="middle" x="282" y="-375.5" font-family="Helvetica,sans-Serif" font-size="10.00" fill="#000000">Common</text>
</a>
</g>
</g>
<!-- dir_0355333a068ab019f0e92698f15a77e4&#45;&gt;dir_4ab6b4cc6a7edbff49100e9123df213f -->
<g id="edge2" class="edge">
<title>dir_0355333a068ab019f0e92698f15a77e4&#45;&gt;dir_4ab6b4cc6a7edbff49100e9123df213f</title>
<path fill="none" stroke="#000000" d="M257.5462,-503.7623C262.3431,-479.0928 270.9439,-434.8598 276.5608,-405.9731"/>
<polygon fill="#000000" stroke="#000000" points="280.0095,-406.5738 278.4826,-396.0896 273.1381,-405.2377 280.0095,-406.5738"/>
<g id="a_edge2&#45;headlabel"><a xlink:href="dir_000324_000027.html" target="_top" xlink:title="2">
<text text-anchor="middle" x="282.1105" y="-408.1443" font-family="Helvetica,sans-Serif" font-size="10.00" fill="#000000">2</text>
</a>
</g>
</g>
<!-- dir_85bf31a2e8d306e7598ffcb73f8df6bf -->
<g id="node4" class="node">
<title>dir_85bf31a2e8d306e7598ffcb73f8df6bf</title>
<g id="a_node4"><a xlink:href="dir_85bf31a2e8d306e7598ffcb73f8df6bf.html" target="_top" xlink:title="common">
<polygon fill="none" stroke="#ff0000" points="182.5,-108 123.5,-108 123.5,-72 182.5,-72 182.5,-108"/>
<text text-anchor="middle" x="153" y="-87.5" font-family="Helvetica,sans-Serif" font-size="10.00" fill="#000000">common</text>
</a>
</g>
</g>
<!-- dir_0355333a068ab019f0e92698f15a77e4&#45;&gt;dir_85bf31a2e8d306e7598ffcb73f8df6bf -->
<g id="edge3" class="edge">
<title>dir_0355333a068ab019f0e92698f15a77e4&#45;&gt;dir_85bf31a2e8d306e7598ffcb73f8df6bf</title>
<path fill="none" stroke="#000000" d="M226.8176,-519.3894C161.2925,-511.4515 0,-481.4094 0,-378 0,-378 0,-378 0,-234 0,-188.0242 18.0278,-176.0408 51,-144 68.8633,-126.6413 93.4299,-113.4078 113.9773,-104.3864"/>
<polygon fill="#000000" stroke="#000000" points="115.5389,-107.5265 123.3946,-100.4176 112.8203,-101.076 115.5389,-107.5265"/>
<g id="a_edge3&#45;headlabel"><a xlink:href="dir_000324_000061.html" target="_top" xlink:title="8">
<text text-anchor="middle" x="113.3291" y="-109.0389" font-family="Helvetica,sans-Serif" font-size="10.00" fill="#000000">8</text>
</a>
</g>
</g>
<!-- dir_703936e7bdda211beb61e967f1c6d8f5 -->
<g id="node5" class="node">
<title>dir_703936e7bdda211beb61e967f1c6d8f5</title>
<g id="a_node5"><a xlink:href="dir_703936e7bdda211beb61e967f1c6d8f5.html" target="_top" xlink:title="include">
<polygon fill="none" stroke="#ff0000" points="158,-252 104,-252 104,-216 158,-216 158,-252"/>
<text text-anchor="middle" x="131" y="-231.5" font-family="Helvetica,sans-Serif" font-size="10.00" fill="#000000">include</text>
</a>
</g>
</g>
<!-- dir_0355333a068ab019f0e92698f15a77e4&#45;&gt;dir_703936e7bdda211beb61e967f1c6d8f5 -->
<g id="edge4" class="edge">
<title>dir_0355333a068ab019f0e92698f15a77e4&#45;&gt;dir_703936e7bdda211beb61e967f1c6d8f5</title>
<path fill="none" stroke="#000000" d="M246.3058,-503.9843C225.4247,-455.0919 167.5919,-319.6785 142.6722,-261.33"/>
<polygon fill="#000000" stroke="#000000" points="145.8377,-259.8306 138.6913,-252.0089 139.4002,-262.58 145.8377,-259.8306"/>
<g id="a_edge4&#45;headlabel"><a xlink:href="dir_000324_000294.html" target="_top" xlink:title="11">
<text text-anchor="middle" x="149.8606" y="-259.5212" font-family="Helvetica,sans-Serif" font-size="10.00" fill="#000000">11</text>
</a>
</g>
</g>
<!-- dir_bcbb2cf9a3d3d83e5515c82071a07177 -->
<g id="node6" class="node">
<title>dir_bcbb2cf9a3d3d83e5515c82071a07177</title>
<g id="a_node6"><a xlink:href="dir_bcbb2cf9a3d3d83e5515c82071a07177.html" target="_top" xlink:title="Framework">
<polygon fill="none" stroke="#ff0000" points="251.5,-324 180.5,-324 180.5,-288 251.5,-288 251.5,-324"/>
<text text-anchor="middle" x="216" y="-303.5" font-family="Helvetica,sans-Serif" font-size="10.00" fill="#000000">Framework</text>
</a>
</g>
</g>
<!-- dir_0355333a068ab019f0e92698f15a77e4&#45;&gt;dir_bcbb2cf9a3d3d83e5515c82071a07177 -->
<g id="edge5" class="edge">
<title>dir_0355333a068ab019f0e92698f15a77e4&#45;&gt;dir_bcbb2cf9a3d3d83e5515c82071a07177</title>
<path fill="none" stroke="#000000" d="M250.8255,-503.9555C244.2035,-466.3144 228.8754,-379.1867 220.9478,-334.1246"/>
<polygon fill="#000000" stroke="#000000" points="224.372,-333.3874 219.1922,-324.1451 217.4779,-334.6003 224.372,-333.3874"/>
<g id="a_edge5&#45;headlabel"><a xlink:href="dir_000324_000013.html" target="_top" xlink:title="1">
<text text-anchor="middle" x="227.7911" y="-333.9357" font-family="Helvetica,sans-Serif" font-size="10.00" fill="#000000">1</text>
</a>
</g>
</g>
<!-- dir_26637d1bd82229bc9ed97f7e706be743 -->
<g id="node7" class="node">
<title>dir_26637d1bd82229bc9ed97f7e706be743</title>
<g id="a_node7"><a xlink:href="dir_26637d1bd82229bc9ed97f7e706be743.html" target="_top" xlink:title="Raw">
<polygon fill="none" stroke="#ff0000" points="319,-36 265,-36 265,0 319,0 319,-36"/>
<text text-anchor="middle" x="292" y="-15.5" font-family="Helvetica,sans-Serif" font-size="10.00" fill="#000000">Raw</text>
</a>
</g>
</g>
<!-- dir_0355333a068ab019f0e92698f15a77e4&#45;&gt;dir_26637d1bd82229bc9ed97f7e706be743 -->
<g id="edge6" class="edge">
<title>dir_0355333a068ab019f0e92698f15a77e4&#45;&gt;dir_26637d1bd82229bc9ed97f7e706be743</title>
<path fill="none" stroke="#000000" d="M281.3007,-518.2684C343.0274,-508.139 488,-474.1176 488,-378 488,-378 488,-378 488,-162 488,-83.928 385.7549,-43.5136 328.9597,-27.0867"/>
<polygon fill="#000000" stroke="#000000" points="329.8253,-23.6946 319.253,-24.3842 327.9478,-30.4381 329.8253,-23.6946"/>
<g id="a_edge6&#45;headlabel"><a xlink:href="dir_000324_000576.html" target="_top" xlink:title="1">
<text text-anchor="middle" x="334.0497" y="-19.4234" font-family="Helvetica,sans-Serif" font-size="10.00" fill="#000000">1</text>
</a>
</g>
</g>
<!-- dir_2171f7ec022c5423887b07c69b2f5b48 -->
<g id="node8" class="node">
<title>dir_2171f7ec022c5423887b07c69b2f5b48</title>
<g id="a_node8"><a xlink:href="dir_2171f7ec022c5423887b07c69b2f5b48.html" target="_top" xlink:title="DataFormats">
<polygon fill="none" stroke="#ff0000" points="332,-180 252,-180 252,-144 332,-144 332,-180"/>
<text text-anchor="middle" x="292" y="-159.5" font-family="Helvetica,sans-Serif" font-size="10.00" fill="#000000">DataFormats</text>
</a>
</g>
</g>
<!-- dir_0355333a068ab019f0e92698f15a77e4&#45;&gt;dir_2171f7ec022c5423887b07c69b2f5b48 -->
<g id="edge7" class="edge">
<title>dir_0355333a068ab019f0e92698f15a77e4&#45;&gt;dir_2171f7ec022c5423887b07c69b2f5b48</title>
<path fill="none" stroke="#000000" d="M281.1612,-511.8369C326.3357,-492.9665 412,-447.9595 412,-378 412,-378 412,-378 412,-306 412,-254.2495 365.6955,-211.2268 330.6138,-186.0578"/>
<polygon fill="#000000" stroke="#000000" points="332.1801,-182.884 321.9715,-180.0492 328.1841,-188.6314 332.1801,-182.884"/>
<g id="a_edge7&#45;headlabel"><a xlink:href="dir_000324_000076.html" target="_top" xlink:title="7">
<text text-anchor="middle" x="336.7522" y="-180.1048" font-family="Helvetica,sans-Serif" font-size="10.00" fill="#000000">7</text>
</a>
</g>
</g>
<!-- dir_eedff867f3c4e67d20b227cb6e0f96ab&#45;&gt;dir_4ab6b4cc6a7edbff49100e9123df213f -->
<g id="edge8" class="edge">
<title>dir_eedff867f3c4e67d20b227cb6e0f96ab&#45;&gt;dir_4ab6b4cc6a7edbff49100e9123df213f</title>
<path fill="none" stroke="#000000" d="M302.1868,-431.8314C299.2356,-423.9617 295.7142,-414.5712 292.445,-405.8533"/>
<polygon fill="#000000" stroke="#000000" points="295.6934,-404.5476 288.905,-396.4133 289.1391,-407.0055 295.6934,-404.5476"/>
<g id="a_edge8&#45;headlabel"><a xlink:href="dir_000479_000027.html" target="_top" xlink:title="2">
<text text-anchor="middle" x="299.614" y="-404.4164" font-family="Helvetica,sans-Serif" font-size="10.00" fill="#000000">2</text>
</a>
</g>
</g>
<!-- dir_eedff867f3c4e67d20b227cb6e0f96ab&#45;&gt;dir_85bf31a2e8d306e7598ffcb73f8df6bf -->
<g id="edge9" class="edge">
<title>dir_eedff867f3c4e67d20b227cb6e0f96ab&#45;&gt;dir_85bf31a2e8d306e7598ffcb73f8df6bf</title>
<path fill="none" stroke="#000000" d="M281.7747,-448.2042C213.0528,-442.0514 38,-415.62 38,-306 38,-306 38,-306 38,-234 38,-182.9747 82.6328,-139.6374 116.2872,-114.2126"/>
<polygon fill="#000000" stroke="#000000" points="118.5757,-116.8748 124.573,-108.1409 114.4381,-111.2285 118.5757,-116.8748"/>
<g id="a_edge9&#45;headlabel"><a xlink:href="dir_000479_000061.html" target="_top" xlink:title="2">
<text text-anchor="middle" x="117.3544" y="-118.7897" font-family="Helvetica,sans-Serif" font-size="10.00" fill="#000000">2</text>
</a>
</g>
</g>
<!-- dir_eedff867f3c4e67d20b227cb6e0f96ab&#45;&gt;dir_2171f7ec022c5423887b07c69b2f5b48 -->
<g id="edge10" class="edge">
<title>dir_eedff867f3c4e67d20b227cb6e0f96ab&#45;&gt;dir_2171f7ec022c5423887b07c69b2f5b48</title>
<path fill="none" stroke="#000000" d="M314.1191,-431.6727C316.752,-421.2978 319.6796,-408.0284 321,-396 326.4615,-346.2474 320.8904,-258.0071 312,-216 310.1254,-207.1424 307.0742,-197.7938 303.9134,-189.4101"/>
<polygon fill="#000000" stroke="#000000" points="307.1597,-188.1016 300.2166,-180.0989 300.6538,-190.6847 307.1597,-188.1016"/>
<g id="a_edge10&#45;headlabel"><a xlink:href="dir_000479_000076.html" target="_top" xlink:title="1">
<text text-anchor="middle" x="311.125" y="-187.8949" font-family="Helvetica,sans-Serif" font-size="10.00" fill="#000000">1</text>
</a>
</g>
</g>
<!-- dir_4ab6b4cc6a7edbff49100e9123df213f&#45;&gt;dir_bcbb2cf9a3d3d83e5515c82071a07177 -->
<g id="edge11" class="edge">
<title>dir_4ab6b4cc6a7edbff49100e9123df213f&#45;&gt;dir_bcbb2cf9a3d3d83e5515c82071a07177</title>
<path fill="none" stroke="#000000" d="M259.393,-359.8314C250.8974,-351.454 241.4486,-341.3531 233.4723,-332.1749"/>
<polygon fill="#000000" stroke="#000000" points="236.0349,-329.785 226.9028,-324.4133 230.6918,-334.3074 236.0349,-329.785"/>
<g id="a_edge11&#45;headlabel"><a xlink:href="dir_000027_000013.html" target="_top" xlink:title="2">
<text text-anchor="middle" x="240.5244" y="-328.1945" font-family="Helvetica,sans-Serif" font-size="10.00" fill="#000000">2</text>
</a>
</g>
</g>
<!-- dir_4ab6b4cc6a7edbff49100e9123df213f&#45;&gt;dir_2171f7ec022c5423887b07c69b2f5b48 -->
<g id="edge12" class="edge">
<title>dir_4ab6b4cc6a7edbff49100e9123df213f&#45;&gt;dir_2171f7ec022c5423887b07c69b2f5b48</title>
<path fill="none" stroke="#000000" d="M278.8895,-359.9555C277.1737,-322.3144 280.9481,-235.1867 285.9741,-190.1246"/>
<polygon fill="#000000" stroke="#000000" points="289.4544,-190.4983 287.2048,-180.1451 282.5071,-189.6414 289.4544,-190.4983"/>
<g id="a_edge12&#45;headlabel"><a xlink:href="dir_000027_000076.html" target="_top" xlink:title="2">
<text text-anchor="middle" x="291.8324" y="-191.9134" font-family="Helvetica,sans-Serif" font-size="10.00" fill="#000000">2</text>
</a>
</g>
</g>
<!-- dir_85bf31a2e8d306e7598ffcb73f8df6bf&#45;&gt;dir_4ab6b4cc6a7edbff49100e9123df213f -->
<g id="edge13" class="edge">
<title>dir_85bf31a2e8d306e7598ffcb73f8df6bf&#45;&gt;dir_4ab6b4cc6a7edbff49100e9123df213f</title>
<path fill="none" stroke="#000000" d="M137.4373,-108.2642C113.6111,-138.5674 73.0449,-200.9573 95,-252 121.2828,-313.104 195.0561,-348.6024 241.7,-365.5672"/>
<polygon fill="#000000" stroke="#000000" points="240.6199,-368.8974 251.2147,-368.9085 242.9393,-362.2928 240.6199,-368.8974"/>
<g id="a_edge13&#45;headlabel"><a xlink:href="dir_000061_000027.html" target="_top" xlink:title="21">
<text text-anchor="middle" x="236.2876" y="-367.8853" font-family="Helvetica,sans-Serif" font-size="10.00" fill="#000000">21</text>
</a>
</g>
</g>
<!-- dir_85bf31a2e8d306e7598ffcb73f8df6bf&#45;&gt;dir_bcbb2cf9a3d3d83e5515c82071a07177 -->
<g id="edge14" class="edge">
<title>dir_85bf31a2e8d306e7598ffcb73f8df6bf&#45;&gt;dir_bcbb2cf9a3d3d83e5515c82071a07177</title>
<path fill="none" stroke="#000000" d="M158.2923,-108.1451C169.3198,-145.9537 194.8181,-233.3762 207.9149,-278.2797"/>
<polygon fill="#000000" stroke="#000000" points="204.5769,-279.3355 210.737,-287.9555 211.2969,-277.3755 204.5769,-279.3355"/>
<g id="a_edge14&#45;headlabel"><a xlink:href="dir_000061_000013.html" target="_top" xlink:title="32">
<text text-anchor="middle" x="200.8448" y="-274.1796" font-family="Helvetica,sans-Serif" font-size="10.00" fill="#000000">32</text>
</a>
</g>
</g>
<!-- dir_85bf31a2e8d306e7598ffcb73f8df6bf&#45;&gt;dir_26637d1bd82229bc9ed97f7e706be743 -->
<g id="edge15" class="edge">
<title>dir_85bf31a2e8d306e7598ffcb73f8df6bf&#45;&gt;dir_26637d1bd82229bc9ed97f7e706be743</title>
<path fill="none" stroke="#000000" d="M182.819,-74.5542C204.1328,-63.5139 232.9344,-48.5951 255.6045,-36.8524"/>
<polygon fill="#000000" stroke="#000000" points="257.3203,-39.9053 264.5899,-32.198 254.1006,-33.6897 257.3203,-39.9053"/>
<g id="a_edge15&#45;headlabel"><a xlink:href="dir_000061_000576.html" target="_top" xlink:title="7">
<text text-anchor="middle" x="255.4343" y="-41.5797" font-family="Helvetica,sans-Serif" font-size="10.00" fill="#000000">7</text>
</a>
</g>
</g>
<!-- dir_85bf31a2e8d306e7598ffcb73f8df6bf&#45;&gt;dir_2171f7ec022c5423887b07c69b2f5b48 -->
<g id="edge16" class="edge">
<title>dir_85bf31a2e8d306e7598ffcb73f8df6bf&#45;&gt;dir_2171f7ec022c5423887b07c69b2f5b48</title>
<path fill="none" stroke="#000000" d="M182.8434,-102.7168C203.6883,-112.7447 231.5467,-126.9938 253.9568,-139.0091"/>
<polygon fill="#000000" stroke="#000000" points="252.4155,-142.1546 262.8768,-143.8314 255.7445,-135.9968 252.4155,-142.1546"/>
<g id="a_edge16&#45;headlabel"><a xlink:href="dir_000061_000076.html" target="_top" xlink:title="70">
<text text-anchor="middle" x="247.9032" y="-140.4428" font-family="Helvetica,sans-Serif" font-size="10.00" fill="#000000">70</text>
</a>
</g>
</g>
<!-- dir_703936e7bdda211beb61e967f1c6d8f5&#45;&gt;dir_85bf31a2e8d306e7598ffcb73f8df6bf -->
<g id="edge17" class="edge">
<title>dir_703936e7bdda211beb61e967f1c6d8f5&#45;&gt;dir_85bf31a2e8d306e7598ffcb73f8df6bf</title>
<path fill="none" stroke="#000000" d="M133.7863,-215.7623C137.5387,-191.201 144.2539,-147.2474 148.6681,-118.3541"/>
<polygon fill="#000000" stroke="#000000" points="152.1858,-118.5035 150.2363,-108.0896 145.2661,-117.4463 152.1858,-118.5035"/>
<g id="a_edge17&#45;headlabel"><a xlink:href="dir_000294_000061.html" target="_top" xlink:title="1">
<text text-anchor="middle" x="154.4497" y="-119.9857" font-family="Helvetica,sans-Serif" font-size="10.00" fill="#000000">1</text>
</a>
</g>
</g>
<!-- dir_703936e7bdda211beb61e967f1c6d8f5&#45;&gt;dir_2171f7ec022c5423887b07c69b2f5b48 -->
<g id="edge18" class="edge">
<title>dir_703936e7bdda211beb61e967f1c6d8f5&#45;&gt;dir_2171f7ec022c5423887b07c69b2f5b48</title>
<path fill="none" stroke="#000000" d="M158.3115,-221.7862C181.364,-211.477 214.9496,-196.4573 242.6899,-184.0517"/>
<polygon fill="#000000" stroke="#000000" points="244.1499,-187.2329 251.8497,-179.9554 241.2921,-180.8428 244.1499,-187.2329"/>
<g id="a_edge18&#45;headlabel"><a xlink:href="dir_000294_000076.html" target="_top" xlink:title="1">
<text text-anchor="middle" x="242.0275" y="-188.7922" font-family="Helvetica,sans-Serif" font-size="10.00" fill="#000000">1</text>
</a>
</g>
</g>
<!-- dir_bcbb2cf9a3d3d83e5515c82071a07177&#45;&gt;dir_4ab6b4cc6a7edbff49100e9123df213f -->
<g id="edge19" class="edge">
<title>dir_bcbb2cf9a3d3d83e5515c82071a07177&#45;&gt;dir_4ab6b4cc6a7edbff49100e9123df213f</title>
<path fill="none" stroke="#000000" d="M238.6011,-324.1628C247.1616,-332.6038 256.6906,-342.7956 264.706,-352.0303"/>
<polygon fill="#000000" stroke="#000000" points="262.1701,-354.4521 271.2978,-359.8314 267.5169,-349.9341 262.1701,-354.4521"/>
<g id="a_edge19&#45;headlabel"><a xlink:href="dir_000013_000027.html" target="_top" xlink:title="8">
<text text-anchor="middle" x="257.6814" y="-351.039" font-family="Helvetica,sans-Serif" font-size="10.00" fill="#000000">8</text>
</a>
</g>
</g>
<!-- dir_bcbb2cf9a3d3d83e5515c82071a07177&#45;&gt;dir_703936e7bdda211beb61e967f1c6d8f5 -->
<g id="edge20" class="edge">
<title>dir_bcbb2cf9a3d3d83e5515c82071a07177&#45;&gt;dir_703936e7bdda211beb61e967f1c6d8f5</title>
<path fill="none" stroke="#000000" d="M194.5509,-287.8314C184.1822,-279.0485 171.5771,-268.3712 160.3354,-258.8489"/>
<polygon fill="#000000" stroke="#000000" points="162.3349,-255.9556 152.4422,-252.1628 157.8105,-261.297 162.3349,-255.9556"/>
<g id="a_edge20&#45;headlabel"><a xlink:href="dir_000013_000294.html" target="_top" xlink:title="1">
<text text-anchor="middle" x="166.9129" y="-253.6125" font-family="Helvetica,sans-Serif" font-size="10.00" fill="#000000">1</text>
</a>
</g>
</g>
<!-- dir_bcbb2cf9a3d3d83e5515c82071a07177&#45;&gt;dir_2171f7ec022c5423887b07c69b2f5b48 -->
<g id="edge21" class="edge">
<title>dir_bcbb2cf9a3d3d83e5515c82071a07177&#45;&gt;dir_2171f7ec022c5423887b07c69b2f5b48</title>
<path fill="none" stroke="#000000" d="M220.9523,-287.7623C231.6404,-262.7682 255.1901,-217.6924 272.4396,-188.8409"/>
<polygon fill="#000000" stroke="#000000" points="275.5605,-190.4463 277.7944,-180.0896 269.5896,-186.7927 275.5605,-190.4463"/>
<g id="a_edge21&#45;headlabel"><a xlink:href="dir_000013_000076.html" target="_top" xlink:title="82">
<text text-anchor="middle" x="276.1062" y="-192.4943" font-family="Helvetica,sans-Serif" font-size="10.00" fill="#000000">82</text>
</a>
</g>
</g>
<!-- dir_26637d1bd82229bc9ed97f7e706be743&#45;&gt;dir_4ab6b4cc6a7edbff49100e9123df213f -->
<g id="edge22" class="edge">
<title>dir_26637d1bd82229bc9ed97f7e706be743&#45;&gt;dir_4ab6b4cc6a7edbff49100e9123df213f</title>
<path fill="none" stroke="#000000" d="M301.5438,-36.1462C313.5392,-60.077 333.4698,-103.8608 341,-144 355.2201,-219.7998 318.4848,-307.5786 296.7211,-350.9177"/>
<polygon fill="#000000" stroke="#000000" points="293.5298,-349.4703 292.0686,-359.9639 299.7548,-352.6719 293.5298,-349.4703"/>
<g id="a_edge22&#45;headlabel"><a xlink:href="dir_000576_000027.html" target="_top" xlink:title="10">
<text text-anchor="middle" x="292.6489" y="-342.4752" font-family="Helvetica,sans-Serif" font-size="10.00" fill="#000000">10</text>
</a>
</g>
</g>
<!-- dir_26637d1bd82229bc9ed97f7e706be743&#45;&gt;dir_bcbb2cf9a3d3d83e5515c82071a07177 -->
<g id="edge23" class="edge">
<title>dir_26637d1bd82229bc9ed97f7e706be743&#45;&gt;dir_bcbb2cf9a3d3d83e5515c82071a07177</title>
<path fill="none" stroke="#000000" d="M283.4674,-36.3795C272.5653,-60.5625 253.8152,-104.6187 243,-144 230.3818,-189.9466 222.7322,-244.9378 218.9413,-277.5872"/>
<polygon fill="#000000" stroke="#000000" points="215.437,-277.4303 217.8019,-287.7578 222.3935,-278.2096 215.437,-277.4303"/>
<g id="a_edge23&#45;headlabel"><a xlink:href="dir_000576_000013.html" target="_top" xlink:title="25">
<text text-anchor="middle" x="213.0155" y="-271.0419" font-family="Helvetica,sans-Serif" font-size="10.00" fill="#000000">25</text>
</a>
</g>
</g>
<!-- dir_26637d1bd82229bc9ed97f7e706be743&#45;&gt;dir_2171f7ec022c5423887b07c69b2f5b48 -->
<g id="edge24" class="edge">
<title>dir_26637d1bd82229bc9ed97f7e706be743&#45;&gt;dir_2171f7ec022c5423887b07c69b2f5b48</title>
<path fill="none" stroke="#000000" d="M292,-36.0896C292,-60.5727 292,-104.5174 292,-133.4713"/>
<polygon fill="#000000" stroke="#000000" points="288.5001,-133.7623 292,-143.7623 295.5001,-133.7623 288.5001,-133.7623"/>
<g id="a_edge24&#45;headlabel"><a xlink:href="dir_000576_000076.html" target="_top" xlink:title="15">
<text text-anchor="middle" x="285.6607" y="-127.6677" font-family="Helvetica,sans-Serif" font-size="10.00" fill="#000000">15</text>
</a>
</g>
</g>
<!-- dir_2171f7ec022c5423887b07c69b2f5b48&#45;&gt;dir_4ab6b4cc6a7edbff49100e9123df213f -->
<g id="edge25" class="edge">
<title>dir_2171f7ec022c5423887b07c69b2f5b48&#45;&gt;dir_4ab6b4cc6a7edbff49100e9123df213f</title>
<path fill="none" stroke="#000000" d="M295.1151,-180.1451C296.8211,-217.8741 293.0408,-305.0083 288.0125,-349.9956"/>
<polygon fill="#000000" stroke="#000000" points="284.5347,-349.6016 286.7813,-359.9555 291.4818,-350.4604 284.5347,-349.6016"/>
<g id="a_edge25&#45;headlabel"><a xlink:href="dir_000076_000027.html" target="_top" xlink:title="35">
<text text-anchor="middle" x="282.1577" y="-343.1858" font-family="Helvetica,sans-Serif" font-size="10.00" fill="#000000">35</text>
</a>
</g>
</g>
<!-- dir_2171f7ec022c5423887b07c69b2f5b48&#45;&gt;dir_85bf31a2e8d306e7598ffcb73f8df6bf -->
<g id="edge26" class="edge">
<title>dir_2171f7ec022c5423887b07c69b2f5b48&#45;&gt;dir_85bf31a2e8d306e7598ffcb73f8df6bf</title>
<path fill="none" stroke="#000000" d="M251.7247,-144.2022C232.5378,-134.7545 209.776,-123.0369 190.904,-112.9162"/>
<polygon fill="#000000" stroke="#000000" points="192.4459,-109.7711 181.9848,-108.0931 189.1162,-115.9285 192.4459,-109.7711"/>
<g id="a_edge26&#45;headlabel"><a xlink:href="dir_000076_000061.html" target="_top" xlink:title="1">
<text text-anchor="middle" x="196.9583" y="-106.4834" font-family="Helvetica,sans-Serif" font-size="10.00" fill="#000000">1</text>
</a>
</g>
</g>
<!-- dir_2171f7ec022c5423887b07c69b2f5b48&#45;&gt;dir_bcbb2cf9a3d3d83e5515c82071a07177 -->
<g id="edge27" class="edge">
<title>dir_2171f7ec022c5423887b07c69b2f5b48&#45;&gt;dir_bcbb2cf9a3d3d83e5515c82071a07177</title>
<path fill="none" stroke="#000000" d="M287.111,-180.0896C276.4738,-205.0041 252.9372,-250.0722 235.6628,-278.9877"/>
<polygon fill="#000000" stroke="#000000" points="232.5284,-277.4047 230.2986,-287.7623 238.5008,-281.0559 232.5284,-277.4047"/>
<g id="a_edge27&#45;headlabel"><a xlink:href="dir_000076_000013.html" target="_top" xlink:title="11">
<text text-anchor="middle" x="231.9808" y="-270.3569" font-family="Helvetica,sans-Serif" font-size="10.00" fill="#000000">11</text>
</a>
</g>
</g>
</g>
</svg>
        <g id="navigator" transform="translate(0 0)" fill="#404254">
                <rect fill="#f2f5e9" fill-opacity="0.5" stroke="#606060" stroke-width=".5" x="0" y="0" width="60" height="60"/>
                <use id="zoomplus" xlink:href="#zoomPlus" x="17" y="9" onmousedown="handleZoom(evt,'in')"/>
                <use id="zoomminus" xlink:href="#zoomMin" x="42" y="9" onmousedown="handleZoom(evt,'out')"/>
                <use id="reset" xlink:href="#resetDef" x="30" y="36" onmousedown="handleReset()"/>
                <g id="arrowUp" xlink:href="#dirArrow" transform="translate(30 24)" onmousedown="handlePan(0,-1)">
                  <use xlink:href="#rim" fill="#404040">
                        <set attributeName="fill" to="#808080" begin="arrowUp.mouseover" end="arrowUp.mouseout"/>
                  </use>
                  <path fill="none" stroke="white" stroke-width="1.5" d="M0,-3.0v7 M-2.5,-0.5L0,-3.0L2.5,-0.5"/>
                </g>
                <g id="arrowRight" xlink:href="#dirArrow" transform="rotate(90) translate(36 -43)" onmousedown="handlePan(1,0)">
                  <use xlink:href="#rim" fill="#404040">
                        <set attributeName="fill" to="#808080" begin="arrowRight.mouseover" end="arrowRight.mouseout"/>
                  </use>
                  <path fill="none" stroke="white" stroke-width="1.5" d="M0,-3.0v7 M-2.5,-0.5L0,-3.0L2.5,-0.5"/>
                </g>
                <g id="arrowDown" xlink:href="#dirArrow" transform="rotate(180) translate(-30 -48)" onmousedown="handlePan(0,1)">
                  <use xlink:href="#rim" fill="#404040">
                        <set attributeName="fill" to="#808080" begin="arrowDown.mouseover" end="arrowDown.mouseout"/>
                  </use>
                  <path fill="none" stroke="white" stroke-width="1.5" d="M0,-3.0v7 M-2.5,-0.5L0,-3.0L2.5,-0.5"/>
                </g>
                <g id="arrowLeft" xlink:href="#dirArrow" transform="rotate(270) translate(-36 17)" onmousedown="handlePan(-1,0)">
                  <use xlink:href="#rim" fill="#404040">
                        <set attributeName="fill" to="#808080" begin="arrowLeft.mouseover" end="arrowLeft.mouseout"/>
                  </use>
                  <path fill="none" stroke="white" stroke-width="1.5" d="M0,-3.0v7 M-2.5,-0.5L0,-3.0L2.5,-0.5"/>
                </g>
        </g>
        <svg viewBox="0 0 15 15" width="100%" height="30px" preserveAspectRatio="xMaxYMin meet">
         <g id="arrow_out" transform="scale(0.3 0.3)">
          <a xlink:href="dir_0355333a068ab019f0e92698f15a77e4_dep_org.svg" target="_base">
           <rect id="button" ry="5" rx="5" y="6" x="6" height="38" width="38"
                fill="#f2f5e9" fill-opacity="0.5" stroke="#606060" stroke-width="1.0"/>
           <path id="arrow"
             d="M 11.500037,31.436501 C 11.940474,20.09759 22.043105,11.32322 32.158766,21.979434 L 37.068811,17.246167 C 37.068811,17.246167 37.088388,32 37.088388,32 L 22.160133,31.978069 C 22.160133,31.978069 26.997745,27.140456 26.997745,27.140456 C 18.528582,18.264221 13.291696,25.230495 11.500037,31.436501 z"
             style="fill:#404040;"/>
          </a>
         </g>
        </svg>
</svg>
