<?xml version="1.0" encoding="UTF-8" standalone="no"?>
<!DOCTYPE svg PUBLIC "-//W3C//DTD SVG 1.1//EN"
 "http://www.w3.org/Graphics/SVG/1.1/DTD/svg11.dtd">
<!-- Generated by graphviz version 2.40.1 (20161225.0304)
 -->
<!-- Title: /home/travis/build/AliceO2Group/AliceO2/Detectors/TOF Pages: 1 -->
<svg width="878pt" height="735pt"
 viewBox="0.00 0.00 878.00 735.00" xmlns="http://www.w3.org/2000/svg" xmlns:xlink="http://www.w3.org/1999/xlink">
<g id="graph0" class="graph" transform="scale(1 1) rotate(0) translate(4 731)">
<title>/home/travis/build/AliceO2Group/AliceO2/Detectors/TOF</title>
<g id="clust1" class="cluster">
<title>clusterdir_051dca18e802f8e9474f2e30d29c04e0</title>
<g id="a_clust1"><a xlink:href="dir_051dca18e802f8e9474f2e30d29c04e0.html" target="_top" xlink:title="Detectors">
<polygon fill="#ddddee" stroke="#000000" points="410,-344 410,-719 674,-719 674,-344 410,-344"/>
<text text-anchor="middle" x="542" y="-707" font-family="Helvetica,sans-Serif" font-size="10.00" fill="#000000">Detectors</text>
</a>
</g>
</g>
<g id="clust2" class="cluster">
<title>clusterdir_577c839d346a264df4e9e588ca2a45dd</title>
<g id="a_clust2"><a xlink:href="dir_577c839d346a264df4e9e588ca2a45dd.html" target="_top">
<polygon fill="#eeeeff" stroke="#000000" points="418,-352 418,-692 666,-692 666,-352 418,-352"/>
</a>
</g>
</g>
<!-- dir_577c839d346a264df4e9e588ca2a45dd -->
<g id="node1" class="node">
<title>dir_577c839d346a264df4e9e588ca2a45dd</title>
<text text-anchor="middle" x="631" y="-663.5" font-family="Helvetica,sans-Serif" font-size="10.00" fill="#000000">TOF</text>
</g>
<!-- dir_0189f3ad6abecd72f822a0c3914f12b2 -->
<g id="node2" class="node">
<title>dir_0189f3ad6abecd72f822a0c3914f12b2</title>
<g id="a_node2"><a xlink:href="dir_0189f3ad6abecd72f822a0c3914f12b2.html" target="_top" xlink:title="base">
<polygon fill="#ffffff" stroke="#ff0000" points="480,-396 426,-396 426,-360 480,-360 480,-396"/>
<text text-anchor="middle" x="453" y="-375.5" font-family="Helvetica,sans-Serif" font-size="10.00" fill="#000000">base</text>
</a>
</g>
</g>
<!-- dir_4ab6b4cc6a7edbff49100e9123df213f -->
<g id="node9" class="node">
<title>dir_4ab6b4cc6a7edbff49100e9123df213f</title>
<g id="a_node9"><a xlink:href="dir_4ab6b4cc6a7edbff49100e9123df213f.html" target="_top" xlink:title="Common">
<polygon fill="none" stroke="#ff0000" points="465.5,-252 404.5,-252 404.5,-216 465.5,-216 465.5,-252"/>
<text text-anchor="middle" x="435" y="-231.5" font-family="Helvetica,sans-Serif" font-size="10.00" fill="#000000">Common</text>
</a>
</g>
</g>
<!-- dir_0189f3ad6abecd72f822a0c3914f12b2&#45;&gt;dir_4ab6b4cc6a7edbff49100e9123df213f -->
<g id="edge23" class="edge">
<title>dir_0189f3ad6abecd72f822a0c3914f12b2&#45;&gt;dir_4ab6b4cc6a7edbff49100e9123df213f</title>
<path fill="none" stroke="#000000" d="M450.7203,-359.7623C447.6501,-335.201 442.1559,-291.2474 438.5443,-262.3541"/>
<polygon fill="#000000" stroke="#000000" points="441.9746,-261.5782 437.2612,-252.0896 435.0287,-262.4465 441.9746,-261.5782"/>
<g id="a_edge23&#45;headlabel"><a xlink:href="dir_000137_000027.html" target="_top" xlink:title="2">
<text text-anchor="middle" x="445.2377" y="-262.293" font-family="Helvetica,sans-Serif" font-size="10.00" fill="#000000">2</text>
</a>
</g>
</g>
<!-- dir_37c90836491b695b472bf98d1be8336b -->
<g id="node11" class="node">
<title>dir_37c90836491b695b472bf98d1be8336b</title>
<g id="a_node11"><a xlink:href="dir_37c90836491b695b472bf98d1be8336b.html" target="_top" xlink:title="Base">
<polygon fill="none" stroke="#ff0000" points="501,-36 447,-36 447,0 501,0 501,-36"/>
<text text-anchor="middle" x="474" y="-15.5" font-family="Helvetica,sans-Serif" font-size="10.00" fill="#000000">Base</text>
</a>
</g>
</g>
<!-- dir_0189f3ad6abecd72f822a0c3914f12b2&#45;&gt;dir_37c90836491b695b472bf98d1be8336b -->
<g id="edge24" class="edge">
<title>dir_0189f3ad6abecd72f822a0c3914f12b2&#45;&gt;dir_37c90836491b695b472bf98d1be8336b</title>
<path fill="none" stroke="#000000" d="M480.0427,-372.6787C560.6965,-356.0424 794,-302.039 794,-234 794,-234 794,-234 794,-162 794,-100.5206 595.0934,-46.4746 510.9183,-26.3555"/>
<polygon fill="#000000" stroke="#000000" points="511.5438,-22.9071 501.0072,-24.0171 509.9362,-29.72 511.5438,-22.9071"/>
<g id="a_edge24&#45;headlabel"><a xlink:href="dir_000137_000274.html" target="_top" xlink:title="1">
<text text-anchor="middle" x="515.6943" y="-18.469" font-family="Helvetica,sans-Serif" font-size="10.00" fill="#000000">1</text>
</a>
</g>
</g>
<!-- dir_26637d1bd82229bc9ed97f7e706be743 -->
<g id="node13" class="node">
<title>dir_26637d1bd82229bc9ed97f7e706be743</title>
<g id="a_node13"><a xlink:href="dir_26637d1bd82229bc9ed97f7e706be743.html" target="_top" xlink:title="Raw">
<polygon fill="none" stroke="#ff0000" points="200,-324 146,-324 146,-288 200,-288 200,-324"/>
<text text-anchor="middle" x="173" y="-303.5" font-family="Helvetica,sans-Serif" font-size="10.00" fill="#000000">Raw</text>
</a>
</g>
</g>
<!-- dir_0189f3ad6abecd72f822a0c3914f12b2&#45;&gt;dir_26637d1bd82229bc9ed97f7e706be743 -->
<g id="edge25" class="edge">
<title>dir_0189f3ad6abecd72f822a0c3914f12b2&#45;&gt;dir_26637d1bd82229bc9ed97f7e706be743</title>
<path fill="none" stroke="#000000" d="M434.7664,-359.7625C427.8534,-353.8394 419.57,-347.8165 411,-344 359.2031,-320.9329 340.9914,-332.9431 285,-324 260.0981,-320.0226 232.0867,-315.5208 210.3065,-312.0142"/>
<polygon fill="#000000" stroke="#000000" points="210.5852,-308.5141 200.1559,-310.3794 209.4721,-315.425 210.5852,-308.5141"/>
<g id="a_edge25&#45;headlabel"><a xlink:href="dir_000137_000576.html" target="_top" xlink:title="2">
<text text-anchor="middle" x="214.5855" y="-303.7824" font-family="Helvetica,sans-Serif" font-size="10.00" fill="#000000">2</text>
</a>
</g>
</g>
<!-- dir_2171f7ec022c5423887b07c69b2f5b48 -->
<g id="node14" class="node">
<title>dir_2171f7ec022c5423887b07c69b2f5b48</title>
<g id="a_node14"><a xlink:href="dir_2171f7ec022c5423887b07c69b2f5b48.html" target="_top" xlink:title="DataFormats">
<polygon fill="none" stroke="#ff0000" points="555,-108 475,-108 475,-72 555,-72 555,-108"/>
<text text-anchor="middle" x="515" y="-87.5" font-family="Helvetica,sans-Serif" font-size="10.00" fill="#000000">DataFormats</text>
</a>
</g>
</g>
<!-- dir_0189f3ad6abecd72f822a0c3914f12b2&#45;&gt;dir_2171f7ec022c5423887b07c69b2f5b48 -->
<g id="edge26" class="edge">
<title>dir_0189f3ad6abecd72f822a0c3914f12b2&#45;&gt;dir_2171f7ec022c5423887b07c69b2f5b48</title>
<path fill="none" stroke="#000000" d="M480.1493,-369.722C501.1826,-361.7151 528.8788,-347.3087 542,-324 581.2438,-254.2868 560.3802,-221.8599 542,-144 539.8304,-134.8094 535.8438,-125.3995 531.5879,-117.0631"/>
<polygon fill="#000000" stroke="#000000" points="534.6056,-115.286 526.7508,-108.1759 528.4573,-118.6324 534.6056,-115.286"/>
<g id="a_edge26&#45;headlabel"><a xlink:href="dir_000137_000076.html" target="_top" xlink:title="1">
<text text-anchor="middle" x="538.8178" y="-114.586" font-family="Helvetica,sans-Serif" font-size="10.00" fill="#000000">1</text>
</a>
</g>
</g>
<!-- dir_7559d374f7e4089a12282edb4b89411f -->
<g id="node3" class="node">
<title>dir_7559d374f7e4089a12282edb4b89411f</title>
<g id="a_node3"><a xlink:href="dir_7559d374f7e4089a12282edb4b89411f.html" target="_top" xlink:title="calibration">
<polygon fill="#ffffff" stroke="#ff0000" points="540,-468 472,-468 472,-432 540,-432 540,-468"/>
<text text-anchor="middle" x="506" y="-447.5" font-family="Helvetica,sans-Serif" font-size="10.00" fill="#000000">calibration</text>
</a>
</g>
</g>
<!-- dir_7559d374f7e4089a12282edb4b89411f&#45;&gt;dir_0189f3ad6abecd72f822a0c3914f12b2 -->
<g id="edge8" class="edge">
<title>dir_7559d374f7e4089a12282edb4b89411f&#45;&gt;dir_0189f3ad6abecd72f822a0c3914f12b2</title>
<path fill="none" stroke="#000000" d="M492.6259,-431.8314C486.5838,-423.6232 479.3237,-413.7606 472.6779,-404.7323"/>
<polygon fill="#000000" stroke="#000000" points="475.3011,-402.3918 466.5542,-396.4133 469.6637,-406.5415 475.3011,-402.3918"/>
<g id="a_edge8&#45;headlabel"><a xlink:href="dir_000592_000137.html" target="_top" xlink:title="7">
<text text-anchor="middle" x="479.7186" y="-401.1035" font-family="Helvetica,sans-Serif" font-size="10.00" fill="#000000">7</text>
</a>
</g>
</g>
<!-- dir_2f1defcce8b8bdfe202c8bfd41228d47 -->
<g id="node8" class="node">
<title>dir_2f1defcce8b8bdfe202c8bfd41228d47</title>
<g id="a_node8"><a xlink:href="dir_2f1defcce8b8bdfe202c8bfd41228d47.html" target="_top" xlink:title="Calibration">
<polygon fill="none" stroke="#ff0000" points="402,-396 332,-396 332,-360 402,-360 402,-396"/>
<text text-anchor="middle" x="367" y="-375.5" font-family="Helvetica,sans-Serif" font-size="10.00" fill="#000000">Calibration</text>
</a>
</g>
</g>
<!-- dir_7559d374f7e4089a12282edb4b89411f&#45;&gt;dir_2f1defcce8b8bdfe202c8bfd41228d47 -->
<g id="edge5" class="edge">
<title>dir_7559d374f7e4089a12282edb4b89411f&#45;&gt;dir_2f1defcce8b8bdfe202c8bfd41228d47</title>
<path fill="none" stroke="#000000" d="M471.9968,-432.3868C453.6794,-422.8987 430.8651,-411.0812 411.1868,-400.8881"/>
<polygon fill="#000000" stroke="#000000" points="412.5929,-397.6748 402.1036,-396.1832 409.3733,-403.8905 412.5929,-397.6748"/>
<g id="a_edge5&#45;headlabel"><a xlink:href="dir_000592_000040.html" target="_top" xlink:title="8">
<text text-anchor="middle" x="417.0907" y="-394.307" font-family="Helvetica,sans-Serif" font-size="10.00" fill="#000000">8</text>
</a>
</g>
</g>
<!-- dir_7559d374f7e4089a12282edb4b89411f&#45;&gt;dir_4ab6b4cc6a7edbff49100e9123df213f -->
<g id="edge6" class="edge">
<title>dir_7559d374f7e4089a12282edb4b89411f&#45;&gt;dir_4ab6b4cc6a7edbff49100e9123df213f</title>
<path fill="none" stroke="#000000" d="M504.7495,-431.9949C502.8925,-410.5989 498.5393,-374.0189 489,-344 479.6272,-314.5052 463.4694,-283.0112 451.2644,-261.3143"/>
<polygon fill="#000000" stroke="#000000" points="454.1463,-259.3035 446.1406,-252.3639 448.0714,-262.7813 454.1463,-259.3035"/>
<g id="a_edge6&#45;headlabel"><a xlink:href="dir_000592_000027.html" target="_top" xlink:title="8">
<text text-anchor="middle" x="458.3962" y="-258.5125" font-family="Helvetica,sans-Serif" font-size="10.00" fill="#000000">8</text>
</a>
</g>
</g>
<!-- dir_6af676bf18881990e4083e191d0e63e0 -->
<g id="node10" class="node">
<title>dir_6af676bf18881990e4083e191d0e63e0</title>
<g id="a_node10"><a xlink:href="dir_6af676bf18881990e4083e191d0e63e0.html" target="_top" xlink:title="CCDB">
<polygon fill="none" stroke="#ff0000" points="348,-324 294,-324 294,-288 348,-288 348,-324"/>
<text text-anchor="middle" x="321" y="-303.5" font-family="Helvetica,sans-Serif" font-size="10.00" fill="#000000">CCDB</text>
</a>
</g>
</g>
<!-- dir_7559d374f7e4089a12282edb4b89411f&#45;&gt;dir_6af676bf18881990e4083e191d0e63e0 -->
<g id="edge7" class="edge">
<title>dir_7559d374f7e4089a12282edb4b89411f&#45;&gt;dir_6af676bf18881990e4083e191d0e63e0</title>
<path fill="none" stroke="#000000" d="M471.9799,-444.8087C424.2277,-436.7559 341.1142,-419.6784 323,-396 309.7796,-378.7187 310.3468,-353.6164 313.6155,-334.3104"/>
<polygon fill="#000000" stroke="#000000" points="317.0948,-334.762 315.6389,-324.2677 310.2327,-333.3794 317.0948,-334.762"/>
<g id="a_edge7&#45;headlabel"><a xlink:href="dir_000592_000019.html" target="_top" xlink:title="9">
<text text-anchor="middle" x="319.1682" y="-336.3466" font-family="Helvetica,sans-Serif" font-size="10.00" fill="#000000">9</text>
</a>
</g>
</g>
<!-- dir_bcbb2cf9a3d3d83e5515c82071a07177 -->
<g id="node12" class="node">
<title>dir_bcbb2cf9a3d3d83e5515c82071a07177</title>
<g id="a_node12"><a xlink:href="dir_bcbb2cf9a3d3d83e5515c82071a07177.html" target="_top" xlink:title="Framework">
<polygon fill="none" stroke="#ff0000" points="405.5,-180 334.5,-180 334.5,-144 405.5,-144 405.5,-180"/>
<text text-anchor="middle" x="370" y="-159.5" font-family="Helvetica,sans-Serif" font-size="10.00" fill="#000000">Framework</text>
</a>
</g>
</g>
<!-- dir_7559d374f7e4089a12282edb4b89411f&#45;&gt;dir_bcbb2cf9a3d3d83e5515c82071a07177 -->
<g id="edge9" class="edge">
<title>dir_7559d374f7e4089a12282edb4b89411f&#45;&gt;dir_bcbb2cf9a3d3d83e5515c82071a07177</title>
<path fill="none" stroke="#000000" d="M471.801,-444.6947C421.6118,-436.2604 331.414,-418.4295 308,-396 272.5606,-362.0509 270.6499,-334.9315 285,-288 296.8538,-249.2324 325.0931,-211.6165 345.7819,-187.7322"/>
<polygon fill="#000000" stroke="#000000" points="348.4635,-189.9834 352.474,-180.1769 343.2235,-185.342 348.4635,-189.9834"/>
<g id="a_edge9&#45;headlabel"><a xlink:href="dir_000592_000013.html" target="_top" xlink:title="26">
<text text-anchor="middle" x="348.2055" y="-192.0568" font-family="Helvetica,sans-Serif" font-size="10.00" fill="#000000">26</text>
</a>
</g>
</g>
<!-- dir_7559d374f7e4089a12282edb4b89411f&#45;&gt;dir_2171f7ec022c5423887b07c69b2f5b48 -->
<g id="edge10" class="edge">
<title>dir_7559d374f7e4089a12282edb4b89411f&#45;&gt;dir_2171f7ec022c5423887b07c69b2f5b48</title>
<path fill="none" stroke="#000000" d="M516.727,-431.968C538.5133,-393.3207 585.1383,-299.2474 576,-216 572.4231,-183.4151 574.456,-173.421 560,-144 555.1061,-134.0398 548.0107,-124.3419 540.8955,-115.9767"/>
<polygon fill="#000000" stroke="#000000" points="543.4066,-113.5338 534.1388,-108.3997 538.1821,-118.1927 543.4066,-113.5338"/>
<g id="a_edge10&#45;headlabel"><a xlink:href="dir_000592_000076.html" target="_top" xlink:title="18">
<text text-anchor="middle" x="547.9181" y="-111.8269" font-family="Helvetica,sans-Serif" font-size="10.00" fill="#000000">18</text>
</a>
</g>
</g>
<!-- dir_466d31775548c7bdc6c92a4c63ee3ea4 -->
<g id="node4" class="node">
<title>dir_466d31775548c7bdc6c92a4c63ee3ea4</title>
<g id="a_node4"><a xlink:href="dir_466d31775548c7bdc6c92a4c63ee3ea4.html" target="_top" xlink:title="compression">
<polygon fill="#ffffff" stroke="#ff0000" points="585.5,-684 506.5,-684 506.5,-648 585.5,-648 585.5,-684"/>
<text text-anchor="middle" x="546" y="-663.5" font-family="Helvetica,sans-Serif" font-size="10.00" fill="#000000">compression</text>
</a>
</g>
</g>
<!-- dir_466d31775548c7bdc6c92a4c63ee3ea4&#45;&gt;dir_0189f3ad6abecd72f822a0c3914f12b2 -->
<g id="edge27" class="edge">
<title>dir_466d31775548c7bdc6c92a4c63ee3ea4&#45;&gt;dir_0189f3ad6abecd72f822a0c3914f12b2</title>
<path fill="none" stroke="#000000" d="M567.0037,-647.9837C597.7959,-619.2581 649.9076,-560.5369 634,-504 623.8426,-467.8995 618.711,-456.1268 590,-432 561.0238,-407.6504 519.7444,-393.4043 490.0822,-385.7192"/>
<polygon fill="#000000" stroke="#000000" points="490.6605,-382.2572 480.1141,-383.2687 488.9894,-389.0548 490.6605,-382.2572"/>
<g id="a_edge27&#45;headlabel"><a xlink:href="dir_000597_000137.html" target="_top" xlink:title="1">
<text text-anchor="middle" x="494.829" y="-377.8581" font-family="Helvetica,sans-Serif" font-size="10.00" fill="#000000">1</text>
</a>
</g>
</g>
<!-- dir_f8afc936feb89e961bf89d3429577266 -->
<g id="node7" class="node">
<title>dir_f8afc936feb89e961bf89d3429577266</title>
<g id="a_node7"><a xlink:href="dir_f8afc936feb89e961bf89d3429577266.html" target="_top" xlink:title="workflow">
<polygon fill="#ffffff" stroke="#ff0000" points="590.5,-612 529.5,-612 529.5,-576 590.5,-576 590.5,-612"/>
<text text-anchor="middle" x="560" y="-591.5" font-family="Helvetica,sans-Serif" font-size="10.00" fill="#000000">workflow</text>
</a>
</g>
</g>
<!-- dir_466d31775548c7bdc6c92a4c63ee3ea4&#45;&gt;dir_f8afc936feb89e961bf89d3429577266 -->
<g id="edge30" class="edge">
<title>dir_466d31775548c7bdc6c92a4c63ee3ea4&#45;&gt;dir_f8afc936feb89e961bf89d3429577266</title>
<path fill="none" stroke="#000000" d="M549.5328,-647.8314C551.0301,-640.131 552.8105,-630.9743 554.4745,-622.4166"/>
<polygon fill="#000000" stroke="#000000" points="557.9465,-622.8975 556.4196,-612.4133 551.0752,-621.5614 557.9465,-622.8975"/>
<g id="a_edge30&#45;headlabel"><a xlink:href="dir_000597_000448.html" target="_top" xlink:title="1">
<text text-anchor="middle" x="560.0476" y="-624.4679" font-family="Helvetica,sans-Serif" font-size="10.00" fill="#000000">1</text>
</a>
</g>
</g>
<!-- dir_466d31775548c7bdc6c92a4c63ee3ea4&#45;&gt;dir_bcbb2cf9a3d3d83e5515c82071a07177 -->
<g id="edge28" class="edge">
<title>dir_466d31775548c7bdc6c92a4c63ee3ea4&#45;&gt;dir_bcbb2cf9a3d3d83e5515c82071a07177</title>
<path fill="none" stroke="#000000" d="M506.2932,-664.0892C380.6492,-656.9742 0,-626.7727 0,-522 0,-522 0,-522 0,-450 0,-326.9443 48.0427,-287.7722 148,-216 175.9055,-195.963 267.6869,-178.3184 324.1266,-169.0022"/>
<polygon fill="#000000" stroke="#000000" points="324.9211,-172.4191 334.2304,-167.3609 323.7986,-165.5097 324.9211,-172.4191"/>
<g id="a_edge28&#45;headlabel"><a xlink:href="dir_000597_000013.html" target="_top" xlink:title="15">
<text text-anchor="middle" x="321.8282" y="-173.298" font-family="Helvetica,sans-Serif" font-size="10.00" fill="#000000">15</text>
</a>
</g>
</g>
<!-- dir_466d31775548c7bdc6c92a4c63ee3ea4&#45;&gt;dir_26637d1bd82229bc9ed97f7e706be743 -->
<g id="edge29" class="edge">
<title>dir_466d31775548c7bdc6c92a4c63ee3ea4&#45;&gt;dir_26637d1bd82229bc9ed97f7e706be743</title>
<path fill="none" stroke="#000000" d="M506.2828,-653.0373C436.1168,-628.1866 289.8325,-567.3215 207,-468 183.2725,-439.5492 174.6684,-431.7626 165,-396 159.5244,-375.7463 161.9541,-352.0892 165.5233,-334.1136"/>
<polygon fill="#000000" stroke="#000000" points="168.9616,-334.7752 167.7054,-324.2551 162.127,-333.2624 168.9616,-334.7752"/>
<g id="a_edge29&#45;headlabel"><a xlink:href="dir_000597_000576.html" target="_top" xlink:title="2">
<text text-anchor="middle" x="170.957" y="-336.3984" font-family="Helvetica,sans-Serif" font-size="10.00" fill="#000000">2</text>
</a>
</g>
</g>
<!-- dir_466d31775548c7bdc6c92a4c63ee3ea4&#45;&gt;dir_2171f7ec022c5423887b07c69b2f5b48 -->
<g id="edge31" class="edge">
<title>dir_466d31775548c7bdc6c92a4c63ee3ea4&#45;&gt;dir_2171f7ec022c5423887b07c69b2f5b48</title>
<path fill="none" stroke="#000000" d="M585.7288,-650.5519C672.2461,-616.6232 870,-537.3888 870,-522 870,-522 870,-522 870,-234 870,-178.0565 831.1461,-170.7272 782,-144 745.2747,-124.0276 631.9363,-105.8872 565.317,-96.5736"/>
<polygon fill="#000000" stroke="#000000" points="565.4297,-93.0561 555.045,-95.1557 564.4724,-99.9903 565.4297,-93.0561"/>
<g id="a_edge31&#45;headlabel"><a xlink:href="dir_000597_000076.html" target="_top" xlink:title="3">
<text text-anchor="middle" x="569.3787" y="-88.2349" font-family="Helvetica,sans-Serif" font-size="10.00" fill="#000000">3</text>
</a>
</g>
</g>
<!-- dir_d1fec883a65fe865f3e91884d818def8 -->
<g id="node5" class="node">
<title>dir_d1fec883a65fe865f3e91884d818def8</title>
<g id="a_node5"><a xlink:href="dir_d1fec883a65fe865f3e91884d818def8.html" target="_top" xlink:title="reconstruction">
<polygon fill="#ffffff" stroke="#ff0000" points="618,-540 532,-540 532,-504 618,-504 618,-540"/>
<text text-anchor="middle" x="575" y="-519.5" font-family="Helvetica,sans-Serif" font-size="10.00" fill="#000000">reconstruction</text>
</a>
</g>
</g>
<!-- dir_d1fec883a65fe865f3e91884d818def8&#45;&gt;dir_0189f3ad6abecd72f822a0c3914f12b2 -->
<g id="edge46" class="edge">
<title>dir_d1fec883a65fe865f3e91884d818def8&#45;&gt;dir_0189f3ad6abecd72f822a0c3914f12b2</title>
<path fill="none" stroke="#000000" d="M573.7954,-503.943C571.6456,-484.344 565.6607,-453.0373 549,-432 533.7291,-412.7176 509.5677,-399.1793 489.3053,-390.481"/>
<polygon fill="#000000" stroke="#000000" points="490.6046,-387.231 480.0226,-386.7088 487.9693,-393.716 490.6046,-387.231"/>
<g id="a_edge46&#45;headlabel"><a xlink:href="dir_000367_000137.html" target="_top" xlink:title="9">
<text text-anchor="middle" x="495.0036" y="-383.4538" font-family="Helvetica,sans-Serif" font-size="10.00" fill="#000000">9</text>
</a>
</g>
</g>
<!-- dir_d1fec883a65fe865f3e91884d818def8&#45;&gt;dir_7559d374f7e4089a12282edb4b89411f -->
<g id="edge44" class="edge">
<title>dir_d1fec883a65fe865f3e91884d818def8&#45;&gt;dir_7559d374f7e4089a12282edb4b89411f</title>
<path fill="none" stroke="#000000" d="M557.5884,-503.8314C549.479,-495.3694 539.6844,-485.1489 530.818,-475.8971"/>
<polygon fill="#000000" stroke="#000000" points="533.0921,-473.2115 523.646,-468.4133 528.0382,-478.0549 533.0921,-473.2115"/>
<g id="a_edge44&#45;headlabel"><a xlink:href="dir_000367_000592.html" target="_top" xlink:title="1">
<text text-anchor="middle" x="537.6291" y="-471.3422" font-family="Helvetica,sans-Serif" font-size="10.00" fill="#000000">1</text>
</a>
</g>
</g>
<!-- dir_d1fec883a65fe865f3e91884d818def8&#45;&gt;dir_4ab6b4cc6a7edbff49100e9123df213f -->
<g id="edge45" class="edge">
<title>dir_d1fec883a65fe865f3e91884d818def8&#45;&gt;dir_4ab6b4cc6a7edbff49100e9123df213f</title>
<path fill="none" stroke="#000000" d="M574.1559,-503.6659C572.89,-485.1873 569.7492,-456.0414 562,-432 539.8623,-363.3193 529.1244,-346.5888 487,-288 479.7721,-277.9471 470.7352,-267.9086 462.2319,-259.262"/>
<polygon fill="#000000" stroke="#000000" points="464.5239,-256.606 454.9555,-252.0565 459.5984,-261.5799 464.5239,-256.606"/>
<g id="a_edge45&#45;headlabel"><a xlink:href="dir_000367_000027.html" target="_top" xlink:title="5">
<text text-anchor="middle" x="469.0758" y="-254.6178" font-family="Helvetica,sans-Serif" font-size="10.00" fill="#000000">5</text>
</a>
</g>
</g>
<!-- dir_d1fec883a65fe865f3e91884d818def8&#45;&gt;dir_26637d1bd82229bc9ed97f7e706be743 -->
<g id="edge47" class="edge">
<title>dir_d1fec883a65fe865f3e91884d818def8&#45;&gt;dir_26637d1bd82229bc9ed97f7e706be743</title>
<path fill="none" stroke="#000000" d="M531.8863,-509.0421C441.4638,-481.5686 238.3053,-418.1739 214,-396 195.9613,-379.5433 185.3117,-353.597 179.4084,-333.7827"/>
<polygon fill="#000000" stroke="#000000" points="182.7625,-332.7794 176.7399,-324.0628 176.0123,-334.6326 182.7625,-332.7794"/>
<g id="a_edge47&#45;headlabel"><a xlink:href="dir_000367_000576.html" target="_top" xlink:title="6">
<text text-anchor="middle" x="186.452" y="-332.9941" font-family="Helvetica,sans-Serif" font-size="10.00" fill="#000000">6</text>
</a>
</g>
</g>
<!-- dir_d1fec883a65fe865f3e91884d818def8&#45;&gt;dir_2171f7ec022c5423887b07c69b2f5b48 -->
<g id="edge48" class="edge">
<title>dir_d1fec883a65fe865f3e91884d818def8&#45;&gt;dir_2171f7ec022c5423887b07c69b2f5b48</title>
<path fill="none" stroke="#000000" d="M618.354,-508.814C671.9013,-489.5227 756,-448.0709 756,-378 756,-378 756,-378 756,-234 756,-145.8507 635.7181,-110.3808 565.1046,-97.1527"/>
<polygon fill="#000000" stroke="#000000" points="565.5266,-93.6727 555.0668,-95.3588 564.295,-100.5635 565.5266,-93.6727"/>
<g id="a_edge48&#45;headlabel"><a xlink:href="dir_000367_000076.html" target="_top" xlink:title="16">
<text text-anchor="middle" x="569.5646" y="-89.01" font-family="Helvetica,sans-Serif" font-size="10.00" fill="#000000">16</text>
</a>
</g>
</g>
<!-- dir_827012254b0f6cad75d9a7a2745b1aea -->
<g id="node6" class="node">
<title>dir_827012254b0f6cad75d9a7a2745b1aea</title>
<g id="a_node6"><a xlink:href="dir_827012254b0f6cad75d9a7a2745b1aea.html" target="_top" xlink:title="simulation">
<polygon fill="#ffffff" stroke="#ff0000" points="494,-540 426,-540 426,-504 494,-504 494,-540"/>
<text text-anchor="middle" x="460" y="-519.5" font-family="Helvetica,sans-Serif" font-size="10.00" fill="#000000">simulation</text>
</a>
</g>
</g>
<!-- dir_827012254b0f6cad75d9a7a2745b1aea&#45;&gt;dir_0189f3ad6abecd72f822a0c3914f12b2 -->
<g id="edge14" class="edge">
<title>dir_827012254b0f6cad75d9a7a2745b1aea&#45;&gt;dir_0189f3ad6abecd72f822a0c3914f12b2</title>
<path fill="none" stroke="#000000" d="M459.1134,-503.7623C457.9195,-479.201 455.7829,-435.2474 454.3783,-406.3541"/>
<polygon fill="#000000" stroke="#000000" points="457.8609,-405.9079 453.8794,-396.0896 450.8691,-406.2478 457.8609,-405.9079"/>
<g id="a_edge14&#45;headlabel"><a xlink:href="dir_000182_000137.html" target="_top" xlink:title="6">
<text text-anchor="middle" x="460.8712" y="-406.8604" font-family="Helvetica,sans-Serif" font-size="10.00" fill="#000000">6</text>
</a>
</g>
</g>
<!-- dir_827012254b0f6cad75d9a7a2745b1aea&#45;&gt;dir_7559d374f7e4089a12282edb4b89411f -->
<g id="edge11" class="edge">
<title>dir_827012254b0f6cad75d9a7a2745b1aea&#45;&gt;dir_7559d374f7e4089a12282edb4b89411f</title>
<path fill="none" stroke="#000000" d="M471.6077,-503.8314C476.7978,-495.7079 483.0232,-485.9637 488.7425,-477.0118"/>
<polygon fill="#000000" stroke="#000000" points="491.8015,-478.7246 494.236,-468.4133 485.9026,-474.9559 491.8015,-478.7246"/>
<g id="a_edge11&#45;headlabel"><a xlink:href="dir_000182_000592.html" target="_top" xlink:title="1">
<text text-anchor="middle" x="492.2589" y="-480.7824" font-family="Helvetica,sans-Serif" font-size="10.00" fill="#000000">1</text>
</a>
</g>
</g>
<!-- dir_827012254b0f6cad75d9a7a2745b1aea&#45;&gt;dir_4ab6b4cc6a7edbff49100e9123df213f -->
<g id="edge12" class="edge">
<title>dir_827012254b0f6cad75d9a7a2745b1aea&#45;&gt;dir_4ab6b4cc6a7edbff49100e9123df213f</title>
<path fill="none" stroke="#000000" d="M428.966,-503.9096C394.6287,-482.3702 339.9378,-443.2973 308,-396 289.2007,-368.1597 290.1728,-357.1924 285,-324 282.5363,-308.1908 275.7998,-301.0903 285,-288 297.9111,-269.6297 354.7097,-252.854 394.5787,-243.0308"/>
<polygon fill="#000000" stroke="#000000" points="395.4106,-246.4306 404.3131,-240.6864 393.7715,-239.6252 395.4106,-246.4306"/>
<g id="a_edge12&#45;headlabel"><a xlink:href="dir_000182_000027.html" target="_top" xlink:title="3">
<text text-anchor="middle" x="392.5806" y="-247.5325" font-family="Helvetica,sans-Serif" font-size="10.00" fill="#000000">3</text>
</a>
</g>
</g>
<!-- dir_827012254b0f6cad75d9a7a2745b1aea&#45;&gt;dir_37c90836491b695b472bf98d1be8336b -->
<g id="edge13" class="edge">
<title>dir_827012254b0f6cad75d9a7a2745b1aea&#45;&gt;dir_37c90836491b695b472bf98d1be8336b</title>
<path fill="none" stroke="#000000" d="M425.759,-514.9741C336.7942,-494.6712 107.2442,-428.2158 137,-288 168.1177,-141.3666 356.2086,-59.0789 437.0827,-30.0744"/>
<polygon fill="#000000" stroke="#000000" points="438.575,-33.26 446.8505,-26.6444 436.2557,-26.6554 438.575,-33.26"/>
<g id="a_edge13&#45;headlabel"><a xlink:href="dir_000182_000274.html" target="_top" xlink:title="3">
<text text-anchor="middle" x="436.1241" y="-34.6298" font-family="Helvetica,sans-Serif" font-size="10.00" fill="#000000">3</text>
</a>
</g>
</g>
<!-- dir_827012254b0f6cad75d9a7a2745b1aea&#45;&gt;dir_2171f7ec022c5423887b07c69b2f5b48 -->
<g id="edge15" class="edge">
<title>dir_827012254b0f6cad75d9a7a2745b1aea&#45;&gt;dir_2171f7ec022c5423887b07c69b2f5b48</title>
<path fill="none" stroke="#000000" d="M494.39,-509.1002C513.27,-500.3003 535.52,-486.8003 549,-468 605.9384,-388.5892 583.9283,-349.5253 590,-252 592.9954,-203.8878 603.4397,-186.1228 580,-144 573.6393,-132.5694 563.8242,-122.5505 553.7327,-114.3466"/>
<polygon fill="#000000" stroke="#000000" points="555.712,-111.4541 545.6409,-108.164 551.4621,-117.0164 555.712,-111.4541"/>
<g id="a_edge15&#45;headlabel"><a xlink:href="dir_000182_000076.html" target="_top" xlink:title="5">
<text text-anchor="middle" x="560.292" y="-108.8804" font-family="Helvetica,sans-Serif" font-size="10.00" fill="#000000">5</text>
</a>
</g>
</g>
<!-- dir_f8afc936feb89e961bf89d3429577266&#45;&gt;dir_0189f3ad6abecd72f822a0c3914f12b2 -->
<g id="edge39" class="edge">
<title>dir_f8afc936feb89e961bf89d3429577266&#45;&gt;dir_0189f3ad6abecd72f822a0c3914f12b2</title>
<path fill="none" stroke="#000000" d="M590.7856,-577.7058C604.5629,-568.6181 619.3923,-555.9027 627,-540 633.9048,-525.5666 632.7437,-518.9335 627,-504 603.9723,-444.128 533.3474,-407.8321 489.4753,-390.4581"/>
<polygon fill="#000000" stroke="#000000" points="490.6028,-387.1421 480.0123,-386.8387 488.1021,-393.6802 490.6028,-387.1421"/>
<g id="a_edge39&#45;headlabel"><a xlink:href="dir_000448_000137.html" target="_top" xlink:title="4">
<text text-anchor="middle" x="494.9745" y="-383.2742" font-family="Helvetica,sans-Serif" font-size="10.00" fill="#000000">4</text>
</a>
</g>
</g>
<!-- dir_f8afc936feb89e961bf89d3429577266&#45;&gt;dir_7559d374f7e4089a12282edb4b89411f -->
<g id="edge37" class="edge">
<title>dir_f8afc936feb89e961bf89d3429577266&#45;&gt;dir_7559d374f7e4089a12282edb4b89411f</title>
<path fill="none" stroke="#000000" d="M544.5719,-575.6274C536.9711,-565.6683 528.3187,-552.8041 523,-540 514.7904,-520.2364 510.5142,-496.3783 508.3047,-478.1934"/>
<polygon fill="#000000" stroke="#000000" points="511.7808,-477.7827 507.2284,-468.2158 504.8211,-478.5335 511.7808,-477.7827"/>
<g id="a_edge37&#45;headlabel"><a xlink:href="dir_000448_000592.html" target="_top" xlink:title="1">
<text text-anchor="middle" x="514.9891" y="-478.5521" font-family="Helvetica,sans-Serif" font-size="10.00" fill="#000000">1</text>
</a>
</g>
</g>
<!-- dir_f8afc936feb89e961bf89d3429577266&#45;&gt;dir_d1fec883a65fe865f3e91884d818def8 -->
<g id="edge42" class="edge">
<title>dir_f8afc936feb89e961bf89d3429577266&#45;&gt;dir_d1fec883a65fe865f3e91884d818def8</title>
<path fill="none" stroke="#000000" d="M563.7851,-575.8314C565.3894,-568.131 567.297,-558.9743 569.0799,-550.4166"/>
<polygon fill="#000000" stroke="#000000" points="572.5507,-550.9169 571.1639,-540.4133 565.6979,-549.4892 572.5507,-550.9169"/>
<g id="a_edge42&#45;headlabel"><a xlink:href="dir_000448_000367.html" target="_top" xlink:title="6">
<text text-anchor="middle" x="574.5972" y="-552.5151" font-family="Helvetica,sans-Serif" font-size="10.00" fill="#000000">6</text>
</a>
</g>
</g>
<!-- dir_f8afc936feb89e961bf89d3429577266&#45;&gt;dir_4ab6b4cc6a7edbff49100e9123df213f -->
<g id="edge38" class="edge">
<title>dir_f8afc936feb89e961bf89d3429577266&#45;&gt;dir_4ab6b4cc6a7edbff49100e9123df213f</title>
<path fill="none" stroke="#000000" d="M590.8434,-580.1876C606.8527,-571.2251 624.921,-557.8645 634,-540 641.249,-525.7363 637.7919,-519.5442 634,-504 607.9223,-397.0982 590.4432,-366.1703 513,-288 501.5895,-276.4823 487.4213,-265.838 474.3034,-257.0983"/>
<polygon fill="#000000" stroke="#000000" points="476.1705,-254.1376 465.8742,-251.6401 472.3657,-260.0133 476.1705,-254.1376"/>
<g id="a_edge38&#45;headlabel"><a xlink:href="dir_000448_000027.html" target="_top" xlink:title="1">
<text text-anchor="middle" x="480.731" y="-251.2081" font-family="Helvetica,sans-Serif" font-size="10.00" fill="#000000">1</text>
</a>
</g>
</g>
<!-- dir_f8afc936feb89e961bf89d3429577266&#45;&gt;dir_bcbb2cf9a3d3d83e5515c82071a07177 -->
<g id="edge40" class="edge">
<title>dir_f8afc936feb89e961bf89d3429577266&#45;&gt;dir_bcbb2cf9a3d3d83e5515c82071a07177</title>
<path fill="none" stroke="#000000" d="M529.3599,-592.8486C477.6999,-589.8446 371.0753,-579.014 291,-540 212.68,-501.8412 195.1616,-474.7981 158,-396 123.4656,-322.7727 120.5495,-263.656 186,-216 227.0986,-186.0752 284.6376,-172.6368 324.3793,-166.6641"/>
<polygon fill="#000000" stroke="#000000" points="324.9138,-170.1235 334.3306,-165.2682 323.9413,-163.1914 324.9138,-170.1235"/>
<g id="a_edge40&#45;headlabel"><a xlink:href="dir_000448_000013.html" target="_top" xlink:title="33">
<text text-anchor="middle" x="321.7484" y="-170.9345" font-family="Helvetica,sans-Serif" font-size="10.00" fill="#000000">33</text>
</a>
</g>
</g>
<!-- dir_f8afc936feb89e961bf89d3429577266&#45;&gt;dir_26637d1bd82229bc9ed97f7e706be743 -->
<g id="edge41" class="edge">
<title>dir_f8afc936feb89e961bf89d3429577266&#45;&gt;dir_26637d1bd82229bc9ed97f7e706be743</title>
<path fill="none" stroke="#000000" d="M529.3729,-588.9123C453.8187,-574.5242 258.9599,-525.8153 180,-396 168.7825,-377.5576 167.6093,-352.9078 168.9193,-334.0686"/>
<polygon fill="#000000" stroke="#000000" points="172.4134,-334.2973 169.8873,-324.008 165.4456,-333.6268 172.4134,-334.2973"/>
<g id="a_edge41&#45;headlabel"><a xlink:href="dir_000448_000576.html" target="_top" xlink:title="3">
<text text-anchor="middle" x="174.8954" y="-335.6473" font-family="Helvetica,sans-Serif" font-size="10.00" fill="#000000">3</text>
</a>
</g>
</g>
<!-- dir_f8afc936feb89e961bf89d3429577266&#45;&gt;dir_2171f7ec022c5423887b07c69b2f5b48 -->
<g id="edge43" class="edge">
<title>dir_f8afc936feb89e961bf89d3429577266&#45;&gt;dir_2171f7ec022c5423887b07c69b2f5b48</title>
<path fill="none" stroke="#000000" d="M590.6731,-591.9379C661.808,-585.3254 832,-558.199 832,-450 832,-450 832,-450 832,-234 832,-174.5357 785.4584,-172.0021 733,-144 679.7554,-115.5783 611.1968,-101.7844 565.3106,-95.32"/>
<polygon fill="#000000" stroke="#000000" points="565.682,-91.8385 555.305,-93.9758 564.7499,-98.7762 565.682,-91.8385"/>
<g id="a_edge43&#45;headlabel"><a xlink:href="dir_000448_000076.html" target="_top" xlink:title="23">
<text text-anchor="middle" x="569.6226" y="-87.003" font-family="Helvetica,sans-Serif" font-size="10.00" fill="#000000">23</text>
</a>
</g>
</g>
<!-- dir_2f1defcce8b8bdfe202c8bfd41228d47&#45;&gt;dir_4ab6b4cc6a7edbff49100e9123df213f -->
<g id="edge1" class="edge">
<title>dir_2f1defcce8b8bdfe202c8bfd41228d47&#45;&gt;dir_4ab6b4cc6a7edbff49100e9123df213f</title>
<path fill="none" stroke="#000000" d="M375.6122,-359.7623C387.3639,-334.8764 408.5167,-290.0822 422.1478,-261.2165"/>
<polygon fill="#000000" stroke="#000000" points="425.3524,-262.6267 426.4577,-252.0896 419.0227,-259.6376 425.3524,-262.6267"/>
<g id="a_edge1&#45;headlabel"><a xlink:href="dir_000040_000027.html" target="_top" xlink:title="1">
<text text-anchor="middle" x="426.385" y="-264.5894" font-family="Helvetica,sans-Serif" font-size="10.00" fill="#000000">1</text>
</a>
</g>
</g>
<!-- dir_2f1defcce8b8bdfe202c8bfd41228d47&#45;&gt;dir_6af676bf18881990e4083e191d0e63e0 -->
<g id="edge2" class="edge">
<title>dir_2f1defcce8b8bdfe202c8bfd41228d47&#45;&gt;dir_6af676bf18881990e4083e191d0e63e0</title>
<path fill="none" stroke="#000000" d="M355.3923,-359.8314C350.2022,-351.7079 343.9768,-341.9637 338.2575,-333.0118"/>
<polygon fill="#000000" stroke="#000000" points="341.0974,-330.9559 332.764,-324.4133 335.1985,-334.7246 341.0974,-330.9559"/>
<g id="a_edge2&#45;headlabel"><a xlink:href="dir_000040_000019.html" target="_top" xlink:title="4">
<text text-anchor="middle" x="345.4253" y="-329.9564" font-family="Helvetica,sans-Serif" font-size="10.00" fill="#000000">4</text>
</a>
</g>
</g>
<!-- dir_2f1defcce8b8bdfe202c8bfd41228d47&#45;&gt;dir_bcbb2cf9a3d3d83e5515c82071a07177 -->
<g id="edge3" class="edge">
<title>dir_2f1defcce8b8bdfe202c8bfd41228d47&#45;&gt;dir_bcbb2cf9a3d3d83e5515c82071a07177</title>
<path fill="none" stroke="#000000" d="M367.2506,-359.9555C367.7723,-322.3938 368.9784,-235.5541 369.6054,-190.4103"/>
<polygon fill="#000000" stroke="#000000" points="373.1087,-190.1927 369.748,-180.1451 366.1094,-190.0955 373.1087,-190.1927"/>
<g id="a_edge3&#45;headlabel"><a xlink:href="dir_000040_000013.html" target="_top" xlink:title="10">
<text text-anchor="middle" x="375.8979" y="-191.3264" font-family="Helvetica,sans-Serif" font-size="10.00" fill="#000000">10</text>
</a>
</g>
</g>
<!-- dir_2f1defcce8b8bdfe202c8bfd41228d47&#45;&gt;dir_2171f7ec022c5423887b07c69b2f5b48 -->
<g id="edge4" class="edge">
<title>dir_2f1defcce8b8bdfe202c8bfd41228d47&#45;&gt;dir_2171f7ec022c5423887b07c69b2f5b48</title>
<path fill="none" stroke="#000000" d="M386.9727,-359.836C411.0708,-336.8993 451.2951,-295.1892 475,-252 498.6459,-208.9183 508.5181,-151.7966 512.4879,-118.1603"/>
<polygon fill="#000000" stroke="#000000" points="515.9789,-118.4317 513.5793,-108.1122 509.0198,-117.6758 515.9789,-118.4317"/>
<g id="a_edge4&#45;headlabel"><a xlink:href="dir_000040_000076.html" target="_top" xlink:title="2">
<text text-anchor="middle" x="518.4135" y="-119.8119" font-family="Helvetica,sans-Serif" font-size="10.00" fill="#000000">2</text>
</a>
</g>
</g>
<!-- dir_4ab6b4cc6a7edbff49100e9123df213f&#45;&gt;dir_bcbb2cf9a3d3d83e5515c82071a07177 -->
<g id="edge16" class="edge">
<title>dir_4ab6b4cc6a7edbff49100e9123df213f&#45;&gt;dir_bcbb2cf9a3d3d83e5515c82071a07177</title>
<path fill="none" stroke="#000000" d="M412.6454,-215.8314C404.2661,-207.454 394.9576,-197.3531 387.1087,-188.1749"/>
<polygon fill="#000000" stroke="#000000" points="389.7351,-185.8593 380.6471,-180.4133 384.3553,-190.338 389.7351,-185.8593"/>
<g id="a_edge16&#45;headlabel"><a xlink:href="dir_000027_000013.html" target="_top" xlink:title="2">
<text text-anchor="middle" x="394.217" y="-184.3052" font-family="Helvetica,sans-Serif" font-size="10.00" fill="#000000">2</text>
</a>
</g>
</g>
<!-- dir_4ab6b4cc6a7edbff49100e9123df213f&#45;&gt;dir_2171f7ec022c5423887b07c69b2f5b48 -->
<g id="edge17" class="edge">
<title>dir_4ab6b4cc6a7edbff49100e9123df213f&#45;&gt;dir_2171f7ec022c5423887b07c69b2f5b48</title>
<path fill="none" stroke="#000000" d="M440.4589,-215.7623C451.8413,-190.7682 476.6431,-145.6924 494.694,-116.8409"/>
<polygon fill="#000000" stroke="#000000" points="497.8517,-118.3996 500.2919,-108.0896 491.9549,-114.6276 497.8517,-118.3996"/>
<g id="a_edge17&#45;headlabel"><a xlink:href="dir_000027_000076.html" target="_top" xlink:title="2">
<text text-anchor="middle" x="498.3066" y="-120.4576" font-family="Helvetica,sans-Serif" font-size="10.00" fill="#000000">2</text>
</a>
</g>
</g>
<!-- dir_6af676bf18881990e4083e191d0e63e0&#45;&gt;dir_4ab6b4cc6a7edbff49100e9123df213f -->
<g id="edge18" class="edge">
<title>dir_6af676bf18881990e4083e191d0e63e0&#45;&gt;dir_4ab6b4cc6a7edbff49100e9123df213f</title>
<path fill="none" stroke="#000000" d="M348.0164,-288.937C362.7939,-279.6038 381.3302,-267.8967 397.4903,-257.6904"/>
<polygon fill="#000000" stroke="#000000" points="399.5987,-260.4984 406.1847,-252.1992 395.8608,-254.5799 399.5987,-260.4984"/>
<g id="a_edge18&#45;headlabel"><a xlink:href="dir_000019_000027.html" target="_top" xlink:title="4">
<text text-anchor="middle" x="398.0757" y="-262.3184" font-family="Helvetica,sans-Serif" font-size="10.00" fill="#000000">4</text>
</a>
</g>
</g>
<!-- dir_6af676bf18881990e4083e191d0e63e0&#45;&gt;dir_bcbb2cf9a3d3d83e5515c82071a07177 -->
<g id="edge19" class="edge">
<title>dir_6af676bf18881990e4083e191d0e63e0&#45;&gt;dir_bcbb2cf9a3d3d83e5515c82071a07177</title>
<path fill="none" stroke="#000000" d="M327.2059,-287.7623C335.6372,-262.9846 350.784,-218.4714 360.6104,-189.5939"/>
<polygon fill="#000000" stroke="#000000" points="363.9365,-190.6841 363.8445,-180.0896 357.3096,-188.429 363.9365,-190.6841"/>
<g id="a_edge19&#45;headlabel"><a xlink:href="dir_000019_000013.html" target="_top" xlink:title="2">
<text text-anchor="middle" x="365.4665" y="-192.5017" font-family="Helvetica,sans-Serif" font-size="10.00" fill="#000000">2</text>
</a>
</g>
</g>
<!-- dir_37c90836491b695b472bf98d1be8336b&#45;&gt;dir_4ab6b4cc6a7edbff49100e9123df213f -->
<g id="edge20" class="edge">
<title>dir_37c90836491b695b472bf98d1be8336b&#45;&gt;dir_4ab6b4cc6a7edbff49100e9123df213f</title>
<path fill="none" stroke="#000000" d="M470.7238,-36.1451C463.9116,-73.8741 448.1791,-161.0083 440.0564,-205.9956"/>
<polygon fill="#000000" stroke="#000000" points="436.5906,-205.4927 438.258,-215.9555 443.4793,-206.7365 436.5906,-205.4927"/>
<g id="a_edge20&#45;headlabel"><a xlink:href="dir_000274_000027.html" target="_top" xlink:title="16">
<text text-anchor="middle" x="434.4352" y="-198.9508" font-family="Helvetica,sans-Serif" font-size="10.00" fill="#000000">16</text>
</a>
</g>
</g>
<!-- dir_37c90836491b695b472bf98d1be8336b&#45;&gt;dir_bcbb2cf9a3d3d83e5515c82071a07177 -->
<g id="edge21" class="edge">
<title>dir_37c90836491b695b472bf98d1be8336b&#45;&gt;dir_bcbb2cf9a3d3d83e5515c82071a07177</title>
<path fill="none" stroke="#000000" d="M453.3707,-36.0391C442.6699,-46.0063 429.8204,-58.9808 420,-72 405.1509,-91.6859 391.786,-116.2903 382.6177,-134.7957"/>
<polygon fill="#000000" stroke="#000000" points="379.4369,-133.3337 378.2202,-143.8585 385.7347,-136.3896 379.4369,-133.3337"/>
<g id="a_edge21&#45;headlabel"><a xlink:href="dir_000274_000013.html" target="_top" xlink:title="1">
<text text-anchor="middle" x="378.4516" y="-126.3603" font-family="Helvetica,sans-Serif" font-size="10.00" fill="#000000">1</text>
</a>
</g>
</g>
<!-- dir_37c90836491b695b472bf98d1be8336b&#45;&gt;dir_2171f7ec022c5423887b07c69b2f5b48 -->
<g id="edge22" class="edge">
<title>dir_37c90836491b695b472bf98d1be8336b&#45;&gt;dir_2171f7ec022c5423887b07c69b2f5b48</title>
<path fill="none" stroke="#000000" d="M490.4613,-36.4133C495.7724,-44.3991 501.3901,-53.9155 506.0245,-62.6975"/>
<polygon fill="#000000" stroke="#000000" points="502.994,-64.4623 510.6064,-71.8314 509.2509,-61.3236 502.994,-64.4623"/>
<g id="a_edge22&#45;headlabel"><a xlink:href="dir_000274_000076.html" target="_top" xlink:title="12">
<text text-anchor="middle" x="498.8445" y="-60.0223" font-family="Helvetica,sans-Serif" font-size="10.00" fill="#000000">12</text>
</a>
</g>
</g>
<!-- dir_bcbb2cf9a3d3d83e5515c82071a07177&#45;&gt;dir_4ab6b4cc6a7edbff49100e9123df213f -->
<g id="edge32" class="edge">
<title>dir_bcbb2cf9a3d3d83e5515c82071a07177&#45;&gt;dir_4ab6b4cc6a7edbff49100e9123df213f</title>
<path fill="none" stroke="#000000" d="M392.5991,-180.4133C400.9962,-188.8239 410.2993,-198.9323 418.1196,-208.0923"/>
<polygon fill="#000000" stroke="#000000" points="415.4673,-210.3768 424.5501,-215.8314 420.8512,-205.9032 415.4673,-210.3768"/>
<g id="a_edge32&#45;headlabel"><a xlink:href="dir_000013_000027.html" target="_top" xlink:title="8">
<text text-anchor="middle" x="410.9862" y="-206.9266" font-family="Helvetica,sans-Serif" font-size="10.00" fill="#000000">8</text>
</a>
</g>
</g>
<!-- dir_bcbb2cf9a3d3d83e5515c82071a07177&#45;&gt;dir_2171f7ec022c5423887b07c69b2f5b48 -->
<g id="edge33" class="edge">
<title>dir_bcbb2cf9a3d3d83e5515c82071a07177&#45;&gt;dir_2171f7ec022c5423887b07c69b2f5b48</title>
<path fill="none" stroke="#000000" d="M400.6372,-143.8314C419.5685,-133.953 444.1974,-121.6781 465.7865,-111.3455"/>
<polygon fill="#000000" stroke="#000000" points="467.2978,-114.5024 474.8273,-107.0487 464.2931,-108.1801 467.2978,-114.5024"/>
<g id="a_edge33&#45;headlabel"><a xlink:href="dir_000013_000076.html" target="_top" xlink:title="82">
<text text-anchor="middle" x="465.2699" y="-116.1097" font-family="Helvetica,sans-Serif" font-size="10.00" fill="#000000">82</text>
</a>
</g>
</g>
<!-- dir_26637d1bd82229bc9ed97f7e706be743&#45;&gt;dir_4ab6b4cc6a7edbff49100e9123df213f -->
<g id="edge34" class="edge">
<title>dir_26637d1bd82229bc9ed97f7e706be743&#45;&gt;dir_4ab6b4cc6a7edbff49100e9123df213f</title>
<path fill="none" stroke="#000000" d="M200.0518,-298.5659C246.2348,-285.8744 340.5234,-259.963 394.5585,-245.1137"/>
<polygon fill="#000000" stroke="#000000" points="395.7657,-248.4118 404.4807,-242.387 393.9107,-241.662 395.7657,-248.4118"/>
<g id="a_edge34&#45;headlabel"><a xlink:href="dir_000576_000027.html" target="_top" xlink:title="10">
<text text-anchor="middle" x="393.0519" y="-249.602" font-family="Helvetica,sans-Serif" font-size="10.00" fill="#000000">10</text>
</a>
</g>
</g>
<!-- dir_26637d1bd82229bc9ed97f7e706be743&#45;&gt;dir_bcbb2cf9a3d3d83e5515c82071a07177 -->
<g id="edge35" class="edge">
<title>dir_26637d1bd82229bc9ed97f7e706be743&#45;&gt;dir_bcbb2cf9a3d3d83e5515c82071a07177</title>
<path fill="none" stroke="#000000" d="M176.731,-287.9274C181.8063,-267.7179 192.7922,-235.2981 214,-216 244.5444,-188.206 290.1276,-174.5924 324.143,-168.0015"/>
<polygon fill="#000000" stroke="#000000" points="325.0768,-171.3898 334.2986,-166.1736 323.8368,-164.5005 325.0768,-171.3898"/>
<g id="a_edge35&#45;headlabel"><a xlink:href="dir_000576_000013.html" target="_top" xlink:title="25">
<text text-anchor="middle" x="322.042" y="-172.3208" font-family="Helvetica,sans-Serif" font-size="10.00" fill="#000000">25</text>
</a>
</g>
</g>
<!-- dir_26637d1bd82229bc9ed97f7e706be743&#45;&gt;dir_2171f7ec022c5423887b07c69b2f5b48 -->
<g id="edge36" class="edge">
<title>dir_26637d1bd82229bc9ed97f7e706be743&#45;&gt;dir_2171f7ec022c5423887b07c69b2f5b48</title>
<path fill="none" stroke="#000000" d="M171.0165,-287.6589C169.8802,-268.1015 170.9953,-237.0998 186,-216 219.3806,-169.0599 381.7251,-122.9878 465.2032,-101.9142"/>
<polygon fill="#000000" stroke="#000000" points="466.1263,-105.2912 474.9785,-99.4698 464.4281,-98.5003 466.1263,-105.2912"/>
<g id="a_edge36&#45;headlabel"><a xlink:href="dir_000576_000076.html" target="_top" xlink:title="15">
<text text-anchor="middle" x="463.3278" y="-106.4176" font-family="Helvetica,sans-Serif" font-size="10.00" fill="#000000">15</text>
</a>
</g>
</g>
<!-- dir_2171f7ec022c5423887b07c69b2f5b48&#45;&gt;dir_4ab6b4cc6a7edbff49100e9123df213f -->
<g id="edge49" class="edge">
<title>dir_2171f7ec022c5423887b07c69b2f5b48&#45;&gt;dir_4ab6b4cc6a7edbff49100e9123df213f</title>
<path fill="none" stroke="#000000" d="M509.6085,-108.0896C498.2792,-133.0041 473.4908,-178.0722 455.4132,-206.9877"/>
<polygon fill="#000000" stroke="#000000" points="452.2414,-205.4513 449.8052,-215.7623 458.1397,-209.221 452.2414,-205.4513"/>
<g id="a_edge49&#45;headlabel"><a xlink:href="dir_000076_000027.html" target="_top" xlink:title="35">
<text text-anchor="middle" x="451.7847" y="-198.3935" font-family="Helvetica,sans-Serif" font-size="10.00" fill="#000000">35</text>
</a>
</g>
</g>
<!-- dir_2171f7ec022c5423887b07c69b2f5b48&#45;&gt;dir_37c90836491b695b472bf98d1be8336b -->
<g id="edge50" class="edge">
<title>dir_2171f7ec022c5423887b07c69b2f5b48&#45;&gt;dir_37c90836491b695b472bf98d1be8336b</title>
<path fill="none" stroke="#000000" d="M498.7016,-71.8314C493.3969,-63.8771 487.7724,-54.369 483.118,-45.5723"/>
<polygon fill="#000000" stroke="#000000" points="486.1308,-43.7729 478.5093,-36.4133 479.8778,-46.9194 486.1308,-43.7729"/>
<g id="a_edge50&#45;headlabel"><a xlink:href="dir_000076_000274.html" target="_top" xlink:title="1">
<text text-anchor="middle" x="490.2828" y="-43.2077" font-family="Helvetica,sans-Serif" font-size="10.00" fill="#000000">1</text>
</a>
</g>
</g>
<!-- dir_2171f7ec022c5423887b07c69b2f5b48&#45;&gt;dir_bcbb2cf9a3d3d83e5515c82071a07177 -->
<g id="edge51" class="edge">
<title>dir_2171f7ec022c5423887b07c69b2f5b48&#45;&gt;dir_bcbb2cf9a3d3d83e5515c82071a07177</title>
<path fill="none" stroke="#000000" d="M484.5172,-108.088C464.2444,-118.6698 437.3889,-132.0224 414.7336,-142.7915"/>
<polygon fill="#000000" stroke="#000000" points="413.1885,-139.6504 405.6368,-147.0816 416.1744,-145.9816 413.1885,-139.6504"/>
<g id="a_edge51&#45;headlabel"><a xlink:href="dir_000076_000013.html" target="_top" xlink:title="11">
<text text-anchor="middle" x="415.2286" y="-133.0491" font-family="Helvetica,sans-Serif" font-size="10.00" fill="#000000">11</text>
</a>
</g>
</g>
</g>
</svg>
