<?xml version="1.0" encoding="UTF-8" standalone="no"?>
<!DOCTYPE svg PUBLIC "-//W3C//DTD SVG 1.1//EN"
 "http://www.w3.org/Graphics/SVG/1.1/DTD/svg11.dtd">
<!-- Generated by graphviz version 2.40.1 (20161225.0304)
 -->
<!-- Title: /home/travis/build/AliceO2Group/AliceO2/Detectors/ITSMFT/MFT/simulation Pages: 1 -->
<!--zoomable 591 -->
<svg id="main" version="1.1" xmlns="http://www.w3.org/2000/svg" xmlns:xlink="http://www.w3.org/1999/xlink" xml:space="preserve" onload="init(evt)">
<style type="text/css"><![CDATA[
.edge:hover path { stroke: red; }
.edge:hover polygon { stroke: red; fill: red; }
]]></style>
<script type="text/javascript"><![CDATA[
var edges = document.getElementsByTagName('g');
if (edges && edges.length) {
  for (var i=0;i<edges.length;i++) {
    if (edges[i].id.substr(0,4)=='edge') {
      edges[i].setAttribute('class','edge');
    }
  }
}
]]></script>
        <defs>
                <circle id="rim" cx="0" cy="0" r="7"/>
                <circle id="rim2" cx="0" cy="0" r="3.5"/>
                <g id="zoomPlus">
                        <use xlink:href="#rim" fill="#404040">
                                <set attributeName="fill" to="#808080" begin="zoomplus.mouseover" end="zoomplus.mouseout"/>
                        </use>
                        <path d="M-4,0h8M0,-4v8" fill="none" stroke="white" stroke-width="1.5" pointer-events="none"/>
                </g>
                <g id="zoomMin">
                        <use xlink:href="#rim" fill="#404040">
                                <set attributeName="fill" to="#808080" begin="zoomminus.mouseover" end="zoomminus.mouseout"/>
                        </use>
                        <path d="M-4,0h8" fill="none" stroke="white" stroke-width="1.5" pointer-events="none"/>
                </g>
                <g id="dirArrow">
                        <path fill="none" stroke="white" stroke-width="1.5" d="M0,-3.0v7 M-2.5,-0.5L0,-3.0L2.5,-0.5"/>
                </g>
               <g id="resetDef">
                       <use xlink:href="#rim2" fill="#404040">
                               <set attributeName="fill" to="#808080" begin="reset.mouseover" end="reset.mouseout"/>
                       </use>
               </g>
        </defs>

<script type="text/javascript">
var viewWidth = 477;
var viewHeight = 591;
var sectionId = 'dynsection-0';
</script>
<script xlink:href="svgpan.js"/>
<svg id="graph" class="graph">
<g id="viewport">
<title>/home/travis/build/AliceO2Group/AliceO2/Detectors/ITSMFT/MFT/simulation</title>
<g id="clust1" class="cluster">
<title>clusterdir_f39d1cd569ca2d16022b762a0e4a53c8</title>
<g id="a_clust1"><a xlink:href="dir_f39d1cd569ca2d16022b762a0e4a53c8.html" target="_top" xlink:title="MFT">
<polygon fill="#ddddee" stroke="#000000" points="91,-416 91,-575 263,-575 263,-416 91,-416"/>
<text text-anchor="middle" x="177" y="-563" font-family="Helvetica,sans-Serif" font-size="10.00" fill="#000000">MFT</text>
</a>
</g>
</g>
<g id="clust2" class="cluster">
<title>clusterdir_a336bf94aab96007822cb34c9e2cb8a5</title>
<g id="a_clust2"><a xlink:href="dir_a336bf94aab96007822cb34c9e2cb8a5.html" target="_top">
<polygon fill="#eeeeff" stroke="#000000" points="99,-424 99,-548 255,-548 255,-424 99,-424"/>
</a>
</g>
</g>
<!-- dir_a336bf94aab96007822cb34c9e2cb8a5 -->
<g id="node1" class="node">
<title>dir_a336bf94aab96007822cb34c9e2cb8a5</title>
<text text-anchor="middle" x="213" y="-519.5" font-family="Helvetica,sans-Serif" font-size="10.00" fill="#000000">simulation</text>
</g>
<!-- dir_4ea160d701b771c477e65d0fdf48e88e -->
<g id="node2" class="node">
<title>dir_4ea160d701b771c477e65d0fdf48e88e</title>
<g id="a_node2"><a xlink:href="dir_4ea160d701b771c477e65d0fdf48e88e.html" target="_top" xlink:title="include">
<polygon fill="#ffffff" stroke="#ff0000" points="168,-468 114,-468 114,-432 168,-432 168,-468"/>
<text text-anchor="middle" x="141" y="-447.5" font-family="Helvetica,sans-Serif" font-size="10.00" fill="#000000">include</text>
</a>
</g>
</g>
<!-- dir_37c90836491b695b472bf98d1be8336b -->
<g id="node5" class="node">
<title>dir_37c90836491b695b472bf98d1be8336b</title>
<g id="a_node5"><a xlink:href="dir_37c90836491b695b472bf98d1be8336b.html" target="_top" xlink:title="Base">
<polygon fill="none" stroke="#ff0000" points="262,-396 208,-396 208,-360 262,-360 262,-396"/>
<text text-anchor="middle" x="235" y="-375.5" font-family="Helvetica,sans-Serif" font-size="10.00" fill="#000000">Base</text>
</a>
</g>
</g>
<!-- dir_4ea160d701b771c477e65d0fdf48e88e&#45;&gt;dir_37c90836491b695b472bf98d1be8336b -->
<g id="edge1" class="edge">
<title>dir_4ea160d701b771c477e65d0fdf48e88e&#45;&gt;dir_37c90836491b695b472bf98d1be8336b</title>
<path fill="none" stroke="#000000" d="M164.7202,-431.8314C176.4094,-422.8779 190.6688,-411.9558 203.2809,-402.2955"/>
<polygon fill="#000000" stroke="#000000" points="205.4769,-405.0222 211.2874,-396.1628 201.2203,-399.4651 205.4769,-405.0222"/>
<g id="a_edge1&#45;headlabel"><a xlink:href="dir_000297_000274.html" target="_top" xlink:title="1">
<text text-anchor="middle" x="204.3497" y="-406.962" font-family="Helvetica,sans-Serif" font-size="10.00" fill="#000000">1</text>
</a>
</g>
</g>
<!-- dir_85bf31a2e8d306e7598ffcb73f8df6bf -->
<g id="node6" class="node">
<title>dir_85bf31a2e8d306e7598ffcb73f8df6bf</title>
<g id="a_node6"><a xlink:href="dir_85bf31a2e8d306e7598ffcb73f8df6bf.html" target="_top" xlink:title="common">
<polygon fill="none" stroke="#ff0000" points="315.5,-108 256.5,-108 256.5,-72 315.5,-72 315.5,-108"/>
<text text-anchor="middle" x="286" y="-87.5" font-family="Helvetica,sans-Serif" font-size="10.00" fill="#000000">common</text>
</a>
</g>
</g>
<!-- dir_4ea160d701b771c477e65d0fdf48e88e&#45;&gt;dir_85bf31a2e8d306e7598ffcb73f8df6bf -->
<g id="edge2" class="edge">
<title>dir_4ea160d701b771c477e65d0fdf48e88e&#45;&gt;dir_85bf31a2e8d306e7598ffcb73f8df6bf</title>
<path fill="none" stroke="#000000" d="M142.1354,-431.9688C145.9978,-382.3033 162.015,-240.7879 223,-144 230.0291,-132.8442 240.0856,-122.7626 250.106,-114.4131"/>
<polygon fill="#000000" stroke="#000000" points="252.4097,-117.0533 258.0759,-108.1009 248.0636,-111.5659 252.4097,-117.0533"/>
<g id="a_edge2&#45;headlabel"><a xlink:href="dir_000297_000061.html" target="_top" xlink:title="4">
<text text-anchor="middle" x="251.3546" y="-119.0108" font-family="Helvetica,sans-Serif" font-size="10.00" fill="#000000">4</text>
</a>
</g>
</g>
<!-- dir_2171f7ec022c5423887b07c69b2f5b48 -->
<g id="node10" class="node">
<title>dir_2171f7ec022c5423887b07c69b2f5b48</title>
<g id="a_node10"><a xlink:href="dir_2171f7ec022c5423887b07c69b2f5b48.html" target="_top" xlink:title="DataFormats">
<polygon fill="none" stroke="#ff0000" points="326,-180 246,-180 246,-144 326,-144 326,-180"/>
<text text-anchor="middle" x="286" y="-159.5" font-family="Helvetica,sans-Serif" font-size="10.00" fill="#000000">DataFormats</text>
</a>
</g>
</g>
<!-- dir_4ea160d701b771c477e65d0fdf48e88e&#45;&gt;dir_2171f7ec022c5423887b07c69b2f5b48 -->
<g id="edge3" class="edge">
<title>dir_4ea160d701b771c477e65d0fdf48e88e&#45;&gt;dir_2171f7ec022c5423887b07c69b2f5b48</title>
<path fill="none" stroke="#000000" d="M150.0114,-431.7494C169.5183,-392.2934 217.1909,-296.1396 258,-216 262.387,-207.385 267.217,-198.0259 271.6122,-189.5567"/>
<polygon fill="#000000" stroke="#000000" points="274.8343,-190.9467 276.343,-180.4598 268.6239,-187.7169 274.8343,-190.9467"/>
<g id="a_edge3&#45;headlabel"><a xlink:href="dir_000297_000076.html" target="_top" xlink:title="3">
<text text-anchor="middle" x="275.6949" y="-192.9458" font-family="Helvetica,sans-Serif" font-size="10.00" fill="#000000">3</text>
</a>
</g>
</g>
<!-- dir_a2acb30c8e273b0bd9a81b3e5dc220f6 -->
<g id="node3" class="node">
<title>dir_a2acb30c8e273b0bd9a81b3e5dc220f6</title>
<g id="a_node3"><a xlink:href="dir_a2acb30c8e273b0bd9a81b3e5dc220f6.html" target="_top" xlink:title="src">
<polygon fill="#ffffff" stroke="#000000" points="161,-540 107,-540 107,-504 161,-504 161,-540"/>
<text text-anchor="middle" x="134" y="-519.5" font-family="Helvetica,sans-Serif" font-size="10.00" fill="#000000">src</text>
</a>
</g>
</g>
<!-- dir_a2acb30c8e273b0bd9a81b3e5dc220f6&#45;&gt;dir_4ea160d701b771c477e65d0fdf48e88e -->
<g id="edge20" class="edge">
<title>dir_a2acb30c8e273b0bd9a81b3e5dc220f6&#45;&gt;dir_4ea160d701b771c477e65d0fdf48e88e</title>
<path fill="none" stroke="#000000" d="M135.7664,-503.8314C136.515,-496.131 137.4053,-486.9743 138.2373,-478.4166"/>
<polygon fill="#000000" stroke="#000000" points="141.7256,-478.7051 139.2098,-468.4133 134.7585,-478.0276 141.7256,-478.7051"/>
<g id="a_edge20&#45;headlabel"><a xlink:href="dir_000325_000297.html" target="_top" xlink:title="2">
<text text-anchor="middle" x="144.2038" y="-480.0575" font-family="Helvetica,sans-Serif" font-size="10.00" fill="#000000">2</text>
</a>
</g>
</g>
<!-- dir_4ab6b4cc6a7edbff49100e9123df213f -->
<g id="node4" class="node">
<title>dir_4ab6b4cc6a7edbff49100e9123df213f</title>
<g id="a_node4"><a xlink:href="dir_4ab6b4cc6a7edbff49100e9123df213f.html" target="_top" xlink:title="Common">
<polygon fill="none" stroke="#ff0000" points="431.5,-324 370.5,-324 370.5,-288 431.5,-288 431.5,-324"/>
<text text-anchor="middle" x="401" y="-303.5" font-family="Helvetica,sans-Serif" font-size="10.00" fill="#000000">Common</text>
</a>
</g>
</g>
<!-- dir_a2acb30c8e273b0bd9a81b3e5dc220f6&#45;&gt;dir_4ab6b4cc6a7edbff49100e9123df213f -->
<g id="edge21" class="edge">
<title>dir_a2acb30c8e273b0bd9a81b3e5dc220f6&#45;&gt;dir_4ab6b4cc6a7edbff49100e9123df213f</title>
<path fill="none" stroke="#000000" d="M161.2114,-507.5211C164.1355,-506.2293 167.1013,-505.0249 170,-504 240.3558,-479.1232 276.7345,-515.8482 334,-468 374.9204,-433.809 391.2119,-370.5381 397.4194,-334.0065"/>
<polygon fill="#000000" stroke="#000000" points="400.8934,-334.4435 398.9768,-324.0235 393.9771,-333.3644 400.8934,-334.4435"/>
<g id="a_edge21&#45;headlabel"><a xlink:href="dir_000325_000027.html" target="_top" xlink:title="4">
<text text-anchor="middle" x="403.1448" y="-335.9328" font-family="Helvetica,sans-Serif" font-size="10.00" fill="#000000">4</text>
</a>
</g>
</g>
<!-- dir_a2acb30c8e273b0bd9a81b3e5dc220f6&#45;&gt;dir_85bf31a2e8d306e7598ffcb73f8df6bf -->
<g id="edge22" class="edge">
<title>dir_a2acb30c8e273b0bd9a81b3e5dc220f6&#45;&gt;dir_85bf31a2e8d306e7598ffcb73f8df6bf</title>
<path fill="none" stroke="#000000" d="M111.2493,-503.6661C82.8608,-478.5651 38,-430.581 38,-378 38,-378 38,-378 38,-234 38,-139.0506 175.6317,-105.6531 245.8347,-94.7938"/>
<polygon fill="#000000" stroke="#000000" points="246.6973,-98.205 256.0854,-93.2944 245.6841,-91.2787 246.6973,-98.205"/>
<g id="a_edge22&#45;headlabel"><a xlink:href="dir_000325_000061.html" target="_top" xlink:title="5">
<text text-anchor="middle" x="243.5515" y="-99.0346" font-family="Helvetica,sans-Serif" font-size="10.00" fill="#000000">5</text>
</a>
</g>
</g>
<!-- dir_7e732ae97f4f941436b6909b27d4da36 -->
<g id="node7" class="node">
<title>dir_7e732ae97f4f941436b6909b27d4da36</title>
<g id="a_node7"><a xlink:href="dir_7e732ae97f4f941436b6909b27d4da36.html" target="_top" xlink:title="base">
<polygon fill="none" stroke="#ff0000" points="325,-468 271,-468 271,-432 325,-432 325,-468"/>
<text text-anchor="middle" x="298" y="-447.5" font-family="Helvetica,sans-Serif" font-size="10.00" fill="#000000">base</text>
</a>
</g>
</g>
<!-- dir_a2acb30c8e273b0bd9a81b3e5dc220f6&#45;&gt;dir_7e732ae97f4f941436b6909b27d4da36 -->
<g id="edge23" class="edge">
<title>dir_a2acb30c8e273b0bd9a81b3e5dc220f6&#45;&gt;dir_7e732ae97f4f941436b6909b27d4da36</title>
<path fill="none" stroke="#000000" d="M161.0164,-508.2043C164.0311,-506.7508 167.0703,-505.3224 170,-504 208.8905,-486.4451 219.8401,-484.9453 259,-468 259.8384,-467.6372 260.6858,-467.2679 261.5396,-466.8936"/>
<polygon fill="#000000" stroke="#000000" points="263.0975,-470.0311 270.7999,-462.7561 260.2419,-463.64 263.0975,-470.0311"/>
<g id="a_edge23&#45;headlabel"><a xlink:href="dir_000325_000167.html" target="_top" xlink:title="1">
<text text-anchor="middle" x="260.9738" y="-471.5896" font-family="Helvetica,sans-Serif" font-size="10.00" fill="#000000">1</text>
</a>
</g>
</g>
<!-- dir_bcbb2cf9a3d3d83e5515c82071a07177 -->
<g id="node8" class="node">
<title>dir_bcbb2cf9a3d3d83e5515c82071a07177</title>
<g id="a_node8"><a xlink:href="dir_bcbb2cf9a3d3d83e5515c82071a07177.html" target="_top" xlink:title="Framework">
<polygon fill="none" stroke="#ff0000" points="439.5,-252 368.5,-252 368.5,-216 439.5,-216 439.5,-252"/>
<text text-anchor="middle" x="404" y="-231.5" font-family="Helvetica,sans-Serif" font-size="10.00" fill="#000000">Framework</text>
</a>
</g>
</g>
<!-- dir_a2acb30c8e273b0bd9a81b3e5dc220f6&#45;&gt;dir_bcbb2cf9a3d3d83e5515c82071a07177 -->
<g id="edge24" class="edge">
<title>dir_a2acb30c8e273b0bd9a81b3e5dc220f6&#45;&gt;dir_bcbb2cf9a3d3d83e5515c82071a07177</title>
<path fill="none" stroke="#000000" d="M161.176,-507.4181C164.107,-506.1464 167.0841,-504.9749 170,-504 253.9981,-475.9168 294.7558,-520.6176 366,-468 424.0456,-425.1302 423.8412,-394.0906 441,-324 444.8046,-308.4589 445.7338,-303.2837 441,-288 437.9555,-278.1704 432.4359,-268.5387 426.5729,-260.1946"/>
<polygon fill="#000000" stroke="#000000" points="429.2314,-257.9061 420.4281,-252.011 423.6337,-262.1092 429.2314,-257.9061"/>
<g id="a_edge24&#45;headlabel"><a xlink:href="dir_000325_000013.html" target="_top" xlink:title="1">
<text text-anchor="middle" x="433.6602" y="-256.5758" font-family="Helvetica,sans-Serif" font-size="10.00" fill="#000000">1</text>
</a>
</g>
</g>
<!-- dir_26637d1bd82229bc9ed97f7e706be743 -->
<g id="node9" class="node">
<title>dir_26637d1bd82229bc9ed97f7e706be743</title>
<g id="a_node9"><a xlink:href="dir_26637d1bd82229bc9ed97f7e706be743.html" target="_top" xlink:title="Raw">
<polygon fill="none" stroke="#ff0000" points="371,-36 317,-36 317,0 371,0 371,-36"/>
<text text-anchor="middle" x="344" y="-15.5" font-family="Helvetica,sans-Serif" font-size="10.00" fill="#000000">Raw</text>
</a>
</g>
</g>
<!-- dir_a2acb30c8e273b0bd9a81b3e5dc220f6&#45;&gt;dir_26637d1bd82229bc9ed97f7e706be743 -->
<g id="edge25" class="edge">
<title>dir_a2acb30c8e273b0bd9a81b3e5dc220f6&#45;&gt;dir_26637d1bd82229bc9ed97f7e706be743</title>
<path fill="none" stroke="#000000" d="M106.8208,-511.059C87.0405,-501.9684 60.7229,-487.3913 43,-468 13.0926,-435.2772 0,-422.331 0,-378 0,-378 0,-378 0,-162 0,-96.0633 217.7699,-43.8916 306.7744,-25.3221"/>
<polygon fill="#000000" stroke="#000000" points="307.63,-28.7195 316.7194,-23.2757 306.2191,-21.8631 307.63,-28.7195"/>
<g id="a_edge25&#45;headlabel"><a xlink:href="dir_000325_000576.html" target="_top" xlink:title="1">
<text text-anchor="middle" x="304.6814" y="-29.7249" font-family="Helvetica,sans-Serif" font-size="10.00" fill="#000000">1</text>
</a>
</g>
</g>
<!-- dir_a2acb30c8e273b0bd9a81b3e5dc220f6&#45;&gt;dir_2171f7ec022c5423887b07c69b2f5b48 -->
<g id="edge26" class="edge">
<title>dir_a2acb30c8e273b0bd9a81b3e5dc220f6&#45;&gt;dir_2171f7ec022c5423887b07c69b2f5b48</title>
<path fill="none" stroke="#000000" d="M121.3878,-503.9415C115.1233,-493.866 108.2188,-480.7967 105,-468 99.3625,-445.587 98.354,-438.1349 105,-416 133.8644,-319.8655 215.8299,-229.7752 258.8609,-187.3814"/>
<polygon fill="#000000" stroke="#000000" points="261.4436,-189.7519 266.1709,-180.2701 256.5625,-184.7344 261.4436,-189.7519"/>
<g id="a_edge26&#45;headlabel"><a xlink:href="dir_000325_000076.html" target="_top" xlink:title="6">
<text text-anchor="middle" x="260.8469" y="-191.7935" font-family="Helvetica,sans-Serif" font-size="10.00" fill="#000000">6</text>
</a>
</g>
</g>
<!-- dir_4ab6b4cc6a7edbff49100e9123df213f&#45;&gt;dir_bcbb2cf9a3d3d83e5515c82071a07177 -->
<g id="edge4" class="edge">
<title>dir_4ab6b4cc6a7edbff49100e9123df213f&#45;&gt;dir_bcbb2cf9a3d3d83e5515c82071a07177</title>
<path fill="none" stroke="#000000" d="M395.8046,-287.8314C395.3751,-280.131 395.5357,-270.9743 396.2009,-262.4166"/>
<polygon fill="#000000" stroke="#000000" points="399.6876,-262.7254 397.2568,-252.4133 392.7263,-261.9906 399.6876,-262.7254"/>
<g id="a_edge4&#45;headlabel"><a xlink:href="dir_000027_000013.html" target="_top" xlink:title="2">
<text text-anchor="middle" x="402.134" y="-264.0982" font-family="Helvetica,sans-Serif" font-size="10.00" fill="#000000">2</text>
</a>
</g>
</g>
<!-- dir_4ab6b4cc6a7edbff49100e9123df213f&#45;&gt;dir_2171f7ec022c5423887b07c69b2f5b48 -->
<g id="edge5" class="edge">
<title>dir_4ab6b4cc6a7edbff49100e9123df213f&#45;&gt;dir_2171f7ec022c5423887b07c69b2f5b48</title>
<path fill="none" stroke="#000000" d="M381.762,-287.7623C359.2011,-262.66 322.7458,-217.3017 301.7689,-188.4671"/>
<polygon fill="#000000" stroke="#000000" points="304.4472,-186.1949 295.7883,-180.0896 298.75,-190.2621 304.4472,-186.1949"/>
<g id="a_edge5&#45;headlabel"><a xlink:href="dir_000027_000076.html" target="_top" xlink:title="2">
<text text-anchor="middle" x="308.8466" y="-184.9708" font-family="Helvetica,sans-Serif" font-size="10.00" fill="#000000">2</text>
</a>
</g>
</g>
<!-- dir_37c90836491b695b472bf98d1be8336b&#45;&gt;dir_4ab6b4cc6a7edbff49100e9123df213f -->
<g id="edge6" class="edge">
<title>dir_37c90836491b695b472bf98d1be8336b&#45;&gt;dir_4ab6b4cc6a7edbff49100e9123df213f</title>
<path fill="none" stroke="#000000" d="M262.0402,-366.2717C288.8167,-354.6578 330.1377,-336.7355 360.7673,-323.4503"/>
<polygon fill="#000000" stroke="#000000" points="362.5229,-326.504 370.3043,-319.3138 359.7374,-320.082 362.5229,-326.504"/>
<g id="a_edge6&#45;headlabel"><a xlink:href="dir_000274_000027.html" target="_top" xlink:title="16">
<text text-anchor="middle" x="360.3549" y="-328.0391" font-family="Helvetica,sans-Serif" font-size="10.00" fill="#000000">16</text>
</a>
</g>
</g>
<!-- dir_37c90836491b695b472bf98d1be8336b&#45;&gt;dir_bcbb2cf9a3d3d83e5515c82071a07177 -->
<g id="edge7" class="edge">
<title>dir_37c90836491b695b472bf98d1be8336b&#45;&gt;dir_bcbb2cf9a3d3d83e5515c82071a07177</title>
<path fill="none" stroke="#000000" d="M256.404,-359.7623C286.4992,-334.119 341.4029,-287.3372 375.0984,-258.6262"/>
<polygon fill="#000000" stroke="#000000" points="377.4282,-261.2394 382.7698,-252.0896 372.8882,-255.9112 377.4282,-261.2394"/>
<g id="a_edge7&#45;headlabel"><a xlink:href="dir_000274_000013.html" target="_top" xlink:title="1">
<text text-anchor="middle" x="376.5336" y="-263.2318" font-family="Helvetica,sans-Serif" font-size="10.00" fill="#000000">1</text>
</a>
</g>
</g>
<!-- dir_37c90836491b695b472bf98d1be8336b&#45;&gt;dir_2171f7ec022c5423887b07c69b2f5b48 -->
<g id="edge8" class="edge">
<title>dir_37c90836491b695b472bf98d1be8336b&#45;&gt;dir_2171f7ec022c5423887b07c69b2f5b48</title>
<path fill="none" stroke="#000000" d="M232.8966,-359.9169C235.2708,-329.8742 247.7374,-267.8502 261,-216 263.1705,-207.5144 265.7811,-198.3555 268.6436,-190.0334"/>
<polygon fill="#000000" stroke="#000000" points="272.022,-190.9914 272.2475,-180.399 265.4657,-188.5389 272.022,-190.9914"/>
<g id="a_edge8&#45;headlabel"><a xlink:href="dir_000274_000076.html" target="_top" xlink:title="12">
<text text-anchor="middle" x="273.422" y="-192.8529" font-family="Helvetica,sans-Serif" font-size="10.00" fill="#000000">12</text>
</a>
</g>
</g>
<!-- dir_85bf31a2e8d306e7598ffcb73f8df6bf&#45;&gt;dir_4ab6b4cc6a7edbff49100e9123df213f -->
<g id="edge9" class="edge">
<title>dir_85bf31a2e8d306e7598ffcb73f8df6bf&#45;&gt;dir_4ab6b4cc6a7edbff49100e9123df213f</title>
<path fill="none" stroke="#000000" d="M315.6673,-102.3578C354.9282,-120.5797 422.2884,-158.7996 449,-216 455.7699,-230.4972 454.6861,-237.0445 449,-252 444.9728,-262.5924 437.81,-272.4338 430.2263,-280.7351"/>
<polygon fill="#000000" stroke="#000000" points="427.7074,-278.305 423.2213,-287.9032 432.7138,-283.1975 427.7074,-278.305"/>
<g id="a_edge9&#45;headlabel"><a xlink:href="dir_000061_000027.html" target="_top" xlink:title="21">
<text text-anchor="middle" x="428.1891" y="-271.2497" font-family="Helvetica,sans-Serif" font-size="10.00" fill="#000000">21</text>
</a>
</g>
</g>
<!-- dir_85bf31a2e8d306e7598ffcb73f8df6bf&#45;&gt;dir_37c90836491b695b472bf98d1be8336b -->
<g id="edge10" class="edge">
<title>dir_85bf31a2e8d306e7598ffcb73f8df6bf&#45;&gt;dir_37c90836491b695b472bf98d1be8336b</title>
<path fill="none" stroke="#000000" d="M263.3769,-108.0293C253.2754,-117.5277 242.4397,-130.0876 237,-144 209.6762,-213.8826 220.7374,-304.7279 229.0193,-349.9145"/>
<polygon fill="#000000" stroke="#000000" points="225.6081,-350.7099 230.9363,-359.8675 232.4817,-349.3859 225.6081,-350.7099"/>
<g id="a_edge10&#45;headlabel"><a xlink:href="dir_000061_000274.html" target="_top" xlink:title="2">
<text text-anchor="middle" x="222.1403" y="-345.2172" font-family="Helvetica,sans-Serif" font-size="10.00" fill="#000000">2</text>
</a>
</g>
</g>
<!-- dir_85bf31a2e8d306e7598ffcb73f8df6bf&#45;&gt;dir_bcbb2cf9a3d3d83e5515c82071a07177 -->
<g id="edge11" class="edge">
<title>dir_85bf31a2e8d306e7598ffcb73f8df6bf&#45;&gt;dir_bcbb2cf9a3d3d83e5515c82071a07177</title>
<path fill="none" stroke="#000000" d="M303.1673,-108.159C312.7495,-118.4812 324.7794,-131.7539 335,-144 352.3465,-164.7842 370.9647,-189.2054 384.4842,-207.3607"/>
<polygon fill="#000000" stroke="#000000" points="381.9177,-209.7759 390.6835,-215.7266 387.5418,-205.6083 381.9177,-209.7759"/>
<g id="a_edge11&#45;headlabel"><a xlink:href="dir_000061_000013.html" target="_top" xlink:title="32">
<text text-anchor="middle" x="377.4964" y="-206.0783" font-family="Helvetica,sans-Serif" font-size="10.00" fill="#000000">32</text>
</a>
</g>
</g>
<!-- dir_85bf31a2e8d306e7598ffcb73f8df6bf&#45;&gt;dir_26637d1bd82229bc9ed97f7e706be743 -->
<g id="edge12" class="edge">
<title>dir_85bf31a2e8d306e7598ffcb73f8df6bf&#45;&gt;dir_26637d1bd82229bc9ed97f7e706be743</title>
<path fill="none" stroke="#000000" d="M300.6358,-71.8314C307.3161,-63.5386 315.3568,-53.557 322.6904,-44.4533"/>
<polygon fill="#000000" stroke="#000000" points="325.6194,-46.3965 329.1671,-36.4133 320.1681,-42.0052 325.6194,-46.3965"/>
<g id="a_edge12&#45;headlabel"><a xlink:href="dir_000061_000576.html" target="_top" xlink:title="7">
<text text-anchor="middle" x="325.5755" y="-48.4769" font-family="Helvetica,sans-Serif" font-size="10.00" fill="#000000">7</text>
</a>
</g>
</g>
<!-- dir_85bf31a2e8d306e7598ffcb73f8df6bf&#45;&gt;dir_2171f7ec022c5423887b07c69b2f5b48 -->
<g id="edge13" class="edge">
<title>dir_85bf31a2e8d306e7598ffcb73f8df6bf&#45;&gt;dir_2171f7ec022c5423887b07c69b2f5b48</title>
<path fill="none" stroke="#000000" d="M291.976,-108.4133C292.7071,-116.0593 292.9203,-125.1084 292.6155,-133.5726"/>
<polygon fill="#000000" stroke="#000000" points="289.1048,-133.6264 291.9524,-143.8314 296.0902,-134.078 289.1048,-133.6264"/>
<g id="a_edge13&#45;headlabel"><a xlink:href="dir_000061_000076.html" target="_top" xlink:title="70">
<text text-anchor="middle" x="286.5032" y="-127.3562" font-family="Helvetica,sans-Serif" font-size="10.00" fill="#000000">70</text>
</a>
</g>
</g>
<!-- dir_7e732ae97f4f941436b6909b27d4da36&#45;&gt;dir_4ab6b4cc6a7edbff49100e9123df213f -->
<g id="edge14" class="edge">
<title>dir_7e732ae97f4f941436b6909b27d4da36&#45;&gt;dir_4ab6b4cc6a7edbff49100e9123df213f</title>
<path fill="none" stroke="#000000" d="M311.045,-431.7623C329.0001,-406.66 361.4439,-361.3017 382.0687,-332.4671"/>
<polygon fill="#000000" stroke="#000000" points="385.0899,-334.2594 388.0609,-324.0896 379.3964,-330.1869 385.0899,-334.2594"/>
<g id="a_edge14&#45;headlabel"><a xlink:href="dir_000167_000027.html" target="_top" xlink:title="4">
<text text-anchor="middle" x="385.308" y="-336.3348" font-family="Helvetica,sans-Serif" font-size="10.00" fill="#000000">4</text>
</a>
</g>
</g>
<!-- dir_7e732ae97f4f941436b6909b27d4da36&#45;&gt;dir_37c90836491b695b472bf98d1be8336b -->
<g id="edge15" class="edge">
<title>dir_7e732ae97f4f941436b6909b27d4da36&#45;&gt;dir_37c90836491b695b472bf98d1be8336b</title>
<path fill="none" stroke="#000000" d="M282.1024,-431.8314C274.7722,-423.454 265.934,-413.3531 257.9031,-404.1749"/>
<polygon fill="#000000" stroke="#000000" points="260.3307,-401.6343 251.1116,-396.4133 255.0627,-406.2438 260.3307,-401.6343"/>
<g id="a_edge15&#45;headlabel"><a xlink:href="dir_000167_000274.html" target="_top" xlink:title="2">
<text text-anchor="middle" x="264.8345" y="-399.9698" font-family="Helvetica,sans-Serif" font-size="10.00" fill="#000000">2</text>
</a>
</g>
</g>
<!-- dir_7e732ae97f4f941436b6909b27d4da36&#45;&gt;dir_85bf31a2e8d306e7598ffcb73f8df6bf -->
<g id="edge16" class="edge">
<title>dir_7e732ae97f4f941436b6909b27d4da36&#45;&gt;dir_85bf31a2e8d306e7598ffcb73f8df6bf</title>
<path fill="none" stroke="#000000" d="M325.2521,-433.2317C379.1755,-397.6891 492.0369,-310.2723 465,-216 454.5969,-179.7264 448.9194,-168.2419 420,-144 392.5748,-121.0106 354.0963,-106.8732 325.4041,-98.8618"/>
<polygon fill="#000000" stroke="#000000" points="326.2614,-95.4682 315.6976,-96.279 324.4614,-102.2328 326.2614,-95.4682"/>
<g id="a_edge16&#45;headlabel"><a xlink:href="dir_000167_000061.html" target="_top" xlink:title="7">
<text text-anchor="middle" x="330.4652" y="-91.1486" font-family="Helvetica,sans-Serif" font-size="10.00" fill="#000000">7</text>
</a>
</g>
</g>
<!-- dir_7e732ae97f4f941436b6909b27d4da36&#45;&gt;dir_2171f7ec022c5423887b07c69b2f5b48 -->
<g id="edge17" class="edge">
<title>dir_7e732ae97f4f941436b6909b27d4da36&#45;&gt;dir_2171f7ec022c5423887b07c69b2f5b48</title>
<path fill="none" stroke="#000000" d="M297.2493,-431.9843C295.2206,-383.2939 289.6165,-248.7961 287.1691,-190.0573"/>
<polygon fill="#000000" stroke="#000000" points="290.6637,-189.8545 286.7504,-180.0089 283.6698,-190.146 290.6637,-189.8545"/>
<g id="a_edge17&#45;headlabel"><a xlink:href="dir_000167_000076.html" target="_top" xlink:title="1">
<text text-anchor="middle" x="293.6501" y="-190.8278" font-family="Helvetica,sans-Serif" font-size="10.00" fill="#000000">1</text>
</a>
</g>
</g>
<!-- dir_bcbb2cf9a3d3d83e5515c82071a07177&#45;&gt;dir_4ab6b4cc6a7edbff49100e9123df213f -->
<g id="edge18" class="edge">
<title>dir_bcbb2cf9a3d3d83e5515c82071a07177&#45;&gt;dir_4ab6b4cc6a7edbff49100e9123df213f</title>
<path fill="none" stroke="#000000" d="M409.2088,-252.4133C409.6259,-260.1442 409.4537,-269.3097 408.7779,-277.8545"/>
<polygon fill="#000000" stroke="#000000" points="405.2942,-277.5155 407.7094,-287.8314 412.2544,-278.2609 405.2942,-277.5155"/>
<g id="a_edge18&#45;headlabel"><a xlink:href="dir_000013_000027.html" target="_top" xlink:title="8">
<text text-anchor="middle" x="402.8538" y="-271.139" font-family="Helvetica,sans-Serif" font-size="10.00" fill="#000000">8</text>
</a>
</g>
</g>
<!-- dir_bcbb2cf9a3d3d83e5515c82071a07177&#45;&gt;dir_2171f7ec022c5423887b07c69b2f5b48 -->
<g id="edge19" class="edge">
<title>dir_bcbb2cf9a3d3d83e5515c82071a07177&#45;&gt;dir_2171f7ec022c5423887b07c69b2f5b48</title>
<path fill="none" stroke="#000000" d="M368.2712,-215.8314C352.4289,-206.7074 333.9795,-195.539 318.5256,-185.7449"/>
<polygon fill="#000000" stroke="#000000" points="320.123,-182.6116 309.815,-180.1628 316.3461,-188.5052 320.123,-182.6116"/>
<g id="a_edge19&#45;headlabel"><a xlink:href="dir_000013_000076.html" target="_top" xlink:title="82">
<text text-anchor="middle" x="324.6814" y="-179.6605" font-family="Helvetica,sans-Serif" font-size="10.00" fill="#000000">82</text>
</a>
</g>
</g>
<!-- dir_26637d1bd82229bc9ed97f7e706be743&#45;&gt;dir_4ab6b4cc6a7edbff49100e9123df213f -->
<g id="edge27" class="edge">
<title>dir_26637d1bd82229bc9ed97f7e706be743&#45;&gt;dir_4ab6b4cc6a7edbff49100e9123df213f</title>
<path fill="none" stroke="#000000" d="M360.1047,-36.2537C388.053,-69.3002 444.5095,-142.46 465,-216 469.2945,-231.4129 471.7421,-237.4899 465,-252 459.4895,-263.8595 449.9496,-274.0518 439.8924,-282.2844"/>
<polygon fill="#000000" stroke="#000000" points="437.6175,-279.6175 431.7829,-288.461 441.859,-285.1862 437.6175,-279.6175"/>
<g id="a_edge27&#45;headlabel"><a xlink:href="dir_000576_000027.html" target="_top" xlink:title="10">
<text text-anchor="middle" x="438.7568" y="-272.6808" font-family="Helvetica,sans-Serif" font-size="10.00" fill="#000000">10</text>
</a>
</g>
</g>
<!-- dir_26637d1bd82229bc9ed97f7e706be743&#45;&gt;dir_bcbb2cf9a3d3d83e5515c82071a07177 -->
<g id="edge28" class="edge">
<title>dir_26637d1bd82229bc9ed97f7e706be743&#45;&gt;dir_bcbb2cf9a3d3d83e5515c82071a07177</title>
<path fill="none" stroke="#000000" d="M349.0403,-36.1451C359.5427,-73.9537 383.8267,-161.3762 396.2999,-206.2797"/>
<polygon fill="#000000" stroke="#000000" points="392.9388,-207.2571 398.9876,-215.9555 399.6834,-205.3835 392.9388,-207.2571"/>
<g id="a_edge28&#45;headlabel"><a xlink:href="dir_000576_000013.html" target="_top" xlink:title="25">
<text text-anchor="middle" x="389.2411" y="-202.0535" font-family="Helvetica,sans-Serif" font-size="10.00" fill="#000000">25</text>
</a>
</g>
</g>
<!-- dir_26637d1bd82229bc9ed97f7e706be743&#45;&gt;dir_2171f7ec022c5423887b07c69b2f5b48 -->
<g id="edge29" class="edge">
<title>dir_26637d1bd82229bc9ed97f7e706be743&#45;&gt;dir_2171f7ec022c5423887b07c69b2f5b48</title>
<path fill="none" stroke="#000000" d="M342.0832,-36.2446C339.6383,-54.9076 334.4123,-84.4273 324,-108 319.806,-117.4949 313.8249,-127.0287 307.8456,-135.386"/>
<polygon fill="#000000" stroke="#000000" points="304.8754,-133.5137 301.6902,-143.6184 310.4816,-137.7055 304.8754,-133.5137"/>
<g id="a_edge29&#45;headlabel"><a xlink:href="dir_000576_000076.html" target="_top" xlink:title="15">
<text text-anchor="middle" x="304.754" y="-126.4346" font-family="Helvetica,sans-Serif" font-size="10.00" fill="#000000">15</text>
</a>
</g>
</g>
<!-- dir_2171f7ec022c5423887b07c69b2f5b48&#45;&gt;dir_4ab6b4cc6a7edbff49100e9123df213f -->
<g id="edge30" class="edge">
<title>dir_2171f7ec022c5423887b07c69b2f5b48&#45;&gt;dir_4ab6b4cc6a7edbff49100e9123df213f</title>
<path fill="none" stroke="#000000" d="M305.1049,-180.0896C327.6109,-205.1119 364.0692,-250.4628 385.107,-279.3623"/>
<polygon fill="#000000" stroke="#000000" points="382.4472,-281.6603 391.1083,-287.7623 388.1429,-277.5909 382.4472,-281.6603"/>
<g id="a_edge30&#45;headlabel"><a xlink:href="dir_000076_000027.html" target="_top" xlink:title="35">
<text text-anchor="middle" x="378.0473" y="-277.886" font-family="Helvetica,sans-Serif" font-size="10.00" fill="#000000">35</text>
</a>
</g>
</g>
<!-- dir_2171f7ec022c5423887b07c69b2f5b48&#45;&gt;dir_37c90836491b695b472bf98d1be8336b -->
<g id="edge31" class="edge">
<title>dir_2171f7ec022c5423887b07c69b2f5b48&#45;&gt;dir_37c90836491b695b472bf98d1be8336b</title>
<path fill="none" stroke="#000000" d="M288.1013,-180.399C285.9767,-190.7962 282.053,-204.0642 279,-216 267.0326,-262.7867 255.7133,-317.8572 246.7999,-350.2396"/>
<polygon fill="#000000" stroke="#000000" points="243.4173,-349.3377 243.9928,-359.9169 250.1402,-351.2879 243.4173,-349.3377"/>
<g id="a_edge31&#45;headlabel"><a xlink:href="dir_000076_000274.html" target="_top" xlink:title="1">
<text text-anchor="middle" x="241.6918" y="-342.5944" font-family="Helvetica,sans-Serif" font-size="10.00" fill="#000000">1</text>
</a>
</g>
</g>
<!-- dir_2171f7ec022c5423887b07c69b2f5b48&#45;&gt;dir_85bf31a2e8d306e7598ffcb73f8df6bf -->
<g id="edge32" class="edge">
<title>dir_2171f7ec022c5423887b07c69b2f5b48&#45;&gt;dir_85bf31a2e8d306e7598ffcb73f8df6bf</title>
<path fill="none" stroke="#000000" d="M280.0476,-143.8314C279.2972,-136.131 279.0763,-126.9743 279.3849,-118.4166"/>
<polygon fill="#000000" stroke="#000000" points="282.8792,-118.6161 280.024,-108.4133 275.8935,-118.1697 282.8792,-118.6161"/>
<g id="a_edge32&#45;headlabel"><a xlink:href="dir_000076_000061.html" target="_top" xlink:title="1">
<text text-anchor="middle" x="285.4836" y="-119.8844" font-family="Helvetica,sans-Serif" font-size="10.00" fill="#000000">1</text>
</a>
</g>
</g>
<!-- dir_2171f7ec022c5423887b07c69b2f5b48&#45;&gt;dir_bcbb2cf9a3d3d83e5515c82071a07177 -->
<g id="edge33" class="edge">
<title>dir_2171f7ec022c5423887b07c69b2f5b48&#45;&gt;dir_bcbb2cf9a3d3d83e5515c82071a07177</title>
<path fill="none" stroke="#000000" d="M321.7187,-180.1628C337.5599,-189.2859 356.0094,-200.4541 371.4646,-210.2489"/>
<polygon fill="#000000" stroke="#000000" points="369.868,-213.3827 380.176,-215.8314 373.6448,-207.489 369.868,-213.3827"/>
<g id="a_edge33&#45;headlabel"><a xlink:href="dir_000076_000013.html" target="_top" xlink:title="11">
<text text-anchor="middle" x="365.3096" y="-211.3339" font-family="Helvetica,sans-Serif" font-size="10.00" fill="#000000">11</text>
</a>
</g>
</g>
</g>
</svg>
        <g id="navigator" transform="translate(0 0)" fill="#404254">
                <rect fill="#f2f5e9" fill-opacity="0.5" stroke="#606060" stroke-width=".5" x="0" y="0" width="60" height="60"/>
                <use id="zoomplus" xlink:href="#zoomPlus" x="17" y="9" onmousedown="handleZoom(evt,'in')"/>
                <use id="zoomminus" xlink:href="#zoomMin" x="42" y="9" onmousedown="handleZoom(evt,'out')"/>
                <use id="reset" xlink:href="#resetDef" x="30" y="36" onmousedown="handleReset()"/>
                <g id="arrowUp" xlink:href="#dirArrow" transform="translate(30 24)" onmousedown="handlePan(0,-1)">
                  <use xlink:href="#rim" fill="#404040">
                        <set attributeName="fill" to="#808080" begin="arrowUp.mouseover" end="arrowUp.mouseout"/>
                  </use>
                  <path fill="none" stroke="white" stroke-width="1.5" d="M0,-3.0v7 M-2.5,-0.5L0,-3.0L2.5,-0.5"/>
                </g>
                <g id="arrowRight" xlink:href="#dirArrow" transform="rotate(90) translate(36 -43)" onmousedown="handlePan(1,0)">
                  <use xlink:href="#rim" fill="#404040">
                        <set attributeName="fill" to="#808080" begin="arrowRight.mouseover" end="arrowRight.mouseout"/>
                  </use>
                  <path fill="none" stroke="white" stroke-width="1.5" d="M0,-3.0v7 M-2.5,-0.5L0,-3.0L2.5,-0.5"/>
                </g>
                <g id="arrowDown" xlink:href="#dirArrow" transform="rotate(180) translate(-30 -48)" onmousedown="handlePan(0,1)">
                  <use xlink:href="#rim" fill="#404040">
                        <set attributeName="fill" to="#808080" begin="arrowDown.mouseover" end="arrowDown.mouseout"/>
                  </use>
                  <path fill="none" stroke="white" stroke-width="1.5" d="M0,-3.0v7 M-2.5,-0.5L0,-3.0L2.5,-0.5"/>
                </g>
                <g id="arrowLeft" xlink:href="#dirArrow" transform="rotate(270) translate(-36 17)" onmousedown="handlePan(-1,0)">
                  <use xlink:href="#rim" fill="#404040">
                        <set attributeName="fill" to="#808080" begin="arrowLeft.mouseover" end="arrowLeft.mouseout"/>
                  </use>
                  <path fill="none" stroke="white" stroke-width="1.5" d="M0,-3.0v7 M-2.5,-0.5L0,-3.0L2.5,-0.5"/>
                </g>
        </g>
        <svg viewBox="0 0 15 15" width="100%" height="30px" preserveAspectRatio="xMaxYMin meet">
         <g id="arrow_out" transform="scale(0.3 0.3)">
          <a xlink:href="dir_a336bf94aab96007822cb34c9e2cb8a5_dep_org.svg" target="_base">
           <rect id="button" ry="5" rx="5" y="6" x="6" height="38" width="38"
                fill="#f2f5e9" fill-opacity="0.5" stroke="#606060" stroke-width="1.0"/>
           <path id="arrow"
             d="M 11.500037,31.436501 C 11.940474,20.09759 22.043105,11.32322 32.158766,21.979434 L 37.068811,17.246167 C 37.068811,17.246167 37.088388,32 37.088388,32 L 22.160133,31.978069 C 22.160133,31.978069 26.997745,27.140456 26.997745,27.140456 C 18.528582,18.264221 13.291696,25.230495 11.500037,31.436501 z"
             style="fill:#404040;"/>
          </a>
         </g>
        </svg>
</svg>
