<?xml version="1.0" encoding="UTF-8" standalone="no"?>
<!DOCTYPE svg PUBLIC "-//W3C//DTD SVG 1.1//EN"
 "http://www.w3.org/Graphics/SVG/1.1/DTD/svg11.dtd">
<!-- Generated by graphviz version 2.40.1 (20161225.0304)
 -->
<!-- Title: /home/travis/build/AliceO2Group/AliceO2/Detectors/ITSMFT/ITS/QC Pages: 1 -->
<svg width="292pt" height="447pt"
 viewBox="0.00 0.00 292.15 447.00" xmlns="http://www.w3.org/2000/svg" xmlns:xlink="http://www.w3.org/1999/xlink">
<g id="graph0" class="graph" transform="scale(1 1) rotate(0) translate(4 443)">
<title>/home/travis/build/AliceO2Group/AliceO2/Detectors/ITSMFT/ITS/QC</title>
<g id="clust1" class="cluster">
<title>clusterdir_871aad07cbf94d6cd423c3d8d5bdf4e9</title>
<g id="a_clust1"><a xlink:href="dir_871aad07cbf94d6cd423c3d8d5bdf4e9.html" target="_top" xlink:title="ITS">
<polygon fill="#ddddee" stroke="#000000" points="29,-344 29,-431 271,-431 271,-344 29,-344"/>
<text text-anchor="middle" x="150" y="-419" font-family="Helvetica,sans-Serif" font-size="10.00" fill="#000000">ITS</text>
</a>
</g>
</g>
<g id="clust2" class="cluster">
<title>clusterdir_d5c056ffd2116a6a505b3721535123f4</title>
<g id="a_clust2"><a xlink:href="dir_d5c056ffd2116a6a505b3721535123f4.html" target="_top">
<polygon fill="#eeeeff" stroke="#000000" points="37,-352 37,-404 263,-404 263,-352 37,-352"/>
</a>
</g>
</g>
<!-- dir_d5c056ffd2116a6a505b3721535123f4 -->
<g id="node1" class="node">
<title>dir_d5c056ffd2116a6a505b3721535123f4</title>
<text text-anchor="middle" x="228" y="-375.5" font-family="Helvetica,sans-Serif" font-size="10.00" fill="#000000">QC</text>
</g>
<!-- dir_d1f145d255769e420d34c87805445e7e -->
<g id="node2" class="node">
<title>dir_d1f145d255769e420d34c87805445e7e</title>
<g id="a_node2"><a xlink:href="dir_d1f145d255769e420d34c87805445e7e.html" target="_top" xlink:title="TestDataReaderWorkflow">
<polygon fill="#ffffff" stroke="#ff0000" points="183,-396 45,-396 45,-360 183,-360 183,-396"/>
<text text-anchor="middle" x="114" y="-375.5" font-family="Helvetica,sans-Serif" font-size="10.00" fill="#000000">TestDataReaderWorkflow</text>
</a>
</g>
</g>
<!-- dir_eedff867f3c4e67d20b227cb6e0f96ab -->
<g id="node3" class="node">
<title>dir_eedff867f3c4e67d20b227cb6e0f96ab</title>
<g id="a_node3"><a xlink:href="dir_eedff867f3c4e67d20b227cb6e0f96ab.html" target="_top" xlink:title="base">
<polygon fill="none" stroke="#ff0000" points="141,-324 87,-324 87,-288 141,-288 141,-324"/>
<text text-anchor="middle" x="114" y="-303.5" font-family="Helvetica,sans-Serif" font-size="10.00" fill="#000000">base</text>
</a>
</g>
</g>
<!-- dir_d1f145d255769e420d34c87805445e7e&#45;&gt;dir_eedff867f3c4e67d20b227cb6e0f96ab -->
<g id="edge1" class="edge">
<title>dir_d1f145d255769e420d34c87805445e7e&#45;&gt;dir_eedff867f3c4e67d20b227cb6e0f96ab</title>
<path fill="none" stroke="#000000" d="M114,-359.8314C114,-352.131 114,-342.9743 114,-334.4166"/>
<polygon fill="#000000" stroke="#000000" points="117.5001,-334.4132 114,-324.4133 110.5001,-334.4133 117.5001,-334.4132"/>
<g id="a_edge1&#45;headlabel"><a xlink:href="dir_000495_000479.html" target="_top" xlink:title="2">
<text text-anchor="middle" x="120.3393" y="-335.5079" font-family="Helvetica,sans-Serif" font-size="10.00" fill="#000000">2</text>
</a>
</g>
</g>
<!-- dir_37c90836491b695b472bf98d1be8336b -->
<g id="node4" class="node">
<title>dir_37c90836491b695b472bf98d1be8336b</title>
<g id="a_node4"><a xlink:href="dir_37c90836491b695b472bf98d1be8336b.html" target="_top" xlink:title="Base">
<polygon fill="none" stroke="#ff0000" points="196,-252 142,-252 142,-216 196,-216 196,-252"/>
<text text-anchor="middle" x="169" y="-231.5" font-family="Helvetica,sans-Serif" font-size="10.00" fill="#000000">Base</text>
</a>
</g>
</g>
<!-- dir_d1f145d255769e420d34c87805445e7e&#45;&gt;dir_37c90836491b695b472bf98d1be8336b -->
<g id="edge2" class="edge">
<title>dir_d1f145d255769e420d34c87805445e7e&#45;&gt;dir_37c90836491b695b472bf98d1be8336b</title>
<path fill="none" stroke="#000000" d="M128.8853,-359.5185C136.2462,-349.5296 144.672,-336.6716 150,-324 158.3306,-304.1876 163.1533,-280.3321 165.8541,-262.1605"/>
<polygon fill="#000000" stroke="#000000" points="169.3302,-262.5721 167.2095,-252.1917 162.3941,-261.6289 169.3302,-262.5721"/>
<g id="a_edge2&#45;headlabel"><a xlink:href="dir_000495_000274.html" target="_top" xlink:title="3">
<text text-anchor="middle" x="171.6594" y="-264.0164" font-family="Helvetica,sans-Serif" font-size="10.00" fill="#000000">3</text>
</a>
</g>
</g>
<!-- dir_85bf31a2e8d306e7598ffcb73f8df6bf -->
<g id="node5" class="node">
<title>dir_85bf31a2e8d306e7598ffcb73f8df6bf</title>
<g id="a_node5"><a xlink:href="dir_85bf31a2e8d306e7598ffcb73f8df6bf.html" target="_top" xlink:title="common">
<polygon fill="none" stroke="#ff0000" points="190.5,-36 131.5,-36 131.5,0 190.5,0 190.5,-36"/>
<text text-anchor="middle" x="161" y="-15.5" font-family="Helvetica,sans-Serif" font-size="10.00" fill="#000000">common</text>
</a>
</g>
</g>
<!-- dir_d1f145d255769e420d34c87805445e7e&#45;&gt;dir_85bf31a2e8d306e7598ffcb73f8df6bf -->
<g id="edge3" class="edge">
<title>dir_d1f145d255769e420d34c87805445e7e&#45;&gt;dir_85bf31a2e8d306e7598ffcb73f8df6bf</title>
<path fill="none" stroke="#000000" d="M85.8202,-359.8002C52.0616,-335.5315 0,-289.1626 0,-234 0,-234 0,-234 0,-162 0,-96.7449 74.388,-53.6686 122.036,-32.77"/>
<polygon fill="#000000" stroke="#000000" points="123.632,-35.8949 131.4701,-28.7664 120.8974,-29.4511 123.632,-35.8949"/>
<g id="a_edge3&#45;headlabel"><a xlink:href="dir_000495_000061.html" target="_top" xlink:title="14">
<text text-anchor="middle" x="121.4322" y="-37.4127" font-family="Helvetica,sans-Serif" font-size="10.00" fill="#000000">14</text>
</a>
</g>
</g>
<!-- dir_bcbb2cf9a3d3d83e5515c82071a07177 -->
<g id="node6" class="node">
<title>dir_bcbb2cf9a3d3d83e5515c82071a07177</title>
<g id="a_node6"><a xlink:href="dir_bcbb2cf9a3d3d83e5515c82071a07177.html" target="_top" xlink:title="Framework">
<polygon fill="none" stroke="#ff0000" points="269.5,-180 198.5,-180 198.5,-144 269.5,-144 269.5,-180"/>
<text text-anchor="middle" x="234" y="-159.5" font-family="Helvetica,sans-Serif" font-size="10.00" fill="#000000">Framework</text>
</a>
</g>
</g>
<!-- dir_d1f145d255769e420d34c87805445e7e&#45;&gt;dir_bcbb2cf9a3d3d83e5515c82071a07177 -->
<g id="edge4" class="edge">
<title>dir_d1f145d255769e420d34c87805445e7e&#45;&gt;dir_bcbb2cf9a3d3d83e5515c82071a07177</title>
<path fill="none" stroke="#000000" d="M136.284,-359.8198C147.3624,-350.011 160.3981,-337.224 170,-324 200.2716,-282.3091 218.5973,-224.357 227.4697,-190.2542"/>
<polygon fill="#000000" stroke="#000000" points="230.883,-191.0318 229.9225,-180.4806 224.0936,-189.3279 230.883,-191.0318"/>
<g id="a_edge4&#45;headlabel"><a xlink:href="dir_000495_000013.html" target="_top" xlink:title="8">
<text text-anchor="middle" x="232.762" y="-192.7094" font-family="Helvetica,sans-Serif" font-size="10.00" fill="#000000">8</text>
</a>
</g>
</g>
<!-- dir_2171f7ec022c5423887b07c69b2f5b48 -->
<g id="node7" class="node">
<title>dir_2171f7ec022c5423887b07c69b2f5b48</title>
<g id="a_node7"><a xlink:href="dir_2171f7ec022c5423887b07c69b2f5b48.html" target="_top" xlink:title="DataFormats">
<polygon fill="none" stroke="#ff0000" points="201,-108 121,-108 121,-72 201,-72 201,-108"/>
<text text-anchor="middle" x="161" y="-87.5" font-family="Helvetica,sans-Serif" font-size="10.00" fill="#000000">DataFormats</text>
</a>
</g>
</g>
<!-- dir_d1f145d255769e420d34c87805445e7e&#45;&gt;dir_2171f7ec022c5423887b07c69b2f5b48 -->
<g id="edge5" class="edge">
<title>dir_d1f145d255769e420d34c87805445e7e&#45;&gt;dir_2171f7ec022c5423887b07c69b2f5b48</title>
<path fill="none" stroke="#000000" d="M98.0095,-359.9169C90.3462,-350.0371 81.9834,-337.1563 78,-324 73.3635,-308.6865 74.8621,-303.6893 78,-288 90.8501,-223.7497 125.1896,-154.3749 145.4465,-117.2096"/>
<polygon fill="#000000" stroke="#000000" points="148.7382,-118.4893 150.5143,-108.0444 142.6123,-115.102 148.7382,-118.4893"/>
<g id="a_edge5&#45;headlabel"><a xlink:href="dir_000495_000076.html" target="_top" xlink:title="12">
<text text-anchor="middle" x="149.4836" y="-120.5089" font-family="Helvetica,sans-Serif" font-size="10.00" fill="#000000">12</text>
</a>
</g>
</g>
<!-- dir_eedff867f3c4e67d20b227cb6e0f96ab&#45;&gt;dir_37c90836491b695b472bf98d1be8336b -->
<g id="edge6" class="edge">
<title>dir_eedff867f3c4e67d20b227cb6e0f96ab&#45;&gt;dir_37c90836491b695b472bf98d1be8336b</title>
<path fill="none" stroke="#000000" d="M127.8788,-287.8314C134.2136,-279.5386 141.8384,-269.557 148.7926,-260.4533"/>
<polygon fill="#000000" stroke="#000000" points="151.6452,-262.4847 154.9343,-252.4133 146.0825,-258.2353 151.6452,-262.4847"/>
<g id="a_edge6&#45;headlabel"><a xlink:href="dir_000479_000274.html" target="_top" xlink:title="2">
<text text-anchor="middle" x="151.7195" y="-264.5647" font-family="Helvetica,sans-Serif" font-size="10.00" fill="#000000">2</text>
</a>
</g>
</g>
<!-- dir_eedff867f3c4e67d20b227cb6e0f96ab&#45;&gt;dir_85bf31a2e8d306e7598ffcb73f8df6bf -->
<g id="edge7" class="edge">
<title>dir_eedff867f3c4e67d20b227cb6e0f96ab&#45;&gt;dir_85bf31a2e8d306e7598ffcb73f8df6bf</title>
<path fill="none" stroke="#000000" d="M109.485,-287.8858C100.3293,-247.484 82.8086,-147.6104 112,-72 116.1192,-61.3306 123.4336,-51.4665 131.1749,-43.1681"/>
<polygon fill="#000000" stroke="#000000" points="133.7348,-45.558 138.325,-36.0091 128.7819,-40.6113 133.7348,-45.558"/>
<g id="a_edge7&#45;headlabel"><a xlink:href="dir_000479_000061.html" target="_top" xlink:title="2">
<text text-anchor="middle" x="133.2035" y="-47.6077" font-family="Helvetica,sans-Serif" font-size="10.00" fill="#000000">2</text>
</a>
</g>
</g>
<!-- dir_eedff867f3c4e67d20b227cb6e0f96ab&#45;&gt;dir_2171f7ec022c5423887b07c69b2f5b48 -->
<g id="edge8" class="edge">
<title>dir_eedff867f3c4e67d20b227cb6e0f96ab&#45;&gt;dir_2171f7ec022c5423887b07c69b2f5b48</title>
<path fill="none" stroke="#000000" d="M117.8006,-287.7163C121.5962,-269.5237 127.6235,-240.8156 133,-216 140.2657,-182.4649 148.8573,-143.9676 154.5891,-118.4424"/>
<polygon fill="#000000" stroke="#000000" points="158.0794,-118.8737 156.8583,-108.3495 151.2499,-117.3382 158.0794,-118.8737"/>
<g id="a_edge8&#45;headlabel"><a xlink:href="dir_000479_000076.html" target="_top" xlink:title="1">
<text text-anchor="middle" x="160.0611" y="-120.5036" font-family="Helvetica,sans-Serif" font-size="10.00" fill="#000000">1</text>
</a>
</g>
</g>
<!-- dir_37c90836491b695b472bf98d1be8336b&#45;&gt;dir_bcbb2cf9a3d3d83e5515c82071a07177 -->
<g id="edge9" class="edge">
<title>dir_37c90836491b695b472bf98d1be8336b&#45;&gt;dir_bcbb2cf9a3d3d83e5515c82071a07177</title>
<path fill="none" stroke="#000000" d="M185.4022,-215.8314C193.0415,-207.3694 202.2683,-197.1489 210.6207,-187.8971"/>
<polygon fill="#000000" stroke="#000000" points="213.2738,-190.1813 217.3769,-180.4133 208.0779,-185.4906 213.2738,-190.1813"/>
<g id="a_edge9&#45;headlabel"><a xlink:href="dir_000274_000013.html" target="_top" xlink:title="1">
<text text-anchor="middle" x="212.9726" y="-192.2521" font-family="Helvetica,sans-Serif" font-size="10.00" fill="#000000">1</text>
</a>
</g>
</g>
<!-- dir_37c90836491b695b472bf98d1be8336b&#45;&gt;dir_2171f7ec022c5423887b07c69b2f5b48 -->
<g id="edge10" class="edge">
<title>dir_37c90836491b695b472bf98d1be8336b&#45;&gt;dir_2171f7ec022c5423887b07c69b2f5b48</title>
<path fill="none" stroke="#000000" d="M163.3136,-215.7623C159.4893,-191.201 156.7727,-147.2474 157.0778,-118.3541"/>
<polygon fill="#000000" stroke="#000000" points="160.5835,-118.1779 157.3467,-108.0896 153.5859,-117.9945 160.5835,-118.1779"/>
<g id="a_edge10&#45;headlabel"><a xlink:href="dir_000274_000076.html" target="_top" xlink:title="12">
<text text-anchor="middle" x="163.3278" y="-119.3456" font-family="Helvetica,sans-Serif" font-size="10.00" fill="#000000">12</text>
</a>
</g>
</g>
<!-- dir_85bf31a2e8d306e7598ffcb73f8df6bf&#45;&gt;dir_37c90836491b695b472bf98d1be8336b -->
<g id="edge11" class="edge">
<title>dir_85bf31a2e8d306e7598ffcb73f8df6bf&#45;&gt;dir_37c90836491b695b472bf98d1be8336b</title>
<path fill="none" stroke="#000000" d="M189.1529,-36.1143C219.2476,-57.5411 264.5832,-96.3846 279,-144 283.6365,-159.3135 287.4613,-166.4204 279,-180 263.1086,-205.5041 231.2656,-219.3037 205.9117,-226.5504"/>
<polygon fill="#000000" stroke="#000000" points="204.9914,-223.1733 196.2106,-229.1019 206.772,-229.9431 204.9914,-223.1733"/>
<g id="a_edge11&#45;headlabel"><a xlink:href="dir_000061_000274.html" target="_top" xlink:title="2">
<text text-anchor="middle" x="207.7456" y="-217.0132" font-family="Helvetica,sans-Serif" font-size="10.00" fill="#000000">2</text>
</a>
</g>
</g>
<!-- dir_85bf31a2e8d306e7598ffcb73f8df6bf&#45;&gt;dir_bcbb2cf9a3d3d83e5515c82071a07177 -->
<g id="edge12" class="edge">
<title>dir_85bf31a2e8d306e7598ffcb73f8df6bf&#45;&gt;dir_bcbb2cf9a3d3d83e5515c82071a07177</title>
<path fill="none" stroke="#000000" d="M181.6416,-36.2327C191.5129,-45.9603 202.7337,-58.6594 210,-72 220.4749,-91.2314 226.5835,-115.3012 230.0141,-133.7089"/>
<polygon fill="#000000" stroke="#000000" points="226.6059,-134.5441 231.7372,-143.8134 233.5063,-133.3673 226.6059,-134.5441"/>
<g id="a_edge12&#45;headlabel"><a xlink:href="dir_000061_000013.html" target="_top" xlink:title="32">
<text text-anchor="middle" x="223.2028" y="-128.9779" font-family="Helvetica,sans-Serif" font-size="10.00" fill="#000000">32</text>
</a>
</g>
</g>
<!-- dir_85bf31a2e8d306e7598ffcb73f8df6bf&#45;&gt;dir_2171f7ec022c5423887b07c69b2f5b48 -->
<g id="edge13" class="edge">
<title>dir_85bf31a2e8d306e7598ffcb73f8df6bf&#45;&gt;dir_2171f7ec022c5423887b07c69b2f5b48</title>
<path fill="none" stroke="#000000" d="M166.976,-36.4133C167.7071,-44.0593 167.9203,-53.1084 167.6155,-61.5726"/>
<polygon fill="#000000" stroke="#000000" points="164.1048,-61.6264 166.9524,-71.8314 171.0902,-62.078 164.1048,-61.6264"/>
<g id="a_edge13&#45;headlabel"><a xlink:href="dir_000061_000076.html" target="_top" xlink:title="70">
<text text-anchor="middle" x="161.5032" y="-55.3562" font-family="Helvetica,sans-Serif" font-size="10.00" fill="#000000">70</text>
</a>
</g>
</g>
<!-- dir_bcbb2cf9a3d3d83e5515c82071a07177&#45;&gt;dir_2171f7ec022c5423887b07c69b2f5b48 -->
<g id="edge14" class="edge">
<title>dir_bcbb2cf9a3d3d83e5515c82071a07177&#45;&gt;dir_2171f7ec022c5423887b07c69b2f5b48</title>
<path fill="none" stroke="#000000" d="M209.6266,-143.8314C200.2225,-135.3694 189.6749,-125.1489 180.7488,-115.8971"/>
<polygon fill="#000000" stroke="#000000" points="183.0996,-113.2884 173.693,-108.4133 178.0063,-118.0904 183.0996,-113.2884"/>
<g id="a_edge14&#45;headlabel"><a xlink:href="dir_000013_000076.html" target="_top" xlink:title="82">
<text text-anchor="middle" x="187.6313" y="-111.4561" font-family="Helvetica,sans-Serif" font-size="10.00" fill="#000000">82</text>
</a>
</g>
</g>
<!-- dir_2171f7ec022c5423887b07c69b2f5b48&#45;&gt;dir_37c90836491b695b472bf98d1be8336b -->
<g id="edge15" class="edge">
<title>dir_2171f7ec022c5423887b07c69b2f5b48&#45;&gt;dir_37c90836491b695b472bf98d1be8336b</title>
<path fill="none" stroke="#000000" d="M166.6633,-108.0896C170.492,-132.5727 173.217,-176.5174 172.924,-205.4713"/>
<polygon fill="#000000" stroke="#000000" points="169.4177,-205.6758 172.66,-215.7623 176.4154,-205.8554 169.4177,-205.6758"/>
<g id="a_edge15&#45;headlabel"><a xlink:href="dir_000076_000274.html" target="_top" xlink:title="1">
<text text-anchor="middle" x="166.6715" y="-199.5096" font-family="Helvetica,sans-Serif" font-size="10.00" fill="#000000">1</text>
</a>
</g>
</g>
<!-- dir_2171f7ec022c5423887b07c69b2f5b48&#45;&gt;dir_85bf31a2e8d306e7598ffcb73f8df6bf -->
<g id="edge16" class="edge">
<title>dir_2171f7ec022c5423887b07c69b2f5b48&#45;&gt;dir_85bf31a2e8d306e7598ffcb73f8df6bf</title>
<path fill="none" stroke="#000000" d="M155.0476,-71.8314C154.2972,-64.131 154.0763,-54.9743 154.3849,-46.4166"/>
<polygon fill="#000000" stroke="#000000" points="157.8792,-46.6161 155.024,-36.4133 150.8935,-46.1697 157.8792,-46.6161"/>
<g id="a_edge16&#45;headlabel"><a xlink:href="dir_000076_000061.html" target="_top" xlink:title="1">
<text text-anchor="middle" x="160.4836" y="-47.8844" font-family="Helvetica,sans-Serif" font-size="10.00" fill="#000000">1</text>
</a>
</g>
</g>
<!-- dir_2171f7ec022c5423887b07c69b2f5b48&#45;&gt;dir_bcbb2cf9a3d3d83e5515c82071a07177 -->
<g id="edge17" class="edge">
<title>dir_2171f7ec022c5423887b07c69b2f5b48&#45;&gt;dir_bcbb2cf9a3d3d83e5515c82071a07177</title>
<path fill="none" stroke="#000000" d="M185.3669,-108.1628C194.8429,-116.6891 205.4806,-127.0016 214.4508,-136.3099"/>
<polygon fill="#000000" stroke="#000000" points="212.1285,-138.9492 221.5314,-143.8314 217.2254,-134.151 212.1285,-138.9492"/>
<g id="a_edge17&#45;headlabel"><a xlink:href="dir_000076_000013.html" target="_top" xlink:title="11">
<text text-anchor="middle" x="207.5973" y="-135.778" font-family="Helvetica,sans-Serif" font-size="10.00" fill="#000000">11</text>
</a>
</g>
</g>
</g>
</svg>
