<?xml version="1.0" encoding="UTF-8" standalone="no"?>
<!DOCTYPE svg PUBLIC "-//W3C//DTD SVG 1.1//EN"
 "http://www.w3.org/Graphics/SVG/1.1/DTD/svg11.dtd">
<!-- Generated by graphviz version 2.40.1 (20161225.0304)
 -->
<!-- Title: /home/travis/build/AliceO2Group/AliceO2/Framework/TestWorkflows Pages: 1 -->
<svg width="372pt" height="519pt"
 viewBox="0.00 0.00 372.14 519.00" xmlns="http://www.w3.org/2000/svg" xmlns:xlink="http://www.w3.org/1999/xlink">
<g id="graph0" class="graph" transform="scale(1 1) rotate(0) translate(4 515)">
<title>/home/travis/build/AliceO2Group/AliceO2/Framework/TestWorkflows</title>
<g id="clust1" class="cluster">
<title>clusterdir_bcbb2cf9a3d3d83e5515c82071a07177</title>
<g id="a_clust1"><a xlink:href="dir_bcbb2cf9a3d3d83e5515c82071a07177.html" target="_top" xlink:title="Framework">
<polygon fill="#ddddee" stroke="#000000" points="83.1384,-416 83.1384,-503 345.1384,-503 345.1384,-416 83.1384,-416"/>
<text text-anchor="middle" x="214.1384" y="-491" font-family="Helvetica,sans-Serif" font-size="10.00" fill="#000000">Framework</text>
</a>
</g>
</g>
<g id="clust2" class="cluster">
<title>clusterdir_a8f73827fca2a0188d35dc47dc5b0ea3</title>
<g id="a_clust2"><a xlink:href="dir_a8f73827fca2a0188d35dc47dc5b0ea3.html" target="_top">
<polygon fill="#eeeeff" stroke="#000000" points="91.1384,-424 91.1384,-476 337.1384,-476 337.1384,-424 91.1384,-424"/>
</a>
</g>
</g>
<!-- dir_a8f73827fca2a0188d35dc47dc5b0ea3 -->
<g id="node1" class="node">
<title>dir_a8f73827fca2a0188d35dc47dc5b0ea3</title>
<text text-anchor="middle" x="286.1384" y="-447.5" font-family="Helvetica,sans-Serif" font-size="10.00" fill="#000000">TestWorkflows</text>
</g>
<!-- dir_80c3b7d4c168c9aa75dd1ba81b9fa387 -->
<g id="node2" class="node">
<title>dir_80c3b7d4c168c9aa75dd1ba81b9fa387</title>
<g id="a_node2"><a xlink:href="dir_80c3b7d4c168c9aa75dd1ba81b9fa387.html" target="_top" xlink:title="src">
<polygon fill="#ffffff" stroke="#000000" points="225.1384,-468 171.1384,-468 171.1384,-432 225.1384,-432 225.1384,-468"/>
<text text-anchor="middle" x="198.1384" y="-447.5" font-family="Helvetica,sans-Serif" font-size="10.00" fill="#000000">src</text>
</a>
</g>
</g>
<!-- dir_0b342c6c6b7d2278121a0bb9c4985063 -->
<g id="node4" class="node">
<title>dir_0b342c6c6b7d2278121a0bb9c4985063</title>
<g id="a_node4"><a xlink:href="dir_0b342c6c6b7d2278121a0bb9c4985063.html" target="_top" xlink:title="Generators">
<polygon fill="none" stroke="#ff0000" points="297.6384,-396 226.6384,-396 226.6384,-360 297.6384,-360 297.6384,-396"/>
<text text-anchor="middle" x="262.1384" y="-375.5" font-family="Helvetica,sans-Serif" font-size="10.00" fill="#000000">Generators</text>
</a>
</g>
</g>
<!-- dir_80c3b7d4c168c9aa75dd1ba81b9fa387&#45;&gt;dir_0b342c6c6b7d2278121a0bb9c4985063 -->
<g id="edge1" class="edge">
<title>dir_80c3b7d4c168c9aa75dd1ba81b9fa387&#45;&gt;dir_0b342c6c6b7d2278121a0bb9c4985063</title>
<path fill="none" stroke="#000000" d="M214.2883,-431.8314C221.81,-423.3694 230.8949,-413.1489 239.1187,-403.8971"/>
<polygon fill="#000000" stroke="#000000" points="241.7433,-406.2127 245.771,-396.4133 236.5114,-401.5621 241.7433,-406.2127"/>
<g id="a_edge1&#45;headlabel"><a xlink:href="dir_000015_000681.html" target="_top" xlink:title="1">
<text text-anchor="middle" x="241.4773" y="-408.2856" font-family="Helvetica,sans-Serif" font-size="10.00" fill="#000000">1</text>
</a>
</g>
</g>
<!-- dir_4ab6b4cc6a7edbff49100e9123df213f -->
<g id="node5" class="node">
<title>dir_4ab6b4cc6a7edbff49100e9123df213f</title>
<g id="a_node5"><a xlink:href="dir_4ab6b4cc6a7edbff49100e9123df213f.html" target="_top" xlink:title="Common">
<polygon fill="none" stroke="#ff0000" points="172.6384,-324 111.6384,-324 111.6384,-288 172.6384,-288 172.6384,-324"/>
<text text-anchor="middle" x="142.1384" y="-303.5" font-family="Helvetica,sans-Serif" font-size="10.00" fill="#000000">Common</text>
</a>
</g>
</g>
<!-- dir_80c3b7d4c168c9aa75dd1ba81b9fa387&#45;&gt;dir_4ab6b4cc6a7edbff49100e9123df213f -->
<g id="edge2" class="edge">
<title>dir_80c3b7d4c168c9aa75dd1ba81b9fa387&#45;&gt;dir_4ab6b4cc6a7edbff49100e9123df213f</title>
<path fill="none" stroke="#000000" d="M191.0459,-431.7623C181.4102,-406.9846 164.0995,-362.4714 152.8693,-333.5939"/>
<polygon fill="#000000" stroke="#000000" points="156.0598,-332.1411 149.1732,-324.0896 149.5357,-334.6783 156.0598,-332.1411"/>
<g id="a_edge2&#45;headlabel"><a xlink:href="dir_000015_000027.html" target="_top" xlink:title="2">
<text text-anchor="middle" x="160.0088" y="-331.9622" font-family="Helvetica,sans-Serif" font-size="10.00" fill="#000000">2</text>
</a>
</g>
</g>
<!-- dir_9f165b2481dacfe69aa54d326bd5cd47 -->
<g id="node6" class="node">
<title>dir_9f165b2481dacfe69aa54d326bd5cd47</title>
<g id="a_node6"><a xlink:href="dir_9f165b2481dacfe69aa54d326bd5cd47.html" target="_top" xlink:title="Core">
<polygon fill="none" stroke="#ff0000" points="160.1384,-108 106.1384,-108 106.1384,-72 160.1384,-72 160.1384,-108"/>
<text text-anchor="middle" x="133.1384" y="-87.5" font-family="Helvetica,sans-Serif" font-size="10.00" fill="#000000">Core</text>
</a>
</g>
</g>
<!-- dir_80c3b7d4c168c9aa75dd1ba81b9fa387&#45;&gt;dir_9f165b2481dacfe69aa54d326bd5cd47 -->
<g id="edge3" class="edge">
<title>dir_80c3b7d4c168c9aa75dd1ba81b9fa387&#45;&gt;dir_9f165b2481dacfe69aa54d326bd5cd47</title>
<path fill="none" stroke="#000000" d="M179.1853,-431.8902C173.7165,-426.7219 167.7187,-421.108 162.1384,-416 107.7965,-366.2575 38.1384,-379.6706 38.1384,-306 38.1384,-306 38.1384,-306 38.1384,-234 38.1384,-186.0912 75.2296,-141.8312 103.0594,-115.3654"/>
<polygon fill="#000000" stroke="#000000" points="105.6491,-117.7382 110.6247,-108.3843 100.902,-112.5938 105.6491,-117.7382"/>
<g id="a_edge3&#45;headlabel"><a xlink:href="dir_000015_000665.html" target="_top" xlink:title="114">
<text text-anchor="middle" x="104.9329" y="-119.7625" font-family="Helvetica,sans-Serif" font-size="10.00" fill="#000000">114</text>
</a>
</g>
</g>
<!-- dir_051dca18e802f8e9474f2e30d29c04e0 -->
<g id="node7" class="node">
<title>dir_051dca18e802f8e9474f2e30d29c04e0</title>
<g id="a_node7"><a xlink:href="dir_051dca18e802f8e9474f2e30d29c04e0.html" target="_top" xlink:title="Detectors">
<polygon fill="none" stroke="#ff0000" points="282.1384,-180 218.1384,-180 218.1384,-144 282.1384,-144 282.1384,-180"/>
<text text-anchor="middle" x="250.1384" y="-159.5" font-family="Helvetica,sans-Serif" font-size="10.00" fill="#000000">Detectors</text>
</a>
</g>
</g>
<!-- dir_80c3b7d4c168c9aa75dd1ba81b9fa387&#45;&gt;dir_051dca18e802f8e9474f2e30d29c04e0 -->
<g id="edge4" class="edge">
<title>dir_80c3b7d4c168c9aa75dd1ba81b9fa387&#45;&gt;dir_051dca18e802f8e9474f2e30d29c04e0</title>
<path fill="none" stroke="#000000" d="M213.9582,-431.8507C219.7975,-426.0786 226.7944,-420.1284 234.1384,-416 263.4626,-399.5154 286.7346,-422.7458 307.1384,-396 355.1465,-333.0698 300.9882,-235.2585 269.5075,-188.5616"/>
<polygon fill="#000000" stroke="#000000" points="272.295,-186.4385 263.7368,-180.1928 266.5322,-190.4123 272.295,-186.4385"/>
<g id="a_edge4&#45;headlabel"><a xlink:href="dir_000015_000039.html" target="_top" xlink:title="4">
<text text-anchor="middle" x="276.6729" y="-185.286" font-family="Helvetica,sans-Serif" font-size="10.00" fill="#000000">4</text>
</a>
</g>
</g>
<!-- dir_ab5a80d4bd40f73f0851d5ff6a022779 -->
<g id="node8" class="node">
<title>dir_ab5a80d4bd40f73f0851d5ff6a022779</title>
<g id="a_node8"><a xlink:href="dir_ab5a80d4bd40f73f0851d5ff6a022779.html" target="_top" xlink:title="Logger">
<polygon fill="none" stroke="#ff0000" points="217.1384,-36 163.1384,-36 163.1384,0 217.1384,0 217.1384,-36"/>
<text text-anchor="middle" x="190.1384" y="-15.5" font-family="Helvetica,sans-Serif" font-size="10.00" fill="#000000">Logger</text>
</a>
</g>
</g>
<!-- dir_80c3b7d4c168c9aa75dd1ba81b9fa387&#45;&gt;dir_ab5a80d4bd40f73f0851d5ff6a022779 -->
<g id="edge5" class="edge">
<title>dir_80c3b7d4c168c9aa75dd1ba81b9fa387&#45;&gt;dir_ab5a80d4bd40f73f0851d5ff6a022779</title>
<path fill="none" stroke="#000000" d="M213.4701,-431.9608C219.3676,-426.0563 226.5259,-419.9945 234.1384,-416 271.9605,-396.1535 295.4688,-423.5153 328.1384,-396 361.0898,-368.2474 364.1384,-349.0813 364.1384,-306 364.1384,-306 364.1384,-306 364.1384,-162 364.1384,-91.4193 278.1154,-48.9013 227.0393,-29.8768"/>
<polygon fill="#000000" stroke="#000000" points="227.9203,-26.4743 217.3259,-26.3839 225.5516,-33.0613 227.9203,-26.4743"/>
<g id="a_edge5&#45;headlabel"><a xlink:href="dir_000015_000675.html" target="_top" xlink:title="12">
<text text-anchor="middle" x="232.2636" y="-22.5188" font-family="Helvetica,sans-Serif" font-size="10.00" fill="#000000">12</text>
</a>
</g>
</g>
<!-- dir_2171f7ec022c5423887b07c69b2f5b48 -->
<g id="node9" class="node">
<title>dir_2171f7ec022c5423887b07c69b2f5b48</title>
<g id="a_node9"><a xlink:href="dir_2171f7ec022c5423887b07c69b2f5b48.html" target="_top" xlink:title="DataFormats">
<polygon fill="none" stroke="#ff0000" points="260.1384,-252 180.1384,-252 180.1384,-216 260.1384,-216 260.1384,-252"/>
<text text-anchor="middle" x="220.1384" y="-231.5" font-family="Helvetica,sans-Serif" font-size="10.00" fill="#000000">DataFormats</text>
</a>
</g>
</g>
<!-- dir_80c3b7d4c168c9aa75dd1ba81b9fa387&#45;&gt;dir_2171f7ec022c5423887b07c69b2f5b48 -->
<g id="edge6" class="edge">
<title>dir_80c3b7d4c168c9aa75dd1ba81b9fa387&#45;&gt;dir_2171f7ec022c5423887b07c69b2f5b48</title>
<path fill="none" stroke="#000000" d="M199.9763,-431.9555C203.8101,-394.3144 212.6842,-307.1867 217.2738,-262.1246"/>
<polygon fill="#000000" stroke="#000000" points="220.7589,-262.4483 218.2903,-252.1451 213.7949,-261.7389 220.7589,-262.4483"/>
<g id="a_edge6&#45;headlabel"><a xlink:href="dir_000015_000076.html" target="_top" xlink:title="6">
<text text-anchor="middle" x="223.2194" y="-263.8121" font-family="Helvetica,sans-Serif" font-size="10.00" fill="#000000">6</text>
</a>
</g>
</g>
<!-- dir_b6abd220a8a509af9882e60b4042c567 -->
<g id="node3" class="node">
<title>dir_b6abd220a8a509af9882e60b4042c567</title>
<g id="a_node3"><a xlink:href="dir_b6abd220a8a509af9882e60b4042c567.html" target="_top" xlink:title="test">
<polygon fill="#ffffff" stroke="#000000" points="153.1384,-468 99.1384,-468 99.1384,-432 153.1384,-432 153.1384,-468"/>
<text text-anchor="middle" x="126.1384" y="-447.5" font-family="Helvetica,sans-Serif" font-size="10.00" fill="#000000">test</text>
</a>
</g>
</g>
<!-- dir_b6abd220a8a509af9882e60b4042c567&#45;&gt;dir_9f165b2481dacfe69aa54d326bd5cd47 -->
<g id="edge19" class="edge">
<title>dir_b6abd220a8a509af9882e60b4042c567&#45;&gt;dir_9f165b2481dacfe69aa54d326bd5cd47</title>
<path fill="none" stroke="#000000" d="M98.7046,-442.3031C75.5076,-434.3986 43.1048,-419.8295 24.1384,-396 -1.642,-363.6094 .1384,-347.3978 .1384,-306 .1384,-306 .1384,-306 .1384,-234 .1384,-192.6022 -2.0758,-176.0405 24.1384,-144 42.3923,-121.689 72.1694,-107.8181 95.9916,-99.7298"/>
<polygon fill="#000000" stroke="#000000" points="97.3199,-102.9801 105.7856,-96.6097 95.195,-96.3104 97.3199,-102.9801"/>
<g id="a_edge19&#45;headlabel"><a xlink:href="dir_000679_000665.html" target="_top" xlink:title="4">
<text text-anchor="middle" x="94.7567" y="-104.2764" font-family="Helvetica,sans-Serif" font-size="10.00" fill="#000000">4</text>
</a>
</g>
</g>
<!-- dir_0b342c6c6b7d2278121a0bb9c4985063&#45;&gt;dir_4ab6b4cc6a7edbff49100e9123df213f -->
<g id="edge7" class="edge">
<title>dir_0b342c6c6b7d2278121a0bb9c4985063&#45;&gt;dir_4ab6b4cc6a7edbff49100e9123df213f</title>
<path fill="none" stroke="#000000" d="M231.8573,-359.8314C216.5086,-350.6221 197.6886,-339.3301 181.2561,-329.4706"/>
<polygon fill="#000000" stroke="#000000" points="182.7855,-326.3066 172.4098,-324.1628 179.184,-332.3091 182.7855,-326.3066"/>
<g id="a_edge7&#45;headlabel"><a xlink:href="dir_000681_000027.html" target="_top" xlink:title="15">
<text text-anchor="middle" x="187.3286" y="-323.2213" font-family="Helvetica,sans-Serif" font-size="10.00" fill="#000000">15</text>
</a>
</g>
</g>
<!-- dir_0b342c6c6b7d2278121a0bb9c4985063&#45;&gt;dir_2171f7ec022c5423887b07c69b2f5b48 -->
<g id="edge8" class="edge">
<title>dir_0b342c6c6b7d2278121a0bb9c4985063&#45;&gt;dir_2171f7ec022c5423887b07c69b2f5b48</title>
<path fill="none" stroke="#000000" d="M256.8191,-359.7623C249.6238,-335.0928 236.7225,-290.8598 228.2972,-261.9731"/>
<polygon fill="#000000" stroke="#000000" points="231.5746,-260.7096 225.4145,-252.0896 224.8546,-262.6696 231.5746,-260.7096"/>
<g id="a_edge8&#45;headlabel"><a xlink:href="dir_000681_000076.html" target="_top" xlink:title="1">
<text text-anchor="middle" x="235.3067" y="-260.8655" font-family="Helvetica,sans-Serif" font-size="10.00" fill="#000000">1</text>
</a>
</g>
</g>
<!-- dir_4ab6b4cc6a7edbff49100e9123df213f&#45;&gt;dir_ab5a80d4bd40f73f0851d5ff6a022779 -->
<g id="edge9" class="edge">
<title>dir_4ab6b4cc6a7edbff49100e9123df213f&#45;&gt;dir_ab5a80d4bd40f73f0851d5ff6a022779</title>
<path fill="none" stroke="#000000" d="M130.8751,-287.91C106.7978,-246.7058 55.7542,-143.8841 97.1384,-72 109.2812,-50.9079 133.1713,-37.2946 153.6968,-29.0126"/>
<polygon fill="#000000" stroke="#000000" points="155.0029,-32.2609 163.1355,-25.4703 152.5434,-25.7072 155.0029,-32.2609"/>
<g id="a_edge9&#45;headlabel"><a xlink:href="dir_000027_000675.html" target="_top" xlink:title="2">
<text text-anchor="middle" x="152.6351" y="-33.682" font-family="Helvetica,sans-Serif" font-size="10.00" fill="#000000">2</text>
</a>
</g>
</g>
<!-- dir_4ab6b4cc6a7edbff49100e9123df213f&#45;&gt;dir_2171f7ec022c5423887b07c69b2f5b48 -->
<g id="edge10" class="edge">
<title>dir_4ab6b4cc6a7edbff49100e9123df213f&#45;&gt;dir_2171f7ec022c5423887b07c69b2f5b48</title>
<path fill="none" stroke="#000000" d="M155.8687,-287.8314C164.5276,-279.0485 175.9276,-268.3712 186.7653,-258.8489"/>
<polygon fill="#000000" stroke="#000000" points="189.2277,-261.3469 194.5102,-252.1628 184.6534,-256.0482 189.2277,-261.3469"/>
<g id="a_edge10&#45;headlabel"><a xlink:href="dir_000027_000076.html" target="_top" xlink:title="2">
<text text-anchor="middle" x="188.3621" y="-263.345" font-family="Helvetica,sans-Serif" font-size="10.00" fill="#000000">2</text>
</a>
</g>
</g>
<!-- dir_9f165b2481dacfe69aa54d326bd5cd47&#45;&gt;dir_4ab6b4cc6a7edbff49100e9123df213f -->
<g id="edge11" class="edge">
<title>dir_9f165b2481dacfe69aa54d326bd5cd47&#45;&gt;dir_4ab6b4cc6a7edbff49100e9123df213f</title>
<path fill="none" stroke="#000000" d="M133.8944,-108.1451C135.4632,-145.7945 139.0818,-232.6409 140.9596,-277.7103"/>
<polygon fill="#000000" stroke="#000000" points="137.4732,-278.1099 141.3865,-287.9555 144.4671,-277.8184 137.4732,-278.1099"/>
<g id="a_edge11&#45;headlabel"><a xlink:href="dir_000665_000027.html" target="_top" xlink:title="6">
<text text-anchor="middle" x="134.4868" y="-272.1366" font-family="Helvetica,sans-Serif" font-size="10.00" fill="#000000">6</text>
</a>
</g>
</g>
<!-- dir_9f165b2481dacfe69aa54d326bd5cd47&#45;&gt;dir_ab5a80d4bd40f73f0851d5ff6a022779 -->
<g id="edge12" class="edge">
<title>dir_9f165b2481dacfe69aa54d326bd5cd47&#45;&gt;dir_ab5a80d4bd40f73f0851d5ff6a022779</title>
<path fill="none" stroke="#000000" d="M147.5219,-71.8314C154.087,-63.5386 161.9891,-53.557 169.1962,-44.4533"/>
<polygon fill="#000000" stroke="#000000" points="172.0983,-46.4262 175.5612,-36.4133 166.61,-42.0813 172.0983,-46.4262"/>
<g id="a_edge12&#45;headlabel"><a xlink:href="dir_000665_000675.html" target="_top" xlink:title="37">
<text text-anchor="middle" x="172.0933" y="-48.5069" font-family="Helvetica,sans-Serif" font-size="10.00" fill="#000000">37</text>
</a>
</g>
</g>
<!-- dir_9f165b2481dacfe69aa54d326bd5cd47&#45;&gt;dir_2171f7ec022c5423887b07c69b2f5b48 -->
<g id="edge13" class="edge">
<title>dir_9f165b2481dacfe69aa54d326bd5cd47&#45;&gt;dir_2171f7ec022c5423887b07c69b2f5b48</title>
<path fill="none" stroke="#000000" d="M140.344,-108.2534C148.057,-126.9233 161.2178,-156.4485 176.1384,-180 182.2199,-189.5994 189.7653,-199.4274 196.8804,-208.0228"/>
<polygon fill="#000000" stroke="#000000" points="194.3711,-210.4754 203.5084,-215.8383 199.7098,-205.9478 194.3711,-210.4754"/>
<g id="a_edge13&#45;headlabel"><a xlink:href="dir_000665_000076.html" target="_top" xlink:title="64">
<text text-anchor="middle" x="189.8808" y="-207.0703" font-family="Helvetica,sans-Serif" font-size="10.00" fill="#000000">64</text>
</a>
</g>
</g>
<!-- dir_051dca18e802f8e9474f2e30d29c04e0&#45;&gt;dir_0b342c6c6b7d2278121a0bb9c4985063 -->
<g id="edge14" class="edge">
<title>dir_051dca18e802f8e9474f2e30d29c04e0&#45;&gt;dir_0b342c6c6b7d2278121a0bb9c4985063</title>
<path fill="none" stroke="#000000" d="M258.2301,-180.0835C262.3945,-190.3821 267.0302,-203.6564 269.1384,-216 277.0584,-262.3719 271.6558,-317.2331 266.9489,-349.741"/>
<polygon fill="#000000" stroke="#000000" points="263.4529,-349.4495 265.3996,-359.8639 270.3723,-350.5086 263.4529,-349.4495"/>
<g id="a_edge14&#45;headlabel"><a xlink:href="dir_000039_000681.html" target="_top" xlink:title="2">
<text text-anchor="middle" x="261.19" y="-342.9667" font-family="Helvetica,sans-Serif" font-size="10.00" fill="#000000">2</text>
</a>
</g>
</g>
<!-- dir_051dca18e802f8e9474f2e30d29c04e0&#45;&gt;dir_4ab6b4cc6a7edbff49100e9123df213f -->
<g id="edge15" class="edge">
<title>dir_051dca18e802f8e9474f2e30d29c04e0&#45;&gt;dir_4ab6b4cc6a7edbff49100e9123df213f</title>
<path fill="none" stroke="#000000" d="M217.8316,-177.549C201.7765,-186.7354 183.2661,-199.7607 171.1384,-216 157.546,-234.2004 150.1748,-259.0205 146.2707,-277.9864"/>
<polygon fill="#000000" stroke="#000000" points="142.8253,-277.3706 144.4409,-287.8415 149.7076,-278.6485 142.8253,-277.3706"/>
<g id="a_edge15&#45;headlabel"><a xlink:href="dir_000039_000027.html" target="_top" xlink:title="271">
<text text-anchor="middle" x="140.6898" y="-270.8181" font-family="Helvetica,sans-Serif" font-size="10.00" fill="#000000">271</text>
</a>
</g>
</g>
<!-- dir_051dca18e802f8e9474f2e30d29c04e0&#45;&gt;dir_9f165b2481dacfe69aa54d326bd5cd47 -->
<g id="edge16" class="edge">
<title>dir_051dca18e802f8e9474f2e30d29c04e0&#45;&gt;dir_9f165b2481dacfe69aa54d326bd5cd47</title>
<path fill="none" stroke="#000000" d="M220.6143,-143.8314C204.9639,-134.2003 185.6118,-122.2913 169.0919,-112.1252"/>
<polygon fill="#000000" stroke="#000000" points="170.598,-108.9424 160.247,-106.6822 166.9292,-114.9041 170.598,-108.9424"/>
<g id="a_edge16&#45;headlabel"><a xlink:href="dir_000039_000665.html" target="_top" xlink:title="671">
<text text-anchor="middle" x="175.1474" y="-105.9082" font-family="Helvetica,sans-Serif" font-size="10.00" fill="#000000">671</text>
</a>
</g>
</g>
<!-- dir_051dca18e802f8e9474f2e30d29c04e0&#45;&gt;dir_ab5a80d4bd40f73f0851d5ff6a022779 -->
<g id="edge17" class="edge">
<title>dir_051dca18e802f8e9474f2e30d29c04e0&#45;&gt;dir_ab5a80d4bd40f73f0851d5ff6a022779</title>
<path fill="none" stroke="#000000" d="M242.5393,-143.7623C232.2153,-118.9846 213.6681,-74.4714 201.6358,-45.5939"/>
<polygon fill="#000000" stroke="#000000" points="204.7527,-43.9742 197.6757,-36.0896 198.2912,-46.6666 204.7527,-43.9742"/>
<g id="a_edge17&#45;headlabel"><a xlink:href="dir_000039_000675.html" target="_top" xlink:title="59">
<text text-anchor="middle" x="208.7561" y="-43.7003" font-family="Helvetica,sans-Serif" font-size="10.00" fill="#000000">59</text>
</a>
</g>
</g>
<!-- dir_051dca18e802f8e9474f2e30d29c04e0&#45;&gt;dir_2171f7ec022c5423887b07c69b2f5b48 -->
<g id="edge18" class="edge">
<title>dir_051dca18e802f8e9474f2e30d29c04e0&#45;&gt;dir_2171f7ec022c5423887b07c69b2f5b48</title>
<path fill="none" stroke="#000000" d="M248.4422,-180.4133C245.8784,-188.3991 242.1118,-197.9155 238.0862,-206.6975"/>
<polygon fill="#000000" stroke="#000000" points="234.8713,-205.3059 233.661,-215.8314 241.1709,-208.3579 234.8713,-205.3059"/>
<g id="a_edge18&#45;headlabel"><a xlink:href="dir_000039_000076.html" target="_top" xlink:title="1061">
<text text-anchor="middle" x="233.8833" y="-198.333" font-family="Helvetica,sans-Serif" font-size="10.00" fill="#000000">1061</text>
</a>
</g>
</g>
<!-- dir_2171f7ec022c5423887b07c69b2f5b48&#45;&gt;dir_4ab6b4cc6a7edbff49100e9123df213f -->
<g id="edge20" class="edge">
<title>dir_2171f7ec022c5423887b07c69b2f5b48&#45;&gt;dir_4ab6b4cc6a7edbff49100e9123df213f</title>
<path fill="none" stroke="#000000" d="M206.1667,-252.4133C197.5238,-261.1637 186.2116,-271.7519 175.4584,-281.1978"/>
<polygon fill="#000000" stroke="#000000" points="173.0564,-278.6476 167.7735,-287.8314 177.6304,-283.9465 173.0564,-278.6476"/>
<g id="a_edge20&#45;headlabel"><a xlink:href="dir_000076_000027.html" target="_top" xlink:title="35">
<text text-anchor="middle" x="173.9222" y="-271.6495" font-family="Helvetica,sans-Serif" font-size="10.00" fill="#000000">35</text>
</a>
</g>
</g>
<!-- dir_2171f7ec022c5423887b07c69b2f5b48&#45;&gt;dir_051dca18e802f8e9474f2e30d29c04e0 -->
<g id="edge21" class="edge">
<title>dir_2171f7ec022c5423887b07c69b2f5b48&#45;&gt;dir_051dca18e802f8e9474f2e30d29c04e0</title>
<path fill="none" stroke="#000000" d="M221.7563,-215.8314C224.2954,-207.8771 228.0469,-198.369 232.0671,-189.5723"/>
<polygon fill="#000000" stroke="#000000" points="235.2932,-190.9403 236.4902,-180.4133 228.9897,-187.8962 235.2932,-190.9403"/>
<g id="a_edge21&#45;headlabel"><a xlink:href="dir_000076_000039.html" target="_top" xlink:title="14">
<text text-anchor="middle" x="236.2868" y="-192.9119" font-family="Helvetica,sans-Serif" font-size="10.00" fill="#000000">14</text>
</a>
</g>
</g>
<!-- dir_2171f7ec022c5423887b07c69b2f5b48&#45;&gt;dir_ab5a80d4bd40f73f0851d5ff6a022779 -->
<g id="edge22" class="edge">
<title>dir_2171f7ec022c5423887b07c69b2f5b48&#45;&gt;dir_ab5a80d4bd40f73f0851d5ff6a022779</title>
<path fill="none" stroke="#000000" d="M215.9847,-215.5759C213.7399,-205.1707 211.0453,-191.9033 209.1384,-180 201.6528,-133.2741 195.8439,-78.521 192.7123,-46.131"/>
<polygon fill="#000000" stroke="#000000" points="196.1846,-45.6718 191.7544,-36.0477 189.2159,-46.3339 196.1846,-45.6718"/>
<g id="a_edge22&#45;headlabel"><a xlink:href="dir_000076_000675.html" target="_top" xlink:title="11">
<text text-anchor="middle" x="199.351" y="-46.4819" font-family="Helvetica,sans-Serif" font-size="10.00" fill="#000000">11</text>
</a>
</g>
</g>
</g>
</svg>
