<?xml version="1.0" encoding="UTF-8" standalone="no"?>
<!DOCTYPE svg PUBLIC "-//W3C//DTD SVG 1.1//EN"
 "http://www.w3.org/Graphics/SVG/1.1/DTD/svg11.dtd">
<!-- Generated by graphviz version 2.40.1 (20161225.0304)
 -->
<!-- Title: /home/travis/build/AliceO2Group/AliceO2/Detectors/Upgrades/IT3/base/src Pages: 1 -->
<svg width="193pt" height="367pt"
 viewBox="0.00 0.00 193.32 367.00" xmlns="http://www.w3.org/2000/svg" xmlns:xlink="http://www.w3.org/1999/xlink">
<g id="graph0" class="graph" transform="scale(1 1) rotate(0) translate(4 363)">
<title>/home/travis/build/AliceO2Group/AliceO2/Detectors/Upgrades/IT3/base/src</title>
<g id="clust1" class="cluster">
<title>clusterdir_a01a9dcdab2da3806e7d9bd0ccc92eea</title>
<g id="a_clust1"><a xlink:href="dir_a01a9dcdab2da3806e7d9bd0ccc92eea.html" target="_top" xlink:title="base">
<polygon fill="#ddddee" stroke="#000000" points="40.3154,-280 40.3154,-351 110.3154,-351 110.3154,-280 40.3154,-280"/>
<text text-anchor="middle" x="75.3154" y="-339" font-family="Helvetica,sans-Serif" font-size="10.00" fill="#000000">base</text>
</a>
</g>
</g>
<!-- dir_40bf9512ae030132e616856159de5c2e -->
<g id="node1" class="node">
<title>dir_40bf9512ae030132e616856159de5c2e</title>
<g id="a_node1"><a xlink:href="dir_40bf9512ae030132e616856159de5c2e.html" target="_top" xlink:title="src">
<polygon fill="#eeeeff" stroke="#000000" points="102.3154,-324 48.3154,-324 48.3154,-288 102.3154,-288 102.3154,-324"/>
<text text-anchor="middle" x="75.3154" y="-303.5" font-family="Helvetica,sans-Serif" font-size="10.00" fill="#000000">src</text>
</a>
</g>
</g>
<!-- dir_4ab6b4cc6a7edbff49100e9123df213f -->
<g id="node2" class="node">
<title>dir_4ab6b4cc6a7edbff49100e9123df213f</title>
<g id="a_node2"><a xlink:href="dir_4ab6b4cc6a7edbff49100e9123df213f.html" target="_top" xlink:title="Common">
<polygon fill="none" stroke="#ff0000" points="89.8154,-36 28.8154,-36 28.8154,0 89.8154,0 89.8154,-36"/>
<text text-anchor="middle" x="59.3154" y="-15.5" font-family="Helvetica,sans-Serif" font-size="10.00" fill="#000000">Common</text>
</a>
</g>
</g>
<!-- dir_40bf9512ae030132e616856159de5c2e&#45;&gt;dir_4ab6b4cc6a7edbff49100e9123df213f -->
<g id="edge7" class="edge">
<title>dir_40bf9512ae030132e616856159de5c2e&#45;&gt;dir_4ab6b4cc6a7edbff49100e9123df213f</title>
<path fill="none" stroke="#000000" d="M48.2928,-290.6789C34.7938,-281.4052 19.7795,-268.2286 12.3154,-252 -19.9331,-181.8846 19.6212,-89.9318 43.5685,-45.0308"/>
<polygon fill="#000000" stroke="#000000" points="46.6773,-46.6406 48.4102,-36.1884 40.5375,-43.2786 46.6773,-46.6406"/>
<g id="a_edge7&#45;headlabel"><a xlink:href="dir_000487_000027.html" target="_top" xlink:title="1">
<text text-anchor="middle" x="47.4414" y="-48.6571" font-family="Helvetica,sans-Serif" font-size="10.00" fill="#000000">1</text>
</a>
</g>
</g>
<!-- dir_37c90836491b695b472bf98d1be8336b -->
<g id="node3" class="node">
<title>dir_37c90836491b695b472bf98d1be8336b</title>
<g id="a_node3"><a xlink:href="dir_37c90836491b695b472bf98d1be8336b.html" target="_top" xlink:title="Base">
<polygon fill="none" stroke="#ff0000" points="119.3154,-108 65.3154,-108 65.3154,-72 119.3154,-72 119.3154,-108"/>
<text text-anchor="middle" x="92.3154" y="-87.5" font-family="Helvetica,sans-Serif" font-size="10.00" fill="#000000">Base</text>
</a>
</g>
</g>
<!-- dir_40bf9512ae030132e616856159de5c2e&#45;&gt;dir_37c90836491b695b472bf98d1be8336b -->
<g id="edge8" class="edge">
<title>dir_40bf9512ae030132e616856159de5c2e&#45;&gt;dir_37c90836491b695b472bf98d1be8336b</title>
<path fill="none" stroke="#000000" d="M78.9292,-287.5785C80.8333,-277.1741 83.0336,-263.9066 84.3154,-252 89.3524,-205.2136 91.2223,-150.479 91.9135,-118.109"/>
<polygon fill="#000000" stroke="#000000" points="95.4143,-118.0975 92.1056,-108.0326 88.4155,-117.964 95.4143,-118.0975"/>
<g id="a_edge8&#45;headlabel"><a xlink:href="dir_000487_000274.html" target="_top" xlink:title="1">
<text text-anchor="middle" x="98.1846" y="-119.2456" font-family="Helvetica,sans-Serif" font-size="10.00" fill="#000000">1</text>
</a>
</g>
</g>
<!-- dir_1bbf2892a220cb5524662d6cf98f68a0 -->
<g id="node4" class="node">
<title>dir_1bbf2892a220cb5524662d6cf98f68a0</title>
<g id="a_node4"><a xlink:href="dir_1bbf2892a220cb5524662d6cf98f68a0.html" target="_top" xlink:title="include">
<polygon fill="none" stroke="#ff0000" points="75.3154,-252 21.3154,-252 21.3154,-216 75.3154,-216 75.3154,-252"/>
<text text-anchor="middle" x="48.3154" y="-231.5" font-family="Helvetica,sans-Serif" font-size="10.00" fill="#000000">include</text>
</a>
</g>
</g>
<!-- dir_40bf9512ae030132e616856159de5c2e&#45;&gt;dir_1bbf2892a220cb5524662d6cf98f68a0 -->
<g id="edge9" class="edge">
<title>dir_40bf9512ae030132e616856159de5c2e&#45;&gt;dir_1bbf2892a220cb5524662d6cf98f68a0</title>
<path fill="none" stroke="#000000" d="M68.5022,-287.8314C65.5511,-279.9617 62.0296,-270.5712 58.7604,-261.8533"/>
<polygon fill="#000000" stroke="#000000" points="62.0088,-260.5476 55.2204,-252.4133 55.4545,-263.0055 62.0088,-260.5476"/>
<g id="a_edge9&#45;headlabel"><a xlink:href="dir_000487_000483.html" target="_top" xlink:title="2">
<text text-anchor="middle" x="65.9294" y="-260.4164" font-family="Helvetica,sans-Serif" font-size="10.00" fill="#000000">2</text>
</a>
</g>
</g>
<!-- dir_1306292b77b40360479b729ac9ee7efe -->
<g id="node5" class="node">
<title>dir_1306292b77b40360479b729ac9ee7efe</title>
<g id="a_node5"><a xlink:href="dir_1306292b77b40360479b729ac9ee7efe.html" target="_top" xlink:title="ITSMFT">
<polygon fill="none" stroke="#ff0000" points="185.3154,-180 131.3154,-180 131.3154,-144 185.3154,-144 185.3154,-180"/>
<text text-anchor="middle" x="158.3154" y="-159.5" font-family="Helvetica,sans-Serif" font-size="10.00" fill="#000000">ITSMFT</text>
</a>
</g>
</g>
<!-- dir_40bf9512ae030132e616856159de5c2e&#45;&gt;dir_1306292b77b40360479b729ac9ee7efe -->
<g id="edge10" class="edge">
<title>dir_40bf9512ae030132e616856159de5c2e&#45;&gt;dir_1306292b77b40360479b729ac9ee7efe</title>
<path fill="none" stroke="#000000" d="M91.2173,-287.7841C99.5976,-277.6625 109.6899,-264.5994 117.3154,-252 129.3923,-232.0457 140.1969,-207.9265 147.679,-189.6811"/>
<polygon fill="#000000" stroke="#000000" points="151.0025,-190.7969 151.4808,-180.2129 144.5066,-188.1885 151.0025,-190.7969"/>
<g id="a_edge10&#45;headlabel"><a xlink:href="dir_000487_000043.html" target="_top" xlink:title="1">
<text text-anchor="middle" x="152.2979" y="-192.6906" font-family="Helvetica,sans-Serif" font-size="10.00" fill="#000000">1</text>
</a>
</g>
</g>
<!-- dir_37c90836491b695b472bf98d1be8336b&#45;&gt;dir_4ab6b4cc6a7edbff49100e9123df213f -->
<g id="edge1" class="edge">
<title>dir_37c90836491b695b472bf98d1be8336b&#45;&gt;dir_4ab6b4cc6a7edbff49100e9123df213f</title>
<path fill="none" stroke="#000000" d="M83.9881,-71.8314C80.3424,-63.8771 75.9846,-54.369 71.9527,-45.5723"/>
<polygon fill="#000000" stroke="#000000" points="75.1032,-44.0456 67.7548,-36.4133 68.7397,-46.9622 75.1032,-44.0456"/>
<g id="a_edge1&#45;headlabel"><a xlink:href="dir_000274_000027.html" target="_top" xlink:title="16">
<text text-anchor="middle" x="79.1819" y="-43.6304" font-family="Helvetica,sans-Serif" font-size="10.00" fill="#000000">16</text>
</a>
</g>
</g>
<!-- dir_1bbf2892a220cb5524662d6cf98f68a0&#45;&gt;dir_4ab6b4cc6a7edbff49100e9123df213f -->
<g id="edge2" class="edge">
<title>dir_1bbf2892a220cb5524662d6cf98f68a0&#45;&gt;dir_4ab6b4cc6a7edbff49100e9123df213f</title>
<path fill="none" stroke="#000000" d="M49.1903,-215.5338C50.6235,-185.4582 53.5858,-124.0231 56.3154,-72 56.7464,-63.7853 57.2338,-54.8687 57.6885,-46.6929"/>
<polygon fill="#000000" stroke="#000000" points="61.195,-46.673 58.2598,-36.4928 54.2059,-46.2814 61.195,-46.673"/>
<g id="a_edge2&#45;headlabel"><a xlink:href="dir_000483_000027.html" target="_top" xlink:title="1">
<text text-anchor="middle" x="63.8288" y="-47.9207" font-family="Helvetica,sans-Serif" font-size="10.00" fill="#000000">1</text>
</a>
</g>
</g>
<!-- dir_1bbf2892a220cb5524662d6cf98f68a0&#45;&gt;dir_37c90836491b695b472bf98d1be8336b -->
<g id="edge3" class="edge">
<title>dir_1bbf2892a220cb5524662d6cf98f68a0&#45;&gt;dir_37c90836491b695b472bf98d1be8336b</title>
<path fill="none" stroke="#000000" d="M53.888,-215.7623C61.4259,-191.0928 74.9416,-146.8598 83.7681,-117.9731"/>
<polygon fill="#000000" stroke="#000000" points="87.213,-118.6759 86.788,-108.0896 80.5185,-116.6303 87.213,-118.6759"/>
<g id="a_edge3&#45;headlabel"><a xlink:href="dir_000483_000274.html" target="_top" xlink:title="1">
<text text-anchor="middle" x="88.878" y="-120.4433" font-family="Helvetica,sans-Serif" font-size="10.00" fill="#000000">1</text>
</a>
</g>
</g>
<!-- dir_1bbf2892a220cb5524662d6cf98f68a0&#45;&gt;dir_1306292b77b40360479b729ac9ee7efe -->
<g id="edge4" class="edge">
<title>dir_1bbf2892a220cb5524662d6cf98f68a0&#45;&gt;dir_1306292b77b40360479b729ac9ee7efe</title>
<path fill="none" stroke="#000000" d="M75.5064,-216.2022C89.6532,-206.9425 107.1311,-195.5025 122.3784,-185.5224"/>
<polygon fill="#000000" stroke="#000000" points="124.6058,-188.2476 131.056,-179.8425 120.7721,-182.3907 124.6058,-188.2476"/>
<g id="a_edge4&#45;headlabel"><a xlink:href="dir_000483_000043.html" target="_top" xlink:title="1">
<text text-anchor="middle" x="123.1531" y="-190.0918" font-family="Helvetica,sans-Serif" font-size="10.00" fill="#000000">1</text>
</a>
</g>
</g>
<!-- dir_1306292b77b40360479b729ac9ee7efe&#45;&gt;dir_4ab6b4cc6a7edbff49100e9123df213f -->
<g id="edge5" class="edge">
<title>dir_1306292b77b40360479b729ac9ee7efe&#45;&gt;dir_4ab6b4cc6a7edbff49100e9123df213f</title>
<path fill="none" stroke="#000000" d="M155.4404,-143.6831C151.7197,-124.4271 143.7882,-93.939 128.3154,-72 120.2812,-60.6082 109.1571,-50.4525 98.1849,-42.1078"/>
<polygon fill="#000000" stroke="#000000" points="100.0291,-39.1219 89.8776,-36.089 95.9221,-44.7905 100.0291,-39.1219"/>
<g id="a_edge5&#45;headlabel"><a xlink:href="dir_000043_000027.html" target="_top" xlink:title="79">
<text text-anchor="middle" x="104.6058" y="-36.4316" font-family="Helvetica,sans-Serif" font-size="10.00" fill="#000000">79</text>
</a>
</g>
</g>
<!-- dir_1306292b77b40360479b729ac9ee7efe&#45;&gt;dir_37c90836491b695b472bf98d1be8336b -->
<g id="edge6" class="edge">
<title>dir_1306292b77b40360479b729ac9ee7efe&#45;&gt;dir_37c90836491b695b472bf98d1be8336b</title>
<path fill="none" stroke="#000000" d="M141.6608,-143.8314C133.904,-135.3694 124.5352,-125.1489 116.0544,-115.8971"/>
<polygon fill="#000000" stroke="#000000" points="118.5316,-113.4198 109.1942,-108.4133 113.3715,-118.1499 118.5316,-113.4198"/>
<g id="a_edge6&#45;headlabel"><a xlink:href="dir_000043_000274.html" target="_top" xlink:title="21">
<text text-anchor="middle" x="123.0535" y="-111.651" font-family="Helvetica,sans-Serif" font-size="10.00" fill="#000000">21</text>
</a>
</g>
</g>
</g>
</svg>
