<?xml version="1.0" encoding="UTF-8" standalone="no"?>
<!DOCTYPE svg PUBLIC "-//W3C//DTD SVG 1.1//EN"
 "http://www.w3.org/Graphics/SVG/1.1/DTD/svg11.dtd">
<!-- Generated by graphviz version 2.40.1 (20161225.0304)
 -->
<!-- Title: /home/travis/build/AliceO2Group/AliceO2/Detectors/CTF/workflow Pages: 1 -->
<!--zoomable 519 -->
<svg id="main" version="1.1" xmlns="http://www.w3.org/2000/svg" xmlns:xlink="http://www.w3.org/1999/xlink" xml:space="preserve" onload="init(evt)">
<style type="text/css"><![CDATA[
.edge:hover path { stroke: red; }
.edge:hover polygon { stroke: red; fill: red; }
]]></style>
<script type="text/javascript"><![CDATA[
var edges = document.getElementsByTagName('g');
if (edges && edges.length) {
  for (var i=0;i<edges.length;i++) {
    if (edges[i].id.substr(0,4)=='edge') {
      edges[i].setAttribute('class','edge');
    }
  }
}
]]></script>
        <defs>
                <circle id="rim" cx="0" cy="0" r="7"/>
                <circle id="rim2" cx="0" cy="0" r="3.5"/>
                <g id="zoomPlus">
                        <use xlink:href="#rim" fill="#404040">
                                <set attributeName="fill" to="#808080" begin="zoomplus.mouseover" end="zoomplus.mouseout"/>
                        </use>
                        <path d="M-4,0h8M0,-4v8" fill="none" stroke="white" stroke-width="1.5" pointer-events="none"/>
                </g>
                <g id="zoomMin">
                        <use xlink:href="#rim" fill="#404040">
                                <set attributeName="fill" to="#808080" begin="zoomminus.mouseover" end="zoomminus.mouseout"/>
                        </use>
                        <path d="M-4,0h8" fill="none" stroke="white" stroke-width="1.5" pointer-events="none"/>
                </g>
                <g id="dirArrow">
                        <path fill="none" stroke="white" stroke-width="1.5" d="M0,-3.0v7 M-2.5,-0.5L0,-3.0L2.5,-0.5"/>
                </g>
               <g id="resetDef">
                       <use xlink:href="#rim2" fill="#404040">
                               <set attributeName="fill" to="#808080" begin="reset.mouseover" end="reset.mouseout"/>
                       </use>
               </g>
        </defs>

<script type="text/javascript">
var viewWidth = 476;
var viewHeight = 519;
var sectionId = 'dynsection-0';
</script>
<script xlink:href="svgpan.js"/>
<svg id="graph" class="graph">
<g id="viewport">
<title>/home/travis/build/AliceO2Group/AliceO2/Detectors/CTF/workflow</title>
<g id="clust1" class="cluster">
<title>clusterdir_22c28337d94ed0b7d4c6655ee55d3b27</title>
<g id="a_clust1"><a xlink:href="dir_22c28337d94ed0b7d4c6655ee55d3b27.html" target="_top" xlink:title="CTF">
<polygon fill="#ddddee" stroke="#000000" points="218,-344 218,-503 384,-503 384,-344 218,-344"/>
<text text-anchor="middle" x="301" y="-491" font-family="Helvetica,sans-Serif" font-size="10.00" fill="#000000">CTF</text>
</a>
</g>
</g>
<g id="clust2" class="cluster">
<title>clusterdir_60bab4a80e8540917b3a9a0f6e3beabd</title>
<g id="a_clust2"><a xlink:href="dir_60bab4a80e8540917b3a9a0f6e3beabd.html" target="_top">
<polygon fill="#eeeeff" stroke="#000000" points="226,-352 226,-476 376,-476 376,-352 226,-352"/>
</a>
</g>
</g>
<!-- dir_60bab4a80e8540917b3a9a0f6e3beabd -->
<g id="node1" class="node">
<title>dir_60bab4a80e8540917b3a9a0f6e3beabd</title>
<text text-anchor="middle" x="337" y="-447.5" font-family="Helvetica,sans-Serif" font-size="10.00" fill="#000000">workflow</text>
</g>
<!-- dir_f880e19344c61eaaaff98e6bc913348a -->
<g id="node2" class="node">
<title>dir_f880e19344c61eaaaff98e6bc913348a</title>
<g id="a_node2"><a xlink:href="dir_f880e19344c61eaaaff98e6bc913348a.html" target="_top" xlink:title="include">
<polygon fill="#ffffff" stroke="#ff0000" points="343,-396 289,-396 289,-360 343,-360 343,-396"/>
<text text-anchor="middle" x="316" y="-375.5" font-family="Helvetica,sans-Serif" font-size="10.00" fill="#000000">include</text>
</a>
</g>
</g>
<!-- dir_bcbb2cf9a3d3d83e5515c82071a07177 -->
<g id="node8" class="node">
<title>dir_bcbb2cf9a3d3d83e5515c82071a07177</title>
<g id="a_node8"><a xlink:href="dir_bcbb2cf9a3d3d83e5515c82071a07177.html" target="_top" xlink:title="Framework">
<polygon fill="none" stroke="#ff0000" points="232.5,-324 161.5,-324 161.5,-288 232.5,-288 232.5,-324"/>
<text text-anchor="middle" x="197" y="-303.5" font-family="Helvetica,sans-Serif" font-size="10.00" fill="#000000">Framework</text>
</a>
</g>
</g>
<!-- dir_f880e19344c61eaaaff98e6bc913348a&#45;&gt;dir_bcbb2cf9a3d3d83e5515c82071a07177 -->
<g id="edge1" class="edge">
<title>dir_f880e19344c61eaaaff98e6bc913348a&#45;&gt;dir_bcbb2cf9a3d3d83e5515c82071a07177</title>
<path fill="none" stroke="#000000" d="M288.9971,-361.6621C273.2304,-352.1226 253.0721,-339.926 235.6459,-329.3824"/>
<polygon fill="#000000" stroke="#000000" points="237.1877,-326.2245 226.82,-324.0423 233.564,-332.2136 237.1877,-326.2245"/>
<g id="a_edge1&#45;headlabel"><a xlink:href="dir_000416_000013.html" target="_top" xlink:title="4">
<text text-anchor="middle" x="241.7329" y="-323.156" font-family="Helvetica,sans-Serif" font-size="10.00" fill="#000000">4</text>
</a>
</g>
</g>
<!-- dir_2171f7ec022c5423887b07c69b2f5b48 -->
<g id="node9" class="node">
<title>dir_2171f7ec022c5423887b07c69b2f5b48</title>
<g id="a_node9"><a xlink:href="dir_2171f7ec022c5423887b07c69b2f5b48.html" target="_top" xlink:title="DataFormats">
<polygon fill="none" stroke="#ff0000" points="257,-108 177,-108 177,-72 257,-72 257,-108"/>
<text text-anchor="middle" x="217" y="-87.5" font-family="Helvetica,sans-Serif" font-size="10.00" fill="#000000">DataFormats</text>
</a>
</g>
</g>
<!-- dir_f880e19344c61eaaaff98e6bc913348a&#45;&gt;dir_2171f7ec022c5423887b07c69b2f5b48 -->
<g id="edge2" class="edge">
<title>dir_f880e19344c61eaaaff98e6bc913348a&#45;&gt;dir_2171f7ec022c5423887b07c69b2f5b48</title>
<path fill="none" stroke="#000000" d="M316.0807,-359.5501C315.7233,-328.98 312.8965,-266.215 297,-216 286.0164,-181.3041 277.7279,-174.5819 258,-144 252.0658,-134.8009 245.0323,-125.159 238.4813,-116.61"/>
<polygon fill="#000000" stroke="#000000" points="241.0563,-114.2201 232.1497,-108.4822 235.5341,-118.522 241.0563,-114.2201"/>
<g id="a_edge2&#45;headlabel"><a xlink:href="dir_000416_000076.html" target="_top" xlink:title="2">
<text text-anchor="middle" x="245.5051" y="-112.811" font-family="Helvetica,sans-Serif" font-size="10.00" fill="#000000">2</text>
</a>
</g>
</g>
<!-- dir_0975f3a41b875e2b4566cea931b99e77 -->
<g id="node3" class="node">
<title>dir_0975f3a41b875e2b4566cea931b99e77</title>
<g id="a_node3"><a xlink:href="dir_0975f3a41b875e2b4566cea931b99e77.html" target="_top" xlink:title="src">
<polygon fill="#ffffff" stroke="#000000" points="288,-468 234,-468 234,-432 288,-432 288,-468"/>
<text text-anchor="middle" x="261" y="-447.5" font-family="Helvetica,sans-Serif" font-size="10.00" fill="#000000">src</text>
</a>
</g>
</g>
<!-- dir_0975f3a41b875e2b4566cea931b99e77&#45;&gt;dir_f880e19344c61eaaaff98e6bc913348a -->
<g id="edge5" class="edge">
<title>dir_0975f3a41b875e2b4566cea931b99e77&#45;&gt;dir_f880e19344c61eaaaff98e6bc913348a</title>
<path fill="none" stroke="#000000" d="M274.8788,-431.8314C281.2136,-423.5386 288.8384,-413.557 295.7926,-404.4533"/>
<polygon fill="#000000" stroke="#000000" points="298.6452,-406.4847 301.9343,-396.4133 293.0825,-402.2353 298.6452,-406.4847"/>
<g id="a_edge5&#45;headlabel"><a xlink:href="dir_000418_000416.html" target="_top" xlink:title="4">
<text text-anchor="middle" x="298.7195" y="-408.5647" font-family="Helvetica,sans-Serif" font-size="10.00" fill="#000000">4</text>
</a>
</g>
</g>
<!-- dir_4ab6b4cc6a7edbff49100e9123df213f -->
<g id="node4" class="node">
<title>dir_4ab6b4cc6a7edbff49100e9123df213f</title>
<g id="a_node4"><a xlink:href="dir_4ab6b4cc6a7edbff49100e9123df213f.html" target="_top" xlink:title="Common">
<polygon fill="none" stroke="#ff0000" points="179.5,-180 118.5,-180 118.5,-144 179.5,-144 179.5,-180"/>
<text text-anchor="middle" x="149" y="-159.5" font-family="Helvetica,sans-Serif" font-size="10.00" fill="#000000">Common</text>
</a>
</g>
</g>
<!-- dir_0975f3a41b875e2b4566cea931b99e77&#45;&gt;dir_4ab6b4cc6a7edbff49100e9123df213f -->
<g id="edge6" class="edge">
<title>dir_0975f3a41b875e2b4566cea931b99e77&#45;&gt;dir_4ab6b4cc6a7edbff49100e9123df213f</title>
<path fill="none" stroke="#000000" d="M237.0947,-431.7613C210.345,-409.6651 168.5856,-369.6748 152,-324 135.7991,-279.3846 139.652,-223.2021 144.1609,-190.0846"/>
<polygon fill="#000000" stroke="#000000" points="147.6241,-190.5907 145.6234,-180.1865 140.6993,-189.5675 147.6241,-190.5907"/>
<g id="a_edge6&#45;headlabel"><a xlink:href="dir_000418_000027.html" target="_top" xlink:title="2">
<text text-anchor="middle" x="149.9076" y="-192.0617" font-family="Helvetica,sans-Serif" font-size="10.00" fill="#000000">2</text>
</a>
</g>
</g>
<!-- dir_a597e8e061b11201a1dff411feb10d0b -->
<g id="node5" class="node">
<title>dir_a597e8e061b11201a1dff411feb10d0b</title>
<g id="a_node5"><a xlink:href="dir_a597e8e061b11201a1dff411feb10d0b.html" target="_top" xlink:title="TPC">
<polygon fill="none" stroke="#ff0000" points="288,-252 234,-252 234,-216 288,-216 288,-252"/>
<text text-anchor="middle" x="261" y="-231.5" font-family="Helvetica,sans-Serif" font-size="10.00" fill="#000000">TPC</text>
</a>
</g>
</g>
<!-- dir_0975f3a41b875e2b4566cea931b99e77&#45;&gt;dir_a597e8e061b11201a1dff411feb10d0b -->
<g id="edge7" class="edge">
<title>dir_0975f3a41b875e2b4566cea931b99e77&#45;&gt;dir_a597e8e061b11201a1dff411feb10d0b</title>
<path fill="none" stroke="#000000" d="M261,-431.9555C261,-394.3938 261,-307.5541 261,-262.4103"/>
<polygon fill="#000000" stroke="#000000" points="264.5001,-262.145 261,-252.1451 257.5001,-262.1451 264.5001,-262.145"/>
<g id="a_edge7&#45;headlabel"><a xlink:href="dir_000418_000049.html" target="_top" xlink:title="1">
<text text-anchor="middle" x="267.3393" y="-263.2397" font-family="Helvetica,sans-Serif" font-size="10.00" fill="#000000">1</text>
</a>
</g>
</g>
<!-- dir_1306292b77b40360479b729ac9ee7efe -->
<g id="node6" class="node">
<title>dir_1306292b77b40360479b729ac9ee7efe</title>
<g id="a_node6"><a xlink:href="dir_1306292b77b40360479b729ac9ee7efe.html" target="_top" xlink:title="ITSMFT">
<polygon fill="none" stroke="#ff0000" points="137,-36 83,-36 83,0 137,0 137,-36"/>
<text text-anchor="middle" x="110" y="-15.5" font-family="Helvetica,sans-Serif" font-size="10.00" fill="#000000">ITSMFT</text>
</a>
</g>
</g>
<!-- dir_0975f3a41b875e2b4566cea931b99e77&#45;&gt;dir_1306292b77b40360479b729ac9ee7efe -->
<g id="edge8" class="edge">
<title>dir_0975f3a41b875e2b4566cea931b99e77&#45;&gt;dir_1306292b77b40360479b729ac9ee7efe</title>
<path fill="none" stroke="#000000" d="M233.5617,-447.7107C166.551,-440.471 0,-411.8319 0,-306 0,-306 0,-306 0,-162 0,-111.5369 43.1872,-67.7768 75.4406,-42.1321"/>
<polygon fill="#000000" stroke="#000000" points="77.5949,-44.8907 83.3721,-36.0095 73.3175,-39.3495 77.5949,-44.8907"/>
<g id="a_edge8&#45;headlabel"><a xlink:href="dir_000418_000043.html" target="_top" xlink:title="2">
<text text-anchor="middle" x="76.4844" y="-46.8347" font-family="Helvetica,sans-Serif" font-size="10.00" fill="#000000">2</text>
</a>
</g>
</g>
<!-- dir_8ba487e25de5ee77e05e9dce7582cb98 -->
<g id="node7" class="node">
<title>dir_8ba487e25de5ee77e05e9dce7582cb98</title>
<g id="a_node7"><a xlink:href="dir_8ba487e25de5ee77e05e9dce7582cb98.html" target="_top" xlink:title="Algorithm">
<polygon fill="none" stroke="#ff0000" points="386.5,-36 321.5,-36 321.5,0 386.5,0 386.5,-36"/>
<text text-anchor="middle" x="354" y="-15.5" font-family="Helvetica,sans-Serif" font-size="10.00" fill="#000000">Algorithm</text>
</a>
</g>
</g>
<!-- dir_0975f3a41b875e2b4566cea931b99e77&#45;&gt;dir_8ba487e25de5ee77e05e9dce7582cb98 -->
<g id="edge9" class="edge">
<title>dir_0975f3a41b875e2b4566cea931b99e77&#45;&gt;dir_8ba487e25de5ee77e05e9dce7582cb98</title>
<path fill="none" stroke="#000000" d="M288.3244,-436.2905C291.562,-434.7902 294.8386,-433.3276 298,-432 384.7102,-395.5859 468,-400.046 468,-306 468,-306 468,-306 468,-162 468,-111.147 423.7553,-67.7674 390.3936,-42.2861"/>
<polygon fill="#000000" stroke="#000000" points="392.2982,-39.3413 382.1798,-36.1998 388.1307,-44.9655 392.2982,-39.3413"/>
<g id="a_edge9&#45;headlabel"><a xlink:href="dir_000418_000000.html" target="_top" xlink:title="1">
<text text-anchor="middle" x="396.8767" y="-36.7001" font-family="Helvetica,sans-Serif" font-size="10.00" fill="#000000">1</text>
</a>
</g>
</g>
<!-- dir_0975f3a41b875e2b4566cea931b99e77&#45;&gt;dir_bcbb2cf9a3d3d83e5515c82071a07177 -->
<g id="edge10" class="edge">
<title>dir_0975f3a41b875e2b4566cea931b99e77&#45;&gt;dir_bcbb2cf9a3d3d83e5515c82071a07177</title>
<path fill="none" stroke="#000000" d="M252.8944,-431.7623C241.8821,-406.9846 222.0984,-362.4714 209.2639,-333.5939"/>
<polygon fill="#000000" stroke="#000000" points="212.2996,-331.8062 205.0398,-324.0896 205.9029,-334.6492 212.2996,-331.8062"/>
<g id="a_edge10&#45;headlabel"><a xlink:href="dir_000418_000013.html" target="_top" xlink:title="18">
<text text-anchor="middle" x="216.354" y="-331.4379" font-family="Helvetica,sans-Serif" font-size="10.00" fill="#000000">18</text>
</a>
</g>
</g>
<!-- dir_0975f3a41b875e2b4566cea931b99e77&#45;&gt;dir_2171f7ec022c5423887b07c69b2f5b48 -->
<g id="edge11" class="edge">
<title>dir_0975f3a41b875e2b4566cea931b99e77&#45;&gt;dir_2171f7ec022c5423887b07c69b2f5b48</title>
<path fill="none" stroke="#000000" d="M288.3709,-436.7328C307.2616,-426.8875 332.4059,-412.3747 352,-396 392.6161,-362.0573 430,-358.9318 430,-306 430,-306 430,-306 430,-234 430,-155.615 329.7751,-117.0101 266.8256,-100.4935"/>
<polygon fill="#000000" stroke="#000000" points="267.6162,-97.0833 257.0637,-98.0296 265.9031,-103.8705 267.6162,-97.0833"/>
<g id="a_edge11&#45;headlabel"><a xlink:href="dir_000418_000076.html" target="_top" xlink:title="16">
<text text-anchor="middle" x="271.7963" y="-92.71" font-family="Helvetica,sans-Serif" font-size="10.00" fill="#000000">16</text>
</a>
</g>
</g>
<!-- dir_4ab6b4cc6a7edbff49100e9123df213f&#45;&gt;dir_bcbb2cf9a3d3d83e5515c82071a07177 -->
<g id="edge3" class="edge">
<title>dir_4ab6b4cc6a7edbff49100e9123df213f&#45;&gt;dir_bcbb2cf9a3d3d83e5515c82071a07177</title>
<path fill="none" stroke="#000000" d="M160.0955,-180.1453C166.8035,-198.4771 174.4255,-227.5112 183,-252 186.0165,-260.6151 189.7381,-269.8129 192.9164,-278.1307"/>
<polygon fill="#000000" stroke="#000000" points="189.7117,-279.5577 196.4399,-287.742 196.284,-277.1483 189.7117,-279.5577"/>
<g id="a_edge3&#45;headlabel"><a xlink:href="dir_000027_000013.html" target="_top" xlink:title="2">
<text text-anchor="middle" x="185.8087" y="-274.66" font-family="Helvetica,sans-Serif" font-size="10.00" fill="#000000">2</text>
</a>
</g>
</g>
<!-- dir_4ab6b4cc6a7edbff49100e9123df213f&#45;&gt;dir_2171f7ec022c5423887b07c69b2f5b48 -->
<g id="edge4" class="edge">
<title>dir_4ab6b4cc6a7edbff49100e9123df213f&#45;&gt;dir_2171f7ec022c5423887b07c69b2f5b48</title>
<path fill="none" stroke="#000000" d="M160.2069,-143.8314C167.5015,-135.219 177.1788,-124.7851 186.5234,-115.4048"/>
<polygon fill="#000000" stroke="#000000" points="189.2141,-117.6679 193.8944,-108.1628 184.3082,-112.6746 189.2141,-117.6679"/>
<g id="a_edge4&#45;headlabel"><a xlink:href="dir_000027_000076.html" target="_top" xlink:title="2">
<text text-anchor="middle" x="188.6399" y="-119.7124" font-family="Helvetica,sans-Serif" font-size="10.00" fill="#000000">2</text>
</a>
</g>
</g>
<!-- dir_a597e8e061b11201a1dff411feb10d0b&#45;&gt;dir_4ab6b4cc6a7edbff49100e9123df213f -->
<g id="edge12" class="edge">
<title>dir_a597e8e061b11201a1dff411feb10d0b&#45;&gt;dir_4ab6b4cc6a7edbff49100e9123df213f</title>
<path fill="none" stroke="#000000" d="M233.8879,-216.5708C219.3579,-207.2301 201.2549,-195.5924 185.5033,-185.4664"/>
<polygon fill="#000000" stroke="#000000" points="187.3365,-182.4841 177.032,-180.0206 183.5512,-188.3723 187.3365,-182.4841"/>
<g id="a_edge12&#45;headlabel"><a xlink:href="dir_000049_000027.html" target="_top" xlink:title="40">
<text text-anchor="middle" x="191.8955" y="-179.5395" font-family="Helvetica,sans-Serif" font-size="10.00" fill="#000000">40</text>
</a>
</g>
</g>
<!-- dir_a597e8e061b11201a1dff411feb10d0b&#45;&gt;dir_8ba487e25de5ee77e05e9dce7582cb98 -->
<g id="edge13" class="edge">
<title>dir_a597e8e061b11201a1dff411feb10d0b&#45;&gt;dir_8ba487e25de5ee77e05e9dce7582cb98</title>
<path fill="none" stroke="#000000" d="M268.7692,-215.9555C285.0441,-178.1556 322.806,-90.4506 342.1354,-45.5564"/>
<polygon fill="#000000" stroke="#000000" points="345.4476,-46.714 346.1875,-36.1451 339.0182,-43.9458 345.4476,-46.714"/>
<g id="a_edge13&#45;headlabel"><a xlink:href="dir_000049_000000.html" target="_top" xlink:title="5">
<text text-anchor="middle" x="346.634" y="-48.6384" font-family="Helvetica,sans-Serif" font-size="10.00" fill="#000000">5</text>
</a>
</g>
</g>
<!-- dir_a597e8e061b11201a1dff411feb10d0b&#45;&gt;dir_bcbb2cf9a3d3d83e5515c82071a07177 -->
<g id="edge14" class="edge">
<title>dir_a597e8e061b11201a1dff411feb10d0b&#45;&gt;dir_bcbb2cf9a3d3d83e5515c82071a07177</title>
<path fill="none" stroke="#000000" d="M250.6087,-252.4133C243.8694,-260.9088 234.9509,-271.1366 226.2773,-280.3696"/>
<polygon fill="#000000" stroke="#000000" points="223.5106,-278.1972 219.1023,-287.8314 228.5564,-283.049 223.5106,-278.1972"/>
<g id="a_edge14&#45;headlabel"><a xlink:href="dir_000049_000013.html" target="_top" xlink:title="103">
<text text-anchor="middle" x="223.9555" y="-271.1382" font-family="Helvetica,sans-Serif" font-size="10.00" fill="#000000">103</text>
</a>
</g>
</g>
<!-- dir_a597e8e061b11201a1dff411feb10d0b&#45;&gt;dir_2171f7ec022c5423887b07c69b2f5b48 -->
<g id="edge15" class="edge">
<title>dir_a597e8e061b11201a1dff411feb10d0b&#45;&gt;dir_2171f7ec022c5423887b07c69b2f5b48</title>
<path fill="none" stroke="#000000" d="M257.7205,-215.8176C254.1855,-197.4569 247.9765,-168.4009 240,-144 237.1327,-135.2285 233.4157,-125.9051 229.809,-117.518"/>
<polygon fill="#000000" stroke="#000000" points="232.9297,-115.9208 225.6833,-108.1916 226.528,-118.7527 232.9297,-115.9208"/>
<g id="a_edge15&#45;headlabel"><a xlink:href="dir_000049_000076.html" target="_top" xlink:title="183">
<text text-anchor="middle" x="236.9804" y="-115.5595" font-family="Helvetica,sans-Serif" font-size="10.00" fill="#000000">183</text>
</a>
</g>
</g>
<!-- dir_1306292b77b40360479b729ac9ee7efe&#45;&gt;dir_4ab6b4cc6a7edbff49100e9123df213f -->
<g id="edge16" class="edge">
<title>dir_1306292b77b40360479b729ac9ee7efe&#45;&gt;dir_4ab6b4cc6a7edbff49100e9123df213f</title>
<path fill="none" stroke="#000000" d="M114.8993,-36.0896C121.5593,-60.6805 133.5368,-104.905 141.3769,-133.8531"/>
<polygon fill="#000000" stroke="#000000" points="138.0681,-135.025 144.0606,-143.7623 144.8247,-133.1951 138.0681,-135.025"/>
<g id="a_edge16&#45;headlabel"><a xlink:href="dir_000043_000027.html" target="_top" xlink:title="79">
<text text-anchor="middle" x="134.3879" y="-129.7976" font-family="Helvetica,sans-Serif" font-size="10.00" fill="#000000">79</text>
</a>
</g>
</g>
<!-- dir_1306292b77b40360479b729ac9ee7efe&#45;&gt;dir_bcbb2cf9a3d3d83e5515c82071a07177 -->
<g id="edge17" class="edge">
<title>dir_1306292b77b40360479b729ac9ee7efe&#45;&gt;dir_bcbb2cf9a3d3d83e5515c82071a07177</title>
<path fill="none" stroke="#000000" d="M111.8877,-36.0236C110.0605,-66.5032 102.2817,-129.8089 118,-180 130.1975,-218.9487 159.2371,-256.3379 178.717,-280.1254"/>
<polygon fill="#000000" stroke="#000000" points="176.1053,-282.4598 185.1653,-287.9523 181.508,-278.0088 176.1053,-282.4598"/>
<g id="a_edge17&#45;headlabel"><a xlink:href="dir_000043_000013.html" target="_top" xlink:title="105">
<text text-anchor="middle" x="171.6283" y="-278.9908" font-family="Helvetica,sans-Serif" font-size="10.00" fill="#000000">105</text>
</a>
</g>
</g>
<!-- dir_1306292b77b40360479b729ac9ee7efe&#45;&gt;dir_2171f7ec022c5423887b07c69b2f5b48 -->
<g id="edge18" class="edge">
<title>dir_1306292b77b40360479b729ac9ee7efe&#45;&gt;dir_2171f7ec022c5423887b07c69b2f5b48</title>
<path fill="none" stroke="#000000" d="M137.1492,-32.5378C152.5867,-42.0981 171.81,-54.839 187.5871,-65.894"/>
<polygon fill="#000000" stroke="#000000" points="185.7713,-68.8972 195.9518,-71.8314 189.8231,-63.189 185.7713,-68.8972"/>
<g id="a_edge18&#45;headlabel"><a xlink:href="dir_000043_000076.html" target="_top" xlink:title="234">
<text text-anchor="middle" x="181.1967" y="-66.6319" font-family="Helvetica,sans-Serif" font-size="10.00" fill="#000000">234</text>
</a>
</g>
</g>
<!-- dir_8ba487e25de5ee77e05e9dce7582cb98&#45;&gt;dir_2171f7ec022c5423887b07c69b2f5b48 -->
<g id="edge19" class="edge">
<title>dir_8ba487e25de5ee77e05e9dce7582cb98&#45;&gt;dir_2171f7ec022c5423887b07c69b2f5b48</title>
<path fill="none" stroke="#000000" d="M325.6801,-36.0032C308.4711,-45.5422 286.1267,-57.3507 266.1412,-67.4901"/>
<polygon fill="#000000" stroke="#000000" points="264.5089,-64.3933 257.1516,-72.0171 267.6573,-70.6453 264.5089,-64.3933"/>
<g id="a_edge19&#45;headlabel"><a xlink:href="dir_000000_000076.html" target="_top" xlink:title="8">
<text text-anchor="middle" x="266.4423" y="-57.7407" font-family="Helvetica,sans-Serif" font-size="10.00" fill="#000000">8</text>
</a>
</g>
</g>
<!-- dir_bcbb2cf9a3d3d83e5515c82071a07177&#45;&gt;dir_4ab6b4cc6a7edbff49100e9123df213f -->
<g id="edge20" class="edge">
<title>dir_bcbb2cf9a3d3d83e5515c82071a07177&#45;&gt;dir_4ab6b4cc6a7edbff49100e9123df213f</title>
<path fill="none" stroke="#000000" d="M180.5861,-287.742C174.881,-277.3887 169.243,-264.118 165,-252 157.8657,-231.6245 151.3908,-208.1025 148.0845,-190.2164"/>
<polygon fill="#000000" stroke="#000000" points="151.5108,-189.475 146.49,-180.1453 144.5969,-190.5697 151.5108,-189.475"/>
<g id="a_edge20&#45;headlabel"><a xlink:href="dir_000013_000027.html" target="_top" xlink:title="8">
<text text-anchor="middle" x="154.8771" y="-190.0815" font-family="Helvetica,sans-Serif" font-size="10.00" fill="#000000">8</text>
</a>
</g>
</g>
<!-- dir_bcbb2cf9a3d3d83e5515c82071a07177&#45;&gt;dir_a597e8e061b11201a1dff411feb10d0b -->
<g id="edge21" class="edge">
<title>dir_bcbb2cf9a3d3d83e5515c82071a07177&#45;&gt;dir_a597e8e061b11201a1dff411feb10d0b</title>
<path fill="none" stroke="#000000" d="M207.1975,-287.8314C213.8946,-279.3694 222.7943,-269.1489 231.4724,-259.8971"/>
<polygon fill="#000000" stroke="#000000" points="234.2563,-262.0511 238.6566,-252.4133 229.2065,-257.2034 234.2563,-262.0511"/>
<g id="a_edge21&#45;headlabel"><a xlink:href="dir_000013_000049.html" target="_top" xlink:title="1">
<text text-anchor="middle" x="233.8152" y="-264.1105" font-family="Helvetica,sans-Serif" font-size="10.00" fill="#000000">1</text>
</a>
</g>
</g>
<!-- dir_bcbb2cf9a3d3d83e5515c82071a07177&#45;&gt;dir_1306292b77b40360479b729ac9ee7efe -->
<g id="edge22" class="edge">
<title>dir_bcbb2cf9a3d3d83e5515c82071a07177&#45;&gt;dir_1306292b77b40360479b729ac9ee7efe</title>
<path fill="none" stroke="#000000" d="M172.5299,-287.9523C148.319,-265.1329 113.6356,-223.5409 100,-180 85.8167,-134.7104 90.7653,-78.7425 98.3641,-45.8496"/>
<polygon fill="#000000" stroke="#000000" points="101.7899,-46.5813 100.9035,-36.0236 95.0126,-44.8298 101.7899,-46.5813"/>
<g id="a_edge22&#45;headlabel"><a xlink:href="dir_000013_000043.html" target="_top" xlink:title="1">
<text text-anchor="middle" x="103.6395" y="-48.272" font-family="Helvetica,sans-Serif" font-size="10.00" fill="#000000">1</text>
</a>
</g>
</g>
<!-- dir_bcbb2cf9a3d3d83e5515c82071a07177&#45;&gt;dir_8ba487e25de5ee77e05e9dce7582cb98 -->
<g id="edge23" class="edge">
<title>dir_bcbb2cf9a3d3d83e5515c82071a07177&#45;&gt;dir_8ba487e25de5ee77e05e9dce7582cb98</title>
<path fill="none" stroke="#000000" d="M232.968,-294.9684C254.6018,-286.538 280.9668,-272.7742 297,-252 344.757,-190.1216 353.1613,-93.8373 354.2201,-46.391"/>
<polygon fill="#000000" stroke="#000000" points="357.7218,-46.2756 354.349,-36.2319 350.7224,-46.1867 357.7218,-46.2756"/>
<g id="a_edge23&#45;headlabel"><a xlink:href="dir_000013_000000.html" target="_top" xlink:title="1">
<text text-anchor="middle" x="360.5153" y="-47.4059" font-family="Helvetica,sans-Serif" font-size="10.00" fill="#000000">1</text>
</a>
</g>
</g>
<!-- dir_bcbb2cf9a3d3d83e5515c82071a07177&#45;&gt;dir_2171f7ec022c5423887b07c69b2f5b48 -->
<g id="edge24" class="edge">
<title>dir_bcbb2cf9a3d3d83e5515c82071a07177&#45;&gt;dir_2171f7ec022c5423887b07c69b2f5b48</title>
<path fill="none" stroke="#000000" d="M194.7249,-287.9555C194.7517,-250.3144 202.5598,-163.1867 209.672,-118.1246"/>
<polygon fill="#000000" stroke="#000000" points="213.1431,-118.5896 211.3648,-108.1451 206.2416,-117.4189 213.1431,-118.5896"/>
<g id="a_edge24&#45;headlabel"><a xlink:href="dir_000013_000076.html" target="_top" xlink:title="82">
<text text-anchor="middle" x="215.3413" y="-120.1084" font-family="Helvetica,sans-Serif" font-size="10.00" fill="#000000">82</text>
</a>
</g>
</g>
<!-- dir_2171f7ec022c5423887b07c69b2f5b48&#45;&gt;dir_4ab6b4cc6a7edbff49100e9123df213f -->
<g id="edge25" class="edge">
<title>dir_2171f7ec022c5423887b07c69b2f5b48&#45;&gt;dir_4ab6b4cc6a7edbff49100e9123df213f</title>
<path fill="none" stroke="#000000" d="M205.5857,-108.4133C198.3024,-116.9938 188.6978,-127.3414 179.4257,-136.6463"/>
<polygon fill="#000000" stroke="#000000" points="176.7926,-134.3266 172.1117,-143.8314 181.6981,-139.3202 176.7926,-134.3266"/>
<g id="a_edge25&#45;headlabel"><a xlink:href="dir_000076_000027.html" target="_top" xlink:title="35">
<text text-anchor="middle" x="177.3671" y="-127.2822" font-family="Helvetica,sans-Serif" font-size="10.00" fill="#000000">35</text>
</a>
</g>
</g>
<!-- dir_2171f7ec022c5423887b07c69b2f5b48&#45;&gt;dir_1306292b77b40360479b729ac9ee7efe -->
<g id="edge26" class="edge">
<title>dir_2171f7ec022c5423887b07c69b2f5b48&#45;&gt;dir_1306292b77b40360479b729ac9ee7efe</title>
<path fill="none" stroke="#000000" d="M184.047,-71.8314C169.7336,-62.7927 153.1682,-51.7476 139.2899,-42.0198"/>
<polygon fill="#000000" stroke="#000000" points="141.2203,-39.098 131.0402,-36.1628 137.168,-44.8058 141.2203,-39.098"/>
<g id="a_edge26&#45;headlabel"><a xlink:href="dir_000076_000043.html" target="_top" xlink:title="1">
<text text-anchor="middle" x="145.795" y="-36.3637" font-family="Helvetica,sans-Serif" font-size="10.00" fill="#000000">1</text>
</a>
</g>
</g>
<!-- dir_2171f7ec022c5423887b07c69b2f5b48&#45;&gt;dir_8ba487e25de5ee77e05e9dce7582cb98 -->
<g id="edge27" class="edge">
<title>dir_2171f7ec022c5423887b07c69b2f5b48&#45;&gt;dir_8ba487e25de5ee77e05e9dce7582cb98</title>
<path fill="none" stroke="#000000" d="M245.6185,-71.8314C264.9658,-61.1146 290.7054,-47.5773 312.2966,-36.7593"/>
<polygon fill="#000000" stroke="#000000" points="313.8655,-39.888 321.2653,-32.3056 310.7521,-33.6185 313.8655,-39.888"/>
<g id="a_edge27&#45;headlabel"><a xlink:href="dir_000076_000000.html" target="_top" xlink:title="2">
<text text-anchor="middle" x="311.9088" y="-41.5297" font-family="Helvetica,sans-Serif" font-size="10.00" fill="#000000">2</text>
</a>
</g>
</g>
<!-- dir_2171f7ec022c5423887b07c69b2f5b48&#45;&gt;dir_bcbb2cf9a3d3d83e5515c82071a07177 -->
<g id="edge28" class="edge">
<title>dir_2171f7ec022c5423887b07c69b2f5b48&#45;&gt;dir_bcbb2cf9a3d3d83e5515c82071a07177</title>
<path fill="none" stroke="#000000" d="M219.275,-108.1451C219.2344,-145.8741 211.42,-233.0083 204.309,-277.9956"/>
<polygon fill="#000000" stroke="#000000" points="200.8414,-277.5105 202.6167,-287.9555 207.7424,-278.6831 200.8414,-277.5105"/>
<g id="a_edge28&#45;headlabel"><a xlink:href="dir_000076_000013.html" target="_top" xlink:title="11">
<text text-anchor="middle" x="198.6443" y="-270.9911" font-family="Helvetica,sans-Serif" font-size="10.00" fill="#000000">11</text>
</a>
</g>
</g>
</g>
</svg>
        <g id="navigator" transform="translate(0 0)" fill="#404254">
                <rect fill="#f2f5e9" fill-opacity="0.5" stroke="#606060" stroke-width=".5" x="0" y="0" width="60" height="60"/>
                <use id="zoomplus" xlink:href="#zoomPlus" x="17" y="9" onmousedown="handleZoom(evt,'in')"/>
                <use id="zoomminus" xlink:href="#zoomMin" x="42" y="9" onmousedown="handleZoom(evt,'out')"/>
                <use id="reset" xlink:href="#resetDef" x="30" y="36" onmousedown="handleReset()"/>
                <g id="arrowUp" xlink:href="#dirArrow" transform="translate(30 24)" onmousedown="handlePan(0,-1)">
                  <use xlink:href="#rim" fill="#404040">
                        <set attributeName="fill" to="#808080" begin="arrowUp.mouseover" end="arrowUp.mouseout"/>
                  </use>
                  <path fill="none" stroke="white" stroke-width="1.5" d="M0,-3.0v7 M-2.5,-0.5L0,-3.0L2.5,-0.5"/>
                </g>
                <g id="arrowRight" xlink:href="#dirArrow" transform="rotate(90) translate(36 -43)" onmousedown="handlePan(1,0)">
                  <use xlink:href="#rim" fill="#404040">
                        <set attributeName="fill" to="#808080" begin="arrowRight.mouseover" end="arrowRight.mouseout"/>
                  </use>
                  <path fill="none" stroke="white" stroke-width="1.5" d="M0,-3.0v7 M-2.5,-0.5L0,-3.0L2.5,-0.5"/>
                </g>
                <g id="arrowDown" xlink:href="#dirArrow" transform="rotate(180) translate(-30 -48)" onmousedown="handlePan(0,1)">
                  <use xlink:href="#rim" fill="#404040">
                        <set attributeName="fill" to="#808080" begin="arrowDown.mouseover" end="arrowDown.mouseout"/>
                  </use>
                  <path fill="none" stroke="white" stroke-width="1.5" d="M0,-3.0v7 M-2.5,-0.5L0,-3.0L2.5,-0.5"/>
                </g>
                <g id="arrowLeft" xlink:href="#dirArrow" transform="rotate(270) translate(-36 17)" onmousedown="handlePan(-1,0)">
                  <use xlink:href="#rim" fill="#404040">
                        <set attributeName="fill" to="#808080" begin="arrowLeft.mouseover" end="arrowLeft.mouseout"/>
                  </use>
                  <path fill="none" stroke="white" stroke-width="1.5" d="M0,-3.0v7 M-2.5,-0.5L0,-3.0L2.5,-0.5"/>
                </g>
        </g>
        <svg viewBox="0 0 15 15" width="100%" height="30px" preserveAspectRatio="xMaxYMin meet">
         <g id="arrow_out" transform="scale(0.3 0.3)">
          <a xlink:href="dir_60bab4a80e8540917b3a9a0f6e3beabd_dep_org.svg" target="_base">
           <rect id="button" ry="5" rx="5" y="6" x="6" height="38" width="38"
                fill="#f2f5e9" fill-opacity="0.5" stroke="#606060" stroke-width="1.0"/>
           <path id="arrow"
             d="M 11.500037,31.436501 C 11.940474,20.09759 22.043105,11.32322 32.158766,21.979434 L 37.068811,17.246167 C 37.068811,17.246167 37.088388,32 37.088388,32 L 22.160133,31.978069 C 22.160133,31.978069 26.997745,27.140456 26.997745,27.140456 C 18.528582,18.264221 13.291696,25.230495 11.500037,31.436501 z"
             style="fill:#404040;"/>
          </a>
         </g>
        </svg>
</svg>
