<?xml version="1.0" encoding="UTF-8" standalone="no"?>
<!DOCTYPE svg PUBLIC "-//W3C//DTD SVG 1.1//EN"
 "http://www.w3.org/Graphics/SVG/1.1/DTD/svg11.dtd">
<!-- Generated by graphviz version 2.40.1 (20161225.0304)
 -->
<!-- Title: /home/travis/build/AliceO2Group/AliceO2/Detectors/MUON/MCH/Simulation/src Pages: 1 -->
<svg width="343pt" height="367pt"
 viewBox="0.00 0.00 343.00 367.00" xmlns="http://www.w3.org/2000/svg" xmlns:xlink="http://www.w3.org/1999/xlink">
<g id="graph0" class="graph" transform="scale(1 1) rotate(0) translate(4 363)">
<title>/home/travis/build/AliceO2Group/AliceO2/Detectors/MUON/MCH/Simulation/src</title>
<g id="clust1" class="cluster">
<title>clusterdir_e4cb5181a3c884468a78a261ced84e7b</title>
<g id="a_clust1"><a xlink:href="dir_e4cb5181a3c884468a78a261ced84e7b.html" target="_top" xlink:title="Simulation">
<polygon fill="#ddddee" stroke="#000000" points="131,-280 131,-351 201,-351 201,-280 131,-280"/>
<text text-anchor="middle" x="166" y="-339" font-family="Helvetica,sans-Serif" font-size="10.00" fill="#000000">Simulation</text>
</a>
</g>
</g>
<!-- dir_8e864c1c886fb9a88af672544595837b -->
<g id="node1" class="node">
<title>dir_8e864c1c886fb9a88af672544595837b</title>
<g id="a_node1"><a xlink:href="dir_8e864c1c886fb9a88af672544595837b.html" target="_top" xlink:title="src">
<polygon fill="#eeeeff" stroke="#000000" points="193,-324 139,-324 139,-288 193,-288 193,-324"/>
<text text-anchor="middle" x="166" y="-303.5" font-family="Helvetica,sans-Serif" font-size="10.00" fill="#000000">src</text>
</a>
</g>
</g>
<!-- dir_37c90836491b695b472bf98d1be8336b -->
<g id="node2" class="node">
<title>dir_37c90836491b695b472bf98d1be8336b</title>
<g id="a_node2"><a xlink:href="dir_37c90836491b695b472bf98d1be8336b.html" target="_top" xlink:title="Base">
<polygon fill="none" stroke="#ff0000" points="181,-180 127,-180 127,-144 181,-144 181,-180"/>
<text text-anchor="middle" x="154" y="-159.5" font-family="Helvetica,sans-Serif" font-size="10.00" fill="#000000">Base</text>
</a>
</g>
</g>
<!-- dir_8e864c1c886fb9a88af672544595837b&#45;&gt;dir_37c90836491b695b472bf98d1be8336b -->
<g id="edge1" class="edge">
<title>dir_8e864c1c886fb9a88af672544595837b&#45;&gt;dir_37c90836491b695b472bf98d1be8336b</title>
<path fill="none" stroke="#000000" d="M162.7894,-287.5631C161.0974,-277.1539 159.1416,-263.8867 158,-252 156.0219,-231.4036 155.0201,-208.0598 154.5137,-190.3085"/>
<polygon fill="#000000" stroke="#000000" points="158.0127,-190.2194 154.2637,-180.31 151.0149,-190.3944 158.0127,-190.2194"/>
<g id="a_edge1&#45;headlabel"><a xlink:href="dir_000215_000274.html" target="_top" xlink:title="4">
<text text-anchor="middle" x="160.9408" y="-191.2419" font-family="Helvetica,sans-Serif" font-size="10.00" fill="#000000">4</text>
</a>
</g>
</g>
<!-- dir_3dca47489aa3153ac3c60c079f5f624d -->
<g id="node3" class="node">
<title>dir_3dca47489aa3153ac3c60c079f5f624d</title>
<g id="a_node3"><a xlink:href="dir_3dca47489aa3153ac3c60c079f5f624d.html" target="_top" xlink:title="include">
<polygon fill="none" stroke="#ff0000" points="221,-252 167,-252 167,-216 221,-216 221,-252"/>
<text text-anchor="middle" x="194" y="-231.5" font-family="Helvetica,sans-Serif" font-size="10.00" fill="#000000">include</text>
</a>
</g>
</g>
<!-- dir_8e864c1c886fb9a88af672544595837b&#45;&gt;dir_3dca47489aa3153ac3c60c079f5f624d -->
<g id="edge2" class="edge">
<title>dir_8e864c1c886fb9a88af672544595837b&#45;&gt;dir_3dca47489aa3153ac3c60c079f5f624d</title>
<path fill="none" stroke="#000000" d="M173.0656,-287.8314C176.126,-279.9617 179.7779,-270.5712 183.1682,-261.8533"/>
<polygon fill="#000000" stroke="#000000" points="186.4768,-263.0019 186.8393,-252.4133 179.9527,-260.4647 186.4768,-263.0019"/>
<g id="a_edge2&#45;headlabel"><a xlink:href="dir_000215_000204.html" target="_top" xlink:title="12">
<text text-anchor="middle" x="187.8202" y="-264.8812" font-family="Helvetica,sans-Serif" font-size="10.00" fill="#000000">12</text>
</a>
</g>
</g>
<!-- dir_f01815b857f9009bea48e2cb39492245 -->
<g id="node4" class="node">
<title>dir_f01815b857f9009bea48e2cb39492245</title>
<g id="a_node4"><a xlink:href="dir_f01815b857f9009bea48e2cb39492245.html" target="_top" xlink:title="Passive">
<polygon fill="none" stroke="#ff0000" points="54,-36 0,-36 0,0 54,0 54,-36"/>
<text text-anchor="middle" x="27" y="-15.5" font-family="Helvetica,sans-Serif" font-size="10.00" fill="#000000">Passive</text>
</a>
</g>
</g>
<!-- dir_8e864c1c886fb9a88af672544595837b&#45;&gt;dir_f01815b857f9009bea48e2cb39492245 -->
<g id="edge3" class="edge">
<title>dir_8e864c1c886fb9a88af672544595837b&#45;&gt;dir_f01815b857f9009bea48e2cb39492245</title>
<path fill="none" stroke="#000000" d="M147.3317,-287.9669C115.2734,-255.5441 50.9,-183.6964 27,-108 20.6981,-88.0404 20.9914,-64.3264 22.7033,-46.2521"/>
<polygon fill="#000000" stroke="#000000" points="26.2084,-46.4064 23.8709,-36.0726 19.254,-45.6086 26.2084,-46.4064"/>
<g id="a_edge3&#45;headlabel"><a xlink:href="dir_000215_000586.html" target="_top" xlink:title="6">
<text text-anchor="middle" x="28.6197" y="-47.8011" font-family="Helvetica,sans-Serif" font-size="10.00" fill="#000000">6</text>
</a>
</g>
</g>
<!-- dir_bcbb2cf9a3d3d83e5515c82071a07177 -->
<g id="node5" class="node">
<title>dir_bcbb2cf9a3d3d83e5515c82071a07177</title>
<g id="a_node5"><a xlink:href="dir_bcbb2cf9a3d3d83e5515c82071a07177.html" target="_top" xlink:title="Framework">
<polygon fill="none" stroke="#ff0000" points="126.5,-108 55.5,-108 55.5,-72 126.5,-72 126.5,-108"/>
<text text-anchor="middle" x="91" y="-87.5" font-family="Helvetica,sans-Serif" font-size="10.00" fill="#000000">Framework</text>
</a>
</g>
</g>
<!-- dir_8e864c1c886fb9a88af672544595837b&#45;&gt;dir_bcbb2cf9a3d3d83e5515c82071a07177 -->
<g id="edge4" class="edge">
<title>dir_8e864c1c886fb9a88af672544595837b&#45;&gt;dir_bcbb2cf9a3d3d83e5515c82071a07177</title>
<path fill="none" stroke="#000000" d="M158.5849,-287.7883C148.7746,-263.4233 131.1859,-218.7848 118,-180 110.977,-159.3426 103.9224,-135.7037 98.7863,-117.8374"/>
<polygon fill="#000000" stroke="#000000" points="102.1044,-116.7099 95.9986,-108.0513 95.3722,-118.6276 102.1044,-116.7099"/>
<g id="a_edge4&#45;headlabel"><a xlink:href="dir_000215_000013.html" target="_top" xlink:title="1">
<text text-anchor="middle" x="105.8197" y="-116.8891" font-family="Helvetica,sans-Serif" font-size="10.00" fill="#000000">1</text>
</a>
</g>
</g>
<!-- dir_2171f7ec022c5423887b07c69b2f5b48 -->
<g id="node6" class="node">
<title>dir_2171f7ec022c5423887b07c69b2f5b48</title>
<g id="a_node6"><a xlink:href="dir_2171f7ec022c5423887b07c69b2f5b48.html" target="_top" xlink:title="DataFormats">
<polygon fill="none" stroke="#ff0000" points="204,-36 124,-36 124,0 204,0 204,-36"/>
<text text-anchor="middle" x="164" y="-15.5" font-family="Helvetica,sans-Serif" font-size="10.00" fill="#000000">DataFormats</text>
</a>
</g>
</g>
<!-- dir_8e864c1c886fb9a88af672544595837b&#45;&gt;dir_2171f7ec022c5423887b07c69b2f5b48 -->
<g id="edge5" class="edge">
<title>dir_8e864c1c886fb9a88af672544595837b&#45;&gt;dir_2171f7ec022c5423887b07c69b2f5b48</title>
<path fill="none" stroke="#000000" d="M193.1093,-290.9972C206.9042,-281.7409 222.3425,-268.4801 230,-252 263.1972,-180.5545 212.9066,-88.9057 183.2192,-44.489"/>
<polygon fill="#000000" stroke="#000000" points="185.9476,-42.2785 177.4108,-36.0036 180.1712,-46.2325 185.9476,-42.2785"/>
<g id="a_edge5&#45;headlabel"><a xlink:href="dir_000215_000076.html" target="_top" xlink:title="3">
<text text-anchor="middle" x="190.3209" y="-41.141" font-family="Helvetica,sans-Serif" font-size="10.00" fill="#000000">3</text>
</a>
</g>
</g>
<!-- dir_b098e3604916eca5f90f2bb1c75b7880 -->
<g id="node7" class="node">
<title>dir_b098e3604916eca5f90f2bb1c75b7880</title>
<g id="a_node7"><a xlink:href="dir_b098e3604916eca5f90f2bb1c75b7880.html" target="_top" xlink:title="Mapping">
<polygon fill="none" stroke="#ff0000" points="335,-252 277,-252 277,-216 335,-216 335,-252"/>
<text text-anchor="middle" x="306" y="-231.5" font-family="Helvetica,sans-Serif" font-size="10.00" fill="#000000">Mapping</text>
</a>
</g>
</g>
<!-- dir_8e864c1c886fb9a88af672544595837b&#45;&gt;dir_b098e3604916eca5f90f2bb1c75b7880 -->
<g id="edge6" class="edge">
<title>dir_8e864c1c886fb9a88af672544595837b&#45;&gt;dir_b098e3604916eca5f90f2bb1c75b7880</title>
<path fill="none" stroke="#000000" d="M193.3258,-291.9468C214.5413,-281.0359 244.2138,-265.7758 267.7832,-253.6544"/>
<polygon fill="#000000" stroke="#000000" points="269.5204,-256.6968 276.8125,-249.0107 266.3189,-250.4717 269.5204,-256.6968"/>
<g id="a_edge6&#45;headlabel"><a xlink:href="dir_000215_000515.html" target="_top" xlink:title="1">
<text text-anchor="middle" x="267.6222" y="-258.3656" font-family="Helvetica,sans-Serif" font-size="10.00" fill="#000000">1</text>
</a>
</g>
</g>
<!-- dir_37c90836491b695b472bf98d1be8336b&#45;&gt;dir_bcbb2cf9a3d3d83e5515c82071a07177 -->
<g id="edge7" class="edge">
<title>dir_37c90836491b695b472bf98d1be8336b&#45;&gt;dir_bcbb2cf9a3d3d83e5515c82071a07177</title>
<path fill="none" stroke="#000000" d="M138.1024,-143.8314C130.7722,-135.454 121.934,-125.3531 113.9031,-116.1749"/>
<polygon fill="#000000" stroke="#000000" points="116.3307,-113.6343 107.1116,-108.4133 111.0627,-118.2438 116.3307,-113.6343"/>
<g id="a_edge7&#45;headlabel"><a xlink:href="dir_000274_000013.html" target="_top" xlink:title="1">
<text text-anchor="middle" x="120.8345" y="-111.9698" font-family="Helvetica,sans-Serif" font-size="10.00" fill="#000000">1</text>
</a>
</g>
</g>
<!-- dir_37c90836491b695b472bf98d1be8336b&#45;&gt;dir_2171f7ec022c5423887b07c69b2f5b48 -->
<g id="edge8" class="edge">
<title>dir_37c90836491b695b472bf98d1be8336b&#45;&gt;dir_2171f7ec022c5423887b07c69b2f5b48</title>
<path fill="none" stroke="#000000" d="M150.5933,-143.7623C149.8392,-119.201 152.6168,-75.2474 156.5335,-46.3541"/>
<polygon fill="#000000" stroke="#000000" points="160.0511,-46.5005 158.0855,-36.0896 153.1298,-45.454 160.0511,-46.5005"/>
<g id="a_edge8&#45;headlabel"><a xlink:href="dir_000274_000076.html" target="_top" xlink:title="12">
<text text-anchor="middle" x="162.3212" y="-47.9792" font-family="Helvetica,sans-Serif" font-size="10.00" fill="#000000">12</text>
</a>
</g>
</g>
<!-- dir_3dca47489aa3153ac3c60c079f5f624d&#45;&gt;dir_37c90836491b695b472bf98d1be8336b -->
<g id="edge9" class="edge">
<title>dir_3dca47489aa3153ac3c60c079f5f624d&#45;&gt;dir_37c90836491b695b472bf98d1be8336b</title>
<path fill="none" stroke="#000000" d="M183.9063,-215.8314C179.4403,-207.7925 174.0925,-198.1666 169.1621,-189.2918"/>
<polygon fill="#000000" stroke="#000000" points="172.1456,-187.4551 164.2296,-180.4133 166.0265,-190.8546 172.1456,-187.4551"/>
<g id="a_edge9&#45;headlabel"><a xlink:href="dir_000204_000274.html" target="_top" xlink:title="1">
<text text-anchor="middle" x="176.3732" y="-186.7185" font-family="Helvetica,sans-Serif" font-size="10.00" fill="#000000">1</text>
</a>
</g>
</g>
<!-- dir_3dca47489aa3153ac3c60c079f5f624d&#45;&gt;dir_2171f7ec022c5423887b07c69b2f5b48 -->
<g id="edge10" class="edge">
<title>dir_3dca47489aa3153ac3c60c079f5f624d&#45;&gt;dir_2171f7ec022c5423887b07c69b2f5b48</title>
<path fill="none" stroke="#000000" d="M194.3231,-215.7788C194.4887,-185.5376 193.253,-123.2346 182,-72 180.101,-63.3539 177.327,-54.1468 174.523,-45.83"/>
<polygon fill="#000000" stroke="#000000" points="177.7642,-44.4965 171.1445,-36.2243 171.1608,-46.8191 177.7642,-44.4965"/>
<g id="a_edge10&#45;headlabel"><a xlink:href="dir_000204_000076.html" target="_top" xlink:title="3">
<text text-anchor="middle" x="181.6353" y="-44.4455" font-family="Helvetica,sans-Serif" font-size="10.00" fill="#000000">3</text>
</a>
</g>
</g>
<!-- dir_f01815b857f9009bea48e2cb39492245&#45;&gt;dir_37c90836491b695b472bf98d1be8336b -->
<g id="edge11" class="edge">
<title>dir_f01815b857f9009bea48e2cb39492245&#45;&gt;dir_37c90836491b695b472bf98d1be8336b</title>
<path fill="none" stroke="#000000" d="M26.3905,-36.1263C26.6571,-55.7859 29.8946,-87.1454 46,-108 63.4899,-130.6474 93.0335,-144.4959 116.8041,-152.49"/>
<polygon fill="#000000" stroke="#000000" points="115.9967,-155.9051 126.5861,-155.5662 118.0967,-149.2275 115.9967,-155.9051"/>
<g id="a_edge11&#45;headlabel"><a xlink:href="dir_000586_000274.html" target="_top" xlink:title="19">
<text text-anchor="middle" x="111.7159" y="-155.0353" font-family="Helvetica,sans-Serif" font-size="10.00" fill="#000000">19</text>
</a>
</g>
</g>
<!-- dir_bcbb2cf9a3d3d83e5515c82071a07177&#45;&gt;dir_f01815b857f9009bea48e2cb39492245 -->
<g id="edge12" class="edge">
<title>dir_bcbb2cf9a3d3d83e5515c82071a07177&#45;&gt;dir_f01815b857f9009bea48e2cb39492245</title>
<path fill="none" stroke="#000000" d="M74.8501,-71.8314C67.3283,-63.3694 58.2435,-53.1489 50.0196,-43.8971"/>
<polygon fill="#000000" stroke="#000000" points="52.627,-41.5621 43.3673,-36.4133 47.3951,-46.2127 52.627,-41.5621"/>
<g id="a_edge12&#45;headlabel"><a xlink:href="dir_000013_000586.html" target="_top" xlink:title="2">
<text text-anchor="middle" x="57.1372" y="-39.8624" font-family="Helvetica,sans-Serif" font-size="10.00" fill="#000000">2</text>
</a>
</g>
</g>
<!-- dir_bcbb2cf9a3d3d83e5515c82071a07177&#45;&gt;dir_2171f7ec022c5423887b07c69b2f5b48 -->
<g id="edge13" class="edge">
<title>dir_bcbb2cf9a3d3d83e5515c82071a07177&#45;&gt;dir_2171f7ec022c5423887b07c69b2f5b48</title>
<path fill="none" stroke="#000000" d="M103.4686,-71.8314C111.4394,-63.1337 121.9694,-52.5783 132.056,-43.1265"/>
<polygon fill="#000000" stroke="#000000" points="134.6386,-45.5066 139.6331,-36.1628 129.9019,-40.3526 134.6386,-45.5066"/>
<g id="a_edge13&#45;headlabel"><a xlink:href="dir_000013_000076.html" target="_top" xlink:title="82">
<text text-anchor="middle" x="133.9132" y="-47.5294" font-family="Helvetica,sans-Serif" font-size="10.00" fill="#000000">82</text>
</a>
</g>
</g>
<!-- dir_2171f7ec022c5423887b07c69b2f5b48&#45;&gt;dir_37c90836491b695b472bf98d1be8336b -->
<g id="edge14" class="edge">
<title>dir_2171f7ec022c5423887b07c69b2f5b48&#45;&gt;dir_37c90836491b695b472bf98d1be8336b</title>
<path fill="none" stroke="#000000" d="M167.4021,-36.0896C168.1738,-60.6805 165.3778,-104.905 161.4383,-133.8531"/>
<polygon fill="#000000" stroke="#000000" points="157.9745,-133.3513 159.9397,-143.7623 164.8958,-134.3981 157.9745,-133.3513"/>
<g id="a_edge14&#45;headlabel"><a xlink:href="dir_000076_000274.html" target="_top" xlink:title="1">
<text text-anchor="middle" x="155.7046" y="-126.8726" font-family="Helvetica,sans-Serif" font-size="10.00" fill="#000000">1</text>
</a>
</g>
</g>
<!-- dir_2171f7ec022c5423887b07c69b2f5b48&#45;&gt;dir_bcbb2cf9a3d3d83e5515c82071a07177 -->
<g id="edge15" class="edge">
<title>dir_2171f7ec022c5423887b07c69b2f5b48&#45;&gt;dir_bcbb2cf9a3d3d83e5515c82071a07177</title>
<path fill="none" stroke="#000000" d="M151.307,-36.4133C143.3498,-45.0787 132.9,-55.5464 122.8919,-64.9223"/>
<polygon fill="#000000" stroke="#000000" points="120.3684,-62.4879 115.3734,-71.8314 125.1048,-67.6422 120.3684,-62.4879"/>
<g id="a_edge15&#45;headlabel"><a xlink:href="dir_000076_000013.html" target="_top" xlink:title="11">
<text text-anchor="middle" x="121.094" y="-55.4651" font-family="Helvetica,sans-Serif" font-size="10.00" fill="#000000">11</text>
</a>
</g>
</g>
</g>
</svg>
