<?xml version="1.0" encoding="UTF-8" standalone="no"?>
<!DOCTYPE svg PUBLIC "-//W3C//DTD SVG 1.1//EN"
 "http://www.w3.org/Graphics/SVG/1.1/DTD/svg11.dtd">
<!-- Generated by graphviz version 2.40.1 (20161225.0304)
 -->
<!-- Title: /home/travis/build/AliceO2Group/AliceO2/Detectors/TRD/workflow Pages: 1 -->
<!--zoomable 591 -->
<svg id="main" version="1.1" xmlns="http://www.w3.org/2000/svg" xmlns:xlink="http://www.w3.org/1999/xlink" xml:space="preserve" onload="init(evt)">
<style type="text/css"><![CDATA[
.edge:hover path { stroke: red; }
.edge:hover polygon { stroke: red; fill: red; }
]]></style>
<script type="text/javascript"><![CDATA[
var edges = document.getElementsByTagName('g');
if (edges && edges.length) {
  for (var i=0;i<edges.length;i++) {
    if (edges[i].id.substr(0,4)=='edge') {
      edges[i].setAttribute('class','edge');
    }
  }
}
]]></script>
        <defs>
                <circle id="rim" cx="0" cy="0" r="7"/>
                <circle id="rim2" cx="0" cy="0" r="3.5"/>
                <g id="zoomPlus">
                        <use xlink:href="#rim" fill="#404040">
                                <set attributeName="fill" to="#808080" begin="zoomplus.mouseover" end="zoomplus.mouseout"/>
                        </use>
                        <path d="M-4,0h8M0,-4v8" fill="none" stroke="white" stroke-width="1.5" pointer-events="none"/>
                </g>
                <g id="zoomMin">
                        <use xlink:href="#rim" fill="#404040">
                                <set attributeName="fill" to="#808080" begin="zoomminus.mouseover" end="zoomminus.mouseout"/>
                        </use>
                        <path d="M-4,0h8" fill="none" stroke="white" stroke-width="1.5" pointer-events="none"/>
                </g>
                <g id="dirArrow">
                        <path fill="none" stroke="white" stroke-width="1.5" d="M0,-3.0v7 M-2.5,-0.5L0,-3.0L2.5,-0.5"/>
                </g>
               <g id="resetDef">
                       <use xlink:href="#rim2" fill="#404040">
                               <set attributeName="fill" to="#808080" begin="reset.mouseover" end="reset.mouseout"/>
                       </use>
               </g>
        </defs>

<script type="text/javascript">
var viewWidth = 726;
var viewHeight = 591;
var sectionId = 'dynsection-0';
</script>
<script xlink:href="svgpan.js"/>
<svg id="graph" class="graph">
<g id="viewport">
<title>/home/travis/build/AliceO2Group/AliceO2/Detectors/TRD/workflow</title>
<g id="clust1" class="cluster">
<title>clusterdir_69dd0583e11051991bf4c0cf23c50933</title>
<g id="a_clust1"><a xlink:href="dir_69dd0583e11051991bf4c0cf23c50933.html" target="_top" xlink:title="TRD">
<polygon fill="#ddddee" stroke="#000000" points="282,-416 282,-575 448,-575 448,-416 282,-416"/>
<text text-anchor="middle" x="365" y="-563" font-family="Helvetica,sans-Serif" font-size="10.00" fill="#000000">TRD</text>
</a>
</g>
</g>
<g id="clust2" class="cluster">
<title>clusterdir_184e1d06e85fb151746c3bdf717cc8ad</title>
<g id="a_clust2"><a xlink:href="dir_184e1d06e85fb151746c3bdf717cc8ad.html" target="_top">
<polygon fill="#eeeeff" stroke="#000000" points="290,-424 290,-548 440,-548 440,-424 290,-424"/>
</a>
</g>
</g>
<!-- dir_184e1d06e85fb151746c3bdf717cc8ad -->
<g id="node1" class="node">
<title>dir_184e1d06e85fb151746c3bdf717cc8ad</title>
<text text-anchor="middle" x="401" y="-519.5" font-family="Helvetica,sans-Serif" font-size="10.00" fill="#000000">workflow</text>
</g>
<!-- dir_11da180be91271a1ebdaa9322b1ad99a -->
<g id="node2" class="node">
<title>dir_11da180be91271a1ebdaa9322b1ad99a</title>
<g id="a_node2"><a xlink:href="dir_11da180be91271a1ebdaa9322b1ad99a.html" target="_top" xlink:title="include">
<polygon fill="#ffffff" stroke="#ff0000" points="420,-468 366,-468 366,-432 420,-432 420,-468"/>
<text text-anchor="middle" x="393" y="-447.5" font-family="Helvetica,sans-Serif" font-size="10.00" fill="#000000">include</text>
</a>
</g>
</g>
<!-- dir_6af676bf18881990e4083e191d0e63e0 -->
<g id="node6" class="node">
<title>dir_6af676bf18881990e4083e191d0e63e0</title>
<g id="a_node6"><a xlink:href="dir_6af676bf18881990e4083e191d0e63e0.html" target="_top" xlink:title="CCDB">
<polygon fill="none" stroke="#ff0000" points="386,-324 332,-324 332,-288 386,-288 386,-324"/>
<text text-anchor="middle" x="359" y="-303.5" font-family="Helvetica,sans-Serif" font-size="10.00" fill="#000000">CCDB</text>
</a>
</g>
</g>
<!-- dir_11da180be91271a1ebdaa9322b1ad99a&#45;&gt;dir_6af676bf18881990e4083e191d0e63e0 -->
<g id="edge40" class="edge">
<title>dir_11da180be91271a1ebdaa9322b1ad99a&#45;&gt;dir_6af676bf18881990e4083e191d0e63e0</title>
<path fill="none" stroke="#000000" d="M388.6939,-431.7623C382.8691,-407.0928 372.4252,-362.8598 365.6048,-333.9731"/>
<polygon fill="#000000" stroke="#000000" points="368.9755,-333.0177 363.2712,-324.0896 362.1628,-334.6263 368.9755,-333.0177"/>
<g id="a_edge40&#45;headlabel"><a xlink:href="dir_000625_000019.html" target="_top" xlink:title="1">
<text text-anchor="middle" x="372.5647" y="-333.3637" font-family="Helvetica,sans-Serif" font-size="10.00" fill="#000000">1</text>
</a>
</g>
</g>
<!-- dir_09bf7f7c4011a5ccc426492db4dd0891 -->
<g id="node9" class="node">
<title>dir_09bf7f7c4011a5ccc426492db4dd0891</title>
<g id="a_node9"><a xlink:href="dir_09bf7f7c4011a5ccc426492db4dd0891.html" target="_top" xlink:title="base">
<polygon fill="none" stroke="#ff0000" points="272,-396 218,-396 218,-360 272,-360 272,-396"/>
<text text-anchor="middle" x="245" y="-375.5" font-family="Helvetica,sans-Serif" font-size="10.00" fill="#000000">base</text>
</a>
</g>
</g>
<!-- dir_11da180be91271a1ebdaa9322b1ad99a&#45;&gt;dir_09bf7f7c4011a5ccc426492db4dd0891 -->
<g id="edge41" class="edge">
<title>dir_11da180be91271a1ebdaa9322b1ad99a&#45;&gt;dir_09bf7f7c4011a5ccc426492db4dd0891</title>
<path fill="none" stroke="#000000" d="M365.8545,-436.7941C342.1456,-425.26 307.536,-408.4229 281.4236,-395.7196"/>
<polygon fill="#000000" stroke="#000000" points="282.7471,-392.4713 272.2236,-391.2439 279.6848,-398.7659 282.7471,-392.4713"/>
<g id="a_edge41&#45;headlabel"><a xlink:href="dir_000625_000141.html" target="_top" xlink:title="7">
<text text-anchor="middle" x="287.2216" y="-388.9906" font-family="Helvetica,sans-Serif" font-size="10.00" fill="#000000">7</text>
</a>
</g>
</g>
<!-- dir_bcbb2cf9a3d3d83e5515c82071a07177 -->
<g id="node10" class="node">
<title>dir_bcbb2cf9a3d3d83e5515c82071a07177</title>
<g id="a_node10"><a xlink:href="dir_bcbb2cf9a3d3d83e5515c82071a07177.html" target="_top" xlink:title="Framework">
<polygon fill="none" stroke="#ff0000" points="475.5,-180 404.5,-180 404.5,-144 475.5,-144 475.5,-180"/>
<text text-anchor="middle" x="440" y="-159.5" font-family="Helvetica,sans-Serif" font-size="10.00" fill="#000000">Framework</text>
</a>
</g>
</g>
<!-- dir_11da180be91271a1ebdaa9322b1ad99a&#45;&gt;dir_bcbb2cf9a3d3d83e5515c82071a07177 -->
<g id="edge42" class="edge">
<title>dir_11da180be91271a1ebdaa9322b1ad99a&#45;&gt;dir_bcbb2cf9a3d3d83e5515c82071a07177</title>
<path fill="none" stroke="#000000" d="M408.2783,-431.7613C415.6554,-421.8388 423.8012,-408.9669 428,-396 451.038,-324.8531 447.1759,-235.215 443.1684,-190.3353"/>
<polygon fill="#000000" stroke="#000000" points="446.6331,-189.8001 442.1891,-180.1823 439.6654,-190.4722 446.6331,-189.8001"/>
<g id="a_edge42&#45;headlabel"><a xlink:href="dir_000625_000013.html" target="_top" xlink:title="8">
<text text-anchor="middle" x="449.8042" y="-190.6055" font-family="Helvetica,sans-Serif" font-size="10.00" fill="#000000">8</text>
</a>
</g>
</g>
<!-- dir_5cb2a8e9fdbe67a11efb4176f60bf3d6 -->
<g id="node11" class="node">
<title>dir_5cb2a8e9fdbe67a11efb4176f60bf3d6</title>
<g id="a_node11"><a xlink:href="dir_5cb2a8e9fdbe67a11efb4176f60bf3d6.html" target="_top" xlink:title="simulation">
<polygon fill="none" stroke="#ff0000" points="206,-468 138,-468 138,-432 206,-432 206,-468"/>
<text text-anchor="middle" x="172" y="-447.5" font-family="Helvetica,sans-Serif" font-size="10.00" fill="#000000">simulation</text>
</a>
</g>
</g>
<!-- dir_11da180be91271a1ebdaa9322b1ad99a&#45;&gt;dir_5cb2a8e9fdbe67a11efb4176f60bf3d6 -->
<g id="edge43" class="edge">
<title>dir_11da180be91271a1ebdaa9322b1ad99a&#45;&gt;dir_5cb2a8e9fdbe67a11efb4176f60bf3d6</title>
<path fill="none" stroke="#000000" d="M365.9871,-450C316.1263,-450 266.2656,-450 216.4049,-450"/>
<polygon fill="#000000" stroke="#000000" points="216.0996,-446.5001 206.0996,-450 216.0996,-453.5001 216.0996,-446.5001"/>
<g id="a_edge43&#45;headlabel"><a xlink:href="dir_000625_000305.html" target="_top" xlink:title="2">
<text text-anchor="middle" x="219.6942" y="-441.1607" font-family="Helvetica,sans-Serif" font-size="10.00" fill="#000000">2</text>
</a>
</g>
</g>
<!-- dir_2171f7ec022c5423887b07c69b2f5b48 -->
<g id="node12" class="node">
<title>dir_2171f7ec022c5423887b07c69b2f5b48</title>
<g id="a_node12"><a xlink:href="dir_2171f7ec022c5423887b07c69b2f5b48.html" target="_top" xlink:title="DataFormats">
<polygon fill="none" stroke="#ff0000" points="357,-108 277,-108 277,-72 357,-72 357,-108"/>
<text text-anchor="middle" x="317" y="-87.5" font-family="Helvetica,sans-Serif" font-size="10.00" fill="#000000">DataFormats</text>
</a>
</g>
</g>
<!-- dir_11da180be91271a1ebdaa9322b1ad99a&#45;&gt;dir_2171f7ec022c5423887b07c69b2f5b48 -->
<g id="edge44" class="edge">
<title>dir_11da180be91271a1ebdaa9322b1ad99a&#45;&gt;dir_2171f7ec022c5423887b07c69b2f5b48</title>
<path fill="none" stroke="#000000" d="M393.3827,-431.6382C393.8731,-407.107 394.6962,-362.2849 395,-324 395.127,-308.0005 397.9026,-303.7345 395,-288 382.5716,-220.6274 365.6499,-207.5265 340,-144 336.5449,-135.4429 332.656,-126.1823 329.0726,-117.7867"/>
<polygon fill="#000000" stroke="#000000" points="332.2131,-116.2295 325.0507,-108.4224 325.7812,-118.992 332.2131,-116.2295"/>
<g id="a_edge44&#45;headlabel"><a xlink:href="dir_000625_000076.html" target="_top" xlink:title="4">
<text text-anchor="middle" x="336.2404" y="-115.9119" font-family="Helvetica,sans-Serif" font-size="10.00" fill="#000000">4</text>
</a>
</g>
</g>
<!-- dir_19cbc61730528058d9acd8ae2ca70332 -->
<g id="node3" class="node">
<title>dir_19cbc61730528058d9acd8ae2ca70332</title>
<g id="a_node3"><a xlink:href="dir_19cbc61730528058d9acd8ae2ca70332.html" target="_top" xlink:title="src">
<polygon fill="#ffffff" stroke="#000000" points="352,-540 298,-540 298,-504 352,-504 352,-540"/>
<text text-anchor="middle" x="325" y="-519.5" font-family="Helvetica,sans-Serif" font-size="10.00" fill="#000000">src</text>
</a>
</g>
</g>
<!-- dir_19cbc61730528058d9acd8ae2ca70332&#45;&gt;dir_11da180be91271a1ebdaa9322b1ad99a -->
<g id="edge28" class="edge">
<title>dir_19cbc61730528058d9acd8ae2ca70332&#45;&gt;dir_11da180be91271a1ebdaa9322b1ad99a</title>
<path fill="none" stroke="#000000" d="M342.1593,-503.8314C350.1511,-495.3694 359.8038,-485.1489 368.5416,-475.8971"/>
<polygon fill="#000000" stroke="#000000" points="371.288,-478.0866 375.6097,-468.4133 366.1989,-473.2802 371.288,-478.0866"/>
<g id="a_edge28&#45;headlabel"><a xlink:href="dir_000627_000625.html" target="_top" xlink:title="8">
<text text-anchor="middle" x="370.884" y="-480.1494" font-family="Helvetica,sans-Serif" font-size="10.00" fill="#000000">8</text>
</a>
</g>
</g>
<!-- dir_40b4a122691869ee86baf7f2711ed718 -->
<g id="node4" class="node">
<title>dir_40b4a122691869ee86baf7f2711ed718</title>
<g id="a_node4"><a xlink:href="dir_40b4a122691869ee86baf7f2711ed718.html" target="_top" xlink:title="Steer">
<polygon fill="none" stroke="#ff0000" points="640,-468 586,-468 586,-432 640,-432 640,-468"/>
<text text-anchor="middle" x="613" y="-447.5" font-family="Helvetica,sans-Serif" font-size="10.00" fill="#000000">Steer</text>
</a>
</g>
</g>
<!-- dir_19cbc61730528058d9acd8ae2ca70332&#45;&gt;dir_40b4a122691869ee86baf7f2711ed718 -->
<g id="edge19" class="edge">
<title>dir_19cbc61730528058d9acd8ae2ca70332&#45;&gt;dir_40b4a122691869ee86baf7f2711ed718</title>
<path fill="none" stroke="#000000" d="M352.1211,-507.741C355.3951,-506.3393 358.7359,-505.0502 362,-504 452.1441,-474.9973 481.3063,-495.2355 572,-468 573.2564,-467.6227 574.5253,-467.2169 575.7996,-466.7881"/>
<polygon fill="#000000" stroke="#000000" points="577.4169,-469.92 585.5567,-463.1381 574.9642,-463.3638 577.4169,-469.92"/>
<g id="a_edge19&#45;headlabel"><a xlink:href="dir_000627_000722.html" target="_top" xlink:title="3">
<text text-anchor="middle" x="575.045" y="-471.3387" font-family="Helvetica,sans-Serif" font-size="10.00" fill="#000000">3</text>
</a>
</g>
</g>
<!-- dir_4ab6b4cc6a7edbff49100e9123df213f -->
<g id="node5" class="node">
<title>dir_4ab6b4cc6a7edbff49100e9123df213f</title>
<g id="a_node5"><a xlink:href="dir_4ab6b4cc6a7edbff49100e9123df213f.html" target="_top" xlink:title="Common">
<polygon fill="none" stroke="#ff0000" points="347.5,-252 286.5,-252 286.5,-216 347.5,-216 347.5,-252"/>
<text text-anchor="middle" x="317" y="-231.5" font-family="Helvetica,sans-Serif" font-size="10.00" fill="#000000">Common</text>
</a>
</g>
</g>
<!-- dir_19cbc61730528058d9acd8ae2ca70332&#45;&gt;dir_4ab6b4cc6a7edbff49100e9123df213f -->
<g id="edge20" class="edge">
<title>dir_19cbc61730528058d9acd8ae2ca70332&#45;&gt;dir_4ab6b4cc6a7edbff49100e9123df213f</title>
<path fill="none" stroke="#000000" d="M324.4996,-503.9843C323.1471,-455.2939 319.411,-320.7961 317.7794,-262.0573"/>
<polygon fill="#000000" stroke="#000000" points="321.2767,-261.9078 317.5002,-252.0089 314.2794,-262.1022 321.2767,-261.9078"/>
<g id="a_edge20&#45;headlabel"><a xlink:href="dir_000627_000027.html" target="_top" xlink:title="1">
<text text-anchor="middle" x="324.2146" y="-262.9222" font-family="Helvetica,sans-Serif" font-size="10.00" fill="#000000">1</text>
</a>
</g>
</g>
<!-- dir_19cbc61730528058d9acd8ae2ca70332&#45;&gt;dir_6af676bf18881990e4083e191d0e63e0 -->
<g id="edge21" class="edge">
<title>dir_19cbc61730528058d9acd8ae2ca70332&#45;&gt;dir_6af676bf18881990e4083e191d0e63e0</title>
<path fill="none" stroke="#000000" d="M327.8403,-503.9555C333.7653,-466.3144 347.4799,-379.1867 354.573,-334.1246"/>
<polygon fill="#000000" stroke="#000000" points="358.0462,-334.5677 356.1438,-324.1451 351.1314,-333.4792 358.0462,-334.5677"/>
<g id="a_edge21&#45;headlabel"><a xlink:href="dir_000627_000019.html" target="_top" xlink:title="1">
<text text-anchor="middle" x="360.2921" y="-336.06" font-family="Helvetica,sans-Serif" font-size="10.00" fill="#000000">1</text>
</a>
</g>
</g>
<!-- dir_37c90836491b695b472bf98d1be8336b -->
<g id="node7" class="node">
<title>dir_37c90836491b695b472bf98d1be8336b</title>
<g id="a_node7"><a xlink:href="dir_37c90836491b695b472bf98d1be8336b.html" target="_top" xlink:title="Base">
<polygon fill="none" stroke="#ff0000" points="300,-36 246,-36 246,0 300,0 300,-36"/>
<text text-anchor="middle" x="273" y="-15.5" font-family="Helvetica,sans-Serif" font-size="10.00" fill="#000000">Base</text>
</a>
</g>
</g>
<!-- dir_19cbc61730528058d9acd8ae2ca70332&#45;&gt;dir_37c90836491b695b472bf98d1be8336b -->
<g id="edge22" class="edge">
<title>dir_19cbc61730528058d9acd8ae2ca70332&#45;&gt;dir_37c90836491b695b472bf98d1be8336b</title>
<path fill="none" stroke="#000000" d="M297.8768,-520.2168C253.1389,-516.3065 162.1516,-504.2062 95,-468 43.806,-440.3976 0,-436.1611 0,-378 0,-378 0,-378 0,-162 0,-115.1222 17.1915,-99.7137 55,-72 83.5833,-51.0484 181.496,-32.6234 235.8645,-23.7012"/>
<polygon fill="#000000" stroke="#000000" points="236.4895,-27.1457 245.8037,-22.0964 235.3736,-20.2352 236.4895,-27.1457"/>
<g id="a_edge22&#45;headlabel"><a xlink:href="dir_000627_000274.html" target="_top" xlink:title="3">
<text text-anchor="middle" x="233.3934" y="-28.0216" font-family="Helvetica,sans-Serif" font-size="10.00" fill="#000000">3</text>
</a>
</g>
</g>
<!-- dir_8ba487e25de5ee77e05e9dce7582cb98 -->
<g id="node8" class="node">
<title>dir_8ba487e25de5ee77e05e9dce7582cb98</title>
<g id="a_node8"><a xlink:href="dir_8ba487e25de5ee77e05e9dce7582cb98.html" target="_top" xlink:title="Algorithm">
<polygon fill="none" stroke="#ff0000" points="674.5,-36 609.5,-36 609.5,0 674.5,0 674.5,-36"/>
<text text-anchor="middle" x="642" y="-15.5" font-family="Helvetica,sans-Serif" font-size="10.00" fill="#000000">Algorithm</text>
</a>
</g>
</g>
<!-- dir_19cbc61730528058d9acd8ae2ca70332&#45;&gt;dir_8ba487e25de5ee77e05e9dce7582cb98 -->
<g id="edge23" class="edge">
<title>dir_19cbc61730528058d9acd8ae2ca70332&#45;&gt;dir_8ba487e25de5ee77e05e9dce7582cb98</title>
<path fill="none" stroke="#000000" d="M352.0759,-507.595C355.3581,-506.2196 358.7131,-504.9765 362,-504 485.2319,-467.3896 537.4853,-531.96 649,-468 692.7218,-442.9231 718,-428.4028 718,-378 718,-378 718,-378 718,-162 718,-116.656 688.1616,-71.5999 665.8774,-44.2735"/>
<polygon fill="#000000" stroke="#000000" points="668.3585,-41.7856 659.2456,-36.3814 662.9994,-46.2889 668.3585,-41.7856"/>
<g id="a_edge23&#45;headlabel"><a xlink:href="dir_000627_000000.html" target="_top" xlink:title="1">
<text text-anchor="middle" x="672.8447" y="-40.211" font-family="Helvetica,sans-Serif" font-size="10.00" fill="#000000">1</text>
</a>
</g>
</g>
<!-- dir_19cbc61730528058d9acd8ae2ca70332&#45;&gt;dir_09bf7f7c4011a5ccc426492db4dd0891 -->
<g id="edge24" class="edge">
<title>dir_19cbc61730528058d9acd8ae2ca70332&#45;&gt;dir_09bf7f7c4011a5ccc426492db4dd0891</title>
<path fill="none" stroke="#000000" d="M310.3335,-503.6235C302.5809,-493.4549 293.2056,-480.398 286,-468 274.2798,-447.8342 263.4533,-423.7279 255.8722,-405.5413"/>
<polygon fill="#000000" stroke="#000000" points="259.0382,-404.0367 252.0093,-396.1093 252.5604,-406.6898 259.0382,-404.0367"/>
<g id="a_edge24&#45;headlabel"><a xlink:href="dir_000627_000141.html" target="_top" xlink:title="11">
<text text-anchor="middle" x="263.028" y="-403.7871" font-family="Helvetica,sans-Serif" font-size="10.00" fill="#000000">11</text>
</a>
</g>
</g>
<!-- dir_19cbc61730528058d9acd8ae2ca70332&#45;&gt;dir_bcbb2cf9a3d3d83e5515c82071a07177 -->
<g id="edge25" class="edge">
<title>dir_19cbc61730528058d9acd8ae2ca70332&#45;&gt;dir_bcbb2cf9a3d3d83e5515c82071a07177</title>
<path fill="none" stroke="#000000" d="M352.1806,-508.539C382.0651,-493.6418 426.2516,-471.2875 429,-468 503.3331,-379.0882 541.321,-322.6617 496,-216 491.3021,-204.9437 483.1086,-195.0516 474.4157,-186.8494"/>
<polygon fill="#000000" stroke="#000000" points="476.5453,-184.0614 466.7231,-180.0896 471.9246,-189.3197 476.5453,-184.0614"/>
<g id="a_edge25&#45;headlabel"><a xlink:href="dir_000627_000013.html" target="_top" xlink:title="30">
<text text-anchor="middle" x="481.1197" y="-181.8014" font-family="Helvetica,sans-Serif" font-size="10.00" fill="#000000">30</text>
</a>
</g>
</g>
<!-- dir_19cbc61730528058d9acd8ae2ca70332&#45;&gt;dir_5cb2a8e9fdbe67a11efb4176f60bf3d6 -->
<g id="edge26" class="edge">
<title>dir_19cbc61730528058d9acd8ae2ca70332&#45;&gt;dir_5cb2a8e9fdbe67a11efb4176f60bf3d6</title>
<path fill="none" stroke="#000000" d="M297.9989,-509.2936C275.1304,-498.532 241.92,-482.9035 215.3356,-470.3932"/>
<polygon fill="#000000" stroke="#000000" points="216.775,-467.2024 206.2365,-466.1113 213.7944,-473.5362 216.775,-467.2024"/>
<g id="a_edge26&#45;headlabel"><a xlink:href="dir_000627_000305.html" target="_top" xlink:title="8">
<text text-anchor="middle" x="221.2364" y="-463.6639" font-family="Helvetica,sans-Serif" font-size="10.00" fill="#000000">8</text>
</a>
</g>
</g>
<!-- dir_19cbc61730528058d9acd8ae2ca70332&#45;&gt;dir_2171f7ec022c5423887b07c69b2f5b48 -->
<g id="edge27" class="edge">
<title>dir_19cbc61730528058d9acd8ae2ca70332&#45;&gt;dir_2171f7ec022c5423887b07c69b2f5b48</title>
<path fill="none" stroke="#000000" d="M297.7966,-518.235C249.3617,-510.9539 151.168,-493.3922 129,-468 65.2981,-395.0329 106.4588,-348.6458 100,-252 96.6618,-202.0487 94.3061,-176.946 132,-144 152.1676,-126.3727 219.4744,-109.6718 267.0664,-99.6336"/>
<polygon fill="#000000" stroke="#000000" points="267.8177,-103.0524 276.8988,-97.5948 266.3964,-96.1982 267.8177,-103.0524"/>
<g id="a_edge27&#45;headlabel"><a xlink:href="dir_000627_000076.html" target="_top" xlink:title="21">
<text text-anchor="middle" x="264.8744" y="-104.0623" font-family="Helvetica,sans-Serif" font-size="10.00" fill="#000000">21</text>
</a>
</g>
</g>
<!-- dir_40b4a122691869ee86baf7f2711ed718&#45;&gt;dir_11da180be91271a1ebdaa9322b1ad99a -->
<g id="edge6" class="edge">
<title>dir_40b4a122691869ee86baf7f2711ed718&#45;&gt;dir_11da180be91271a1ebdaa9322b1ad99a</title>
<path fill="none" stroke="#000000" d="M585.8693,-450C533.9491,-450 482.029,-450 430.1089,-450"/>
<polygon fill="#000000" stroke="#000000" points="430.0703,-446.5001 420.0703,-450 430.0703,-453.5001 430.0703,-446.5001"/>
<g id="a_edge6&#45;headlabel"><a xlink:href="dir_000722_000625.html" target="_top" xlink:title="4">
<text text-anchor="middle" x="433.6649" y="-441.1607" font-family="Helvetica,sans-Serif" font-size="10.00" fill="#000000">4</text>
</a>
</g>
</g>
<!-- dir_40b4a122691869ee86baf7f2711ed718&#45;&gt;dir_4ab6b4cc6a7edbff49100e9123df213f -->
<g id="edge1" class="edge">
<title>dir_40b4a122691869ee86baf7f2711ed718&#45;&gt;dir_4ab6b4cc6a7edbff49100e9123df213f</title>
<path fill="none" stroke="#000000" d="M585.9257,-437.4181C565.4276,-427.3822 536.9753,-412.3386 514,-396 455.7943,-354.6077 450.9269,-332.4232 395,-288 381.8816,-277.5799 366.8735,-266.915 353.5487,-257.8449"/>
<polygon fill="#000000" stroke="#000000" points="355.3211,-254.8188 345.0722,-252.1335 351.4096,-260.624 355.3211,-254.8188"/>
<g id="a_edge1&#45;headlabel"><a xlink:href="dir_000722_000027.html" target="_top" xlink:title="12">
<text text-anchor="middle" x="359.8887" y="-251.9728" font-family="Helvetica,sans-Serif" font-size="10.00" fill="#000000">12</text>
</a>
</g>
</g>
<!-- dir_40b4a122691869ee86baf7f2711ed718&#45;&gt;dir_37c90836491b695b472bf98d1be8336b -->
<g id="edge2" class="edge">
<title>dir_40b4a122691869ee86baf7f2711ed718&#45;&gt;dir_37c90836491b695b472bf98d1be8336b</title>
<path fill="none" stroke="#000000" d="M619.1502,-431.5984C627.6628,-404.4466 642,-351.9035 642,-306 642,-306 642,-306 642,-234 642,-81.3979 404.0443,-34.5945 310.3068,-22.0775"/>
<polygon fill="#000000" stroke="#000000" points="310.4961,-18.5734 300.1335,-20.779 309.6098,-25.5171 310.4961,-18.5734"/>
<g id="a_edge2&#45;headlabel"><a xlink:href="dir_000722_000274.html" target="_top" xlink:title="17">
<text text-anchor="middle" x="314.4213" y="-13.712" font-family="Helvetica,sans-Serif" font-size="10.00" fill="#000000">17</text>
</a>
</g>
</g>
<!-- dir_40b4a122691869ee86baf7f2711ed718&#45;&gt;dir_8ba487e25de5ee77e05e9dce7582cb98 -->
<g id="edge3" class="edge">
<title>dir_40b4a122691869ee86baf7f2711ed718&#45;&gt;dir_8ba487e25de5ee77e05e9dce7582cb98</title>
<path fill="none" stroke="#000000" d="M630.6051,-431.8363C639.3495,-421.9343 649.4236,-409.0582 656,-396 674.6207,-359.0264 680,-347.3978 680,-306 680,-306 680,-306 680,-162 680,-120.3681 664.9672,-74.14 653.8119,-45.567"/>
<polygon fill="#000000" stroke="#000000" points="657.0368,-44.2055 650.0588,-36.2332 650.5422,-46.817 657.0368,-44.2055"/>
<g id="a_edge3&#45;headlabel"><a xlink:href="dir_000722_000000.html" target="_top" xlink:title="1">
<text text-anchor="middle" x="661.0121" y="-43.9814" font-family="Helvetica,sans-Serif" font-size="10.00" fill="#000000">1</text>
</a>
</g>
</g>
<!-- dir_40b4a122691869ee86baf7f2711ed718&#45;&gt;dir_bcbb2cf9a3d3d83e5515c82071a07177 -->
<g id="edge4" class="edge">
<title>dir_40b4a122691869ee86baf7f2711ed718&#45;&gt;dir_bcbb2cf9a3d3d83e5515c82071a07177</title>
<path fill="none" stroke="#000000" d="M602.1781,-431.9843C572.6873,-382.8899 490.7935,-246.5579 455.9849,-188.6107"/>
<polygon fill="#000000" stroke="#000000" points="458.9675,-186.7789 450.8178,-180.0089 452.9669,-190.3835 458.9675,-186.7789"/>
<g id="a_edge4&#45;headlabel"><a xlink:href="dir_000722_000013.html" target="_top" xlink:title="146">
<text text-anchor="middle" x="463.2524" y="-185.8983" font-family="Helvetica,sans-Serif" font-size="10.00" fill="#000000">146</text>
</a>
</g>
</g>
<!-- dir_40b4a122691869ee86baf7f2711ed718&#45;&gt;dir_2171f7ec022c5423887b07c69b2f5b48 -->
<g id="edge5" class="edge">
<title>dir_40b4a122691869ee86baf7f2711ed718&#45;&gt;dir_2171f7ec022c5423887b07c69b2f5b48</title>
<path fill="none" stroke="#000000" d="M611.1352,-431.8374C608.499,-404.55 604,-351.3383 604,-306 604,-306 604,-306 604,-234 604,-129.3521 449.6777,-100.7479 367.3579,-92.9338"/>
<polygon fill="#000000" stroke="#000000" points="367.4766,-89.4309 357.2083,-92.041 366.8631,-96.4039 367.4766,-89.4309"/>
<g id="a_edge5&#45;headlabel"><a xlink:href="dir_000722_000076.html" target="_top" xlink:title="144">
<text text-anchor="middle" x="371.3061" y="-84.4174" font-family="Helvetica,sans-Serif" font-size="10.00" fill="#000000">144</text>
</a>
</g>
</g>
<!-- dir_4ab6b4cc6a7edbff49100e9123df213f&#45;&gt;dir_bcbb2cf9a3d3d83e5515c82071a07177 -->
<g id="edge7" class="edge">
<title>dir_4ab6b4cc6a7edbff49100e9123df213f&#45;&gt;dir_bcbb2cf9a3d3d83e5515c82071a07177</title>
<path fill="none" stroke="#000000" d="M342.0857,-215.8314C357.4009,-206.324 377.3155,-194.5968 395.2219,-184.5177"/>
<polygon fill="#000000" stroke="#000000" points="397.3384,-187.3449 404.3677,-179.4177 393.9292,-181.2312 397.3384,-187.3449"/>
<g id="a_edge7&#45;headlabel"><a xlink:href="dir_000027_000013.html" target="_top" xlink:title="2">
<text text-anchor="middle" x="395.5818" y="-189.0753" font-family="Helvetica,sans-Serif" font-size="10.00" fill="#000000">2</text>
</a>
</g>
</g>
<!-- dir_4ab6b4cc6a7edbff49100e9123df213f&#45;&gt;dir_2171f7ec022c5423887b07c69b2f5b48 -->
<g id="edge8" class="edge">
<title>dir_4ab6b4cc6a7edbff49100e9123df213f&#45;&gt;dir_2171f7ec022c5423887b07c69b2f5b48</title>
<path fill="none" stroke="#000000" d="M312.3268,-215.7623C309.867,-191.201 309.5923,-147.2474 311.5026,-118.3541"/>
<polygon fill="#000000" stroke="#000000" points="315.0152,-118.3416 312.3417,-108.0896 308.0385,-117.7712 315.0152,-118.3416"/>
<g id="a_edge8&#45;headlabel"><a xlink:href="dir_000027_000076.html" target="_top" xlink:title="2">
<text text-anchor="middle" x="317.5522" y="-119.6556" font-family="Helvetica,sans-Serif" font-size="10.00" fill="#000000">2</text>
</a>
</g>
</g>
<!-- dir_6af676bf18881990e4083e191d0e63e0&#45;&gt;dir_4ab6b4cc6a7edbff49100e9123df213f -->
<g id="edge9" class="edge">
<title>dir_6af676bf18881990e4083e191d0e63e0&#45;&gt;dir_4ab6b4cc6a7edbff49100e9123df213f</title>
<path fill="none" stroke="#000000" d="M348.4016,-287.8314C343.7123,-279.7925 338.0972,-270.1666 332.9202,-261.2918"/>
<polygon fill="#000000" stroke="#000000" points="335.8031,-259.2875 327.7411,-252.4133 329.7566,-262.8146 335.8031,-259.2875"/>
<g id="a_edge9&#45;headlabel"><a xlink:href="dir_000019_000027.html" target="_top" xlink:title="4">
<text text-anchor="middle" x="340.0667" y="-258.4618" font-family="Helvetica,sans-Serif" font-size="10.00" fill="#000000">4</text>
</a>
</g>
</g>
<!-- dir_6af676bf18881990e4083e191d0e63e0&#45;&gt;dir_bcbb2cf9a3d3d83e5515c82071a07177 -->
<g id="edge10" class="edge">
<title>dir_6af676bf18881990e4083e191d0e63e0&#45;&gt;dir_bcbb2cf9a3d3d83e5515c82071a07177</title>
<path fill="none" stroke="#000000" d="M369.2587,-287.7623C383.3179,-262.7682 408.6731,-217.6924 424.902,-188.8409"/>
<polygon fill="#000000" stroke="#000000" points="427.9724,-190.5213 429.8246,-180.0896 421.8714,-187.0895 427.9724,-190.5213"/>
<g id="a_edge10&#45;headlabel"><a xlink:href="dir_000019_000013.html" target="_top" xlink:title="2">
<text text-anchor="middle" x="428.6848" y="-192.5463" font-family="Helvetica,sans-Serif" font-size="10.00" fill="#000000">2</text>
</a>
</g>
</g>
<!-- dir_37c90836491b695b472bf98d1be8336b&#45;&gt;dir_4ab6b4cc6a7edbff49100e9123df213f -->
<g id="edge11" class="edge">
<title>dir_37c90836491b695b472bf98d1be8336b&#45;&gt;dir_4ab6b4cc6a7edbff49100e9123df213f</title>
<path fill="none" stroke="#000000" d="M270.8649,-36.4651C269.7673,-46.883 268.5475,-60.1496 268,-72 267.2616,-87.983 265.0498,-92.2743 268,-108 274.6477,-143.4354 290.9598,-181.7112 302.9449,-206.6605"/>
<polygon fill="#000000" stroke="#000000" points="299.9087,-208.4183 307.4562,-215.8538 306.1929,-205.3345 299.9087,-208.4183"/>
<g id="a_edge11&#45;headlabel"><a xlink:href="dir_000274_000027.html" target="_top" xlink:title="16">
<text text-anchor="middle" x="295.7763" y="-203.9421" font-family="Helvetica,sans-Serif" font-size="10.00" fill="#000000">16</text>
</a>
</g>
</g>
<!-- dir_37c90836491b695b472bf98d1be8336b&#45;&gt;dir_bcbb2cf9a3d3d83e5515c82071a07177 -->
<g id="edge12" class="edge">
<title>dir_37c90836491b695b472bf98d1be8336b&#45;&gt;dir_bcbb2cf9a3d3d83e5515c82071a07177</title>
<path fill="none" stroke="#000000" d="M300.296,-30.5809C319.7645,-40.3032 345.9396,-54.9533 366,-72 387.9225,-90.629 408.3257,-116.3361 422.1317,-135.5074"/>
<polygon fill="#000000" stroke="#000000" points="419.3652,-137.6574 427.9926,-143.8071 425.0832,-133.6195 419.3652,-137.6574"/>
<g id="a_edge12&#45;headlabel"><a xlink:href="dir_000274_000013.html" target="_top" xlink:title="1">
<text text-anchor="middle" x="414.9724" y="-133.8589" font-family="Helvetica,sans-Serif" font-size="10.00" fill="#000000">1</text>
</a>
</g>
</g>
<!-- dir_37c90836491b695b472bf98d1be8336b&#45;&gt;dir_2171f7ec022c5423887b07c69b2f5b48 -->
<g id="edge13" class="edge">
<title>dir_37c90836491b695b472bf98d1be8336b&#45;&gt;dir_2171f7ec022c5423887b07c69b2f5b48</title>
<path fill="none" stroke="#000000" d="M290.2286,-36.4133C295.9324,-44.484 302.0146,-54.1182 307.0461,-62.9775"/>
<polygon fill="#000000" stroke="#000000" points="304.0043,-64.7105 311.8493,-71.8314 310.1573,-61.3725 304.0043,-64.7105"/>
<g id="a_edge13&#45;headlabel"><a xlink:href="dir_000274_000076.html" target="_top" xlink:title="12">
<text text-anchor="middle" x="299.7946" y="-60.4048" font-family="Helvetica,sans-Serif" font-size="10.00" fill="#000000">12</text>
</a>
</g>
</g>
<!-- dir_8ba487e25de5ee77e05e9dce7582cb98&#45;&gt;dir_2171f7ec022c5423887b07c69b2f5b48 -->
<g id="edge14" class="edge">
<title>dir_8ba487e25de5ee77e05e9dce7582cb98&#45;&gt;dir_2171f7ec022c5423887b07c69b2f5b48</title>
<path fill="none" stroke="#000000" d="M609.2265,-26.256C552.1228,-39.5461 434.4535,-65.6405 367.0892,-79.9771"/>
<polygon fill="#000000" stroke="#000000" points="366.1843,-76.5911 357.1275,-82.0888 367.6359,-83.4389 366.1843,-76.5911"/>
<g id="a_edge14&#45;headlabel"><a xlink:href="dir_000000_000076.html" target="_top" xlink:title="8">
<text text-anchor="middle" x="369.112" y="-70.5682" font-family="Helvetica,sans-Serif" font-size="10.00" fill="#000000">8</text>
</a>
</g>
</g>
<!-- dir_09bf7f7c4011a5ccc426492db4dd0891&#45;&gt;dir_4ab6b4cc6a7edbff49100e9123df213f -->
<g id="edge15" class="edge">
<title>dir_09bf7f7c4011a5ccc426492db4dd0891&#45;&gt;dir_4ab6b4cc6a7edbff49100e9123df213f</title>
<path fill="none" stroke="#000000" d="M254.1188,-359.7623C266.5618,-334.8764 288.9589,-290.0822 303.3918,-261.2165"/>
<polygon fill="#000000" stroke="#000000" points="306.6135,-262.5992 307.9552,-252.0896 300.3525,-259.4686 306.6135,-262.5992"/>
<g id="a_edge15&#45;headlabel"><a xlink:href="dir_000141_000027.html" target="_top" xlink:title="3">
<text text-anchor="middle" x="307.5455" y="-264.584" font-family="Helvetica,sans-Serif" font-size="10.00" fill="#000000">3</text>
</a>
</g>
</g>
<!-- dir_09bf7f7c4011a5ccc426492db4dd0891&#45;&gt;dir_6af676bf18881990e4083e191d0e63e0 -->
<g id="edge16" class="edge">
<title>dir_09bf7f7c4011a5ccc426492db4dd0891&#45;&gt;dir_6af676bf18881990e4083e191d0e63e0</title>
<path fill="none" stroke="#000000" d="M272.0164,-360.937C287.2384,-351.3231 306.4485,-339.1904 322.9417,-328.7737"/>
<polygon fill="#000000" stroke="#000000" points="325.1965,-331.4892 331.7824,-323.19 321.4586,-325.5708 325.1965,-331.4892"/>
<g id="a_edge16&#45;headlabel"><a xlink:href="dir_000141_000019.html" target="_top" xlink:title="1">
<text text-anchor="middle" x="323.6735" y="-333.3092" font-family="Helvetica,sans-Serif" font-size="10.00" fill="#000000">1</text>
</a>
</g>
</g>
<!-- dir_09bf7f7c4011a5ccc426492db4dd0891&#45;&gt;dir_37c90836491b695b472bf98d1be8336b -->
<g id="edge17" class="edge">
<title>dir_09bf7f7c4011a5ccc426492db4dd0891&#45;&gt;dir_37c90836491b695b472bf98d1be8336b</title>
<path fill="none" stroke="#000000" d="M233.0658,-359.7554C216.8899,-333.2192 190,-281.903 190,-234 190,-234 190,-234 190,-162 190,-115.5145 222.8683,-70.51 247.2376,-43.5311"/>
<polygon fill="#000000" stroke="#000000" points="249.9167,-45.7898 254.166,-36.0844 244.7918,-41.0215 249.9167,-45.7898"/>
<g id="a_edge17&#45;headlabel"><a xlink:href="dir_000141_000274.html" target="_top" xlink:title="2">
<text text-anchor="middle" x="249.5468" y="-47.8555" font-family="Helvetica,sans-Serif" font-size="10.00" fill="#000000">2</text>
</a>
</g>
</g>
<!-- dir_09bf7f7c4011a5ccc426492db4dd0891&#45;&gt;dir_2171f7ec022c5423887b07c69b2f5b48 -->
<g id="edge18" class="edge">
<title>dir_09bf7f7c4011a5ccc426492db4dd0891&#45;&gt;dir_2171f7ec022c5423887b07c69b2f5b48</title>
<path fill="none" stroke="#000000" d="M248.0835,-359.8877C253.3404,-329.8029 264.7628,-267.7197 278,-216 286.7329,-181.8793 299.0502,-143.2758 307.4925,-117.893"/>
<polygon fill="#000000" stroke="#000000" points="310.8816,-118.7945 310.7417,-108.2006 304.2446,-116.5695 310.8816,-118.7945"/>
<g id="a_edge18&#45;headlabel"><a xlink:href="dir_000141_000076.html" target="_top" xlink:title="9">
<text text-anchor="middle" x="312.4312" y="-120.6051" font-family="Helvetica,sans-Serif" font-size="10.00" fill="#000000">9</text>
</a>
</g>
</g>
<!-- dir_bcbb2cf9a3d3d83e5515c82071a07177&#45;&gt;dir_4ab6b4cc6a7edbff49100e9123df213f -->
<g id="edge29" class="edge">
<title>dir_bcbb2cf9a3d3d83e5515c82071a07177&#45;&gt;dir_4ab6b4cc6a7edbff49100e9123df213f</title>
<path fill="none" stroke="#000000" d="M415.1177,-180.0423C398.2902,-190.4947 375.8448,-203.6621 356.6168,-214.3727"/>
<polygon fill="#000000" stroke="#000000" points="354.8262,-211.3631 347.7585,-219.256 358.2057,-217.4933 354.8262,-211.3631"/>
<g id="a_edge29&#45;headlabel"><a xlink:href="dir_000013_000027.html" target="_top" xlink:title="8">
<text text-anchor="middle" x="356.6035" y="-204.6413" font-family="Helvetica,sans-Serif" font-size="10.00" fill="#000000">8</text>
</a>
</g>
</g>
<!-- dir_bcbb2cf9a3d3d83e5515c82071a07177&#45;&gt;dir_8ba487e25de5ee77e05e9dce7582cb98 -->
<g id="edge30" class="edge">
<title>dir_bcbb2cf9a3d3d83e5515c82071a07177&#45;&gt;dir_8ba487e25de5ee77e05e9dce7582cb98</title>
<path fill="none" stroke="#000000" d="M465.5834,-143.7623C501.8588,-117.9026 568.2895,-70.5461 608.4691,-41.9032"/>
<polygon fill="#000000" stroke="#000000" points="610.5132,-44.7444 616.6243,-36.0896 606.4498,-39.0444 610.5132,-44.7444"/>
<g id="a_edge30&#45;headlabel"><a xlink:href="dir_000013_000000.html" target="_top" xlink:title="1">
<text text-anchor="middle" x="609.2343" y="-46.6429" font-family="Helvetica,sans-Serif" font-size="10.00" fill="#000000">1</text>
</a>
</g>
</g>
<!-- dir_bcbb2cf9a3d3d83e5515c82071a07177&#45;&gt;dir_2171f7ec022c5423887b07c69b2f5b48 -->
<g id="edge31" class="edge">
<title>dir_bcbb2cf9a3d3d83e5515c82071a07177&#45;&gt;dir_2171f7ec022c5423887b07c69b2f5b48</title>
<path fill="none" stroke="#000000" d="M404.3469,-144.5708C387.4262,-135.2301 367.3804,-123.5924 350.7161,-113.4664"/>
<polygon fill="#000000" stroke="#000000" points="352.2004,-110.2707 341.8473,-108.0206 348.5375,-116.2359 352.2004,-110.2707"/>
<g id="a_edge31&#45;headlabel"><a xlink:href="dir_000013_000076.html" target="_top" xlink:title="82">
<text text-anchor="middle" x="356.7493" y="-107.2321" font-family="Helvetica,sans-Serif" font-size="10.00" fill="#000000">82</text>
</a>
</g>
</g>
<!-- dir_5cb2a8e9fdbe67a11efb4176f60bf3d6&#45;&gt;dir_4ab6b4cc6a7edbff49100e9123df213f -->
<g id="edge32" class="edge">
<title>dir_5cb2a8e9fdbe67a11efb4176f60bf3d6&#45;&gt;dir_4ab6b4cc6a7edbff49100e9123df213f</title>
<path fill="none" stroke="#000000" d="M177.7437,-431.6647C184.0169,-412.9295 195.0564,-383.3532 209,-360 230.2091,-324.4785 240.9797,-319.329 268,-288 276.0574,-278.6577 285.0811,-268.6029 293.1677,-259.7317"/>
<polygon fill="#000000" stroke="#000000" points="295.812,-262.0267 299.9851,-252.2883 290.6499,-257.2987 295.812,-262.0267"/>
<g id="a_edge32&#45;headlabel"><a xlink:href="dir_000305_000027.html" target="_top" xlink:title="5">
<text text-anchor="middle" x="295.478" y="-264.0951" font-family="Helvetica,sans-Serif" font-size="10.00" fill="#000000">5</text>
</a>
</g>
</g>
<!-- dir_5cb2a8e9fdbe67a11efb4176f60bf3d6&#45;&gt;dir_37c90836491b695b472bf98d1be8336b -->
<g id="edge33" class="edge">
<title>dir_5cb2a8e9fdbe67a11efb4176f60bf3d6&#45;&gt;dir_37c90836491b695b472bf98d1be8336b</title>
<path fill="none" stroke="#000000" d="M150.7673,-431.8681C112.9829,-397.4526 38,-318.509 38,-234 38,-234 38,-234 38,-162 38,-70.4804 169.1809,-35.3333 235.522,-23.4103"/>
<polygon fill="#000000" stroke="#000000" points="236.3151,-26.8256 245.5826,-21.6911 235.1359,-19.9256 236.3151,-26.8256"/>
<g id="a_edge33&#45;headlabel"><a xlink:href="dir_000305_000274.html" target="_top" xlink:title="2">
<text text-anchor="middle" x="233.2501" y="-27.7297" font-family="Helvetica,sans-Serif" font-size="10.00" fill="#000000">2</text>
</a>
</g>
</g>
<!-- dir_5cb2a8e9fdbe67a11efb4176f60bf3d6&#45;&gt;dir_09bf7f7c4011a5ccc426492db4dd0891 -->
<g id="edge34" class="edge">
<title>dir_5cb2a8e9fdbe67a11efb4176f60bf3d6&#45;&gt;dir_09bf7f7c4011a5ccc426492db4dd0891</title>
<path fill="none" stroke="#000000" d="M190.421,-431.8314C199.1529,-423.219 209.7317,-412.7851 219.2423,-403.4048"/>
<polygon fill="#000000" stroke="#000000" points="221.923,-405.6769 226.5849,-396.1628 217.0075,-400.6931 221.923,-405.6769"/>
<g id="a_edge34&#45;headlabel"><a xlink:href="dir_000305_000141.html" target="_top" xlink:title="31">
<text text-anchor="middle" x="221.3575" y="-407.7225" font-family="Helvetica,sans-Serif" font-size="10.00" fill="#000000">31</text>
</a>
</g>
</g>
<!-- dir_5cb2a8e9fdbe67a11efb4176f60bf3d6&#45;&gt;dir_2171f7ec022c5423887b07c69b2f5b48 -->
<g id="edge35" class="edge">
<title>dir_5cb2a8e9fdbe67a11efb4176f60bf3d6&#45;&gt;dir_2171f7ec022c5423887b07c69b2f5b48</title>
<path fill="none" stroke="#000000" d="M159.4149,-431.8478C142.3566,-405.4241 114,-354.2435 114,-306 114,-306 114,-306 114,-234 114,-159.0963 207.0812,-119.6062 267.1843,-101.9147"/>
<polygon fill="#000000" stroke="#000000" points="268.2285,-105.2566 276.8937,-99.1604 266.3181,-98.5224 268.2285,-105.2566"/>
<g id="a_edge35&#45;headlabel"><a xlink:href="dir_000305_000076.html" target="_top" xlink:title="7">
<text text-anchor="middle" x="265.5452" y="-106.4691" font-family="Helvetica,sans-Serif" font-size="10.00" fill="#000000">7</text>
</a>
</g>
</g>
<!-- dir_2171f7ec022c5423887b07c69b2f5b48&#45;&gt;dir_4ab6b4cc6a7edbff49100e9123df213f -->
<g id="edge36" class="edge">
<title>dir_2171f7ec022c5423887b07c69b2f5b48&#45;&gt;dir_4ab6b4cc6a7edbff49100e9123df213f</title>
<path fill="none" stroke="#000000" d="M321.6583,-108.0896C324.1269,-132.5727 324.4104,-176.5174 322.5089,-205.4713"/>
<polygon fill="#000000" stroke="#000000" points="318.9942,-205.5118 321.6732,-215.7623 325.9712,-206.0785 318.9942,-205.5118"/>
<g id="a_edge36&#45;headlabel"><a xlink:href="dir_000076_000027.html" target="_top" xlink:title="35">
<text text-anchor="middle" x="316.4551" y="-199.1992" font-family="Helvetica,sans-Serif" font-size="10.00" fill="#000000">35</text>
</a>
</g>
</g>
<!-- dir_2171f7ec022c5423887b07c69b2f5b48&#45;&gt;dir_37c90836491b695b472bf98d1be8336b -->
<g id="edge37" class="edge">
<title>dir_2171f7ec022c5423887b07c69b2f5b48&#45;&gt;dir_37c90836491b695b472bf98d1be8336b</title>
<path fill="none" stroke="#000000" d="M299.9445,-71.8314C294.2485,-63.7925 288.1597,-54.1666 283.107,-45.2918"/>
<polygon fill="#000000" stroke="#000000" points="286.1301,-43.5247 278.2765,-36.4133 279.9812,-46.8701 286.1301,-43.5247"/>
<g id="a_edge37&#45;headlabel"><a xlink:href="dir_000076_000274.html" target="_top" xlink:title="1">
<text text-anchor="middle" x="290.342" y="-42.8253" font-family="Helvetica,sans-Serif" font-size="10.00" fill="#000000">1</text>
</a>
</g>
</g>
<!-- dir_2171f7ec022c5423887b07c69b2f5b48&#45;&gt;dir_8ba487e25de5ee77e05e9dce7582cb98 -->
<g id="edge38" class="edge">
<title>dir_2171f7ec022c5423887b07c69b2f5b48&#45;&gt;dir_8ba487e25de5ee77e05e9dce7582cb98</title>
<path fill="none" stroke="#000000" d="M357.0177,-80.0643C418.6938,-65.8126 536.1446,-39.8147 599.3628,-26.4415"/>
<polygon fill="#000000" stroke="#000000" points="600.3329,-29.8141 609.3977,-24.3296 598.8913,-22.9641 600.3329,-29.8141"/>
<g id="a_edge38&#45;headlabel"><a xlink:href="dir_000076_000000.html" target="_top" xlink:title="2">
<text text-anchor="middle" x="597.4001" y="-30.8327" font-family="Helvetica,sans-Serif" font-size="10.00" fill="#000000">2</text>
</a>
</g>
</g>
<!-- dir_2171f7ec022c5423887b07c69b2f5b48&#45;&gt;dir_bcbb2cf9a3d3d83e5515c82071a07177 -->
<g id="edge39" class="edge">
<title>dir_2171f7ec022c5423887b07c69b2f5b48&#45;&gt;dir_bcbb2cf9a3d3d83e5515c82071a07177</title>
<path fill="none" stroke="#000000" d="M353.98,-108.1628C370.6087,-117.3712 390.0394,-128.6631 406.2668,-138.5232"/>
<polygon fill="#000000" stroke="#000000" points="404.5608,-141.5827 414.9143,-143.8314 408.2229,-135.617 404.5608,-141.5827"/>
<g id="a_edge39&#45;headlabel"><a xlink:href="dir_000076_000013.html" target="_top" xlink:title="11">
<text text-anchor="middle" x="400.012" y="-139.622" font-family="Helvetica,sans-Serif" font-size="10.00" fill="#000000">11</text>
</a>
</g>
</g>
</g>
</svg>
        <g id="navigator" transform="translate(0 0)" fill="#404254">
                <rect fill="#f2f5e9" fill-opacity="0.5" stroke="#606060" stroke-width=".5" x="0" y="0" width="60" height="60"/>
                <use id="zoomplus" xlink:href="#zoomPlus" x="17" y="9" onmousedown="handleZoom(evt,'in')"/>
                <use id="zoomminus" xlink:href="#zoomMin" x="42" y="9" onmousedown="handleZoom(evt,'out')"/>
                <use id="reset" xlink:href="#resetDef" x="30" y="36" onmousedown="handleReset()"/>
                <g id="arrowUp" xlink:href="#dirArrow" transform="translate(30 24)" onmousedown="handlePan(0,-1)">
                  <use xlink:href="#rim" fill="#404040">
                        <set attributeName="fill" to="#808080" begin="arrowUp.mouseover" end="arrowUp.mouseout"/>
                  </use>
                  <path fill="none" stroke="white" stroke-width="1.5" d="M0,-3.0v7 M-2.5,-0.5L0,-3.0L2.5,-0.5"/>
                </g>
                <g id="arrowRight" xlink:href="#dirArrow" transform="rotate(90) translate(36 -43)" onmousedown="handlePan(1,0)">
                  <use xlink:href="#rim" fill="#404040">
                        <set attributeName="fill" to="#808080" begin="arrowRight.mouseover" end="arrowRight.mouseout"/>
                  </use>
                  <path fill="none" stroke="white" stroke-width="1.5" d="M0,-3.0v7 M-2.5,-0.5L0,-3.0L2.5,-0.5"/>
                </g>
                <g id="arrowDown" xlink:href="#dirArrow" transform="rotate(180) translate(-30 -48)" onmousedown="handlePan(0,1)">
                  <use xlink:href="#rim" fill="#404040">
                        <set attributeName="fill" to="#808080" begin="arrowDown.mouseover" end="arrowDown.mouseout"/>
                  </use>
                  <path fill="none" stroke="white" stroke-width="1.5" d="M0,-3.0v7 M-2.5,-0.5L0,-3.0L2.5,-0.5"/>
                </g>
                <g id="arrowLeft" xlink:href="#dirArrow" transform="rotate(270) translate(-36 17)" onmousedown="handlePan(-1,0)">
                  <use xlink:href="#rim" fill="#404040">
                        <set attributeName="fill" to="#808080" begin="arrowLeft.mouseover" end="arrowLeft.mouseout"/>
                  </use>
                  <path fill="none" stroke="white" stroke-width="1.5" d="M0,-3.0v7 M-2.5,-0.5L0,-3.0L2.5,-0.5"/>
                </g>
        </g>
        <svg viewBox="0 0 15 15" width="100%" height="30px" preserveAspectRatio="xMaxYMin meet">
         <g id="arrow_out" transform="scale(0.3 0.3)">
          <a xlink:href="dir_184e1d06e85fb151746c3bdf717cc8ad_dep_org.svg" target="_base">
           <rect id="button" ry="5" rx="5" y="6" x="6" height="38" width="38"
                fill="#f2f5e9" fill-opacity="0.5" stroke="#606060" stroke-width="1.0"/>
           <path id="arrow"
             d="M 11.500037,31.436501 C 11.940474,20.09759 22.043105,11.32322 32.158766,21.979434 L 37.068811,17.246167 C 37.068811,17.246167 37.088388,32 37.088388,32 L 22.160133,31.978069 C 22.160133,31.978069 26.997745,27.140456 26.997745,27.140456 C 18.528582,18.264221 13.291696,25.230495 11.500037,31.436501 z"
             style="fill:#404040;"/>
          </a>
         </g>
        </svg>
</svg>
