<?xml version="1.0" encoding="UTF-8" standalone="no"?>
<!DOCTYPE svg PUBLIC "-//W3C//DTD SVG 1.1//EN"
 "http://www.w3.org/Graphics/SVG/1.1/DTD/svg11.dtd">
<!-- Generated by graphviz version 2.40.1 (20161225.0304)
 -->
<!-- Title: /home/travis/build/AliceO2Group/AliceO2/DataFormats/Detectors/Common/include/DetectorsCommonDataFormats Pages: 1 -->
<svg width="239pt" height="439pt"
 viewBox="0.00 0.00 238.50 439.00" xmlns="http://www.w3.org/2000/svg" xmlns:xlink="http://www.w3.org/1999/xlink">
<g id="graph0" class="graph" transform="scale(1 1) rotate(0) translate(4 435)">
<title>/home/travis/build/AliceO2Group/AliceO2/DataFormats/Detectors/Common/include/DetectorsCommonDataFormats</title>
<g id="clust1" class="cluster">
<title>clusterdir_67c58cc5aaf29270141b8a8cdbb7295e</title>
<g id="a_clust1"><a xlink:href="dir_67c58cc5aaf29270141b8a8cdbb7295e.html" target="_top" xlink:title="include">
<polygon fill="#ddddee" stroke="#000000" points="16,-352 16,-423 204,-423 204,-352 16,-352"/>
<text text-anchor="middle" x="110" y="-411" font-family="Helvetica,sans-Serif" font-size="10.00" fill="#000000">include</text>
</a>
</g>
</g>
<!-- dir_31cee524eb436ea096641b9630c45e12 -->
<g id="node1" class="node">
<title>dir_31cee524eb436ea096641b9630c45e12</title>
<g id="a_node1"><a xlink:href="dir_31cee524eb436ea096641b9630c45e12.html" target="_top" xlink:title="DetectorsCommonDataFormats">
<polygon fill="#eeeeff" stroke="#000000" points="195.5,-396 24.5,-396 24.5,-360 195.5,-360 195.5,-396"/>
<text text-anchor="middle" x="110" y="-375.5" font-family="Helvetica,sans-Serif" font-size="10.00" fill="#000000">DetectorsCommonDataFormats</text>
</a>
</g>
</g>
<!-- dir_4ab6b4cc6a7edbff49100e9123df213f -->
<g id="node2" class="node">
<title>dir_4ab6b4cc6a7edbff49100e9123df213f</title>
<g id="a_node2"><a xlink:href="dir_4ab6b4cc6a7edbff49100e9123df213f.html" target="_top" xlink:title="Common">
<polygon fill="none" stroke="#ff0000" points="199.5,-324 138.5,-324 138.5,-288 199.5,-288 199.5,-324"/>
<text text-anchor="middle" x="169" y="-303.5" font-family="Helvetica,sans-Serif" font-size="10.00" fill="#000000">Common</text>
</a>
</g>
</g>
<!-- dir_31cee524eb436ea096641b9630c45e12&#45;&gt;dir_4ab6b4cc6a7edbff49100e9123df213f -->
<g id="edge3" class="edge">
<title>dir_31cee524eb436ea096641b9630c45e12&#45;&gt;dir_4ab6b4cc6a7edbff49100e9123df213f</title>
<path fill="none" stroke="#000000" d="M124.8882,-359.8314C131.753,-351.454 140.0301,-341.3531 147.5511,-332.1749"/>
<polygon fill="#000000" stroke="#000000" points="150.2803,-334.3665 153.9114,-324.4133 144.8659,-329.9297 150.2803,-334.3665"/>
<g id="a_edge3&#45;headlabel"><a xlink:href="dir_000089_000027.html" target="_top" xlink:title="4">
<text text-anchor="middle" x="150.1981" y="-336.4464" font-family="Helvetica,sans-Serif" font-size="10.00" fill="#000000">4</text>
</a>
</g>
</g>
<!-- dir_183e7c4434404fe9096e1bd8673e1fcf -->
<g id="node3" class="node">
<title>dir_183e7c4434404fe9096e1bd8673e1fcf</title>
<g id="a_node3"><a xlink:href="dir_183e7c4434404fe9096e1bd8673e1fcf.html" target="_top" xlink:title="Headers">
<polygon fill="none" stroke="#ff0000" points="83.5,-36 26.5,-36 26.5,0 83.5,0 83.5,-36"/>
<text text-anchor="middle" x="55" y="-15.5" font-family="Helvetica,sans-Serif" font-size="10.00" fill="#000000">Headers</text>
</a>
</g>
</g>
<!-- dir_31cee524eb436ea096641b9630c45e12&#45;&gt;dir_183e7c4434404fe9096e1bd8673e1fcf -->
<g id="edge4" class="edge">
<title>dir_31cee524eb436ea096641b9630c45e12&#45;&gt;dir_183e7c4434404fe9096e1bd8673e1fcf</title>
<path fill="none" stroke="#000000" d="M83.3721,-359.9905C50.8173,-335.592 0,-288.7396 0,-234 0,-234 0,-234 0,-162 0,-118.9621 21.7052,-73.1692 37.8451,-45.0671"/>
<polygon fill="#000000" stroke="#000000" points="40.9852,-46.6331 43.0658,-36.2446 34.961,-43.0682 40.9852,-46.6331"/>
<g id="a_edge4&#45;headlabel"><a xlink:href="dir_000089_000080.html" target="_top" xlink:title="1">
<text text-anchor="middle" x="41.5981" y="-48.6726" font-family="Helvetica,sans-Serif" font-size="10.00" fill="#000000">1</text>
</a>
</g>
</g>
<!-- dir_b05a5fa85f84bfc9013183c9d87f9a36 -->
<g id="node4" class="node">
<title>dir_b05a5fa85f84bfc9013183c9d87f9a36</title>
<g id="a_node4"><a xlink:href="dir_b05a5fa85f84bfc9013183c9d87f9a36.html" target="_top" xlink:title="Utilities">
<polygon fill="none" stroke="#ff0000" points="147.5,-180 92.5,-180 92.5,-144 147.5,-144 147.5,-180"/>
<text text-anchor="middle" x="120" y="-159.5" font-family="Helvetica,sans-Serif" font-size="10.00" fill="#000000">Utilities</text>
</a>
</g>
</g>
<!-- dir_31cee524eb436ea096641b9630c45e12&#45;&gt;dir_b05a5fa85f84bfc9013183c9d87f9a36 -->
<g id="edge5" class="edge">
<title>dir_31cee524eb436ea096641b9630c45e12&#45;&gt;dir_b05a5fa85f84bfc9013183c9d87f9a36</title>
<path fill="none" stroke="#000000" d="M110.8354,-359.9555C112.5744,-322.3938 116.5947,-235.5541 118.6847,-190.4103"/>
<polygon fill="#000000" stroke="#000000" points="122.1936,-190.2963 119.16,-180.1451 115.2011,-189.9725 122.1936,-190.2963"/>
<g id="a_edge5&#45;headlabel"><a xlink:href="dir_000089_000572.html" target="_top" xlink:title="1">
<text text-anchor="middle" x="124.8637" y="-191.5183" font-family="Helvetica,sans-Serif" font-size="10.00" fill="#000000">1</text>
</a>
</g>
</g>
<!-- dir_f511f1e9c03c071966ae594f00bbc5e0 -->
<g id="node5" class="node">
<title>dir_f511f1e9c03c071966ae594f00bbc5e0</title>
<g id="a_node5"><a xlink:href="dir_f511f1e9c03c071966ae594f00bbc5e0.html" target="_top" xlink:title="GPU">
<polygon fill="none" stroke="#ff0000" points="82,-252 28,-252 28,-216 82,-216 82,-252"/>
<text text-anchor="middle" x="55" y="-231.5" font-family="Helvetica,sans-Serif" font-size="10.00" fill="#000000">GPU</text>
</a>
</g>
</g>
<!-- dir_31cee524eb436ea096641b9630c45e12&#45;&gt;dir_f511f1e9c03c071966ae594f00bbc5e0 -->
<g id="edge6" class="edge">
<title>dir_31cee524eb436ea096641b9630c45e12&#45;&gt;dir_f511f1e9c03c071966ae594f00bbc5e0</title>
<path fill="none" stroke="#000000" d="M103.0342,-359.7623C93.5705,-334.9846 76.5689,-290.4714 65.5393,-261.5939"/>
<polygon fill="#000000" stroke="#000000" points="68.747,-260.1826 61.9092,-252.0896 62.2077,-262.6803 68.747,-260.1826"/>
<g id="a_edge6&#45;headlabel"><a xlink:href="dir_000089_000685.html" target="_top" xlink:title="2">
<text text-anchor="middle" x="72.6819" y="-260.0275" font-family="Helvetica,sans-Serif" font-size="10.00" fill="#000000">2</text>
</a>
</g>
</g>
<!-- dir_bcbb2cf9a3d3d83e5515c82071a07177 -->
<g id="node6" class="node">
<title>dir_bcbb2cf9a3d3d83e5515c82071a07177</title>
<g id="a_node6"><a xlink:href="dir_bcbb2cf9a3d3d83e5515c82071a07177.html" target="_top" xlink:title="Framework">
<polygon fill="none" stroke="#ff0000" points="230.5,-108 159.5,-108 159.5,-72 230.5,-72 230.5,-108"/>
<text text-anchor="middle" x="195" y="-87.5" font-family="Helvetica,sans-Serif" font-size="10.00" fill="#000000">Framework</text>
</a>
</g>
</g>
<!-- dir_31cee524eb436ea096641b9630c45e12&#45;&gt;dir_bcbb2cf9a3d3d83e5515c82071a07177 -->
<g id="edge7" class="edge">
<title>dir_31cee524eb436ea096641b9630c45e12&#45;&gt;dir_bcbb2cf9a3d3d83e5515c82071a07177</title>
<path fill="none" stroke="#000000" d="M166.6928,-359.8966C183.2553,-351.6746 199.4558,-340.0776 209,-324 247.8211,-258.6042 222.5077,-163.9982 206.0048,-117.6706"/>
<polygon fill="#000000" stroke="#000000" points="209.1895,-116.1907 202.4432,-108.0213 202.6225,-118.6146 209.1895,-116.1907"/>
<g id="a_edge7&#45;headlabel"><a xlink:href="dir_000089_000013.html" target="_top" xlink:title="1">
<text text-anchor="middle" x="213.0977" y="-116.0798" font-family="Helvetica,sans-Serif" font-size="10.00" fill="#000000">1</text>
</a>
</g>
</g>
<!-- dir_4ab6b4cc6a7edbff49100e9123df213f&#45;&gt;dir_f511f1e9c03c071966ae594f00bbc5e0 -->
<g id="edge1" class="edge">
<title>dir_4ab6b4cc6a7edbff49100e9123df213f&#45;&gt;dir_f511f1e9c03c071966ae594f00bbc5e0</title>
<path fill="none" stroke="#000000" d="M138.2829,-290.1993C122.1311,-280.6991 102.465,-268.424 86.2455,-257.7705"/>
<polygon fill="#000000" stroke="#000000" points="87.8992,-254.6671 77.6335,-252.0467 84.0244,-260.4969 87.8992,-254.6671"/>
<g id="a_edge1&#45;headlabel"><a xlink:href="dir_000027_000685.html" target="_top" xlink:title="3">
<text text-anchor="middle" x="92.4645" y="-251.7922" font-family="Helvetica,sans-Serif" font-size="10.00" fill="#000000">3</text>
</a>
</g>
</g>
<!-- dir_4ab6b4cc6a7edbff49100e9123df213f&#45;&gt;dir_bcbb2cf9a3d3d83e5515c82071a07177 -->
<g id="edge2" class="edge">
<title>dir_4ab6b4cc6a7edbff49100e9123df213f&#45;&gt;dir_bcbb2cf9a3d3d83e5515c82071a07177</title>
<path fill="none" stroke="#000000" d="M167.2261,-287.9555C168.2985,-250.3144 178.5268,-163.1867 186.8908,-118.1246"/>
<polygon fill="#000000" stroke="#000000" points="190.3578,-118.6336 188.8607,-108.1451 183.4903,-117.2779 190.3578,-118.6336"/>
<g id="a_edge2&#45;headlabel"><a xlink:href="dir_000027_000013.html" target="_top" xlink:title="2">
<text text-anchor="middle" x="192.4472" y="-120.21" font-family="Helvetica,sans-Serif" font-size="10.00" fill="#000000">2</text>
</a>
</g>
</g>
<!-- dir_183e7c4434404fe9096e1bd8673e1fcf&#45;&gt;dir_f511f1e9c03c071966ae594f00bbc5e0 -->
<g id="edge8" class="edge">
<title>dir_183e7c4434404fe9096e1bd8673e1fcf&#45;&gt;dir_f511f1e9c03c071966ae594f00bbc5e0</title>
<path fill="none" stroke="#000000" d="M58.9551,-36.1451C62.4006,-73.7945 62.6604,-160.6409 59.7346,-205.7103"/>
<polygon fill="#000000" stroke="#000000" points="56.2239,-205.7163 58.9459,-215.9555 63.2032,-206.2537 56.2239,-205.7163"/>
<g id="a_edge8&#45;headlabel"><a xlink:href="dir_000080_000685.html" target="_top" xlink:title="1">
<text text-anchor="middle" x="53.6688" y="-199.4144" font-family="Helvetica,sans-Serif" font-size="10.00" fill="#000000">1</text>
</a>
</g>
</g>
<!-- dir_b05a5fa85f84bfc9013183c9d87f9a36&#45;&gt;dir_4ab6b4cc6a7edbff49100e9123df213f -->
<g id="edge9" class="edge">
<title>dir_b05a5fa85f84bfc9013183c9d87f9a36&#45;&gt;dir_4ab6b4cc6a7edbff49100e9123df213f</title>
<path fill="none" stroke="#000000" d="M126.1555,-180.0896C134.5599,-204.7884 149.704,-249.2933 159.5515,-278.2331"/>
<polygon fill="#000000" stroke="#000000" points="156.2592,-279.4229 162.7941,-287.7623 162.8861,-277.1679 156.2592,-279.4229"/>
<g id="a_edge9&#45;headlabel"><a xlink:href="dir_000572_000027.html" target="_top" xlink:title="1">
<text text-anchor="middle" x="152.4134" y="-274.4345" font-family="Helvetica,sans-Serif" font-size="10.00" fill="#000000">1</text>
</a>
</g>
</g>
<!-- dir_b05a5fa85f84bfc9013183c9d87f9a36&#45;&gt;dir_183e7c4434404fe9096e1bd8673e1fcf -->
<g id="edge10" class="edge">
<title>dir_b05a5fa85f84bfc9013183c9d87f9a36&#45;&gt;dir_183e7c4434404fe9096e1bd8673e1fcf</title>
<path fill="none" stroke="#000000" d="M111.7677,-143.7623C100.5345,-118.8764 80.3149,-74.0822 67.2852,-45.2165"/>
<polygon fill="#000000" stroke="#000000" points="70.4698,-43.7641 63.1655,-36.0896 64.0896,-46.6441 70.4698,-43.7641"/>
<g id="a_edge10&#45;headlabel"><a xlink:href="dir_000572_000080.html" target="_top" xlink:title="42">
<text text-anchor="middle" x="74.5364" y="-43.3723" font-family="Helvetica,sans-Serif" font-size="10.00" fill="#000000">42</text>
</a>
</g>
</g>
<!-- dir_b05a5fa85f84bfc9013183c9d87f9a36&#45;&gt;dir_bcbb2cf9a3d3d83e5515c82071a07177 -->
<g id="edge11" class="edge">
<title>dir_b05a5fa85f84bfc9013183c9d87f9a36&#45;&gt;dir_bcbb2cf9a3d3d83e5515c82071a07177</title>
<path fill="none" stroke="#000000" d="M138.9257,-143.8314C147.9857,-135.1337 158.9809,-124.5783 168.8265,-115.1265"/>
<polygon fill="#000000" stroke="#000000" points="171.2904,-117.613 176.0804,-108.1628 166.4426,-112.5633 171.2904,-117.613"/>
<g id="a_edge11&#45;headlabel"><a xlink:href="dir_000572_000013.html" target="_top" xlink:title="33">
<text text-anchor="middle" x="170.6636" y="-119.6506" font-family="Helvetica,sans-Serif" font-size="10.00" fill="#000000">33</text>
</a>
</g>
</g>
<!-- dir_f511f1e9c03c071966ae594f00bbc5e0&#45;&gt;dir_4ab6b4cc6a7edbff49100e9123df213f -->
<g id="edge12" class="edge">
<title>dir_f511f1e9c03c071966ae594f00bbc5e0&#45;&gt;dir_4ab6b4cc6a7edbff49100e9123df213f</title>
<path fill="none" stroke="#000000" d="M82.3743,-247.845C99.022,-257.5296 120.2133,-270.7142 137.5285,-282.0811"/>
<polygon fill="#000000" stroke="#000000" points="135.919,-285.2137 146.1854,-287.8314 139.7921,-279.3828 135.919,-285.2137"/>
<g id="a_edge12&#45;headlabel"><a xlink:href="dir_000685_000027.html" target="_top" xlink:title="2">
<text text-anchor="middle" x="131.3538" y="-283.0899" font-family="Helvetica,sans-Serif" font-size="10.00" fill="#000000">2</text>
</a>
</g>
</g>
<!-- dir_f511f1e9c03c071966ae594f00bbc5e0&#45;&gt;dir_183e7c4434404fe9096e1bd8673e1fcf -->
<g id="edge13" class="edge">
<title>dir_f511f1e9c03c071966ae594f00bbc5e0&#45;&gt;dir_183e7c4434404fe9096e1bd8673e1fcf</title>
<path fill="none" stroke="#000000" d="M51.0541,-215.9555C47.5956,-178.3144 47.3363,-91.1867 50.2761,-46.1246"/>
<polygon fill="#000000" stroke="#000000" points="53.7664,-46.3844 51.0449,-36.1451 46.7871,-45.8467 53.7664,-46.3844"/>
<g id="a_edge13&#45;headlabel"><a xlink:href="dir_000685_000080.html" target="_top" xlink:title="1">
<text text-anchor="middle" x="56.3213" y="-47.6864" font-family="Helvetica,sans-Serif" font-size="10.00" fill="#000000">1</text>
</a>
</g>
</g>
<!-- dir_f511f1e9c03c071966ae594f00bbc5e0&#45;&gt;dir_b05a5fa85f84bfc9013183c9d87f9a36 -->
<g id="edge14" class="edge">
<title>dir_f511f1e9c03c071966ae594f00bbc5e0&#45;&gt;dir_b05a5fa85f84bfc9013183c9d87f9a36</title>
<path fill="none" stroke="#000000" d="M71.4022,-215.8314C79.0415,-207.3694 88.2683,-197.1489 96.6207,-187.8971"/>
<polygon fill="#000000" stroke="#000000" points="99.2738,-190.1813 103.3769,-180.4133 94.0779,-185.4906 99.2738,-190.1813"/>
<g id="a_edge14&#45;headlabel"><a xlink:href="dir_000685_000572.html" target="_top" xlink:title="4">
<text text-anchor="middle" x="98.9726" y="-192.2521" font-family="Helvetica,sans-Serif" font-size="10.00" fill="#000000">4</text>
</a>
</g>
</g>
<!-- dir_bcbb2cf9a3d3d83e5515c82071a07177&#45;&gt;dir_4ab6b4cc6a7edbff49100e9123df213f -->
<g id="edge15" class="edge">
<title>dir_bcbb2cf9a3d3d83e5515c82071a07177&#45;&gt;dir_4ab6b4cc6a7edbff49100e9123df213f</title>
<path fill="none" stroke="#000000" d="M196.771,-108.1451C195.6823,-145.8741 185.4475,-233.0083 177.0869,-277.9956"/>
<polygon fill="#000000" stroke="#000000" points="173.6238,-277.4665 175.1179,-287.9555 180.4909,-278.8241 173.6238,-277.4665"/>
<g id="a_edge15&#45;headlabel"><a xlink:href="dir_000013_000027.html" target="_top" xlink:title="8">
<text text-anchor="middle" x="171.5355" y="-270.8896" font-family="Helvetica,sans-Serif" font-size="10.00" fill="#000000">8</text>
</a>
</g>
</g>
<!-- dir_bcbb2cf9a3d3d83e5515c82071a07177&#45;&gt;dir_183e7c4434404fe9096e1bd8673e1fcf -->
<g id="edge16" class="edge">
<title>dir_bcbb2cf9a3d3d83e5515c82071a07177&#45;&gt;dir_183e7c4434404fe9096e1bd8673e1fcf</title>
<path fill="none" stroke="#000000" d="M159.6721,-71.8314C139.2092,-61.3076 113.4578,-48.064 92.6179,-37.3463"/>
<polygon fill="#000000" stroke="#000000" points="94.2155,-34.2322 83.7218,-32.7712 91.014,-40.4573 94.2155,-34.2322"/>
<g id="a_edge16&#45;headlabel"><a xlink:href="dir_000013_000080.html" target="_top" xlink:title="73">
<text text-anchor="middle" x="98.7106" y="-30.8513" font-family="Helvetica,sans-Serif" font-size="10.00" fill="#000000">73</text>
</a>
</g>
</g>
</g>
</svg>
