<?xml version="1.0" encoding="UTF-8" standalone="no"?>
<!DOCTYPE svg PUBLIC "-//W3C//DTD SVG 1.1//EN"
 "http://www.w3.org/Graphics/SVG/1.1/DTD/svg11.dtd">
<!-- Generated by graphviz version 2.40.1 (20161225.0304)
 -->
<!-- Title: /home/travis/build/AliceO2Group/AliceO2/DataFormats/Detectors/TPC/include/DataFormatsTPC Pages: 1 -->
<!--zoomable 511 -->
<svg id="main" version="1.1" xmlns="http://www.w3.org/2000/svg" xmlns:xlink="http://www.w3.org/1999/xlink" xml:space="preserve" onload="init(evt)">
<style type="text/css"><![CDATA[
.edge:hover path { stroke: red; }
.edge:hover polygon { stroke: red; fill: red; }
]]></style>
<script type="text/javascript"><![CDATA[
var edges = document.getElementsByTagName('g');
if (edges && edges.length) {
  for (var i=0;i<edges.length;i++) {
    if (edges[i].id.substr(0,4)=='edge') {
      edges[i].setAttribute('class','edge');
    }
  }
}
]]></script>
        <defs>
                <circle id="rim" cx="0" cy="0" r="7"/>
                <circle id="rim2" cx="0" cy="0" r="3.5"/>
                <g id="zoomPlus">
                        <use xlink:href="#rim" fill="#404040">
                                <set attributeName="fill" to="#808080" begin="zoomplus.mouseover" end="zoomplus.mouseout"/>
                        </use>
                        <path d="M-4,0h8M0,-4v8" fill="none" stroke="white" stroke-width="1.5" pointer-events="none"/>
                </g>
                <g id="zoomMin">
                        <use xlink:href="#rim" fill="#404040">
                                <set attributeName="fill" to="#808080" begin="zoomminus.mouseover" end="zoomminus.mouseout"/>
                        </use>
                        <path d="M-4,0h8" fill="none" stroke="white" stroke-width="1.5" pointer-events="none"/>
                </g>
                <g id="dirArrow">
                        <path fill="none" stroke="white" stroke-width="1.5" d="M0,-3.0v7 M-2.5,-0.5L0,-3.0L2.5,-0.5"/>
                </g>
               <g id="resetDef">
                       <use xlink:href="#rim2" fill="#404040">
                               <set attributeName="fill" to="#808080" begin="reset.mouseover" end="reset.mouseout"/>
                       </use>
               </g>
        </defs>

<script type="text/javascript">
var viewWidth = 566;
var viewHeight = 511;
var sectionId = 'dynsection-0';
</script>
<script xlink:href="svgpan.js"/>
<svg id="graph" class="graph">
<g id="viewport">
<title>/home/travis/build/AliceO2Group/AliceO2/DataFormats/Detectors/TPC/include/DataFormatsTPC</title>
<g id="clust1" class="cluster">
<title>clusterdir_6f22cbd49ee75d810f2bfe3ea5accc3c</title>
<g id="a_clust1"><a xlink:href="dir_6f22cbd49ee75d810f2bfe3ea5accc3c.html" target="_top" xlink:title="include">
<polygon fill="#ddddee" stroke="#000000" points="262.5,-424 262.5,-495 376.5,-495 376.5,-424 262.5,-424"/>
<text text-anchor="middle" x="319.5" y="-483" font-family="Helvetica,sans-Serif" font-size="10.00" fill="#000000">include</text>
</a>
</g>
</g>
<!-- dir_4e2a5e5ba58223c96ff5b40c7fcc0e28 -->
<g id="node1" class="node">
<title>dir_4e2a5e5ba58223c96ff5b40c7fcc0e28</title>
<g id="a_node1"><a xlink:href="dir_4e2a5e5ba58223c96ff5b40c7fcc0e28.html" target="_top" xlink:title="DataFormatsTPC">
<polygon fill="#eeeeff" stroke="#000000" points="368.5,-468 270.5,-468 270.5,-432 368.5,-432 368.5,-468"/>
<text text-anchor="middle" x="319.5" y="-447.5" font-family="Helvetica,sans-Serif" font-size="10.00" fill="#000000">DataFormatsTPC</text>
</a>
</g>
</g>
<!-- dir_d269712cc31e133b892a3b3f6424741a -->
<g id="node2" class="node">
<title>dir_d269712cc31e133b892a3b3f6424741a</title>
<g id="a_node2"><a xlink:href="dir_d269712cc31e133b892a3b3f6424741a.html" target="_top" xlink:title="Reconstruction">
<polygon fill="none" stroke="#ff0000" points="401,-396 312,-396 312,-360 401,-360 401,-396"/>
<text text-anchor="middle" x="356.5" y="-375.5" font-family="Helvetica,sans-Serif" font-size="10.00" fill="#000000">Reconstruction</text>
</a>
</g>
</g>
<!-- dir_4e2a5e5ba58223c96ff5b40c7fcc0e28&#45;&gt;dir_d269712cc31e133b892a3b3f6424741a -->
<g id="edge19" class="edge">
<title>dir_4e2a5e5ba58223c96ff5b40c7fcc0e28&#45;&gt;dir_d269712cc31e133b892a3b3f6424741a</title>
<path fill="none" stroke="#000000" d="M328.8367,-431.8314C332.9243,-423.8771 337.8104,-414.369 342.3309,-405.5723"/>
<polygon fill="#000000" stroke="#000000" points="345.5799,-406.9074 347.0376,-396.4133 339.3539,-403.7078 345.5799,-406.9074"/>
<g id="a_edge19&#45;headlabel"><a xlink:href="dir_000128_000231.html" target="_top" xlink:title="2">
<text text-anchor="middle" x="346.4623" y="-408.9022" font-family="Helvetica,sans-Serif" font-size="10.00" fill="#000000">2</text>
</a>
</g>
</g>
<!-- dir_4ab6b4cc6a7edbff49100e9123df213f -->
<g id="node3" class="node">
<title>dir_4ab6b4cc6a7edbff49100e9123df213f</title>
<g id="a_node3"><a xlink:href="dir_4ab6b4cc6a7edbff49100e9123df213f.html" target="_top" xlink:title="Common">
<polygon fill="none" stroke="#ff0000" points="361,-324 300,-324 300,-288 361,-288 361,-324"/>
<text text-anchor="middle" x="330.5" y="-303.5" font-family="Helvetica,sans-Serif" font-size="10.00" fill="#000000">Common</text>
</a>
</g>
</g>
<!-- dir_4e2a5e5ba58223c96ff5b40c7fcc0e28&#45;&gt;dir_4ab6b4cc6a7edbff49100e9123df213f -->
<g id="edge20" class="edge">
<title>dir_4e2a5e5ba58223c96ff5b40c7fcc0e28&#45;&gt;dir_4ab6b4cc6a7edbff49100e9123df213f</title>
<path fill="none" stroke="#000000" d="M311.5783,-431.9513C304.6202,-413.6946 296.4727,-384.7178 302.5,-360 304.7539,-350.7566 308.8893,-341.3312 313.3027,-332.9966"/>
<polygon fill="#000000" stroke="#000000" points="316.4471,-334.5463 318.3183,-324.118 310.3524,-331.1033 316.4471,-334.5463"/>
<g id="a_edge20&#45;headlabel"><a xlink:href="dir_000128_000027.html" target="_top" xlink:title="2">
<text text-anchor="middle" x="317.1513" y="-336.5725" font-family="Helvetica,sans-Serif" font-size="10.00" fill="#000000">2</text>
</a>
</g>
</g>
<!-- dir_183e7c4434404fe9096e1bd8673e1fcf -->
<g id="node4" class="node">
<title>dir_183e7c4434404fe9096e1bd8673e1fcf</title>
<g id="a_node4"><a xlink:href="dir_183e7c4434404fe9096e1bd8673e1fcf.html" target="_top" xlink:title="Headers">
<polygon fill="none" stroke="#ff0000" points="463,-36 406,-36 406,0 463,0 463,-36"/>
<text text-anchor="middle" x="434.5" y="-15.5" font-family="Helvetica,sans-Serif" font-size="10.00" fill="#000000">Headers</text>
</a>
</g>
</g>
<!-- dir_4e2a5e5ba58223c96ff5b40c7fcc0e28&#45;&gt;dir_183e7c4434404fe9096e1bd8673e1fcf -->
<g id="edge21" class="edge">
<title>dir_4e2a5e5ba58223c96ff5b40c7fcc0e28&#45;&gt;dir_183e7c4434404fe9096e1bd8673e1fcf</title>
<path fill="none" stroke="#000000" d="M368.5252,-442.7267C438.1965,-429.3013 557.5,-393.5326 557.5,-306 557.5,-306 557.5,-306 557.5,-162 557.5,-108.4285 507.6727,-64.7164 471.4457,-40.015"/>
<polygon fill="#000000" stroke="#000000" points="473.299,-37.0444 463.0278,-34.4454 469.4364,-42.8823 473.299,-37.0444"/>
<g id="a_edge21&#45;headlabel"><a xlink:href="dir_000128_000080.html" target="_top" xlink:title="1">
<text text-anchor="middle" x="477.8635" y="-34.16" font-family="Helvetica,sans-Serif" font-size="10.00" fill="#000000">1</text>
</a>
</g>
</g>
<!-- dir_8ba487e25de5ee77e05e9dce7582cb98 -->
<g id="node5" class="node">
<title>dir_8ba487e25de5ee77e05e9dce7582cb98</title>
<g id="a_node5"><a xlink:href="dir_8ba487e25de5ee77e05e9dce7582cb98.html" target="_top" xlink:title="Algorithm">
<polygon fill="none" stroke="#ff0000" points="65,-396 0,-396 0,-360 65,-360 65,-396"/>
<text text-anchor="middle" x="32.5" y="-375.5" font-family="Helvetica,sans-Serif" font-size="10.00" fill="#000000">Algorithm</text>
</a>
</g>
</g>
<!-- dir_4e2a5e5ba58223c96ff5b40c7fcc0e28&#45;&gt;dir_8ba487e25de5ee77e05e9dce7582cb98 -->
<g id="edge22" class="edge">
<title>dir_4e2a5e5ba58223c96ff5b40c7fcc0e28&#45;&gt;dir_8ba487e25de5ee77e05e9dce7582cb98</title>
<path fill="none" stroke="#000000" d="M270.2383,-441.0792C221.3409,-431.7201 144.5018,-415.6476 79.5,-396 78.0363,-395.5576 76.5531,-395.0915 75.0599,-394.6072"/>
<polygon fill="#000000" stroke="#000000" points="75.7553,-391.1451 65.1606,-391.2006 73.4774,-397.7641 75.7553,-391.1451"/>
<g id="a_edge22&#45;headlabel"><a xlink:href="dir_000128_000000.html" target="_top" xlink:title="1">
<text text-anchor="middle" x="80.0781" y="-387.1299" font-family="Helvetica,sans-Serif" font-size="10.00" fill="#000000">1</text>
</a>
</g>
</g>
<!-- dir_047746f9f311f49446db9474b7431d0d -->
<g id="node6" class="node">
<title>dir_047746f9f311f49446db9474b7431d0d</title>
<g id="a_node6"><a xlink:href="dir_047746f9f311f49446db9474b7431d0d.html" target="_top" xlink:title="simulation">
<polygon fill="none" stroke="#ff0000" points="283.5,-180 215.5,-180 215.5,-144 283.5,-144 283.5,-180"/>
<text text-anchor="middle" x="249.5" y="-159.5" font-family="Helvetica,sans-Serif" font-size="10.00" fill="#000000">simulation</text>
</a>
</g>
</g>
<!-- dir_4e2a5e5ba58223c96ff5b40c7fcc0e28&#45;&gt;dir_047746f9f311f49446db9474b7431d0d -->
<g id="edge23" class="edge">
<title>dir_4e2a5e5ba58223c96ff5b40c7fcc0e28&#45;&gt;dir_047746f9f311f49446db9474b7431d0d</title>
<path fill="none" stroke="#000000" d="M310.67,-431.8551C305.9307,-421.5373 300.2996,-408.2642 296.5,-396 274.013,-323.4177 259.6252,-234.7495 253.2719,-190.2847"/>
<polygon fill="#000000" stroke="#000000" points="256.7159,-189.6401 251.8642,-180.2214 249.7834,-190.6099 256.7159,-189.6401"/>
<g id="a_edge23&#45;headlabel"><a xlink:href="dir_000128_000245.html" target="_top" xlink:title="2">
<text text-anchor="middle" x="260.0257" y="-190.3067" font-family="Helvetica,sans-Serif" font-size="10.00" fill="#000000">2</text>
</a>
</g>
</g>
<!-- dir_74593c7a91e03746ae2a516888bf9494 -->
<g id="node7" class="node">
<title>dir_74593c7a91e03746ae2a516888bf9494</title>
<g id="a_node7"><a xlink:href="dir_74593c7a91e03746ae2a516888bf9494.html" target="_top" xlink:title="Common">
<polygon fill="none" stroke="#ff0000" points="209,-108 148,-108 148,-72 209,-72 209,-108"/>
<text text-anchor="middle" x="178.5" y="-87.5" font-family="Helvetica,sans-Serif" font-size="10.00" fill="#000000">Common</text>
</a>
</g>
</g>
<!-- dir_4e2a5e5ba58223c96ff5b40c7fcc0e28&#45;&gt;dir_74593c7a91e03746ae2a516888bf9494 -->
<g id="edge24" class="edge">
<title>dir_4e2a5e5ba58223c96ff5b40c7fcc0e28&#45;&gt;dir_74593c7a91e03746ae2a516888bf9494</title>
<path fill="none" stroke="#000000" d="M270.4614,-441.3564C203.993,-426.4994 93.5,-389.2778 93.5,-306 93.5,-306 93.5,-306 93.5,-234 93.5,-187.4968 126.781,-142.8088 151.693,-115.8723"/>
<polygon fill="#000000" stroke="#000000" points="154.4206,-118.0835 158.7856,-108.4296 149.3531,-113.2543 154.4206,-118.0835"/>
<g id="a_edge24&#45;headlabel"><a xlink:href="dir_000128_000087.html" target="_top" xlink:title="1">
<text text-anchor="middle" x="153.9961" y="-120.1444" font-family="Helvetica,sans-Serif" font-size="10.00" fill="#000000">1</text>
</a>
</g>
</g>
<!-- dir_7924ba4398ae4560cd37376e44666c6d -->
<g id="node8" class="node">
<title>dir_7924ba4398ae4560cd37376e44666c6d</title>
<g id="a_node8"><a xlink:href="dir_7924ba4398ae4560cd37376e44666c6d.html" target="_top" xlink:title="common">
<polygon fill="none" stroke="#ff0000" points="397,-108 338,-108 338,-72 397,-72 397,-108"/>
<text text-anchor="middle" x="367.5" y="-87.5" font-family="Helvetica,sans-Serif" font-size="10.00" fill="#000000">common</text>
</a>
</g>
</g>
<!-- dir_4e2a5e5ba58223c96ff5b40c7fcc0e28&#45;&gt;dir_7924ba4398ae4560cd37376e44666c6d -->
<g id="edge25" class="edge">
<title>dir_4e2a5e5ba58223c96ff5b40c7fcc0e28&#45;&gt;dir_7924ba4398ae4560cd37376e44666c6d</title>
<path fill="none" stroke="#000000" d="M368.6817,-437.8247C427.8998,-419.8738 519.5,-380.1266 519.5,-306 519.5,-306 519.5,-306 519.5,-234 519.5,-171.726 451.4306,-128.3124 406.3956,-106.4044"/>
<polygon fill="#000000" stroke="#000000" points="407.706,-103.1528 397.168,-102.0568 404.7224,-109.4852 407.706,-103.1528"/>
<g id="a_edge25&#45;headlabel"><a xlink:href="dir_000128_000077.html" target="_top" xlink:title="2">
<text text-anchor="middle" x="412.1678" y="-99.6163" font-family="Helvetica,sans-Serif" font-size="10.00" fill="#000000">2</text>
</a>
</g>
</g>
<!-- dir_f511f1e9c03c071966ae594f00bbc5e0 -->
<g id="node9" class="node">
<title>dir_f511f1e9c03c071966ae594f00bbc5e0</title>
<g id="a_node9"><a xlink:href="dir_f511f1e9c03c071966ae594f00bbc5e0.html" target="_top" xlink:title="GPU">
<polygon fill="none" stroke="#ff0000" points="416.5,-252 362.5,-252 362.5,-216 416.5,-216 416.5,-252"/>
<text text-anchor="middle" x="389.5" y="-231.5" font-family="Helvetica,sans-Serif" font-size="10.00" fill="#000000">GPU</text>
</a>
</g>
</g>
<!-- dir_4e2a5e5ba58223c96ff5b40c7fcc0e28&#45;&gt;dir_f511f1e9c03c071966ae594f00bbc5e0 -->
<g id="edge26" class="edge">
<title>dir_4e2a5e5ba58223c96ff5b40c7fcc0e28&#45;&gt;dir_f511f1e9c03c071966ae594f00bbc5e0</title>
<path fill="none" stroke="#000000" d="M368.5548,-432.1968C384.5108,-423.7987 400.4324,-412.0151 409.5,-396 433.3909,-353.8041 416.4096,-295.6413 402.5203,-261.7072"/>
<polygon fill="#000000" stroke="#000000" points="405.6917,-260.2218 398.5399,-252.405 399.2562,-262.9756 405.6917,-260.2218"/>
<g id="a_edge26&#45;headlabel"><a xlink:href="dir_000128_000685.html" target="_top" xlink:title="7">
<text text-anchor="middle" x="409.7161" y="-259.9096" font-family="Helvetica,sans-Serif" font-size="10.00" fill="#000000">7</text>
</a>
</g>
</g>
<!-- dir_d269712cc31e133b892a3b3f6424741a&#45;&gt;dir_4ab6b4cc6a7edbff49100e9123df213f -->
<g id="edge1" class="edge">
<title>dir_d269712cc31e133b892a3b3f6424741a&#45;&gt;dir_4ab6b4cc6a7edbff49100e9123df213f</title>
<path fill="none" stroke="#000000" d="M343.9867,-359.8314C340.4168,-352.0463 336.8506,-342.7729 334.055,-334.1347"/>
<polygon fill="#000000" stroke="#000000" points="337.3711,-333.0061 331.1732,-324.4133 330.6598,-334.9957 337.3711,-333.0061"/>
<g id="a_edge1&#45;headlabel"><a xlink:href="dir_000231_000027.html" target="_top" xlink:title="8">
<text text-anchor="middle" x="341.1148" y="-333.1455" font-family="Helvetica,sans-Serif" font-size="10.00" fill="#000000">8</text>
</a>
</g>
</g>
<!-- dir_d269712cc31e133b892a3b3f6424741a&#45;&gt;dir_74593c7a91e03746ae2a516888bf9494 -->
<g id="edge2" class="edge">
<title>dir_d269712cc31e133b892a3b3f6424741a&#45;&gt;dir_74593c7a91e03746ae2a516888bf9494</title>
<path fill="none" stroke="#000000" d="M331.6493,-359.8699C291.3239,-328.6147 213.523,-260.1689 187.5,-180 181.0055,-159.9925 178.8435,-136.2806 178.2581,-118.2194"/>
<polygon fill="#000000" stroke="#000000" points="181.7545,-117.9837 178.0736,-108.0488 174.7556,-118.1107 181.7545,-117.9837"/>
<g id="a_edge2&#45;headlabel"><a xlink:href="dir_000231_000087.html" target="_top" xlink:title="1">
<text text-anchor="middle" x="184.6583" y="-119.0262" font-family="Helvetica,sans-Serif" font-size="10.00" fill="#000000">1</text>
</a>
</g>
</g>
<!-- dir_d269712cc31e133b892a3b3f6424741a&#45;&gt;dir_7924ba4398ae4560cd37376e44666c6d -->
<g id="edge3" class="edge">
<title>dir_d269712cc31e133b892a3b3f6424741a&#45;&gt;dir_7924ba4398ae4560cd37376e44666c6d</title>
<path fill="none" stroke="#000000" d="M370.5803,-359.6542C387.5838,-336.2039 415.1861,-293.6389 425.5,-252 437.6457,-202.9658 408.4385,-148.0254 387.2104,-116.3767"/>
<polygon fill="#000000" stroke="#000000" points="390.045,-114.3223 381.4756,-108.0921 384.2895,-118.3064 390.045,-114.3223"/>
<g id="a_edge3&#45;headlabel"><a xlink:href="dir_000231_000077.html" target="_top" xlink:title="4">
<text text-anchor="middle" x="394.4254" y="-113.1618" font-family="Helvetica,sans-Serif" font-size="10.00" fill="#000000">4</text>
</a>
</g>
</g>
<!-- dir_d269712cc31e133b892a3b3f6424741a&#45;&gt;dir_f511f1e9c03c071966ae594f00bbc5e0 -->
<g id="edge4" class="edge">
<title>dir_d269712cc31e133b892a3b3f6424741a&#45;&gt;dir_f511f1e9c03c071966ae594f00bbc5e0</title>
<path fill="none" stroke="#000000" d="M361.0327,-359.5246C363.5681,-349.1034 366.7602,-335.837 369.5,-324 374.2526,-303.4672 379.4072,-280.2468 383.293,-262.5355"/>
<polygon fill="#000000" stroke="#000000" points="386.8157,-262.8098 385.5336,-252.2928 379.9774,-261.3139 386.8157,-262.8098"/>
<g id="a_edge4&#45;headlabel"><a xlink:href="dir_000231_000685.html" target="_top" xlink:title="2">
<text text-anchor="middle" x="388.8213" y="-264.4281" font-family="Helvetica,sans-Serif" font-size="10.00" fill="#000000">2</text>
</a>
</g>
</g>
<!-- dir_4ab6b4cc6a7edbff49100e9123df213f&#45;&gt;dir_d269712cc31e133b892a3b3f6424741a -->
<g id="edge5" class="edge">
<title>dir_4ab6b4cc6a7edbff49100e9123df213f&#45;&gt;dir_d269712cc31e133b892a3b3f6424741a</title>
<path fill="none" stroke="#000000" d="M343.1252,-324.4133C346.695,-332.2292 350.253,-341.5113 353.0324,-350.136"/>
<polygon fill="#000000" stroke="#000000" points="349.7058,-351.2297 355.8915,-359.8314 356.42,-349.2497 349.7058,-351.2297"/>
<g id="a_edge5&#45;headlabel"><a xlink:href="dir_000027_000231.html" target="_top" xlink:title="1">
<text text-anchor="middle" x="345.9658" y="-346.085" font-family="Helvetica,sans-Serif" font-size="10.00" fill="#000000">1</text>
</a>
</g>
</g>
<!-- dir_4ab6b4cc6a7edbff49100e9123df213f&#45;&gt;dir_74593c7a91e03746ae2a516888bf9494 -->
<g id="edge6" class="edge">
<title>dir_4ab6b4cc6a7edbff49100e9123df213f&#45;&gt;dir_74593c7a91e03746ae2a516888bf9494</title>
<path fill="none" stroke="#000000" d="M300.315,-287.8801C269.8282,-265.4538 224.0885,-224.7138 197.5,-180 186.1739,-160.953 178.9954,-136.8725 176.078,-118.4138"/>
<polygon fill="#000000" stroke="#000000" points="179.5274,-117.784 174.8535,-108.2758 172.5779,-118.6234 179.5274,-117.784"/>
<g id="a_edge6&#45;headlabel"><a xlink:href="dir_000027_000087.html" target="_top" xlink:title="1">
<text text-anchor="middle" x="182.7771" y="-118.5122" font-family="Helvetica,sans-Serif" font-size="10.00" fill="#000000">1</text>
</a>
</g>
</g>
<!-- dir_4ab6b4cc6a7edbff49100e9123df213f&#45;&gt;dir_f511f1e9c03c071966ae594f00bbc5e0 -->
<g id="edge7" class="edge">
<title>dir_4ab6b4cc6a7edbff49100e9123df213f&#45;&gt;dir_f511f1e9c03c071966ae594f00bbc5e0</title>
<path fill="none" stroke="#000000" d="M339.4358,-287.8314C345.5453,-279.3694 353.7352,-269.1489 361.7708,-259.8971"/>
<polygon fill="#000000" stroke="#000000" points="364.3987,-262.209 368.4353,-252.4133 359.171,-257.5536 364.3987,-262.209"/>
<g id="a_edge7&#45;headlabel"><a xlink:href="dir_000027_000685.html" target="_top" xlink:title="3">
<text text-anchor="middle" x="364.1285" y="-264.2817" font-family="Helvetica,sans-Serif" font-size="10.00" fill="#000000">3</text>
</a>
</g>
</g>
<!-- dir_183e7c4434404fe9096e1bd8673e1fcf&#45;&gt;dir_f511f1e9c03c071966ae594f00bbc5e0 -->
<g id="edge8" class="edge">
<title>dir_183e7c4434404fe9096e1bd8673e1fcf&#45;&gt;dir_f511f1e9c03c071966ae594f00bbc5e0</title>
<path fill="none" stroke="#000000" d="M434.6749,-36.1451C430.2582,-73.9537 412.2925,-161.3762 399.9724,-206.2797"/>
<polygon fill="#000000" stroke="#000000" points="396.5899,-205.3785 397.2052,-215.9555 403.32,-207.3034 396.5899,-205.3785"/>
<g id="a_edge8&#45;headlabel"><a xlink:href="dir_000080_000685.html" target="_top" xlink:title="1">
<text text-anchor="middle" x="394.8484" y="-198.6418" font-family="Helvetica,sans-Serif" font-size="10.00" fill="#000000">1</text>
</a>
</g>
</g>
<!-- dir_8ba487e25de5ee77e05e9dce7582cb98&#45;&gt;dir_183e7c4434404fe9096e1bd8673e1fcf -->
<g id="edge9" class="edge">
<title>dir_8ba487e25de5ee77e05e9dce7582cb98&#45;&gt;dir_183e7c4434404fe9096e1bd8673e1fcf</title>
<path fill="none" stroke="#000000" d="M34.9864,-359.855C38.5013,-332.5902 44.5,-279.4068 44.5,-234 44.5,-234 44.5,-234 44.5,-162 44.5,-104.1607 86.9863,-98.3005 138.5,-72 182.9737,-49.2937 326.1103,-30.3845 395.7385,-22.2651"/>
<polygon fill="#000000" stroke="#000000" points="396.3227,-25.7211 405.8571,-21.1009 395.5226,-18.767 396.3227,-25.7211"/>
<g id="a_edge9&#45;headlabel"><a xlink:href="dir_000000_000080.html" target="_top" xlink:title="8">
<text text-anchor="middle" x="393.0762" y="-26.4525" font-family="Helvetica,sans-Serif" font-size="10.00" fill="#000000">8</text>
</a>
</g>
</g>
<!-- dir_047746f9f311f49446db9474b7431d0d&#45;&gt;dir_4ab6b4cc6a7edbff49100e9123df213f -->
<g id="edge10" class="edge">
<title>dir_047746f9f311f49446db9474b7431d0d&#45;&gt;dir_4ab6b4cc6a7edbff49100e9123df213f</title>
<path fill="none" stroke="#000000" d="M259.6754,-180.0896C273.6898,-205.0041 299.0406,-250.0722 315.3056,-278.9877"/>
<polygon fill="#000000" stroke="#000000" points="312.2881,-280.7625 320.2413,-287.7623 318.3891,-277.3306 312.2881,-280.7625"/>
<g id="a_edge10&#45;headlabel"><a xlink:href="dir_000245_000027.html" target="_top" xlink:title="5">
<text text-anchor="middle" x="308.0512" y="-276.5215" font-family="Helvetica,sans-Serif" font-size="10.00" fill="#000000">5</text>
</a>
</g>
</g>
<!-- dir_047746f9f311f49446db9474b7431d0d&#45;&gt;dir_74593c7a91e03746ae2a516888bf9494 -->
<g id="edge11" class="edge">
<title>dir_047746f9f311f49446db9474b7431d0d&#45;&gt;dir_74593c7a91e03746ae2a516888bf9494</title>
<path fill="none" stroke="#000000" d="M231.5837,-143.8314C223.1558,-135.2848 212.959,-124.9443 203.764,-115.6198"/>
<polygon fill="#000000" stroke="#000000" points="206.1711,-113.0761 196.6575,-108.4133 201.1869,-117.9912 206.1711,-113.0761"/>
<g id="a_edge11&#45;headlabel"><a xlink:href="dir_000245_000087.html" target="_top" xlink:title="6">
<text text-anchor="middle" x="210.7167" y="-111.142" font-family="Helvetica,sans-Serif" font-size="10.00" fill="#000000">6</text>
</a>
</g>
</g>
<!-- dir_047746f9f311f49446db9474b7431d0d&#45;&gt;dir_7924ba4398ae4560cd37376e44666c6d -->
<g id="edge12" class="edge">
<title>dir_047746f9f311f49446db9474b7431d0d&#45;&gt;dir_7924ba4398ae4560cd37376e44666c6d</title>
<path fill="none" stroke="#000000" d="M279.2764,-143.8314C294.3693,-134.6221 312.8757,-123.3301 329.0343,-113.4706"/>
<polygon fill="#000000" stroke="#000000" points="331.0198,-116.3593 337.7331,-108.1628 327.3737,-110.3838 331.0198,-116.3593"/>
<g id="a_edge12&#45;headlabel"><a xlink:href="dir_000245_000077.html" target="_top" xlink:title="2">
<text text-anchor="middle" x="329.4301" y="-118.1552" font-family="Helvetica,sans-Serif" font-size="10.00" fill="#000000">2</text>
</a>
</g>
</g>
<!-- dir_047746f9f311f49446db9474b7431d0d&#45;&gt;dir_f511f1e9c03c071966ae594f00bbc5e0 -->
<g id="edge13" class="edge">
<title>dir_047746f9f311f49446db9474b7431d0d&#45;&gt;dir_f511f1e9c03c071966ae594f00bbc5e0</title>
<path fill="none" stroke="#000000" d="M283.9018,-176.8223C305.1265,-187.0743 332.1967,-200.8817 353.6699,-212.3598"/>
<polygon fill="#000000" stroke="#000000" points="352.0335,-215.4538 362.4967,-217.1192 355.3558,-209.2924 352.0335,-215.4538"/>
<g id="a_edge13&#45;headlabel"><a xlink:href="dir_000245_000685.html" target="_top" xlink:title="2">
<text text-anchor="middle" x="347.5221" y="-213.7469" font-family="Helvetica,sans-Serif" font-size="10.00" fill="#000000">2</text>
</a>
</g>
</g>
<!-- dir_74593c7a91e03746ae2a516888bf9494&#45;&gt;dir_4ab6b4cc6a7edbff49100e9123df213f -->
<g id="edge14" class="edge">
<title>dir_74593c7a91e03746ae2a516888bf9494&#45;&gt;dir_4ab6b4cc6a7edbff49100e9123df213f</title>
<path fill="none" stroke="#000000" d="M188.2921,-108.2758C194.3374,-127.2265 201.9511,-157.2148 215.5,-180 239.5248,-220.4024 279.1855,-257.5603 305.2471,-280.8949"/>
<polygon fill="#000000" stroke="#000000" points="303.0709,-283.6435 312.8662,-287.6811 307.7267,-278.4163 303.0709,-283.6435"/>
<g id="a_edge14&#45;headlabel"><a xlink:href="dir_000087_000027.html" target="_top" xlink:title="5">
<text text-anchor="middle" x="298.4982" y="-280.8729" font-family="Helvetica,sans-Serif" font-size="10.00" fill="#000000">5</text>
</a>
</g>
</g>
<!-- dir_74593c7a91e03746ae2a516888bf9494&#45;&gt;dir_183e7c4434404fe9096e1bd8673e1fcf -->
<g id="edge15" class="edge">
<title>dir_74593c7a91e03746ae2a516888bf9494&#45;&gt;dir_183e7c4434404fe9096e1bd8673e1fcf</title>
<path fill="none" stroke="#000000" d="M209.1253,-81.3866C255.9077,-68.2291 345.1005,-43.1436 396.1318,-28.7911"/>
<polygon fill="#000000" stroke="#000000" points="397.1264,-32.1472 405.8053,-26.0704 395.2312,-25.4086 397.1264,-32.1472"/>
<g id="a_edge15&#45;headlabel"><a xlink:href="dir_000087_000080.html" target="_top" xlink:title="1">
<text text-anchor="middle" x="394.4348" y="-33.3536" font-family="Helvetica,sans-Serif" font-size="10.00" fill="#000000">1</text>
</a>
</g>
</g>
<!-- dir_74593c7a91e03746ae2a516888bf9494&#45;&gt;dir_f511f1e9c03c071966ae594f00bbc5e0 -->
<g id="edge16" class="edge">
<title>dir_74593c7a91e03746ae2a516888bf9494&#45;&gt;dir_f511f1e9c03c071966ae594f00bbc5e0</title>
<path fill="none" stroke="#000000" d="M209.381,-101.6114C233.1248,-111.237 266.2056,-126.1965 292.5,-144 320.0408,-162.6474 347.4554,-188.989 366.0777,-208.3576"/>
<polygon fill="#000000" stroke="#000000" points="363.5884,-210.8191 373.0086,-215.6678 368.6682,-206.0028 363.5884,-210.8191"/>
<g id="a_edge16&#45;headlabel"><a xlink:href="dir_000087_000685.html" target="_top" xlink:title="2">
<text text-anchor="middle" x="359.0548" y="-207.664" font-family="Helvetica,sans-Serif" font-size="10.00" fill="#000000">2</text>
</a>
</g>
</g>
<!-- dir_7924ba4398ae4560cd37376e44666c6d&#45;&gt;dir_4ab6b4cc6a7edbff49100e9123df213f -->
<g id="edge17" class="edge">
<title>dir_7924ba4398ae4560cd37376e44666c6d&#45;&gt;dir_4ab6b4cc6a7edbff49100e9123df213f</title>
<path fill="none" stroke="#000000" d="M364.3918,-108.1451C357.929,-145.8741 343.0032,-233.0083 335.2971,-277.9956"/>
<polygon fill="#000000" stroke="#000000" points="331.8297,-277.5081 333.591,-287.9555 338.7292,-278.69 331.8297,-277.5081"/>
<g id="a_edge17&#45;headlabel"><a xlink:href="dir_000077_000027.html" target="_top" xlink:title="2">
<text text-anchor="middle" x="329.638" y="-270.9857" font-family="Helvetica,sans-Serif" font-size="10.00" fill="#000000">2</text>
</a>
</g>
</g>
<!-- dir_7924ba4398ae4560cd37376e44666c6d&#45;&gt;dir_f511f1e9c03c071966ae594f00bbc5e0 -->
<g id="edge18" class="edge">
<title>dir_7924ba4398ae4560cd37376e44666c6d&#45;&gt;dir_f511f1e9c03c071966ae594f00bbc5e0</title>
<path fill="none" stroke="#000000" d="M370.2637,-108.0896C374.0206,-132.6805 380.7772,-176.905 385.1998,-205.8531"/>
<polygon fill="#000000" stroke="#000000" points="381.7435,-206.4056 386.7137,-215.7623 388.6632,-205.3484 381.7435,-206.4056"/>
<g id="a_edge18&#45;headlabel"><a xlink:href="dir_000077_000685.html" target="_top" xlink:title="4">
<text text-anchor="middle" x="378.394" y="-200.781" font-family="Helvetica,sans-Serif" font-size="10.00" fill="#000000">4</text>
</a>
</g>
</g>
<!-- dir_f511f1e9c03c071966ae594f00bbc5e0&#45;&gt;dir_4ab6b4cc6a7edbff49100e9123df213f -->
<g id="edge27" class="edge">
<title>dir_f511f1e9c03c071966ae594f00bbc5e0&#45;&gt;dir_4ab6b4cc6a7edbff49100e9123df213f</title>
<path fill="none" stroke="#000000" d="M380.3874,-252.4133C374.2996,-260.8239 366.1938,-270.9323 358.2384,-280.0923"/>
<polygon fill="#000000" stroke="#000000" points="355.3815,-278.0374 351.3406,-287.8314 360.6071,-282.695 355.3815,-278.0374"/>
<g id="a_edge27&#45;headlabel"><a xlink:href="dir_000685_000027.html" target="_top" xlink:title="2">
<text text-anchor="middle" x="355.6537" y="-270.9648" font-family="Helvetica,sans-Serif" font-size="10.00" fill="#000000">2</text>
</a>
</g>
</g>
<!-- dir_f511f1e9c03c071966ae594f00bbc5e0&#45;&gt;dir_183e7c4434404fe9096e1bd8673e1fcf -->
<g id="edge28" class="edge">
<title>dir_f511f1e9c03c071966ae594f00bbc5e0&#45;&gt;dir_183e7c4434404fe9096e1bd8673e1fcf</title>
<path fill="none" stroke="#000000" d="M389.3134,-215.9555C393.7061,-178.235 411.6647,-90.8188 423.9948,-45.8399"/>
<polygon fill="#000000" stroke="#000000" points="427.3828,-46.7219 426.7646,-36.1451 420.6521,-44.7988 427.3828,-46.7219"/>
<g id="a_edge28&#45;headlabel"><a xlink:href="dir_000685_000080.html" target="_top" xlink:title="1">
<text text-anchor="middle" x="429.1254" y="-48.4581" font-family="Helvetica,sans-Serif" font-size="10.00" fill="#000000">1</text>
</a>
</g>
</g>
<!-- dir_f511f1e9c03c071966ae594f00bbc5e0&#45;&gt;dir_047746f9f311f49446db9474b7431d0d -->
<g id="edge29" class="edge">
<title>dir_f511f1e9c03c071966ae594f00bbc5e0&#45;&gt;dir_047746f9f311f49446db9474b7431d0d</title>
<path fill="none" stroke="#000000" d="M362.2278,-222.5914C340.9661,-212.5098 311.3626,-197.4994 287.7695,-184.9414"/>
<polygon fill="#000000" stroke="#000000" points="289.1917,-181.7325 278.7253,-180.0873 285.8813,-187.9003 289.1917,-181.7325"/>
<g id="a_edge29&#45;headlabel"><a xlink:href="dir_000685_000245.html" target="_top" xlink:title="4">
<text text-anchor="middle" x="293.7016" y="-178.4306" font-family="Helvetica,sans-Serif" font-size="10.00" fill="#000000">4</text>
</a>
</g>
</g>
</g>
</svg>
        <g id="navigator" transform="translate(0 0)" fill="#404254">
                <rect fill="#f2f5e9" fill-opacity="0.5" stroke="#606060" stroke-width=".5" x="0" y="0" width="60" height="60"/>
                <use id="zoomplus" xlink:href="#zoomPlus" x="17" y="9" onmousedown="handleZoom(evt,'in')"/>
                <use id="zoomminus" xlink:href="#zoomMin" x="42" y="9" onmousedown="handleZoom(evt,'out')"/>
                <use id="reset" xlink:href="#resetDef" x="30" y="36" onmousedown="handleReset()"/>
                <g id="arrowUp" xlink:href="#dirArrow" transform="translate(30 24)" onmousedown="handlePan(0,-1)">
                  <use xlink:href="#rim" fill="#404040">
                        <set attributeName="fill" to="#808080" begin="arrowUp.mouseover" end="arrowUp.mouseout"/>
                  </use>
                  <path fill="none" stroke="white" stroke-width="1.5" d="M0,-3.0v7 M-2.5,-0.5L0,-3.0L2.5,-0.5"/>
                </g>
                <g id="arrowRight" xlink:href="#dirArrow" transform="rotate(90) translate(36 -43)" onmousedown="handlePan(1,0)">
                  <use xlink:href="#rim" fill="#404040">
                        <set attributeName="fill" to="#808080" begin="arrowRight.mouseover" end="arrowRight.mouseout"/>
                  </use>
                  <path fill="none" stroke="white" stroke-width="1.5" d="M0,-3.0v7 M-2.5,-0.5L0,-3.0L2.5,-0.5"/>
                </g>
                <g id="arrowDown" xlink:href="#dirArrow" transform="rotate(180) translate(-30 -48)" onmousedown="handlePan(0,1)">
                  <use xlink:href="#rim" fill="#404040">
                        <set attributeName="fill" to="#808080" begin="arrowDown.mouseover" end="arrowDown.mouseout"/>
                  </use>
                  <path fill="none" stroke="white" stroke-width="1.5" d="M0,-3.0v7 M-2.5,-0.5L0,-3.0L2.5,-0.5"/>
                </g>
                <g id="arrowLeft" xlink:href="#dirArrow" transform="rotate(270) translate(-36 17)" onmousedown="handlePan(-1,0)">
                  <use xlink:href="#rim" fill="#404040">
                        <set attributeName="fill" to="#808080" begin="arrowLeft.mouseover" end="arrowLeft.mouseout"/>
                  </use>
                  <path fill="none" stroke="white" stroke-width="1.5" d="M0,-3.0v7 M-2.5,-0.5L0,-3.0L2.5,-0.5"/>
                </g>
        </g>
        <svg viewBox="0 0 15 15" width="100%" height="30px" preserveAspectRatio="xMaxYMin meet">
         <g id="arrow_out" transform="scale(0.3 0.3)">
          <a xlink:href="dir_4e2a5e5ba58223c96ff5b40c7fcc0e28_dep_org.svg" target="_base">
           <rect id="button" ry="5" rx="5" y="6" x="6" height="38" width="38"
                fill="#f2f5e9" fill-opacity="0.5" stroke="#606060" stroke-width="1.0"/>
           <path id="arrow"
             d="M 11.500037,31.436501 C 11.940474,20.09759 22.043105,11.32322 32.158766,21.979434 L 37.068811,17.246167 C 37.068811,17.246167 37.088388,32 37.088388,32 L 22.160133,31.978069 C 22.160133,31.978069 26.997745,27.140456 26.997745,27.140456 C 18.528582,18.264221 13.291696,25.230495 11.500037,31.436501 z"
             style="fill:#404040;"/>
          </a>
         </g>
        </svg>
</svg>
