<?xml version="1.0" encoding="UTF-8" standalone="no"?>
<!DOCTYPE svg PUBLIC "-//W3C//DTD SVG 1.1//EN"
 "http://www.w3.org/Graphics/SVG/1.1/DTD/svg11.dtd">
<!-- Generated by graphviz version 2.40.1 (20161225.0304)
 -->
<!-- Title: /home/travis/build/AliceO2Group/AliceO2/Detectors/FIT/FT0/reconstruction/src Pages: 1 -->
<svg width="283pt" height="439pt"
 viewBox="0.00 0.00 282.84 439.00" xmlns="http://www.w3.org/2000/svg" xmlns:xlink="http://www.w3.org/1999/xlink">
<g id="graph0" class="graph" transform="scale(1 1) rotate(0) translate(4 435)">
<title>/home/travis/build/AliceO2Group/AliceO2/Detectors/FIT/FT0/reconstruction/src</title>
<g id="clust1" class="cluster">
<title>clusterdir_ca639a046a87a9287b3468a6ba2bbef1</title>
<g id="a_clust1"><a xlink:href="dir_ca639a046a87a9287b3468a6ba2bbef1.html" target="_top" xlink:title="reconstruction">
<polygon fill="#ddddee" stroke="#000000" points="108,-352 108,-423 194,-423 194,-352 108,-352"/>
<text text-anchor="middle" x="151" y="-411" font-family="Helvetica,sans-Serif" font-size="10.00" fill="#000000">reconstruction</text>
</a>
</g>
</g>
<!-- dir_1b6b29fc497b523a5fbcdcf4771534fb -->
<g id="node1" class="node">
<title>dir_1b6b29fc497b523a5fbcdcf4771534fb</title>
<g id="a_node1"><a xlink:href="dir_1b6b29fc497b523a5fbcdcf4771534fb.html" target="_top" xlink:title="src">
<polygon fill="#eeeeff" stroke="#000000" points="178,-396 124,-396 124,-360 178,-360 178,-396"/>
<text text-anchor="middle" x="151" y="-375.5" font-family="Helvetica,sans-Serif" font-size="10.00" fill="#000000">src</text>
</a>
</g>
</g>
<!-- dir_4ab6b4cc6a7edbff49100e9123df213f -->
<g id="node2" class="node">
<title>dir_4ab6b4cc6a7edbff49100e9123df213f</title>
<g id="a_node2"><a xlink:href="dir_4ab6b4cc6a7edbff49100e9123df213f.html" target="_top" xlink:title="Common">
<polygon fill="none" stroke="#ff0000" points="91.5,-252 30.5,-252 30.5,-216 91.5,-216 91.5,-252"/>
<text text-anchor="middle" x="61" y="-231.5" font-family="Helvetica,sans-Serif" font-size="10.00" fill="#000000">Common</text>
</a>
</g>
</g>
<!-- dir_1b6b29fc497b523a5fbcdcf4771534fb&#45;&gt;dir_4ab6b4cc6a7edbff49100e9123df213f -->
<g id="edge1" class="edge">
<title>dir_1b6b29fc497b523a5fbcdcf4771534fb&#45;&gt;dir_4ab6b4cc6a7edbff49100e9123df213f</title>
<path fill="none" stroke="#000000" d="M123.8816,-361.2217C110.6916,-351.7832 95.643,-338.9043 86,-324 73.9408,-305.3613 67.63,-280.9208 64.3681,-262.2133"/>
<polygon fill="#000000" stroke="#000000" points="67.8088,-261.5609 62.8159,-252.2163 60.8917,-262.6349 67.8088,-261.5609"/>
<g id="a_edge1&#45;headlabel"><a xlink:href="dir_000455_000027.html" target="_top" xlink:title="2">
<text text-anchor="middle" x="71.1659" y="-262.1773" font-family="Helvetica,sans-Serif" font-size="10.00" fill="#000000">2</text>
</a>
</g>
</g>
<!-- dir_ee46b747e1abe6c555594e61ae5c8c00 -->
<g id="node3" class="node">
<title>dir_ee46b747e1abe6c555594e61ae5c8c00</title>
<g id="a_node3"><a xlink:href="dir_ee46b747e1abe6c555594e61ae5c8c00.html" target="_top" xlink:title="include">
<polygon fill="none" stroke="#ff0000" points="261,-324 207,-324 207,-288 261,-288 261,-324"/>
<text text-anchor="middle" x="234" y="-303.5" font-family="Helvetica,sans-Serif" font-size="10.00" fill="#000000">include</text>
</a>
</g>
</g>
<!-- dir_1b6b29fc497b523a5fbcdcf4771534fb&#45;&gt;dir_ee46b747e1abe6c555594e61ae5c8c00 -->
<g id="edge2" class="edge">
<title>dir_1b6b29fc497b523a5fbcdcf4771534fb&#45;&gt;dir_ee46b747e1abe6c555594e61ae5c8c00</title>
<path fill="none" stroke="#000000" d="M171.9444,-359.8314C182.0691,-351.0485 194.3777,-340.3712 205.3548,-330.8489"/>
<polygon fill="#000000" stroke="#000000" points="207.8019,-333.3595 213.0623,-324.1628 203.2149,-328.0718 207.8019,-333.3595"/>
<g id="a_edge2&#45;headlabel"><a xlink:href="dir_000455_000453.html" target="_top" xlink:title="2">
<text text-anchor="middle" x="206.9471" y="-335.3597" font-family="Helvetica,sans-Serif" font-size="10.00" fill="#000000">2</text>
</a>
</g>
</g>
<!-- dir_63da1bf9cbb165deb85abc813a5acde9 -->
<g id="node4" class="node">
<title>dir_63da1bf9cbb165deb85abc813a5acde9</title>
<g id="a_node4"><a xlink:href="dir_63da1bf9cbb165deb85abc813a5acde9.html" target="_top" xlink:title="base">
<polygon fill="none" stroke="#ff0000" points="87,-36 33,-36 33,0 87,0 87,-36"/>
<text text-anchor="middle" x="60" y="-15.5" font-family="Helvetica,sans-Serif" font-size="10.00" fill="#000000">base</text>
</a>
</g>
</g>
<!-- dir_1b6b29fc497b523a5fbcdcf4771534fb&#45;&gt;dir_63da1bf9cbb165deb85abc813a5acde9 -->
<g id="edge3" class="edge">
<title>dir_1b6b29fc497b523a5fbcdcf4771534fb&#45;&gt;dir_63da1bf9cbb165deb85abc813a5acde9</title>
<path fill="none" stroke="#000000" d="M123.655,-366.8608C80.141,-347.1085 0,-301.5594 0,-234 0,-234 0,-234 0,-162 0,-118.2551 23.8848,-72.3872 41.5148,-44.4891"/>
<polygon fill="#000000" stroke="#000000" points="44.4608,-46.379 46.9809,-36.0882 38.5934,-42.5614 44.4608,-46.379"/>
<g id="a_edge3&#45;headlabel"><a xlink:href="dir_000455_000335.html" target="_top" xlink:title="1">
<text text-anchor="middle" x="44.8803" y="-48.4404" font-family="Helvetica,sans-Serif" font-size="10.00" fill="#000000">1</text>
</a>
</g>
</g>
<!-- dir_bcbb2cf9a3d3d83e5515c82071a07177 -->
<g id="node5" class="node">
<title>dir_bcbb2cf9a3d3d83e5515c82071a07177</title>
<g id="a_node5"><a xlink:href="dir_bcbb2cf9a3d3d83e5515c82071a07177.html" target="_top" xlink:title="Framework">
<polygon fill="none" stroke="#ff0000" points="155.5,-180 84.5,-180 84.5,-144 155.5,-144 155.5,-180"/>
<text text-anchor="middle" x="120" y="-159.5" font-family="Helvetica,sans-Serif" font-size="10.00" fill="#000000">Framework</text>
</a>
</g>
</g>
<!-- dir_1b6b29fc497b523a5fbcdcf4771534fb&#45;&gt;dir_bcbb2cf9a3d3d83e5515c82071a07177 -->
<g id="edge4" class="edge">
<title>dir_1b6b29fc497b523a5fbcdcf4771534fb&#45;&gt;dir_bcbb2cf9a3d3d83e5515c82071a07177</title>
<path fill="none" stroke="#000000" d="M153.9885,-359.563C155.5251,-349.1537 157.2328,-335.8866 158,-324 159.0306,-308.0332 160.3349,-303.8287 158,-288 152.9009,-253.4324 140.3331,-215.2 131.0397,-190.0172"/>
<polygon fill="#000000" stroke="#000000" points="134.2151,-188.5181 127.413,-180.3952 127.6649,-190.9871 134.2151,-188.5181"/>
<g id="a_edge4&#45;headlabel"><a xlink:href="dir_000455_000013.html" target="_top" xlink:title="2">
<text text-anchor="middle" x="138.1397" y="-188.3804" font-family="Helvetica,sans-Serif" font-size="10.00" fill="#000000">2</text>
</a>
</g>
</g>
<!-- dir_26637d1bd82229bc9ed97f7e706be743 -->
<g id="node6" class="node">
<title>dir_26637d1bd82229bc9ed97f7e706be743</title>
<g id="a_node6"><a xlink:href="dir_26637d1bd82229bc9ed97f7e706be743.html" target="_top" xlink:title="Raw">
<polygon fill="none" stroke="#ff0000" points="149,-324 95,-324 95,-288 149,-288 149,-324"/>
<text text-anchor="middle" x="122" y="-303.5" font-family="Helvetica,sans-Serif" font-size="10.00" fill="#000000">Raw</text>
</a>
</g>
</g>
<!-- dir_1b6b29fc497b523a5fbcdcf4771534fb&#45;&gt;dir_26637d1bd82229bc9ed97f7e706be743 -->
<g id="edge5" class="edge">
<title>dir_1b6b29fc497b523a5fbcdcf4771534fb&#45;&gt;dir_26637d1bd82229bc9ed97f7e706be743</title>
<path fill="none" stroke="#000000" d="M143.6821,-359.8314C140.5124,-351.9617 136.73,-342.5712 133.2187,-333.8533"/>
<polygon fill="#000000" stroke="#000000" points="136.3992,-332.3815 129.4165,-324.4133 129.9061,-334.9968 136.3992,-332.3815"/>
<g id="a_edge5&#45;headlabel"><a xlink:href="dir_000455_000576.html" target="_top" xlink:title="1">
<text text-anchor="middle" x="140.3758" y="-332.155" font-family="Helvetica,sans-Serif" font-size="10.00" fill="#000000">1</text>
</a>
</g>
</g>
<!-- dir_2171f7ec022c5423887b07c69b2f5b48 -->
<g id="node7" class="node">
<title>dir_2171f7ec022c5423887b07c69b2f5b48</title>
<g id="a_node7"><a xlink:href="dir_2171f7ec022c5423887b07c69b2f5b48.html" target="_top" xlink:title="DataFormats">
<polygon fill="none" stroke="#ff0000" points="160,-108 80,-108 80,-72 160,-72 160,-108"/>
<text text-anchor="middle" x="120" y="-87.5" font-family="Helvetica,sans-Serif" font-size="10.00" fill="#000000">DataFormats</text>
</a>
</g>
</g>
<!-- dir_1b6b29fc497b523a5fbcdcf4771534fb&#45;&gt;dir_2171f7ec022c5423887b07c69b2f5b48 -->
<g id="edge6" class="edge">
<title>dir_1b6b29fc497b523a5fbcdcf4771534fb&#45;&gt;dir_2171f7ec022c5423887b07c69b2f5b48</title>
<path fill="none" stroke="#000000" d="M178.2519,-374.2084C206.6771,-368.6416 249.8466,-355.2765 270,-324 278.6664,-310.5504 273.3667,-303.6418 270,-288 255.2248,-219.3541 251.0053,-197.0479 205,-144 194.5701,-131.9735 180.8063,-121.6707 167.3998,-113.3868"/>
<polygon fill="#000000" stroke="#000000" points="169.0703,-110.3086 158.6799,-108.2369 165.5105,-116.3359 169.0703,-110.3086"/>
<g id="a_edge6&#45;headlabel"><a xlink:href="dir_000455_000076.html" target="_top" xlink:title="10">
<text text-anchor="middle" x="173.6092" y="-107.1918" font-family="Helvetica,sans-Serif" font-size="10.00" fill="#000000">10</text>
</a>
</g>
</g>
<!-- dir_4ab6b4cc6a7edbff49100e9123df213f&#45;&gt;dir_bcbb2cf9a3d3d83e5515c82071a07177 -->
<g id="edge7" class="edge">
<title>dir_4ab6b4cc6a7edbff49100e9123df213f&#45;&gt;dir_bcbb2cf9a3d3d83e5515c82071a07177</title>
<path fill="none" stroke="#000000" d="M69.9358,-215.8314C76.0453,-207.3694 84.2352,-197.1489 92.2708,-187.8971"/>
<polygon fill="#000000" stroke="#000000" points="94.8987,-190.209 98.9353,-180.4133 89.671,-185.5536 94.8987,-190.209"/>
<g id="a_edge7&#45;headlabel"><a xlink:href="dir_000027_000013.html" target="_top" xlink:title="2">
<text text-anchor="middle" x="94.6285" y="-192.2817" font-family="Helvetica,sans-Serif" font-size="10.00" fill="#000000">2</text>
</a>
</g>
</g>
<!-- dir_4ab6b4cc6a7edbff49100e9123df213f&#45;&gt;dir_2171f7ec022c5423887b07c69b2f5b48 -->
<g id="edge8" class="edge">
<title>dir_4ab6b4cc6a7edbff49100e9123df213f&#45;&gt;dir_2171f7ec022c5423887b07c69b2f5b48</title>
<path fill="none" stroke="#000000" d="M54.2894,-215.9498C52.645,-197.1832 55.4486,-167.343 66,-144 70.6181,-133.7833 77.7175,-123.9447 85.3383,-115.5287"/>
<polygon fill="#000000" stroke="#000000" points="87.9709,-117.8416 92.4274,-108.2296 82.9495,-112.9646 87.9709,-117.8416"/>
<g id="a_edge8&#45;headlabel"><a xlink:href="dir_000027_000076.html" target="_top" xlink:title="2">
<text text-anchor="middle" x="87.5033" y="-119.8984" font-family="Helvetica,sans-Serif" font-size="10.00" fill="#000000">2</text>
</a>
</g>
</g>
<!-- dir_ee46b747e1abe6c555594e61ae5c8c00&#45;&gt;dir_2171f7ec022c5423887b07c69b2f5b48 -->
<g id="edge9" class="edge">
<title>dir_ee46b747e1abe6c555594e61ae5c8c00&#45;&gt;dir_2171f7ec022c5423887b07c69b2f5b48</title>
<path fill="none" stroke="#000000" d="M231.2332,-287.6241C225.8094,-256.07 211.5434,-190.4985 181,-144 173.8312,-133.0864 163.8998,-123.0215 154.1306,-114.6125"/>
<polygon fill="#000000" stroke="#000000" points="156.332,-111.8913 146.3866,-108.239 151.8837,-117.2962 156.332,-111.8913"/>
<g id="a_edge9&#45;headlabel"><a xlink:href="dir_000453_000076.html" target="_top" xlink:title="12">
<text text-anchor="middle" x="160.9117" y="-109.4833" font-family="Helvetica,sans-Serif" font-size="10.00" fill="#000000">12</text>
</a>
</g>
</g>
<!-- dir_bcbb2cf9a3d3d83e5515c82071a07177&#45;&gt;dir_4ab6b4cc6a7edbff49100e9123df213f -->
<g id="edge10" class="edge">
<title>dir_bcbb2cf9a3d3d83e5515c82071a07177&#45;&gt;dir_4ab6b4cc6a7edbff49100e9123df213f</title>
<path fill="none" stroke="#000000" d="M110.8874,-180.4133C104.7996,-188.8239 96.6938,-198.9323 88.7384,-208.0923"/>
<polygon fill="#000000" stroke="#000000" points="85.8815,-206.0374 81.8406,-215.8314 91.1071,-210.695 85.8815,-206.0374"/>
<g id="a_edge10&#45;headlabel"><a xlink:href="dir_000013_000027.html" target="_top" xlink:title="8">
<text text-anchor="middle" x="86.1537" y="-198.9648" font-family="Helvetica,sans-Serif" font-size="10.00" fill="#000000">8</text>
</a>
</g>
</g>
<!-- dir_bcbb2cf9a3d3d83e5515c82071a07177&#45;&gt;dir_2171f7ec022c5423887b07c69b2f5b48 -->
<g id="edge11" class="edge">
<title>dir_bcbb2cf9a3d3d83e5515c82071a07177&#45;&gt;dir_2171f7ec022c5423887b07c69b2f5b48</title>
<path fill="none" stroke="#000000" d="M114.0476,-143.8314C113.2972,-136.131 113.0763,-126.9743 113.3849,-118.4166"/>
<polygon fill="#000000" stroke="#000000" points="116.8792,-118.6161 114.024,-108.4133 109.8935,-118.1697 116.8792,-118.6161"/>
<g id="a_edge11&#45;headlabel"><a xlink:href="dir_000013_000076.html" target="_top" xlink:title="82">
<text text-anchor="middle" x="119.4836" y="-119.8844" font-family="Helvetica,sans-Serif" font-size="10.00" fill="#000000">82</text>
</a>
</g>
</g>
<!-- dir_26637d1bd82229bc9ed97f7e706be743&#45;&gt;dir_4ab6b4cc6a7edbff49100e9123df213f -->
<g id="edge12" class="edge">
<title>dir_26637d1bd82229bc9ed97f7e706be743&#45;&gt;dir_4ab6b4cc6a7edbff49100e9123df213f</title>
<path fill="none" stroke="#000000" d="M106.6071,-287.8314C99.5096,-279.454 90.952,-269.3531 83.176,-260.1749"/>
<polygon fill="#000000" stroke="#000000" points="85.7348,-257.7807 76.6001,-252.4133 80.3939,-262.3056 85.7348,-257.7807"/>
<g id="a_edge12&#45;headlabel"><a xlink:href="dir_000576_000027.html" target="_top" xlink:title="10">
<text text-anchor="middle" x="90.2247" y="-256.1879" font-family="Helvetica,sans-Serif" font-size="10.00" fill="#000000">10</text>
</a>
</g>
</g>
<!-- dir_26637d1bd82229bc9ed97f7e706be743&#45;&gt;dir_bcbb2cf9a3d3d83e5515c82071a07177 -->
<g id="edge13" class="edge">
<title>dir_26637d1bd82229bc9ed97f7e706be743&#45;&gt;dir_bcbb2cf9a3d3d83e5515c82071a07177</title>
<path fill="none" stroke="#000000" d="M121.7467,-287.7623C121.4056,-263.201 120.7951,-219.2474 120.3938,-190.3541"/>
<polygon fill="#000000" stroke="#000000" points="123.8899,-190.04 120.2512,-180.0896 116.8906,-190.1373 123.8899,-190.04"/>
<g id="a_edge13&#45;headlabel"><a xlink:href="dir_000576_000013.html" target="_top" xlink:title="25">
<text text-anchor="middle" x="126.7787" y="-191.0949" font-family="Helvetica,sans-Serif" font-size="10.00" fill="#000000">25</text>
</a>
</g>
</g>
<!-- dir_26637d1bd82229bc9ed97f7e706be743&#45;&gt;dir_2171f7ec022c5423887b07c69b2f5b48 -->
<g id="edge14" class="edge">
<title>dir_26637d1bd82229bc9ed97f7e706be743&#45;&gt;dir_2171f7ec022c5423887b07c69b2f5b48</title>
<path fill="none" stroke="#000000" d="M133.7671,-287.7071C151.7361,-257.3627 182.1168,-194.9148 164,-144 160.4122,-133.9169 154.0465,-124.3517 147.2524,-116.1515"/>
<polygon fill="#000000" stroke="#000000" points="149.6596,-113.591 140.4026,-108.4375 144.4253,-118.2389 149.6596,-113.591"/>
<g id="a_edge14&#45;headlabel"><a xlink:href="dir_000576_000076.html" target="_top" xlink:title="15">
<text text-anchor="middle" x="154.1694" y="-111.8936" font-family="Helvetica,sans-Serif" font-size="10.00" fill="#000000">15</text>
</a>
</g>
</g>
<!-- dir_2171f7ec022c5423887b07c69b2f5b48&#45;&gt;dir_4ab6b4cc6a7edbff49100e9123df213f -->
<g id="edge15" class="edge">
<title>dir_2171f7ec022c5423887b07c69b2f5b48&#45;&gt;dir_4ab6b4cc6a7edbff49100e9123df213f</title>
<path fill="none" stroke="#000000" d="M108.5734,-108.2296C100.2965,-117.9565 90.0318,-130.6557 84,-144 75.1797,-163.5133 71.7735,-187.5667 69.1893,-205.8965"/>
<polygon fill="#000000" stroke="#000000" points="65.7029,-205.5503 67.728,-215.9498 72.6301,-206.5572 65.7029,-205.5503"/>
<g id="a_edge15&#45;headlabel"><a xlink:href="dir_000076_000027.html" target="_top" xlink:title="35">
<text text-anchor="middle" x="63.4101" y="-199.0847" font-family="Helvetica,sans-Serif" font-size="10.00" fill="#000000">35</text>
</a>
</g>
</g>
<!-- dir_2171f7ec022c5423887b07c69b2f5b48&#45;&gt;dir_63da1bf9cbb165deb85abc813a5acde9 -->
<g id="edge16" class="edge">
<title>dir_2171f7ec022c5423887b07c69b2f5b48&#45;&gt;dir_63da1bf9cbb165deb85abc813a5acde9</title>
<path fill="none" stroke="#000000" d="M104.8595,-71.8314C97.8783,-63.454 89.4609,-53.3531 81.8124,-44.1749"/>
<polygon fill="#000000" stroke="#000000" points="84.4351,-41.8548 75.3444,-36.4133 79.0575,-46.3362 84.4351,-41.8548"/>
<g id="a_edge16&#45;headlabel"><a xlink:href="dir_000076_000335.html" target="_top" xlink:title="1">
<text text-anchor="middle" x="88.9174" y="-40.2986" font-family="Helvetica,sans-Serif" font-size="10.00" fill="#000000">1</text>
</a>
</g>
</g>
<!-- dir_2171f7ec022c5423887b07c69b2f5b48&#45;&gt;dir_bcbb2cf9a3d3d83e5515c82071a07177 -->
<g id="edge17" class="edge">
<title>dir_2171f7ec022c5423887b07c69b2f5b48&#45;&gt;dir_bcbb2cf9a3d3d83e5515c82071a07177</title>
<path fill="none" stroke="#000000" d="M125.976,-108.4133C126.7071,-116.0593 126.9203,-125.1084 126.6155,-133.5726"/>
<polygon fill="#000000" stroke="#000000" points="123.1048,-133.6264 125.9524,-143.8314 130.0902,-134.078 123.1048,-133.6264"/>
<g id="a_edge17&#45;headlabel"><a xlink:href="dir_000076_000013.html" target="_top" xlink:title="11">
<text text-anchor="middle" x="120.5032" y="-127.3562" font-family="Helvetica,sans-Serif" font-size="10.00" fill="#000000">11</text>
</a>
</g>
</g>
</g>
</svg>
