<?xml version="1.0" encoding="UTF-8" standalone="no"?>
<!DOCTYPE svg PUBLIC "-//W3C//DTD SVG 1.1//EN"
 "http://www.w3.org/Graphics/SVG/1.1/DTD/svg11.dtd">
<!-- Generated by graphviz version 2.40.1 (20161225.0304)
 -->
<!-- Title: Graphical Class Hierarchy Pages: 1 -->
<svg width="698pt" height="1258pt"
 viewBox="0.00 0.00 698.00 1257.50" xmlns="http://www.w3.org/2000/svg" xmlns:xlink="http://www.w3.org/1999/xlink">
<g id="graph0" class="graph" transform="scale(1 1) rotate(0) translate(4 1253.5)">
<title>Graphical Class Hierarchy</title>
<!-- Node1606 -->
<g id="node1" class="node">
<title>Node1606</title>
<polygon fill="none" stroke="#bfbfbf" points="0,-547 0,-566 68,-566 68,-547 0,-547"/>
<text text-anchor="middle" x="34" y="-554" font-family="Helvetica,sans-Serif" font-size="10.00" fill="#000000">false_type</text>
</g>
<!-- Node0 -->
<g id="node2" class="node">
<title>Node0</title>
<g id="a_node2"><a xlink:href="d3/de1/structo2_1_1framework_1_1has__root__dictionary.html" target="_top" xlink:title="o2::framework::has\l_root_dictionary\&lt; T\l::value_type \&gt;">
<polygon fill="none" stroke="#000000" points="146.5,-1179 146.5,-1220 259.5,-1220 259.5,-1179 146.5,-1179"/>
<text text-anchor="start" x="154.5" y="-1208" font-family="Helvetica,sans-Serif" font-size="10.00" fill="#000000">o2::framework::has</text>
<text text-anchor="start" x="154.5" y="-1197" font-family="Helvetica,sans-Serif" font-size="10.00" fill="#000000">_root_dictionary&lt; T</text>
<text text-anchor="middle" x="203" y="-1186" font-family="Helvetica,sans-Serif" font-size="10.00" fill="#000000">::value_type &gt;</text>
</a>
</g>
</g>
<!-- Node1606&#45;&gt;Node0 -->
<g id="edge1" class="edge">
<title>Node1606&#45;&gt;Node0</title>
<path fill="none" stroke="#191970" d="M34.2077,-576.6147C35.4747,-667.342 44.2821,-1038.2182 104,-1134.5 115.9212,-1153.7203 135.8761,-1168.4242 154.7598,-1178.9443"/>
<polygon fill="#191970" stroke="#191970" points="37.7042,-576.3016 34.081,-566.3457 30.7048,-576.3881 37.7042,-576.3016"/>
</g>
<!-- Node1609 -->
<g id="node4" class="node">
<title>Node1609</title>
<g id="a_node4"><a xlink:href="d5/dbf/structo2_1_1framework_1_1is__boost__serializable__base.html" target="_top" xlink:title="o2::framework::is_boost\l_serializable_base\&lt; Type,\l Archive \&gt;">
<polygon fill="none" stroke="#000000" points="131.5,-1084 131.5,-1125 274.5,-1125 274.5,-1084 131.5,-1084"/>
<text text-anchor="start" x="139.5" y="-1113" font-family="Helvetica,sans-Serif" font-size="10.00" fill="#000000">o2::framework::is_boost</text>
<text text-anchor="start" x="139.5" y="-1102" font-family="Helvetica,sans-Serif" font-size="10.00" fill="#000000">_serializable_base&lt; Type,</text>
<text text-anchor="middle" x="203" y="-1091" font-family="Helvetica,sans-Serif" font-size="10.00" fill="#000000"> Archive &gt;</text>
</a>
</g>
</g>
<!-- Node1606&#45;&gt;Node1609 -->
<g id="edge3" class="edge">
<title>Node1606&#45;&gt;Node1609</title>
<path fill="none" stroke="#191970" d="M35.4382,-576.4097C42.1235,-666.6624 71.2278,-1034.6669 104,-1073.5 111.2018,-1082.0337 120.7221,-1088.2522 131.0153,-1092.7763"/>
<polygon fill="#191970" stroke="#191970" points="38.9263,-576.1186 34.7049,-566.4011 31.9451,-576.6302 38.9263,-576.1186"/>
</g>
<!-- Node1613 -->
<g id="node8" class="node">
<title>Node1613</title>
<g id="a_node8"><a xlink:href="d5/dbf/structo2_1_1framework_1_1is__boost__serializable__base.html" target="_top" xlink:title="o2::framework::is_boost\l_serializable_base\&lt; Type,\l boost::archive::binary\l_oarchive \&gt;">
<polygon fill="none" stroke="#000000" points="131.5,-1012.5 131.5,-1064.5 274.5,-1064.5 274.5,-1012.5 131.5,-1012.5"/>
<text text-anchor="start" x="139.5" y="-1052.5" font-family="Helvetica,sans-Serif" font-size="10.00" fill="#000000">o2::framework::is_boost</text>
<text text-anchor="start" x="139.5" y="-1041.5" font-family="Helvetica,sans-Serif" font-size="10.00" fill="#000000">_serializable_base&lt; Type,</text>
<text text-anchor="start" x="139.5" y="-1030.5" font-family="Helvetica,sans-Serif" font-size="10.00" fill="#000000"> boost::archive::binary</text>
<text text-anchor="middle" x="203" y="-1019.5" font-family="Helvetica,sans-Serif" font-size="10.00" fill="#000000">_oarchive &gt;</text>
</a>
</g>
</g>
<!-- Node1606&#45;&gt;Node1613 -->
<g id="edge7" class="edge">
<title>Node1606&#45;&gt;Node1613</title>
<path fill="none" stroke="#191970" d="M34.5059,-576.3224C36.8678,-653.896 49.1475,-935.8837 104,-1002.5 111.2076,-1011.2534 120.7309,-1017.8784 131.0254,-1022.8926"/>
<polygon fill="#191970" stroke="#191970" points="37.9967,-575.9459 34.2161,-566.0486 30.9995,-576.1433 37.9967,-575.9459"/>
</g>
<!-- Node1616 -->
<g id="node11" class="node">
<title>Node1616</title>
<g id="a_node11"><a xlink:href="d4/df6/structnlohmann_1_1detail_1_1is__basic__json.html" target="_top" xlink:title="nlohmann::detail::is\l_basic_json\&lt; typename \&gt;">
<polygon fill="none" stroke="#000000" points="130.5,-963.5 130.5,-993.5 275.5,-993.5 275.5,-963.5 130.5,-963.5"/>
<text text-anchor="start" x="138.5" y="-981.5" font-family="Helvetica,sans-Serif" font-size="10.00" fill="#000000">nlohmann::detail::is</text>
<text text-anchor="middle" x="203" y="-970.5" font-family="Helvetica,sans-Serif" font-size="10.00" fill="#000000">_basic_json&lt; typename &gt;</text>
</a>
</g>
</g>
<!-- Node1606&#45;&gt;Node1616 -->
<g id="edge10" class="edge">
<title>Node1606&#45;&gt;Node1616</title>
<path fill="none" stroke="#191970" d="M34.7222,-576.1334C37.7767,-648.2946 51.9811,-897.5478 104,-953.5 111.1215,-961.1599 120.2188,-966.617 130.0031,-970.4797"/>
<polygon fill="#191970" stroke="#191970" points="38.219,-575.9819 34.3236,-566.1292 31.2246,-576.2607 38.219,-575.9819"/>
</g>
<!-- Node1617 -->
<g id="node12" class="node">
<title>Node1617</title>
<g id="a_node12"><a xlink:href="dd/d13/structnlohmann_1_1detail_1_1is__compatible__integer__type__impl.html" target="_top" xlink:title="nlohmann::detail::is\l_compatible_integer_type\l_impl\&lt; bool, typename, typename \&gt;">
<polygon fill="none" stroke="#000000" points="104,-903 104,-944 302,-944 302,-903 104,-903"/>
<text text-anchor="start" x="112" y="-932" font-family="Helvetica,sans-Serif" font-size="10.00" fill="#000000">nlohmann::detail::is</text>
<text text-anchor="start" x="112" y="-921" font-family="Helvetica,sans-Serif" font-size="10.00" fill="#000000">_compatible_integer_type</text>
<text text-anchor="middle" x="203" y="-910" font-family="Helvetica,sans-Serif" font-size="10.00" fill="#000000">_impl&lt; bool, typename, typename &gt;</text>
</a>
</g>
</g>
<!-- Node1606&#45;&gt;Node1617 -->
<g id="edge11" class="edge">
<title>Node1606&#45;&gt;Node1617</title>
<path fill="none" stroke="#191970" d="M35.53,-576.2904C40.9191,-641.039 61.058,-845.1261 104,-892.5 107.5078,-896.3698 111.4913,-899.7607 115.7977,-902.7315"/>
<polygon fill="#191970" stroke="#191970" points="39.0088,-575.8853 34.717,-566.1987 32.0314,-576.4474 39.0088,-575.8853"/>
</g>
<!-- Node1618 -->
<g id="node13" class="node">
<title>Node1618</title>
<g id="a_node13"><a xlink:href="dc/da5/structnlohmann_1_1detail_1_1is__compatible__object__type__impl.html" target="_top" xlink:title="nlohmann::detail::is\l_compatible_object_type\l_impl\&lt; B, RealType, Compatible\lObjectType \&gt;">
<polygon fill="none" stroke="#000000" points="116.5,-831.5 116.5,-883.5 289.5,-883.5 289.5,-831.5 116.5,-831.5"/>
<text text-anchor="start" x="124.5" y="-871.5" font-family="Helvetica,sans-Serif" font-size="10.00" fill="#000000">nlohmann::detail::is</text>
<text text-anchor="start" x="124.5" y="-860.5" font-family="Helvetica,sans-Serif" font-size="10.00" fill="#000000">_compatible_object_type</text>
<text text-anchor="start" x="124.5" y="-849.5" font-family="Helvetica,sans-Serif" font-size="10.00" fill="#000000">_impl&lt; B, RealType, Compatible</text>
<text text-anchor="middle" x="203" y="-838.5" font-family="Helvetica,sans-Serif" font-size="10.00" fill="#000000">ObjectType &gt;</text>
</a>
</g>
</g>
<!-- Node1606&#45;&gt;Node1618 -->
<g id="edge12" class="edge">
<title>Node1606&#45;&gt;Node1618</title>
<path fill="none" stroke="#191970" d="M36.8063,-576.2055C44.9996,-631.207 70.445,-784.7614 104,-821.5 107.7001,-825.5512 111.8925,-829.1472 116.4111,-832.3392"/>
<polygon fill="#191970" stroke="#191970" points="40.2305,-575.4318 35.323,-566.0421 33.3039,-576.4427 40.2305,-575.4318"/>
</g>
<!-- Node1619 -->
<g id="node14" class="node">
<title>Node1619</title>
<g id="a_node14"><a xlink:href="d2/db3/structnlohmann_1_1detail_1_1is__complete__type.html" target="_top" xlink:title="nlohmann::detail::is\l_complete_type\&lt; T, typename \&gt;">
<polygon fill="none" stroke="#000000" points="113.5,-782.5 113.5,-812.5 292.5,-812.5 292.5,-782.5 113.5,-782.5"/>
<text text-anchor="start" x="121.5" y="-800.5" font-family="Helvetica,sans-Serif" font-size="10.00" fill="#000000">nlohmann::detail::is</text>
<text text-anchor="middle" x="203" y="-789.5" font-family="Helvetica,sans-Serif" font-size="10.00" fill="#000000">_complete_type&lt; T, typename &gt;</text>
</a>
</g>
</g>
<!-- Node1606&#45;&gt;Node1619 -->
<g id="edge13" class="edge">
<title>Node1606&#45;&gt;Node1619</title>
<path fill="none" stroke="#191970" d="M37.8384,-576.1197C47.5882,-624.0154 74.6258,-745.0043 104,-772.5 108.1414,-776.3766 112.7943,-779.6746 117.7662,-782.4782"/>
<polygon fill="#191970" stroke="#191970" points="41.227,-575.2155 35.8345,-566.0956 34.3628,-576.5877 41.227,-575.2155"/>
</g>
<!-- Node1620 -->
<g id="node15" class="node">
<title>Node1620</title>
<g id="a_node15"><a xlink:href="da/d82/structo2_1_1framework_1_1always__static__assert.html" target="_top" xlink:title="o2::framework::always\l_static_assert\&lt; T \&gt;">
<polygon fill="none" stroke="#000000" points="139,-733.5 139,-763.5 267,-763.5 267,-733.5 139,-733.5"/>
<text text-anchor="start" x="147" y="-751.5" font-family="Helvetica,sans-Serif" font-size="10.00" fill="#000000">o2::framework::always</text>
<text text-anchor="middle" x="203" y="-740.5" font-family="Helvetica,sans-Serif" font-size="10.00" fill="#000000">_static_assert&lt; T &gt;</text>
</a>
</g>
</g>
<!-- Node1606&#45;&gt;Node1620 -->
<g id="edge14" class="edge">
<title>Node1606&#45;&gt;Node1620</title>
<path fill="none" stroke="#191970" d="M36.497,-576.0893C42.0281,-611.1156 58.6328,-684.4569 104,-723.5 113.8757,-731.9991 126.2414,-737.6786 138.8531,-741.4571"/>
<polygon fill="#191970" stroke="#191970" points="39.9563,-575.5551 35.0679,-566.1554 33.0276,-576.552 39.9563,-575.5551"/>
</g>
<!-- Node1621 -->
<g id="node16" class="node">
<title>Node1621</title>
<g id="a_node16"><a xlink:href="dc/da1/structo2_1_1framework_1_1can__assign.html" target="_top" xlink:title="o2::framework::can\l_assign\&lt; From, To, _ \&gt;">
<polygon fill="none" stroke="#000000" points="139,-684.5 139,-714.5 267,-714.5 267,-684.5 139,-684.5"/>
<text text-anchor="start" x="147" y="-702.5" font-family="Helvetica,sans-Serif" font-size="10.00" fill="#000000">o2::framework::can</text>
<text text-anchor="middle" x="203" y="-691.5" font-family="Helvetica,sans-Serif" font-size="10.00" fill="#000000">_assign&lt; From, To, _ &gt;</text>
</a>
</g>
</g>
<!-- Node1606&#45;&gt;Node1621 -->
<g id="edge15" class="edge">
<title>Node1606&#45;&gt;Node1621</title>
<path fill="none" stroke="#191970" d="M40.1467,-575.8286C49.562,-602.2379 70.1147,-649.1989 104,-674.5 114.2271,-682.1363 126.5325,-687.4547 138.9382,-691.155"/>
<polygon fill="#191970" stroke="#191970" points="43.4064,-574.5423 36.8836,-566.1935 36.7763,-576.7878 43.4064,-574.5423"/>
</g>
<!-- Node1622 -->
<g id="node17" class="node">
<title>Node1622</title>
<g id="a_node17"><a xlink:href="da/d77/structo2_1_1framework_1_1detail_1_1is__noarg__callable__t.html" target="_top" xlink:title="o2::framework::detail\l::is_noarg_callable_t\l\&lt; T, typename \&gt;">
<polygon fill="none" stroke="#000000" points="142,-624 142,-665 264,-665 264,-624 142,-624"/>
<text text-anchor="start" x="150" y="-653" font-family="Helvetica,sans-Serif" font-size="10.00" fill="#000000">o2::framework::detail</text>
<text text-anchor="start" x="150" y="-642" font-family="Helvetica,sans-Serif" font-size="10.00" fill="#000000">::is_noarg_callable_t</text>
<text text-anchor="middle" x="203" y="-631" font-family="Helvetica,sans-Serif" font-size="10.00" fill="#000000">&lt; T, typename &gt;</text>
</a>
</g>
</g>
<!-- Node1606&#45;&gt;Node1622 -->
<g id="edge16" class="edge">
<title>Node1606&#45;&gt;Node1622</title>
<path fill="none" stroke="#191970" d="M50.4919,-573.4481C63.8571,-586.3214 83.7373,-603.6119 104,-614.5 115.7068,-620.7906 128.9178,-625.9512 141.7851,-630.1094"/>
<polygon fill="#191970" stroke="#191970" points="52.6368,-570.6466 43.0669,-566.1002 47.7129,-575.6221 52.6368,-570.6466"/>
</g>
<!-- Node1623 -->
<g id="node18" class="node">
<title>Node1623</title>
<g id="a_node18"><a xlink:href="d7/df3/structo2_1_1framework_1_1has__messageable__value__type.html" target="_top" xlink:title="o2::framework::has\l_messageable_value_type\l\&lt; T, _ \&gt;">
<polygon fill="none" stroke="#000000" points="130,-564 130,-605 276,-605 276,-564 130,-564"/>
<text text-anchor="start" x="138" y="-593" font-family="Helvetica,sans-Serif" font-size="10.00" fill="#000000">o2::framework::has</text>
<text text-anchor="start" x="138" y="-582" font-family="Helvetica,sans-Serif" font-size="10.00" fill="#000000">_messageable_value_type</text>
<text text-anchor="middle" x="203" y="-571" font-family="Helvetica,sans-Serif" font-size="10.00" fill="#000000">&lt; T, _ &gt;</text>
</a>
</g>
</g>
<!-- Node1606&#45;&gt;Node1623 -->
<g id="edge17" class="edge">
<title>Node1606&#45;&gt;Node1623</title>
<path fill="none" stroke="#191970" d="M78.1844,-563.8205C93.965,-566.435 112.1957,-569.4555 129.765,-572.3664"/>
<polygon fill="#191970" stroke="#191970" points="78.6373,-560.3479 68.1997,-562.1662 77.4931,-567.2538 78.6373,-560.3479"/>
</g>
<!-- Node1624 -->
<g id="node19" class="node">
<title>Node1624</title>
<g id="a_node19"><a xlink:href="d3/de1/structo2_1_1framework_1_1has__root__dictionary.html" target="_top" xlink:title="o2::framework::has\l_root_dictionary\&lt; T, _ \&gt;">
<polygon fill="none" stroke="#000000" points="135.5,-514.5 135.5,-544.5 270.5,-544.5 270.5,-514.5 135.5,-514.5"/>
<text text-anchor="start" x="143.5" y="-532.5" font-family="Helvetica,sans-Serif" font-size="10.00" fill="#000000">o2::framework::has</text>
<text text-anchor="middle" x="203" y="-521.5" font-family="Helvetica,sans-Serif" font-size="10.00" fill="#000000">_root_dictionary&lt; T, _ &gt;</text>
</a>
</g>
</g>
<!-- Node1606&#45;&gt;Node1624 -->
<g id="edge18" class="edge">
<title>Node1606&#45;&gt;Node1624</title>
<path fill="none" stroke="#191970" d="M78.106,-549.4535C95.5765,-546.6623 116.0595,-543.3899 135.3262,-540.3118"/>
<polygon fill="#191970" stroke="#191970" points="77.5222,-546.0023 68.1997,-551.0361 78.6266,-552.9146 77.5222,-546.0023"/>
</g>
<!-- Node1625 -->
<g id="node20" class="node">
<title>Node1625</title>
<g id="a_node20"><a xlink:href="d5/df9/structo2_1_1framework_1_1has__root__setowner.html" target="_top" xlink:title="o2::framework::has\l_root_setowner\&lt; T, _ \&gt;">
<polygon fill="none" stroke="#000000" points="137.5,-465.5 137.5,-495.5 268.5,-495.5 268.5,-465.5 137.5,-465.5"/>
<text text-anchor="start" x="145.5" y="-483.5" font-family="Helvetica,sans-Serif" font-size="10.00" fill="#000000">o2::framework::has</text>
<text text-anchor="middle" x="203" y="-472.5" font-family="Helvetica,sans-Serif" font-size="10.00" fill="#000000">_root_setowner&lt; T, _ &gt;</text>
</a>
</g>
</g>
<!-- Node1606&#45;&gt;Node1625 -->
<g id="edge19" class="edge">
<title>Node1606&#45;&gt;Node1625</title>
<path fill="none" stroke="#191970" d="M51.577,-540.2838C65.0072,-528.7187 84.4753,-513.6531 104,-504.5 114.4085,-499.6205 125.9138,-495.6717 137.2879,-492.4954"/>
<polygon fill="#191970" stroke="#191970" points="49.2164,-537.6992 44.0486,-546.9482 53.8563,-542.9406 49.2164,-537.6992"/>
</g>
<!-- Node1626 -->
<g id="node21" class="node">
<title>Node1626</title>
<g id="a_node21"><a xlink:href="d5/dbf/structo2_1_1framework_1_1is__boost__serializable__base.html" target="_top" xlink:title="o2::framework::is_boost\l_serializable_base\&lt; Type,\l Archive, typename \&gt;">
<polygon fill="none" stroke="#000000" points="131.5,-405 131.5,-446 274.5,-446 274.5,-405 131.5,-405"/>
<text text-anchor="start" x="139.5" y="-434" font-family="Helvetica,sans-Serif" font-size="10.00" fill="#000000">o2::framework::is_boost</text>
<text text-anchor="start" x="139.5" y="-423" font-family="Helvetica,sans-Serif" font-size="10.00" fill="#000000">_serializable_base&lt; Type,</text>
<text text-anchor="middle" x="203" y="-412" font-family="Helvetica,sans-Serif" font-size="10.00" fill="#000000"> Archive, typename &gt;</text>
</a>
</g>
</g>
<!-- Node1606&#45;&gt;Node1626 -->
<g id="edge20" class="edge">
<title>Node1606&#45;&gt;Node1626</title>
<path fill="none" stroke="#191970" d="M42.305,-537.5279C53.2254,-514.7545 74.5389,-476.9573 104,-455.5 112.2021,-449.5262 121.6061,-444.7279 131.2818,-440.8773"/>
<polygon fill="#191970" stroke="#191970" points="39.0292,-536.2742 38.027,-546.8215 45.3878,-539.2012 39.0292,-536.2742"/>
</g>
<!-- Node1627 -->
<g id="node22" class="node">
<title>Node1627</title>
<g id="a_node22"><a xlink:href="d5/dc1/structo2_1_1framework_1_1is__bounded__array.html" target="_top" xlink:title="o2::framework::is_bounded\l_array\&lt; T \&gt;">
<polygon fill="none" stroke="#000000" points="128.5,-355.5 128.5,-385.5 277.5,-385.5 277.5,-355.5 128.5,-355.5"/>
<text text-anchor="start" x="136.5" y="-373.5" font-family="Helvetica,sans-Serif" font-size="10.00" fill="#000000">o2::framework::is_bounded</text>
<text text-anchor="middle" x="203" y="-362.5" font-family="Helvetica,sans-Serif" font-size="10.00" fill="#000000">_array&lt; T &gt;</text>
</a>
</g>
</g>
<!-- Node1606&#45;&gt;Node1627 -->
<g id="edge21" class="edge">
<title>Node1606&#45;&gt;Node1627</title>
<path fill="none" stroke="#191970" d="M36.8829,-536.6728C42.9217,-502.5289 60.1665,-432.7221 104,-395.5 111.1616,-389.4186 119.6012,-384.7837 128.4826,-381.2571"/>
<polygon fill="#191970" stroke="#191970" points="33.3888,-536.3548 35.2424,-546.7862 40.2985,-537.4757 33.3888,-536.3548"/>
</g>
<!-- Node1628 -->
<g id="node23" class="node">
<title>Node1628</title>
<g id="a_node23"><a xlink:href="dc/d9b/structo2_1_1framework_1_1is__container.html" target="_top" xlink:title="o2::framework::is_container\l\&lt; T, _ \&gt;">
<polygon fill="none" stroke="#000000" points="126.5,-306.5 126.5,-336.5 279.5,-336.5 279.5,-306.5 126.5,-306.5"/>
<text text-anchor="start" x="134.5" y="-324.5" font-family="Helvetica,sans-Serif" font-size="10.00" fill="#000000">o2::framework::is_container</text>
<text text-anchor="middle" x="203" y="-313.5" font-family="Helvetica,sans-Serif" font-size="10.00" fill="#000000">&lt; T, _ &gt;</text>
</a>
</g>
</g>
<!-- Node1606&#45;&gt;Node1628 -->
<g id="edge22" class="edge">
<title>Node1606&#45;&gt;Node1628</title>
<path fill="none" stroke="#191970" d="M37.9543,-536.993C47.8716,-489.94 75.0857,-372.1223 104,-345.5 110.5052,-339.5104 118.2459,-334.945 126.4913,-331.4759"/>
<polygon fill="#191970" stroke="#191970" points="34.5112,-536.3597 35.9106,-546.8617 41.3658,-537.7793 34.5112,-536.3597"/>
</g>
<!-- Node1629 -->
<g id="node24" class="node">
<title>Node1629</title>
<g id="a_node24"><a xlink:href="da/dee/structo2_1_1framework_1_1is__forced__non__messageable.html" target="_top" xlink:title="o2::framework::is_forced\l_non_messageable\&lt; T, _ \&gt;">
<polygon fill="none" stroke="#000000" points="128,-257.5 128,-287.5 278,-287.5 278,-257.5 128,-257.5"/>
<text text-anchor="start" x="136" y="-275.5" font-family="Helvetica,sans-Serif" font-size="10.00" fill="#000000">o2::framework::is_forced</text>
<text text-anchor="middle" x="203" y="-264.5" font-family="Helvetica,sans-Serif" font-size="10.00" fill="#000000">_non_messageable&lt; T, _ &gt;</text>
</a>
</g>
</g>
<!-- Node1606&#45;&gt;Node1629 -->
<g id="edge23" class="edge">
<title>Node1606&#45;&gt;Node1629</title>
<path fill="none" stroke="#191970" d="M36.714,-536.607C44.582,-481.8219 69.0834,-330.549 104,-296.5 110.7107,-289.956 118.8861,-285.093 127.6321,-281.4953"/>
<polygon fill="#191970" stroke="#191970" points="33.2135,-536.3667 35.2898,-546.7561 40.1456,-537.3395 33.2135,-536.3667"/>
</g>
<!-- Node1630 -->
<g id="node25" class="node">
<title>Node1630</title>
<g id="a_node25"><a xlink:href="dd/dca/structo2_1_1framework_1_1is__messageable_3_01gsl_1_1span_3_01T_01_4_01_4.html" target="_top" xlink:title="o2::framework::is_messageable\l\&lt; gsl::span\&lt; T \&gt; \&gt;">
<polygon fill="none" stroke="#000000" points="116.5,-208.5 116.5,-238.5 289.5,-238.5 289.5,-208.5 116.5,-208.5"/>
<text text-anchor="start" x="124.5" y="-226.5" font-family="Helvetica,sans-Serif" font-size="10.00" fill="#000000">o2::framework::is_messageable</text>
<text text-anchor="middle" x="203" y="-215.5" font-family="Helvetica,sans-Serif" font-size="10.00" fill="#000000">&lt; gsl::span&lt; T &gt; &gt;</text>
</a>
</g>
</g>
<!-- Node1606&#45;&gt;Node1630 -->
<g id="edge24" class="edge">
<title>Node1606&#45;&gt;Node1630</title>
<path fill="none" stroke="#191970" d="M35.7998,-536.6219C41.7729,-475.0593 62.9317,-289.1915 104,-247.5 107.7233,-243.7202 111.9335,-240.4968 116.4653,-237.7511"/>
<polygon fill="#191970" stroke="#191970" points="32.2846,-536.6202 34.8329,-546.904 39.2539,-537.2756 32.2846,-536.6202"/>
</g>
<!-- Node1631 -->
<g id="node26" class="node">
<title>Node1631</title>
<g id="a_node26"><a xlink:href="d2/d79/structo2_1_1framework_1_1is__span.html" target="_top" xlink:title="o2::framework::is_span\l\&lt; T, _ \&gt;">
<polygon fill="none" stroke="#000000" points="137.5,-159.5 137.5,-189.5 268.5,-189.5 268.5,-159.5 137.5,-159.5"/>
<text text-anchor="start" x="145.5" y="-177.5" font-family="Helvetica,sans-Serif" font-size="10.00" fill="#000000">o2::framework::is_span</text>
<text text-anchor="middle" x="203" y="-166.5" font-family="Helvetica,sans-Serif" font-size="10.00" fill="#000000">&lt; T, _ &gt;</text>
</a>
</g>
</g>
<!-- Node1606&#45;&gt;Node1631 -->
<g id="edge25" class="edge">
<title>Node1606&#45;&gt;Node1631</title>
<path fill="none" stroke="#191970" d="M35.1305,-536.6349C39.3937,-468.8211 56.7297,-247.934 104,-198.5 112.9836,-189.1052 124.9694,-183.1267 137.4929,-179.3773"/>
<polygon fill="#191970" stroke="#191970" points="31.6257,-536.6123 34.5187,-546.8045 38.613,-537.0328 31.6257,-536.6123"/>
</g>
<!-- Node1632 -->
<g id="node27" class="node">
<title>Node1632</title>
<g id="a_node27"><a xlink:href="d8/d85/structo2_1_1framework_1_1is__specialization.html" target="_top" xlink:title="o2::framework::is_specialization\l\&lt; T, Ref \&gt;">
<polygon fill="none" stroke="#000000" points="115.5,-110.5 115.5,-140.5 290.5,-140.5 290.5,-110.5 115.5,-110.5"/>
<text text-anchor="start" x="123.5" y="-128.5" font-family="Helvetica,sans-Serif" font-size="10.00" fill="#000000">o2::framework::is_specialization</text>
<text text-anchor="middle" x="203" y="-117.5" font-family="Helvetica,sans-Serif" font-size="10.00" fill="#000000">&lt; T, Ref &gt;</text>
</a>
</g>
</g>
<!-- Node1606&#45;&gt;Node1632 -->
<g id="edge26" class="edge">
<title>Node1606&#45;&gt;Node1632</title>
<path fill="none" stroke="#191970" d="M34.6121,-536.8403C37.3005,-463.4516 50.4416,-206.8021 104,-149.5 107.3813,-145.8823 111.2074,-142.7689 115.3403,-140.0927"/>
<polygon fill="#191970" stroke="#191970" points="31.109,-536.873 34.2657,-546.9866 38.1049,-537.1119 31.109,-536.873"/>
</g>
<!-- Node1633 -->
<g id="node28" class="node">
<title>Node1633</title>
<g id="a_node28"><a xlink:href="d3/dd8/structo2_1_1framework_1_1MakeRootTreeWriterSpec_1_1StringAssignable.html" target="_top" xlink:title="helper for the constructor selection below ">
<polygon fill="none" stroke="#000000" points="122,-50 122,-91 284,-91 284,-50 122,-50"/>
<text text-anchor="start" x="130" y="-79" font-family="Helvetica,sans-Serif" font-size="10.00" fill="#000000">o2::framework::MakeRootTree</text>
<text text-anchor="start" x="130" y="-68" font-family="Helvetica,sans-Serif" font-size="10.00" fill="#000000">WriterSpec::StringAssignable</text>
<text text-anchor="middle" x="203" y="-57" font-family="Helvetica,sans-Serif" font-size="10.00" fill="#000000">&lt; T, _ &gt;</text>
</a>
</g>
</g>
<!-- Node1606&#45;&gt;Node1633 -->
<g id="edge27" class="edge">
<title>Node1606&#45;&gt;Node1633</title>
<path fill="none" stroke="#191970" d="M34.3238,-536.6336C36.0083,-457.6923 46.1049,-167.2548 104,-100.5 109.0597,-94.666 115.2129,-89.9454 121.9493,-86.1288"/>
<polygon fill="#191970" stroke="#191970" points="30.8234,-536.6292 34.1317,-546.6942 37.8221,-536.7629 30.8234,-536.6292"/>
</g>
<!-- Node1634 -->
<g id="node29" class="node">
<title>Node1634</title>
<g id="a_node29"><a xlink:href="d9/d11/structo2_1_1soa_1_1is__index.html" target="_top" xlink:title="o2::soa::is_index\&lt;\l T, Ref \&gt;">
<polygon fill="none" stroke="#000000" points="149.5,-.5 149.5,-30.5 256.5,-30.5 256.5,-.5 149.5,-.5"/>
<text text-anchor="start" x="157.5" y="-18.5" font-family="Helvetica,sans-Serif" font-size="10.00" fill="#000000">o2::soa::is_index&lt;</text>
<text text-anchor="middle" x="203" y="-7.5" font-family="Helvetica,sans-Serif" font-size="10.00" fill="#000000"> T, Ref &gt;</text>
</a>
</g>
</g>
<!-- Node1606&#45;&gt;Node1634 -->
<g id="edge28" class="edge">
<title>Node1606&#45;&gt;Node1634</title>
<path fill="none" stroke="#191970" d="M35.3917,-536.5861C41.8725,-446.3196 70.2108,-78.3222 104,-40.5 115.515,-27.6106 132.6191,-20.9129 149.3848,-17.5603"/>
<polygon fill="#191970" stroke="#191970" points="31.8981,-536.3737 34.6814,-546.5964 38.8805,-536.8693 31.8981,-536.3737"/>
</g>
<!-- Node1 -->
<g id="node3" class="node">
<title>Node1</title>
<g id="a_node3"><a xlink:href="d5/d6d/classo2_1_1framework_1_1has__root__dictionary_3_01T_00_01typename_01std_1_1enable__if_3_01is__co3a14f09bcf42c805e484bfdd1c1dadfb.html" target="_top" xlink:title="o2::framework::has\l_root_dictionary\&lt; T,\l typename std::enable\l_if\&lt; is_container\&lt; T \&gt;\l::value \&gt;::type \&gt;">
<polygon fill="none" stroke="#000000" points="353,-1186 353,-1249 481,-1249 481,-1186 353,-1186"/>
<text text-anchor="start" x="361" y="-1237" font-family="Helvetica,sans-Serif" font-size="10.00" fill="#000000">o2::framework::has</text>
<text text-anchor="start" x="361" y="-1226" font-family="Helvetica,sans-Serif" font-size="10.00" fill="#000000">_root_dictionary&lt; T,</text>
<text text-anchor="start" x="361" y="-1215" font-family="Helvetica,sans-Serif" font-size="10.00" fill="#000000"> typename std::enable</text>
<text text-anchor="start" x="361" y="-1204" font-family="Helvetica,sans-Serif" font-size="10.00" fill="#000000">_if&lt; is_container&lt; T &gt;</text>
<text text-anchor="middle" x="417" y="-1193" font-family="Helvetica,sans-Serif" font-size="10.00" fill="#000000">::value &gt;::type &gt;</text>
</a>
</g>
</g>
<!-- Node0&#45;&gt;Node1 -->
<g id="edge2" class="edge">
<title>Node0&#45;&gt;Node1</title>
<path fill="none" stroke="#191970" d="M269.495,-1205.093C296.1034,-1207.3311 326.6323,-1209.899 352.9877,-1212.1158"/>
<polygon fill="#191970" stroke="#191970" points="269.7641,-1201.6034 259.5059,-1204.2528 269.1773,-1208.5788 269.7641,-1201.6034"/>
</g>
<!-- Node1610 -->
<g id="node5" class="node">
<title>Node1610</title>
<g id="a_node5"><a xlink:href="d2/d70/structo2_1_1framework_1_1is__boost__serializable.html" target="_top" xlink:title="o2::framework::is_boost\l_serializable\&lt; Type::value\l_type, Archive \&gt;">
<polygon fill="none" stroke="#000000" points="344.5,-1126 344.5,-1167 489.5,-1167 489.5,-1126 344.5,-1126"/>
<text text-anchor="start" x="352.5" y="-1155" font-family="Helvetica,sans-Serif" font-size="10.00" fill="#000000">o2::framework::is_boost</text>
<text text-anchor="start" x="352.5" y="-1144" font-family="Helvetica,sans-Serif" font-size="10.00" fill="#000000">_serializable&lt; Type::value</text>
<text text-anchor="middle" x="417" y="-1133" font-family="Helvetica,sans-Serif" font-size="10.00" fill="#000000">_type, Archive &gt;</text>
</a>
</g>
</g>
<!-- Node1609&#45;&gt;Node1610 -->
<g id="edge4" class="edge">
<title>Node1609&#45;&gt;Node1610</title>
<path fill="none" stroke="#191970" d="M284.4365,-1120.4829C304.1653,-1124.3549 325.1257,-1128.4686 344.4158,-1132.2545"/>
<polygon fill="#191970" stroke="#191970" points="285.0433,-1117.0353 274.5564,-1118.5438 283.6951,-1123.9042 285.0433,-1117.0353"/>
</g>
<!-- Node1612 -->
<g id="node7" class="node">
<title>Node1612</title>
<g id="a_node7"><a xlink:href="d2/d70/structo2_1_1framework_1_1is__boost__serializable.html" target="_top" xlink:title="o2::framework::is_boost\l_serializable\&lt; Type, Archive,\l typename \&gt;">
<polygon fill="none" stroke="#000000" points="338,-1066 338,-1107 496,-1107 496,-1066 338,-1066"/>
<text text-anchor="start" x="346" y="-1095" font-family="Helvetica,sans-Serif" font-size="10.00" fill="#000000">o2::framework::is_boost</text>
<text text-anchor="start" x="346" y="-1084" font-family="Helvetica,sans-Serif" font-size="10.00" fill="#000000">_serializable&lt; Type, Archive,</text>
<text text-anchor="middle" x="417" y="-1073" font-family="Helvetica,sans-Serif" font-size="10.00" fill="#000000"> typename &gt;</text>
</a>
</g>
</g>
<!-- Node1609&#45;&gt;Node1612 -->
<g id="edge6" class="edge">
<title>Node1609&#45;&gt;Node1612</title>
<path fill="none" stroke="#191970" d="M284.6834,-1097.6294C302.0951,-1096.1649 320.4556,-1094.6206 337.7734,-1093.1639"/>
<polygon fill="#191970" stroke="#191970" points="284.2278,-1094.1553 274.5564,-1098.4812 284.8146,-1101.1307 284.2278,-1094.1553"/>
</g>
<!-- Node1611 -->
<g id="node6" class="node">
<title>Node1611</title>
<g id="a_node6"><a xlink:href="d8/ddd/structo2_1_1framework_1_1is__boost__serializable_3_01Type_00_01Archive_00_01std_1_1void__t_3_01t52f9ef0f32611a33ca82db27a4fb33ed.html" target="_top" xlink:title="o2::framework::is_boost\l_serializable\&lt; Type, Archive,\l std::void_t\&lt; typename Type\l::value_type \&gt; \&gt;">
<polygon fill="none" stroke="#000000" points="532,-1120.5 532,-1172.5 690,-1172.5 690,-1120.5 532,-1120.5"/>
<text text-anchor="start" x="540" y="-1160.5" font-family="Helvetica,sans-Serif" font-size="10.00" fill="#000000">o2::framework::is_boost</text>
<text text-anchor="start" x="540" y="-1149.5" font-family="Helvetica,sans-Serif" font-size="10.00" fill="#000000">_serializable&lt; Type, Archive,</text>
<text text-anchor="start" x="540" y="-1138.5" font-family="Helvetica,sans-Serif" font-size="10.00" fill="#000000"> std::void_t&lt; typename Type</text>
<text text-anchor="middle" x="611" y="-1127.5" font-family="Helvetica,sans-Serif" font-size="10.00" fill="#000000">::value_type &gt; &gt;</text>
</a>
</g>
</g>
<!-- Node1610&#45;&gt;Node1611 -->
<g id="edge5" class="edge">
<title>Node1610&#45;&gt;Node1611</title>
<path fill="none" stroke="#191970" d="M499.6301,-1146.5C510.2743,-1146.5 521.1547,-1146.5 531.743,-1146.5"/>
<polygon fill="#191970" stroke="#191970" points="499.5144,-1143.0001 489.5143,-1146.5 499.5143,-1150.0001 499.5144,-1143.0001"/>
</g>
<!-- Node1614 -->
<g id="node9" class="node">
<title>Node1614</title>
<g id="a_node9"><a xlink:href="d2/d70/structo2_1_1framework_1_1is__boost__serializable.html" target="_top" xlink:title="o2::framework::is_boost\l_serializable\&lt; Type::value\l_type, boost::archive::binary\l_oarchive \&gt;">
<polygon fill="none" stroke="#000000" points="339.5,-994.5 339.5,-1046.5 494.5,-1046.5 494.5,-994.5 339.5,-994.5"/>
<text text-anchor="start" x="347.5" y="-1034.5" font-family="Helvetica,sans-Serif" font-size="10.00" fill="#000000">o2::framework::is_boost</text>
<text text-anchor="start" x="347.5" y="-1023.5" font-family="Helvetica,sans-Serif" font-size="10.00" fill="#000000">_serializable&lt; Type::value</text>
<text text-anchor="start" x="347.5" y="-1012.5" font-family="Helvetica,sans-Serif" font-size="10.00" fill="#000000">_type, boost::archive::binary</text>
<text text-anchor="middle" x="417" y="-1001.5" font-family="Helvetica,sans-Serif" font-size="10.00" fill="#000000">_oarchive &gt;</text>
</a>
</g>
</g>
<!-- Node1613&#45;&gt;Node1614 -->
<g id="edge8" class="edge">
<title>Node1613&#45;&gt;Node1614</title>
<path fill="none" stroke="#191970" d="M284.6791,-1031.6298C302.5909,-1030.1232 321.5071,-1028.5321 339.2594,-1027.0389"/>
<polygon fill="#191970" stroke="#191970" points="284.2278,-1028.1553 274.5564,-1032.4812 284.8146,-1035.1307 284.2278,-1028.1553"/>
</g>
<!-- Node1615 -->
<g id="node10" class="node">
<title>Node1615</title>
<g id="a_node10"><a xlink:href="da/d5c/structo2_1_1framework_1_1is__boost__serializable_3_01Type_00_01boost_1_1archive_1_1binary__oarchf8a18e484fa159a1d92458bf9fe69b23.html" target="_top" xlink:title="o2::framework::is_boost\l_serializable\&lt; Type, boost\l::archive::binary_oarchive,\l std::void_t\&lt; typename Type\l::value_type \&gt; \&gt;">
<polygon fill="none" stroke="#000000" points="532.5,-989 532.5,-1052 689.5,-1052 689.5,-989 532.5,-989"/>
<text text-anchor="start" x="540.5" y="-1040" font-family="Helvetica,sans-Serif" font-size="10.00" fill="#000000">o2::framework::is_boost</text>
<text text-anchor="start" x="540.5" y="-1029" font-family="Helvetica,sans-Serif" font-size="10.00" fill="#000000">_serializable&lt; Type, boost</text>
<text text-anchor="start" x="540.5" y="-1018" font-family="Helvetica,sans-Serif" font-size="10.00" fill="#000000">::archive::binary_oarchive,</text>
<text text-anchor="start" x="540.5" y="-1007" font-family="Helvetica,sans-Serif" font-size="10.00" fill="#000000"> std::void_t&lt; typename Type</text>
<text text-anchor="middle" x="611" y="-996" font-family="Helvetica,sans-Serif" font-size="10.00" fill="#000000">::value_type &gt; &gt;</text>
</a>
</g>
</g>
<!-- Node1614&#45;&gt;Node1615 -->
<g id="edge9" class="edge">
<title>Node1614&#45;&gt;Node1615</title>
<path fill="none" stroke="#191970" d="M504.5128,-1020.5C513.7879,-1020.5 523.1799,-1020.5 532.3451,-1020.5"/>
<polygon fill="#191970" stroke="#191970" points="504.5103,-1017.0001 494.5103,-1020.5 504.5103,-1024.0001 504.5103,-1017.0001"/>
</g>
</g>
</svg>
