<?xml version="1.0" encoding="UTF-8" standalone="no"?>
<!DOCTYPE svg PUBLIC "-//W3C//DTD SVG 1.1//EN"
 "http://www.w3.org/Graphics/SVG/1.1/DTD/svg11.dtd">
<!-- Generated by graphviz version 2.40.1 (20161225.0304)
 -->
<!-- Title: Graphical Class Hierarchy Pages: 1 -->
<svg width="522pt" height="598pt"
 viewBox="0.00 0.00 522.00 598.00" xmlns="http://www.w3.org/2000/svg" xmlns:xlink="http://www.w3.org/1999/xlink">
<g id="graph0" class="graph" transform="scale(1 1) rotate(0) translate(4 594)">
<title>Graphical Class Hierarchy</title>
<!-- Node0 -->
<g id="node1" class="node">
<title>Node0</title>
<g id="a_node1"><a xlink:href="d6/d0c/classFairDetector.html" target="_top" xlink:title="FairDetector">
<polygon fill="none" stroke="#000000" points="0,-242.5 0,-261.5 76,-261.5 76,-242.5 0,-242.5"/>
<text text-anchor="middle" x="38" y="-249.5" font-family="Helvetica,sans-Serif" font-size="10.00" fill="#000000">FairDetector</text>
</a>
</g>
</g>
<!-- Node1 -->
<g id="node2" class="node">
<title>Node1</title>
<g id="a_node2"><a xlink:href="d2/d00/classo2_1_1base_1_1Detector.html" target="_top" xlink:title="o2::base::Detector">
<polygon fill="none" stroke="#000000" points="112,-261.5 112,-280.5 218,-280.5 218,-261.5 112,-261.5"/>
<text text-anchor="middle" x="165" y="-268.5" font-family="Helvetica,sans-Serif" font-size="10.00" fill="#000000">o2::base::Detector</text>
</a>
</g>
</g>
<!-- Node0&#45;&gt;Node1 -->
<g id="edge1" class="edge">
<title>Node0&#45;&gt;Node1</title>
<path fill="none" stroke="#191970" d="M86.1378,-259.2017C94.5547,-260.4609 103.3546,-261.7775 111.8965,-263.0554"/>
<polygon fill="#191970" stroke="#191970" points="86.512,-255.7188 76.1042,-257.7006 85.4762,-262.6418 86.512,-255.7188"/>
</g>
<!-- Node20 -->
<g id="node21" class="node">
<title>Node20</title>
<g id="a_node21"><a xlink:href="d0/df8/classo2_1_1passive_1_1Cave.html" target="_top" xlink:title="o2::passive::Cave">
<polygon fill="none" stroke="#000000" points="113.5,-223.5 113.5,-242.5 216.5,-242.5 216.5,-223.5 113.5,-223.5"/>
<text text-anchor="middle" x="165" y="-230.5" font-family="Helvetica,sans-Serif" font-size="10.00" fill="#000000">o2::passive::Cave</text>
</a>
</g>
</g>
<!-- Node0&#45;&gt;Node20 -->
<g id="edge20" class="edge">
<title>Node0&#45;&gt;Node20</title>
<path fill="none" stroke="#191970" d="M86.2495,-244.7816C95.094,-243.4584 104.3579,-242.0724 113.2985,-240.7349"/>
<polygon fill="#191970" stroke="#191970" points="85.4762,-241.3582 76.1042,-246.2994 86.512,-248.2812 85.4762,-241.3582"/>
</g>
<!-- Node2 -->
<g id="node3" class="node">
<title>Node2</title>
<g id="a_node3"><a xlink:href="de/dc8/classo2_1_1base_1_1DetImpl.html" target="_top" xlink:title="o2::base::DetImpl\&lt;\l Detector \&gt;">
<polygon fill="none" stroke="#000000" points="254,-280 254,-310 365,-310 365,-280 254,-280"/>
<text text-anchor="start" x="262" y="-298" font-family="Helvetica,sans-Serif" font-size="10.00" fill="#000000">o2::base::DetImpl&lt;</text>
<text text-anchor="middle" x="309.5" y="-287" font-family="Helvetica,sans-Serif" font-size="10.00" fill="#000000"> Detector &gt;</text>
</a>
</g>
</g>
<!-- Node1&#45;&gt;Node2 -->
<g id="edge2" class="edge">
<title>Node1&#45;&gt;Node2</title>
<path fill="none" stroke="#191970" d="M228.2997,-281.5135C236.8272,-282.9298 245.5236,-284.3742 253.9038,-285.766"/>
<polygon fill="#191970" stroke="#191970" points="228.8343,-278.0544 218.3959,-279.8685 227.6873,-284.9598 228.8343,-278.0544"/>
</g>
<!-- Node19 -->
<g id="node20" class="node">
<title>Node19</title>
<g id="a_node20"><a xlink:href="de/dc8/classo2_1_1base_1_1DetImpl.html" target="_top" xlink:title="o2::base::DetImpl\&lt;\l Det \&gt;">
<polygon fill="none" stroke="#000000" points="254,-231 254,-261 365,-261 365,-231 254,-231"/>
<text text-anchor="start" x="262" y="-249" font-family="Helvetica,sans-Serif" font-size="10.00" fill="#000000">o2::base::DetImpl&lt;</text>
<text text-anchor="middle" x="309.5" y="-238" font-family="Helvetica,sans-Serif" font-size="10.00" fill="#000000"> Det &gt;</text>
</a>
</g>
</g>
<!-- Node1&#45;&gt;Node19 -->
<g id="edge19" class="edge">
<title>Node1&#45;&gt;Node19</title>
<path fill="none" stroke="#191970" d="M228.2997,-260.0485C236.8272,-258.5732 245.5236,-257.0686 253.9038,-255.6187"/>
<polygon fill="#191970" stroke="#191970" points="227.6528,-256.6083 218.3959,-261.762 228.8462,-263.5059 227.6528,-256.6083"/>
</g>
<!-- Node3 -->
<g id="node4" class="node">
<title>Node3</title>
<g id="a_node4"><a xlink:href="d4/d0b/classo2_1_1cpv_1_1Detector.html" target="_top" xlink:title="Detector class for the CPV detector. ">
<polygon fill="none" stroke="#000000" points="408,-570.5 408,-589.5 507,-589.5 507,-570.5 408,-570.5"/>
<text text-anchor="middle" x="457.5" y="-577.5" font-family="Helvetica,sans-Serif" font-size="10.00" fill="#000000">o2::cpv::Detector</text>
</a>
</g>
</g>
<!-- Node2&#45;&gt;Node3 -->
<g id="edge3" class="edge">
<title>Node2&#45;&gt;Node3</title>
<path fill="none" stroke="#191970" d="M310.9633,-320.0805C315.3526,-372.2462 332.7406,-493.2102 401,-561 404.8918,-564.865 409.5938,-567.944 414.6038,-570.3968"/>
<polygon fill="#191970" stroke="#191970" points="314.4482,-319.7473 310.2103,-310.037 307.4678,-320.2707 314.4482,-319.7473"/>
</g>
<!-- Node4 -->
<g id="node5" class="node">
<title>Node4</title>
<g id="a_node5"><a xlink:href="d2/d5c/classo2_1_1emcal_1_1Detector.html" target="_top" xlink:title="Detector simulation class for the EMCAL detectorThe detector class handles the implementation of the ...">
<polygon fill="none" stroke="#000000" points="401,-532.5 401,-551.5 514,-551.5 514,-532.5 401,-532.5"/>
<text text-anchor="middle" x="457.5" y="-539.5" font-family="Helvetica,sans-Serif" font-size="10.00" fill="#000000">o2::emcal::Detector</text>
</a>
</g>
</g>
<!-- Node2&#45;&gt;Node4 -->
<g id="edge4" class="edge">
<title>Node2&#45;&gt;Node4</title>
<path fill="none" stroke="#191970" d="M312.6739,-320.3475C319.8438,-367.016 341.5732,-466.8809 401,-523 405.1383,-526.9079 410.1063,-530.0137 415.3565,-532.4815"/>
<polygon fill="#191970" stroke="#191970" points="316.1027,-319.6009 311.2182,-310.1991 309.1736,-320.5948 316.1027,-319.6009"/>
</g>
<!-- Node5 -->
<g id="node6" class="node">
<title>Node5</title>
<g id="a_node6"><a xlink:href="d8/d0c/classo2_1_1fdd_1_1Detector.html" target="_top" xlink:title="o2::fdd::Detector">
<polygon fill="none" stroke="#000000" points="408.5,-494.5 408.5,-513.5 506.5,-513.5 506.5,-494.5 408.5,-494.5"/>
<text text-anchor="middle" x="457.5" y="-501.5" font-family="Helvetica,sans-Serif" font-size="10.00" fill="#000000">o2::fdd::Detector</text>
</a>
</g>
</g>
<!-- Node2&#45;&gt;Node5 -->
<g id="edge5" class="edge">
<title>Node2&#45;&gt;Node5</title>
<path fill="none" stroke="#191970" d="M314.9231,-320.1123C324.9329,-360.5442 350.1039,-440.0718 401,-485 405.4223,-488.9038 410.6763,-492.0111 416.1725,-494.4831"/>
<polygon fill="#191970" stroke="#191970" points="318.3015,-319.1892 312.5953,-310.2623 311.4891,-320.7992 318.3015,-319.1892"/>
</g>
<!-- Node6 -->
<g id="node7" class="node">
<title>Node6</title>
<g id="a_node7"><a xlink:href="dd/d3b/classo2_1_1ft0_1_1Detector.html" target="_top" xlink:title="o2::ft0::Detector">
<polygon fill="none" stroke="#000000" points="409.5,-456.5 409.5,-475.5 505.5,-475.5 505.5,-456.5 409.5,-456.5"/>
<text text-anchor="middle" x="457.5" y="-463.5" font-family="Helvetica,sans-Serif" font-size="10.00" fill="#000000">o2::ft0::Detector</text>
</a>
</g>
</g>
<!-- Node2&#45;&gt;Node6 -->
<g id="edge6" class="edge">
<title>Node2&#45;&gt;Node6</title>
<path fill="none" stroke="#191970" d="M318.1808,-319.898C331.1122,-353.4566 358.5615,-412.9151 401,-447 405.8412,-450.8882 411.5167,-453.9976 417.3695,-456.4795"/>
<polygon fill="#191970" stroke="#191970" points="321.4031,-318.5213 314.6332,-310.3715 314.8432,-320.9642 321.4031,-318.5213"/>
</g>
<!-- Node7 -->
<g id="node8" class="node">
<title>Node7</title>
<g id="a_node8"><a xlink:href="d3/dca/classo2_1_1fv0_1_1Detector.html" target="_top" xlink:title="o2::fv0::Detector">
<polygon fill="none" stroke="#000000" points="408.5,-418.5 408.5,-437.5 506.5,-437.5 506.5,-418.5 408.5,-418.5"/>
<text text-anchor="middle" x="457.5" y="-425.5" font-family="Helvetica,sans-Serif" font-size="10.00" fill="#000000">o2::fv0::Detector</text>
</a>
</g>
</g>
<!-- Node2&#45;&gt;Node7 -->
<g id="edge7" class="edge">
<title>Node2&#45;&gt;Node7</title>
<path fill="none" stroke="#191970" d="M323.0165,-318.9973C338.6582,-344.7166 366.713,-385.0654 401,-409 406.5158,-412.8504 412.873,-415.9704 419.2888,-418.4827"/>
<polygon fill="#191970" stroke="#191970" points="325.9364,-317.0591 317.8268,-310.2411 319.9146,-320.6282 325.9364,-317.0591"/>
</g>
<!-- Node8 -->
<g id="node9" class="node">
<title>Node8</title>
<g id="a_node9"><a xlink:href="dc/daf/classo2_1_1hmpid_1_1Detector.html" target="_top" xlink:title="o2::hmpid::Detector">
<polygon fill="none" stroke="#000000" points="401,-380.5 401,-399.5 514,-399.5 514,-380.5 401,-380.5"/>
<text text-anchor="middle" x="457.5" y="-387.5" font-family="Helvetica,sans-Serif" font-size="10.00" fill="#000000">o2::hmpid::Detector</text>
</a>
</g>
</g>
<!-- Node2&#45;&gt;Node8 -->
<g id="edge8" class="edge">
<title>Node2&#45;&gt;Node8</title>
<path fill="none" stroke="#191970" d="M331.5052,-317.3102C349.0319,-334.0255 374.8817,-356.4329 401,-371 407.5978,-374.6798 415.0271,-377.806 422.2771,-380.395"/>
<polygon fill="#191970" stroke="#191970" points="333.677,-314.5402 324.0671,-310.0793 328.7977,-319.5594 333.677,-314.5402"/>
</g>
<!-- Node9 -->
<g id="node10" class="node">
<title>Node9</title>
<g id="a_node10"><a xlink:href="d9/d10/classo2_1_1its3_1_1Detector.html" target="_top" xlink:title="o2::its3::Detector">
<polygon fill="none" stroke="#000000" points="407,-342.5 407,-361.5 508,-361.5 508,-342.5 407,-342.5"/>
<text text-anchor="middle" x="457.5" y="-349.5" font-family="Helvetica,sans-Serif" font-size="10.00" fill="#000000">o2::its3::Detector</text>
</a>
</g>
</g>
<!-- Node2&#45;&gt;Node9 -->
<g id="edge9" class="edge">
<title>Node2&#45;&gt;Node9</title>
<path fill="none" stroke="#191970" d="M353.5615,-314.0226C368.5299,-320.2911 385.4116,-327.15 401,-333 409.6232,-336.2361 419.0795,-339.5185 427.7473,-342.424"/>
<polygon fill="#191970" stroke="#191970" points="354.6085,-310.6657 344.0343,-310.0051 351.8886,-317.1157 354.6085,-310.6657"/>
</g>
<!-- Node10 -->
<g id="node11" class="node">
<title>Node10</title>
<g id="a_node11"><a xlink:href="d4/d88/classo2_1_1its_1_1Detector.html" target="_top" xlink:title="o2::its::Detector">
<polygon fill="none" stroke="#000000" points="410,-304.5 410,-323.5 505,-323.5 505,-304.5 410,-304.5"/>
<text text-anchor="middle" x="457.5" y="-311.5" font-family="Helvetica,sans-Serif" font-size="10.00" fill="#000000">o2::its::Detector</text>
</a>
</g>
</g>
<!-- Node2&#45;&gt;Node10 -->
<g id="edge10" class="edge">
<title>Node2&#45;&gt;Node10</title>
<path fill="none" stroke="#191970" d="M375.1973,-303.4341C386.882,-304.9342 398.8463,-306.4701 409.905,-307.8898"/>
<polygon fill="#191970" stroke="#191970" points="375.3951,-299.9309 365.0308,-302.129 374.5037,-306.8739 375.3951,-299.9309"/>
</g>
<!-- Node11 -->
<g id="node12" class="node">
<title>Node11</title>
<g id="a_node12"><a xlink:href="d5/d10/classo2_1_1mch_1_1Detector.html" target="_top" xlink:title="o2::mch::Detector">
<polygon fill="none" stroke="#000000" points="405.5,-266.5 405.5,-285.5 509.5,-285.5 509.5,-266.5 405.5,-266.5"/>
<text text-anchor="middle" x="457.5" y="-273.5" font-family="Helvetica,sans-Serif" font-size="10.00" fill="#000000">o2::mch::Detector</text>
</a>
</g>
</g>
<!-- Node2&#45;&gt;Node11 -->
<g id="edge11" class="edge">
<title>Node2&#45;&gt;Node11</title>
<path fill="none" stroke="#191970" d="M375.0007,-286.5911C385.0695,-285.2985 395.3511,-283.9786 405.0864,-282.7288"/>
<polygon fill="#191970" stroke="#191970" points="374.5037,-283.1261 365.0308,-287.871 375.3951,-290.0691 374.5037,-283.1261"/>
</g>
<!-- Node12 -->
<g id="node13" class="node">
<title>Node12</title>
<g id="a_node13"><a xlink:href="d0/d61/classo2_1_1mft_1_1Detector.html" target="_top" xlink:title="o2::mft::Detector">
<polygon fill="none" stroke="#000000" points="407.5,-228.5 407.5,-247.5 507.5,-247.5 507.5,-228.5 407.5,-228.5"/>
<text text-anchor="middle" x="457.5" y="-235.5" font-family="Helvetica,sans-Serif" font-size="10.00" fill="#000000">o2::mft::Detector</text>
</a>
</g>
</g>
<!-- Node2&#45;&gt;Node12 -->
<g id="edge12" class="edge">
<title>Node2&#45;&gt;Node12</title>
<path fill="none" stroke="#191970" d="M353.5615,-275.9774C368.5299,-269.7089 385.4116,-262.85 401,-257 409.6232,-253.7639 419.0795,-250.4815 427.7473,-247.576"/>
<polygon fill="#191970" stroke="#191970" points="351.8886,-272.8843 344.0343,-279.9949 354.6085,-279.3343 351.8886,-272.8843"/>
</g>
<!-- Node13 -->
<g id="node14" class="node">
<title>Node13</title>
<g id="a_node14"><a xlink:href="d2/d45/classo2_1_1mid_1_1Detector.html" target="_top" xlink:title="o2::mid::Detector">
<polygon fill="none" stroke="#000000" points="407,-190.5 407,-209.5 508,-209.5 508,-190.5 407,-190.5"/>
<text text-anchor="middle" x="457.5" y="-197.5" font-family="Helvetica,sans-Serif" font-size="10.00" fill="#000000">o2::mid::Detector</text>
</a>
</g>
</g>
<!-- Node2&#45;&gt;Node13 -->
<g id="edge13" class="edge">
<title>Node2&#45;&gt;Node13</title>
<path fill="none" stroke="#191970" d="M360.2283,-274.5828C361.8809,-273.4417 363.4778,-272.2479 365,-271 386.738,-253.1791 378.5351,-235.8953 401,-219 406.1279,-215.1434 412.086,-212.0405 418.1713,-209.5522"/>
<polygon fill="#191970" stroke="#191970" points="358.3038,-271.6569 351.5903,-279.8533 361.9498,-277.6324 358.3038,-271.6569"/>
</g>
<!-- Node14 -->
<g id="node15" class="node">
<title>Node14</title>
<g id="a_node15"><a xlink:href="d0/d35/classo2_1_1phos_1_1Detector.html" target="_top" xlink:title="Detector class for the PHOS detector. ">
<polygon fill="none" stroke="#000000" points="404.5,-152.5 404.5,-171.5 510.5,-171.5 510.5,-152.5 404.5,-152.5"/>
<text text-anchor="middle" x="457.5" y="-159.5" font-family="Helvetica,sans-Serif" font-size="10.00" fill="#000000">o2::phos::Detector</text>
</a>
</g>
</g>
<!-- Node2&#45;&gt;Node14 -->
<g id="edge14" class="edge">
<title>Node2&#45;&gt;Node14</title>
<path fill="none" stroke="#191970" d="M362.0953,-273.7518C363.1031,-272.8692 364.0736,-271.9524 365,-271 395.0392,-240.1188 369.6945,-210.5967 401,-181 405.136,-177.0897 410.1028,-173.9827 415.3524,-171.5141"/>
<polygon fill="#191970" stroke="#191970" points="359.7463,-271.1337 353.7453,-279.8651 363.8815,-276.7818 359.7463,-271.1337"/>
</g>
<!-- Node15 -->
<g id="node16" class="node">
<title>Node15</title>
<g id="a_node16"><a xlink:href="db/d30/classo2_1_1tof_1_1Detector.html" target="_top" xlink:title="o2::tof::Detector">
<polygon fill="none" stroke="#000000" points="409.5,-114.5 409.5,-133.5 505.5,-133.5 505.5,-114.5 409.5,-114.5"/>
<text text-anchor="middle" x="457.5" y="-121.5" font-family="Helvetica,sans-Serif" font-size="10.00" fill="#000000">o2::tof::Detector</text>
</a>
</g>
</g>
<!-- Node2&#45;&gt;Node15 -->
<g id="edge15" class="edge">
<title>Node2&#45;&gt;Node15</title>
<path fill="none" stroke="#191970" d="M362.6695,-273.4626C363.479,-272.6702 364.2572,-271.8496 365,-271 403.8962,-226.5092 360.2754,-185.8235 401,-143 404.7084,-139.1004 409.2415,-136.0011 414.1112,-133.5379"/>
<polygon fill="#191970" stroke="#191970" points="360.2872,-270.8861 354.6581,-279.8618 364.6559,-276.3555 360.2872,-270.8861"/>
</g>
<!-- Node16 -->
<g id="node17" class="node">
<title>Node16</title>
<g id="a_node17"><a xlink:href="d6/df9/classo2_1_1tpc_1_1Detector.html" target="_top" xlink:title="o2::tpc::Detector">
<polygon fill="none" stroke="#000000" points="408.5,-76.5 408.5,-95.5 506.5,-95.5 506.5,-76.5 408.5,-76.5"/>
<text text-anchor="middle" x="457.5" y="-83.5" font-family="Helvetica,sans-Serif" font-size="10.00" fill="#000000">o2::tpc::Detector</text>
</a>
</g>
</g>
<!-- Node2&#45;&gt;Node16 -->
<g id="edge16" class="edge">
<title>Node2&#45;&gt;Node16</title>
<path fill="none" stroke="#191970" d="M363.0827,-273.168C363.7475,-272.4675 364.3875,-271.745 365,-271 412.9435,-212.6855 350.6575,-161.2565 401,-105 404.4506,-101.1441 408.7086,-98.0696 413.3269,-95.6184"/>
<polygon fill="#191970" stroke="#191970" points="360.5278,-270.744 355.1386,-279.8658 365.04,-276.0957 360.5278,-270.744"/>
</g>
<!-- Node17 -->
<g id="node18" class="node">
<title>Node17</title>
<g id="a_node18"><a xlink:href="d5/da6/classo2_1_1trd_1_1Detector.html" target="_top" xlink:title="o2::trd::Detector">
<polygon fill="none" stroke="#000000" points="409.5,-38.5 409.5,-57.5 505.5,-57.5 505.5,-38.5 409.5,-38.5"/>
<text text-anchor="middle" x="457.5" y="-45.5" font-family="Helvetica,sans-Serif" font-size="10.00" fill="#000000">o2::trd::Detector</text>
</a>
</g>
</g>
<!-- Node2&#45;&gt;Node17 -->
<g id="edge17" class="edge">
<title>Node2&#45;&gt;Node17</title>
<path fill="none" stroke="#191970" d="M363.1234,-273.2008C363.7756,-272.4902 364.4021,-271.7568 365,-271 422.0759,-198.7589 340.95,-136.7886 401,-67 404.3074,-63.1562 408.4187,-60.0877 412.9049,-57.6386"/>
<polygon fill="#191970" stroke="#191970" points="360.5573,-270.7924 355.2785,-279.9786 365.1337,-276.0893 360.5573,-270.7924"/>
</g>
<!-- Node18 -->
<g id="node19" class="node">
<title>Node18</title>
<g id="a_node19"><a xlink:href="d4/da3/classo2_1_1zdc_1_1Detector.html" target="_top" xlink:title="o2::zdc::Detector">
<polygon fill="none" stroke="#000000" points="408,-.5 408,-19.5 507,-19.5 507,-.5 408,-.5"/>
<text text-anchor="middle" x="457.5" y="-7.5" font-family="Helvetica,sans-Serif" font-size="10.00" fill="#000000">o2::zdc::Detector</text>
</a>
</g>
</g>
<!-- Node2&#45;&gt;Node18 -->
<g id="edge18" class="edge">
<title>Node2&#45;&gt;Node18</title>
<path fill="none" stroke="#191970" d="M363.1979,-273.1718C363.8248,-272.4703 364.4263,-271.7466 365,-271 431.2534,-184.7754 331.1952,-112.3756 401,-29 404.2553,-25.1119 408.3343,-22.0161 412.8026,-19.5518"/>
<polygon fill="#191970" stroke="#191970" points="360.8001,-270.6202 355.6362,-279.8714 365.4421,-275.8596 360.8001,-270.6202"/>
</g>
</g>
</svg>
