<?xml version="1.0" encoding="UTF-8" standalone="no"?>
<!DOCTYPE svg PUBLIC "-//W3C//DTD SVG 1.1//EN"
 "http://www.w3.org/Graphics/SVG/1.1/DTD/svg11.dtd">
<!-- Generated by graphviz version 2.40.1 (20161225.0304)
 -->
<!-- Title: Graphical Class Hierarchy Pages: 1 -->
<svg width="502pt" height="256pt"
 viewBox="0.00 0.00 502.00 256.00" xmlns="http://www.w3.org/2000/svg" xmlns:xlink="http://www.w3.org/1999/xlink">
<g id="graph0" class="graph" transform="scale(1 1) rotate(0) translate(4 252)">
<title>Graphical Class Hierarchy</title>
<!-- Node1910 -->
<g id="node1" class="node">
<title>Node1910</title>
<g id="a_node1"><a xlink:href="df/d06/classo2_1_1detectors_1_1DetMatrixCache.html" target="_top" xlink:title="o2::detectors::DetMatrix\lCache">
<polygon fill="none" stroke="#000000" points="0,-156 0,-186 134,-186 134,-156 0,-156"/>
<text text-anchor="start" x="8" y="-174" font-family="Helvetica,sans-Serif" font-size="10.00" fill="#000000">o2::detectors::DetMatrix</text>
<text text-anchor="middle" x="67" y="-163" font-family="Helvetica,sans-Serif" font-size="10.00" fill="#000000">Cache</text>
</a>
</g>
</g>
<!-- Node1911 -->
<g id="node2" class="node">
<title>Node1911</title>
<g id="a_node2"><a xlink:href="d8/d60/classo2_1_1detectors_1_1DetMatrixCacheIndirect.html" target="_top" xlink:title="Variant of DetMatrixCache for non consecutive indexing. ">
<polygon fill="none" stroke="#000000" points="176.5,-131 176.5,-161 310.5,-161 310.5,-131 176.5,-131"/>
<text text-anchor="start" x="184.5" y="-149" font-family="Helvetica,sans-Serif" font-size="10.00" fill="#000000">o2::detectors::DetMatrix</text>
<text text-anchor="middle" x="243.5" y="-138" font-family="Helvetica,sans-Serif" font-size="10.00" fill="#000000">CacheIndirect</text>
</a>
</g>
</g>
<!-- Node1910&#45;&gt;Node1911 -->
<g id="edge1" class="edge">
<title>Node1910&#45;&gt;Node1911</title>
<path fill="none" stroke="#8b1a1a" d="M144.3894,-160.0383C155.0759,-158.5247 165.9781,-156.9804 176.4563,-155.4963"/>
<polygon fill="#8b1a1a" stroke="#8b1a1a" points="143.6409,-156.6093 134.2306,-161.4773 144.6226,-163.5401 143.6409,-156.6093"/>
</g>
<!-- Node1912 -->
<g id="node4" class="node">
<title>Node1912</title>
<g id="a_node4"><a xlink:href="d9/d02/classo2_1_1itsmft_1_1GeometryTGeo.html" target="_top" xlink:title="o2::itsmft::GeometryTGeo">
<polygon fill="none" stroke="#000000" points="171.5,-186.5 171.5,-205.5 315.5,-205.5 315.5,-186.5 171.5,-186.5"/>
<text text-anchor="middle" x="243.5" y="-193.5" font-family="Helvetica,sans-Serif" font-size="10.00" fill="#000000">o2::itsmft::GeometryTGeo</text>
</a>
</g>
</g>
<!-- Node1910&#45;&gt;Node1912 -->
<g id="edge3" class="edge">
<title>Node1910&#45;&gt;Node1912</title>
<path fill="none" stroke="#191970" d="M144.3173,-181.9515C154.9275,-183.4543 165.7519,-184.9875 176.1641,-186.4623"/>
<polygon fill="#191970" stroke="#191970" points="144.6226,-178.4599 134.2306,-180.5227 143.6409,-185.3907 144.6226,-178.4599"/>
</g>
<!-- Node1 -->
<g id="node3" class="node">
<title>Node1</title>
<g id="a_node3"><a xlink:href="d9/d9c/classo2_1_1trd_1_1TRDGeometry.html" target="_top" xlink:title="o2::trd::TRDGeometry">
<polygon fill="none" stroke="#000000" points="362,-114.5 362,-133.5 485,-133.5 485,-114.5 362,-114.5"/>
<text text-anchor="middle" x="423.5" y="-121.5" font-family="Helvetica,sans-Serif" font-size="10.00" fill="#000000">o2::trd::TRDGeometry</text>
</a>
</g>
</g>
<!-- Node1911&#45;&gt;Node1 -->
<g id="edge2" class="edge">
<title>Node1911&#45;&gt;Node1</title>
<path fill="none" stroke="#191970" d="M320.4764,-136.5918C334.2699,-134.9059 348.4803,-133.1691 361.7746,-131.5442"/>
<polygon fill="#191970" stroke="#191970" points="320.0268,-133.1206 310.5254,-137.808 320.8761,-140.0689 320.0268,-133.1206"/>
</g>
<!-- Node1913 -->
<g id="node5" class="node">
<title>Node1913</title>
<g id="a_node5"><a xlink:href="d9/d81/classo2_1_1its3_1_1GeometryTGeo.html" target="_top" xlink:title="o2::its3::GeometryTGeo">
<polygon fill="none" stroke="#000000" points="357,-228.5 357,-247.5 490,-247.5 490,-228.5 357,-228.5"/>
<text text-anchor="middle" x="423.5" y="-235.5" font-family="Helvetica,sans-Serif" font-size="10.00" fill="#000000">o2::its3::GeometryTGeo</text>
</a>
</g>
</g>
<!-- Node1912&#45;&gt;Node1913 -->
<g id="edge4" class="edge">
<title>Node1912&#45;&gt;Node1913</title>
<path fill="none" stroke="#191970" d="M294.3116,-207.856C322.2019,-214.3638 356.3316,-222.3274 382.5057,-228.4347"/>
<polygon fill="#191970" stroke="#191970" points="294.8785,-204.3944 284.3448,-205.5305 293.2879,-211.2113 294.8785,-204.3944"/>
</g>
<!-- Node1914 -->
<g id="node6" class="node">
<title>Node1914</title>
<g id="a_node6"><a xlink:href="dc/d86/classo2_1_1its_1_1GeometryTGeo.html" target="_top" xlink:title="o2::its::GeometryTGeo">
<polygon fill="none" stroke="#000000" points="360,-190.5 360,-209.5 487,-209.5 487,-190.5 360,-190.5"/>
<text text-anchor="middle" x="423.5" y="-197.5" font-family="Helvetica,sans-Serif" font-size="10.00" fill="#000000">o2::its::GeometryTGeo</text>
</a>
</g>
</g>
<!-- Node1912&#45;&gt;Node1914 -->
<g id="edge5" class="edge">
<title>Node1912&#45;&gt;Node1914</title>
<path fill="none" stroke="#191970" d="M326.0089,-197.8335C337.3319,-198.0852 348.8141,-198.3403 359.732,-198.5829"/>
<polygon fill="#191970" stroke="#191970" points="325.7511,-194.327 315.6757,-197.6039 325.5955,-201.3253 325.7511,-194.327"/>
</g>
<!-- Node1915 -->
<g id="node7" class="node">
<title>Node1915</title>
<g id="a_node7"><a xlink:href="de/db5/classo2_1_1mft_1_1GeometryTGeo.html" target="_top" xlink:title="o2::mft::GeometryTGeo">
<polygon fill="none" stroke="#000000" points="357.5,-152.5 357.5,-171.5 489.5,-171.5 489.5,-152.5 357.5,-152.5"/>
<text text-anchor="middle" x="423.5" y="-159.5" font-family="Helvetica,sans-Serif" font-size="10.00" fill="#000000">o2::mft::GeometryTGeo</text>
</a>
</g>
</g>
<!-- Node1912&#45;&gt;Node1915 -->
<g id="edge6" class="edge">
<title>Node1912&#45;&gt;Node1915</title>
<path fill="none" stroke="#191970" d="M304.1748,-184.5392C326.5259,-180.3173 351.5862,-175.5837 372.9493,-171.5485"/>
<polygon fill="#191970" stroke="#191970" points="303.2956,-181.1433 294.119,-186.4386 304.5949,-188.0217 303.2956,-181.1433"/>
</g>
<!-- Node1566 -->
<g id="node8" class="node">
<title>Node1566</title>
<g id="a_node8"><a xlink:href="d8/db1/classo2_1_1gpu_1_1FlatObject.html" target="_top" xlink:title="FlatObject">
<polygon fill="none" stroke="#000000" points="210.5,-38.5 210.5,-57.5 276.5,-57.5 276.5,-38.5 210.5,-38.5"/>
<text text-anchor="middle" x="243.5" y="-45.5" font-family="Helvetica,sans-Serif" font-size="10.00" fill="#000000">FlatObject</text>
</a>
</g>
</g>
<!-- Node1567 -->
<g id="node9" class="node">
<title>Node1567</title>
<g id="a_node9"><a xlink:href="d1/de6/classo2_1_1base_1_1MatLayerCyl.html" target="_top" xlink:title="o2::base::MatLayerCyl">
<polygon fill="none" stroke="#000000" points="361,-.5 361,-19.5 486,-19.5 486,-.5 361,-.5"/>
<text text-anchor="middle" x="423.5" y="-7.5" font-family="Helvetica,sans-Serif" font-size="10.00" fill="#000000">o2::base::MatLayerCyl</text>
</a>
</g>
</g>
<!-- Node1566&#45;&gt;Node1567 -->
<g id="edge7" class="edge">
<title>Node1566&#45;&gt;Node1567</title>
<path fill="none" stroke="#191970" d="M286.3446,-38.955C314.1342,-33.0883 350.2827,-25.457 378.492,-19.5017"/>
<polygon fill="#191970" stroke="#191970" points="285.5761,-35.54 276.5148,-41.0302 287.0221,-42.3891 285.5761,-35.54"/>
</g>
<!-- Node1568 -->
<g id="node10" class="node">
<title>Node1568</title>
<g id="a_node10"><a xlink:href="dc/da6/classo2_1_1base_1_1MatLayerCylSet.html" target="_top" xlink:title="o2::base::MatLayerCylSet">
<polygon fill="none" stroke="#000000" points="353.5,-38.5 353.5,-57.5 493.5,-57.5 493.5,-38.5 353.5,-38.5"/>
<text text-anchor="middle" x="423.5" y="-45.5" font-family="Helvetica,sans-Serif" font-size="10.00" fill="#000000">o2::base::MatLayerCylSet</text>
</a>
</g>
</g>
<!-- Node1566&#45;&gt;Node1568 -->
<g id="edge8" class="edge">
<title>Node1566&#45;&gt;Node1568</title>
<path fill="none" stroke="#191970" d="M286.5523,-48C306.5572,-48 330.8601,-48 353.408,-48"/>
<polygon fill="#191970" stroke="#191970" points="286.5148,-44.5001 276.5148,-48 286.5147,-51.5001 286.5148,-44.5001"/>
</g>
<!-- Node2 -->
<g id="node11" class="node">
<title>Node2</title>
<g id="a_node11"><a xlink:href="d5/db3/classo2_1_1trd_1_1TRDGeometryFlat.html" target="_top" xlink:title="o2::trd::TRDGeometryFlat">
<polygon fill="none" stroke="#000000" points="353,-76.5 353,-95.5 494,-95.5 494,-76.5 353,-76.5"/>
<text text-anchor="middle" x="423.5" y="-83.5" font-family="Helvetica,sans-Serif" font-size="10.00" fill="#000000">o2::trd::TRDGeometryFlat</text>
</a>
</g>
</g>
<!-- Node1566&#45;&gt;Node2 -->
<g id="edge9" class="edge">
<title>Node1566&#45;&gt;Node2</title>
<path fill="none" stroke="#191970" d="M286.3446,-57.045C314.1342,-62.9117 350.2827,-70.543 378.492,-76.4983"/>
<polygon fill="#191970" stroke="#191970" points="287.0221,-53.6109 276.5148,-54.9698 285.5761,-60.46 287.0221,-53.6109"/>
</g>
<!-- Node0 -->
<g id="node12" class="node">
<title>Node0</title>
<g id="a_node12"><a xlink:href="d6/dbe/classo2_1_1trd_1_1TRDGeometryBase.html" target="_top" xlink:title="o2::trd::TRDGeometryBase">
<polygon fill="none" stroke="#000000" points="170,-79.5 170,-98.5 317,-98.5 317,-79.5 170,-79.5"/>
<text text-anchor="middle" x="243.5" y="-86.5" font-family="Helvetica,sans-Serif" font-size="10.00" fill="#000000">o2::trd::TRDGeometryBase</text>
</a>
</g>
</g>
<!-- Node0&#45;&gt;Node1 -->
<g id="edge10" class="edge">
<title>Node0&#45;&gt;Node1</title>
<path fill="none" stroke="#191970" d="M302.7584,-100.5225C325.9589,-105.0337 352.2569,-110.1472 374.3737,-114.4477"/>
<polygon fill="#191970" stroke="#191970" points="303.17,-97.037 292.6858,-98.5639 301.8339,-103.9083 303.17,-97.037"/>
</g>
<!-- Node0&#45;&gt;Node2 -->
<g id="edge11" class="edge">
<title>Node0&#45;&gt;Node2</title>
<path fill="none" stroke="#191970" d="M327.4954,-87.6001C335.9548,-87.4591 344.4853,-87.3169 352.7861,-87.1786"/>
<polygon fill="#191970" stroke="#191970" points="327.1725,-84.1049 317.2322,-87.7711 327.2892,-91.1039 327.1725,-84.1049"/>
</g>
</g>
</svg>
