<?xml version="1.0" encoding="UTF-8" standalone="no"?>
<!DOCTYPE svg PUBLIC "-//W3C//DTD SVG 1.1//EN"
 "http://www.w3.org/Graphics/SVG/1.1/DTD/svg11.dtd">
<!-- Generated by graphviz version 2.40.1 (20161225.0304)
 -->
<!-- Title: Graphical Class Hierarchy Pages: 1 -->
<svg width="321pt" height="104pt"
 viewBox="0.00 0.00 321.00 104.00" xmlns="http://www.w3.org/2000/svg" xmlns:xlink="http://www.w3.org/1999/xlink">
<g id="graph0" class="graph" transform="scale(1 1) rotate(0) translate(4 100)">
<title>Graphical Class Hierarchy</title>
<!-- Node0 -->
<g id="node1" class="node">
<title>Node0</title>
<g id="a_node1"><a xlink:href="d7/dbb/classFairParGenericSet.html" target="_top" xlink:title="FairParGenericSet">
<polygon fill="none" stroke="#000000" points="0,-38.5 0,-57.5 102,-57.5 102,-38.5 0,-38.5"/>
<text text-anchor="middle" x="51" y="-45.5" font-family="Helvetica,sans-Serif" font-size="10.00" fill="#000000">FairParGenericSet</text>
</a>
</g>
</g>
<!-- Node1 -->
<g id="node2" class="node">
<title>Node1</title>
<g id="a_node2"><a xlink:href="df/dcd/classo2_1_1field_1_1MagFieldParam.html" target="_top" xlink:title="o2::field::MagFieldParam">
<polygon fill="none" stroke="#000000" points="158,-76.5 158,-95.5 293,-95.5 293,-76.5 158,-76.5"/>
<text text-anchor="middle" x="225.5" y="-83.5" font-family="Helvetica,sans-Serif" font-size="10.00" fill="#000000">o2::field::MagFieldParam</text>
</a>
</g>
</g>
<!-- Node0&#45;&gt;Node1 -->
<g id="edge1" class="edge">
<title>Node0&#45;&gt;Node1</title>
<path fill="none" stroke="#191970" d="M104.7384,-59.7465C115.7409,-62.1485 127.244,-64.6577 138,-67 152.1258,-70.0761 167.536,-73.4247 181.4331,-76.4419"/>
<polygon fill="#191970" stroke="#191970" points="105.3272,-56.2926 94.8106,-57.5785 103.8337,-63.1315 105.3272,-56.2926"/>
</g>
<!-- Node2 -->
<g id="node3" class="node">
<title>Node2</title>
<g id="a_node3"><a xlink:href="d5/deb/classo2_1_1its3_1_1MisalignmentParameter.html" target="_top" xlink:title="o2::its3::MisalignmentParameter">
<polygon fill="none" stroke="#000000" points="138,-38.5 138,-57.5 313,-57.5 313,-38.5 138,-38.5"/>
<text text-anchor="middle" x="225.5" y="-45.5" font-family="Helvetica,sans-Serif" font-size="10.00" fill="#000000">o2::its3::MisalignmentParameter</text>
</a>
</g>
</g>
<!-- Node0&#45;&gt;Node2 -->
<g id="edge2" class="edge">
<title>Node0&#45;&gt;Node2</title>
<path fill="none" stroke="#191970" d="M112.5765,-48C120.7601,-48 129.2745,-48 137.7947,-48"/>
<polygon fill="#191970" stroke="#191970" points="112.412,-44.5001 102.4119,-48 112.4119,-51.5001 112.412,-44.5001"/>
</g>
<!-- Node3 -->
<g id="node4" class="node">
<title>Node3</title>
<g id="a_node4"><a xlink:href="db/d80/classo2_1_1its_1_1MisalignmentParameter.html" target="_top" xlink:title="o2::its::MisalignmentParameter">
<polygon fill="none" stroke="#000000" points="141,-.5 141,-19.5 310,-19.5 310,-.5 141,-.5"/>
<text text-anchor="middle" x="225.5" y="-7.5" font-family="Helvetica,sans-Serif" font-size="10.00" fill="#000000">o2::its::MisalignmentParameter</text>
</a>
</g>
</g>
<!-- Node0&#45;&gt;Node3 -->
<g id="edge3" class="edge">
<title>Node0&#45;&gt;Node3</title>
<path fill="none" stroke="#191970" d="M104.7384,-36.2535C115.7409,-33.8515 127.244,-31.3423 138,-29 152.1258,-25.9239 167.536,-22.5753 181.4331,-19.5581"/>
<polygon fill="#191970" stroke="#191970" points="103.8337,-32.8685 94.8106,-38.4215 105.3272,-39.7074 103.8337,-32.8685"/>
</g>
</g>
</svg>
