<?xml version="1.0" encoding="UTF-8" standalone="no"?>
<!DOCTYPE svg PUBLIC "-//W3C//DTD SVG 1.1//EN"
 "http://www.w3.org/Graphics/SVG/1.1/DTD/svg11.dtd">
<!-- Generated by graphviz version 2.40.1 (20161225.0304)
 -->
<!-- Title: Graphical Class Hierarchy Pages: 1 -->
<svg width="253pt" height="127pt"
 viewBox="0.00 0.00 253.00 126.50" xmlns="http://www.w3.org/2000/svg" xmlns:xlink="http://www.w3.org/1999/xlink">
<g id="graph0" class="graph" transform="scale(1 1) rotate(0) translate(4 122.5)">
<title>Graphical Class Hierarchy</title>
<!-- Node2758 -->
<g id="node1" class="node">
<title>Node2758</title>
<polygon fill="none" stroke="#bfbfbf" points="0,-44.5 0,-63.5 29,-63.5 29,-44.5 0,-44.5"/>
<text text-anchor="middle" x="14.5" y="-51.5" font-family="Helvetica,sans-Serif" font-size="10.00" fill="#000000">T</text>
</g>
<!-- Node0 -->
<g id="node2" class="node">
<title>Node0</title>
<g id="a_node2"><a xlink:href="df/d27/classGPUCA__NAMESPACE_1_1gpu_1_1GPUReconstructionKernels.html" target="_top" xlink:title="GPUCA_NAMESPACE::gpu\l::GPUReconstructionKernels\&lt; T \&gt;">
<polygon fill="none" stroke="#000000" points="65,-88 65,-118 245,-118 245,-88 65,-88"/>
<text text-anchor="start" x="73" y="-106" font-family="Helvetica,sans-Serif" font-size="10.00" fill="#000000">GPUCA_NAMESPACE::gpu</text>
<text text-anchor="middle" x="155" y="-95" font-family="Helvetica,sans-Serif" font-size="10.00" fill="#000000">::GPUReconstructionKernels&lt; T &gt;</text>
</a>
</g>
</g>
<!-- Node2758&#45;&gt;Node0 -->
<g id="edge1" class="edge">
<title>Node2758&#45;&gt;Node0</title>
<path fill="none" stroke="#191970" d="M38.275,-66.9854C46.5729,-71.1886 56.0507,-75.63 65,-79 73.6262,-82.2483 82.8728,-85.2399 92.036,-87.9281"/>
<polygon fill="#191970" stroke="#191970" points="39.6632,-63.7619 29.1783,-62.239 36.425,-69.9679 39.6632,-63.7619"/>
</g>
<!-- Node2760 -->
<g id="node3" class="node">
<title>Node2760</title>
<g id="a_node3"><a xlink:href="d6/deb/classGPUCA__NAMESPACE_1_1gpu_1_1GPUTRDTrack__t.html" target="_top" xlink:title="GPUCA_NAMESPACE::gpu\l::GPUTRDTrack_t\&lt; T \&gt;">
<polygon fill="none" stroke="#000000" points="85,-39 85,-69 225,-69 225,-39 85,-39"/>
<text text-anchor="start" x="93" y="-57" font-family="Helvetica,sans-Serif" font-size="10.00" fill="#000000">GPUCA_NAMESPACE::gpu</text>
<text text-anchor="middle" x="155" y="-46" font-family="Helvetica,sans-Serif" font-size="10.00" fill="#000000">::GPUTRDTrack_t&lt; T &gt;</text>
</a>
</g>
</g>
<!-- Node2758&#45;&gt;Node2760 -->
<g id="edge2" class="edge">
<title>Node2758&#45;&gt;Node2760</title>
<path fill="none" stroke="#191970" d="M39.3001,-54C52.1582,-54 68.5757,-54 84.9767,-54"/>
<polygon fill="#191970" stroke="#191970" points="39.0068,-50.5001 29.0068,-54 39.0067,-57.5001 39.0068,-50.5001"/>
</g>
<!-- Node2761 -->
<g id="node4" class="node">
<title>Node2761</title>
<g id="a_node4"><a xlink:href="dd/ddc/classo2_1_1soa_1_1Filtered.html" target="_top" xlink:title="o2::soa::Filtered\&lt; T \&gt;">
<polygon fill="none" stroke="#000000" points="94,-.5 94,-19.5 216,-19.5 216,-.5 94,-.5"/>
<text text-anchor="middle" x="155" y="-7.5" font-family="Helvetica,sans-Serif" font-size="10.00" fill="#000000">o2::soa::Filtered&lt; T &gt;</text>
</a>
</g>
</g>
<!-- Node2758&#45;&gt;Node2761 -->
<g id="edge3" class="edge">
<title>Node2758&#45;&gt;Node2761</title>
<path fill="none" stroke="#191970" d="M38.2477,-41.362C46.5434,-37.3134 56.0269,-33.0852 65,-30 76.9578,-25.8887 90.1061,-22.4102 102.5714,-19.5655"/>
<polygon fill="#191970" stroke="#191970" points="36.5051,-38.321 29.1565,-45.953 39.6606,-44.5695 36.5051,-38.321"/>
</g>
</g>
</svg>
