<?xml version="1.0" encoding="UTF-8" standalone="no"?>
<!DOCTYPE svg PUBLIC "-//W3C//DTD SVG 1.1//EN"
 "http://www.w3.org/Graphics/SVG/1.1/DTD/svg11.dtd">
<!-- Generated by graphviz version 2.40.1 (20161225.0304)
 -->
<!-- Title: /home/travis/build/AliceO2Group/AliceO2/Detectors/ITSMFT/ITS/tracking/include/ITStracking/IndexTableUtils.h Pages: 1 -->
<svg width="544pt" height="296pt"
 viewBox="0.00 0.00 544.44 296.00" xmlns="http://www.w3.org/2000/svg" xmlns:xlink="http://www.w3.org/1999/xlink">
<g id="graph0" class="graph" transform="scale(1 1) rotate(0) translate(4 292)">
<title>/home/travis/build/AliceO2Group/AliceO2/Detectors/ITSMFT/ITS/tracking/include/ITStracking/IndexTableUtils.h</title>
<!-- Node0 -->
<g id="node1" class="node">
<title>Node0</title>
<polygon fill="#bfbfbf" stroke="#000000" points="106.9355,-224.5 106.9355,-287.5 261.9355,-287.5 261.9355,-224.5 106.9355,-224.5"/>
<text text-anchor="start" x="114.9355" y="-275.5" font-family="Helvetica,sans-Serif" font-size="10.00" fill="#000000">/home/travis/build</text>
<text text-anchor="start" x="114.9355" y="-264.5" font-family="Helvetica,sans-Serif" font-size="10.00" fill="#000000">/AliceO2Group/AliceO2</text>
<text text-anchor="start" x="114.9355" y="-253.5" font-family="Helvetica,sans-Serif" font-size="10.00" fill="#000000">/Detectors/ITSMFT/ITS</text>
<text text-anchor="start" x="114.9355" y="-242.5" font-family="Helvetica,sans-Serif" font-size="10.00" fill="#000000">/tracking/include/ITStracking</text>
<text text-anchor="middle" x="184.4355" y="-231.5" font-family="Helvetica,sans-Serif" font-size="10.00" fill="#000000">/IndexTableUtils.h</text>
</g>
<!-- Node1 -->
<g id="node2" class="node">
<title>Node1</title>
<polygon fill="none" stroke="#bfbfbf" points="62.4355,-56.5 62.4355,-75.5 104.4355,-75.5 104.4355,-56.5 62.4355,-56.5"/>
<text text-anchor="middle" x="83.4355" y="-63.5" font-family="Helvetica,sans-Serif" font-size="10.00" fill="#000000">array</text>
</g>
<!-- Node0&#45;&gt;Node1 -->
<g id="edge1" class="edge">
<title>Node0&#45;&gt;Node1</title>
<path fill="none" stroke="#191970" d="M106.8156,-235.6135C65.0069,-222.8956 19.5526,-205.6357 7.4355,-188 -18.1401,-150.7764 30.432,-105.2083 61.0942,-81.699"/>
<polygon fill="#191970" stroke="#191970" points="63.2548,-84.454 69.1911,-75.6783 59.0779,-78.8367 63.2548,-84.454"/>
</g>
<!-- Node2 -->
<g id="node3" class="node">
<title>Node2</title>
<polygon fill="none" stroke="#bfbfbf" points="16.9355,-168.5 16.9355,-187.5 61.9355,-187.5 61.9355,-168.5 16.9355,-168.5"/>
<text text-anchor="middle" x="39.4355" y="-175.5" font-family="Helvetica,sans-Serif" font-size="10.00" fill="#000000">utility</text>
</g>
<!-- Node0&#45;&gt;Node2 -->
<g id="edge2" class="edge">
<title>Node0&#45;&gt;Node2</title>
<path fill="none" stroke="#191970" d="M125.8764,-224.4992C105.2453,-213.4011 83.049,-201.4611 66.3147,-192.4592"/>
<polygon fill="#191970" stroke="#191970" points="67.6109,-189.1822 57.1462,-187.5271 64.2947,-195.3469 67.6109,-189.1822"/>
</g>
<!-- Node3 -->
<g id="node4" class="node">
<title>Node3</title>
<polygon fill="none" stroke="#bfbfbf" points="42.9355,-112.5 42.9355,-131.5 89.9355,-131.5 89.9355,-112.5 42.9355,-112.5"/>
<text text-anchor="middle" x="66.4355" y="-119.5" font-family="Helvetica,sans-Serif" font-size="10.00" fill="#000000">vector</text>
</g>
<!-- Node0&#45;&gt;Node3 -->
<g id="edge3" class="edge">
<title>Node0&#45;&gt;Node3</title>
<path fill="none" stroke="#191970" d="M145.607,-224.2209C133.3877,-213.3477 120.2669,-200.7073 109.4355,-188 96.8713,-173.26 85.0483,-154.6293 76.9918,-140.9241"/>
<polygon fill="#191970" stroke="#191970" points="79.8487,-138.8707 71.8343,-131.9411 73.7781,-142.3561 79.8487,-138.8707"/>
</g>
<!-- Node4 -->
<g id="node5" class="node">
<title>Node4</title>
<g id="a_node5"><a xlink:href="../../d0/d86/Detectors_2ITSMFT_2ITS_2tracking_2include_2ITStracking_2Constants_8h.html" target="_top" xlink:title="ITStracking/Constants.h">
<polygon fill="none" stroke="#000000" points="118.4355,-168.5 118.4355,-187.5 250.4355,-187.5 250.4355,-168.5 118.4355,-168.5"/>
<text text-anchor="middle" x="184.4355" y="-175.5" font-family="Helvetica,sans-Serif" font-size="10.00" fill="#000000">ITStracking/Constants.h</text>
</a>
</g>
</g>
<!-- Node0&#45;&gt;Node4 -->
<g id="edge4" class="edge">
<title>Node0&#45;&gt;Node4</title>
<path fill="none" stroke="#191970" d="M184.4355,-224.2744C184.4355,-215.3302 184.4355,-205.8568 184.4355,-197.8269"/>
<polygon fill="#191970" stroke="#191970" points="187.9356,-197.6425 184.4355,-187.6426 180.9356,-197.6426 187.9356,-197.6425"/>
</g>
<!-- Node6 -->
<g id="node7" class="node">
<title>Node6</title>
<g id="a_node7"><a xlink:href="../../df/d3d/Definitions_8h.html" target="_top" xlink:title="ITStracking/Definitions.h">
<polygon fill="none" stroke="#000000" points="176.4355,-112.5 176.4355,-131.5 312.4355,-131.5 312.4355,-112.5 176.4355,-112.5"/>
<text text-anchor="middle" x="244.4355" y="-119.5" font-family="Helvetica,sans-Serif" font-size="10.00" fill="#000000">ITStracking/Definitions.h</text>
</a>
</g>
</g>
<!-- Node0&#45;&gt;Node6 -->
<g id="edge13" class="edge">
<title>Node0&#45;&gt;Node6</title>
<path fill="none" stroke="#191970" d="M231.6282,-224.148C242.8378,-214.0276 253.3113,-201.8191 259.4355,-188 266.1126,-172.9331 260.9714,-154.5657 254.9572,-141.0364"/>
<polygon fill="#191970" stroke="#191970" points="257.9425,-139.1776 250.3693,-131.7683 251.6691,-142.2831 257.9425,-139.1776"/>
</g>
<!-- Node7 -->
<g id="node8" class="node">
<title>Node7</title>
<g id="a_node8"><a xlink:href="../../df/d21/GPUCommonDef_8h.html" target="_top" xlink:title="GPUCommonDef.h">
<polygon fill="none" stroke="#000000" points="287.9355,-56.5 287.9355,-75.5 394.9355,-75.5 394.9355,-56.5 287.9355,-56.5"/>
<text text-anchor="middle" x="341.4355" y="-63.5" font-family="Helvetica,sans-Serif" font-size="10.00" fill="#000000">GPUCommonDef.h</text>
</a>
</g>
</g>
<!-- Node0&#45;&gt;Node7 -->
<g id="edge18" class="edge">
<title>Node0&#45;&gt;Node7</title>
<path fill="none" stroke="#191970" d="M233.8395,-224.3595C264.1181,-202.2453 300.8917,-169.9437 321.4355,-132 329.2737,-117.523 334.4617,-99.5574 337.5851,-86.0271"/>
<polygon fill="#191970" stroke="#191970" points="341.0865,-86.3872 339.7361,-75.8788 334.2386,-84.9357 341.0865,-86.3872"/>
</g>
<!-- Node11 -->
<g id="node12" class="node">
<title>Node11</title>
<g id="a_node12"><a xlink:href="../../d6/da2/GPUCommonMath_8h.html" target="_top" xlink:title="GPUCommonMath.h">
<polygon fill="none" stroke="#000000" points="370.9355,-168.5 370.9355,-187.5 485.9355,-187.5 485.9355,-168.5 370.9355,-168.5"/>
<text text-anchor="middle" x="428.4355" y="-175.5" font-family="Helvetica,sans-Serif" font-size="10.00" fill="#000000">GPUCommonMath.h</text>
</a>
</g>
</g>
<!-- Node0&#45;&gt;Node11 -->
<g id="edge14" class="edge">
<title>Node0&#45;&gt;Node11</title>
<path fill="none" stroke="#191970" d="M261.9738,-231.2131C304.2672,-217.6931 354.8192,-201.5331 389.0322,-190.5961"/>
<polygon fill="#191970" stroke="#191970" points="390.2032,-193.8963 398.6626,-187.5175 388.0717,-187.2287 390.2032,-193.8963"/>
</g>
<!-- Node4&#45;&gt;Node3 -->
<g id="edge6" class="edge">
<title>Node4&#45;&gt;Node3</title>
<path fill="none" stroke="#191970" d="M164.1505,-168.3733C145.2934,-159.4241 116.9895,-145.9917 95.69,-135.8835"/>
<polygon fill="#191970" stroke="#191970" points="96.9906,-132.6266 86.4557,-131.5011 93.9893,-138.9506 96.9906,-132.6266"/>
</g>
<!-- Node5 -->
<g id="node6" class="node">
<title>Node5</title>
<polygon fill="none" stroke="#bfbfbf" points="108.4355,-112.5 108.4355,-131.5 158.4355,-131.5 158.4355,-112.5 108.4355,-112.5"/>
<text text-anchor="middle" x="133.4355" y="-119.5" font-family="Helvetica,sans-Serif" font-size="10.00" fill="#000000">climits</text>
</g>
<!-- Node4&#45;&gt;Node5 -->
<g id="edge5" class="edge">
<title>Node4&#45;&gt;Node5</title>
<path fill="none" stroke="#191970" d="M175.5519,-168.2455C168.2389,-160.2155 157.6963,-148.6394 148.9888,-139.0781"/>
<polygon fill="#191970" stroke="#191970" points="151.5382,-136.6795 142.2172,-131.6427 146.3628,-141.3928 151.5382,-136.6795"/>
</g>
<!-- Node4&#45;&gt;Node6 -->
<g id="edge7" class="edge">
<title>Node4&#45;&gt;Node6</title>
<path fill="none" stroke="#191970" d="M194.8867,-168.2455C203.6623,-160.0549 216.3909,-148.1749 226.7495,-138.5069"/>
<polygon fill="#191970" stroke="#191970" points="229.1816,-141.0246 234.104,-131.6427 224.4053,-135.9072 229.1816,-141.0246"/>
</g>
<!-- Node6&#45;&gt;Node1 -->
<g id="edge8" class="edge">
<title>Node6&#45;&gt;Node1</title>
<path fill="none" stroke="#191970" d="M216.7586,-112.3733C188.2883,-102.4706 144.0357,-87.0784 114.4136,-76.775"/>
<polygon fill="#191970" stroke="#191970" points="115.1907,-73.3397 104.5959,-73.3601 112.891,-79.9512 115.1907,-73.3397"/>
</g>
<!-- Node6&#45;&gt;Node7 -->
<g id="edge9" class="edge">
<title>Node6&#45;&gt;Node7</title>
<path fill="none" stroke="#191970" d="M261.3316,-112.2455C276.3534,-103.5731 298.5398,-90.7645 315.7565,-80.825"/>
<polygon fill="#191970" stroke="#191970" points="317.8225,-83.6737 324.733,-75.6427 314.3226,-77.6114 317.8225,-83.6737"/>
</g>
<!-- Node10 -->
<g id="node11" class="node">
<title>Node10</title>
<polygon fill="none" stroke="#bfbfbf" points="216.9355,-56.5 216.9355,-75.5 269.9355,-75.5 269.9355,-56.5 216.9355,-56.5"/>
<text text-anchor="middle" x="243.4355" y="-63.5" font-family="Helvetica,sans-Serif" font-size="10.00" fill="#000000">cstddef</text>
</g>
<!-- Node6&#45;&gt;Node10 -->
<g id="edge12" class="edge">
<title>Node6&#45;&gt;Node10</title>
<path fill="none" stroke="#191970" d="M244.2613,-112.2455C244.1308,-104.9382 243.9479,-94.6944 243.7873,-85.7046"/>
<polygon fill="#191970" stroke="#191970" points="247.2857,-85.5786 243.6076,-75.6427 240.2868,-85.7036 247.2857,-85.5786"/>
</g>
<!-- Node8 -->
<g id="node9" class="node">
<title>Node8</title>
<g id="a_node9"><a xlink:href="../../d5/d93/GPUCommonDefSettings_8h.html" target="_top" xlink:title="GPUCommonDefSettings.h">
<polygon fill="none" stroke="#000000" points="190.4355,-.5 190.4355,-19.5 338.4355,-19.5 338.4355,-.5 190.4355,-.5"/>
<text text-anchor="middle" x="264.4355" y="-7.5" font-family="Helvetica,sans-Serif" font-size="10.00" fill="#000000">GPUCommonDefSettings.h</text>
</a>
</g>
</g>
<!-- Node7&#45;&gt;Node8 -->
<g id="edge10" class="edge">
<title>Node7&#45;&gt;Node8</title>
<path fill="none" stroke="#191970" d="M328.0231,-56.2455C316.4297,-47.814 299.4607,-35.4729 285.9676,-25.6598"/>
<polygon fill="#191970" stroke="#191970" points="287.8401,-22.6938 277.6941,-19.6427 283.7229,-28.355 287.8401,-22.6938"/>
</g>
<!-- Node9 -->
<g id="node10" class="node">
<title>Node9</title>
<g id="a_node10"><a xlink:href="../../da/d5a/GPUCommonDefAPI_8h.html" target="_top" xlink:title="GPUCommonDefAPI.h">
<polygon fill="none" stroke="#000000" points="356.4355,-.5 356.4355,-19.5 480.4355,-19.5 480.4355,-.5 356.4355,-.5"/>
<text text-anchor="middle" x="418.4355" y="-7.5" font-family="Helvetica,sans-Serif" font-size="10.00" fill="#000000">GPUCommonDefAPI.h</text>
</a>
</g>
</g>
<!-- Node7&#45;&gt;Node9 -->
<g id="edge11" class="edge">
<title>Node7&#45;&gt;Node9</title>
<path fill="none" stroke="#191970" d="M354.8478,-56.2455C366.4412,-47.814 383.4102,-35.4729 396.9033,-25.6598"/>
<polygon fill="#191970" stroke="#191970" points="399.148,-28.355 405.1768,-19.6427 395.0308,-22.6938 399.148,-28.355"/>
</g>
<!-- Node11&#45;&gt;Node7 -->
<g id="edge15" class="edge">
<title>Node11&#45;&gt;Node7</title>
<path fill="none" stroke="#191970" d="M421.0179,-168.4509C406.3789,-149.6054 373.5826,-107.3849 354.9841,-83.4419"/>
<polygon fill="#191970" stroke="#191970" points="357.7329,-81.2751 348.8342,-75.5249 352.2047,-85.5693 357.7329,-81.2751"/>
</g>
<!-- Node12 -->
<g id="node13" class="node">
<title>Node12</title>
<polygon fill="none" stroke="#bfbfbf" points="406.9355,-112.5 406.9355,-131.5 453.9355,-131.5 453.9355,-112.5 406.9355,-112.5"/>
<text text-anchor="middle" x="430.4355" y="-119.5" font-family="Helvetica,sans-Serif" font-size="10.00" fill="#000000">cmath</text>
</g>
<!-- Node11&#45;&gt;Node12 -->
<g id="edge16" class="edge">
<title>Node11&#45;&gt;Node12</title>
<path fill="none" stroke="#191970" d="M428.7838,-168.2455C429.0448,-160.9382 429.4107,-150.6944 429.7317,-141.7046"/>
<polygon fill="#191970" stroke="#191970" points="433.2318,-141.7613 430.0911,-131.6427 426.2363,-141.5113 433.2318,-141.7613"/>
</g>
<!-- Node13 -->
<g id="node14" class="node">
<title>Node13</title>
<polygon fill="none" stroke="#bfbfbf" points="472.4355,-112.5 472.4355,-131.5 536.4355,-131.5 536.4355,-112.5 472.4355,-112.5"/>
<text text-anchor="middle" x="504.4355" y="-119.5" font-family="Helvetica,sans-Serif" font-size="10.00" fill="#000000">algorithm</text>
</g>
<!-- Node11&#45;&gt;Node13 -->
<g id="edge17" class="edge">
<title>Node11&#45;&gt;Node13</title>
<path fill="none" stroke="#191970" d="M441.6736,-168.2455C453.1164,-159.814 469.8651,-147.4729 483.1829,-137.6598"/>
<polygon fill="#191970" stroke="#191970" points="485.3746,-140.3924 491.349,-131.6427 481.2222,-134.757 485.3746,-140.3924"/>
</g>
</g>
</svg>
