<?xml version="1.0" encoding="UTF-8" standalone="no"?>
<!DOCTYPE svg PUBLIC "-//W3C//DTD SVG 1.1//EN"
 "http://www.w3.org/Graphics/SVG/1.1/DTD/svg11.dtd">
<!-- Generated by graphviz version 2.40.1 (20161225.0304)
 -->
<!-- Title: /home/travis/build/AliceO2Group/AliceO2/Detectors/Passive/src/PassiveBase.cxx Pages: 1 -->
<svg width="507pt" height="184pt"
 viewBox="0.00 0.00 506.50 184.00" xmlns="http://www.w3.org/2000/svg" xmlns:xlink="http://www.w3.org/1999/xlink">
<g id="graph0" class="graph" transform="scale(1 1) rotate(0) translate(4 180)">
<title>/home/travis/build/AliceO2Group/AliceO2/Detectors/Passive/src/PassiveBase.cxx</title>
<!-- Node0 -->
<g id="node1" class="node">
<title>Node0</title>
<polygon fill="#bfbfbf" stroke="#000000" points="252,-123.5 252,-175.5 379,-175.5 379,-123.5 252,-123.5"/>
<text text-anchor="start" x="260" y="-163.5" font-family="Helvetica,sans-Serif" font-size="10.00" fill="#000000">/home/travis/build</text>
<text text-anchor="start" x="260" y="-152.5" font-family="Helvetica,sans-Serif" font-size="10.00" fill="#000000">/AliceO2Group/AliceO2</text>
<text text-anchor="start" x="260" y="-141.5" font-family="Helvetica,sans-Serif" font-size="10.00" fill="#000000">/Detectors/Passive/src</text>
<text text-anchor="middle" x="315.5" y="-130.5" font-family="Helvetica,sans-Serif" font-size="10.00" fill="#000000">/PassiveBase.cxx</text>
</g>
<!-- Node1 -->
<g id="node2" class="node">
<title>Node1</title>
<g id="a_node2"><a xlink:href="../../d0/d9a/MaterialManager_8h.html" target="_top" xlink:title="DetectorsBase/MaterialManager.h">
<polygon fill="none" stroke="#000000" points="136,-62 136,-81 317,-81 317,-62 136,-62"/>
<text text-anchor="middle" x="226.5" y="-69" font-family="Helvetica,sans-Serif" font-size="10.00" fill="#000000">DetectorsBase/MaterialManager.h</text>
</a>
</g>
</g>
<!-- Node0&#45;&gt;Node1 -->
<g id="edge1" class="edge">
<title>Node0&#45;&gt;Node1</title>
<path fill="none" stroke="#191970" d="M285.3687,-123.0928C272.0586,-111.4278 256.8273,-98.079 245.1927,-87.8824"/>
<polygon fill="#191970" stroke="#191970" points="247.2629,-85.0427 237.4354,-81.0839 242.6491,-90.3071 247.2629,-85.0427"/>
</g>
<!-- Node7 -->
<g id="node8" class="node">
<title>Node7</title>
<g id="a_node8"><a xlink:href="../../d4/d6e/PassiveBase_8h.html" target="_top" xlink:title="DetectorsPassive/Passive\lBase.h">
<polygon fill="none" stroke="#000000" points="358.5,-56.5 358.5,-86.5 498.5,-86.5 498.5,-56.5 358.5,-56.5"/>
<text text-anchor="start" x="366.5" y="-74.5" font-family="Helvetica,sans-Serif" font-size="10.00" fill="#000000">DetectorsPassive/Passive</text>
<text text-anchor="middle" x="428.5" y="-63.5" font-family="Helvetica,sans-Serif" font-size="10.00" fill="#000000">Base.h</text>
</a>
</g>
</g>
<!-- Node0&#45;&gt;Node7 -->
<g id="edge7" class="edge">
<title>Node0&#45;&gt;Node7</title>
<path fill="none" stroke="#191970" d="M353.4417,-123.3101C367.9581,-113.29 384.3132,-102.0007 398.0422,-92.524"/>
<polygon fill="#191970" stroke="#191970" points="400.3977,-95.1509 406.6392,-86.5897 396.4212,-89.3901 400.3977,-95.1509"/>
</g>
<!-- Node2 -->
<g id="node3" class="node">
<title>Node2</title>
<polygon fill="none" stroke="#bfbfbf" points="0,-.5 0,-19.5 59,-19.5 59,-.5 0,-.5"/>
<text text-anchor="middle" x="29.5" y="-7.5" font-family="Helvetica,sans-Serif" font-size="10.00" fill="#000000">Rtypes.h</text>
</g>
<!-- Node1&#45;&gt;Node2 -->
<g id="edge2" class="edge">
<title>Node1&#45;&gt;Node2</title>
<path fill="none" stroke="#191970" d="M195.7188,-61.8906C161.5929,-51.2371 106.4482,-34.0219 69.1224,-22.3694"/>
<polygon fill="#191970" stroke="#191970" points="69.6882,-18.8795 59.0995,-19.2404 67.6021,-25.5615 69.6882,-18.8795"/>
</g>
<!-- Node3 -->
<g id="node4" class="node">
<title>Node3</title>
<polygon fill="none" stroke="#bfbfbf" points="77.5,-.5 77.5,-19.5 115.5,-19.5 115.5,-.5 77.5,-.5"/>
<text text-anchor="middle" x="96.5" y="-7.5" font-family="Helvetica,sans-Serif" font-size="10.00" fill="#000000">map</text>
</g>
<!-- Node1&#45;&gt;Node3 -->
<g id="edge3" class="edge">
<title>Node1&#45;&gt;Node3</title>
<path fill="none" stroke="#191970" d="M206.1875,-61.8906C184.3747,-51.5715 149.5488,-35.0961 125.0002,-23.4828"/>
<polygon fill="#191970" stroke="#191970" points="126.3582,-20.2534 115.8219,-19.1408 123.3647,-26.581 126.3582,-20.2534"/>
</g>
<!-- Node4 -->
<g id="node5" class="node">
<title>Node4</title>
<polygon fill="none" stroke="#bfbfbf" points="134,-.5 134,-19.5 227,-19.5 227,-.5 134,-.5"/>
<text text-anchor="middle" x="180.5" y="-7.5" font-family="Helvetica,sans-Serif" font-size="10.00" fill="#000000">unordered_map</text>
</g>
<!-- Node1&#45;&gt;Node4 -->
<g id="edge4" class="edge">
<title>Node1&#45;&gt;Node4</title>
<path fill="none" stroke="#191970" d="M219.3125,-61.8906C212.5334,-52.8273 202.2022,-39.0149 193.9027,-27.9188"/>
<polygon fill="#191970" stroke="#191970" points="196.5812,-25.6563 187.7888,-19.7449 190.9757,-29.849 196.5812,-25.6563"/>
</g>
<!-- Node5 -->
<g id="node6" class="node">
<title>Node5</title>
<polygon fill="none" stroke="#bfbfbf" points="245,-.5 245,-19.5 328,-19.5 328,-.5 245,-.5"/>
<text text-anchor="middle" x="286.5" y="-7.5" font-family="Helvetica,sans-Serif" font-size="10.00" fill="#000000">initializer_list</text>
</g>
<!-- Node1&#45;&gt;Node5 -->
<g id="edge5" class="edge">
<title>Node1&#45;&gt;Node5</title>
<path fill="none" stroke="#191970" d="M235.875,-61.8906C244.9799,-52.5581 258.9974,-38.1902 269.9757,-26.9374"/>
<polygon fill="#191970" stroke="#191970" points="272.5148,-29.3468 276.9928,-19.7449 267.5043,-24.4586 272.5148,-29.3468"/>
</g>
<!-- Node6 -->
<g id="node7" class="node">
<title>Node6</title>
<polygon fill="none" stroke="#bfbfbf" points="346,-.5 346,-19.5 395,-19.5 395,-.5 346,-.5"/>
<text text-anchor="middle" x="370.5" y="-7.5" font-family="Helvetica,sans-Serif" font-size="10.00" fill="#000000">iosfwd</text>
</g>
<!-- Node1&#45;&gt;Node6 -->
<g id="edge6" class="edge">
<title>Node1&#45;&gt;Node6</title>
<path fill="none" stroke="#191970" d="M249,-61.8906C273.0938,-51.6005 311.5213,-35.1888 338.7008,-23.5809"/>
<polygon fill="#191970" stroke="#191970" points="340.3363,-26.6883 348.158,-19.5419 337.5869,-20.2508 340.3363,-26.6883"/>
</g>
<!-- Node8 -->
<g id="node9" class="node">
<title>Node8</title>
<polygon fill="none" stroke="#bfbfbf" points="413.5,-.5 413.5,-19.5 491.5,-19.5 491.5,-.5 413.5,-.5"/>
<text text-anchor="middle" x="452.5" y="-7.5" font-family="Helvetica,sans-Serif" font-size="10.00" fill="#000000">FairModule.h</text>
</g>
<!-- Node7&#45;&gt;Node8 -->
<g id="edge8" class="edge">
<title>Node7&#45;&gt;Node8</title>
<path fill="none" stroke="#191970" d="M434.4326,-56.2977C437.6252,-48.1166 441.5954,-37.943 445.0004,-29.2179"/>
<polygon fill="#191970" stroke="#191970" points="448.2823,-30.4351 448.6573,-19.8469 441.7613,-27.8903 448.2823,-30.4351"/>
</g>
</g>
</svg>
