<?xml version="1.0" encoding="UTF-8" standalone="no"?>
<!DOCTYPE svg PUBLIC "-//W3C//DTD SVG 1.1//EN"
 "http://www.w3.org/Graphics/SVG/1.1/DTD/svg11.dtd">
<!-- Generated by graphviz version 2.40.1 (20161225.0304)
 -->
<!-- Title: /home/travis/build/AliceO2Group/AliceO2/Analysis/Core/src/HistogramManager.cxx Pages: 1 -->
<svg width="1552pt" height="173pt"
 viewBox="0.00 0.00 1551.50 173.00" xmlns="http://www.w3.org/2000/svg" xmlns:xlink="http://www.w3.org/1999/xlink">
<g id="graph0" class="graph" transform="scale(1 1) rotate(0) translate(4 169)">
<title>/home/travis/build/AliceO2Group/AliceO2/Analysis/Core/src/HistogramManager.cxx</title>
<!-- Node0 -->
<g id="node1" class="node">
<title>Node0</title>
<polygon fill="#bfbfbf" stroke="#000000" points="817,-112.5 817,-164.5 975,-164.5 975,-112.5 817,-112.5"/>
<text text-anchor="start" x="825" y="-152.5" font-family="Helvetica,sans-Serif" font-size="10.00" fill="#000000">/home/travis/build</text>
<text text-anchor="start" x="825" y="-141.5" font-family="Helvetica,sans-Serif" font-size="10.00" fill="#000000">/AliceO2Group/AliceO2</text>
<text text-anchor="start" x="825" y="-130.5" font-family="Helvetica,sans-Serif" font-size="10.00" fill="#000000">/Analysis/Core/src/Histogram</text>
<text text-anchor="middle" x="896" y="-119.5" font-family="Helvetica,sans-Serif" font-size="10.00" fill="#000000">Manager.cxx</text>
</g>
<!-- Node1 -->
<g id="node2" class="node">
<title>Node1</title>
<g id="a_node2"><a xlink:href="../../d9/db4/HistogramManager_8h.html" target="_top" xlink:title="Analysis/HistogramManager.h">
<polygon fill="none" stroke="#000000" points="268,-56.5 268,-75.5 430,-75.5 430,-56.5 268,-56.5"/>
<text text-anchor="middle" x="349" y="-63.5" font-family="Helvetica,sans-Serif" font-size="10.00" fill="#000000">Analysis/HistogramManager.h</text>
</a>
</g>
</g>
<!-- Node0&#45;&gt;Node1 -->
<g id="edge1" class="edge">
<title>Node0&#45;&gt;Node1</title>
<path fill="none" stroke="#191970" d="M816.7538,-127.9966C713.8848,-114.3622 535.2405,-90.6845 431.0269,-76.8719"/>
<polygon fill="#191970" stroke="#191970" points="431.2424,-73.37 420.8692,-75.5256 430.3226,-80.3093 431.2424,-73.37"/>
</g>
<!-- Node5 -->
<g id="node6" class="node">
<title>Node5</title>
<polygon fill="none" stroke="#bfbfbf" points="0,-.5 0,-19.5 74,-19.5 74,-.5 0,-.5"/>
<text text-anchor="middle" x="37" y="-7.5" font-family="Helvetica,sans-Serif" font-size="10.00" fill="#000000">THashList.h</text>
</g>
<!-- Node0&#45;&gt;Node5 -->
<g id="edge16" class="edge">
<title>Node0&#45;&gt;Node5</title>
<path fill="none" stroke="#191970" d="M816.8445,-135.5953C695.7012,-130.06 457.4707,-114.8679 259,-76 192.0078,-62.8805 116.2332,-38.1345 72.7891,-22.9533"/>
<polygon fill="#191970" stroke="#191970" points="73.8397,-19.6126 63.2449,-19.5898 71.513,-26.2146 73.8397,-19.6126"/>
</g>
<!-- Node12 -->
<g id="node13" class="node">
<title>Node12</title>
<polygon fill="none" stroke="#bfbfbf" points="448,-56.5 448,-75.5 508,-75.5 508,-56.5 448,-56.5"/>
<text text-anchor="middle" x="478" y="-63.5" font-family="Helvetica,sans-Serif" font-size="10.00" fill="#000000">iostream</text>
</g>
<!-- Node0&#45;&gt;Node12 -->
<g id="edge12" class="edge">
<title>Node0&#45;&gt;Node12</title>
<path fill="none" stroke="#191970" d="M816.7409,-127.3072C740.0177,-116.0225 620.5814,-97.2668 518,-76 517.8992,-75.9791 517.7984,-75.9581 517.6973,-75.9371"/>
<polygon fill="#191970" stroke="#191970" points="518.6022,-72.5529 508.0808,-73.798 517.0823,-79.3859 518.6022,-72.5529"/>
</g>
<!-- Node13 -->
<g id="node14" class="node">
<title>Node13</title>
<polygon fill="none" stroke="#bfbfbf" points="526.5,-56.5 526.5,-75.5 581.5,-75.5 581.5,-56.5 526.5,-56.5"/>
<text text-anchor="middle" x="554" y="-63.5" font-family="Helvetica,sans-Serif" font-size="10.00" fill="#000000">fstream</text>
</g>
<!-- Node0&#45;&gt;Node13 -->
<g id="edge13" class="edge">
<title>Node0&#45;&gt;Node13</title>
<path fill="none" stroke="#191970" d="M816.7116,-123.6474C757.3287,-112.2001 673.9006,-95.4357 591.602,-76.0369"/>
<polygon fill="#191970" stroke="#191970" points="592.3711,-72.6222 581.8333,-73.7204 590.7559,-79.4334 592.3711,-72.6222"/>
</g>
<!-- Node14 -->
<g id="node15" class="node">
<title>Node14</title>
<polygon fill="none" stroke="#bfbfbf" points="599.5,-56.5 599.5,-75.5 662.5,-75.5 662.5,-56.5 599.5,-56.5"/>
<text text-anchor="middle" x="631" y="-63.5" font-family="Helvetica,sans-Serif" font-size="10.00" fill="#000000">TObject.h</text>
</g>
<!-- Node0&#45;&gt;Node14 -->
<g id="edge14" class="edge">
<title>Node0&#45;&gt;Node14</title>
<path fill="none" stroke="#191970" d="M816.8502,-116.8458C769.3895,-103.8613 710.9657,-87.8774 672.4381,-77.3368"/>
<polygon fill="#191970" stroke="#191970" points="673.1773,-73.9105 662.6081,-74.6475 671.33,-80.6624 673.1773,-73.9105"/>
</g>
<!-- Node15 -->
<g id="node16" class="node">
<title>Node15</title>
<polygon fill="none" stroke="#bfbfbf" points="680.5,-56.5 680.5,-75.5 753.5,-75.5 753.5,-56.5 680.5,-56.5"/>
<text text-anchor="middle" x="717" y="-63.5" font-family="Helvetica,sans-Serif" font-size="10.00" fill="#000000">TObjArray.h</text>
</g>
<!-- Node0&#45;&gt;Node15 -->
<g id="edge15" class="edge">
<title>Node0&#45;&gt;Node15</title>
<path fill="none" stroke="#191970" d="M831.6298,-112.4283C804.04,-101.2536 772.9833,-88.6748 750.1621,-79.4316"/>
<polygon fill="#191970" stroke="#191970" points="751.1922,-76.0727 740.6097,-75.5626 748.5644,-82.5607 751.1922,-76.0727"/>
</g>
<!-- Node16 -->
<g id="node17" class="node">
<title>Node16</title>
<polygon fill="none" stroke="#bfbfbf" points="771.5,-56.5 771.5,-75.5 820.5,-75.5 820.5,-56.5 771.5,-56.5"/>
<text text-anchor="middle" x="796" y="-63.5" font-family="Helvetica,sans-Serif" font-size="10.00" fill="#000000">TH1F.h</text>
</g>
<!-- Node0&#45;&gt;Node16 -->
<g id="edge17" class="edge">
<title>Node0&#45;&gt;Node16</title>
<path fill="none" stroke="#191970" d="M859.8977,-112.3258C845.672,-102.0122 829.8158,-90.5165 817.4575,-81.5567"/>
<polygon fill="#191970" stroke="#191970" points="819.3009,-78.5701 809.1503,-75.534 815.1921,-84.2374 819.3009,-78.5701"/>
</g>
<!-- Node17 -->
<g id="node18" class="node">
<title>Node17</title>
<polygon fill="none" stroke="#bfbfbf" points="838.5,-56.5 838.5,-75.5 887.5,-75.5 887.5,-56.5 838.5,-56.5"/>
<text text-anchor="middle" x="863" y="-63.5" font-family="Helvetica,sans-Serif" font-size="10.00" fill="#000000">TH2F.h</text>
</g>
<!-- Node0&#45;&gt;Node17 -->
<g id="edge18" class="edge">
<title>Node0&#45;&gt;Node17</title>
<path fill="none" stroke="#191970" d="M884.0862,-112.3258C879.9387,-103.2138 875.3711,-93.179 871.5507,-84.7857"/>
<polygon fill="#191970" stroke="#191970" points="874.668,-83.1855 867.3396,-75.534 868.2969,-86.0855 874.668,-83.1855"/>
</g>
<!-- Node18 -->
<g id="node19" class="node">
<title>Node18</title>
<polygon fill="none" stroke="#bfbfbf" points="905.5,-56.5 905.5,-75.5 954.5,-75.5 954.5,-56.5 905.5,-56.5"/>
<text text-anchor="middle" x="930" y="-63.5" font-family="Helvetica,sans-Serif" font-size="10.00" fill="#000000">TH3F.h</text>
</g>
<!-- Node0&#45;&gt;Node18 -->
<g id="edge19" class="edge">
<title>Node0&#45;&gt;Node18</title>
<path fill="none" stroke="#191970" d="M908.2748,-112.3258C912.548,-103.2138 917.254,-93.179 921.1902,-84.7857"/>
<polygon fill="#191970" stroke="#191970" points="924.4517,-86.0739 925.5289,-75.534 918.114,-83.1018 924.4517,-86.0739"/>
</g>
<!-- Node19 -->
<g id="node20" class="node">
<title>Node19</title>
<polygon fill="none" stroke="#bfbfbf" points="973,-56.5 973,-75.5 1035,-75.5 1035,-56.5 973,-56.5"/>
<text text-anchor="middle" x="1004" y="-63.5" font-family="Helvetica,sans-Serif" font-size="10.00" fill="#000000">TProfile.h</text>
</g>
<!-- Node0&#45;&gt;Node19 -->
<g id="edge20" class="edge">
<title>Node0&#45;&gt;Node19</title>
<path fill="none" stroke="#191970" d="M934.9905,-112.3258C950.5034,-101.912 967.8116,-90.2931 981.2135,-81.2965"/>
<polygon fill="#191970" stroke="#191970" points="983.4457,-84.0136 989.7976,-75.534 979.5441,-78.2017 983.4457,-84.0136"/>
</g>
<!-- Node20 -->
<g id="node21" class="node">
<title>Node20</title>
<polygon fill="none" stroke="#bfbfbf" points="1053,-56.5 1053,-75.5 1129,-75.5 1129,-56.5 1053,-56.5"/>
<text text-anchor="middle" x="1091" y="-63.5" font-family="Helvetica,sans-Serif" font-size="10.00" fill="#000000">TProfile2D.h</text>
</g>
<!-- Node0&#45;&gt;Node20 -->
<g id="edge21" class="edge">
<title>Node0&#45;&gt;Node20</title>
<path fill="none" stroke="#191970" d="M966.124,-112.4283C996.5842,-101.1033 1030.9236,-88.3361 1055.8722,-79.0604"/>
<polygon fill="#191970" stroke="#191970" points="1057.1266,-82.3281 1065.28,-75.5626 1054.6871,-75.7669 1057.1266,-82.3281"/>
</g>
<!-- Node21 -->
<g id="node22" class="node">
<title>Node21</title>
<polygon fill="none" stroke="#bfbfbf" points="1147,-56.5 1147,-75.5 1223,-75.5 1223,-56.5 1147,-56.5"/>
<text text-anchor="middle" x="1185" y="-63.5" font-family="Helvetica,sans-Serif" font-size="10.00" fill="#000000">TProfile3D.h</text>
</g>
<!-- Node0&#45;&gt;Node21 -->
<g id="edge22" class="edge">
<title>Node0&#45;&gt;Node21</title>
<path fill="none" stroke="#191970" d="M975.3528,-118.5932C1027.1311,-105.6038 1093.0241,-89.0735 1136.9825,-78.0459"/>
<polygon fill="#191970" stroke="#191970" points="1137.9907,-81.4015 1146.8385,-75.5734 1136.2874,-74.6119 1137.9907,-81.4015"/>
</g>
<!-- Node22 -->
<g id="node23" class="node">
<title>Node22</title>
<polygon fill="none" stroke="#bfbfbf" points="1241.5,-56.5 1241.5,-75.5 1286.5,-75.5 1286.5,-56.5 1241.5,-56.5"/>
<text text-anchor="middle" x="1264" y="-63.5" font-family="Helvetica,sans-Serif" font-size="10.00" fill="#000000">THn.h</text>
</g>
<!-- Node0&#45;&gt;Node22 -->
<g id="edge23" class="edge">
<title>Node0&#45;&gt;Node22</title>
<path fill="none" stroke="#191970" d="M975.322,-126.4795C1041.4318,-115.8339 1138.1618,-98.8056 1231.476,-75.8927"/>
<polygon fill="#191970" stroke="#191970" points="1232.5058,-79.2434 1241.3686,-73.438 1230.82,-72.4494 1232.5058,-79.2434"/>
</g>
<!-- Node23 -->
<g id="node24" class="node">
<title>Node23</title>
<polygon fill="none" stroke="#bfbfbf" points="1305,-56.5 1305,-75.5 1383,-75.5 1383,-56.5 1305,-56.5"/>
<text text-anchor="middle" x="1344" y="-63.5" font-family="Helvetica,sans-Serif" font-size="10.00" fill="#000000">THnSparse.h</text>
</g>
<!-- Node0&#45;&gt;Node23 -->
<g id="edge24" class="edge">
<title>Node0&#45;&gt;Node23</title>
<path fill="none" stroke="#191970" d="M975.13,-127.337C1053.7569,-115.9711 1177.9946,-97.2752 1295.1379,-76.0891"/>
<polygon fill="#191970" stroke="#191970" points="1295.7867,-79.5286 1304.9995,-74.2966 1294.5347,-72.6415 1295.7867,-79.5286"/>
</g>
<!-- Node24 -->
<g id="node25" class="node">
<title>Node24</title>
<polygon fill="none" stroke="#bfbfbf" points="1401.5,-56.5 1401.5,-75.5 1468.5,-75.5 1468.5,-56.5 1401.5,-56.5"/>
<text text-anchor="middle" x="1435" y="-63.5" font-family="Helvetica,sans-Serif" font-size="10.00" fill="#000000">TIterator.h</text>
</g>
<!-- Node0&#45;&gt;Node24 -->
<g id="edge25" class="edge">
<title>Node0&#45;&gt;Node24</title>
<path fill="none" stroke="#191970" d="M975.4128,-131.0438C1071.5645,-121.4432 1238.5361,-102.9379 1391.2307,-75.9794"/>
<polygon fill="#191970" stroke="#191970" points="1392.0358,-79.3912 1401.2669,-74.1915 1390.808,-72.4997 1392.0358,-79.3912"/>
</g>
<!-- Node25 -->
<g id="node26" class="node">
<title>Node25</title>
<polygon fill="none" stroke="#bfbfbf" points="1486.5,-56.5 1486.5,-75.5 1543.5,-75.5 1543.5,-56.5 1486.5,-56.5"/>
<text text-anchor="middle" x="1515" y="-63.5" font-family="Helvetica,sans-Serif" font-size="10.00" fill="#000000">TClass.h</text>
</g>
<!-- Node0&#45;&gt;Node25 -->
<g id="edge26" class="edge">
<title>Node0&#45;&gt;Node25</title>
<path fill="none" stroke="#191970" d="M975.1767,-133.9504C1085.7151,-126.721 1292.5325,-110.0056 1476.5634,-76.0402"/>
<polygon fill="#191970" stroke="#191970" points="1477.2313,-79.4761 1486.4192,-74.2004 1475.9468,-72.5949 1477.2313,-79.4761"/>
</g>
<!-- Node2 -->
<g id="node3" class="node">
<title>Node2</title>
<polygon fill="none" stroke="#bfbfbf" points="92,-.5 92,-19.5 152,-19.5 152,-.5 92,-.5"/>
<text text-anchor="middle" x="122" y="-7.5" font-family="Helvetica,sans-Serif" font-size="10.00" fill="#000000">TString.h</text>
</g>
<!-- Node1&#45;&gt;Node2 -->
<g id="edge2" class="edge">
<title>Node1&#45;&gt;Node2</title>
<path fill="none" stroke="#191970" d="M309.9502,-56.4397C272.1119,-47.1652 213.109,-32.6747 162,-20 161.9001,-19.9752 161.8001,-19.9504 161.7,-19.9256"/>
<polygon fill="#191970" stroke="#191970" points="162.687,-16.5645 152.1378,-17.5474 160.9974,-23.3576 162.687,-16.5645"/>
</g>
<!-- Node3 -->
<g id="node4" class="node">
<title>Node3</title>
<polygon fill="none" stroke="#bfbfbf" points="170.5,-.5 170.5,-19.5 237.5,-19.5 237.5,-.5 170.5,-.5"/>
<text text-anchor="middle" x="204" y="-7.5" font-family="Helvetica,sans-Serif" font-size="10.00" fill="#000000">TNamed.h</text>
</g>
<!-- Node1&#45;&gt;Node3 -->
<g id="edge3" class="edge">
<title>Node1&#45;&gt;Node3</title>
<path fill="none" stroke="#191970" d="M324.0736,-56.3733C300.3798,-47.2226 264.5489,-33.3844 238.1932,-23.2057"/>
<polygon fill="#191970" stroke="#191970" points="239.1906,-19.8389 228.6011,-19.5011 236.6686,-26.3689 239.1906,-19.8389"/>
</g>
<!-- Node4 -->
<g id="node5" class="node">
<title>Node4</title>
<polygon fill="none" stroke="#bfbfbf" points="255.5,-.5 255.5,-19.5 304.5,-19.5 304.5,-.5 255.5,-.5"/>
<text text-anchor="middle" x="280" y="-7.5" font-family="Helvetica,sans-Serif" font-size="10.00" fill="#000000">TList.h</text>
</g>
<!-- Node1&#45;&gt;Node4 -->
<g id="edge4" class="edge">
<title>Node1&#45;&gt;Node4</title>
<path fill="none" stroke="#191970" d="M336.9811,-56.2455C326.7902,-47.9746 311.9638,-35.9416 299.9893,-26.2232"/>
<polygon fill="#191970" stroke="#191970" points="301.8514,-23.2268 291.8812,-19.6427 297.4402,-28.662 301.8514,-23.2268"/>
</g>
<!-- Node1&#45;&gt;Node5 -->
<g id="edge5" class="edge">
<title>Node1&#45;&gt;Node5</title>
<path fill="none" stroke="#191970" d="M289.7034,-56.4925C237.9234,-48.0202 160.5075,-34.9452 83.9457,-20.1252"/>
<polygon fill="#191970" stroke="#191970" points="84.6134,-16.6896 74.1289,-18.2143 83.2759,-23.5606 84.6134,-16.6896"/>
</g>
<!-- Node6 -->
<g id="node7" class="node">
<title>Node6</title>
<polygon fill="none" stroke="#bfbfbf" points="323,-.5 323,-19.5 375,-19.5 375,-.5 323,-.5"/>
<text text-anchor="middle" x="349" y="-7.5" font-family="Helvetica,sans-Serif" font-size="10.00" fill="#000000">TAxis.h</text>
</g>
<!-- Node1&#45;&gt;Node6 -->
<g id="edge6" class="edge">
<title>Node1&#45;&gt;Node6</title>
<path fill="none" stroke="#191970" d="M349,-56.2455C349,-48.9382 349,-38.6944 349,-29.7046"/>
<polygon fill="#191970" stroke="#191970" points="352.5001,-29.6426 349,-19.6427 345.5001,-29.6427 352.5001,-29.6426"/>
</g>
<!-- Node7 -->
<g id="node8" class="node">
<title>Node7</title>
<polygon fill="none" stroke="#bfbfbf" points="393.5,-.5 393.5,-19.5 458.5,-19.5 458.5,-.5 393.5,-.5"/>
<text text-anchor="middle" x="426" y="-7.5" font-family="Helvetica,sans-Serif" font-size="10.00" fill="#000000">TArrayD.h</text>
</g>
<!-- Node1&#45;&gt;Node7 -->
<g id="edge7" class="edge">
<title>Node1&#45;&gt;Node7</title>
<path fill="none" stroke="#191970" d="M362.4124,-56.2455C374.0057,-47.814 390.9748,-35.4729 404.4678,-25.6598"/>
<polygon fill="#191970" stroke="#191970" points="406.7126,-28.355 412.7413,-19.6427 402.5953,-22.6938 406.7126,-28.355"/>
</g>
<!-- Node8 -->
<g id="node9" class="node">
<title>Node8</title>
<polygon fill="none" stroke="#bfbfbf" points="477,-.5 477,-19.5 521,-19.5 521,-.5 477,-.5"/>
<text text-anchor="middle" x="499" y="-7.5" font-family="Helvetica,sans-Serif" font-size="10.00" fill="#000000">string</text>
</g>
<!-- Node1&#45;&gt;Node8 -->
<g id="edge8" class="edge">
<title>Node1&#45;&gt;Node8</title>
<path fill="none" stroke="#191970" d="M374.7859,-56.3733C400.4491,-46.7923 439.8764,-32.0728 467.406,-21.7951"/>
<polygon fill="#191970" stroke="#191970" points="468.8184,-25.0038 476.9627,-18.2273 466.3701,-18.4459 468.8184,-25.0038"/>
</g>
<!-- Node9 -->
<g id="node10" class="node">
<title>Node9</title>
<polygon fill="none" stroke="#bfbfbf" points="539,-.5 539,-19.5 577,-19.5 577,-.5 539,-.5"/>
<text text-anchor="middle" x="558" y="-7.5" font-family="Helvetica,sans-Serif" font-size="10.00" fill="#000000">map</text>
</g>
<!-- Node1&#45;&gt;Node9 -->
<g id="edge9" class="edge">
<title>Node1&#45;&gt;Node9</title>
<path fill="none" stroke="#191970" d="M391.37,-56.4241C426.09,-48.3109 476.659,-35.8888 529.0078,-20.1106"/>
<polygon fill="#191970" stroke="#191970" points="530.2549,-23.3895 538.7998,-17.1257 528.2137,-16.6937 530.2549,-23.3895"/>
</g>
<!-- Node10 -->
<g id="node11" class="node">
<title>Node10</title>
<polygon fill="none" stroke="#bfbfbf" points="595.5,-.5 595.5,-19.5 642.5,-19.5 642.5,-.5 595.5,-.5"/>
<text text-anchor="middle" x="619" y="-7.5" font-family="Helvetica,sans-Serif" font-size="10.00" fill="#000000">vector</text>
</g>
<!-- Node1&#45;&gt;Node10 -->
<g id="edge10" class="edge">
<title>Node1&#45;&gt;Node10</title>
<path fill="none" stroke="#191970" d="M406.8305,-56.4839C452.7818,-48.534 518.8371,-36.2444 585.4567,-19.938"/>
<polygon fill="#191970" stroke="#191970" points="586.4224,-23.3047 595.2876,-17.5031 584.7395,-16.51 586.4224,-23.3047"/>
</g>
<!-- Node11 -->
<g id="node12" class="node">
<title>Node11</title>
<polygon fill="none" stroke="#bfbfbf" points="661,-.5 661,-19.5 693,-19.5 693,-.5 661,-.5"/>
<text text-anchor="middle" x="677" y="-7.5" font-family="Helvetica,sans-Serif" font-size="10.00" fill="#000000">list</text>
</g>
<!-- Node1&#45;&gt;Node11 -->
<g id="edge11" class="edge">
<title>Node1&#45;&gt;Node11</title>
<path fill="none" stroke="#191970" d="M425.0847,-56.4786C495.8993,-47.2737 597.2825,-33.1372 651.0055,-19.7002"/>
<polygon fill="#191970" stroke="#191970" points="652.007,-23.0557 660.7778,-17.1124 650.215,-16.2889 652.007,-23.0557"/>
</g>
</g>
</svg>
