<?xml version="1.0" encoding="UTF-8" standalone="no"?>
<!DOCTYPE svg PUBLIC "-//W3C//DTD SVG 1.1//EN"
 "http://www.w3.org/Graphics/SVG/1.1/DTD/svg11.dtd">
<!-- Generated by graphviz version 2.40.1 (20161225.0304)
 -->
<!-- Title: /home/travis/build/AliceO2Group/AliceO2/GPU/GPUTracking/TPCClusterFinder/GPUTPCCFChainContext.h Pages: 1 -->
<svg width="950pt" height="397pt"
 viewBox="0.00 0.00 950.00 397.00" xmlns="http://www.w3.org/2000/svg" xmlns:xlink="http://www.w3.org/1999/xlink">
<g id="graph0" class="graph" transform="scale(1 1) rotate(0) translate(4 393)">
<title>/home/travis/build/AliceO2Group/AliceO2/GPU/GPUTracking/TPCClusterFinder/GPUTPCCFChainContext.h</title>
<!-- Node0 -->
<g id="node1" class="node">
<title>Node0</title>
<polygon fill="#bfbfbf" stroke="#000000" points="576.5,-336.5 576.5,-388.5 767.5,-388.5 767.5,-336.5 576.5,-336.5"/>
<text text-anchor="start" x="584.5" y="-376.5" font-family="Helvetica,sans-Serif" font-size="10.00" fill="#000000">/home/travis/build</text>
<text text-anchor="start" x="584.5" y="-365.5" font-family="Helvetica,sans-Serif" font-size="10.00" fill="#000000">/AliceO2Group/AliceO2</text>
<text text-anchor="start" x="584.5" y="-354.5" font-family="Helvetica,sans-Serif" font-size="10.00" fill="#000000">/GPU/GPUTracking/TPCClusterFinder</text>
<text text-anchor="middle" x="672" y="-343.5" font-family="Helvetica,sans-Serif" font-size="10.00" fill="#000000">/GPUTPCCFChainContext.h</text>
</g>
<!-- Node1 -->
<g id="node2" class="node">
<title>Node1</title>
<g id="a_node2"><a xlink:href="../../d9/db0/clusterFinderDefs_8h.html" target="_top" xlink:title="clusterFinderDefs.h">
<polygon fill="none" stroke="#000000" points="394,-168.5 394,-187.5 504,-187.5 504,-168.5 394,-168.5"/>
<text text-anchor="middle" x="449" y="-175.5" font-family="Helvetica,sans-Serif" font-size="10.00" fill="#000000">clusterFinderDefs.h</text>
</a>
</g>
</g>
<!-- Node0&#45;&gt;Node1 -->
<g id="edge1" class="edge">
<title>Node0&#45;&gt;Node1</title>
<path fill="none" stroke="#191970" d="M611.771,-336.4736C592.0499,-326.5273 570.6826,-314.1317 553,-300 514.0789,-268.8948 478.7361,-221.635 460.9992,-196.024"/>
<polygon fill="#191970" stroke="#191970" points="463.8094,-193.9325 455.2871,-187.6379 458.024,-197.8731 463.8094,-193.9325"/>
</g>
<!-- Node12 -->
<g id="node13" class="node">
<title>Node12</title>
<g id="a_node13"><a xlink:href="../../d4/dc5/GPUDataTypes_8h.html" target="_top" xlink:title="GPUDataTypes.h">
<polygon fill="none" stroke="#000000" points="715,-224.5 715,-243.5 813,-243.5 813,-224.5 715,-224.5"/>
<text text-anchor="middle" x="764" y="-231.5" font-family="Helvetica,sans-Serif" font-size="10.00" fill="#000000">GPUDataTypes.h</text>
</a>
</g>
</g>
<!-- Node0&#45;&gt;Node12 -->
<g id="edge12" class="edge">
<title>Node0&#45;&gt;Node12</title>
<path fill="none" stroke="#191970" d="M690.6176,-336.4961C708.6269,-311.3418 735.4402,-273.8906 751.1791,-251.9075"/>
<polygon fill="#191970" stroke="#191970" points="754.2127,-253.6826 757.1883,-243.5142 748.5211,-249.6076 754.2127,-253.6826"/>
</g>
<!-- Node14 -->
<g id="node15" class="node">
<title>Node14</title>
<g id="a_node15"><a xlink:href="../../d6/d4b/GPUTPCClusterFinder_8h.html" target="_top" xlink:title="GPUTPCClusterFinder.h">
<polygon fill="none" stroke="#000000" points="562,-280.5 562,-299.5 690,-299.5 690,-280.5 562,-280.5"/>
<text text-anchor="middle" x="626" y="-287.5" font-family="Helvetica,sans-Serif" font-size="10.00" fill="#000000">GPUTPCClusterFinder.h</text>
</a>
</g>
</g>
<!-- Node0&#45;&gt;Node14 -->
<g id="edge15" class="edge">
<title>Node0&#45;&gt;Node14</title>
<path fill="none" stroke="#191970" d="M655.3929,-336.3258C649.4844,-327.0135 642.9645,-316.7375 637.5696,-308.2347"/>
<polygon fill="#191970" stroke="#191970" points="640.362,-306.1027 632.0492,-299.534 634.4513,-309.8529 640.362,-306.1027"/>
</g>
<!-- Node20 -->
<g id="node21" class="node">
<title>Node20</title>
<polygon fill="none" stroke="#bfbfbf" points="746.5,-280.5 746.5,-299.5 793.5,-299.5 793.5,-280.5 746.5,-280.5"/>
<text text-anchor="middle" x="770" y="-287.5" font-family="Helvetica,sans-Serif" font-size="10.00" fill="#000000">vector</text>
</g>
<!-- Node0&#45;&gt;Node20 -->
<g id="edge29" class="edge">
<title>Node0&#45;&gt;Node20</title>
<path fill="none" stroke="#191970" d="M707.3802,-336.3258C721.3215,-326.0122 736.8605,-314.5165 748.9716,-305.5567"/>
<polygon fill="#191970" stroke="#191970" points="751.155,-308.2951 757.1127,-299.534 746.9918,-302.6677 751.155,-308.2951"/>
</g>
<!-- Node2 -->
<g id="node3" class="node">
<title>Node2</title>
<g id="a_node3"><a xlink:href="../../d2/d6d/GPUDef_8h.html" target="_top" xlink:title="GPUDef.h">
<polygon fill="none" stroke="#000000" points="392.5,-112.5 392.5,-131.5 455.5,-131.5 455.5,-112.5 392.5,-112.5"/>
<text text-anchor="middle" x="424" y="-119.5" font-family="Helvetica,sans-Serif" font-size="10.00" fill="#000000">GPUDef.h</text>
</a>
</g>
</g>
<!-- Node1&#45;&gt;Node2 -->
<g id="edge2" class="edge">
<title>Node1&#45;&gt;Node2</title>
<path fill="none" stroke="#191970" d="M444.6453,-168.2455C441.2756,-160.6973 436.507,-150.0158 432.4017,-140.8197"/>
<polygon fill="#191970" stroke="#191970" points="435.5773,-139.3473 428.3048,-131.6427 429.1853,-142.2009 435.5773,-139.3473"/>
</g>
<!-- Node3 -->
<g id="node4" class="node">
<title>Node3</title>
<g id="a_node4"><a xlink:href="../../df/d21/GPUCommonDef_8h.html" target="_top" xlink:title="GPUCommonDef.h">
<polygon fill="none" stroke="#000000" points="673.5,-56.5 673.5,-75.5 780.5,-75.5 780.5,-56.5 673.5,-56.5"/>
<text text-anchor="middle" x="727" y="-63.5" font-family="Helvetica,sans-Serif" font-size="10.00" fill="#000000">GPUCommonDef.h</text>
</a>
</g>
</g>
<!-- Node2&#45;&gt;Node3 -->
<g id="edge3" class="edge">
<title>Node2&#45;&gt;Node3</title>
<path fill="none" stroke="#191970" d="M455.5688,-116.1655C505.0625,-107.0182 601.8264,-89.1344 665.4361,-77.3782"/>
<polygon fill="#191970" stroke="#191970" points="666.1507,-80.8054 675.348,-75.5462 664.8784,-73.922 666.1507,-80.8054"/>
</g>
<!-- Node6 -->
<g id="node7" class="node">
<title>Node6</title>
<g id="a_node7"><a xlink:href="../../d2/d37/GPUDefConstantsAndSettings_8h.html" target="_top" xlink:title="GPUDefConstantsAndSettings.h">
<polygon fill="none" stroke="#000000" points="325.5,-56.5 325.5,-75.5 496.5,-75.5 496.5,-56.5 325.5,-56.5"/>
<text text-anchor="middle" x="411" y="-63.5" font-family="Helvetica,sans-Serif" font-size="10.00" fill="#000000">GPUDefConstantsAndSettings.h</text>
</a>
</g>
</g>
<!-- Node2&#45;&gt;Node6 -->
<g id="edge6" class="edge">
<title>Node2&#45;&gt;Node6</title>
<path fill="none" stroke="#191970" d="M421.7356,-112.2455C420.0206,-104.8579 417.6088,-94.4689 415.5056,-85.4087"/>
<polygon fill="#191970" stroke="#191970" points="418.9092,-84.5922 413.2385,-75.6427 412.0905,-86.1751 418.9092,-84.5922"/>
</g>
<!-- Node7 -->
<g id="node8" class="node">
<title>Node7</title>
<g id="a_node8"><a xlink:href="../../dc/de9/GPUDefGPUParameters_8h.html" target="_top" xlink:title="GPUDefGPUParameters.h">
<polygon fill="none" stroke="#000000" points="515,-56.5 515,-75.5 655,-75.5 655,-56.5 515,-56.5"/>
<text text-anchor="middle" x="585" y="-63.5" font-family="Helvetica,sans-Serif" font-size="10.00" fill="#000000">GPUDefGPUParameters.h</text>
</a>
</g>
</g>
<!-- Node2&#45;&gt;Node7 -->
<g id="edge7" class="edge">
<title>Node2&#45;&gt;Node7</title>
<path fill="none" stroke="#191970" d="M451.6769,-112.3733C478.3328,-103.1016 518.8238,-89.0178 548.1884,-78.804"/>
<polygon fill="#191970" stroke="#191970" points="549.3891,-82.0921 557.6843,-75.5011 547.0895,-75.4807 549.3891,-82.0921"/>
</g>
<!-- Node9 -->
<g id="node10" class="node">
<title>Node9</title>
<g id="a_node10"><a xlink:href="../../d3/d4c/GPUDefOpenCL12Templates_8h.html" target="_top" xlink:title="GPUDefOpenCL12Templates.h">
<polygon fill="none" stroke="#000000" points="0,-56.5 0,-75.5 164,-75.5 164,-56.5 0,-56.5"/>
<text text-anchor="middle" x="82" y="-63.5" font-family="Helvetica,sans-Serif" font-size="10.00" fill="#000000">GPUDefOpenCL12Templates.h</text>
</a>
</g>
</g>
<!-- Node2&#45;&gt;Node9 -->
<g id="edge9" class="edge">
<title>Node2&#45;&gt;Node9</title>
<path fill="none" stroke="#191970" d="M392.4385,-116.832C337.6357,-107.8585 223.7109,-89.2041 150.1636,-77.1613"/>
<polygon fill="#191970" stroke="#191970" points="150.4982,-73.6695 140.064,-75.5076 149.367,-80.5776 150.4982,-73.6695"/>
</g>
<!-- Node10 -->
<g id="node11" class="node">
<title>Node10</title>
<g id="a_node11"><a xlink:href="../../d2/d45/GPUCommonRtypes_8h.html" target="_top" xlink:title="GPUCommonRtypes.h">
<polygon fill="none" stroke="#000000" points="182.5,-56.5 182.5,-75.5 307.5,-75.5 307.5,-56.5 182.5,-56.5"/>
<text text-anchor="middle" x="245" y="-63.5" font-family="Helvetica,sans-Serif" font-size="10.00" fill="#000000">GPUCommonRtypes.h</text>
</a>
</g>
</g>
<!-- Node2&#45;&gt;Node10 -->
<g id="edge10" class="edge">
<title>Node2&#45;&gt;Node10</title>
<path fill="none" stroke="#191970" d="M393.2288,-112.3733C363.335,-103.021 317.7907,-88.7725 285.0783,-78.5385"/>
<polygon fill="#191970" stroke="#191970" points="285.9586,-75.1466 275.3697,-75.5011 283.8685,-81.8273 285.9586,-75.1466"/>
</g>
<!-- Node4 -->
<g id="node5" class="node">
<title>Node4</title>
<g id="a_node5"><a xlink:href="../../d5/d93/GPUCommonDefSettings_8h.html" target="_top" xlink:title="GPUCommonDefSettings.h">
<polygon fill="none" stroke="#000000" points="652,-.5 652,-19.5 800,-19.5 800,-.5 652,-.5"/>
<text text-anchor="middle" x="726" y="-7.5" font-family="Helvetica,sans-Serif" font-size="10.00" fill="#000000">GPUCommonDefSettings.h</text>
</a>
</g>
</g>
<!-- Node3&#45;&gt;Node4 -->
<g id="edge4" class="edge">
<title>Node3&#45;&gt;Node4</title>
<path fill="none" stroke="#191970" d="M726.8258,-56.2455C726.6953,-48.9382 726.5124,-38.6944 726.3519,-29.7046"/>
<polygon fill="#191970" stroke="#191970" points="729.8503,-29.5786 726.1722,-19.6427 722.8514,-29.7036 729.8503,-29.5786"/>
</g>
<!-- Node5 -->
<g id="node6" class="node">
<title>Node5</title>
<g id="a_node6"><a xlink:href="../../da/d5a/GPUCommonDefAPI_8h.html" target="_top" xlink:title="GPUCommonDefAPI.h">
<polygon fill="none" stroke="#000000" points="818,-.5 818,-19.5 942,-19.5 942,-.5 818,-.5"/>
<text text-anchor="middle" x="880" y="-7.5" font-family="Helvetica,sans-Serif" font-size="10.00" fill="#000000">GPUCommonDefAPI.h</text>
</a>
</g>
</g>
<!-- Node3&#45;&gt;Node5 -->
<g id="edge5" class="edge">
<title>Node3&#45;&gt;Node5</title>
<path fill="none" stroke="#191970" d="M753.3016,-56.3733C778.4128,-47.1822 816.4438,-33.2624 844.2872,-23.0713"/>
<polygon fill="#191970" stroke="#191970" points="845.8538,-26.2251 854.0416,-19.5011 843.4478,-19.6516 845.8538,-26.2251"/>
</g>
<!-- Node8 -->
<g id="node9" class="node">
<title>Node8</title>
<g id="a_node9"><a xlink:href="../../d6/dff/GPUDefMacros_8h.html" target="_top" xlink:title="GPUDefMacros.h">
<polygon fill="none" stroke="#000000" points="536,-.5 536,-19.5 634,-19.5 634,-.5 536,-.5"/>
<text text-anchor="middle" x="585" y="-7.5" font-family="Helvetica,sans-Serif" font-size="10.00" fill="#000000">GPUDefMacros.h</text>
</a>
</g>
</g>
<!-- Node7&#45;&gt;Node8 -->
<g id="edge8" class="edge">
<title>Node7&#45;&gt;Node8</title>
<path fill="none" stroke="#191970" d="M585,-56.2455C585,-48.9382 585,-38.6944 585,-29.7046"/>
<polygon fill="#191970" stroke="#191970" points="588.5001,-29.6426 585,-19.6427 581.5001,-29.6427 588.5001,-29.6426"/>
</g>
<!-- Node11 -->
<g id="node12" class="node">
<title>Node11</title>
<polygon fill="none" stroke="#bfbfbf" points="215.5,-.5 215.5,-19.5 274.5,-19.5 274.5,-.5 215.5,-.5"/>
<text text-anchor="middle" x="245" y="-7.5" font-family="Helvetica,sans-Serif" font-size="10.00" fill="#000000">Rtypes.h</text>
</g>
<!-- Node10&#45;&gt;Node11 -->
<g id="edge11" class="edge">
<title>Node10&#45;&gt;Node11</title>
<path fill="none" stroke="#191970" d="M245,-56.2455C245,-48.9382 245,-38.6944 245,-29.7046"/>
<polygon fill="#191970" stroke="#191970" points="248.5001,-29.6426 245,-19.6427 241.5001,-29.6427 248.5001,-29.6426"/>
</g>
<!-- Node12&#45;&gt;Node3 -->
<g id="edge13" class="edge">
<title>Node12&#45;&gt;Node3</title>
<path fill="none" stroke="#191970" d="M772.4728,-224.2911C790.0464,-202.914 827.0547,-150.6109 805,-112 796.6846,-97.4424 781.762,-87.0309 767.1797,-79.8375"/>
<polygon fill="#191970" stroke="#191970" points="768.2733,-76.491 757.7191,-75.5638 765.3915,-82.8703 768.2733,-76.491"/>
</g>
<!-- Node13 -->
<g id="node14" class="node">
<title>Node13</title>
<polygon fill="none" stroke="#bfbfbf" points="742.5,-112.5 742.5,-131.5 795.5,-131.5 795.5,-112.5 742.5,-112.5"/>
<text text-anchor="middle" x="769" y="-119.5" font-family="Helvetica,sans-Serif" font-size="10.00" fill="#000000">cstddef</text>
</g>
<!-- Node12&#45;&gt;Node13 -->
<g id="edge14" class="edge">
<title>Node12&#45;&gt;Node13</title>
<path fill="none" stroke="#191970" d="M764.4263,-224.4509C765.2418,-206.184 767.0377,-165.9553 768.1206,-141.6976"/>
<polygon fill="#191970" stroke="#191970" points="771.6252,-141.6711 768.5748,-131.5249 764.6322,-141.3588 771.6252,-141.6711"/>
</g>
<!-- Node14&#45;&gt;Node2 -->
<g id="edge16" class="edge">
<title>Node14&#45;&gt;Node2</title>
<path fill="none" stroke="#191970" d="M561.7787,-282.4119C504.5602,-271.874 424.0247,-246.8927 385,-188 374.0827,-171.5245 388.9543,-151.9548 403.3692,-138.4245"/>
<polygon fill="#191970" stroke="#191970" points="405.9544,-140.8126 411.1639,-131.587 401.3382,-135.5503 405.9544,-140.8126"/>
</g>
<!-- Node14&#45;&gt;Node12 -->
<g id="edge22" class="edge">
<title>Node14&#45;&gt;Node12</title>
<path fill="none" stroke="#191970" d="M649.723,-280.3733C672.1737,-271.2629 706.0739,-257.5062 731.1255,-247.3404"/>
<polygon fill="#191970" stroke="#191970" points="732.6365,-250.5045 740.5865,-243.5011 730.0043,-244.0182 732.6365,-250.5045"/>
</g>
<!-- Node15 -->
<g id="node16" class="node">
<title>Node15</title>
<g id="a_node16"><a xlink:href="../../d6/d57/GPUProcessor_8h.html" target="_top" xlink:title="GPUProcessor.h">
<polygon fill="none" stroke="#000000" points="655.5,-168.5 655.5,-187.5 748.5,-187.5 748.5,-168.5 655.5,-168.5"/>
<text text-anchor="middle" x="702" y="-175.5" font-family="Helvetica,sans-Serif" font-size="10.00" fill="#000000">GPUProcessor.h</text>
</a>
</g>
</g>
<!-- Node14&#45;&gt;Node15 -->
<g id="edge17" class="edge">
<title>Node14&#45;&gt;Node15</title>
<path fill="none" stroke="#191970" d="M632.4797,-280.4509C645.1556,-261.7707 673.416,-220.1238 689.734,-196.0761"/>
<polygon fill="#191970" stroke="#191970" points="692.8178,-197.7649 695.5367,-187.5249 687.0255,-193.8344 692.8178,-197.7649"/>
</g>
<!-- Node17 -->
<g id="node18" class="node">
<title>Node17</title>
<g id="a_node18"><a xlink:href="../../d8/dcc/CfFragment_8h.html" target="_top" xlink:title="CfFragment.h">
<polygon fill="none" stroke="#000000" points="539,-224.5 539,-243.5 621,-243.5 621,-224.5 539,-224.5"/>
<text text-anchor="middle" x="580" y="-231.5" font-family="Helvetica,sans-Serif" font-size="10.00" fill="#000000">CfFragment.h</text>
</a>
</g>
</g>
<!-- Node14&#45;&gt;Node17 -->
<g id="edge23" class="edge">
<title>Node14&#45;&gt;Node17</title>
<path fill="none" stroke="#191970" d="M617.9874,-280.2455C611.5232,-272.3761 602.2615,-261.101 594.5017,-251.6542"/>
<polygon fill="#191970" stroke="#191970" points="596.9727,-249.1484 587.9208,-243.6427 591.5636,-253.5916 596.9727,-249.1484"/>
</g>
<!-- Node15&#45;&gt;Node2 -->
<g id="edge19" class="edge">
<title>Node15&#45;&gt;Node2</title>
<path fill="none" stroke="#191970" d="M655.4691,-168.6269C602.3981,-157.9363 516.4139,-140.6157 465.5255,-130.3648"/>
<polygon fill="#191970" stroke="#191970" points="466.0241,-126.895 455.5298,-128.3513 464.6417,-133.7572 466.0241,-126.895"/>
</g>
<!-- Node15&#45;&gt;Node3 -->
<g id="edge18" class="edge">
<title>Node15&#45;&gt;Node3</title>
<path fill="none" stroke="#191970" d="M704.1315,-168.4509C708.2274,-150.1013 717.2699,-109.5908 722.6765,-85.3693"/>
<polygon fill="#191970" stroke="#191970" points="726.1112,-86.0472 724.8739,-75.5249 719.2794,-84.5222 726.1112,-86.0472"/>
</g>
<!-- Node15&#45;&gt;Node13 -->
<g id="edge20" class="edge">
<title>Node15&#45;&gt;Node13</title>
<path fill="none" stroke="#191970" d="M713.6705,-168.2455C723.5661,-159.9746 737.9627,-147.9416 749.5901,-138.2232"/>
<polygon fill="#191970" stroke="#191970" points="752.035,-140.7413 757.4632,-131.6427 747.5458,-135.3703 752.035,-140.7413"/>
</g>
<!-- Node16 -->
<g id="node17" class="node">
<title>Node16</title>
<polygon fill="none" stroke="#bfbfbf" points="622,-112.5 622,-131.5 686,-131.5 686,-112.5 622,-112.5"/>
<text text-anchor="middle" x="654" y="-119.5" font-family="Helvetica,sans-Serif" font-size="10.00" fill="#000000">algorithm</text>
</g>
<!-- Node15&#45;&gt;Node16 -->
<g id="edge21" class="edge">
<title>Node15&#45;&gt;Node16</title>
<path fill="none" stroke="#191970" d="M693.639,-168.2455C686.825,-160.2958 677.0319,-148.8706 668.8848,-139.3656"/>
<polygon fill="#191970" stroke="#191970" points="671.4305,-136.9575 662.2651,-131.6427 666.1157,-141.513 671.4305,-136.9575"/>
</g>
<!-- Node17&#45;&gt;Node1 -->
<g id="edge24" class="edge">
<title>Node17&#45;&gt;Node1</title>
<path fill="none" stroke="#191970" d="M557.4803,-224.3733C536.2628,-215.3032 504.2724,-201.6279 480.5231,-191.4755"/>
<polygon fill="#191970" stroke="#191970" points="481.7967,-188.2136 471.2258,-187.5011 479.0452,-194.6502 481.7967,-188.2136"/>
</g>
<!-- Node18 -->
<g id="node19" class="node">
<title>Node18</title>
<g id="a_node19"><a xlink:href="../../d6/da2/GPUCommonMath_8h.html" target="_top" xlink:title="GPUCommonMath.h">
<polygon fill="none" stroke="#000000" points="522.5,-168.5 522.5,-187.5 637.5,-187.5 637.5,-168.5 522.5,-168.5"/>
<text text-anchor="middle" x="580" y="-175.5" font-family="Helvetica,sans-Serif" font-size="10.00" fill="#000000">GPUCommonMath.h</text>
</a>
</g>
</g>
<!-- Node17&#45;&gt;Node18 -->
<g id="edge25" class="edge">
<title>Node17&#45;&gt;Node18</title>
<path fill="none" stroke="#191970" d="M580,-224.2455C580,-216.9382 580,-206.6944 580,-197.7046"/>
<polygon fill="#191970" stroke="#191970" points="583.5001,-197.6426 580,-187.6427 576.5001,-197.6427 583.5001,-197.6426"/>
</g>
<!-- Node18&#45;&gt;Node3 -->
<g id="edge26" class="edge">
<title>Node18&#45;&gt;Node3</title>
<path fill="none" stroke="#191970" d="M569.0296,-168.3409C555.0061,-154.8233 534.1093,-129.9117 548,-112 555.5423,-102.2744 618.341,-87.6833 667.4528,-77.5523"/>
<polygon fill="#191970" stroke="#191970" points="668.2878,-80.9541 677.3858,-75.5249 666.8879,-74.0955 668.2878,-80.9541"/>
</g>
<!-- Node18&#45;&gt;Node16 -->
<g id="edge28" class="edge">
<title>Node18&#45;&gt;Node16</title>
<path fill="none" stroke="#191970" d="M592.8898,-168.2455C603.9254,-159.8943 620.0292,-147.7076 632.9353,-137.9408"/>
<polygon fill="#191970" stroke="#191970" points="635.3959,-140.4681 641.2579,-131.6427 631.1717,-134.8862 635.3959,-140.4681"/>
</g>
<!-- Node19 -->
<g id="node20" class="node">
<title>Node19</title>
<polygon fill="none" stroke="#bfbfbf" points="556.5,-112.5 556.5,-131.5 603.5,-131.5 603.5,-112.5 556.5,-112.5"/>
<text text-anchor="middle" x="580" y="-119.5" font-family="Helvetica,sans-Serif" font-size="10.00" fill="#000000">cmath</text>
</g>
<!-- Node18&#45;&gt;Node19 -->
<g id="edge27" class="edge">
<title>Node18&#45;&gt;Node19</title>
<path fill="none" stroke="#191970" d="M580,-168.2455C580,-160.9382 580,-150.6944 580,-141.7046"/>
<polygon fill="#191970" stroke="#191970" points="583.5001,-141.6426 580,-131.6427 576.5001,-141.6427 583.5001,-141.6426"/>
</g>
</g>
</svg>
