<?xml version="1.0" encoding="UTF-8" standalone="no"?>
<!DOCTYPE svg PUBLIC "-//W3C//DTD SVG 1.1//EN"
 "http://www.w3.org/Graphics/SVG/1.1/DTD/svg11.dtd">
<!-- Generated by graphviz version 2.40.1 (20161225.0304)
 -->
<!-- Title: /home/travis/build/AliceO2Group/AliceO2/GPU/GPUTracking/SliceTracker/GPUTPCStartHitsFinder.cxx Pages: 1 -->
<svg width="1600pt" height="621pt"
 viewBox="0.00 0.00 1599.50 621.00" xmlns="http://www.w3.org/2000/svg" xmlns:xlink="http://www.w3.org/1999/xlink">
<g id="graph0" class="graph" transform="scale(1 1) rotate(0) translate(4 617)">
<title>/home/travis/build/AliceO2Group/AliceO2/GPU/GPUTracking/SliceTracker/GPUTPCStartHitsFinder.cxx</title>
<!-- Node0 -->
<g id="node1" class="node">
<title>Node0</title>
<polygon fill="#bfbfbf" stroke="#000000" points="955.5,-560.5 955.5,-612.5 1122.5,-612.5 1122.5,-560.5 955.5,-560.5"/>
<text text-anchor="start" x="963.5" y="-600.5" font-family="Helvetica,sans-Serif" font-size="10.00" fill="#000000">/home/travis/build</text>
<text text-anchor="start" x="963.5" y="-589.5" font-family="Helvetica,sans-Serif" font-size="10.00" fill="#000000">/AliceO2Group/AliceO2</text>
<text text-anchor="start" x="963.5" y="-578.5" font-family="Helvetica,sans-Serif" font-size="10.00" fill="#000000">/GPU/GPUTracking/SliceTracker</text>
<text text-anchor="middle" x="1039" y="-567.5" font-family="Helvetica,sans-Serif" font-size="10.00" fill="#000000">/GPUTPCStartHitsFinder.cxx</text>
</g>
<!-- Node1 -->
<g id="node2" class="node">
<title>Node1</title>
<g id="a_node2"><a xlink:href="../../d0/d04/GPUTPCStartHitsFinder_8h.html" target="_top" xlink:title="GPUTPCStartHitsFinder.h">
<polygon fill="none" stroke="#000000" points="970.5,-504.5 970.5,-523.5 1107.5,-523.5 1107.5,-504.5 970.5,-504.5"/>
<text text-anchor="middle" x="1039" y="-511.5" font-family="Helvetica,sans-Serif" font-size="10.00" fill="#000000">GPUTPCStartHitsFinder.h</text>
</a>
</g>
</g>
<!-- Node0&#45;&gt;Node1 -->
<g id="edge1" class="edge">
<title>Node0&#45;&gt;Node1</title>
<path fill="none" stroke="#191970" d="M1039,-560.3258C1039,-551.5142 1039,-541.8397 1039,-533.621"/>
<polygon fill="#191970" stroke="#191970" points="1042.5001,-533.534 1039,-523.534 1035.5001,-533.534 1042.5001,-533.534"/>
</g>
<!-- Node18 -->
<g id="node19" class="node">
<title>Node18</title>
<g id="a_node19"><a xlink:href="../../d6/d25/GPUTPCTracker_8h.html" target="_top" xlink:title="GPUTPCTracker.h">
<polygon fill="none" stroke="#000000" points="809,-392.5 809,-411.5 909,-411.5 909,-392.5 809,-392.5"/>
<text text-anchor="middle" x="859" y="-399.5" font-family="Helvetica,sans-Serif" font-size="10.00" fill="#000000">GPUTPCTracker.h</text>
</a>
</g>
</g>
<!-- Node0&#45;&gt;Node18 -->
<g id="edge70" class="edge">
<title>Node0&#45;&gt;Node18</title>
<path fill="none" stroke="#191970" d="M1004.0916,-560.4355C990.4701,-549.6918 975.0292,-536.7798 962,-524 926.9266,-489.598 891.0485,-444.3548 872.2909,-419.7707"/>
<polygon fill="#191970" stroke="#191970" points="875.0135,-417.5684 866.188,-411.7065 869.4318,-421.7926 875.0135,-417.5684"/>
</g>
<!-- Node23 -->
<g id="node24" class="node">
<title>Node23</title>
<g id="a_node24"><a xlink:href="../../d6/da2/GPUCommonMath_8h.html" target="_top" xlink:title="GPUCommonMath.h">
<polygon fill="none" stroke="#000000" points="1156.5,-168.5 1156.5,-187.5 1271.5,-187.5 1271.5,-168.5 1156.5,-168.5"/>
<text text-anchor="middle" x="1214" y="-175.5" font-family="Helvetica,sans-Serif" font-size="10.00" fill="#000000">GPUCommonMath.h</text>
</a>
</g>
</g>
<!-- Node0&#45;&gt;Node23 -->
<g id="edge71" class="edge">
<title>Node0&#45;&gt;Node23</title>
<path fill="none" stroke="#191970" d="M1122.5645,-576.5484C1189.2964,-563.7163 1278.7121,-534.4678 1323,-468 1356.6439,-417.5068 1676.4576,-766.5743 1313,-224 1302.5429,-208.3894 1285.3375,-197.9709 1268.1789,-191.0642"/>
<polygon fill="#191970" stroke="#191970" points="1269.2879,-187.7429 1258.6944,-187.5778 1266.8728,-194.3131 1269.2879,-187.7429"/>
</g>
<!-- Node2 -->
<g id="node3" class="node">
<title>Node2</title>
<g id="a_node3"><a xlink:href="../../da/dab/GPUTPCDef_8h.html" target="_top" xlink:title="GPUTPCDef.h">
<polygon fill="none" stroke="#000000" points="256,-168.5 256,-187.5 338,-187.5 338,-168.5 256,-168.5"/>
<text text-anchor="middle" x="297" y="-175.5" font-family="Helvetica,sans-Serif" font-size="10.00" fill="#000000">GPUTPCDef.h</text>
</a>
</g>
</g>
<!-- Node1&#45;&gt;Node2 -->
<g id="edge2" class="edge">
<title>Node1&#45;&gt;Node2</title>
<path fill="none" stroke="#191970" d="M970.4265,-510.2162C738.8228,-496.989 0,-450.9569 0,-402 0,-402 0,-402 0,-290 0,-248.201 30.073,-243.5845 67,-224 97.3739,-207.891 187.7487,-193.0192 245.754,-184.7614"/>
<polygon fill="#191970" stroke="#191970" points="246.4158,-188.2029 255.8321,-183.3467 245.4426,-181.2709 246.4158,-188.2029"/>
</g>
<!-- Node13 -->
<g id="node14" class="node">
<title>Node13</title>
<g id="a_node14"><a xlink:href="../../dd/d7b/GPUTPCHitId_8h.html" target="_top" xlink:title="GPUTPCHitId.h">
<polygon fill="none" stroke="#000000" points="945.5,-336.5 945.5,-355.5 1034.5,-355.5 1034.5,-336.5 945.5,-336.5"/>
<text text-anchor="middle" x="990" y="-343.5" font-family="Helvetica,sans-Serif" font-size="10.00" fill="#000000">GPUTPCHitId.h</text>
</a>
</g>
</g>
<!-- Node1&#45;&gt;Node13 -->
<g id="edge13" class="edge">
<title>Node1&#45;&gt;Node13</title>
<path fill="none" stroke="#191970" d="M1036.2252,-504.4862C1028.4459,-477.8144 1006.3076,-401.9117 995.7444,-365.695"/>
<polygon fill="#191970" stroke="#191970" points="999.0265,-364.4479 992.8665,-355.8279 992.3065,-366.4079 999.0265,-364.4479"/>
</g>
<!-- Node14 -->
<g id="node15" class="node">
<title>Node14</title>
<g id="a_node15"><a xlink:href="../../d9/de5/GPUGeneralKernels_8h.html" target="_top" xlink:title="GPUGeneralKernels.h">
<polygon fill="none" stroke="#000000" points="1002.5,-224.5 1002.5,-243.5 1123.5,-243.5 1123.5,-224.5 1002.5,-224.5"/>
<text text-anchor="middle" x="1063" y="-231.5" font-family="Helvetica,sans-Serif" font-size="10.00" fill="#000000">GPUGeneralKernels.h</text>
</a>
</g>
</g>
<!-- Node1&#45;&gt;Node14 -->
<g id="edge14" class="edge">
<title>Node1&#45;&gt;Node14</title>
<path fill="none" stroke="#191970" d="M1042.5413,-504.2625C1049.2173,-485.0058 1063,-440.5786 1063,-402 1063,-402 1063,-402 1063,-346 1063,-313.7116 1063,-276.1872 1063,-253.8048"/>
<polygon fill="#191970" stroke="#191970" points="1066.5001,-253.5883 1063,-243.5884 1059.5001,-253.5884 1066.5001,-253.5883"/>
</g>
<!-- Node17 -->
<g id="node18" class="node">
<title>Node17</title>
<g id="a_node18"><a xlink:href="../../db/df8/GPUConstantMem_8h.html" target="_top" xlink:title="GPUConstantMem.h">
<polygon fill="none" stroke="#000000" points="1200,-448.5 1200,-467.5 1314,-467.5 1314,-448.5 1200,-448.5"/>
<text text-anchor="middle" x="1257" y="-455.5" font-family="Helvetica,sans-Serif" font-size="10.00" fill="#000000">GPUConstantMem.h</text>
</a>
</g>
</g>
<!-- Node1&#45;&gt;Node17 -->
<g id="edge19" class="edge">
<title>Node1&#45;&gt;Node17</title>
<path fill="none" stroke="#191970" d="M1076.4755,-504.3733C1113.5103,-494.8598 1170.2682,-480.2797 1210.2361,-470.0127"/>
<polygon fill="#191970" stroke="#191970" points="1211.1988,-473.3792 1220.0135,-467.5011 1209.4571,-466.5993 1211.1988,-473.3792"/>
</g>
<!-- Node3 -->
<g id="node4" class="node">
<title>Node3</title>
<g id="a_node4"><a xlink:href="../../d2/d6d/GPUDef_8h.html" target="_top" xlink:title="GPUDef.h">
<polygon fill="none" stroke="#000000" points="687.5,-112.5 687.5,-131.5 750.5,-131.5 750.5,-112.5 687.5,-112.5"/>
<text text-anchor="middle" x="719" y="-119.5" font-family="Helvetica,sans-Serif" font-size="10.00" fill="#000000">GPUDef.h</text>
</a>
</g>
</g>
<!-- Node2&#45;&gt;Node3 -->
<g id="edge3" class="edge">
<title>Node2&#45;&gt;Node3</title>
<path fill="none" stroke="#191970" d="M338.2315,-172.5285C418.7165,-161.848 595.946,-138.3294 677.0238,-127.5703"/>
<polygon fill="#191970" stroke="#191970" points="677.8929,-130.9857 687.3455,-126.2006 676.972,-124.0466 677.8929,-130.9857"/>
</g>
<!-- Node4 -->
<g id="node5" class="node">
<title>Node4</title>
<g id="a_node5"><a xlink:href="../../df/d21/GPUCommonDef_8h.html" target="_top" xlink:title="GPUCommonDef.h">
<polygon fill="none" stroke="#000000" points="1158.5,-56.5 1158.5,-75.5 1265.5,-75.5 1265.5,-56.5 1158.5,-56.5"/>
<text text-anchor="middle" x="1212" y="-63.5" font-family="Helvetica,sans-Serif" font-size="10.00" fill="#000000">GPUCommonDef.h</text>
</a>
</g>
</g>
<!-- Node3&#45;&gt;Node4 -->
<g id="edge4" class="edge">
<title>Node3&#45;&gt;Node4</title>
<path fill="none" stroke="#191970" d="M750.6154,-118.9283C821.0074,-112.0089 995.9635,-94.3664 1142,-76 1144.0459,-75.7427 1146.1247,-75.4761 1148.2232,-75.2026"/>
<polygon fill="#191970" stroke="#191970" points="1148.6891,-78.6715 1158.1387,-73.8804 1147.7638,-71.7329 1148.6891,-78.6715"/>
</g>
<!-- Node7 -->
<g id="node8" class="node">
<title>Node7</title>
<g id="a_node8"><a xlink:href="../../d2/d37/GPUDefConstantsAndSettings_8h.html" target="_top" xlink:title="GPUDefConstantsAndSettings.h">
<polygon fill="none" stroke="#000000" points="961.5,-56.5 961.5,-75.5 1132.5,-75.5 1132.5,-56.5 961.5,-56.5"/>
<text text-anchor="middle" x="1047" y="-63.5" font-family="Helvetica,sans-Serif" font-size="10.00" fill="#000000">GPUDefConstantsAndSettings.h</text>
</a>
</g>
</g>
<!-- Node3&#45;&gt;Node7 -->
<g id="edge7" class="edge">
<title>Node3&#45;&gt;Node7</title>
<path fill="none" stroke="#191970" d="M750.748,-116.5796C803.7677,-107.5275 911.3931,-89.1524 981.2844,-77.2197"/>
<polygon fill="#191970" stroke="#191970" points="982.0431,-80.6409 991.3114,-75.5078 980.865,-73.7408 982.0431,-80.6409"/>
</g>
<!-- Node8 -->
<g id="node9" class="node">
<title>Node8</title>
<g id="a_node9"><a xlink:href="../../dc/de9/GPUDefGPUParameters_8h.html" target="_top" xlink:title="GPUDefGPUParameters.h">
<polygon fill="none" stroke="#000000" points="478,-56.5 478,-75.5 618,-75.5 618,-56.5 478,-56.5"/>
<text text-anchor="middle" x="548" y="-63.5" font-family="Helvetica,sans-Serif" font-size="10.00" fill="#000000">GPUDefGPUParameters.h</text>
</a>
</g>
</g>
<!-- Node3&#45;&gt;Node8 -->
<g id="edge8" class="edge">
<title>Node3&#45;&gt;Node8</title>
<path fill="none" stroke="#191970" d="M689.6041,-112.3733C661.1693,-103.0613 617.9123,-88.8953 586.6919,-78.671"/>
<polygon fill="#191970" stroke="#191970" points="587.605,-75.2872 577.0124,-75.5011 585.4264,-81.9396 587.605,-75.2872"/>
</g>
<!-- Node10 -->
<g id="node11" class="node">
<title>Node10</title>
<g id="a_node11"><a xlink:href="../../d3/d4c/GPUDefOpenCL12Templates_8h.html" target="_top" xlink:title="GPUDefOpenCL12Templates.h">
<polygon fill="none" stroke="#000000" points="636,-56.5 636,-75.5 800,-75.5 800,-56.5 636,-56.5"/>
<text text-anchor="middle" x="718" y="-63.5" font-family="Helvetica,sans-Serif" font-size="10.00" fill="#000000">GPUDefOpenCL12Templates.h</text>
</a>
</g>
</g>
<!-- Node3&#45;&gt;Node10 -->
<g id="edge10" class="edge">
<title>Node3&#45;&gt;Node10</title>
<path fill="none" stroke="#191970" d="M718.8258,-112.2455C718.6953,-104.9382 718.5124,-94.6944 718.3519,-85.7046"/>
<polygon fill="#191970" stroke="#191970" points="721.8503,-85.5786 718.1722,-75.6427 714.8514,-85.7036 721.8503,-85.5786"/>
</g>
<!-- Node11 -->
<g id="node12" class="node">
<title>Node11</title>
<g id="a_node12"><a xlink:href="../../d2/d45/GPUCommonRtypes_8h.html" target="_top" xlink:title="GPUCommonRtypes.h">
<polygon fill="none" stroke="#000000" points="818.5,-56.5 818.5,-75.5 943.5,-75.5 943.5,-56.5 818.5,-56.5"/>
<text text-anchor="middle" x="881" y="-63.5" font-family="Helvetica,sans-Serif" font-size="10.00" fill="#000000">GPUCommonRtypes.h</text>
</a>
</g>
</g>
<!-- Node3&#45;&gt;Node11 -->
<g id="edge11" class="edge">
<title>Node3&#45;&gt;Node11</title>
<path fill="none" stroke="#191970" d="M746.8488,-112.3733C773.6703,-103.1016 814.4127,-89.0178 843.9598,-78.804"/>
<polygon fill="#191970" stroke="#191970" points="845.2069,-82.0762 853.5146,-75.5011 842.9198,-75.4603 845.2069,-82.0762"/>
</g>
<!-- Node5 -->
<g id="node6" class="node">
<title>Node5</title>
<g id="a_node6"><a xlink:href="../../d5/d93/GPUCommonDefSettings_8h.html" target="_top" xlink:title="GPUCommonDefSettings.h">
<polygon fill="none" stroke="#000000" points="1061,-.5 1061,-19.5 1209,-19.5 1209,-.5 1061,-.5"/>
<text text-anchor="middle" x="1135" y="-7.5" font-family="Helvetica,sans-Serif" font-size="10.00" fill="#000000">GPUCommonDefSettings.h</text>
</a>
</g>
</g>
<!-- Node4&#45;&gt;Node5 -->
<g id="edge5" class="edge">
<title>Node4&#45;&gt;Node5</title>
<path fill="none" stroke="#191970" d="M1198.5876,-56.2455C1186.9943,-47.814 1170.0252,-35.4729 1156.5322,-25.6598"/>
<polygon fill="#191970" stroke="#191970" points="1158.4047,-22.6938 1148.2587,-19.6427 1154.2874,-28.355 1158.4047,-22.6938"/>
</g>
<!-- Node6 -->
<g id="node7" class="node">
<title>Node6</title>
<g id="a_node7"><a xlink:href="../../da/d5a/GPUCommonDefAPI_8h.html" target="_top" xlink:title="GPUCommonDefAPI.h">
<polygon fill="none" stroke="#000000" points="1227,-.5 1227,-19.5 1351,-19.5 1351,-.5 1227,-.5"/>
<text text-anchor="middle" x="1289" y="-7.5" font-family="Helvetica,sans-Serif" font-size="10.00" fill="#000000">GPUCommonDefAPI.h</text>
</a>
</g>
</g>
<!-- Node4&#45;&gt;Node6 -->
<g id="edge6" class="edge">
<title>Node4&#45;&gt;Node6</title>
<path fill="none" stroke="#191970" d="M1225.4124,-56.2455C1237.0057,-47.814 1253.9748,-35.4729 1267.4678,-25.6598"/>
<polygon fill="#191970" stroke="#191970" points="1269.7126,-28.355 1275.7413,-19.6427 1265.5953,-22.6938 1269.7126,-28.355"/>
</g>
<!-- Node9 -->
<g id="node10" class="node">
<title>Node9</title>
<g id="a_node10"><a xlink:href="../../d6/dff/GPUDefMacros_8h.html" target="_top" xlink:title="GPUDefMacros.h">
<polygon fill="none" stroke="#000000" points="499,-.5 499,-19.5 597,-19.5 597,-.5 499,-.5"/>
<text text-anchor="middle" x="548" y="-7.5" font-family="Helvetica,sans-Serif" font-size="10.00" fill="#000000">GPUDefMacros.h</text>
</a>
</g>
</g>
<!-- Node8&#45;&gt;Node9 -->
<g id="edge9" class="edge">
<title>Node8&#45;&gt;Node9</title>
<path fill="none" stroke="#191970" d="M548,-56.2455C548,-48.9382 548,-38.6944 548,-29.7046"/>
<polygon fill="#191970" stroke="#191970" points="551.5001,-29.6426 548,-19.6427 544.5001,-29.6427 551.5001,-29.6426"/>
</g>
<!-- Node12 -->
<g id="node13" class="node">
<title>Node12</title>
<polygon fill="none" stroke="#bfbfbf" points="851.5,-.5 851.5,-19.5 910.5,-19.5 910.5,-.5 851.5,-.5"/>
<text text-anchor="middle" x="881" y="-7.5" font-family="Helvetica,sans-Serif" font-size="10.00" fill="#000000">Rtypes.h</text>
</g>
<!-- Node11&#45;&gt;Node12 -->
<g id="edge12" class="edge">
<title>Node11&#45;&gt;Node12</title>
<path fill="none" stroke="#191970" d="M881,-56.2455C881,-48.9382 881,-38.6944 881,-29.7046"/>
<polygon fill="#191970" stroke="#191970" points="884.5001,-29.6426 881,-19.6427 877.5001,-29.6427 884.5001,-29.6426"/>
</g>
<!-- Node14&#45;&gt;Node3 -->
<g id="edge15" class="edge">
<title>Node14&#45;&gt;Node3</title>
<path fill="none" stroke="#191970" d="M1023.5156,-224.4869C988.8528,-215.8582 937.2107,-202.3279 893,-188 843.0675,-171.8177 786.434,-149.5936 751.7147,-135.5135"/>
<polygon fill="#191970" stroke="#191970" points="752.6826,-132.1285 742.1012,-131.5956 750.0407,-138.6108 752.6826,-132.1285"/>
</g>
<!-- Node15 -->
<g id="node16" class="node">
<title>Node15</title>
<g id="a_node16"><a xlink:href="../../d4/dc5/GPUDataTypes_8h.html" target="_top" xlink:title="GPUDataTypes.h">
<polygon fill="none" stroke="#000000" points="1360,-168.5 1360,-187.5 1458,-187.5 1458,-168.5 1360,-168.5"/>
<text text-anchor="middle" x="1409" y="-175.5" font-family="Helvetica,sans-Serif" font-size="10.00" fill="#000000">GPUDataTypes.h</text>
</a>
</g>
</g>
<!-- Node14&#45;&gt;Node15 -->
<g id="edge16" class="edge">
<title>Node14&#45;&gt;Node15</title>
<path fill="none" stroke="#191970" d="M1122.0864,-224.4369C1185.7518,-214.1327 1286.469,-197.8316 1350.0726,-187.5374"/>
<polygon fill="#191970" stroke="#191970" points="1350.6383,-190.9915 1359.9506,-185.9386 1349.5198,-184.0814 1350.6383,-190.9915"/>
</g>
<!-- Node15&#45;&gt;Node4 -->
<g id="edge17" class="edge">
<title>Node15&#45;&gt;Node4</title>
<path fill="none" stroke="#191970" d="M1415.466,-168.3446C1423.9314,-154.3786 1436.2258,-128.4198 1423,-112 1404.734,-89.3228 1330.9516,-77.2295 1275.7486,-71.2252"/>
<polygon fill="#191970" stroke="#191970" points="1275.9841,-67.7308 1265.6748,-70.1737 1275.2574,-74.693 1275.9841,-67.7308"/>
</g>
<!-- Node16 -->
<g id="node17" class="node">
<title>Node16</title>
<polygon fill="none" stroke="#bfbfbf" points="1360.5,-112.5 1360.5,-131.5 1413.5,-131.5 1413.5,-112.5 1360.5,-112.5"/>
<text text-anchor="middle" x="1387" y="-119.5" font-family="Helvetica,sans-Serif" font-size="10.00" fill="#000000">cstddef</text>
</g>
<!-- Node15&#45;&gt;Node16 -->
<g id="edge18" class="edge">
<title>Node15&#45;&gt;Node16</title>
<path fill="none" stroke="#191970" d="M1405.1679,-168.2455C1402.2341,-160.7776 1398.0953,-150.2427 1394.509,-141.1137"/>
<polygon fill="#191970" stroke="#191970" points="1397.7024,-139.6704 1390.7882,-131.6427 1391.1871,-142.23 1397.7024,-139.6704"/>
</g>
<!-- Node17&#45;&gt;Node15 -->
<g id="edge61" class="edge">
<title>Node17&#45;&gt;Node15</title>
<path fill="none" stroke="#191970" d="M1262.2322,-448.3618C1284.2486,-407.8052 1369.5805,-250.6149 1398.9792,-196.4593"/>
<polygon fill="#191970" stroke="#191970" points="1402.0948,-198.0561 1403.7898,-187.5977 1395.9429,-194.7164 1402.0948,-198.0561"/>
</g>
<!-- Node17&#45;&gt;Node18 -->
<g id="edge20" class="edge">
<title>Node17&#45;&gt;Node18</title>
<path fill="none" stroke="#191970" d="M1199.9763,-449.9766C1125.3048,-439.47 994.9836,-421.1334 918.9095,-410.4295"/>
<polygon fill="#191970" stroke="#191970" points="919.391,-406.9628 909.0008,-409.0353 918.4156,-413.8946 919.391,-406.9628"/>
</g>
<!-- Node26 -->
<g id="node27" class="node">
<title>Node26</title>
<g id="a_node27"><a xlink:href="../../df/d13/GPUParam_8h.html" target="_top" xlink:title="GPUParam.h">
<polygon fill="none" stroke="#000000" points="1132.5,-280.5 1132.5,-299.5 1209.5,-299.5 1209.5,-280.5 1132.5,-280.5"/>
<text text-anchor="middle" x="1171" y="-287.5" font-family="Helvetica,sans-Serif" font-size="10.00" fill="#000000">GPUParam.h</text>
</a>
</g>
</g>
<!-- Node17&#45;&gt;Node26 -->
<g id="edge60" class="edge">
<title>Node17&#45;&gt;Node26</title>
<path fill="none" stroke="#191970" d="M1257.9489,-448.2488C1259.5887,-426.3362 1260.8389,-372.2818 1238,-336 1229.5926,-322.6441 1215.7417,-312.1777 1202.809,-304.6256"/>
<polygon fill="#191970" stroke="#191970" points="1204.1023,-301.3448 1193.6452,-299.6418 1200.7579,-307.4943 1204.1023,-301.3448"/>
</g>
<!-- Node35 -->
<g id="node36" class="node">
<title>Node35</title>
<g id="a_node36"><a xlink:href="../../da/da4/GPUErrors_8h.html" target="_top" xlink:title="GPUErrors.h">
<polygon fill="none" stroke="#000000" points="1141.5,-392.5 1141.5,-411.5 1216.5,-411.5 1216.5,-392.5 1141.5,-392.5"/>
<text text-anchor="middle" x="1179" y="-399.5" font-family="Helvetica,sans-Serif" font-size="10.00" fill="#000000">GPUErrors.h</text>
</a>
</g>
</g>
<!-- Node17&#45;&gt;Node35 -->
<g id="edge62" class="edge">
<title>Node17&#45;&gt;Node35</title>
<path fill="none" stroke="#191970" d="M1243.4134,-448.2455C1231.6695,-439.814 1214.4801,-427.4729 1200.8118,-417.6598"/>
<polygon fill="#191970" stroke="#191970" points="1202.5954,-414.6316 1192.4309,-411.6427 1198.5129,-420.3179 1202.5954,-414.6316"/>
</g>
<!-- Node37 -->
<g id="node38" class="node">
<title>Node37</title>
<g id="a_node38"><a xlink:href="../../d7/d4f/GPUTRDDef_8h.html" target="_top" xlink:title="GPUTRDDef.h">
<polygon fill="none" stroke="#000000" points="1508.5,-392.5 1508.5,-411.5 1591.5,-411.5 1591.5,-392.5 1508.5,-392.5"/>
<text text-anchor="middle" x="1550" y="-399.5" font-family="Helvetica,sans-Serif" font-size="10.00" fill="#000000">GPUTRDDef.h</text>
</a>
</g>
</g>
<!-- Node17&#45;&gt;Node37 -->
<g id="edge65" class="edge">
<title>Node17&#45;&gt;Node37</title>
<path fill="none" stroke="#191970" d="M1307.0356,-448.4369C1360.3173,-438.2533 1444.2446,-422.2126 1498.1937,-411.9015"/>
<polygon fill="#191970" stroke="#191970" points="1499.0697,-415.2975 1508.2349,-409.9824 1497.7556,-408.422 1499.0697,-415.2975"/>
</g>
<!-- Node38 -->
<g id="node39" class="node">
<title>Node38</title>
<g id="a_node39"><a xlink:href="../../da/d28/GPUO2FakeClasses_8h.html" target="_top" xlink:title="GPUO2FakeClasses.h">
<polygon fill="none" stroke="#000000" points="1436,-224.5 1436,-243.5 1556,-243.5 1556,-224.5 1436,-224.5"/>
<text text-anchor="middle" x="1496" y="-231.5" font-family="Helvetica,sans-Serif" font-size="10.00" fill="#000000">GPUO2FakeClasses.h</text>
</a>
</g>
</g>
<!-- Node17&#45;&gt;Node38 -->
<g id="edge67" class="edge">
<title>Node17&#45;&gt;Node38</title>
<path fill="none" stroke="#191970" d="M1305.417,-448.476C1330.8549,-441.6094 1361.3591,-430.2467 1384,-412 1438.8531,-367.7929 1474.6451,-289.1041 1488.9477,-253.0269"/>
<polygon fill="#191970" stroke="#191970" points="1492.2261,-254.2527 1492.5527,-243.6629 1485.6935,-251.7377 1492.2261,-254.2527"/>
</g>
<!-- Node18&#45;&gt;Node2 -->
<g id="edge21" class="edge">
<title>Node18&#45;&gt;Node2</title>
<path fill="none" stroke="#191970" d="M808.7187,-399.4116C641.7089,-390.2979 113.2716,-357.1243 65,-300 47.7744,-279.6153 67.7635,-240.4027 87,-224 110.4788,-203.9799 191.2311,-190.6317 245.4797,-183.6884"/>
<polygon fill="#191970" stroke="#191970" points="246.1252,-187.1351 255.6158,-182.4257 245.2598,-180.1888 246.1252,-187.1351"/>
</g>
<!-- Node18&#45;&gt;Node13 -->
<g id="edge23" class="edge">
<title>Node18&#45;&gt;Node13</title>
<path fill="none" stroke="#191970" d="M881.5197,-392.3733C902.7372,-383.3032 934.7276,-369.6279 958.4769,-359.4755"/>
<polygon fill="#191970" stroke="#191970" points="959.9548,-362.6502 967.7742,-355.5011 957.2033,-356.2136 959.9548,-362.6502"/>
</g>
<!-- Node19 -->
<g id="node20" class="node">
<title>Node19</title>
<polygon fill="none" stroke="#bfbfbf" points="829,-336.5 829,-355.5 889,-355.5 889,-336.5 829,-336.5"/>
<text text-anchor="middle" x="859" y="-343.5" font-family="Helvetica,sans-Serif" font-size="10.00" fill="#000000">iostream</text>
</g>
<!-- Node18&#45;&gt;Node19 -->
<g id="edge22" class="edge">
<title>Node18&#45;&gt;Node19</title>
<path fill="none" stroke="#191970" d="M859,-392.2455C859,-384.9382 859,-374.6944 859,-365.7046"/>
<polygon fill="#191970" stroke="#191970" points="862.5001,-365.6426 859,-355.6427 855.5001,-365.6427 862.5001,-365.6426"/>
</g>
<!-- Node20 -->
<g id="node21" class="node">
<title>Node20</title>
<g id="a_node21"><a xlink:href="../../df/d4a/GPUTPCSliceData_8h.html" target="_top" xlink:title="GPUTPCSliceData.h">
<polygon fill="none" stroke="#000000" points="699,-336.5 699,-355.5 811,-355.5 811,-336.5 699,-336.5"/>
<text text-anchor="middle" x="755" y="-343.5" font-family="Helvetica,sans-Serif" font-size="10.00" fill="#000000">GPUTPCSliceData.h</text>
</a>
</g>
</g>
<!-- Node18&#45;&gt;Node20 -->
<g id="edge24" class="edge">
<title>Node18&#45;&gt;Node20</title>
<path fill="none" stroke="#191970" d="M840.8846,-392.2455C824.555,-383.4527 800.329,-370.4079 781.7661,-360.4125"/>
<polygon fill="#191970" stroke="#191970" points="783.3719,-357.3021 772.9078,-355.6427 780.0532,-363.4654 783.3719,-357.3021"/>
</g>
<!-- Node31 -->
<g id="node32" class="node">
<title>Node31</title>
<g id="a_node32"><a xlink:href="../../d6/d57/GPUProcessor_8h.html" target="_top" xlink:title="GPUProcessor.h">
<polygon fill="none" stroke="#000000" points="901.5,-168.5 901.5,-187.5 994.5,-187.5 994.5,-168.5 901.5,-168.5"/>
<text text-anchor="middle" x="948" y="-175.5" font-family="Helvetica,sans-Serif" font-size="10.00" fill="#000000">GPUProcessor.h</text>
</a>
</g>
</g>
<!-- Node18&#45;&gt;Node31 -->
<g id="edge59" class="edge">
<title>Node18&#45;&gt;Node31</title>
<path fill="none" stroke="#191970" d="M869.3818,-392.3507C878.1822,-383.6347 890.5308,-370.0528 898,-356 926.2882,-302.7777 939.9785,-231.8661 945.2665,-197.849"/>
<polygon fill="#191970" stroke="#191970" points="948.7511,-198.2096 946.7467,-187.8061 941.8259,-197.1889 948.7511,-198.2096"/>
</g>
<!-- Node32 -->
<g id="node33" class="node">
<title>Node32</title>
<g id="a_node33"><a xlink:href="../../de/d15/GPUTPCTrackParam_8h.html" target="_top" xlink:title="GPUTPCTrackParam.h">
<polygon fill="none" stroke="#000000" points="196,-280.5 196,-299.5 318,-299.5 318,-280.5 196,-280.5"/>
<text text-anchor="middle" x="257" y="-287.5" font-family="Helvetica,sans-Serif" font-size="10.00" fill="#000000">GPUTPCTrackParam.h</text>
</a>
</g>
</g>
<!-- Node18&#45;&gt;Node32 -->
<g id="edge51" class="edge">
<title>Node18&#45;&gt;Node32</title>
<path fill="none" stroke="#191970" d="M808.9667,-392.6915C699.3047,-372.2892 438.0549,-323.6846 318.5604,-301.4531"/>
<polygon fill="#191970" stroke="#191970" points="318.9521,-297.966 308.4806,-299.5778 317.6717,-304.8479 318.9521,-297.966"/>
</g>
<!-- Node34 -->
<g id="node35" class="node">
<title>Node34</title>
<g id="a_node35"><a xlink:href="../../db/d6e/GPUTPCTracklet_8h.html" target="_top" xlink:title="GPUTPCTracklet.h">
<polygon fill="none" stroke="#000000" points="74,-280.5 74,-299.5 178,-299.5 178,-280.5 74,-280.5"/>
<text text-anchor="middle" x="126" y="-287.5" font-family="Helvetica,sans-Serif" font-size="10.00" fill="#000000">GPUTPCTracklet.h</text>
</a>
</g>
</g>
<!-- Node18&#45;&gt;Node34 -->
<g id="edge56" class="edge">
<title>Node18&#45;&gt;Node34</title>
<path fill="none" stroke="#191970" d="M808.9455,-395.7685C742.4101,-387.366 621.2123,-371.646 518,-356 401.2728,-338.3052 265.5037,-314.7872 188.2657,-301.1301"/>
<polygon fill="#191970" stroke="#191970" points="188.6804,-297.6492 178.2233,-299.3517 187.4597,-304.5419 188.6804,-297.6492"/>
</g>
<!-- Node20&#45;&gt;Node2 -->
<g id="edge25" class="edge">
<title>Node20&#45;&gt;Node2</title>
<path fill="none" stroke="#191970" d="M698.8295,-341.9214C599.3074,-334.3025 399.9092,-317.1251 373,-300 335.0858,-275.8713 312.9038,-225.3135 303.0828,-197.4531"/>
<polygon fill="#191970" stroke="#191970" points="306.3043,-196.0498 299.8174,-187.673 299.6646,-198.2668 306.3043,-196.0498"/>
</g>
<!-- Node21 -->
<g id="node22" class="node">
<title>Node21</title>
<g id="a_node22"><a xlink:href="../../d8/dff/GPUTPCRow_8h.html" target="_top" xlink:title="GPUTPCRow.h">
<polygon fill="none" stroke="#000000" points="382.5,-280.5 382.5,-299.5 467.5,-299.5 467.5,-280.5 382.5,-280.5"/>
<text text-anchor="middle" x="425" y="-287.5" font-family="Helvetica,sans-Serif" font-size="10.00" fill="#000000">GPUTPCRow.h</text>
</a>
</g>
</g>
<!-- Node20&#45;&gt;Node21 -->
<g id="edge26" class="edge">
<title>Node20&#45;&gt;Node21</title>
<path fill="none" stroke="#191970" d="M698.6459,-336.4369C636.7823,-325.9388 538.2383,-309.2162 477.817,-298.9629"/>
<polygon fill="#191970" stroke="#191970" points="478.1726,-295.4733 467.7279,-297.2508 477.0014,-302.3746 478.1726,-295.4733"/>
</g>
<!-- Node20&#45;&gt;Node23 -->
<g id="edge30" class="edge">
<title>Node20&#45;&gt;Node23</title>
<path fill="none" stroke="#191970" d="M770.295,-336.3532C807.271,-313.4502 905.0332,-255.3759 994,-224 1022.3205,-214.0122 1096.1159,-199.4057 1150.4647,-189.345"/>
<polygon fill="#191970" stroke="#191970" points="1151.1701,-192.7741 1160.3712,-187.5215 1149.9028,-185.8898 1151.1701,-192.7741"/>
</g>
<!-- Node20&#45;&gt;Node26 -->
<g id="edge34" class="edge">
<title>Node20&#45;&gt;Node26</title>
<path fill="none" stroke="#191970" d="M811.0081,-337.3021C814.0487,-336.8553 817.0611,-336.4186 820,-336 927.7895,-320.6473 1054.4836,-304.5145 1122.299,-296.0335"/>
<polygon fill="#191970" stroke="#191970" points="1122.7776,-299.501 1132.2669,-294.789 1121.9103,-292.5549 1122.7776,-299.501"/>
</g>
<!-- Node30 -->
<g id="node31" class="node">
<title>Node30</title>
<g id="a_node31"><a xlink:href="../../d5/da6/GPUMemoryResource_8h.html" target="_top" xlink:title="GPUMemoryResource.h">
<polygon fill="none" stroke="#000000" points="738.5,-224.5 738.5,-243.5 869.5,-243.5 869.5,-224.5 738.5,-224.5"/>
<text text-anchor="middle" x="804" y="-231.5" font-family="Helvetica,sans-Serif" font-size="10.00" fill="#000000">GPUMemoryResource.h</text>
</a>
</g>
</g>
<!-- Node20&#45;&gt;Node30 -->
<g id="edge44" class="edge">
<title>Node20&#45;&gt;Node30</title>
<path fill="none" stroke="#191970" d="M759.1777,-336.4509C767.278,-317.936 785.2492,-276.8591 795.8106,-252.7187"/>
<polygon fill="#191970" stroke="#191970" points="799.0312,-254.0894 799.8329,-243.5249 792.6181,-251.2836 799.0312,-254.0894"/>
</g>
<!-- Node21&#45;&gt;Node2 -->
<g id="edge27" class="edge">
<title>Node21&#45;&gt;Node2</title>
<path fill="none" stroke="#191970" d="M414.0868,-280.4509C392.1711,-261.2747 342.5957,-217.8962 315.5129,-194.1988"/>
<polygon fill="#191970" stroke="#191970" points="317.7162,-191.4759 307.8856,-187.5249 313.1066,-196.744 317.7162,-191.4759"/>
</g>
<!-- Node22 -->
<g id="node23" class="node">
<title>Node22</title>
<g id="a_node23"><a xlink:href="../../d3/da7/GPUTPCGrid_8h.html" target="_top" xlink:title="GPUTPCGrid.h">
<polygon fill="none" stroke="#000000" points="382,-224.5 382,-243.5 468,-243.5 468,-224.5 382,-224.5"/>
<text text-anchor="middle" x="425" y="-231.5" font-family="Helvetica,sans-Serif" font-size="10.00" fill="#000000">GPUTPCGrid.h</text>
</a>
</g>
</g>
<!-- Node21&#45;&gt;Node22 -->
<g id="edge28" class="edge">
<title>Node21&#45;&gt;Node22</title>
<path fill="none" stroke="#191970" d="M425,-280.2455C425,-272.9382 425,-262.6944 425,-253.7046"/>
<polygon fill="#191970" stroke="#191970" points="428.5001,-253.6426 425,-243.6427 421.5001,-253.6427 428.5001,-253.6426"/>
</g>
<!-- Node22&#45;&gt;Node2 -->
<g id="edge29" class="edge">
<title>Node22&#45;&gt;Node2</title>
<path fill="none" stroke="#191970" d="M402.996,-224.3733C382.3565,-215.3435 351.2842,-201.7494 328.1111,-191.6111"/>
<polygon fill="#191970" stroke="#191970" points="329.2813,-188.3028 318.7169,-187.5011 326.4755,-194.7159 329.2813,-188.3028"/>
</g>
<!-- Node23&#45;&gt;Node4 -->
<g id="edge31" class="edge">
<title>Node23&#45;&gt;Node4</title>
<path fill="none" stroke="#191970" d="M1213.8295,-168.4509C1213.5033,-150.184 1212.7849,-109.9553 1212.3517,-85.6976"/>
<polygon fill="#191970" stroke="#191970" points="1215.8482,-85.4608 1212.1701,-75.5249 1208.8493,-85.5858 1215.8482,-85.4608"/>
</g>
<!-- Node24 -->
<g id="node25" class="node">
<title>Node24</title>
<polygon fill="none" stroke="#bfbfbf" points="1240.5,-112.5 1240.5,-131.5 1287.5,-131.5 1287.5,-112.5 1240.5,-112.5"/>
<text text-anchor="middle" x="1264" y="-119.5" font-family="Helvetica,sans-Serif" font-size="10.00" fill="#000000">cmath</text>
</g>
<!-- Node23&#45;&gt;Node24 -->
<g id="edge32" class="edge">
<title>Node23&#45;&gt;Node24</title>
<path fill="none" stroke="#191970" d="M1222.7093,-168.2455C1229.8073,-160.2958 1240.0084,-148.8706 1248.495,-139.3656"/>
<polygon fill="#191970" stroke="#191970" points="1251.3411,-141.4331 1255.3905,-131.6427 1246.1195,-136.771 1251.3411,-141.4331"/>
</g>
<!-- Node25 -->
<g id="node26" class="node">
<title>Node25</title>
<polygon fill="none" stroke="#bfbfbf" points="1117,-112.5 1117,-131.5 1181,-131.5 1181,-112.5 1117,-112.5"/>
<text text-anchor="middle" x="1149" y="-119.5" font-family="Helvetica,sans-Serif" font-size="10.00" fill="#000000">algorithm</text>
</g>
<!-- Node23&#45;&gt;Node25 -->
<g id="edge33" class="edge">
<title>Node23&#45;&gt;Node25</title>
<path fill="none" stroke="#191970" d="M1202.6779,-168.2455C1193.0777,-159.9746 1179.1108,-147.9416 1167.8305,-138.2232"/>
<polygon fill="#191970" stroke="#191970" points="1170.053,-135.5182 1160.1924,-131.6427 1165.484,-140.8214 1170.053,-135.5182"/>
</g>
<!-- Node26&#45;&gt;Node3 -->
<g id="edge37" class="edge">
<title>Node26&#45;&gt;Node3</title>
<path fill="none" stroke="#191970" d="M1132.4314,-288.7529C1029.9927,-285.0612 756.9879,-272.6081 729,-244 702.4843,-216.8967 708.0712,-168.3131 713.8928,-141.3553"/>
<polygon fill="#191970" stroke="#191970" points="717.3142,-142.0961 716.2291,-131.557 710.5051,-140.4725 717.3142,-142.0961"/>
</g>
<!-- Node26&#45;&gt;Node4 -->
<g id="edge35" class="edge">
<title>Node26&#45;&gt;Node4</title>
<path fill="none" stroke="#191970" d="M1209.7322,-282.7415C1247.4001,-274.8017 1300.6928,-260.9237 1313,-244 1332.4699,-217.2269 1384.5477,-237.7096 1297,-112 1286.756,-97.2906 1270.2599,-86.8473 1254.5136,-79.6711"/>
<polygon fill="#191970" stroke="#191970" points="1255.4437,-76.2654 1244.8687,-75.6161 1252.7307,-82.7183 1255.4437,-76.2654"/>
</g>
<!-- Node26&#45;&gt;Node23 -->
<g id="edge36" class="edge">
<title>Node26&#45;&gt;Node23</title>
<path fill="none" stroke="#191970" d="M1174.6662,-280.4509C1181.7428,-262.0186 1197.4045,-221.2254 1206.6888,-197.043"/>
<polygon fill="#191970" stroke="#191970" points="1210.0263,-198.115 1210.3431,-187.5249 1203.4914,-195.606 1210.0263,-198.115"/>
</g>
<!-- Node27 -->
<g id="node28" class="node">
<title>Node27</title>
<g id="a_node28"><a xlink:href="../../dd/dc6/GPUSettings_8h.html" target="_top" xlink:title="GPUSettings.h">
<polygon fill="none" stroke="#000000" points="1218,-224.5 1218,-243.5 1304,-243.5 1304,-224.5 1218,-224.5"/>
<text text-anchor="middle" x="1261" y="-231.5" font-family="Helvetica,sans-Serif" font-size="10.00" fill="#000000">GPUSettings.h</text>
</a>
</g>
</g>
<!-- Node26&#45;&gt;Node27 -->
<g id="edge38" class="edge">
<title>Node26&#45;&gt;Node27</title>
<path fill="none" stroke="#191970" d="M1186.6768,-280.2455C1200.4856,-271.6534 1220.8193,-259.0014 1236.7292,-249.1018"/>
<polygon fill="#191970" stroke="#191970" points="1238.8613,-251.8974 1245.5028,-243.6427 1235.1632,-245.954 1238.8613,-251.8974"/>
</g>
<!-- Node28 -->
<g id="node29" class="node">
<title>Node28</title>
<g id="a_node29"><a xlink:href="../../d6/d1b/GPUTPCGeometry_8h.html" target="_top" xlink:title="GPUTPCGeometry.h">
<polygon fill="none" stroke="#000000" points="1025.5,-168.5 1025.5,-187.5 1138.5,-187.5 1138.5,-168.5 1025.5,-168.5"/>
<text text-anchor="middle" x="1082" y="-175.5" font-family="Helvetica,sans-Serif" font-size="10.00" fill="#000000">GPUTPCGeometry.h</text>
</a>
</g>
</g>
<!-- Node26&#45;&gt;Node28 -->
<g id="edge40" class="edge">
<title>Node26&#45;&gt;Node28</title>
<path fill="none" stroke="#191970" d="M1166.6862,-280.4505C1160.3854,-267.0631 1147.7922,-242.3052 1133,-224 1124.1005,-212.987 1112.4836,-202.2931 1102.5852,-193.9921"/>
<polygon fill="#191970" stroke="#191970" points="1104.7358,-191.2297 1094.7721,-187.6275 1100.3148,-196.6569 1104.7358,-191.2297"/>
</g>
<!-- Node29 -->
<g id="node30" class="node">
<title>Node29</title>
<g id="a_node30"><a xlink:href="../../d9/d9c/GPUTPCGMPolynomialField_8h.html" target="_top" xlink:title="GPUTPCGMPolynomialField.h">
<polygon fill="none" stroke="#000000" points="524,-224.5 524,-243.5 682,-243.5 682,-224.5 524,-224.5"/>
<text text-anchor="middle" x="603" y="-231.5" font-family="Helvetica,sans-Serif" font-size="10.00" fill="#000000">GPUTPCGMPolynomialField.h</text>
</a>
</g>
</g>
<!-- Node26&#45;&gt;Node29 -->
<g id="edge42" class="edge">
<title>Node26&#45;&gt;Node29</title>
<path fill="none" stroke="#191970" d="M1132.1963,-286.3823C1051.1443,-278.7949 857.959,-260.5492 696,-244 694.7278,-243.87 693.4459,-243.7385 692.156,-243.6058"/>
<polygon fill="#191970" stroke="#191970" points="692.4495,-240.1176 682.1418,-242.5674 691.7274,-247.0803 692.4495,-240.1176"/>
</g>
<!-- Node27&#45;&gt;Node23 -->
<g id="edge39" class="edge">
<title>Node27&#45;&gt;Node23</title>
<path fill="none" stroke="#191970" d="M1252.8132,-224.2455C1246.1411,-216.2958 1236.5521,-204.8706 1228.5747,-195.3656"/>
<polygon fill="#191970" stroke="#191970" points="1231.2026,-193.0524 1222.093,-187.6427 1225.8408,-197.5525 1231.2026,-193.0524"/>
</g>
<!-- Node28&#45;&gt;Node4 -->
<g id="edge41" class="edge">
<title>Node28&#45;&gt;Node4</title>
<path fill="none" stroke="#191970" d="M1083.4556,-168.232C1086.0325,-154.126 1092.651,-127.9942 1108,-112 1122.7933,-96.5848 1143.6638,-85.9824 1162.8302,-78.8784"/>
<polygon fill="#191970" stroke="#191970" points="1164.0613,-82.156 1172.3612,-75.571 1161.7664,-75.5429 1164.0613,-82.156"/>
</g>
<!-- Node29&#45;&gt;Node2 -->
<g id="edge43" class="edge">
<title>Node29&#45;&gt;Node2</title>
<path fill="none" stroke="#191970" d="M550.7444,-224.4369C494.1794,-214.0851 404.5432,-197.6811 348.3387,-187.3953"/>
<polygon fill="#191970" stroke="#191970" points="348.7154,-183.9062 338.2486,-185.5488 347.4552,-190.7918 348.7154,-183.9062"/>
</g>
<!-- Node30&#45;&gt;Node4 -->
<g id="edge45" class="edge">
<title>Node30&#45;&gt;Node4</title>
<path fill="none" stroke="#191970" d="M814.8301,-224.3738C830.935,-210.4443 862.5751,-184.5303 893,-168 978.164,-121.729 1087.6723,-92.4693 1153.713,-77.6857"/>
<polygon fill="#191970" stroke="#191970" points="1154.5178,-81.0924 1163.5308,-75.5231 1153.0119,-74.2563 1154.5178,-81.0924"/>
</g>
<!-- Node30&#45;&gt;Node31 -->
<g id="edge46" class="edge">
<title>Node30&#45;&gt;Node31</title>
<path fill="none" stroke="#191970" d="M828.7545,-224.3733C852.2849,-215.2226 887.8687,-201.3844 914.0426,-191.2057"/>
<polygon fill="#191970" stroke="#191970" points="915.5171,-194.3877 923.5685,-187.5011 912.9799,-187.8636 915.5171,-194.3877"/>
</g>
<!-- Node31&#45;&gt;Node3 -->
<g id="edge48" class="edge">
<title>Node31&#45;&gt;Node3</title>
<path fill="none" stroke="#191970" d="M908.8937,-168.4369C867.5888,-158.3361 802.7202,-142.4731 760.5233,-132.1542"/>
<polygon fill="#191970" stroke="#191970" points="761.119,-128.6968 750.5738,-129.7211 759.4562,-135.4964 761.119,-128.6968"/>
</g>
<!-- Node31&#45;&gt;Node4 -->
<g id="edge47" class="edge">
<title>Node31&#45;&gt;Node4</title>
<path fill="none" stroke="#191970" d="M967.7022,-168.3805C995.1027,-155.1236 1046.3828,-130.7509 1091,-112 1119.2249,-100.1382 1151.6752,-87.8745 1175.8611,-78.9956"/>
<polygon fill="#191970" stroke="#191970" points="1177.1622,-82.2466 1185.3546,-75.5284 1174.7607,-75.6714 1177.1622,-82.2466"/>
</g>
<!-- Node31&#45;&gt;Node16 -->
<g id="edge49" class="edge">
<title>Node31&#45;&gt;Node16</title>
<path fill="none" stroke="#191970" d="M994.7484,-171.0943C1002.1883,-170.0329 1009.8023,-168.9689 1017,-168 1138.7886,-151.6058 1283.4225,-134.2296 1350.0426,-126.3437"/>
<polygon fill="#191970" stroke="#191970" points="1350.5293,-129.8106 1360.0494,-125.1611 1349.7077,-122.859 1350.5293,-129.8106"/>
</g>
<!-- Node31&#45;&gt;Node25 -->
<g id="edge50" class="edge">
<title>Node31&#45;&gt;Node25</title>
<path fill="none" stroke="#191970" d="M982.5531,-168.3733C1017.026,-158.7689 1070.0332,-144.0007 1106.9347,-133.7197"/>
<polygon fill="#191970" stroke="#191970" points="1108.1932,-137.0024 1116.887,-130.9469 1106.3145,-130.2592 1108.1932,-137.0024"/>
</g>
<!-- Node32&#45;&gt;Node2 -->
<g id="edge54" class="edge">
<title>Node32&#45;&gt;Node2</title>
<path fill="none" stroke="#191970" d="M260.4104,-280.4509C266.9933,-262.0186 281.5624,-221.2254 290.1989,-197.043"/>
<polygon fill="#191970" stroke="#191970" points="293.5309,-198.1195 293.5983,-187.5249 286.9387,-195.7651 293.5309,-198.1195"/>
</g>
<!-- Node32&#45;&gt;Node23 -->
<g id="edge55" class="edge">
<title>Node32&#45;&gt;Node23</title>
<path fill="none" stroke="#191970" d="M318.0911,-284.5609C335.7994,-283.0311 355.1661,-281.403 373,-280 597.7629,-262.3174 656.2997,-279.1512 879,-244 915.6277,-238.2187 923.7382,-231.7523 960,-224 1022.8604,-210.5613 1095.0196,-197.7409 1146.323,-189.0648"/>
<polygon fill="#191970" stroke="#191970" points="1147.0165,-192.4974 1156.2967,-187.3859 1145.8544,-185.5945 1147.0165,-192.4974"/>
</g>
<!-- Node33 -->
<g id="node34" class="node">
<title>Node33</title>
<g id="a_node34"><a xlink:href="../../df/d00/GPUTPCBaseTrackParam_8h.html" target="_top" xlink:title="GPUTPCBaseTrackParam.h">
<polygon fill="none" stroke="#000000" points="104,-224.5 104,-243.5 250,-243.5 250,-224.5 104,-224.5"/>
<text text-anchor="middle" x="177" y="-231.5" font-family="Helvetica,sans-Serif" font-size="10.00" fill="#000000">GPUTPCBaseTrackParam.h</text>
</a>
</g>
</g>
<!-- Node32&#45;&gt;Node33 -->
<g id="edge52" class="edge">
<title>Node32&#45;&gt;Node33</title>
<path fill="none" stroke="#191970" d="M243.0651,-280.2455C230.9053,-271.7337 213.0536,-259.2375 198.9715,-249.3801"/>
<polygon fill="#191970" stroke="#191970" points="200.9747,-246.51 190.7752,-243.6427 196.9605,-252.2447 200.9747,-246.51"/>
</g>
<!-- Node33&#45;&gt;Node2 -->
<g id="edge53" class="edge">
<title>Node33&#45;&gt;Node2</title>
<path fill="none" stroke="#191970" d="M197.6287,-224.3733C216.8919,-215.3838 245.8486,-201.8706 267.5419,-191.7471"/>
<polygon fill="#191970" stroke="#191970" points="269.0587,-194.9017 276.6405,-187.5011 266.0985,-188.5584 269.0587,-194.9017"/>
</g>
<!-- Node34&#45;&gt;Node2 -->
<g id="edge58" class="edge">
<title>Node34&#45;&gt;Node2</title>
<path fill="none" stroke="#191970" d="M115.2061,-280.258C101.4232,-266.6419 80.9462,-241.614 95,-224 113.5451,-200.757 192.3996,-188.349 245.9227,-182.4759"/>
<polygon fill="#191970" stroke="#191970" points="246.3548,-185.9498 255.9327,-181.4206 245.6208,-178.9884 246.3548,-185.9498"/>
</g>
<!-- Node34&#45;&gt;Node33 -->
<g id="edge57" class="edge">
<title>Node34&#45;&gt;Node33</title>
<path fill="none" stroke="#191970" d="M134.8835,-280.2455C142.1966,-272.2155 152.7391,-260.6394 161.4467,-251.0781"/>
<polygon fill="#191970" stroke="#191970" points="164.0727,-253.3928 168.2183,-243.6427 158.8972,-248.6795 164.0727,-253.3928"/>
</g>
<!-- Node35&#45;&gt;Node3 -->
<g id="edge63" class="edge">
<title>Node35&#45;&gt;Node3</title>
<path fill="none" stroke="#191970" d="M1163.0029,-392.3139C1138.3458,-377.8226 1089.1675,-350.6407 1044,-336 816.9878,-262.416 668.6089,-426.6292 515,-244 464.0071,-183.3734 604.2069,-145.0688 677.5288,-129.7003"/>
<polygon fill="#191970" stroke="#191970" points="678.3065,-133.1138 687.4041,-127.684 676.9061,-126.2553 678.3065,-133.1138"/>
</g>
<!-- Node36 -->
<g id="node37" class="node">
<title>Node36</title>
<g id="a_node37"><a xlink:href="../../de/d0d/GPUErrorCodes_8h.html" target="_top" xlink:title="GPUErrorCodes.h">
<polygon fill="none" stroke="#000000" points="1129,-336.5 1129,-355.5 1229,-355.5 1229,-336.5 1129,-336.5"/>
<text text-anchor="middle" x="1179" y="-343.5" font-family="Helvetica,sans-Serif" font-size="10.00" fill="#000000">GPUErrorCodes.h</text>
</a>
</g>
</g>
<!-- Node35&#45;&gt;Node36 -->
<g id="edge64" class="edge">
<title>Node35&#45;&gt;Node36</title>
<path fill="none" stroke="#191970" d="M1179,-392.2455C1179,-384.9382 1179,-374.6944 1179,-365.7046"/>
<polygon fill="#191970" stroke="#191970" points="1182.5001,-365.6426 1179,-355.6427 1175.5001,-365.6427 1182.5001,-365.6426"/>
</g>
<!-- Node37&#45;&gt;Node4 -->
<g id="edge66" class="edge">
<title>Node37&#45;&gt;Node4</title>
<path fill="none" stroke="#191970" d="M1555.0168,-392.4109C1564.4745,-373.4144 1584,-329.4221 1584,-290 1584,-290 1584,-290 1584,-178 1584,-114.3759 1381.9581,-83.7 1275.6716,-71.9644"/>
<polygon fill="#191970" stroke="#191970" points="1276.0126,-68.4809 1265.6947,-70.8873 1275.2613,-75.4405 1276.0126,-68.4809"/>
</g>
<!-- Node38&#45;&gt;Node4 -->
<g id="edge68" class="edge">
<title>Node38&#45;&gt;Node4</title>
<path fill="none" stroke="#191970" d="M1494.5271,-224.188C1490.4428,-200.6611 1476.6785,-140.8545 1439,-112 1413.8527,-92.742 1333.6892,-79.7659 1275.7463,-72.6331"/>
<polygon fill="#191970" stroke="#191970" points="1275.9122,-69.128 1265.5664,-71.4115 1275.0781,-76.0781 1275.9122,-69.128"/>
</g>
<!-- Node38&#45;&gt;Node15 -->
<g id="edge69" class="edge">
<title>Node38&#45;&gt;Node15</title>
<path fill="none" stroke="#191970" d="M1480.8458,-224.2455C1467.4973,-215.6534 1447.8414,-203.0014 1432.4617,-193.1018"/>
<polygon fill="#191970" stroke="#191970" points="1434.2836,-190.1121 1423.9806,-187.6427 1430.4949,-195.9982 1434.2836,-190.1121"/>
</g>
</g>
</svg>
