<?xml version="1.0" encoding="UTF-8" standalone="no"?>
<!DOCTYPE svg PUBLIC "-//W3C//DTD SVG 1.1//EN"
 "http://www.w3.org/Graphics/SVG/1.1/DTD/svg11.dtd">
<!-- Generated by graphviz version 2.40.1 (20161225.0304)
 -->
<!-- Title: /home/travis/build/AliceO2Group/AliceO2/Detectors/TPC/simulation/include/TPCSimulation/Detector.h Pages: 1 -->
<!--zoomable 374 -->
<svg id="main" version="1.1" xmlns="http://www.w3.org/2000/svg" xmlns:xlink="http://www.w3.org/1999/xlink" xml:space="preserve" onload="init(evt)">
<style type="text/css"><![CDATA[
.edge:hover path { stroke: red; }
.edge:hover polygon { stroke: red; fill: red; }
]]></style>
<script type="text/javascript"><![CDATA[
var edges = document.getElementsByTagName('g');
if (edges && edges.length) {
  for (var i=0;i<edges.length;i++) {
    if (edges[i].id.substr(0,4)=='edge') {
      edges[i].setAttribute('class','edge');
    }
  }
}
]]></script>
        <defs>
                <circle id="rim" cx="0" cy="0" r="7"/>
                <circle id="rim2" cx="0" cy="0" r="3.5"/>
                <g id="zoomPlus">
                        <use xlink:href="#rim" fill="#404040">
                                <set attributeName="fill" to="#808080" begin="zoomplus.mouseover" end="zoomplus.mouseout"/>
                        </use>
                        <path d="M-4,0h8M0,-4v8" fill="none" stroke="white" stroke-width="1.5" pointer-events="none"/>
                </g>
                <g id="zoomMin">
                        <use xlink:href="#rim" fill="#404040">
                                <set attributeName="fill" to="#808080" begin="zoomminus.mouseover" end="zoomminus.mouseout"/>
                        </use>
                        <path d="M-4,0h8" fill="none" stroke="white" stroke-width="1.5" pointer-events="none"/>
                </g>
                <g id="dirArrow">
                        <path fill="none" stroke="white" stroke-width="1.5" d="M0,-3.0v7 M-2.5,-0.5L0,-3.0L2.5,-0.5"/>
                </g>
               <g id="resetDef">
                       <use xlink:href="#rim2" fill="#404040">
                               <set attributeName="fill" to="#808080" begin="reset.mouseover" end="reset.mouseout"/>
                       </use>
               </g>
        </defs>

<script type="text/javascript">
var viewWidth = 2335;
var viewHeight = 374;
var sectionId = 'dynsection-0';
</script>
<script xlink:href="../../svgpan.js"/>
<svg id="graph" class="graph">
<g id="viewport">
<title>/home/travis/build/AliceO2Group/AliceO2/Detectors/TPC/simulation/include/TPCSimulation/Detector.h</title>
<!-- Node0 -->
<g id="node1" class="node">
<title>Node0</title>
<polygon fill="#bfbfbf" stroke="#000000" points="934.1959,-313.5 934.1959,-365.5 1116.1959,-365.5 1116.1959,-313.5 934.1959,-313.5"/>
<text text-anchor="start" x="942.1959" y="-353.5" font-family="Helvetica,sans-Serif" font-size="10.00" fill="#000000">/home/travis/build</text>
<text text-anchor="start" x="942.1959" y="-342.5" font-family="Helvetica,sans-Serif" font-size="10.00" fill="#000000">/AliceO2Group/AliceO2</text>
<text text-anchor="start" x="942.1959" y="-331.5" font-family="Helvetica,sans-Serif" font-size="10.00" fill="#000000">/Detectors/TPC/simulation</text>
<text text-anchor="middle" x="1025.1959" y="-320.5" font-family="Helvetica,sans-Serif" font-size="10.00" fill="#000000">/include/TPCSimulation/Detector.h</text>
</g>
<!-- Node1 -->
<g id="node2" class="node">
<title>Node1</title>
<g id="a_node2"><a xlink:href="../../d1/d3a/Base_2include_2DetectorsBase_2Detector_8h.html" target="_top" xlink:title="DetectorsBase/Detector.h">
<polygon fill="none" stroke="#000000" points="672.6959,-257.5 672.6959,-276.5 813.6959,-276.5 813.6959,-257.5 672.6959,-257.5"/>
<text text-anchor="middle" x="743.1959" y="-264.5" font-family="Helvetica,sans-Serif" font-size="10.00" fill="#000000">DetectorsBase/Detector.h</text>
</a>
</g>
</g>
<!-- Node0&#45;&gt;Node1 -->
<g id="edge1" class="edge">
<title>Node0&#45;&gt;Node1</title>
<path fill="none" stroke="#191970" d="M934.028,-316.0614C886.1673,-303.7568 829.5155,-289.1921 790.4367,-279.1453"/>
<polygon fill="#191970" stroke="#191970" points="790.9566,-275.6652 780.4001,-276.5649 789.2136,-282.4447 790.9566,-275.6652"/>
</g>
<!-- Node9 -->
<g id="node10" class="node">
<title>Node9</title>
<polygon fill="none" stroke="#bfbfbf" points="420.6959,-73 420.6959,-92 479.6959,-92 479.6959,-73 420.6959,-73"/>
<text text-anchor="middle" x="450.1959" y="-80" font-family="Helvetica,sans-Serif" font-size="10.00" fill="#000000">Rtypes.h</text>
</g>
<!-- Node0&#45;&gt;Node9 -->
<g id="edge31" class="edge">
<title>Node0&#45;&gt;Node9</title>
<path fill="none" stroke="#191970" d="M933.7943,-335.6834C695.1473,-324.7862 67.4517,-289.7921 6.1959,-221 -16.3802,-195.6465 32.0946,-135.4848 34.1959,-134 64.6237,-112.4989 312.5788,-92.4414 410.5663,-85.277"/>
<polygon fill="#191970" stroke="#191970" points="410.9414,-88.7591 420.6624,-84.5457 410.4356,-81.7773 410.9414,-88.7591"/>
</g>
<!-- Node26 -->
<g id="node27" class="node">
<title>Node26</title>
<polygon fill="none" stroke="#bfbfbf" points="928.1959,-257.5 928.1959,-276.5 1026.1959,-276.5 1026.1959,-257.5 928.1959,-257.5"/>
<text text-anchor="middle" x="977.1959" y="-264.5" font-family="Helvetica,sans-Serif" font-size="10.00" fill="#000000">TLorentzVector.h</text>
</g>
<!-- Node0&#45;&gt;Node26 -->
<g id="edge32" class="edge">
<title>Node0&#45;&gt;Node26</title>
<path fill="none" stroke="#191970" d="M1007.8668,-313.3258C1001.6351,-303.9134 994.7515,-293.5164 989.0873,-284.961"/>
<polygon fill="#191970" stroke="#191970" points="991.9469,-282.94 983.508,-276.534 986.1101,-286.8043 991.9469,-282.94"/>
</g>
<!-- Node27 -->
<g id="node28" class="node">
<title>Node27</title>
<polygon fill="none" stroke="#bfbfbf" points="1044.1959,-257.5 1044.1959,-276.5 1104.1959,-276.5 1104.1959,-257.5 1044.1959,-257.5"/>
<text text-anchor="middle" x="1074.1959" y="-264.5" font-family="Helvetica,sans-Serif" font-size="10.00" fill="#000000">TString.h</text>
</g>
<!-- Node0&#45;&gt;Node27 -->
<g id="edge33" class="edge">
<title>Node0&#45;&gt;Node27</title>
<path fill="none" stroke="#191970" d="M1042.886,-313.3258C1049.2475,-303.9134 1056.2744,-293.5164 1062.0567,-284.961"/>
<polygon fill="#191970" stroke="#191970" points="1065.0523,-286.7791 1067.7522,-276.534 1059.2527,-282.8593 1065.0523,-286.7791"/>
</g>
<!-- Node28 -->
<g id="node29" class="node">
<title>Node28</title>
<g id="a_node29"><a xlink:href="../../d4/de5/Point_8h.html" target="_top" xlink:title="Class for TPC Point. ">
<polygon fill="none" stroke="#000000" points="1280.6959,-257.5 1280.6959,-276.5 1405.6959,-276.5 1405.6959,-257.5 1280.6959,-257.5"/>
<text text-anchor="middle" x="1343.1959" y="-264.5" font-family="Helvetica,sans-Serif" font-size="10.00" fill="#000000">TPCSimulation/Point.h</text>
</a>
</g>
</g>
<!-- Node0&#45;&gt;Node28 -->
<g id="edge34" class="edge">
<title>Node0&#45;&gt;Node28</title>
<path fill="none" stroke="#191970" d="M1116.3219,-318.7244C1173.0892,-305.7822 1244.0666,-289.6002 1291.368,-278.8161"/>
<polygon fill="#191970" stroke="#191970" points="1292.4111,-282.1682 1301.3829,-276.5328 1290.855,-275.3433 1292.4111,-282.1682"/>
</g>
<!-- Node40 -->
<g id="node41" class="node">
<title>Node40</title>
<g id="a_node41"><a xlink:href="../../d3/dd6/Sector_8h.html" target="_top" xlink:title="TPCBase/Sector.h">
<polygon fill="none" stroke="#000000" points="1619.6959,-257.5 1619.6959,-276.5 1720.6959,-276.5 1720.6959,-257.5 1619.6959,-257.5"/>
<text text-anchor="middle" x="1670.1959" y="-264.5" font-family="Helvetica,sans-Serif" font-size="10.00" fill="#000000">TPCBase/Sector.h</text>
</a>
</g>
</g>
<!-- Node0&#45;&gt;Node40 -->
<g id="edge50" class="edge">
<title>Node0&#45;&gt;Node40</title>
<path fill="none" stroke="#191970" d="M1116.2406,-329.2663C1249.759,-314.2584 1495.1471,-286.676 1609.0848,-273.8691"/>
<polygon fill="#191970" stroke="#191970" points="1609.8176,-277.3088 1619.364,-272.7137 1609.0356,-270.3526 1609.8176,-277.3088"/>
</g>
<!-- Node2 -->
<g id="node3" class="node">
<title>Node2</title>
<polygon fill="none" stroke="#bfbfbf" points="43.1959,-134.5 43.1959,-153.5 81.1959,-153.5 81.1959,-134.5 43.1959,-134.5"/>
<text text-anchor="middle" x="62.1959" y="-141.5" font-family="Helvetica,sans-Serif" font-size="10.00" fill="#000000">map</text>
</g>
<!-- Node1&#45;&gt;Node2 -->
<g id="edge2" class="edge">
<title>Node1&#45;&gt;Node2</title>
<path fill="none" stroke="#191970" d="M672.4078,-265.1105C493.9877,-260.0049 38.4436,-244.6999 16.1959,-221 -1.0562,-202.6218 21.9019,-176.6984 41.1164,-160.12"/>
<polygon fill="#191970" stroke="#191970" points="43.497,-162.6937 48.9938,-153.6363 39.0485,-157.2889 43.497,-162.6937"/>
</g>
<!-- Node3 -->
<g id="node4" class="node">
<title>Node3</title>
<polygon fill="none" stroke="#bfbfbf" points="1380.6959,-196 1380.6959,-215 1427.6959,-215 1427.6959,-196 1380.6959,-196"/>
<text text-anchor="middle" x="1404.1959" y="-203" font-family="Helvetica,sans-Serif" font-size="10.00" fill="#000000">vector</text>
</g>
<!-- Node1&#45;&gt;Node3 -->
<g id="edge3" class="edge">
<title>Node1&#45;&gt;Node3</title>
<path fill="none" stroke="#191970" d="M813.7268,-262.525C972.1726,-252.3777 1344.6086,-227.9623 1371.1959,-221 1373.1706,-220.4829 1375.1715,-219.8501 1377.1606,-219.1389"/>
<polygon fill="#191970" stroke="#191970" points="1378.9516,-222.1841 1386.8327,-215.1033 1376.2561,-215.7239 1378.9516,-222.1841"/>
</g>
<!-- Node4 -->
<g id="node5" class="node">
<title>Node4</title>
<polygon fill="none" stroke="#bfbfbf" points="291.6959,-134.5 291.6959,-153.5 374.6959,-153.5 374.6959,-134.5 291.6959,-134.5"/>
<text text-anchor="middle" x="333.1959" y="-141.5" font-family="Helvetica,sans-Serif" font-size="10.00" fill="#000000">initializer_list</text>
</g>
<!-- Node1&#45;&gt;Node4 -->
<g id="edge4" class="edge">
<title>Node1&#45;&gt;Node4</title>
<path fill="none" stroke="#191970" d="M672.4149,-265.0454C495.7747,-259.8244 48.0885,-244.3422 26.1959,-221 16.7705,-210.9506 17.2042,-200.4393 26.1959,-190 42.6134,-170.9392 198.3898,-155.2128 281.5104,-148.0962"/>
<polygon fill="#191970" stroke="#191970" points="281.8466,-151.5803 291.5165,-147.251 281.2573,-144.6052 281.8466,-151.5803"/>
</g>
<!-- Node5 -->
<g id="node6" class="node">
<title>Node5</title>
<polygon fill="none" stroke="#bfbfbf" points="193.1959,-196 193.1959,-215 251.1959,-215 251.1959,-196 193.1959,-196"/>
<text text-anchor="middle" x="222.1959" y="-203" font-family="Helvetica,sans-Serif" font-size="10.00" fill="#000000">memory</text>
</g>
<!-- Node1&#45;&gt;Node5 -->
<g id="edge5" class="edge">
<title>Node1&#45;&gt;Node5</title>
<path fill="none" stroke="#191970" d="M672.5936,-262.8171C557.9561,-255.5981 336.4713,-239.7567 260.1959,-221 257.5624,-220.3524 254.872,-219.5547 252.1998,-218.6659"/>
<polygon fill="#191970" stroke="#191970" points="253.3292,-215.3519 242.7362,-215.1533 250.8933,-221.9144 253.3292,-215.3519"/>
</g>
<!-- Node6 -->
<g id="node7" class="node">
<title>Node6</title>
<polygon fill="none" stroke="#bfbfbf" points="269.1959,-196 269.1959,-215 353.1959,-215 353.1959,-196 269.1959,-196"/>
<text text-anchor="middle" x="311.1959" y="-203" font-family="Helvetica,sans-Serif" font-size="10.00" fill="#000000">FairDetector.h</text>
</g>
<!-- Node1&#45;&gt;Node6 -->
<g id="edge6" class="edge">
<title>Node1&#45;&gt;Node6</title>
<path fill="none" stroke="#191970" d="M672.3706,-262.1732C595.4077,-256.0657 469.1166,-243.5214 362.1959,-221 358.0191,-220.1202 353.6918,-219.0543 349.4038,-217.8978"/>
<polygon fill="#191970" stroke="#191970" points="350.1362,-214.467 339.5591,-215.0802 348.21,-221.1968 350.1362,-214.467"/>
</g>
<!-- Node7 -->
<g id="node8" class="node">
<title>Node7</title>
<polygon fill="none" stroke="#bfbfbf" points="371.1959,-196 371.1959,-215 477.1959,-215 477.1959,-196 371.1959,-196"/>
<text text-anchor="middle" x="424.1959" y="-203" font-family="Helvetica,sans-Serif" font-size="10.00" fill="#000000">FairRootManager.h</text>
</g>
<!-- Node1&#45;&gt;Node7 -->
<g id="edge7" class="edge">
<title>Node1&#45;&gt;Node7</title>
<path fill="none" stroke="#191970" d="M683.5104,-257.4964C631.2789,-248.899 553.4536,-235.409 486.1959,-221 481.1053,-219.9094 475.798,-218.6979 470.5243,-217.4464"/>
<polygon fill="#191970" stroke="#191970" points="471.0335,-213.9685 460.4902,-215.0118 469.3829,-220.7711 471.0335,-213.9685"/>
</g>
<!-- Node8 -->
<g id="node9" class="node">
<title>Node8</title>
<g id="a_node9"><a xlink:href="../../d0/d9a/MaterialManager_8h.html" target="_top" xlink:title="DetectorsBase/MaterialManager.h">
<polygon fill="none" stroke="#000000" points="495.6959,-196 495.6959,-215 676.6959,-215 676.6959,-196 495.6959,-196"/>
<text text-anchor="middle" x="586.1959" y="-203" font-family="Helvetica,sans-Serif" font-size="10.00" fill="#000000">DetectorsBase/MaterialManager.h</text>
</a>
</g>
</g>
<!-- Node1&#45;&gt;Node8 -->
<g id="edge8" class="edge">
<title>Node1&#45;&gt;Node8</title>
<path fill="none" stroke="#191970" d="M718.6646,-257.3906C692.1652,-247.0103 649.7627,-230.4004 620.0888,-218.7766"/>
<polygon fill="#191970" stroke="#191970" points="621.1426,-215.4304 610.5548,-215.0419 618.5894,-221.9482 621.1426,-215.4304"/>
</g>
<!-- Node1&#45;&gt;Node9 -->
<g id="edge14" class="edge">
<title>Node1&#45;&gt;Node9</title>
<path fill="none" stroke="#191970" d="M738.8258,-257.4513C726.9824,-232.7159 691.7285,-166.2445 641.1959,-134 582.3064,-96.423 554.7402,-119.2567 488.1959,-98 486.0452,-97.313 483.8448,-96.5586 481.6398,-95.764"/>
<polygon fill="#191970" stroke="#191970" points="482.6747,-92.4126 472.0842,-92.1074 480.1729,-98.9502 482.6747,-92.4126"/>
</g>
<!-- Node12 -->
<g id="node13" class="node">
<title>Node12</title>
<polygon fill="none" stroke="#bfbfbf" points="771.1959,-196 771.1959,-215 829.1959,-215 829.1959,-196 771.1959,-196"/>
<text text-anchor="middle" x="800.1959" y="-203" font-family="Helvetica,sans-Serif" font-size="10.00" fill="#000000">cxxabi.h</text>
</g>
<!-- Node1&#45;&gt;Node12 -->
<g id="edge15" class="edge">
<title>Node1&#45;&gt;Node12</title>
<path fill="none" stroke="#191970" d="M752.1021,-257.3906C760.6686,-248.1478 773.8127,-233.966 784.1961,-222.7628"/>
<polygon fill="#191970" stroke="#191970" points="786.9334,-224.9584 791.164,-215.2449 781.7993,-220.2 786.9334,-224.9584"/>
</g>
<!-- Node13 -->
<g id="node14" class="node">
<title>Node13</title>
<polygon fill="none" stroke="#bfbfbf" points="847.6959,-196 847.6959,-215 904.6959,-215 904.6959,-196 847.6959,-196"/>
<text text-anchor="middle" x="876.1959" y="-203" font-family="Helvetica,sans-Serif" font-size="10.00" fill="#000000">typeinfo</text>
</g>
<!-- Node1&#45;&gt;Node13 -->
<g id="edge16" class="edge">
<title>Node1&#45;&gt;Node13</title>
<path fill="none" stroke="#191970" d="M763.9771,-257.3906C786.0352,-247.1908 821.1009,-230.9763 846.1628,-219.3875"/>
<polygon fill="#191970" stroke="#191970" points="847.9529,-222.4158 855.5605,-215.0419 845.0149,-216.0622 847.9529,-222.4158"/>
</g>
<!-- Node14 -->
<g id="node15" class="node">
<title>Node14</title>
<polygon fill="none" stroke="#bfbfbf" points="922.6959,-196 922.6959,-215 991.6959,-215 991.6959,-196 922.6959,-196"/>
<text text-anchor="middle" x="957.1959" y="-203" font-family="Helvetica,sans-Serif" font-size="10.00" fill="#000000">type_traits</text>
</g>
<!-- Node1&#45;&gt;Node14 -->
<g id="edge17" class="edge">
<title>Node1&#45;&gt;Node14</title>
<path fill="none" stroke="#191970" d="M781.5776,-257.4845C816.1875,-248.6981 868.3796,-234.936 913.1959,-221 915.951,-220.1433 918.7914,-219.2248 921.64,-218.2784"/>
<polygon fill="#191970" stroke="#191970" points="922.9101,-221.5433 931.2446,-215.0021 920.6501,-214.9181 922.9101,-221.5433"/>
</g>
<!-- Node15 -->
<g id="node16" class="node">
<title>Node15</title>
<polygon fill="none" stroke="#bfbfbf" points="1010.1959,-196 1010.1959,-215 1054.1959,-215 1054.1959,-196 1010.1959,-196"/>
<text text-anchor="middle" x="1032.1959" y="-203" font-family="Helvetica,sans-Serif" font-size="10.00" fill="#000000">string</text>
</g>
<!-- Node1&#45;&gt;Node15 -->
<g id="edge18" class="edge">
<title>Node1&#45;&gt;Node15</title>
<path fill="none" stroke="#191970" d="M813.7282,-259.6593C866.0925,-252.948 938.7647,-240.9556 1000.1959,-221 1001.8507,-220.4624 1003.5291,-219.8553 1005.2058,-219.2005"/>
<polygon fill="#191970" stroke="#191970" points="1006.858,-222.2979 1014.6143,-215.0805 1004.0501,-215.8858 1006.858,-222.2979"/>
</g>
<!-- Node16 -->
<g id="node17" class="node">
<title>Node16</title>
<polygon fill="none" stroke="#bfbfbf" points="1072.1959,-196 1072.1959,-215 1146.1959,-215 1146.1959,-196 1072.1959,-196"/>
<text text-anchor="middle" x="1109.1959" y="-203" font-family="Helvetica,sans-Serif" font-size="10.00" fill="#000000">TMessage.h</text>
</g>
<!-- Node1&#45;&gt;Node16 -->
<g id="edge19" class="edge">
<title>Node1&#45;&gt;Node16</title>
<path fill="none" stroke="#191970" d="M813.8036,-260.5846C879.1099,-253.7728 978.5683,-241.1625 1063.1959,-221 1066.662,-220.1742 1070.238,-219.1983 1073.793,-218.1446"/>
<polygon fill="#191970" stroke="#191970" points="1075.1684,-221.3805 1083.6477,-215.0282 1073.0577,-214.7063 1075.1684,-221.3805"/>
</g>
<!-- Node17 -->
<g id="node18" class="node">
<title>Node17</title>
<g id="a_node18"><a xlink:href="../../de/d61/ShmManager_8h.html" target="_top" xlink:title="CommonUtils/ShmManager.h">
<polygon fill="none" stroke="#000000" points="752.1959,-134.5 752.1959,-153.5 910.1959,-153.5 910.1959,-134.5 752.1959,-134.5"/>
<text text-anchor="middle" x="831.1959" y="-141.5" font-family="Helvetica,sans-Serif" font-size="10.00" fill="#000000">CommonUtils/ShmManager.h</text>
</a>
</g>
</g>
<!-- Node1&#45;&gt;Node17 -->
<g id="edge20" class="edge">
<title>Node1&#45;&gt;Node17</title>
<path fill="none" stroke="#191970" d="M743.4035,-257.0733C744.189,-241.4398 747.6334,-210.7315 762.1959,-190 771.6092,-176.599 786.2801,-166.0251 799.6779,-158.4117"/>
<polygon fill="#191970" stroke="#191970" points="801.4935,-161.4101 808.6696,-153.6156 798.199,-155.2338 801.4935,-161.4101"/>
</g>
<!-- Node22 -->
<g id="node23" class="node">
<title>Node22</title>
<g id="a_node23"><a xlink:href="../../d0/d91/ShmAllocator_8h.html" target="_top" xlink:title="CommonUtils/ShmAllocator.h">
<polygon fill="none" stroke="#000000" points="1202.1959,-196 1202.1959,-215 1362.1959,-215 1362.1959,-196 1202.1959,-196"/>
<text text-anchor="middle" x="1282.1959" y="-203" font-family="Helvetica,sans-Serif" font-size="10.00" fill="#000000">CommonUtils/ShmAllocator.h</text>
</a>
</g>
</g>
<!-- Node1&#45;&gt;Node22 -->
<g id="edge25" class="edge">
<title>Node1&#45;&gt;Node22</title>
<path fill="none" stroke="#191970" d="M813.8723,-261.0221C901.7785,-253.2813 1056.3668,-238.6661 1188.1959,-221 1197.686,-219.7282 1207.691,-218.239 1217.4926,-216.6958"/>
<polygon fill="#191970" stroke="#191970" points="1218.2833,-220.1138 1227.6031,-215.0748 1217.1751,-213.202 1218.2833,-220.1138"/>
</g>
<!-- Node23 -->
<g id="node24" class="node">
<title>Node23</title>
<polygon fill="none" stroke="#bfbfbf" points="1202.1959,-134.5 1202.1959,-153.5 1254.1959,-153.5 1254.1959,-134.5 1202.1959,-134.5"/>
<text text-anchor="middle" x="1228.1959" y="-141.5" font-family="Helvetica,sans-Serif" font-size="10.00" fill="#000000">cassert</text>
</g>
<!-- Node1&#45;&gt;Node23 -->
<g id="edge30" class="edge">
<title>Node1&#45;&gt;Node23</title>
<path fill="none" stroke="#191970" d="M813.8126,-261.769C923.5049,-253.2466 1125.3929,-235.8262 1155.1959,-221 1169.2662,-214.0004 1197.0093,-182.1258 1213.9488,-161.6442"/>
<polygon fill="#191970" stroke="#191970" points="1216.8505,-163.6249 1220.4758,-153.6696 1211.4335,-159.1913 1216.8505,-163.6249"/>
</g>
<!-- Node24 -->
<g id="node25" class="node">
<title>Node24</title>
<polygon fill="none" stroke="#bfbfbf" points="35.1959,-196 35.1959,-215 101.1959,-215 101.1959,-196 35.1959,-196"/>
<text text-anchor="middle" x="68.1959" y="-203" font-family="Helvetica,sans-Serif" font-size="10.00" fill="#000000">sys/shm.h</text>
</g>
<!-- Node1&#45;&gt;Node24 -->
<g id="edge28" class="edge">
<title>Node1&#45;&gt;Node24</title>
<path fill="none" stroke="#191970" d="M672.5725,-264.3663C530.721,-258.6664 215.7365,-243.8311 110.1959,-221 106.9293,-220.2934 103.5751,-219.3868 100.2549,-218.3674"/>
<polygon fill="#191970" stroke="#191970" points="101.1123,-214.9622 90.5179,-215.0579 98.8596,-221.5899 101.1123,-214.9622"/>
</g>
<!-- Node25 -->
<g id="node26" class="node">
<title>Node25</title>
<polygon fill="none" stroke="#bfbfbf" points="119.1959,-196 119.1959,-215 175.1959,-215 175.1959,-196 119.1959,-196"/>
<text text-anchor="middle" x="147.1959" y="-203" font-family="Helvetica,sans-Serif" font-size="10.00" fill="#000000">unistd.h</text>
</g>
<!-- Node1&#45;&gt;Node25 -->
<g id="edge29" class="edge">
<title>Node1&#45;&gt;Node25</title>
<path fill="none" stroke="#191970" d="M672.6282,-263.9571C543.6908,-257.9392 274.9521,-243.1525 184.1959,-221 181.5593,-220.3564 178.8681,-219.5497 176.1999,-218.6442"/>
<polygon fill="#191970" stroke="#191970" points="177.3676,-215.3437 166.7769,-215.0486 174.872,-221.8838 177.3676,-215.3437"/>
</g>
<!-- Node8&#45;&gt;Node2 -->
<g id="edge10" class="edge">
<title>Node8&#45;&gt;Node2</title>
<path fill="none" stroke="#191970" d="M527.8301,-195.9941C514.1855,-193.8993 499.6949,-191.7775 486.1959,-190 338.1225,-170.5024 160.1601,-153.1721 91.3373,-146.6984"/>
<polygon fill="#191970" stroke="#191970" points="91.5328,-143.2014 81.2501,-145.7539 90.8802,-150.171 91.5328,-143.2014"/>
</g>
<!-- Node8&#45;&gt;Node4 -->
<g id="edge12" class="edge">
<title>Node8&#45;&gt;Node4</title>
<path fill="none" stroke="#191970" d="M546.9422,-195.9581C502.6265,-185.1857 430.4583,-167.6428 382.4098,-155.9631"/>
<polygon fill="#191970" stroke="#191970" points="383.0854,-152.5254 372.5416,-153.5643 381.4319,-159.3274 383.0854,-152.5254"/>
</g>
<!-- Node8&#45;&gt;Node9 -->
<g id="edge9" class="edge">
<title>Node8&#45;&gt;Node9</title>
<path fill="none" stroke="#191970" d="M575.5242,-195.8484C552.3851,-174.9212 497.3642,-125.1596 468.5341,-99.0854"/>
<polygon fill="#191970" stroke="#191970" points="470.5824,-96.2187 460.818,-92.1068 465.8869,-101.4103 470.5824,-96.2187"/>
</g>
<!-- Node10 -->
<g id="node11" class="node">
<title>Node10</title>
<polygon fill="none" stroke="#bfbfbf" points="539.6959,-134.5 539.6959,-153.5 632.6959,-153.5 632.6959,-134.5 539.6959,-134.5"/>
<text text-anchor="middle" x="586.1959" y="-141.5" font-family="Helvetica,sans-Serif" font-size="10.00" fill="#000000">unordered_map</text>
</g>
<!-- Node8&#45;&gt;Node10 -->
<g id="edge11" class="edge">
<title>Node8&#45;&gt;Node10</title>
<path fill="none" stroke="#191970" d="M586.1959,-195.8906C586.1959,-187.3657 586.1959,-174.6392 586.1959,-163.9235"/>
<polygon fill="#191970" stroke="#191970" points="589.696,-163.7448 586.1959,-153.7449 582.696,-163.7449 589.696,-163.7448"/>
</g>
<!-- Node11 -->
<g id="node12" class="node">
<title>Node11</title>
<polygon fill="none" stroke="#bfbfbf" points="954.6959,-73 954.6959,-92 1003.6959,-92 1003.6959,-73 954.6959,-73"/>
<text text-anchor="middle" x="979.1959" y="-80" font-family="Helvetica,sans-Serif" font-size="10.00" fill="#000000">iosfwd</text>
</g>
<!-- Node8&#45;&gt;Node11 -->
<g id="edge13" class="edge">
<title>Node8&#45;&gt;Node11</title>
<path fill="none" stroke="#191970" d="M676.7341,-198.6816C760.7775,-191.0747 878.8033,-176.7551 919.1959,-154 941.266,-141.5668 958.7548,-117.6579 969.0281,-100.9239"/>
<polygon fill="#191970" stroke="#191970" points="972.1958,-102.4403 974.2231,-92.0412 966.1533,-98.9064 972.1958,-102.4403"/>
</g>
<!-- Node18 -->
<g id="node19" class="node">
<title>Node18</title>
<polygon fill="none" stroke="#bfbfbf" points="833.1959,-73 833.1959,-92 865.1959,-92 865.1959,-73 833.1959,-73"/>
<text text-anchor="middle" x="849.1959" y="-80" font-family="Helvetica,sans-Serif" font-size="10.00" fill="#000000">list</text>
</g>
<!-- Node17&#45;&gt;Node18 -->
<g id="edge21" class="edge">
<title>Node17&#45;&gt;Node18</title>
<path fill="none" stroke="#191970" d="M834.0084,-134.3906C836.5297,-125.776 840.3068,-112.8708 843.4634,-102.0858"/>
<polygon fill="#191970" stroke="#191970" points="846.8937,-102.8254 846.3437,-92.2449 840.1756,-100.8591 846.8937,-102.8254"/>
</g>
<!-- Node19 -->
<g id="node20" class="node">
<title>Node19</title>
<polygon fill="none" stroke="#bfbfbf" points="883.6959,-73 883.6959,-92 936.6959,-92 936.6959,-73 883.6959,-73"/>
<text text-anchor="middle" x="910.1959" y="-80" font-family="Helvetica,sans-Serif" font-size="10.00" fill="#000000">cstddef</text>
</g>
<!-- Node17&#45;&gt;Node19 -->
<g id="edge22" class="edge">
<title>Node17&#45;&gt;Node19</title>
<path fill="none" stroke="#191970" d="M843.5396,-134.3906C855.9461,-124.7324 875.2802,-109.6812 889.9372,-98.271"/>
<polygon fill="#191970" stroke="#191970" points="892.1979,-100.9466 897.9388,-92.0419 887.8979,-95.423 892.1979,-100.9466"/>
</g>
<!-- Node20 -->
<g id="node21" class="node">
<title>Node20</title>
<polygon fill="none" stroke="#bfbfbf" points="497.6959,-67.5 497.6959,-97.5 662.6959,-97.5 662.6959,-67.5 497.6959,-67.5"/>
<text text-anchor="start" x="505.6959" y="-85.5" font-family="Helvetica,sans-Serif" font-size="10.00" fill="#000000">boost/interprocess</text>
<text text-anchor="middle" x="580.1959" y="-74.5" font-family="Helvetica,sans-Serif" font-size="10.00" fill="#000000">/managed_external_buffer.hpp</text>
</g>
<!-- Node17&#45;&gt;Node20 -->
<g id="edge23" class="edge">
<title>Node17&#45;&gt;Node20</title>
<path fill="none" stroke="#191970" d="M792.2525,-134.4581C754.7933,-125.2799 697.275,-111.1867 651.5885,-99.9926"/>
<polygon fill="#191970" stroke="#191970" points="652.2811,-96.5589 641.7354,-97.5784 650.6152,-103.3577 652.2811,-96.5589"/>
</g>
<!-- Node21 -->
<g id="node22" class="node">
<title>Node21</title>
<polygon fill="none" stroke="#bfbfbf" points="681.1959,-67.5 681.1959,-97.5 815.1959,-97.5 815.1959,-67.5 681.1959,-67.5"/>
<text text-anchor="start" x="689.1959" y="-85.5" font-family="Helvetica,sans-Serif" font-size="10.00" fill="#000000">boost/interprocess</text>
<text text-anchor="middle" x="748.1959" y="-74.5" font-family="Helvetica,sans-Serif" font-size="10.00" fill="#000000">/allocators/allocator.hpp</text>
</g>
<!-- Node17&#45;&gt;Node21 -->
<g id="edge24" class="edge">
<title>Node17&#45;&gt;Node21</title>
<path fill="none" stroke="#191970" d="M818.2271,-134.3906C807.2021,-126.2215 790.9701,-114.1941 776.9087,-103.7752"/>
<polygon fill="#191970" stroke="#191970" points="778.6184,-100.6859 768.4999,-97.5446 774.451,-106.3102 778.6184,-100.6859"/>
</g>
<!-- Node22&#45;&gt;Node17 -->
<g id="edge26" class="edge">
<title>Node22&#45;&gt;Node17</title>
<path fill="none" stroke="#191970" d="M1212.2219,-195.9581C1130.709,-184.8427 996.3338,-166.5188 910.8771,-154.8656"/>
<polygon fill="#191970" stroke="#191970" points="911.3441,-151.397 900.9628,-153.5137 910.3982,-158.3328 911.3441,-151.397"/>
</g>
<!-- Node22&#45;&gt;Node23 -->
<g id="edge27" class="edge">
<title>Node22&#45;&gt;Node23</title>
<path fill="none" stroke="#191970" d="M1273.7584,-195.8906C1265.6427,-186.6478 1253.1904,-172.466 1243.3535,-161.2628"/>
<polygon fill="#191970" stroke="#191970" points="1245.9804,-158.95 1236.7523,-153.7449 1240.7203,-163.5686 1245.9804,-158.95"/>
</g>
<!-- Node28&#45;&gt;Node3 -->
<g id="edge48" class="edge">
<title>Node28&#45;&gt;Node3</title>
<path fill="none" stroke="#191970" d="M1352.7271,-257.3906C1361.9838,-248.0581 1376.2349,-233.6902 1387.3962,-222.4374"/>
<polygon fill="#191970" stroke="#191970" points="1389.973,-224.8095 1394.5302,-215.2449 1385.0031,-219.88 1389.973,-224.8095"/>
</g>
<!-- Node28&#45;&gt;Node22 -->
<g id="edge49" class="edge">
<title>Node28&#45;&gt;Node22</title>
<path fill="none" stroke="#191970" d="M1333.6646,-257.3906C1324.4079,-248.0581 1310.1568,-233.6902 1298.9955,-222.4374"/>
<polygon fill="#191970" stroke="#191970" points="1301.3886,-219.88 1291.8615,-215.2449 1296.4187,-224.8095 1301.3886,-219.88"/>
</g>
<!-- Node29 -->
<g id="node30" class="node">
<title>Node29</title>
<g id="a_node30"><a xlink:href="../../d4/d25/BaseHits_8h.html" target="_top" xlink:title="SimulationDataFormat\l/BaseHits.h">
<polygon fill="none" stroke="#000000" points="1445.6959,-190.5 1445.6959,-220.5 1572.6959,-220.5 1572.6959,-190.5 1445.6959,-190.5"/>
<text text-anchor="start" x="1453.6959" y="-208.5" font-family="Helvetica,sans-Serif" font-size="10.00" fill="#000000">SimulationDataFormat</text>
<text text-anchor="middle" x="1509.1959" y="-197.5" font-family="Helvetica,sans-Serif" font-size="10.00" fill="#000000">/BaseHits.h</text>
</a>
</g>
</g>
<!-- Node28&#45;&gt;Node29 -->
<g id="edge35" class="edge">
<title>Node28&#45;&gt;Node29</title>
<path fill="none" stroke="#191970" d="M1369.1334,-257.3906C1393.0556,-248.5279 1429.2353,-235.1239 1458.8306,-224.1594"/>
<polygon fill="#191970" stroke="#191970" points="1460.4265,-227.3007 1468.5877,-220.5446 1457.9946,-220.7367 1460.4265,-227.3007"/>
</g>
<!-- Node30 -->
<g id="node31" class="node">
<title>Node30</title>
<g id="a_node31"><a xlink:href="../../dd/d76/Cartesian3D_8h.html" target="_top" xlink:title="MathUtils/Cartesian3D.h">
<polygon fill="none" stroke="#000000" points="1441.6959,-134.5 1441.6959,-153.5 1576.6959,-153.5 1576.6959,-134.5 1441.6959,-134.5"/>
<text text-anchor="middle" x="1509.1959" y="-141.5" font-family="Helvetica,sans-Serif" font-size="10.00" fill="#000000">MathUtils/Cartesian3D.h</text>
</a>
</g>
</g>
<!-- Node29&#45;&gt;Node30 -->
<g id="edge36" class="edge">
<title>Node29&#45;&gt;Node30</title>
<path fill="none" stroke="#191970" d="M1509.1959,-190.2977C1509.1959,-182.3834 1509.1959,-172.6043 1509.1959,-164.0759"/>
<polygon fill="#191970" stroke="#191970" points="1512.696,-163.8469 1509.1959,-153.8469 1505.696,-163.847 1512.696,-163.8469"/>
</g>
<!-- Node30&#45;&gt;Node9 -->
<g id="edge42" class="edge">
<title>Node30&#45;&gt;Node9</title>
<path fill="none" stroke="#191970" d="M1441.5934,-141.2636C1217.4438,-132.151 511.5111,-103.1198 488.1959,-98 485.3252,-97.3696 482.3931,-96.54 479.4937,-95.5916"/>
<polygon fill="#191970" stroke="#191970" points="480.4929,-92.2291 469.9,-92.0271 478.0549,-98.7909 480.4929,-92.2291"/>
</g>
<!-- Node30&#45;&gt;Node11 -->
<g id="edge44" class="edge">
<title>Node30&#45;&gt;Node11</title>
<path fill="none" stroke="#191970" d="M1441.2848,-140.5157C1324.8838,-134.0744 1092.1711,-119.0181 1013.1959,-98 1011.0056,-97.4171 1008.7799,-96.7046 1006.5693,-95.9088"/>
<polygon fill="#191970" stroke="#191970" points="1007.7101,-92.5936 997.1303,-92.0294 1005.0491,-99.0681 1007.7101,-92.5936"/>
</g>
<!-- Node31 -->
<g id="node32" class="node">
<title>Node31</title>
<polygon fill="none" stroke="#bfbfbf" points="1678.1959,-67.5 1678.1959,-97.5 1842.1959,-97.5 1842.1959,-67.5 1678.1959,-67.5"/>
<text text-anchor="start" x="1686.1959" y="-85.5" font-family="Helvetica,sans-Serif" font-size="10.00" fill="#000000">Math/GenVector/Displacement</text>
<text text-anchor="middle" x="1760.1959" y="-74.5" font-family="Helvetica,sans-Serif" font-size="10.00" fill="#000000">Vector3D.h</text>
</g>
<!-- Node30&#45;&gt;Node31 -->
<g id="edge37" class="edge">
<title>Node30&#45;&gt;Node31</title>
<path fill="none" stroke="#191970" d="M1548.1392,-134.4581C1585.5984,-125.2799 1643.1167,-111.1867 1688.8032,-99.9926"/>
<polygon fill="#191970" stroke="#191970" points="1689.7765,-103.3577 1698.6563,-97.5784 1688.1106,-96.5589 1689.7765,-103.3577"/>
</g>
<!-- Node32 -->
<g id="node33" class="node">
<title>Node32</title>
<polygon fill="none" stroke="#bfbfbf" points="1860.6959,-73 1860.6959,-92 2049.6959,-92 2049.6959,-73 1860.6959,-73"/>
<text text-anchor="middle" x="1955.1959" y="-80" font-family="Helvetica,sans-Serif" font-size="10.00" fill="#000000">Math/GenVector/PositionVector3D.h</text>
</g>
<!-- Node30&#45;&gt;Node32 -->
<g id="edge38" class="edge">
<title>Node30&#45;&gt;Node32</title>
<path fill="none" stroke="#191970" d="M1576.7219,-135.2061C1645.7354,-126.1507 1755.9927,-111.4963 1851.1959,-98 1861.2631,-96.5728 1871.8728,-95.0329 1882.3124,-93.497"/>
<polygon fill="#191970" stroke="#191970" points="1882.865,-96.9534 1892.2461,-92.0293 1881.8419,-90.0286 1882.865,-96.9534"/>
</g>
<!-- Node33 -->
<g id="node34" class="node">
<title>Node33</title>
<polygon fill="none" stroke="#bfbfbf" points="1022.1959,-73 1022.1959,-92 1182.1959,-92 1182.1959,-73 1022.1959,-73"/>
<text text-anchor="middle" x="1102.1959" y="-80" font-family="Helvetica,sans-Serif" font-size="10.00" fill="#000000">Math/GenVector/Rotation3D.h</text>
</g>
<!-- Node30&#45;&gt;Node33 -->
<g id="edge39" class="edge">
<title>Node30&#45;&gt;Node33</title>
<path fill="none" stroke="#191970" d="M1441.493,-134.7816C1377.0561,-125.8718 1277.4082,-111.7398 1191.1959,-98 1182.8466,-96.6694 1174.0673,-95.2118 1165.4092,-93.7399"/>
<polygon fill="#191970" stroke="#191970" points="1165.7819,-90.2528 1155.3342,-92.012 1164.5986,-97.152 1165.7819,-90.2528"/>
</g>
<!-- Node34 -->
<g id="node35" class="node">
<title>Node34</title>
<polygon fill="none" stroke="#bfbfbf" points="1200.1959,-73 1200.1959,-92 1368.1959,-92 1368.1959,-73 1200.1959,-73"/>
<text text-anchor="middle" x="1284.1959" y="-80" font-family="Helvetica,sans-Serif" font-size="10.00" fill="#000000">Math/GenVector/Transform3D.h</text>
</g>
<!-- Node30&#45;&gt;Node34 -->
<g id="edge40" class="edge">
<title>Node30&#45;&gt;Node34</title>
<path fill="none" stroke="#191970" d="M1474.0396,-134.3906C1434.9069,-123.6944 1371.5749,-106.3836 1328.9376,-94.7294"/>
<polygon fill="#191970" stroke="#191970" points="1329.6742,-91.3024 1319.1052,-92.0419 1327.8286,-98.0547 1329.6742,-91.3024"/>
</g>
<!-- Node35 -->
<g id="node36" class="node">
<title>Node35</title>
<polygon fill="none" stroke="#bfbfbf" points="1386.6959,-73 1386.6959,-92 1559.6959,-92 1559.6959,-73 1386.6959,-73"/>
<text text-anchor="middle" x="1473.1959" y="-80" font-family="Helvetica,sans-Serif" font-size="10.00" fill="#000000">Math/GenVector/Translation3D.h</text>
</g>
<!-- Node30&#45;&gt;Node35 -->
<g id="edge41" class="edge">
<title>Node30&#45;&gt;Node35</title>
<path fill="none" stroke="#191970" d="M1503.5709,-134.3906C1498.3705,-125.5068 1490.4993,-112.0601 1484.0726,-101.0811"/>
<polygon fill="#191970" stroke="#191970" points="1486.9726,-99.1069 1478.9002,-92.2449 1480.9314,-102.6432 1486.9726,-99.1069"/>
</g>
<!-- Node36 -->
<g id="node37" class="node">
<title>Node36</title>
<polygon fill="none" stroke="#bfbfbf" points="1578.1959,-73 1578.1959,-92 1660.1959,-92 1660.1959,-73 1578.1959,-73"/>
<text text-anchor="middle" x="1619.1959" y="-80" font-family="Helvetica,sans-Serif" font-size="10.00" fill="#000000">TGeoMatrix.h</text>
</g>
<!-- Node30&#45;&gt;Node36 -->
<g id="edge43" class="edge">
<title>Node30&#45;&gt;Node36</title>
<path fill="none" stroke="#191970" d="M1526.3834,-134.3906C1544.304,-124.3713 1572.6053,-108.5483 1593.2482,-97.0071"/>
<polygon fill="#191970" stroke="#191970" points="1595.1086,-99.9769 1602.129,-92.0419 1591.6926,-93.867 1595.1086,-99.9769"/>
</g>
<!-- Node37 -->
<g id="node38" class="node">
<title>Node37</title>
<g id="a_node38"><a xlink:href="../../d2/dd0/Cartesian2D_8h.html" target="_top" xlink:title="MathUtils/Cartesian2D.h">
<polygon fill="none" stroke="#000000" points="2067.6959,-73 2067.6959,-92 2202.6959,-92 2202.6959,-73 2067.6959,-73"/>
<text text-anchor="middle" x="2135.1959" y="-80" font-family="Helvetica,sans-Serif" font-size="10.00" fill="#000000">MathUtils/Cartesian2D.h</text>
</a>
</g>
</g>
<!-- Node30&#45;&gt;Node37 -->
<g id="edge45" class="edge">
<title>Node30&#45;&gt;Node37</title>
<path fill="none" stroke="#191970" d="M1576.7948,-140.9135C1680.8437,-135.5849 1886.3303,-122.7688 2059.1959,-98 2066.8814,-96.8988 2074.9601,-95.5074 2082.865,-94.0124"/>
<polygon fill="#191970" stroke="#191970" points="2083.6017,-97.4346 2092.7422,-92.0773 2082.2559,-90.5652 2083.6017,-97.4346"/>
</g>
<!-- Node38 -->
<g id="node39" class="node">
<title>Node38</title>
<polygon fill="none" stroke="#bfbfbf" points="1955.1959,-.5 1955.1959,-30.5 2119.1959,-30.5 2119.1959,-.5 1955.1959,-.5"/>
<text text-anchor="start" x="1963.1959" y="-18.5" font-family="Helvetica,sans-Serif" font-size="10.00" fill="#000000">Math/GenVector/Displacement</text>
<text text-anchor="middle" x="2037.1959" y="-7.5" font-family="Helvetica,sans-Serif" font-size="10.00" fill="#000000">Vector2D.h</text>
</g>
<!-- Node37&#45;&gt;Node38 -->
<g id="edge46" class="edge">
<title>Node37&#45;&gt;Node38</title>
<path fill="none" stroke="#191970" d="M2121.1548,-72.9005C2107.2371,-63.3853 2085.4679,-48.5023 2067.5839,-36.2755"/>
<polygon fill="#191970" stroke="#191970" points="2069.3985,-33.2763 2059.168,-30.5218 2065.4478,-39.0549 2069.3985,-33.2763"/>
</g>
<!-- Node39 -->
<g id="node40" class="node">
<title>Node39</title>
<polygon fill="none" stroke="#bfbfbf" points="2137.6959,-6 2137.6959,-25 2326.6959,-25 2326.6959,-6 2137.6959,-6"/>
<text text-anchor="middle" x="2232.1959" y="-13" font-family="Helvetica,sans-Serif" font-size="10.00" fill="#000000">Math/GenVector/PositionVector2D.h</text>
</g>
<!-- Node37&#45;&gt;Node39 -->
<g id="edge47" class="edge">
<title>Node37&#45;&gt;Node39</title>
<path fill="none" stroke="#191970" d="M2149.0936,-72.9005C2165.0122,-61.9052 2191.308,-43.7422 2210.0557,-30.7927"/>
<polygon fill="#191970" stroke="#191970" points="2212.085,-33.6448 2218.3239,-25.0817 2208.1067,-27.8852 2212.085,-33.6448"/>
</g>
<!-- Node41 -->
<g id="node42" class="node">
<title>Node41</title>
<g id="a_node42"><a xlink:href="../../d0/dda/DataFormats_2Detectors_2TPC_2include_2DataFormatsTPC_2Constants_8h.html" target="_top" xlink:title="DataFormatsTPC/Constants.h">
<polygon fill="none" stroke="#000000" points="1590.6959,-196 1590.6959,-215 1749.6959,-215 1749.6959,-196 1590.6959,-196"/>
<text text-anchor="middle" x="1670.1959" y="-203" font-family="Helvetica,sans-Serif" font-size="10.00" fill="#000000">DataFormatsTPC/Constants.h</text>
</a>
</g>
</g>
<!-- Node40&#45;&gt;Node41 -->
<g id="edge51" class="edge">
<title>Node40&#45;&gt;Node41</title>
<path fill="none" stroke="#191970" d="M1670.1959,-257.3906C1670.1959,-248.8657 1670.1959,-236.1392 1670.1959,-225.4235"/>
<polygon fill="#191970" stroke="#191970" points="1673.696,-225.2448 1670.1959,-215.2449 1666.696,-225.2449 1673.696,-225.2448"/>
</g>
<!-- Node42 -->
<g id="node43" class="node">
<title>Node42</title>
<g id="a_node43"><a xlink:href="../../d1/d73/Defs_8h.html" target="_top" xlink:title="Common definitions for 2D coordinates. ">
<polygon fill="none" stroke="#000000" points="1767.6959,-196 1767.6959,-215 1900.6959,-215 1900.6959,-196 1767.6959,-196"/>
<text text-anchor="middle" x="1834.1959" y="-203" font-family="Helvetica,sans-Serif" font-size="10.00" fill="#000000">DataFormatsTPC/Defs.h</text>
</a>
</g>
</g>
<!-- Node40&#45;&gt;Node42 -->
<g id="edge52" class="edge">
<title>Node40&#45;&gt;Node42</title>
<path fill="none" stroke="#191970" d="M1695.8209,-257.3906C1723.6221,-246.9652 1768.1802,-230.2559 1799.1953,-218.6252"/>
<polygon fill="#191970" stroke="#191970" points="1800.6165,-221.8303 1808.7508,-215.0419 1798.1585,-215.276 1800.6165,-221.8303"/>
</g>
<!-- Node42&#45;&gt;Node30 -->
<g id="edge55" class="edge">
<title>Node42&#45;&gt;Node30</title>
<path fill="none" stroke="#191970" d="M1789.0155,-195.9964C1779.1931,-193.9768 1768.8524,-191.886 1759.1959,-190 1695.9825,-177.6539 1623.5917,-164.4342 1573.0327,-155.3496"/>
<polygon fill="#191970" stroke="#191970" points="1573.3651,-151.8534 1562.9041,-153.5325 1572.1289,-158.7434 1573.3651,-151.8534"/>
</g>
<!-- Node42&#45;&gt;Node37 -->
<g id="edge54" class="edge">
<title>Node42&#45;&gt;Node37</title>
<path fill="none" stroke="#191970" d="M1833.8783,-195.9957C1833.92,-180.5457 1836.4258,-150.0939 1854.1959,-134 1922.7607,-71.9025 1968.3121,-115.2445 2059.1959,-98 2065.7737,-96.7519 2072.6631,-95.404 2079.495,-94.042"/>
<polygon fill="#191970" stroke="#191970" points="2080.3065,-97.449 2089.4204,-92.0467 2078.9267,-90.5863 2080.3065,-97.449"/>
</g>
<!-- Node43 -->
<g id="node44" class="node">
<title>Node43</title>
<polygon fill="none" stroke="#bfbfbf" points="1862.6959,-134.5 1862.6959,-153.5 1909.6959,-153.5 1909.6959,-134.5 1862.6959,-134.5"/>
<text text-anchor="middle" x="1886.1959" y="-141.5" font-family="Helvetica,sans-Serif" font-size="10.00" fill="#000000">cmath</text>
</g>
<!-- Node42&#45;&gt;Node43 -->
<g id="edge53" class="edge">
<title>Node42&#45;&gt;Node43</title>
<path fill="none" stroke="#191970" d="M1842.3209,-195.8906C1850.06,-186.7376 1861.8946,-172.7409 1871.323,-161.59"/>
<polygon fill="#191970" stroke="#191970" points="1874.1723,-163.6409 1877.9563,-153.7449 1868.8269,-159.1213 1874.1723,-163.6409"/>
</g>
</g>
</svg>
        <g id="navigator" transform="translate(0 0)" fill="#404254">
                <rect fill="#f2f5e9" fill-opacity="0.5" stroke="#606060" stroke-width=".5" x="0" y="0" width="60" height="60"/>
                <use id="zoomplus" xlink:href="#zoomPlus" x="17" y="9" onmousedown="handleZoom(evt,'in')"/>
                <use id="zoomminus" xlink:href="#zoomMin" x="42" y="9" onmousedown="handleZoom(evt,'out')"/>
                <use id="reset" xlink:href="#resetDef" x="30" y="36" onmousedown="handleReset()"/>
                <g id="arrowUp" xlink:href="#dirArrow" transform="translate(30 24)" onmousedown="handlePan(0,-1)">
                  <use xlink:href="#rim" fill="#404040">
                        <set attributeName="fill" to="#808080" begin="arrowUp.mouseover" end="arrowUp.mouseout"/>
                  </use>
                  <path fill="none" stroke="white" stroke-width="1.5" d="M0,-3.0v7 M-2.5,-0.5L0,-3.0L2.5,-0.5"/>
                </g>
                <g id="arrowRight" xlink:href="#dirArrow" transform="rotate(90) translate(36 -43)" onmousedown="handlePan(1,0)">
                  <use xlink:href="#rim" fill="#404040">
                        <set attributeName="fill" to="#808080" begin="arrowRight.mouseover" end="arrowRight.mouseout"/>
                  </use>
                  <path fill="none" stroke="white" stroke-width="1.5" d="M0,-3.0v7 M-2.5,-0.5L0,-3.0L2.5,-0.5"/>
                </g>
                <g id="arrowDown" xlink:href="#dirArrow" transform="rotate(180) translate(-30 -48)" onmousedown="handlePan(0,1)">
                  <use xlink:href="#rim" fill="#404040">
                        <set attributeName="fill" to="#808080" begin="arrowDown.mouseover" end="arrowDown.mouseout"/>
                  </use>
                  <path fill="none" stroke="white" stroke-width="1.5" d="M0,-3.0v7 M-2.5,-0.5L0,-3.0L2.5,-0.5"/>
                </g>
                <g id="arrowLeft" xlink:href="#dirArrow" transform="rotate(270) translate(-36 17)" onmousedown="handlePan(-1,0)">
                  <use xlink:href="#rim" fill="#404040">
                        <set attributeName="fill" to="#808080" begin="arrowLeft.mouseover" end="arrowLeft.mouseout"/>
                  </use>
                  <path fill="none" stroke="white" stroke-width="1.5" d="M0,-3.0v7 M-2.5,-0.5L0,-3.0L2.5,-0.5"/>
                </g>
        </g>
        <svg viewBox="0 0 15 15" width="100%" height="30px" preserveAspectRatio="xMaxYMin meet">
         <g id="arrow_out" transform="scale(0.3 0.3)">
          <a xlink:href="TPC_2simulation_2include_2TPCSimulation_2Detector_8h__incl_org.svg" target="_base">
           <rect id="button" ry="5" rx="5" y="6" x="6" height="38" width="38"
                fill="#f2f5e9" fill-opacity="0.5" stroke="#606060" stroke-width="1.0"/>
           <path id="arrow"
             d="M 11.500037,31.436501 C 11.940474,20.09759 22.043105,11.32322 32.158766,21.979434 L 37.068811,17.246167 C 37.068811,17.246167 37.088388,32 37.088388,32 L 22.160133,31.978069 C 22.160133,31.978069 26.997745,27.140456 26.997745,27.140456 C 18.528582,18.264221 13.291696,25.230495 11.500037,31.436501 z"
             style="fill:#404040;"/>
          </a>
         </g>
        </svg>
</svg>
