<?xml version="1.0" encoding="UTF-8" standalone="no"?>
<!DOCTYPE svg PUBLIC "-//W3C//DTD SVG 1.1//EN"
 "http://www.w3.org/Graphics/SVG/1.1/DTD/svg11.dtd">
<!-- Generated by graphviz version 2.40.1 (20161225.0304)
 -->
<!-- Title: /home/travis/build/AliceO2Group/AliceO2/Framework/Core/include/Framework/CommonServices.h Pages: 1 -->
<svg width="471pt" height="229pt"
 viewBox="0.00 0.00 471.00 229.00" xmlns="http://www.w3.org/2000/svg" xmlns:xlink="http://www.w3.org/1999/xlink">
<g id="graph0" class="graph" transform="scale(1 1) rotate(0) translate(4 225)">
<title>/home/travis/build/AliceO2Group/AliceO2/Framework/Core/include/Framework/CommonServices.h</title>
<!-- Node0 -->
<g id="node1" class="node">
<title>Node0</title>
<polygon fill="#bfbfbf" stroke="#000000" points="102,-168.5 102,-220.5 273,-220.5 273,-168.5 102,-168.5"/>
<text text-anchor="start" x="110" y="-208.5" font-family="Helvetica,sans-Serif" font-size="10.00" fill="#000000">/home/travis/build</text>
<text text-anchor="start" x="110" y="-197.5" font-family="Helvetica,sans-Serif" font-size="10.00" fill="#000000">/AliceO2Group/AliceO2</text>
<text text-anchor="start" x="110" y="-186.5" font-family="Helvetica,sans-Serif" font-size="10.00" fill="#000000">/Framework/Core/include</text>
<text text-anchor="middle" x="187.5" y="-175.5" font-family="Helvetica,sans-Serif" font-size="10.00" fill="#000000">/Framework/CommonServices.h</text>
</g>
<!-- Node1 -->
<g id="node2" class="node">
<title>Node1</title>
<g id="a_node2"><a xlink:href="../../d4/d61/ServiceSpec_8h.html" target="_top" xlink:title="Framework/ServiceSpec.h">
<polygon fill="none" stroke="#000000" points="34.5,-112.5 34.5,-131.5 176.5,-131.5 176.5,-112.5 34.5,-112.5"/>
<text text-anchor="middle" x="105.5" y="-119.5" font-family="Helvetica,sans-Serif" font-size="10.00" fill="#000000">Framework/ServiceSpec.h</text>
</a>
</g>
</g>
<!-- Node0&#45;&gt;Node1 -->
<g id="edge1" class="edge">
<title>Node0&#45;&gt;Node1</title>
<path fill="none" stroke="#191970" d="M157.8961,-168.3258C146.5708,-158.3126 133.9852,-147.1851 123.9879,-138.346"/>
<polygon fill="#191970" stroke="#191970" points="126.0933,-135.5357 116.2833,-131.534 121.4567,-140.7799 126.0933,-135.5357"/>
</g>
<!-- Node5 -->
<g id="node6" class="node">
<title>Node5</title>
<g id="a_node6"><a xlink:href="../../d2/d9a/TypeIdHelpers_8h.html" target="_top" xlink:title="Framework/TypeIdHelpers.h">
<polygon fill="none" stroke="#000000" points="194.5,-112.5 194.5,-131.5 346.5,-131.5 346.5,-112.5 194.5,-112.5"/>
<text text-anchor="middle" x="270.5" y="-119.5" font-family="Helvetica,sans-Serif" font-size="10.00" fill="#000000">Framework/TypeIdHelpers.h</text>
</a>
</g>
</g>
<!-- Node0&#45;&gt;Node5 -->
<g id="edge5" class="edge">
<title>Node0&#45;&gt;Node5</title>
<path fill="none" stroke="#191970" d="M217.4649,-168.3258C228.9284,-158.3126 241.6674,-147.1851 251.7867,-138.346"/>
<polygon fill="#191970" stroke="#191970" points="254.3563,-140.7486 259.5852,-131.534 249.7513,-135.4767 254.3563,-140.7486"/>
</g>
<!-- Node2 -->
<g id="node3" class="node">
<title>Node2</title>
<polygon fill="none" stroke="#bfbfbf" points="0,-56.5 0,-75.5 65,-75.5 65,-56.5 0,-56.5"/>
<text text-anchor="middle" x="32.5" y="-63.5" font-family="Helvetica,sans-Serif" font-size="10.00" fill="#000000">functional</text>
</g>
<!-- Node1&#45;&gt;Node2 -->
<g id="edge2" class="edge">
<title>Node1&#45;&gt;Node2</title>
<path fill="none" stroke="#191970" d="M92.7844,-112.2455C81.898,-103.8943 66.0117,-91.7076 53.28,-81.9408"/>
<polygon fill="#191970" stroke="#191970" points="55.1346,-78.9523 45.0699,-75.6427 50.8739,-84.5063 55.1346,-78.9523"/>
</g>
<!-- Node3 -->
<g id="node4" class="node">
<title>Node3</title>
<polygon fill="none" stroke="#bfbfbf" points="83.5,-56.5 83.5,-75.5 127.5,-75.5 127.5,-56.5 83.5,-56.5"/>
<text text-anchor="middle" x="105.5" y="-63.5" font-family="Helvetica,sans-Serif" font-size="10.00" fill="#000000">string</text>
</g>
<!-- Node1&#45;&gt;Node3 -->
<g id="edge3" class="edge">
<title>Node1&#45;&gt;Node3</title>
<path fill="none" stroke="#191970" d="M105.5,-112.2455C105.5,-104.9382 105.5,-94.6944 105.5,-85.7046"/>
<polygon fill="#191970" stroke="#191970" points="109.0001,-85.6426 105.5,-75.6427 102.0001,-85.6427 109.0001,-85.6426"/>
</g>
<!-- Node4 -->
<g id="node5" class="node">
<title>Node4</title>
<polygon fill="none" stroke="#bfbfbf" points="146,-56.5 146,-75.5 193,-75.5 193,-56.5 146,-56.5"/>
<text text-anchor="middle" x="169.5" y="-63.5" font-family="Helvetica,sans-Serif" font-size="10.00" fill="#000000">vector</text>
</g>
<!-- Node1&#45;&gt;Node4 -->
<g id="edge4" class="edge">
<title>Node1&#45;&gt;Node4</title>
<path fill="none" stroke="#191970" d="M116.6479,-112.2455C126.0087,-104.0549 139.5858,-92.1749 150.6349,-82.5069"/>
<polygon fill="#191970" stroke="#191970" points="153.2588,-84.8618 158.4798,-75.6427 148.6492,-79.5937 153.2588,-84.8618"/>
</g>
<!-- Node6 -->
<g id="node7" class="node">
<title>Node6</title>
<polygon fill="none" stroke="#bfbfbf" points="223,-56.5 223,-75.5 296,-75.5 296,-56.5 223,-56.5"/>
<text text-anchor="middle" x="259.5" y="-63.5" font-family="Helvetica,sans-Serif" font-size="10.00" fill="#000000">string_view</text>
</g>
<!-- Node5&#45;&gt;Node6 -->
<g id="edge6" class="edge">
<title>Node5&#45;&gt;Node6</title>
<path fill="none" stroke="#191970" d="M268.5839,-112.2455C267.1486,-104.9382 265.1364,-94.6944 263.3705,-85.7046"/>
<polygon fill="#191970" stroke="#191970" points="266.756,-84.7805 261.3941,-75.6427 259.8873,-86.1298 266.756,-84.7805"/>
</g>
<!-- Node7 -->
<g id="node8" class="node">
<title>Node7</title>
<g id="a_node8"><a xlink:href="../../db/dff/StringHelpers_8h.html" target="_top" xlink:title="Framework/StringHelpers.h">
<polygon fill="none" stroke="#000000" points="314,-56.5 314,-75.5 463,-75.5 463,-56.5 314,-56.5"/>
<text text-anchor="middle" x="388.5" y="-63.5" font-family="Helvetica,sans-Serif" font-size="10.00" fill="#000000">Framework/StringHelpers.h</text>
</a>
</g>
</g>
<!-- Node5&#45;&gt;Node7 -->
<g id="edge7" class="edge">
<title>Node5&#45;&gt;Node7</title>
<path fill="none" stroke="#191970" d="M290.7849,-112.3733C309.6421,-103.4241 337.946,-89.9917 359.2455,-79.8835"/>
<polygon fill="#191970" stroke="#191970" points="360.9461,-82.9506 368.4798,-75.5011 357.9449,-76.6266 360.9461,-82.9506"/>
</g>
<!-- Node8 -->
<g id="node9" class="node">
<title>Node8</title>
<polygon fill="none" stroke="#bfbfbf" points="363.5,-.5 363.5,-19.5 413.5,-19.5 413.5,-.5 363.5,-.5"/>
<text text-anchor="middle" x="388.5" y="-7.5" font-family="Helvetica,sans-Serif" font-size="10.00" fill="#000000">cstdint</text>
</g>
<!-- Node7&#45;&gt;Node8 -->
<g id="edge8" class="edge">
<title>Node7&#45;&gt;Node8</title>
<path fill="none" stroke="#191970" d="M388.5,-56.2455C388.5,-48.9382 388.5,-38.6944 388.5,-29.7046"/>
<polygon fill="#191970" stroke="#191970" points="392.0001,-29.6426 388.5,-19.6427 385.0001,-29.6427 392.0001,-29.6426"/>
</g>
</g>
</svg>
