<?xml version="1.0" encoding="UTF-8" standalone="no"?>
<!DOCTYPE svg PUBLIC "-//W3C//DTD SVG 1.1//EN"
 "http://www.w3.org/Graphics/SVG/1.1/DTD/svg11.dtd">
<!-- Generated by graphviz version 2.40.1 (20161225.0304)
 -->
<!-- Title: DTask Pages: 1 -->
<!--zoomable 805 -->
<svg id="main" version="1.1" xmlns="http://www.w3.org/2000/svg" xmlns:xlink="http://www.w3.org/1999/xlink" xml:space="preserve" onload="init(evt)">
<style type="text/css"><![CDATA[
.edge:hover path { stroke: red; }
.edge:hover polygon { stroke: red; fill: red; }
]]></style>
<script type="text/javascript"><![CDATA[
var edges = document.getElementsByTagName('g');
if (edges && edges.length) {
  for (var i=0;i<edges.length;i++) {
    if (edges[i].id.substr(0,4)=='edge') {
      edges[i].setAttribute('class','edge');
    }
  }
}
]]></script>
        <defs>
                <circle id="rim" cx="0" cy="0" r="7"/>
                <circle id="rim2" cx="0" cy="0" r="3.5"/>
                <g id="zoomPlus">
                        <use xlink:href="#rim" fill="#404040">
                                <set attributeName="fill" to="#808080" begin="zoomplus.mouseover" end="zoomplus.mouseout"/>
                        </use>
                        <path d="M-4,0h8M0,-4v8" fill="none" stroke="white" stroke-width="1.5" pointer-events="none"/>
                </g>
                <g id="zoomMin">
                        <use xlink:href="#rim" fill="#404040">
                                <set attributeName="fill" to="#808080" begin="zoomminus.mouseover" end="zoomminus.mouseout"/>
                        </use>
                        <path d="M-4,0h8" fill="none" stroke="white" stroke-width="1.5" pointer-events="none"/>
                </g>
                <g id="dirArrow">
                        <path fill="none" stroke="white" stroke-width="1.5" d="M0,-3.0v7 M-2.5,-0.5L0,-3.0L2.5,-0.5"/>
                </g>
               <g id="resetDef">
                       <use xlink:href="#rim2" fill="#404040">
                               <set attributeName="fill" to="#808080" begin="reset.mouseover" end="reset.mouseout"/>
                       </use>
               </g>
        </defs>

<script type="text/javascript">
var viewWidth = 879;
var viewHeight = 805;
var sectionId = 'dynsection-0';
</script>
<script xlink:href="../../svgpan.js"/>
<svg id="graph" class="graph">
<g id="viewport">
<title>DTask</title>
<!-- Node1 -->
<g id="node1" class="node">
<title>Node1</title>
<polygon fill="#bfbfbf" stroke="#000000" points="277.5,-.5 277.5,-79.5 350.5,-79.5 350.5,-.5 277.5,-.5"/>
<text text-anchor="middle" x="314" y="-67.5" font-family="Helvetica,sans-Serif" font-size="10.00" fill="#000000">DTask</text>
<polyline fill="none" stroke="#000000" points="277.5,-60.5 350.5,-60.5 "/>
<text text-anchor="middle" x="314" y="-48.5" font-family="Helvetica,sans-Serif" font-size="10.00" fill="#000000"> </text>
<polyline fill="none" stroke="#000000" points="277.5,-41.5 350.5,-41.5 "/>
<text text-anchor="start" x="285.5" y="-29.5" font-family="Helvetica,sans-Serif" font-size="10.00" fill="#000000">+ init()</text>
<text text-anchor="start" x="285.5" y="-18.5" font-family="Helvetica,sans-Serif" font-size="10.00" fill="#000000">+ process()</text>
<text text-anchor="start" x="285.5" y="-7.5" font-family="Helvetica,sans-Serif" font-size="10.00" fill="#000000">+ process()</text>
</g>
<!-- Node2 -->
<g id="node2" class="node">
<title>Node2</title>
<g id="a_node2"><a xlink:href="../../d4/d79/structo2_1_1framework_1_1OutputObj.html" target="_top" xlink:title="{o2::framework::OutputObj\l\&lt; TList \&gt;\n||+ spec()\l+ OutputObj()\l+ OutputObj()\l+ setObject()\l+ setObject()\l+ setObject()\l+ setHash()\l+ operator&#45;\&gt;()\l+ operator*()\l+ ref()\l}">
<polygon fill="none" stroke="#000000" points="242.5,-127.5 242.5,-294.5 385.5,-294.5 385.5,-127.5 242.5,-127.5"/>
<text text-anchor="start" x="250.5" y="-282.5" font-family="Helvetica,sans-Serif" font-size="10.00" fill="#000000">o2::framework::OutputObj</text>
<text text-anchor="middle" x="314" y="-271.5" font-family="Helvetica,sans-Serif" font-size="10.00" fill="#000000">&lt; TList &gt;</text>
<polyline fill="none" stroke="#000000" points="242.5,-264.5 385.5,-264.5 "/>
<text text-anchor="middle" x="314" y="-252.5" font-family="Helvetica,sans-Serif" font-size="10.00" fill="#000000"> </text>
<polyline fill="none" stroke="#000000" points="242.5,-245.5 385.5,-245.5 "/>
<text text-anchor="start" x="250.5" y="-233.5" font-family="Helvetica,sans-Serif" font-size="10.00" fill="#000000">+ spec()</text>
<text text-anchor="start" x="250.5" y="-222.5" font-family="Helvetica,sans-Serif" font-size="10.00" fill="#000000">+ OutputObj()</text>
<text text-anchor="start" x="250.5" y="-211.5" font-family="Helvetica,sans-Serif" font-size="10.00" fill="#000000">+ OutputObj()</text>
<text text-anchor="start" x="250.5" y="-200.5" font-family="Helvetica,sans-Serif" font-size="10.00" fill="#000000">+ setObject()</text>
<text text-anchor="start" x="250.5" y="-189.5" font-family="Helvetica,sans-Serif" font-size="10.00" fill="#000000">+ setObject()</text>
<text text-anchor="start" x="250.5" y="-178.5" font-family="Helvetica,sans-Serif" font-size="10.00" fill="#000000">+ setObject()</text>
<text text-anchor="start" x="250.5" y="-167.5" font-family="Helvetica,sans-Serif" font-size="10.00" fill="#000000">+ setHash()</text>
<text text-anchor="start" x="250.5" y="-156.5" font-family="Helvetica,sans-Serif" font-size="10.00" fill="#000000">+ operator&#45;&gt;()</text>
<text text-anchor="start" x="250.5" y="-145.5" font-family="Helvetica,sans-Serif" font-size="10.00" fill="#000000">+ operator*()</text>
<text text-anchor="start" x="250.5" y="-134.5" font-family="Helvetica,sans-Serif" font-size="10.00" fill="#000000">+ ref()</text>
</a>
</g>
</g>
<!-- Node2&#45;&gt;Node1 -->
<g id="edge1" class="edge">
<title>Node2&#45;&gt;Node1</title>
<path fill="none" stroke="#404040" d="M314,-127.2533C314,-115.2026 314,-103.1055 314,-91.92"/>
<polygon fill="none" stroke="#404040" points="314.0001,-91.7296 310,-85.7296 314,-79.7296 318,-85.7296 314.0001,-91.7296"/>
<text text-anchor="middle" x="327.5" y="-101" font-family="Helvetica,sans-Serif" font-size="10.00" fill="#000000"> +list</text>
</g>
<!-- Node3 -->
<g id="node3" class="node">
<title>Node3</title>
<polygon fill="none" stroke="#bfbfbf" points="0,-392 0,-449 114,-449 114,-392 0,-392"/>
<text text-anchor="middle" x="57" y="-437" font-family="Helvetica,sans-Serif" font-size="10.00" fill="#000000">shared_ptr&lt; TList &gt;</text>
<polyline fill="none" stroke="#bfbfbf" points="0,-430 114,-430 "/>
<text text-anchor="middle" x="57" y="-418" font-family="Helvetica,sans-Serif" font-size="10.00" fill="#000000"> </text>
<polyline fill="none" stroke="#bfbfbf" points="0,-411 114,-411 "/>
<text text-anchor="middle" x="57" y="-399" font-family="Helvetica,sans-Serif" font-size="10.00" fill="#000000"> </text>
</g>
<!-- Node3&#45;&gt;Node2 -->
<g id="edge2" class="edge">
<title>Node3&#45;&gt;Node2</title>
<path fill="none" stroke="#404040" d="M58.1134,-391.8118C60.4499,-368.1667 67.1699,-335.0492 86,-313 122.9428,-269.7417 181.8946,-244.0334 230.5982,-229.2478"/>
<polygon fill="none" stroke="#404040" points="230.8958,-229.1612 235.5398,-223.6446 242.4183,-225.8095 237.7743,-231.3262 230.8958,-229.1612"/>
<text text-anchor="middle" x="107" y="-316" font-family="Helvetica,sans-Serif" font-size="10.00" fill="#000000"> +object</text>
</g>
<!-- Node4 -->
<g id="node4" class="node">
<title>Node4</title>
<polygon fill="none" stroke="#bfbfbf" points="244.5,-574 244.5,-631 383.5,-631 383.5,-574 244.5,-574"/>
<text text-anchor="middle" x="314" y="-619" font-family="Helvetica,sans-Serif" font-size="10.00" fill="#000000">OutputObjHandlingPolicy</text>
<polyline fill="none" stroke="#bfbfbf" points="244.5,-612 383.5,-612 "/>
<text text-anchor="middle" x="314" y="-600" font-family="Helvetica,sans-Serif" font-size="10.00" fill="#000000"> </text>
<polyline fill="none" stroke="#bfbfbf" points="244.5,-593 383.5,-593 "/>
<text text-anchor="middle" x="314" y="-581" font-family="Helvetica,sans-Serif" font-size="10.00" fill="#000000"> </text>
</g>
<!-- Node4&#45;&gt;Node2 -->
<g id="edge3" class="edge">
<title>Node4&#45;&gt;Node2</title>
<path fill="none" stroke="#404040" d="M314,-573.7121C314,-518.2251 314,-394.2313 314,-306.7164"/>
<polygon fill="none" stroke="#404040" points="314.0001,-306.6207 310,-300.6207 314,-294.6207 318,-300.6207 314.0001,-306.6207"/>
<text text-anchor="middle" x="334.5" y="-418" font-family="Helvetica,sans-Serif" font-size="10.00" fill="#000000"> +policy</text>
</g>
<!-- Node11 -->
<g id="node11" class="node">
<title>Node11</title>
<g id="a_node11"><a xlink:href="../../d4/d79/structo2_1_1framework_1_1OutputObj.html" target="_top" xlink:title="{o2::framework::OutputObj\&lt; T \&gt;\n||+ OutputObj()\l+ OutputObj()\l+ setObject()\l+ setObject()\l+ setObject()\l+ setHash()\l+ spec()\l+ operator&#45;\&gt;()\l+ operator*()\l+ ref()\l}">
<polygon fill="none" stroke="#000000" points="373,-342.5 373,-498.5 545,-498.5 545,-342.5 373,-342.5"/>
<text text-anchor="middle" x="459" y="-486.5" font-family="Helvetica,sans-Serif" font-size="10.00" fill="#000000">o2::framework::OutputObj&lt; T &gt;</text>
<polyline fill="none" stroke="#000000" points="373,-479.5 545,-479.5 "/>
<text text-anchor="middle" x="459" y="-467.5" font-family="Helvetica,sans-Serif" font-size="10.00" fill="#000000"> </text>
<polyline fill="none" stroke="#000000" points="373,-460.5 545,-460.5 "/>
<text text-anchor="start" x="381" y="-448.5" font-family="Helvetica,sans-Serif" font-size="10.00" fill="#000000">+ OutputObj()</text>
<text text-anchor="start" x="381" y="-437.5" font-family="Helvetica,sans-Serif" font-size="10.00" fill="#000000">+ OutputObj()</text>
<text text-anchor="start" x="381" y="-426.5" font-family="Helvetica,sans-Serif" font-size="10.00" fill="#000000">+ setObject()</text>
<text text-anchor="start" x="381" y="-415.5" font-family="Helvetica,sans-Serif" font-size="10.00" fill="#000000">+ setObject()</text>
<text text-anchor="start" x="381" y="-404.5" font-family="Helvetica,sans-Serif" font-size="10.00" fill="#000000">+ setObject()</text>
<text text-anchor="start" x="381" y="-393.5" font-family="Helvetica,sans-Serif" font-size="10.00" fill="#000000">+ setHash()</text>
<text text-anchor="start" x="381" y="-382.5" font-family="Helvetica,sans-Serif" font-size="10.00" fill="#000000">+ spec()</text>
<text text-anchor="start" x="381" y="-371.5" font-family="Helvetica,sans-Serif" font-size="10.00" fill="#000000">+ operator&#45;&gt;()</text>
<text text-anchor="start" x="381" y="-360.5" font-family="Helvetica,sans-Serif" font-size="10.00" fill="#000000">+ operator*()</text>
<text text-anchor="start" x="381" y="-349.5" font-family="Helvetica,sans-Serif" font-size="10.00" fill="#000000">+ ref()</text>
</a>
</g>
</g>
<!-- Node4&#45;&gt;Node11 -->
<g id="edge13" class="edge">
<title>Node4&#45;&gt;Node11</title>
<path fill="none" stroke="#404040" d="M336.9757,-573.6616C351.2162,-555.7873 370.3397,-531.784 389.2172,-508.0894"/>
<polygon fill="none" stroke="#404040" points="389.2324,-508.0704 389.8426,-500.8851 396.7099,-498.6849 396.0996,-505.8701 389.2324,-508.0704"/>
<text text-anchor="middle" x="398.5" y="-520" font-family="Helvetica,sans-Serif" font-size="10.00" fill="#000000"> +policy</text>
</g>
<!-- Node5 -->
<g id="node5" class="node">
<title>Node5</title>
<g id="a_node5"><a xlink:href="../../d3/d87/classuint32__t.html" target="_top" xlink:title="{uint32_t\n||}">
<polygon fill="none" stroke="#000000" points="170,-574 170,-631 226,-631 226,-574 170,-574"/>
<text text-anchor="middle" x="198" y="-619" font-family="Helvetica,sans-Serif" font-size="10.00" fill="#000000">uint32_t</text>
<polyline fill="none" stroke="#000000" points="170,-612 226,-612 "/>
<text text-anchor="middle" x="198" y="-600" font-family="Helvetica,sans-Serif" font-size="10.00" fill="#000000"> </text>
<polyline fill="none" stroke="#000000" points="170,-593 226,-593 "/>
<text text-anchor="middle" x="198" y="-581" font-family="Helvetica,sans-Serif" font-size="10.00" fill="#000000"> </text>
</a>
</g>
</g>
<!-- Node5&#45;&gt;Node2 -->
<g id="edge4" class="edge">
<title>Node5&#45;&gt;Node2</title>
<path fill="none" stroke="#404040" d="M199.693,-573.9731C203.2683,-525.2087 213.7311,-423.2204 242,-342 246.2127,-329.8964 251.4793,-317.5878 257.2364,-305.6036"/>
<polygon fill="none" stroke="#404040" points="257.311,-305.4533 256.3951,-298.3006 262.6454,-294.7042 263.5612,-301.8569 257.311,-305.4533"/>
<text text-anchor="middle" x="276" y="-418" font-family="Helvetica,sans-Serif" font-size="10.00" fill="#000000"> +mTaskHash</text>
</g>
<!-- Node5&#45;&gt;Node11 -->
<g id="edge12" class="edge">
<title>Node5&#45;&gt;Node11</title>
<path fill="none" stroke="#404040" d="M212.3033,-573.8319C218.2703,-564.0301 225.9405,-553.6268 235,-546 259.8225,-525.103 271.6004,-528.3449 302,-517 326.8897,-507.7114 335.506,-511.402 359,-499 360.0034,-498.4703 361.0068,-497.9303 362.0098,-497.3805"/>
<polygon fill="none" stroke="#404040" points="362.3521,-497.1813 365.5258,-490.7062 372.7236,-491.1454 369.5498,-497.6205 362.3521,-497.1813"/>
<text text-anchor="middle" x="336" y="-520" font-family="Helvetica,sans-Serif" font-size="10.00" fill="#000000"> +mTaskHash</text>
</g>
<!-- Node6 -->
<g id="node6" class="node">
<title>Node6</title>
<polygon fill="none" stroke="#bfbfbf" points="520.5,-723 520.5,-780 549.5,-780 549.5,-723 520.5,-723"/>
<text text-anchor="middle" x="535" y="-768" font-family="Helvetica,sans-Serif" font-size="10.00" fill="#000000">int</text>
<polyline fill="none" stroke="#bfbfbf" points="520.5,-761 549.5,-761 "/>
<text text-anchor="middle" x="535" y="-749" font-family="Helvetica,sans-Serif" font-size="10.00" fill="#000000"> </text>
<polyline fill="none" stroke="#bfbfbf" points="520.5,-742 549.5,-742 "/>
<text text-anchor="middle" x="535" y="-730" font-family="Helvetica,sans-Serif" font-size="10.00" fill="#000000"> </text>
</g>
<!-- Node6&#45;&gt;Node2 -->
<g id="edge5" class="edge">
<title>Node6&#45;&gt;Node2</title>
<path fill="none" stroke="#404040" d="M520.2498,-750.2126C456.6447,-744.3296 206.9708,-717.7257 161,-659 73.3602,-547.0439 140.6766,-469.2991 204,-342 212.246,-325.4231 222.9995,-309.1509 234.5501,-294.0181"/>
<polygon fill="none" stroke="#404040" points="234.8177,-293.678 235.3837,-286.4891 242.2372,-284.2466 241.6713,-291.4354 234.8177,-293.678"/>
<text text-anchor="middle" x="142" y="-520" font-family="Helvetica,sans-Serif" font-size="10.00" fill="#000000"> +label</text>
</g>
<!-- Node8 -->
<g id="node8" class="node">
<title>Node8</title>
<g id="a_node8"><a xlink:href="../../da/d96/structo2_1_1framework_1_1InputSpec.html" target="_top" xlink:title="{o2::framework::InputSpec\n||+ InputSpec()\l+ InputSpec()\l+ InputSpec()\l+ InputSpec()\l+ InputSpec()\l+ operator==()\l}">
<polygon fill="none" stroke="#000000" points="645,-546.5 645,-658.5 787,-658.5 787,-546.5 645,-546.5"/>
<text text-anchor="middle" x="716" y="-646.5" font-family="Helvetica,sans-Serif" font-size="10.00" fill="#000000">o2::framework::InputSpec</text>
<polyline fill="none" stroke="#000000" points="645,-639.5 787,-639.5 "/>
<text text-anchor="middle" x="716" y="-627.5" font-family="Helvetica,sans-Serif" font-size="10.00" fill="#000000"> </text>
<polyline fill="none" stroke="#000000" points="645,-620.5 787,-620.5 "/>
<text text-anchor="start" x="653" y="-608.5" font-family="Helvetica,sans-Serif" font-size="10.00" fill="#000000">+ InputSpec()</text>
<text text-anchor="start" x="653" y="-597.5" font-family="Helvetica,sans-Serif" font-size="10.00" fill="#000000">+ InputSpec()</text>
<text text-anchor="start" x="653" y="-586.5" font-family="Helvetica,sans-Serif" font-size="10.00" fill="#000000">+ InputSpec()</text>
<text text-anchor="start" x="653" y="-575.5" font-family="Helvetica,sans-Serif" font-size="10.00" fill="#000000">+ InputSpec()</text>
<text text-anchor="start" x="653" y="-564.5" font-family="Helvetica,sans-Serif" font-size="10.00" fill="#000000">+ InputSpec()</text>
<text text-anchor="start" x="653" y="-553.5" font-family="Helvetica,sans-Serif" font-size="10.00" fill="#000000">+ operator==()</text>
</a>
</g>
</g>
<!-- Node6&#45;&gt;Node8 -->
<g id="edge10" class="edge">
<title>Node6&#45;&gt;Node8</title>
<path fill="none" stroke="#404040" d="M549.506,-739.5586C568.9058,-723.5886 604.7473,-694.0837 638.2201,-666.5287"/>
<polygon fill="none" stroke="#404040" points="638.3181,-666.4481 640.4082,-659.5465 647.5827,-658.8214 645.4927,-665.723 638.3181,-666.4481"/>
<text text-anchor="middle" x="649" y="-680" font-family="Helvetica,sans-Serif" font-size="10.00" fill="#000000"> +binding</text>
</g>
<!-- Node6&#45;&gt;Node11 -->
<g id="edge14" class="edge">
<title>Node6&#45;&gt;Node11</title>
<path fill="none" stroke="#404040" d="M533.1829,-722.8483C530.1719,-682.7675 522.8344,-607.9194 507,-546 503.978,-534.1826 500.1879,-521.9569 496.0697,-509.9826"/>
<polygon fill="none" stroke="#404040" points="496.0444,-509.9112 490.2696,-505.5924 492.035,-498.6008 497.8098,-502.9195 496.0444,-509.9112"/>
<text text-anchor="middle" x="544" y="-600" font-family="Helvetica,sans-Serif" font-size="10.00" fill="#000000"> +label</text>
</g>
<!-- Node7 -->
<g id="node7" class="node">
<title>Node7</title>
<polygon fill="none" stroke="#bfbfbf" points="589,-574 589,-631 627,-631 627,-574 589,-574"/>
<text text-anchor="middle" x="608" y="-619" font-family="Helvetica,sans-Serif" font-size="10.00" fill="#000000">bool</text>
<polyline fill="none" stroke="#bfbfbf" points="589,-612 627,-612 "/>
<text text-anchor="middle" x="608" y="-600" font-family="Helvetica,sans-Serif" font-size="10.00" fill="#000000"> </text>
<polyline fill="none" stroke="#bfbfbf" points="589,-593 627,-593 "/>
<text text-anchor="middle" x="608" y="-581" font-family="Helvetica,sans-Serif" font-size="10.00" fill="#000000"> </text>
</g>
<!-- Node7&#45;&gt;Node2 -->
<g id="edge6" class="edge">
<title>Node7&#45;&gt;Node2</title>
<path fill="none" stroke="#404040" d="M609.9822,-573.9693C612.044,-521.9905 609.1082,-410.887 554,-342 513.8726,-291.8395 449.1081,-258.105 396.9649,-237.4467"/>
<polygon fill="none" stroke="#404040" points="396.9032,-237.423 389.8664,-238.9987 385.7054,-233.1091 392.7423,-231.5335 396.9032,-237.423"/>
<text text-anchor="middle" x="638" y="-418" font-family="Helvetica,sans-Serif" font-size="10.00" fill="#000000"> +isdangling</text>
</g>
<!-- Node7&#45;&gt;Node11 -->
<g id="edge16" class="edge">
<title>Node7&#45;&gt;Node11</title>
<path fill="none" stroke="#404040" d="M595.2506,-573.9446C589.9672,-564.2664 583.1492,-553.914 575,-546 563.015,-534.3608 554.7096,-538.8433 542,-528 534.811,-521.8666 527.8386,-515.0189 521.1913,-507.8308"/>
<polygon fill="none" stroke="#404040" points="520.93,-507.5371 513.9533,-505.7135 512.9533,-498.572 519.93,-500.3957 520.93,-507.5371"/>
<text text-anchor="middle" x="573" y="-520" font-family="Helvetica,sans-Serif" font-size="10.00" fill="#000000"> +isdangling</text>
</g>
<!-- Node8&#45;&gt;Node2 -->
<g id="edge7" class="edge">
<title>Node8&#45;&gt;Node2</title>
<path fill="none" stroke="#404040" d="M722.0218,-546.3148C725.0401,-488.5726 720.4692,-399.2522 673,-342 604.8894,-259.8524 480.6535,-229.2178 397.7029,-217.7936"/>
<polygon fill="none" stroke="#404040" points="397.6754,-217.7902 391.21,-220.9835 385.7755,-216.2437 392.241,-213.0503 397.6754,-217.7902"/>
<text text-anchor="middle" x="739" y="-418" font-family="Helvetica,sans-Serif" font-size="10.00" fill="#000000"> +spec</text>
</g>
<!-- Node8&#45;&gt;Node11 -->
<g id="edge17" class="edge">
<title>Node8&#45;&gt;Node11</title>
<path fill="none" stroke="#404040" d="M647.029,-546.3198C634.2168,-536.3374 620.8258,-526.1988 608,-517 591.2517,-504.988 573.0858,-492.6666 555.3859,-481.017"/>
<polygon fill="none" stroke="#404040" points="555.0741,-480.8131 547.8632,-480.8752 545.0325,-474.243 552.2433,-474.1808 555.0741,-480.8131"/>
<text text-anchor="middle" x="637" y="-520" font-family="Helvetica,sans-Serif" font-size="10.00" fill="#000000"> +spec</text>
</g>
<!-- Node9 -->
<g id="node9" class="node">
<title>Node9</title>
<polygon fill="none" stroke="#bfbfbf" points="783,-723 783,-780 871,-780 871,-723 783,-723"/>
<text text-anchor="middle" x="827" y="-768" font-family="Helvetica,sans-Serif" font-size="10.00" fill="#000000">enum Lifetime</text>
<polyline fill="none" stroke="#bfbfbf" points="783,-761 871,-761 "/>
<text text-anchor="middle" x="827" y="-749" font-family="Helvetica,sans-Serif" font-size="10.00" fill="#000000"> </text>
<polyline fill="none" stroke="#bfbfbf" points="783,-742 871,-742 "/>
<text text-anchor="middle" x="827" y="-730" font-family="Helvetica,sans-Serif" font-size="10.00" fill="#000000"> </text>
</g>
<!-- Node9&#45;&gt;Node8 -->
<g id="edge8" class="edge">
<title>Node9&#45;&gt;Node8</title>
<path fill="none" stroke="#404040" d="M805.5981,-722.7713C794.0639,-707.2885 779.3218,-687.4995 765.1409,-668.4639"/>
<polygon fill="none" stroke="#404040" points="764.9653,-668.2281 758.1731,-665.8062 757.7963,-658.6049 764.5885,-661.0269 764.9653,-668.2281"/>
<text text-anchor="middle" x="803" y="-680" font-family="Helvetica,sans-Serif" font-size="10.00" fill="#000000"> +lifetime</text>
</g>
<!-- Node10 -->
<g id="node10" class="node">
<title>Node10</title>
<polygon fill="none" stroke="#bfbfbf" points="601,-706.5 601,-796.5 765,-796.5 765,-706.5 601,-706.5"/>
<text text-anchor="start" x="609" y="-784.5" font-family="Helvetica,sans-Serif" font-size="10.00" fill="#000000">variant&lt; o2::framework</text>
<text text-anchor="start" x="609" y="-773.5" font-family="Helvetica,sans-Serif" font-size="10.00" fill="#000000">::ConcreteDataMatcher,</text>
<text text-anchor="start" x="609" y="-762.5" font-family="Helvetica,sans-Serif" font-size="10.00" fill="#000000"> o2::framework::data_matcher</text>
<text text-anchor="middle" x="683" y="-751.5" font-family="Helvetica,sans-Serif" font-size="10.00" fill="#000000">::DataDescriptorMatcher &gt;</text>
<polyline fill="none" stroke="#bfbfbf" points="601,-744.5 765,-744.5 "/>
<text text-anchor="middle" x="683" y="-732.5" font-family="Helvetica,sans-Serif" font-size="10.00" fill="#000000"> </text>
<polyline fill="none" stroke="#bfbfbf" points="601,-725.5 765,-725.5 "/>
<text text-anchor="middle" x="683" y="-713.5" font-family="Helvetica,sans-Serif" font-size="10.00" fill="#000000"> </text>
</g>
<!-- Node10&#45;&gt;Node8 -->
<g id="edge9" class="edge">
<title>Node10&#45;&gt;Node8</title>
<path fill="none" stroke="#404040" d="M692.9906,-706.3907C695.4947,-695.0845 698.237,-682.7027 700.9282,-670.5514"/>
<polygon fill="none" stroke="#404040" points="700.9968,-670.2414 698.3889,-663.5184 703.5917,-658.5254 706.1996,-665.2484 700.9968,-670.2414"/>
<text text-anchor="middle" x="725" y="-680" font-family="Helvetica,sans-Serif" font-size="10.00" fill="#000000"> +matcher</text>
</g>
<!-- Node11&#45;&gt;Node2 -->
<g id="edge11" class="edge">
<title>Node11&#45;&gt;Node2</title>
<path fill="none" stroke="#ffa500" d="M399.1404,-334.0133C390.1446,-321.0158 380.8808,-307.6313 371.9264,-294.6937"/>
<polygon fill="#ffa500" stroke="#ffa500" points="396.4383,-336.2592 405.0074,-342.4899 402.1942,-332.2754 396.4383,-336.2592"/>
<text text-anchor="middle" x="415.5" y="-316" font-family="Helvetica,sans-Serif" font-size="10.00" fill="#000000"> &lt; TList &gt;</text>
</g>
<!-- Node12 -->
<g id="node12" class="node">
<title>Node12</title>
<polygon fill="none" stroke="#bfbfbf" points="401.5,-574 401.5,-631 498.5,-631 498.5,-574 401.5,-574"/>
<text text-anchor="middle" x="450" y="-619" font-family="Helvetica,sans-Serif" font-size="10.00" fill="#000000">shared_ptr&lt; T &gt;</text>
<polyline fill="none" stroke="#bfbfbf" points="401.5,-612 498.5,-612 "/>
<text text-anchor="middle" x="450" y="-600" font-family="Helvetica,sans-Serif" font-size="10.00" fill="#000000"> </text>
<polyline fill="none" stroke="#bfbfbf" points="401.5,-593 498.5,-593 "/>
<text text-anchor="middle" x="450" y="-581" font-family="Helvetica,sans-Serif" font-size="10.00" fill="#000000"> </text>
</g>
<!-- Node12&#45;&gt;Node11 -->
<g id="edge15" class="edge">
<title>Node12&#45;&gt;Node11</title>
<path fill="none" stroke="#404040" d="M450.3175,-573.9875C450.59,-557.3584 451.09,-535.9834 452,-517 452.0981,-514.9525 452.2028,-512.881 452.3132,-510.7923"/>
<polygon fill="none" stroke="#404040" points="452.32,-510.6716 448.6675,-504.454 453.002,-498.691 456.6545,-504.9086 452.32,-510.6716"/>
<text text-anchor="middle" x="473" y="-520" font-family="Helvetica,sans-Serif" font-size="10.00" fill="#000000"> +object</text>
</g>
</g>
</svg>
        <g id="navigator" transform="translate(0 0)" fill="#404254">
                <rect fill="#f2f5e9" fill-opacity="0.5" stroke="#606060" stroke-width=".5" x="0" y="0" width="60" height="60"/>
                <use id="zoomplus" xlink:href="#zoomPlus" x="17" y="9" onmousedown="handleZoom(evt,'in')"/>
                <use id="zoomminus" xlink:href="#zoomMin" x="42" y="9" onmousedown="handleZoom(evt,'out')"/>
                <use id="reset" xlink:href="#resetDef" x="30" y="36" onmousedown="handleReset()"/>
                <g id="arrowUp" xlink:href="#dirArrow" transform="translate(30 24)" onmousedown="handlePan(0,-1)">
                  <use xlink:href="#rim" fill="#404040">
                        <set attributeName="fill" to="#808080" begin="arrowUp.mouseover" end="arrowUp.mouseout"/>
                  </use>
                  <path fill="none" stroke="white" stroke-width="1.5" d="M0,-3.0v7 M-2.5,-0.5L0,-3.0L2.5,-0.5"/>
                </g>
                <g id="arrowRight" xlink:href="#dirArrow" transform="rotate(90) translate(36 -43)" onmousedown="handlePan(1,0)">
                  <use xlink:href="#rim" fill="#404040">
                        <set attributeName="fill" to="#808080" begin="arrowRight.mouseover" end="arrowRight.mouseout"/>
                  </use>
                  <path fill="none" stroke="white" stroke-width="1.5" d="M0,-3.0v7 M-2.5,-0.5L0,-3.0L2.5,-0.5"/>
                </g>
                <g id="arrowDown" xlink:href="#dirArrow" transform="rotate(180) translate(-30 -48)" onmousedown="handlePan(0,1)">
                  <use xlink:href="#rim" fill="#404040">
                        <set attributeName="fill" to="#808080" begin="arrowDown.mouseover" end="arrowDown.mouseout"/>
                  </use>
                  <path fill="none" stroke="white" stroke-width="1.5" d="M0,-3.0v7 M-2.5,-0.5L0,-3.0L2.5,-0.5"/>
                </g>
                <g id="arrowLeft" xlink:href="#dirArrow" transform="rotate(270) translate(-36 17)" onmousedown="handlePan(-1,0)">
                  <use xlink:href="#rim" fill="#404040">
                        <set attributeName="fill" to="#808080" begin="arrowLeft.mouseover" end="arrowLeft.mouseout"/>
                  </use>
                  <path fill="none" stroke="white" stroke-width="1.5" d="M0,-3.0v7 M-2.5,-0.5L0,-3.0L2.5,-0.5"/>
                </g>
        </g>
        <svg viewBox="0 0 15 15" width="100%" height="30px" preserveAspectRatio="xMaxYMin meet">
         <g id="arrow_out" transform="scale(0.3 0.3)">
          <a xlink:href="structDTask__coll__graph_org.svg" target="_base">
           <rect id="button" ry="5" rx="5" y="6" x="6" height="38" width="38"
                fill="#f2f5e9" fill-opacity="0.5" stroke="#606060" stroke-width="1.0"/>
           <path id="arrow"
             d="M 11.500037,31.436501 C 11.940474,20.09759 22.043105,11.32322 32.158766,21.979434 L 37.068811,17.246167 C 37.068811,17.246167 37.088388,32 37.088388,32 L 22.160133,31.978069 C 22.160133,31.978069 26.997745,27.140456 26.997745,27.140456 C 18.528582,18.264221 13.291696,25.230495 11.500037,31.436501 z"
             style="fill:#404040;"/>
          </a>
         </g>
        </svg>
</svg>
