<?xml version="1.0" encoding="UTF-8" standalone="no"?>
<!DOCTYPE svg PUBLIC "-//W3C//DTD SVG 1.1//EN"
 "http://www.w3.org/Graphics/SVG/1.1/DTD/svg11.dtd">
<!-- Generated by graphviz version 2.40.1 (20161225.0304)
 -->
<!-- Title: /home/travis/build/AliceO2Group/AliceO2/Detectors/Raw/src/rawfileCheck.cxx Pages: 1 -->
<!--zoomable 363 -->
<svg id="main" version="1.1" xmlns="http://www.w3.org/2000/svg" xmlns:xlink="http://www.w3.org/1999/xlink" xml:space="preserve" onload="init(evt)">
<style type="text/css"><![CDATA[
.edge:hover path { stroke: red; }
.edge:hover polygon { stroke: red; fill: red; }
]]></style>
<script type="text/javascript"><![CDATA[
var edges = document.getElementsByTagName('g');
if (edges && edges.length) {
  for (var i=0;i<edges.length;i++) {
    if (edges[i].id.substr(0,4)=='edge') {
      edges[i].setAttribute('class','edge');
    }
  }
}
]]></script>
        <defs>
                <circle id="rim" cx="0" cy="0" r="7"/>
                <circle id="rim2" cx="0" cy="0" r="3.5"/>
                <g id="zoomPlus">
                        <use xlink:href="#rim" fill="#404040">
                                <set attributeName="fill" to="#808080" begin="zoomplus.mouseover" end="zoomplus.mouseout"/>
                        </use>
                        <path d="M-4,0h8M0,-4v8" fill="none" stroke="white" stroke-width="1.5" pointer-events="none"/>
                </g>
                <g id="zoomMin">
                        <use xlink:href="#rim" fill="#404040">
                                <set attributeName="fill" to="#808080" begin="zoomminus.mouseover" end="zoomminus.mouseout"/>
                        </use>
                        <path d="M-4,0h8" fill="none" stroke="white" stroke-width="1.5" pointer-events="none"/>
                </g>
                <g id="dirArrow">
                        <path fill="none" stroke="white" stroke-width="1.5" d="M0,-3.0v7 M-2.5,-0.5L0,-3.0L2.5,-0.5"/>
                </g>
               <g id="resetDef">
                       <use xlink:href="#rim2" fill="#404040">
                               <set attributeName="fill" to="#808080" begin="reset.mouseover" end="reset.mouseout"/>
                       </use>
               </g>
        </defs>

<script type="text/javascript">
var viewWidth = 1710;
var viewHeight = 363;
var sectionId = 'dynsection-0';
</script>
<script xlink:href="../../svgpan.js"/>
<svg id="graph" class="graph">
<g id="viewport">
<title>/home/travis/build/AliceO2Group/AliceO2/Detectors/Raw/src/rawfileCheck.cxx</title>
<!-- Node0 -->
<g id="node1" class="node">
<title>Node0</title>
<polygon fill="#bfbfbf" stroke="#000000" points="1141,-313.5 1141,-354.5 1335,-354.5 1335,-313.5 1141,-313.5"/>
<text text-anchor="start" x="1149" y="-342.5" font-family="Helvetica,sans-Serif" font-size="10.00" fill="#000000">/home/travis/build</text>
<text text-anchor="start" x="1149" y="-331.5" font-family="Helvetica,sans-Serif" font-size="10.00" fill="#000000">/AliceO2Group/AliceO2</text>
<text text-anchor="middle" x="1238" y="-320.5" font-family="Helvetica,sans-Serif" font-size="10.00" fill="#000000">/Detectors/Raw/src/rawfileCheck.cxx</text>
</g>
<!-- Node1 -->
<g id="node2" class="node">
<title>Node1</title>
<g id="a_node2"><a xlink:href="../../de/da2/Raw_2include_2DetectorsRaw_2RawFileReader_8h.html" target="_top" xlink:title="DetectorsRaw/RawFileReader.h">
<polygon fill="none" stroke="#000000" points="793.5,-252 793.5,-271 960.5,-271 960.5,-252 793.5,-252"/>
<text text-anchor="middle" x="877" y="-259" font-family="Helvetica,sans-Serif" font-size="10.00" fill="#000000">DetectorsRaw/RawFileReader.h</text>
</a>
</g>
</g>
<!-- Node0&#45;&gt;Node1 -->
<g id="edge1" class="edge">
<title>Node0&#45;&gt;Node1</title>
<path fill="none" stroke="#191970" d="M1140.7837,-314.476C1074.9237,-301.2492 990.1168,-284.2174 934.6917,-273.0863"/>
<polygon fill="#191970" stroke="#191970" points="935.1891,-269.6164 924.6957,-271.0788 933.8108,-276.4793 935.1891,-269.6164"/>
</g>
<!-- Node6 -->
<g id="node7" class="node">
<title>Node6</title>
<polygon fill="none" stroke="#bfbfbf" points="1068.5,-185 1068.5,-204 1115.5,-204 1115.5,-185 1068.5,-185"/>
<text text-anchor="middle" x="1092" y="-192" font-family="Helvetica,sans-Serif" font-size="10.00" fill="#000000">vector</text>
</g>
<!-- Node0&#45;&gt;Node6 -->
<g id="edge55" class="edge">
<title>Node0&#45;&gt;Node6</title>
<path fill="none" stroke="#191970" d="M1153.6262,-313.4026C1134.726,-305.0271 1116.5761,-293.3209 1104,-277 1090.173,-259.0558 1088.7678,-232.2151 1089.7638,-214.0639"/>
<polygon fill="#191970" stroke="#191970" points="1093.2562,-214.3 1090.6046,-204.0423 1086.2807,-213.7147 1093.2562,-214.3"/>
</g>
<!-- Node7 -->
<g id="node8" class="node">
<title>Node7</title>
<polygon fill="none" stroke="#bfbfbf" points="0,-.5 0,-19.5 44,-19.5 44,-.5 0,-.5"/>
<text text-anchor="middle" x="22" y="-7.5" font-family="Helvetica,sans-Serif" font-size="10.00" fill="#000000">string</text>
</g>
<!-- Node0&#45;&gt;Node7 -->
<g id="edge54" class="edge">
<title>Node0&#45;&gt;Node7</title>
<path fill="none" stroke="#191970" d="M1140.765,-332.4348C862.0182,-326.6682 80,-300.9998 80,-194.5 80,-194.5 80,-194.5 80,-127.5 80,-88.7109 54.2702,-49.4674 37.085,-27.5823"/>
<polygon fill="#191970" stroke="#191970" points="39.5881,-25.1133 30.5581,-19.5716 34.1613,-29.5349 39.5881,-25.1133"/>
</g>
<!-- Node33 -->
<g id="node34" class="node">
<title>Node33</title>
<g id="a_node34"><a xlink:href="../../db/d2c/ConfigurableParam_8h.html" target="_top" xlink:title="CommonUtils/Configurable\lParam.h">
<polygon fill="none" stroke="#000000" points="1113,-246.5 1113,-276.5 1261,-276.5 1261,-246.5 1113,-246.5"/>
<text text-anchor="start" x="1121" y="-264.5" font-family="Helvetica,sans-Serif" font-size="10.00" fill="#000000">CommonUtils/Configurable</text>
<text text-anchor="middle" x="1187" y="-253.5" font-family="Helvetica,sans-Serif" font-size="10.00" fill="#000000">Param.h</text>
</a>
</g>
</g>
<!-- Node0&#45;&gt;Node33 -->
<g id="edge43" class="edge">
<title>Node0&#45;&gt;Node33</title>
<path fill="none" stroke="#191970" d="M1223.5219,-313.4183C1217.2732,-304.5354 1209.9311,-294.0981 1203.4751,-284.9205"/>
<polygon fill="#191970" stroke="#191970" points="1206.2377,-282.7644 1197.6214,-276.5991 1200.5123,-286.7919 1206.2377,-282.7644"/>
</g>
<!-- Node36 -->
<g id="node37" class="node">
<title>Node36</title>
<polygon fill="none" stroke="#bfbfbf" points="1451,-185 1451,-204 1511,-204 1511,-185 1451,-185"/>
<text text-anchor="middle" x="1481" y="-192" font-family="Helvetica,sans-Serif" font-size="10.00" fill="#000000">iostream</text>
</g>
<!-- Node0&#45;&gt;Node36 -->
<g id="edge53" class="edge">
<title>Node0&#45;&gt;Node36</title>
<path fill="none" stroke="#191970" d="M1249.3677,-313.3971C1261.5374,-293.2476 1282.6957,-263.1634 1309,-246 1360.2863,-212.536 1383.8959,-229.3401 1442,-210 1444.1344,-209.2896 1446.3213,-208.525 1448.5169,-207.7298"/>
<polygon fill="#191970" stroke="#191970" points="1449.9481,-210.9305 1458.0633,-204.1191 1447.4718,-204.3831 1449.9481,-210.9305"/>
</g>
<!-- Node37 -->
<g id="node38" class="node">
<title>Node37</title>
<g id="a_node38"><a xlink:href="../../dd/da4/Logger_8h.html" target="_top" xlink:title="Framework/Logger.h">
<polygon fill="none" stroke="#000000" points="1317.5,-252 1317.5,-271 1432.5,-271 1432.5,-252 1317.5,-252"/>
<text text-anchor="middle" x="1375" y="-259" font-family="Helvetica,sans-Serif" font-size="10.00" fill="#000000">Framework/Logger.h</text>
</a>
</g>
</g>
<!-- Node0&#45;&gt;Node37 -->
<g id="edge50" class="edge">
<title>Node0&#45;&gt;Node37</title>
<path fill="none" stroke="#191970" d="M1276.8922,-313.4183C1299.5653,-301.4198 1327.5972,-286.5854 1347.8835,-275.85"/>
<polygon fill="#191970" stroke="#191970" points="1349.6854,-278.8563 1356.887,-271.0853 1346.4112,-272.6693 1349.6854,-278.8563"/>
</g>
<!-- Node38 -->
<g id="node39" class="node">
<title>Node38</title>
<polygon fill="none" stroke="#bfbfbf" points="1450.5,-252 1450.5,-271 1533.5,-271 1533.5,-252 1450.5,-252"/>
<text text-anchor="middle" x="1492" y="-259" font-family="Helvetica,sans-Serif" font-size="10.00" fill="#000000">TStopwatch.h</text>
</g>
<!-- Node0&#45;&gt;Node38 -->
<g id="edge51" class="edge">
<title>Node0&#45;&gt;Node38</title>
<path fill="none" stroke="#191970" d="M1313.7112,-313.3913C1352.2015,-302.7757 1399.6713,-289.4718 1442,-277 1445.1819,-276.0625 1448.4729,-275.0772 1451.7772,-274.0768"/>
<polygon fill="#191970" stroke="#191970" points="1453.0944,-277.3341 1461.6342,-271.0632 1451.0478,-270.64 1453.0944,-277.3341"/>
</g>
<!-- Node39 -->
<g id="node40" class="node">
<title>Node39</title>
<polygon fill="none" stroke="#bfbfbf" points="1552,-252 1552,-271 1702,-271 1702,-252 1552,-252"/>
<text text-anchor="middle" x="1627" y="-259" font-family="Helvetica,sans-Serif" font-size="10.00" fill="#000000">boost/program_options.hpp</text>
</g>
<!-- Node0&#45;&gt;Node39 -->
<g id="edge52" class="edge">
<title>Node0&#45;&gt;Node39</title>
<path fill="none" stroke="#191970" d="M1335.1577,-315.8922C1407.5289,-302.404 1504.1261,-284.4007 1565.9629,-272.8758"/>
<polygon fill="#191970" stroke="#191970" points="1566.7675,-276.2862 1575.9569,-271.0132 1565.4849,-269.4047 1566.7675,-276.2862"/>
</g>
<!-- Node2 -->
<g id="node3" class="node">
<title>Node2</title>
<polygon fill="none" stroke="#bfbfbf" points="628,-185 628,-204 674,-204 674,-185 628,-185"/>
<text text-anchor="middle" x="651" y="-192" font-family="Helvetica,sans-Serif" font-size="10.00" fill="#000000">cstdio</text>
</g>
<!-- Node1&#45;&gt;Node2 -->
<g id="edge2" class="edge">
<title>Node1&#45;&gt;Node2</title>
<path fill="none" stroke="#191970" d="M832.2296,-251.9438C792.66,-242.9364 733.6808,-228.1314 684,-210 682.4057,-209.4182 680.7834,-208.7882 679.1564,-208.1265"/>
<polygon fill="#191970" stroke="#191970" points="680.5144,-204.9004 669.9495,-204.1051 677.7125,-211.3152 680.5144,-204.9004"/>
</g>
<!-- Node3 -->
<g id="node4" class="node">
<title>Node3</title>
<polygon fill="none" stroke="#bfbfbf" points="1133.5,-185 1133.5,-204 1226.5,-204 1226.5,-185 1133.5,-185"/>
<text text-anchor="middle" x="1180" y="-192" font-family="Helvetica,sans-Serif" font-size="10.00" fill="#000000">unordered_map</text>
</g>
<!-- Node1&#45;&gt;Node3 -->
<g id="edge3" class="edge">
<title>Node1&#45;&gt;Node3</title>
<path fill="none" stroke="#191970" d="M928.0555,-251.9808C978.3601,-242.3473 1057.2942,-226.5488 1125,-210 1129.1198,-208.993 1133.3973,-207.8901 1137.6651,-206.7514"/>
<polygon fill="#191970" stroke="#191970" points="1138.8024,-210.0691 1147.5267,-204.0578 1136.9579,-203.3165 1138.8024,-210.0691"/>
</g>
<!-- Node4 -->
<g id="node5" class="node">
<title>Node4</title>
<polygon fill="none" stroke="#bfbfbf" points="1012,-185 1012,-204 1050,-204 1050,-185 1012,-185"/>
<text text-anchor="middle" x="1031" y="-192" font-family="Helvetica,sans-Serif" font-size="10.00" fill="#000000">map</text>
</g>
<!-- Node1&#45;&gt;Node4 -->
<g id="edge4" class="edge">
<title>Node1&#45;&gt;Node4</title>
<path fill="none" stroke="#191970" d="M900.3064,-251.8788C924.7531,-241.7172 964.2404,-225.1067 998,-210 999.5491,-209.3068 1001.1357,-208.5888 1002.735,-207.8587"/>
<polygon fill="#191970" stroke="#191970" points="1004.255,-211.012 1011.8599,-203.6353 1001.3147,-204.6594 1004.255,-211.012"/>
</g>
<!-- Node5 -->
<g id="node6" class="node">
<title>Node5</title>
<polygon fill="none" stroke="#bfbfbf" points="692.5,-185 692.5,-204 733.5,-204 733.5,-185 692.5,-185"/>
<text text-anchor="middle" x="713" y="-192" font-family="Helvetica,sans-Serif" font-size="10.00" fill="#000000">tuple</text>
</g>
<!-- Node1&#45;&gt;Node5 -->
<g id="edge5" class="edge">
<title>Node1&#45;&gt;Node5</title>
<path fill="none" stroke="#191970" d="M849.4352,-251.9109C822.0883,-242.1639 779.1524,-226.2275 743,-210 741.9838,-209.5439 740.9532,-209.0701 739.9159,-208.5837"/>
<polygon fill="#191970" stroke="#191970" points="741.1273,-205.2791 730.6091,-204.0068 738.0381,-211.5607 741.1273,-205.2791"/>
</g>
<!-- Node1&#45;&gt;Node6 -->
<g id="edge6" class="edge">
<title>Node1&#45;&gt;Node6</title>
<path fill="none" stroke="#191970" d="M918.0925,-251.9143C955.387,-242.7359 1011.6259,-227.6932 1059,-210 1060.5899,-209.4062 1062.2087,-208.7668 1063.833,-208.0978"/>
<polygon fill="#191970" stroke="#191970" points="1065.2854,-211.2826 1073.0319,-204.0547 1062.4688,-204.8743 1065.2854,-211.2826"/>
</g>
<!-- Node1&#45;&gt;Node7 -->
<g id="edge7" class="edge">
<title>Node1&#45;&gt;Node7</title>
<path fill="none" stroke="#191970" d="M793.1082,-258.2464C709.2123,-253.3065 577.1668,-240.9254 467,-210 299.1112,-162.8712 113.4568,-62.197 47.1907,-24.5797"/>
<polygon fill="#191970" stroke="#191970" points="48.716,-21.4202 38.2964,-19.501 45.2449,-27.499 48.716,-21.4202"/>
</g>
<!-- Node8 -->
<g id="node9" class="node">
<title>Node8</title>
<polygon fill="none" stroke="#bfbfbf" points="910.5,-185 910.5,-204 955.5,-204 955.5,-185 910.5,-185"/>
<text text-anchor="middle" x="933" y="-192" font-family="Helvetica,sans-Serif" font-size="10.00" fill="#000000">utility</text>
</g>
<!-- Node1&#45;&gt;Node8 -->
<g id="edge8" class="edge">
<title>Node1&#45;&gt;Node8</title>
<path fill="none" stroke="#191970" d="M885.0234,-251.9005C893.7561,-241.4525 907.8982,-224.5325 918.5708,-211.7635"/>
<polygon fill="#191970" stroke="#191970" points="921.2638,-213.9991 924.9914,-204.0817 915.8928,-209.5099 921.2638,-213.9991"/>
</g>
<!-- Node9 -->
<g id="node10" class="node">
<title>Node9</title>
<polygon fill="none" stroke="#bfbfbf" points="1339.5,-.5 1339.5,-19.5 1398.5,-19.5 1398.5,-.5 1339.5,-.5"/>
<text text-anchor="middle" x="1369" y="-7.5" font-family="Helvetica,sans-Serif" font-size="10.00" fill="#000000">Rtypes.h</text>
</g>
<!-- Node1&#45;&gt;Node9 -->
<g id="edge9" class="edge">
<title>Node1&#45;&gt;Node9</title>
<path fill="none" stroke="#191970" d="M895.3703,-251.8353C913.533,-242.0309 941.8804,-226.052 965,-210 982.9037,-197.5694 983.5705,-188.8771 1003,-179 1163.9616,-97.1746 1285.6865,-218.951 1396,-76 1407.1489,-61.5526 1396.5067,-41.8605 1385.4718,-27.7537"/>
<polygon fill="#191970" stroke="#191970" points="1387.8693,-25.1681 1378.7416,-19.7888 1382.5224,-29.6861 1387.8693,-25.1681"/>
</g>
<!-- Node10 -->
<g id="node11" class="node">
<title>Node10</title>
<g id="a_node11"><a xlink:href="../../d4/d78/DataFormats_2Headers_2include_2Headers_2RAWDataHeader_8h.html" target="_top" xlink:title="Headers/RAWDataHeader.h">
<polygon fill="none" stroke="#000000" points="464.5,-56.5 464.5,-75.5 613.5,-75.5 613.5,-56.5 464.5,-56.5"/>
<text text-anchor="middle" x="539" y="-63.5" font-family="Helvetica,sans-Serif" font-size="10.00" fill="#000000">Headers/RAWDataHeader.h</text>
</a>
</g>
</g>
<!-- Node1&#45;&gt;Node10 -->
<g id="edge10" class="edge">
<title>Node1&#45;&gt;Node10</title>
<path fill="none" stroke="#191970" d="M793.2179,-252.458C728.8231,-244.1178 646.3962,-229.9901 619,-210 576.0146,-178.635 553.2535,-116.7949 544.0254,-85.3472"/>
<polygon fill="#191970" stroke="#191970" points="547.364,-84.289 541.3147,-75.591 540.6195,-86.163 547.364,-84.289"/>
</g>
<!-- Node12 -->
<g id="node13" class="node">
<title>Node12</title>
<g id="a_node13"><a xlink:href="../../dc/dcd/DataHeader_8h.html" target="_top" xlink:title="Headers/DataHeader.h">
<polygon fill="none" stroke="#000000" points="319.5,-56.5 319.5,-75.5 446.5,-75.5 446.5,-56.5 319.5,-56.5"/>
<text text-anchor="middle" x="383" y="-63.5" font-family="Helvetica,sans-Serif" font-size="10.00" fill="#000000">Headers/DataHeader.h</text>
</a>
</g>
</g>
<!-- Node1&#45;&gt;Node12 -->
<g id="edge12" class="edge">
<title>Node1&#45;&gt;Node12</title>
<path fill="none" stroke="#191970" d="M796.3226,-251.983C737.0978,-243.8644 655.1023,-230.25 585,-210 509.3558,-188.1491 478.6056,-196.6759 421,-143 404.2696,-127.4109 393.9452,-102.8569 388.3569,-85.6791"/>
<polygon fill="#191970" stroke="#191970" points="391.5682,-84.2015 385.3487,-75.6243 384.8619,-86.208 391.5682,-84.2015"/>
</g>
<!-- Node21 -->
<g id="node22" class="node">
<title>Node21</title>
<g id="a_node22"><a xlink:href="../../d6/dec/Raw_2include_2DetectorsRaw_2RDHUtils_8h.html" target="_top" xlink:title="DetectorsRaw/RDHUtils.h">
<polygon fill="none" stroke="#000000" points="751.5,-185 751.5,-204 892.5,-204 892.5,-185 751.5,-185"/>
<text text-anchor="middle" x="822" y="-192" font-family="Helvetica,sans-Serif" font-size="10.00" fill="#000000">DetectorsRaw/RDHUtils.h</text>
</a>
</g>
</g>
<!-- Node1&#45;&gt;Node21 -->
<g id="edge23" class="edge">
<title>Node1&#45;&gt;Node21</title>
<path fill="none" stroke="#191970" d="M869.1198,-251.9005C860.6248,-241.552 846.9176,-224.8542 836.472,-212.1295"/>
<polygon fill="#191970" stroke="#191970" points="838.9158,-209.5902 829.8655,-204.0817 833.5053,-214.0317 838.9158,-209.5902"/>
</g>
<!-- Node11 -->
<g id="node12" class="node">
<title>Node11</title>
<polygon fill="none" stroke="#bfbfbf" points="739,-.5 739,-19.5 789,-19.5 789,-.5 739,-.5"/>
<text text-anchor="middle" x="764" y="-7.5" font-family="Helvetica,sans-Serif" font-size="10.00" fill="#000000">cstdint</text>
</g>
<!-- Node10&#45;&gt;Node11 -->
<g id="edge11" class="edge">
<title>Node10&#45;&gt;Node11</title>
<path fill="none" stroke="#191970" d="M581.2577,-56.4581C617.9403,-48.0328 672.695,-35.1174 729.0034,-20.1792"/>
<polygon fill="#191970" stroke="#191970" points="730.0296,-23.5279 738.7883,-17.5667 728.2239,-16.7647 730.0296,-23.5279"/>
</g>
<!-- Node12&#45;&gt;Node7 -->
<g id="edge19" class="edge">
<title>Node12&#45;&gt;Node7</title>
<path fill="none" stroke="#191970" d="M319.4516,-60.4458C254.7824,-54.052 151.6148,-41.812 54.233,-19.9637"/>
<polygon fill="#191970" stroke="#191970" points="54.7502,-16.4918 44.222,-17.6785 53.1923,-23.3162 54.7502,-16.4918"/>
</g>
<!-- Node12&#45;&gt;Node11 -->
<g id="edge13" class="edge">
<title>Node12&#45;&gt;Node11</title>
<path fill="none" stroke="#191970" d="M446.6984,-57.2532C449.8433,-56.8279 452.9572,-56.4083 456,-56 574.5235,-40.0959 608.0767,-45.1178 728.8526,-19.9772"/>
<polygon fill="#191970" stroke="#191970" points="729.7974,-23.3551 738.8602,-17.8673 728.3532,-16.5056 729.7974,-23.3551"/>
</g>
<!-- Node13 -->
<g id="node14" class="node">
<title>Node13</title>
<polygon fill="none" stroke="#bfbfbf" points="62,-.5 62,-19.5 120,-19.5 120,-.5 62,-.5"/>
<text text-anchor="middle" x="91" y="-7.5" font-family="Helvetica,sans-Serif" font-size="10.00" fill="#000000">memory</text>
</g>
<!-- Node12&#45;&gt;Node13 -->
<g id="edge14" class="edge">
<title>Node12&#45;&gt;Node13</title>
<path fill="none" stroke="#191970" d="M322.9472,-56.4846C273.6307,-48.3607 201.7656,-35.817 130.4587,-20.2037"/>
<polygon fill="#191970" stroke="#191970" points="130.923,-16.7219 120.4031,-17.9803 129.4117,-23.5568 130.923,-16.7219"/>
</g>
<!-- Node14 -->
<g id="node15" class="node">
<title>Node14</title>
<polygon fill="none" stroke="#bfbfbf" points="138,-.5 138,-19.5 190,-19.5 190,-.5 138,-.5"/>
<text text-anchor="middle" x="164" y="-7.5" font-family="Helvetica,sans-Serif" font-size="10.00" fill="#000000">cassert</text>
</g>
<!-- Node12&#45;&gt;Node14 -->
<g id="edge15" class="edge">
<title>Node12&#45;&gt;Node14</title>
<path fill="none" stroke="#191970" d="M343.0602,-56.4216C307.8374,-47.8836 254.8827,-34.8282 200.2102,-20.2678"/>
<polygon fill="#191970" stroke="#191970" points="200.912,-16.8325 190.3472,-17.6294 199.1031,-23.5948 200.912,-16.8325"/>
</g>
<!-- Node15 -->
<g id="node16" class="node">
<title>Node15</title>
<polygon fill="none" stroke="#bfbfbf" points="208,-.5 208,-19.5 258,-19.5 258,-.5 208,-.5"/>
<text text-anchor="middle" x="233" y="-7.5" font-family="Helvetica,sans-Serif" font-size="10.00" fill="#000000">cstring</text>
</g>
<!-- Node12&#45;&gt;Node15 -->
<g id="edge16" class="edge">
<title>Node12&#45;&gt;Node15</title>
<path fill="none" stroke="#191970" d="M357.2141,-56.3733C332.5953,-47.1822 295.31,-33.2624 268.0125,-23.0713"/>
<polygon fill="#191970" stroke="#191970" points="269.042,-19.7198 258.4494,-19.5011 266.5937,-26.2777 269.042,-19.7198"/>
</g>
<!-- Node16 -->
<g id="node17" class="node">
<title>Node16</title>
<polygon fill="none" stroke="#bfbfbf" points="276,-.5 276,-19.5 340,-19.5 340,-.5 276,-.5"/>
<text text-anchor="middle" x="308" y="-7.5" font-family="Helvetica,sans-Serif" font-size="10.00" fill="#000000">algorithm</text>
</g>
<!-- Node12&#45;&gt;Node16 -->
<g id="edge17" class="edge">
<title>Node12&#45;&gt;Node16</title>
<path fill="none" stroke="#191970" d="M369.936,-56.2455C358.6438,-47.814 342.1155,-35.4729 328.9729,-25.6598"/>
<polygon fill="#191970" stroke="#191970" points="331.0211,-22.8211 320.9143,-19.6427 326.8331,-28.4301 331.0211,-22.8211"/>
</g>
<!-- Node17 -->
<g id="node18" class="node">
<title>Node17</title>
<polygon fill="none" stroke="#bfbfbf" points="655.5,-.5 655.5,-19.5 720.5,-19.5 720.5,-.5 655.5,-.5"/>
<text text-anchor="middle" x="688" y="-7.5" font-family="Helvetica,sans-Serif" font-size="10.00" fill="#000000">stdexcept</text>
</g>
<!-- Node12&#45;&gt;Node17 -->
<g id="edge18" class="edge">
<title>Node12&#45;&gt;Node17</title>
<path fill="none" stroke="#191970" d="M444.5668,-56.4654C495.9077,-48.2425 571.1958,-35.5564 645.3868,-20.2444"/>
<polygon fill="#191970" stroke="#191970" points="646.294,-23.6307 655.3709,-18.1663 644.8675,-16.7775 646.294,-23.6307"/>
</g>
<!-- Node18 -->
<g id="node19" class="node">
<title>Node18</title>
<polygon fill="none" stroke="#bfbfbf" points="358,-.5 358,-19.5 408,-19.5 408,-.5 358,-.5"/>
<text text-anchor="middle" x="383" y="-7.5" font-family="Helvetica,sans-Serif" font-size="10.00" fill="#000000">climits</text>
</g>
<!-- Node12&#45;&gt;Node18 -->
<g id="edge20" class="edge">
<title>Node12&#45;&gt;Node18</title>
<path fill="none" stroke="#191970" d="M383,-56.2455C383,-48.9382 383,-38.6944 383,-29.7046"/>
<polygon fill="#191970" stroke="#191970" points="386.5001,-29.6426 383,-19.6427 379.5001,-29.6427 386.5001,-29.6426"/>
</g>
<!-- Node19 -->
<g id="node20" class="node">
<title>Node19</title>
<g id="a_node20"><a xlink:href="../../d7/df8/Types_8h.html" target="_top" xlink:title="MemoryResources/Types.h">
<polygon fill="none" stroke="#000000" points="426,-.5 426,-19.5 572,-19.5 572,-.5 426,-.5"/>
<text text-anchor="middle" x="499" y="-7.5" font-family="Helvetica,sans-Serif" font-size="10.00" fill="#000000">MemoryResources/Types.h</text>
</a>
</g>
</g>
<!-- Node12&#45;&gt;Node19 -->
<g id="edge21" class="edge">
<title>Node12&#45;&gt;Node19</title>
<path fill="none" stroke="#191970" d="M402.9411,-56.3733C421.4786,-47.4241 449.3028,-33.9917 470.2413,-23.8835"/>
<polygon fill="#191970" stroke="#191970" points="471.8352,-27.0006 479.3191,-19.5011 468.7919,-20.6967 471.8352,-27.0006"/>
</g>
<!-- Node20 -->
<g id="node21" class="node">
<title>Node20</title>
<polygon fill="none" stroke="#bfbfbf" points="590.5,-.5 590.5,-19.5 637.5,-19.5 637.5,-.5 590.5,-.5"/>
<text text-anchor="middle" x="614" y="-7.5" font-family="Helvetica,sans-Serif" font-size="10.00" fill="#000000">cerrno</text>
</g>
<!-- Node12&#45;&gt;Node20 -->
<g id="edge22" class="edge">
<title>Node12&#45;&gt;Node20</title>
<path fill="none" stroke="#191970" d="M428.0327,-56.4255C466.1779,-48.1159 522.5094,-35.3783 580.5536,-19.9921"/>
<polygon fill="#191970" stroke="#191970" points="581.5032,-23.3612 590.2606,-17.3981 579.696,-16.5985 581.5032,-23.3612"/>
</g>
<!-- Node21&#45;&gt;Node10 -->
<g id="edge29" class="edge">
<title>Node21&#45;&gt;Node10</title>
<path fill="none" stroke="#191970" d="M769.4105,-184.9166C732.2391,-176.8756 681.9457,-163.3844 641,-143 608.5003,-126.8203 575.876,-99.867 556.5633,-82.522"/>
<polygon fill="#191970" stroke="#191970" points="558.8828,-79.9003 549.1407,-75.7361 554.1597,-85.0667 558.8828,-79.9003"/>
</g>
<!-- Node22 -->
<g id="node23" class="node">
<title>Node22</title>
<g id="a_node23"><a xlink:href="../../df/d21/GPUCommonDef_8h.html" target="_top" xlink:title="GPUCommonDef.h">
<polygon fill="none" stroke="#000000" points="795.5,-56.5 795.5,-75.5 902.5,-75.5 902.5,-56.5 795.5,-56.5"/>
<text text-anchor="middle" x="849" y="-63.5" font-family="Helvetica,sans-Serif" font-size="10.00" fill="#000000">GPUCommonDef.h</text>
</a>
</g>
</g>
<!-- Node21&#45;&gt;Node22 -->
<g id="edge24" class="edge">
<title>Node21&#45;&gt;Node22</title>
<path fill="none" stroke="#191970" d="M824.0294,-184.8416C828.4467,-163.8184 839.0069,-113.5598 844.8809,-85.6038"/>
<polygon fill="#191970" stroke="#191970" points="848.3159,-86.2765 846.9471,-75.7705 841.4655,-84.837 848.3159,-86.2765"/>
</g>
<!-- Node25 -->
<g id="node26" class="node">
<title>Node25</title>
<g id="a_node26"><a xlink:href="../../d2/d45/GPUCommonRtypes_8h.html" target="_top" xlink:title="GPUCommonRtypes.h">
<polygon fill="none" stroke="#000000" points="1261.5,-56.5 1261.5,-75.5 1386.5,-75.5 1386.5,-56.5 1261.5,-56.5"/>
<text text-anchor="middle" x="1324" y="-63.5" font-family="Helvetica,sans-Serif" font-size="10.00" fill="#000000">GPUCommonRtypes.h</text>
</a>
</g>
</g>
<!-- Node21&#45;&gt;Node25 -->
<g id="edge27" class="edge">
<title>Node21&#45;&gt;Node25</title>
<path fill="none" stroke="#191970" d="M867.9985,-184.987C914.5563,-175.1739 988.5334,-159.0756 1052,-143 1134.2387,-122.1696 1229.4322,-94.3626 1282.5897,-78.4981"/>
<polygon fill="#191970" stroke="#191970" points="1283.7517,-81.8039 1292.3291,-75.5846 1281.7454,-75.0975 1283.7517,-81.8039"/>
</g>
<!-- Node26 -->
<g id="node27" class="node">
<title>Node26</title>
<g id="a_node27"><a xlink:href="../../d6/d89/RDHAny_8h.html" target="_top" xlink:title="Headers/RDHAny.h">
<polygon fill="none" stroke="#000000" points="650,-118 650,-137 758,-137 758,-118 650,-118"/>
<text text-anchor="middle" x="704" y="-125" font-family="Helvetica,sans-Serif" font-size="10.00" fill="#000000">Headers/RDHAny.h</text>
</a>
</g>
</g>
<!-- Node21&#45;&gt;Node26 -->
<g id="edge30" class="edge">
<title>Node21&#45;&gt;Node26</title>
<path fill="none" stroke="#191970" d="M805.0935,-184.9005C785.378,-173.7062 752.5778,-155.0823 729.7041,-142.0947"/>
<polygon fill="#191970" stroke="#191970" points="731.2993,-138.9757 720.8752,-137.0817 727.843,-145.0629 731.2993,-138.9757"/>
</g>
<!-- Node28 -->
<g id="node29" class="node">
<title>Node28</title>
<g id="a_node29"><a xlink:href="../../d9/d80/InteractionRecord_8h.html" target="_top" xlink:title="CommonDataFormat/Interaction\lRecord.h">
<polygon fill="none" stroke="#000000" points="869,-112.5 869,-142.5 1043,-142.5 1043,-112.5 869,-112.5"/>
<text text-anchor="start" x="877" y="-130.5" font-family="Helvetica,sans-Serif" font-size="10.00" fill="#000000">CommonDataFormat/Interaction</text>
<text text-anchor="middle" x="956" y="-119.5" font-family="Helvetica,sans-Serif" font-size="10.00" fill="#000000">Record.h</text>
</a>
</g>
</g>
<!-- Node21&#45;&gt;Node28 -->
<g id="edge35" class="edge">
<title>Node21&#45;&gt;Node28</title>
<path fill="none" stroke="#191970" d="M841.1989,-184.9005C860.8349,-175.0826 891.9004,-159.5498 916.7666,-147.1167"/>
<polygon fill="#191970" stroke="#191970" points="918.5775,-150.1245 925.9565,-142.5218 915.4469,-143.8635 918.5775,-150.1245"/>
</g>
<!-- Node32 -->
<g id="node33" class="node">
<title>Node32</title>
<g id="a_node33"><a xlink:href="../../d7/d34/DAQID_8h.html" target="_top" xlink:title="Headers/DAQID.h">
<polygon fill="none" stroke="#000000" points="429.5,-118 429.5,-137 530.5,-137 530.5,-118 429.5,-118"/>
<text text-anchor="middle" x="480" y="-125" font-family="Helvetica,sans-Serif" font-size="10.00" fill="#000000">Headers/DAQID.h</text>
</a>
</g>
</g>
<!-- Node21&#45;&gt;Node32 -->
<g id="edge41" class="edge">
<title>Node21&#45;&gt;Node32</title>
<path fill="none" stroke="#191970" d="M773.5369,-184.9885C763.4449,-183.0086 752.8754,-180.9357 743,-179 672.8689,-165.2536 592.2148,-149.4628 538.9126,-139.0296"/>
<polygon fill="#191970" stroke="#191970" points="539.4439,-135.5673 528.9578,-137.0812 538.0992,-142.4369 539.4439,-135.5673"/>
</g>
<!-- Node23 -->
<g id="node24" class="node">
<title>Node23</title>
<g id="a_node24"><a xlink:href="../../d5/d93/GPUCommonDefSettings_8h.html" target="_top" xlink:title="GPUCommonDefSettings.h">
<polygon fill="none" stroke="#000000" points="949,-.5 949,-19.5 1097,-19.5 1097,-.5 949,-.5"/>
<text text-anchor="middle" x="1023" y="-7.5" font-family="Helvetica,sans-Serif" font-size="10.00" fill="#000000">GPUCommonDefSettings.h</text>
</a>
</g>
</g>
<!-- Node22&#45;&gt;Node23 -->
<g id="edge25" class="edge">
<title>Node22&#45;&gt;Node23</title>
<path fill="none" stroke="#191970" d="M878.9117,-56.3733C907.8452,-47.0613 951.8611,-32.8953 983.6293,-22.671"/>
<polygon fill="#191970" stroke="#191970" points="985.0318,-25.8965 993.4787,-19.5011 982.8872,-19.2331 985.0318,-25.8965"/>
</g>
<!-- Node24 -->
<g id="node25" class="node">
<title>Node24</title>
<g id="a_node25"><a xlink:href="../../da/d5a/GPUCommonDefAPI_8h.html" target="_top" xlink:title="GPUCommonDefAPI.h">
<polygon fill="none" stroke="#000000" points="807,-.5 807,-19.5 931,-19.5 931,-.5 807,-.5"/>
<text text-anchor="middle" x="869" y="-7.5" font-family="Helvetica,sans-Serif" font-size="10.00" fill="#000000">GPUCommonDefAPI.h</text>
</a>
</g>
</g>
<!-- Node22&#45;&gt;Node24 -->
<g id="edge26" class="edge">
<title>Node22&#45;&gt;Node24</title>
<path fill="none" stroke="#191970" d="M852.4837,-56.2455C855.1508,-48.7776 858.9133,-38.2427 862.1737,-29.1137"/>
<polygon fill="#191970" stroke="#191970" points="865.4889,-30.2373 865.5562,-19.6427 858.8967,-27.8829 865.4889,-30.2373"/>
</g>
<!-- Node25&#45;&gt;Node9 -->
<g id="edge28" class="edge">
<title>Node25&#45;&gt;Node9</title>
<path fill="none" stroke="#191970" d="M1331.8384,-56.2455C1338.162,-48.3761 1347.2224,-37.101 1354.8136,-27.6542"/>
<polygon fill="#191970" stroke="#191970" points="1357.7158,-29.6302 1361.2514,-19.6427 1352.2592,-25.2454 1357.7158,-29.6302"/>
</g>
<!-- Node26&#45;&gt;Node10 -->
<g id="edge32" class="edge">
<title>Node26&#45;&gt;Node10</title>
<path fill="none" stroke="#191970" d="M678.2188,-117.8906C650.248,-107.4652 605.4181,-90.7559 574.214,-79.1252"/>
<polygon fill="#191970" stroke="#191970" points="575.1929,-75.7549 564.6002,-75.5419 572.7481,-82.3141 575.1929,-75.7549"/>
</g>
<!-- Node26&#45;&gt;Node17 -->
<g id="edge34" class="edge">
<title>Node26&#45;&gt;Node17</title>
<path fill="none" stroke="#191970" d="M692.2775,-117.8841C681.8065,-108.4695 667.1939,-93.0823 661,-76 655.0339,-59.5459 663.8917,-41.1368 673.02,-27.9501"/>
<polygon fill="#191970" stroke="#191970" points="675.9811,-29.8362 679.2039,-19.7434 670.3906,-25.6236 675.9811,-29.8362"/>
</g>
<!-- Node26&#45;&gt;Node22 -->
<g id="edge31" class="edge">
<title>Node26&#45;&gt;Node22</title>
<path fill="none" stroke="#191970" d="M726.6563,-117.8906C750.9174,-107.6005 789.6118,-91.1888 816.98,-79.5809"/>
<polygon fill="#191970" stroke="#191970" points="818.6633,-82.6688 826.5028,-75.5419 815.93,-76.2245 818.6633,-82.6688"/>
</g>
<!-- Node27 -->
<g id="node28" class="node">
<title>Node27</title>
<polygon fill="none" stroke="#bfbfbf" points="669.5,-56.5 669.5,-75.5 738.5,-75.5 738.5,-56.5 669.5,-56.5"/>
<text text-anchor="middle" x="704" y="-63.5" font-family="Helvetica,sans-Serif" font-size="10.00" fill="#000000">type_traits</text>
</g>
<!-- Node26&#45;&gt;Node27 -->
<g id="edge33" class="edge">
<title>Node26&#45;&gt;Node27</title>
<path fill="none" stroke="#191970" d="M704,-117.8906C704,-109.3657 704,-96.6392 704,-85.9235"/>
<polygon fill="#191970" stroke="#191970" points="707.5001,-85.7448 704,-75.7449 700.5001,-85.7449 707.5001,-85.7448"/>
</g>
<!-- Node28&#45;&gt;Node11 -->
<g id="edge39" class="edge">
<title>Node28&#45;&gt;Node11</title>
<path fill="none" stroke="#191970" d="M883.9262,-112.3943C844.7295,-102.8808 801.3735,-89.8162 787,-76 774.3126,-63.8045 768.6188,-44.2442 766.0665,-29.578"/>
<polygon fill="#191970" stroke="#191970" points="769.5115,-28.9402 764.6633,-19.5198 762.5787,-29.9075 769.5115,-28.9402"/>
</g>
<!-- Node28&#45;&gt;Node25 -->
<g id="edge36" class="edge">
<title>Node28&#45;&gt;Node25</title>
<path fill="none" stroke="#191970" d="M1043.2109,-112.9254C1108.6105,-101.9958 1196.8159,-87.2549 1256.7953,-77.2312"/>
<polygon fill="#191970" stroke="#191970" points="1257.6254,-80.6411 1266.9116,-75.5406 1256.4715,-73.7369 1257.6254,-80.6411"/>
</g>
<!-- Node29 -->
<g id="node30" class="node">
<title>Node29</title>
<polygon fill="none" stroke="#bfbfbf" points="1194.5,-56.5 1194.5,-75.5 1243.5,-75.5 1243.5,-56.5 1194.5,-56.5"/>
<text text-anchor="middle" x="1219" y="-63.5" font-family="Helvetica,sans-Serif" font-size="10.00" fill="#000000">iosfwd</text>
</g>
<!-- Node28&#45;&gt;Node29 -->
<g id="edge37" class="edge">
<title>Node28&#45;&gt;Node29</title>
<path fill="none" stroke="#191970" d="M1028.4854,-112.4566C1071.2028,-103.2973 1126.4918,-90.9377 1184.1421,-76.1042"/>
<polygon fill="#191970" stroke="#191970" points="1185.3674,-79.4023 1194.1693,-73.5051 1183.6109,-72.6263 1185.3674,-79.4023"/>
</g>
<!-- Node30 -->
<g id="node31" class="node">
<title>Node30</title>
<polygon fill="none" stroke="#bfbfbf" points="920.5,-56.5 920.5,-75.5 967.5,-75.5 967.5,-56.5 920.5,-56.5"/>
<text text-anchor="middle" x="944" y="-63.5" font-family="Helvetica,sans-Serif" font-size="10.00" fill="#000000">cmath</text>
</g>
<!-- Node28&#45;&gt;Node30 -->
<g id="edge38" class="edge">
<title>Node28&#45;&gt;Node30</title>
<path fill="none" stroke="#191970" d="M953.0337,-112.2977C951.4721,-104.2945 949.5384,-94.3843 947.8612,-85.7889"/>
<polygon fill="#191970" stroke="#191970" points="951.2718,-84.9915 945.9214,-75.8469 944.4013,-86.3322 951.2718,-84.9915"/>
</g>
<!-- Node31 -->
<g id="node32" class="node">
<title>Node31</title>
<g id="a_node32"><a xlink:href="../../d4/dc6/LHCConstants_8h.html" target="_top" xlink:title="Header to collect LHC related constants. ">
<polygon fill="none" stroke="#000000" points="986,-56.5 986,-75.5 1176,-75.5 1176,-56.5 986,-56.5"/>
<text text-anchor="middle" x="1081" y="-63.5" font-family="Helvetica,sans-Serif" font-size="10.00" fill="#000000">CommonConstants/LHCConstants.h</text>
</a>
</g>
</g>
<!-- Node28&#45;&gt;Node31 -->
<g id="edge40" class="edge">
<title>Node28&#45;&gt;Node31</title>
<path fill="none" stroke="#191970" d="M986.5784,-112.4554C1006.7032,-102.554 1032.8639,-89.683 1052.5438,-80.0004"/>
<polygon fill="#191970" stroke="#191970" points="1054.2018,-83.0855 1061.6294,-75.5303 1051.1115,-76.8045 1054.2018,-83.0855"/>
</g>
<!-- Node32&#45;&gt;Node12 -->
<g id="edge42" class="edge">
<title>Node32&#45;&gt;Node12</title>
<path fill="none" stroke="#191970" d="M464.8438,-117.8906C449.3257,-108.0519 424.9807,-92.6167 406.8716,-81.1351"/>
<polygon fill="#191970" stroke="#191970" points="408.3696,-77.9407 398.0498,-75.5419 404.6213,-83.8526 408.3696,-77.9407"/>
</g>
<!-- Node33&#45;&gt;Node3 -->
<g id="edge46" class="edge">
<title>Node33&#45;&gt;Node3</title>
<path fill="none" stroke="#191970" d="M1185.4116,-246.2967C1184.4163,-236.7699 1183.1234,-224.3954 1182.051,-214.1306"/>
<polygon fill="#191970" stroke="#191970" points="1185.5185,-213.6371 1180.9983,-204.055 1178.5564,-214.3646 1185.5185,-213.6371"/>
</g>
<!-- Node33&#45;&gt;Node4 -->
<g id="edge45" class="edge">
<title>Node33&#45;&gt;Node4</title>
<path fill="none" stroke="#191970" d="M1146.7796,-246.4437C1121.5665,-236.6982 1088.5485,-223.3721 1060,-210 1059.1632,-209.608 1058.3162,-209.2036 1057.4637,-208.79"/>
<polygon fill="#191970" stroke="#191970" points="1058.8309,-205.5588 1048.3307,-204.1463 1055.6583,-211.7985 1058.8309,-205.5588"/>
</g>
<!-- Node33&#45;&gt;Node6 -->
<g id="edge44" class="edge">
<title>Node33&#45;&gt;Node6</title>
<path fill="none" stroke="#191970" d="M1165.443,-246.2967C1150.0668,-235.4524 1129.4586,-220.9182 1113.9862,-210.006"/>
<polygon fill="#191970" stroke="#191970" points="1115.7374,-206.9582 1105.5481,-204.055 1111.703,-212.6787 1115.7374,-206.9582"/>
</g>
<!-- Node34 -->
<g id="node35" class="node">
<title>Node34</title>
<polygon fill="none" stroke="#bfbfbf" points="1244.5,-179.5 1244.5,-209.5 1357.5,-209.5 1357.5,-179.5 1244.5,-179.5"/>
<text text-anchor="start" x="1252.5" y="-197.5" font-family="Helvetica,sans-Serif" font-size="10.00" fill="#000000">boost/property_tree</text>
<text text-anchor="middle" x="1301" y="-186.5" font-family="Helvetica,sans-Serif" font-size="10.00" fill="#000000">/ptree.hpp</text>
</g>
<!-- Node33&#45;&gt;Node34 -->
<g id="edge47" class="edge">
<title>Node33&#45;&gt;Node34</title>
<path fill="none" stroke="#191970" d="M1212.5838,-246.4639C1228.46,-237.1332 1249.065,-225.0232 1266.3892,-214.8415"/>
<polygon fill="#191970" stroke="#191970" points="1268.2593,-217.8021 1275.1071,-209.7177 1264.7124,-211.7672 1268.2593,-217.8021"/>
</g>
<!-- Node35 -->
<g id="node36" class="node">
<title>Node35</title>
<polygon fill="none" stroke="#bfbfbf" points="1375.5,-185 1375.5,-204 1432.5,-204 1432.5,-185 1375.5,-185"/>
<text text-anchor="middle" x="1404" y="-192" font-family="Helvetica,sans-Serif" font-size="10.00" fill="#000000">typeinfo</text>
</g>
<!-- Node33&#45;&gt;Node35 -->
<g id="edge48" class="edge">
<title>Node33&#45;&gt;Node35</title>
<path fill="none" stroke="#191970" d="M1246.3256,-246.4181C1281.6892,-236.9606 1327.2847,-223.9455 1367,-210 1368.8728,-209.3424 1370.7872,-208.6391 1372.7106,-207.9085"/>
<polygon fill="#191970" stroke="#191970" points="1374.2558,-211.0606 1382.2537,-204.112 1371.6682,-204.5564 1374.2558,-211.0606"/>
</g>
<!-- Node33&#45;&gt;Node36 -->
<g id="edge49" class="edge">
<title>Node33&#45;&gt;Node36</title>
<path fill="none" stroke="#191970" d="M1261.2296,-248.0338C1323.9877,-236.3672 1408.8257,-219.8558 1442,-210 1444.4445,-209.2738 1446.9496,-208.4564 1449.4529,-207.5863"/>
<polygon fill="#191970" stroke="#191970" points="1450.8132,-210.8148 1458.9682,-204.0512 1448.3753,-204.253 1450.8132,-210.8148"/>
</g>
</g>
</svg>
        <g id="navigator" transform="translate(0 0)" fill="#404254">
                <rect fill="#f2f5e9" fill-opacity="0.5" stroke="#606060" stroke-width=".5" x="0" y="0" width="60" height="60"/>
                <use id="zoomplus" xlink:href="#zoomPlus" x="17" y="9" onmousedown="handleZoom(evt,'in')"/>
                <use id="zoomminus" xlink:href="#zoomMin" x="42" y="9" onmousedown="handleZoom(evt,'out')"/>
                <use id="reset" xlink:href="#resetDef" x="30" y="36" onmousedown="handleReset()"/>
                <g id="arrowUp" xlink:href="#dirArrow" transform="translate(30 24)" onmousedown="handlePan(0,-1)">
                  <use xlink:href="#rim" fill="#404040">
                        <set attributeName="fill" to="#808080" begin="arrowUp.mouseover" end="arrowUp.mouseout"/>
                  </use>
                  <path fill="none" stroke="white" stroke-width="1.5" d="M0,-3.0v7 M-2.5,-0.5L0,-3.0L2.5,-0.5"/>
                </g>
                <g id="arrowRight" xlink:href="#dirArrow" transform="rotate(90) translate(36 -43)" onmousedown="handlePan(1,0)">
                  <use xlink:href="#rim" fill="#404040">
                        <set attributeName="fill" to="#808080" begin="arrowRight.mouseover" end="arrowRight.mouseout"/>
                  </use>
                  <path fill="none" stroke="white" stroke-width="1.5" d="M0,-3.0v7 M-2.5,-0.5L0,-3.0L2.5,-0.5"/>
                </g>
                <g id="arrowDown" xlink:href="#dirArrow" transform="rotate(180) translate(-30 -48)" onmousedown="handlePan(0,1)">
                  <use xlink:href="#rim" fill="#404040">
                        <set attributeName="fill" to="#808080" begin="arrowDown.mouseover" end="arrowDown.mouseout"/>
                  </use>
                  <path fill="none" stroke="white" stroke-width="1.5" d="M0,-3.0v7 M-2.5,-0.5L0,-3.0L2.5,-0.5"/>
                </g>
                <g id="arrowLeft" xlink:href="#dirArrow" transform="rotate(270) translate(-36 17)" onmousedown="handlePan(-1,0)">
                  <use xlink:href="#rim" fill="#404040">
                        <set attributeName="fill" to="#808080" begin="arrowLeft.mouseover" end="arrowLeft.mouseout"/>
                  </use>
                  <path fill="none" stroke="white" stroke-width="1.5" d="M0,-3.0v7 M-2.5,-0.5L0,-3.0L2.5,-0.5"/>
                </g>
        </g>
        <svg viewBox="0 0 15 15" width="100%" height="30px" preserveAspectRatio="xMaxYMin meet">
         <g id="arrow_out" transform="scale(0.3 0.3)">
          <a xlink:href="rawfileCheck_8cxx__incl_org.svg" target="_base">
           <rect id="button" ry="5" rx="5" y="6" x="6" height="38" width="38"
                fill="#f2f5e9" fill-opacity="0.5" stroke="#606060" stroke-width="1.0"/>
           <path id="arrow"
             d="M 11.500037,31.436501 C 11.940474,20.09759 22.043105,11.32322 32.158766,21.979434 L 37.068811,17.246167 C 37.068811,17.246167 37.088388,32 37.088388,32 L 22.160133,31.978069 C 22.160133,31.978069 26.997745,27.140456 26.997745,27.140456 C 18.528582,18.264221 13.291696,25.230495 11.500037,31.436501 z"
             style="fill:#404040;"/>
          </a>
         </g>
        </svg>
</svg>
