<?xml version="1.0" encoding="UTF-8" standalone="no"?>
<!DOCTYPE svg PUBLIC "-//W3C//DTD SVG 1.1//EN"
 "http://www.w3.org/Graphics/SVG/1.1/DTD/svg11.dtd">
<!-- Generated by graphviz version 2.40.1 (20161225.0304)
 -->
<!-- Title: GPUCA_NAMESPACE::gpu::GPUTPCCFChainContext::FragmentData Pages: 1 -->
<svg width="387pt" height="353pt"
 viewBox="0.00 0.00 386.50 353.00" xmlns="http://www.w3.org/2000/svg" xmlns:xlink="http://www.w3.org/1999/xlink">
<g id="graph0" class="graph" transform="scale(1 1) rotate(0) translate(4 349)">
<title>GPUCA_NAMESPACE::gpu::GPUTPCCFChainContext::FragmentData</title>
<!-- Node1 -->
<g id="node1" class="node">
<title>Node1</title>
<polygon fill="#bfbfbf" stroke="#000000" points="78.5,-.5 78.5,-79.5 218.5,-79.5 218.5,-.5 78.5,-.5"/>
<text text-anchor="start" x="86.5" y="-67.5" font-family="Helvetica,sans-Serif" font-size="10.00" fill="#000000">GPUCA_NAMESPACE::gpu</text>
<text text-anchor="start" x="86.5" y="-56.5" font-family="Helvetica,sans-Serif" font-size="10.00" fill="#000000">::GPUTPCCFChainContext</text>
<text text-anchor="middle" x="148.5" y="-45.5" font-family="Helvetica,sans-Serif" font-size="10.00" fill="#000000">::FragmentData</text>
<polyline fill="none" stroke="#000000" points="78.5,-38.5 218.5,-38.5 "/>
<text text-anchor="middle" x="148.5" y="-26.5" font-family="Helvetica,sans-Serif" font-size="10.00" fill="#000000"> </text>
<polyline fill="none" stroke="#000000" points="78.5,-19.5 218.5,-19.5 "/>
<text text-anchor="middle" x="148.5" y="-7.5" font-family="Helvetica,sans-Serif" font-size="10.00" fill="#000000"> </text>
</g>
<!-- Node2 -->
<g id="node2" class="node">
<title>Node2</title>
<g id="a_node2"><a xlink:href="../../dc/dc6/structGPUCA__NAMESPACE_1_1gpu_1_1GPUTPCClusterFinder_1_1MinMaxCN.html" target="_top" xlink:title="{GPUCA_NAMESPACE::gpu\l::GPUTPCClusterFinder\l::MinMaxCN\n||}">
<polygon fill="none" stroke="#000000" points="78.5,-127.5 78.5,-206.5 218.5,-206.5 218.5,-127.5 78.5,-127.5"/>
<text text-anchor="start" x="86.5" y="-194.5" font-family="Helvetica,sans-Serif" font-size="10.00" fill="#000000">GPUCA_NAMESPACE::gpu</text>
<text text-anchor="start" x="86.5" y="-183.5" font-family="Helvetica,sans-Serif" font-size="10.00" fill="#000000">::GPUTPCClusterFinder</text>
<text text-anchor="middle" x="148.5" y="-172.5" font-family="Helvetica,sans-Serif" font-size="10.00" fill="#000000">::MinMaxCN</text>
<polyline fill="none" stroke="#000000" points="78.5,-165.5 218.5,-165.5 "/>
<text text-anchor="middle" x="148.5" y="-153.5" font-family="Helvetica,sans-Serif" font-size="10.00" fill="#000000"> </text>
<polyline fill="none" stroke="#000000" points="78.5,-146.5 218.5,-146.5 "/>
<text text-anchor="middle" x="148.5" y="-134.5" font-family="Helvetica,sans-Serif" font-size="10.00" fill="#000000"> </text>
</a>
</g>
</g>
<!-- Node2&#45;&gt;Node1 -->
<g id="edge1" class="edge">
<title>Node2&#45;&gt;Node1</title>
<path fill="none" stroke="#404040" d="M148.5,-127.1649C148.5,-115.935 148.5,-103.5529 148.5,-91.7342"/>
<polygon fill="none" stroke="#404040" points="148.5001,-91.6938 144.5,-85.6938 148.5,-79.6938 152.5,-85.6938 148.5001,-91.6938"/>
<text text-anchor="middle" x="181" y="-101" font-family="Helvetica,sans-Serif" font-size="10.00" fill="#000000"> +minMaxCN</text>
</g>
<!-- Node3 -->
<g id="node3" class="node">
<title>Node3</title>
<polygon fill="none" stroke="#bfbfbf" points="0,-287.5 0,-344.5 61,-344.5 61,-287.5 0,-287.5"/>
<text text-anchor="middle" x="30.5" y="-332.5" font-family="Helvetica,sans-Serif" font-size="10.00" fill="#000000">unsigned</text>
<polyline fill="none" stroke="#bfbfbf" points="0,-325.5 61,-325.5 "/>
<text text-anchor="middle" x="30.5" y="-313.5" font-family="Helvetica,sans-Serif" font-size="10.00" fill="#000000"> </text>
<polyline fill="none" stroke="#bfbfbf" points="0,-306.5 61,-306.5 "/>
<text text-anchor="middle" x="30.5" y="-294.5" font-family="Helvetica,sans-Serif" font-size="10.00" fill="#000000"> </text>
</g>
<!-- Node3&#45;&gt;Node1 -->
<g id="edge4" class="edge">
<title>Node3&#45;&gt;Node1</title>
<path fill="none" stroke="#404040" d="M21.0376,-287.1711C10.0856,-248.3459 -3.2567,-178.2222 23.5,-127 33.6742,-107.5229 50.4167,-91.5228 68.3905,-78.7948"/>
<polygon fill="none" stroke="#404040" points="68.4919,-78.7271 71.2576,-72.0675 78.4688,-72.0591 75.703,-78.7187 68.4919,-78.7271"/>
<text text-anchor="middle" x="46.5" y="-170" font-family="Helvetica,sans-Serif" font-size="10.00" fill="#000000"> +nDigits</text>
<text text-anchor="middle" x="46.5" y="-159" font-family="Helvetica,sans-Serif" font-size="10.00" fill="#000000">+nPages</text>
</g>
<!-- Node3&#45;&gt;Node2 -->
<g id="edge2" class="edge">
<title>Node3&#45;&gt;Node2</title>
<path fill="none" stroke="#404040" d="M53.2516,-287.2713C69.2031,-267.1291 90.9263,-239.699 109.599,-216.1208"/>
<polygon fill="none" stroke="#404040" points="109.6702,-216.0308 110.2595,-208.8438 117.1203,-206.6236 116.531,-213.8106 109.6702,-216.0308"/>
<text text-anchor="middle" x="121" y="-261" font-family="Helvetica,sans-Serif" font-size="10.00" fill="#000000"> +maxN</text>
<text text-anchor="middle" x="121" y="-250" font-family="Helvetica,sans-Serif" font-size="10.00" fill="#000000">+minN</text>
<text text-anchor="middle" x="121" y="-239" font-family="Helvetica,sans-Serif" font-size="10.00" fill="#000000">+maxC</text>
<text text-anchor="middle" x="121" y="-228" font-family="Helvetica,sans-Serif" font-size="10.00" fill="#000000">+minC</text>
</g>
<!-- Node4 -->
<g id="node4" class="node">
<title>Node4</title>
<polygon fill="none" stroke="#bfbfbf" points="236.5,-138.5 236.5,-195.5 378.5,-195.5 378.5,-138.5 236.5,-138.5"/>
<text text-anchor="middle" x="307.5" y="-183.5" font-family="Helvetica,sans-Serif" font-size="10.00" fill="#000000">vector&lt; unsigned short &gt;</text>
<polyline fill="none" stroke="#bfbfbf" points="236.5,-176.5 378.5,-176.5 "/>
<text text-anchor="middle" x="307.5" y="-164.5" font-family="Helvetica,sans-Serif" font-size="10.00" fill="#000000"> </text>
<polyline fill="none" stroke="#bfbfbf" points="236.5,-157.5 378.5,-157.5 "/>
<text text-anchor="middle" x="307.5" y="-145.5" font-family="Helvetica,sans-Serif" font-size="10.00" fill="#000000"> </text>
</g>
<!-- Node4&#45;&gt;Node1 -->
<g id="edge3" class="edge">
<title>Node4&#45;&gt;Node1</title>
<path fill="none" stroke="#404040" d="M271.8173,-138.4987C252.9149,-123.4006 229.2064,-104.4636 207.6409,-87.2383"/>
<polygon fill="none" stroke="#404040" points="207.6064,-87.2108 200.422,-86.5916 198.2303,-79.7216 205.4147,-80.3408 207.6064,-87.2108"/>
<text text-anchor="middle" x="264.5" y="-101" font-family="Helvetica,sans-Serif" font-size="10.00" fill="#000000"> +pageDigits</text>
</g>
</g>
</svg>
