<?xml version="1.0" encoding="UTF-8" standalone="no"?>
<!DOCTYPE svg PUBLIC "-//W3C//DTD SVG 1.1//EN"
 "http://www.w3.org/Graphics/SVG/1.1/DTD/svg11.dtd">
<!-- Generated by graphviz version 2.40.1 (20161225.0304)
 -->
<!-- Title: /home/travis/build/AliceO2Group/AliceO2/Detectors/MUON/MID/Raw/src/ColumnDataToLocalBoard.cxx Pages: 1 -->
<svg width="1087pt" height="296pt"
 viewBox="0.00 0.00 1086.50 296.00" xmlns="http://www.w3.org/2000/svg" xmlns:xlink="http://www.w3.org/1999/xlink">
<g id="graph0" class="graph" transform="scale(1 1) rotate(0) translate(4 292)">
<title>/home/travis/build/AliceO2Group/AliceO2/Detectors/MUON/MID/Raw/src/ColumnDataToLocalBoard.cxx</title>
<!-- Node0 -->
<g id="node1" class="node">
<title>Node0</title>
<polygon fill="#bfbfbf" stroke="#000000" points="526.5,-235.5 526.5,-287.5 708.5,-287.5 708.5,-235.5 526.5,-235.5"/>
<text text-anchor="start" x="534.5" y="-275.5" font-family="Helvetica,sans-Serif" font-size="10.00" fill="#000000">/home/travis/build</text>
<text text-anchor="start" x="534.5" y="-264.5" font-family="Helvetica,sans-Serif" font-size="10.00" fill="#000000">/AliceO2Group/AliceO2</text>
<text text-anchor="start" x="534.5" y="-253.5" font-family="Helvetica,sans-Serif" font-size="10.00" fill="#000000">/Detectors/MUON/MID/Raw</text>
<text text-anchor="middle" x="617.5" y="-242.5" font-family="Helvetica,sans-Serif" font-size="10.00" fill="#000000">/src/ColumnDataToLocalBoard.cxx</text>
</g>
<!-- Node1 -->
<g id="node2" class="node">
<title>Node1</title>
<g id="a_node2"><a xlink:href="../../d2/db5/ColumnDataToLocalBoard_8h.html" target="_top" xlink:title="Converter from ColumnData to raw local boards. ">
<polygon fill="none" stroke="#000000" points="539.5,-168.5 539.5,-198.5 695.5,-198.5 695.5,-168.5 539.5,-168.5"/>
<text text-anchor="start" x="547.5" y="-186.5" font-family="Helvetica,sans-Serif" font-size="10.00" fill="#000000">MIDRaw/ColumnDataToLocal</text>
<text text-anchor="middle" x="617.5" y="-175.5" font-family="Helvetica,sans-Serif" font-size="10.00" fill="#000000">Board.h</text>
</a>
</g>
</g>
<!-- Node0&#45;&gt;Node1 -->
<g id="edge1" class="edge">
<title>Node0&#45;&gt;Node1</title>
<path fill="none" stroke="#191970" d="M617.5,-235.0928C617.5,-226.516 617.5,-217.0289 617.5,-208.5538"/>
<polygon fill="#191970" stroke="#191970" points="621.0001,-208.5045 617.5,-198.5046 614.0001,-208.5046 621.0001,-208.5045"/>
</g>
<!-- Node14 -->
<g id="node15" class="node">
<title>Node14</title>
<g id="a_node15"><a xlink:href="../../dc/de4/DetectorParameters_8h.html" target="_top" xlink:title="Useful detector parameters for MID. ">
<polygon fill="none" stroke="#000000" points="0,-174 0,-193 169,-193 169,-174 0,-174"/>
<text text-anchor="middle" x="84.5" y="-181" font-family="Helvetica,sans-Serif" font-size="10.00" fill="#000000">MIDBase/DetectorParameters.h</text>
</a>
</g>
</g>
<!-- Node0&#45;&gt;Node14 -->
<g id="edge22" class="edge">
<title>Node0&#45;&gt;Node14</title>
<path fill="none" stroke="#191970" d="M526.4796,-248.1799C422.9571,-233.0303 255.8398,-208.5741 159.495,-194.4749"/>
<polygon fill="#191970" stroke="#191970" points="159.9395,-191.0027 149.5381,-193.0178 158.9259,-197.929 159.9395,-191.0027"/>
</g>
<!-- Node16 -->
<g id="node17" class="node">
<title>Node16</title>
<g id="a_node17"><a xlink:href="../../d2/da5/CrateParameters_8h.html" target="_top" xlink:title="MID RO crate parameters. ">
<polygon fill="none" stroke="#000000" points="928.5,-112.5 928.5,-131.5 1078.5,-131.5 1078.5,-112.5 928.5,-112.5"/>
<text text-anchor="middle" x="1003.5" y="-119.5" font-family="Helvetica,sans-Serif" font-size="10.00" fill="#000000">MIDRaw/CrateParameters.h</text>
</a>
</g>
</g>
<!-- Node0&#45;&gt;Node16 -->
<g id="edge25" class="edge">
<title>Node0&#45;&gt;Node16</title>
<path fill="none" stroke="#191970" d="M689.6508,-235.4248C772.2945,-205.5574 904.4065,-157.8123 967.5793,-134.9817"/>
<polygon fill="#191970" stroke="#191970" points="968.8931,-138.2285 977.1081,-131.538 966.5138,-131.6453 968.8931,-138.2285"/>
</g>
<!-- Node2 -->
<g id="node3" class="node">
<title>Node2</title>
<polygon fill="none" stroke="#bfbfbf" points="453.5,-56.5 453.5,-75.5 503.5,-75.5 503.5,-56.5 453.5,-56.5"/>
<text text-anchor="middle" x="478.5" y="-63.5" font-family="Helvetica,sans-Serif" font-size="10.00" fill="#000000">cstdint</text>
</g>
<!-- Node1&#45;&gt;Node2 -->
<g id="edge2" class="edge">
<title>Node1&#45;&gt;Node2</title>
<path fill="none" stroke="#191970" d="M555.1449,-168.492C534.3047,-160.6944 512.5723,-149.0864 497.5,-132 486.2968,-119.2998 481.6765,-100.3763 479.783,-86.0442"/>
<polygon fill="#191970" stroke="#191970" points="483.2322,-85.3531 478.7754,-75.7412 476.2654,-86.0344 483.2322,-85.3531"/>
</g>
<!-- Node3 -->
<g id="node4" class="node">
<title>Node3</title>
<polygon fill="none" stroke="#bfbfbf" points="681,-56.5 681,-75.5 728,-75.5 728,-56.5 681,-56.5"/>
<text text-anchor="middle" x="704.5" y="-63.5" font-family="Helvetica,sans-Serif" font-size="10.00" fill="#000000">vector</text>
</g>
<!-- Node1&#45;&gt;Node3 -->
<g id="edge3" class="edge">
<title>Node1&#45;&gt;Node3</title>
<path fill="none" stroke="#191970" d="M631.1229,-168.0772C639.8124,-158.0262 651.1558,-144.5019 660.5,-132 672.1763,-116.3779 684.3998,-97.8411 692.9915,-84.3959"/>
<polygon fill="#191970" stroke="#191970" points="696.1553,-85.9416 698.546,-75.62 690.2405,-82.1979 696.1553,-85.9416"/>
</g>
<!-- Node4 -->
<g id="node5" class="node">
<title>Node4</title>
<polygon fill="none" stroke="#bfbfbf" points="547,-56.5 547,-75.5 640,-75.5 640,-56.5 547,-56.5"/>
<text text-anchor="middle" x="593.5" y="-63.5" font-family="Helvetica,sans-Serif" font-size="10.00" fill="#000000">unordered_map</text>
</g>
<!-- Node1&#45;&gt;Node4 -->
<g id="edge4" class="edge">
<title>Node1&#45;&gt;Node4</title>
<path fill="none" stroke="#191970" d="M630.6806,-168.2531C641.6179,-153.6514 654.0969,-131.0827 645.5,-112 639.9303,-99.6369 629.2137,-89.2563 618.9494,-81.5033"/>
<polygon fill="#191970" stroke="#191970" points="620.7549,-78.4948 610.5567,-75.623 616.7382,-84.2277 620.7549,-78.4948"/>
</g>
<!-- Node5 -->
<g id="node6" class="node">
<title>Node5</title>
<polygon fill="none" stroke="#bfbfbf" points="730.5,-112.5 730.5,-131.5 778.5,-131.5 778.5,-112.5 730.5,-112.5"/>
<text text-anchor="middle" x="754.5" y="-119.5" font-family="Helvetica,sans-Serif" font-size="10.00" fill="#000000">gsl/gsl</text>
</g>
<!-- Node1&#45;&gt;Node5 -->
<g id="edge5" class="edge">
<title>Node1&#45;&gt;Node5</title>
<path fill="none" stroke="#191970" d="M651.014,-168.4554C673.2712,-158.464 702.2647,-145.4487 723.8985,-135.7372"/>
<polygon fill="#191970" stroke="#191970" points="725.5803,-138.8187 733.2699,-131.5303 722.7135,-132.4327 725.5803,-138.8187"/>
</g>
<!-- Node6 -->
<g id="node7" class="node">
<title>Node6</title>
<g id="a_node7"><a xlink:href="../../d3/d53/ColumnData_8h.html" target="_top" xlink:title="Strip pattern (aka digits) ">
<polygon fill="none" stroke="#000000" points="279,-112.5 279,-131.5 450,-131.5 450,-112.5 279,-112.5"/>
<text text-anchor="middle" x="364.5" y="-119.5" font-family="Helvetica,sans-Serif" font-size="10.00" fill="#000000">DataFormatsMID/ColumnData.h</text>
</a>
</g>
</g>
<!-- Node1&#45;&gt;Node6 -->
<g id="edge6" class="edge">
<title>Node1&#45;&gt;Node6</title>
<path fill="none" stroke="#191970" d="M555.6092,-168.4554C511.9144,-157.8339 454.1611,-143.7951 413.6225,-133.9408"/>
<polygon fill="#191970" stroke="#191970" points="414.2498,-130.4915 403.706,-131.5303 412.5963,-137.2934 414.2498,-130.4915"/>
</g>
<!-- Node9 -->
<g id="node10" class="node">
<title>Node9</title>
<g id="a_node10"><a xlink:href="../../d2/d0e/Mapping_8h.html" target="_top" xlink:title="Mapping for MID. ">
<polygon fill="none" stroke="#000000" points="797,-112.5 797,-131.5 910,-131.5 910,-112.5 797,-112.5"/>
<text text-anchor="middle" x="853.5" y="-119.5" font-family="Helvetica,sans-Serif" font-size="10.00" fill="#000000">MIDBase/Mapping.h</text>
</a>
</g>
</g>
<!-- Node1&#45;&gt;Node9 -->
<g id="edge10" class="edge">
<title>Node1&#45;&gt;Node9</title>
<path fill="none" stroke="#191970" d="M675.2321,-168.4554C715.8183,-157.8789 769.4073,-143.914 807.1967,-134.0663"/>
<polygon fill="#191970" stroke="#191970" points="808.1342,-137.439 816.9284,-131.5303 806.3689,-130.6652 808.1342,-137.439"/>
</g>
<!-- Node11 -->
<g id="node12" class="node">
<title>Node11</title>
<g id="a_node12"><a xlink:href="../../db/d83/CrateMapper_8h.html" target="_top" xlink:title="Mapper to convert the RO Ids to a format suitable for O2. ">
<polygon fill="none" stroke="#000000" points="506.5,-112.5 506.5,-131.5 636.5,-131.5 636.5,-112.5 506.5,-112.5"/>
<text text-anchor="middle" x="571.5" y="-119.5" font-family="Helvetica,sans-Serif" font-size="10.00" fill="#000000">MIDRaw/CrateMapper.h</text>
</a>
</g>
</g>
<!-- Node1&#45;&gt;Node11 -->
<g id="edge15" class="edge">
<title>Node1&#45;&gt;Node11</title>
<path fill="none" stroke="#191970" d="M606.1292,-168.2977C599.7439,-159.7609 591.7359,-149.0545 585.0295,-140.0883"/>
<polygon fill="#191970" stroke="#191970" points="587.6575,-137.7584 578.8652,-131.8469 582.0521,-141.9511 587.6575,-137.7584"/>
</g>
<!-- Node12 -->
<g id="node13" class="node">
<title>Node12</title>
<g id="a_node13"><a xlink:href="../../d3/d4a/LocalBoardRO_8h.html" target="_top" xlink:title="Structure to store the FEE local board information. ">
<polygon fill="none" stroke="#000000" points="124.5,-112.5 124.5,-131.5 260.5,-131.5 260.5,-112.5 124.5,-112.5"/>
<text text-anchor="middle" x="192.5" y="-119.5" font-family="Helvetica,sans-Serif" font-size="10.00" fill="#000000">MIDRaw/LocalBoardRO.h</text>
</a>
</g>
</g>
<!-- Node1&#45;&gt;Node12 -->
<g id="edge18" class="edge">
<title>Node1&#45;&gt;Node12</title>
<path fill="none" stroke="#191970" d="M539.0532,-172.1483C461.8128,-160.9711 344.634,-144.0147 268.3164,-132.9711"/>
<polygon fill="#191970" stroke="#191970" points="268.6895,-129.4887 258.2913,-131.5204 267.6869,-136.4165 268.6895,-129.4887"/>
</g>
<!-- Node6&#45;&gt;Node2 -->
<g id="edge7" class="edge">
<title>Node6&#45;&gt;Node2</title>
<path fill="none" stroke="#191970" d="M384.0973,-112.3733C402.2331,-103.4644 429.4135,-90.1127 449.9587,-80.0203"/>
<polygon fill="#191970" stroke="#191970" points="451.7261,-83.0517 459.1584,-75.5011 448.6397,-76.7688 451.7261,-83.0517"/>
</g>
<!-- Node7 -->
<g id="node8" class="node">
<title>Node7</title>
<polygon fill="none" stroke="#bfbfbf" points="334.5,-56.5 334.5,-75.5 394.5,-75.5 394.5,-56.5 334.5,-56.5"/>
<text text-anchor="middle" x="364.5" y="-63.5" font-family="Helvetica,sans-Serif" font-size="10.00" fill="#000000">iostream</text>
</g>
<!-- Node6&#45;&gt;Node7 -->
<g id="edge8" class="edge">
<title>Node6&#45;&gt;Node7</title>
<path fill="none" stroke="#191970" d="M364.5,-112.2455C364.5,-104.9382 364.5,-94.6944 364.5,-85.7046"/>
<polygon fill="#191970" stroke="#191970" points="368.0001,-85.6426 364.5,-75.6427 361.0001,-85.6427 368.0001,-85.6426"/>
</g>
<!-- Node8 -->
<g id="node9" class="node">
<title>Node8</title>
<polygon fill="none" stroke="#bfbfbf" points="568.5,-.5 568.5,-19.5 610.5,-19.5 610.5,-.5 568.5,-.5"/>
<text text-anchor="middle" x="589.5" y="-7.5" font-family="Helvetica,sans-Serif" font-size="10.00" fill="#000000">array</text>
</g>
<!-- Node6&#45;&gt;Node8 -->
<g id="edge9" class="edge">
<title>Node6&#45;&gt;Node8</title>
<path fill="none" stroke="#191970" d="M373.9395,-112.1001C388.0478,-97.8298 416.0345,-71.4954 444.5,-56 481.2266,-36.0077 527.9894,-23.1492 558.3251,-16.2477"/>
<polygon fill="#191970" stroke="#191970" points="559.3093,-19.6151 568.3268,-14.0531 557.809,-12.7778 559.3093,-19.6151"/>
</g>
<!-- Node9&#45;&gt;Node3 -->
<g id="edge12" class="edge">
<title>Node9&#45;&gt;Node3</title>
<path fill="none" stroke="#191970" d="M827.886,-112.3733C802.9867,-103.0151 765.0436,-88.7547 737.8101,-78.5192"/>
<polygon fill="#191970" stroke="#191970" points="738.8973,-75.1888 728.3052,-74.9469 736.4345,-81.7413 738.8973,-75.1888"/>
</g>
<!-- Node9&#45;&gt;Node8 -->
<g id="edge11" class="edge">
<title>Node9&#45;&gt;Node8</title>
<path fill="none" stroke="#191970" d="M839.0159,-112.3918C817.5664,-98.4848 775.7615,-72.5985 737.5,-56 698.417,-39.0451 651.065,-25.4668 620.6227,-17.574"/>
<polygon fill="#191970" stroke="#191970" points="621.1557,-14.0982 610.6014,-15.0231 619.429,-20.8818 621.1557,-14.0982"/>
</g>
<!-- Node10 -->
<g id="node11" class="node">
<title>Node10</title>
<g id="a_node11"><a xlink:href="../../d7/d0a/MpArea_8h.html" target="_top" xlink:title="Mapping area for MID. ">
<polygon fill="none" stroke="#000000" points="796.5,-56.5 796.5,-75.5 904.5,-75.5 904.5,-56.5 796.5,-56.5"/>
<text text-anchor="middle" x="850.5" y="-63.5" font-family="Helvetica,sans-Serif" font-size="10.00" fill="#000000">MIDBase/MpArea.h</text>
</a>
</g>
</g>
<!-- Node9&#45;&gt;Node10 -->
<g id="edge13" class="edge">
<title>Node9&#45;&gt;Node10</title>
<path fill="none" stroke="#191970" d="M852.9774,-112.2455C852.586,-104.9382 852.0372,-94.6944 851.5556,-85.7046"/>
<polygon fill="#191970" stroke="#191970" points="855.0466,-85.4411 851.0166,-75.6427 848.0566,-85.8156 855.0466,-85.4411"/>
</g>
<!-- Node10&#45;&gt;Node8 -->
<g id="edge14" class="edge">
<title>Node10&#45;&gt;Node8</title>
<path fill="none" stroke="#191970" d="M805.9291,-56.4369C753.1153,-45.1052 666.5003,-26.5211 620.4893,-16.6491"/>
<polygon fill="#191970" stroke="#191970" points="621.0233,-13.184 610.5116,-14.5082 619.5548,-20.0283 621.0233,-13.184"/>
</g>
<!-- Node11&#45;&gt;Node2 -->
<g id="edge16" class="edge">
<title>Node11&#45;&gt;Node2</title>
<path fill="none" stroke="#191970" d="M555.3006,-112.2455C540.8982,-103.5731 519.6268,-90.7645 503.1201,-80.825"/>
<polygon fill="#191970" stroke="#191970" points="504.886,-77.8028 494.5137,-75.6427 501.275,-83.7996 504.886,-77.8028"/>
</g>
<!-- Node11&#45;&gt;Node4 -->
<g id="edge17" class="edge">
<title>Node11&#45;&gt;Node4</title>
<path fill="none" stroke="#191970" d="M575.3321,-112.2455C578.2659,-104.7776 582.4047,-94.2427 585.991,-85.1137"/>
<polygon fill="#191970" stroke="#191970" points="589.3129,-86.23 589.7118,-75.6427 582.7976,-83.6704 589.3129,-86.23"/>
</g>
<!-- Node12&#45;&gt;Node2 -->
<g id="edge19" class="edge">
<title>Node12&#45;&gt;Node2</title>
<path fill="none" stroke="#191970" d="M241.3402,-112.4369C298.8046,-101.1851 392.7871,-82.7829 443.4689,-72.8592"/>
<polygon fill="#191970" stroke="#191970" points="444.1601,-76.2905 453.3011,-70.934 442.8149,-69.4209 444.1601,-76.2905"/>
</g>
<!-- Node12&#45;&gt;Node8 -->
<g id="edge20" class="edge">
<title>Node12&#45;&gt;Node8</title>
<path fill="none" stroke="#191970" d="M208.2389,-112.305C232.503,-97.802 280.9171,-70.6049 325.5,-56 407.0556,-29.2832 508.1516,-17.1849 558.2829,-12.5097"/>
<polygon fill="#191970" stroke="#191970" points="558.8191,-15.9758 568.467,-11.5976 558.1946,-9.0037 558.8191,-15.9758"/>
</g>
<!-- Node13 -->
<g id="node14" class="node">
<title>Node13</title>
<polygon fill="none" stroke="#bfbfbf" points="168,-56.5 168,-75.5 217,-75.5 217,-56.5 168,-56.5"/>
<text text-anchor="middle" x="192.5" y="-63.5" font-family="Helvetica,sans-Serif" font-size="10.00" fill="#000000">iosfwd</text>
</g>
<!-- Node12&#45;&gt;Node13 -->
<g id="edge21" class="edge">
<title>Node12&#45;&gt;Node13</title>
<path fill="none" stroke="#191970" d="M192.5,-112.2455C192.5,-104.9382 192.5,-94.6944 192.5,-85.7046"/>
<polygon fill="#191970" stroke="#191970" points="196.0001,-85.6426 192.5,-75.6427 189.0001,-85.6427 196.0001,-85.6426"/>
</g>
<!-- Node14&#45;&gt;Node8 -->
<g id="edge23" class="edge">
<title>Node14&#45;&gt;Node8</title>
<path fill="none" stroke="#191970" d="M74.6128,-173.8582C61.3864,-159.7477 40.9703,-132.8829 53.5,-112 80.7111,-66.6482 107.9444,-71.5358 158.5,-56 233.5171,-32.9471 472.4059,-16.923 558.3343,-11.7774"/>
<polygon fill="#191970" stroke="#191970" points="558.7194,-15.2609 568.4956,-11.1772 558.3066,-8.273 558.7194,-15.2609"/>
</g>
<!-- Node15 -->
<g id="node16" class="node">
<title>Node15</title>
<polygon fill="none" stroke="#bfbfbf" points="62.5,-112.5 62.5,-131.5 106.5,-131.5 106.5,-112.5 62.5,-112.5"/>
<text text-anchor="middle" x="84.5" y="-119.5" font-family="Helvetica,sans-Serif" font-size="10.00" fill="#000000">string</text>
</g>
<!-- Node14&#45;&gt;Node15 -->
<g id="edge24" class="edge">
<title>Node14&#45;&gt;Node15</title>
<path fill="none" stroke="#191970" d="M84.5,-173.8906C84.5,-165.3657 84.5,-152.6392 84.5,-141.9235"/>
<polygon fill="#191970" stroke="#191970" points="88.0001,-141.7448 84.5,-131.7449 81.0001,-141.7449 88.0001,-141.7448"/>
</g>
<!-- Node16&#45;&gt;Node2 -->
<g id="edge26" class="edge">
<title>Node16&#45;&gt;Node2</title>
<path fill="none" stroke="#191970" d="M928.4044,-112.9685C925.3977,-112.6359 922.4207,-112.3118 919.5,-112 750.3734,-93.9454 707.1594,-97.9949 538.5,-76 530.4008,-74.9438 521.7188,-73.613 513.5454,-72.2699"/>
<polygon fill="#191970" stroke="#191970" points="513.9898,-68.7955 503.5467,-70.582 512.8245,-75.6979 513.9898,-68.7955"/>
</g>
<!-- Node16&#45;&gt;Node8 -->
<g id="edge27" class="edge">
<title>Node16&#45;&gt;Node8</title>
<path fill="none" stroke="#191970" d="M993.9822,-112.4667C978.5661,-97.6624 946.5169,-69.4519 913.5,-56 860.7018,-34.4887 691.5532,-18.4337 620.9361,-12.501"/>
<polygon fill="#191970" stroke="#191970" points="621.1234,-9.0046 610.8688,-11.668 620.5461,-15.9808 621.1234,-9.0046"/>
</g>
</g>
</svg>
