<?xml version="1.0" encoding="UTF-8" standalone="no"?>
<!DOCTYPE svg PUBLIC "-//W3C//DTD SVG 1.1//EN"
 "http://www.w3.org/Graphics/SVG/1.1/DTD/svg11.dtd">
<!-- Generated by graphviz version 2.40.1 (20161225.0304)
 -->
<!-- Title: /home/travis/build/AliceO2Group/AliceO2/DataFormats/Detectors/ITSMFT/common/include/DataFormatsITSMFT/ClusterTopology.h Pages: 1 -->
<svg width="431pt" height="251pt"
 viewBox="0.00 0.00 431.27 251.00" xmlns="http://www.w3.org/2000/svg" xmlns:xlink="http://www.w3.org/1999/xlink">
<g id="graph0" class="graph" transform="scale(1 1) rotate(0) translate(4 247)">
<title>/home/travis/build/AliceO2Group/AliceO2/DataFormats/Detectors/ITSMFT/common/include/DataFormatsITSMFT/ClusterTopology.h</title>
<!-- Node0 -->
<g id="node1" class="node">
<title>Node0</title>
<polygon fill="#bfbfbf" stroke="#000000" points="217.2737,-179.5 217.2737,-242.5 423.2737,-242.5 423.2737,-179.5 217.2737,-179.5"/>
<text text-anchor="start" x="225.2737" y="-230.5" font-family="Helvetica,sans-Serif" font-size="10.00" fill="#000000">/home/travis/build</text>
<text text-anchor="start" x="225.2737" y="-219.5" font-family="Helvetica,sans-Serif" font-size="10.00" fill="#000000">/AliceO2Group/AliceO2</text>
<text text-anchor="start" x="225.2737" y="-208.5" font-family="Helvetica,sans-Serif" font-size="10.00" fill="#000000">/DataFormats/Detectors</text>
<text text-anchor="start" x="225.2737" y="-197.5" font-family="Helvetica,sans-Serif" font-size="10.00" fill="#000000">/ITSMFT/common/include</text>
<text text-anchor="middle" x="320.2737" y="-186.5" font-family="Helvetica,sans-Serif" font-size="10.00" fill="#000000">/DataFormatsITSMFT/ClusterTopology.h</text>
</g>
<!-- Node1 -->
<g id="node2" class="node">
<title>Node1</title>
<g id="a_node2"><a xlink:href="../../de/dc1/ClusterPattern_8h.html" target="_top" xlink:title="DataFormatsITSMFT/Cluster\lPattern.h">
<polygon fill="none" stroke="#000000" points="90.2737,-112.5 90.2737,-142.5 242.2737,-142.5 242.2737,-112.5 90.2737,-112.5"/>
<text text-anchor="start" x="98.2737" y="-130.5" font-family="Helvetica,sans-Serif" font-size="10.00" fill="#000000">DataFormatsITSMFT/Cluster</text>
<text text-anchor="middle" x="166.2737" y="-119.5" font-family="Helvetica,sans-Serif" font-size="10.00" fill="#000000">Pattern.h</text>
</a>
</g>
</g>
<!-- Node0&#45;&gt;Node1 -->
<g id="edge1" class="edge">
<title>Node0&#45;&gt;Node1</title>
<path fill="none" stroke="#191970" d="M262.0529,-179.4322C242.179,-168.6564 220.5275,-156.9168 202.846,-147.3298"/>
<polygon fill="#191970" stroke="#191970" points="204.4513,-144.2188 193.9921,-142.5291 201.1147,-150.3725 204.4513,-144.2188"/>
</g>
<!-- Node4 -->
<g id="node5" class="node">
<title>Node4</title>
<polygon fill="none" stroke="#bfbfbf" points="346.7737,-56.5 346.7737,-75.5 395.7737,-75.5 395.7737,-56.5 346.7737,-56.5"/>
<text text-anchor="middle" x="371.2737" y="-63.5" font-family="Helvetica,sans-Serif" font-size="10.00" fill="#000000">iosfwd</text>
</g>
<!-- Node0&#45;&gt;Node4 -->
<g id="edge9" class="edge">
<title>Node0&#45;&gt;Node4</title>
<path fill="none" stroke="#191970" d="M322.9591,-179.2547C325.4618,-159.3343 330.2371,-133.4508 339.2737,-112 343.5451,-101.8607 350.2877,-91.7025 356.4846,-83.5208"/>
<polygon fill="#191970" stroke="#191970" points="359.3676,-85.5186 362.8518,-75.513 353.8885,-81.162 359.3676,-85.5186"/>
</g>
<!-- Node7 -->
<g id="node8" class="node">
<title>Node7</title>
<polygon fill="none" stroke="#bfbfbf" points="348.2737,-118 348.2737,-137 386.2737,-137 386.2737,-118 348.2737,-118"/>
<text text-anchor="middle" x="367.2737" y="-125" font-family="Helvetica,sans-Serif" font-size="10.00" fill="#000000">map</text>
</g>
<!-- Node0&#45;&gt;Node7 -->
<g id="edge8" class="edge">
<title>Node0&#45;&gt;Node7</title>
<path fill="none" stroke="#191970" d="M338.0424,-179.4322C344.3593,-168.2097 351.2645,-155.9419 356.7768,-146.1489"/>
<polygon fill="#191970" stroke="#191970" points="359.8962,-147.7424 361.7513,-137.3112 353.7961,-144.3088 359.8962,-147.7424"/>
</g>
<!-- Node2 -->
<g id="node3" class="node">
<title>Node2</title>
<polygon fill="none" stroke="#bfbfbf" points="80.7737,-.5 80.7737,-19.5 139.7737,-19.5 139.7737,-.5 80.7737,-.5"/>
<text text-anchor="middle" x="110.2737" y="-7.5" font-family="Helvetica,sans-Serif" font-size="10.00" fill="#000000">Rtypes.h</text>
</g>
<!-- Node1&#45;&gt;Node2 -->
<g id="edge2" class="edge">
<title>Node1&#45;&gt;Node2</title>
<path fill="none" stroke="#191970" d="M91.4399,-112.4823C54.7274,-103.4398 16.0885,-90.814 5.2737,-76 -15.4706,-47.5847 33.0428,-28.5549 70.854,-18.5057"/>
<polygon fill="#191970" stroke="#191970" points="71.8377,-21.8673 80.6772,-16.0266 70.1247,-15.0801 71.8377,-21.8673"/>
</g>
<!-- Node3 -->
<g id="node4" class="node">
<title>Node3</title>
<polygon fill="none" stroke="#bfbfbf" points="14.2737,-56.5 14.2737,-75.5 56.2737,-75.5 56.2737,-56.5 14.2737,-56.5"/>
<text text-anchor="middle" x="35.2737" y="-63.5" font-family="Helvetica,sans-Serif" font-size="10.00" fill="#000000">array</text>
</g>
<!-- Node1&#45;&gt;Node3 -->
<g id="edge3" class="edge">
<title>Node1&#45;&gt;Node3</title>
<path fill="none" stroke="#191970" d="M134.2275,-112.4554C113.0409,-102.509 85.471,-89.5659 64.815,-79.8686"/>
<polygon fill="#191970" stroke="#191970" points="66.1136,-76.6118 55.5741,-75.5303 63.1388,-82.9483 66.1136,-76.6118"/>
</g>
<!-- Node1&#45;&gt;Node4 -->
<g id="edge4" class="edge">
<title>Node1&#45;&gt;Node4</title>
<path fill="none" stroke="#191970" d="M216.4224,-112.4554C253.9128,-101.2083 304.1759,-86.1294 337.125,-76.2446"/>
<polygon fill="#191970" stroke="#191970" points="338.189,-79.5796 346.7615,-73.3537 336.1775,-72.8748 338.189,-79.5796"/>
</g>
<!-- Node5 -->
<g id="node6" class="node">
<title>Node5</title>
<polygon fill="none" stroke="#bfbfbf" points="74.2737,-56.5 74.2737,-75.5 122.2737,-75.5 122.2737,-56.5 74.2737,-56.5"/>
<text text-anchor="middle" x="98.2737" y="-63.5" font-family="Helvetica,sans-Serif" font-size="10.00" fill="#000000">gsl/gsl</text>
</g>
<!-- Node1&#45;&gt;Node5 -->
<g id="edge5" class="edge">
<title>Node1&#45;&gt;Node5</title>
<path fill="none" stroke="#191970" d="M149.4647,-112.2977C139.534,-103.3163 126.948,-91.9334 116.741,-82.702"/>
<polygon fill="#191970" stroke="#191970" points="118.9258,-79.9588 109.1614,-75.8469 114.2304,-85.1505 118.9258,-79.9588"/>
</g>
<!-- Node6 -->
<g id="node7" class="node">
<title>Node6</title>
<g id="a_node7"><a xlink:href="../../df/de4/CompCluster_8h.html" target="_top" xlink:title="Definition of the ITSMFT compact cluster. ">
<polygon fill="none" stroke="#000000" points="140.2737,-56.5 140.2737,-75.5 328.2737,-75.5 328.2737,-56.5 140.2737,-56.5"/>
<text text-anchor="middle" x="234.2737" y="-63.5" font-family="Helvetica,sans-Serif" font-size="10.00" fill="#000000">DataFormatsITSMFT/CompCluster.h</text>
</a>
</g>
</g>
<!-- Node1&#45;&gt;Node6 -->
<g id="edge6" class="edge">
<title>Node1&#45;&gt;Node6</title>
<path fill="none" stroke="#191970" d="M183.0827,-112.2977C193.0135,-103.3163 205.5994,-91.9334 215.8064,-82.702"/>
<polygon fill="#191970" stroke="#191970" points="218.3171,-85.1505 223.3861,-75.8469 213.6217,-79.9588 218.3171,-85.1505"/>
</g>
<!-- Node6&#45;&gt;Node2 -->
<g id="edge7" class="edge">
<title>Node6&#45;&gt;Node2</title>
<path fill="none" stroke="#191970" d="M212.9574,-56.3733C193.0522,-47.3838 163.1302,-33.8706 140.7137,-23.7471"/>
<polygon fill="#191970" stroke="#191970" points="141.8662,-20.4272 131.3119,-19.5011 138.9851,-26.8068 141.8662,-20.4272"/>
</g>
</g>
</svg>
