<?xml version="1.0" encoding="UTF-8" standalone="no"?>
<!DOCTYPE svg PUBLIC "-//W3C//DTD SVG 1.1//EN"
 "http://www.w3.org/Graphics/SVG/1.1/DTD/svg11.dtd">
<!-- Generated by graphviz version 2.40.1 (20161225.0304)
 -->
<!-- Title: /home/travis/build/AliceO2Group/AliceO2/GPU/GPUTracking/Standalone/qa/GPUQAConfig.h Pages: 1 -->
<svg width="1871pt" height="417pt"
 viewBox="0.00 0.00 1871.00 417.00" xmlns="http://www.w3.org/2000/svg" xmlns:xlink="http://www.w3.org/1999/xlink">
<g id="graph0" class="graph" transform="scale(1 1) rotate(0) translate(4 413)">
<title>/home/travis/build/AliceO2Group/AliceO2/GPU/GPUTracking/Standalone/qa/GPUQAConfig.h</title>
<!-- Node7 -->
<g id="node1" class="node">
<title>Node7</title>
<polygon fill="#bfbfbf" stroke="#000000" points="767,-356.5 767,-408.5 930,-408.5 930,-356.5 767,-356.5"/>
<text text-anchor="start" x="775" y="-396.5" font-family="Helvetica,sans-Serif" font-size="10.00" fill="#000000">/home/travis/build</text>
<text text-anchor="start" x="775" y="-385.5" font-family="Helvetica,sans-Serif" font-size="10.00" fill="#000000">/AliceO2Group/AliceO2</text>
<text text-anchor="start" x="775" y="-374.5" font-family="Helvetica,sans-Serif" font-size="10.00" fill="#000000">/GPU/GPUTracking/Standalone</text>
<text text-anchor="middle" x="848.5" y="-363.5" font-family="Helvetica,sans-Serif" font-size="10.00" fill="#000000">/qa/GPUQAConfig.h</text>
</g>
<!-- Node8 -->
<g id="node2" class="node">
<title>Node8</title>
<g id="a_node2"><a xlink:href="../../d8/de7/GPUO2InterfaceConfiguration_8h.html" target="_top" xlink:title="/home/travis/build\l/AliceO2Group/AliceO2\l/GPU/GPUTracking/Interface\l/GPUO2InterfaceConfiguration.h">
<polygon fill="none" stroke="#000000" points="417.5,-267.5 417.5,-319.5 589.5,-319.5 589.5,-267.5 417.5,-267.5"/>
<text text-anchor="start" x="425.5" y="-307.5" font-family="Helvetica,sans-Serif" font-size="10.00" fill="#000000">/home/travis/build</text>
<text text-anchor="start" x="425.5" y="-296.5" font-family="Helvetica,sans-Serif" font-size="10.00" fill="#000000">/AliceO2Group/AliceO2</text>
<text text-anchor="start" x="425.5" y="-285.5" font-family="Helvetica,sans-Serif" font-size="10.00" fill="#000000">/GPU/GPUTracking/Interface</text>
<text text-anchor="middle" x="503.5" y="-274.5" font-family="Helvetica,sans-Serif" font-size="10.00" fill="#000000">/GPUO2InterfaceConfiguration.h</text>
</a>
</g>
</g>
<!-- Node7&#45;&gt;Node8 -->
<g id="edge1" class="edge">
<title>Node7&#45;&gt;Node8</title>
<path fill="none" stroke="#191970" d="M756.8873,-358.8666C705.0825,-345.5024 640.696,-328.8926 589.7914,-315.7607"/>
<polygon fill="#191970" stroke="#191970" points="756.1825,-362.2993 766.7398,-361.4082 757.9311,-355.5212 756.1825,-362.2993"/>
</g>
<!-- Node14 -->
<g id="node8" class="node">
<title>Node14</title>
<g id="a_node8"><a xlink:href="../../da/dcc/GPUQA_8h.html" target="_top" xlink:title="/home/travis/build\l/AliceO2Group/AliceO2\l/GPU/GPUTracking/Standalone\l/qa/GPUQA.h">
<polygon fill="none" stroke="#000000" points="1189,-267.5 1189,-319.5 1352,-319.5 1352,-267.5 1189,-267.5"/>
<text text-anchor="start" x="1197" y="-307.5" font-family="Helvetica,sans-Serif" font-size="10.00" fill="#000000">/home/travis/build</text>
<text text-anchor="start" x="1197" y="-296.5" font-family="Helvetica,sans-Serif" font-size="10.00" fill="#000000">/AliceO2Group/AliceO2</text>
<text text-anchor="start" x="1197" y="-285.5" font-family="Helvetica,sans-Serif" font-size="10.00" fill="#000000">/GPU/GPUTracking/Standalone</text>
<text text-anchor="middle" x="1270.5" y="-274.5" font-family="Helvetica,sans-Serif" font-size="10.00" fill="#000000">/qa/GPUQA.h</text>
</a>
</g>
</g>
<!-- Node7&#45;&gt;Node14 -->
<g id="edge7" class="edge">
<title>Node7&#45;&gt;Node14</title>
<path fill="none" stroke="#191970" d="M939.91,-363.2216C1013.9833,-347.5995 1117.4139,-325.7859 1188.7634,-310.7383"/>
<polygon fill="#191970" stroke="#191970" points="939.1784,-359.7988 930.1159,-365.2872 940.623,-366.6481 939.1784,-359.7988"/>
</g>
<!-- Node9 -->
<g id="node3" class="node">
<title>Node9</title>
<g id="a_node3"><a xlink:href="../../d4/d2e/GPUCATracking_8cxx.html" target="_top" xlink:title="/home/travis/build\l/AliceO2Group/AliceO2\l/Detectors/TPC/reconstruction\l/src/GPUCATracking.cxx">
<polygon fill="none" stroke="#000000" points="0,-178.5 0,-230.5 161,-230.5 161,-178.5 0,-178.5"/>
<text text-anchor="start" x="8" y="-218.5" font-family="Helvetica,sans-Serif" font-size="10.00" fill="#000000">/home/travis/build</text>
<text text-anchor="start" x="8" y="-207.5" font-family="Helvetica,sans-Serif" font-size="10.00" fill="#000000">/AliceO2Group/AliceO2</text>
<text text-anchor="start" x="8" y="-196.5" font-family="Helvetica,sans-Serif" font-size="10.00" fill="#000000">/Detectors/TPC/reconstruction</text>
<text text-anchor="middle" x="80.5" y="-185.5" font-family="Helvetica,sans-Serif" font-size="10.00" fill="#000000">/src/GPUCATracking.cxx</text>
</a>
</g>
</g>
<!-- Node8&#45;&gt;Node9 -->
<g id="edge2" class="edge">
<title>Node8&#45;&gt;Node9</title>
<path fill="none" stroke="#191970" d="M407.0426,-278.1944C340.0259,-266.8919 248.8573,-250.1839 169.5,-231 166.836,-230.356 164.1334,-229.6807 161.409,-228.981"/>
<polygon fill="#191970" stroke="#191970" points="406.7266,-281.6901 417.1677,-279.8919 407.8841,-274.7865 406.7266,-281.6901"/>
</g>
<!-- Node10 -->
<g id="node4" class="node">
<title>Node10</title>
<g id="a_node4"><a xlink:href="../../d1/df6/testGPUCATracking_8cxx.html" target="_top" xlink:title="This task tests the TPC CA Tracking library. ">
<polygon fill="none" stroke="#000000" points="179,-178.5 179,-230.5 340,-230.5 340,-178.5 179,-178.5"/>
<text text-anchor="start" x="187" y="-218.5" font-family="Helvetica,sans-Serif" font-size="10.00" fill="#000000">/home/travis/build</text>
<text text-anchor="start" x="187" y="-207.5" font-family="Helvetica,sans-Serif" font-size="10.00" fill="#000000">/AliceO2Group/AliceO2</text>
<text text-anchor="start" x="187" y="-196.5" font-family="Helvetica,sans-Serif" font-size="10.00" fill="#000000">/Detectors/TPC/reconstruction</text>
<text text-anchor="middle" x="259.5" y="-185.5" font-family="Helvetica,sans-Serif" font-size="10.00" fill="#000000">/test/testGPUCATracking.cxx</text>
</a>
</g>
</g>
<!-- Node8&#45;&gt;Node10 -->
<g id="edge3" class="edge">
<title>Node8&#45;&gt;Node10</title>
<path fill="none" stroke="#191970" d="M422.4818,-263.9483C392.9238,-253.1669 359.7345,-241.061 331.0581,-230.6011"/>
<polygon fill="#191970" stroke="#191970" points="421.3467,-267.2598 431.9406,-267.3984 423.7454,-260.6836 421.3467,-267.2598"/>
</g>
<!-- Node11 -->
<g id="node5" class="node">
<title>Node11</title>
<g id="a_node5"><a xlink:href="../../da/d78/CATrackerSpec_8cxx.html" target="_top" xlink:title="Processor spec for running TPC CA tracking. ">
<polygon fill="none" stroke="#000000" points="358.5,-178.5 358.5,-230.5 494.5,-230.5 494.5,-178.5 358.5,-178.5"/>
<text text-anchor="start" x="366.5" y="-218.5" font-family="Helvetica,sans-Serif" font-size="10.00" fill="#000000">/home/travis/build</text>
<text text-anchor="start" x="366.5" y="-207.5" font-family="Helvetica,sans-Serif" font-size="10.00" fill="#000000">/AliceO2Group/AliceO2</text>
<text text-anchor="start" x="366.5" y="-196.5" font-family="Helvetica,sans-Serif" font-size="10.00" fill="#000000">/Detectors/TPC/workflow</text>
<text text-anchor="middle" x="426.5" y="-185.5" font-family="Helvetica,sans-Serif" font-size="10.00" fill="#000000">/src/CATrackerSpec.cxx</text>
</a>
</g>
</g>
<!-- Node8&#45;&gt;Node11 -->
<g id="edge4" class="edge">
<title>Node8&#45;&gt;Node11</title>
<path fill="none" stroke="#191970" d="M474.2711,-259.7159C465.906,-250.0472 456.92,-239.6608 449.0239,-230.5341"/>
<polygon fill="#191970" stroke="#191970" points="471.6242,-262.0059 480.8139,-267.2784 476.9179,-257.4259 471.6242,-262.0059"/>
</g>
<!-- Node12 -->
<g id="node6" class="node">
<title>Node12</title>
<g id="a_node6"><a xlink:href="../../d2/dbc/ZSSpec_8cxx.html" target="_top" xlink:title="/home/travis/build\l/AliceO2Group/AliceO2\l/Detectors/TPC/workflow\l/src/ZSSpec.cxx">
<polygon fill="none" stroke="#000000" points="512.5,-178.5 512.5,-230.5 648.5,-230.5 648.5,-178.5 512.5,-178.5"/>
<text text-anchor="start" x="520.5" y="-218.5" font-family="Helvetica,sans-Serif" font-size="10.00" fill="#000000">/home/travis/build</text>
<text text-anchor="start" x="520.5" y="-207.5" font-family="Helvetica,sans-Serif" font-size="10.00" fill="#000000">/AliceO2Group/AliceO2</text>
<text text-anchor="start" x="520.5" y="-196.5" font-family="Helvetica,sans-Serif" font-size="10.00" fill="#000000">/Detectors/TPC/workflow</text>
<text text-anchor="middle" x="580.5" y="-185.5" font-family="Helvetica,sans-Serif" font-size="10.00" fill="#000000">/src/ZSSpec.cxx</text>
</a>
</g>
</g>
<!-- Node8&#45;&gt;Node12 -->
<g id="edge5" class="edge">
<title>Node8&#45;&gt;Node12</title>
<path fill="none" stroke="#191970" d="M532.7289,-259.7159C541.094,-250.0472 550.08,-239.6608 557.9761,-230.5341"/>
<polygon fill="#191970" stroke="#191970" points="530.0821,-257.4259 526.1861,-267.2784 535.3758,-262.0059 530.0821,-257.4259"/>
</g>
<!-- Node13 -->
<g id="node7" class="node">
<title>Node13</title>
<g id="a_node7"><a xlink:href="../../d0/d48/GPUO2Interface_8cxx.html" target="_top" xlink:title="/home/travis/build\l/AliceO2Group/AliceO2\l/GPU/GPUTracking/Interface\l/GPUO2Interface.cxx">
<polygon fill="none" stroke="#000000" points="666.5,-178.5 666.5,-230.5 818.5,-230.5 818.5,-178.5 666.5,-178.5"/>
<text text-anchor="start" x="674.5" y="-218.5" font-family="Helvetica,sans-Serif" font-size="10.00" fill="#000000">/home/travis/build</text>
<text text-anchor="start" x="674.5" y="-207.5" font-family="Helvetica,sans-Serif" font-size="10.00" fill="#000000">/AliceO2Group/AliceO2</text>
<text text-anchor="start" x="674.5" y="-196.5" font-family="Helvetica,sans-Serif" font-size="10.00" fill="#000000">/GPU/GPUTracking/Interface</text>
<text text-anchor="middle" x="742.5" y="-185.5" font-family="Helvetica,sans-Serif" font-size="10.00" fill="#000000">/GPUO2Interface.cxx</text>
</a>
</g>
</g>
<!-- Node8&#45;&gt;Node13 -->
<g id="edge6" class="edge">
<title>Node8&#45;&gt;Node13</title>
<path fill="none" stroke="#191970" d="M583.2342,-263.8082C612.0916,-253.0621 644.441,-241.0157 672.4083,-230.6011"/>
<polygon fill="#191970" stroke="#191970" points="581.7429,-260.6287 573.593,-267.3984 584.1858,-267.1886 581.7429,-260.6287"/>
</g>
<!-- Node15 -->
<g id="node9" class="node">
<title>Node15</title>
<g id="a_node9"><a xlink:href="../../d7/d36/GPUReconstructionTimeframe_8cxx.html" target="_top" xlink:title="/home/travis/build\l/AliceO2Group/AliceO2\l/GPU/GPUTracking/Base\l/GPUReconstructionTimeframe.cxx">
<polygon fill="none" stroke="#000000" points="837,-178.5 837,-230.5 1024,-230.5 1024,-178.5 837,-178.5"/>
<text text-anchor="start" x="845" y="-218.5" font-family="Helvetica,sans-Serif" font-size="10.00" fill="#000000">/home/travis/build</text>
<text text-anchor="start" x="845" y="-207.5" font-family="Helvetica,sans-Serif" font-size="10.00" fill="#000000">/AliceO2Group/AliceO2</text>
<text text-anchor="start" x="845" y="-196.5" font-family="Helvetica,sans-Serif" font-size="10.00" fill="#000000">/GPU/GPUTracking/Base</text>
<text text-anchor="middle" x="930.5" y="-185.5" font-family="Helvetica,sans-Serif" font-size="10.00" fill="#000000">/GPUReconstructionTimeframe.cxx</text>
</a>
</g>
</g>
<!-- Node14&#45;&gt;Node15 -->
<g id="edge8" class="edge">
<title>Node14&#45;&gt;Node15</title>
<path fill="none" stroke="#191970" d="M1178.8893,-269.5196C1131.0005,-256.984 1072.486,-241.6669 1024.2819,-229.0488"/>
<polygon fill="#191970" stroke="#191970" points="1178.0685,-272.9225 1188.6289,-272.069 1179.8411,-266.1507 1178.0685,-272.9225"/>
</g>
<!-- Node16 -->
<g id="node10" class="node">
<title>Node16</title>
<g id="a_node10"><a xlink:href="../../d2/d58/GPUChainTracking_8cxx.html" target="_top" xlink:title="/home/travis/build\l/AliceO2Group/AliceO2\l/GPU/GPUTracking/Global\l/GPUChainTracking.cxx">
<polygon fill="none" stroke="#000000" points="1042.5,-178.5 1042.5,-230.5 1182.5,-230.5 1182.5,-178.5 1042.5,-178.5"/>
<text text-anchor="start" x="1050.5" y="-218.5" font-family="Helvetica,sans-Serif" font-size="10.00" fill="#000000">/home/travis/build</text>
<text text-anchor="start" x="1050.5" y="-207.5" font-family="Helvetica,sans-Serif" font-size="10.00" fill="#000000">/AliceO2Group/AliceO2</text>
<text text-anchor="start" x="1050.5" y="-196.5" font-family="Helvetica,sans-Serif" font-size="10.00" fill="#000000">/GPU/GPUTracking/Global</text>
<text text-anchor="middle" x="1112.5" y="-185.5" font-family="Helvetica,sans-Serif" font-size="10.00" fill="#000000">/GPUChainTracking.cxx</text>
</a>
</g>
</g>
<!-- Node14&#45;&gt;Node16 -->
<g id="edge9" class="edge">
<title>Node14&#45;&gt;Node16</title>
<path fill="none" stroke="#191970" d="M1215.0795,-262.2821C1196.6629,-251.9082 1176.364,-240.4741 1158.7179,-230.5341"/>
<polygon fill="#191970" stroke="#191970" points="1213.5188,-265.42 1223.9494,-267.2784 1216.9543,-259.321 1213.5188,-265.42"/>
</g>
<!-- Node17 -->
<g id="node11" class="node">
<title>Node17</title>
<g id="a_node11"><a xlink:href="../../d3/d85/GPUChainTrackingIO_8cxx.html" target="_top" xlink:title="/home/travis/build\l/AliceO2Group/AliceO2\l/GPU/GPUTracking/Global\l/GPUChainTrackingIO.cxx">
<polygon fill="none" stroke="#000000" points="1200.5,-178.5 1200.5,-230.5 1340.5,-230.5 1340.5,-178.5 1200.5,-178.5"/>
<text text-anchor="start" x="1208.5" y="-218.5" font-family="Helvetica,sans-Serif" font-size="10.00" fill="#000000">/home/travis/build</text>
<text text-anchor="start" x="1208.5" y="-207.5" font-family="Helvetica,sans-Serif" font-size="10.00" fill="#000000">/AliceO2Group/AliceO2</text>
<text text-anchor="start" x="1208.5" y="-196.5" font-family="Helvetica,sans-Serif" font-size="10.00" fill="#000000">/GPU/GPUTracking/Global</text>
<text text-anchor="middle" x="1270.5" y="-185.5" font-family="Helvetica,sans-Serif" font-size="10.00" fill="#000000">/GPUChainTrackingIO.cxx</text>
</a>
</g>
</g>
<!-- Node14&#45;&gt;Node17 -->
<g id="edge10" class="edge">
<title>Node14&#45;&gt;Node17</title>
<path fill="none" stroke="#191970" d="M1270.5,-257.1155C1270.5,-248.2061 1270.5,-238.8475 1270.5,-230.5341"/>
<polygon fill="#191970" stroke="#191970" points="1267.0001,-257.2784 1270.5,-267.2784 1274.0001,-257.2785 1267.0001,-257.2784"/>
</g>
<!-- Node18 -->
<g id="node12" class="node">
<title>Node18</title>
<g id="a_node12"><a xlink:href="../../d0/dd4/GPUTPCGMMerger_8cxx.html" target="_top" xlink:title="/home/travis/build\l/AliceO2Group/AliceO2\l/GPU/GPUTracking/Merger\l/GPUTPCGMMerger.cxx">
<polygon fill="none" stroke="#000000" points="1358.5,-178.5 1358.5,-230.5 1500.5,-230.5 1500.5,-178.5 1358.5,-178.5"/>
<text text-anchor="start" x="1366.5" y="-218.5" font-family="Helvetica,sans-Serif" font-size="10.00" fill="#000000">/home/travis/build</text>
<text text-anchor="start" x="1366.5" y="-207.5" font-family="Helvetica,sans-Serif" font-size="10.00" fill="#000000">/AliceO2Group/AliceO2</text>
<text text-anchor="start" x="1366.5" y="-196.5" font-family="Helvetica,sans-Serif" font-size="10.00" fill="#000000">/GPU/GPUTracking/Merger</text>
<text text-anchor="middle" x="1429.5" y="-185.5" font-family="Helvetica,sans-Serif" font-size="10.00" fill="#000000">/GPUTPCGMMerger.cxx</text>
</a>
</g>
</g>
<!-- Node14&#45;&gt;Node18 -->
<g id="edge11" class="edge">
<title>Node14&#45;&gt;Node18</title>
<path fill="none" stroke="#191970" d="M1326.2712,-262.2821C1344.8045,-251.9082 1365.2318,-240.4741 1382.9896,-230.5341"/>
<polygon fill="#191970" stroke="#191970" points="1324.3617,-259.3399 1317.3453,-267.2784 1327.7808,-265.4481 1324.3617,-259.3399"/>
</g>
<!-- Node21 -->
<g id="node15" class="node">
<title>Node21</title>
<g id="a_node15"><a xlink:href="../../de/ddc/GPUQA_8cxx.html" target="_top" xlink:title="/home/travis/build\l/AliceO2Group/AliceO2\l/GPU/GPUTracking/Standalone\l/qa/GPUQA.cxx">
<polygon fill="none" stroke="#000000" points="1519,-178.5 1519,-230.5 1682,-230.5 1682,-178.5 1519,-178.5"/>
<text text-anchor="start" x="1527" y="-218.5" font-family="Helvetica,sans-Serif" font-size="10.00" fill="#000000">/home/travis/build</text>
<text text-anchor="start" x="1527" y="-207.5" font-family="Helvetica,sans-Serif" font-size="10.00" fill="#000000">/AliceO2Group/AliceO2</text>
<text text-anchor="start" x="1527" y="-196.5" font-family="Helvetica,sans-Serif" font-size="10.00" fill="#000000">/GPU/GPUTracking/Standalone</text>
<text text-anchor="middle" x="1600.5" y="-185.5" font-family="Helvetica,sans-Serif" font-size="10.00" fill="#000000">/qa/GPUQA.cxx</text>
</a>
</g>
</g>
<!-- Node14&#45;&gt;Node21 -->
<g id="edge14" class="edge">
<title>Node14&#45;&gt;Node21</title>
<path fill="none" stroke="#191970" d="M1362.1633,-270.161C1406.7097,-258.6578 1460.9787,-244.4065 1509.5,-231 1512.5135,-230.1674 1515.581,-229.3123 1518.6778,-228.4429"/>
<polygon fill="#191970" stroke="#191970" points="1361.0391,-266.8363 1352.2296,-272.7222 1362.7868,-273.6146 1361.0391,-266.8363"/>
</g>
<!-- Node22 -->
<g id="node16" class="node">
<title>Node22</title>
<g id="a_node16"><a xlink:href="../../dc/df9/standalone_8cxx.html" target="_top" xlink:title="/home/travis/build\l/AliceO2Group/AliceO2\l/GPU/GPUTracking/Standalone\l/standalone.cxx">
<polygon fill="none" stroke="#000000" points="1700,-178.5 1700,-230.5 1863,-230.5 1863,-178.5 1700,-178.5"/>
<text text-anchor="start" x="1708" y="-218.5" font-family="Helvetica,sans-Serif" font-size="10.00" fill="#000000">/home/travis/build</text>
<text text-anchor="start" x="1708" y="-207.5" font-family="Helvetica,sans-Serif" font-size="10.00" fill="#000000">/AliceO2Group/AliceO2</text>
<text text-anchor="start" x="1708" y="-196.5" font-family="Helvetica,sans-Serif" font-size="10.00" fill="#000000">/GPU/GPUTracking/Standalone</text>
<text text-anchor="middle" x="1781.5" y="-185.5" font-family="Helvetica,sans-Serif" font-size="10.00" fill="#000000">/standalone.cxx</text>
</a>
</g>
</g>
<!-- Node14&#45;&gt;Node22 -->
<g id="edge15" class="edge">
<title>Node14&#45;&gt;Node22</title>
<path fill="none" stroke="#191970" d="M1362.1782,-283.6142C1447.914,-273.4921 1579.2257,-255.7375 1691.5,-231 1694.2041,-230.4042 1696.946,-229.7707 1699.7087,-229.107"/>
<polygon fill="#191970" stroke="#191970" points="1361.738,-280.1417 1352.2127,-284.7806 1362.5519,-287.0943 1361.738,-280.1417"/>
</g>
<!-- Node19 -->
<g id="node13" class="node">
<title>Node19</title>
<g id="a_node13"><a xlink:href="../../d0/d25/GPUReconstructionIncludesDevice_8h.html" target="_top" xlink:title="/home/travis/build\l/AliceO2Group/AliceO2\l/GPU/GPUTracking/Base\l/GPUReconstructionIncludesDevice.h">
<polygon fill="none" stroke="#000000" points="1331.5,-89.5 1331.5,-141.5 1527.5,-141.5 1527.5,-89.5 1331.5,-89.5"/>
<text text-anchor="start" x="1339.5" y="-129.5" font-family="Helvetica,sans-Serif" font-size="10.00" fill="#000000">/home/travis/build</text>
<text text-anchor="start" x="1339.5" y="-118.5" font-family="Helvetica,sans-Serif" font-size="10.00" fill="#000000">/AliceO2Group/AliceO2</text>
<text text-anchor="start" x="1339.5" y="-107.5" font-family="Helvetica,sans-Serif" font-size="10.00" fill="#000000">/GPU/GPUTracking/Base</text>
<text text-anchor="middle" x="1429.5" y="-96.5" font-family="Helvetica,sans-Serif" font-size="10.00" fill="#000000">/GPUReconstructionIncludesDevice.h</text>
</a>
</g>
</g>
<!-- Node18&#45;&gt;Node19 -->
<g id="edge12" class="edge">
<title>Node18&#45;&gt;Node19</title>
<path fill="none" stroke="#191970" d="M1429.5,-168.1155C1429.5,-159.2061 1429.5,-149.8475 1429.5,-141.5341"/>
<polygon fill="#191970" stroke="#191970" points="1426.0001,-168.2784 1429.5,-178.2784 1433.0001,-168.2785 1426.0001,-168.2784"/>
</g>
<!-- Node20 -->
<g id="node14" class="node">
<title>Node20</title>
<g id="a_node14"><a xlink:href="../../d3/d33/GPUReconstructionHIP_8hip_8cxx.html" target="_top" xlink:title="/home/travis/build\l/AliceO2Group/AliceO2\l/GPU/GPUTracking/Base\l/hip/GPUReconstructionHIP.hip.cxx">
<polygon fill="none" stroke="#000000" points="1337.5,-.5 1337.5,-52.5 1521.5,-52.5 1521.5,-.5 1337.5,-.5"/>
<text text-anchor="start" x="1345.5" y="-40.5" font-family="Helvetica,sans-Serif" font-size="10.00" fill="#000000">/home/travis/build</text>
<text text-anchor="start" x="1345.5" y="-29.5" font-family="Helvetica,sans-Serif" font-size="10.00" fill="#000000">/AliceO2Group/AliceO2</text>
<text text-anchor="start" x="1345.5" y="-18.5" font-family="Helvetica,sans-Serif" font-size="10.00" fill="#000000">/GPU/GPUTracking/Base</text>
<text text-anchor="middle" x="1429.5" y="-7.5" font-family="Helvetica,sans-Serif" font-size="10.00" fill="#000000">/hip/GPUReconstructionHIP.hip.cxx</text>
</a>
</g>
</g>
<!-- Node19&#45;&gt;Node20 -->
<g id="edge13" class="edge">
<title>Node19&#45;&gt;Node20</title>
<path fill="none" stroke="#191970" d="M1429.5,-79.1155C1429.5,-70.2061 1429.5,-60.8475 1429.5,-52.5341"/>
<polygon fill="#191970" stroke="#191970" points="1426.0001,-79.2784 1429.5,-89.2784 1433.0001,-79.2785 1426.0001,-79.2784"/>
</g>
</g>
</svg>
