<?xml version="1.0" encoding="UTF-8" standalone="no"?>
<!DOCTYPE svg PUBLIC "-//W3C//DTD SVG 1.1//EN"
 "http://www.w3.org/Graphics/SVG/1.1/DTD/svg11.dtd">
<!-- Generated by graphviz version 2.40.1 (20161225.0304)
 -->
<!-- Title: /home/travis/build/AliceO2Group/AliceO2/Detectors/ITSMFT/common/simulation/include/ITSMFTSimulation/DigiParams.h Pages: 1 -->
<!--zoomable 452 -->
<svg id="main" version="1.1" xmlns="http://www.w3.org/2000/svg" xmlns:xlink="http://www.w3.org/1999/xlink" xml:space="preserve" onload="init(evt)">
<style type="text/css"><![CDATA[
.edge:hover path { stroke: red; }
.edge:hover polygon { stroke: red; fill: red; }
]]></style>
<script type="text/javascript"><![CDATA[
var edges = document.getElementsByTagName('g');
if (edges && edges.length) {
  for (var i=0;i<edges.length;i++) {
    if (edges[i].id.substr(0,4)=='edge') {
      edges[i].setAttribute('class','edge');
    }
  }
}
]]></script>
        <defs>
                <circle id="rim" cx="0" cy="0" r="7"/>
                <circle id="rim2" cx="0" cy="0" r="3.5"/>
                <g id="zoomPlus">
                        <use xlink:href="#rim" fill="#404040">
                                <set attributeName="fill" to="#808080" begin="zoomplus.mouseover" end="zoomplus.mouseout"/>
                        </use>
                        <path d="M-4,0h8M0,-4v8" fill="none" stroke="white" stroke-width="1.5" pointer-events="none"/>
                </g>
                <g id="zoomMin">
                        <use xlink:href="#rim" fill="#404040">
                                <set attributeName="fill" to="#808080" begin="zoomminus.mouseover" end="zoomminus.mouseout"/>
                        </use>
                        <path d="M-4,0h8" fill="none" stroke="white" stroke-width="1.5" pointer-events="none"/>
                </g>
                <g id="dirArrow">
                        <path fill="none" stroke="white" stroke-width="1.5" d="M0,-3.0v7 M-2.5,-0.5L0,-3.0L2.5,-0.5"/>
                </g>
               <g id="resetDef">
                       <use xlink:href="#rim2" fill="#404040">
                               <set attributeName="fill" to="#808080" begin="reset.mouseover" end="reset.mouseout"/>
                       </use>
               </g>
        </defs>

<script type="text/javascript">
var viewWidth = 1754;
var viewHeight = 452;
var sectionId = 'dynsection-0';
</script>
<script xlink:href="../../svgpan.js"/>
<svg id="graph" class="graph">
<g id="viewport">
<title>/home/travis/build/AliceO2Group/AliceO2/Detectors/ITSMFT/common/simulation/include/ITSMFTSimulation/DigiParams.h</title>
<!-- Node0 -->
<g id="node1" class="node">
<title>Node0</title>
<polygon fill="#bfbfbf" stroke="#000000" points="325,-380.5 325,-443.5 525,-443.5 525,-380.5 325,-380.5"/>
<text text-anchor="start" x="333" y="-431.5" font-family="Helvetica,sans-Serif" font-size="10.00" fill="#000000">/home/travis/build</text>
<text text-anchor="start" x="333" y="-420.5" font-family="Helvetica,sans-Serif" font-size="10.00" fill="#000000">/AliceO2Group/AliceO2</text>
<text text-anchor="start" x="333" y="-409.5" font-family="Helvetica,sans-Serif" font-size="10.00" fill="#000000">/Detectors/ITSMFT/common</text>
<text text-anchor="start" x="333" y="-398.5" font-family="Helvetica,sans-Serif" font-size="10.00" fill="#000000">/simulation/include/ITSMFTSimulation</text>
<text text-anchor="middle" x="425" y="-387.5" font-family="Helvetica,sans-Serif" font-size="10.00" fill="#000000">/DigiParams.h</text>
</g>
<!-- Node1 -->
<g id="node2" class="node">
<title>Node1</title>
<polygon fill="none" stroke="#bfbfbf" points="284.5,-185 284.5,-204 343.5,-204 343.5,-185 284.5,-185"/>
<text text-anchor="middle" x="314" y="-192" font-family="Helvetica,sans-Serif" font-size="10.00" fill="#000000">Rtypes.h</text>
</g>
<!-- Node0&#45;&gt;Node1 -->
<g id="edge1" class="edge">
<title>Node0&#45;&gt;Node1</title>
<path fill="none" stroke="#191970" d="M366.4797,-380.4372C353.1119,-370.5115 340.3873,-358.3267 332,-344 307.8745,-302.7899 309.0133,-244.2747 311.6456,-214.131"/>
<polygon fill="#191970" stroke="#191970" points="315.1396,-214.3675 312.678,-204.0626 308.1762,-213.6534 315.1396,-214.3675"/>
</g>
<!-- Node2 -->
<g id="node3" class="node">
<title>Node2</title>
<g id="a_node3"><a xlink:href="../../d1/d47/AlpideSignalTrapezoid_8h.html" target="_top" xlink:title="Simple class describing ALPIDE signal time shape. ">
<polygon fill="none" stroke="#000000" points="341.5,-313.5 341.5,-343.5 508.5,-343.5 508.5,-313.5 341.5,-313.5"/>
<text text-anchor="start" x="349.5" y="-331.5" font-family="Helvetica,sans-Serif" font-size="10.00" fill="#000000">ITSMFTSimulation/AlpideSignal</text>
<text text-anchor="middle" x="425" y="-320.5" font-family="Helvetica,sans-Serif" font-size="10.00" fill="#000000">Trapezoid.h</text>
</a>
</g>
</g>
<!-- Node0&#45;&gt;Node2 -->
<g id="edge2" class="edge">
<title>Node0&#45;&gt;Node2</title>
<path fill="none" stroke="#191970" d="M425,-380.4322C425,-371.6979 425,-362.3303 425,-353.989"/>
<polygon fill="#191970" stroke="#191970" points="428.5001,-353.7544 425,-343.7545 421.5001,-353.7545 428.5001,-353.7544"/>
</g>
<!-- Node3 -->
<g id="node4" class="node">
<title>Node3</title>
<g id="a_node4"><a xlink:href="../../d4/d35/DPLAlpideParam_8h.html" target="_top" xlink:title="ITSMFTBase/DPLAlpideParam.h">
<polygon fill="none" stroke="#000000" points="722.5,-319 722.5,-338 889.5,-338 889.5,-319 722.5,-319"/>
<text text-anchor="middle" x="806" y="-326" font-family="Helvetica,sans-Serif" font-size="10.00" fill="#000000">ITSMFTBase/DPLAlpideParam.h</text>
</a>
</g>
</g>
<!-- Node0&#45;&gt;Node3 -->
<g id="edge4" class="edge">
<title>Node0&#45;&gt;Node3</title>
<path fill="none" stroke="#191970" d="M525.1033,-390.0614C598.0498,-374.0744 694.0177,-353.0421 752.7921,-340.1611"/>
<polygon fill="#191970" stroke="#191970" points="753.5887,-343.5696 762.6075,-338.0099 752.09,-336.7319 753.5887,-343.5696"/>
</g>
<!-- Node2&#45;&gt;Node1 -->
<g id="edge3" class="edge">
<title>Node2&#45;&gt;Node1</title>
<path fill="none" stroke="#191970" d="M412.4827,-313.389C391.8012,-288.4222 350.6021,-238.6864 328.6174,-212.1462"/>
<polygon fill="#191970" stroke="#191970" points="331.0303,-209.5725 321.9557,-204.1042 325.6396,-214.0379 331.0303,-209.5725"/>
</g>
<!-- Node4 -->
<g id="node5" class="node">
<title>Node4</title>
<g id="a_node5"><a xlink:href="../../d6/d31/DetID_8h.html" target="_top" xlink:title="DetectorsCommonDataFormats\l/DetID.h">
<polygon fill="none" stroke="#000000" points="646.5,-246.5 646.5,-276.5 817.5,-276.5 817.5,-246.5 646.5,-246.5"/>
<text text-anchor="start" x="654.5" y="-264.5" font-family="Helvetica,sans-Serif" font-size="10.00" fill="#000000">DetectorsCommonDataFormats</text>
<text text-anchor="middle" x="732" y="-253.5" font-family="Helvetica,sans-Serif" font-size="10.00" fill="#000000">/DetID.h</text>
</a>
</g>
</g>
<!-- Node3&#45;&gt;Node4 -->
<g id="edge5" class="edge">
<title>Node3&#45;&gt;Node4</title>
<path fill="none" stroke="#191970" d="M795.3976,-318.9005C785.1749,-309.6448 769.3425,-295.3101 756.0573,-283.2816"/>
<polygon fill="#191970" stroke="#191970" points="758.3533,-280.639 748.5912,-276.5218 753.6551,-285.8281 758.3533,-280.639"/>
</g>
<!-- Node9 -->
<g id="node10" class="node">
<title>Node9</title>
<polygon fill="none" stroke="#bfbfbf" points="901.5,-185 901.5,-204 974.5,-204 974.5,-185 901.5,-185"/>
<text text-anchor="middle" x="938" y="-192" font-family="Helvetica,sans-Serif" font-size="10.00" fill="#000000">string_view</text>
</g>
<!-- Node3&#45;&gt;Node9 -->
<g id="edge50" class="edge">
<title>Node3&#45;&gt;Node9</title>
<path fill="none" stroke="#191970" d="M815.4931,-318.8631C837.7551,-296.2638 893.5458,-239.6278 921.4981,-211.2519"/>
<polygon fill="#191970" stroke="#191970" points="924.0686,-213.6299 928.5929,-204.0496 919.0817,-208.7175 924.0686,-213.6299"/>
</g>
<!-- Node27 -->
<g id="node28" class="node">
<title>Node27</title>
<g id="a_node28"><a xlink:href="../../db/d2c/ConfigurableParam_8h.html" target="_top" xlink:title="CommonUtils/Configurable\lParam.h">
<polygon fill="none" stroke="#000000" points="1354,-179.5 1354,-209.5 1502,-209.5 1502,-179.5 1354,-179.5"/>
<text text-anchor="start" x="1362" y="-197.5" font-family="Helvetica,sans-Serif" font-size="10.00" fill="#000000">CommonUtils/Configurable</text>
<text text-anchor="middle" x="1428" y="-186.5" font-family="Helvetica,sans-Serif" font-size="10.00" fill="#000000">Param.h</text>
</a>
</g>
</g>
<!-- Node3&#45;&gt;Node27 -->
<g id="edge36" class="edge">
<title>Node3&#45;&gt;Node27</title>
<path fill="none" stroke="#191970" d="M850.2341,-318.9705C954.2394,-296.5642 1215.5036,-240.279 1348.1137,-211.7102"/>
<polygon fill="#191970" stroke="#191970" points="1349.1724,-215.0625 1358.211,-209.5349 1347.6982,-208.2195 1349.1724,-215.0625"/>
</g>
<!-- Node34 -->
<g id="node35" class="node">
<title>Node34</title>
<g id="a_node35"><a xlink:href="../../da/d6b/ConfigurableParamHelper_8h.html" target="_top" xlink:title="CommonUtils/Configurable\lParamHelper.h">
<polygon fill="none" stroke="#000000" points="1414,-246.5 1414,-276.5 1562,-276.5 1562,-246.5 1414,-246.5"/>
<text text-anchor="start" x="1422" y="-264.5" font-family="Helvetica,sans-Serif" font-size="10.00" fill="#000000">CommonUtils/Configurable</text>
<text text-anchor="middle" x="1488" y="-253.5" font-family="Helvetica,sans-Serif" font-size="10.00" fill="#000000">ParamHelper.h</text>
</a>
</g>
</g>
<!-- Node3&#45;&gt;Node34 -->
<g id="edge43" class="edge">
<title>Node3&#45;&gt;Node34</title>
<path fill="none" stroke="#191970" d="M889.6266,-320.2845C1020.5772,-307.4198 1272.5924,-282.6617 1403.8592,-269.766"/>
<polygon fill="#191970" stroke="#191970" points="1404.2585,-273.2437 1413.8684,-268.7827 1403.5741,-266.2773 1404.2585,-273.2437"/>
</g>
<!-- Node37 -->
<g id="node38" class="node">
<title>Node37</title>
<g id="a_node38"><a xlink:href="../../d4/dc6/LHCConstants_8h.html" target="_top" xlink:title="Header to collect LHC related constants. ">
<polygon fill="none" stroke="#000000" points="438,-252 438,-271 628,-271 628,-252 438,-252"/>
<text text-anchor="middle" x="533" y="-259" font-family="Helvetica,sans-Serif" font-size="10.00" fill="#000000">CommonConstants/LHCConstants.h</text>
</a>
</g>
</g>
<!-- Node3&#45;&gt;Node37 -->
<g id="edge49" class="edge">
<title>Node3&#45;&gt;Node37</title>
<path fill="none" stroke="#191970" d="M767.1757,-318.9717C718.4959,-307.0246 635.011,-286.5357 581.9873,-273.5225"/>
<polygon fill="#191970" stroke="#191970" points="582.6784,-270.0883 572.1324,-271.1039 581.0099,-276.8866 582.6784,-270.0883"/>
</g>
<!-- Node4&#45;&gt;Node1 -->
<g id="edge6" class="edge">
<title>Node4&#45;&gt;Node1</title>
<path fill="none" stroke="#191970" d="M646.3155,-247.3848C643.1722,-246.91 640.0591,-246.4468 637,-246 513.2846,-227.9309 479.6347,-238.9308 358,-210 354.7695,-209.2316 351.4452,-208.3118 348.14,-207.3087"/>
<polygon fill="#191970" stroke="#191970" points="348.9871,-203.9033 338.3944,-204.1181 346.809,-210.5559 348.9871,-203.9033"/>
</g>
<!-- Node5 -->
<g id="node6" class="node">
<title>Node5</title>
<polygon fill="none" stroke="#bfbfbf" points="764,-118 764,-137 806,-137 806,-118 764,-118"/>
<text text-anchor="middle" x="785" y="-125" font-family="Helvetica,sans-Serif" font-size="10.00" fill="#000000">array</text>
</g>
<!-- Node4&#45;&gt;Node5 -->
<g id="edge7" class="edge">
<title>Node4&#45;&gt;Node5</title>
<path fill="none" stroke="#191970" d="M737.9767,-246.389C747.6799,-221.8564 766.842,-173.4088 777.4646,-146.5517"/>
<polygon fill="#191970" stroke="#191970" points="780.778,-147.6905 781.2013,-137.1042 774.2686,-145.1159 780.778,-147.6905"/>
</g>
<!-- Node6 -->
<g id="node7" class="node">
<title>Node6</title>
<polygon fill="none" stroke="#bfbfbf" points="685,-185 685,-204 729,-204 729,-185 685,-185"/>
<text text-anchor="middle" x="707" y="-192" font-family="Helvetica,sans-Serif" font-size="10.00" fill="#000000">bitset</text>
</g>
<!-- Node4&#45;&gt;Node6 -->
<g id="edge8" class="edge">
<title>Node4&#45;&gt;Node6</title>
<path fill="none" stroke="#191970" d="M726.3271,-246.2967C722.6967,-236.5672 717.958,-223.8675 714.0815,-213.4784"/>
<polygon fill="#191970" stroke="#191970" points="717.3404,-212.2004 710.5653,-204.055 710.7821,-214.6476 717.3404,-212.2004"/>
</g>
<!-- Node7 -->
<g id="node8" class="node">
<title>Node7</title>
<polygon fill="none" stroke="#bfbfbf" points="0,-118 0,-137 52,-137 52,-118 0,-118"/>
<text text-anchor="middle" x="26" y="-125" font-family="Helvetica,sans-Serif" font-size="10.00" fill="#000000">cassert</text>
</g>
<!-- Node4&#45;&gt;Node7 -->
<g id="edge9" class="edge">
<title>Node4&#45;&gt;Node7</title>
<path fill="none" stroke="#191970" d="M646.3071,-247.4406C643.1662,-246.95 640.0559,-246.4684 637,-246 525.6038,-228.9255 487.9213,-258.0904 386,-210 367.506,-201.2738 370.5776,-187.5467 352,-179 233.6085,-124.5338 186.5982,-177.7592 61,-143 58.8143,-142.3951 56.5895,-141.6761 54.3747,-140.8841"/>
<polygon fill="#191970" stroke="#191970" points="55.4661,-137.5508 44.8821,-137.0723 52.8577,-144.0466 55.4661,-137.5508"/>
</g>
<!-- Node8 -->
<g id="node9" class="node">
<title>Node8</title>
<polygon fill="none" stroke="#bfbfbf" points="70,-118 70,-137 120,-137 120,-118 70,-118"/>
<text text-anchor="middle" x="95" y="-125" font-family="Helvetica,sans-Serif" font-size="10.00" fill="#000000">cstdint</text>
</g>
<!-- Node4&#45;&gt;Node8 -->
<g id="edge10" class="edge">
<title>Node4&#45;&gt;Node8</title>
<path fill="none" stroke="#191970" d="M646.3275,-247.4438C556.0834,-232.5981 426.5699,-211.1631 424,-210 404.1429,-201.0134 405.9744,-187.7227 386,-179 280.3015,-132.8421 239.7349,-175.2568 129,-143 127.0381,-142.4285 125.0442,-141.763 123.0559,-141.0352"/>
<polygon fill="#191970" stroke="#191970" points="123.9142,-137.6032 113.3352,-137.0248 121.2445,-144.0741 123.9142,-137.6032"/>
</g>
<!-- Node4&#45;&gt;Node9 -->
<g id="edge11" class="edge">
<title>Node4&#45;&gt;Node9</title>
<path fill="none" stroke="#191970" d="M779.3118,-246.4576C811.1907,-236.2762 854.1672,-222.4621 892,-210 894.7014,-209.1102 897.4901,-208.1855 900.296,-207.2508"/>
<polygon fill="#191970" stroke="#191970" points="901.4289,-210.5625 909.8009,-204.0694 899.207,-203.9245 901.4289,-210.5625"/>
</g>
<!-- Node10 -->
<g id="node11" class="node">
<title>Node10</title>
<polygon fill="none" stroke="#bfbfbf" points="138,-118 138,-137 182,-137 182,-118 138,-118"/>
<text text-anchor="middle" x="160" y="-125" font-family="Helvetica,sans-Serif" font-size="10.00" fill="#000000">string</text>
</g>
<!-- Node4&#45;&gt;Node10 -->
<g id="edge12" class="edge">
<title>Node4&#45;&gt;Node10</title>
<path fill="none" stroke="#191970" d="M646.1626,-246.7161C575.1949,-234.1786 483.4802,-217.1294 467,-210 445.3768,-200.6458 445.7999,-187.9346 424,-179 327.0428,-139.2626 290.8384,-174.8127 191,-143 189.3445,-142.4725 187.6681,-141.8668 185.9966,-141.2073"/>
<polygon fill="#191970" stroke="#191970" points="187.2116,-137.9162 176.6555,-137.0105 184.3428,-144.3013 187.2116,-137.9162"/>
</g>
<!-- Node11 -->
<g id="node12" class="node">
<title>Node11</title>
<polygon fill="none" stroke="#bfbfbf" points="1137.5,-185 1137.5,-204 1206.5,-204 1206.5,-185 1137.5,-185"/>
<text text-anchor="middle" x="1172" y="-192" font-family="Helvetica,sans-Serif" font-size="10.00" fill="#000000">type_traits</text>
</g>
<!-- Node4&#45;&gt;Node11 -->
<g id="edge13" class="edge">
<title>Node4&#45;&gt;Node11</title>
<path fill="none" stroke="#191970" d="M817.6194,-248.4625C910.3119,-234.348 1054.5932,-212.3779 1127.1395,-201.331"/>
<polygon fill="#191970" stroke="#191970" points="1127.9487,-204.7482 1137.3079,-199.7827 1126.8949,-197.828 1127.9487,-204.7482"/>
</g>
<!-- Node12 -->
<g id="node13" class="node">
<title>Node12</title>
<g id="a_node13"><a xlink:href="../../d9/d52/Common_2MathUtils_2include_2MathUtils_2Utils_8h.html" target="_top" xlink:title="MathUtils/Utils.h">
<polygon fill="none" stroke="#000000" points="785,-185 785,-204 883,-204 883,-185 785,-185"/>
<text text-anchor="middle" x="834" y="-192" font-family="Helvetica,sans-Serif" font-size="10.00" fill="#000000">MathUtils/Utils.h</text>
</a>
</g>
</g>
<!-- Node4&#45;&gt;Node12 -->
<g id="edge14" class="edge">
<title>Node4&#45;&gt;Node12</title>
<path fill="none" stroke="#191970" d="M754.8908,-246.4639C771.5425,-235.526 794.0083,-220.769 810.7442,-209.7759"/>
<polygon fill="#191970" stroke="#191970" points="812.9425,-212.5195 819.3791,-204.1039 809.0994,-206.6688 812.9425,-212.5195"/>
</g>
<!-- Node20 -->
<g id="node21" class="node">
<title>Node20</title>
<g id="a_node21"><a xlink:href="../../dc/dcd/DataHeader_8h.html" target="_top" xlink:title="Headers/DataHeader.h">
<polygon fill="none" stroke="#000000" points="476.5,-185 476.5,-204 603.5,-204 603.5,-185 476.5,-185"/>
<text text-anchor="middle" x="540" y="-192" font-family="Helvetica,sans-Serif" font-size="10.00" fill="#000000">Headers/DataHeader.h</text>
</a>
</g>
</g>
<!-- Node4&#45;&gt;Node20 -->
<g id="edge25" class="edge">
<title>Node4&#45;&gt;Node20</title>
<path fill="none" stroke="#191970" d="M688.9115,-246.4639C655.2905,-234.7316 609.0781,-218.6054 577.0907,-207.4431"/>
<polygon fill="#191970" stroke="#191970" points="577.8339,-203.9955 567.239,-204.0053 575.5275,-210.6047 577.8339,-203.9955"/>
</g>
<!-- Node12&#45;&gt;Node5 -->
<g id="edge15" class="edge">
<title>Node12&#45;&gt;Node5</title>
<path fill="none" stroke="#191970" d="M826.9795,-184.9005C819.4839,-174.6515 807.4337,-158.1747 798.1624,-145.4976"/>
<polygon fill="#191970" stroke="#191970" points="800.7358,-143.0873 792.0075,-137.0817 795.0856,-147.2195 800.7358,-143.0873"/>
</g>
<!-- Node13 -->
<g id="node14" class="node">
<title>Node13</title>
<polygon fill="none" stroke="#bfbfbf" points="962.5,-56.5 962.5,-75.5 1009.5,-75.5 1009.5,-56.5 962.5,-56.5"/>
<text text-anchor="middle" x="986" y="-63.5" font-family="Helvetica,sans-Serif" font-size="10.00" fill="#000000">cmath</text>
</g>
<!-- Node12&#45;&gt;Node13 -->
<g id="edge16" class="edge">
<title>Node12&#45;&gt;Node13</title>
<path fill="none" stroke="#191970" d="M868.9893,-184.9617C911.6438,-172.9854 978.9578,-152.8215 986,-143 997.8854,-126.424 995.6032,-102.2545 991.8194,-85.4312"/>
<polygon fill="#191970" stroke="#191970" points="995.1628,-84.3818 989.2499,-75.5905 988.3899,-86.1504 995.1628,-84.3818"/>
</g>
<!-- Node14 -->
<g id="node15" class="node">
<title>Node14</title>
<g id="a_node15"><a xlink:href="../../df/d21/GPUCommonDef_8h.html" target="_top" xlink:title="GPUCommonDef.h">
<polygon fill="none" stroke="#000000" points="799.5,-56.5 799.5,-75.5 906.5,-75.5 906.5,-56.5 799.5,-56.5"/>
<text text-anchor="middle" x="853" y="-63.5" font-family="Helvetica,sans-Serif" font-size="10.00" fill="#000000">GPUCommonDef.h</text>
</a>
</g>
</g>
<!-- Node12&#45;&gt;Node14 -->
<g id="edge17" class="edge">
<title>Node12&#45;&gt;Node14</title>
<path fill="none" stroke="#191970" d="M835.4281,-184.8416C838.5228,-163.9114 845.9021,-114.004 850.0463,-85.9762"/>
<polygon fill="#191970" stroke="#191970" points="853.5549,-86.1749 851.5553,-75.7705 846.6302,-85.1509 853.5549,-86.1749"/>
</g>
<!-- Node17 -->
<g id="node18" class="node">
<title>Node17</title>
<g id="a_node18"><a xlink:href="../../d6/da2/GPUCommonMath_8h.html" target="_top" xlink:title="GPUCommonMath.h">
<polygon fill="none" stroke="#000000" points="862.5,-118 862.5,-137 977.5,-137 977.5,-118 862.5,-118"/>
<text text-anchor="middle" x="920" y="-125" font-family="Helvetica,sans-Serif" font-size="10.00" fill="#000000">GPUCommonMath.h</text>
</a>
</g>
</g>
<!-- Node12&#45;&gt;Node17 -->
<g id="edge20" class="edge">
<title>Node12&#45;&gt;Node17</title>
<path fill="none" stroke="#191970" d="M846.3217,-184.9005C860.2435,-174.0544 883.1176,-156.2339 899.69,-143.3229"/>
<polygon fill="#191970" stroke="#191970" points="901.9636,-145.9885 907.7012,-137.0817 897.6615,-140.4664 901.9636,-145.9885"/>
</g>
<!-- Node19 -->
<g id="node20" class="node">
<title>Node19</title>
<g id="a_node20"><a xlink:href="../../d6/d84/MathConstants_8h.html" target="_top" xlink:title="useful math constants ">
<polygon fill="none" stroke="#000000" points="1034,-118 1034,-137 1228,-137 1228,-118 1034,-118"/>
<text text-anchor="middle" x="1131" y="-125" font-family="Helvetica,sans-Serif" font-size="10.00" fill="#000000">CommonConstants/MathConstants.h</text>
</a>
</g>
</g>
<!-- Node12&#45;&gt;Node19 -->
<g id="edge24" class="edge">
<title>Node12&#45;&gt;Node19</title>
<path fill="none" stroke="#191970" d="M868.586,-184.9605C876.2761,-182.9223 884.4008,-180.833 892,-179 953.6352,-164.1331 1024.7144,-149.0816 1073.2317,-139.1227"/>
<polygon fill="#191970" stroke="#191970" points="1074.1354,-142.5104 1083.2308,-137.0768 1072.7321,-135.6525 1074.1354,-142.5104"/>
</g>
<!-- Node15 -->
<g id="node16" class="node">
<title>Node15</title>
<g id="a_node16"><a xlink:href="../../d5/d93/GPUCommonDefSettings_8h.html" target="_top" xlink:title="GPUCommonDefSettings.h">
<polygon fill="none" stroke="#000000" points="702,-.5 702,-19.5 850,-19.5 850,-.5 702,-.5"/>
<text text-anchor="middle" x="776" y="-7.5" font-family="Helvetica,sans-Serif" font-size="10.00" fill="#000000">GPUCommonDefSettings.h</text>
</a>
</g>
</g>
<!-- Node14&#45;&gt;Node15 -->
<g id="edge18" class="edge">
<title>Node14&#45;&gt;Node15</title>
<path fill="none" stroke="#191970" d="M839.5876,-56.2455C827.9943,-47.814 811.0252,-35.4729 797.5322,-25.6598"/>
<polygon fill="#191970" stroke="#191970" points="799.4047,-22.6938 789.2587,-19.6427 795.2874,-28.355 799.4047,-22.6938"/>
</g>
<!-- Node16 -->
<g id="node17" class="node">
<title>Node16</title>
<g id="a_node17"><a xlink:href="../../da/d5a/GPUCommonDefAPI_8h.html" target="_top" xlink:title="GPUCommonDefAPI.h">
<polygon fill="none" stroke="#000000" points="868,-.5 868,-19.5 992,-19.5 992,-.5 868,-.5"/>
<text text-anchor="middle" x="930" y="-7.5" font-family="Helvetica,sans-Serif" font-size="10.00" fill="#000000">GPUCommonDefAPI.h</text>
</a>
</g>
</g>
<!-- Node14&#45;&gt;Node16 -->
<g id="edge19" class="edge">
<title>Node14&#45;&gt;Node16</title>
<path fill="none" stroke="#191970" d="M866.4124,-56.2455C878.0057,-47.814 894.9748,-35.4729 908.4678,-25.6598"/>
<polygon fill="#191970" stroke="#191970" points="910.7126,-28.355 916.7413,-19.6427 906.5953,-22.6938 910.7126,-28.355"/>
</g>
<!-- Node17&#45;&gt;Node13 -->
<g id="edge22" class="edge">
<title>Node17&#45;&gt;Node13</title>
<path fill="none" stroke="#191970" d="M930.3125,-117.8906C940.4242,-108.4683 956.0442,-93.9134 968.1707,-82.6137"/>
<polygon fill="#191970" stroke="#191970" points="970.612,-85.1228 975.5421,-75.7449 965.8399,-80.0015 970.612,-85.1228"/>
</g>
<!-- Node17&#45;&gt;Node14 -->
<g id="edge21" class="edge">
<title>Node17&#45;&gt;Node14</title>
<path fill="none" stroke="#191970" d="M909.5313,-117.8906C899.2663,-108.4683 883.4097,-93.9134 871.0994,-82.6137"/>
<polygon fill="#191970" stroke="#191970" points="873.3501,-79.9287 863.6163,-75.7449 868.6166,-85.0856 873.3501,-79.9287"/>
</g>
<!-- Node18 -->
<g id="node19" class="node">
<title>Node18</title>
<polygon fill="none" stroke="#bfbfbf" points="648,-56.5 648,-75.5 712,-75.5 712,-56.5 648,-56.5"/>
<text text-anchor="middle" x="680" y="-63.5" font-family="Helvetica,sans-Serif" font-size="10.00" fill="#000000">algorithm</text>
</g>
<!-- Node17&#45;&gt;Node18 -->
<g id="edge23" class="edge">
<title>Node17&#45;&gt;Node18</title>
<path fill="none" stroke="#191970" d="M882.7633,-117.9581C839.3093,-106.823 767.6249,-88.4539 722.1611,-76.8038"/>
<polygon fill="#191970" stroke="#191970" points="722.8751,-73.3737 712.3193,-74.2818 721.1374,-80.1546 722.8751,-73.3737"/>
</g>
<!-- Node20&#45;&gt;Node7 -->
<g id="edge28" class="edge">
<title>Node20&#45;&gt;Node7</title>
<path fill="none" stroke="#191970" d="M476.4978,-187.929C348.5323,-174.6529 70.934,-145.664 61,-143 58.8096,-142.4126 56.5812,-141.7064 54.3639,-140.9235"/>
<polygon fill="#191970" stroke="#191970" points="55.4511,-137.5889 44.8662,-137.1306 52.855,-144.0897 55.4511,-137.5889"/>
</g>
<!-- Node20&#45;&gt;Node8 -->
<g id="edge26" class="edge">
<title>Node20&#45;&gt;Node8</title>
<path fill="none" stroke="#191970" d="M476.1981,-185.8418C459.238,-183.5766 440.9293,-181.164 424,-179 292.9822,-162.2529 256.1357,-178.8141 129,-143 127.0331,-142.4459 125.0354,-141.7935 123.0444,-141.0754"/>
<polygon fill="#191970" stroke="#191970" points="123.8975,-137.6425 113.3172,-137.0877 121.2422,-144.1193 123.8975,-137.6425"/>
</g>
<!-- Node20&#45;&gt;Node10 -->
<g id="edge32" class="edge">
<title>Node20&#45;&gt;Node10</title>
<path fill="none" stroke="#191970" d="M494.72,-184.9918C484.0155,-182.8857 472.6243,-180.7594 462,-179 342.1301,-159.149 307.1524,-178.6577 191,-143 189.339,-142.4901 187.6584,-141.898 185.9836,-141.2488"/>
<polygon fill="#191970" stroke="#191970" points="187.1924,-137.9557 176.6338,-137.0799 184.3417,-144.3489 187.1924,-137.9557"/>
</g>
<!-- Node20&#45;&gt;Node18 -->
<g id="edge30" class="edge">
<title>Node20&#45;&gt;Node18</title>
<path fill="none" stroke="#191970" d="M546.9243,-184.8524C558.846,-168.6397 584.5291,-135.409 611,-112 624.2318,-100.2987 640.6288,-89.2479 654.1181,-80.9115"/>
<polygon fill="#191970" stroke="#191970" points="656.1656,-83.7638 662.9177,-75.5993 652.5478,-77.7712 656.1656,-83.7638"/>
</g>
<!-- Node21 -->
<g id="node22" class="node">
<title>Node21</title>
<polygon fill="none" stroke="#bfbfbf" points="620,-118 620,-137 678,-137 678,-118 620,-118"/>
<text text-anchor="middle" x="649" y="-125" font-family="Helvetica,sans-Serif" font-size="10.00" fill="#000000">memory</text>
</g>
<!-- Node20&#45;&gt;Node21 -->
<g id="edge27" class="edge">
<title>Node20&#45;&gt;Node21</title>
<path fill="none" stroke="#191970" d="M555.617,-184.9005C573.6669,-173.8057 603.5896,-155.4128 624.6908,-142.4424"/>
<polygon fill="#191970" stroke="#191970" points="626.7255,-145.3001 633.4119,-137.0817 623.0598,-139.3366 626.7255,-145.3001"/>
</g>
<!-- Node22 -->
<g id="node23" class="node">
<title>Node22</title>
<polygon fill="none" stroke="#bfbfbf" points="696,-118 696,-137 746,-137 746,-118 696,-118"/>
<text text-anchor="middle" x="721" y="-125" font-family="Helvetica,sans-Serif" font-size="10.00" fill="#000000">cstring</text>
</g>
<!-- Node20&#45;&gt;Node22 -->
<g id="edge29" class="edge">
<title>Node20&#45;&gt;Node22</title>
<path fill="none" stroke="#191970" d="M569.8574,-184.9235C599.7675,-175.124 646.9831,-159.0927 687,-143 688.3918,-142.4403 689.8097,-141.8552 691.2374,-141.2539"/>
<polygon fill="#191970" stroke="#191970" points="692.8722,-144.3592 700.6338,-137.1475 690.069,-137.9449 692.8722,-144.3592"/>
</g>
<!-- Node23 -->
<g id="node24" class="node">
<title>Node23</title>
<polygon fill="none" stroke="#bfbfbf" points="200.5,-118 200.5,-137 265.5,-137 265.5,-118 200.5,-118"/>
<text text-anchor="middle" x="233" y="-125" font-family="Helvetica,sans-Serif" font-size="10.00" fill="#000000">stdexcept</text>
</g>
<!-- Node20&#45;&gt;Node23 -->
<g id="edge31" class="edge">
<title>Node20&#45;&gt;Node23</title>
<path fill="none" stroke="#191970" d="M492.1587,-184.9461C482.1938,-182.9693 471.7557,-180.9084 462,-179 378.9371,-162.7517 356.5286,-165.7274 275,-143 272.1924,-142.2173 269.3061,-141.3314 266.4245,-140.3892"/>
<polygon fill="#191970" stroke="#191970" points="267.3606,-137.0093 256.7658,-137.0375 265.0657,-143.6225 267.3606,-137.0093"/>
</g>
<!-- Node24 -->
<g id="node25" class="node">
<title>Node24</title>
<polygon fill="none" stroke="#bfbfbf" points="284,-118 284,-137 334,-137 334,-118 284,-118"/>
<text text-anchor="middle" x="309" y="-125" font-family="Helvetica,sans-Serif" font-size="10.00" fill="#000000">climits</text>
</g>
<!-- Node20&#45;&gt;Node24 -->
<g id="edge33" class="edge">
<title>Node20&#45;&gt;Node24</title>
<path fill="none" stroke="#191970" d="M494.3421,-184.9115C453.9787,-175.883 393.7929,-161.0655 343,-143 341.3612,-142.4171 339.6927,-141.7863 338.0187,-141.124"/>
<polygon fill="#191970" stroke="#191970" points="339.1123,-137.786 328.5397,-137.1007 336.3774,-144.2296 339.1123,-137.786"/>
</g>
<!-- Node25 -->
<g id="node26" class="node">
<title>Node25</title>
<g id="a_node26"><a xlink:href="../../d7/df8/Types_8h.html" target="_top" xlink:title="MemoryResources/Types.h">
<polygon fill="none" stroke="#000000" points="352,-118 352,-137 498,-137 498,-118 352,-118"/>
<text text-anchor="middle" x="425" y="-125" font-family="Helvetica,sans-Serif" font-size="10.00" fill="#000000">MemoryResources/Types.h</text>
</a>
</g>
</g>
<!-- Node20&#45;&gt;Node25 -->
<g id="edge34" class="edge">
<title>Node20&#45;&gt;Node25</title>
<path fill="none" stroke="#191970" d="M523.5233,-184.9005C504.3945,-173.7559 472.6267,-155.2477 450.3484,-142.2682"/>
<polygon fill="#191970" stroke="#191970" points="451.8486,-139.0916 441.4461,-137.0817 448.3247,-145.1399 451.8486,-139.0916"/>
</g>
<!-- Node26 -->
<g id="node27" class="node">
<title>Node26</title>
<polygon fill="none" stroke="#bfbfbf" points="516.5,-118 516.5,-137 563.5,-137 563.5,-118 516.5,-118"/>
<text text-anchor="middle" x="540" y="-125" font-family="Helvetica,sans-Serif" font-size="10.00" fill="#000000">cerrno</text>
</g>
<!-- Node20&#45;&gt;Node26 -->
<g id="edge35" class="edge">
<title>Node20&#45;&gt;Node26</title>
<path fill="none" stroke="#191970" d="M540,-184.9005C540,-175.149 540,-159.7597 540,-147.3695"/>
<polygon fill="#191970" stroke="#191970" points="543.5001,-147.0816 540,-137.0817 536.5001,-147.0817 543.5001,-147.0816"/>
</g>
<!-- Node28 -->
<g id="node29" class="node">
<title>Node28</title>
<polygon fill="none" stroke="#bfbfbf" points="1566.5,-118 1566.5,-137 1613.5,-137 1613.5,-118 1566.5,-118"/>
<text text-anchor="middle" x="1590" y="-125" font-family="Helvetica,sans-Serif" font-size="10.00" fill="#000000">vector</text>
</g>
<!-- Node27&#45;&gt;Node28 -->
<g id="edge37" class="edge">
<title>Node27&#45;&gt;Node28</title>
<path fill="none" stroke="#191970" d="M1467.4853,-179.4358C1493.1495,-169.473 1527.2472,-155.9129 1557,-143 1558.3427,-142.4172 1559.7121,-141.8133 1561.0925,-141.1967"/>
<polygon fill="#191970" stroke="#191970" points="1562.554,-144.377 1570.1932,-137.0357 1559.6433,-138.0109 1562.554,-144.377"/>
</g>
<!-- Node29 -->
<g id="node30" class="node">
<title>Node29</title>
<polygon fill="none" stroke="#bfbfbf" points="1632,-118 1632,-137 1670,-137 1670,-118 1632,-118"/>
<text text-anchor="middle" x="1651" y="-125" font-family="Helvetica,sans-Serif" font-size="10.00" fill="#000000">map</text>
</g>
<!-- Node27&#45;&gt;Node29 -->
<g id="edge38" class="edge">
<title>Node27&#45;&gt;Node29</title>
<path fill="none" stroke="#191970" d="M1502.0802,-179.4892C1539.1027,-170.8513 1584.1715,-158.5939 1623,-143 1624.0312,-142.5859 1625.0722,-142.1418 1626.1151,-141.6751"/>
<polygon fill="#191970" stroke="#191970" points="1627.9673,-144.662 1635.3429,-137.0561 1624.834,-138.4024 1627.9673,-144.662"/>
</g>
<!-- Node30 -->
<g id="node31" class="node">
<title>Node30</title>
<polygon fill="none" stroke="#bfbfbf" points="1245.5,-118 1245.5,-137 1338.5,-137 1338.5,-118 1245.5,-118"/>
<text text-anchor="middle" x="1292" y="-125" font-family="Helvetica,sans-Serif" font-size="10.00" fill="#000000">unordered_map</text>
</g>
<!-- Node27&#45;&gt;Node30 -->
<g id="edge39" class="edge">
<title>Node27&#45;&gt;Node30</title>
<path fill="none" stroke="#191970" d="M1397.4789,-179.4639C1374.4543,-168.1209 1343.0928,-152.6707 1320.5606,-141.5703"/>
<polygon fill="#191970" stroke="#191970" points="1322.0118,-138.3836 1311.4945,-137.1039 1318.9183,-144.6629 1322.0118,-138.3836"/>
</g>
<!-- Node31 -->
<g id="node32" class="node">
<title>Node31</title>
<polygon fill="none" stroke="#bfbfbf" points="1356.5,-112.5 1356.5,-142.5 1469.5,-142.5 1469.5,-112.5 1356.5,-112.5"/>
<text text-anchor="start" x="1364.5" y="-130.5" font-family="Helvetica,sans-Serif" font-size="10.00" fill="#000000">boost/property_tree</text>
<text text-anchor="middle" x="1413" y="-119.5" font-family="Helvetica,sans-Serif" font-size="10.00" fill="#000000">/ptree.hpp</text>
</g>
<!-- Node27&#45;&gt;Node31 -->
<g id="edge40" class="edge">
<title>Node27&#45;&gt;Node31</title>
<path fill="none" stroke="#191970" d="M1424.5963,-179.2967C1422.8319,-171.4156 1420.6311,-161.5857 1418.6224,-152.6135"/>
<polygon fill="#191970" stroke="#191970" points="1421.9905,-151.6369 1416.3903,-142.6432 1415.1596,-153.1663 1421.9905,-151.6369"/>
</g>
<!-- Node32 -->
<g id="node33" class="node">
<title>Node32</title>
<polygon fill="none" stroke="#bfbfbf" points="1688.5,-118 1688.5,-137 1745.5,-137 1745.5,-118 1688.5,-118"/>
<text text-anchor="middle" x="1717" y="-125" font-family="Helvetica,sans-Serif" font-size="10.00" fill="#000000">typeinfo</text>
</g>
<!-- Node27&#45;&gt;Node32 -->
<g id="edge41" class="edge">
<title>Node27&#45;&gt;Node32</title>
<path fill="none" stroke="#191970" d="M1502.2962,-180.8287C1563.9577,-169.1914 1646.5976,-152.8401 1679,-143 1681.3009,-142.3013 1683.6556,-141.5173 1686.0099,-140.6829"/>
<polygon fill="#191970" stroke="#191970" points="1687.4439,-143.8821 1695.5471,-137.0565 1684.956,-137.3392 1687.4439,-143.8821"/>
</g>
<!-- Node33 -->
<g id="node34" class="node">
<title>Node33</title>
<polygon fill="none" stroke="#bfbfbf" points="1488,-118 1488,-137 1548,-137 1548,-118 1488,-118"/>
<text text-anchor="middle" x="1518" y="-125" font-family="Helvetica,sans-Serif" font-size="10.00" fill="#000000">iostream</text>
</g>
<!-- Node27&#45;&gt;Node33 -->
<g id="edge42" class="edge">
<title>Node27&#45;&gt;Node33</title>
<path fill="none" stroke="#191970" d="M1448.4224,-179.2967C1462.8532,-168.5537 1482.1484,-154.1895 1496.7588,-143.3129"/>
<polygon fill="#191970" stroke="#191970" points="1499.2336,-145.8339 1505.165,-137.055 1495.0536,-140.219 1499.2336,-145.8339"/>
</g>
<!-- Node34&#45;&gt;Node11 -->
<g id="edge46" class="edge">
<title>Node34&#45;&gt;Node11</title>
<path fill="none" stroke="#191970" d="M1417.0834,-246.4639C1355.6694,-233.4426 1268.728,-215.0088 1216.599,-203.9561"/>
<polygon fill="#191970" stroke="#191970" points="1217.1637,-200.4981 1206.6552,-201.8478 1215.7118,-207.3459 1217.1637,-200.4981"/>
</g>
<!-- Node34&#45;&gt;Node27 -->
<g id="edge44" class="edge">
<title>Node34&#45;&gt;Node27</title>
<path fill="none" stroke="#191970" d="M1474.3851,-246.2967C1466.7137,-237.7303 1456.9804,-226.8614 1448.4128,-217.2943"/>
<polygon fill="#191970" stroke="#191970" points="1450.8396,-214.7578 1441.561,-209.6432 1445.6249,-219.4276 1450.8396,-214.7578"/>
</g>
<!-- Node34&#45;&gt;Node32 -->
<g id="edge47" class="edge">
<title>Node34&#45;&gt;Node32</title>
<path fill="none" stroke="#191970" d="M1562.1544,-248.5086C1592.228,-240.7567 1626.1294,-228.6517 1653,-210 1677.094,-193.2756 1696.2969,-164.737 1707.167,-145.9984"/>
<polygon fill="#191970" stroke="#191970" points="1710.2563,-147.6448 1712.0735,-137.207 1704.1438,-144.2334 1710.2563,-147.6448"/>
</g>
<!-- Node35 -->
<g id="node36" class="node">
<title>Node35</title>
<polygon fill="none" stroke="#bfbfbf" points="1520.5,-185 1520.5,-204 1577.5,-204 1577.5,-185 1520.5,-185"/>
<text text-anchor="middle" x="1549" y="-192" font-family="Helvetica,sans-Serif" font-size="10.00" fill="#000000">TClass.h</text>
</g>
<!-- Node34&#45;&gt;Node35 -->
<g id="edge45" class="edge">
<title>Node34&#45;&gt;Node35</title>
<path fill="none" stroke="#191970" d="M1501.8418,-246.2967C1511.2537,-235.9591 1523.7183,-222.2684 1533.4689,-211.5588"/>
<polygon fill="#191970" stroke="#191970" points="1536.1565,-213.8057 1540.3007,-204.055 1530.9804,-209.0931 1536.1565,-213.8057"/>
</g>
<!-- Node36 -->
<g id="node37" class="node">
<title>Node36</title>
<polygon fill="none" stroke="#bfbfbf" points="1596,-185 1596,-204 1644,-204 1644,-185 1596,-185"/>
<text text-anchor="middle" x="1620" y="-192" font-family="Helvetica,sans-Serif" font-size="10.00" fill="#000000">TFile.h</text>
</g>
<!-- Node34&#45;&gt;Node36 -->
<g id="edge48" class="edge">
<title>Node34&#45;&gt;Node36</title>
<path fill="none" stroke="#191970" d="M1517.6234,-246.4639C1539.8711,-235.1715 1570.1384,-219.8086 1591.9861,-208.7192"/>
<polygon fill="#191970" stroke="#191970" points="1593.7459,-211.7511 1601.0788,-204.1039 1590.5776,-205.5091 1593.7459,-211.7511"/>
</g>
</g>
</svg>
        <g id="navigator" transform="translate(0 0)" fill="#404254">
                <rect fill="#f2f5e9" fill-opacity="0.5" stroke="#606060" stroke-width=".5" x="0" y="0" width="60" height="60"/>
                <use id="zoomplus" xlink:href="#zoomPlus" x="17" y="9" onmousedown="handleZoom(evt,'in')"/>
                <use id="zoomminus" xlink:href="#zoomMin" x="42" y="9" onmousedown="handleZoom(evt,'out')"/>
                <use id="reset" xlink:href="#resetDef" x="30" y="36" onmousedown="handleReset()"/>
                <g id="arrowUp" xlink:href="#dirArrow" transform="translate(30 24)" onmousedown="handlePan(0,-1)">
                  <use xlink:href="#rim" fill="#404040">
                        <set attributeName="fill" to="#808080" begin="arrowUp.mouseover" end="arrowUp.mouseout"/>
                  </use>
                  <path fill="none" stroke="white" stroke-width="1.5" d="M0,-3.0v7 M-2.5,-0.5L0,-3.0L2.5,-0.5"/>
                </g>
                <g id="arrowRight" xlink:href="#dirArrow" transform="rotate(90) translate(36 -43)" onmousedown="handlePan(1,0)">
                  <use xlink:href="#rim" fill="#404040">
                        <set attributeName="fill" to="#808080" begin="arrowRight.mouseover" end="arrowRight.mouseout"/>
                  </use>
                  <path fill="none" stroke="white" stroke-width="1.5" d="M0,-3.0v7 M-2.5,-0.5L0,-3.0L2.5,-0.5"/>
                </g>
                <g id="arrowDown" xlink:href="#dirArrow" transform="rotate(180) translate(-30 -48)" onmousedown="handlePan(0,1)">
                  <use xlink:href="#rim" fill="#404040">
                        <set attributeName="fill" to="#808080" begin="arrowDown.mouseover" end="arrowDown.mouseout"/>
                  </use>
                  <path fill="none" stroke="white" stroke-width="1.5" d="M0,-3.0v7 M-2.5,-0.5L0,-3.0L2.5,-0.5"/>
                </g>
                <g id="arrowLeft" xlink:href="#dirArrow" transform="rotate(270) translate(-36 17)" onmousedown="handlePan(-1,0)">
                  <use xlink:href="#rim" fill="#404040">
                        <set attributeName="fill" to="#808080" begin="arrowLeft.mouseover" end="arrowLeft.mouseout"/>
                  </use>
                  <path fill="none" stroke="white" stroke-width="1.5" d="M0,-3.0v7 M-2.5,-0.5L0,-3.0L2.5,-0.5"/>
                </g>
        </g>
        <svg viewBox="0 0 15 15" width="100%" height="30px" preserveAspectRatio="xMaxYMin meet">
         <g id="arrow_out" transform="scale(0.3 0.3)">
          <a xlink:href="Detectors_2ITSMFT_2common_2simulation_2include_2ITSMFTSimulation_2DigiParams_8h__incl_org.svg" target="_base">
           <rect id="button" ry="5" rx="5" y="6" x="6" height="38" width="38"
                fill="#f2f5e9" fill-opacity="0.5" stroke="#606060" stroke-width="1.0"/>
           <path id="arrow"
             d="M 11.500037,31.436501 C 11.940474,20.09759 22.043105,11.32322 32.158766,21.979434 L 37.068811,17.246167 C 37.068811,17.246167 37.088388,32 37.088388,32 L 22.160133,31.978069 C 22.160133,31.978069 26.997745,27.140456 26.997745,27.140456 C 18.528582,18.264221 13.291696,25.230495 11.500037,31.436501 z"
             style="fill:#404040;"/>
          </a>
         </g>
        </svg>
</svg>
