<?xml version="1.0" encoding="UTF-8" standalone="no"?>
<!DOCTYPE svg PUBLIC "-//W3C//DTD SVG 1.1//EN"
 "http://www.w3.org/Graphics/SVG/1.1/DTD/svg11.dtd">
<!-- Generated by graphviz version 2.40.1 (20161225.0304)
 -->
<!-- Title: o2::itsmft::ClusterPattern Pages: 1 -->
<svg width="295pt" height="336pt"
 viewBox="0.00 0.00 295.00 336.00" xmlns="http://www.w3.org/2000/svg" xmlns:xlink="http://www.w3.org/1999/xlink">
<g id="graph0" class="graph" transform="scale(1 1) rotate(0) translate(4 332)">
<title>o2::itsmft::ClusterPattern</title>
<!-- Node1 -->
<g id="node1" class="node">
<title>Node1</title>
<polygon fill="#bfbfbf" stroke="#000000" points="25.5,-.5 25.5,-178.5 164.5,-178.5 164.5,-.5 25.5,-.5"/>
<text text-anchor="middle" x="95" y="-166.5" font-family="Helvetica,sans-Serif" font-size="10.00" fill="#000000">o2::itsmft::ClusterPattern</text>
<polyline fill="none" stroke="#000000" points="25.5,-159.5 164.5,-159.5 "/>
<text text-anchor="middle" x="95" y="-147.5" font-family="Helvetica,sans-Serif" font-size="10.00" fill="#000000"> </text>
<polyline fill="none" stroke="#000000" points="25.5,-140.5 164.5,-140.5 "/>
<text text-anchor="start" x="33.5" y="-128.5" font-family="Helvetica,sans-Serif" font-size="10.00" fill="#000000">+ ClusterPattern()</text>
<text text-anchor="start" x="33.5" y="-117.5" font-family="Helvetica,sans-Serif" font-size="10.00" fill="#000000">+ ClusterPattern()</text>
<text text-anchor="start" x="33.5" y="-106.5" font-family="Helvetica,sans-Serif" font-size="10.00" fill="#000000">+ ClusterPattern()</text>
<text text-anchor="start" x="33.5" y="-95.5" font-family="Helvetica,sans-Serif" font-size="10.00" fill="#000000">+ getPattern()</text>
<text text-anchor="start" x="33.5" y="-84.5" font-family="Helvetica,sans-Serif" font-size="10.00" fill="#000000">+ getByte()</text>
<text text-anchor="start" x="33.5" y="-73.5" font-family="Helvetica,sans-Serif" font-size="10.00" fill="#000000">+ getRowSpan()</text>
<text text-anchor="start" x="33.5" y="-62.5" font-family="Helvetica,sans-Serif" font-size="10.00" fill="#000000">+ getColumnSpan()</text>
<text text-anchor="start" x="33.5" y="-51.5" font-family="Helvetica,sans-Serif" font-size="10.00" fill="#000000">+ getUsedBytes()</text>
<text text-anchor="start" x="33.5" y="-40.5" font-family="Helvetica,sans-Serif" font-size="10.00" fill="#000000">+ setPattern()</text>
<text text-anchor="start" x="33.5" y="-29.5" font-family="Helvetica,sans-Serif" font-size="10.00" fill="#000000">+ setPattern()</text>
<text text-anchor="start" x="33.5" y="-18.5" font-family="Helvetica,sans-Serif" font-size="10.00" fill="#000000">+ getCOG()</text>
<text text-anchor="start" x="33.5" y="-7.5" font-family="Helvetica,sans-Serif" font-size="10.00" fill="#000000">+ getCOG()</text>
</g>
<!-- Node2 -->
<g id="node2" class="node">
<title>Node2</title>
<polygon fill="none" stroke="#bfbfbf" points="0,-270.5 0,-327.5 44,-327.5 44,-270.5 0,-270.5"/>
<text text-anchor="middle" x="22" y="-315.5" font-family="Helvetica,sans-Serif" font-size="10.00" fill="#000000">static</text>
<polyline fill="none" stroke="#bfbfbf" points="0,-308.5 44,-308.5 "/>
<text text-anchor="middle" x="22" y="-296.5" font-family="Helvetica,sans-Serif" font-size="10.00" fill="#000000"> </text>
<polyline fill="none" stroke="#bfbfbf" points="0,-289.5 44,-289.5 "/>
<text text-anchor="middle" x="22" y="-277.5" font-family="Helvetica,sans-Serif" font-size="10.00" fill="#000000"> </text>
</g>
<!-- Node2&#45;&gt;Node1 -->
<g id="edge1" class="edge">
<title>Node2&#45;&gt;Node1</title>
<path fill="none" stroke="#404040" d="M17.9572,-270.1844C16.0675,-249.3748 15.6215,-220.8549 23,-197 23.7094,-194.7065 24.485,-192.4172 25.3202,-190.1356"/>
<polygon fill="none" stroke="#404040" points="25.411,-189.9139 23.9842,-182.8453 29.9603,-178.8096 31.387,-185.8782 25.411,-189.9139"/>
<text text-anchor="middle" x="84.5" y="-244" font-family="Helvetica,sans-Serif" font-size="10.00" fill="#000000"> +SpanMask</text>
<text text-anchor="middle" x="84.5" y="-233" font-family="Helvetica,sans-Serif" font-size="10.00" fill="#000000">+MaxPatternBytes</text>
<text text-anchor="middle" x="84.5" y="-222" font-family="Helvetica,sans-Serif" font-size="10.00" fill="#000000">+MaxPatternBits</text>
<text text-anchor="middle" x="84.5" y="-211" font-family="Helvetica,sans-Serif" font-size="10.00" fill="#000000">+TruncateMask</text>
<text text-anchor="middle" x="84.5" y="-200" font-family="Helvetica,sans-Serif" font-size="10.00" fill="#000000">+kExtendedPatternBytes</text>
</g>
<!-- Node3 -->
<g id="node3" class="node">
<title>Node3</title>
<polygon fill="none" stroke="#bfbfbf" points="145.5,-270.5 145.5,-327.5 190.5,-327.5 190.5,-270.5 145.5,-270.5"/>
<text text-anchor="middle" x="168" y="-315.5" font-family="Helvetica,sans-Serif" font-size="10.00" fill="#000000">friend</text>
<polyline fill="none" stroke="#bfbfbf" points="145.5,-308.5 190.5,-308.5 "/>
<text text-anchor="middle" x="168" y="-296.5" font-family="Helvetica,sans-Serif" font-size="10.00" fill="#000000"> </text>
<polyline fill="none" stroke="#bfbfbf" points="145.5,-289.5 190.5,-289.5 "/>
<text text-anchor="middle" x="168" y="-277.5" font-family="Helvetica,sans-Serif" font-size="10.00" fill="#000000"> </text>
</g>
<!-- Node3&#45;&gt;Node1 -->
<g id="edge2" class="edge">
<title>Node3&#45;&gt;Node1</title>
<path fill="none" stroke="#404040" d="M163.6472,-270.3834C160.0604,-249.6702 154.2215,-221.1836 146,-197 145.1949,-194.6317 144.3518,-192.2469 143.4762,-189.8525"/>
<polygon fill="none" stroke="#404040" points="143.4586,-189.8065 137.5751,-185.637 139.161,-178.6024 145.0445,-182.7719 143.4586,-189.8065"/>
<text text-anchor="middle" x="223.5" y="-233" font-family="Helvetica,sans-Serif" font-size="10.00" fill="#000000"> +TopologyDictionary</text>
<text text-anchor="middle" x="223.5" y="-222" font-family="Helvetica,sans-Serif" font-size="10.00" fill="#000000">+ClusterTopology</text>
<text text-anchor="middle" x="223.5" y="-211" font-family="Helvetica,sans-Serif" font-size="10.00" fill="#000000">+BuildTopologyDictionary</text>
</g>
</g>
</svg>
