<?xml version="1.0" encoding="UTF-8" standalone="no"?>
<!DOCTYPE svg PUBLIC "-//W3C//DTD SVG 1.1//EN"
 "http://www.w3.org/Graphics/SVG/1.1/DTD/svg11.dtd">
<!-- Generated by graphviz version 2.40.1 (20161225.0304)
 -->
<!-- Title: o2::ctf::Registry Pages: 1 -->
<svg width="247pt" height="215pt"
 viewBox="0.00 0.00 247.00 215.00" xmlns="http://www.w3.org/2000/svg" xmlns:xlink="http://www.w3.org/1999/xlink">
<g id="graph0" class="graph" transform="scale(1 1) rotate(0) translate(4 211)">
<title>o2::ctf::Registry</title>
<!-- Node1 -->
<g id="node1" class="node">
<title>Node1</title>
<polygon fill="#bfbfbf" stroke="#000000" points="18,-.5 18,-90.5 140,-90.5 140,-.5 18,-.5"/>
<text text-anchor="middle" x="79" y="-78.5" font-family="Helvetica,sans-Serif" font-size="10.00" fill="#000000">o2::ctf::Registry</text>
<polyline fill="none" stroke="#000000" points="18,-71.5 140,-71.5 "/>
<text text-anchor="middle" x="79" y="-59.5" font-family="Helvetica,sans-Serif" font-size="10.00" fill="#000000"> </text>
<polyline fill="none" stroke="#000000" points="18,-52.5 140,-52.5 "/>
<text text-anchor="start" x="26" y="-40.5" font-family="Helvetica,sans-Serif" font-size="10.00" fill="#000000">+ getFreeBlockStart()</text>
<text text-anchor="start" x="26" y="-29.5" font-family="Helvetica,sans-Serif" font-size="10.00" fill="#000000">+ shrinkFreeBlock()</text>
<text text-anchor="start" x="26" y="-18.5" font-family="Helvetica,sans-Serif" font-size="10.00" fill="#000000">+ getFreeSize()</text>
<text text-anchor="start" x="26" y="-7.5" font-family="Helvetica,sans-Serif" font-size="10.00" fill="#000000">+ ClassDefNV()</text>
</g>
<!-- Node2 -->
<g id="node2" class="node">
<title>Node2</title>
<polygon fill="none" stroke="#bfbfbf" points="0,-149.5 0,-206.5 38,-206.5 38,-149.5 0,-149.5"/>
<text text-anchor="middle" x="19" y="-194.5" font-family="Helvetica,sans-Serif" font-size="10.00" fill="#000000">char</text>
<polyline fill="none" stroke="#bfbfbf" points="0,-187.5 38,-187.5 "/>
<text text-anchor="middle" x="19" y="-175.5" font-family="Helvetica,sans-Serif" font-size="10.00" fill="#000000"> </text>
<polyline fill="none" stroke="#bfbfbf" points="0,-168.5 38,-168.5 "/>
<text text-anchor="middle" x="19" y="-156.5" font-family="Helvetica,sans-Serif" font-size="10.00" fill="#000000"> </text>
</g>
<!-- Node2&#45;&gt;Node1 -->
<g id="edge1" class="edge">
<title>Node2&#45;&gt;Node1</title>
<path fill="none" stroke="#404040" d="M25.3447,-149.498C28.6524,-136.807 33.2258,-121.8565 39,-109 40.106,-106.5375 41.295,-104.0576 42.5462,-101.5793"/>
<polygon fill="none" stroke="#404040" points="42.6725,-101.3452 41.999,-94.1655 48.3673,-90.7825 49.0408,-97.9621 42.6725,-101.3452"/>
<text text-anchor="middle" x="57" y="-117.5" font-family="Helvetica,sans-Serif" font-size="10.00" fill="#000000"> +head</text>
</g>
<!-- Node3 -->
<g id="node3" class="node">
<title>Node3</title>
<polygon fill="none" stroke="#bfbfbf" points="56.5,-149.5 56.5,-206.5 101.5,-206.5 101.5,-149.5 56.5,-149.5"/>
<text text-anchor="middle" x="79" y="-194.5" font-family="Helvetica,sans-Serif" font-size="10.00" fill="#000000">size_t</text>
<polyline fill="none" stroke="#bfbfbf" points="56.5,-187.5 101.5,-187.5 "/>
<text text-anchor="middle" x="79" y="-175.5" font-family="Helvetica,sans-Serif" font-size="10.00" fill="#000000"> </text>
<polyline fill="none" stroke="#bfbfbf" points="56.5,-168.5 101.5,-168.5 "/>
<text text-anchor="middle" x="79" y="-156.5" font-family="Helvetica,sans-Serif" font-size="10.00" fill="#000000"> </text>
</g>
<!-- Node3&#45;&gt;Node1 -->
<g id="edge2" class="edge">
<title>Node3&#45;&gt;Node1</title>
<path fill="none" stroke="#404040" d="M79,-149.2495C79,-135.6028 79,-118.791 79,-102.7042"/>
<polygon fill="none" stroke="#404040" points="79.0001,-102.6084 75,-96.6084 79,-90.6084 83,-96.6083 79.0001,-102.6084"/>
<text text-anchor="middle" x="115.5" y="-123" font-family="Helvetica,sans-Serif" font-size="10.00" fill="#000000"> +offsFreeStart</text>
<text text-anchor="middle" x="115.5" y="-112" font-family="Helvetica,sans-Serif" font-size="10.00" fill="#000000">+size</text>
</g>
<!-- Node4 -->
<g id="node4" class="node">
<title>Node4</title>
<polygon fill="none" stroke="#bfbfbf" points="160.5,-149.5 160.5,-206.5 189.5,-206.5 189.5,-149.5 160.5,-149.5"/>
<text text-anchor="middle" x="175" y="-194.5" font-family="Helvetica,sans-Serif" font-size="10.00" fill="#000000">int</text>
<polyline fill="none" stroke="#bfbfbf" points="160.5,-187.5 189.5,-187.5 "/>
<text text-anchor="middle" x="175" y="-175.5" font-family="Helvetica,sans-Serif" font-size="10.00" fill="#000000"> </text>
<polyline fill="none" stroke="#bfbfbf" points="160.5,-168.5 189.5,-168.5 "/>
<text text-anchor="middle" x="175" y="-156.5" font-family="Helvetica,sans-Serif" font-size="10.00" fill="#000000"> </text>
</g>
<!-- Node4&#45;&gt;Node1 -->
<g id="edge3" class="edge">
<title>Node4&#45;&gt;Node1</title>
<path fill="none" stroke="#404040" d="M169.5979,-149.2322C166.2367,-136.2021 160.986,-121.0539 153,-109 150.962,-105.9239 148.7346,-102.9113 146.3648,-99.9736"/>
<polygon fill="none" stroke="#404040" points="146.2836,-99.8811 139.3197,-98.0091 138.3694,-90.8608 145.3333,-92.7329 146.2836,-99.8811"/>
<text text-anchor="middle" x="201" y="-117.5" font-family="Helvetica,sans-Serif" font-size="10.00" fill="#000000"> +nFilledBlocks</text>
</g>
</g>
</svg>
