<?xml version="1.0" encoding="UTF-8" standalone="no"?>
<!DOCTYPE svg PUBLIC "-//W3C//DTD SVG 1.1//EN"
 "http://www.w3.org/Graphics/SVG/1.1/DTD/svg11.dtd">
<!-- Generated by graphviz version 2.40.1 (20161225.0304)
 -->
<!-- Title: /home/travis/build/AliceO2Group/AliceO2/Detectors/MUON/MCH/Simulation/include/MCHSimulation/Response.h Pages: 1 -->
<svg width="2288pt" height="430pt"
 viewBox="0.00 0.00 2288.45 430.00" xmlns="http://www.w3.org/2000/svg" xmlns:xlink="http://www.w3.org/1999/xlink">
<g id="graph0" class="graph" transform="scale(1 1) rotate(0) translate(4 426)">
<title>/home/travis/build/AliceO2Group/AliceO2/Detectors/MUON/MCH/Simulation/include/MCHSimulation/Response.h</title>
<!-- Node0 -->
<g id="node1" class="node">
<title>Node0</title>
<polygon fill="#bfbfbf" stroke="#000000" points="951.5,-369.5 951.5,-421.5 1142.5,-421.5 1142.5,-369.5 951.5,-369.5"/>
<text text-anchor="start" x="959.5" y="-409.5" font-family="Helvetica,sans-Serif" font-size="10.00" fill="#000000">/home/travis/build</text>
<text text-anchor="start" x="959.5" y="-398.5" font-family="Helvetica,sans-Serif" font-size="10.00" fill="#000000">/AliceO2Group/AliceO2</text>
<text text-anchor="start" x="959.5" y="-387.5" font-family="Helvetica,sans-Serif" font-size="10.00" fill="#000000">/Detectors/MUON/MCH/Simulation</text>
<text text-anchor="middle" x="1047" y="-376.5" font-family="Helvetica,sans-Serif" font-size="10.00" fill="#000000">/include/MCHSimulation/Response.h</text>
</g>
<!-- Node1 -->
<g id="node2" class="node">
<title>Node1</title>
<g id="a_node2"><a xlink:href="../../d8/d72/Detectors_2MUON_2MCH_2Base_2include_2MCHBase_2Digit_8h.html" target="_top" xlink:title="MCHBase/Digit.h">
<polygon fill="none" stroke="#000000" points="1685,-313.5 1685,-332.5 1783,-332.5 1783,-313.5 1685,-313.5"/>
<text text-anchor="middle" x="1734" y="-320.5" font-family="Helvetica,sans-Serif" font-size="10.00" fill="#000000">MCHBase/Digit.h</text>
</a>
</g>
</g>
<!-- Node0&#45;&gt;Node1 -->
<g id="edge1" class="edge">
<title>Node0&#45;&gt;Node1</title>
<path fill="none" stroke="#191970" d="M1142.5244,-385.4192C1286.7191,-370.2021 1555.7458,-341.8114 1674.7568,-329.252"/>
<polygon fill="#191970" stroke="#191970" points="1675.1962,-332.7252 1684.7737,-328.1949 1674.4615,-325.7638 1675.1962,-332.7252"/>
</g>
<!-- Node3 -->
<g id="node4" class="node">
<title>Node3</title>
<g id="a_node4"><a xlink:href="../../dc/dab/MUON_2MCH_2Simulation_2include_2MCHSimulation_2Detector_8h.html" target="_top" xlink:title="MCHSimulation/Detector.h">
<polygon fill="none" stroke="#000000" points="974.5,-313.5 974.5,-332.5 1119.5,-332.5 1119.5,-313.5 974.5,-313.5"/>
<text text-anchor="middle" x="1047" y="-320.5" font-family="Helvetica,sans-Serif" font-size="10.00" fill="#000000">MCHSimulation/Detector.h</text>
</a>
</g>
</g>
<!-- Node0&#45;&gt;Node3 -->
<g id="edge3" class="edge">
<title>Node0&#45;&gt;Node3</title>
<path fill="none" stroke="#191970" d="M1047,-369.3258C1047,-360.5142 1047,-350.8397 1047,-342.621"/>
<polygon fill="#191970" stroke="#191970" points="1050.5001,-342.534 1047,-332.534 1043.5001,-342.534 1050.5001,-342.534"/>
</g>
<!-- Node28 -->
<g id="node29" class="node">
<title>Node28</title>
<g id="a_node29"><a xlink:href="../../d5/daf/Detectors_2MUON_2MCH_2Simulation_2include_2MCHSimulation_2Hit_8h.html" target="_top" xlink:title="MCHSimulation/Hit.h">
<polygon fill="none" stroke="#000000" points="845,-257.5 845,-276.5 963,-276.5 963,-257.5 845,-257.5"/>
<text text-anchor="middle" x="904" y="-264.5" font-family="Helvetica,sans-Serif" font-size="10.00" fill="#000000">MCHSimulation/Hit.h</text>
</a>
</g>
</g>
<!-- Node0&#45;&gt;Node28 -->
<g id="edge51" class="edge">
<title>Node0&#45;&gt;Node28</title>
<path fill="none" stroke="#191970" d="M1009.9915,-369.4211C995.5084,-358.6755 979.0371,-345.7658 965,-333 948.1759,-317.6995 930.7361,-298.4278 918.8352,-284.6663"/>
<polygon fill="#191970" stroke="#191970" points="921.3526,-282.2246 912.196,-276.8947 916.0303,-286.7714 921.3526,-282.2246"/>
</g>
<!-- Node2 -->
<g id="node3" class="node">
<title>Node2</title>
<polygon fill="none" stroke="#bfbfbf" points="1855.5,-73 1855.5,-92 1914.5,-92 1914.5,-73 1855.5,-73"/>
<text text-anchor="middle" x="1885" y="-80" font-family="Helvetica,sans-Serif" font-size="10.00" fill="#000000">Rtypes.h</text>
</g>
<!-- Node1&#45;&gt;Node2 -->
<g id="edge2" class="edge">
<title>Node1&#45;&gt;Node2</title>
<path fill="none" stroke="#191970" d="M1783.2109,-321.3962C1904.3653,-316.3093 2211.7486,-296.1108 2274,-221 2282.7919,-210.392 2282.3446,-200.9634 2274,-190 2231.2925,-133.8895 2015.2659,-99.5573 1924.8667,-87.444"/>
<polygon fill="#191970" stroke="#191970" points="1925.1098,-83.9459 1914.7383,-86.1097 1924.1955,-90.8859 1925.1098,-83.9459"/>
</g>
<!-- Node4 -->
<g id="node5" class="node">
<title>Node4</title>
<g id="a_node5"><a xlink:href="../../d1/d3a/Base_2include_2DetectorsBase_2Detector_8h.html" target="_top" xlink:title="DetectorsBase/Detector.h">
<polygon fill="none" stroke="#000000" points="1405.5,-257.5 1405.5,-276.5 1546.5,-276.5 1546.5,-257.5 1405.5,-257.5"/>
<text text-anchor="middle" x="1476" y="-264.5" font-family="Helvetica,sans-Serif" font-size="10.00" fill="#000000">DetectorsBase/Detector.h</text>
</a>
</g>
</g>
<!-- Node3&#45;&gt;Node4 -->
<g id="edge4" class="edge">
<title>Node3&#45;&gt;Node4</title>
<path fill="none" stroke="#191970" d="M1119.774,-313.5004C1196.2285,-303.5203 1316.1637,-287.8644 1395.4273,-277.5176"/>
<polygon fill="#191970" stroke="#191970" points="1395.905,-280.9851 1405.3678,-276.2201 1394.9989,-274.044 1395.905,-280.9851"/>
</g>
<!-- Node6 -->
<g id="node7" class="node">
<title>Node6</title>
<polygon fill="none" stroke="#bfbfbf" points="1050.5,-196 1050.5,-215 1097.5,-215 1097.5,-196 1050.5,-196"/>
<text text-anchor="middle" x="1074" y="-203" font-family="Helvetica,sans-Serif" font-size="10.00" fill="#000000">vector</text>
</g>
<!-- Node3&#45;&gt;Node6 -->
<g id="edge49" class="edge">
<title>Node3&#45;&gt;Node6</title>
<path fill="none" stroke="#191970" d="M1049.2095,-313.3845C1053.6199,-294.1913 1063.5938,-250.786 1069.458,-225.2663"/>
<polygon fill="#191970" stroke="#191970" points="1072.9315,-225.7782 1071.7599,-215.2484 1066.1093,-224.2105 1072.9315,-225.7782"/>
</g>
<!-- Node8 -->
<g id="node9" class="node">
<title>Node8</title>
<polygon fill="none" stroke="#bfbfbf" points="974,-196 974,-215 1032,-215 1032,-196 974,-196"/>
<text text-anchor="middle" x="1003" y="-203" font-family="Helvetica,sans-Serif" font-size="10.00" fill="#000000">memory</text>
</g>
<!-- Node3&#45;&gt;Node8 -->
<g id="edge50" class="edge">
<title>Node3&#45;&gt;Node8</title>
<path fill="none" stroke="#191970" d="M1043.3993,-313.3845C1036.1798,-294.1053 1019.8122,-250.3963 1010.2737,-224.9241"/>
<polygon fill="#191970" stroke="#191970" points="1013.4351,-223.3859 1006.6505,-215.2484 1006.8797,-225.8407 1013.4351,-223.3859"/>
</g>
<!-- Node3&#45;&gt;Node28 -->
<g id="edge34" class="edge">
<title>Node3&#45;&gt;Node28</title>
<path fill="none" stroke="#191970" d="M1022.4174,-313.3733C999.0504,-304.2226 963.7138,-290.3844 937.7216,-280.2057"/>
<polygon fill="#191970" stroke="#191970" points="938.8495,-276.8886 928.2618,-276.5011 936.297,-283.4066 938.8495,-276.8886"/>
</g>
<!-- Node4&#45;&gt;Node2 -->
<g id="edge17" class="edge">
<title>Node4&#45;&gt;Node2</title>
<path fill="none" stroke="#191970" d="M1546.648,-265.6486C1677.4585,-262.4103 1946.7128,-252.0148 1975,-221 2011.4055,-181.0841 1945.4851,-124.909 1908.1303,-98.0235"/>
<polygon fill="#191970" stroke="#191970" points="1909.9589,-95.0308 1899.7645,-92.1456 1905.9346,-100.7584 1909.9589,-95.0308"/>
</g>
<!-- Node5 -->
<g id="node6" class="node">
<title>Node5</title>
<polygon fill="none" stroke="#bfbfbf" points="1881,-134.5 1881,-153.5 1919,-153.5 1919,-134.5 1881,-134.5"/>
<text text-anchor="middle" x="1900" y="-141.5" font-family="Helvetica,sans-Serif" font-size="10.00" fill="#000000">map</text>
</g>
<!-- Node4&#45;&gt;Node5 -->
<g id="edge5" class="edge">
<title>Node4&#45;&gt;Node5</title>
<path fill="none" stroke="#191970" d="M1546.8667,-265.4074C1674.3838,-261.8038 1931.8346,-250.8755 1959,-221 1968.269,-210.8063 1965.046,-202.3803 1959,-190 1952.4597,-176.6075 1939.9283,-165.9788 1928.0909,-158.327"/>
<polygon fill="#191970" stroke="#191970" points="1929.6633,-155.1893 1919.2847,-153.0595 1926.0699,-161.1966 1929.6633,-155.1893"/>
</g>
<!-- Node4&#45;&gt;Node6 -->
<g id="edge6" class="edge">
<title>Node4&#45;&gt;Node6</title>
<path fill="none" stroke="#191970" d="M1405.3099,-264.7749C1330.0421,-260.8931 1208.0863,-250.2394 1107,-221 1105.0847,-220.446 1103.1411,-219.7936 1101.2051,-219.0755"/>
<polygon fill="#191970" stroke="#191970" points="1102.3299,-215.7513 1091.7558,-215.088 1099.6083,-222.2006 1102.3299,-215.7513"/>
</g>
<!-- Node7 -->
<g id="node8" class="node">
<title>Node7</title>
<polygon fill="none" stroke="#bfbfbf" points="1521.5,-134.5 1521.5,-153.5 1604.5,-153.5 1604.5,-134.5 1521.5,-134.5"/>
<text text-anchor="middle" x="1563" y="-141.5" font-family="Helvetica,sans-Serif" font-size="10.00" fill="#000000">initializer_list</text>
</g>
<!-- Node4&#45;&gt;Node7 -->
<g id="edge7" class="edge">
<title>Node4&#45;&gt;Node7</title>
<path fill="none" stroke="#191970" d="M1482.8267,-257.3484C1497.3748,-236.7804 1531.6237,-188.3596 1550.3044,-161.9489"/>
<polygon fill="#191970" stroke="#191970" points="1553.2877,-163.7921 1556.205,-153.6068 1547.5728,-159.7498 1553.2877,-163.7921"/>
</g>
<!-- Node4&#45;&gt;Node8 -->
<g id="edge8" class="edge">
<title>Node4&#45;&gt;Node8</title>
<path fill="none" stroke="#191970" d="M1405.3858,-261.8653C1300.5835,-253.8451 1109.0337,-237.5425 1042,-221 1039.2147,-220.3126 1036.3636,-219.47 1033.5328,-218.5362"/>
<polygon fill="#191970" stroke="#191970" points="1034.7057,-215.2386 1024.1118,-215.1029 1032.3089,-221.8154 1034.7057,-215.2386"/>
</g>
<!-- Node9 -->
<g id="node10" class="node">
<title>Node9</title>
<polygon fill="none" stroke="#bfbfbf" points="1742,-196 1742,-215 1826,-215 1826,-196 1742,-196"/>
<text text-anchor="middle" x="1784" y="-203" font-family="Helvetica,sans-Serif" font-size="10.00" fill="#000000">FairDetector.h</text>
</g>
<!-- Node4&#45;&gt;Node9 -->
<g id="edge9" class="edge">
<title>Node4&#45;&gt;Node9</title>
<path fill="none" stroke="#191970" d="M1541.3993,-257.4764C1593.6046,-249.3513 1668.4377,-236.5316 1733,-221 1736.8871,-220.0649 1740.9148,-219.0039 1744.9248,-217.8863"/>
<polygon fill="#191970" stroke="#191970" points="1746.1379,-221.1787 1754.7664,-215.0305 1744.1871,-214.456 1746.1379,-221.1787"/>
</g>
<!-- Node10 -->
<g id="node11" class="node">
<title>Node10</title>
<polygon fill="none" stroke="#bfbfbf" points="1844,-196 1844,-215 1950,-215 1950,-196 1844,-196"/>
<text text-anchor="middle" x="1897" y="-203" font-family="Helvetica,sans-Serif" font-size="10.00" fill="#000000">FairRootManager.h</text>
</g>
<!-- Node4&#45;&gt;Node10 -->
<g id="edge10" class="edge">
<title>Node4&#45;&gt;Node10</title>
<path fill="none" stroke="#191970" d="M1546.5496,-260.4351C1619.2211,-253.0947 1735.583,-239.7293 1835,-221 1840.4517,-219.9729 1846.1389,-218.7558 1851.7617,-217.462"/>
<polygon fill="#191970" stroke="#191970" points="1852.8361,-220.8039 1861.7484,-215.0749 1851.2087,-213.9957 1852.8361,-220.8039"/>
</g>
<!-- Node11 -->
<g id="node12" class="node">
<title>Node11</title>
<g id="a_node12"><a xlink:href="../../d0/d9a/MaterialManager_8h.html" target="_top" xlink:title="DetectorsBase/MaterialManager.h">
<polygon fill="none" stroke="#000000" points="1542.5,-196 1542.5,-215 1723.5,-215 1723.5,-196 1542.5,-196"/>
<text text-anchor="middle" x="1633" y="-203" font-family="Helvetica,sans-Serif" font-size="10.00" fill="#000000">DetectorsBase/MaterialManager.h</text>
</a>
</g>
</g>
<!-- Node4&#45;&gt;Node11 -->
<g id="edge11" class="edge">
<title>Node4&#45;&gt;Node11</title>
<path fill="none" stroke="#191970" d="M1500.5313,-257.3906C1527.0307,-247.0103 1569.4331,-230.4004 1599.107,-218.7766"/>
<polygon fill="#191970" stroke="#191970" points="1600.6065,-221.9482 1608.641,-215.0419 1598.0533,-215.4304 1600.6065,-221.9482"/>
</g>
<!-- Node14 -->
<g id="node15" class="node">
<title>Node14</title>
<polygon fill="none" stroke="#bfbfbf" points="2044,-196 2044,-215 2102,-215 2102,-196 2044,-196"/>
<text text-anchor="middle" x="2073" y="-203" font-family="Helvetica,sans-Serif" font-size="10.00" fill="#000000">cxxabi.h</text>
</g>
<!-- Node4&#45;&gt;Node14 -->
<g id="edge18" class="edge">
<title>Node4&#45;&gt;Node14</title>
<path fill="none" stroke="#191970" d="M1546.5873,-263.4556C1674.4963,-256.648 1939.7061,-240.6617 2030,-221 2033.4383,-220.2513 2036.9757,-219.2969 2040.4746,-218.2305"/>
<polygon fill="#191970" stroke="#191970" points="2041.7448,-221.4964 2050.1194,-215.0066 2039.5256,-214.8574 2041.7448,-221.4964"/>
</g>
<!-- Node15 -->
<g id="node16" class="node">
<title>Node15</title>
<polygon fill="none" stroke="#bfbfbf" points="2120.5,-196 2120.5,-215 2177.5,-215 2177.5,-196 2120.5,-196"/>
<text text-anchor="middle" x="2149" y="-203" font-family="Helvetica,sans-Serif" font-size="10.00" fill="#000000">typeinfo</text>
</g>
<!-- Node4&#45;&gt;Node15 -->
<g id="edge19" class="edge">
<title>Node4&#45;&gt;Node15</title>
<path fill="none" stroke="#191970" d="M1546.6402,-264.6799C1688.9305,-259.548 2005.4591,-245.6899 2111,-221 2113.7967,-220.3457 2116.6549,-219.5132 2119.4859,-218.5747"/>
<polygon fill="#191970" stroke="#191970" points="2120.725,-221.8482 2128.8772,-215.0811 2118.2843,-215.2874 2120.725,-221.8482"/>
</g>
<!-- Node16 -->
<g id="node17" class="node">
<title>Node16</title>
<polygon fill="none" stroke="#bfbfbf" points="2195.5,-196 2195.5,-215 2264.5,-215 2264.5,-196 2195.5,-196"/>
<text text-anchor="middle" x="2230" y="-203" font-family="Helvetica,sans-Serif" font-size="10.00" fill="#000000">type_traits</text>
</g>
<!-- Node4&#45;&gt;Node16 -->
<g id="edge20" class="edge">
<title>Node4&#45;&gt;Node16</title>
<path fill="none" stroke="#191970" d="M1546.6683,-264.9518C1701.4306,-260.0557 2066.1288,-246.1679 2187,-221 2190.445,-220.2827 2193.9867,-219.3488 2197.4883,-218.2949"/>
<polygon fill="#191970" stroke="#191970" points="2198.7515,-221.5634 2207.1366,-215.0871 2196.543,-214.9209 2198.7515,-221.5634"/>
</g>
<!-- Node17 -->
<g id="node18" class="node">
<title>Node17</title>
<polygon fill="none" stroke="#bfbfbf" points="1116,-196 1116,-215 1160,-215 1160,-196 1116,-196"/>
<text text-anchor="middle" x="1138" y="-203" font-family="Helvetica,sans-Serif" font-size="10.00" fill="#000000">string</text>
</g>
<!-- Node4&#45;&gt;Node17 -->
<g id="edge21" class="edge">
<title>Node4&#45;&gt;Node17</title>
<path fill="none" stroke="#191970" d="M1405.3903,-262.749C1342.2327,-257.4691 1247.7505,-245.8955 1169,-221 1167.3433,-220.4763 1165.666,-219.8735 1163.9938,-219.2162"/>
<polygon fill="#191970" stroke="#191970" points="1165.2074,-215.9246 1154.6508,-215.0254 1162.3425,-222.3116 1165.2074,-215.9246"/>
</g>
<!-- Node18 -->
<g id="node19" class="node">
<title>Node18</title>
<polygon fill="none" stroke="#bfbfbf" points="1178,-196 1178,-215 1252,-215 1252,-196 1178,-196"/>
<text text-anchor="middle" x="1215" y="-203" font-family="Helvetica,sans-Serif" font-size="10.00" fill="#000000">TMessage.h</text>
</g>
<!-- Node4&#45;&gt;Node18 -->
<g id="edge22" class="edge">
<title>Node4&#45;&gt;Node18</title>
<path fill="none" stroke="#191970" d="M1423.4623,-257.4995C1379.6816,-249.1678 1315.8464,-236.0548 1261,-221 1257.8306,-220.13 1254.5593,-219.1654 1251.2906,-218.1551"/>
<polygon fill="#191970" stroke="#191970" points="1252.1888,-214.7675 1241.5974,-215.0365 1250.0449,-221.4311 1252.1888,-214.7675"/>
</g>
<!-- Node19 -->
<g id="node20" class="node">
<title>Node19</title>
<g id="a_node20"><a xlink:href="../../de/d61/ShmManager_8h.html" target="_top" xlink:title="CommonUtils/ShmManager.h">
<polygon fill="none" stroke="#000000" points="1345,-134.5 1345,-153.5 1503,-153.5 1503,-134.5 1345,-134.5"/>
<text text-anchor="middle" x="1424" y="-141.5" font-family="Helvetica,sans-Serif" font-size="10.00" fill="#000000">CommonUtils/ShmManager.h</text>
</a>
</g>
</g>
<!-- Node4&#45;&gt;Node19 -->
<g id="edge23" class="edge">
<title>Node4&#45;&gt;Node19</title>
<path fill="none" stroke="#191970" d="M1473.7741,-257.2392C1470.198,-242.3439 1462.4953,-213.2228 1452,-190 1447.6918,-180.4674 1441.8007,-170.4802 1436.5334,-162.2568"/>
<polygon fill="#191970" stroke="#191970" points="1439.4036,-160.2517 1430.9691,-153.84 1433.5642,-164.1121 1439.4036,-160.2517"/>
</g>
<!-- Node24 -->
<g id="node25" class="node">
<title>Node24</title>
<g id="a_node25"><a xlink:href="../../d0/d91/ShmAllocator_8h.html" target="_top" xlink:title="CommonUtils/ShmAllocator.h">
<polygon fill="none" stroke="#000000" points="796,-196 796,-215 956,-215 956,-196 796,-196"/>
<text text-anchor="middle" x="876" y="-203" font-family="Helvetica,sans-Serif" font-size="10.00" fill="#000000">CommonUtils/ShmAllocator.h</text>
</a>
</g>
</g>
<!-- Node4&#45;&gt;Node24 -->
<g id="edge28" class="edge">
<title>Node4&#45;&gt;Node24</title>
<path fill="none" stroke="#191970" d="M1405.1206,-262.4787C1306.2722,-255.7504 1121.5288,-241.6397 965,-221 955.8647,-219.7954 946.2351,-218.3274 936.8191,-216.7803"/>
<polygon fill="#191970" stroke="#191970" points="937.1615,-213.2888 926.7191,-215.0792 935.9989,-220.1915 937.1615,-213.2888"/>
</g>
<!-- Node25 -->
<g id="node26" class="node">
<title>Node25</title>
<polygon fill="none" stroke="#bfbfbf" points="1062,-134.5 1062,-153.5 1114,-153.5 1114,-134.5 1062,-134.5"/>
<text text-anchor="middle" x="1088" y="-141.5" font-family="Helvetica,sans-Serif" font-size="10.00" fill="#000000">cassert</text>
</g>
<!-- Node4&#45;&gt;Node25 -->
<g id="edge33" class="edge">
<title>Node4&#45;&gt;Node25</title>
<path fill="none" stroke="#191970" d="M1471.885,-257.2359C1464.2165,-240.3703 1446.0293,-206.0491 1419,-190 1369.7879,-160.7795 1199.8282,-149.2766 1124.4693,-145.5376"/>
<polygon fill="#191970" stroke="#191970" points="1124.2183,-142.0218 1114.0628,-145.0411 1123.8846,-149.0138 1124.2183,-142.0218"/>
</g>
<!-- Node26 -->
<g id="node27" class="node">
<title>Node26</title>
<polygon fill="none" stroke="#bfbfbf" points="1270,-196 1270,-215 1336,-215 1336,-196 1270,-196"/>
<text text-anchor="middle" x="1303" y="-203" font-family="Helvetica,sans-Serif" font-size="10.00" fill="#000000">sys/shm.h</text>
</g>
<!-- Node4&#45;&gt;Node26 -->
<g id="edge31" class="edge">
<title>Node4&#45;&gt;Node26</title>
<path fill="none" stroke="#191970" d="M1448.3537,-257.4347C1421.81,-248.2173 1380.6061,-233.8207 1345,-221 1342.7787,-220.2002 1340.4933,-219.372 1338.1902,-218.5333"/>
<polygon fill="#191970" stroke="#191970" points="1339.3357,-215.2256 1328.742,-215.0733 1336.9285,-221.7987 1339.3357,-215.2256"/>
</g>
<!-- Node27 -->
<g id="node28" class="node">
<title>Node27</title>
<polygon fill="none" stroke="#bfbfbf" points="1354,-196 1354,-215 1410,-215 1410,-196 1354,-196"/>
<text text-anchor="middle" x="1382" y="-203" font-family="Helvetica,sans-Serif" font-size="10.00" fill="#000000">unistd.h</text>
</g>
<!-- Node4&#45;&gt;Node27 -->
<g id="edge32" class="edge">
<title>Node4&#45;&gt;Node27</title>
<path fill="none" stroke="#191970" d="M1461.3125,-257.3906C1446.2744,-247.5519 1422.6824,-232.1167 1405.1333,-220.6351"/>
<polygon fill="#191970" stroke="#191970" points="1406.8687,-217.588 1396.5844,-215.0419 1403.0363,-223.4457 1406.8687,-217.588"/>
</g>
<!-- Node11&#45;&gt;Node2 -->
<g id="edge12" class="edge">
<title>Node11&#45;&gt;Node2</title>
<path fill="none" stroke="#191970" d="M1638.3237,-195.5059C1647.1486,-179.9251 1666.3092,-149.9788 1691,-134 1738.6015,-103.1943 1804.064,-90.7435 1845.4531,-85.7599"/>
<polygon fill="#191970" stroke="#191970" points="1845.8811,-89.234 1855.4316,-84.6472 1845.1053,-82.2771 1845.8811,-89.234"/>
</g>
<!-- Node11&#45;&gt;Node5 -->
<g id="edge13" class="edge">
<title>Node11&#45;&gt;Node5</title>
<path fill="none" stroke="#191970" d="M1674.4258,-195.9581C1728.8963,-183.4115 1823.24,-161.6807 1870.8003,-150.7258"/>
<polygon fill="#191970" stroke="#191970" points="1871.7919,-154.0891 1880.7511,-148.4337 1870.2206,-147.2677 1871.7919,-154.0891"/>
</g>
<!-- Node11&#45;&gt;Node7 -->
<g id="edge15" class="edge">
<title>Node11&#45;&gt;Node7</title>
<path fill="none" stroke="#191970" d="M1622.0625,-195.8906C1611.338,-186.4683 1594.7713,-171.9134 1581.9099,-160.6137"/>
<polygon fill="#191970" stroke="#191970" points="1583.9143,-157.7158 1574.0917,-153.7449 1579.2941,-162.9745 1583.9143,-157.7158"/>
</g>
<!-- Node12 -->
<g id="node13" class="node">
<title>Node12</title>
<polygon fill="none" stroke="#bfbfbf" points="1699.5,-134.5 1699.5,-153.5 1792.5,-153.5 1792.5,-134.5 1699.5,-134.5"/>
<text text-anchor="middle" x="1746" y="-141.5" font-family="Helvetica,sans-Serif" font-size="10.00" fill="#000000">unordered_map</text>
</g>
<!-- Node11&#45;&gt;Node12 -->
<g id="edge14" class="edge">
<title>Node11&#45;&gt;Node12</title>
<path fill="none" stroke="#191970" d="M1650.6563,-195.8906C1669.1486,-185.8262 1698.401,-169.9057 1719.6308,-158.3514"/>
<polygon fill="#191970" stroke="#191970" points="1721.3575,-161.3965 1728.4677,-153.5419 1718.0112,-155.2481 1721.3575,-161.3965"/>
</g>
<!-- Node13 -->
<g id="node14" class="node">
<title>Node13</title>
<polygon fill="none" stroke="#bfbfbf" points="1586.5,-73 1586.5,-92 1635.5,-92 1635.5,-73 1586.5,-73"/>
<text text-anchor="middle" x="1611" y="-80" font-family="Helvetica,sans-Serif" font-size="10.00" fill="#000000">iosfwd</text>
</g>
<!-- Node11&#45;&gt;Node13 -->
<g id="edge16" class="edge">
<title>Node11&#45;&gt;Node13</title>
<path fill="none" stroke="#191970" d="M1631.2737,-195.8484C1627.6752,-175.7295 1619.3101,-128.9608 1614.5253,-102.2098"/>
<polygon fill="#191970" stroke="#191970" points="1617.9244,-101.3343 1612.7183,-92.1068 1611.0337,-102.5668 1617.9244,-101.3343"/>
</g>
<!-- Node20 -->
<g id="node21" class="node">
<title>Node20</title>
<polygon fill="none" stroke="#bfbfbf" points="1536,-73 1536,-92 1568,-92 1568,-73 1536,-73"/>
<text text-anchor="middle" x="1552" y="-80" font-family="Helvetica,sans-Serif" font-size="10.00" fill="#000000">list</text>
</g>
<!-- Node19&#45;&gt;Node20 -->
<g id="edge24" class="edge">
<title>Node19&#45;&gt;Node20</title>
<path fill="none" stroke="#191970" d="M1447.7475,-134.469C1468.9065,-125.7254 1500.5269,-112.0359 1527,-98 1527.5358,-97.7159 1528.0757,-97.4249 1528.6181,-97.1281"/>
<polygon fill="#191970" stroke="#191970" points="1530.5107,-100.0761 1537.3876,-92.0164 1526.9856,-94.0285 1530.5107,-100.0761"/>
</g>
<!-- Node21 -->
<g id="node22" class="node">
<title>Node21</title>
<polygon fill="none" stroke="#bfbfbf" points="1653.5,-73 1653.5,-92 1706.5,-92 1706.5,-73 1653.5,-73"/>
<text text-anchor="middle" x="1680" y="-80" font-family="Helvetica,sans-Serif" font-size="10.00" fill="#000000">cstddef</text>
</g>
<!-- Node19&#45;&gt;Node21 -->
<g id="edge25" class="edge">
<title>Node19&#45;&gt;Node21</title>
<path fill="none" stroke="#191970" d="M1487.3123,-134.4871C1532.0054,-126.8886 1592.953,-114.7327 1645,-98 1646.898,-97.3898 1648.8318,-96.7098 1650.767,-95.9846"/>
<polygon fill="#191970" stroke="#191970" points="1652.3575,-99.1159 1660.2945,-92.0977 1649.7133,-92.6345 1652.3575,-99.1159"/>
</g>
<!-- Node22 -->
<g id="node23" class="node">
<title>Node22</title>
<polygon fill="none" stroke="#bfbfbf" points="1200.5,-67.5 1200.5,-97.5 1365.5,-97.5 1365.5,-67.5 1200.5,-67.5"/>
<text text-anchor="start" x="1208.5" y="-85.5" font-family="Helvetica,sans-Serif" font-size="10.00" fill="#000000">boost/interprocess</text>
<text text-anchor="middle" x="1283" y="-74.5" font-family="Helvetica,sans-Serif" font-size="10.00" fill="#000000">/managed_external_buffer.hpp</text>
</g>
<!-- Node19&#45;&gt;Node22 -->
<g id="edge26" class="edge">
<title>Node19&#45;&gt;Node22</title>
<path fill="none" stroke="#191970" d="M1401.9688,-134.3906C1381.9143,-125.6435 1351.7182,-112.4728 1326.7666,-101.5897"/>
<polygon fill="#191970" stroke="#191970" points="1328.0578,-98.3345 1317.4925,-97.5446 1325.2592,-104.7507 1328.0578,-98.3345"/>
</g>
<!-- Node23 -->
<g id="node24" class="node">
<title>Node23</title>
<polygon fill="none" stroke="#bfbfbf" points="1384,-67.5 1384,-97.5 1518,-97.5 1518,-67.5 1384,-67.5"/>
<text text-anchor="start" x="1392" y="-85.5" font-family="Helvetica,sans-Serif" font-size="10.00" fill="#000000">boost/interprocess</text>
<text text-anchor="middle" x="1451" y="-74.5" font-family="Helvetica,sans-Serif" font-size="10.00" fill="#000000">/allocators/allocator.hpp</text>
</g>
<!-- Node19&#45;&gt;Node23 -->
<g id="edge27" class="edge">
<title>Node19&#45;&gt;Node23</title>
<path fill="none" stroke="#191970" d="M1428.2188,-134.3906C1431.4669,-126.9922 1436.1043,-116.4291 1440.3483,-106.7623"/>
<polygon fill="#191970" stroke="#191970" points="1443.5799,-108.108 1444.3951,-97.5446 1437.1703,-105.2941 1443.5799,-108.108"/>
</g>
<!-- Node24&#45;&gt;Node19 -->
<g id="edge29" class="edge">
<title>Node24&#45;&gt;Node19</title>
<path fill="none" stroke="#191970" d="M927.1997,-195.9291C939.5496,-193.8017 952.7243,-191.6818 965,-190 1092.9103,-172.4758 1241.7385,-158.7812 1334.4185,-151.0422"/>
<polygon fill="#191970" stroke="#191970" points="1334.9245,-154.5123 1344.6007,-150.1971 1334.3455,-147.5363 1334.9245,-154.5123"/>
</g>
<!-- Node24&#45;&gt;Node25 -->
<g id="edge30" class="edge">
<title>Node24&#45;&gt;Node25</title>
<path fill="none" stroke="#191970" d="M909.125,-195.8906C947.9882,-184.6166 1012.1823,-165.9943 1052.1758,-154.3924"/>
<polygon fill="#191970" stroke="#191970" points="1053.1631,-157.7504 1061.792,-151.6028 1051.2128,-151.0275 1053.1631,-157.7504"/>
</g>
<!-- Node28&#45;&gt;Node24 -->
<g id="edge48" class="edge">
<title>Node28&#45;&gt;Node24</title>
<path fill="none" stroke="#191970" d="M899.625,-257.3906C895.6212,-248.5965 889.5817,-235.3312 884.6115,-224.4145"/>
<polygon fill="#191970" stroke="#191970" points="887.7657,-222.8957 880.4367,-215.2449 881.3949,-225.7963 887.7657,-222.8957"/>
</g>
<!-- Node29 -->
<g id="node30" class="node">
<title>Node29</title>
<g id="a_node30"><a xlink:href="../../d4/d25/BaseHits_8h.html" target="_top" xlink:title="SimulationDataFormat\l/BaseHits.h">
<polygon fill="none" stroke="#000000" points="650.5,-190.5 650.5,-220.5 777.5,-220.5 777.5,-190.5 650.5,-190.5"/>
<text text-anchor="start" x="658.5" y="-208.5" font-family="Helvetica,sans-Serif" font-size="10.00" fill="#000000">SimulationDataFormat</text>
<text text-anchor="middle" x="714" y="-197.5" font-family="Helvetica,sans-Serif" font-size="10.00" fill="#000000">/BaseHits.h</text>
</a>
</g>
</g>
<!-- Node28&#45;&gt;Node29 -->
<g id="edge35" class="edge">
<title>Node28&#45;&gt;Node29</title>
<path fill="none" stroke="#191970" d="M874.3125,-257.3906C846.5745,-248.4123 804.4385,-234.7735 770.3253,-223.7316"/>
<polygon fill="#191970" stroke="#191970" points="771.0711,-220.2943 760.4792,-220.5446 768.9154,-226.9541 771.0711,-220.2943"/>
</g>
<!-- Node30 -->
<g id="node31" class="node">
<title>Node30</title>
<g id="a_node31"><a xlink:href="../../dd/d76/Cartesian3D_8h.html" target="_top" xlink:title="MathUtils/Cartesian3D.h">
<polygon fill="none" stroke="#000000" points="646.5,-134.5 646.5,-153.5 781.5,-153.5 781.5,-134.5 646.5,-134.5"/>
<text text-anchor="middle" x="714" y="-141.5" font-family="Helvetica,sans-Serif" font-size="10.00" fill="#000000">MathUtils/Cartesian3D.h</text>
</a>
</g>
</g>
<!-- Node29&#45;&gt;Node30 -->
<g id="edge36" class="edge">
<title>Node29&#45;&gt;Node30</title>
<path fill="none" stroke="#191970" d="M714,-190.2977C714,-182.3834 714,-172.6043 714,-164.0759"/>
<polygon fill="#191970" stroke="#191970" points="717.5001,-163.8469 714,-153.8469 710.5001,-163.847 717.5001,-163.8469"/>
</g>
<!-- Node30&#45;&gt;Node2 -->
<g id="edge42" class="edge">
<title>Node30&#45;&gt;Node2</title>
<path fill="none" stroke="#191970" d="M781.7973,-141.9545C943.5626,-136.8411 1364.8459,-122.151 1716,-98 1760.3528,-94.9496 1811.1336,-90.1102 1845.3563,-86.6505"/>
<polygon fill="#191970" stroke="#191970" points="1845.8266,-90.1208 1855.42,-85.6246 1845.1166,-83.1569 1845.8266,-90.1208"/>
</g>
<!-- Node30&#45;&gt;Node13 -->
<g id="edge44" class="edge">
<title>Node30&#45;&gt;Node13</title>
<path fill="none" stroke="#191970" d="M781.5216,-141.8509C971.3124,-135.6063 1500.6786,-116.717 1577,-98 1579.3391,-97.4264 1581.7148,-96.6931 1584.0673,-95.8587"/>
<polygon fill="#191970" stroke="#191970" points="1585.5307,-99.0414 1593.4541,-92.0078 1582.8739,-92.5652 1585.5307,-99.0414"/>
</g>
<!-- Node31 -->
<g id="node32" class="node">
<title>Node31</title>
<polygon fill="none" stroke="#bfbfbf" points="632,-67.5 632,-97.5 796,-97.5 796,-67.5 632,-67.5"/>
<text text-anchor="start" x="640" y="-85.5" font-family="Helvetica,sans-Serif" font-size="10.00" fill="#000000">Math/GenVector/Displacement</text>
<text text-anchor="middle" x="714" y="-74.5" font-family="Helvetica,sans-Serif" font-size="10.00" fill="#000000">Vector3D.h</text>
</g>
<!-- Node30&#45;&gt;Node31 -->
<g id="edge37" class="edge">
<title>Node30&#45;&gt;Node31</title>
<path fill="none" stroke="#191970" d="M714,-134.3906C714,-127.2234 714,-117.0862 714,-107.671"/>
<polygon fill="#191970" stroke="#191970" points="717.5001,-107.5446 714,-97.5446 710.5001,-107.5446 717.5001,-107.5446"/>
</g>
<!-- Node32 -->
<g id="node33" class="node">
<title>Node32</title>
<polygon fill="none" stroke="#bfbfbf" points="814.5,-73 814.5,-92 1003.5,-92 1003.5,-73 814.5,-73"/>
<text text-anchor="middle" x="909" y="-80" font-family="Helvetica,sans-Serif" font-size="10.00" fill="#000000">Math/GenVector/PositionVector3D.h</text>
</g>
<!-- Node30&#45;&gt;Node32 -->
<g id="edge38" class="edge">
<title>Node30&#45;&gt;Node32</title>
<path fill="none" stroke="#191970" d="M744.4688,-134.3906C777.9544,-123.8298 831.8853,-106.8208 868.812,-95.1747"/>
<polygon fill="#191970" stroke="#191970" points="870.261,-98.3877 878.7452,-92.0419 868.1555,-91.7118 870.261,-98.3877"/>
</g>
<!-- Node33 -->
<g id="node34" class="node">
<title>Node33</title>
<polygon fill="none" stroke="#bfbfbf" points="1022,-73 1022,-92 1182,-92 1182,-73 1022,-73"/>
<text text-anchor="middle" x="1102" y="-80" font-family="Helvetica,sans-Serif" font-size="10.00" fill="#000000">Math/GenVector/Rotation3D.h</text>
</g>
<!-- Node30&#45;&gt;Node33 -->
<g id="edge39" class="edge">
<title>Node30&#45;&gt;Node33</title>
<path fill="none" stroke="#191970" d="M777.7048,-134.4942C838.0768,-125.4082 931.2739,-111.1809 1012,-98 1020.2102,-96.6594 1028.8356,-95.2173 1037.3611,-93.7715"/>
<polygon fill="#191970" stroke="#191970" points="1038.0229,-97.2092 1047.2925,-92.0784 1036.8465,-90.3088 1038.0229,-97.2092"/>
</g>
<!-- Node34 -->
<g id="node35" class="node">
<title>Node34</title>
<polygon fill="none" stroke="#bfbfbf" points="0,-73 0,-92 168,-92 168,-73 0,-73"/>
<text text-anchor="middle" x="84" y="-80" font-family="Helvetica,sans-Serif" font-size="10.00" fill="#000000">Math/GenVector/Transform3D.h</text>
</g>
<!-- Node30&#45;&gt;Node34 -->
<g id="edge40" class="edge">
<title>Node30&#45;&gt;Node34</title>
<path fill="none" stroke="#191970" d="M646.4234,-139.9458C544.4501,-133.4362 345.2671,-119.195 177,-98 167.1341,-96.7573 156.7134,-95.2315 146.557,-93.627"/>
<polygon fill="#191970" stroke="#191970" points="146.9494,-90.1451 136.5189,-92.0038 145.8319,-97.0553 146.9494,-90.1451"/>
</g>
<!-- Node35 -->
<g id="node36" class="node">
<title>Node35</title>
<polygon fill="none" stroke="#bfbfbf" points="186.5,-73 186.5,-92 359.5,-92 359.5,-73 186.5,-73"/>
<text text-anchor="middle" x="273" y="-80" font-family="Helvetica,sans-Serif" font-size="10.00" fill="#000000">Math/GenVector/Translation3D.h</text>
</g>
<!-- Node30&#45;&gt;Node35 -->
<g id="edge41" class="edge">
<title>Node30&#45;&gt;Node35</title>
<path fill="none" stroke="#191970" d="M646.4934,-135.5571C576.8882,-126.7209 465.2462,-112.1835 369,-98 359.7029,-96.6299 349.9101,-95.1228 340.2767,-93.6031"/>
<polygon fill="#191970" stroke="#191970" points="340.7485,-90.1342 330.3229,-92.02 339.649,-97.0473 340.7485,-90.1342"/>
</g>
<!-- Node36 -->
<g id="node37" class="node">
<title>Node36</title>
<polygon fill="none" stroke="#bfbfbf" points="378,-73 378,-92 460,-92 460,-73 378,-73"/>
<text text-anchor="middle" x="419" y="-80" font-family="Helvetica,sans-Serif" font-size="10.00" fill="#000000">TGeoMatrix.h</text>
</g>
<!-- Node30&#45;&gt;Node36 -->
<g id="edge43" class="edge">
<title>Node30&#45;&gt;Node36</title>
<path fill="none" stroke="#191970" d="M652.6652,-134.4957C602.8527,-126.2958 530.958,-113.3659 469,-98 465.1891,-97.0549 461.2405,-95.9873 457.3091,-94.8655"/>
<polygon fill="#191970" stroke="#191970" points="458.243,-91.4919 447.6605,-92.0043 456.2528,-98.203 458.243,-91.4919"/>
</g>
<!-- Node37 -->
<g id="node38" class="node">
<title>Node37</title>
<g id="a_node38"><a xlink:href="../../d2/dd0/Cartesian2D_8h.html" target="_top" xlink:title="MathUtils/Cartesian2D.h">
<polygon fill="none" stroke="#000000" points="478.5,-73 478.5,-92 613.5,-92 613.5,-73 478.5,-73"/>
<text text-anchor="middle" x="546" y="-80" font-family="Helvetica,sans-Serif" font-size="10.00" fill="#000000">MathUtils/Cartesian2D.h</text>
</a>
</g>
</g>
<!-- Node30&#45;&gt;Node37 -->
<g id="edge45" class="edge">
<title>Node30&#45;&gt;Node37</title>
<path fill="none" stroke="#191970" d="M687.75,-134.3906C659.2707,-123.9652 613.6257,-107.2559 581.8543,-95.6252"/>
<polygon fill="#191970" stroke="#191970" points="582.6594,-92.1929 572.0657,-92.0419 580.2531,-98.7663 582.6594,-92.1929"/>
</g>
<!-- Node38 -->
<g id="node39" class="node">
<title>Node38</title>
<polygon fill="none" stroke="#bfbfbf" points="366,-.5 366,-30.5 530,-30.5 530,-.5 366,-.5"/>
<text text-anchor="start" x="374" y="-18.5" font-family="Helvetica,sans-Serif" font-size="10.00" fill="#000000">Math/GenVector/Displacement</text>
<text text-anchor="middle" x="448" y="-7.5" font-family="Helvetica,sans-Serif" font-size="10.00" fill="#000000">Vector2D.h</text>
</g>
<!-- Node37&#45;&gt;Node38 -->
<g id="edge46" class="edge">
<title>Node37&#45;&gt;Node38</title>
<path fill="none" stroke="#191970" d="M531.959,-72.9005C518.0412,-63.3853 496.272,-48.5023 478.388,-36.2755"/>
<polygon fill="#191970" stroke="#191970" points="480.2026,-33.2763 469.9721,-30.5218 476.2519,-39.0549 480.2026,-33.2763"/>
</g>
<!-- Node39 -->
<g id="node40" class="node">
<title>Node39</title>
<polygon fill="none" stroke="#bfbfbf" points="548.5,-6 548.5,-25 737.5,-25 737.5,-6 548.5,-6"/>
<text text-anchor="middle" x="643" y="-13" font-family="Helvetica,sans-Serif" font-size="10.00" fill="#000000">Math/GenVector/PositionVector2D.h</text>
</g>
<!-- Node37&#45;&gt;Node39 -->
<g id="edge47" class="edge">
<title>Node37&#45;&gt;Node39</title>
<path fill="none" stroke="#191970" d="M559.8977,-72.9005C575.8164,-61.9052 602.1121,-43.7422 620.8599,-30.7927"/>
<polygon fill="#191970" stroke="#191970" points="622.8892,-33.6448 629.128,-25.0817 618.9108,-27.8852 622.8892,-33.6448"/>
</g>
</g>
</svg>
