<?xml version="1.0" encoding="UTF-8" standalone="no"?>
<!DOCTYPE svg PUBLIC "-//W3C//DTD SVG 1.1//EN"
 "http://www.w3.org/Graphics/SVG/1.1/DTD/svg11.dtd">
<!-- Generated by graphviz version 2.40.1 (20161225.0304)
 -->
<!-- Title: GuiCallbackContext Pages: 1 -->
<svg width="458pt" height="182pt"
 viewBox="0.00 0.00 458.00 182.00" xmlns="http://www.w3.org/2000/svg" xmlns:xlink="http://www.w3.org/1999/xlink">
<g id="graph0" class="graph" transform="scale(1 1) rotate(0) translate(4 178)">
<title>GuiCallbackContext</title>
<!-- Node1 -->
<g id="node1" class="node">
<title>Node1</title>
<polygon fill="#bfbfbf" stroke="#000000" points="154.5,-.5 154.5,-57.5 267.5,-57.5 267.5,-.5 154.5,-.5"/>
<text text-anchor="middle" x="211" y="-45.5" font-family="Helvetica,sans-Serif" font-size="10.00" fill="#000000">GuiCallbackContext</text>
<polyline fill="none" stroke="#000000" points="154.5,-38.5 267.5,-38.5 "/>
<text text-anchor="middle" x="211" y="-26.5" font-family="Helvetica,sans-Serif" font-size="10.00" fill="#000000"> </text>
<polyline fill="none" stroke="#000000" points="154.5,-19.5 267.5,-19.5 "/>
<text text-anchor="middle" x="211" y="-7.5" font-family="Helvetica,sans-Serif" font-size="10.00" fill="#000000"> </text>
</g>
<!-- Node2 -->
<g id="node2" class="node">
<title>Node2</title>
<g id="a_node2"><a xlink:href="../../d6/d30/classuint64__t.html" target="_top" xlink:title="{uint64_t\n||}">
<polygon fill="none" stroke="#000000" points="0,-116.5 0,-173.5 56,-173.5 56,-116.5 0,-116.5"/>
<text text-anchor="middle" x="28" y="-161.5" font-family="Helvetica,sans-Serif" font-size="10.00" fill="#000000">uint64_t</text>
<polyline fill="none" stroke="#000000" points="0,-154.5 56,-154.5 "/>
<text text-anchor="middle" x="28" y="-142.5" font-family="Helvetica,sans-Serif" font-size="10.00" fill="#000000"> </text>
<polyline fill="none" stroke="#000000" points="0,-135.5 56,-135.5 "/>
<text text-anchor="middle" x="28" y="-123.5" font-family="Helvetica,sans-Serif" font-size="10.00" fill="#000000"> </text>
</a>
</g>
</g>
<!-- Node2&#45;&gt;Node1 -->
<g id="edge1" class="edge">
<title>Node2&#45;&gt;Node1</title>
<path fill="none" stroke="#404040" d="M32.6158,-116.4875C36.2454,-102.5585 42.6733,-86.5658 54,-76 67.2716,-63.62 106.307,-51.9065 142.1313,-43.2699"/>
<polygon fill="none" stroke="#404040" points="142.4318,-43.1996 147.3612,-37.9364 154.1154,-40.4624 149.186,-45.7255 142.4318,-43.1996"/>
<text text-anchor="middle" x="84.5" y="-84.5" font-family="Helvetica,sans-Serif" font-size="10.00" fill="#000000"> +frameLast</text>
</g>
<!-- Node3 -->
<g id="node3" class="node">
<title>Node3</title>
<g id="a_node3"><a xlink:href="../../d4/dc3/classfloat.html" target="_top" xlink:title="{float\n||}">
<polygon fill="none" stroke="#000000" points="92,-116.5 92,-173.5 130,-173.5 130,-116.5 92,-116.5"/>
<text text-anchor="middle" x="111" y="-161.5" font-family="Helvetica,sans-Serif" font-size="10.00" fill="#000000">float</text>
<polyline fill="none" stroke="#000000" points="92,-154.5 130,-154.5 "/>
<text text-anchor="middle" x="111" y="-142.5" font-family="Helvetica,sans-Serif" font-size="10.00" fill="#000000"> </text>
<polyline fill="none" stroke="#000000" points="92,-135.5 130,-135.5 "/>
<text text-anchor="middle" x="111" y="-123.5" font-family="Helvetica,sans-Serif" font-size="10.00" fill="#000000"> </text>
</a>
</g>
</g>
<!-- Node3&#45;&gt;Node1 -->
<g id="edge2" class="edge">
<title>Node3&#45;&gt;Node1</title>
<path fill="none" stroke="#404040" d="M114.3639,-116.2526C117.0957,-102.9227 122.043,-87.5202 131,-76 134.8561,-71.0404 139.394,-66.5011 144.3164,-62.3692"/>
<polygon fill="none" stroke="#404040" points="144.6021,-62.1535 146.9798,-55.3456 154.1784,-54.9219 151.8008,-61.7298 144.6021,-62.1535"/>
<text text-anchor="middle" x="169" y="-90" font-family="Helvetica,sans-Serif" font-size="10.00" fill="#000000"> +frameCost</text>
<text text-anchor="middle" x="169" y="-79" font-family="Helvetica,sans-Serif" font-size="10.00" fill="#000000">+frameLatency</text>
</g>
<!-- Node4 -->
<g id="node4" class="node">
<title>Node4</title>
<polygon fill="none" stroke="#bfbfbf" points="148.5,-116.5 148.5,-173.5 273.5,-173.5 273.5,-116.5 148.5,-116.5"/>
<text text-anchor="middle" x="211" y="-161.5" font-family="Helvetica,sans-Serif" font-size="10.00" fill="#000000">function&lt; void(void)&gt;</text>
<polyline fill="none" stroke="#bfbfbf" points="148.5,-154.5 273.5,-154.5 "/>
<text text-anchor="middle" x="211" y="-142.5" font-family="Helvetica,sans-Serif" font-size="10.00" fill="#000000"> </text>
<polyline fill="none" stroke="#bfbfbf" points="148.5,-135.5 273.5,-135.5 "/>
<text text-anchor="middle" x="211" y="-123.5" font-family="Helvetica,sans-Serif" font-size="10.00" fill="#000000"> </text>
</g>
<!-- Node4&#45;&gt;Node1 -->
<g id="edge3" class="edge">
<title>Node4&#45;&gt;Node1</title>
<path fill="none" stroke="#404040" d="M211,-116.3258C211,-102.3834 211,-85.3727 211,-70.0815"/>
<polygon fill="none" stroke="#404040" points="211.0001,-69.7463 207,-63.7464 211,-57.7463 215,-63.7463 211.0001,-69.7463"/>
<text text-anchor="middle" x="237" y="-84.5" font-family="Helvetica,sans-Serif" font-size="10.00" fill="#000000"> +callback</text>
</g>
<!-- Node5 -->
<g id="node5" class="node">
<title>Node5</title>
<polygon fill="none" stroke="#bfbfbf" points="292,-116.5 292,-173.5 330,-173.5 330,-116.5 292,-116.5"/>
<text text-anchor="middle" x="311" y="-161.5" font-family="Helvetica,sans-Serif" font-size="10.00" fill="#000000">bool</text>
<polyline fill="none" stroke="#bfbfbf" points="292,-154.5 330,-154.5 "/>
<text text-anchor="middle" x="311" y="-142.5" font-family="Helvetica,sans-Serif" font-size="10.00" fill="#000000"> </text>
<polyline fill="none" stroke="#bfbfbf" points="292,-135.5 330,-135.5 "/>
<text text-anchor="middle" x="311" y="-123.5" font-family="Helvetica,sans-Serif" font-size="10.00" fill="#000000"> </text>
</g>
<!-- Node5&#45;&gt;Node1 -->
<g id="edge4" class="edge">
<title>Node5&#45;&gt;Node1</title>
<path fill="none" stroke="#404040" d="M295.4659,-116.4401C287.7482,-103.4537 277.7748,-88.2823 267,-76 264.0207,-72.6038 260.7872,-69.2435 257.428,-65.9746"/>
<polygon fill="none" stroke="#404040" points="257.1464,-65.7146 250.0246,-64.583 248.33,-57.5738 255.4518,-58.7054 257.1464,-65.7146"/>
<text text-anchor="middle" x="332" y="-84.5" font-family="Helvetica,sans-Serif" font-size="10.00" fill="#000000"> +guiQuitRequested</text>
</g>
<!-- Node6 -->
<g id="node6" class="node">
<title>Node6</title>
<polygon fill="none" stroke="#bfbfbf" points="396,-116.5 396,-173.5 442,-173.5 442,-116.5 396,-116.5"/>
<text text-anchor="middle" x="419" y="-161.5" font-family="Helvetica,sans-Serif" font-size="10.00" fill="#000000">void *</text>
<polyline fill="none" stroke="#bfbfbf" points="396,-154.5 442,-154.5 "/>
<text text-anchor="middle" x="419" y="-142.5" font-family="Helvetica,sans-Serif" font-size="10.00" fill="#000000"> </text>
<polyline fill="none" stroke="#bfbfbf" points="396,-135.5 442,-135.5 "/>
<text text-anchor="middle" x="419" y="-123.5" font-family="Helvetica,sans-Serif" font-size="10.00" fill="#000000"> </text>
</g>
<!-- Node6&#45;&gt;Node1 -->
<g id="edge5" class="edge">
<title>Node6&#45;&gt;Node1</title>
<path fill="none" stroke="#404040" d="M411.0178,-116.2372C405.7573,-102.242 397.4791,-86.2657 385,-76 368.6695,-62.5659 321.0813,-50.2163 279.7933,-41.5506"/>
<polygon fill="none" stroke="#404040" points="279.5432,-41.4995 272.8633,-44.2159 267.7866,-39.0946 274.4666,-36.3782 279.5432,-41.4995"/>
<text text-anchor="middle" x="425.5" y="-84.5" font-family="Helvetica,sans-Serif" font-size="10.00" fill="#000000"> +window</text>
</g>
</g>
</svg>
