<?xml version="1.0" encoding="UTF-8" standalone="no"?>
<!DOCTYPE svg PUBLIC "-//W3C//DTD SVG 1.1//EN"
 "http://www.w3.org/Graphics/SVG/1.1/DTD/svg11.dtd">
<!-- Generated by graphviz version 2.40.1 (20161225.0304)
 -->
<!-- Title: /home/travis/build/AliceO2Group/AliceO2/Detectors/ITSMFT/ITS/tracking/include/ITStracking/ROframe.h Pages: 1 -->
<svg width="3116pt" height="452pt"
 viewBox="0.00 0.00 3115.50 452.00" xmlns="http://www.w3.org/2000/svg" xmlns:xlink="http://www.w3.org/1999/xlink">
<g id="graph0" class="graph" transform="scale(1 1) rotate(0) translate(4 448)">
<title>/home/travis/build/AliceO2Group/AliceO2/Detectors/ITSMFT/ITS/tracking/include/ITStracking/ROframe.h</title>
<!-- Node0 -->
<g id="node1" class="node">
<title>Node0</title>
<polygon fill="#bfbfbf" stroke="#000000" points="957.5,-380.5 957.5,-443.5 1112.5,-443.5 1112.5,-380.5 957.5,-380.5"/>
<text text-anchor="start" x="965.5" y="-431.5" font-family="Helvetica,sans-Serif" font-size="10.00" fill="#000000">/home/travis/build</text>
<text text-anchor="start" x="965.5" y="-420.5" font-family="Helvetica,sans-Serif" font-size="10.00" fill="#000000">/AliceO2Group/AliceO2</text>
<text text-anchor="start" x="965.5" y="-409.5" font-family="Helvetica,sans-Serif" font-size="10.00" fill="#000000">/Detectors/ITSMFT/ITS</text>
<text text-anchor="start" x="965.5" y="-398.5" font-family="Helvetica,sans-Serif" font-size="10.00" fill="#000000">/tracking/include/ITStracking</text>
<text text-anchor="middle" x="1035" y="-387.5" font-family="Helvetica,sans-Serif" font-size="10.00" fill="#000000">/ROframe.h</text>
</g>
<!-- Node1 -->
<g id="node2" class="node">
<title>Node1</title>
<polygon fill="none" stroke="#bfbfbf" points="477,-56.5 477,-75.5 519,-75.5 519,-56.5 477,-56.5"/>
<text text-anchor="middle" x="498" y="-63.5" font-family="Helvetica,sans-Serif" font-size="10.00" fill="#000000">array</text>
</g>
<!-- Node0&#45;&gt;Node1 -->
<g id="edge1" class="edge">
<title>Node0&#45;&gt;Node1</title>
<path fill="none" stroke="#191970" d="M957.2068,-408.8719C716.5057,-398.1693 0,-358.1899 0,-261.5 0,-261.5 0,-261.5 0,-194.5 0,-152.3006 11.6395,-135.0309 47,-112 82.081,-89.1512 370.4004,-72.5068 466.7673,-67.5373"/>
<polygon fill="#191970" stroke="#191970" points="466.9631,-71.032 476.7722,-67.0279 466.6071,-64.041 466.9631,-71.032"/>
</g>
<!-- Node2 -->
<g id="node3" class="node">
<title>Node2</title>
<polygon fill="none" stroke="#bfbfbf" points="946.5,-118 946.5,-137 993.5,-137 993.5,-118 946.5,-118"/>
<text text-anchor="middle" x="970" y="-125" font-family="Helvetica,sans-Serif" font-size="10.00" fill="#000000">vector</text>
</g>
<!-- Node0&#45;&gt;Node2 -->
<g id="edge2" class="edge">
<title>Node0&#45;&gt;Node2</title>
<path fill="none" stroke="#191970" d="M1027.7955,-380.4665C1014.2722,-321.2759 985.457,-195.1539 974.424,-146.8633"/>
<polygon fill="#191970" stroke="#191970" points="977.8245,-146.033 972.185,-137.0637 971.0004,-147.5921 977.8245,-146.033"/>
</g>
<!-- Node3 -->
<g id="node4" class="node">
<title>Node3</title>
<polygon fill="none" stroke="#bfbfbf" points="904.5,-185 904.5,-204 949.5,-204 949.5,-185 904.5,-185"/>
<text text-anchor="middle" x="927" y="-192" font-family="Helvetica,sans-Serif" font-size="10.00" fill="#000000">utility</text>
</g>
<!-- Node0&#45;&gt;Node3 -->
<g id="edge3" class="edge">
<title>Node0&#45;&gt;Node3</title>
<path fill="none" stroke="#191970" d="M1019.2959,-380.3736C996.5153,-334.4962 955.001,-250.891 936.4244,-213.4797"/>
<polygon fill="#191970" stroke="#191970" points="939.41,-211.6226 931.8278,-204.2226 933.1404,-214.7358 939.41,-211.6226"/>
</g>
<!-- Node4 -->
<g id="node5" class="node">
<title>Node4</title>
<polygon fill="none" stroke="#bfbfbf" points="1044,-185 1044,-204 1096,-204 1096,-185 1044,-185"/>
<text text-anchor="middle" x="1070" y="-192" font-family="Helvetica,sans-Serif" font-size="10.00" fill="#000000">cassert</text>
</g>
<!-- Node0&#45;&gt;Node4 -->
<g id="edge4" class="edge">
<title>Node0&#45;&gt;Node4</title>
<path fill="none" stroke="#191970" d="M1040.0893,-380.3736C1047.4088,-334.8883 1060.6961,-252.3174 1066.7898,-214.4491"/>
<polygon fill="#191970" stroke="#191970" points="1070.3022,-214.6516 1068.4354,-204.2226 1063.3911,-213.5395 1070.3022,-214.6516"/>
</g>
<!-- Node5 -->
<g id="node6" class="node">
<title>Node5</title>
<polygon fill="none" stroke="#bfbfbf" points="1114,-185 1114,-204 1162,-204 1162,-185 1114,-185"/>
<text text-anchor="middle" x="1138" y="-192" font-family="Helvetica,sans-Serif" font-size="10.00" fill="#000000">gsl/gsl</text>
</g>
<!-- Node0&#45;&gt;Node5 -->
<g id="edge5" class="edge">
<title>Node0&#45;&gt;Node5</title>
<path fill="none" stroke="#191970" d="M1049.9771,-380.3736C1071.703,-334.4962 1111.2953,-250.891 1129.0119,-213.4797"/>
<polygon fill="#191970" stroke="#191970" points="1132.279,-214.7584 1133.3958,-204.2226 1125.9525,-211.7624 1132.279,-214.7584"/>
</g>
<!-- Node6 -->
<g id="node7" class="node">
<title>Node6</title>
<g id="a_node7"><a xlink:href="../../da/d7f/Detectors_2ITSMFT_2ITS_2tracking_2include_2ITStracking_2Cluster_8h.html" target="_top" xlink:title="ITStracking/Cluster.h">
<polygon fill="none" stroke="#000000" points="560.5,-319 560.5,-338 677.5,-338 677.5,-319 560.5,-319"/>
<text text-anchor="middle" x="619" y="-326" font-family="Helvetica,sans-Serif" font-size="10.00" fill="#000000">ITStracking/Cluster.h</text>
</a>
</g>
</g>
<!-- Node0&#45;&gt;Node6 -->
<g id="edge6" class="edge">
<title>Node0&#45;&gt;Node6</title>
<path fill="none" stroke="#191970" d="M957.2915,-396.9048C887.7319,-383.3186 782.9853,-362.6775 692,-344 685.92,-342.7519 679.5591,-341.4281 673.2355,-340.1007"/>
<polygon fill="#191970" stroke="#191970" points="673.8815,-336.66 663.3746,-338.0221 672.4376,-343.5095 673.8815,-336.66"/>
</g>
<!-- Node19 -->
<g id="node20" class="node">
<title>Node19</title>
<g id="a_node20"><a xlink:href="../../d0/d86/Detectors_2ITSMFT_2ITS_2tracking_2include_2ITStracking_2Constants_8h.html" target="_top" xlink:title="ITStracking/Constants.h">
<polygon fill="none" stroke="#000000" points="640,-185 640,-204 772,-204 772,-185 640,-185"/>
<text text-anchor="middle" x="706" y="-192" font-family="Helvetica,sans-Serif" font-size="10.00" fill="#000000">ITStracking/Constants.h</text>
</a>
</g>
</g>
<!-- Node0&#45;&gt;Node19 -->
<g id="edge42" class="edge">
<title>Node0&#45;&gt;Node19</title>
<path fill="none" stroke="#191970" d="M957.1764,-398.6178C886.1594,-382.2717 783.6111,-347.5511 725,-277 710.2998,-259.3051 706.4726,-232.4089 705.7179,-214.1769"/>
<polygon fill="#191970" stroke="#191970" points="709.2166,-214.0537 705.5754,-204.1042 702.2173,-214.1528 709.2166,-214.0537"/>
</g>
<!-- Node22 -->
<g id="node23" class="node">
<title>Node22</title>
<g id="a_node23"><a xlink:href="../../d3/d6f/DataFormats_2Reconstruction_2include_2ReconstructionDataFormats_2Vertex_8h.html" target="_top" xlink:title="ReconstructionDataFormats\l/Vertex.h">
<polygon fill="none" stroke="#000000" points="1723,-313.5 1723,-343.5 1875,-343.5 1875,-313.5 1723,-313.5"/>
<text text-anchor="start" x="1731" y="-331.5" font-family="Helvetica,sans-Serif" font-size="10.00" fill="#000000">ReconstructionDataFormats</text>
<text text-anchor="middle" x="1799" y="-320.5" font-family="Helvetica,sans-Serif" font-size="10.00" fill="#000000">/Vertex.h</text>
</a>
</g>
</g>
<!-- Node0&#45;&gt;Node22 -->
<g id="edge43" class="edge">
<title>Node0&#45;&gt;Node22</title>
<path fill="none" stroke="#191970" d="M1112.8156,-403.4953C1256.6025,-387.7804 1562.8733,-354.307 1712.7585,-337.9256"/>
<polygon fill="#191970" stroke="#191970" points="1713.2782,-341.3897 1722.8387,-336.8239 1712.5176,-334.4312 1713.2782,-341.3897"/>
</g>
<!-- Node39 -->
<g id="node40" class="node">
<title>Node39</title>
<g id="a_node40"><a xlink:href="../../d7/dcd/MCCompLabel_8h.html" target="_top" xlink:title="SimulationDataFormat\l/MCCompLabel.h">
<polygon fill="none" stroke="#000000" points="1309.5,-313.5 1309.5,-343.5 1436.5,-343.5 1436.5,-313.5 1309.5,-313.5"/>
<text text-anchor="start" x="1317.5" y="-331.5" font-family="Helvetica,sans-Serif" font-size="10.00" fill="#000000">SimulationDataFormat</text>
<text text-anchor="middle" x="1373" y="-320.5" font-family="Helvetica,sans-Serif" font-size="10.00" fill="#000000">/MCCompLabel.h</text>
</a>
</g>
</g>
<!-- Node0&#45;&gt;Node39 -->
<g id="edge64" class="edge">
<title>Node0&#45;&gt;Node39</title>
<path fill="none" stroke="#191970" d="M1112.544,-392.8434C1169.7249,-378.7174 1246.8949,-359.6532 1302.3705,-345.9484"/>
<polygon fill="#191970" stroke="#191970" points="1303.2507,-349.3363 1312.1194,-343.54 1301.5718,-342.5406 1303.2507,-349.3363"/>
</g>
<!-- Node40 -->
<g id="node41" class="node">
<title>Node40</title>
<g id="a_node41"><a xlink:href="../../db/d14/MCTruthContainer_8h.html" target="_top" xlink:title="Definition of a container to keep Monte Carlo truth external to simulation objects. ">
<polygon fill="none" stroke="#000000" points="1221.5,-246.5 1221.5,-276.5 1348.5,-276.5 1348.5,-246.5 1221.5,-246.5"/>
<text text-anchor="start" x="1229.5" y="-264.5" font-family="Helvetica,sans-Serif" font-size="10.00" fill="#000000">SimulationDataFormat</text>
<text text-anchor="middle" x="1285" y="-253.5" font-family="Helvetica,sans-Serif" font-size="10.00" fill="#000000">/MCTruthContainer.h</text>
</a>
</g>
</g>
<!-- Node0&#45;&gt;Node40 -->
<g id="edge66" class="edge">
<title>Node0&#45;&gt;Node40</title>
<path fill="none" stroke="#191970" d="M1087.4082,-380.4503C1136.7632,-350.7385 1209.2243,-307.117 1251.3075,-281.7829"/>
<polygon fill="#191970" stroke="#191970" points="1253.2971,-284.6705 1260.0593,-276.5143 1249.6867,-278.6733 1253.2971,-284.6705"/>
</g>
<!-- Node6&#45;&gt;Node1 -->
<g id="edge7" class="edge">
<title>Node6&#45;&gt;Node1</title>
<path fill="none" stroke="#191970" d="M561.3056,-318.9286C429.0849,-295.6124 111.3575,-231.2483 57,-143 49.7742,-131.2691 47.7768,-122.2353 57,-112 84.3832,-81.6119 370.3219,-69.9739 466.578,-66.8991"/>
<polygon fill="#191970" stroke="#191970" points="466.9494,-70.3894 476.8361,-66.5812 466.7325,-63.3928 466.9494,-70.3894"/>
</g>
<!-- Node7 -->
<g id="node8" class="node">
<title>Node7</title>
<g id="a_node8"><a xlink:href="../../df/d3d/Definitions_8h.html" target="_top" xlink:title="ITStracking/Definitions.h">
<polygon fill="none" stroke="#000000" points="708,-118 708,-137 844,-137 844,-118 708,-118"/>
<text text-anchor="middle" x="776" y="-125" font-family="Helvetica,sans-Serif" font-size="10.00" fill="#000000">ITStracking/Definitions.h</text>
</a>
</g>
</g>
<!-- Node6&#45;&gt;Node7 -->
<g id="edge8" class="edge">
<title>Node6&#45;&gt;Node7</title>
<path fill="none" stroke="#191970" d="M677.5661,-322.4832C748.7043,-314.3758 863.8185,-298.4496 901,-277 934.8649,-257.4638 944.5036,-246.6925 958,-210 962.7562,-197.0692 966.3109,-189.9889 958,-179 944.4187,-161.0423 893.1658,-147.5461 848.4965,-138.8843"/>
<polygon fill="#191970" stroke="#191970" points="848.9684,-135.4117 838.4936,-137.0021 847.6739,-142.291 848.9684,-135.4117"/>
</g>
<!-- Node12 -->
<g id="node13" class="node">
<title>Node12</title>
<g id="a_node13"><a xlink:href="../../dc/d3e/MathUtils_8h.html" target="_top" xlink:title="ITStracking/MathUtils.h">
<polygon fill="none" stroke="#000000" points="433,-252 433,-271 563,-271 563,-252 433,-252"/>
<text text-anchor="middle" x="498" y="-259" font-family="Helvetica,sans-Serif" font-size="10.00" fill="#000000">ITStracking/MathUtils.h</text>
</a>
</g>
</g>
<!-- Node6&#45;&gt;Node12 -->
<g id="edge14" class="edge">
<title>Node6&#45;&gt;Node12</title>
<path fill="none" stroke="#191970" d="M601.6637,-318.9005C581.447,-307.7062 547.8128,-289.0823 524.3576,-276.0947"/>
<polygon fill="#191970" stroke="#191970" points="525.7481,-272.8639 515.3042,-271.0817 522.3571,-278.9878 525.7481,-272.8639"/>
</g>
<!-- Node21 -->
<g id="node22" class="node">
<title>Node21</title>
<g id="a_node22"><a xlink:href="../../dc/ddf/ITS_2tracking_2include_2ITStracking_2IndexTableUtils_8h.html" target="_top" xlink:title="ITStracking/IndexTableUtils.h">
<polygon fill="none" stroke="#000000" points="734,-252 734,-271 892,-271 892,-252 734,-252"/>
<text text-anchor="middle" x="813" y="-259" font-family="Helvetica,sans-Serif" font-size="10.00" fill="#000000">ITStracking/IndexTableUtils.h</text>
</a>
</g>
</g>
<!-- Node6&#45;&gt;Node21 -->
<g id="edge34" class="edge">
<title>Node6&#45;&gt;Node21</title>
<path fill="none" stroke="#191970" d="M646.7955,-318.9005C680.6496,-307.2086 737.9707,-287.4122 775.6547,-274.3976"/>
<polygon fill="#191970" stroke="#191970" points="776.9465,-277.6544 785.2561,-271.0817 774.6613,-271.0379 776.9465,-277.6544"/>
</g>
<!-- Node7&#45;&gt;Node1 -->
<g id="edge9" class="edge">
<title>Node7&#45;&gt;Node1</title>
<path fill="none" stroke="#191970" d="M732.8675,-117.9581C676.3418,-105.4533 578.5761,-83.8253 528.8989,-72.8356"/>
<polygon fill="#191970" stroke="#191970" points="529.5804,-69.4018 519.0604,-70.659 528.0683,-76.2365 529.5804,-69.4018"/>
</g>
<!-- Node8 -->
<g id="node9" class="node">
<title>Node8</title>
<g id="a_node9"><a xlink:href="../../df/d21/GPUCommonDef_8h.html" target="_top" xlink:title="GPUCommonDef.h">
<polygon fill="none" stroke="#000000" points="591.5,-56.5 591.5,-75.5 698.5,-75.5 698.5,-56.5 591.5,-56.5"/>
<text text-anchor="middle" x="645" y="-63.5" font-family="Helvetica,sans-Serif" font-size="10.00" fill="#000000">GPUCommonDef.h</text>
</a>
</g>
</g>
<!-- Node7&#45;&gt;Node8 -->
<g id="edge10" class="edge">
<title>Node7&#45;&gt;Node8</title>
<path fill="none" stroke="#191970" d="M755.5313,-117.8906C733.8048,-107.6908 699.2665,-91.4763 674.5815,-79.8875"/>
<polygon fill="#191970" stroke="#191970" points="675.8645,-76.6234 665.325,-75.5419 672.8897,-82.9598 675.8645,-76.6234"/>
</g>
<!-- Node11 -->
<g id="node12" class="node">
<title>Node11</title>
<polygon fill="none" stroke="#bfbfbf" points="749.5,-56.5 749.5,-75.5 802.5,-75.5 802.5,-56.5 749.5,-56.5"/>
<text text-anchor="middle" x="776" y="-63.5" font-family="Helvetica,sans-Serif" font-size="10.00" fill="#000000">cstddef</text>
</g>
<!-- Node7&#45;&gt;Node11 -->
<g id="edge13" class="edge">
<title>Node7&#45;&gt;Node11</title>
<path fill="none" stroke="#191970" d="M776,-117.8906C776,-109.3657 776,-96.6392 776,-85.9235"/>
<polygon fill="#191970" stroke="#191970" points="779.5001,-85.7448 776,-75.7449 772.5001,-85.7449 779.5001,-85.7448"/>
</g>
<!-- Node9 -->
<g id="node10" class="node">
<title>Node9</title>
<g id="a_node10"><a xlink:href="../../d5/d93/GPUCommonDefSettings_8h.html" target="_top" xlink:title="GPUCommonDefSettings.h">
<polygon fill="none" stroke="#000000" points="494,-.5 494,-19.5 642,-19.5 642,-.5 494,-.5"/>
<text text-anchor="middle" x="568" y="-7.5" font-family="Helvetica,sans-Serif" font-size="10.00" fill="#000000">GPUCommonDefSettings.h</text>
</a>
</g>
</g>
<!-- Node8&#45;&gt;Node9 -->
<g id="edge11" class="edge">
<title>Node8&#45;&gt;Node9</title>
<path fill="none" stroke="#191970" d="M631.5876,-56.2455C619.9943,-47.814 603.0252,-35.4729 589.5322,-25.6598"/>
<polygon fill="#191970" stroke="#191970" points="591.4047,-22.6938 581.2587,-19.6427 587.2874,-28.355 591.4047,-22.6938"/>
</g>
<!-- Node10 -->
<g id="node11" class="node">
<title>Node10</title>
<g id="a_node11"><a xlink:href="../../da/d5a/GPUCommonDefAPI_8h.html" target="_top" xlink:title="GPUCommonDefAPI.h">
<polygon fill="none" stroke="#000000" points="660,-.5 660,-19.5 784,-19.5 784,-.5 660,-.5"/>
<text text-anchor="middle" x="722" y="-7.5" font-family="Helvetica,sans-Serif" font-size="10.00" fill="#000000">GPUCommonDefAPI.h</text>
</a>
</g>
</g>
<!-- Node8&#45;&gt;Node10 -->
<g id="edge12" class="edge">
<title>Node8&#45;&gt;Node10</title>
<path fill="none" stroke="#191970" d="M658.4124,-56.2455C670.0057,-47.814 686.9748,-35.4729 700.4678,-25.6598"/>
<polygon fill="#191970" stroke="#191970" points="702.7126,-28.355 708.7413,-19.6427 698.5953,-22.6938 702.7126,-28.355"/>
</g>
<!-- Node12&#45;&gt;Node1 -->
<g id="edge15" class="edge">
<title>Node12&#45;&gt;Node1</title>
<path fill="none" stroke="#191970" d="M498,-251.8051C498,-221.3813 498,-127.3666 498,-85.9452"/>
<polygon fill="#191970" stroke="#191970" points="501.5001,-85.7534 498,-75.7534 494.5001,-85.7534 501.5001,-85.7534"/>
</g>
<!-- Node12&#45;&gt;Node4 -->
<g id="edge17" class="edge">
<title>Node12&#45;&gt;Node4</title>
<path fill="none" stroke="#191970" d="M563.1945,-254.741C652.3981,-245.3696 817.4618,-227.5888 958,-210 983.2755,-206.8367 1011.7046,-202.8977 1033.5959,-199.7822"/>
<polygon fill="#191970" stroke="#191970" points="1034.3713,-203.207 1043.7748,-198.3259 1033.3799,-196.2775 1034.3713,-203.207"/>
</g>
<!-- Node12&#45;&gt;Node8 -->
<g id="edge33" class="edge">
<title>Node12&#45;&gt;Node8</title>
<path fill="none" stroke="#191970" d="M505.2898,-251.8051C528.557,-220.8613 601.2881,-124.1339 631.565,-83.8677"/>
<polygon fill="#191970" stroke="#191970" points="634.4538,-85.8495 637.6662,-75.7534 628.859,-81.6426 634.4538,-85.8495"/>
</g>
<!-- Node13 -->
<g id="node14" class="node">
<title>Node13</title>
<polygon fill="none" stroke="#bfbfbf" points="137.5,-56.5 137.5,-75.5 184.5,-75.5 184.5,-56.5 137.5,-56.5"/>
<text text-anchor="middle" x="161" y="-63.5" font-family="Helvetica,sans-Serif" font-size="10.00" fill="#000000">cmath</text>
</g>
<!-- Node12&#45;&gt;Node13 -->
<g id="edge16" class="edge">
<title>Node12&#45;&gt;Node13</title>
<path fill="none" stroke="#191970" d="M432.6083,-254.666C319.6995,-241.2495 96.4469,-207.0413 57,-143 49.7742,-131.2691 49.482,-123.5459 57,-112 65.2034,-99.4015 100.4537,-85.5127 127.6666,-76.3277"/>
<polygon fill="#191970" stroke="#191970" points="128.86,-79.6197 137.2638,-73.1677 126.6708,-72.9708 128.86,-79.6197"/>
</g>
<!-- Node14 -->
<g id="node15" class="node">
<title>Node14</title>
<polygon fill="none" stroke="#bfbfbf" points="256,-185 256,-204 316,-204 316,-185 256,-185"/>
<text text-anchor="middle" x="286" y="-192" font-family="Helvetica,sans-Serif" font-size="10.00" fill="#000000">iostream</text>
</g>
<!-- Node12&#45;&gt;Node14 -->
<g id="edge18" class="edge">
<title>Node12&#45;&gt;Node14</title>
<path fill="none" stroke="#191970" d="M465.3537,-251.9268C431.4101,-241.8715 376.7964,-225.4079 330,-210 327.4205,-209.1507 324.7619,-208.258 322.0891,-207.3477"/>
<polygon fill="#191970" stroke="#191970" points="323.059,-203.9798 312.4642,-204.0213 320.7724,-210.5959 323.059,-203.9798"/>
</g>
<!-- Node15 -->
<g id="node16" class="node">
<title>Node15</title>
<g id="a_node16"><a xlink:href="../../d9/d52/Common_2MathUtils_2include_2MathUtils_2Utils_8h.html" target="_top" xlink:title="MathUtils/Utils.h">
<polygon fill="none" stroke="#000000" points="372,-185 372,-204 470,-204 470,-185 372,-185"/>
<text text-anchor="middle" x="421" y="-192" font-family="Helvetica,sans-Serif" font-size="10.00" fill="#000000">MathUtils/Utils.h</text>
</a>
</g>
</g>
<!-- Node12&#45;&gt;Node15 -->
<g id="edge19" class="edge">
<title>Node12&#45;&gt;Node15</title>
<path fill="none" stroke="#191970" d="M486.9678,-251.9005C474.6172,-241.1539 454.3977,-223.5603 439.5943,-210.6794"/>
<polygon fill="#191970" stroke="#191970" points="441.8532,-208.0055 432.0118,-204.0817 437.2582,-213.2863 441.8532,-208.0055"/>
</g>
<!-- Node16 -->
<g id="node17" class="node">
<title>Node16</title>
<g id="a_node17"><a xlink:href="../../d6/da2/GPUCommonMath_8h.html" target="_top" xlink:title="GPUCommonMath.h">
<polygon fill="none" stroke="#000000" points="66.5,-118 66.5,-137 181.5,-137 181.5,-118 66.5,-118"/>
<text text-anchor="middle" x="124" y="-125" font-family="Helvetica,sans-Serif" font-size="10.00" fill="#000000">GPUCommonMath.h</text>
</a>
</g>
</g>
<!-- Node12&#45;&gt;Node16 -->
<g id="edge32" class="edge">
<title>Node12&#45;&gt;Node16</title>
<path fill="none" stroke="#191970" d="M432.7772,-255.1449C380.8736,-248.4458 307.2137,-235.2163 247,-210 206.8321,-193.1784 165.9775,-162.5056 142.9256,-143.6713"/>
<polygon fill="#191970" stroke="#191970" points="144.929,-140.7853 135.0009,-137.086 140.4551,-146.1691 144.929,-140.7853"/>
</g>
<!-- Node12&#45;&gt;Node19 -->
<g id="edge28" class="edge">
<title>Node12&#45;&gt;Node19</title>
<path fill="none" stroke="#191970" d="M527.8013,-251.9005C564.3302,-240.134 626.3418,-220.1591 666.7308,-207.1492"/>
<polygon fill="#191970" stroke="#191970" points="667.8087,-210.4792 676.254,-204.0817 665.6624,-203.8163 667.8087,-210.4792"/>
</g>
<!-- Node15&#45;&gt;Node1 -->
<g id="edge20" class="edge">
<title>Node15&#45;&gt;Node1</title>
<path fill="none" stroke="#191970" d="M426.7875,-184.8416C439.5523,-163.5393 470.3038,-112.2203 486.9129,-84.5025"/>
<polygon fill="#191970" stroke="#191970" points="490.0075,-86.1474 492.1453,-75.7705 484.003,-82.5493 490.0075,-86.1474"/>
</g>
<!-- Node15&#45;&gt;Node8 -->
<g id="edge22" class="edge">
<title>Node15&#45;&gt;Node8</title>
<path fill="none" stroke="#191970" d="M437.8364,-184.8416C476.7682,-162.508 573.2141,-107.1807 619.4646,-80.6486"/>
<polygon fill="#191970" stroke="#191970" points="621.3413,-83.6071 628.2738,-75.5952 617.8581,-77.5353 621.3413,-83.6071"/>
</g>
<!-- Node15&#45;&gt;Node13 -->
<g id="edge21" class="edge">
<title>Node15&#45;&gt;Node13</title>
<path fill="none" stroke="#191970" d="M382.9265,-184.8881C328.8686,-171.1543 235.6374,-147.1127 229,-143 204.952,-128.0993 184.5977,-102.101 172.5927,-84.4789"/>
<polygon fill="#191970" stroke="#191970" points="175.2261,-82.1125 166.8118,-75.6743 169.3746,-85.9545 175.2261,-82.1125"/>
</g>
<!-- Node15&#45;&gt;Node16 -->
<g id="edge23" class="edge">
<title>Node15&#45;&gt;Node16</title>
<path fill="none" stroke="#191970" d="M382.723,-184.9229C374.5716,-182.9282 366.0079,-180.866 358,-179 324.3688,-171.1632 235.934,-151.8292 177.9286,-139.2077"/>
<polygon fill="#191970" stroke="#191970" points="178.3434,-135.7162 167.828,-137.0108 176.8556,-142.5562 178.3434,-135.7162"/>
</g>
<!-- Node18 -->
<g id="node19" class="node">
<title>Node18</title>
<g id="a_node19"><a xlink:href="../../d6/d84/MathConstants_8h.html" target="_top" xlink:title="useful math constants ">
<polygon fill="none" stroke="#000000" points="238,-118 238,-137 432,-137 432,-118 238,-118"/>
<text text-anchor="middle" x="335" y="-125" font-family="Helvetica,sans-Serif" font-size="10.00" fill="#000000">CommonConstants/MathConstants.h</text>
</a>
</g>
</g>
<!-- Node15&#45;&gt;Node18 -->
<g id="edge27" class="edge">
<title>Node15&#45;&gt;Node18</title>
<path fill="none" stroke="#191970" d="M408.6783,-184.9005C394.7565,-174.0544 371.8824,-156.2339 355.31,-143.3229"/>
<polygon fill="#191970" stroke="#191970" points="357.3385,-140.4664 347.2988,-137.0817 353.0364,-145.9885 357.3385,-140.4664"/>
</g>
<!-- Node16&#45;&gt;Node8 -->
<g id="edge24" class="edge">
<title>Node16&#45;&gt;Node8</title>
<path fill="none" stroke="#191970" d="M181.7148,-118.5942C197.067,-116.331 213.6489,-113.9811 229,-112 353.569,-95.9238 499.5793,-80.5851 581.2815,-72.3174"/>
<polygon fill="#191970" stroke="#191970" points="581.807,-75.7823 591.4051,-71.2959 581.1042,-68.8176 581.807,-75.7823"/>
</g>
<!-- Node16&#45;&gt;Node13 -->
<g id="edge25" class="edge">
<title>Node16&#45;&gt;Node13</title>
<path fill="none" stroke="#191970" d="M129.7813,-117.8906C135.126,-109.0068 143.2159,-95.5601 149.8211,-84.5811"/>
<polygon fill="#191970" stroke="#191970" points="152.9811,-86.118 155.1372,-75.7449 146.9829,-82.5093 152.9811,-86.118"/>
</g>
<!-- Node17 -->
<g id="node18" class="node">
<title>Node17</title>
<polygon fill="none" stroke="#bfbfbf" points="55,-56.5 55,-75.5 119,-75.5 119,-56.5 55,-56.5"/>
<text text-anchor="middle" x="87" y="-63.5" font-family="Helvetica,sans-Serif" font-size="10.00" fill="#000000">algorithm</text>
</g>
<!-- Node16&#45;&gt;Node17 -->
<g id="edge26" class="edge">
<title>Node16&#45;&gt;Node17</title>
<path fill="none" stroke="#191970" d="M118.2188,-117.8906C112.874,-109.0068 104.7841,-95.5601 98.1789,-84.5811"/>
<polygon fill="#191970" stroke="#191970" points="101.0171,-82.5093 92.8628,-75.7449 95.0189,-86.118 101.0171,-82.5093"/>
</g>
<!-- Node19&#45;&gt;Node2 -->
<g id="edge30" class="edge">
<title>Node19&#45;&gt;Node2</title>
<path fill="none" stroke="#191970" d="M743.5444,-184.9717C795.1102,-171.8849 887.0618,-148.5487 936.4434,-136.0163"/>
<polygon fill="#191970" stroke="#191970" points="937.4731,-139.366 946.3049,-133.5135 935.7511,-132.5811 937.4731,-139.366"/>
</g>
<!-- Node19&#45;&gt;Node7 -->
<g id="edge31" class="edge">
<title>Node19&#45;&gt;Node7</title>
<path fill="none" stroke="#191970" d="M716.0293,-184.9005C727.1531,-174.2535 745.2987,-156.8856 758.721,-144.0385"/>
<polygon fill="#191970" stroke="#191970" points="761.1852,-146.5247 765.9893,-137.0817 756.345,-141.4678 761.1852,-146.5247"/>
</g>
<!-- Node20 -->
<g id="node21" class="node">
<title>Node20</title>
<polygon fill="none" stroke="#bfbfbf" points="640,-118 640,-137 690,-137 690,-118 640,-118"/>
<text text-anchor="middle" x="665" y="-125" font-family="Helvetica,sans-Serif" font-size="10.00" fill="#000000">climits</text>
</g>
<!-- Node19&#45;&gt;Node20 -->
<g id="edge29" class="edge">
<title>Node19&#45;&gt;Node20</title>
<path fill="none" stroke="#191970" d="M700.1257,-184.9005C693.9148,-174.751 683.9665,-158.4941 676.2401,-145.8679"/>
<polygon fill="#191970" stroke="#191970" points="679.0685,-143.7844 670.8634,-137.0817 673.0977,-147.4382 679.0685,-143.7844"/>
</g>
<!-- Node21&#45;&gt;Node1 -->
<g id="edge35" class="edge">
<title>Node21&#45;&gt;Node1</title>
<path fill="none" stroke="#191970" d="M747.5799,-251.9771C711.2593,-244.557 666.4046,-231.7274 631,-210 576.5877,-176.6079 530.5027,-114.8296 509.7589,-84.198"/>
<polygon fill="#191970" stroke="#191970" points="512.6014,-82.1516 504.1535,-75.7576 506.7701,-86.0242 512.6014,-82.1516"/>
</g>
<!-- Node21&#45;&gt;Node2 -->
<g id="edge37" class="edge">
<title>Node21&#45;&gt;Node2</title>
<path fill="none" stroke="#191970" d="M821.5695,-251.7641C835.9369,-235.7069 866.1526,-203.0562 895,-179 910.9726,-165.6802 930.3556,-152.4381 945.4152,-142.7174"/>
<polygon fill="#191970" stroke="#191970" points="947.606,-145.4719 954.1641,-137.1508 943.8482,-139.566 947.606,-145.4719"/>
</g>
<!-- Node21&#45;&gt;Node3 -->
<g id="edge36" class="edge">
<title>Node21&#45;&gt;Node3</title>
<path fill="none" stroke="#191970" d="M829.3334,-251.9005C848.2959,-240.7559 879.7875,-222.2477 901.872,-209.2682"/>
<polygon fill="#191970" stroke="#191970" points="903.849,-212.1661 910.6969,-204.0817 900.3021,-206.1311 903.849,-212.1661"/>
</g>
<!-- Node21&#45;&gt;Node7 -->
<g id="edge39" class="edge">
<title>Node21&#45;&gt;Node7</title>
<path fill="none" stroke="#191970" d="M810.3391,-251.8631C804.2856,-229.9398 789.3879,-175.9858 781.3492,-146.8727"/>
<polygon fill="#191970" stroke="#191970" points="784.6723,-145.7573 778.6368,-137.0496 777.9248,-147.6205 784.6723,-145.7573"/>
</g>
<!-- Node21&#45;&gt;Node8 -->
<g id="edge41" class="edge">
<title>Node21&#45;&gt;Node8</title>
<path fill="none" stroke="#191970" d="M817.7191,-251.737C831.6981,-222.1592 870.832,-134.2064 853,-112 843.8388,-100.5915 766.5229,-85.71 708.8137,-76.0086"/>
<polygon fill="#191970" stroke="#191970" points="709.0885,-72.5064 698.6499,-74.3191 707.9406,-79.4116 709.0885,-72.5064"/>
</g>
<!-- Node21&#45;&gt;Node16 -->
<g id="edge40" class="edge">
<title>Node21&#45;&gt;Node16</title>
<path fill="none" stroke="#191970" d="M733.6552,-254.8636C613.6265,-244.4564 396.2838,-224.0377 363,-210 342.9172,-201.5299 344.4566,-188.8236 325,-179 311.5666,-172.2175 230.0319,-152.3472 175.0233,-139.3646"/>
<polygon fill="#191970" stroke="#191970" points="175.619,-135.9092 165.0831,-137.0253 174.0154,-142.723 175.619,-135.9092"/>
</g>
<!-- Node21&#45;&gt;Node19 -->
<g id="edge38" class="edge">
<title>Node21&#45;&gt;Node19</title>
<path fill="none" stroke="#191970" d="M797.6695,-251.9005C779.9509,-240.8057 750.5772,-222.4128 729.8632,-209.4424"/>
<polygon fill="#191970" stroke="#191970" points="731.6351,-206.4224 721.3021,-204.0817 727.9201,-212.3553 731.6351,-206.4224"/>
</g>
<!-- Node22&#45;&gt;Node1 -->
<g id="edge60" class="edge">
<title>Node22&#45;&gt;Node1</title>
<path fill="none" stroke="#191970" d="M1791.6275,-313.2802C1786.7569,-303.082 1780.3157,-289.3172 1775,-277 1756.425,-233.9593 1773.5574,-207.0531 1736,-179 1473.5522,17.0326 1328.3032,-140.8768 1002,-112 815.3782,-95.4846 768.3774,-95.0763 582,-76 564.5502,-74.214 545.0985,-71.9178 529.3112,-69.9762"/>
<polygon fill="#191970" stroke="#191970" points="529.392,-66.4594 519.0366,-68.6994 528.5286,-73.406 529.392,-66.4594"/>
</g>
<!-- Node23 -->
<g id="node24" class="node">
<title>Node23</title>
<g id="a_node24"><a xlink:href="../../dd/d76/Cartesian3D_8h.html" target="_top" xlink:title="MathUtils/Cartesian3D.h">
<polygon fill="none" stroke="#000000" points="2235.5,-252 2235.5,-271 2370.5,-271 2370.5,-252 2235.5,-252"/>
<text text-anchor="middle" x="2303" y="-259" font-family="Helvetica,sans-Serif" font-size="10.00" fill="#000000">MathUtils/Cartesian3D.h</text>
</a>
</g>
</g>
<!-- Node22&#45;&gt;Node23 -->
<g id="edge44" class="edge">
<title>Node22&#45;&gt;Node23</title>
<path fill="none" stroke="#191970" d="M1875.273,-318.3605C1969.7949,-305.7951 2129.9978,-284.4983 2225.2143,-271.8406"/>
<polygon fill="#191970" stroke="#191970" points="2225.9059,-275.2795 2235.3574,-270.4922 2224.9834,-268.3406 2225.9059,-275.2795"/>
</g>
<!-- Node31 -->
<g id="node32" class="node">
<title>Node31</title>
<polygon fill="none" stroke="#bfbfbf" points="3058.5,-185 3058.5,-204 3107.5,-204 3107.5,-185 3058.5,-185"/>
<text text-anchor="middle" x="3083" y="-192" font-family="Helvetica,sans-Serif" font-size="10.00" fill="#000000">iosfwd</text>
</g>
<!-- Node22&#45;&gt;Node31 -->
<g id="edge63" class="edge">
<title>Node22&#45;&gt;Node31</title>
<path fill="none" stroke="#191970" d="M1875.3161,-324.7633C2111.2503,-312.6634 2826.434,-271.7271 3050,-210 3051.9677,-209.4567 3053.9633,-208.8043 3055.9487,-208.0789"/>
<polygon fill="#191970" stroke="#191970" points="3057.7534,-211.1167 3065.6121,-204.0109 3055.0374,-204.6651 3057.7534,-211.1167"/>
</g>
<!-- Node35 -->
<g id="node36" class="node">
<title>Node35</title>
<g id="a_node36"><a xlink:href="../../df/d5d/common_2include_2CommonDataFormat_2TimeStamp_8h.html" target="_top" xlink:title="CommonDataFormat/TimeStamp.h">
<polygon fill="none" stroke="#000000" points="1540.5,-252 1540.5,-271 1727.5,-271 1727.5,-252 1540.5,-252"/>
<text text-anchor="middle" x="1634" y="-259" font-family="Helvetica,sans-Serif" font-size="10.00" fill="#000000">CommonDataFormat/TimeStamp.h</text>
</a>
</g>
</g>
<!-- Node22&#45;&gt;Node35 -->
<g id="edge56" class="edge">
<title>Node22&#45;&gt;Node35</title>
<path fill="none" stroke="#191970" d="M1761.9708,-313.4639C1733.5377,-301.9183 1694.6254,-286.1176 1667.1966,-274.9798"/>
<polygon fill="#191970" stroke="#191970" points="1668.2335,-271.6234 1657.6514,-271.1039 1665.5999,-278.1091 1668.2335,-271.6234"/>
</g>
<!-- Node37 -->
<g id="node38" class="node">
<title>Node37</title>
<polygon fill="none" stroke="#bfbfbf" points="1833,-252 1833,-271 1889,-271 1889,-252 1833,-252"/>
<text text-anchor="middle" x="1861" y="-259" font-family="Helvetica,sans-Serif" font-size="10.00" fill="#000000">iomanip</text>
</g>
<!-- Node22&#45;&gt;Node37 -->
<g id="edge61" class="edge">
<title>Node22&#45;&gt;Node37</title>
<path fill="none" stroke="#191970" d="M1813.0688,-313.2967C1822.6349,-302.9591 1835.3038,-289.2684 1845.2143,-278.5588"/>
<polygon fill="#191970" stroke="#191970" points="1847.935,-280.7718 1852.1581,-271.055 1842.7973,-276.0175 1847.935,-280.7718"/>
</g>
<!-- Node38 -->
<g id="node39" class="node">
<title>Node38</title>
<polygon fill="none" stroke="#bfbfbf" points="1783.5,-252 1783.5,-271 1814.5,-271 1814.5,-252 1783.5,-252"/>
<text text-anchor="middle" x="1799" y="-259" font-family="Helvetica,sans-Serif" font-size="10.00" fill="#000000">ios</text>
</g>
<!-- Node22&#45;&gt;Node38 -->
<g id="edge62" class="edge">
<title>Node22&#45;&gt;Node38</title>
<path fill="none" stroke="#191970" d="M1799,-313.2967C1799,-303.7699 1799,-291.3954 1799,-281.1306"/>
<polygon fill="#191970" stroke="#191970" points="1802.5001,-281.0549 1799,-271.055 1795.5001,-281.055 1802.5001,-281.0549"/>
</g>
<!-- Node24 -->
<g id="node25" class="node">
<title>Node24</title>
<polygon fill="none" stroke="#bfbfbf" points="2305,-179.5 2305,-209.5 2469,-209.5 2469,-179.5 2305,-179.5"/>
<text text-anchor="start" x="2313" y="-197.5" font-family="Helvetica,sans-Serif" font-size="10.00" fill="#000000">Math/GenVector/Displacement</text>
<text text-anchor="middle" x="2387" y="-186.5" font-family="Helvetica,sans-Serif" font-size="10.00" fill="#000000">Vector3D.h</text>
</g>
<!-- Node23&#45;&gt;Node24 -->
<g id="edge45" class="edge">
<title>Node23&#45;&gt;Node24</title>
<path fill="none" stroke="#191970" d="M2315.0352,-251.9005C2326.7478,-242.5583 2344.9477,-228.0417 2360.1137,-215.945"/>
<polygon fill="#191970" stroke="#191970" points="2362.5314,-218.4936 2368.1667,-209.5218 2358.1665,-213.0212 2362.5314,-218.4936"/>
</g>
<!-- Node25 -->
<g id="node26" class="node">
<title>Node25</title>
<polygon fill="none" stroke="#bfbfbf" points="2487.5,-185 2487.5,-204 2676.5,-204 2676.5,-185 2487.5,-185"/>
<text text-anchor="middle" x="2582" y="-192" font-family="Helvetica,sans-Serif" font-size="10.00" fill="#000000">Math/GenVector/PositionVector3D.h</text>
</g>
<!-- Node23&#45;&gt;Node25 -->
<g id="edge46" class="edge">
<title>Node23&#45;&gt;Node25</title>
<path fill="none" stroke="#191970" d="M2342.6776,-251.9717C2392.5307,-239.9998 2478.102,-219.4504 2532.2736,-206.4415"/>
<polygon fill="#191970" stroke="#191970" points="2533.1013,-209.8423 2542.0076,-204.1039 2531.4667,-203.0358 2533.1013,-209.8423"/>
</g>
<!-- Node26 -->
<g id="node27" class="node">
<title>Node26</title>
<polygon fill="none" stroke="#bfbfbf" points="2695,-185 2695,-204 2855,-204 2855,-185 2695,-185"/>
<text text-anchor="middle" x="2775" y="-192" font-family="Helvetica,sans-Serif" font-size="10.00" fill="#000000">Math/GenVector/Rotation3D.h</text>
</g>
<!-- Node23&#45;&gt;Node26 -->
<g id="edge47" class="edge">
<title>Node23&#45;&gt;Node26</title>
<path fill="none" stroke="#191970" d="M2370.5693,-253.2186C2447.1798,-243.6423 2575.7641,-227.0041 2686,-210 2694.5593,-208.6797 2703.5669,-207.2079 2712.4312,-205.7112"/>
<polygon fill="#191970" stroke="#191970" points="2713.0789,-209.1514 2722.3469,-204.0177 2711.9004,-202.2513 2713.0789,-209.1514"/>
</g>
<!-- Node27 -->
<g id="node28" class="node">
<title>Node27</title>
<polygon fill="none" stroke="#bfbfbf" points="2873,-185 2873,-204 3041,-204 3041,-185 2873,-185"/>
<text text-anchor="middle" x="2957" y="-192" font-family="Helvetica,sans-Serif" font-size="10.00" fill="#000000">Math/GenVector/Transform3D.h</text>
</g>
<!-- Node23&#45;&gt;Node27 -->
<g id="edge48" class="edge">
<title>Node23&#45;&gt;Node27</title>
<path fill="none" stroke="#191970" d="M2370.533,-256.9137C2476.091,-249.3818 2686.4883,-232.9089 2864,-210 2873.7403,-208.743 2884.0235,-207.2237 2894.0601,-205.6342"/>
<polygon fill="#191970" stroke="#191970" points="2894.6726,-209.0807 2903.9852,-204.0284 2893.5545,-202.1706 2894.6726,-209.0807"/>
</g>
<!-- Node28 -->
<g id="node29" class="node">
<title>Node28</title>
<polygon fill="none" stroke="#bfbfbf" points="1859.5,-185 1859.5,-204 2032.5,-204 2032.5,-185 1859.5,-185"/>
<text text-anchor="middle" x="1946" y="-192" font-family="Helvetica,sans-Serif" font-size="10.00" fill="#000000">Math/GenVector/Translation3D.h</text>
</g>
<!-- Node23&#45;&gt;Node28 -->
<g id="edge49" class="edge">
<title>Node23&#45;&gt;Node28</title>
<path fill="none" stroke="#191970" d="M2252.2297,-251.9717C2187.5534,-239.8335 2075.8951,-218.8781 2006.7642,-205.9039"/>
<polygon fill="#191970" stroke="#191970" points="2007.3578,-202.4543 1996.8838,-204.0496 2006.0666,-209.3342 2007.3578,-202.4543"/>
</g>
<!-- Node29 -->
<g id="node30" class="node">
<title>Node29</title>
<polygon fill="none" stroke="#bfbfbf" points="1743.5,-118 1743.5,-137 1802.5,-137 1802.5,-118 1743.5,-118"/>
<text text-anchor="middle" x="1773" y="-125" font-family="Helvetica,sans-Serif" font-size="10.00" fill="#000000">Rtypes.h</text>
</g>
<!-- Node23&#45;&gt;Node29 -->
<g id="edge50" class="edge">
<title>Node23&#45;&gt;Node29</title>
<path fill="none" stroke="#191970" d="M2235.274,-259.4363C2126.101,-255.176 1916.7921,-242.8788 1851,-210 1821.7752,-195.3952 1797.6962,-165.118 1784.3508,-145.5854"/>
<polygon fill="#191970" stroke="#191970" points="1787.2635,-143.6447 1778.84,-137.2185 1781.4176,-147.4951 1787.2635,-143.6447"/>
</g>
<!-- Node30 -->
<g id="node31" class="node">
<title>Node30</title>
<polygon fill="none" stroke="#bfbfbf" points="2051,-185 2051,-204 2133,-204 2133,-185 2051,-185"/>
<text text-anchor="middle" x="2092" y="-192" font-family="Helvetica,sans-Serif" font-size="10.00" fill="#000000">TGeoMatrix.h</text>
</g>
<!-- Node23&#45;&gt;Node30 -->
<g id="edge51" class="edge">
<title>Node23&#45;&gt;Node30</title>
<path fill="none" stroke="#191970" d="M2272.7688,-251.9005C2235.7131,-240.134 2172.8071,-220.1591 2131.8356,-207.1492"/>
<polygon fill="#191970" stroke="#191970" points="2132.7654,-203.7723 2122.1751,-204.0817 2130.6468,-210.444 2132.7654,-203.7723"/>
</g>
<!-- Node23&#45;&gt;Node31 -->
<g id="edge52" class="edge">
<title>Node23&#45;&gt;Node31</title>
<path fill="none" stroke="#191970" d="M2370.5462,-260.0253C2529.3494,-256.046 2922.6019,-243.0698 3050,-210 3051.9758,-209.4871 3053.9776,-208.8575 3055.9673,-208.1486"/>
<polygon fill="#191970" stroke="#191970" points="3057.7561,-211.195 3065.6408,-204.1182 3055.0638,-204.7335 3057.7561,-211.195"/>
</g>
<!-- Node32 -->
<g id="node33" class="node">
<title>Node32</title>
<g id="a_node33"><a xlink:href="../../d2/dd0/Cartesian2D_8h.html" target="_top" xlink:title="MathUtils/Cartesian2D.h">
<polygon fill="none" stroke="#000000" points="2151.5,-185 2151.5,-204 2286.5,-204 2286.5,-185 2151.5,-185"/>
<text text-anchor="middle" x="2219" y="-192" font-family="Helvetica,sans-Serif" font-size="10.00" fill="#000000">MathUtils/Cartesian2D.h</text>
</a>
</g>
</g>
<!-- Node23&#45;&gt;Node32 -->
<g id="edge53" class="edge">
<title>Node23&#45;&gt;Node32</title>
<path fill="none" stroke="#191970" d="M2290.9648,-251.9005C2277.3668,-241.0544 2255.0246,-223.2339 2238.8376,-210.3229"/>
<polygon fill="#191970" stroke="#191970" points="2241.0131,-207.5811 2231.0128,-204.0817 2236.6481,-213.0535 2241.0131,-207.5811"/>
</g>
<!-- Node33 -->
<g id="node34" class="node">
<title>Node33</title>
<polygon fill="none" stroke="#bfbfbf" points="2234,-112.5 2234,-142.5 2398,-142.5 2398,-112.5 2234,-112.5"/>
<text text-anchor="start" x="2242" y="-130.5" font-family="Helvetica,sans-Serif" font-size="10.00" fill="#000000">Math/GenVector/Displacement</text>
<text text-anchor="middle" x="2316" y="-119.5" font-family="Helvetica,sans-Serif" font-size="10.00" fill="#000000">Vector2D.h</text>
</g>
<!-- Node32&#45;&gt;Node33 -->
<g id="edge54" class="edge">
<title>Node32&#45;&gt;Node33</title>
<path fill="none" stroke="#191970" d="M2232.8977,-184.9005C2246.6735,-175.3853 2268.2205,-160.5023 2285.9221,-148.2755"/>
<polygon fill="#191970" stroke="#191970" points="2288.0132,-151.0849 2294.2521,-142.5218 2284.0349,-145.3253 2288.0132,-151.0849"/>
</g>
<!-- Node34 -->
<g id="node35" class="node">
<title>Node34</title>
<polygon fill="none" stroke="#bfbfbf" points="2026.5,-118 2026.5,-137 2215.5,-137 2215.5,-118 2026.5,-118"/>
<text text-anchor="middle" x="2121" y="-125" font-family="Helvetica,sans-Serif" font-size="10.00" fill="#000000">Math/GenVector/PositionVector2D.h</text>
</g>
<!-- Node32&#45;&gt;Node34 -->
<g id="edge55" class="edge">
<title>Node32&#45;&gt;Node34</title>
<path fill="none" stroke="#191970" d="M2204.959,-184.9005C2188.8762,-173.9052 2162.3094,-155.7422 2143.3684,-142.7927"/>
<polygon fill="#191970" stroke="#191970" points="2145.2455,-139.8362 2135.015,-137.0817 2141.2948,-145.6148 2145.2455,-139.8362"/>
</g>
<!-- Node35&#45;&gt;Node8 -->
<g id="edge59" class="edge">
<title>Node35&#45;&gt;Node8</title>
<path fill="none" stroke="#191970" d="M1662.9261,-251.838C1726.4971,-229.2185 1868.3871,-170.3125 1812,-112 1770.5773,-69.1629 799.4464,-80.1217 740,-76 729.9492,-75.3031 719.3189,-74.3739 708.95,-73.3618"/>
<polygon fill="#191970" stroke="#191970" points="709.0003,-69.8492 698.6994,-72.3276 708.2976,-76.8138 709.0003,-69.8492"/>
</g>
<!-- Node36 -->
<g id="node37" class="node">
<title>Node36</title>
<g id="a_node37"><a xlink:href="../../d2/d45/GPUCommonRtypes_8h.html" target="_top" xlink:title="GPUCommonRtypes.h">
<polygon fill="none" stroke="#000000" points="1601.5,-185 1601.5,-204 1726.5,-204 1726.5,-185 1601.5,-185"/>
<text text-anchor="middle" x="1664" y="-192" font-family="Helvetica,sans-Serif" font-size="10.00" fill="#000000">GPUCommonRtypes.h</text>
</a>
</g>
</g>
<!-- Node35&#45;&gt;Node36 -->
<g id="edge57" class="edge">
<title>Node35&#45;&gt;Node36</title>
<path fill="none" stroke="#191970" d="M1638.2983,-251.9005C1642.7983,-241.8505 1649.9796,-225.8122 1655.6088,-213.2403"/>
<polygon fill="#191970" stroke="#191970" points="1658.8174,-214.6389 1659.7097,-204.0817 1652.4286,-211.7782 1658.8174,-214.6389"/>
</g>
<!-- Node36&#45;&gt;Node29 -->
<g id="edge58" class="edge">
<title>Node36&#45;&gt;Node29</title>
<path fill="none" stroke="#191970" d="M1679.617,-184.9005C1697.6669,-173.8057 1727.5896,-155.4128 1748.6908,-142.4424"/>
<polygon fill="#191970" stroke="#191970" points="1750.7255,-145.3001 1757.4119,-137.0817 1747.0598,-139.3366 1750.7255,-145.3001"/>
</g>
<!-- Node39&#45;&gt;Node36 -->
<g id="edge65" class="edge">
<title>Node39&#45;&gt;Node36</title>
<path fill="none" stroke="#191970" d="M1399.8561,-313.4439C1431.1243,-296.1787 1484.5501,-267.4926 1532,-246 1563.6914,-231.6452 1600.655,-217.4327 1627.3924,-207.5866"/>
<polygon fill="#191970" stroke="#191970" points="1628.9163,-210.7562 1637.1068,-204.0356 1626.5129,-204.1816 1628.9163,-210.7562"/>
</g>
<!-- Node40&#45;&gt;Node2 -->
<g id="edge75" class="edge">
<title>Node40&#45;&gt;Node2</title>
<path fill="none" stroke="#191970" d="M1261.6817,-246.4714C1246.4507,-236.4676 1226.2596,-222.8485 1209,-210 1191.5166,-196.9849 1190.4566,-188.8236 1171,-179 1116.126,-151.2942 1045.0971,-137.6417 1003.8328,-131.6177"/>
<polygon fill="#191970" stroke="#191970" points="1004.1513,-128.1283 993.7638,-130.2137 1003.1846,-135.0612 1004.1513,-128.1283"/>
</g>
<!-- Node40&#45;&gt;Node4 -->
<g id="edge69" class="edge">
<title>Node40&#45;&gt;Node4</title>
<path fill="none" stroke="#191970" d="M1224.7479,-246.4938C1189.4658,-237.1551 1144.2669,-224.2349 1105,-210 1103.3678,-209.4083 1101.7042,-208.7759 1100.0327,-208.1174"/>
<polygon fill="#191970" stroke="#191970" points="1101.1119,-204.7754 1090.535,-204.1599 1098.4195,-211.237 1101.1119,-204.7754"/>
</g>
<!-- Node40&#45;&gt;Node5 -->
<g id="edge71" class="edge">
<title>Node40&#45;&gt;Node5</title>
<path fill="none" stroke="#191970" d="M1252.0103,-246.4639C1226.9012,-235.0196 1192.6192,-219.3945 1168.2205,-208.274"/>
<polygon fill="#191970" stroke="#191970" points="1169.6223,-205.0665 1159.0713,-204.1039 1166.7191,-211.4361 1169.6223,-205.0665"/>
</g>
<!-- Node40&#45;&gt;Node36 -->
<g id="edge67" class="edge">
<title>Node40&#45;&gt;Node36</title>
<path fill="none" stroke="#191970" d="M1348.6528,-251.6944C1410.8476,-241.9079 1508.134,-226.0529 1592,-210 1598.2635,-208.8011 1604.8193,-207.481 1611.3158,-206.1325"/>
<polygon fill="#191970" stroke="#191970" points="1612.3612,-209.4892 1621.4251,-204.0033 1610.9184,-202.6395 1612.3612,-209.4892"/>
</g>
<!-- Node41 -->
<g id="node42" class="node">
<title>Node41</title>
<polygon fill="none" stroke="#bfbfbf" points="1218,-185 1218,-204 1268,-204 1268,-185 1218,-185"/>
<text text-anchor="middle" x="1243" y="-192" font-family="Helvetica,sans-Serif" font-size="10.00" fill="#000000">cstdint</text>
</g>
<!-- Node40&#45;&gt;Node41 -->
<g id="edge68" class="edge">
<title>Node40&#45;&gt;Node41</title>
<path fill="none" stroke="#191970" d="M1275.4695,-246.2967C1269.2434,-236.3645 1261.077,-223.3371 1254.4918,-212.8321"/>
<polygon fill="#191970" stroke="#191970" points="1257.2666,-210.6689 1248.9897,-204.055 1251.3356,-214.3868 1257.2666,-210.6689"/>
</g>
<!-- Node42 -->
<g id="node43" class="node">
<title>Node42</title>
<polygon fill="none" stroke="#bfbfbf" points="1286.5,-185 1286.5,-204 1351.5,-204 1351.5,-185 1286.5,-185"/>
<text text-anchor="middle" x="1319" y="-192" font-family="Helvetica,sans-Serif" font-size="10.00" fill="#000000">stdexcept</text>
</g>
<!-- Node40&#45;&gt;Node42 -->
<g id="edge70" class="edge">
<title>Node40&#45;&gt;Node42</title>
<path fill="none" stroke="#191970" d="M1292.7151,-246.2967C1297.7039,-236.4658 1304.2315,-223.6026 1309.5336,-213.1545"/>
<polygon fill="#191970" stroke="#191970" points="1312.747,-214.5563 1314.1512,-204.055 1306.5047,-211.3886 1312.747,-214.5563"/>
</g>
<!-- Node43 -->
<g id="node44" class="node">
<title>Node43</title>
<polygon fill="none" stroke="#bfbfbf" points="1369.5,-185 1369.5,-204 1438.5,-204 1438.5,-185 1369.5,-185"/>
<text text-anchor="middle" x="1404" y="-192" font-family="Helvetica,sans-Serif" font-size="10.00" fill="#000000">type_traits</text>
</g>
<!-- Node40&#45;&gt;Node43 -->
<g id="edge72" class="edge">
<title>Node40&#45;&gt;Node43</title>
<path fill="none" stroke="#191970" d="M1311.7059,-246.4639C1331.5827,-235.2728 1358.5601,-220.0838 1378.2132,-209.0186"/>
<polygon fill="#191970" stroke="#191970" points="1379.9456,-212.0599 1386.9423,-204.1039 1376.5113,-205.9602 1379.9456,-212.0599"/>
</g>
<!-- Node44 -->
<g id="node45" class="node">
<title>Node44</title>
<polygon fill="none" stroke="#bfbfbf" points="1457,-185 1457,-204 1507,-204 1507,-185 1457,-185"/>
<text text-anchor="middle" x="1482" y="-192" font-family="Helvetica,sans-Serif" font-size="10.00" fill="#000000">cstring</text>
</g>
<!-- Node40&#45;&gt;Node44 -->
<g id="edge73" class="edge">
<title>Node40&#45;&gt;Node44</title>
<path fill="none" stroke="#191970" d="M1338.4176,-246.411C1370.5161,-236.9033 1411.9868,-223.8391 1448,-210 1449.582,-209.3921 1451.1952,-208.7468 1452.8168,-208.0781"/>
<polygon fill="#191970" stroke="#191970" points="1454.2479,-211.2726 1462.0363,-204.0899 1451.4686,-204.8479 1454.2479,-211.2726"/>
</g>
<!-- Node45 -->
<g id="node46" class="node">
<title>Node45</title>
<polygon fill="none" stroke="#bfbfbf" points="1525,-185 1525,-204 1583,-204 1583,-185 1525,-185"/>
<text text-anchor="middle" x="1554" y="-192" font-family="Helvetica,sans-Serif" font-size="10.00" fill="#000000">memory</text>
</g>
<!-- Node40&#45;&gt;Node45 -->
<g id="edge74" class="edge">
<title>Node40&#45;&gt;Node45</title>
<path fill="none" stroke="#191970" d="M1348.5003,-250.3257C1395.3342,-241.3669 1460.3176,-227.4277 1516,-210 1518.1546,-209.3256 1520.3581,-208.5807 1522.5653,-207.7931"/>
<polygon fill="#191970" stroke="#191970" points="1524.0261,-210.9821 1532.1259,-204.1524 1521.5349,-204.4403 1524.0261,-210.9821"/>
</g>
</g>
</svg>
