<?xml version="1.0" encoding="UTF-8" standalone="no"?>
<!DOCTYPE svg PUBLIC "-//W3C//DTD SVG 1.1//EN"
 "http://www.w3.org/Graphics/SVG/1.1/DTD/svg11.dtd">
<!-- Generated by graphviz version 2.40.1 (20161225.0304)
 -->
<!-- Title: /home/travis/build/AliceO2Group/AliceO2/Detectors/ITSMFT/MFT/tracking/include/MFTTracking/TrackFitter.h Pages: 1 -->
<!--zoomable 441 -->
<svg id="main" version="1.1" xmlns="http://www.w3.org/2000/svg" xmlns:xlink="http://www.w3.org/1999/xlink" xml:space="preserve" onload="init(evt)">
<style type="text/css"><![CDATA[
.edge:hover path { stroke: red; }
.edge:hover polygon { stroke: red; fill: red; }
]]></style>
<script type="text/javascript"><![CDATA[
var edges = document.getElementsByTagName('g');
if (edges && edges.length) {
  for (var i=0;i<edges.length;i++) {
    if (edges[i].id.substr(0,4)=='edge') {
      edges[i].setAttribute('class','edge');
    }
  }
}
]]></script>
        <defs>
                <circle id="rim" cx="0" cy="0" r="7"/>
                <circle id="rim2" cx="0" cy="0" r="3.5"/>
                <g id="zoomPlus">
                        <use xlink:href="#rim" fill="#404040">
                                <set attributeName="fill" to="#808080" begin="zoomplus.mouseover" end="zoomplus.mouseout"/>
                        </use>
                        <path d="M-4,0h8M0,-4v8" fill="none" stroke="white" stroke-width="1.5" pointer-events="none"/>
                </g>
                <g id="zoomMin">
                        <use xlink:href="#rim" fill="#404040">
                                <set attributeName="fill" to="#808080" begin="zoomminus.mouseover" end="zoomminus.mouseout"/>
                        </use>
                        <path d="M-4,0h8" fill="none" stroke="white" stroke-width="1.5" pointer-events="none"/>
                </g>
                <g id="dirArrow">
                        <path fill="none" stroke="white" stroke-width="1.5" d="M0,-3.0v7 M-2.5,-0.5L0,-3.0L2.5,-0.5"/>
                </g>
               <g id="resetDef">
                       <use xlink:href="#rim2" fill="#404040">
                               <set attributeName="fill" to="#808080" begin="reset.mouseover" end="reset.mouseout"/>
                       </use>
               </g>
        </defs>

<script type="text/javascript">
var viewWidth = 1654;
var viewHeight = 441;
var sectionId = 'dynsection-0';
</script>
<script xlink:href="../../svgpan.js"/>
<svg id="graph" class="graph">
<g id="viewport">
<title>/home/travis/build/AliceO2Group/AliceO2/Detectors/ITSMFT/MFT/tracking/include/MFTTracking/TrackFitter.h</title>
<!-- Node0 -->
<g id="node1" class="node">
<title>Node0</title>
<polygon fill="#bfbfbf" stroke="#000000" points="698.5,-369.5 698.5,-432.5 859.5,-432.5 859.5,-369.5 698.5,-369.5"/>
<text text-anchor="start" x="706.5" y="-420.5" font-family="Helvetica,sans-Serif" font-size="10.00" fill="#000000">/home/travis/build</text>
<text text-anchor="start" x="706.5" y="-409.5" font-family="Helvetica,sans-Serif" font-size="10.00" fill="#000000">/AliceO2Group/AliceO2</text>
<text text-anchor="start" x="706.5" y="-398.5" font-family="Helvetica,sans-Serif" font-size="10.00" fill="#000000">/Detectors/ITSMFT/MFT</text>
<text text-anchor="start" x="706.5" y="-387.5" font-family="Helvetica,sans-Serif" font-size="10.00" fill="#000000">/tracking/include/MFTTracking</text>
<text text-anchor="middle" x="779" y="-376.5" font-family="Helvetica,sans-Serif" font-size="10.00" fill="#000000">/TrackFitter.h</text>
</g>
<!-- Node1 -->
<g id="node2" class="node">
<title>Node1</title>
<g id="a_node2"><a xlink:href="../../d5/df9/Detectors_2ITSMFT_2MFT_2tracking_2include_2MFTTracking_2Cluster_8h.html" target="_top" xlink:title="MFTTracking/Cluster.h">
<polygon fill="none" stroke="#000000" points="358,-196 358,-215 480,-215 480,-196 358,-196"/>
<text text-anchor="middle" x="419" y="-203" font-family="Helvetica,sans-Serif" font-size="10.00" fill="#000000">MFTTracking/Cluster.h</text>
</a>
</g>
</g>
<!-- Node0&#45;&gt;Node1 -->
<g id="edge1" class="edge">
<title>Node0&#45;&gt;Node1</title>
<path fill="none" stroke="#191970" d="M698.4098,-388.6194C626.843,-376.376 528.8105,-356.1543 497,-333 459.0494,-305.3765 435.7863,-253.1314 425.4026,-224.8522"/>
<polygon fill="#191970" stroke="#191970" points="428.6611,-223.5676 422.0497,-215.2887 422.0553,-225.8835 428.6611,-223.5676"/>
</g>
<!-- Node13 -->
<g id="node14" class="node">
<title>Node13</title>
<g id="a_node14"><a xlink:href="../../d9/da4/TrackCA_8h.html" target="_top" xlink:title="Standalone classes for the track found by the Linear&#45;Track&#45;Finder (LTF) and by the Cellular&#45;Automaton...">
<polygon fill="none" stroke="#000000" points="265,-257.5 265,-276.5 393,-276.5 393,-257.5 265,-257.5"/>
<text text-anchor="middle" x="329" y="-264.5" font-family="Helvetica,sans-Serif" font-size="10.00" fill="#000000">MFTTracking/TrackCA.h</text>
</a>
</g>
</g>
<!-- Node0&#45;&gt;Node13 -->
<g id="edge15" class="edge">
<title>Node0&#45;&gt;Node13</title>
<path fill="none" stroke="#191970" d="M698.3431,-391.2074C604.9428,-379.0087 457.4537,-356.8469 407,-333 382.372,-321.3596 359.2241,-299.9359 344.6424,-284.6544"/>
<polygon fill="#191970" stroke="#191970" points="346.8274,-281.8623 337.4677,-276.8978 341.6886,-286.6156 346.8274,-281.8623"/>
</g>
<!-- Node17 -->
<g id="node18" class="node">
<title>Node17</title>
<g id="a_node18"><a xlink:href="../../da/d9a/FitterTrackMFT_8h.html" target="_top" xlink:title="Definition of the MFT track for internal use by the fitter. ">
<polygon fill="none" stroke="#000000" points="505.5,-313.5 505.5,-332.5 662.5,-332.5 662.5,-313.5 505.5,-313.5"/>
<text text-anchor="middle" x="584" y="-320.5" font-family="Helvetica,sans-Serif" font-size="10.00" fill="#000000">MFTTracking/FitterTrackMFT.h</text>
</a>
</g>
</g>
<!-- Node0&#45;&gt;Node17 -->
<g id="edge22" class="edge">
<title>Node0&#45;&gt;Node17</title>
<path fill="none" stroke="#191970" d="M700.2481,-369.4992C671.336,-357.9344 640.1382,-345.4553 617.3483,-336.3393"/>
<polygon fill="#191970" stroke="#191970" points="618.4025,-332.9914 607.8178,-332.5271 615.8027,-339.4908 618.4025,-332.9914"/>
</g>
<!-- Node18 -->
<g id="node19" class="node">
<title>Node18</title>
<polygon fill="none" stroke="#bfbfbf" points="783,-257.5 783,-276.5 815,-276.5 815,-257.5 783,-257.5"/>
<text text-anchor="middle" x="799" y="-264.5" font-family="Helvetica,sans-Serif" font-size="10.00" fill="#000000">list</text>
</g>
<!-- Node0&#45;&gt;Node18 -->
<g id="edge60" class="edge">
<title>Node0&#45;&gt;Node18</title>
<path fill="none" stroke="#191970" d="M783.7397,-369.2439C787.576,-343.5407 792.8562,-308.1634 796.093,-286.4768"/>
<polygon fill="#191970" stroke="#191970" points="799.5663,-286.9149 797.5809,-276.5078 792.643,-285.8815 799.5663,-286.9149"/>
</g>
<!-- Node20 -->
<g id="node21" class="node">
<title>Node20</title>
<g id="a_node21"><a xlink:href="../../d3/d5b/TrackParamMFT_8h.html" target="_top" xlink:title="Definition of the MFT track parameters for internal use. ">
<polygon fill="none" stroke="#000000" points="601.5,-257.5 601.5,-276.5 764.5,-276.5 764.5,-257.5 601.5,-257.5"/>
<text text-anchor="middle" x="683" y="-264.5" font-family="Helvetica,sans-Serif" font-size="10.00" fill="#000000">MFTTracking/TrackParamMFT.h</text>
</a>
</g>
</g>
<!-- Node0&#45;&gt;Node20 -->
<g id="edge33" class="edge">
<title>Node0&#45;&gt;Node20</title>
<path fill="none" stroke="#191970" d="M756.2493,-369.2439C737.3283,-342.8332 711.0898,-306.2087 695.6933,-284.7177"/>
<polygon fill="#191970" stroke="#191970" points="698.4806,-282.5986 689.8115,-276.5078 692.7902,-286.6753 698.4806,-282.5986"/>
</g>
<!-- Node24 -->
<g id="node25" class="node">
<title>Node24</title>
<g id="a_node25"><a xlink:href="../../dc/d52/ITSMFT_2MFT_2tracking_2include_2MFTTracking_2TrackExtrap_8h.html" target="_top" xlink:title="MFTTracking/TrackExtrap.h">
<polygon fill="none" stroke="#000000" points="845,-313.5 845,-332.5 991,-332.5 991,-313.5 845,-313.5"/>
<text text-anchor="middle" x="918" y="-320.5" font-family="Helvetica,sans-Serif" font-size="10.00" fill="#000000">MFTTracking/TrackExtrap.h</text>
</a>
</g>
</g>
<!-- Node0&#45;&gt;Node24 -->
<g id="edge34" class="edge">
<title>Node0&#45;&gt;Node24</title>
<path fill="none" stroke="#191970" d="M835.136,-369.4992C854.9133,-358.4011 876.1912,-346.4611 892.233,-337.4592"/>
<polygon fill="#191970" stroke="#191970" points="894.0142,-340.4731 901.0222,-332.5271 890.5886,-334.3686 894.0142,-340.4731"/>
</g>
<!-- Node26 -->
<g id="node27" class="node">
<title>Node26</title>
<g id="a_node27"><a xlink:href="../../d0/d87/MFTTrackingParam_8h.html" target="_top" xlink:title="MFTTracking/MFTTrackingParam.h">
<polygon fill="none" stroke="#000000" points="1142.5,-257.5 1142.5,-276.5 1321.5,-276.5 1321.5,-257.5 1142.5,-257.5"/>
<text text-anchor="middle" x="1232" y="-264.5" font-family="Helvetica,sans-Serif" font-size="10.00" fill="#000000">MFTTracking/MFTTrackingParam.h</text>
</a>
</g>
</g>
<!-- Node0&#45;&gt;Node26 -->
<g id="edge51" class="edge">
<title>Node0&#45;&gt;Node26</title>
<path fill="none" stroke="#191970" d="M859.5338,-380.118C901.9879,-368.1403 954.5451,-351.7636 1000,-333 1017.6413,-325.7177 1020.1291,-319.699 1038,-313 1079.2082,-297.5528 1127.335,-286.1031 1165.3444,-278.4903"/>
<polygon fill="#191970" stroke="#191970" points="1166.1405,-281.9009 1175.2796,-276.5412 1164.7929,-275.0319 1166.1405,-281.9009"/>
</g>
<!-- Node37 -->
<g id="node38" class="node">
<title>Node37</title>
<g id="a_node38"><a xlink:href="../../db/dd0/TrackMFT_8h.html" target="_top" xlink:title="DataFormatsMFT/TrackMFT.h">
<polygon fill="none" stroke="#000000" points="871.5,-257.5 871.5,-276.5 1026.5,-276.5 1026.5,-257.5 871.5,-257.5"/>
<text text-anchor="middle" x="949" y="-264.5" font-family="Helvetica,sans-Serif" font-size="10.00" fill="#000000">DataFormatsMFT/TrackMFT.h</text>
</a>
</g>
</g>
<!-- Node0&#45;&gt;Node37 -->
<g id="edge52" class="edge">
<title>Node0&#45;&gt;Node37</title>
<path fill="none" stroke="#191970" d="M793.3583,-369.4203C803.1339,-350.8896 817.6291,-328.2026 836,-313 854.5379,-297.6592 878.8751,-286.8753 900.2141,-279.6248"/>
<polygon fill="#191970" stroke="#191970" points="901.3346,-282.9411 909.776,-276.5385 899.1843,-276.2795 901.3346,-282.9411"/>
</g>
<!-- Node40 -->
<g id="node41" class="node">
<title>Node40</title>
<polygon fill="none" stroke="#bfbfbf" points="1047,-313.5 1047,-332.5 1133,-332.5 1133,-313.5 1047,-313.5"/>
<text text-anchor="middle" x="1090" y="-320.5" font-family="Helvetica,sans-Serif" font-size="10.00" fill="#000000">TLinearFitter.h</text>
</g>
<!-- Node0&#45;&gt;Node40 -->
<g id="edge59" class="edge">
<title>Node0&#45;&gt;Node40</title>
<path fill="none" stroke="#191970" d="M859.8997,-380.71C917.7003,-366.2134 993.5227,-347.1969 1042.0165,-335.0345"/>
<polygon fill="#191970" stroke="#191970" points="1043.0853,-338.3749 1051.9334,-332.5473 1041.3823,-331.5852 1043.0853,-338.3749"/>
</g>
<!-- Node2 -->
<g id="node3" class="node">
<title>Node2</title>
<polygon fill="none" stroke="#bfbfbf" points="334,-62 334,-81 376,-81 376,-62 334,-62"/>
<text text-anchor="middle" x="355" y="-69" font-family="Helvetica,sans-Serif" font-size="10.00" fill="#000000">array</text>
</g>
<!-- Node1&#45;&gt;Node2 -->
<g id="edge2" class="edge">
<title>Node1&#45;&gt;Node2</title>
<path fill="none" stroke="#191970" d="M414.3973,-195.8631C403.8342,-173.7466 377.7021,-119.0326 363.8879,-90.109"/>
<polygon fill="#191970" stroke="#191970" points="367.0291,-88.5648 359.561,-81.0496 360.7126,-91.5817 367.0291,-88.5648"/>
</g>
<!-- Node3 -->
<g id="node4" class="node">
<title>Node3</title>
<g id="a_node4"><a xlink:href="../../df/d8e/MFT_2tracking_2include_2MFTTracking_2IndexTableUtils_8h.html" target="_top" xlink:title="MFTTracking/IndexTableUtils.h">
<polygon fill="none" stroke="#000000" points="164,-129 164,-148 328,-148 328,-129 164,-129"/>
<text text-anchor="middle" x="246" y="-136" font-family="Helvetica,sans-Serif" font-size="10.00" fill="#000000">MFTTracking/IndexTableUtils.h</text>
</a>
</g>
</g>
<!-- Node1&#45;&gt;Node3 -->
<g id="edge3" class="edge">
<title>Node1&#45;&gt;Node3</title>
<path fill="none" stroke="#191970" d="M394.2133,-195.9005C364.2808,-184.3082 313.7761,-164.7486 280.1645,-151.7313"/>
<polygon fill="#191970" stroke="#191970" points="281.3298,-148.4294 270.7407,-148.0817 278.8018,-154.957 281.3298,-148.4294"/>
</g>
<!-- Node10 -->
<g id="node11" class="node">
<title>Node10</title>
<g id="a_node11"><a xlink:href="../../df/d21/GPUCommonDef_8h.html" target="_top" xlink:title="GPUCommonDef.h">
<polygon fill="none" stroke="#000000" points="422.5,-129 422.5,-148 529.5,-148 529.5,-129 422.5,-129"/>
<text text-anchor="middle" x="476" y="-136" font-family="Helvetica,sans-Serif" font-size="10.00" fill="#000000">GPUCommonDef.h</text>
</a>
</g>
</g>
<!-- Node1&#45;&gt;Node10 -->
<g id="edge12" class="edge">
<title>Node1&#45;&gt;Node10</title>
<path fill="none" stroke="#191970" d="M427.1667,-195.9005C436.0554,-185.4525 450.45,-168.5325 461.3131,-155.7635"/>
<polygon fill="#191970" stroke="#191970" points="464.0344,-157.9662 467.8484,-148.0817 458.7028,-153.4303 464.0344,-157.9662"/>
</g>
<!-- Node3&#45;&gt;Node2 -->
<g id="edge4" class="edge">
<title>Node3&#45;&gt;Node2</title>
<path fill="none" stroke="#191970" d="M261.617,-128.9005C279.6669,-117.8057 309.5896,-99.4128 330.6908,-86.4424"/>
<polygon fill="#191970" stroke="#191970" points="332.7255,-89.3001 339.4119,-81.0817 329.0598,-83.3366 332.7255,-89.3001"/>
</g>
<!-- Node4 -->
<g id="node5" class="node">
<title>Node4</title>
<polygon fill="none" stroke="#bfbfbf" points="232.5,-62 232.5,-81 277.5,-81 277.5,-62 232.5,-62"/>
<text text-anchor="middle" x="255" y="-69" font-family="Helvetica,sans-Serif" font-size="10.00" fill="#000000">utility</text>
</g>
<!-- Node3&#45;&gt;Node4 -->
<g id="edge5" class="edge">
<title>Node3&#45;&gt;Node4</title>
<path fill="none" stroke="#191970" d="M247.2895,-128.9005C248.5994,-119.149 250.6666,-103.7597 252.331,-91.3695"/>
<polygon fill="#191970" stroke="#191970" points="255.8503,-91.4586 253.7129,-81.0817 248.9127,-90.5266 255.8503,-91.4586"/>
</g>
<!-- Node5 -->
<g id="node6" class="node">
<title>Node5</title>
<polygon fill="none" stroke="#bfbfbf" points="877.5,-.5 877.5,-19.5 924.5,-19.5 924.5,-.5 877.5,-.5"/>
<text text-anchor="middle" x="901" y="-7.5" font-family="Helvetica,sans-Serif" font-size="10.00" fill="#000000">vector</text>
</g>
<!-- Node3&#45;&gt;Node5 -->
<g id="edge6" class="edge">
<title>Node3&#45;&gt;Node5</title>
<path fill="none" stroke="#191970" d="M253.8427,-128.709C270.0849,-108.7172 307.3555,-64.3796 325,-56 337.3286,-50.1449 745.1576,-20.9877 866.9746,-12.3899"/>
<polygon fill="#191970" stroke="#191970" points="867.4749,-15.8634 877.204,-11.6688 866.9826,-8.8808 867.4749,-15.8634"/>
</g>
<!-- Node6 -->
<g id="node7" class="node">
<title>Node6</title>
<g id="a_node7"><a xlink:href="../../df/db8/Detectors_2ITSMFT_2MFT_2tracking_2include_2MFTTracking_2Constants_8h.html" target="_top" xlink:title="MFTTracking/Constants.h">
<polygon fill="none" stroke="#000000" points="77.5,-62 77.5,-81 214.5,-81 214.5,-62 77.5,-62"/>
<text text-anchor="middle" x="146" y="-69" font-family="Helvetica,sans-Serif" font-size="10.00" fill="#000000">MFTTracking/Constants.h</text>
</a>
</g>
</g>
<!-- Node3&#45;&gt;Node6 -->
<g id="edge7" class="edge">
<title>Node3&#45;&gt;Node6</title>
<path fill="none" stroke="#191970" d="M231.6724,-128.9005C215.2615,-117.9052 188.1525,-99.7422 168.8249,-86.7927"/>
<polygon fill="#191970" stroke="#191970" points="170.5569,-83.7402 160.301,-81.0817 166.6605,-89.5556 170.5569,-83.7402"/>
</g>
<!-- Node6&#45;&gt;Node5 -->
<g id="edge9" class="edge">
<title>Node6&#45;&gt;Node5</title>
<path fill="none" stroke="#191970" d="M188.1949,-61.9713C199.4542,-59.7129 211.647,-57.5211 223,-56 231.0763,-54.9179 730.557,-21.418 866.9257,-12.2819"/>
<polygon fill="#191970" stroke="#191970" points="867.4453,-15.755 877.189,-11.5944 866.9774,-8.7707 867.4453,-15.755"/>
</g>
<!-- Node7 -->
<g id="node8" class="node">
<title>Node7</title>
<polygon fill="none" stroke="#bfbfbf" points="51,-.5 51,-19.5 101,-19.5 101,-.5 51,-.5"/>
<text text-anchor="middle" x="76" y="-7.5" font-family="Helvetica,sans-Serif" font-size="10.00" fill="#000000">climits</text>
</g>
<!-- Node6&#45;&gt;Node7 -->
<g id="edge8" class="edge">
<title>Node6&#45;&gt;Node7</title>
<path fill="none" stroke="#191970" d="M135.0625,-61.8906C124.338,-52.4683 107.7713,-37.9134 94.9099,-26.6137"/>
<polygon fill="#191970" stroke="#191970" points="96.9143,-23.7158 87.0917,-19.7449 92.2941,-28.9745 96.9143,-23.7158"/>
</g>
<!-- Node8 -->
<g id="node9" class="node">
<title>Node8</title>
<polygon fill="none" stroke="#bfbfbf" points="682.5,-.5 682.5,-19.5 741.5,-19.5 741.5,-.5 682.5,-.5"/>
<text text-anchor="middle" x="712" y="-7.5" font-family="Helvetica,sans-Serif" font-size="10.00" fill="#000000">Rtypes.h</text>
</g>
<!-- Node6&#45;&gt;Node8 -->
<g id="edge10" class="edge">
<title>Node6&#45;&gt;Node8</title>
<path fill="none" stroke="#191970" d="M189.4328,-61.9293C200.3514,-59.7519 212.0725,-57.6093 223,-56 389.0485,-31.5461 588.8367,-17.5024 672.3193,-12.3171"/>
<polygon fill="#191970" stroke="#191970" points="672.6138,-15.8057 682.3809,-11.7002 672.1854,-8.8188 672.6138,-15.8057"/>
</g>
<!-- Node9 -->
<g id="node10" class="node">
<title>Node9</title>
<g id="a_node10"><a xlink:href="../../d6/d84/MathConstants_8h.html" target="_top" xlink:title="useful math constants ">
<polygon fill="none" stroke="#000000" points="119,-.5 119,-19.5 313,-19.5 313,-.5 119,-.5"/>
<text text-anchor="middle" x="216" y="-7.5" font-family="Helvetica,sans-Serif" font-size="10.00" fill="#000000">CommonConstants/MathConstants.h</text>
</a>
</g>
</g>
<!-- Node6&#45;&gt;Node9 -->
<g id="edge11" class="edge">
<title>Node6&#45;&gt;Node9</title>
<path fill="none" stroke="#191970" d="M156.9375,-61.8906C167.662,-52.4683 184.2287,-37.9134 197.0901,-26.6137"/>
<polygon fill="#191970" stroke="#191970" points="199.7059,-28.9745 204.9083,-19.7449 195.0857,-23.7158 199.7059,-28.9745"/>
</g>
<!-- Node11 -->
<g id="node12" class="node">
<title>Node11</title>
<g id="a_node12"><a xlink:href="../../d5/d93/GPUCommonDefSettings_8h.html" target="_top" xlink:title="GPUCommonDefSettings.h">
<polygon fill="none" stroke="#000000" points="394,-62 394,-81 542,-81 542,-62 394,-62"/>
<text text-anchor="middle" x="468" y="-69" font-family="Helvetica,sans-Serif" font-size="10.00" fill="#000000">GPUCommonDefSettings.h</text>
</a>
</g>
</g>
<!-- Node10&#45;&gt;Node11 -->
<g id="edge13" class="edge">
<title>Node10&#45;&gt;Node11</title>
<path fill="none" stroke="#191970" d="M474.8538,-128.9005C473.6894,-119.149 471.8519,-103.7597 470.3725,-91.3695"/>
<polygon fill="#191970" stroke="#191970" points="473.8051,-90.5961 469.1441,-81.0817 466.8545,-91.4261 473.8051,-90.5961"/>
</g>
<!-- Node12 -->
<g id="node13" class="node">
<title>Node12</title>
<g id="a_node13"><a xlink:href="../../da/d5a/GPUCommonDefAPI_8h.html" target="_top" xlink:title="GPUCommonDefAPI.h">
<polygon fill="none" stroke="#000000" points="560,-62 560,-81 684,-81 684,-62 560,-62"/>
<text text-anchor="middle" x="622" y="-69" font-family="Helvetica,sans-Serif" font-size="10.00" fill="#000000">GPUCommonDefAPI.h</text>
</a>
</g>
</g>
<!-- Node10&#45;&gt;Node12 -->
<g id="edge14" class="edge">
<title>Node10&#45;&gt;Node12</title>
<path fill="none" stroke="#191970" d="M496.9182,-128.9005C521.7456,-117.5072 563.3433,-98.4178 591.6942,-85.4075"/>
<polygon fill="#191970" stroke="#191970" points="593.4917,-88.4336 601.1206,-81.0817 590.5721,-82.0715 593.4917,-88.4336"/>
</g>
<!-- Node13&#45;&gt;Node2 -->
<g id="edge16" class="edge">
<title>Node13&#45;&gt;Node2</title>
<path fill="none" stroke="#191970" d="M330.2893,-257.3051C334.3441,-226.8163 346.8922,-132.4646 352.3827,-91.1804"/>
<polygon fill="#191970" stroke="#191970" points="355.8539,-91.6276 353.7029,-81.2534 348.915,-90.7047 355.8539,-91.6276"/>
</g>
<!-- Node13&#45;&gt;Node6 -->
<g id="edge20" class="edge">
<title>Node13&#45;&gt;Node6</title>
<path fill="none" stroke="#191970" d="M300.4171,-257.3831C260.4002,-242.2769 188.7961,-208.9078 155,-154 143.3598,-135.0885 142.4736,-109.044 143.6115,-91.3108"/>
<polygon fill="#191970" stroke="#191970" points="147.1064,-91.5258 144.5311,-81.2487 140.1354,-90.8887 147.1064,-91.5258"/>
</g>
<!-- Node14 -->
<g id="node15" class="node">
<title>Node14</title>
<g id="a_node15"><a xlink:href="../../d7/dcd/MCCompLabel_8h.html" target="_top" xlink:title="SimulationDataFormat\l/MCCompLabel.h">
<polygon fill="none" stroke="#000000" points="536.5,-190.5 536.5,-220.5 663.5,-220.5 663.5,-190.5 536.5,-190.5"/>
<text text-anchor="start" x="544.5" y="-208.5" font-family="Helvetica,sans-Serif" font-size="10.00" fill="#000000">SimulationDataFormat</text>
<text text-anchor="middle" x="600" y="-197.5" font-family="Helvetica,sans-Serif" font-size="10.00" fill="#000000">/MCCompLabel.h</text>
</a>
</g>
</g>
<!-- Node13&#45;&gt;Node14 -->
<g id="edge17" class="edge">
<title>Node13&#45;&gt;Node14</title>
<path fill="none" stroke="#191970" d="M371.0464,-257.4581C412.5113,-248.0482 476.7409,-233.4721 526.6292,-222.1506"/>
<polygon fill="#191970" stroke="#191970" points="527.4273,-225.5585 536.4047,-219.9321 525.8781,-218.7321 527.4273,-225.5585"/>
</g>
<!-- Node16 -->
<g id="node17" class="node">
<title>Node16</title>
<polygon fill="none" stroke="#bfbfbf" points="0,-196 0,-215 108,-215 108,-196 0,-196"/>
<text text-anchor="middle" x="54" y="-203" font-family="Helvetica,sans-Serif" font-size="10.00" fill="#000000">fairlogger/Logger.h</text>
</g>
<!-- Node13&#45;&gt;Node16 -->
<g id="edge21" class="edge">
<title>Node13&#45;&gt;Node16</title>
<path fill="none" stroke="#191970" d="M285.7701,-257.4652C243.8824,-248.2094 178.5671,-233.7321 122,-221 116.6842,-219.8035 111.1361,-218.5488 105.6017,-217.2931"/>
<polygon fill="#191970" stroke="#191970" points="106.2345,-213.8478 95.7075,-215.0446 104.6831,-220.6737 106.2345,-213.8478"/>
</g>
<!-- Node15 -->
<g id="node16" class="node">
<title>Node15</title>
<g id="a_node16"><a xlink:href="../../d2/d45/GPUCommonRtypes_8h.html" target="_top" xlink:title="GPUCommonRtypes.h">
<polygon fill="none" stroke="#000000" points="687.5,-129 687.5,-148 812.5,-148 812.5,-129 687.5,-129"/>
<text text-anchor="middle" x="750" y="-136" font-family="Helvetica,sans-Serif" font-size="10.00" fill="#000000">GPUCommonRtypes.h</text>
</a>
</g>
</g>
<!-- Node14&#45;&gt;Node15 -->
<g id="edge18" class="edge">
<title>Node14&#45;&gt;Node15</title>
<path fill="none" stroke="#191970" d="M633.6629,-190.4639C659.2845,-179.0196 694.2661,-163.3945 719.1627,-152.274"/>
<polygon fill="#191970" stroke="#191970" points="720.7955,-155.378 728.4987,-148.1039 717.9407,-148.9866 720.7955,-155.378"/>
</g>
<!-- Node15&#45;&gt;Node8 -->
<g id="edge19" class="edge">
<title>Node15&#45;&gt;Node8</title>
<path fill="none" stroke="#191970" d="M747.2305,-128.8358C742.8024,-113.4169 733.8292,-82.3063 726,-56 723.384,-47.2102 720.435,-37.4931 717.9206,-29.2634"/>
<polygon fill="#191970" stroke="#191970" points="721.2065,-28.0401 714.9301,-19.5045 714.5137,-30.0911 721.2065,-28.0401"/>
</g>
<!-- Node17&#45;&gt;Node1 -->
<g id="edge25" class="edge">
<title>Node17&#45;&gt;Node1</title>
<path fill="none" stroke="#191970" d="M566.6871,-313.3966C551.0103,-304.4974 527.4606,-290.6169 508,-277 482.7402,-259.3253 455.319,-236.7324 437.6885,-221.7232"/>
<polygon fill="#191970" stroke="#191970" points="439.7414,-218.8729 429.8723,-215.019 435.184,-224.1862 439.7414,-218.8729"/>
</g>
<!-- Node17&#45;&gt;Node14 -->
<g id="edge32" class="edge">
<title>Node17&#45;&gt;Node14</title>
<path fill="none" stroke="#191970" d="M560.1914,-313.3078C535.605,-301.7552 502.5779,-280.973 516,-257 523.4688,-243.6601 535.961,-233.3575 549.0587,-225.5975"/>
<polygon fill="#191970" stroke="#191970" points="551.0678,-228.4884 558.1687,-220.6253 547.7142,-222.344 551.0678,-228.4884"/>
</g>
<!-- Node17&#45;&gt;Node18 -->
<g id="edge23" class="edge">
<title>Node17&#45;&gt;Node18</title>
<path fill="none" stroke="#191970" d="M631.7599,-313.4196C668.3068,-305.6429 720.0436,-293.6766 773.3663,-276.8766"/>
<polygon fill="#191970" stroke="#191970" points="774.528,-280.1798 782.9852,-273.7981 772.3942,-273.5129 774.528,-280.1798"/>
</g>
<!-- Node19 -->
<g id="node20" class="node">
<title>Node19</title>
<polygon fill="none" stroke="#bfbfbf" points="525,-257.5 525,-276.5 583,-276.5 583,-257.5 525,-257.5"/>
<text text-anchor="middle" x="554" y="-264.5" font-family="Helvetica,sans-Serif" font-size="10.00" fill="#000000">memory</text>
</g>
<!-- Node17&#45;&gt;Node19 -->
<g id="edge24" class="edge">
<title>Node17&#45;&gt;Node19</title>
<path fill="none" stroke="#191970" d="M578.7744,-313.2455C574.6877,-305.617 568.8865,-294.7881 563.925,-285.5267"/>
<polygon fill="#191970" stroke="#191970" points="566.9732,-283.8047 559.1657,-276.6427 560.8028,-287.1103 566.9732,-283.8047"/>
</g>
<!-- Node17&#45;&gt;Node20 -->
<g id="edge26" class="edge">
<title>Node17&#45;&gt;Node20</title>
<path fill="none" stroke="#191970" d="M601.2445,-313.2455C616.5761,-304.5731 639.2199,-291.7645 656.7916,-281.825"/>
<polygon fill="#191970" stroke="#191970" points="658.9724,-284.6126 665.9531,-276.6427 655.5259,-278.5198 658.9724,-284.6126"/>
</g>
<!-- Node20&#45;&gt;Node1 -->
<g id="edge31" class="edge">
<title>Node20&#45;&gt;Node1</title>
<path fill="none" stroke="#191970" d="M642.0397,-257.4581C595.7005,-246.6632 520.176,-229.0694 470.0394,-217.3899"/>
<polygon fill="#191970" stroke="#191970" points="470.5898,-213.9244 460.0564,-215.0643 469.0016,-220.7419 470.5898,-213.9244"/>
</g>
<!-- Node21 -->
<g id="node22" class="node">
<title>Node21</title>
<polygon fill="none" stroke="#bfbfbf" points="682,-196 682,-215 752,-215 752,-196 682,-196"/>
<text text-anchor="middle" x="717" y="-203" font-family="Helvetica,sans-Serif" font-size="10.00" fill="#000000">TMatrixD.h</text>
</g>
<!-- Node20&#45;&gt;Node21 -->
<g id="edge27" class="edge">
<title>Node20&#45;&gt;Node21</title>
<path fill="none" stroke="#191970" d="M688.3125,-257.3906C693.2239,-248.5068 700.6579,-235.0601 706.7275,-224.0811"/>
<polygon fill="#191970" stroke="#191970" points="709.8373,-225.6899 711.6126,-215.2449 703.7112,-222.3031 709.8373,-225.6899"/>
</g>
<!-- Node22 -->
<g id="node23" class="node">
<title>Node22</title>
<polygon fill="none" stroke="#bfbfbf" points="770,-196 770,-215 826,-215 826,-196 770,-196"/>
<text text-anchor="middle" x="798" y="-203" font-family="Helvetica,sans-Serif" font-size="10.00" fill="#000000">TMath.h</text>
</g>
<!-- Node20&#45;&gt;Node22 -->
<g id="edge28" class="edge">
<title>Node20&#45;&gt;Node22</title>
<path fill="none" stroke="#191970" d="M700.9688,-257.3906C719.7884,-247.3262 749.5585,-231.4057 771.1641,-219.8514"/>
<polygon fill="#191970" stroke="#191970" points="772.9898,-222.8442 780.1574,-215.0419 769.6886,-216.6714 772.9898,-222.8442"/>
</g>
<!-- Node23 -->
<g id="node24" class="node">
<title>Node23</title>
<g id="a_node24"><a xlink:href="../../dc/de5/Detectors_2ITSMFT_2MFT_2base_2include_2MFTBase_2Constants_8h.html" target="_top" xlink:title="MFTBase/Constants.h">
<polygon fill="none" stroke="#000000" points="548.5,-129 548.5,-148 669.5,-148 669.5,-129 548.5,-129"/>
<text text-anchor="middle" x="609" y="-136" font-family="Helvetica,sans-Serif" font-size="10.00" fill="#000000">MFTBase/Constants.h</text>
</a>
</g>
</g>
<!-- Node20&#45;&gt;Node23 -->
<g id="edge29" class="edge">
<title>Node20&#45;&gt;Node23</title>
<path fill="none" stroke="#191970" d="M626.0773,-257.4259C586.9616,-249.5525 540.0042,-237.0842 528,-221 519.7593,-209.9584 521.3676,-202.0764 528,-190 537.3881,-172.906 555.1207,-160.6783 571.6064,-152.4399"/>
<polygon fill="#191970" stroke="#191970" points="573.4939,-155.4229 581.0963,-148.0437 570.5514,-149.0714 573.4939,-155.4229"/>
</g>
<!-- Node23&#45;&gt;Node8 -->
<g id="edge30" class="edge">
<title>Node23&#45;&gt;Node8</title>
<path fill="none" stroke="#191970" d="M634.8173,-128.9708C653.7,-120.6935 678.4607,-106.884 693,-87 705.15,-70.3835 709.5889,-46.9147 711.1794,-30.2637"/>
<polygon fill="#191970" stroke="#191970" points="714.6913,-30.2097 711.8852,-19.9933 707.7078,-29.7297 714.6913,-30.2097"/>
</g>
<!-- Node24&#45;&gt;Node21 -->
<g id="edge36" class="edge">
<title>Node24&#45;&gt;Node21</title>
<path fill="none" stroke="#191970" d="M905.6655,-313.3529C888.1029,-299.8494 854.6177,-274.9546 824,-257 799.6333,-242.7111 770.6986,-228.965 749.0657,-219.2738"/>
<polygon fill="#191970" stroke="#191970" points="750.2435,-215.9676 739.6827,-215.119 747.4093,-222.3682 750.2435,-215.9676"/>
</g>
<!-- Node25 -->
<g id="node26" class="node">
<title>Node25</title>
<polygon fill="none" stroke="#bfbfbf" points="1044.5,-257.5 1044.5,-276.5 1097.5,-276.5 1097.5,-257.5 1044.5,-257.5"/>
<text text-anchor="middle" x="1071" y="-264.5" font-family="Helvetica,sans-Serif" font-size="10.00" fill="#000000">cstddef</text>
</g>
<!-- Node24&#45;&gt;Node25 -->
<g id="edge35" class="edge">
<title>Node24&#45;&gt;Node25</title>
<path fill="none" stroke="#191970" d="M944.3016,-313.3733C969.4128,-304.1822 1007.4438,-290.2624 1035.2872,-280.0713"/>
<polygon fill="#191970" stroke="#191970" points="1036.8538,-283.2251 1045.0416,-276.5011 1034.4478,-276.6516 1036.8538,-283.2251"/>
</g>
<!-- Node24&#45;&gt;Node26 -->
<g id="edge37" class="edge">
<title>Node24&#45;&gt;Node26</title>
<path fill="none" stroke="#191970" d="M971.6217,-313.4369C1026.1507,-303.712 1110.63,-288.6456 1168.4796,-278.3285"/>
<polygon fill="#191970" stroke="#191970" points="1169.3693,-281.7251 1178.5994,-276.5237 1168.1402,-274.8339 1169.3693,-281.7251"/>
</g>
<!-- Node27 -->
<g id="node28" class="node">
<title>Node27</title>
<g id="a_node28"><a xlink:href="../../db/d2c/ConfigurableParam_8h.html" target="_top" xlink:title="CommonUtils/Configurable\lParam.h">
<polygon fill="none" stroke="#000000" points="1230,-123.5 1230,-153.5 1378,-153.5 1378,-123.5 1230,-123.5"/>
<text text-anchor="start" x="1238" y="-141.5" font-family="Helvetica,sans-Serif" font-size="10.00" fill="#000000">CommonUtils/Configurable</text>
<text text-anchor="middle" x="1304" y="-130.5" font-family="Helvetica,sans-Serif" font-size="10.00" fill="#000000">Param.h</text>
</a>
</g>
</g>
<!-- Node26&#45;&gt;Node27 -->
<g id="edge38" class="edge">
<title>Node26&#45;&gt;Node27</title>
<path fill="none" stroke="#191970" d="M1237.4117,-257.3416C1248.577,-237.4146 1274.4595,-191.2215 1290.4676,-162.6516"/>
<polygon fill="#191970" stroke="#191970" points="1293.6476,-164.1364 1295.4824,-153.7016 1287.5408,-160.7147 1293.6476,-164.1364"/>
</g>
<!-- Node33 -->
<g id="node34" class="node">
<title>Node33</title>
<g id="a_node34"><a xlink:href="../../da/d6b/ConfigurableParamHelper_8h.html" target="_top" xlink:title="CommonUtils/Configurable\lParamHelper.h">
<polygon fill="none" stroke="#000000" points="1396,-190.5 1396,-220.5 1544,-220.5 1544,-190.5 1396,-190.5"/>
<text text-anchor="start" x="1404" y="-208.5" font-family="Helvetica,sans-Serif" font-size="10.00" fill="#000000">CommonUtils/Configurable</text>
<text text-anchor="middle" x="1470" y="-197.5" font-family="Helvetica,sans-Serif" font-size="10.00" fill="#000000">ParamHelper.h</text>
</a>
</g>
</g>
<!-- Node26&#45;&gt;Node33 -->
<g id="edge45" class="edge">
<title>Node26&#45;&gt;Node33</title>
<path fill="none" stroke="#191970" d="M1268.9264,-257.4581C1304.2965,-248.3183 1358.5277,-234.3048 1401.7595,-223.1336"/>
<polygon fill="#191970" stroke="#191970" points="1402.8414,-226.469 1411.6477,-220.5784 1401.0901,-219.6917 1402.8414,-226.469"/>
</g>
<!-- Node27&#45;&gt;Node5 -->
<g id="edge39" class="edge">
<title>Node27&#45;&gt;Node5</title>
<path fill="none" stroke="#191970" d="M1360.6154,-123.486C1404.8931,-109.0925 1454.8176,-85.2604 1428,-56 1394.6701,-19.6341 1046.1043,-11.9087 934.8955,-10.3647"/>
<polygon fill="#191970" stroke="#191970" points="934.6407,-6.8612 924.5958,-10.2302 934.5492,-13.8606 934.6407,-6.8612"/>
</g>
<!-- Node28 -->
<g id="node29" class="node">
<title>Node28</title>
<polygon fill="none" stroke="#bfbfbf" points="1475,-62 1475,-81 1513,-81 1513,-62 1475,-62"/>
<text text-anchor="middle" x="1494" y="-69" font-family="Helvetica,sans-Serif" font-size="10.00" fill="#000000">map</text>
</g>
<!-- Node27&#45;&gt;Node28 -->
<g id="edge40" class="edge">
<title>Node27&#45;&gt;Node28</title>
<path fill="none" stroke="#191970" d="M1355.1159,-123.4664C1386.0895,-113.9302 1426.2082,-100.8173 1461,-87 1462.5773,-86.3736 1464.1862,-85.7084 1465.8028,-85.0193"/>
<polygon fill="#191970" stroke="#191970" points="1467.2781,-88.1937 1474.9789,-80.917 1464.4212,-81.8032 1467.2781,-88.1937"/>
</g>
<!-- Node29 -->
<g id="node30" class="node">
<title>Node29</title>
<polygon fill="none" stroke="#bfbfbf" points="1116.5,-62 1116.5,-81 1209.5,-81 1209.5,-62 1116.5,-62"/>
<text text-anchor="middle" x="1163" y="-69" font-family="Helvetica,sans-Serif" font-size="10.00" fill="#000000">unordered_map</text>
</g>
<!-- Node27&#45;&gt;Node29 -->
<g id="edge41" class="edge">
<title>Node27&#45;&gt;Node29</title>
<path fill="none" stroke="#191970" d="M1272.3568,-123.4639C1248.3792,-112.0702 1215.6807,-96.5327 1192.2983,-85.4219"/>
<polygon fill="#191970" stroke="#191970" points="1193.7456,-82.2346 1183.2112,-81.1039 1190.7412,-88.5571 1193.7456,-82.2346"/>
</g>
<!-- Node30 -->
<g id="node31" class="node">
<title>Node30</title>
<polygon fill="none" stroke="#bfbfbf" points="1227.5,-56.5 1227.5,-86.5 1340.5,-86.5 1340.5,-56.5 1227.5,-56.5"/>
<text text-anchor="start" x="1235.5" y="-74.5" font-family="Helvetica,sans-Serif" font-size="10.00" fill="#000000">boost/property_tree</text>
<text text-anchor="middle" x="1284" y="-63.5" font-family="Helvetica,sans-Serif" font-size="10.00" fill="#000000">/ptree.hpp</text>
</g>
<!-- Node27&#45;&gt;Node30 -->
<g id="edge42" class="edge">
<title>Node27&#45;&gt;Node30</title>
<path fill="none" stroke="#191970" d="M1299.4617,-123.2967C1297.0836,-115.3299 1294.111,-105.3718 1291.4093,-96.3213"/>
<polygon fill="#191970" stroke="#191970" points="1294.7345,-95.2242 1288.5203,-86.6432 1288.027,-97.2265 1294.7345,-95.2242"/>
</g>
<!-- Node31 -->
<g id="node32" class="node">
<title>Node31</title>
<polygon fill="none" stroke="#bfbfbf" points="1531.5,-62 1531.5,-81 1588.5,-81 1588.5,-62 1531.5,-62"/>
<text text-anchor="middle" x="1560" y="-69" font-family="Helvetica,sans-Serif" font-size="10.00" fill="#000000">typeinfo</text>
</g>
<!-- Node27&#45;&gt;Node31 -->
<g id="edge43" class="edge">
<title>Node27&#45;&gt;Node31</title>
<path fill="none" stroke="#191970" d="M1378.1929,-123.966C1420.7278,-114.8921 1474.8672,-102.0792 1522,-87 1524.1503,-86.312 1526.3506,-85.5569 1528.5554,-84.7618"/>
<polygon fill="#191970" stroke="#191970" points="1530.0227,-87.9478 1538.1105,-81.1039 1527.5201,-81.4104 1530.0227,-87.9478"/>
</g>
<!-- Node32 -->
<g id="node33" class="node">
<title>Node32</title>
<polygon fill="none" stroke="#bfbfbf" points="1359,-62 1359,-81 1419,-81 1419,-62 1359,-62"/>
<text text-anchor="middle" x="1389" y="-69" font-family="Helvetica,sans-Serif" font-size="10.00" fill="#000000">iostream</text>
</g>
<!-- Node27&#45;&gt;Node32 -->
<g id="edge44" class="edge">
<title>Node27&#45;&gt;Node32</title>
<path fill="none" stroke="#191970" d="M1323.2878,-123.2967C1336.9169,-112.5537 1355.1402,-98.1895 1368.9388,-87.3129"/>
<polygon fill="#191970" stroke="#191970" points="1371.1911,-89.9942 1376.878,-81.055 1366.8578,-84.4967 1371.1911,-89.9942"/>
</g>
<!-- Node33&#45;&gt;Node27 -->
<g id="edge46" class="edge">
<title>Node33&#45;&gt;Node27</title>
<path fill="none" stroke="#191970" d="M1432.7464,-190.4639C1408.5892,-180.7137 1376.9134,-167.9289 1351.0264,-157.4805"/>
<polygon fill="#191970" stroke="#191970" points="1351.9993,-154.0989 1341.4161,-153.6017 1349.3793,-160.5901 1351.9993,-154.0989"/>
</g>
<!-- Node33&#45;&gt;Node31 -->
<g id="edge49" class="edge">
<title>Node33&#45;&gt;Node31</title>
<path fill="none" stroke="#191970" d="M1499.9233,-190.4572C1514.4105,-181.709 1530.8285,-169.3635 1541,-154 1553.5057,-135.111 1557.8401,-109.0619 1559.3094,-91.3215"/>
<polygon fill="#191970" stroke="#191970" points="1562.8081,-91.4454 1559.91,-81.2547 1555.8205,-91.0285 1562.8081,-91.4454"/>
</g>
<!-- Node34 -->
<g id="node35" class="node">
<title>Node34</title>
<polygon fill="none" stroke="#bfbfbf" points="1588.5,-129 1588.5,-148 1645.5,-148 1645.5,-129 1588.5,-129"/>
<text text-anchor="middle" x="1617" y="-136" font-family="Helvetica,sans-Serif" font-size="10.00" fill="#000000">TClass.h</text>
</g>
<!-- Node33&#45;&gt;Node34 -->
<g id="edge47" class="edge">
<title>Node33&#45;&gt;Node34</title>
<path fill="none" stroke="#191970" d="M1502.9897,-190.4639C1528.0988,-179.0196 1562.3808,-163.3945 1586.7795,-152.274"/>
<polygon fill="#191970" stroke="#191970" points="1588.2809,-155.4361 1595.9287,-148.1039 1585.3777,-149.0665 1588.2809,-155.4361"/>
</g>
<!-- Node35 -->
<g id="node36" class="node">
<title>Node35</title>
<polygon fill="none" stroke="#bfbfbf" points="1396.5,-129 1396.5,-148 1465.5,-148 1465.5,-129 1396.5,-129"/>
<text text-anchor="middle" x="1431" y="-136" font-family="Helvetica,sans-Serif" font-size="10.00" fill="#000000">type_traits</text>
</g>
<!-- Node33&#45;&gt;Node35 -->
<g id="edge48" class="edge">
<title>Node33&#45;&gt;Node35</title>
<path fill="none" stroke="#191970" d="M1461.1503,-190.2967C1455.3689,-180.3645 1447.7858,-167.3371 1441.6709,-156.8321"/>
<polygon fill="#191970" stroke="#191970" points="1444.6175,-154.9367 1436.5618,-148.055 1438.5677,-158.4582 1444.6175,-154.9367"/>
</g>
<!-- Node36 -->
<g id="node37" class="node">
<title>Node36</title>
<polygon fill="none" stroke="#bfbfbf" points="1484,-129 1484,-148 1532,-148 1532,-129 1484,-129"/>
<text text-anchor="middle" x="1508" y="-136" font-family="Helvetica,sans-Serif" font-size="10.00" fill="#000000">TFile.h</text>
</g>
<!-- Node33&#45;&gt;Node36 -->
<g id="edge50" class="edge">
<title>Node33&#45;&gt;Node36</title>
<path fill="none" stroke="#191970" d="M1478.6228,-190.2967C1484.256,-180.3645 1491.6447,-167.3371 1497.6027,-156.8321"/>
<polygon fill="#191970" stroke="#191970" points="1500.6917,-158.4801 1502.5808,-148.055 1494.6029,-155.0266 1500.6917,-158.4801"/>
</g>
<!-- Node37&#45;&gt;Node5 -->
<g id="edge53" class="edge">
<title>Node37&#45;&gt;Node5</title>
<path fill="none" stroke="#191970" d="M1015.9192,-257.4629C1077.6147,-247.9865 1161.1072,-233.1528 1171,-221 1179.698,-210.3149 1177.5012,-202.1475 1171,-190 1120.2391,-95.1523 994.981,-41.6515 934.6048,-20.5871"/>
<polygon fill="#191970" stroke="#191970" points="935.3991,-17.1604 924.8047,-17.2552 933.1458,-23.7879 935.3991,-17.1604"/>
</g>
<!-- Node37&#45;&gt;Node14 -->
<g id="edge58" class="edge">
<title>Node37&#45;&gt;Node14</title>
<path fill="none" stroke="#191970" d="M887.2017,-257.4988C833.4729,-249.0564 753.2906,-236.0223 673.8542,-221.1141"/>
<polygon fill="#191970" stroke="#191970" points="674.1437,-217.607 663.668,-219.1911 672.8451,-224.4855 674.1437,-217.607"/>
</g>
<!-- Node37&#45;&gt;Node22 -->
<g id="edge54" class="edge">
<title>Node37&#45;&gt;Node22</title>
<path fill="none" stroke="#191970" d="M924.9433,-257.3997C901.8455,-248.1569 865.9896,-233.7427 835,-221 833.4058,-220.3445 831.774,-219.6708 830.1268,-218.9887"/>
<polygon fill="#191970" stroke="#191970" points="831.2557,-215.6675 820.6785,-215.056 828.5658,-222.1301 831.2557,-215.6675"/>
</g>
<!-- Node38 -->
<g id="node39" class="node">
<title>Node38</title>
<polygon fill="none" stroke="#bfbfbf" points="1072.5,-196 1072.5,-215 1161.5,-215 1161.5,-196 1072.5,-196"/>
<text text-anchor="middle" x="1117" y="-203" font-family="Helvetica,sans-Serif" font-size="10.00" fill="#000000">Math/SMatrix.h</text>
</g>
<!-- Node37&#45;&gt;Node38 -->
<g id="edge55" class="edge">
<title>Node37&#45;&gt;Node38</title>
<path fill="none" stroke="#191970" d="M975.25,-257.3906C1003.7293,-246.9652 1049.3743,-230.2559 1081.1457,-218.6252"/>
<polygon fill="#191970" stroke="#191970" points="1082.7469,-221.7663 1090.9343,-215.0419 1080.3406,-215.1929 1082.7469,-221.7663"/>
</g>
<!-- Node39 -->
<g id="node40" class="node">
<title>Node39</title>
<g id="a_node40"><a xlink:href="../../de/d64/RangeReference_8h.html" target="_top" xlink:title="Class to refer to the 1st entry and N elements of some group in the continuous container. ">
<polygon fill="none" stroke="#000000" points="844,-196 844,-215 1054,-215 1054,-196 844,-196"/>
<text text-anchor="middle" x="949" y="-203" font-family="Helvetica,sans-Serif" font-size="10.00" fill="#000000">CommonDataFormat/RangeReference.h</text>
</a>
</g>
</g>
<!-- Node37&#45;&gt;Node39 -->
<g id="edge56" class="edge">
<title>Node37&#45;&gt;Node39</title>
<path fill="none" stroke="#191970" d="M949,-257.3906C949,-248.8657 949,-236.1392 949,-225.4235"/>
<polygon fill="#191970" stroke="#191970" points="952.5001,-225.2448 949,-215.2449 945.5001,-225.2449 952.5001,-225.2448"/>
</g>
<!-- Node39&#45;&gt;Node15 -->
<g id="edge57" class="edge">
<title>Node39&#45;&gt;Node15</title>
<path fill="none" stroke="#191970" d="M920.4882,-195.9005C885.7615,-184.2086 826.9631,-164.4122 788.3078,-151.3976"/>
<polygon fill="#191970" stroke="#191970" points="789.053,-147.9555 778.459,-148.0817 786.8194,-154.5896 789.053,-147.9555"/>
</g>
</g>
</svg>
        <g id="navigator" transform="translate(0 0)" fill="#404254">
                <rect fill="#f2f5e9" fill-opacity="0.5" stroke="#606060" stroke-width=".5" x="0" y="0" width="60" height="60"/>
                <use id="zoomplus" xlink:href="#zoomPlus" x="17" y="9" onmousedown="handleZoom(evt,'in')"/>
                <use id="zoomminus" xlink:href="#zoomMin" x="42" y="9" onmousedown="handleZoom(evt,'out')"/>
                <use id="reset" xlink:href="#resetDef" x="30" y="36" onmousedown="handleReset()"/>
                <g id="arrowUp" xlink:href="#dirArrow" transform="translate(30 24)" onmousedown="handlePan(0,-1)">
                  <use xlink:href="#rim" fill="#404040">
                        <set attributeName="fill" to="#808080" begin="arrowUp.mouseover" end="arrowUp.mouseout"/>
                  </use>
                  <path fill="none" stroke="white" stroke-width="1.5" d="M0,-3.0v7 M-2.5,-0.5L0,-3.0L2.5,-0.5"/>
                </g>
                <g id="arrowRight" xlink:href="#dirArrow" transform="rotate(90) translate(36 -43)" onmousedown="handlePan(1,0)">
                  <use xlink:href="#rim" fill="#404040">
                        <set attributeName="fill" to="#808080" begin="arrowRight.mouseover" end="arrowRight.mouseout"/>
                  </use>
                  <path fill="none" stroke="white" stroke-width="1.5" d="M0,-3.0v7 M-2.5,-0.5L0,-3.0L2.5,-0.5"/>
                </g>
                <g id="arrowDown" xlink:href="#dirArrow" transform="rotate(180) translate(-30 -48)" onmousedown="handlePan(0,1)">
                  <use xlink:href="#rim" fill="#404040">
                        <set attributeName="fill" to="#808080" begin="arrowDown.mouseover" end="arrowDown.mouseout"/>
                  </use>
                  <path fill="none" stroke="white" stroke-width="1.5" d="M0,-3.0v7 M-2.5,-0.5L0,-3.0L2.5,-0.5"/>
                </g>
                <g id="arrowLeft" xlink:href="#dirArrow" transform="rotate(270) translate(-36 17)" onmousedown="handlePan(-1,0)">
                  <use xlink:href="#rim" fill="#404040">
                        <set attributeName="fill" to="#808080" begin="arrowLeft.mouseover" end="arrowLeft.mouseout"/>
                  </use>
                  <path fill="none" stroke="white" stroke-width="1.5" d="M0,-3.0v7 M-2.5,-0.5L0,-3.0L2.5,-0.5"/>
                </g>
        </g>
        <svg viewBox="0 0 15 15" width="100%" height="30px" preserveAspectRatio="xMaxYMin meet">
         <g id="arrow_out" transform="scale(0.3 0.3)">
          <a xlink:href="ITSMFT_2MFT_2tracking_2include_2MFTTracking_2TrackFitter_8h__incl_org.svg" target="_base">
           <rect id="button" ry="5" rx="5" y="6" x="6" height="38" width="38"
                fill="#f2f5e9" fill-opacity="0.5" stroke="#606060" stroke-width="1.0"/>
           <path id="arrow"
             d="M 11.500037,31.436501 C 11.940474,20.09759 22.043105,11.32322 32.158766,21.979434 L 37.068811,17.246167 C 37.068811,17.246167 37.088388,32 37.088388,32 L 22.160133,31.978069 C 22.160133,31.978069 26.997745,27.140456 26.997745,27.140456 C 18.528582,18.264221 13.291696,25.230495 11.500037,31.436501 z"
             style="fill:#404040;"/>
          </a>
         </g>
        </svg>
</svg>
