<?xml version="1.0" encoding="UTF-8" standalone="no"?>
<!DOCTYPE svg PUBLIC "-//W3C//DTD SVG 1.1//EN"
 "http://www.w3.org/Graphics/SVG/1.1/DTD/svg11.dtd">
<!-- Generated by graphviz version 2.40.1 (20161225.0304)
 -->
<!-- Title: AliHLTEventTriggerData Pages: 1 -->
<!--zoomable 298 -->
<svg id="main" version="1.1" xmlns="http://www.w3.org/2000/svg" xmlns:xlink="http://www.w3.org/1999/xlink" xml:space="preserve" onload="init(evt)">
<style type="text/css"><![CDATA[
.edge:hover path { stroke: red; }
.edge:hover polygon { stroke: red; fill: red; }
]]></style>
<script type="text/javascript"><![CDATA[
var edges = document.getElementsByTagName('g');
if (edges && edges.length) {
  for (var i=0;i<edges.length;i++) {
    if (edges[i].id.substr(0,4)=='edge') {
      edges[i].setAttribute('class','edge');
    }
  }
}
]]></script>
        <defs>
                <circle id="rim" cx="0" cy="0" r="7"/>
                <circle id="rim2" cx="0" cy="0" r="3.5"/>
                <g id="zoomPlus">
                        <use xlink:href="#rim" fill="#404040">
                                <set attributeName="fill" to="#808080" begin="zoomplus.mouseover" end="zoomplus.mouseout"/>
                        </use>
                        <path d="M-4,0h8M0,-4v8" fill="none" stroke="white" stroke-width="1.5" pointer-events="none"/>
                </g>
                <g id="zoomMin">
                        <use xlink:href="#rim" fill="#404040">
                                <set attributeName="fill" to="#808080" begin="zoomminus.mouseover" end="zoomminus.mouseout"/>
                        </use>
                        <path d="M-4,0h8" fill="none" stroke="white" stroke-width="1.5" pointer-events="none"/>
                </g>
                <g id="dirArrow">
                        <path fill="none" stroke="white" stroke-width="1.5" d="M0,-3.0v7 M-2.5,-0.5L0,-3.0L2.5,-0.5"/>
                </g>
               <g id="resetDef">
                       <use xlink:href="#rim2" fill="#404040">
                               <set attributeName="fill" to="#808080" begin="reset.mouseover" end="reset.mouseout"/>
                       </use>
               </g>
        </defs>

<script type="text/javascript">
var viewWidth = 541;
var viewHeight = 298;
var sectionId = 'dynsection-0';
</script>
<script xlink:href="../../svgpan.js"/>
<svg id="graph" class="graph">
<g id="viewport">
<title>AliHLTEventTriggerData</title>
<!-- Node1 -->
<g id="node1" class="node">
<title>Node1</title>
<polygon fill="#bfbfbf" stroke="#000000" points="143,-.5 143,-57.5 274,-57.5 274,-.5 143,-.5"/>
<text text-anchor="middle" x="208.5" y="-45.5" font-family="Helvetica,sans-Serif" font-size="10.00" fill="#000000">AliHLTEventTriggerData</text>
<polyline fill="none" stroke="#000000" points="143,-38.5 274,-38.5 "/>
<text text-anchor="middle" x="208.5" y="-26.5" font-family="Helvetica,sans-Serif" font-size="10.00" fill="#000000"> </text>
<polyline fill="none" stroke="#000000" points="143,-19.5 274,-19.5 "/>
<text text-anchor="middle" x="208.5" y="-7.5" font-family="Helvetica,sans-Serif" font-size="10.00" fill="#000000"> </text>
</g>
<!-- Node2 -->
<g id="node2" class="node">
<title>Node2</title>
<polygon fill="none" stroke="#bfbfbf" points="0,-116.5 0,-173.5 113,-173.5 113,-116.5 0,-116.5"/>
<text text-anchor="middle" x="56.5" y="-161.5" font-family="Helvetica,sans-Serif" font-size="10.00" fill="#000000">anonymous:+@308</text>
<polyline fill="none" stroke="#bfbfbf" points="0,-154.5 113,-154.5 "/>
<text text-anchor="middle" x="56.5" y="-142.5" font-family="Helvetica,sans-Serif" font-size="10.00" fill="#000000"> </text>
<polyline fill="none" stroke="#bfbfbf" points="0,-135.5 113,-135.5 "/>
<text text-anchor="middle" x="56.5" y="-123.5" font-family="Helvetica,sans-Serif" font-size="10.00" fill="#000000"> </text>
</g>
<!-- Node2&#45;&gt;Node1 -->
<g id="edge1" class="edge">
<title>Node2&#45;&gt;Node1</title>
<path fill="none" stroke="#404040" d="M67.5252,-116.1995C73.9576,-102.535 83.2463,-86.8618 95.5,-76 106.1207,-66.5857 118.8923,-58.8844 131.9692,-52.6432"/>
<polygon fill="none" stroke="#404040" points="132.0226,-52.6194 135.8768,-46.5247 142.9851,-47.7383 139.1309,-53.833 132.0226,-52.6194"/>
<text text-anchor="middle" x="115.5" y="-84.5" font-family="Helvetica,sans-Serif" font-size="10.00" fill="#000000"> +@308</text>
</g>
<!-- Node3 -->
<g id="node3" class="node">
<title>Node3</title>
<g id="a_node3"><a xlink:href="../../d2/d7b/structAliHLTEventDDLV0.html" target="_top" xlink:title="{AliHLTEventDDLV0\n||}">
<polygon fill="none" stroke="#000000" points="301,-116.5 301,-173.5 408,-173.5 408,-116.5 301,-116.5"/>
<text text-anchor="middle" x="354.5" y="-161.5" font-family="Helvetica,sans-Serif" font-size="10.00" fill="#000000">AliHLTEventDDLV0</text>
<polyline fill="none" stroke="#000000" points="301,-154.5 408,-154.5 "/>
<text text-anchor="middle" x="354.5" y="-142.5" font-family="Helvetica,sans-Serif" font-size="10.00" fill="#000000"> </text>
<polyline fill="none" stroke="#000000" points="301,-135.5 408,-135.5 "/>
<text text-anchor="middle" x="354.5" y="-123.5" font-family="Helvetica,sans-Serif" font-size="10.00" fill="#000000"> </text>
</a>
</g>
</g>
<!-- Node3&#45;&gt;Node1 -->
<g id="edge2" class="edge">
<title>Node3&#45;&gt;Node1</title>
<path fill="none" stroke="#404040" d="M318.4101,-116.3258C298.9463,-100.8615 274.7319,-81.6226 253.9889,-65.1419"/>
<polygon fill="none" stroke="#404040" points="253.823,-65.0101 246.6369,-64.4094 244.4275,-57.5451 251.6135,-58.1457 253.823,-65.0101"/>
<text text-anchor="middle" x="338" y="-84.5" font-family="Helvetica,sans-Serif" font-size="10.00" fill="#000000"> +fReadoutListV0</text>
</g>
<!-- Node4 -->
<g id="node4" class="node">
<title>Node4</title>
<polygon fill="none" stroke="#bfbfbf" points="324,-232.5 324,-289.5 385,-289.5 385,-232.5 324,-232.5"/>
<text text-anchor="middle" x="354.5" y="-277.5" font-family="Helvetica,sans-Serif" font-size="10.00" fill="#000000">unsigned</text>
<polyline fill="none" stroke="#bfbfbf" points="324,-270.5 385,-270.5 "/>
<text text-anchor="middle" x="354.5" y="-258.5" font-family="Helvetica,sans-Serif" font-size="10.00" fill="#000000"> </text>
<polyline fill="none" stroke="#bfbfbf" points="324,-251.5 385,-251.5 "/>
<text text-anchor="middle" x="354.5" y="-239.5" font-family="Helvetica,sans-Serif" font-size="10.00" fill="#000000"> </text>
</g>
<!-- Node4&#45;&gt;Node1 -->
<g id="edge6" class="edge">
<title>Node4&#45;&gt;Node1</title>
<path fill="none" stroke="#404040" d="M323.7219,-257.5772C278.4596,-250.703 195.3339,-230.6493 158.5,-174 137.1125,-141.1068 156.9082,-98.0434 177.5652,-67.4135"/>
<polygon fill="none" stroke="#404040" points="177.6203,-67.3355 177.8161,-60.1271 184.5454,-57.5353 184.3496,-64.7438 177.6203,-67.3355"/>
<text text-anchor="middle" x="225" y="-159" font-family="Helvetica,sans-Serif" font-size="10.00" fill="#000000"> +fCommonHeader</text>
<text text-anchor="middle" x="225" y="-148" font-family="Helvetica,sans-Serif" font-size="10.00" fill="#000000">+fCommonHeaderWordCnt</text>
<text text-anchor="middle" x="225" y="-137" font-family="Helvetica,sans-Serif" font-size="10.00" fill="#000000">+fHLTStatus</text>
<text text-anchor="middle" x="225" y="-126" font-family="Helvetica,sans-Serif" font-size="10.00" fill="#000000">+fAttributes</text>
</g>
<!-- Node4&#45;&gt;Node3 -->
<g id="edge3" class="edge">
<title>Node4&#45;&gt;Node3</title>
<path fill="none" stroke="#404040" d="M354.5,-232.3258C354.5,-218.3834 354.5,-201.3727 354.5,-186.0815"/>
<polygon fill="none" stroke="#404040" points="354.5001,-185.7463 350.5,-179.7464 354.5,-173.7463 358.5,-179.7463 354.5001,-185.7463"/>
<text text-anchor="middle" x="375" y="-206" font-family="Helvetica,sans-Serif" font-size="10.00" fill="#000000"> +fList</text>
<text text-anchor="middle" x="375" y="-195" font-family="Helvetica,sans-Serif" font-size="10.00" fill="#000000">+fCount</text>
</g>
<!-- Node5 -->
<g id="node5" class="node">
<title>Node5</title>
<g id="a_node5"><a xlink:href="../../de/dd6/structAliHLTEventDDLV1.html" target="_top" xlink:title="{AliHLTEventDDLV1\n||}">
<polygon fill="none" stroke="#000000" points="426,-116.5 426,-173.5 533,-173.5 533,-116.5 426,-116.5"/>
<text text-anchor="middle" x="479.5" y="-161.5" font-family="Helvetica,sans-Serif" font-size="10.00" fill="#000000">AliHLTEventDDLV1</text>
<polyline fill="none" stroke="#000000" points="426,-154.5 533,-154.5 "/>
<text text-anchor="middle" x="479.5" y="-142.5" font-family="Helvetica,sans-Serif" font-size="10.00" fill="#000000"> </text>
<polyline fill="none" stroke="#000000" points="426,-135.5 533,-135.5 "/>
<text text-anchor="middle" x="479.5" y="-123.5" font-family="Helvetica,sans-Serif" font-size="10.00" fill="#000000"> </text>
</a>
</g>
</g>
<!-- Node4&#45;&gt;Node5 -->
<g id="edge5" class="edge">
<title>Node4&#45;&gt;Node5</title>
<path fill="none" stroke="#404040" d="M385.0784,-232.6232C401.4504,-217.43 421.8171,-198.5297 439.4394,-182.1762"/>
<polygon fill="none" stroke="#404040" points="439.5729,-182.0524 441.25,-175.039 448.3689,-173.8896 446.6918,-180.903 439.5729,-182.0524"/>
<text text-anchor="middle" x="448" y="-206" font-family="Helvetica,sans-Serif" font-size="10.00" fill="#000000"> +fList</text>
<text text-anchor="middle" x="448" y="-195" font-family="Helvetica,sans-Serif" font-size="10.00" fill="#000000">+fCount</text>
</g>
<!-- Node5&#45;&gt;Node1 -->
<g id="edge4" class="edge">
<title>Node5&#45;&gt;Node1</title>
<path fill="none" stroke="#404040" d="M446.2504,-116.1768C428.8378,-102.3385 406.5835,-86.5199 384.5,-76 353.6123,-61.2861 317.401,-50.6149 285.8809,-43.1971"/>
<polygon fill="none" stroke="#404040" points="285.7534,-43.1683 279.0168,-45.7408 274.0511,-40.5118 280.7877,-37.9393 285.7534,-43.1683"/>
<text text-anchor="middle" x="461.5" y="-90" font-family="Helvetica,sans-Serif" font-size="10.00" fill="#000000"> +fReadoutList</text>
<text text-anchor="middle" x="461.5" y="-79" font-family="Helvetica,sans-Serif" font-size="10.00" fill="#000000">+fReadoutListV1</text>
</g>
</g>
</svg>
        <g id="navigator" transform="translate(0 0)" fill="#404254">
                <rect fill="#f2f5e9" fill-opacity="0.5" stroke="#606060" stroke-width=".5" x="0" y="0" width="60" height="60"/>
                <use id="zoomplus" xlink:href="#zoomPlus" x="17" y="9" onmousedown="handleZoom(evt,'in')"/>
                <use id="zoomminus" xlink:href="#zoomMin" x="42" y="9" onmousedown="handleZoom(evt,'out')"/>
                <use id="reset" xlink:href="#resetDef" x="30" y="36" onmousedown="handleReset()"/>
                <g id="arrowUp" xlink:href="#dirArrow" transform="translate(30 24)" onmousedown="handlePan(0,-1)">
                  <use xlink:href="#rim" fill="#404040">
                        <set attributeName="fill" to="#808080" begin="arrowUp.mouseover" end="arrowUp.mouseout"/>
                  </use>
                  <path fill="none" stroke="white" stroke-width="1.5" d="M0,-3.0v7 M-2.5,-0.5L0,-3.0L2.5,-0.5"/>
                </g>
                <g id="arrowRight" xlink:href="#dirArrow" transform="rotate(90) translate(36 -43)" onmousedown="handlePan(1,0)">
                  <use xlink:href="#rim" fill="#404040">
                        <set attributeName="fill" to="#808080" begin="arrowRight.mouseover" end="arrowRight.mouseout"/>
                  </use>
                  <path fill="none" stroke="white" stroke-width="1.5" d="M0,-3.0v7 M-2.5,-0.5L0,-3.0L2.5,-0.5"/>
                </g>
                <g id="arrowDown" xlink:href="#dirArrow" transform="rotate(180) translate(-30 -48)" onmousedown="handlePan(0,1)">
                  <use xlink:href="#rim" fill="#404040">
                        <set attributeName="fill" to="#808080" begin="arrowDown.mouseover" end="arrowDown.mouseout"/>
                  </use>
                  <path fill="none" stroke="white" stroke-width="1.5" d="M0,-3.0v7 M-2.5,-0.5L0,-3.0L2.5,-0.5"/>
                </g>
                <g id="arrowLeft" xlink:href="#dirArrow" transform="rotate(270) translate(-36 17)" onmousedown="handlePan(-1,0)">
                  <use xlink:href="#rim" fill="#404040">
                        <set attributeName="fill" to="#808080" begin="arrowLeft.mouseover" end="arrowLeft.mouseout"/>
                  </use>
                  <path fill="none" stroke="white" stroke-width="1.5" d="M0,-3.0v7 M-2.5,-0.5L0,-3.0L2.5,-0.5"/>
                </g>
        </g>
        <svg viewBox="0 0 15 15" width="100%" height="30px" preserveAspectRatio="xMaxYMin meet">
         <g id="arrow_out" transform="scale(0.3 0.3)">
          <a xlink:href="structAliHLTEventTriggerData__coll__graph_org.svg" target="_base">
           <rect id="button" ry="5" rx="5" y="6" x="6" height="38" width="38"
                fill="#f2f5e9" fill-opacity="0.5" stroke="#606060" stroke-width="1.0"/>
           <path id="arrow"
             d="M 11.500037,31.436501 C 11.940474,20.09759 22.043105,11.32322 32.158766,21.979434 L 37.068811,17.246167 C 37.068811,17.246167 37.088388,32 37.088388,32 L 22.160133,31.978069 C 22.160133,31.978069 26.997745,27.140456 26.997745,27.140456 C 18.528582,18.264221 13.291696,25.230495 11.500037,31.436501 z"
             style="fill:#404040;"/>
          </a>
         </g>
        </svg>
</svg>
