<?xml version="1.0" encoding="UTF-8" standalone="no"?>
<!DOCTYPE svg PUBLIC "-//W3C//DTD SVG 1.1//EN"
 "http://www.w3.org/Graphics/SVG/1.1/DTD/svg11.dtd">
<!-- Generated by graphviz version 2.40.1 (20161225.0304)
 -->
<!-- Title: /home/travis/build/AliceO2Group/AliceO2/Detectors/MUON/MID/Raw/src/CRUBareDecoder.cxx Pages: 1 -->
<svg width="2096pt" height="352pt"
 viewBox="0.00 0.00 2096.00 352.00" xmlns="http://www.w3.org/2000/svg" xmlns:xlink="http://www.w3.org/1999/xlink">
<g id="graph0" class="graph" transform="scale(1 1) rotate(0) translate(4 348)">
<title>/home/travis/build/AliceO2Group/AliceO2/Detectors/MUON/MID/Raw/src/CRUBareDecoder.cxx</title>
<!-- Node0 -->
<g id="node1" class="node">
<title>Node0</title>
<polygon fill="#bfbfbf" stroke="#000000" points="741,-291.5 741,-343.5 887,-343.5 887,-291.5 741,-291.5"/>
<text text-anchor="start" x="749" y="-331.5" font-family="Helvetica,sans-Serif" font-size="10.00" fill="#000000">/home/travis/build</text>
<text text-anchor="start" x="749" y="-320.5" font-family="Helvetica,sans-Serif" font-size="10.00" fill="#000000">/AliceO2Group/AliceO2</text>
<text text-anchor="start" x="749" y="-309.5" font-family="Helvetica,sans-Serif" font-size="10.00" fill="#000000">/Detectors/MUON/MID/Raw</text>
<text text-anchor="middle" x="814" y="-298.5" font-family="Helvetica,sans-Serif" font-size="10.00" fill="#000000">/src/CRUBareDecoder.cxx</text>
</g>
<!-- Node1 -->
<g id="node2" class="node">
<title>Node1</title>
<g id="a_node2"><a xlink:href="../../df/dcf/CRUBareDecoder_8h.html" target="_top" xlink:title="MID CRU core decoder. ">
<polygon fill="none" stroke="#000000" points="425,-235.5 425,-254.5 577,-254.5 577,-235.5 425,-235.5"/>
<text text-anchor="middle" x="501" y="-242.5" font-family="Helvetica,sans-Serif" font-size="10.00" fill="#000000">MIDRaw/CRUBareDecoder.h</text>
</a>
</g>
</g>
<!-- Node0&#45;&gt;Node1 -->
<g id="edge1" class="edge">
<title>Node0&#45;&gt;Node1</title>
<path fill="none" stroke="#191970" d="M740.6154,-300.502C682.6816,-287.0828 603.3408,-268.7051 552.1228,-256.8415"/>
<polygon fill="#191970" stroke="#191970" points="552.8007,-253.406 542.2689,-254.5591 551.2211,-260.2254 552.8007,-253.406"/>
</g>
<!-- Node20 -->
<g id="node21" class="node">
<title>Node20</title>
<g id="a_node21"><a xlink:href="../../d7/d1a/RawInfo_8h.html" target="_top" xlink:title="Raw data format MID. ">
<polygon fill="none" stroke="#000000" points="781.5,-235.5 781.5,-254.5 846.5,-254.5 846.5,-235.5 781.5,-235.5"/>
<text text-anchor="middle" x="814" y="-242.5" font-family="Helvetica,sans-Serif" font-size="10.00" fill="#000000">RawInfo.h</text>
</a>
</g>
</g>
<!-- Node0&#45;&gt;Node20 -->
<g id="edge32" class="edge">
<title>Node0&#45;&gt;Node20</title>
<path fill="none" stroke="#191970" d="M814,-291.3258C814,-282.5142 814,-272.8397 814,-264.621"/>
<polygon fill="#191970" stroke="#191970" points="817.5001,-264.534 814,-254.534 810.5001,-264.534 817.5001,-264.534"/>
</g>
<!-- Node21 -->
<g id="node22" class="node">
<title>Node21</title>
<g id="a_node22"><a xlink:href="../../d6/dec/Raw_2include_2DetectorsRaw_2RDHUtils_8h.html" target="_top" xlink:title="DetectorsRaw/RDHUtils.h">
<polygon fill="none" stroke="#000000" points="1065.5,-235.5 1065.5,-254.5 1206.5,-254.5 1206.5,-235.5 1065.5,-235.5"/>
<text text-anchor="middle" x="1136" y="-242.5" font-family="Helvetica,sans-Serif" font-size="10.00" fill="#000000">DetectorsRaw/RDHUtils.h</text>
</a>
</g>
</g>
<!-- Node0&#45;&gt;Node21 -->
<g id="edge34" class="edge">
<title>Node0&#45;&gt;Node21</title>
<path fill="none" stroke="#191970" d="M887.0668,-301.0486C947.0325,-287.547 1030.4749,-268.7595 1083.8664,-256.7381"/>
<polygon fill="#191970" stroke="#191970" points="1084.8138,-260.1125 1093.8008,-254.5014 1083.2762,-253.2835 1084.8138,-260.1125"/>
</g>
<!-- Node2 -->
<g id="node3" class="node">
<title>Node2</title>
<polygon fill="none" stroke="#bfbfbf" points="572,-56.5 572,-75.5 622,-75.5 622,-56.5 572,-56.5"/>
<text text-anchor="middle" x="597" y="-63.5" font-family="Helvetica,sans-Serif" font-size="10.00" fill="#000000">cstdint</text>
</g>
<!-- Node1&#45;&gt;Node2 -->
<g id="edge2" class="edge">
<title>Node1&#45;&gt;Node2</title>
<path fill="none" stroke="#191970" d="M424.9773,-238.9986C369.4254,-232.8494 300.8167,-220.9685 283,-199 277.4009,-192.0962 278.9896,-186.9328 283,-179 294.3297,-156.589 351.0606,-122.2177 374,-112 436.5144,-84.1549 516.4599,-72.9338 561.6717,-68.5867"/>
<polygon fill="#191970" stroke="#191970" points="562.2037,-72.053 571.8488,-67.6688 561.5748,-65.0814 562.2037,-72.053"/>
</g>
<!-- Node3 -->
<g id="node4" class="node">
<title>Node3</title>
<polygon fill="none" stroke="#bfbfbf" points="410.5,-118 410.5,-137 457.5,-137 457.5,-118 410.5,-118"/>
<text text-anchor="middle" x="434" y="-125" font-family="Helvetica,sans-Serif" font-size="10.00" fill="#000000">vector</text>
</g>
<!-- Node1&#45;&gt;Node3 -->
<g id="edge3" class="edge">
<title>Node1&#45;&gt;Node3</title>
<path fill="none" stroke="#191970" d="M494.8556,-235.2102C489.0894,-225.9524 480.2857,-211.6347 473,-199 462.7846,-181.2847 451.6642,-160.7658 443.9217,-146.265"/>
<polygon fill="#191970" stroke="#191970" points="446.9382,-144.4829 439.1538,-137.2958 440.7573,-147.7686 446.9382,-144.4829"/>
</g>
<!-- Node4 -->
<g id="node5" class="node">
<title>Node4</title>
<polygon fill="none" stroke="#bfbfbf" points="663,-118 663,-137 711,-137 711,-118 663,-118"/>
<text text-anchor="middle" x="687" y="-125" font-family="Helvetica,sans-Serif" font-size="10.00" fill="#000000">gsl/gsl</text>
</g>
<!-- Node1&#45;&gt;Node4 -->
<g id="edge4" class="edge">
<title>Node1&#45;&gt;Node4</title>
<path fill="none" stroke="#191970" d="M577.0045,-241.8166C643.9952,-237.2254 734.3676,-226.0617 757,-199 774.5459,-178.0204 744.0357,-155.803 717.9415,-141.8051"/>
<polygon fill="#191970" stroke="#191970" points="719.4774,-138.6594 708.9818,-137.2122 716.2841,-144.8886 719.4774,-138.6594"/>
</g>
<!-- Node5 -->
<g id="node6" class="node">
<title>Node5</title>
<g id="a_node6"><a xlink:href="../../d2/df9/MUON_2MID_2include_2DataFormatsMID_2ROFRecord_8h.html" target="_top" xlink:title="Definition of the MID event record. ">
<polygon fill="none" stroke="#000000" points="844.5,-179.5 844.5,-198.5 1007.5,-198.5 1007.5,-179.5 844.5,-179.5"/>
<text text-anchor="middle" x="926" y="-186.5" font-family="Helvetica,sans-Serif" font-size="10.00" fill="#000000">DataFormatsMID/ROFRecord.h</text>
</a>
</g>
</g>
<!-- Node1&#45;&gt;Node5 -->
<g id="edge5" class="edge">
<title>Node1&#45;&gt;Node5</title>
<path fill="none" stroke="#191970" d="M573.5772,-235.4369C648.4519,-225.571 765.0481,-210.2078 843.4063,-199.8829"/>
<polygon fill="#191970" stroke="#191970" points="844.2651,-203.3001 853.7221,-198.5237 843.3506,-196.3601 844.2651,-203.3001"/>
</g>
<!-- Node12 -->
<g id="node13" class="node">
<title>Node12</title>
<g id="a_node13"><a xlink:href="../../db/d83/CrateMapper_8h.html" target="_top" xlink:title="Mapper to convert the RO Ids to a format suitable for O2. ">
<polygon fill="none" stroke="#000000" points="482,-179.5 482,-198.5 612,-198.5 612,-179.5 482,-179.5"/>
<text text-anchor="middle" x="547" y="-186.5" font-family="Helvetica,sans-Serif" font-size="10.00" fill="#000000">MIDRaw/CrateMapper.h</text>
</a>
</g>
</g>
<!-- Node1&#45;&gt;Node12 -->
<g id="edge13" class="edge">
<title>Node1&#45;&gt;Node12</title>
<path fill="none" stroke="#191970" d="M509.0126,-235.2455C515.4768,-227.3761 524.7385,-216.101 532.4983,-206.6542"/>
<polygon fill="#191970" stroke="#191970" points="535.4364,-208.5916 539.0792,-198.6427 530.0273,-204.1484 535.4364,-208.5916"/>
</g>
<!-- Node14 -->
<g id="node15" class="node">
<title>Node14</title>
<g id="a_node15"><a xlink:href="../../d2/da5/CrateParameters_8h.html" target="_top" xlink:title="MID RO crate parameters. ">
<polygon fill="none" stroke="#000000" points="154,-118 154,-137 304,-137 304,-118 154,-118"/>
<text text-anchor="middle" x="229" y="-125" font-family="Helvetica,sans-Serif" font-size="10.00" fill="#000000">MIDRaw/CrateParameters.h</text>
</a>
</g>
</g>
<!-- Node1&#45;&gt;Node14 -->
<g id="edge16" class="edge">
<title>Node1&#45;&gt;Node14</title>
<path fill="none" stroke="#191970" d="M424.9711,-239.7552C360.7517,-233.7997 275.306,-221.7926 250,-199 235.4721,-185.9151 230.7785,-163.3619 229.371,-147.0792"/>
<polygon fill="#191970" stroke="#191970" points="232.8614,-146.8043 228.8411,-137.0019 225.8711,-147.1719 232.8614,-146.8043"/>
</g>
<!-- Node16 -->
<g id="node17" class="node">
<title>Node16</title>
<g id="a_node17"><a xlink:href="../../de/d54/ELinkDecoder_8h.html" target="_top" xlink:title="MID e&#45;link decoder. ">
<polygon fill="none" stroke="#000000" points="292,-179.5 292,-198.5 426,-198.5 426,-179.5 292,-179.5"/>
<text text-anchor="middle" x="359" y="-186.5" font-family="Helvetica,sans-Serif" font-size="10.00" fill="#000000">MIDRaw/ELinkDecoder.h</text>
</a>
</g>
</g>
<!-- Node1&#45;&gt;Node16 -->
<g id="edge19" class="edge">
<title>Node1&#45;&gt;Node16</title>
<path fill="none" stroke="#191970" d="M476.5893,-235.3733C453.3858,-226.2226 418.2962,-212.3844 392.4858,-202.2057"/>
<polygon fill="#191970" stroke="#191970" points="393.6789,-198.9139 383.0921,-198.5011 391.1108,-205.4258 393.6789,-198.9139"/>
</g>
<!-- Node17 -->
<g id="node18" class="node">
<title>Node17</title>
<g id="a_node18"><a xlink:href="../../d3/d4a/LocalBoardRO_8h.html" target="_top" xlink:title="Structure to store the FEE local board information. ">
<polygon fill="none" stroke="#000000" points="0,-118 0,-137 136,-137 136,-118 0,-118"/>
<text text-anchor="middle" x="68" y="-125" font-family="Helvetica,sans-Serif" font-size="10.00" fill="#000000">MIDRaw/LocalBoardRO.h</text>
</a>
</g>
</g>
<!-- Node1&#45;&gt;Node17 -->
<g id="edge22" class="edge">
<title>Node1&#45;&gt;Node17</title>
<path fill="none" stroke="#191970" d="M424.8052,-236.8445C370.5552,-229.8528 296.3422,-217.8639 233,-199 182.8355,-184.0605 127.6081,-158.0224 95.465,-141.8304"/>
<polygon fill="#191970" stroke="#191970" points="96.7613,-138.5629 86.2618,-137.1446 93.5852,-144.8009 96.7613,-138.5629"/>
</g>
<!-- Node18 -->
<g id="node19" class="node">
<title>Node18</title>
<g id="a_node19"><a xlink:href="../../db/d21/MUON_2MID_2Raw_2include_2MIDRaw_2RawBuffer_8h.html" target="_top" xlink:title="Handler of the RAW buffer. ">
<polygon fill="none" stroke="#000000" points="630,-179.5 630,-198.5 748,-198.5 748,-179.5 630,-179.5"/>
<text text-anchor="middle" x="689" y="-186.5" font-family="Helvetica,sans-Serif" font-size="10.00" fill="#000000">MIDRaw/RawBuffer.h</text>
</a>
</g>
</g>
<!-- Node1&#45;&gt;Node18 -->
<g id="edge26" class="edge">
<title>Node1&#45;&gt;Node18</title>
<path fill="none" stroke="#191970" d="M533.3184,-235.3733C564.8506,-225.9807 612.9621,-211.6496 647.3501,-201.4064"/>
<polygon fill="#191970" stroke="#191970" points="648.5187,-204.7103 657.1034,-198.5011 646.5203,-198.0016 648.5187,-204.7103"/>
</g>
<!-- Node6 -->
<g id="node7" class="node">
<title>Node6</title>
<g id="a_node7"><a xlink:href="../../d9/d80/InteractionRecord_8h.html" target="_top" xlink:title="CommonDataFormat/Interaction\lRecord.h">
<polygon fill="none" stroke="#000000" points="934,-112.5 934,-142.5 1108,-142.5 1108,-112.5 934,-112.5"/>
<text text-anchor="start" x="942" y="-130.5" font-family="Helvetica,sans-Serif" font-size="10.00" fill="#000000">CommonDataFormat/Interaction</text>
<text text-anchor="middle" x="1021" y="-119.5" font-family="Helvetica,sans-Serif" font-size="10.00" fill="#000000">Record.h</text>
</a>
</g>
</g>
<!-- Node5&#45;&gt;Node6 -->
<g id="edge6" class="edge">
<title>Node5&#45;&gt;Node6</title>
<path fill="none" stroke="#191970" d="M940.8438,-179.3906C953.7008,-171.0673 972.7448,-158.7389 989.0442,-148.1872"/>
<polygon fill="#191970" stroke="#191970" points="991.2679,-150.9171 997.7604,-142.5446 987.4638,-145.0409 991.2679,-150.9171"/>
</g>
<!-- Node6&#45;&gt;Node2 -->
<g id="edge11" class="edge">
<title>Node6&#45;&gt;Node2</title>
<path fill="none" stroke="#191970" d="M933.7731,-113.409C930.4748,-112.9247 927.2084,-112.4533 924,-112 797.2604,-94.0938 761.2237,-102.1786 632.0132,-75.9276"/>
<polygon fill="#191970" stroke="#191970" points="632.6355,-72.4823 622.1348,-73.8913 631.2222,-79.3382 632.6355,-72.4823"/>
</g>
<!-- Node7 -->
<g id="node8" class="node">
<title>Node7</title>
<g id="a_node8"><a xlink:href="../../d2/d45/GPUCommonRtypes_8h.html" target="_top" xlink:title="GPUCommonRtypes.h">
<polygon fill="none" stroke="#000000" points="914.5,-56.5 914.5,-75.5 1039.5,-75.5 1039.5,-56.5 914.5,-56.5"/>
<text text-anchor="middle" x="977" y="-63.5" font-family="Helvetica,sans-Serif" font-size="10.00" fill="#000000">GPUCommonRtypes.h</text>
</a>
</g>
</g>
<!-- Node6&#45;&gt;Node7 -->
<g id="edge7" class="edge">
<title>Node6&#45;&gt;Node7</title>
<path fill="none" stroke="#191970" d="M1010.1236,-112.2977C1004.0159,-103.7609 996.3561,-93.0545 989.9412,-84.0883"/>
<polygon fill="#191970" stroke="#191970" points="992.7101,-81.9433 984.045,-75.8469 987.0171,-86.0163 992.7101,-81.9433"/>
</g>
<!-- Node9 -->
<g id="node10" class="node">
<title>Node9</title>
<polygon fill="none" stroke="#bfbfbf" points="392.5,-56.5 392.5,-75.5 441.5,-75.5 441.5,-56.5 392.5,-56.5"/>
<text text-anchor="middle" x="417" y="-63.5" font-family="Helvetica,sans-Serif" font-size="10.00" fill="#000000">iosfwd</text>
</g>
<!-- Node6&#45;&gt;Node9 -->
<g id="edge9" class="edge">
<title>Node6&#45;&gt;Node9</title>
<path fill="none" stroke="#191970" d="M933.7905,-113.2778C930.4874,-112.8302 927.2152,-112.4023 924,-112 746.9363,-89.8467 533.807,-74.0246 451.6343,-68.3267"/>
<polygon fill="#191970" stroke="#191970" points="451.8143,-64.8309 441.5976,-67.6361 451.3338,-71.8143 451.8143,-64.8309"/>
</g>
<!-- Node10 -->
<g id="node11" class="node">
<title>Node10</title>
<polygon fill="none" stroke="#bfbfbf" points="640.5,-56.5 640.5,-75.5 687.5,-75.5 687.5,-56.5 640.5,-56.5"/>
<text text-anchor="middle" x="664" y="-63.5" font-family="Helvetica,sans-Serif" font-size="10.00" fill="#000000">cmath</text>
</g>
<!-- Node6&#45;&gt;Node10 -->
<g id="edge10" class="edge">
<title>Node6&#45;&gt;Node10</title>
<path fill="none" stroke="#191970" d="M933.7514,-113.5533C930.4592,-113.0286 927.2,-112.5094 924,-112 826.273,-96.4426 798.2904,-98.7014 697.6588,-75.8897"/>
<polygon fill="#191970" stroke="#191970" points="698.2181,-72.4271 687.6886,-73.6024 696.6528,-79.2499 698.2181,-72.4271"/>
</g>
<!-- Node11 -->
<g id="node12" class="node">
<title>Node11</title>
<g id="a_node12"><a xlink:href="../../d4/dc6/LHCConstants_8h.html" target="_top" xlink:title="Header to collect LHC related constants. ">
<polygon fill="none" stroke="#000000" points="706,-56.5 706,-75.5 896,-75.5 896,-56.5 706,-56.5"/>
<text text-anchor="middle" x="801" y="-63.5" font-family="Helvetica,sans-Serif" font-size="10.00" fill="#000000">CommonConstants/LHCConstants.h</text>
</a>
</g>
</g>
<!-- Node6&#45;&gt;Node11 -->
<g id="edge12" class="edge">
<title>Node6&#45;&gt;Node11</title>
<path fill="none" stroke="#191970" d="M967.1819,-112.4554C929.6694,-101.9689 880.241,-88.1515 845.0667,-78.3187"/>
<polygon fill="#191970" stroke="#191970" points="845.6653,-74.8519 835.0922,-75.5303 843.7807,-81.5934 845.6653,-74.8519"/>
</g>
<!-- Node8 -->
<g id="node9" class="node">
<title>Node8</title>
<polygon fill="none" stroke="#bfbfbf" points="947.5,-.5 947.5,-19.5 1006.5,-19.5 1006.5,-.5 947.5,-.5"/>
<text text-anchor="middle" x="977" y="-7.5" font-family="Helvetica,sans-Serif" font-size="10.00" fill="#000000">Rtypes.h</text>
</g>
<!-- Node7&#45;&gt;Node8 -->
<g id="edge8" class="edge">
<title>Node7&#45;&gt;Node8</title>
<path fill="none" stroke="#191970" d="M977,-56.2455C977,-48.9382 977,-38.6944 977,-29.7046"/>
<polygon fill="#191970" stroke="#191970" points="980.5001,-29.6426 977,-19.6427 973.5001,-29.6427 980.5001,-29.6426"/>
</g>
<!-- Node12&#45;&gt;Node2 -->
<g id="edge14" class="edge">
<title>Node12&#45;&gt;Node2</title>
<path fill="none" stroke="#191970" d="M554.6666,-179.3079C561.4153,-170.3489 571.0664,-156.4306 577,-143 585.1743,-124.4977 590.5414,-101.9646 593.638,-86.0681"/>
<polygon fill="#191970" stroke="#191970" points="597.1561,-86.2828 595.4991,-75.8184 590.2688,-85.0322 597.1561,-86.2828"/>
</g>
<!-- Node13 -->
<g id="node14" class="node">
<title>Node13</title>
<polygon fill="none" stroke="#bfbfbf" points="475.5,-118 475.5,-137 568.5,-137 568.5,-118 475.5,-118"/>
<text text-anchor="middle" x="522" y="-125" font-family="Helvetica,sans-Serif" font-size="10.00" fill="#000000">unordered_map</text>
</g>
<!-- Node12&#45;&gt;Node13 -->
<g id="edge15" class="edge">
<title>Node12&#45;&gt;Node13</title>
<path fill="none" stroke="#191970" d="M543.0938,-179.3906C539.5554,-170.6862 534.2364,-157.6015 529.825,-146.7494"/>
<polygon fill="#191970" stroke="#191970" points="532.9695,-145.1907 525.9613,-137.2449 526.4848,-147.8268 532.9695,-145.1907"/>
</g>
<!-- Node14&#45;&gt;Node2 -->
<g id="edge17" class="edge">
<title>Node14&#45;&gt;Node2</title>
<path fill="none" stroke="#191970" d="M283.1115,-117.9957C294.6244,-115.9961 306.7117,-113.9135 318,-112 405.8024,-97.1164 509.265,-80.228 562.1046,-71.6496"/>
<polygon fill="#191970" stroke="#191970" points="562.6674,-75.1042 571.9779,-70.0478 561.5464,-68.1945 562.6674,-75.1042"/>
</g>
<!-- Node15 -->
<g id="node16" class="node">
<title>Node15</title>
<polygon fill="none" stroke="#bfbfbf" points="128,-56.5 128,-75.5 170,-75.5 170,-56.5 128,-56.5"/>
<text text-anchor="middle" x="149" y="-63.5" font-family="Helvetica,sans-Serif" font-size="10.00" fill="#000000">array</text>
</g>
<!-- Node14&#45;&gt;Node15 -->
<g id="edge18" class="edge">
<title>Node14&#45;&gt;Node15</title>
<path fill="none" stroke="#191970" d="M216.5,-117.8906C203.9364,-108.2324 184.3577,-93.1812 169.5151,-81.771"/>
<polygon fill="#191970" stroke="#191970" points="171.4735,-78.8618 161.4122,-75.5419 167.2072,-84.4115 171.4735,-78.8618"/>
</g>
<!-- Node16&#45;&gt;Node2 -->
<g id="edge20" class="edge">
<title>Node16&#45;&gt;Node2</title>
<path fill="none" stroke="#191970" d="M361.4955,-179.2596C366.2511,-162.7424 378.2272,-129.3474 401,-112 425.9844,-92.9679 512.4845,-77.9874 561.8169,-70.7495"/>
<polygon fill="#191970" stroke="#191970" points="562.3433,-74.2099 571.7442,-69.3238 561.3482,-67.281 562.3433,-74.2099"/>
</g>
<!-- Node16&#45;&gt;Node3 -->
<g id="edge21" class="edge">
<title>Node16&#45;&gt;Node3</title>
<path fill="none" stroke="#191970" d="M370.7188,-179.3906C382.3188,-169.8786 400.2979,-155.1357 414.1321,-143.7917"/>
<polygon fill="#191970" stroke="#191970" points="416.6026,-146.2921 422.116,-137.2449 412.164,-140.8792 416.6026,-146.2921"/>
</g>
<!-- Node17&#45;&gt;Node2 -->
<g id="edge23" class="edge">
<title>Node17&#45;&gt;Node2</title>
<path fill="none" stroke="#191970" d="M111.4416,-117.9877C122.3599,-115.8089 134.0787,-113.6509 145,-112 299.5625,-88.6351 485.6976,-73.8782 561.8952,-68.4041"/>
<polygon fill="#191970" stroke="#191970" points="562.1757,-71.8931 571.9026,-67.6934 561.6798,-64.9107 562.1757,-71.8931"/>
</g>
<!-- Node17&#45;&gt;Node9 -->
<g id="edge25" class="edge">
<title>Node17&#45;&gt;Node9</title>
<path fill="none" stroke="#191970" d="M114.373,-117.9224C124.4581,-115.9074 135.0779,-113.8372 145,-112 230.0301,-96.2557 330.4257,-79.8372 382.212,-71.5279"/>
<polygon fill="#191970" stroke="#191970" points="382.8811,-74.9654 392.2022,-69.9288 381.7747,-68.0534 382.8811,-74.9654"/>
</g>
<!-- Node17&#45;&gt;Node15 -->
<g id="edge24" class="edge">
<title>Node17&#45;&gt;Node15</title>
<path fill="none" stroke="#191970" d="M80.6563,-117.8906C93.3768,-108.2324 113.2004,-93.1812 128.2284,-81.771"/>
<polygon fill="#191970" stroke="#191970" points="130.5846,-84.3766 136.4326,-75.5419 126.3516,-78.8015 130.5846,-84.3766"/>
</g>
<!-- Node18&#45;&gt;Node2 -->
<g id="edge27" class="edge">
<title>Node18&#45;&gt;Node2</title>
<path fill="none" stroke="#191970" d="M681.4521,-179.1579C674.3381,-169.8632 663.3968,-155.5205 654,-143 638.8107,-122.7614 621.5434,-99.3826 610.0328,-83.7442"/>
<polygon fill="#191970" stroke="#191970" points="612.724,-81.4959 603.98,-75.5132 607.0847,-85.6429 612.724,-81.4959"/>
</g>
<!-- Node18&#45;&gt;Node3 -->
<g id="edge28" class="edge">
<title>Node18&#45;&gt;Node3</title>
<path fill="none" stroke="#191970" d="M635.1915,-179.4843C579.5811,-169.3673 496.6947,-153.4194 466,-143 464.3925,-142.4543 462.7611,-141.847 461.1295,-141.1977"/>
<polygon fill="#191970" stroke="#191970" points="462.5098,-137.9812 451.9473,-137.1542 459.6887,-144.3876 462.5098,-137.9812"/>
</g>
<!-- Node18&#45;&gt;Node4 -->
<g id="edge29" class="edge">
<title>Node18&#45;&gt;Node4</title>
<path fill="none" stroke="#191970" d="M688.6875,-179.3906C688.4103,-170.8657 687.9964,-158.1392 687.6479,-147.4235"/>
<polygon fill="#191970" stroke="#191970" points="691.1402,-147.1258 687.3169,-137.2449 684.1439,-147.3534 691.1402,-147.1258"/>
</g>
<!-- Node19 -->
<g id="node20" class="node">
<title>Node19</title>
<g id="a_node20"><a xlink:href="../../d4/d78/DataFormats_2Headers_2include_2Headers_2RAWDataHeader_8h.html" target="_top" xlink:title="Headers/RAWDataHeader.h">
<polygon fill="none" stroke="#000000" points="766.5,-118 766.5,-137 915.5,-137 915.5,-118 766.5,-118"/>
<text text-anchor="middle" x="841" y="-125" font-family="Helvetica,sans-Serif" font-size="10.00" fill="#000000">Headers/RAWDataHeader.h</text>
</a>
</g>
</g>
<!-- Node18&#45;&gt;Node19 -->
<g id="edge30" class="edge">
<title>Node18&#45;&gt;Node19</title>
<path fill="none" stroke="#191970" d="M712.75,-179.3906C738.2939,-169.0554 779.1009,-152.5447 807.811,-140.9284"/>
<polygon fill="#191970" stroke="#191970" points="809.4596,-144.0371 817.4168,-137.0419 806.834,-137.5481 809.4596,-144.0371"/>
</g>
<!-- Node19&#45;&gt;Node2 -->
<g id="edge31" class="edge">
<title>Node19&#45;&gt;Node2</title>
<path fill="none" stroke="#191970" d="M799.814,-117.9852C759.4425,-108.5282 695.9359,-93.3063 632.053,-76.2033"/>
<polygon fill="#191970" stroke="#191970" points="632.7809,-72.7747 622.2148,-73.555 630.9613,-79.5341 632.7809,-72.7747"/>
</g>
<!-- Node20&#45;&gt;Node2 -->
<g id="edge33" class="edge">
<title>Node20&#45;&gt;Node2</title>
<path fill="none" stroke="#191970" d="M809.8906,-235.3065C799.0047,-210.8021 767.0016,-145.9218 720,-112 705.5288,-101.5559 662.7562,-86.6823 631.7098,-76.7029"/>
<polygon fill="#191970" stroke="#191970" points="632.6829,-73.3398 622.0925,-73.6467 630.5628,-80.011 632.6829,-73.3398"/>
</g>
<!-- Node21&#45;&gt;Node6 -->
<g id="edge45" class="edge">
<title>Node21&#45;&gt;Node6</title>
<path fill="none" stroke="#191970" d="M1126.5891,-235.3845C1108.5046,-216.9068 1068.457,-175.9887 1043.21,-150.1928"/>
<polygon fill="#191970" stroke="#191970" points="1045.3866,-147.4129 1035.8906,-142.7143 1040.3839,-152.3092 1045.3866,-147.4129"/>
</g>
<!-- Node21&#45;&gt;Node7 -->
<g id="edge38" class="edge">
<title>Node21&#45;&gt;Node7</title>
<path fill="none" stroke="#191970" d="M1137.7502,-235.2804C1141.4829,-211.2706 1147.5666,-148.466 1117,-112 1105.7812,-98.616 1066.7118,-86.4247 1032.6876,-77.9604"/>
<polygon fill="#191970" stroke="#191970" points="1033.3337,-74.5158 1022.7909,-75.5652 1031.687,-81.3194 1033.3337,-74.5158"/>
</g>
<!-- Node21&#45;&gt;Node19 -->
<g id="edge39" class="edge">
<title>Node21&#45;&gt;Node19</title>
<path fill="none" stroke="#191970" d="M1120.9977,-235.3526C1098.7852,-221.3967 1055.5099,-195.4501 1016,-179 975.6851,-162.2147 928.0287,-148.5703 892.6356,-139.553"/>
<polygon fill="#191970" stroke="#191970" points="893.0827,-136.0568 882.5317,-137.0193 891.38,-142.8466 893.0827,-136.0568"/>
</g>
<!-- Node22 -->
<g id="node23" class="node">
<title>Node22</title>
<g id="a_node23"><a xlink:href="../../df/d21/GPUCommonDef_8h.html" target="_top" xlink:title="GPUCommonDef.h">
<polygon fill="none" stroke="#000000" points="1749.5,-118 1749.5,-137 1856.5,-137 1856.5,-118 1749.5,-118"/>
<text text-anchor="middle" x="1803" y="-125" font-family="Helvetica,sans-Serif" font-size="10.00" fill="#000000">GPUCommonDef.h</text>
</a>
</g>
</g>
<!-- Node21&#45;&gt;Node22 -->
<g id="edge35" class="edge">
<title>Node21&#45;&gt;Node22</title>
<path fill="none" stroke="#191970" d="M1206.7429,-240.0767C1287.2366,-233.7376 1422.3903,-220.8519 1537,-199 1618.69,-183.4247 1712.1455,-156.015 1763.6833,-140.0373"/>
<polygon fill="#191970" stroke="#191970" points="1764.9121,-143.3204 1773.416,-137.0011 1762.8274,-136.638 1764.9121,-143.3204"/>
</g>
<!-- Node25 -->
<g id="node26" class="node">
<title>Node25</title>
<g id="a_node26"><a xlink:href="../../d6/d89/RDHAny_8h.html" target="_top" xlink:title="Headers/RDHAny.h">
<polygon fill="none" stroke="#000000" points="1420,-179.5 1420,-198.5 1528,-198.5 1528,-179.5 1420,-179.5"/>
<text text-anchor="middle" x="1474" y="-186.5" font-family="Helvetica,sans-Serif" font-size="10.00" fill="#000000">Headers/RDHAny.h</text>
</a>
</g>
</g>
<!-- Node21&#45;&gt;Node25 -->
<g id="edge40" class="edge">
<title>Node21&#45;&gt;Node25</title>
<path fill="none" stroke="#191970" d="M1193.7202,-235.4369C1253.7317,-225.4942 1347.4431,-209.968 1409.7649,-199.6425"/>
<polygon fill="#191970" stroke="#191970" points="1410.5768,-203.0558 1419.8702,-197.9682 1409.4326,-196.1499 1410.5768,-203.0558"/>
</g>
<!-- Node28 -->
<g id="node29" class="node">
<title>Node28</title>
<g id="a_node29"><a xlink:href="../../d7/d34/DAQID_8h.html" target="_top" xlink:title="Headers/DAQID.h">
<polygon fill="none" stroke="#000000" points="1252.5,-179.5 1252.5,-198.5 1353.5,-198.5 1353.5,-179.5 1252.5,-179.5"/>
<text text-anchor="middle" x="1303" y="-186.5" font-family="Helvetica,sans-Serif" font-size="10.00" fill="#000000">Headers/DAQID.h</text>
</a>
</g>
</g>
<!-- Node21&#45;&gt;Node28 -->
<g id="edge46" class="edge">
<title>Node21&#45;&gt;Node28</title>
<path fill="none" stroke="#191970" d="M1164.7083,-235.3733C1192.3577,-226.1016 1234.3576,-212.0178 1264.8166,-201.804"/>
<polygon fill="#191970" stroke="#191970" points="1266.2979,-204.9989 1274.6663,-198.5011 1264.0724,-198.3621 1266.2979,-204.9989"/>
</g>
<!-- Node23 -->
<g id="node24" class="node">
<title>Node23</title>
<g id="a_node24"><a xlink:href="../../d5/d93/GPUCommonDefSettings_8h.html" target="_top" xlink:title="GPUCommonDefSettings.h">
<polygon fill="none" stroke="#000000" points="1798,-56.5 1798,-75.5 1946,-75.5 1946,-56.5 1798,-56.5"/>
<text text-anchor="middle" x="1872" y="-63.5" font-family="Helvetica,sans-Serif" font-size="10.00" fill="#000000">GPUCommonDefSettings.h</text>
</a>
</g>
</g>
<!-- Node22&#45;&gt;Node23 -->
<g id="edge36" class="edge">
<title>Node22&#45;&gt;Node23</title>
<path fill="none" stroke="#191970" d="M1813.7813,-117.8906C1824.3526,-108.4683 1840.6825,-93.9134 1853.3603,-82.6137"/>
<polygon fill="#191970" stroke="#191970" points="1855.9304,-85.0114 1861.0667,-75.7449 1851.2728,-79.7858 1855.9304,-85.0114"/>
</g>
<!-- Node24 -->
<g id="node25" class="node">
<title>Node24</title>
<g id="a_node25"><a xlink:href="../../da/d5a/GPUCommonDefAPI_8h.html" target="_top" xlink:title="GPUCommonDefAPI.h">
<polygon fill="none" stroke="#000000" points="1964,-56.5 1964,-75.5 2088,-75.5 2088,-56.5 1964,-56.5"/>
<text text-anchor="middle" x="2026" y="-63.5" font-family="Helvetica,sans-Serif" font-size="10.00" fill="#000000">GPUCommonDefAPI.h</text>
</a>
</g>
</g>
<!-- Node22&#45;&gt;Node24 -->
<g id="edge37" class="edge">
<title>Node22&#45;&gt;Node24</title>
<path fill="none" stroke="#191970" d="M1837.8438,-117.8906C1876.6286,-107.1944 1939.3977,-89.8836 1981.6559,-78.2294"/>
<polygon fill="#191970" stroke="#191970" points="1982.6913,-81.5746 1991.4009,-75.5419 1980.8303,-74.8265 1982.6913,-81.5746"/>
</g>
<!-- Node25&#45;&gt;Node19 -->
<g id="edge42" class="edge">
<title>Node25&#45;&gt;Node19</title>
<path fill="none" stroke="#191970" d="M1419.8083,-184.0322C1401.7424,-182.3989 1381.5064,-180.5941 1363,-179 1168.3975,-162.237 1118.6177,-168.7542 925,-143 916.242,-141.835 907.0108,-140.3728 898.0011,-138.8148"/>
<polygon fill="#191970" stroke="#191970" points="898.4189,-135.3342 887.9599,-137.0257 897.1909,-142.2256 898.4189,-135.3342"/>
</g>
<!-- Node25&#45;&gt;Node22 -->
<g id="edge41" class="edge">
<title>Node25&#45;&gt;Node22</title>
<path fill="none" stroke="#191970" d="M1525.0453,-179.4581C1583.6026,-168.512 1679.5569,-150.5752 1742.0007,-138.9026"/>
<polygon fill="#191970" stroke="#191970" points="1742.9191,-142.2916 1752.1057,-137.0137 1741.6328,-135.4108 1742.9191,-142.2916"/>
</g>
<!-- Node26 -->
<g id="node27" class="node">
<title>Node26</title>
<polygon fill="none" stroke="#bfbfbf" points="1502.5,-118 1502.5,-137 1571.5,-137 1571.5,-118 1502.5,-118"/>
<text text-anchor="middle" x="1537" y="-125" font-family="Helvetica,sans-Serif" font-size="10.00" fill="#000000">type_traits</text>
</g>
<!-- Node25&#45;&gt;Node26 -->
<g id="edge43" class="edge">
<title>Node25&#45;&gt;Node26</title>
<path fill="none" stroke="#191970" d="M1483.8438,-179.3906C1493.4039,-170.0581 1508.1223,-155.6902 1519.6495,-144.4374"/>
<polygon fill="#191970" stroke="#191970" points="1522.3066,-146.7348 1527.0175,-137.2449 1517.4168,-141.7257 1522.3066,-146.7348"/>
</g>
<!-- Node27 -->
<g id="node28" class="node">
<title>Node27</title>
<polygon fill="none" stroke="#bfbfbf" points="1714.5,-56.5 1714.5,-75.5 1779.5,-75.5 1779.5,-56.5 1714.5,-56.5"/>
<text text-anchor="middle" x="1747" y="-63.5" font-family="Helvetica,sans-Serif" font-size="10.00" fill="#000000">stdexcept</text>
</g>
<!-- Node25&#45;&gt;Node27 -->
<g id="edge44" class="edge">
<title>Node25&#45;&gt;Node27</title>
<path fill="none" stroke="#191970" d="M1473.4355,-179.3051C1473.0535,-162.8568 1474.8746,-129.5627 1494,-112 1561.7443,-49.7909 1608.5959,-92.0046 1704.4362,-75.8395"/>
<polygon fill="#191970" stroke="#191970" points="1705.3002,-79.2387 1714.4868,-73.9608 1704.0139,-72.3579 1705.3002,-79.2387"/>
</g>
<!-- Node29 -->
<g id="node30" class="node">
<title>Node29</title>
<g id="a_node30"><a xlink:href="../../dc/dcd/DataHeader_8h.html" target="_top" xlink:title="Headers/DataHeader.h">
<polygon fill="none" stroke="#000000" points="1279.5,-118 1279.5,-137 1406.5,-137 1406.5,-118 1279.5,-118"/>
<text text-anchor="middle" x="1343" y="-125" font-family="Helvetica,sans-Serif" font-size="10.00" fill="#000000">Headers/DataHeader.h</text>
</a>
</g>
</g>
<!-- Node28&#45;&gt;Node29 -->
<g id="edge47" class="edge">
<title>Node28&#45;&gt;Node29</title>
<path fill="none" stroke="#191970" d="M1309.25,-179.3906C1315.0865,-170.417 1323.9509,-156.7879 1331.1306,-145.7491"/>
<polygon fill="#191970" stroke="#191970" points="1334.1436,-147.5361 1336.6619,-137.2449 1328.2755,-143.7194 1334.1436,-147.5361"/>
</g>
<!-- Node29&#45;&gt;Node2 -->
<g id="edge48" class="edge">
<title>Node29&#45;&gt;Node2</title>
<path fill="none" stroke="#191970" d="M1279.2748,-123.0716C1118.5991,-111.884 705.0457,-82.9441 632.1323,-75.2991"/>
<polygon fill="#191970" stroke="#191970" points="632.4662,-71.8136 622.1069,-74.035 631.5905,-78.7586 632.4662,-71.8136"/>
</g>
<!-- Node29&#45;&gt;Node27 -->
<g id="edge53" class="edge">
<title>Node29&#45;&gt;Node27</title>
<path fill="none" stroke="#191970" d="M1406.7725,-118.7544C1496.0479,-106.4652 1652.3616,-84.7653 1704.1616,-75.9255"/>
<polygon fill="#191970" stroke="#191970" points="1704.8231,-79.3627 1714.0469,-74.1501 1703.5856,-72.473 1704.8231,-79.3627"/>
</g>
<!-- Node30 -->
<g id="node31" class="node">
<title>Node30</title>
<polygon fill="none" stroke="#bfbfbf" points="1500,-56.5 1500,-75.5 1558,-75.5 1558,-56.5 1500,-56.5"/>
<text text-anchor="middle" x="1529" y="-63.5" font-family="Helvetica,sans-Serif" font-size="10.00" fill="#000000">memory</text>
</g>
<!-- Node29&#45;&gt;Node30 -->
<g id="edge49" class="edge">
<title>Node29&#45;&gt;Node30</title>
<path fill="none" stroke="#191970" d="M1372.0625,-117.8906C1403.8662,-107.3749 1455.0051,-90.466 1490.2144,-78.8243"/>
<polygon fill="#191970" stroke="#191970" points="1491.7459,-82.0043 1500.1416,-75.5419 1489.5483,-75.3582 1491.7459,-82.0043"/>
</g>
<!-- Node31 -->
<g id="node32" class="node">
<title>Node31</title>
<polygon fill="none" stroke="#bfbfbf" points="1576,-56.5 1576,-75.5 1628,-75.5 1628,-56.5 1576,-56.5"/>
<text text-anchor="middle" x="1602" y="-63.5" font-family="Helvetica,sans-Serif" font-size="10.00" fill="#000000">cassert</text>
</g>
<!-- Node29&#45;&gt;Node31 -->
<g id="edge50" class="edge">
<title>Node29&#45;&gt;Node31</title>
<path fill="none" stroke="#191970" d="M1387.7918,-117.9247C1431.0047,-108.5255 1498.4778,-93.427 1565.7465,-76.2347"/>
<polygon fill="#191970" stroke="#191970" points="1566.8539,-79.5639 1575.667,-73.6834 1565.1103,-72.7845 1566.8539,-79.5639"/>
</g>
<!-- Node32 -->
<g id="node33" class="node">
<title>Node32</title>
<polygon fill="none" stroke="#bfbfbf" points="1646,-56.5 1646,-75.5 1696,-75.5 1696,-56.5 1646,-56.5"/>
<text text-anchor="middle" x="1671" y="-63.5" font-family="Helvetica,sans-Serif" font-size="10.00" fill="#000000">cstring</text>
</g>
<!-- Node29&#45;&gt;Node32 -->
<g id="edge51" class="edge">
<title>Node29&#45;&gt;Node32</title>
<path fill="none" stroke="#191970" d="M1406.5028,-118.4909C1464.1114,-109.8386 1551.5059,-95.52 1636.0703,-76.0226"/>
<polygon fill="#191970" stroke="#191970" points="1636.8896,-79.4255 1645.833,-73.7452 1635.2994,-72.6085 1636.8896,-79.4255"/>
</g>
<!-- Node33 -->
<g id="node34" class="node">
<title>Node33</title>
<polygon fill="none" stroke="#bfbfbf" points="1058,-56.5 1058,-75.5 1122,-75.5 1122,-56.5 1058,-56.5"/>
<text text-anchor="middle" x="1090" y="-63.5" font-family="Helvetica,sans-Serif" font-size="10.00" fill="#000000">algorithm</text>
</g>
<!-- Node29&#45;&gt;Node33 -->
<g id="edge52" class="edge">
<title>Node29&#45;&gt;Node33</title>
<path fill="none" stroke="#191970" d="M1303.5342,-117.9243C1263.0366,-108.0957 1197.9206,-92.2853 1132.33,-76.3223"/>
<polygon fill="#191970" stroke="#191970" points="1132.7723,-72.8279 1122.2283,-73.8635 1131.1168,-79.6293 1132.7723,-72.8279"/>
</g>
<!-- Node34 -->
<g id="node35" class="node">
<title>Node34</title>
<polygon fill="none" stroke="#bfbfbf" points="1140,-56.5 1140,-75.5 1184,-75.5 1184,-56.5 1140,-56.5"/>
<text text-anchor="middle" x="1162" y="-63.5" font-family="Helvetica,sans-Serif" font-size="10.00" fill="#000000">string</text>
</g>
<!-- Node29&#45;&gt;Node34 -->
<g id="edge54" class="edge">
<title>Node29&#45;&gt;Node34</title>
<path fill="none" stroke="#191970" d="M1314.7188,-117.8906C1281.8696,-106.7292 1227.8234,-88.3654 1193.6147,-76.742"/>
<polygon fill="#191970" stroke="#191970" points="1194.698,-73.4136 1184.1036,-73.5103 1192.4459,-80.0415 1194.698,-73.4136"/>
</g>
<!-- Node35 -->
<g id="node36" class="node">
<title>Node35</title>
<polygon fill="none" stroke="#bfbfbf" points="1202,-56.5 1202,-75.5 1252,-75.5 1252,-56.5 1202,-56.5"/>
<text text-anchor="middle" x="1227" y="-63.5" font-family="Helvetica,sans-Serif" font-size="10.00" fill="#000000">climits</text>
</g>
<!-- Node29&#45;&gt;Node35 -->
<g id="edge55" class="edge">
<title>Node29&#45;&gt;Node35</title>
<path fill="none" stroke="#191970" d="M1324.875,-117.8906C1305.8917,-107.8262 1275.8627,-91.9057 1254.0693,-80.3514"/>
<polygon fill="#191970" stroke="#191970" points="1255.4723,-77.1338 1244.9977,-75.5419 1252.1934,-83.3184 1255.4723,-77.1338"/>
</g>
<!-- Node36 -->
<g id="node37" class="node">
<title>Node36</title>
<g id="a_node37"><a xlink:href="../../d7/df8/Types_8h.html" target="_top" xlink:title="MemoryResources/Types.h">
<polygon fill="none" stroke="#000000" points="1270,-56.5 1270,-75.5 1416,-75.5 1416,-56.5 1270,-56.5"/>
<text text-anchor="middle" x="1343" y="-63.5" font-family="Helvetica,sans-Serif" font-size="10.00" fill="#000000">MemoryResources/Types.h</text>
</a>
</g>
</g>
<!-- Node29&#45;&gt;Node36 -->
<g id="edge56" class="edge">
<title>Node29&#45;&gt;Node36</title>
<path fill="none" stroke="#191970" d="M1343,-117.8906C1343,-109.3657 1343,-96.6392 1343,-85.9235"/>
<polygon fill="#191970" stroke="#191970" points="1346.5001,-85.7448 1343,-75.7449 1339.5001,-85.7449 1346.5001,-85.7448"/>
</g>
<!-- Node37 -->
<g id="node38" class="node">
<title>Node37</title>
<polygon fill="none" stroke="#bfbfbf" points="1434.5,-56.5 1434.5,-75.5 1481.5,-75.5 1481.5,-56.5 1434.5,-56.5"/>
<text text-anchor="middle" x="1458" y="-63.5" font-family="Helvetica,sans-Serif" font-size="10.00" fill="#000000">cerrno</text>
</g>
<!-- Node29&#45;&gt;Node37 -->
<g id="edge57" class="edge">
<title>Node29&#45;&gt;Node37</title>
<path fill="none" stroke="#191970" d="M1360.9688,-117.8906C1379.7884,-107.8262 1409.5585,-91.9057 1431.1641,-80.3514"/>
<polygon fill="#191970" stroke="#191970" points="1432.9898,-83.3442 1440.1574,-75.5419 1429.6886,-77.1714 1432.9898,-83.3442"/>
</g>
</g>
</svg>
