<?xml version="1.0" encoding="UTF-8" standalone="no"?>
<!DOCTYPE svg PUBLIC "-//W3C//DTD SVG 1.1//EN"
 "http://www.w3.org/Graphics/SVG/1.1/DTD/svg11.dtd">
<!-- Generated by graphviz version 2.40.1 (20161225.0304)
 -->
<!-- Title: /home/travis/build/AliceO2Group/AliceO2/DataFormats/Detectors/Common/include/DetectorsCommonDataFormats/SimTraits.h Pages: 1 -->
<svg width="1235pt" height="363pt"
 viewBox="0.00 0.00 1235.00 363.00" xmlns="http://www.w3.org/2000/svg" xmlns:xlink="http://www.w3.org/1999/xlink">
<g id="graph0" class="graph" transform="scale(1 1) rotate(0) translate(4 359)">
<title>/home/travis/build/AliceO2Group/AliceO2/DataFormats/Detectors/Common/include/DetectorsCommonDataFormats/SimTraits.h</title>
<!-- Node0 -->
<g id="node1" class="node">
<title>Node0</title>
<polygon fill="#bfbfbf" stroke="#000000" points="499.5,-291.5 499.5,-354.5 696.5,-354.5 696.5,-291.5 499.5,-291.5"/>
<text text-anchor="start" x="507.5" y="-342.5" font-family="Helvetica,sans-Serif" font-size="10.00" fill="#000000">/home/travis/build</text>
<text text-anchor="start" x="507.5" y="-331.5" font-family="Helvetica,sans-Serif" font-size="10.00" fill="#000000">/AliceO2Group/AliceO2</text>
<text text-anchor="start" x="507.5" y="-320.5" font-family="Helvetica,sans-Serif" font-size="10.00" fill="#000000">/DataFormats/Detectors</text>
<text text-anchor="start" x="507.5" y="-309.5" font-family="Helvetica,sans-Serif" font-size="10.00" fill="#000000">/Common/include/DetectorsCommon</text>
<text text-anchor="middle" x="598" y="-298.5" font-family="Helvetica,sans-Serif" font-size="10.00" fill="#000000">DataFormats/SimTraits.h</text>
</g>
<!-- Node1 -->
<g id="node2" class="node">
<title>Node1</title>
<g id="a_node2"><a xlink:href="../../d6/d31/DetID_8h.html" target="_top" xlink:title="DetectorsCommonDataFormats\l/DetID.h">
<polygon fill="none" stroke="#000000" points="512.5,-224.5 512.5,-254.5 683.5,-254.5 683.5,-224.5 512.5,-224.5"/>
<text text-anchor="start" x="520.5" y="-242.5" font-family="Helvetica,sans-Serif" font-size="10.00" fill="#000000">DetectorsCommonDataFormats</text>
<text text-anchor="middle" x="598" y="-231.5" font-family="Helvetica,sans-Serif" font-size="10.00" fill="#000000">/DetID.h</text>
</a>
</g>
</g>
<!-- Node0&#45;&gt;Node1 -->
<g id="edge1" class="edge">
<title>Node0&#45;&gt;Node1</title>
<path fill="none" stroke="#191970" d="M598,-291.4322C598,-282.6979 598,-273.3303 598,-264.989"/>
<polygon fill="#191970" stroke="#191970" points="601.5001,-264.7544 598,-254.7545 594.5001,-264.7545 601.5001,-264.7544"/>
</g>
<!-- Node2 -->
<g id="node3" class="node">
<title>Node2</title>
<polygon fill="none" stroke="#bfbfbf" points="68.5,-168.5 68.5,-187.5 127.5,-187.5 127.5,-168.5 68.5,-168.5"/>
<text text-anchor="middle" x="98" y="-175.5" font-family="Helvetica,sans-Serif" font-size="10.00" fill="#000000">Rtypes.h</text>
</g>
<!-- Node1&#45;&gt;Node2 -->
<g id="edge2" class="edge">
<title>Node1&#45;&gt;Node2</title>
<path fill="none" stroke="#191970" d="M512.2991,-232.6806C420.352,-224.6984 270.2308,-209.7437 142,-188 140.5519,-187.7544 139.0798,-187.4912 137.5951,-187.2142"/>
<polygon fill="#191970" stroke="#191970" points="138.227,-183.7713 127.7328,-185.2277 136.8448,-190.6335 138.227,-183.7713"/>
</g>
<!-- Node3 -->
<g id="node4" class="node">
<title>Node3</title>
<polygon fill="none" stroke="#bfbfbf" points="0,-112.5 0,-131.5 42,-131.5 42,-112.5 0,-112.5"/>
<text text-anchor="middle" x="21" y="-119.5" font-family="Helvetica,sans-Serif" font-size="10.00" fill="#000000">array</text>
</g>
<!-- Node1&#45;&gt;Node3 -->
<g id="edge3" class="edge">
<title>Node1&#45;&gt;Node3</title>
<path fill="none" stroke="#191970" d="M512.2768,-232.6461C407.3522,-223.6337 236.093,-206.7312 175,-188 156.3761,-182.2899 153.7292,-176.0705 136,-168 107.7445,-155.1378 74.7827,-142.1526 51.4099,-133.2741"/>
<polygon fill="#191970" stroke="#191970" points="52.6135,-129.9875 42.0217,-129.7328 50.1429,-136.537 52.6135,-129.9875"/>
</g>
<!-- Node4 -->
<g id="node5" class="node">
<title>Node4</title>
<polygon fill="none" stroke="#bfbfbf" points="795,-168.5 795,-187.5 839,-187.5 839,-168.5 795,-168.5"/>
<text text-anchor="middle" x="817" y="-175.5" font-family="Helvetica,sans-Serif" font-size="10.00" fill="#000000">bitset</text>
</g>
<!-- Node1&#45;&gt;Node4 -->
<g id="edge4" class="edge">
<title>Node1&#45;&gt;Node4</title>
<path fill="none" stroke="#191970" d="M655.3694,-224.4966C690.3674,-215.1796 736.2185,-202.6832 784.9119,-188.2431"/>
<polygon fill="#191970" stroke="#191970" points="786.1026,-191.5404 794.6861,-185.3295 784.1029,-184.8321 786.1026,-191.5404"/>
</g>
<!-- Node5 -->
<g id="node6" class="node">
<title>Node5</title>
<polygon fill="none" stroke="#bfbfbf" points="481,-112.5 481,-131.5 533,-131.5 533,-112.5 481,-112.5"/>
<text text-anchor="middle" x="507" y="-119.5" font-family="Helvetica,sans-Serif" font-size="10.00" fill="#000000">cassert</text>
</g>
<!-- Node1&#45;&gt;Node5 -->
<g id="edge5" class="edge">
<title>Node1&#45;&gt;Node5</title>
<path fill="none" stroke="#191970" d="M586.1033,-224.1389C569.261,-202.3919 538.5393,-162.7238 520.7441,-139.7465"/>
<polygon fill="#191970" stroke="#191970" points="523.2938,-137.3226 514.4035,-131.5595 517.7595,-141.6088 523.2938,-137.3226"/>
</g>
<!-- Node6 -->
<g id="node7" class="node">
<title>Node6</title>
<polygon fill="none" stroke="#bfbfbf" points="551,-112.5 551,-131.5 601,-131.5 601,-112.5 551,-112.5"/>
<text text-anchor="middle" x="576" y="-119.5" font-family="Helvetica,sans-Serif" font-size="10.00" fill="#000000">cstdint</text>
</g>
<!-- Node1&#45;&gt;Node6 -->
<g id="edge6" class="edge">
<title>Node1&#45;&gt;Node6</title>
<path fill="none" stroke="#191970" d="M595.1239,-224.1389C591.1602,-202.9692 584.0169,-164.8174 579.6719,-141.6112"/>
<polygon fill="#191970" stroke="#191970" points="583.0705,-140.7445 577.7899,-131.5595 576.1901,-142.0328 583.0705,-140.7445"/>
</g>
<!-- Node7 -->
<g id="node8" class="node">
<title>Node7</title>
<polygon fill="none" stroke="#bfbfbf" points="857.5,-168.5 857.5,-187.5 930.5,-187.5 930.5,-168.5 857.5,-168.5"/>
<text text-anchor="middle" x="894" y="-175.5" font-family="Helvetica,sans-Serif" font-size="10.00" fill="#000000">string_view</text>
</g>
<!-- Node1&#45;&gt;Node7 -->
<g id="edge7" class="edge">
<title>Node1&#45;&gt;Node7</title>
<path fill="none" stroke="#191970" d="M672.1568,-224.4443C719.492,-214.7825 782.4283,-201.8415 847.3391,-188.1236"/>
<polygon fill="#191970" stroke="#191970" points="848.2908,-191.4998 857.3494,-186.0052 846.8415,-184.6515 848.2908,-191.4998"/>
</g>
<!-- Node8 -->
<g id="node9" class="node">
<title>Node8</title>
<polygon fill="none" stroke="#bfbfbf" points="619,-112.5 619,-131.5 663,-131.5 663,-112.5 619,-112.5"/>
<text text-anchor="middle" x="641" y="-119.5" font-family="Helvetica,sans-Serif" font-size="10.00" fill="#000000">string</text>
</g>
<!-- Node1&#45;&gt;Node8 -->
<g id="edge8" class="edge">
<title>Node1&#45;&gt;Node8</title>
<path fill="none" stroke="#191970" d="M603.6215,-224.1389C611.4391,-202.7768 625.585,-164.1224 634.0534,-140.982"/>
<polygon fill="#191970" stroke="#191970" points="637.3517,-142.1533 637.5016,-131.5595 630.7781,-139.7475 637.3517,-142.1533"/>
</g>
<!-- Node9 -->
<g id="node10" class="node">
<title>Node9</title>
<polygon fill="none" stroke="#bfbfbf" points="948.5,-168.5 948.5,-187.5 1017.5,-187.5 1017.5,-168.5 948.5,-168.5"/>
<text text-anchor="middle" x="983" y="-175.5" font-family="Helvetica,sans-Serif" font-size="10.00" fill="#000000">type_traits</text>
</g>
<!-- Node1&#45;&gt;Node9 -->
<g id="edge9" class="edge">
<title>Node1&#45;&gt;Node9</title>
<path fill="none" stroke="#191970" d="M683.7017,-228.507C750.6296,-219.4792 846.1591,-205.6254 938.2634,-188.2296"/>
<polygon fill="#191970" stroke="#191970" points="939.1482,-191.624 948.3163,-186.3139 937.8379,-184.7477 939.1482,-191.624"/>
</g>
<!-- Node10 -->
<g id="node11" class="node">
<title>Node10</title>
<g id="a_node11"><a xlink:href="../../d9/d52/Common_2MathUtils_2include_2MathUtils_2Utils_8h.html" target="_top" xlink:title="MathUtils/Utils.h">
<polygon fill="none" stroke="#000000" points="184,-168.5 184,-187.5 282,-187.5 282,-168.5 184,-168.5"/>
<text text-anchor="middle" x="233" y="-175.5" font-family="Helvetica,sans-Serif" font-size="10.00" fill="#000000">MathUtils/Utils.h</text>
</a>
</g>
</g>
<!-- Node1&#45;&gt;Node10 -->
<g id="edge10" class="edge">
<title>Node1&#45;&gt;Node10</title>
<path fill="none" stroke="#191970" d="M512.4237,-225.081C444.7005,-213.6701 351.892,-198.0325 292.18,-187.9714"/>
<polygon fill="#191970" stroke="#191970" points="292.6029,-184.4934 282.1603,-186.2832 291.4398,-191.3961 292.6029,-184.4934"/>
</g>
<!-- Node18 -->
<g id="node19" class="node">
<title>Node18</title>
<g id="a_node19"><a xlink:href="../../dc/dcd/DataHeader_8h.html" target="_top" xlink:title="Headers/DataHeader.h">
<polygon fill="none" stroke="#000000" points="649.5,-168.5 649.5,-187.5 776.5,-187.5 776.5,-168.5 649.5,-168.5"/>
<text text-anchor="middle" x="713" y="-175.5" font-family="Helvetica,sans-Serif" font-size="10.00" fill="#000000">Headers/DataHeader.h</text>
</a>
</g>
</g>
<!-- Node1&#45;&gt;Node18 -->
<g id="edge21" class="edge">
<title>Node1&#45;&gt;Node18</title>
<path fill="none" stroke="#191970" d="M626.1322,-224.4554C644.4786,-214.644 668.2777,-201.9167 686.3251,-192.2653"/>
<polygon fill="#191970" stroke="#191970" points="688.0114,-195.3326 695.1791,-187.5303 684.7103,-189.1598 688.0114,-195.3326"/>
</g>
<!-- Node10&#45;&gt;Node3 -->
<g id="edge11" class="edge">
<title>Node10&#45;&gt;Node3</title>
<path fill="none" stroke="#191970" d="M195.2943,-168.4804C159.4127,-159.3553 103.9375,-145.0753 56,-132 54.7311,-131.6539 53.4372,-131.298 52.1307,-130.9361"/>
<polygon fill="#191970" stroke="#191970" points="52.6503,-127.4466 42.0762,-128.1104 50.7563,-134.1855 52.6503,-127.4466"/>
</g>
<!-- Node11 -->
<g id="node12" class="node">
<title>Node11</title>
<polygon fill="none" stroke="#bfbfbf" points="149.5,-56.5 149.5,-75.5 196.5,-75.5 196.5,-56.5 149.5,-56.5"/>
<text text-anchor="middle" x="173" y="-63.5" font-family="Helvetica,sans-Serif" font-size="10.00" fill="#000000">cmath</text>
</g>
<!-- Node10&#45;&gt;Node11 -->
<g id="edge12" class="edge">
<title>Node10&#45;&gt;Node11</title>
<path fill="none" stroke="#191970" d="M185.5378,-168.488C149.7516,-160.2397 105.0149,-147.2477 94,-132 77.4514,-109.0923 111.4865,-89.3031 139.9303,-77.5198"/>
<polygon fill="#191970" stroke="#191970" points="141.2588,-80.7583 149.281,-73.8377 138.694,-74.2451 141.2588,-80.7583"/>
</g>
<!-- Node12 -->
<g id="node13" class="node">
<title>Node12</title>
<g id="a_node13"><a xlink:href="../../df/d21/GPUCommonDef_8h.html" target="_top" xlink:title="GPUCommonDef.h">
<polygon fill="none" stroke="#000000" points="282.5,-56.5 282.5,-75.5 389.5,-75.5 389.5,-56.5 282.5,-56.5"/>
<text text-anchor="middle" x="336" y="-63.5" font-family="Helvetica,sans-Serif" font-size="10.00" fill="#000000">GPUCommonDef.h</text>
</a>
</g>
</g>
<!-- Node10&#45;&gt;Node12 -->
<g id="edge13" class="edge">
<title>Node10&#45;&gt;Node12</title>
<path fill="none" stroke="#191970" d="M189.9349,-168.4239C151.8158,-157.9379 105.3368,-138.9497 127,-112 145.0236,-89.578 217.7221,-77.4503 272.3513,-71.3673"/>
<polygon fill="#191970" stroke="#191970" points="272.7532,-74.8444 282.3242,-70.3007 272.0087,-67.884 272.7532,-74.8444"/>
</g>
<!-- Node15 -->
<g id="node16" class="node">
<title>Node15</title>
<g id="a_node16"><a xlink:href="../../d6/da2/GPUCommonMath_8h.html" target="_top" xlink:title="GPUCommonMath.h">
<polygon fill="none" stroke="#000000" points="347.5,-112.5 347.5,-131.5 462.5,-131.5 462.5,-112.5 347.5,-112.5"/>
<text text-anchor="middle" x="405" y="-119.5" font-family="Helvetica,sans-Serif" font-size="10.00" fill="#000000">GPUCommonMath.h</text>
</a>
</g>
</g>
<!-- Node10&#45;&gt;Node15 -->
<g id="edge16" class="edge">
<title>Node10&#45;&gt;Node15</title>
<path fill="none" stroke="#191970" d="M262.5679,-168.3733C291.1688,-159.0613 334.6788,-144.8953 366.0819,-134.671"/>
<polygon fill="#191970" stroke="#191970" points="367.3928,-137.9251 375.818,-131.5011 365.2257,-131.269 367.3928,-137.9251"/>
</g>
<!-- Node17 -->
<g id="node18" class="node">
<title>Node17</title>
<g id="a_node18"><a xlink:href="../../d6/d84/MathConstants_8h.html" target="_top" xlink:title="useful math constants ">
<polygon fill="none" stroke="#000000" points="136,-112.5 136,-131.5 330,-131.5 330,-112.5 136,-112.5"/>
<text text-anchor="middle" x="233" y="-119.5" font-family="Helvetica,sans-Serif" font-size="10.00" fill="#000000">CommonConstants/MathConstants.h</text>
</a>
</g>
</g>
<!-- Node10&#45;&gt;Node17 -->
<g id="edge20" class="edge">
<title>Node10&#45;&gt;Node17</title>
<path fill="none" stroke="#191970" d="M233,-168.2455C233,-160.9382 233,-150.6944 233,-141.7046"/>
<polygon fill="#191970" stroke="#191970" points="236.5001,-141.6426 233,-131.6427 229.5001,-141.6427 236.5001,-141.6426"/>
</g>
<!-- Node13 -->
<g id="node14" class="node">
<title>Node13</title>
<g id="a_node14"><a xlink:href="../../d5/d93/GPUCommonDefSettings_8h.html" target="_top" xlink:title="GPUCommonDefSettings.h">
<polygon fill="none" stroke="#000000" points="185,-.5 185,-19.5 333,-19.5 333,-.5 185,-.5"/>
<text text-anchor="middle" x="259" y="-7.5" font-family="Helvetica,sans-Serif" font-size="10.00" fill="#000000">GPUCommonDefSettings.h</text>
</a>
</g>
</g>
<!-- Node12&#45;&gt;Node13 -->
<g id="edge14" class="edge">
<title>Node12&#45;&gt;Node13</title>
<path fill="none" stroke="#191970" d="M322.5876,-56.2455C310.9943,-47.814 294.0252,-35.4729 280.5322,-25.6598"/>
<polygon fill="#191970" stroke="#191970" points="282.4047,-22.6938 272.2587,-19.6427 278.2874,-28.355 282.4047,-22.6938"/>
</g>
<!-- Node14 -->
<g id="node15" class="node">
<title>Node14</title>
<g id="a_node15"><a xlink:href="../../da/d5a/GPUCommonDefAPI_8h.html" target="_top" xlink:title="GPUCommonDefAPI.h">
<polygon fill="none" stroke="#000000" points="351,-.5 351,-19.5 475,-19.5 475,-.5 351,-.5"/>
<text text-anchor="middle" x="413" y="-7.5" font-family="Helvetica,sans-Serif" font-size="10.00" fill="#000000">GPUCommonDefAPI.h</text>
</a>
</g>
</g>
<!-- Node12&#45;&gt;Node14 -->
<g id="edge15" class="edge">
<title>Node12&#45;&gt;Node14</title>
<path fill="none" stroke="#191970" d="M349.4124,-56.2455C361.0057,-47.814 377.9748,-35.4729 391.4678,-25.6598"/>
<polygon fill="#191970" stroke="#191970" points="393.7126,-28.355 399.7413,-19.6427 389.5953,-22.6938 393.7126,-28.355"/>
</g>
<!-- Node15&#45;&gt;Node11 -->
<g id="edge18" class="edge">
<title>Node15&#45;&gt;Node11</title>
<path fill="none" stroke="#191970" d="M365.3814,-112.4369C320.5464,-101.6147 248.3069,-84.1775 206.2752,-74.0319"/>
<polygon fill="#191970" stroke="#191970" points="207.0689,-70.6231 196.5268,-71.6789 205.4263,-77.4276 207.0689,-70.6231"/>
</g>
<!-- Node15&#45;&gt;Node12 -->
<g id="edge17" class="edge">
<title>Node15&#45;&gt;Node12</title>
<path fill="none" stroke="#191970" d="M392.9811,-112.2455C382.7902,-103.9746 367.9638,-91.9416 355.9893,-82.2232"/>
<polygon fill="#191970" stroke="#191970" points="357.8514,-79.2268 347.8812,-75.6427 353.4402,-84.662 357.8514,-79.2268"/>
</g>
<!-- Node16 -->
<g id="node17" class="node">
<title>Node16</title>
<polygon fill="none" stroke="#bfbfbf" points="442,-56.5 442,-75.5 506,-75.5 506,-56.5 442,-56.5"/>
<text text-anchor="middle" x="474" y="-63.5" font-family="Helvetica,sans-Serif" font-size="10.00" fill="#000000">algorithm</text>
</g>
<!-- Node15&#45;&gt;Node16 -->
<g id="edge19" class="edge">
<title>Node15&#45;&gt;Node16</title>
<path fill="none" stroke="#191970" d="M417.0189,-112.2455C427.2098,-103.9746 442.0362,-91.9416 454.0107,-82.2232"/>
<polygon fill="#191970" stroke="#191970" points="456.5598,-84.662 462.1188,-75.6427 452.1486,-79.2268 456.5598,-84.662"/>
</g>
<!-- Node18&#45;&gt;Node5 -->
<g id="edge24" class="edge">
<title>Node18&#45;&gt;Node5</title>
<path fill="none" stroke="#191970" d="M676.9267,-168.47C644.3182,-159.8167 594.7471,-146.5666 543.0375,-132.2615"/>
<polygon fill="#191970" stroke="#191970" points="543.9325,-128.8777 533.3609,-129.579 542.0625,-135.6233 543.9325,-128.8777"/>
</g>
<!-- Node18&#45;&gt;Node6 -->
<g id="edge22" class="edge">
<title>Node18&#45;&gt;Node6</title>
<path fill="none" stroke="#191970" d="M689.4489,-168.3733C667.1609,-159.2629 633.5063,-145.5062 608.6363,-135.3404"/>
<polygon fill="#191970" stroke="#191970" points="609.8247,-132.0451 599.2438,-131.5011 607.1761,-138.5247 609.8247,-132.0451"/>
</g>
<!-- Node18&#45;&gt;Node8 -->
<g id="edge28" class="edge">
<title>Node18&#45;&gt;Node8</title>
<path fill="none" stroke="#191970" d="M700.4586,-168.2455C689.7213,-159.8943 674.0527,-147.7076 661.4953,-137.9408"/>
<polygon fill="#191970" stroke="#191970" points="663.4401,-135.0194 653.3977,-131.6427 659.1425,-140.5449 663.4401,-135.0194"/>
</g>
<!-- Node18&#45;&gt;Node16 -->
<g id="edge26" class="edge">
<title>Node18&#45;&gt;Node16</title>
<path fill="none" stroke="#191970" d="M776.6999,-169.264C779.8444,-168.8359 782.9578,-168.4127 786,-168 906.5792,-151.6426 1136.5719,-201.38 1054,-112 1035.7518,-92.2472 646.4143,-73.5222 516.0823,-67.7869"/>
<polygon fill="#191970" stroke="#191970" points="516.2193,-64.2896 506.076,-67.3498 515.9137,-71.283 516.2193,-64.2896"/>
</g>
<!-- Node19 -->
<g id="node20" class="node">
<title>Node19</title>
<polygon fill="none" stroke="#bfbfbf" points="1101,-112.5 1101,-131.5 1159,-131.5 1159,-112.5 1101,-112.5"/>
<text text-anchor="middle" x="1130" y="-119.5" font-family="Helvetica,sans-Serif" font-size="10.00" fill="#000000">memory</text>
</g>
<!-- Node18&#45;&gt;Node19 -->
<g id="edge23" class="edge">
<title>Node18&#45;&gt;Node19</title>
<path fill="none" stroke="#191970" d="M776.6927,-169.2097C779.8391,-168.7959 782.9549,-168.3906 786,-168 919.6361,-150.8566 954.2978,-155.2941 1087,-132 1088.2739,-131.7764 1089.5667,-131.5388 1090.8704,-131.29"/>
<polygon fill="#191970" stroke="#191970" points="1091.8579,-134.6601 1100.9442,-129.2114 1090.4432,-127.8045 1091.8579,-134.6601"/>
</g>
<!-- Node20 -->
<g id="node21" class="node">
<title>Node20</title>
<polygon fill="none" stroke="#bfbfbf" points="1177,-112.5 1177,-131.5 1227,-131.5 1227,-112.5 1177,-112.5"/>
<text text-anchor="middle" x="1202" y="-119.5" font-family="Helvetica,sans-Serif" font-size="10.00" fill="#000000">cstring</text>
</g>
<!-- Node18&#45;&gt;Node20 -->
<g id="edge25" class="edge">
<title>Node18&#45;&gt;Node20</title>
<path fill="none" stroke="#191970" d="M776.6813,-169.1155C779.8307,-168.7267 782.9502,-168.3524 786,-168 952.1767,-148.7964 998.7749,-163.619 1166.9482,-131.8744"/>
<polygon fill="#191970" stroke="#191970" points="1167.7181,-135.2907 1176.8814,-129.9725 1166.4016,-128.4156 1167.7181,-135.2907"/>
</g>
<!-- Node21 -->
<g id="node22" class="node">
<title>Node21</title>
<polygon fill="none" stroke="#bfbfbf" points="681.5,-112.5 681.5,-131.5 746.5,-131.5 746.5,-112.5 681.5,-112.5"/>
<text text-anchor="middle" x="714" y="-119.5" font-family="Helvetica,sans-Serif" font-size="10.00" fill="#000000">stdexcept</text>
</g>
<!-- Node18&#45;&gt;Node21 -->
<g id="edge27" class="edge">
<title>Node18&#45;&gt;Node21</title>
<path fill="none" stroke="#191970" d="M713.1742,-168.2455C713.3047,-160.9382 713.4876,-150.6944 713.6481,-141.7046"/>
<polygon fill="#191970" stroke="#191970" points="717.1486,-141.7036 713.8278,-131.6427 710.1497,-141.5786 717.1486,-141.7036"/>
</g>
<!-- Node22 -->
<g id="node23" class="node">
<title>Node22</title>
<polygon fill="none" stroke="#bfbfbf" points="765,-112.5 765,-131.5 815,-131.5 815,-112.5 765,-112.5"/>
<text text-anchor="middle" x="790" y="-119.5" font-family="Helvetica,sans-Serif" font-size="10.00" fill="#000000">climits</text>
</g>
<!-- Node18&#45;&gt;Node22 -->
<g id="edge29" class="edge">
<title>Node18&#45;&gt;Node22</title>
<path fill="none" stroke="#191970" d="M726.4124,-168.2455C738.0057,-159.814 754.9748,-147.4729 768.4678,-137.6598"/>
<polygon fill="#191970" stroke="#191970" points="770.7126,-140.355 776.7413,-131.6427 766.5953,-134.6938 770.7126,-140.355"/>
</g>
<!-- Node23 -->
<g id="node24" class="node">
<title>Node23</title>
<g id="a_node24"><a xlink:href="../../d7/df8/Types_8h.html" target="_top" xlink:title="MemoryResources/Types.h">
<polygon fill="none" stroke="#000000" points="833,-112.5 833,-131.5 979,-131.5 979,-112.5 833,-112.5"/>
<text text-anchor="middle" x="906" y="-119.5" font-family="Helvetica,sans-Serif" font-size="10.00" fill="#000000">MemoryResources/Types.h</text>
</a>
</g>
</g>
<!-- Node18&#45;&gt;Node23 -->
<g id="edge30" class="edge">
<title>Node18&#45;&gt;Node23</title>
<path fill="none" stroke="#191970" d="M746.1779,-168.3733C778.5487,-158.9807 827.9398,-144.6496 863.2424,-134.4064"/>
<polygon fill="#191970" stroke="#191970" points="864.6265,-137.6492 873.2551,-131.5011 862.6758,-130.9264 864.6265,-137.6492"/>
</g>
<!-- Node24 -->
<g id="node25" class="node">
<title>Node24</title>
<polygon fill="none" stroke="#bfbfbf" points="997.5,-112.5 997.5,-131.5 1044.5,-131.5 1044.5,-112.5 997.5,-112.5"/>
<text text-anchor="middle" x="1021" y="-119.5" font-family="Helvetica,sans-Serif" font-size="10.00" fill="#000000">cerrno</text>
</g>
<!-- Node18&#45;&gt;Node24 -->
<g id="edge31" class="edge">
<title>Node18&#45;&gt;Node24</title>
<path fill="none" stroke="#191970" d="M775.6398,-168.48C839.6556,-158.5912 935.7489,-143.2677 987.5571,-131.8143"/>
<polygon fill="#191970" stroke="#191970" points="988.3415,-135.2253 997.3057,-129.5779 986.7763,-128.4025 988.3415,-135.2253"/>
</g>
</g>
</svg>
