<?xml version="1.0" encoding="UTF-8" standalone="no"?>
<!DOCTYPE svg PUBLIC "-//W3C//DTD SVG 1.1//EN"
 "http://www.w3.org/Graphics/SVG/1.1/DTD/svg11.dtd">
<!-- Generated by graphviz version 2.40.1 (20161225.0304)
 -->
<!-- Title: /home/travis/build/AliceO2Group/AliceO2/Detectors/Base/src/MaterialManager.cxx Pages: 1 -->
<svg width="1095pt" height="173pt"
 viewBox="0.00 0.00 1094.50 173.00" xmlns="http://www.w3.org/2000/svg" xmlns:xlink="http://www.w3.org/1999/xlink">
<g id="graph0" class="graph" transform="scale(1 1) rotate(0) translate(4 169)">
<title>/home/travis/build/AliceO2Group/AliceO2/Detectors/Base/src/MaterialManager.cxx</title>
<!-- Node0 -->
<g id="node1" class="node">
<title>Node0</title>
<polygon fill="#bfbfbf" stroke="#000000" points="629.5,-112.5 629.5,-164.5 783.5,-164.5 783.5,-112.5 629.5,-112.5"/>
<text text-anchor="start" x="637.5" y="-152.5" font-family="Helvetica,sans-Serif" font-size="10.00" fill="#000000">/home/travis/build</text>
<text text-anchor="start" x="637.5" y="-141.5" font-family="Helvetica,sans-Serif" font-size="10.00" fill="#000000">/AliceO2Group/AliceO2</text>
<text text-anchor="start" x="637.5" y="-130.5" font-family="Helvetica,sans-Serif" font-size="10.00" fill="#000000">/Detectors/Base/src/Material</text>
<text text-anchor="middle" x="706.5" y="-119.5" font-family="Helvetica,sans-Serif" font-size="10.00" fill="#000000">Manager.cxx</text>
</g>
<!-- Node1 -->
<g id="node2" class="node">
<title>Node1</title>
<g id="a_node2"><a xlink:href="../../d0/d9a/MaterialManager_8h.html" target="_top" xlink:title="DetectorsBase/MaterialManager.h">
<polygon fill="none" stroke="#000000" points="90,-56.5 90,-75.5 271,-75.5 271,-56.5 90,-56.5"/>
<text text-anchor="middle" x="180.5" y="-63.5" font-family="Helvetica,sans-Serif" font-size="10.00" fill="#000000">DetectorsBase/MaterialManager.h</text>
</a>
</g>
</g>
<!-- Node0&#45;&gt;Node1 -->
<g id="edge1" class="edge">
<title>Node0&#45;&gt;Node1</title>
<path fill="none" stroke="#191970" d="M629.4518,-127.8802C530.5488,-114.2482 359.8147,-90.7154 259.8241,-76.9335"/>
<polygon fill="#191970" stroke="#191970" points="260.1624,-73.4471 249.7782,-75.5488 259.2066,-80.3815 260.1624,-73.4471"/>
</g>
<!-- Node7 -->
<g id="node8" class="node">
<title>Node7</title>
<polygon fill="none" stroke="#bfbfbf" points="289,-56.5 289,-75.5 368,-75.5 368,-56.5 289,-56.5"/>
<text text-anchor="middle" x="328.5" y="-63.5" font-family="Helvetica,sans-Serif" font-size="10.00" fill="#000000">TVirtualMC.h</text>
</g>
<!-- Node0&#45;&gt;Node7 -->
<g id="edge7" class="edge">
<title>Node0&#45;&gt;Node7</title>
<path fill="none" stroke="#191970" d="M629.4095,-124.3102C564.8341,-112.3294 469.9551,-94.5069 378.0715,-76.2899"/>
<polygon fill="#191970" stroke="#191970" points="378.5314,-72.8129 368.0411,-74.2972 377.1674,-79.6787 378.5314,-72.8129"/>
</g>
<!-- Node8 -->
<g id="node9" class="node">
<title>Node8</title>
<polygon fill="none" stroke="#bfbfbf" points="385.5,-56.5 385.5,-75.5 445.5,-75.5 445.5,-56.5 385.5,-56.5"/>
<text text-anchor="middle" x="415.5" y="-63.5" font-family="Helvetica,sans-Serif" font-size="10.00" fill="#000000">TString.h</text>
</g>
<!-- Node0&#45;&gt;Node8 -->
<g id="edge8" class="edge">
<title>Node0&#45;&gt;Node8</title>
<path fill="none" stroke="#191970" d="M629.2568,-119.5098C581.8026,-107.8039 519.5026,-92.366 455.5826,-76.2609"/>
<polygon fill="#191970" stroke="#191970" points="456.28,-72.8272 445.7277,-73.7758 454.5683,-79.6147 456.28,-72.8272"/>
</g>
<!-- Node9 -->
<g id="node10" class="node">
<title>Node9</title>
<polygon fill="none" stroke="#bfbfbf" points="463.5,-56.5 463.5,-75.5 553.5,-75.5 553.5,-56.5 463.5,-56.5"/>
<text text-anchor="middle" x="508.5" y="-63.5" font-family="Helvetica,sans-Serif" font-size="10.00" fill="#000000">TGeoMedium.h</text>
</g>
<!-- Node0&#45;&gt;Node9 -->
<g id="edge9" class="edge">
<title>Node0&#45;&gt;Node9</title>
<path fill="none" stroke="#191970" d="M635.2972,-112.4283C604.3684,-101.1033 569.5006,-88.3361 544.1683,-79.0604"/>
<polygon fill="#191970" stroke="#191970" points="545.2095,-75.7144 534.6157,-75.5626 542.8026,-82.2876 545.2095,-75.7144"/>
</g>
<!-- Node10 -->
<g id="node11" class="node">
<title>Node10</title>
<polygon fill="none" stroke="#bfbfbf" points="571.5,-56.5 571.5,-75.5 663.5,-75.5 663.5,-56.5 571.5,-56.5"/>
<text text-anchor="middle" x="617.5" y="-63.5" font-family="Helvetica,sans-Serif" font-size="10.00" fill="#000000">TGeoManager.h</text>
</g>
<!-- Node0&#45;&gt;Node10 -->
<g id="edge10" class="edge">
<title>Node0&#45;&gt;Node10</title>
<path fill="none" stroke="#191970" d="M674.369,-112.3258C661.9539,-102.2124 648.1436,-90.9624 637.2414,-82.0815"/>
<polygon fill="#191970" stroke="#191970" points="639.1675,-79.1362 629.2038,-75.534 634.7464,-84.5634 639.1675,-79.1362"/>
</g>
<!-- Node11 -->
<g id="node12" class="node">
<title>Node11</title>
<polygon fill="none" stroke="#bfbfbf" points="682,-56.5 682,-75.5 731,-75.5 731,-56.5 682,-56.5"/>
<text text-anchor="middle" x="706.5" y="-63.5" font-family="Helvetica,sans-Serif" font-size="10.00" fill="#000000">TList.h</text>
</g>
<!-- Node0&#45;&gt;Node11 -->
<g id="edge11" class="edge">
<title>Node0&#45;&gt;Node11</title>
<path fill="none" stroke="#191970" d="M706.5,-112.3258C706.5,-103.5142 706.5,-93.8397 706.5,-85.621"/>
<polygon fill="#191970" stroke="#191970" points="710.0001,-85.534 706.5,-75.534 703.0001,-85.534 710.0001,-85.534"/>
</g>
<!-- Node12 -->
<g id="node13" class="node">
<title>Node12</title>
<polygon fill="none" stroke="#bfbfbf" points="749.5,-56.5 749.5,-75.5 809.5,-75.5 809.5,-56.5 749.5,-56.5"/>
<text text-anchor="middle" x="779.5" y="-63.5" font-family="Helvetica,sans-Serif" font-size="10.00" fill="#000000">iostream</text>
</g>
<!-- Node0&#45;&gt;Node12 -->
<g id="edge12" class="edge">
<title>Node0&#45;&gt;Node12</title>
<path fill="none" stroke="#191970" d="M732.8547,-112.3258C742.8362,-102.4127 753.9172,-91.4075 762.7736,-82.6118"/>
<polygon fill="#191970" stroke="#191970" points="765.2713,-85.0641 769.9002,-75.534 760.3385,-80.0974 765.2713,-85.0641"/>
</g>
<!-- Node13 -->
<g id="node14" class="node">
<title>Node13</title>
<polygon fill="none" stroke="#bfbfbf" points="828,-56.5 828,-75.5 873,-75.5 873,-56.5 828,-56.5"/>
<text text-anchor="middle" x="850.5" y="-63.5" font-family="Helvetica,sans-Serif" font-size="10.00" fill="#000000">utility</text>
</g>
<!-- Node0&#45;&gt;Node13 -->
<g id="edge13" class="edge">
<title>Node0&#45;&gt;Node13</title>
<path fill="none" stroke="#191970" d="M758.4873,-112.3258C779.9668,-101.5115 804.0276,-89.3976 822.1563,-80.2703"/>
<polygon fill="#191970" stroke="#191970" points="824.2056,-83.1571 831.5635,-75.534 821.0577,-76.9048 824.2056,-83.1571"/>
</g>
<!-- Node14 -->
<g id="node15" class="node">
<title>Node14</title>
<polygon fill="none" stroke="#bfbfbf" points="891,-56.5 891,-75.5 966,-75.5 966,-56.5 891,-56.5"/>
<text text-anchor="middle" x="928.5" y="-63.5" font-family="Helvetica,sans-Serif" font-size="10.00" fill="#000000">FairLogger.h</text>
</g>
<!-- Node0&#45;&gt;Node14 -->
<g id="edge14" class="edge">
<title>Node0&#45;&gt;Node14</title>
<path fill="none" stroke="#191970" d="M783.5218,-113.3465C819.2575,-101.676 860.1931,-88.3074 889.4322,-78.7586"/>
<polygon fill="#191970" stroke="#191970" points="890.8396,-81.981 899.2589,-75.5495 888.6664,-75.3269 890.8396,-81.981"/>
</g>
<!-- Node15 -->
<g id="node16" class="node">
<title>Node15</title>
<polygon fill="none" stroke="#bfbfbf" points="984.5,-56.5 984.5,-75.5 1036.5,-75.5 1036.5,-56.5 984.5,-56.5"/>
<text text-anchor="middle" x="1010.5" y="-63.5" font-family="Helvetica,sans-Serif" font-size="10.00" fill="#000000">cassert</text>
</g>
<!-- Node0&#45;&gt;Node15 -->
<g id="edge15" class="edge">
<title>Node0&#45;&gt;Node15</title>
<path fill="none" stroke="#191970" d="M783.5672,-121.6686C835.0648,-110.1711 904.5247,-94.1845 974.3169,-76.2239"/>
<polygon fill="#191970" stroke="#191970" points="975.3603,-79.5693 984.1653,-73.6768 973.6074,-72.7923 975.3603,-79.5693"/>
</g>
<!-- Node16 -->
<g id="node17" class="node">
<title>Node16</title>
<polygon fill="none" stroke="#bfbfbf" points="1054.5,-56.5 1054.5,-75.5 1086.5,-75.5 1086.5,-56.5 1054.5,-56.5"/>
<text text-anchor="middle" x="1070.5" y="-63.5" font-family="Helvetica,sans-Serif" font-size="10.00" fill="#000000">set</text>
</g>
<!-- Node0&#45;&gt;Node16 -->
<g id="edge16" class="edge">
<title>Node0&#45;&gt;Node16</title>
<path fill="none" stroke="#191970" d="M783.5759,-128.7344C850.6464,-119.2266 950.3622,-102.6581 1044.5709,-75.8354"/>
<polygon fill="#191970" stroke="#191970" points="1045.6217,-79.175 1054.2563,-73.0354 1043.6776,-72.4504 1045.6217,-79.175"/>
</g>
<!-- Node2 -->
<g id="node3" class="node">
<title>Node2</title>
<polygon fill="none" stroke="#bfbfbf" points="0,-.5 0,-19.5 59,-19.5 59,-.5 0,-.5"/>
<text text-anchor="middle" x="29.5" y="-7.5" font-family="Helvetica,sans-Serif" font-size="10.00" fill="#000000">Rtypes.h</text>
</g>
<!-- Node1&#45;&gt;Node2 -->
<g id="edge2" class="edge">
<title>Node1&#45;&gt;Node2</title>
<path fill="none" stroke="#191970" d="M154.5422,-56.3733C129.7593,-47.1822 92.2254,-33.2624 64.746,-23.0713"/>
<polygon fill="#191970" stroke="#191970" points="65.7121,-19.6968 55.1191,-19.5011 63.2781,-26.26 65.7121,-19.6968"/>
</g>
<!-- Node3 -->
<g id="node4" class="node">
<title>Node3</title>
<polygon fill="none" stroke="#bfbfbf" points="77.5,-.5 77.5,-19.5 115.5,-19.5 115.5,-.5 77.5,-.5"/>
<text text-anchor="middle" x="96.5" y="-7.5" font-family="Helvetica,sans-Serif" font-size="10.00" fill="#000000">map</text>
</g>
<!-- Node1&#45;&gt;Node3 -->
<g id="edge3" class="edge">
<title>Node1&#45;&gt;Node3</title>
<path fill="none" stroke="#191970" d="M165.8683,-56.2455C153.1006,-47.7337 134.3562,-35.2375 119.5701,-25.3801"/>
<polygon fill="#191970" stroke="#191970" points="121.226,-22.2775 110.964,-19.6427 117.3431,-28.1019 121.226,-22.2775"/>
</g>
<!-- Node4 -->
<g id="node5" class="node">
<title>Node4</title>
<polygon fill="none" stroke="#bfbfbf" points="134,-.5 134,-19.5 227,-19.5 227,-.5 134,-.5"/>
<text text-anchor="middle" x="180.5" y="-7.5" font-family="Helvetica,sans-Serif" font-size="10.00" fill="#000000">unordered_map</text>
</g>
<!-- Node1&#45;&gt;Node4 -->
<g id="edge4" class="edge">
<title>Node1&#45;&gt;Node4</title>
<path fill="none" stroke="#191970" d="M180.5,-56.2455C180.5,-48.9382 180.5,-38.6944 180.5,-29.7046"/>
<polygon fill="#191970" stroke="#191970" points="184.0001,-29.6426 180.5,-19.6427 177.0001,-29.6427 184.0001,-29.6426"/>
</g>
<!-- Node5 -->
<g id="node6" class="node">
<title>Node5</title>
<polygon fill="none" stroke="#bfbfbf" points="245,-.5 245,-19.5 328,-19.5 328,-.5 245,-.5"/>
<text text-anchor="middle" x="286.5" y="-7.5" font-family="Helvetica,sans-Serif" font-size="10.00" fill="#000000">initializer_list</text>
</g>
<!-- Node1&#45;&gt;Node5 -->
<g id="edge5" class="edge">
<title>Node1&#45;&gt;Node5</title>
<path fill="none" stroke="#191970" d="M198.9638,-56.2455C215.6074,-47.4527 240.2993,-34.4079 259.2192,-24.4125"/>
<polygon fill="#191970" stroke="#191970" points="261.0408,-27.4086 268.2478,-19.6427 257.7709,-21.2193 261.0408,-27.4086"/>
</g>
<!-- Node6 -->
<g id="node7" class="node">
<title>Node6</title>
<polygon fill="none" stroke="#bfbfbf" points="346,-.5 346,-19.5 395,-19.5 395,-.5 346,-.5"/>
<text text-anchor="middle" x="370.5" y="-7.5" font-family="Helvetica,sans-Serif" font-size="10.00" fill="#000000">iosfwd</text>
</g>
<!-- Node1&#45;&gt;Node6 -->
<g id="edge6" class="edge">
<title>Node1&#45;&gt;Node6</title>
<path fill="none" stroke="#191970" d="M213.3022,-56.4846C243.0964,-47.8206 288.5049,-34.5638 336.3925,-20.314"/>
<polygon fill="#191970" stroke="#191970" points="337.4149,-23.6615 345.9992,-17.4519 335.4162,-16.9529 337.4149,-23.6615"/>
</g>
</g>
</svg>
