<?xml version="1.0" encoding="UTF-8" standalone="no"?>
<!DOCTYPE svg PUBLIC "-//W3C//DTD SVG 1.1//EN"
 "http://www.w3.org/Graphics/SVG/1.1/DTD/svg11.dtd">
<!-- Generated by graphviz version 2.40.1 (20161225.0304)
 -->
<!-- Title: GPUCA_NAMESPACE::gpu::GPUTPCClusterFinder::Memory Pages: 1 -->
<!--zoomable 386 -->
<svg id="main" version="1.1" xmlns="http://www.w3.org/2000/svg" xmlns:xlink="http://www.w3.org/1999/xlink" xml:space="preserve" onload="init(evt)">
<style type="text/css"><![CDATA[
.edge:hover path { stroke: red; }
.edge:hover polygon { stroke: red; fill: red; }
]]></style>
<script type="text/javascript"><![CDATA[
var edges = document.getElementsByTagName('g');
if (edges && edges.length) {
  for (var i=0;i<edges.length;i++) {
    if (edges[i].id.substr(0,4)=='edge') {
      edges[i].setAttribute('class','edge');
    }
  }
}
]]></script>
        <defs>
                <circle id="rim" cx="0" cy="0" r="7"/>
                <circle id="rim2" cx="0" cy="0" r="3.5"/>
                <g id="zoomPlus">
                        <use xlink:href="#rim" fill="#404040">
                                <set attributeName="fill" to="#808080" begin="zoomplus.mouseover" end="zoomplus.mouseout"/>
                        </use>
                        <path d="M-4,0h8M0,-4v8" fill="none" stroke="white" stroke-width="1.5" pointer-events="none"/>
                </g>
                <g id="zoomMin">
                        <use xlink:href="#rim" fill="#404040">
                                <set attributeName="fill" to="#808080" begin="zoomminus.mouseover" end="zoomminus.mouseout"/>
                        </use>
                        <path d="M-4,0h8" fill="none" stroke="white" stroke-width="1.5" pointer-events="none"/>
                </g>
                <g id="dirArrow">
                        <path fill="none" stroke="white" stroke-width="1.5" d="M0,-3.0v7 M-2.5,-0.5L0,-3.0L2.5,-0.5"/>
                </g>
               <g id="resetDef">
                       <use xlink:href="#rim2" fill="#404040">
                               <set attributeName="fill" to="#808080" begin="reset.mouseover" end="reset.mouseout"/>
                       </use>
               </g>
        </defs>

<script type="text/javascript">
var viewWidth = 653;
var viewHeight = 386;
var sectionId = 'dynsection-0';
</script>
<script xlink:href="../../svgpan.js"/>
<svg id="graph" class="graph">
<g id="viewport">
<title>GPUCA_NAMESPACE::gpu::GPUTPCClusterFinder::Memory</title>
<!-- Node1 -->
<g id="node1" class="node">
<title>Node1</title>
<polygon fill="#bfbfbf" stroke="#000000" points="180.7592,-.5 180.7592,-79.5 320.7592,-79.5 320.7592,-.5 180.7592,-.5"/>
<text text-anchor="start" x="188.7592" y="-67.5" font-family="Helvetica,sans-Serif" font-size="10.00" fill="#000000">GPUCA_NAMESPACE::gpu</text>
<text text-anchor="start" x="188.7592" y="-56.5" font-family="Helvetica,sans-Serif" font-size="10.00" fill="#000000">::GPUTPCClusterFinder</text>
<text text-anchor="middle" x="250.7592" y="-45.5" font-family="Helvetica,sans-Serif" font-size="10.00" fill="#000000">::Memory</text>
<polyline fill="none" stroke="#000000" points="180.7592,-38.5 320.7592,-38.5 "/>
<text text-anchor="middle" x="250.7592" y="-26.5" font-family="Helvetica,sans-Serif" font-size="10.00" fill="#000000"> </text>
<polyline fill="none" stroke="#000000" points="180.7592,-19.5 320.7592,-19.5 "/>
<text text-anchor="middle" x="250.7592" y="-7.5" font-family="Helvetica,sans-Serif" font-size="10.00" fill="#000000"> </text>
</g>
<!-- Node2 -->
<g id="node2" class="node">
<title>Node2</title>
<g id="a_node2"><a xlink:href="../../d6/d42/structGPUCA__NAMESPACE_1_1gpu_1_1GPUTPCClusterFinder_1_1Memory_1_1counters__t.html" target="_top" xlink:title="{GPUCA_NAMESPACE::gpu\l::GPUTPCClusterFinder\l::Memory::counters_t\n||}">
<polygon fill="none" stroke="#000000" points="102.7592,-144 102.7592,-223 242.7592,-223 242.7592,-144 102.7592,-144"/>
<text text-anchor="start" x="110.7592" y="-211" font-family="Helvetica,sans-Serif" font-size="10.00" fill="#000000">GPUCA_NAMESPACE::gpu</text>
<text text-anchor="start" x="110.7592" y="-200" font-family="Helvetica,sans-Serif" font-size="10.00" fill="#000000">::GPUTPCClusterFinder</text>
<text text-anchor="middle" x="172.7592" y="-189" font-family="Helvetica,sans-Serif" font-size="10.00" fill="#000000">::Memory::counters_t</text>
<polyline fill="none" stroke="#000000" points="102.7592,-182 242.7592,-182 "/>
<text text-anchor="middle" x="172.7592" y="-170" font-family="Helvetica,sans-Serif" font-size="10.00" fill="#000000"> </text>
<polyline fill="none" stroke="#000000" points="102.7592,-163 242.7592,-163 "/>
<text text-anchor="middle" x="172.7592" y="-151" font-family="Helvetica,sans-Serif" font-size="10.00" fill="#000000"> </text>
</a>
</g>
</g>
<!-- Node2&#45;&gt;Node1 -->
<g id="edge1" class="edge">
<title>Node2&#45;&gt;Node1</title>
<path fill="none" stroke="#404040" d="M194.2795,-143.9081C203.2417,-127.42 213.7567,-108.0751 223.2684,-90.576"/>
<polygon fill="none" stroke="#404040" points="223.3075,-90.504 222.6585,-83.3221 229.0383,-79.9608 229.6873,-87.1427 223.3075,-90.504"/>
<text text-anchor="middle" x="245.7592" y="-101" font-family="Helvetica,sans-Serif" font-size="10.00" fill="#000000"> +counters</text>
</g>
<!-- Node3 -->
<g id="node3" class="node">
<title>Node3</title>
<polygon fill="none" stroke="#bfbfbf" points="24.2592,-320.5 24.2592,-377.5 69.2592,-377.5 69.2592,-320.5 24.2592,-320.5"/>
<text text-anchor="middle" x="46.7592" y="-365.5" font-family="Helvetica,sans-Serif" font-size="10.00" fill="#000000">size_t</text>
<polyline fill="none" stroke="#bfbfbf" points="24.2592,-358.5 69.2592,-358.5 "/>
<text text-anchor="middle" x="46.7592" y="-346.5" font-family="Helvetica,sans-Serif" font-size="10.00" fill="#000000"> </text>
<polyline fill="none" stroke="#bfbfbf" points="24.2592,-339.5 69.2592,-339.5 "/>
<text text-anchor="middle" x="46.7592" y="-327.5" font-family="Helvetica,sans-Serif" font-size="10.00" fill="#000000"> </text>
</g>
<!-- Node3&#45;&gt;Node2 -->
<g id="edge2" class="edge">
<title>Node3&#45;&gt;Node2</title>
<path fill="none" stroke="#404040" d="M24.0001,-328.651C17.0966,-321.0519 10.385,-311.8546 6.7592,-302 .0067,-283.6472 -3.8672,-274.4165 6.7592,-258 25.6394,-228.8322 58.94,-210.9756 90.784,-200.0949"/>
<polygon fill="none" stroke="#404040" points="90.9852,-200.0309 95.4906,-194.4005 102.4207,-196.3938 97.9154,-202.0242 90.9852,-200.0309"/>
<text text-anchor="middle" x="36.2592" y="-294" font-family="Helvetica,sans-Serif" font-size="10.00" fill="#000000"> +nPeaks</text>
<text text-anchor="middle" x="36.2592" y="-283" font-family="Helvetica,sans-Serif" font-size="10.00" fill="#000000">+nPositions</text>
<text text-anchor="middle" x="36.2592" y="-272" font-family="Helvetica,sans-Serif" font-size="10.00" fill="#000000">+nClusters</text>
<text text-anchor="middle" x="36.2592" y="-261" font-family="Helvetica,sans-Serif" font-size="10.00" fill="#000000">+nDigits</text>
</g>
<!-- Node5 -->
<g id="node5" class="node">
<title>Node5</title>
<g id="a_node5"><a xlink:href="../../db/d3d/structGPUCA__NAMESPACE_1_1gpu_1_1CfFragment.html" target="_top" xlink:title="{GPUCA_NAMESPACE::gpu\l::CfFragment\n||+ GPUdDefault()\l+ GPUd()\l+ GPUdi()\l+ GPUdi()\l+ GPUdi()\l}">
<polygon fill="none" stroke="#000000" points="265.7592,-127.5 265.7592,-239.5 405.7592,-239.5 405.7592,-127.5 265.7592,-127.5"/>
<text text-anchor="start" x="273.7592" y="-227.5" font-family="Helvetica,sans-Serif" font-size="10.00" fill="#000000">GPUCA_NAMESPACE::gpu</text>
<text text-anchor="middle" x="335.7592" y="-216.5" font-family="Helvetica,sans-Serif" font-size="10.00" fill="#000000">::CfFragment</text>
<polyline fill="none" stroke="#000000" points="265.7592,-209.5 405.7592,-209.5 "/>
<text text-anchor="middle" x="335.7592" y="-197.5" font-family="Helvetica,sans-Serif" font-size="10.00" fill="#000000"> </text>
<polyline fill="none" stroke="#000000" points="265.7592,-190.5 405.7592,-190.5 "/>
<text text-anchor="start" x="273.7592" y="-178.5" font-family="Helvetica,sans-Serif" font-size="10.00" fill="#000000">+ GPUdDefault()</text>
<text text-anchor="start" x="273.7592" y="-167.5" font-family="Helvetica,sans-Serif" font-size="10.00" fill="#000000">+ GPUd()</text>
<text text-anchor="start" x="273.7592" y="-156.5" font-family="Helvetica,sans-Serif" font-size="10.00" fill="#000000">+ GPUdi()</text>
<text text-anchor="start" x="273.7592" y="-145.5" font-family="Helvetica,sans-Serif" font-size="10.00" fill="#000000">+ GPUdi()</text>
<text text-anchor="start" x="273.7592" y="-134.5" font-family="Helvetica,sans-Serif" font-size="10.00" fill="#000000">+ GPUdi()</text>
</a>
</g>
</g>
<!-- Node3&#45;&gt;Node5 -->
<g id="edge6" class="edge">
<title>Node3&#45;&gt;Node5</title>
<path fill="none" stroke="#404040" d="M59.6005,-320.39C70.8427,-296.6841 87.1491,-265.6794 98.7592,-258 155.866,-220.2269 187.5502,-263.7741 251.7592,-240 252.6245,-239.6796 253.4896,-239.3486 254.3542,-239.0075"/>
<polygon fill="none" stroke="#404040" points="254.5642,-238.9146 258.4298,-232.8271 265.5358,-234.054 261.6702,-240.1415 254.5642,-238.9146"/>
<text text-anchor="middle" x="129.7592" y="-277.5" font-family="Helvetica,sans-Serif" font-size="10.00" fill="#000000"> +digitsStart</text>
</g>
<!-- Node4 -->
<g id="node4" class="node">
<title>Node4</title>
<polygon fill="none" stroke="#bfbfbf" points="192.2592,-320.5 192.2592,-377.5 253.2592,-377.5 253.2592,-320.5 192.2592,-320.5"/>
<text text-anchor="middle" x="222.7592" y="-365.5" font-family="Helvetica,sans-Serif" font-size="10.00" fill="#000000">unsigned</text>
<polyline fill="none" stroke="#bfbfbf" points="192.2592,-358.5 253.2592,-358.5 "/>
<text text-anchor="middle" x="222.7592" y="-346.5" font-family="Helvetica,sans-Serif" font-size="10.00" fill="#000000"> </text>
<polyline fill="none" stroke="#bfbfbf" points="192.2592,-339.5 253.2592,-339.5 "/>
<text text-anchor="middle" x="222.7592" y="-327.5" font-family="Helvetica,sans-Serif" font-size="10.00" fill="#000000"> </text>
</g>
<!-- Node4&#45;&gt;Node2 -->
<g id="edge3" class="edge">
<title>Node4&#45;&gt;Node2</title>
<path fill="none" stroke="#404040" d="M192.202,-326.906C184.7825,-319.8605 177.8219,-311.4162 173.7592,-302 164.8678,-281.3926 163.3726,-256.8299 164.5847,-235.4249"/>
<polygon fill="none" stroke="#404040" points="164.6028,-235.2011 161.1025,-228.8966 165.5758,-223.2406 169.0761,-229.5452 164.6028,-235.2011"/>
<text text-anchor="middle" x="215.7592" y="-288.5" font-family="Helvetica,sans-Serif" font-size="10.00" fill="#000000"> +maxTimeBin</text>
<text text-anchor="middle" x="215.7592" y="-277.5" font-family="Helvetica,sans-Serif" font-size="10.00" fill="#000000">+nPagesSubslice</text>
<text text-anchor="middle" x="215.7592" y="-266.5" font-family="Helvetica,sans-Serif" font-size="10.00" fill="#000000">+nPages</text>
</g>
<!-- Node4&#45;&gt;Node5 -->
<g id="edge9" class="edge">
<title>Node4&#45;&gt;Node5</title>
<path fill="none" stroke="#404040" d="M244.4971,-320.3598C248.9489,-314.3417 253.5562,-307.9993 257.7592,-302 269.4037,-285.3786 281.633,-267.1805 292.8642,-250.1426"/>
<polygon fill="none" stroke="#404040" points="293.1285,-249.74 293.0775,-242.5291 299.7141,-239.7085 299.7651,-246.9195 293.1285,-249.74"/>
<text text-anchor="middle" x="306.2592" y="-277.5" font-family="Helvetica,sans-Serif" font-size="10.00" fill="#000000"> +index</text>
</g>
<!-- Node5&#45;&gt;Node1 -->
<g id="edge4" class="edge">
<title>Node5&#45;&gt;Node1</title>
<path fill="none" stroke="#404040" d="M302.4089,-127.1969C295.2158,-115.0532 287.6556,-102.2899 280.6064,-90.3892"/>
<polygon fill="none" stroke="#404040" points="280.4172,-90.0697 273.9178,-86.9459 274.3015,-79.745 280.8009,-82.8688 280.4172,-90.0697"/>
<text text-anchor="middle" x="319.2592" y="-101" font-family="Helvetica,sans-Serif" font-size="10.00" fill="#000000"> +fragment</text>
</g>
<!-- Node6 -->
<g id="node6" class="node">
<title>Node6</title>
<g id="a_node6"><a xlink:href="../../dc/d10/classshort.html" target="_top" xlink:title="{short\n||}">
<polygon fill="none" stroke="#000000" points="321.2592,-320.5 321.2592,-377.5 362.2592,-377.5 362.2592,-320.5 321.2592,-320.5"/>
<text text-anchor="middle" x="341.7592" y="-365.5" font-family="Helvetica,sans-Serif" font-size="10.00" fill="#000000">short</text>
<polyline fill="none" stroke="#000000" points="321.2592,-358.5 362.2592,-358.5 "/>
<text text-anchor="middle" x="341.7592" y="-346.5" font-family="Helvetica,sans-Serif" font-size="10.00" fill="#000000"> </text>
<polyline fill="none" stroke="#000000" points="321.2592,-339.5 362.2592,-339.5 "/>
<text text-anchor="middle" x="341.7592" y="-327.5" font-family="Helvetica,sans-Serif" font-size="10.00" fill="#000000"> </text>
</a>
</g>
</g>
<!-- Node6&#45;&gt;Node5 -->
<g id="edge5" class="edge">
<title>Node6&#45;&gt;Node5</title>
<path fill="none" stroke="#404040" d="M340.7141,-320.1721C340.0307,-301.3236 339.1077,-275.8641 338.2436,-252.0278"/>
<polygon fill="none" stroke="#404040" points="338.2335,-251.7466 334.0187,-245.8955 337.7986,-239.7545 342.0134,-245.6056 338.2335,-251.7466"/>
<text text-anchor="middle" x="393.2592" y="-283" font-family="Helvetica,sans-Serif" font-size="10.00" fill="#000000"> +length</text>
<text text-anchor="middle" x="393.2592" y="-272" font-family="Helvetica,sans-Serif" font-size="10.00" fill="#000000">+maxSubSliceLength</text>
</g>
<!-- Node7 -->
<g id="node7" class="node">
<title>Node7</title>
<polygon fill="none" stroke="#bfbfbf" points="455.2592,-320.5 455.2592,-377.5 484.2592,-377.5 484.2592,-320.5 455.2592,-320.5"/>
<text text-anchor="middle" x="469.7592" y="-365.5" font-family="Helvetica,sans-Serif" font-size="10.00" fill="#000000">int</text>
<polyline fill="none" stroke="#bfbfbf" points="455.2592,-358.5 484.2592,-358.5 "/>
<text text-anchor="middle" x="469.7592" y="-346.5" font-family="Helvetica,sans-Serif" font-size="10.00" fill="#000000"> </text>
<polyline fill="none" stroke="#bfbfbf" points="455.2592,-339.5 484.2592,-339.5 "/>
<text text-anchor="middle" x="469.7592" y="-327.5" font-family="Helvetica,sans-Serif" font-size="10.00" fill="#000000"> </text>
</g>
<!-- Node7&#45;&gt;Node5 -->
<g id="edge7" class="edge">
<title>Node7&#45;&gt;Node5</title>
<path fill="none" stroke="#404040" d="M468.1927,-320.1181C465.928,-301.0239 460.525,-276.245 447.7592,-258 439.2022,-245.7703 427.9368,-235.0035 415.8487,-225.7314"/>
<polygon fill="none" stroke="#404040" points="415.7364,-225.6502 408.5306,-225.3742 406.0139,-218.6165 413.2197,-218.8925 415.7364,-225.6502"/>
<text text-anchor="middle" x="511.2592" y="-283" font-family="Helvetica,sans-Serif" font-size="10.00" fill="#000000"> +totalSliceLength</text>
<text text-anchor="middle" x="511.2592" y="-272" font-family="Helvetica,sans-Serif" font-size="10.00" fill="#000000">+start</text>
</g>
<!-- Node8 -->
<g id="node8" class="node">
<title>Node8</title>
<polygon fill="none" stroke="#bfbfbf" points="564.7592,-320.5 564.7592,-377.5 602.7592,-377.5 602.7592,-320.5 564.7592,-320.5"/>
<text text-anchor="middle" x="583.7592" y="-365.5" font-family="Helvetica,sans-Serif" font-size="10.00" fill="#000000">bool</text>
<polyline fill="none" stroke="#bfbfbf" points="564.7592,-358.5 602.7592,-358.5 "/>
<text text-anchor="middle" x="583.7592" y="-346.5" font-family="Helvetica,sans-Serif" font-size="10.00" fill="#000000"> </text>
<polyline fill="none" stroke="#bfbfbf" points="564.7592,-339.5 602.7592,-339.5 "/>
<text text-anchor="middle" x="583.7592" y="-327.5" font-family="Helvetica,sans-Serif" font-size="10.00" fill="#000000"> </text>
</g>
<!-- Node8&#45;&gt;Node5 -->
<g id="edge8" class="edge">
<title>Node8&#45;&gt;Node5</title>
<path fill="none" stroke="#404040" d="M583.4431,-320.1683C581.7201,-300.3529 576.2982,-274.7033 560.7592,-258 540.8076,-236.5536 473.4561,-215.9191 417.5981,-201.8269"/>
<polygon fill="none" stroke="#404040" points="417.5219,-201.808 410.7358,-204.2471 405.8743,-198.9211 412.6604,-196.482 417.5219,-201.808"/>
<text text-anchor="middle" x="612.2592" y="-283" font-family="Helvetica,sans-Serif" font-size="10.00" fill="#000000"> +hasFuture</text>
<text text-anchor="middle" x="612.2592" y="-272" font-family="Helvetica,sans-Serif" font-size="10.00" fill="#000000">+hasBacklog</text>
</g>
</g>
</svg>
        <g id="navigator" transform="translate(0 0)" fill="#404254">
                <rect fill="#f2f5e9" fill-opacity="0.5" stroke="#606060" stroke-width=".5" x="0" y="0" width="60" height="60"/>
                <use id="zoomplus" xlink:href="#zoomPlus" x="17" y="9" onmousedown="handleZoom(evt,'in')"/>
                <use id="zoomminus" xlink:href="#zoomMin" x="42" y="9" onmousedown="handleZoom(evt,'out')"/>
                <use id="reset" xlink:href="#resetDef" x="30" y="36" onmousedown="handleReset()"/>
                <g id="arrowUp" xlink:href="#dirArrow" transform="translate(30 24)" onmousedown="handlePan(0,-1)">
                  <use xlink:href="#rim" fill="#404040">
                        <set attributeName="fill" to="#808080" begin="arrowUp.mouseover" end="arrowUp.mouseout"/>
                  </use>
                  <path fill="none" stroke="white" stroke-width="1.5" d="M0,-3.0v7 M-2.5,-0.5L0,-3.0L2.5,-0.5"/>
                </g>
                <g id="arrowRight" xlink:href="#dirArrow" transform="rotate(90) translate(36 -43)" onmousedown="handlePan(1,0)">
                  <use xlink:href="#rim" fill="#404040">
                        <set attributeName="fill" to="#808080" begin="arrowRight.mouseover" end="arrowRight.mouseout"/>
                  </use>
                  <path fill="none" stroke="white" stroke-width="1.5" d="M0,-3.0v7 M-2.5,-0.5L0,-3.0L2.5,-0.5"/>
                </g>
                <g id="arrowDown" xlink:href="#dirArrow" transform="rotate(180) translate(-30 -48)" onmousedown="handlePan(0,1)">
                  <use xlink:href="#rim" fill="#404040">
                        <set attributeName="fill" to="#808080" begin="arrowDown.mouseover" end="arrowDown.mouseout"/>
                  </use>
                  <path fill="none" stroke="white" stroke-width="1.5" d="M0,-3.0v7 M-2.5,-0.5L0,-3.0L2.5,-0.5"/>
                </g>
                <g id="arrowLeft" xlink:href="#dirArrow" transform="rotate(270) translate(-36 17)" onmousedown="handlePan(-1,0)">
                  <use xlink:href="#rim" fill="#404040">
                        <set attributeName="fill" to="#808080" begin="arrowLeft.mouseover" end="arrowLeft.mouseout"/>
                  </use>
                  <path fill="none" stroke="white" stroke-width="1.5" d="M0,-3.0v7 M-2.5,-0.5L0,-3.0L2.5,-0.5"/>
                </g>
        </g>
        <svg viewBox="0 0 15 15" width="100%" height="30px" preserveAspectRatio="xMaxYMin meet">
         <g id="arrow_out" transform="scale(0.3 0.3)">
          <a xlink:href="structGPUCA__NAMESPACE_1_1gpu_1_1GPUTPCClusterFinder_1_1Memory__coll__graph_org.svg" target="_base">
           <rect id="button" ry="5" rx="5" y="6" x="6" height="38" width="38"
                fill="#f2f5e9" fill-opacity="0.5" stroke="#606060" stroke-width="1.0"/>
           <path id="arrow"
             d="M 11.500037,31.436501 C 11.940474,20.09759 22.043105,11.32322 32.158766,21.979434 L 37.068811,17.246167 C 37.068811,17.246167 37.088388,32 37.088388,32 L 22.160133,31.978069 C 22.160133,31.978069 26.997745,27.140456 26.997745,27.140456 C 18.528582,18.264221 13.291696,25.230495 11.500037,31.436501 z"
             style="fill:#404040;"/>
          </a>
         </g>
        </svg>
</svg>
