<?xml version="1.0" encoding="UTF-8" standalone="no"?>
<!DOCTYPE svg PUBLIC "-//W3C//DTD SVG 1.1//EN"
 "http://www.w3.org/Graphics/SVG/1.1/DTD/svg11.dtd">
<!-- Generated by graphviz version 2.40.1 (20161225.0304)
 -->
<!-- Title: GPUCA_NAMESPACE::gpu::GPUChainTracking::InOutMemory Pages: 1 -->
<!--zoomable 226 -->
<svg id="main" version="1.1" xmlns="http://www.w3.org/2000/svg" xmlns:xlink="http://www.w3.org/1999/xlink" xml:space="preserve" onload="init(evt)">
<style type="text/css"><![CDATA[
.edge:hover path { stroke: red; }
.edge:hover polygon { stroke: red; fill: red; }
]]></style>
<script type="text/javascript"><![CDATA[
var edges = document.getElementsByTagName('g');
if (edges && edges.length) {
  for (var i=0;i<edges.length;i++) {
    if (edges[i].id.substr(0,4)=='edge') {
      edges[i].setAttribute('class','edge');
    }
  }
}
]]></script>
        <defs>
                <circle id="rim" cx="0" cy="0" r="7"/>
                <circle id="rim2" cx="0" cy="0" r="3.5"/>
                <g id="zoomPlus">
                        <use xlink:href="#rim" fill="#404040">
                                <set attributeName="fill" to="#808080" begin="zoomplus.mouseover" end="zoomplus.mouseout"/>
                        </use>
                        <path d="M-4,0h8M0,-4v8" fill="none" stroke="white" stroke-width="1.5" pointer-events="none"/>
                </g>
                <g id="zoomMin">
                        <use xlink:href="#rim" fill="#404040">
                                <set attributeName="fill" to="#808080" begin="zoomminus.mouseover" end="zoomminus.mouseout"/>
                        </use>
                        <path d="M-4,0h8" fill="none" stroke="white" stroke-width="1.5" pointer-events="none"/>
                </g>
                <g id="dirArrow">
                        <path fill="none" stroke="white" stroke-width="1.5" d="M0,-3.0v7 M-2.5,-0.5L0,-3.0L2.5,-0.5"/>
                </g>
               <g id="resetDef">
                       <use xlink:href="#rim2" fill="#404040">
                               <set attributeName="fill" to="#808080" begin="reset.mouseover" end="reset.mouseout"/>
                       </use>
               </g>
        </defs>

<script type="text/javascript">
var viewWidth = 3130;
var viewHeight = 226;
var sectionId = 'dynsection-0';
</script>
<script xlink:href="../../svgpan.js"/>
<svg id="graph" class="graph">
<g id="viewport">
<title>GPUCA_NAMESPACE::gpu::GPUChainTracking::InOutMemory</title>
<!-- Node1 -->
<g id="node1" class="node">
<title>Node1</title>
<polygon fill="#bfbfbf" stroke="#000000" points="1499,-.5 1499,-101.5 1683,-101.5 1683,-.5 1499,-.5"/>
<text text-anchor="start" x="1507" y="-89.5" font-family="Helvetica,sans-Serif" font-size="10.00" fill="#000000">GPUCA_NAMESPACE::gpu</text>
<text text-anchor="middle" x="1591" y="-78.5" font-family="Helvetica,sans-Serif" font-size="10.00" fill="#000000">::GPUChainTracking::InOutMemory</text>
<polyline fill="none" stroke="#000000" points="1499,-71.5 1683,-71.5 "/>
<text text-anchor="middle" x="1591" y="-59.5" font-family="Helvetica,sans-Serif" font-size="10.00" fill="#000000"> </text>
<polyline fill="none" stroke="#000000" points="1499,-52.5 1683,-52.5 "/>
<text text-anchor="start" x="1507" y="-40.5" font-family="Helvetica,sans-Serif" font-size="10.00" fill="#000000">+ InOutMemory()</text>
<text text-anchor="start" x="1507" y="-29.5" font-family="Helvetica,sans-Serif" font-size="10.00" fill="#000000">+ ~InOutMemory()</text>
<text text-anchor="start" x="1507" y="-18.5" font-family="Helvetica,sans-Serif" font-size="10.00" fill="#000000">+ InOutMemory()</text>
<text text-anchor="start" x="1507" y="-7.5" font-family="Helvetica,sans-Serif" font-size="10.00" fill="#000000">+ operator=()</text>
</g>
<!-- Node2 -->
<g id="node2" class="node">
<title>Node2</title>
<polygon fill="none" stroke="#bfbfbf" points="0,-149.5 0,-217.5 194,-217.5 194,-149.5 0,-149.5"/>
<text text-anchor="start" x="8" y="-205.5" font-family="Helvetica,sans-Serif" font-size="10.00" fill="#000000">unique_ptr&lt; GPUCA_NAMESPACE</text>
<text text-anchor="middle" x="97" y="-194.5" font-family="Helvetica,sans-Serif" font-size="10.00" fill="#000000">::gpu::GPUTPCGMMergedTrackHit[]&gt;</text>
<polyline fill="none" stroke="#bfbfbf" points="0,-187.5 194,-187.5 "/>
<text text-anchor="middle" x="97" y="-175.5" font-family="Helvetica,sans-Serif" font-size="10.00" fill="#000000"> </text>
<polyline fill="none" stroke="#bfbfbf" points="0,-168.5 194,-168.5 "/>
<text text-anchor="middle" x="97" y="-156.5" font-family="Helvetica,sans-Serif" font-size="10.00" fill="#000000"> </text>
</g>
<!-- Node2&#45;&gt;Node1 -->
<g id="edge1" class="edge">
<title>Node2&#45;&gt;Node1</title>
<path fill="none" stroke="#404040" d="M193.0834,-149.4308C230.0794,-137.861 273.0354,-126.2796 313,-120 538.2584,-84.6054 1223.781,-61.6135 1486.7664,-53.8876"/>
<polygon fill="none" stroke="#404040" points="1486.9717,-53.8817 1492.8524,-49.7082 1498.9666,-53.5313 1493.086,-57.7048 1486.9717,-53.8817"/>
<text text-anchor="middle" x="360" y="-123" font-family="Helvetica,sans-Serif" font-size="10.00" fill="#000000"> +mergedTrackHits</text>
</g>
<!-- Node3 -->
<g id="node3" class="node">
<title>Node3</title>
<polygon fill="none" stroke="#bfbfbf" points="212.5,-149.5 212.5,-217.5 325.5,-217.5 325.5,-149.5 212.5,-149.5"/>
<text text-anchor="start" x="220.5" y="-205.5" font-family="Helvetica,sans-Serif" font-size="10.00" fill="#000000">unique_ptr&lt; o2::tpc</text>
<text text-anchor="middle" x="269" y="-194.5" font-family="Helvetica,sans-Serif" font-size="10.00" fill="#000000">::Digit[]&gt;</text>
<polyline fill="none" stroke="#bfbfbf" points="212.5,-187.5 325.5,-187.5 "/>
<text text-anchor="middle" x="269" y="-175.5" font-family="Helvetica,sans-Serif" font-size="10.00" fill="#000000"> </text>
<polyline fill="none" stroke="#bfbfbf" points="212.5,-168.5 325.5,-168.5 "/>
<text text-anchor="middle" x="269" y="-156.5" font-family="Helvetica,sans-Serif" font-size="10.00" fill="#000000"> </text>
</g>
<!-- Node3&#45;&gt;Node1 -->
<g id="edge2" class="edge">
<title>Node3&#45;&gt;Node1</title>
<path fill="none" stroke="#404040" d="M325.5534,-151.9738C328.3723,-150.8814 331.1966,-149.8806 334,-149 436.0836,-116.9342 466.4732,-130.066 573,-120 906.3196,-88.5039 1302.3546,-65.9041 1486.8138,-56.2323"/>
<polygon fill="none" stroke="#404040" points="1486.939,-56.2259 1492.7222,-51.9184 1498.9226,-55.6001 1493.1394,-59.9075 1486.939,-56.2259"/>
<text text-anchor="middle" x="600.5" y="-123" font-family="Helvetica,sans-Serif" font-size="10.00" fill="#000000"> +tpcDigits</text>
</g>
<!-- Node4 -->
<g id="node4" class="node">
<title>Node4</title>
<polygon fill="none" stroke="#bfbfbf" points="343.5,-149.5 343.5,-217.5 522.5,-217.5 522.5,-149.5 343.5,-149.5"/>
<text text-anchor="start" x="351.5" y="-205.5" font-family="Helvetica,sans-Serif" font-size="10.00" fill="#000000">unique_ptr&lt; GPUCA_NAMESPACE</text>
<text text-anchor="middle" x="433" y="-194.5" font-family="Helvetica,sans-Serif" font-size="10.00" fill="#000000">::gpu::GPUTPCGMMergedTrack[]&gt;</text>
<polyline fill="none" stroke="#bfbfbf" points="343.5,-187.5 522.5,-187.5 "/>
<text text-anchor="middle" x="433" y="-175.5" font-family="Helvetica,sans-Serif" font-size="10.00" fill="#000000"> </text>
<polyline fill="none" stroke="#bfbfbf" points="343.5,-168.5 522.5,-168.5 "/>
<text text-anchor="middle" x="433" y="-156.5" font-family="Helvetica,sans-Serif" font-size="10.00" fill="#000000"> </text>
</g>
<!-- Node4&#45;&gt;Node1 -->
<g id="edge3" class="edge">
<title>Node4&#45;&gt;Node1</title>
<path fill="none" stroke="#404040" d="M522.5002,-151.1643C525.3555,-150.3983 528.1938,-149.6739 531,-149 625.6122,-126.2803 651.2573,-130.4167 748,-120 1013.5537,-91.4067 1327.3067,-68.6128 1486.7163,-57.8114"/>
<polygon fill="none" stroke="#404040" points="1486.8846,-57.8001 1492.6015,-53.405 1498.8574,-56.9917 1493.1404,-61.3868 1486.8846,-57.8001"/>
<text text-anchor="middle" x="788" y="-123" font-family="Helvetica,sans-Serif" font-size="10.00" fill="#000000"> +mergedTracks</text>
</g>
<!-- Node5 -->
<g id="node5" class="node">
<title>Node5</title>
<polygon fill="none" stroke="#bfbfbf" points="540.5,-149.5 540.5,-217.5 719.5,-217.5 719.5,-149.5 540.5,-149.5"/>
<text text-anchor="start" x="548.5" y="-205.5" font-family="Helvetica,sans-Serif" font-size="10.00" fill="#000000">unique_ptr&lt; GPUCA_NAMESPACE</text>
<text text-anchor="middle" x="630" y="-194.5" font-family="Helvetica,sans-Serif" font-size="10.00" fill="#000000">::gpu::GPUTPCClusterData[]&gt;</text>
<polyline fill="none" stroke="#bfbfbf" points="540.5,-187.5 719.5,-187.5 "/>
<text text-anchor="middle" x="630" y="-175.5" font-family="Helvetica,sans-Serif" font-size="10.00" fill="#000000"> </text>
<polyline fill="none" stroke="#bfbfbf" points="540.5,-168.5 719.5,-168.5 "/>
<text text-anchor="middle" x="630" y="-156.5" font-family="Helvetica,sans-Serif" font-size="10.00" fill="#000000"> </text>
</g>
<!-- Node5&#45;&gt;Node1 -->
<g id="edge4" class="edge">
<title>Node5&#45;&gt;Node1</title>
<path fill="none" stroke="#404040" d="M719.5013,-151.1688C722.3563,-150.4015 725.1942,-149.6756 728,-149 821.7418,-126.4288 847.2734,-131.5502 943,-120 1134.6439,-96.8765 1358.677,-73.9258 1486.7957,-61.1892"/>
<polygon fill="none" stroke="#404040" points="1486.9492,-61.1741 1492.5248,-56.601 1498.8906,-59.9889 1493.315,-64.5619 1486.9492,-61.1741"/>
<text text-anchor="middle" x="977" y="-123" font-family="Helvetica,sans-Serif" font-size="10.00" fill="#000000"> +clusterData</text>
</g>
<!-- Node6 -->
<g id="node6" class="node">
<title>Node6</title>
<polygon fill="none" stroke="#bfbfbf" points="737.5,-149.5 737.5,-217.5 916.5,-217.5 916.5,-149.5 737.5,-149.5"/>
<text text-anchor="start" x="745.5" y="-205.5" font-family="Helvetica,sans-Serif" font-size="10.00" fill="#000000">unique_ptr&lt; GPUCA_NAMESPACE</text>
<text text-anchor="middle" x="827" y="-194.5" font-family="Helvetica,sans-Serif" font-size="10.00" fill="#000000">::gpu::GPUTRDTrackletLabels[]&gt;</text>
<polyline fill="none" stroke="#bfbfbf" points="737.5,-187.5 916.5,-187.5 "/>
<text text-anchor="middle" x="827" y="-175.5" font-family="Helvetica,sans-Serif" font-size="10.00" fill="#000000"> </text>
<polyline fill="none" stroke="#bfbfbf" points="737.5,-168.5 916.5,-168.5 "/>
<text text-anchor="middle" x="827" y="-156.5" font-family="Helvetica,sans-Serif" font-size="10.00" fill="#000000"> </text>
</g>
<!-- Node6&#45;&gt;Node1 -->
<g id="edge5" class="edge">
<title>Node6&#45;&gt;Node1</title>
<path fill="none" stroke="#404040" d="M916.5308,-151.2869C919.3773,-150.4855 922.2054,-149.7204 925,-149 1120.0705,-98.7144 1354.3869,-71.7163 1486.6633,-59.4432"/>
<polygon fill="none" stroke="#404040" points="1486.7991,-59.4308 1492.4093,-54.9003 1498.7491,-58.3365 1493.1389,-62.867 1486.7991,-59.4308"/>
<text text-anchor="middle" x="1093" y="-123" font-family="Helvetica,sans-Serif" font-size="10.00" fill="#000000"> +trdTrackletsMC</text>
</g>
<!-- Node7 -->
<g id="node7" class="node">
<title>Node7</title>
<polygon fill="none" stroke="#bfbfbf" points="934.5,-149.5 934.5,-217.5 1147.5,-217.5 1147.5,-149.5 934.5,-149.5"/>
<text text-anchor="start" x="942.5" y="-205.5" font-family="Helvetica,sans-Serif" font-size="10.00" fill="#000000">unique_ptr&lt; GPUCA_NAMESPACE</text>
<text text-anchor="middle" x="1041" y="-194.5" font-family="Helvetica,sans-Serif" font-size="10.00" fill="#000000">::gpu::GPUTPCGMMergedTrackHitXYZ[]&gt;</text>
<polyline fill="none" stroke="#bfbfbf" points="934.5,-187.5 1147.5,-187.5 "/>
<text text-anchor="middle" x="1041" y="-175.5" font-family="Helvetica,sans-Serif" font-size="10.00" fill="#000000"> </text>
<polyline fill="none" stroke="#bfbfbf" points="934.5,-168.5 1147.5,-168.5 "/>
<text text-anchor="middle" x="1041" y="-156.5" font-family="Helvetica,sans-Serif" font-size="10.00" fill="#000000"> </text>
</g>
<!-- Node7&#45;&gt;Node1 -->
<g id="edge6" class="edge">
<title>Node7&#45;&gt;Node1</title>
<path fill="none" stroke="#404040" d="M1128.952,-149.4102C1157.9641,-138.9914 1190.5917,-128.1465 1221,-120 1309.4881,-96.2936 1412.023,-77.8587 1486.6814,-66.0312"/>
<polygon fill="none" stroke="#404040" points="1487.0286,-65.9768 1492.3364,-61.0955 1498.8837,-64.1175 1493.5759,-68.9989 1487.0286,-65.9768"/>
<text text-anchor="middle" x="1278" y="-123" font-family="Helvetica,sans-Serif" font-size="10.00" fill="#000000"> +mergedTrackHitsXYZ</text>
</g>
<!-- Node8 -->
<g id="node8" class="node">
<title>Node8</title>
<polygon fill="none" stroke="#bfbfbf" points="1165,-155 1165,-212 1281,-212 1281,-155 1165,-155"/>
<text text-anchor="middle" x="1223" y="-200" font-family="Helvetica,sans-Serif" font-size="10.00" fill="#000000">unique_ptr&lt; char[]&gt;</text>
<polyline fill="none" stroke="#bfbfbf" points="1165,-193 1281,-193 "/>
<text text-anchor="middle" x="1223" y="-181" font-family="Helvetica,sans-Serif" font-size="10.00" fill="#000000"> </text>
<polyline fill="none" stroke="#bfbfbf" points="1165,-174 1281,-174 "/>
<text text-anchor="middle" x="1223" y="-162" font-family="Helvetica,sans-Serif" font-size="10.00" fill="#000000"> </text>
</g>
<!-- Node8&#45;&gt;Node1 -->
<g id="edge7" class="edge">
<title>Node8&#45;&gt;Node1</title>
<path fill="none" stroke="#404040" d="M1276.7664,-154.8718C1281.2035,-152.7985 1285.6529,-150.8131 1290,-149 1354.1952,-122.2259 1428.4854,-97.9725 1487.1987,-80.2913"/>
<polygon fill="none" stroke="#404040" points="1487.2292,-80.2823 1491.8315,-74.7308 1498.7261,-76.8439 1494.1237,-82.3954 1487.2292,-80.2823"/>
<text text-anchor="middle" x="1397.5" y="-123" font-family="Helvetica,sans-Serif" font-size="10.00" fill="#000000"> +tpcZSpages</text>
</g>
<!-- Node9 -->
<g id="node9" class="node">
<title>Node9</title>
<polygon fill="none" stroke="#bfbfbf" points="1299.5,-149.5 1299.5,-217.5 1478.5,-217.5 1478.5,-149.5 1299.5,-149.5"/>
<text text-anchor="start" x="1307.5" y="-205.5" font-family="Helvetica,sans-Serif" font-size="10.00" fill="#000000">unique_ptr&lt; GPUCA_NAMESPACE</text>
<text text-anchor="middle" x="1389" y="-194.5" font-family="Helvetica,sans-Serif" font-size="10.00" fill="#000000">::gpu::GPUTPCHitId[]&gt;</text>
<polyline fill="none" stroke="#bfbfbf" points="1299.5,-187.5 1478.5,-187.5 "/>
<text text-anchor="middle" x="1389" y="-175.5" font-family="Helvetica,sans-Serif" font-size="10.00" fill="#000000"> </text>
<polyline fill="none" stroke="#bfbfbf" points="1299.5,-168.5 1478.5,-168.5 "/>
<text text-anchor="middle" x="1389" y="-156.5" font-family="Helvetica,sans-Serif" font-size="10.00" fill="#000000"> </text>
</g>
<!-- Node9&#45;&gt;Node1 -->
<g id="edge8" class="edge">
<title>Node9&#45;&gt;Node1</title>
<path fill="none" stroke="#404040" d="M1441.02,-149.378C1460.1938,-136.8011 1482.475,-122.1859 1503.9049,-108.1292"/>
<polygon fill="none" stroke="#404040" points="1503.9726,-108.0848 1506.7957,-101.4493 1514.0067,-101.5031 1511.1836,-108.1386 1503.9726,-108.0848"/>
<text text-anchor="middle" x="1521" y="-123" font-family="Helvetica,sans-Serif" font-size="10.00" fill="#000000"> +sliceClusters</text>
</g>
<!-- Node10 -->
<g id="node10" class="node">
<title>Node10</title>
<polygon fill="none" stroke="#bfbfbf" points="1497,-149.5 1497,-217.5 1685,-217.5 1685,-149.5 1497,-149.5"/>
<text text-anchor="start" x="1505" y="-205.5" font-family="Helvetica,sans-Serif" font-size="10.00" fill="#000000">unique_ptr&lt; GPUTrackingIn</text>
<text text-anchor="middle" x="1591" y="-194.5" font-family="Helvetica,sans-Serif" font-size="10.00" fill="#000000">OutZS::GPUTrackingInOutZSMeta &gt;</text>
<polyline fill="none" stroke="#bfbfbf" points="1497,-187.5 1685,-187.5 "/>
<text text-anchor="middle" x="1591" y="-175.5" font-family="Helvetica,sans-Serif" font-size="10.00" fill="#000000"> </text>
<polyline fill="none" stroke="#bfbfbf" points="1497,-168.5 1685,-168.5 "/>
<text text-anchor="middle" x="1591" y="-156.5" font-family="Helvetica,sans-Serif" font-size="10.00" fill="#000000"> </text>
</g>
<!-- Node10&#45;&gt;Node1 -->
<g id="edge9" class="edge">
<title>Node10&#45;&gt;Node1</title>
<path fill="none" stroke="#404040" d="M1591,-149.378C1591,-138.4514 1591,-125.9865 1591,-113.6859"/>
<polygon fill="none" stroke="#404040" points="1591.0001,-113.5031 1587,-107.5031 1591,-101.5031 1595,-107.503 1591.0001,-113.5031"/>
<text text-anchor="middle" x="1626.5" y="-123" font-family="Helvetica,sans-Serif" font-size="10.00" fill="#000000"> +tpcZSmeta2</text>
</g>
<!-- Node11 -->
<g id="node11" class="node">
<title>Node11</title>
<polygon fill="none" stroke="#bfbfbf" points="1703.5,-149.5 1703.5,-217.5 1882.5,-217.5 1882.5,-149.5 1703.5,-149.5"/>
<text text-anchor="start" x="1711.5" y="-205.5" font-family="Helvetica,sans-Serif" font-size="10.00" fill="#000000">unique_ptr&lt; GPUCA_NAMESPACE</text>
<text text-anchor="middle" x="1793" y="-194.5" font-family="Helvetica,sans-Serif" font-size="10.00" fill="#000000">::gpu::GPUTPCTrack[]&gt;</text>
<polyline fill="none" stroke="#bfbfbf" points="1703.5,-187.5 1882.5,-187.5 "/>
<text text-anchor="middle" x="1793" y="-175.5" font-family="Helvetica,sans-Serif" font-size="10.00" fill="#000000"> </text>
<polyline fill="none" stroke="#bfbfbf" points="1703.5,-168.5 1882.5,-168.5 "/>
<text text-anchor="middle" x="1793" y="-156.5" font-family="Helvetica,sans-Serif" font-size="10.00" fill="#000000"> </text>
</g>
<!-- Node11&#45;&gt;Node1 -->
<g id="edge10" class="edge">
<title>Node11&#45;&gt;Node1</title>
<path fill="none" stroke="#404040" d="M1740.98,-149.378C1721.8062,-136.8011 1699.525,-122.1859 1678.0951,-108.1292"/>
<polygon fill="none" stroke="#404040" points="1678.0274,-108.0848 1670.8164,-108.1386 1667.9933,-101.5031 1675.2043,-101.4493 1678.0274,-108.0848"/>
<text text-anchor="middle" x="1742.5" y="-123" font-family="Helvetica,sans-Serif" font-size="10.00" fill="#000000"> +sliceTracks</text>
</g>
<!-- Node12 -->
<g id="node12" class="node">
<title>Node12</title>
<polygon fill="none" stroke="#bfbfbf" points="1900.5,-149.5 1900.5,-217.5 2013.5,-217.5 2013.5,-149.5 1900.5,-149.5"/>
<text text-anchor="start" x="1908.5" y="-205.5" font-family="Helvetica,sans-Serif" font-size="10.00" fill="#000000">unique_ptr&lt; o2::tpc</text>
<text text-anchor="middle" x="1957" y="-194.5" font-family="Helvetica,sans-Serif" font-size="10.00" fill="#000000">::ClusterNative[]&gt;</text>
<polyline fill="none" stroke="#bfbfbf" points="1900.5,-187.5 2013.5,-187.5 "/>
<text text-anchor="middle" x="1957" y="-175.5" font-family="Helvetica,sans-Serif" font-size="10.00" fill="#000000"> </text>
<polyline fill="none" stroke="#bfbfbf" points="1900.5,-168.5 2013.5,-168.5 "/>
<text text-anchor="middle" x="1957" y="-156.5" font-family="Helvetica,sans-Serif" font-size="10.00" fill="#000000"> </text>
</g>
<!-- Node12&#45;&gt;Node1 -->
<g id="edge11" class="edge">
<title>Node12&#45;&gt;Node1</title>
<path fill="none" stroke="#404040" d="M1900.2019,-152.6382C1897.4485,-151.3681 1894.7049,-150.148 1892,-149 1827.854,-121.7768 1753.4091,-97.4793 1694.6037,-79.8878"/>
<polygon fill="none" stroke="#404040" points="1694.5625,-79.8756 1687.6722,-82.0024 1683.0589,-76.46 1689.9492,-74.3333 1694.5625,-79.8756"/>
<text text-anchor="middle" x="1884" y="-123" font-family="Helvetica,sans-Serif" font-size="10.00" fill="#000000"> +clustersNative</text>
</g>
<!-- Node13 -->
<g id="node13" class="node">
<title>Node13</title>
<polygon fill="none" stroke="#bfbfbf" points="2031.5,-149.5 2031.5,-217.5 2210.5,-217.5 2210.5,-149.5 2031.5,-149.5"/>
<text text-anchor="start" x="2039.5" y="-205.5" font-family="Helvetica,sans-Serif" font-size="10.00" fill="#000000">unique_ptr&lt; GPUCA_NAMESPACE</text>
<text text-anchor="middle" x="2121" y="-194.5" font-family="Helvetica,sans-Serif" font-size="10.00" fill="#000000">::gpu::GPUTPCMCInfo[]&gt;</text>
<polyline fill="none" stroke="#bfbfbf" points="2031.5,-187.5 2210.5,-187.5 "/>
<text text-anchor="middle" x="2121" y="-175.5" font-family="Helvetica,sans-Serif" font-size="10.00" fill="#000000"> </text>
<polyline fill="none" stroke="#bfbfbf" points="2031.5,-168.5 2210.5,-168.5 "/>
<text text-anchor="middle" x="2121" y="-156.5" font-family="Helvetica,sans-Serif" font-size="10.00" fill="#000000"> </text>
</g>
<!-- Node13&#45;&gt;Node1 -->
<g id="edge12" class="edge">
<title>Node13&#45;&gt;Node1</title>
<path fill="none" stroke="#404040" d="M2031.3265,-151.773C2028.5213,-150.8311 2025.7405,-149.9047 2023,-149 1981.4832,-135.2939 1971.3582,-130.8299 1929,-120 1851.1355,-100.0922 1762.0284,-82.0958 1694.8605,-69.4771"/>
<polygon fill="none" stroke="#404040" points="1694.8024,-69.4664 1688.17,-72.2967 1683.0064,-67.2631 1689.6389,-64.4327 1694.8024,-69.4664"/>
<text text-anchor="middle" x="2003" y="-123" font-family="Helvetica,sans-Serif" font-size="10.00" fill="#000000"> +mcInfosTPC</text>
</g>
<!-- Node14 -->
<g id="node14" class="node">
<title>Node14</title>
<polygon fill="none" stroke="#bfbfbf" points="2228.5,-149.5 2228.5,-217.5 2391.5,-217.5 2391.5,-149.5 2228.5,-149.5"/>
<text text-anchor="start" x="2236.5" y="-205.5" font-family="Helvetica,sans-Serif" font-size="10.00" fill="#000000">unique_ptr&lt; AliHLTTPCCluster</text>
<text text-anchor="middle" x="2310" y="-194.5" font-family="Helvetica,sans-Serif" font-size="10.00" fill="#000000">MCLabel[]&gt;</text>
<polyline fill="none" stroke="#bfbfbf" points="2228.5,-187.5 2391.5,-187.5 "/>
<text text-anchor="middle" x="2310" y="-175.5" font-family="Helvetica,sans-Serif" font-size="10.00" fill="#000000"> </text>
<polyline fill="none" stroke="#bfbfbf" points="2228.5,-168.5 2391.5,-168.5 "/>
<text text-anchor="middle" x="2310" y="-156.5" font-family="Helvetica,sans-Serif" font-size="10.00" fill="#000000"> </text>
</g>
<!-- Node14&#45;&gt;Node1 -->
<g id="edge13" class="edge">
<title>Node14&#45;&gt;Node1</title>
<path fill="none" stroke="#404040" d="M2228.319,-151.3756C2225.5248,-150.537 2222.7463,-149.7417 2220,-149 2038.9118,-100.093 1821.4664,-72.9595 1695.4684,-60.2255"/>
<polygon fill="none" stroke="#404040" points="1695.131,-60.1919 1688.7636,-63.5767 1683.1902,-59.001 1689.5576,-55.6162 1695.131,-60.1919"/>
<text text-anchor="middle" x="2174.5" y="-123" font-family="Helvetica,sans-Serif" font-size="10.00" fill="#000000"> +mcLabelsTPC</text>
</g>
<!-- Node15 -->
<g id="node15" class="node">
<title>Node15</title>
<polygon fill="none" stroke="#bfbfbf" points="2410,-149.5 2410,-217.5 2560,-217.5 2560,-149.5 2410,-149.5"/>
<text text-anchor="start" x="2418" y="-205.5" font-family="Helvetica,sans-Serif" font-size="10.00" fill="#000000">unique_ptr&lt; GPUTrackingIn</text>
<text text-anchor="middle" x="2485" y="-194.5" font-family="Helvetica,sans-Serif" font-size="10.00" fill="#000000">OutZS &gt;</text>
<polyline fill="none" stroke="#bfbfbf" points="2410,-187.5 2560,-187.5 "/>
<text text-anchor="middle" x="2485" y="-175.5" font-family="Helvetica,sans-Serif" font-size="10.00" fill="#000000"> </text>
<polyline fill="none" stroke="#bfbfbf" points="2410,-168.5 2560,-168.5 "/>
<text text-anchor="middle" x="2485" y="-156.5" font-family="Helvetica,sans-Serif" font-size="10.00" fill="#000000"> </text>
</g>
<!-- Node15&#45;&gt;Node1 -->
<g id="edge14" class="edge">
<title>Node15&#45;&gt;Node1</title>
<path fill="none" stroke="#404040" d="M2409.7361,-151.6186C2406.8035,-150.6855 2403.8845,-149.8077 2401,-149 2321.279,-126.6775 2299.0555,-130.9825 2217,-120 2033.8534,-95.4872 1819.7075,-73.2688 1695.3044,-60.9979"/>
<polygon fill="none" stroke="#404040" points="1695.122,-60.9801 1688.7592,-64.3736 1683.1796,-59.8055 1689.5423,-56.412 1695.122,-60.9801"/>
<text text-anchor="middle" x="2344.5" y="-123" font-family="Helvetica,sans-Serif" font-size="10.00" fill="#000000"> +tpcZSmeta</text>
</g>
<!-- Node16 -->
<g id="node16" class="node">
<title>Node16</title>
<polygon fill="none" stroke="#bfbfbf" points="2578.5,-149.5 2578.5,-217.5 2757.5,-217.5 2757.5,-149.5 2578.5,-149.5"/>
<text text-anchor="start" x="2586.5" y="-205.5" font-family="Helvetica,sans-Serif" font-size="10.00" fill="#000000">unique_ptr&lt; GPUCA_NAMESPACE</text>
<text text-anchor="middle" x="2668" y="-194.5" font-family="Helvetica,sans-Serif" font-size="10.00" fill="#000000">::gpu::GPUTRDTrackletWord[]&gt;</text>
<polyline fill="none" stroke="#bfbfbf" points="2578.5,-187.5 2757.5,-187.5 "/>
<text text-anchor="middle" x="2668" y="-175.5" font-family="Helvetica,sans-Serif" font-size="10.00" fill="#000000"> </text>
<polyline fill="none" stroke="#bfbfbf" points="2578.5,-168.5 2757.5,-168.5 "/>
<text text-anchor="middle" x="2668" y="-156.5" font-family="Helvetica,sans-Serif" font-size="10.00" fill="#000000"> </text>
</g>
<!-- Node16&#45;&gt;Node1 -->
<g id="edge15" class="edge">
<title>Node16&#45;&gt;Node1</title>
<path fill="none" stroke="#404040" d="M2578.3725,-151.4668C2575.2215,-150.5961 2572.0907,-149.7701 2569,-149 2486.9643,-128.5601 2464.935,-130.128 2381,-120 2135.801,-90.413 1846.3188,-68.4097 1695.0212,-57.8903"/>
<polygon fill="none" stroke="#404040" points="1695.0082,-57.8895 1688.7464,-61.4657 1683.0369,-57.061 1689.2987,-53.4847 1695.0082,-57.8895"/>
<text text-anchor="middle" x="2509.5" y="-123" font-family="Helvetica,sans-Serif" font-size="10.00" fill="#000000"> +trdTracklets</text>
</g>
<!-- Node17 -->
<g id="node17" class="node">
<title>Node17</title>
<polygon fill="none" stroke="#bfbfbf" points="2775.5,-149.5 2775.5,-217.5 2954.5,-217.5 2954.5,-149.5 2775.5,-149.5"/>
<text text-anchor="start" x="2783.5" y="-205.5" font-family="Helvetica,sans-Serif" font-size="10.00" fill="#000000">unique_ptr&lt; GPUCA_NAMESPACE</text>
<text text-anchor="middle" x="2865" y="-194.5" font-family="Helvetica,sans-Serif" font-size="10.00" fill="#000000">::gpu::GPUTRDTrack_t[]&gt;</text>
<polyline fill="none" stroke="#bfbfbf" points="2775.5,-187.5 2954.5,-187.5 "/>
<text text-anchor="middle" x="2865" y="-175.5" font-family="Helvetica,sans-Serif" font-size="10.00" fill="#000000"> </text>
<polyline fill="none" stroke="#bfbfbf" points="2775.5,-168.5 2954.5,-168.5 "/>
<text text-anchor="middle" x="2865" y="-156.5" font-family="Helvetica,sans-Serif" font-size="10.00" fill="#000000"> </text>
</g>
<!-- Node17&#45;&gt;Node1 -->
<g id="edge16" class="edge">
<title>Node17&#45;&gt;Node1</title>
<path fill="none" stroke="#404040" d="M2775.2332,-151.0882C2772.4678,-150.35 2769.7189,-149.6512 2767,-149 2671.5173,-126.1318 2645.6745,-129.9792 2548,-120 2238.5467,-88.3837 1871.3388,-66.1778 1695.293,-56.4763"/>
<polygon fill="none" stroke="#404040" points="1695.1896,-56.4707 1688.9795,-60.1361 1683.2076,-55.8134 1689.4177,-52.1481 1695.1896,-56.4707"/>
<text text-anchor="middle" x="2697" y="-123" font-family="Helvetica,sans-Serif" font-size="10.00" fill="#000000"> +trdTracks</text>
</g>
<!-- Node18 -->
<g id="node18" class="node">
<title>Node18</title>
<polygon fill="none" stroke="#bfbfbf" points="2972.5,-149.5 2972.5,-217.5 3121.5,-217.5 3121.5,-149.5 2972.5,-149.5"/>
<text text-anchor="start" x="2980.5" y="-205.5" font-family="Helvetica,sans-Serif" font-size="10.00" fill="#000000">unique_ptr&lt; AliHLTTPCRaw</text>
<text text-anchor="middle" x="3047" y="-194.5" font-family="Helvetica,sans-Serif" font-size="10.00" fill="#000000">Cluster[]&gt;</text>
<polyline fill="none" stroke="#bfbfbf" points="2972.5,-187.5 3121.5,-187.5 "/>
<text text-anchor="middle" x="3047" y="-175.5" font-family="Helvetica,sans-Serif" font-size="10.00" fill="#000000"> </text>
<polyline fill="none" stroke="#bfbfbf" points="2972.5,-168.5 3121.5,-168.5 "/>
<text text-anchor="middle" x="3047" y="-156.5" font-family="Helvetica,sans-Serif" font-size="10.00" fill="#000000"> </text>
</g>
<!-- Node18&#45;&gt;Node1 -->
<g id="edge17" class="edge">
<title>Node18&#45;&gt;Node1</title>
<path fill="none" stroke="#404040" d="M2972.2149,-151.3486C2969.4598,-150.505 2966.7157,-149.7177 2964,-149 2862.256,-122.1126 2833.7948,-129.6337 2729,-120 2349.1563,-85.0815 1896.2981,-63.6337 1695.6117,-55.1635"/>
<polygon fill="none" stroke="#404040" points="1695.3303,-55.1518 1689.1678,-58.8966 1683.3409,-54.6485 1689.5033,-50.9037 1695.3303,-55.1518"/>
<text text-anchor="middle" x="2910" y="-123" font-family="Helvetica,sans-Serif" font-size="10.00" fill="#000000"> +rawClusters</text>
</g>
</g>
</svg>
        <g id="navigator" transform="translate(0 0)" fill="#404254">
                <rect fill="#f2f5e9" fill-opacity="0.5" stroke="#606060" stroke-width=".5" x="0" y="0" width="60" height="60"/>
                <use id="zoomplus" xlink:href="#zoomPlus" x="17" y="9" onmousedown="handleZoom(evt,'in')"/>
                <use id="zoomminus" xlink:href="#zoomMin" x="42" y="9" onmousedown="handleZoom(evt,'out')"/>
                <use id="reset" xlink:href="#resetDef" x="30" y="36" onmousedown="handleReset()"/>
                <g id="arrowUp" xlink:href="#dirArrow" transform="translate(30 24)" onmousedown="handlePan(0,-1)">
                  <use xlink:href="#rim" fill="#404040">
                        <set attributeName="fill" to="#808080" begin="arrowUp.mouseover" end="arrowUp.mouseout"/>
                  </use>
                  <path fill="none" stroke="white" stroke-width="1.5" d="M0,-3.0v7 M-2.5,-0.5L0,-3.0L2.5,-0.5"/>
                </g>
                <g id="arrowRight" xlink:href="#dirArrow" transform="rotate(90) translate(36 -43)" onmousedown="handlePan(1,0)">
                  <use xlink:href="#rim" fill="#404040">
                        <set attributeName="fill" to="#808080" begin="arrowRight.mouseover" end="arrowRight.mouseout"/>
                  </use>
                  <path fill="none" stroke="white" stroke-width="1.5" d="M0,-3.0v7 M-2.5,-0.5L0,-3.0L2.5,-0.5"/>
                </g>
                <g id="arrowDown" xlink:href="#dirArrow" transform="rotate(180) translate(-30 -48)" onmousedown="handlePan(0,1)">
                  <use xlink:href="#rim" fill="#404040">
                        <set attributeName="fill" to="#808080" begin="arrowDown.mouseover" end="arrowDown.mouseout"/>
                  </use>
                  <path fill="none" stroke="white" stroke-width="1.5" d="M0,-3.0v7 M-2.5,-0.5L0,-3.0L2.5,-0.5"/>
                </g>
                <g id="arrowLeft" xlink:href="#dirArrow" transform="rotate(270) translate(-36 17)" onmousedown="handlePan(-1,0)">
                  <use xlink:href="#rim" fill="#404040">
                        <set attributeName="fill" to="#808080" begin="arrowLeft.mouseover" end="arrowLeft.mouseout"/>
                  </use>
                  <path fill="none" stroke="white" stroke-width="1.5" d="M0,-3.0v7 M-2.5,-0.5L0,-3.0L2.5,-0.5"/>
                </g>
        </g>
        <svg viewBox="0 0 15 15" width="100%" height="30px" preserveAspectRatio="xMaxYMin meet">
         <g id="arrow_out" transform="scale(0.3 0.3)">
          <a xlink:href="structGPUCA__NAMESPACE_1_1gpu_1_1GPUChainTracking_1_1InOutMemory__coll__graph_org.svg" target="_base">
           <rect id="button" ry="5" rx="5" y="6" x="6" height="38" width="38"
                fill="#f2f5e9" fill-opacity="0.5" stroke="#606060" stroke-width="1.0"/>
           <path id="arrow"
             d="M 11.500037,31.436501 C 11.940474,20.09759 22.043105,11.32322 32.158766,21.979434 L 37.068811,17.246167 C 37.068811,17.246167 37.088388,32 37.088388,32 L 22.160133,31.978069 C 22.160133,31.978069 26.997745,27.140456 26.997745,27.140456 C 18.528582,18.264221 13.291696,25.230495 11.500037,31.436501 z"
             style="fill:#404040;"/>
          </a>
         </g>
        </svg>
</svg>
