<?xml version="1.0" encoding="UTF-8" standalone="no"?>
<!DOCTYPE svg PUBLIC "-//W3C//DTD SVG 1.1//EN"
 "http://www.w3.org/Graphics/SVG/1.1/DTD/svg11.dtd">
<!-- Generated by graphviz version 2.40.1 (20161225.0304)
 -->
<!-- Title: o2::trd::PadParameters&lt; T &gt; Pages: 1 -->
<svg width="171pt" height="347pt"
 viewBox="0.00 0.00 170.50 347.00" xmlns="http://www.w3.org/2000/svg" xmlns:xlink="http://www.w3.org/1999/xlink">
<g id="graph0" class="graph" transform="scale(1 1) rotate(0) translate(4 343)">
<title>o2::trd::PadParameters&lt; T &gt;</title>
<!-- Node1 -->
<g id="node1" class="node">
<title>Node1</title>
<polygon fill="#bfbfbf" stroke="#000000" points="0,-.5 0,-189.5 155,-189.5 155,-.5 0,-.5"/>
<text text-anchor="middle" x="77.5" y="-177.5" font-family="Helvetica,sans-Serif" font-size="10.00" fill="#000000">o2::trd::PadParameters&lt; T &gt;</text>
<polyline fill="none" stroke="#000000" points="0,-170.5 155,-170.5 "/>
<text text-anchor="middle" x="77.5" y="-158.5" font-family="Helvetica,sans-Serif" font-size="10.00" fill="#000000"> </text>
<polyline fill="none" stroke="#000000" points="0,-151.5 155,-151.5 "/>
<text text-anchor="start" x="8" y="-139.5" font-family="Helvetica,sans-Serif" font-size="10.00" fill="#000000">+ PadParameters()</text>
<text text-anchor="start" x="8" y="-128.5" font-family="Helvetica,sans-Serif" font-size="10.00" fill="#000000">+ PadParameters()</text>
<text text-anchor="start" x="8" y="-117.5" font-family="Helvetica,sans-Serif" font-size="10.00" fill="#000000">+ ~PadParameters()</text>
<text text-anchor="start" x="8" y="-106.5" font-family="Helvetica,sans-Serif" font-size="10.00" fill="#000000">+ init()</text>
<text text-anchor="start" x="8" y="-95.5" font-family="Helvetica,sans-Serif" font-size="10.00" fill="#000000">+ getNrows()</text>
<text text-anchor="start" x="8" y="-84.5" font-family="Helvetica,sans-Serif" font-size="10.00" fill="#000000">+ getNcols()</text>
<text text-anchor="start" x="8" y="-73.5" font-family="Helvetica,sans-Serif" font-size="10.00" fill="#000000">+ getChannel()</text>
<text text-anchor="start" x="8" y="-62.5" font-family="Helvetica,sans-Serif" font-size="10.00" fill="#000000">+ getNchannels()</text>
<text text-anchor="start" x="8" y="-51.5" font-family="Helvetica,sans-Serif" font-size="10.00" fill="#000000">+ getValue()</text>
<text text-anchor="start" x="8" y="-40.5" font-family="Helvetica,sans-Serif" font-size="10.00" fill="#000000">+ getValue()</text>
<text text-anchor="start" x="8" y="-29.5" font-family="Helvetica,sans-Serif" font-size="10.00" fill="#000000">+ setValue()</text>
<text text-anchor="start" x="8" y="-18.5" font-family="Helvetica,sans-Serif" font-size="10.00" fill="#000000">+ setValue()</text>
<text text-anchor="start" x="8" y="-7.5" font-family="Helvetica,sans-Serif" font-size="10.00" fill="#000000">+ reset()</text>
</g>
<!-- Node2 -->
<g id="node2" class="node">
<title>Node2</title>
<polygon fill="none" stroke="#bfbfbf" points="17,-281.5 17,-338.5 46,-338.5 46,-281.5 17,-281.5"/>
<text text-anchor="middle" x="31.5" y="-326.5" font-family="Helvetica,sans-Serif" font-size="10.00" fill="#000000">int</text>
<polyline fill="none" stroke="#bfbfbf" points="17,-319.5 46,-319.5 "/>
<text text-anchor="middle" x="31.5" y="-307.5" font-family="Helvetica,sans-Serif" font-size="10.00" fill="#000000"> </text>
<polyline fill="none" stroke="#bfbfbf" points="17,-300.5 46,-300.5 "/>
<text text-anchor="middle" x="31.5" y="-288.5" font-family="Helvetica,sans-Serif" font-size="10.00" fill="#000000"> </text>
</g>
<!-- Node2&#45;&gt;Node1 -->
<g id="edge1" class="edge">
<title>Node2&#45;&gt;Node1</title>
<path fill="none" stroke="#404040" d="M28.9799,-281.1348C27.8607,-260.5507 27.7108,-232.3259 32.5,-208 32.9251,-205.8407 33.3902,-203.67 33.8913,-201.4923"/>
<polygon fill="none" stroke="#404040" points="33.9076,-201.4286 31.5254,-194.6223 36.8919,-189.8055 39.2741,-196.6118 33.9076,-201.4286"/>
<text text-anchor="middle" x="67.5" y="-255" font-family="Helvetica,sans-Serif" font-size="10.00" fill="#000000"> #mNrows</text>
<text text-anchor="middle" x="67.5" y="-244" font-family="Helvetica,sans-Serif" font-size="10.00" fill="#000000">#mPlane</text>
<text text-anchor="middle" x="67.5" y="-233" font-family="Helvetica,sans-Serif" font-size="10.00" fill="#000000">#mNchannels</text>
<text text-anchor="middle" x="67.5" y="-222" font-family="Helvetica,sans-Serif" font-size="10.00" fill="#000000">#mNcols</text>
<text text-anchor="middle" x="67.5" y="-211" font-family="Helvetica,sans-Serif" font-size="10.00" fill="#000000">#mChamber</text>
</g>
<!-- Node3 -->
<g id="node3" class="node">
<title>Node3</title>
<polygon fill="none" stroke="#bfbfbf" points="86.5,-281.5 86.5,-338.5 162.5,-338.5 162.5,-281.5 86.5,-281.5"/>
<text text-anchor="middle" x="124.5" y="-326.5" font-family="Helvetica,sans-Serif" font-size="10.00" fill="#000000">vector&lt; T &gt;</text>
<polyline fill="none" stroke="#bfbfbf" points="86.5,-319.5 162.5,-319.5 "/>
<text text-anchor="middle" x="124.5" y="-307.5" font-family="Helvetica,sans-Serif" font-size="10.00" fill="#000000"> </text>
<polyline fill="none" stroke="#bfbfbf" points="86.5,-300.5 162.5,-300.5 "/>
<text text-anchor="middle" x="124.5" y="-288.5" font-family="Helvetica,sans-Serif" font-size="10.00" fill="#000000"> </text>
</g>
<!-- Node3&#45;&gt;Node1 -->
<g id="edge2" class="edge">
<title>Node3&#45;&gt;Node1</title>
<path fill="none" stroke="#404040" d="M118.3765,-281.4129C113.985,-260.9599 107.9129,-232.7774 102.5,-208 102.03,-205.8484 101.5543,-203.6739 101.0745,-201.4824"/>
<polygon fill="none" stroke="#404040" points="101.0467,-201.3554 95.854,-196.3518 98.4755,-189.6341 103.6682,-194.6377 101.0467,-201.3554"/>
<text text-anchor="middle" x="136" y="-233" font-family="Helvetica,sans-Serif" font-size="10.00" fill="#000000"> #mData</text>
</g>
</g>
</svg>
