<?xml version="1.0" encoding="UTF-8" standalone="no"?>
<!DOCTYPE svg PUBLIC "-//W3C//DTD SVG 1.1//EN"
 "http://www.w3.org/Graphics/SVG/1.1/DTD/svg11.dtd">
<!-- Generated by graphviz version 2.40.1 (20161225.0304)
 -->
<!-- Title: /home/travis/build/AliceO2Group/AliceO2/run/o2sim_parallel.cxx Pages: 1 -->
<svg width="2501pt" height="408pt"
 viewBox="0.00 0.00 2500.50 408.00" xmlns="http://www.w3.org/2000/svg" xmlns:xlink="http://www.w3.org/1999/xlink">
<g id="graph0" class="graph" transform="scale(1 1) rotate(0) translate(4 404)">
<title>/home/travis/build/AliceO2Group/AliceO2/run/o2sim_parallel.cxx</title>
<!-- Node0 -->
<g id="node1" class="node">
<title>Node0</title>
<polygon fill="#bfbfbf" stroke="#000000" points="843,-358.5 843,-399.5 974,-399.5 974,-358.5 843,-358.5"/>
<text text-anchor="start" x="851" y="-387.5" font-family="Helvetica,sans-Serif" font-size="10.00" fill="#000000">/home/travis/build</text>
<text text-anchor="start" x="851" y="-376.5" font-family="Helvetica,sans-Serif" font-size="10.00" fill="#000000">/AliceO2Group/AliceO2</text>
<text text-anchor="middle" x="908.5" y="-365.5" font-family="Helvetica,sans-Serif" font-size="10.00" fill="#000000">/run/o2sim_parallel.cxx</text>
</g>
<!-- Node1 -->
<g id="node2" class="node">
<title>Node1</title>
<polygon fill="none" stroke="#bfbfbf" points="0,-297 0,-316 49,-316 49,-297 0,-297"/>
<text text-anchor="middle" x="24.5" y="-304" font-family="Helvetica,sans-Serif" font-size="10.00" fill="#000000">cstdlib</text>
</g>
<!-- Node0&#45;&gt;Node1 -->
<g id="edge1" class="edge">
<title>Node0&#45;&gt;Node1</title>
<path fill="none" stroke="#191970" d="M842.9986,-377.6465C670.5063,-373.598 206.8289,-359.4557 58.5,-322 56.3025,-321.4451 54.0716,-320.753 51.8572,-319.9714"/>
<polygon fill="#191970" stroke="#191970" points="52.9922,-316.6545 42.4108,-316.1205 50.3497,-323.1366 52.9922,-316.6545"/>
</g>
<!-- Node2 -->
<g id="node3" class="node">
<title>Node2</title>
<polygon fill="none" stroke="#bfbfbf" points="67.5,-297 67.5,-316 123.5,-316 123.5,-297 67.5,-297"/>
<text text-anchor="middle" x="95.5" y="-304" font-family="Helvetica,sans-Serif" font-size="10.00" fill="#000000">unistd.h</text>
</g>
<!-- Node0&#45;&gt;Node2 -->
<g id="edge2" class="edge">
<title>Node0&#45;&gt;Node2</title>
<path fill="none" stroke="#191970" d="M842.8459,-376.5053C681.9477,-370.0122 271.3726,-351.0478 137.5,-322 134.2339,-321.2913 130.88,-320.3834 127.56,-319.3632"/>
<polygon fill="#191970" stroke="#191970" points="128.4177,-315.958 117.8233,-316.0525 126.1642,-322.5854 128.4177,-315.958"/>
</g>
<!-- Node3 -->
<g id="node4" class="node">
<title>Node3</title>
<polygon fill="none" stroke="#bfbfbf" points="409.5,-168.5 409.5,-187.5 465.5,-187.5 465.5,-168.5 409.5,-168.5"/>
<text text-anchor="middle" x="437.5" y="-175.5" font-family="Helvetica,sans-Serif" font-size="10.00" fill="#000000">sstream</text>
</g>
<!-- Node0&#45;&gt;Node3 -->
<g id="edge3" class="edge">
<title>Node0&#45;&gt;Node3</title>
<path fill="none" stroke="#191970" d="M842.7875,-376.3257C666.207,-368.8233 193.1978,-346.5184 170.5,-322 97.7117,-243.3731 309.2401,-198.7724 399.1587,-183.7737"/>
<polygon fill="#191970" stroke="#191970" points="399.9351,-187.1935 409.2422,-182.1311 398.8095,-180.2845 399.9351,-187.1935"/>
</g>
<!-- Node4 -->
<g id="node5" class="node">
<title>Node4</title>
<polygon fill="none" stroke="#bfbfbf" points="179.5,-297 179.5,-316 239.5,-316 239.5,-297 179.5,-297"/>
<text text-anchor="middle" x="209.5" y="-304" font-family="Helvetica,sans-Serif" font-size="10.00" fill="#000000">iostream</text>
</g>
<!-- Node0&#45;&gt;Node4 -->
<g id="edge4" class="edge">
<title>Node0&#45;&gt;Node4</title>
<path fill="none" stroke="#191970" d="M842.8297,-375.7684C699.0245,-368.2953 360.2128,-348.4188 248.5,-322 245.6417,-321.324 242.7165,-320.4766 239.8163,-319.5285"/>
<polygon fill="#191970" stroke="#191970" points="240.7803,-316.1547 230.1863,-316.0198 238.3839,-322.7317 240.7803,-316.1547"/>
</g>
<!-- Node5 -->
<g id="node6" class="node">
<title>Node5</title>
<polygon fill="none" stroke="#bfbfbf" points="257.5,-297 257.5,-316 303.5,-316 303.5,-297 257.5,-297"/>
<text text-anchor="middle" x="280.5" y="-304" font-family="Helvetica,sans-Serif" font-size="10.00" fill="#000000">cstdio</text>
</g>
<!-- Node0&#45;&gt;Node5 -->
<g id="edge5" class="edge">
<title>Node0&#45;&gt;Node5</title>
<path fill="none" stroke="#191970" d="M842.815,-375.6596C709.3606,-368.3921 410.8375,-349.5557 312.5,-322 310.5831,-321.4628 308.6412,-320.815 306.7113,-320.093"/>
<polygon fill="#191970" stroke="#191970" points="307.8973,-316.7926 297.3297,-316.0326 305.1168,-323.2167 307.8973,-316.7926"/>
</g>
<!-- Node6 -->
<g id="node7" class="node">
<title>Node6</title>
<polygon fill="none" stroke="#bfbfbf" points="322,-297 322,-316 369,-316 369,-297 322,-297"/>
<text text-anchor="middle" x="345.5" y="-304" font-family="Helvetica,sans-Serif" font-size="10.00" fill="#000000">fcntl.h</text>
</g>
<!-- Node0&#45;&gt;Node6 -->
<g id="edge6" class="edge">
<title>Node0&#45;&gt;Node6</title>
<path fill="none" stroke="#191970" d="M842.681,-374.6536C720.7309,-366.1493 464.2724,-346.0269 378.5,-322 376.5801,-321.4622 374.633,-320.822 372.6945,-320.1129"/>
<polygon fill="#191970" stroke="#191970" points="373.8146,-316.7873 363.2392,-316.1464 371.1067,-323.2424 373.8146,-316.7873"/>
</g>
<!-- Node7 -->
<g id="node8" class="node">
<title>Node7</title>
<g id="a_node8"><a xlink:href="../../d4/dee/SimConfig_8h.html" target="_top" xlink:title="SimConfig/SimConfig.h">
<polygon fill="none" stroke="#000000" points="387.5,-297 387.5,-316 515.5,-316 515.5,-297 387.5,-297"/>
<text text-anchor="middle" x="451.5" y="-304" font-family="Helvetica,sans-Serif" font-size="10.00" fill="#000000">SimConfig/SimConfig.h</text>
</a>
</g>
</g>
<!-- Node0&#45;&gt;Node7 -->
<g id="edge7" class="edge">
<title>Node0&#45;&gt;Node7</title>
<path fill="none" stroke="#191970" d="M842.7299,-370.4974C766.0962,-360.2989 635.7665,-342.0508 524.5,-322 517.9035,-320.8113 510.9918,-319.47 504.1618,-318.0864"/>
<polygon fill="#191970" stroke="#191970" points="504.7609,-314.6363 494.2597,-316.0417 503.3453,-321.4917 504.7609,-314.6363"/>
</g>
<!-- Node10 -->
<g id="node11" class="node">
<title>Node10</title>
<polygon fill="none" stroke="#bfbfbf" points="533.5,-297 533.5,-316 599.5,-316 599.5,-297 533.5,-297"/>
<text text-anchor="middle" x="566.5" y="-304" font-family="Helvetica,sans-Serif" font-size="10.00" fill="#000000">sys/wait.h</text>
</g>
<!-- Node0&#45;&gt;Node10 -->
<g id="edge10" class="edge">
<title>Node0&#45;&gt;Node10</title>
<path fill="none" stroke="#191970" d="M842.8242,-369.7338C781.5592,-360.3362 687.9375,-344.0407 608.5,-322 605.6915,-321.2207 602.8045,-320.3372 599.9224,-319.3966"/>
<polygon fill="#191970" stroke="#191970" points="600.8578,-316.0166 590.263,-316.0478 598.5648,-322.6304 600.8578,-316.0166"/>
</g>
<!-- Node11 -->
<g id="node12" class="node">
<title>Node11</title>
<polygon fill="none" stroke="#bfbfbf" points="618,-297 618,-316 665,-316 665,-297 618,-297"/>
<text text-anchor="middle" x="641.5" y="-304" font-family="Helvetica,sans-Serif" font-size="10.00" fill="#000000">vector</text>
</g>
<!-- Node0&#45;&gt;Node11 -->
<g id="edge11" class="edge">
<title>Node0&#45;&gt;Node11</title>
<path fill="none" stroke="#191970" d="M842.923,-366.6967C795.4397,-356.9071 730.1004,-341.6069 674.5,-322 672.8584,-321.4211 671.1887,-320.7877 669.5159,-320.1183"/>
<polygon fill="#191970" stroke="#191970" points="670.6412,-316.7912 660.0747,-316.0171 667.8522,-323.2116 670.6412,-316.7912"/>
</g>
<!-- Node12 -->
<g id="node13" class="node">
<title>Node12</title>
<polygon fill="none" stroke="#bfbfbf" points="683.5,-297 683.5,-316 731.5,-316 731.5,-297 683.5,-297"/>
<text text-anchor="middle" x="707.5" y="-304" font-family="Helvetica,sans-Serif" font-size="10.00" fill="#000000">thread</text>
</g>
<!-- Node0&#45;&gt;Node12 -->
<g id="edge12" class="edge">
<title>Node0&#45;&gt;Node12</title>
<path fill="none" stroke="#191970" d="M842.8571,-358.6178C811.5627,-348.4222 773.7805,-335.4127 740.5,-322 739.1057,-321.4381 737.686,-320.847 736.2578,-320.237"/>
<polygon fill="#191970" stroke="#191970" points="737.4417,-316.9325 726.884,-316.0458 734.5844,-323.3228 737.4417,-316.9325"/>
</g>
<!-- Node13 -->
<g id="node14" class="node">
<title>Node13</title>
<polygon fill="none" stroke="#bfbfbf" points="750,-297 750,-316 801,-316 801,-297 750,-297"/>
<text text-anchor="middle" x="775.5" y="-304" font-family="Helvetica,sans-Serif" font-size="10.00" fill="#000000">csignal</text>
</g>
<!-- Node0&#45;&gt;Node13 -->
<g id="edge13" class="edge">
<title>Node0&#45;&gt;Node13</title>
<path fill="none" stroke="#191970" d="M870.7433,-358.4183C848.8318,-346.4741 821.765,-331.7196 802.0925,-320.9959"/>
<polygon fill="#191970" stroke="#191970" points="803.5396,-317.7985 793.0842,-316.0853 800.1892,-323.9447 803.5396,-317.7985"/>
</g>
<!-- Node14 -->
<g id="node15" class="node">
<title>Node14</title>
<polygon fill="none" stroke="#bfbfbf" points="819,-297 819,-316 902,-316 902,-297 819,-297"/>
<text text-anchor="middle" x="860.5" y="-304" font-family="Helvetica,sans-Serif" font-size="10.00" fill="#000000">TStopwatch.h</text>
</g>
<!-- Node0&#45;&gt;Node14 -->
<g id="edge14" class="edge">
<title>Node0&#45;&gt;Node14</title>
<path fill="none" stroke="#191970" d="M894.8735,-358.4183C887.8283,-347.7771 879.3063,-334.9053 872.5103,-324.6405"/>
<polygon fill="#191970" stroke="#191970" points="875.285,-322.4914 866.8462,-316.0853 869.4483,-326.3557 875.285,-322.4914"/>
</g>
<!-- Node15 -->
<g id="node16" class="node">
<title>Node15</title>
<polygon fill="none" stroke="#bfbfbf" points="920,-297 920,-316 995,-316 995,-297 920,-297"/>
<text text-anchor="middle" x="957.5" y="-304" font-family="Helvetica,sans-Serif" font-size="10.00" fill="#000000">FairLogger.h</text>
</g>
<!-- Node0&#45;&gt;Node15 -->
<g id="edge15" class="edge">
<title>Node0&#45;&gt;Node15</title>
<path fill="none" stroke="#191970" d="M922.4104,-358.4183C929.6024,-347.7771 938.3019,-334.9053 945.2395,-324.6405"/>
<polygon fill="#191970" stroke="#191970" points="948.3218,-326.3304 951.0216,-316.0853 942.5221,-322.4107 948.3218,-326.3304"/>
</g>
<!-- Node16 -->
<g id="node17" class="node">
<title>Node16</title>
<g id="a_node17"><a xlink:href="../../de/d61/ShmManager_8h.html" target="_top" xlink:title="CommonUtils/ShmManager.h">
<polygon fill="none" stroke="#000000" points="1012.5,-297 1012.5,-316 1170.5,-316 1170.5,-297 1012.5,-297"/>
<text text-anchor="middle" x="1091.5" y="-304" font-family="Helvetica,sans-Serif" font-size="10.00" fill="#000000">CommonUtils/ShmManager.h</text>
</a>
</g>
</g>
<!-- Node0&#45;&gt;Node16 -->
<g id="edge16" class="edge">
<title>Node0&#45;&gt;Node16</title>
<path fill="none" stroke="#191970" d="M960.451,-358.4183C991.6961,-346.0398 1030.5601,-330.6429 1057.822,-319.8424"/>
<polygon fill="#191970" stroke="#191970" points="1059.2974,-323.0226 1067.3053,-316.0853 1056.7191,-316.5147 1059.2974,-323.0226"/>
</g>
<!-- Node21 -->
<g id="node22" class="node">
<title>Node21</title>
<polygon fill="none" stroke="#bfbfbf" points="1188.5,-297 1188.5,-316 1236.5,-316 1236.5,-297 1188.5,-297"/>
<text text-anchor="middle" x="1212.5" y="-304" font-family="Helvetica,sans-Serif" font-size="10.00" fill="#000000">TFile.h</text>
</g>
<!-- Node0&#45;&gt;Node21 -->
<g id="edge21" class="edge">
<title>Node0&#45;&gt;Node21</title>
<path fill="none" stroke="#191970" d="M974.2381,-369.5565C1029.83,-360.5379 1111.1171,-344.9053 1179.5,-322 1181.1505,-321.4471 1182.8273,-320.8342 1184.5055,-320.1805"/>
<polygon fill="#191970" stroke="#191970" points="1186.1515,-323.2829 1193.9622,-316.1245 1183.3922,-316.8496 1186.1515,-323.2829"/>
</g>
<!-- Node22 -->
<g id="node23" class="node">
<title>Node22</title>
<polygon fill="none" stroke="#bfbfbf" points="1254.5,-297 1254.5,-316 1306.5,-316 1306.5,-297 1254.5,-297"/>
<text text-anchor="middle" x="1280.5" y="-304" font-family="Helvetica,sans-Serif" font-size="10.00" fill="#000000">TTree.h</text>
</g>
<!-- Node0&#45;&gt;Node22 -->
<g id="edge22" class="edge">
<title>Node0&#45;&gt;Node22</title>
<path fill="none" stroke="#191970" d="M974.209,-372.7896C1042.947,-365.1627 1153.4479,-349.6928 1245.5,-322 1247.62,-321.3622 1249.7808,-320.628 1251.9361,-319.8332"/>
<polygon fill="#191970" stroke="#191970" points="1253.2546,-323.0754 1261.2048,-316.0721 1250.6225,-316.5891 1253.2546,-323.0754"/>
</g>
<!-- Node23 -->
<g id="node24" class="node">
<title>Node23</title>
<g id="a_node24"><a xlink:href="../../d6/d2a/FreePortFinder_8h.html" target="_top" xlink:title="Framework/FreePortFinder.h">
<polygon fill="none" stroke="#000000" points="1325,-297 1325,-316 1476,-316 1476,-297 1325,-297"/>
<text text-anchor="middle" x="1400.5" y="-304" font-family="Helvetica,sans-Serif" font-size="10.00" fill="#000000">Framework/FreePortFinder.h</text>
</a>
</g>
</g>
<!-- Node0&#45;&gt;Node23 -->
<g id="edge23" class="edge">
<title>Node0&#45;&gt;Node23</title>
<path fill="none" stroke="#191970" d="M974.1816,-370.6486C1054.7402,-360.2104 1195.3985,-341.352 1315.5,-322 1323.5016,-320.7107 1331.9121,-319.2752 1340.2022,-317.8126"/>
<polygon fill="#191970" stroke="#191970" points="1340.9907,-321.2272 1350.2193,-316.0231 1339.7596,-314.3363 1340.9907,-321.2272"/>
</g>
<!-- Node24 -->
<g id="node25" class="node">
<title>Node24</title>
<polygon fill="none" stroke="#bfbfbf" points="1494.5,-297 1494.5,-316 1566.5,-316 1566.5,-297 1494.5,-297"/>
<text text-anchor="middle" x="1530.5" y="-304" font-family="Helvetica,sans-Serif" font-size="10.00" fill="#000000">sys/types.h</text>
</g>
<!-- Node0&#45;&gt;Node24 -->
<g id="edge24" class="edge">
<title>Node0&#45;&gt;Node24</title>
<path fill="none" stroke="#191970" d="M974.172,-377.48C1082.0655,-373.8794 1303.0762,-361.8544 1485.5,-322 1489.1024,-321.213 1492.8162,-320.2294 1496.4932,-319.1416"/>
<polygon fill="#191970" stroke="#191970" points="1497.5838,-322.4675 1506.0385,-316.0825 1495.4474,-315.8015 1497.5838,-322.4675"/>
</g>
<!-- Node25 -->
<g id="node26" class="node">
<title>Node25</title>
<g id="a_node26"><a xlink:href="../../d7/d61/NameConf_8h.html" target="_top" xlink:title="Definition of the Names Generator class. ">
<polygon fill="none" stroke="#000000" points="1585,-291.5 1585,-321.5 1756,-321.5 1756,-291.5 1585,-291.5"/>
<text text-anchor="start" x="1593" y="-309.5" font-family="Helvetica,sans-Serif" font-size="10.00" fill="#000000">DetectorsCommonDataFormats</text>
<text text-anchor="middle" x="1670.5" y="-298.5" font-family="Helvetica,sans-Serif" font-size="10.00" fill="#000000">/NameConf.h</text>
</a>
</g>
</g>
<!-- Node0&#45;&gt;Node25 -->
<g id="edge25" class="edge">
<title>Node0&#45;&gt;Node25</title>
<path fill="none" stroke="#191970" d="M974.4715,-375.0412C1092.6508,-367.5819 1348.4384,-349.7678 1574.7647,-322.0293"/>
<polygon fill="#191970" stroke="#191970" points="1575.3427,-325.4846 1584.8385,-320.7856 1574.485,-318.5373 1575.3427,-325.4846"/>
</g>
<!-- Node50 -->
<g id="node51" class="node">
<title>Node50</title>
<polygon fill="none" stroke="#bfbfbf" points="1774.5,-297 1774.5,-316 1896.5,-316 1896.5,-297 1774.5,-297"/>
<text text-anchor="middle" x="1835.5" y="-304" font-family="Helvetica,sans-Serif" font-size="10.00" fill="#000000">rapidjson/document.h</text>
</g>
<!-- Node0&#45;&gt;Node50 -->
<g id="edge60" class="edge">
<title>Node0&#45;&gt;Node50</title>
<path fill="none" stroke="#191970" d="M974.1655,-378.0175C1118.1767,-375.1232 1472.3113,-363.9636 1765.5,-322 1772.7004,-320.9694 1780.2611,-319.6017 1787.6423,-318.1044"/>
<polygon fill="#191970" stroke="#191970" points="1788.4907,-321.5024 1797.5458,-316.0018 1787.0369,-314.655 1788.4907,-321.5024"/>
</g>
<!-- Node51 -->
<g id="node52" class="node">
<title>Node51</title>
<polygon fill="none" stroke="#bfbfbf" points="1915,-297 1915,-316 2016,-316 2016,-297 1915,-297"/>
<text text-anchor="middle" x="1965.5" y="-304" font-family="Helvetica,sans-Serif" font-size="10.00" fill="#000000">rapidjson/writer.h</text>
</g>
<!-- Node0&#45;&gt;Node51 -->
<g id="edge61" class="edge">
<title>Node0&#45;&gt;Node51</title>
<path fill="none" stroke="#191970" d="M974.0184,-376.9298C1165.995,-370.5983 1724.9973,-350.1964 1905.5,-322 1911.3563,-321.0852 1917.4709,-319.8462 1923.4613,-318.465"/>
<polygon fill="#191970" stroke="#191970" points="1924.4792,-321.8192 1933.358,-316.0384 1922.8122,-315.0206 1924.4792,-321.8192"/>
</g>
<!-- Node52 -->
<g id="node53" class="node">
<title>Node52</title>
<polygon fill="none" stroke="#bfbfbf" points="2034,-297 2034,-316 2163,-316 2163,-297 2034,-297"/>
<text text-anchor="middle" x="2098.5" y="-304" font-family="Helvetica,sans-Serif" font-size="10.00" fill="#000000">rapidjson/stringbuffer.h</text>
</g>
<!-- Node0&#45;&gt;Node52 -->
<g id="edge62" class="edge">
<title>Node0&#45;&gt;Node52</title>
<path fill="none" stroke="#191970" d="M974.0052,-377.0208C1181.0992,-370.5489 1820.0894,-348.8764 2025.5,-322 2033.2682,-320.9836 2041.4395,-319.5825 2049.3901,-318.0353"/>
<polygon fill="#191970" stroke="#191970" points="2050.1969,-321.4429 2059.2959,-316.0152 2048.7981,-314.584 2050.1969,-321.4429"/>
</g>
<!-- Node53 -->
<g id="node54" class="node">
<title>Node53</title>
<polygon fill="none" stroke="#bfbfbf" points="2181,-297 2181,-316 2326,-316 2326,-297 2181,-297"/>
<text text-anchor="middle" x="2253.5" y="-304" font-family="Helvetica,sans-Serif" font-size="10.00" fill="#000000">rapidjson/filereadstream.h</text>
</g>
<!-- Node0&#45;&gt;Node53 -->
<g id="edge63" class="edge">
<title>Node0&#45;&gt;Node53</title>
<path fill="none" stroke="#191970" d="M974.1775,-377.2896C1199.0103,-371.2385 1936.883,-349.71 2172.5,-322 2181.3851,-320.9551 2190.7584,-319.4968 2199.8522,-317.8893"/>
<polygon fill="#191970" stroke="#191970" points="2200.7606,-321.2808 2209.9599,-316.0249 2199.4909,-314.3969 2200.7606,-321.2808"/>
</g>
<!-- Node54 -->
<g id="node55" class="node">
<title>Node54</title>
<polygon fill="none" stroke="#bfbfbf" points="2344.5,-297 2344.5,-316 2492.5,-316 2492.5,-297 2344.5,-297"/>
<text text-anchor="middle" x="2418.5" y="-304" font-family="Helvetica,sans-Serif" font-size="10.00" fill="#000000">rapidjson/filewritestream.h</text>
</g>
<!-- Node0&#45;&gt;Node54 -->
<g id="edge64" class="edge">
<title>Node0&#45;&gt;Node54</title>
<path fill="none" stroke="#191970" d="M974.0623,-377.6426C1217.088,-372.4148 2066.3303,-352.3477 2335.5,-322 2344.6997,-320.9628 2354.4118,-319.494 2363.8236,-317.8696"/>
<polygon fill="#191970" stroke="#191970" points="2364.6584,-321.2757 2373.88,-316.0591 2363.418,-314.3864 2364.6584,-321.2757"/>
</g>
<!-- Node8 -->
<g id="node9" class="node">
<title>Node8</title>
<polygon fill="none" stroke="#bfbfbf" points="797,-168.5 797,-187.5 856,-187.5 856,-168.5 797,-168.5"/>
<text text-anchor="middle" x="826.5" y="-175.5" font-family="Helvetica,sans-Serif" font-size="10.00" fill="#000000">Rtypes.h</text>
</g>
<!-- Node7&#45;&gt;Node8 -->
<g id="edge8" class="edge">
<title>Node7&#45;&gt;Node8</title>
<path fill="none" stroke="#191970" d="M479.3796,-296.9466C545.9016,-274.1517 713.9629,-216.5627 789.1445,-190.8005"/>
<polygon fill="#191970" stroke="#191970" points="790.3663,-194.0817 798.6917,-187.529 788.0971,-187.4597 790.3663,-194.0817"/>
</g>
<!-- Node9 -->
<g id="node10" class="node">
<title>Node9</title>
<polygon fill="none" stroke="#bfbfbf" points="376.5,-230 376.5,-249 526.5,-249 526.5,-230 376.5,-230"/>
<text text-anchor="middle" x="451.5" y="-237" font-family="Helvetica,sans-Serif" font-size="10.00" fill="#000000">boost/program_options.hpp</text>
</g>
<!-- Node7&#45;&gt;Node9 -->
<g id="edge9" class="edge">
<title>Node7&#45;&gt;Node9</title>
<path fill="none" stroke="#191970" d="M451.5,-296.9005C451.5,-287.149 451.5,-271.7597 451.5,-259.3695"/>
<polygon fill="#191970" stroke="#191970" points="455.0001,-259.0816 451.5,-249.0817 448.0001,-259.0817 455.0001,-259.0816"/>
</g>
<!-- Node17 -->
<g id="node18" class="node">
<title>Node17</title>
<polygon fill="none" stroke="#bfbfbf" points="887.5,-230 887.5,-249 919.5,-249 919.5,-230 887.5,-230"/>
<text text-anchor="middle" x="903.5" y="-237" font-family="Helvetica,sans-Serif" font-size="10.00" fill="#000000">list</text>
</g>
<!-- Node16&#45;&gt;Node17 -->
<g id="edge17" class="edge">
<title>Node16&#45;&gt;Node17</title>
<path fill="none" stroke="#191970" d="M1052.9393,-296.9301C1019.5256,-288.0103 970.2756,-273.3411 929.5,-255 928.7991,-254.6847 928.0934,-254.3549 927.3858,-254.0132"/>
<polygon fill="#191970" stroke="#191970" points="928.7714,-250.7841 918.3079,-249.1213 925.4507,-256.9463 928.7714,-250.7841"/>
</g>
<!-- Node18 -->
<g id="node19" class="node">
<title>Node18</title>
<polygon fill="none" stroke="#bfbfbf" points="938,-230 938,-249 991,-249 991,-230 938,-230"/>
<text text-anchor="middle" x="964.5" y="-237" font-family="Helvetica,sans-Serif" font-size="10.00" fill="#000000">cstddef</text>
</g>
<!-- Node16&#45;&gt;Node18 -->
<g id="edge18" class="edge">
<title>Node16&#45;&gt;Node18</title>
<path fill="none" stroke="#191970" d="M1073.304,-296.9005C1051.8962,-285.6067 1016.1542,-266.7506 991.5107,-253.7497"/>
<polygon fill="#191970" stroke="#191970" points="993.1401,-250.6522 982.6622,-249.0817 989.8738,-256.8434 993.1401,-250.6522"/>
</g>
<!-- Node19 -->
<g id="node20" class="node">
<title>Node19</title>
<polygon fill="none" stroke="#bfbfbf" points="1009,-224.5 1009,-254.5 1174,-254.5 1174,-224.5 1009,-224.5"/>
<text text-anchor="start" x="1017" y="-242.5" font-family="Helvetica,sans-Serif" font-size="10.00" fill="#000000">boost/interprocess</text>
<text text-anchor="middle" x="1091.5" y="-231.5" font-family="Helvetica,sans-Serif" font-size="10.00" fill="#000000">/managed_external_buffer.hpp</text>
</g>
<!-- Node16&#45;&gt;Node19 -->
<g id="edge19" class="edge">
<title>Node16&#45;&gt;Node19</title>
<path fill="none" stroke="#191970" d="M1091.5,-296.9005C1091.5,-288.5099 1091.5,-275.9451 1091.5,-264.7085"/>
<polygon fill="#191970" stroke="#191970" points="1095.0001,-264.5217 1091.5,-254.5218 1088.0001,-264.5218 1095.0001,-264.5217"/>
</g>
<!-- Node20 -->
<g id="node21" class="node">
<title>Node20</title>
<polygon fill="none" stroke="#bfbfbf" points="1192.5,-224.5 1192.5,-254.5 1326.5,-254.5 1326.5,-224.5 1192.5,-224.5"/>
<text text-anchor="start" x="1200.5" y="-242.5" font-family="Helvetica,sans-Serif" font-size="10.00" fill="#000000">boost/interprocess</text>
<text text-anchor="middle" x="1259.5" y="-231.5" font-family="Helvetica,sans-Serif" font-size="10.00" fill="#000000">/allocators/allocator.hpp</text>
</g>
<!-- Node16&#45;&gt;Node20 -->
<g id="edge20" class="edge">
<title>Node16&#45;&gt;Node20</title>
<path fill="none" stroke="#191970" d="M1115.5703,-296.9005C1140.7307,-286.8663 1180.8591,-270.8627 1212.3603,-258.2997"/>
<polygon fill="#191970" stroke="#191970" points="1213.8415,-261.4772 1221.8335,-254.5218 1211.2484,-254.9752 1213.8415,-261.4772"/>
</g>
<!-- Node26 -->
<g id="node27" class="node">
<title>Node26</title>
<g id="a_node27"><a xlink:href="../../d6/d31/DetID_8h.html" target="_top" xlink:title="DetectorsCommonDataFormats\l/DetID.h">
<polygon fill="none" stroke="#000000" points="1509,-224.5 1509,-254.5 1680,-254.5 1680,-224.5 1509,-224.5"/>
<text text-anchor="start" x="1517" y="-242.5" font-family="Helvetica,sans-Serif" font-size="10.00" fill="#000000">DetectorsCommonDataFormats</text>
<text text-anchor="middle" x="1594.5" y="-231.5" font-family="Helvetica,sans-Serif" font-size="10.00" fill="#000000">/DetID.h</text>
</a>
</g>
</g>
<!-- Node25&#45;&gt;Node26 -->
<g id="edge26" class="edge">
<title>Node25&#45;&gt;Node26</title>
<path fill="none" stroke="#191970" d="M1653.2544,-291.2967C1643.2458,-282.4733 1630.4664,-271.2072 1619.3836,-261.4368"/>
<polygon fill="#191970" stroke="#191970" points="1621.4932,-258.6307 1611.6773,-254.6432 1616.8641,-263.8816 1621.4932,-258.6307"/>
</g>
<!-- Node31 -->
<g id="node32" class="node">
<title>Node31</title>
<polygon fill="none" stroke="#bfbfbf" points="1814,-168.5 1814,-187.5 1887,-187.5 1887,-168.5 1814,-168.5"/>
<text text-anchor="middle" x="1850.5" y="-175.5" font-family="Helvetica,sans-Serif" font-size="10.00" fill="#000000">string_view</text>
</g>
<!-- Node25&#45;&gt;Node31 -->
<g id="edge59" class="edge">
<title>Node25&#45;&gt;Node31</title>
<path fill="none" stroke="#191970" d="M1691.8552,-291.2548C1726.2206,-266.7217 1793.461,-218.7195 1828.335,-193.8233"/>
<polygon fill="#191970" stroke="#191970" points="1830.757,-196.3947 1836.8623,-187.7358 1826.6898,-190.6975 1830.757,-196.3947"/>
</g>
<!-- Node49 -->
<g id="node50" class="node">
<title>Node49</title>
<g id="a_node50"><a xlink:href="../../d4/d8f/StringUtils_8h.html" target="_top" xlink:title="CommonUtils/StringUtils.h">
<polygon fill="none" stroke="#000000" points="1344.5,-230 1344.5,-249 1490.5,-249 1490.5,-230 1344.5,-230"/>
<text text-anchor="middle" x="1417.5" y="-237" font-family="Helvetica,sans-Serif" font-size="10.00" fill="#000000">CommonUtils/StringUtils.h</text>
</a>
</g>
</g>
<!-- Node25&#45;&gt;Node49 -->
<g id="edge57" class="edge">
<title>Node25&#45;&gt;Node49</title>
<path fill="none" stroke="#191970" d="M1613.7219,-291.4639C1568.2686,-279.4269 1505.3503,-262.7647 1463.1289,-251.5835"/>
<polygon fill="#191970" stroke="#191970" points="1463.9559,-248.182 1453.3931,-249.0053 1462.1639,-254.9487 1463.9559,-248.182"/>
</g>
<!-- Node26&#45;&gt;Node8 -->
<g id="edge27" class="edge">
<title>Node26&#45;&gt;Node8</title>
<path fill="none" stroke="#191970" d="M1508.8466,-225.147C1505.6945,-224.7391 1502.5711,-224.3547 1499.5,-224 1375.5747,-209.6869 991.8282,-187.3393 866.5253,-180.2422"/>
<polygon fill="#191970" stroke="#191970" points="866.4222,-176.7308 856.2406,-179.661 866.0272,-183.7197 866.4222,-176.7308"/>
</g>
<!-- Node27 -->
<g id="node28" class="node">
<title>Node27</title>
<polygon fill="none" stroke="#bfbfbf" points="1676.5,-112.5 1676.5,-131.5 1718.5,-131.5 1718.5,-112.5 1676.5,-112.5"/>
<text text-anchor="middle" x="1697.5" y="-119.5" font-family="Helvetica,sans-Serif" font-size="10.00" fill="#000000">array</text>
</g>
<!-- Node26&#45;&gt;Node27 -->
<g id="edge28" class="edge">
<title>Node26&#45;&gt;Node27</title>
<path fill="none" stroke="#191970" d="M1612.8104,-224.3803C1624.2155,-214.558 1638.8766,-201.172 1650.5,-188 1663.8095,-172.9172 1676.9151,-154.091 1685.8916,-140.4096"/>
<polygon fill="#191970" stroke="#191970" points="1688.9208,-142.1703 1691.3982,-131.8691 1683.0377,-138.377 1688.9208,-142.1703"/>
</g>
<!-- Node28 -->
<g id="node29" class="node">
<title>Node28</title>
<polygon fill="none" stroke="#bfbfbf" points="1597.5,-168.5 1597.5,-187.5 1641.5,-187.5 1641.5,-168.5 1597.5,-168.5"/>
<text text-anchor="middle" x="1619.5" y="-175.5" font-family="Helvetica,sans-Serif" font-size="10.00" fill="#000000">bitset</text>
</g>
<!-- Node26&#45;&gt;Node28 -->
<g id="edge29" class="edge">
<title>Node26&#45;&gt;Node28</title>
<path fill="none" stroke="#191970" d="M1600.6798,-224.2977C1604.0054,-216.1166 1608.1411,-205.943 1611.6879,-197.2179"/>
<polygon fill="#191970" stroke="#191970" points="1614.9737,-198.4288 1615.4972,-187.8469 1608.489,-195.7927 1614.9737,-198.4288"/>
</g>
<!-- Node29 -->
<g id="node30" class="node">
<title>Node29</title>
<polygon fill="none" stroke="#bfbfbf" points="1606.5,-112.5 1606.5,-131.5 1658.5,-131.5 1658.5,-112.5 1606.5,-112.5"/>
<text text-anchor="middle" x="1632.5" y="-119.5" font-family="Helvetica,sans-Serif" font-size="10.00" fill="#000000">cassert</text>
</g>
<!-- Node26&#45;&gt;Node29 -->
<g id="edge30" class="edge">
<title>Node26&#45;&gt;Node29</title>
<path fill="none" stroke="#191970" d="M1589.3917,-224.4006C1585.2251,-209.5116 1581.1242,-186.3818 1588.5,-168 1593.1633,-156.3782 1602.3188,-146.0324 1611.0762,-138.1099"/>
<polygon fill="#191970" stroke="#191970" points="1613.4727,-140.6675 1618.8664,-131.5484 1608.9632,-135.3136 1613.4727,-140.6675"/>
</g>
<!-- Node30 -->
<g id="node31" class="node">
<title>Node30</title>
<polygon fill="none" stroke="#bfbfbf" points="912.5,-112.5 912.5,-131.5 962.5,-131.5 962.5,-112.5 912.5,-112.5"/>
<text text-anchor="middle" x="937.5" y="-119.5" font-family="Helvetica,sans-Serif" font-size="10.00" fill="#000000">cstdint</text>
</g>
<!-- Node26&#45;&gt;Node30 -->
<g id="edge31" class="edge">
<title>Node26&#45;&gt;Node30</title>
<path fill="none" stroke="#191970" d="M1508.8244,-225.3218C1505.6786,-224.8647 1502.5626,-224.4224 1499.5,-224 1358.1602,-204.5065 1320.6881,-214.5375 1180.5,-188 1105.2684,-173.7587 1019.233,-148.1103 972.3926,-133.3299"/>
<polygon fill="#191970" stroke="#191970" points="973.325,-129.9538 962.7347,-130.2607 971.2049,-136.625 973.325,-129.9538"/>
</g>
<!-- Node26&#45;&gt;Node31 -->
<g id="edge32" class="edge">
<title>Node26&#45;&gt;Node31</title>
<path fill="none" stroke="#191970" d="M1657.1246,-224.4554C1702.5253,-213.5486 1762.9256,-199.0384 1804.0623,-189.1559"/>
<polygon fill="#191970" stroke="#191970" points="1804.9199,-192.5496 1813.8257,-186.8104 1803.2848,-185.7432 1804.9199,-192.5496"/>
</g>
<!-- Node32 -->
<g id="node33" class="node">
<title>Node32</title>
<polygon fill="none" stroke="#bfbfbf" points="980.5,-112.5 980.5,-131.5 1024.5,-131.5 1024.5,-112.5 980.5,-112.5"/>
<text text-anchor="middle" x="1002.5" y="-119.5" font-family="Helvetica,sans-Serif" font-size="10.00" fill="#000000">string</text>
</g>
<!-- Node26&#45;&gt;Node32 -->
<g id="edge33" class="edge">
<title>Node26&#45;&gt;Node32</title>
<path fill="none" stroke="#191970" d="M1508.9248,-225.5181C1431.0932,-212.5855 1325.5405,-194.4241 1306.5,-188 1288.0426,-181.7726 1286.0317,-174.0027 1267.5,-168 1170.4274,-136.5567 1137.8663,-155.027 1034.6122,-131.9276"/>
<polygon fill="#191970" stroke="#191970" points="1035.2628,-128.4858 1024.731,-129.6399 1033.6839,-135.3054 1035.2628,-128.4858"/>
</g>
<!-- Node33 -->
<g id="node34" class="node">
<title>Node33</title>
<polygon fill="none" stroke="#bfbfbf" points="1189,-168.5 1189,-187.5 1258,-187.5 1258,-168.5 1189,-168.5"/>
<text text-anchor="middle" x="1223.5" y="-175.5" font-family="Helvetica,sans-Serif" font-size="10.00" fill="#000000">type_traits</text>
</g>
<!-- Node26&#45;&gt;Node33 -->
<g id="edge34" class="edge">
<title>Node26&#45;&gt;Node33</title>
<path fill="none" stroke="#191970" d="M1508.798,-225.499C1505.6596,-224.992 1502.5523,-224.491 1499.5,-224 1398.647,-207.7754 1373.0122,-206.2173 1272.5,-188 1271.0584,-187.7387 1269.5938,-187.4684 1268.1158,-187.1914"/>
<polygon fill="#191970" stroke="#191970" points="1268.744,-183.7482 1258.2621,-185.2911 1267.4184,-190.6215 1268.744,-183.7482"/>
</g>
<!-- Node34 -->
<g id="node35" class="node">
<title>Node34</title>
<g id="a_node35"><a xlink:href="../../d9/d52/Common_2MathUtils_2include_2MathUtils_2Utils_8h.html" target="_top" xlink:title="MathUtils/Utils.h">
<polygon fill="none" stroke="#000000" points="1697.5,-168.5 1697.5,-187.5 1795.5,-187.5 1795.5,-168.5 1697.5,-168.5"/>
<text text-anchor="middle" x="1746.5" y="-175.5" font-family="Helvetica,sans-Serif" font-size="10.00" fill="#000000">MathUtils/Utils.h</text>
</a>
</g>
</g>
<!-- Node26&#45;&gt;Node34 -->
<g id="edge35" class="edge">
<title>Node26&#45;&gt;Node34</title>
<path fill="none" stroke="#191970" d="M1631.6834,-224.4554C1656.7113,-214.329 1689.4163,-201.0964 1713.5166,-191.3453"/>
<polygon fill="#191970" stroke="#191970" points="1714.9882,-194.5256 1722.9454,-187.5303 1712.3627,-188.0366 1714.9882,-194.5256"/>
</g>
<!-- Node42 -->
<g id="node43" class="node">
<title>Node42</title>
<g id="a_node43"><a xlink:href="../../dc/dcd/DataHeader_8h.html" target="_top" xlink:title="Headers/DataHeader.h">
<polygon fill="none" stroke="#000000" points="1315,-168.5 1315,-187.5 1442,-187.5 1442,-168.5 1315,-168.5"/>
<text text-anchor="middle" x="1378.5" y="-175.5" font-family="Helvetica,sans-Serif" font-size="10.00" fill="#000000">Headers/DataHeader.h</text>
</a>
</g>
</g>
<!-- Node26&#45;&gt;Node42 -->
<g id="edge46" class="edge">
<title>Node26&#45;&gt;Node42</title>
<path fill="none" stroke="#191970" d="M1541.6605,-224.4554C1504.8299,-213.9689 1456.3002,-200.1515 1421.7655,-190.3187"/>
<polygon fill="#191970" stroke="#191970" points="1422.5486,-186.9026 1411.9723,-187.5303 1420.6316,-193.635 1422.5486,-186.9026"/>
</g>
<!-- Node34&#45;&gt;Node27 -->
<g id="edge36" class="edge">
<title>Node34&#45;&gt;Node27</title>
<path fill="none" stroke="#191970" d="M1737.9649,-168.2455C1731.0088,-160.2958 1721.0117,-148.8706 1712.6949,-139.3656"/>
<polygon fill="#191970" stroke="#191970" points="1715.1564,-136.8637 1705.9373,-131.6427 1709.8884,-141.4732 1715.1564,-136.8637"/>
</g>
<!-- Node35 -->
<g id="node36" class="node">
<title>Node35</title>
<polygon fill="none" stroke="#bfbfbf" points="1742,-56.5 1742,-75.5 1789,-75.5 1789,-56.5 1742,-56.5"/>
<text text-anchor="middle" x="1765.5" y="-63.5" font-family="Helvetica,sans-Serif" font-size="10.00" fill="#000000">cmath</text>
</g>
<!-- Node34&#45;&gt;Node35 -->
<g id="edge37" class="edge">
<title>Node34&#45;&gt;Node35</title>
<path fill="none" stroke="#191970" d="M1748.1199,-168.4509C1751.2188,-150.184 1758.0433,-109.9553 1762.1584,-85.6976"/>
<polygon fill="#191970" stroke="#191970" points="1765.6623,-85.9694 1763.8842,-75.5249 1758.7609,-84.7986 1765.6623,-85.9694"/>
</g>
<!-- Node36 -->
<g id="node37" class="node">
<title>Node36</title>
<g id="a_node37"><a xlink:href="../../df/d21/GPUCommonDef_8h.html" target="_top" xlink:title="GPUCommonDef.h">
<polygon fill="none" stroke="#000000" points="1845,-56.5 1845,-75.5 1952,-75.5 1952,-56.5 1845,-56.5"/>
<text text-anchor="middle" x="1898.5" y="-63.5" font-family="Helvetica,sans-Serif" font-size="10.00" fill="#000000">GPUCommonDef.h</text>
</a>
</g>
</g>
<!-- Node34&#45;&gt;Node36 -->
<g id="edge38" class="edge">
<title>Node34&#45;&gt;Node36</title>
<path fill="none" stroke="#191970" d="M1795.5088,-169.7685C1835.3416,-161.9612 1886.9217,-148.9162 1899.5,-132 1909.3081,-118.8094 1907.8112,-99.6803 1904.5987,-85.4084"/>
<polygon fill="#191970" stroke="#191970" points="1907.9434,-84.3682 1901.9664,-75.6202 1901.1835,-86.1861 1907.9434,-84.3682"/>
</g>
<!-- Node39 -->
<g id="node40" class="node">
<title>Node39</title>
<g id="a_node40"><a xlink:href="../../d6/da2/GPUCommonMath_8h.html" target="_top" xlink:title="GPUCommonMath.h">
<polygon fill="none" stroke="#000000" points="1775,-112.5 1775,-131.5 1890,-131.5 1890,-112.5 1775,-112.5"/>
<text text-anchor="middle" x="1832.5" y="-119.5" font-family="Helvetica,sans-Serif" font-size="10.00" fill="#000000">GPUCommonMath.h</text>
</a>
</g>
</g>
<!-- Node34&#45;&gt;Node39 -->
<g id="edge41" class="edge">
<title>Node34&#45;&gt;Node39</title>
<path fill="none" stroke="#191970" d="M1761.4801,-168.2455C1774.6751,-159.6534 1794.1051,-147.0014 1809.3079,-137.1018"/>
<polygon fill="#191970" stroke="#191970" points="1811.2215,-140.0325 1817.6916,-131.6427 1807.4017,-134.1665 1811.2215,-140.0325"/>
</g>
<!-- Node41 -->
<g id="node42" class="node">
<title>Node41</title>
<g id="a_node42"><a xlink:href="../../d6/d84/MathConstants_8h.html" target="_top" xlink:title="useful math constants ">
<polygon fill="none" stroke="#000000" points="1946.5,-112.5 1946.5,-131.5 2140.5,-131.5 2140.5,-112.5 1946.5,-112.5"/>
<text text-anchor="middle" x="2043.5" y="-119.5" font-family="Helvetica,sans-Serif" font-size="10.00" fill="#000000">CommonConstants/MathConstants.h</text>
</a>
</g>
</g>
<!-- Node34&#45;&gt;Node41 -->
<g id="edge45" class="edge">
<title>Node34&#45;&gt;Node41</title>
<path fill="none" stroke="#191970" d="M1795.5435,-168.7527C1846.8831,-159.0725 1927.5746,-143.858 1982.8745,-133.4311"/>
<polygon fill="#191970" stroke="#191970" points="1983.7136,-136.8346 1992.8919,-131.5423 1982.4165,-129.9558 1983.7136,-136.8346"/>
</g>
<!-- Node37 -->
<g id="node38" class="node">
<title>Node37</title>
<g id="a_node38"><a xlink:href="../../d5/d93/GPUCommonDefSettings_8h.html" target="_top" xlink:title="GPUCommonDefSettings.h">
<polygon fill="none" stroke="#000000" points="1747.5,-.5 1747.5,-19.5 1895.5,-19.5 1895.5,-.5 1747.5,-.5"/>
<text text-anchor="middle" x="1821.5" y="-7.5" font-family="Helvetica,sans-Serif" font-size="10.00" fill="#000000">GPUCommonDefSettings.h</text>
</a>
</g>
</g>
<!-- Node36&#45;&gt;Node37 -->
<g id="edge39" class="edge">
<title>Node36&#45;&gt;Node37</title>
<path fill="none" stroke="#191970" d="M1885.0876,-56.2455C1873.4943,-47.814 1856.5252,-35.4729 1843.0322,-25.6598"/>
<polygon fill="#191970" stroke="#191970" points="1844.9047,-22.6938 1834.7587,-19.6427 1840.7874,-28.355 1844.9047,-22.6938"/>
</g>
<!-- Node38 -->
<g id="node39" class="node">
<title>Node38</title>
<g id="a_node39"><a xlink:href="../../da/d5a/GPUCommonDefAPI_8h.html" target="_top" xlink:title="GPUCommonDefAPI.h">
<polygon fill="none" stroke="#000000" points="1913.5,-.5 1913.5,-19.5 2037.5,-19.5 2037.5,-.5 1913.5,-.5"/>
<text text-anchor="middle" x="1975.5" y="-7.5" font-family="Helvetica,sans-Serif" font-size="10.00" fill="#000000">GPUCommonDefAPI.h</text>
</a>
</g>
</g>
<!-- Node36&#45;&gt;Node38 -->
<g id="edge40" class="edge">
<title>Node36&#45;&gt;Node38</title>
<path fill="none" stroke="#191970" d="M1911.9124,-56.2455C1923.5057,-47.814 1940.4748,-35.4729 1953.9678,-25.6598"/>
<polygon fill="#191970" stroke="#191970" points="1956.2126,-28.355 1962.2413,-19.6427 1952.0953,-22.6938 1956.2126,-28.355"/>
</g>
<!-- Node39&#45;&gt;Node35 -->
<g id="edge43" class="edge">
<title>Node39&#45;&gt;Node35</title>
<path fill="none" stroke="#191970" d="M1820.8295,-112.2455C1810.9339,-103.9746 1796.5373,-91.9416 1784.9099,-82.2232"/>
<polygon fill="#191970" stroke="#191970" points="1786.9542,-79.3703 1777.0368,-75.6427 1782.465,-84.7413 1786.9542,-79.3703"/>
</g>
<!-- Node39&#45;&gt;Node36 -->
<g id="edge42" class="edge">
<title>Node39&#45;&gt;Node36</title>
<path fill="none" stroke="#191970" d="M1843.9963,-112.2455C1853.7442,-103.9746 1867.9259,-91.9416 1879.3798,-82.2232"/>
<polygon fill="#191970" stroke="#191970" points="1881.7747,-84.7813 1887.1354,-75.6427 1877.2459,-79.4437 1881.7747,-84.7813"/>
</g>
<!-- Node40 -->
<g id="node41" class="node">
<title>Node40</title>
<polygon fill="none" stroke="#bfbfbf" points="1498.5,-56.5 1498.5,-75.5 1562.5,-75.5 1562.5,-56.5 1498.5,-56.5"/>
<text text-anchor="middle" x="1530.5" y="-63.5" font-family="Helvetica,sans-Serif" font-size="10.00" fill="#000000">algorithm</text>
</g>
<!-- Node39&#45;&gt;Node40 -->
<g id="edge44" class="edge">
<title>Node39&#45;&gt;Node40</title>
<path fill="none" stroke="#191970" d="M1780.9275,-112.4369C1722.2107,-101.549 1627.3866,-83.9657 1572.8238,-73.8481"/>
<polygon fill="#191970" stroke="#191970" points="1573.2669,-70.3707 1562.7964,-71.9887 1571.9906,-77.2534 1573.2669,-70.3707"/>
</g>
<!-- Node42&#45;&gt;Node29 -->
<g id="edge49" class="edge">
<title>Node42&#45;&gt;Node29</title>
<path fill="none" stroke="#191970" d="M1429.1826,-168.4186C1471.4577,-160.1865 1533.4843,-147.5542 1596.1248,-132.2211"/>
<polygon fill="#191970" stroke="#191970" points="1597.3117,-135.5332 1606.1806,-129.7373 1595.633,-128.7374 1597.3117,-135.5332"/>
</g>
<!-- Node42&#45;&gt;Node30 -->
<g id="edge47" class="edge">
<title>Node42&#45;&gt;Node30</title>
<path fill="none" stroke="#191970" d="M1314.8461,-172.167C1221.5228,-163.3939 1051.0061,-146.4706 972.6154,-131.8707"/>
<polygon fill="#191970" stroke="#191970" points="973.1147,-128.4021 962.6291,-129.9192 971.7721,-135.2722 973.1147,-128.4021"/>
</g>
<!-- Node42&#45;&gt;Node32 -->
<g id="edge53" class="edge">
<title>Node42&#45;&gt;Node32</title>
<path fill="none" stroke="#191970" d="M1314.8063,-169.8074C1227.8775,-158.587 1078.5916,-139.1659 1034.7525,-131.6297"/>
<polygon fill="#191970" stroke="#191970" points="1035.2002,-128.1517 1024.7183,-129.6948 1033.8747,-135.025 1035.2002,-128.1517"/>
</g>
<!-- Node42&#45;&gt;Node40 -->
<g id="edge51" class="edge">
<title>Node42&#45;&gt;Node40</title>
<path fill="none" stroke="#191970" d="M1373.277,-168.3971C1366.5067,-154.4965 1356.9648,-128.6183 1369.5,-112 1383.8428,-92.9854 1445.7885,-79.466 1488.5203,-72.1975"/>
<polygon fill="#191970" stroke="#191970" points="1489.095,-75.6501 1498.3927,-70.5703 1487.9566,-68.7433 1489.095,-75.6501"/>
</g>
<!-- Node43 -->
<g id="node44" class="node">
<title>Node43</title>
<polygon fill="none" stroke="#bfbfbf" points="1378.5,-112.5 1378.5,-131.5 1436.5,-131.5 1436.5,-112.5 1378.5,-112.5"/>
<text text-anchor="middle" x="1407.5" y="-119.5" font-family="Helvetica,sans-Serif" font-size="10.00" fill="#000000">memory</text>
</g>
<!-- Node42&#45;&gt;Node43 -->
<g id="edge48" class="edge">
<title>Node42&#45;&gt;Node43</title>
<path fill="none" stroke="#191970" d="M1383.5514,-168.2455C1387.5019,-160.617 1393.1097,-149.7881 1397.9058,-140.5267"/>
<polygon fill="#191970" stroke="#191970" points="1401.0159,-142.1321 1402.5065,-131.6427 1394.7999,-138.9131 1401.0159,-142.1321"/>
</g>
<!-- Node44 -->
<g id="node45" class="node">
<title>Node44</title>
<polygon fill="none" stroke="#bfbfbf" points="1454.5,-112.5 1454.5,-131.5 1504.5,-131.5 1504.5,-112.5 1454.5,-112.5"/>
<text text-anchor="middle" x="1479.5" y="-119.5" font-family="Helvetica,sans-Serif" font-size="10.00" fill="#000000">cstring</text>
</g>
<!-- Node42&#45;&gt;Node44 -->
<g id="edge50" class="edge">
<title>Node42&#45;&gt;Node44</title>
<path fill="none" stroke="#191970" d="M1396.0929,-168.2455C1411.879,-159.4928 1435.2639,-146.527 1453.2587,-136.5496"/>
<polygon fill="#191970" stroke="#191970" points="1455.0603,-139.5528 1462.1087,-131.6427 1451.6659,-133.4308 1455.0603,-139.5528"/>
</g>
<!-- Node45 -->
<g id="node46" class="node">
<title>Node45</title>
<polygon fill="none" stroke="#bfbfbf" points="1523,-112.5 1523,-131.5 1588,-131.5 1588,-112.5 1523,-112.5"/>
<text text-anchor="middle" x="1555.5" y="-119.5" font-family="Helvetica,sans-Serif" font-size="10.00" fill="#000000">stdexcept</text>
</g>
<!-- Node42&#45;&gt;Node45 -->
<g id="edge52" class="edge">
<title>Node42&#45;&gt;Node45</title>
<path fill="none" stroke="#191970" d="M1408.9274,-168.3733C1438.4872,-159.021 1483.5226,-144.7725 1515.8695,-134.5385"/>
<polygon fill="#191970" stroke="#191970" points="1516.9913,-137.8546 1525.4697,-131.5011 1514.8797,-131.1807 1516.9913,-137.8546"/>
</g>
<!-- Node46 -->
<g id="node47" class="node">
<title>Node46</title>
<polygon fill="none" stroke="#bfbfbf" points="1042.5,-112.5 1042.5,-131.5 1092.5,-131.5 1092.5,-112.5 1042.5,-112.5"/>
<text text-anchor="middle" x="1067.5" y="-119.5" font-family="Helvetica,sans-Serif" font-size="10.00" fill="#000000">climits</text>
</g>
<!-- Node42&#45;&gt;Node46 -->
<g id="edge54" class="edge">
<title>Node42&#45;&gt;Node46</title>
<path fill="none" stroke="#191970" d="M1314.8126,-169.6671C1260.7042,-162.0777 1180.8416,-149.6779 1102.6787,-132.0597"/>
<polygon fill="#191970" stroke="#191970" points="1103.1896,-128.5863 1092.6611,-129.7704 1101.6301,-135.4104 1103.1896,-128.5863"/>
</g>
<!-- Node47 -->
<g id="node48" class="node">
<title>Node47</title>
<g id="a_node48"><a xlink:href="../../d7/df8/Types_8h.html" target="_top" xlink:title="MemoryResources/Types.h">
<polygon fill="none" stroke="#000000" points="1110.5,-112.5 1110.5,-131.5 1256.5,-131.5 1256.5,-112.5 1110.5,-112.5"/>
<text text-anchor="middle" x="1183.5" y="-119.5" font-family="Helvetica,sans-Serif" font-size="10.00" fill="#000000">MemoryResources/Types.h</text>
</a>
</g>
</g>
<!-- Node42&#45;&gt;Node47 -->
<g id="edge55" class="edge">
<title>Node42&#45;&gt;Node47</title>
<path fill="none" stroke="#191970" d="M1344.9783,-168.3733C1312.1317,-158.9404 1261.9405,-144.5265 1226.2422,-134.2747"/>
<polygon fill="#191970" stroke="#191970" points="1227.1619,-130.8974 1216.5843,-131.5011 1225.2297,-137.6255 1227.1619,-130.8974"/>
</g>
<!-- Node48 -->
<g id="node49" class="node">
<title>Node48</title>
<polygon fill="none" stroke="#bfbfbf" points="1275,-112.5 1275,-131.5 1322,-131.5 1322,-112.5 1275,-112.5"/>
<text text-anchor="middle" x="1298.5" y="-119.5" font-family="Helvetica,sans-Serif" font-size="10.00" fill="#000000">cerrno</text>
</g>
<!-- Node42&#45;&gt;Node48 -->
<g id="edge56" class="edge">
<title>Node42&#45;&gt;Node48</title>
<path fill="none" stroke="#191970" d="M1364.5651,-168.2455C1352.4053,-159.7337 1334.5536,-147.2375 1320.4715,-137.3801"/>
<polygon fill="#191970" stroke="#191970" points="1322.4747,-134.51 1312.2752,-131.6427 1318.4605,-140.2447 1322.4747,-134.51"/>
</g>
<!-- Node49&#45;&gt;Node3 -->
<g id="edge58" class="edge">
<title>Node49&#45;&gt;Node3</title>
<path fill="none" stroke="#191970" d="M1372.9846,-229.9486C1360.8758,-227.662 1347.7279,-225.462 1335.5,-224 1165.0192,-203.6164 624.4941,-184.2993 475.7245,-179.2657"/>
<polygon fill="#191970" stroke="#191970" points="475.8127,-175.7668 465.7006,-178.9282 475.5771,-182.7628 475.8127,-175.7668"/>
</g>
</g>
</svg>
