<?xml version="1.0" encoding="UTF-8" standalone="no"?>
<!DOCTYPE svg PUBLIC "-//W3C//DTD SVG 1.1//EN"
 "http://www.w3.org/Graphics/SVG/1.1/DTD/svg11.dtd">
<!-- Generated by graphviz version 2.40.1 (20161225.0304)
 -->
<!-- Title: /home/travis/build/AliceO2Group/AliceO2/GPU/GPUTracking/Global/GPUErrors.h Pages: 1 -->
<svg width="886pt" height="229pt"
 viewBox="0.00 0.00 885.50 229.00" xmlns="http://www.w3.org/2000/svg" xmlns:xlink="http://www.w3.org/1999/xlink">
<g id="graph0" class="graph" transform="scale(1 1) rotate(0) translate(4 225)">
<title>/home/travis/build/AliceO2Group/AliceO2/GPU/GPUTracking/Global/GPUErrors.h</title>
<!-- Node0 -->
<g id="node1" class="node">
<title>Node0</title>
<polygon fill="#bfbfbf" stroke="#000000" points="462,-168.5 462,-220.5 602,-220.5 602,-168.5 462,-168.5"/>
<text text-anchor="start" x="470" y="-208.5" font-family="Helvetica,sans-Serif" font-size="10.00" fill="#000000">/home/travis/build</text>
<text text-anchor="start" x="470" y="-197.5" font-family="Helvetica,sans-Serif" font-size="10.00" fill="#000000">/AliceO2Group/AliceO2</text>
<text text-anchor="start" x="470" y="-186.5" font-family="Helvetica,sans-Serif" font-size="10.00" fill="#000000">/GPU/GPUTracking/Global</text>
<text text-anchor="middle" x="532" y="-175.5" font-family="Helvetica,sans-Serif" font-size="10.00" fill="#000000">/GPUErrors.h</text>
</g>
<!-- Node1 -->
<g id="node2" class="node">
<title>Node1</title>
<g id="a_node2"><a xlink:href="../../d2/d6d/GPUDef_8h.html" target="_top" xlink:title="GPUDef.h">
<polygon fill="none" stroke="#000000" points="450.5,-112.5 450.5,-131.5 513.5,-131.5 513.5,-112.5 450.5,-112.5"/>
<text text-anchor="middle" x="482" y="-119.5" font-family="Helvetica,sans-Serif" font-size="10.00" fill="#000000">GPUDef.h</text>
</a>
</g>
</g>
<!-- Node0&#45;&gt;Node1 -->
<g id="edge1" class="edge">
<title>Node0&#45;&gt;Node1</title>
<path fill="none" stroke="#191970" d="M513.9489,-168.3258C507.4575,-158.9134 500.2872,-148.5164 494.3869,-139.961"/>
<polygon fill="#191970" stroke="#191970" points="497.1338,-137.7791 488.5752,-131.534 491.3713,-141.7532 497.1338,-137.7791"/>
</g>
<!-- Node11 -->
<g id="node12" class="node">
<title>Node11</title>
<g id="a_node12"><a xlink:href="../../de/d0d/GPUErrorCodes_8h.html" target="_top" xlink:title="GPUErrorCodes.h">
<polygon fill="none" stroke="#000000" points="532,-112.5 532,-131.5 632,-131.5 632,-112.5 532,-112.5"/>
<text text-anchor="middle" x="582" y="-119.5" font-family="Helvetica,sans-Serif" font-size="10.00" fill="#000000">GPUErrorCodes.h</text>
</a>
</g>
</g>
<!-- Node0&#45;&gt;Node11 -->
<g id="edge11" class="edge">
<title>Node0&#45;&gt;Node11</title>
<path fill="none" stroke="#191970" d="M550.0511,-168.3258C556.5425,-158.9134 563.7128,-148.5164 569.6131,-139.961"/>
<polygon fill="#191970" stroke="#191970" points="572.6287,-141.7532 575.4248,-131.534 566.8662,-137.7791 572.6287,-141.7532"/>
</g>
<!-- Node2 -->
<g id="node3" class="node">
<title>Node2</title>
<g id="a_node3"><a xlink:href="../../df/d21/GPUCommonDef_8h.html" target="_top" xlink:title="GPUCommonDef.h">
<polygon fill="none" stroke="#000000" points="97.5,-56.5 97.5,-75.5 204.5,-75.5 204.5,-56.5 97.5,-56.5"/>
<text text-anchor="middle" x="151" y="-63.5" font-family="Helvetica,sans-Serif" font-size="10.00" fill="#000000">GPUCommonDef.h</text>
</a>
</g>
</g>
<!-- Node1&#45;&gt;Node2 -->
<g id="edge2" class="edge">
<title>Node1&#45;&gt;Node2</title>
<path fill="none" stroke="#191970" d="M450.2623,-116.6305C396.2065,-107.4851 285.286,-88.7191 214.7204,-76.7805"/>
<polygon fill="#191970" stroke="#191970" points="215.0573,-73.2878 204.6135,-75.0706 213.8895,-80.1897 215.0573,-73.2878"/>
</g>
<!-- Node5 -->
<g id="node6" class="node">
<title>Node5</title>
<g id="a_node6"><a xlink:href="../../d2/d37/GPUDefConstantsAndSettings_8h.html" target="_top" xlink:title="GPUDefConstantsAndSettings.h">
<polygon fill="none" stroke="#000000" points="222.5,-56.5 222.5,-75.5 393.5,-75.5 393.5,-56.5 222.5,-56.5"/>
<text text-anchor="middle" x="308" y="-63.5" font-family="Helvetica,sans-Serif" font-size="10.00" fill="#000000">GPUDefConstantsAndSettings.h</text>
</a>
</g>
</g>
<!-- Node1&#45;&gt;Node5 -->
<g id="edge5" class="edge">
<title>Node1&#45;&gt;Node5</title>
<path fill="none" stroke="#191970" d="M452.0883,-112.3733C423.1548,-103.0613 379.1389,-88.8953 347.3707,-78.671"/>
<polygon fill="#191970" stroke="#191970" points="348.1128,-75.2331 337.5213,-75.5011 345.9682,-81.8965 348.1128,-75.2331"/>
</g>
<!-- Node6 -->
<g id="node7" class="node">
<title>Node6</title>
<g id="a_node7"><a xlink:href="../../dc/de9/GPUDefGPUParameters_8h.html" target="_top" xlink:title="GPUDefGPUParameters.h">
<polygon fill="none" stroke="#000000" points="412,-56.5 412,-75.5 552,-75.5 552,-56.5 412,-56.5"/>
<text text-anchor="middle" x="482" y="-63.5" font-family="Helvetica,sans-Serif" font-size="10.00" fill="#000000">GPUDefGPUParameters.h</text>
</a>
</g>
</g>
<!-- Node1&#45;&gt;Node6 -->
<g id="edge6" class="edge">
<title>Node1&#45;&gt;Node6</title>
<path fill="none" stroke="#191970" d="M482,-112.2455C482,-104.9382 482,-94.6944 482,-85.7046"/>
<polygon fill="#191970" stroke="#191970" points="485.5001,-85.6426 482,-75.6427 478.5001,-85.6427 485.5001,-85.6426"/>
</g>
<!-- Node8 -->
<g id="node9" class="node">
<title>Node8</title>
<g id="a_node9"><a xlink:href="../../d3/d4c/GPUDefOpenCL12Templates_8h.html" target="_top" xlink:title="GPUDefOpenCL12Templates.h">
<polygon fill="none" stroke="#000000" points="570,-56.5 570,-75.5 734,-75.5 734,-56.5 570,-56.5"/>
<text text-anchor="middle" x="652" y="-63.5" font-family="Helvetica,sans-Serif" font-size="10.00" fill="#000000">GPUDefOpenCL12Templates.h</text>
</a>
</g>
</g>
<!-- Node1&#45;&gt;Node8 -->
<g id="edge8" class="edge">
<title>Node1&#45;&gt;Node8</title>
<path fill="none" stroke="#191970" d="M511.224,-112.3733C539.4925,-103.0613 582.4965,-88.8953 613.5344,-78.671"/>
<polygon fill="#191970" stroke="#191970" points="614.7544,-81.9542 623.1573,-75.5011 612.5643,-75.3056 614.7544,-81.9542"/>
</g>
<!-- Node9 -->
<g id="node10" class="node">
<title>Node9</title>
<g id="a_node10"><a xlink:href="../../d2/d45/GPUCommonRtypes_8h.html" target="_top" xlink:title="GPUCommonRtypes.h">
<polygon fill="none" stroke="#000000" points="752.5,-56.5 752.5,-75.5 877.5,-75.5 877.5,-56.5 752.5,-56.5"/>
<text text-anchor="middle" x="815" y="-63.5" font-family="Helvetica,sans-Serif" font-size="10.00" fill="#000000">GPUCommonRtypes.h</text>
</a>
</g>
</g>
<!-- Node1&#45;&gt;Node9 -->
<g id="edge9" class="edge">
<title>Node1&#45;&gt;Node9</title>
<path fill="none" stroke="#191970" d="M513.7261,-113.9865C516.8519,-113.2799 519.9827,-112.6045 523,-112 563.7902,-103.8273 670.0273,-87.557 742.4568,-76.7233"/>
<polygon fill="#191970" stroke="#191970" points="743.0689,-80.1708 752.4422,-75.2322 742.0349,-73.2476 743.0689,-80.1708"/>
</g>
<!-- Node3 -->
<g id="node4" class="node">
<title>Node3</title>
<g id="a_node4"><a xlink:href="../../d5/d93/GPUCommonDefSettings_8h.html" target="_top" xlink:title="GPUCommonDefSettings.h">
<polygon fill="none" stroke="#000000" points="0,-.5 0,-19.5 148,-19.5 148,-.5 0,-.5"/>
<text text-anchor="middle" x="74" y="-7.5" font-family="Helvetica,sans-Serif" font-size="10.00" fill="#000000">GPUCommonDefSettings.h</text>
</a>
</g>
</g>
<!-- Node2&#45;&gt;Node3 -->
<g id="edge3" class="edge">
<title>Node2&#45;&gt;Node3</title>
<path fill="none" stroke="#191970" d="M137.5876,-56.2455C125.9943,-47.814 109.0252,-35.4729 95.5322,-25.6598"/>
<polygon fill="#191970" stroke="#191970" points="97.4047,-22.6938 87.2587,-19.6427 93.2874,-28.355 97.4047,-22.6938"/>
</g>
<!-- Node4 -->
<g id="node5" class="node">
<title>Node4</title>
<g id="a_node5"><a xlink:href="../../da/d5a/GPUCommonDefAPI_8h.html" target="_top" xlink:title="GPUCommonDefAPI.h">
<polygon fill="none" stroke="#000000" points="166,-.5 166,-19.5 290,-19.5 290,-.5 166,-.5"/>
<text text-anchor="middle" x="228" y="-7.5" font-family="Helvetica,sans-Serif" font-size="10.00" fill="#000000">GPUCommonDefAPI.h</text>
</a>
</g>
</g>
<!-- Node2&#45;&gt;Node4 -->
<g id="edge4" class="edge">
<title>Node2&#45;&gt;Node4</title>
<path fill="none" stroke="#191970" d="M164.4124,-56.2455C176.0057,-47.814 192.9748,-35.4729 206.4678,-25.6598"/>
<polygon fill="#191970" stroke="#191970" points="208.7126,-28.355 214.7413,-19.6427 204.5953,-22.6938 208.7126,-28.355"/>
</g>
<!-- Node7 -->
<g id="node8" class="node">
<title>Node7</title>
<g id="a_node8"><a xlink:href="../../d6/dff/GPUDefMacros_8h.html" target="_top" xlink:title="GPUDefMacros.h">
<polygon fill="none" stroke="#000000" points="433,-.5 433,-19.5 531,-19.5 531,-.5 433,-.5"/>
<text text-anchor="middle" x="482" y="-7.5" font-family="Helvetica,sans-Serif" font-size="10.00" fill="#000000">GPUDefMacros.h</text>
</a>
</g>
</g>
<!-- Node6&#45;&gt;Node7 -->
<g id="edge7" class="edge">
<title>Node6&#45;&gt;Node7</title>
<path fill="none" stroke="#191970" d="M482,-56.2455C482,-48.9382 482,-38.6944 482,-29.7046"/>
<polygon fill="#191970" stroke="#191970" points="485.5001,-29.6426 482,-19.6427 478.5001,-29.6427 485.5001,-29.6426"/>
</g>
<!-- Node10 -->
<g id="node11" class="node">
<title>Node10</title>
<polygon fill="none" stroke="#bfbfbf" points="785.5,-.5 785.5,-19.5 844.5,-19.5 844.5,-.5 785.5,-.5"/>
<text text-anchor="middle" x="815" y="-7.5" font-family="Helvetica,sans-Serif" font-size="10.00" fill="#000000">Rtypes.h</text>
</g>
<!-- Node9&#45;&gt;Node10 -->
<g id="edge10" class="edge">
<title>Node9&#45;&gt;Node10</title>
<path fill="none" stroke="#191970" d="M815,-56.2455C815,-48.9382 815,-38.6944 815,-29.7046"/>
<polygon fill="#191970" stroke="#191970" points="818.5001,-29.6426 815,-19.6427 811.5001,-29.6427 818.5001,-29.6426"/>
</g>
</g>
</svg>
