<?xml version="1.0" encoding="UTF-8" standalone="no"?>
<!DOCTYPE svg PUBLIC "-//W3C//DTD SVG 1.1//EN"
 "http://www.w3.org/Graphics/SVG/1.1/DTD/svg11.dtd">
<!-- Generated by graphviz version 2.40.1 (20161225.0304)
 -->
<!-- Title: o2::framework::detail::is_nothrow_invocable_if_required_t&lt; T &gt; Pages: 1 -->
<svg width="180pt" height="182pt"
 viewBox="0.00 0.00 180.00 182.00" xmlns="http://www.w3.org/2000/svg" xmlns:xlink="http://www.w3.org/1999/xlink">
<g id="graph0" class="graph" transform="scale(1 1) rotate(0) translate(4 178)">
<title>o2::framework::detail::is_nothrow_invocable_if_required_t&lt; T &gt;</title>
<!-- Node0 -->
<g id="node1" class="node">
<title>Node0</title>
<polygon fill="#bfbfbf" stroke="#000000" points="22,-.5 22,-79.5 150,-79.5 150,-.5 22,-.5"/>
<text text-anchor="start" x="30" y="-67.5" font-family="Helvetica,sans-Serif" font-size="10.00" fill="#000000">o2::framework::detail</text>
<text text-anchor="start" x="30" y="-56.5" font-family="Helvetica,sans-Serif" font-size="10.00" fill="#000000">::is_nothrow_invocable</text>
<text text-anchor="middle" x="86" y="-45.5" font-family="Helvetica,sans-Serif" font-size="10.00" fill="#000000">_if_required_t&lt; T &gt;</text>
<polyline fill="none" stroke="#000000" points="22,-38.5 150,-38.5 "/>
<text text-anchor="middle" x="86" y="-26.5" font-family="Helvetica,sans-Serif" font-size="10.00" fill="#000000"> </text>
<polyline fill="none" stroke="#000000" points="22,-19.5 150,-19.5 "/>
<text text-anchor="middle" x="86" y="-7.5" font-family="Helvetica,sans-Serif" font-size="10.00" fill="#000000"> </text>
</g>
<!-- Node1 -->
<g id="node2" class="node">
<title>Node1</title>
<polygon fill="none" stroke="#bfbfbf" points="0,-116.5 0,-173.5 172,-173.5 172,-116.5 0,-116.5"/>
<text text-anchor="middle" x="86" y="-161.5" font-family="Helvetica,sans-Serif" font-size="10.00" fill="#000000">std::is_nothrow_invocable&lt; T &gt;</text>
<polyline fill="none" stroke="#bfbfbf" points="0,-154.5 172,-154.5 "/>
<text text-anchor="middle" x="86" y="-142.5" font-family="Helvetica,sans-Serif" font-size="10.00" fill="#000000"> </text>
<polyline fill="none" stroke="#bfbfbf" points="0,-135.5 172,-135.5 "/>
<text text-anchor="middle" x="86" y="-123.5" font-family="Helvetica,sans-Serif" font-size="10.00" fill="#000000"> </text>
</g>
<!-- Node1&#45;&gt;Node0 -->
<g id="edge1" class="edge">
<title>Node1&#45;&gt;Node0</title>
<path fill="none" stroke="#191970" d="M86,-106.1156C86,-97.4889 86,-88.3353 86,-79.6773"/>
<polygon fill="none" stroke="#191970" points="82.5001,-106.3083 86,-116.3083 89.5001,-106.3083 82.5001,-106.3083"/>
</g>
</g>
</svg>
