<?xml version="1.0" encoding="UTF-8" standalone="no"?>
<!DOCTYPE svg PUBLIC "-//W3C//DTD SVG 1.1//EN"
 "http://www.w3.org/Graphics/SVG/1.1/DTD/svg11.dtd">
<!-- Generated by graphviz version 2.40.1 (20161225.0304)
 -->
<!-- Title: /home/travis/build/AliceO2Group/AliceO2/DataFormats/Detectors/Common/src/CTFHeader.cxx Pages: 1 -->
<svg width="1291pt" height="419pt"
 viewBox="0.00 0.00 1290.50 419.00" xmlns="http://www.w3.org/2000/svg" xmlns:xlink="http://www.w3.org/1999/xlink">
<g id="graph0" class="graph" transform="scale(1 1) rotate(0) translate(4 415)">
<title>/home/travis/build/AliceO2Group/AliceO2/DataFormats/Detectors/Common/src/CTFHeader.cxx</title>
<!-- Node0 -->
<g id="node1" class="node">
<title>Node0</title>
<polygon fill="#bfbfbf" stroke="#000000" points="87,-358.5 87,-410.5 244,-410.5 244,-358.5 87,-358.5"/>
<text text-anchor="start" x="95" y="-398.5" font-family="Helvetica,sans-Serif" font-size="10.00" fill="#000000">/home/travis/build</text>
<text text-anchor="start" x="95" y="-387.5" font-family="Helvetica,sans-Serif" font-size="10.00" fill="#000000">/AliceO2Group/AliceO2</text>
<text text-anchor="start" x="95" y="-376.5" font-family="Helvetica,sans-Serif" font-size="10.00" fill="#000000">/DataFormats/Detectors</text>
<text text-anchor="middle" x="165.5" y="-365.5" font-family="Helvetica,sans-Serif" font-size="10.00" fill="#000000">/Common/src/CTFHeader.cxx</text>
</g>
<!-- Node1 -->
<g id="node2" class="node">
<title>Node1</title>
<g id="a_node2"><a xlink:href="../../df/d3a/CTFHeader_8h.html" target="_top" xlink:title="Header for CTF collection. ">
<polygon fill="none" stroke="#000000" points="0,-291.5 0,-321.5 171,-321.5 171,-291.5 0,-291.5"/>
<text text-anchor="start" x="8" y="-309.5" font-family="Helvetica,sans-Serif" font-size="10.00" fill="#000000">DetectorsCommonDataFormats</text>
<text text-anchor="middle" x="85.5" y="-298.5" font-family="Helvetica,sans-Serif" font-size="10.00" fill="#000000">/CTFHeader.h</text>
</a>
</g>
</g>
<!-- Node0&#45;&gt;Node1 -->
<g id="edge1" class="edge">
<title>Node0&#45;&gt;Node1</title>
<path fill="none" stroke="#191970" d="M138.4156,-358.0928C128.5438,-348.4677 117.4962,-337.6963 108.0591,-328.4951"/>
<polygon fill="#191970" stroke="#191970" points="110.4927,-325.9796 100.8893,-321.5046 105.606,-330.9916 110.4927,-325.9796"/>
</g>
<!-- Node26 -->
<g id="node27" class="node">
<title>Node26</title>
<g id="a_node27"><a xlink:href="../../dd/da4/Logger_8h.html" target="_top" xlink:title="Framework/Logger.h">
<polygon fill="none" stroke="#000000" points="189,-297 189,-316 304,-316 304,-297 189,-297"/>
<text text-anchor="middle" x="246.5" y="-304" font-family="Helvetica,sans-Serif" font-size="10.00" fill="#000000">Framework/Logger.h</text>
</a>
</g>
</g>
<!-- Node0&#45;&gt;Node26 -->
<g id="edge35" class="edge">
<title>Node0&#45;&gt;Node26</title>
<path fill="none" stroke="#191970" d="M192.9229,-358.0928C204.919,-346.541 218.6297,-333.338 229.1782,-323.1802"/>
<polygon fill="#191970" stroke="#191970" points="231.7721,-325.5414 236.5475,-316.0839 226.9165,-320.4992 231.7721,-325.5414"/>
</g>
<!-- Node2 -->
<g id="node3" class="node">
<title>Node2</title>
<polygon fill="none" stroke="#bfbfbf" points="56,-168.5 56,-187.5 115,-187.5 115,-168.5 56,-168.5"/>
<text text-anchor="middle" x="85.5" y="-175.5" font-family="Helvetica,sans-Serif" font-size="10.00" fill="#000000">Rtypes.h</text>
</g>
<!-- Node1&#45;&gt;Node2 -->
<g id="edge2" class="edge">
<title>Node1&#45;&gt;Node2</title>
<path fill="none" stroke="#191970" d="M85.5,-291.2548C85.5,-267.9744 85.5,-223.5607 85.5,-197.8117"/>
<polygon fill="#191970" stroke="#191970" points="89.0001,-197.7358 85.5,-187.7358 82.0001,-197.7358 89.0001,-197.7358"/>
</g>
<!-- Node3 -->
<g id="node4" class="node">
<title>Node3</title>
<polygon fill="none" stroke="#bfbfbf" points="54.5,-112.5 54.5,-131.5 98.5,-131.5 98.5,-112.5 54.5,-112.5"/>
<text text-anchor="middle" x="76.5" y="-119.5" font-family="Helvetica,sans-Serif" font-size="10.00" fill="#000000">string</text>
</g>
<!-- Node1&#45;&gt;Node3 -->
<g id="edge3" class="edge">
<title>Node1&#45;&gt;Node3</title>
<path fill="none" stroke="#191970" d="M75.6266,-291.4976C60.1345,-266.0388 33.1893,-212.7765 46.5,-168 49.5326,-157.7984 55.6244,-147.7475 61.5309,-139.6555"/>
<polygon fill="#191970" stroke="#191970" points="64.323,-141.7667 67.7139,-131.7291 58.8036,-137.4613 64.323,-141.7667"/>
</g>
<!-- Node4 -->
<g id="node5" class="node">
<title>Node4</title>
<g id="a_node5"><a xlink:href="../../d6/d31/DetID_8h.html" target="_top" xlink:title="DetectorsCommonDataFormats\l/DetID.h">
<polygon fill="none" stroke="#000000" points="223,-224.5 223,-254.5 394,-254.5 394,-224.5 223,-224.5"/>
<text text-anchor="start" x="231" y="-242.5" font-family="Helvetica,sans-Serif" font-size="10.00" fill="#000000">DetectorsCommonDataFormats</text>
<text text-anchor="middle" x="308.5" y="-231.5" font-family="Helvetica,sans-Serif" font-size="10.00" fill="#000000">/DetID.h</text>
</a>
</g>
</g>
<!-- Node1&#45;&gt;Node4 -->
<g id="edge4" class="edge">
<title>Node1&#45;&gt;Node4</title>
<path fill="none" stroke="#191970" d="M135.5456,-291.4639C168.9983,-281.4131 213.184,-268.1375 248.5204,-257.5208"/>
<polygon fill="#191970" stroke="#191970" points="249.6662,-260.8312 258.2362,-254.6017 247.652,-254.1272 249.6662,-260.8312"/>
</g>
<!-- Node4&#45;&gt;Node2 -->
<g id="edge5" class="edge">
<title>Node4&#45;&gt;Node2</title>
<path fill="none" stroke="#191970" d="M253.9481,-224.4554C214.1636,-213.4835 161.1565,-198.8649 125.3113,-188.9793"/>
<polygon fill="#191970" stroke="#191970" points="125.7977,-185.4829 115.227,-186.1983 123.9366,-192.231 125.7977,-185.4829"/>
</g>
<!-- Node4&#45;&gt;Node3 -->
<g id="edge11" class="edge">
<title>Node4&#45;&gt;Node3</title>
<path fill="none" stroke="#191970" d="M262.4826,-224.4828C236.3618,-215.2734 203.4113,-202.4856 175.5,-188 147.0397,-173.2295 116.6946,-152.1054 97.2143,-137.7634"/>
<polygon fill="#191970" stroke="#191970" points="99.1842,-134.8665 89.0742,-131.6982 95.0018,-140.4797 99.1842,-134.8665"/>
</g>
<!-- Node5 -->
<g id="node6" class="node">
<title>Node5</title>
<polygon fill="none" stroke="#bfbfbf" points="1240.5,-112.5 1240.5,-131.5 1282.5,-131.5 1282.5,-112.5 1240.5,-112.5"/>
<text text-anchor="middle" x="1261.5" y="-119.5" font-family="Helvetica,sans-Serif" font-size="10.00" fill="#000000">array</text>
</g>
<!-- Node4&#45;&gt;Node5 -->
<g id="edge6" class="edge">
<title>Node4&#45;&gt;Node5</title>
<path fill="none" stroke="#191970" d="M394.3068,-236.3272C592.6187,-228.689 1071.1812,-208.3953 1141.5,-188 1178.7948,-177.183 1217.3444,-153.3055 1240.3685,-137.4344"/>
<polygon fill="#191970" stroke="#191970" points="1242.5141,-140.2043 1248.6774,-131.5866 1238.4853,-134.4799 1242.5141,-140.2043"/>
</g>
<!-- Node6 -->
<g id="node7" class="node">
<title>Node6</title>
<polygon fill="none" stroke="#bfbfbf" points="209.5,-168.5 209.5,-187.5 253.5,-187.5 253.5,-168.5 209.5,-168.5"/>
<text text-anchor="middle" x="231.5" y="-175.5" font-family="Helvetica,sans-Serif" font-size="10.00" fill="#000000">bitset</text>
</g>
<!-- Node4&#45;&gt;Node6 -->
<g id="edge7" class="edge">
<title>Node4&#45;&gt;Node6</title>
<path fill="none" stroke="#191970" d="M289.4663,-224.2977C277.9985,-215.1384 263.4038,-203.4816 251.7281,-194.1562"/>
<polygon fill="#191970" stroke="#191970" points="253.8266,-191.3529 243.8287,-187.8469 249.4581,-196.8225 253.8266,-191.3529"/>
</g>
<!-- Node7 -->
<g id="node8" class="node">
<title>Node7</title>
<polygon fill="none" stroke="#bfbfbf" points="748.5,-112.5 748.5,-131.5 800.5,-131.5 800.5,-112.5 748.5,-112.5"/>
<text text-anchor="middle" x="774.5" y="-119.5" font-family="Helvetica,sans-Serif" font-size="10.00" fill="#000000">cassert</text>
</g>
<!-- Node4&#45;&gt;Node7 -->
<g id="edge8" class="edge">
<title>Node4&#45;&gt;Node7</title>
<path fill="none" stroke="#191970" d="M394.1103,-227.0355C449.2308,-218.1645 522.1559,-204.8437 585.5,-188 641.308,-173.1602 704.2885,-149.7814 741.6225,-135.1989"/>
<polygon fill="#191970" stroke="#191970" points="742.9687,-138.4304 750.9933,-131.5126 740.4062,-131.9163 742.9687,-138.4304"/>
</g>
<!-- Node8 -->
<g id="node9" class="node">
<title>Node8</title>
<polygon fill="none" stroke="#bfbfbf" points="116.5,-112.5 116.5,-131.5 166.5,-131.5 166.5,-112.5 116.5,-112.5"/>
<text text-anchor="middle" x="141.5" y="-119.5" font-family="Helvetica,sans-Serif" font-size="10.00" fill="#000000">cstdint</text>
</g>
<!-- Node4&#45;&gt;Node8 -->
<g id="edge9" class="edge">
<title>Node4&#45;&gt;Node8</title>
<path fill="none" stroke="#191970" d="M267.3748,-224.4333C246.2581,-215.6071 220.7795,-203.1984 200.5,-188 182.1673,-174.2606 165.1804,-154.1445 154.1875,-139.7359"/>
<polygon fill="#191970" stroke="#191970" points="156.9283,-137.5559 148.1591,-131.6102 151.3065,-141.7267 156.9283,-137.5559"/>
</g>
<!-- Node9 -->
<g id="node10" class="node">
<title>Node9</title>
<polygon fill="none" stroke="#bfbfbf" points="272,-168.5 272,-187.5 345,-187.5 345,-168.5 272,-168.5"/>
<text text-anchor="middle" x="308.5" y="-175.5" font-family="Helvetica,sans-Serif" font-size="10.00" fill="#000000">string_view</text>
</g>
<!-- Node4&#45;&gt;Node9 -->
<g id="edge10" class="edge">
<title>Node4&#45;&gt;Node9</title>
<path fill="none" stroke="#191970" d="M308.5,-224.2977C308.5,-216.3834 308.5,-206.6043 308.5,-198.0759"/>
<polygon fill="#191970" stroke="#191970" points="312.0001,-197.8469 308.5,-187.8469 305.0001,-197.847 312.0001,-197.8469"/>
</g>
<!-- Node10 -->
<g id="node11" class="node">
<title>Node10</title>
<polygon fill="none" stroke="#bfbfbf" points="363,-168.5 363,-187.5 432,-187.5 432,-168.5 363,-168.5"/>
<text text-anchor="middle" x="397.5" y="-175.5" font-family="Helvetica,sans-Serif" font-size="10.00" fill="#000000">type_traits</text>
</g>
<!-- Node4&#45;&gt;Node10 -->
<g id="edge12" class="edge">
<title>Node4&#45;&gt;Node10</title>
<path fill="none" stroke="#191970" d="M330.5,-224.2977C344.0968,-214.9022 361.4966,-202.8787 375.1567,-193.4395"/>
<polygon fill="#191970" stroke="#191970" points="377.2785,-196.2276 383.5158,-187.6633 373.2991,-190.4688 377.2785,-196.2276"/>
</g>
<!-- Node11 -->
<g id="node12" class="node">
<title>Node11</title>
<g id="a_node12"><a xlink:href="../../d9/d52/Common_2MathUtils_2include_2MathUtils_2Utils_8h.html" target="_top" xlink:title="MathUtils/Utils.h">
<polygon fill="none" stroke="#000000" points="1034.5,-168.5 1034.5,-187.5 1132.5,-187.5 1132.5,-168.5 1034.5,-168.5"/>
<text text-anchor="middle" x="1083.5" y="-175.5" font-family="Helvetica,sans-Serif" font-size="10.00" fill="#000000">MathUtils/Utils.h</text>
</a>
</g>
</g>
<!-- Node4&#45;&gt;Node11 -->
<g id="edge13" class="edge">
<title>Node4&#45;&gt;Node11</title>
<path fill="none" stroke="#191970" d="M394.0273,-232.713C552.4799,-220.139 887.9209,-193.5202 1024.1369,-182.7108"/>
<polygon fill="#191970" stroke="#191970" points="1024.679,-186.1788 1034.3707,-181.8986 1024.1252,-179.2008 1024.679,-186.1788"/>
</g>
<!-- Node19 -->
<g id="node20" class="node">
<title>Node19</title>
<g id="a_node20"><a xlink:href="../../dc/dcd/DataHeader_8h.html" target="_top" xlink:title="Headers/DataHeader.h">
<polygon fill="none" stroke="#000000" points="450,-168.5 450,-187.5 577,-187.5 577,-168.5 450,-168.5"/>
<text text-anchor="middle" x="513.5" y="-175.5" font-family="Helvetica,sans-Serif" font-size="10.00" fill="#000000">Headers/DataHeader.h</text>
</a>
</g>
</g>
<!-- Node4&#45;&gt;Node19 -->
<g id="edge24" class="edge">
<title>Node4&#45;&gt;Node19</title>
<path fill="none" stroke="#191970" d="M358.6486,-224.4554C393.4535,-214.0139 439.2667,-200.27 472.0151,-190.4455"/>
<polygon fill="#191970" stroke="#191970" points="473.1598,-193.7563 481.7323,-187.5303 471.1483,-187.0515 473.1598,-193.7563"/>
</g>
<!-- Node11&#45;&gt;Node5 -->
<g id="edge14" class="edge">
<title>Node11&#45;&gt;Node5</title>
<path fill="none" stroke="#191970" d="M1114.0993,-168.3733C1146.6579,-158.1301 1197.8856,-142.0135 1230.57,-131.7308"/>
<polygon fill="#191970" stroke="#191970" points="1231.9943,-134.9519 1240.483,-128.6121 1229.8935,-128.2745 1231.9943,-134.9519"/>
</g>
<!-- Node12 -->
<g id="node13" class="node">
<title>Node12</title>
<polygon fill="none" stroke="#bfbfbf" points="1128,-56.5 1128,-75.5 1175,-75.5 1175,-56.5 1128,-56.5"/>
<text text-anchor="middle" x="1151.5" y="-63.5" font-family="Helvetica,sans-Serif" font-size="10.00" fill="#000000">cmath</text>
</g>
<!-- Node11&#45;&gt;Node12 -->
<g id="edge15" class="edge">
<title>Node11&#45;&gt;Node12</title>
<path fill="none" stroke="#191970" d="M1132.5742,-168.9429C1153.5171,-162.3858 1175.9776,-151.1574 1188.5,-132 1199.1731,-115.6718 1185.0136,-96.0785 1171.2398,-82.5024"/>
<polygon fill="#191970" stroke="#191970" points="1173.514,-79.8387 1163.7875,-75.6381 1168.7716,-84.9874 1173.514,-79.8387"/>
</g>
<!-- Node13 -->
<g id="node14" class="node">
<title>Node13</title>
<g id="a_node14"><a xlink:href="../../df/d21/GPUCommonDef_8h.html" target="_top" xlink:title="GPUCommonDef.h">
<polygon fill="none" stroke="#000000" points="883,-56.5 883,-75.5 990,-75.5 990,-56.5 883,-56.5"/>
<text text-anchor="middle" x="936.5" y="-63.5" font-family="Helvetica,sans-Serif" font-size="10.00" fill="#000000">GPUCommonDef.h</text>
</a>
</g>
</g>
<!-- Node11&#45;&gt;Node13 -->
<g id="edge16" class="edge">
<title>Node11&#45;&gt;Node13</title>
<path fill="none" stroke="#191970" d="M1108.086,-168.4491C1135.5108,-156.3979 1173.7753,-134.5127 1155.5,-112 1136.2125,-88.2404 1057.7262,-76.3031 1000.2068,-70.6355"/>
<polygon fill="#191970" stroke="#191970" points="1000.3748,-67.1359 990.0903,-69.6812 999.7173,-74.1049 1000.3748,-67.1359"/>
</g>
<!-- Node16 -->
<g id="node17" class="node">
<title>Node16</title>
<g id="a_node17"><a xlink:href="../../d6/da2/GPUCommonMath_8h.html" target="_top" xlink:title="GPUCommonMath.h">
<polygon fill="none" stroke="#000000" points="819,-112.5 819,-131.5 934,-131.5 934,-112.5 819,-112.5"/>
<text text-anchor="middle" x="876.5" y="-119.5" font-family="Helvetica,sans-Serif" font-size="10.00" fill="#000000">GPUCommonMath.h</text>
</a>
</g>
</g>
<!-- Node11&#45;&gt;Node16 -->
<g id="edge19" class="edge">
<title>Node11&#45;&gt;Node16</title>
<path fill="none" stroke="#191970" d="M1047.9154,-168.3733C1012.8984,-158.9001 959.3119,-144.4032 921.3875,-134.1435"/>
<polygon fill="#191970" stroke="#191970" points="922.1873,-130.7341 911.6202,-131.5011 920.3592,-137.4912 922.1873,-130.7341"/>
</g>
<!-- Node18 -->
<g id="node19" class="node">
<title>Node18</title>
<g id="a_node19"><a xlink:href="../../d6/d84/MathConstants_8h.html" target="_top" xlink:title="useful math constants ">
<polygon fill="none" stroke="#000000" points="952.5,-112.5 952.5,-131.5 1146.5,-131.5 1146.5,-112.5 952.5,-112.5"/>
<text text-anchor="middle" x="1049.5" y="-119.5" font-family="Helvetica,sans-Serif" font-size="10.00" fill="#000000">CommonConstants/MathConstants.h</text>
</a>
</g>
</g>
<!-- Node11&#45;&gt;Node18 -->
<g id="edge23" class="edge">
<title>Node11&#45;&gt;Node18</title>
<path fill="none" stroke="#191970" d="M1077.5777,-168.2455C1072.8973,-160.5367 1066.2327,-149.5598 1060.5711,-140.2348"/>
<polygon fill="#191970" stroke="#191970" points="1063.5361,-138.3741 1055.3545,-131.6427 1057.5525,-142.007 1063.5361,-138.3741"/>
</g>
<!-- Node14 -->
<g id="node15" class="node">
<title>Node14</title>
<g id="a_node15"><a xlink:href="../../d5/d93/GPUCommonDefSettings_8h.html" target="_top" xlink:title="GPUCommonDefSettings.h">
<polygon fill="none" stroke="#000000" points="785.5,-.5 785.5,-19.5 933.5,-19.5 933.5,-.5 785.5,-.5"/>
<text text-anchor="middle" x="859.5" y="-7.5" font-family="Helvetica,sans-Serif" font-size="10.00" fill="#000000">GPUCommonDefSettings.h</text>
</a>
</g>
</g>
<!-- Node13&#45;&gt;Node14 -->
<g id="edge17" class="edge">
<title>Node13&#45;&gt;Node14</title>
<path fill="none" stroke="#191970" d="M923.0876,-56.2455C911.4943,-47.814 894.5252,-35.4729 881.0322,-25.6598"/>
<polygon fill="#191970" stroke="#191970" points="882.9047,-22.6938 872.7587,-19.6427 878.7874,-28.355 882.9047,-22.6938"/>
</g>
<!-- Node15 -->
<g id="node16" class="node">
<title>Node15</title>
<g id="a_node16"><a xlink:href="../../da/d5a/GPUCommonDefAPI_8h.html" target="_top" xlink:title="GPUCommonDefAPI.h">
<polygon fill="none" stroke="#000000" points="951.5,-.5 951.5,-19.5 1075.5,-19.5 1075.5,-.5 951.5,-.5"/>
<text text-anchor="middle" x="1013.5" y="-7.5" font-family="Helvetica,sans-Serif" font-size="10.00" fill="#000000">GPUCommonDefAPI.h</text>
</a>
</g>
</g>
<!-- Node13&#45;&gt;Node15 -->
<g id="edge18" class="edge">
<title>Node13&#45;&gt;Node15</title>
<path fill="none" stroke="#191970" d="M949.9124,-56.2455C961.5057,-47.814 978.4748,-35.4729 991.9678,-25.6598"/>
<polygon fill="#191970" stroke="#191970" points="994.2126,-28.355 1000.2413,-19.6427 990.0953,-22.6938 994.2126,-28.355"/>
</g>
<!-- Node16&#45;&gt;Node12 -->
<g id="edge21" class="edge">
<title>Node16&#45;&gt;Node12</title>
<path fill="none" stroke="#191970" d="M923.4617,-112.4369C978.7711,-101.1739 1069.2641,-82.7462 1117.962,-72.8296"/>
<polygon fill="#191970" stroke="#191970" points="1118.8757,-76.2154 1127.9761,-70.7903 1117.4788,-69.3562 1118.8757,-76.2154"/>
</g>
<!-- Node16&#45;&gt;Node13 -->
<g id="edge20" class="edge">
<title>Node16&#45;&gt;Node13</title>
<path fill="none" stroke="#191970" d="M886.9512,-112.2455C895.7269,-104.0549 908.4554,-92.1749 918.814,-82.5069"/>
<polygon fill="#191970" stroke="#191970" points="921.2461,-85.0246 926.1686,-75.6427 916.4699,-79.9072 921.2461,-85.0246"/>
</g>
<!-- Node17 -->
<g id="node18" class="node">
<title>Node17</title>
<polygon fill="none" stroke="#bfbfbf" points="774.5,-56.5 774.5,-75.5 838.5,-75.5 838.5,-56.5 774.5,-56.5"/>
<text text-anchor="middle" x="806.5" y="-63.5" font-family="Helvetica,sans-Serif" font-size="10.00" fill="#000000">algorithm</text>
</g>
<!-- Node16&#45;&gt;Node17 -->
<g id="edge22" class="edge">
<title>Node16&#45;&gt;Node17</title>
<path fill="none" stroke="#191970" d="M864.3069,-112.2455C853.8679,-103.8943 838.6345,-91.7076 826.426,-81.9408"/>
<polygon fill="#191970" stroke="#191970" points="828.5485,-79.1566 818.5533,-75.6427 824.1756,-84.6227 828.5485,-79.1566"/>
</g>
<!-- Node19&#45;&gt;Node3 -->
<g id="edge31" class="edge">
<title>Node19&#45;&gt;Node3</title>
<path fill="none" stroke="#191970" d="M449.8126,-169.1671C446.6648,-168.7646 443.5473,-168.3734 440.5,-168 295.917,-150.2854 254.8496,-162.4632 108.4978,-131.8424"/>
<polygon fill="#191970" stroke="#191970" points="109.2123,-128.4161 98.7034,-129.7628 107.7584,-135.2635 109.2123,-128.4161"/>
</g>
<!-- Node19&#45;&gt;Node7 -->
<g id="edge27" class="edge">
<title>Node19&#45;&gt;Node7</title>
<path fill="none" stroke="#191970" d="M562.3403,-168.414C607.2026,-159.4713 675.4784,-145.5146 734.5,-132 735.756,-131.7124 737.0331,-131.4158 738.3221,-131.1129"/>
<polygon fill="#191970" stroke="#191970" points="739.384,-134.4573 748.2858,-128.712 737.7441,-127.6521 739.384,-134.4573"/>
</g>
<!-- Node19&#45;&gt;Node8 -->
<g id="edge25" class="edge">
<title>Node19&#45;&gt;Node8</title>
<path fill="none" stroke="#191970" d="M449.7993,-169.2696C446.655,-168.84 443.5419,-168.415 440.5,-168 325.9514,-152.3736 293.495,-156.5873 176.6966,-131.998"/>
<polygon fill="#191970" stroke="#191970" points="177.1524,-128.5166 166.6425,-129.8548 175.693,-135.3628 177.1524,-128.5166"/>
</g>
<!-- Node19&#45;&gt;Node17 -->
<g id="edge29" class="edge">
<title>Node19&#45;&gt;Node17</title>
<path fill="none" stroke="#191970" d="M572.3048,-168.4759C609.9191,-161.1944 659.2196,-149.4069 700.5,-132 717.3857,-124.8797 758.2,-98.3783 783.9726,-81.2005"/>
<polygon fill="#191970" stroke="#191970" points="786.0348,-84.0319 792.3975,-75.5603 782.1406,-78.215 786.0348,-84.0319"/>
</g>
<!-- Node20 -->
<g id="node21" class="node">
<title>Node20</title>
<polygon fill="none" stroke="#bfbfbf" points="184.5,-112.5 184.5,-131.5 242.5,-131.5 242.5,-112.5 184.5,-112.5"/>
<text text-anchor="middle" x="213.5" y="-119.5" font-family="Helvetica,sans-Serif" font-size="10.00" fill="#000000">memory</text>
</g>
<!-- Node19&#45;&gt;Node20 -->
<g id="edge26" class="edge">
<title>Node19&#45;&gt;Node20</title>
<path fill="none" stroke="#191970" d="M450.7463,-168.4924C399.7778,-160.4256 325.8539,-147.9467 252.7405,-132.1445"/>
<polygon fill="#191970" stroke="#191970" points="253.4161,-128.7096 242.8997,-129.9961 251.923,-135.5486 253.4161,-128.7096"/>
</g>
<!-- Node21 -->
<g id="node22" class="node">
<title>Node21</title>
<polygon fill="none" stroke="#bfbfbf" points="260.5,-112.5 260.5,-131.5 310.5,-131.5 310.5,-112.5 260.5,-112.5"/>
<text text-anchor="middle" x="285.5" y="-119.5" font-family="Helvetica,sans-Serif" font-size="10.00" fill="#000000">cstring</text>
</g>
<!-- Node19&#45;&gt;Node21 -->
<g id="edge28" class="edge">
<title>Node19&#45;&gt;Node21</title>
<path fill="none" stroke="#191970" d="M470.1861,-168.4241C432.9171,-160.0291 377.4955,-147.1767 320.5958,-132.1973"/>
<polygon fill="#191970" stroke="#191970" points="321.272,-128.7558 310.709,-129.5767 319.4785,-135.5221 321.272,-128.7558"/>
</g>
<!-- Node22 -->
<g id="node23" class="node">
<title>Node22</title>
<polygon fill="none" stroke="#bfbfbf" points="329,-112.5 329,-131.5 394,-131.5 394,-112.5 329,-112.5"/>
<text text-anchor="middle" x="361.5" y="-119.5" font-family="Helvetica,sans-Serif" font-size="10.00" fill="#000000">stdexcept</text>
</g>
<!-- Node19&#45;&gt;Node22 -->
<g id="edge30" class="edge">
<title>Node19&#45;&gt;Node22</title>
<path fill="none" stroke="#191970" d="M487.3703,-168.3733C462.4232,-159.1822 424.6408,-145.2624 396.9794,-135.0713"/>
<polygon fill="#191970" stroke="#191970" points="397.8822,-131.674 387.2888,-131.5011 395.4622,-138.2424 397.8822,-131.674"/>
</g>
<!-- Node23 -->
<g id="node24" class="node">
<title>Node23</title>
<polygon fill="none" stroke="#bfbfbf" points="412.5,-112.5 412.5,-131.5 462.5,-131.5 462.5,-112.5 412.5,-112.5"/>
<text text-anchor="middle" x="437.5" y="-119.5" font-family="Helvetica,sans-Serif" font-size="10.00" fill="#000000">climits</text>
</g>
<!-- Node19&#45;&gt;Node23 -->
<g id="edge32" class="edge">
<title>Node19&#45;&gt;Node23</title>
<path fill="none" stroke="#191970" d="M500.2618,-168.2455C488.819,-159.814 472.0704,-147.4729 458.7525,-137.6598"/>
<polygon fill="#191970" stroke="#191970" points="460.7133,-134.757 450.5865,-131.6427 456.5609,-140.3924 460.7133,-134.757"/>
</g>
<!-- Node24 -->
<g id="node25" class="node">
<title>Node24</title>
<g id="a_node25"><a xlink:href="../../d7/df8/Types_8h.html" target="_top" xlink:title="MemoryResources/Types.h">
<polygon fill="none" stroke="#000000" points="480.5,-112.5 480.5,-131.5 626.5,-131.5 626.5,-112.5 480.5,-112.5"/>
<text text-anchor="middle" x="553.5" y="-119.5" font-family="Helvetica,sans-Serif" font-size="10.00" fill="#000000">MemoryResources/Types.h</text>
</a>
</g>
</g>
<!-- Node19&#45;&gt;Node24 -->
<g id="edge33" class="edge">
<title>Node19&#45;&gt;Node24</title>
<path fill="none" stroke="#191970" d="M520.4675,-168.2455C526.0311,-160.4564 533.978,-149.3308 540.6829,-139.9439"/>
<polygon fill="#191970" stroke="#191970" points="543.648,-141.8144 546.6124,-131.6427 537.9519,-137.7457 543.648,-141.8144"/>
</g>
<!-- Node25 -->
<g id="node26" class="node">
<title>Node25</title>
<polygon fill="none" stroke="#bfbfbf" points="645,-112.5 645,-131.5 692,-131.5 692,-112.5 645,-112.5"/>
<text text-anchor="middle" x="668.5" y="-119.5" font-family="Helvetica,sans-Serif" font-size="10.00" fill="#000000">cerrno</text>
</g>
<!-- Node19&#45;&gt;Node25 -->
<g id="edge34" class="edge">
<title>Node19&#45;&gt;Node25</title>
<path fill="none" stroke="#191970" d="M540.1454,-168.3733C566.4707,-158.8622 606.8121,-144.2872 635.2286,-134.0207"/>
<polygon fill="#191970" stroke="#191970" points="636.5242,-137.274 644.7399,-130.5843 634.1456,-130.6905 636.5242,-137.274"/>
</g>
</g>
</svg>
