<?xml version="1.0" encoding="UTF-8" standalone="no"?>
<!DOCTYPE svg PUBLIC "-//W3C//DTD SVG 1.1//EN"
 "http://www.w3.org/Graphics/SVG/1.1/DTD/svg11.dtd">
<!-- Generated by graphviz version 2.40.1 (20161225.0304)
 -->
<!-- Title: GPUCA_NAMESPACE::gpu::GPUTPCTracker::commonMemoryStruct Pages: 1 -->
<svg width="275pt" height="270pt"
 viewBox="0.00 0.00 274.50 270.00" xmlns="http://www.w3.org/2000/svg" xmlns:xlink="http://www.w3.org/1999/xlink">
<g id="graph0" class="graph" transform="scale(1 1) rotate(0) translate(4 266)">
<title>GPUCA_NAMESPACE::gpu::GPUTPCTracker::commonMemoryStruct</title>
<!-- Node1 -->
<g id="node1" class="node">
<title>Node1</title>
<polygon fill="#bfbfbf" stroke="#000000" points="0,-.5 0,-134.5 186,-134.5 186,-.5 0,-.5"/>
<text text-anchor="start" x="8" y="-122.5" font-family="Helvetica,sans-Serif" font-size="10.00" fill="#000000">GPUCA_NAMESPACE::gpu</text>
<text text-anchor="start" x="8" y="-111.5" font-family="Helvetica,sans-Serif" font-size="10.00" fill="#000000">::GPUTPCTracker::commonMemory</text>
<text text-anchor="middle" x="93" y="-100.5" font-family="Helvetica,sans-Serif" font-size="10.00" fill="#000000">Struct</text>
<polyline fill="none" stroke="#000000" points="0,-93.5 186,-93.5 "/>
<text text-anchor="middle" x="93" y="-81.5" font-family="Helvetica,sans-Serif" font-size="10.00" fill="#000000"> </text>
<polyline fill="none" stroke="#000000" points="0,-74.5 186,-74.5 "/>
<text text-anchor="start" x="8" y="-62.5" font-family="Helvetica,sans-Serif" font-size="10.00" fill="#000000">+ commonMemoryStruct()</text>
<text text-anchor="start" x="8" y="-51.5" font-family="Helvetica,sans-Serif" font-size="10.00" fill="#000000">+ GPUAtomic()</text>
<text text-anchor="start" x="8" y="-40.5" font-family="Helvetica,sans-Serif" font-size="10.00" fill="#000000">+ GPUAtomic()</text>
<text text-anchor="start" x="8" y="-29.5" font-family="Helvetica,sans-Serif" font-size="10.00" fill="#000000">+ GPUAtomic()</text>
<text text-anchor="start" x="8" y="-18.5" font-family="Helvetica,sans-Serif" font-size="10.00" fill="#000000">+ GPUAtomic()</text>
<text text-anchor="start" x="8" y="-7.5" font-family="Helvetica,sans-Serif" font-size="10.00" fill="#000000">+ GPUAtomic()</text>
</g>
<!-- Node2 -->
<g id="node2" class="node">
<title>Node2</title>
<polygon fill="none" stroke="#bfbfbf" points="10.5,-199 10.5,-256 39.5,-256 39.5,-199 10.5,-199"/>
<text text-anchor="middle" x="25" y="-244" font-family="Helvetica,sans-Serif" font-size="10.00" fill="#000000">int</text>
<polyline fill="none" stroke="#bfbfbf" points="10.5,-237 39.5,-237 "/>
<text text-anchor="middle" x="25" y="-225" font-family="Helvetica,sans-Serif" font-size="10.00" fill="#000000"> </text>
<polyline fill="none" stroke="#bfbfbf" points="10.5,-218 39.5,-218 "/>
<text text-anchor="middle" x="25" y="-206" font-family="Helvetica,sans-Serif" font-size="10.00" fill="#000000"> </text>
</g>
<!-- Node2&#45;&gt;Node1 -->
<g id="edge1" class="edge">
<title>Node2&#45;&gt;Node1</title>
<path fill="none" stroke="#404040" d="M36.3032,-198.7467C41.8264,-184.875 48.6393,-168.0226 55,-153 55.9896,-150.6628 57,-148.2924 58.0249,-145.9015"/>
<polygon fill="none" stroke="#404040" points="58.1435,-145.6268 56.8519,-138.5323 62.9039,-134.6114 64.1955,-141.7059 58.1435,-145.6268"/>
<text text-anchor="middle" x="97.5" y="-167" font-family="Helvetica,sans-Serif" font-size="10.00" fill="#000000"> +nLocalTracks</text>
<text text-anchor="middle" x="97.5" y="-156" font-family="Helvetica,sans-Serif" font-size="10.00" fill="#000000">+nLocalTrackHits</text>
</g>
<!-- Node3 -->
<g id="node3" class="node">
<title>Node3</title>
<g id="a_node3"><a xlink:href="../../dc/d20/structGPUCA__NAMESPACE_1_1gpu_1_1GPUTPCTracker_1_1StructGPUParameters.html" target="_top" xlink:title="{GPUCA_NAMESPACE::gpu\l::GPUTPCTracker::StructGPUParameters\n||+ GPUAtomic()\l}">
<polygon fill="none" stroke="#000000" points="57.5,-193.5 57.5,-261.5 266.5,-261.5 266.5,-193.5 57.5,-193.5"/>
<text text-anchor="start" x="65.5" y="-249.5" font-family="Helvetica,sans-Serif" font-size="10.00" fill="#000000">GPUCA_NAMESPACE::gpu</text>
<text text-anchor="middle" x="162" y="-238.5" font-family="Helvetica,sans-Serif" font-size="10.00" fill="#000000">::GPUTPCTracker::StructGPUParameters</text>
<polyline fill="none" stroke="#000000" points="57.5,-231.5 266.5,-231.5 "/>
<text text-anchor="middle" x="162" y="-219.5" font-family="Helvetica,sans-Serif" font-size="10.00" fill="#000000"> </text>
<polyline fill="none" stroke="#000000" points="57.5,-212.5 266.5,-212.5 "/>
<text text-anchor="start" x="65.5" y="-200.5" font-family="Helvetica,sans-Serif" font-size="10.00" fill="#000000">+ GPUAtomic()</text>
</a>
</g>
</g>
<!-- Node3&#45;&gt;Node1 -->
<g id="edge2" class="edge">
<title>Node3&#45;&gt;Node1</title>
<path fill="none" stroke="#404040" d="M153.5446,-193.2152C149.9488,-180.3861 145.3437,-165.8218 140,-153 138.9676,-150.5228 137.8829,-148.0248 136.7565,-145.5179"/>
<polygon fill="none" stroke="#404040" points="136.6861,-145.368 130.5139,-141.6392 131.5819,-134.5076 137.7541,-138.2365 136.6861,-145.368"/>
<text text-anchor="middle" x="189.5" y="-161.5" font-family="Helvetica,sans-Serif" font-size="10.00" fill="#000000"> +gpuParameters</text>
</g>
</g>
</svg>
