<?xml version="1.0" encoding="UTF-8" standalone="no"?>
<!DOCTYPE svg PUBLIC "-//W3C//DTD SVG 1.1//EN"
 "http://www.w3.org/Graphics/SVG/1.1/DTD/svg11.dtd">
<!-- Generated by graphviz version 2.40.1 (20161225.0304)
 -->
<!-- Title: /home/travis/build/AliceO2Group/AliceO2/GPU/GPUTracking/TPCClusterFinder/GPUTPCClusterFinder.h Pages: 1 -->
<!--zoomable 417 -->
<svg id="main" version="1.1" xmlns="http://www.w3.org/2000/svg" xmlns:xlink="http://www.w3.org/1999/xlink" xml:space="preserve" onload="init(evt)">
<style type="text/css"><![CDATA[
.edge:hover path { stroke: red; }
.edge:hover polygon { stroke: red; fill: red; }
]]></style>
<script type="text/javascript"><![CDATA[
var edges = document.getElementsByTagName('g');
if (edges && edges.length) {
  for (var i=0;i<edges.length;i++) {
    if (edges[i].id.substr(0,4)=='edge') {
      edges[i].setAttribute('class','edge');
    }
  }
}
]]></script>
        <defs>
                <circle id="rim" cx="0" cy="0" r="7"/>
                <circle id="rim2" cx="0" cy="0" r="3.5"/>
                <g id="zoomPlus">
                        <use xlink:href="#rim" fill="#404040">
                                <set attributeName="fill" to="#808080" begin="zoomplus.mouseover" end="zoomplus.mouseout"/>
                        </use>
                        <path d="M-4,0h8M0,-4v8" fill="none" stroke="white" stroke-width="1.5" pointer-events="none"/>
                </g>
                <g id="zoomMin">
                        <use xlink:href="#rim" fill="#404040">
                                <set attributeName="fill" to="#808080" begin="zoomminus.mouseover" end="zoomminus.mouseout"/>
                        </use>
                        <path d="M-4,0h8" fill="none" stroke="white" stroke-width="1.5" pointer-events="none"/>
                </g>
                <g id="dirArrow">
                        <path fill="none" stroke="white" stroke-width="1.5" d="M0,-3.0v7 M-2.5,-0.5L0,-3.0L2.5,-0.5"/>
                </g>
               <g id="resetDef">
                       <use xlink:href="#rim2" fill="#404040">
                               <set attributeName="fill" to="#808080" begin="reset.mouseover" end="reset.mouseout"/>
                       </use>
               </g>
        </defs>

<script type="text/javascript">
var viewWidth = 2289;
var viewHeight = 417;
var sectionId = 'dynsection-1';
</script>
<script xlink:href="../../svgpan.js"/>
<svg id="graph" class="graph">
<g id="viewport">
<title>/home/travis/build/AliceO2Group/AliceO2/GPU/GPUTracking/TPCClusterFinder/GPUTPCClusterFinder.h</title>
<!-- Node19 -->
<g id="node1" class="node">
<title>Node19</title>
<polygon fill="#bfbfbf" stroke="#000000" points="1045,-356.5 1045,-408.5 1236,-408.5 1236,-356.5 1045,-356.5"/>
<text text-anchor="start" x="1053" y="-396.5" font-family="Helvetica,sans-Serif" font-size="10.00" fill="#000000">/home/travis/build</text>
<text text-anchor="start" x="1053" y="-385.5" font-family="Helvetica,sans-Serif" font-size="10.00" fill="#000000">/AliceO2Group/AliceO2</text>
<text text-anchor="start" x="1053" y="-374.5" font-family="Helvetica,sans-Serif" font-size="10.00" fill="#000000">/GPU/GPUTracking/TPCClusterFinder</text>
<text text-anchor="middle" x="1140.5" y="-363.5" font-family="Helvetica,sans-Serif" font-size="10.00" fill="#000000">/GPUTPCClusterFinder.h</text>
</g>
<!-- Node20 -->
<g id="node2" class="node">
<title>Node20</title>
<g id="a_node2"><a xlink:href="../../dc/d10/GPUTPCCFChargeMapFiller_8h.html" target="_top" xlink:title="/home/travis/build\l/AliceO2Group/AliceO2\l/GPU/GPUTracking/TPCClusterFinder\l/GPUTPCCFChargeMapFiller.h">
<polygon fill="none" stroke="#000000" points="0,-267.5 0,-319.5 191,-319.5 191,-267.5 0,-267.5"/>
<text text-anchor="start" x="8" y="-307.5" font-family="Helvetica,sans-Serif" font-size="10.00" fill="#000000">/home/travis/build</text>
<text text-anchor="start" x="8" y="-296.5" font-family="Helvetica,sans-Serif" font-size="10.00" fill="#000000">/AliceO2Group/AliceO2</text>
<text text-anchor="start" x="8" y="-285.5" font-family="Helvetica,sans-Serif" font-size="10.00" fill="#000000">/GPU/GPUTracking/TPCClusterFinder</text>
<text text-anchor="middle" x="95.5" y="-274.5" font-family="Helvetica,sans-Serif" font-size="10.00" fill="#000000">/GPUTPCCFChargeMapFiller.h</text>
</a>
</g>
</g>
<!-- Node19&#45;&gt;Node20 -->
<g id="edge1" class="edge">
<title>Node19&#45;&gt;Node20</title>
<path fill="none" stroke="#191970" d="M1034.7075,-377.9197C823.8029,-368.3857 357.6907,-345.1896 199.5,-320 196.7399,-319.5605 193.9462,-319.0815 191.1323,-318.5692"/>
<polygon fill="#191970" stroke="#191970" points="1034.7144,-381.4235 1044.8618,-378.3771 1035.0294,-374.4306 1034.7144,-381.4235"/>
</g>
<!-- Node29 -->
<g id="node11" class="node">
<title>Node29</title>
<g id="a_node11"><a xlink:href="../../d7/d30/GPUTPCCFNoiseSuppression_8h.html" target="_top" xlink:title="/home/travis/build\l/AliceO2Group/AliceO2\l/GPU/GPUTracking/TPCClusterFinder\l/GPUTPCCFNoiseSuppression.h">
<polygon fill="none" stroke="#000000" points="209,-267.5 209,-319.5 400,-319.5 400,-267.5 209,-267.5"/>
<text text-anchor="start" x="217" y="-307.5" font-family="Helvetica,sans-Serif" font-size="10.00" fill="#000000">/home/travis/build</text>
<text text-anchor="start" x="217" y="-296.5" font-family="Helvetica,sans-Serif" font-size="10.00" fill="#000000">/AliceO2Group/AliceO2</text>
<text text-anchor="start" x="217" y="-285.5" font-family="Helvetica,sans-Serif" font-size="10.00" fill="#000000">/GPU/GPUTracking/TPCClusterFinder</text>
<text text-anchor="middle" x="304.5" y="-274.5" font-family="Helvetica,sans-Serif" font-size="10.00" fill="#000000">/GPUTPCCFNoiseSuppression.h</text>
</a>
</g>
</g>
<!-- Node19&#45;&gt;Node29 -->
<g id="edge10" class="edge">
<title>Node19&#45;&gt;Node29</title>
<path fill="none" stroke="#191970" d="M1034.7411,-378.9227C891.8066,-372.8489 629.4162,-357.3165 408.5,-320 405.7442,-319.5345 402.9542,-319.0326 400.1436,-318.5001"/>
<polygon fill="#191970" stroke="#191970" points="1034.6864,-382.4233 1044.8238,-379.3438 1034.9786,-375.4294 1034.6864,-382.4233"/>
</g>
<!-- Node30 -->
<g id="node12" class="node">
<title>Node30</title>
<g id="a_node12"><a xlink:href="../../dc/d21/GPUTPCCFDeconvolution_8h.html" target="_top" xlink:title="/home/travis/build\l/AliceO2Group/AliceO2\l/GPU/GPUTracking/TPCClusterFinder\l/GPUTPCCFDeconvolution.h">
<polygon fill="none" stroke="#000000" points="418,-267.5 418,-319.5 609,-319.5 609,-267.5 418,-267.5"/>
<text text-anchor="start" x="426" y="-307.5" font-family="Helvetica,sans-Serif" font-size="10.00" fill="#000000">/home/travis/build</text>
<text text-anchor="start" x="426" y="-296.5" font-family="Helvetica,sans-Serif" font-size="10.00" fill="#000000">/AliceO2Group/AliceO2</text>
<text text-anchor="start" x="426" y="-285.5" font-family="Helvetica,sans-Serif" font-size="10.00" fill="#000000">/GPU/GPUTracking/TPCClusterFinder</text>
<text text-anchor="middle" x="513.5" y="-274.5" font-family="Helvetica,sans-Serif" font-size="10.00" fill="#000000">/GPUTPCCFDeconvolution.h</text>
</a>
</g>
</g>
<!-- Node19&#45;&gt;Node30 -->
<g id="edge13" class="edge">
<title>Node19&#45;&gt;Node30</title>
<path fill="none" stroke="#191970" d="M1034.907,-373.9601C928.8355,-364.4266 760.9776,-346.7344 617.5,-320 614.7524,-319.488 611.9698,-318.9451 609.1656,-318.3766"/>
<polygon fill="#191970" stroke="#191970" points="1034.705,-377.4559 1044.9762,-374.8572 1035.3263,-370.4835 1034.705,-377.4559"/>
</g>
<!-- Node31 -->
<g id="node13" class="node">
<title>Node31</title>
<g id="a_node13"><a xlink:href="../../dc/deb/GPUTPCCFStreamCompaction_8h.html" target="_top" xlink:title="/home/travis/build\l/AliceO2Group/AliceO2\l/GPU/GPUTracking/TPCClusterFinder\l/GPUTPCCFStreamCompaction.h">
<polygon fill="none" stroke="#000000" points="627,-267.5 627,-319.5 818,-319.5 818,-267.5 627,-267.5"/>
<text text-anchor="start" x="635" y="-307.5" font-family="Helvetica,sans-Serif" font-size="10.00" fill="#000000">/home/travis/build</text>
<text text-anchor="start" x="635" y="-296.5" font-family="Helvetica,sans-Serif" font-size="10.00" fill="#000000">/AliceO2Group/AliceO2</text>
<text text-anchor="start" x="635" y="-285.5" font-family="Helvetica,sans-Serif" font-size="10.00" fill="#000000">/GPU/GPUTracking/TPCClusterFinder</text>
<text text-anchor="middle" x="722.5" y="-274.5" font-family="Helvetica,sans-Serif" font-size="10.00" fill="#000000">/GPUTPCCFStreamCompaction.h</text>
</a>
</g>
</g>
<!-- Node19&#45;&gt;Node31 -->
<g id="edge16" class="edge">
<title>Node19&#45;&gt;Node31</title>
<path fill="none" stroke="#191970" d="M1034.7019,-362.7425C973.9217,-351.0502 896.2372,-335.5265 827.5,-320 824.3824,-319.2958 821.2159,-318.5683 818.0206,-317.8236"/>
<polygon fill="#191970" stroke="#191970" points="1034.2108,-366.212 1044.6912,-364.6589 1035.5298,-359.3374 1034.2108,-366.212"/>
</g>
<!-- Node33 -->
<g id="node15" class="node">
<title>Node33</title>
<g id="a_node15"><a xlink:href="../../dd/d99/GPUTPCCFClusterizer_8h.html" target="_top" xlink:title="/home/travis/build\l/AliceO2Group/AliceO2\l/GPU/GPUTracking/TPCClusterFinder\l/GPUTPCCFClusterizer.h">
<polygon fill="none" stroke="#000000" points="836,-267.5 836,-319.5 1027,-319.5 1027,-267.5 836,-267.5"/>
<text text-anchor="start" x="844" y="-307.5" font-family="Helvetica,sans-Serif" font-size="10.00" fill="#000000">/home/travis/build</text>
<text text-anchor="start" x="844" y="-296.5" font-family="Helvetica,sans-Serif" font-size="10.00" fill="#000000">/AliceO2Group/AliceO2</text>
<text text-anchor="start" x="844" y="-285.5" font-family="Helvetica,sans-Serif" font-size="10.00" fill="#000000">/GPU/GPUTracking/TPCClusterFinder</text>
<text text-anchor="middle" x="931.5" y="-274.5" font-family="Helvetica,sans-Serif" font-size="10.00" fill="#000000">/GPUTPCCFClusterizer.h</text>
</a>
</g>
</g>
<!-- Node19&#45;&gt;Node33 -->
<g id="edge19" class="edge">
<title>Node19&#45;&gt;Node33</title>
<path fill="none" stroke="#191970" d="M1069.7853,-352.387C1044.8018,-341.7481 1016.9313,-329.8798 992.7936,-319.6011"/>
<polygon fill="#191970" stroke="#191970" points="1068.6334,-355.7006 1079.2053,-356.3984 1071.376,-349.2602 1068.6334,-355.7006"/>
</g>
<!-- Node34 -->
<g id="node16" class="node">
<title>Node34</title>
<g id="a_node16"><a xlink:href="../../dd/dd8/GPUTPCCFMCLabelFlattener_8h.html" target="_top" xlink:title="/home/travis/build\l/AliceO2Group/AliceO2\l/GPU/GPUTracking/TPCClusterFinder\l/GPUTPCCFMCLabelFlattener.h">
<polygon fill="none" stroke="#000000" points="1045,-267.5 1045,-319.5 1236,-319.5 1236,-267.5 1045,-267.5"/>
<text text-anchor="start" x="1053" y="-307.5" font-family="Helvetica,sans-Serif" font-size="10.00" fill="#000000">/home/travis/build</text>
<text text-anchor="start" x="1053" y="-296.5" font-family="Helvetica,sans-Serif" font-size="10.00" fill="#000000">/AliceO2Group/AliceO2</text>
<text text-anchor="start" x="1053" y="-285.5" font-family="Helvetica,sans-Serif" font-size="10.00" fill="#000000">/GPU/GPUTracking/TPCClusterFinder</text>
<text text-anchor="middle" x="1140.5" y="-274.5" font-family="Helvetica,sans-Serif" font-size="10.00" fill="#000000">/GPUTPCCFMCLabelFlattener.h</text>
</a>
</g>
</g>
<!-- Node19&#45;&gt;Node34 -->
<g id="edge22" class="edge">
<title>Node19&#45;&gt;Node34</title>
<path fill="none" stroke="#191970" d="M1140.5,-346.1155C1140.5,-337.2061 1140.5,-327.8475 1140.5,-319.5341"/>
<polygon fill="#191970" stroke="#191970" points="1137.0001,-346.2784 1140.5,-356.2784 1144.0001,-346.2785 1137.0001,-346.2784"/>
</g>
<!-- Node36 -->
<g id="node18" class="node">
<title>Node36</title>
<g id="a_node18"><a xlink:href="../../d2/dc6/GPUTPCCFChainContext_8h.html" target="_top" xlink:title="/home/travis/build\l/AliceO2Group/AliceO2\l/GPU/GPUTracking/TPCClusterFinder\l/GPUTPCCFChainContext.h">
<polygon fill="none" stroke="#000000" points="1254,-267.5 1254,-319.5 1445,-319.5 1445,-267.5 1254,-267.5"/>
<text text-anchor="start" x="1262" y="-307.5" font-family="Helvetica,sans-Serif" font-size="10.00" fill="#000000">/home/travis/build</text>
<text text-anchor="start" x="1262" y="-296.5" font-family="Helvetica,sans-Serif" font-size="10.00" fill="#000000">/AliceO2Group/AliceO2</text>
<text text-anchor="start" x="1262" y="-285.5" font-family="Helvetica,sans-Serif" font-size="10.00" fill="#000000">/GPU/GPUTracking/TPCClusterFinder</text>
<text text-anchor="middle" x="1349.5" y="-274.5" font-family="Helvetica,sans-Serif" font-size="10.00" fill="#000000">/GPUTPCCFChainContext.h</text>
</a>
</g>
</g>
<!-- Node19&#45;&gt;Node36 -->
<g id="edge25" class="edge">
<title>Node19&#45;&gt;Node36</title>
<path fill="none" stroke="#191970" d="M1211.2147,-352.387C1236.1982,-341.7481 1264.0687,-329.8798 1288.2064,-319.6011"/>
<polygon fill="#191970" stroke="#191970" points="1209.624,-349.2602 1201.7947,-356.3984 1212.3666,-355.7006 1209.624,-349.2602"/>
</g>
<!-- Node37 -->
<g id="node19" class="node">
<title>Node37</title>
<g id="a_node19"><a xlink:href="../../db/d5c/GPUTPCCFDecodeZS_8cxx.html" target="_top" xlink:title="/home/travis/build\l/AliceO2Group/AliceO2\l/GPU/GPUTracking/TPCClusterFinder\l/GPUTPCCFDecodeZS.cxx">
<polygon fill="none" stroke="#000000" points="1463,-267.5 1463,-319.5 1654,-319.5 1654,-267.5 1463,-267.5"/>
<text text-anchor="start" x="1471" y="-307.5" font-family="Helvetica,sans-Serif" font-size="10.00" fill="#000000">/home/travis/build</text>
<text text-anchor="start" x="1471" y="-296.5" font-family="Helvetica,sans-Serif" font-size="10.00" fill="#000000">/AliceO2Group/AliceO2</text>
<text text-anchor="start" x="1471" y="-285.5" font-family="Helvetica,sans-Serif" font-size="10.00" fill="#000000">/GPU/GPUTracking/TPCClusterFinder</text>
<text text-anchor="middle" x="1558.5" y="-274.5" font-family="Helvetica,sans-Serif" font-size="10.00" fill="#000000">/GPUTPCCFDecodeZS.cxx</text>
</a>
</g>
</g>
<!-- Node19&#45;&gt;Node37 -->
<g id="edge26" class="edge">
<title>Node19&#45;&gt;Node37</title>
<path fill="none" stroke="#191970" d="M1246.3119,-362.8876C1307.3418,-351.2139 1385.4362,-335.6608 1454.5,-320 1457.2257,-319.3819 1459.989,-318.7453 1462.7762,-318.0944"/>
<polygon fill="#191970" stroke="#191970" points="1245.4496,-359.4888 1236.2824,-364.8005 1246.7611,-366.3649 1245.4496,-359.4888"/>
</g>
<!-- Node38 -->
<g id="node20" class="node">
<title>Node38</title>
<g id="a_node20"><a xlink:href="../../df/da0/GPUTPCClusterFinder_8cxx.html" target="_top" xlink:title="/home/travis/build\l/AliceO2Group/AliceO2\l/GPU/GPUTracking/TPCClusterFinder\l/GPUTPCClusterFinder.cxx">
<polygon fill="none" stroke="#000000" points="1672,-267.5 1672,-319.5 1863,-319.5 1863,-267.5 1672,-267.5"/>
<text text-anchor="start" x="1680" y="-307.5" font-family="Helvetica,sans-Serif" font-size="10.00" fill="#000000">/home/travis/build</text>
<text text-anchor="start" x="1680" y="-296.5" font-family="Helvetica,sans-Serif" font-size="10.00" fill="#000000">/AliceO2Group/AliceO2</text>
<text text-anchor="start" x="1680" y="-285.5" font-family="Helvetica,sans-Serif" font-size="10.00" fill="#000000">/GPU/GPUTracking/TPCClusterFinder</text>
<text text-anchor="middle" x="1767.5" y="-274.5" font-family="Helvetica,sans-Serif" font-size="10.00" fill="#000000">/GPUTPCClusterFinder.cxx</text>
</a>
</g>
</g>
<!-- Node19&#45;&gt;Node38 -->
<g id="edge27" class="edge">
<title>Node19&#45;&gt;Node38</title>
<path fill="none" stroke="#191970" d="M1246.093,-373.9601C1352.1645,-364.4266 1520.0224,-346.7344 1663.5,-320 1666.2476,-319.488 1669.0302,-318.9451 1671.8344,-318.3766"/>
<polygon fill="#191970" stroke="#191970" points="1245.6737,-370.4835 1236.0238,-374.8572 1246.295,-377.4559 1245.6737,-370.4835"/>
</g>
<!-- Node39 -->
<g id="node21" class="node">
<title>Node39</title>
<g id="a_node21"><a xlink:href="../../d2/db7/GPUTPCClusterFinderDump_8cxx.html" target="_top" xlink:title="/home/travis/build\l/AliceO2Group/AliceO2\l/GPU/GPUTracking/TPCClusterFinder\l/GPUTPCClusterFinderDump.cxx">
<polygon fill="none" stroke="#000000" points="1881,-267.5 1881,-319.5 2072,-319.5 2072,-267.5 1881,-267.5"/>
<text text-anchor="start" x="1889" y="-307.5" font-family="Helvetica,sans-Serif" font-size="10.00" fill="#000000">/home/travis/build</text>
<text text-anchor="start" x="1889" y="-296.5" font-family="Helvetica,sans-Serif" font-size="10.00" fill="#000000">/AliceO2Group/AliceO2</text>
<text text-anchor="start" x="1889" y="-285.5" font-family="Helvetica,sans-Serif" font-size="10.00" fill="#000000">/GPU/GPUTracking/TPCClusterFinder</text>
<text text-anchor="middle" x="1976.5" y="-274.5" font-family="Helvetica,sans-Serif" font-size="10.00" fill="#000000">/GPUTPCClusterFinderDump.cxx</text>
</a>
</g>
</g>
<!-- Node19&#45;&gt;Node39 -->
<g id="edge28" class="edge">
<title>Node19&#45;&gt;Node39</title>
<path fill="none" stroke="#191970" d="M1246.2589,-378.9227C1389.1934,-372.8489 1651.5838,-357.3165 1872.5,-320 1875.2558,-319.5345 1878.0458,-319.0326 1880.8564,-318.5001"/>
<polygon fill="#191970" stroke="#191970" points="1246.0214,-375.4294 1236.1762,-379.3438 1246.3136,-382.4233 1246.0214,-375.4294"/>
</g>
<!-- Node40 -->
<g id="node22" class="node">
<title>Node40</title>
<g id="a_node22"><a xlink:href="../../d0/dbd/MCLabelAccumulator_8cxx.html" target="_top" xlink:title="/home/travis/build\l/AliceO2Group/AliceO2\l/GPU/GPUTracking/TPCClusterFinder\l/MCLabelAccumulator.cxx">
<polygon fill="none" stroke="#000000" points="2090,-267.5 2090,-319.5 2281,-319.5 2281,-267.5 2090,-267.5"/>
<text text-anchor="start" x="2098" y="-307.5" font-family="Helvetica,sans-Serif" font-size="10.00" fill="#000000">/home/travis/build</text>
<text text-anchor="start" x="2098" y="-296.5" font-family="Helvetica,sans-Serif" font-size="10.00" fill="#000000">/AliceO2Group/AliceO2</text>
<text text-anchor="start" x="2098" y="-285.5" font-family="Helvetica,sans-Serif" font-size="10.00" fill="#000000">/GPU/GPUTracking/TPCClusterFinder</text>
<text text-anchor="middle" x="2185.5" y="-274.5" font-family="Helvetica,sans-Serif" font-size="10.00" fill="#000000">/MCLabelAccumulator.cxx</text>
</a>
</g>
</g>
<!-- Node19&#45;&gt;Node40 -->
<g id="edge29" class="edge">
<title>Node19&#45;&gt;Node40</title>
<path fill="none" stroke="#191970" d="M1246.2925,-377.9197C1457.1971,-368.3857 1923.3093,-345.1896 2081.5,-320 2084.2601,-319.5605 2087.0538,-319.0815 2089.8677,-318.5692"/>
<polygon fill="#191970" stroke="#191970" points="1245.9706,-374.4306 1236.1382,-378.3771 1246.2856,-381.4235 1245.9706,-374.4306"/>
</g>
<!-- Node21 -->
<g id="node3" class="node">
<title>Node21</title>
<g id="a_node3"><a xlink:href="../../d1/d59/GPUTPCClusterFinderKernels_8h.html" target="_top" xlink:title="/home/travis/build\l/AliceO2Group/AliceO2\l/GPU/GPUTracking/TPCClusterFinder\l/GPUTPCClusterFinderKernels.h">
<polygon fill="none" stroke="#000000" points="532,-178.5 532,-230.5 723,-230.5 723,-178.5 532,-178.5"/>
<text text-anchor="start" x="540" y="-218.5" font-family="Helvetica,sans-Serif" font-size="10.00" fill="#000000">/home/travis/build</text>
<text text-anchor="start" x="540" y="-207.5" font-family="Helvetica,sans-Serif" font-size="10.00" fill="#000000">/AliceO2Group/AliceO2</text>
<text text-anchor="start" x="540" y="-196.5" font-family="Helvetica,sans-Serif" font-size="10.00" fill="#000000">/GPU/GPUTracking/TPCClusterFinder</text>
<text text-anchor="middle" x="627.5" y="-185.5" font-family="Helvetica,sans-Serif" font-size="10.00" fill="#000000">/GPUTPCClusterFinderKernels.h</text>
</a>
</g>
</g>
<!-- Node20&#45;&gt;Node21 -->
<g id="edge2" class="edge">
<title>Node20&#45;&gt;Node21</title>
<path fill="none" stroke="#191970" d="M201.1902,-266.7328C320.0787,-243.357 447.1312,-226.0287 531.8148,-215.5659"/>
<polygon fill="#191970" stroke="#191970" points="200.3113,-263.3388 191.1839,-268.7185 201.674,-270.2049 200.3113,-263.3388"/>
</g>
<!-- Node28 -->
<g id="node10" class="node">
<title>Node28</title>
<g id="a_node10"><a xlink:href="../../d3/dc7/GPUTPCCFChargeMapFiller_8cxx.html" target="_top" xlink:title="/home/travis/build\l/AliceO2Group/AliceO2\l/GPU/GPUTracking/TPCClusterFinder\l/GPUTPCCFChargeMapFiller.cxx">
<polygon fill="none" stroke="#000000" points="0,-178.5 0,-230.5 191,-230.5 191,-178.5 0,-178.5"/>
<text text-anchor="start" x="8" y="-218.5" font-family="Helvetica,sans-Serif" font-size="10.00" fill="#000000">/home/travis/build</text>
<text text-anchor="start" x="8" y="-207.5" font-family="Helvetica,sans-Serif" font-size="10.00" fill="#000000">/AliceO2Group/AliceO2</text>
<text text-anchor="start" x="8" y="-196.5" font-family="Helvetica,sans-Serif" font-size="10.00" fill="#000000">/GPU/GPUTracking/TPCClusterFinder</text>
<text text-anchor="middle" x="95.5" y="-185.5" font-family="Helvetica,sans-Serif" font-size="10.00" fill="#000000">/GPUTPCCFChargeMapFiller.cxx</text>
</a>
</g>
</g>
<!-- Node20&#45;&gt;Node28 -->
<g id="edge9" class="edge">
<title>Node20&#45;&gt;Node28</title>
<path fill="none" stroke="#191970" d="M95.5,-257.1155C95.5,-248.2061 95.5,-238.8475 95.5,-230.5341"/>
<polygon fill="#191970" stroke="#191970" points="92.0001,-257.2784 95.5,-267.2784 99.0001,-257.2785 92.0001,-257.2784"/>
</g>
<!-- Node22 -->
<g id="node4" class="node">
<title>Node22</title>
<g id="a_node4"><a xlink:href="../../da/de7/CfUtils_8h.html" target="_top" xlink:title="/home/travis/build\l/AliceO2Group/AliceO2\l/GPU/GPUTracking/TPCClusterFinder\l/CfUtils.h">
<polygon fill="none" stroke="#000000" points="537,-89.5 537,-141.5 728,-141.5 728,-89.5 537,-89.5"/>
<text text-anchor="start" x="545" y="-129.5" font-family="Helvetica,sans-Serif" font-size="10.00" fill="#000000">/home/travis/build</text>
<text text-anchor="start" x="545" y="-118.5" font-family="Helvetica,sans-Serif" font-size="10.00" fill="#000000">/AliceO2Group/AliceO2</text>
<text text-anchor="start" x="545" y="-107.5" font-family="Helvetica,sans-Serif" font-size="10.00" fill="#000000">/GPU/GPUTracking/TPCClusterFinder</text>
<text text-anchor="middle" x="632.5" y="-96.5" font-family="Helvetica,sans-Serif" font-size="10.00" fill="#000000">/CfUtils.h</text>
</a>
</g>
</g>
<!-- Node21&#45;&gt;Node22 -->
<g id="edge3" class="edge">
<title>Node21&#45;&gt;Node22</title>
<path fill="none" stroke="#191970" d="M629.5441,-168.1155C630.0446,-159.2061 630.5704,-149.8475 631.0374,-141.5341"/>
<polygon fill="#191970" stroke="#191970" points="626.0396,-168.0978 628.9731,-178.2784 633.0286,-168.4905 626.0396,-168.0978"/>
</g>
<!-- Node23 -->
<g id="node5" class="node">
<title>Node23</title>
<g id="a_node5"><a xlink:href="../../d8/db8/ClusterAccumulator_8cxx.html" target="_top" xlink:title="/home/travis/build\l/AliceO2Group/AliceO2\l/GPU/GPUTracking/TPCClusterFinder\l/ClusterAccumulator.cxx">
<polygon fill="none" stroke="#000000" points="807,-.5 807,-52.5 998,-52.5 998,-.5 807,-.5"/>
<text text-anchor="start" x="815" y="-40.5" font-family="Helvetica,sans-Serif" font-size="10.00" fill="#000000">/home/travis/build</text>
<text text-anchor="start" x="815" y="-29.5" font-family="Helvetica,sans-Serif" font-size="10.00" fill="#000000">/AliceO2Group/AliceO2</text>
<text text-anchor="start" x="815" y="-18.5" font-family="Helvetica,sans-Serif" font-size="10.00" fill="#000000">/GPU/GPUTracking/TPCClusterFinder</text>
<text text-anchor="middle" x="902.5" y="-7.5" font-family="Helvetica,sans-Serif" font-size="10.00" fill="#000000">/ClusterAccumulator.cxx</text>
</a>
</g>
</g>
<!-- Node22&#45;&gt;Node23 -->
<g id="edge4" class="edge">
<title>Node22&#45;&gt;Node23</title>
<path fill="none" stroke="#191970" d="M721.3027,-86.228C754.2226,-75.3766 791.31,-63.1515 823.3169,-52.6011"/>
<polygon fill="#191970" stroke="#191970" points="720.0862,-82.9437 711.6846,-89.3984 722.2776,-89.5918 720.0862,-82.9437"/>
</g>
<!-- Node24 -->
<g id="node6" class="node">
<title>Node24</title>
<g id="a_node6"><a xlink:href="../../de/d30/GPUTPCCFClusterizer_8cxx.html" target="_top" xlink:title="/home/travis/build\l/AliceO2Group/AliceO2\l/GPU/GPUTracking/TPCClusterFinder\l/GPUTPCCFClusterizer.cxx">
<polygon fill="none" stroke="#000000" points="1016,-.5 1016,-52.5 1207,-52.5 1207,-.5 1016,-.5"/>
<text text-anchor="start" x="1024" y="-40.5" font-family="Helvetica,sans-Serif" font-size="10.00" fill="#000000">/home/travis/build</text>
<text text-anchor="start" x="1024" y="-29.5" font-family="Helvetica,sans-Serif" font-size="10.00" fill="#000000">/AliceO2Group/AliceO2</text>
<text text-anchor="start" x="1024" y="-18.5" font-family="Helvetica,sans-Serif" font-size="10.00" fill="#000000">/GPU/GPUTracking/TPCClusterFinder</text>
<text text-anchor="middle" x="1111.5" y="-7.5" font-family="Helvetica,sans-Serif" font-size="10.00" fill="#000000">/GPUTPCCFClusterizer.cxx</text>
</a>
</g>
</g>
<!-- Node22&#45;&gt;Node24 -->
<g id="edge5" class="edge">
<title>Node22&#45;&gt;Node24</title>
<path fill="none" stroke="#191970" d="M738.0669,-100.3392C813.4515,-88.921 917.0978,-72.0157 1007.5,-53 1010.235,-52.4247 1013.0066,-51.8258 1015.801,-51.2081"/>
<polygon fill="#191970" stroke="#191970" points="737.4542,-96.892 728.0877,-101.8437 738.4978,-103.8137 737.4542,-96.892"/>
</g>
<!-- Node25 -->
<g id="node7" class="node">
<title>Node25</title>
<g id="a_node7"><a xlink:href="../../dd/d19/GPUTPCCFDeconvolution_8cxx.html" target="_top" xlink:title="/home/travis/build\l/AliceO2Group/AliceO2\l/GPU/GPUTracking/TPCClusterFinder\l/GPUTPCCFDeconvolution.cxx">
<polygon fill="none" stroke="#000000" points="389,-.5 389,-52.5 580,-52.5 580,-.5 389,-.5"/>
<text text-anchor="start" x="397" y="-40.5" font-family="Helvetica,sans-Serif" font-size="10.00" fill="#000000">/home/travis/build</text>
<text text-anchor="start" x="397" y="-29.5" font-family="Helvetica,sans-Serif" font-size="10.00" fill="#000000">/AliceO2Group/AliceO2</text>
<text text-anchor="start" x="397" y="-18.5" font-family="Helvetica,sans-Serif" font-size="10.00" fill="#000000">/GPU/GPUTracking/TPCClusterFinder</text>
<text text-anchor="middle" x="484.5" y="-7.5" font-family="Helvetica,sans-Serif" font-size="10.00" fill="#000000">/GPUTPCCFDeconvolution.cxx</text>
</a>
</g>
</g>
<!-- Node22&#45;&gt;Node25 -->
<g id="edge6" class="edge">
<title>Node22&#45;&gt;Node25</title>
<path fill="none" stroke="#191970" d="M580.1162,-83.9989C562.9906,-73.7004 544.1718,-62.3837 527.7927,-52.5341"/>
<polygon fill="#191970" stroke="#191970" points="578.522,-87.1244 588.8956,-89.2784 582.1295,-81.1255 578.522,-87.1244"/>
</g>
<!-- Node26 -->
<g id="node8" class="node">
<title>Node26</title>
<g id="a_node8"><a xlink:href="../../d4/d72/GPUTPCCFNoiseSuppression_8cxx.html" target="_top" xlink:title="/home/travis/build\l/AliceO2Group/AliceO2\l/GPU/GPUTracking/TPCClusterFinder\l/GPUTPCCFNoiseSuppression.cxx">
<polygon fill="none" stroke="#000000" points="180,-.5 180,-52.5 371,-52.5 371,-.5 180,-.5"/>
<text text-anchor="start" x="188" y="-40.5" font-family="Helvetica,sans-Serif" font-size="10.00" fill="#000000">/home/travis/build</text>
<text text-anchor="start" x="188" y="-29.5" font-family="Helvetica,sans-Serif" font-size="10.00" fill="#000000">/AliceO2Group/AliceO2</text>
<text text-anchor="start" x="188" y="-18.5" font-family="Helvetica,sans-Serif" font-size="10.00" fill="#000000">/GPU/GPUTracking/TPCClusterFinder</text>
<text text-anchor="middle" x="275.5" y="-7.5" font-family="Helvetica,sans-Serif" font-size="10.00" fill="#000000">/GPUTPCCFNoiseSuppression.cxx</text>
</a>
</g>
</g>
<!-- Node22&#45;&gt;Node26 -->
<g id="edge7" class="edge">
<title>Node22&#45;&gt;Node26</title>
<path fill="none" stroke="#191970" d="M527.088,-89.642C481.6606,-78.4513 427.9473,-65.1563 379.5,-53 376.7892,-52.3198 374.0389,-51.6283 371.2633,-50.9293"/>
<polygon fill="#191970" stroke="#191970" points="526.4017,-93.0775 536.9486,-92.0701 528.0755,-86.2806 526.4017,-93.0775"/>
</g>
<!-- Node27 -->
<g id="node9" class="node">
<title>Node27</title>
<g id="a_node9"><a xlink:href="../../d9/dbb/GPUTPCCFPeakFinder_8cxx.html" target="_top" xlink:title="/home/travis/build\l/AliceO2Group/AliceO2\l/GPU/GPUTracking/TPCClusterFinder\l/GPUTPCCFPeakFinder.cxx">
<polygon fill="none" stroke="#000000" points="598,-.5 598,-52.5 789,-52.5 789,-.5 598,-.5"/>
<text text-anchor="start" x="606" y="-40.5" font-family="Helvetica,sans-Serif" font-size="10.00" fill="#000000">/home/travis/build</text>
<text text-anchor="start" x="606" y="-29.5" font-family="Helvetica,sans-Serif" font-size="10.00" fill="#000000">/AliceO2Group/AliceO2</text>
<text text-anchor="start" x="606" y="-18.5" font-family="Helvetica,sans-Serif" font-size="10.00" fill="#000000">/GPU/GPUTracking/TPCClusterFinder</text>
<text text-anchor="middle" x="693.5" y="-7.5" font-family="Helvetica,sans-Serif" font-size="10.00" fill="#000000">/GPUTPCCFPeakFinder.cxx</text>
</a>
</g>
</g>
<!-- Node22&#45;&gt;Node27 -->
<g id="edge8" class="edge">
<title>Node22&#45;&gt;Node27</title>
<path fill="none" stroke="#191970" d="M656.2472,-80.8525C662.7044,-71.4313 669.5868,-61.3897 675.6564,-52.5341"/>
<polygon fill="#191970" stroke="#191970" points="653.2386,-79.0512 650.4721,-89.2784 659.0126,-83.0086 653.2386,-79.0512"/>
</g>
<!-- Node29&#45;&gt;Node21 -->
<g id="edge11" class="edge">
<title>Node29&#45;&gt;Node21</title>
<path fill="none" stroke="#191970" d="M408.9848,-264.7101C448.8938,-253.7135 494.1319,-241.2485 533.0526,-230.5242"/>
<polygon fill="#191970" stroke="#191970" points="407.9391,-261.3677 399.2282,-267.3984 409.7987,-268.1162 407.9391,-261.3677"/>
</g>
<!-- Node29&#45;&gt;Node26 -->
<g id="edge12" class="edge">
<title>Node29&#45;&gt;Node26</title>
<path fill="none" stroke="#191970" d="M300.552,-257.1513C294.6205,-202.5402 283.5512,-100.6267 278.3449,-52.6931"/>
<polygon fill="#191970" stroke="#191970" points="297.1071,-257.8492 301.6666,-267.4128 304.0662,-257.0933 297.1071,-257.8492"/>
</g>
<!-- Node30&#45;&gt;Node21 -->
<g id="edge14" class="edge">
<title>Node30&#45;&gt;Node21</title>
<path fill="none" stroke="#191970" d="M555.307,-260.8612C568.1024,-250.8718 581.9996,-240.0222 594.1529,-230.5341"/>
<polygon fill="#191970" stroke="#191970" points="552.8157,-258.3658 547.0872,-267.2784 557.1234,-263.8835 552.8157,-258.3658"/>
</g>
<!-- Node30&#45;&gt;Node25 -->
<g id="edge15" class="edge">
<title>Node30&#45;&gt;Node25</title>
<path fill="none" stroke="#191970" d="M509.552,-257.1513C503.6205,-202.5402 492.5512,-100.6267 487.3449,-52.6931"/>
<polygon fill="#191970" stroke="#191970" points="506.1071,-257.8492 510.6666,-267.4128 513.0662,-257.0933 506.1071,-257.8492"/>
</g>
<!-- Node31&#45;&gt;Node21 -->
<g id="edge17" class="edge">
<title>Node31&#45;&gt;Node21</title>
<path fill="none" stroke="#191970" d="M687.0505,-260.2894C676.5573,-250.459 665.2241,-239.8415 655.2893,-230.5341"/>
<polygon fill="#191970" stroke="#191970" points="684.82,-262.9958 694.5107,-267.2784 689.6058,-257.8873 684.82,-262.9958"/>
</g>
<!-- Node32 -->
<g id="node14" class="node">
<title>Node32</title>
<g id="a_node14"><a xlink:href="../../d9/d59/GPUTPCCFStreamCompaction_8cxx.html" target="_top" xlink:title="/home/travis/build\l/AliceO2Group/AliceO2\l/GPU/GPUTracking/TPCClusterFinder\l/GPUTPCCFStreamCompaction.cxx">
<polygon fill="none" stroke="#000000" points="741,-178.5 741,-230.5 932,-230.5 932,-178.5 741,-178.5"/>
<text text-anchor="start" x="749" y="-218.5" font-family="Helvetica,sans-Serif" font-size="10.00" fill="#000000">/home/travis/build</text>
<text text-anchor="start" x="749" y="-207.5" font-family="Helvetica,sans-Serif" font-size="10.00" fill="#000000">/AliceO2Group/AliceO2</text>
<text text-anchor="start" x="749" y="-196.5" font-family="Helvetica,sans-Serif" font-size="10.00" fill="#000000">/GPU/GPUTracking/TPCClusterFinder</text>
<text text-anchor="middle" x="836.5" y="-185.5" font-family="Helvetica,sans-Serif" font-size="10.00" fill="#000000">/GPUTPCCFStreamCompaction.cxx</text>
</a>
</g>
</g>
<!-- Node31&#45;&gt;Node32 -->
<g id="edge18" class="edge">
<title>Node31&#45;&gt;Node32</title>
<path fill="none" stroke="#191970" d="M764.307,-260.8612C777.1024,-250.8718 790.9996,-240.0222 803.1529,-230.5341"/>
<polygon fill="#191970" stroke="#191970" points="761.8157,-258.3658 756.0872,-267.2784 766.1234,-263.8835 761.8157,-258.3658"/>
</g>
<!-- Node33&#45;&gt;Node21 -->
<g id="edge20" class="edge">
<title>Node33&#45;&gt;Node21</title>
<path fill="none" stroke="#191970" d="M832.4461,-264.5007C795.0601,-253.5554 752.7906,-241.1805 716.3917,-230.5242"/>
<polygon fill="#191970" stroke="#191970" points="831.7635,-267.9477 842.344,-267.3984 833.7303,-261.2296 831.7635,-267.9477"/>
</g>
<!-- Node33&#45;&gt;Node24 -->
<g id="edge21" class="edge">
<title>Node33&#45;&gt;Node24</title>
<path fill="none" stroke="#191970" d="M954.8647,-258.8424C991.3859,-204.6693 1061.1904,-101.126 1093.8417,-52.6931"/>
<polygon fill="#191970" stroke="#191970" points="951.7748,-257.1645 949.0869,-267.4128 957.579,-261.0775 951.7748,-257.1645"/>
</g>
<!-- Node34&#45;&gt;Node21 -->
<g id="edge23" class="edge">
<title>Node34&#45;&gt;Node21</title>
<path fill="none" stroke="#191970" d="M1034.6133,-266.7512C900.8964,-242.7878 863.0281,-255.0955 732.5,-231 729.4494,-230.4369 726.3559,-229.8362 723.2376,-229.2053"/>
<polygon fill="#191970" stroke="#191970" points="1034.3688,-270.2644 1044.8351,-268.6196 1035.6274,-263.3785 1034.3688,-270.2644"/>
</g>
<!-- Node35 -->
<g id="node17" class="node">
<title>Node35</title>
<g id="a_node17"><a xlink:href="../../d6/d5e/GPUTPCCFMCLabelFlattener_8cxx.html" target="_top" xlink:title="/home/travis/build\l/AliceO2Group/AliceO2\l/GPU/GPUTracking/TPCClusterFinder\l/GPUTPCCFMCLabelFlattener.cxx">
<polygon fill="none" stroke="#000000" points="1045,-178.5 1045,-230.5 1236,-230.5 1236,-178.5 1045,-178.5"/>
<text text-anchor="start" x="1053" y="-218.5" font-family="Helvetica,sans-Serif" font-size="10.00" fill="#000000">/home/travis/build</text>
<text text-anchor="start" x="1053" y="-207.5" font-family="Helvetica,sans-Serif" font-size="10.00" fill="#000000">/AliceO2Group/AliceO2</text>
<text text-anchor="start" x="1053" y="-196.5" font-family="Helvetica,sans-Serif" font-size="10.00" fill="#000000">/GPU/GPUTracking/TPCClusterFinder</text>
<text text-anchor="middle" x="1140.5" y="-185.5" font-family="Helvetica,sans-Serif" font-size="10.00" fill="#000000">/GPUTPCCFMCLabelFlattener.cxx</text>
</a>
</g>
</g>
<!-- Node34&#45;&gt;Node35 -->
<g id="edge24" class="edge">
<title>Node34&#45;&gt;Node35</title>
<path fill="none" stroke="#191970" d="M1140.5,-257.1155C1140.5,-248.2061 1140.5,-238.8475 1140.5,-230.5341"/>
<polygon fill="#191970" stroke="#191970" points="1137.0001,-257.2784 1140.5,-267.2784 1144.0001,-257.2785 1137.0001,-257.2784"/>
</g>
</g>
</svg>
        <g id="navigator" transform="translate(0 0)" fill="#404254">
                <rect fill="#f2f5e9" fill-opacity="0.5" stroke="#606060" stroke-width=".5" x="0" y="0" width="60" height="60"/>
                <use id="zoomplus" xlink:href="#zoomPlus" x="17" y="9" onmousedown="handleZoom(evt,'in')"/>
                <use id="zoomminus" xlink:href="#zoomMin" x="42" y="9" onmousedown="handleZoom(evt,'out')"/>
                <use id="reset" xlink:href="#resetDef" x="30" y="36" onmousedown="handleReset()"/>
                <g id="arrowUp" xlink:href="#dirArrow" transform="translate(30 24)" onmousedown="handlePan(0,-1)">
                  <use xlink:href="#rim" fill="#404040">
                        <set attributeName="fill" to="#808080" begin="arrowUp.mouseover" end="arrowUp.mouseout"/>
                  </use>
                  <path fill="none" stroke="white" stroke-width="1.5" d="M0,-3.0v7 M-2.5,-0.5L0,-3.0L2.5,-0.5"/>
                </g>
                <g id="arrowRight" xlink:href="#dirArrow" transform="rotate(90) translate(36 -43)" onmousedown="handlePan(1,0)">
                  <use xlink:href="#rim" fill="#404040">
                        <set attributeName="fill" to="#808080" begin="arrowRight.mouseover" end="arrowRight.mouseout"/>
                  </use>
                  <path fill="none" stroke="white" stroke-width="1.5" d="M0,-3.0v7 M-2.5,-0.5L0,-3.0L2.5,-0.5"/>
                </g>
                <g id="arrowDown" xlink:href="#dirArrow" transform="rotate(180) translate(-30 -48)" onmousedown="handlePan(0,1)">
                  <use xlink:href="#rim" fill="#404040">
                        <set attributeName="fill" to="#808080" begin="arrowDown.mouseover" end="arrowDown.mouseout"/>
                  </use>
                  <path fill="none" stroke="white" stroke-width="1.5" d="M0,-3.0v7 M-2.5,-0.5L0,-3.0L2.5,-0.5"/>
                </g>
                <g id="arrowLeft" xlink:href="#dirArrow" transform="rotate(270) translate(-36 17)" onmousedown="handlePan(-1,0)">
                  <use xlink:href="#rim" fill="#404040">
                        <set attributeName="fill" to="#808080" begin="arrowLeft.mouseover" end="arrowLeft.mouseout"/>
                  </use>
                  <path fill="none" stroke="white" stroke-width="1.5" d="M0,-3.0v7 M-2.5,-0.5L0,-3.0L2.5,-0.5"/>
                </g>
        </g>
        <svg viewBox="0 0 15 15" width="100%" height="30px" preserveAspectRatio="xMaxYMin meet">
         <g id="arrow_out" transform="scale(0.3 0.3)">
          <a xlink:href="GPUTPCClusterFinder_8h__dep__incl_org.svg" target="_base">
           <rect id="button" ry="5" rx="5" y="6" x="6" height="38" width="38"
                fill="#f2f5e9" fill-opacity="0.5" stroke="#606060" stroke-width="1.0"/>
           <path id="arrow"
             d="M 11.500037,31.436501 C 11.940474,20.09759 22.043105,11.32322 32.158766,21.979434 L 37.068811,17.246167 C 37.068811,17.246167 37.088388,32 37.088388,32 L 22.160133,31.978069 C 22.160133,31.978069 26.997745,27.140456 26.997745,27.140456 C 18.528582,18.264221 13.291696,25.230495 11.500037,31.436501 z"
             style="fill:#404040;"/>
          </a>
         </g>
        </svg>
</svg>
