<?xml version="1.0" encoding="UTF-8" standalone="no"?>
<!DOCTYPE svg PUBLIC "-//W3C//DTD SVG 1.1//EN"
 "http://www.w3.org/Graphics/SVG/1.1/DTD/svg11.dtd">
<!-- Generated by graphviz version 2.40.1 (20161225.0304)
 -->
<!-- Title: /home/travis/build/AliceO2Group/AliceO2/Common/Utils/include/CommonUtils/MemFileHelper.h Pages: 1 -->
<svg width="1151pt" height="261pt"
 viewBox="0.00 0.00 1150.50 261.00" xmlns="http://www.w3.org/2000/svg" xmlns:xlink="http://www.w3.org/1999/xlink">
<g id="graph0" class="graph" transform="scale(1 1) rotate(0) translate(4 257)">
<title>/home/travis/build/AliceO2Group/AliceO2/Common/Utils/include/CommonUtils/MemFileHelper.h</title>
<!-- Node7 -->
<g id="node1" class="node">
<title>Node7</title>
<polygon fill="#bfbfbf" stroke="#000000" points="415,-200.5 415,-252.5 585,-252.5 585,-200.5 415,-200.5"/>
<text text-anchor="start" x="423" y="-240.5" font-family="Helvetica,sans-Serif" font-size="10.00" fill="#000000">/home/travis/build</text>
<text text-anchor="start" x="423" y="-229.5" font-family="Helvetica,sans-Serif" font-size="10.00" fill="#000000">/AliceO2Group/AliceO2</text>
<text text-anchor="start" x="423" y="-218.5" font-family="Helvetica,sans-Serif" font-size="10.00" fill="#000000">/Common/Utils/include</text>
<text text-anchor="middle" x="500" y="-207.5" font-family="Helvetica,sans-Serif" font-size="10.00" fill="#000000">/CommonUtils/MemFileHelper.h</text>
</g>
<!-- Node8 -->
<g id="node2" class="node">
<title>Node8</title>
<g id="a_node2"><a xlink:href="../../dc/d5f/CcdbApi_8cxx.html" target="_top" xlink:title="/home/travis/build\l/AliceO2Group/AliceO2\l/CCDB/src/CcdbApi.cxx">
<polygon fill="none" stroke="#000000" points="0,-111.5 0,-152.5 128,-152.5 128,-111.5 0,-111.5"/>
<text text-anchor="start" x="8" y="-140.5" font-family="Helvetica,sans-Serif" font-size="10.00" fill="#000000">/home/travis/build</text>
<text text-anchor="start" x="8" y="-129.5" font-family="Helvetica,sans-Serif" font-size="10.00" fill="#000000">/AliceO2Group/AliceO2</text>
<text text-anchor="middle" x="64" y="-118.5" font-family="Helvetica,sans-Serif" font-size="10.00" fill="#000000">/CCDB/src/CcdbApi.cxx</text>
</a>
</g>
</g>
<!-- Node7&#45;&gt;Node8 -->
<g id="edge1" class="edge">
<title>Node7&#45;&gt;Node8</title>
<path fill="none" stroke="#191970" d="M404.4298,-216.4718C330.3699,-207.1691 225.7637,-190.6639 137,-164 126.7954,-160.9346 116.1252,-156.8182 106.1927,-152.5604"/>
<polygon fill="#191970" stroke="#191970" points="404.3188,-219.9846 414.6724,-217.7369 405.177,-213.0374 404.3188,-219.9846"/>
</g>
<!-- Node9 -->
<g id="node3" class="node">
<title>Node9</title>
<g id="a_node3"><a xlink:href="../../d0/ddd/testMemFileHelper_8cxx.html" target="_top" xlink:title="unit tests for TMemFile and its binary image creation ">
<polygon fill="none" stroke="#000000" points="146.5,-106 146.5,-158 319.5,-158 319.5,-106 146.5,-106"/>
<text text-anchor="start" x="154.5" y="-146" font-family="Helvetica,sans-Serif" font-size="10.00" fill="#000000">/home/travis/build</text>
<text text-anchor="start" x="154.5" y="-135" font-family="Helvetica,sans-Serif" font-size="10.00" fill="#000000">/AliceO2Group/AliceO2</text>
<text text-anchor="start" x="154.5" y="-124" font-family="Helvetica,sans-Serif" font-size="10.00" fill="#000000">/Common/Utils/test/testMemFile</text>
<text text-anchor="middle" x="233" y="-113" font-family="Helvetica,sans-Serif" font-size="10.00" fill="#000000">Helper.cxx</text>
</a>
</g>
</g>
<!-- Node7&#45;&gt;Node9 -->
<g id="edge2" class="edge">
<title>Node7&#45;&gt;Node9</title>
<path fill="none" stroke="#191970" d="M416.5804,-196.9751C381.4549,-184.543 340.9198,-170.1963 306.8884,-158.1515"/>
<polygon fill="#191970" stroke="#191970" points="415.7395,-200.3902 426.3343,-200.4273 418.0751,-193.7913 415.7395,-200.3902"/>
</g>
<!-- Node10 -->
<g id="node4" class="node">
<title>Node10</title>
<g id="a_node4"><a xlink:href="../../d1/dff/LHCClockCalibrator_8cxx.html" target="_top" xlink:title="/home/travis/build\l/AliceO2Group/AliceO2\l/Detectors/TOF/calibration\l/src/LHCClockCalibrator.cxx">
<polygon fill="none" stroke="#000000" points="337.5,-106 337.5,-158 488.5,-158 488.5,-106 337.5,-106"/>
<text text-anchor="start" x="345.5" y="-146" font-family="Helvetica,sans-Serif" font-size="10.00" fill="#000000">/home/travis/build</text>
<text text-anchor="start" x="345.5" y="-135" font-family="Helvetica,sans-Serif" font-size="10.00" fill="#000000">/AliceO2Group/AliceO2</text>
<text text-anchor="start" x="345.5" y="-124" font-family="Helvetica,sans-Serif" font-size="10.00" fill="#000000">/Detectors/TOF/calibration</text>
<text text-anchor="middle" x="413" y="-113" font-family="Helvetica,sans-Serif" font-size="10.00" fill="#000000">/src/LHCClockCalibrator.cxx</text>
</a>
</g>
</g>
<!-- Node7&#45;&gt;Node10 -->
<g id="edge3" class="edge">
<title>Node7&#45;&gt;Node10</title>
<path fill="none" stroke="#191970" d="M468.9734,-192.7986C458.5396,-181.4654 447.06,-168.9962 437.2271,-158.3157"/>
<polygon fill="#191970" stroke="#191970" points="466.6485,-195.4409 475.9966,-200.4273 471.7984,-190.6997 466.6485,-195.4409"/>
</g>
<!-- Node11 -->
<g id="node5" class="node">
<title>Node11</title>
<g id="a_node5"><a xlink:href="../../d9/dff/TOFChannelCalibrator_8cxx.html" target="_top" xlink:title="/home/travis/build\l/AliceO2Group/AliceO2\l/Detectors/TOF/calibration\l/src/TOFChannelCalibrator.cxx">
<polygon fill="none" stroke="#000000" points="506.5,-106 506.5,-158 669.5,-158 669.5,-106 506.5,-106"/>
<text text-anchor="start" x="514.5" y="-146" font-family="Helvetica,sans-Serif" font-size="10.00" fill="#000000">/home/travis/build</text>
<text text-anchor="start" x="514.5" y="-135" font-family="Helvetica,sans-Serif" font-size="10.00" fill="#000000">/AliceO2Group/AliceO2</text>
<text text-anchor="start" x="514.5" y="-124" font-family="Helvetica,sans-Serif" font-size="10.00" fill="#000000">/Detectors/TOF/calibration</text>
<text text-anchor="middle" x="588" y="-113" font-family="Helvetica,sans-Serif" font-size="10.00" fill="#000000">/src/TOFChannelCalibrator.cxx</text>
</a>
</g>
</g>
<!-- Node7&#45;&gt;Node11 -->
<g id="edge4" class="edge">
<title>Node7&#45;&gt;Node11</title>
<path fill="none" stroke="#191970" d="M531.3833,-192.7986C541.937,-181.4654 553.5485,-168.9962 563.4944,-158.3157"/>
<polygon fill="#191970" stroke="#191970" points="528.5329,-190.7238 524.2793,-200.4273 533.6557,-195.4942 528.5329,-190.7238"/>
</g>
<!-- Node12 -->
<g id="node6" class="node">
<title>Node12</title>
<g id="a_node6"><a xlink:href="../../d0/d37/LHCClockCalibratorSpec_8h.html" target="_top" xlink:title="Device to calibrate LHC clock phase using TOF data. ">
<polygon fill="none" stroke="#000000" points="687.5,-100.5 687.5,-163.5 868.5,-163.5 868.5,-100.5 687.5,-100.5"/>
<text text-anchor="start" x="695.5" y="-151.5" font-family="Helvetica,sans-Serif" font-size="10.00" fill="#000000">/home/travis/build</text>
<text text-anchor="start" x="695.5" y="-140.5" font-family="Helvetica,sans-Serif" font-size="10.00" fill="#000000">/AliceO2Group/AliceO2</text>
<text text-anchor="start" x="695.5" y="-129.5" font-family="Helvetica,sans-Serif" font-size="10.00" fill="#000000">/Detectors/TOF/calibration</text>
<text text-anchor="start" x="695.5" y="-118.5" font-family="Helvetica,sans-Serif" font-size="10.00" fill="#000000">/testWorkflow/LHCClockCalibrator</text>
<text text-anchor="middle" x="778" y="-107.5" font-family="Helvetica,sans-Serif" font-size="10.00" fill="#000000">Spec.h</text>
</a>
</g>
</g>
<!-- Node7&#45;&gt;Node12 -->
<g id="edge5" class="edge">
<title>Node7&#45;&gt;Node12</title>
<path fill="none" stroke="#191970" d="M586.4868,-197.1007C618.5007,-186.2183 654.8715,-173.8548 687.2534,-162.8473"/>
<polygon fill="#191970" stroke="#191970" points="585.0421,-193.895 576.7006,-200.4273 587.295,-200.5226 585.0421,-193.895"/>
</g>
<!-- Node15 -->
<g id="node9" class="node">
<title>Node15</title>
<g id="a_node9"><a xlink:href="../../df/de3/TOFChannelCalibratorSpec_8h.html" target="_top" xlink:title="Device to calibrate TOF channles (offsets) ">
<polygon fill="none" stroke="#000000" points="886.5,-100.5 886.5,-163.5 1079.5,-163.5 1079.5,-100.5 886.5,-100.5"/>
<text text-anchor="start" x="894.5" y="-151.5" font-family="Helvetica,sans-Serif" font-size="10.00" fill="#000000">/home/travis/build</text>
<text text-anchor="start" x="894.5" y="-140.5" font-family="Helvetica,sans-Serif" font-size="10.00" fill="#000000">/AliceO2Group/AliceO2</text>
<text text-anchor="start" x="894.5" y="-129.5" font-family="Helvetica,sans-Serif" font-size="10.00" fill="#000000">/Detectors/TOF/calibration</text>
<text text-anchor="start" x="894.5" y="-118.5" font-family="Helvetica,sans-Serif" font-size="10.00" fill="#000000">/testWorkflow/TOFChannelCalibrator</text>
<text text-anchor="middle" x="983" y="-107.5" font-family="Helvetica,sans-Serif" font-size="10.00" fill="#000000">Spec.h</text>
</a>
</g>
</g>
<!-- Node7&#45;&gt;Node15 -->
<g id="edge8" class="edge">
<title>Node7&#45;&gt;Node15</title>
<path fill="none" stroke="#191970" d="M595.2218,-214.3035C672.0724,-203.6113 782.6998,-186.2979 878,-164 880.7834,-163.3488 883.601,-162.664 886.4395,-161.9518"/>
<polygon fill="#191970" stroke="#191970" points="594.5066,-210.8689 585.0792,-215.7035 595.4638,-217.8032 594.5066,-210.8689"/>
</g>
<!-- Node13 -->
<g id="node7" class="node">
<title>Node13</title>
<g id="a_node7"><a xlink:href="../../d1/d1b/lhc-clockphase-workflow_8cxx.html" target="_top" xlink:title="/home/travis/build\l/AliceO2Group/AliceO2\l/Detectors/TOF/calibration\l/testWorkflow/lhc&#45;clockphase\l&#45;workflow.cxx">
<polygon fill="none" stroke="#000000" points="610.5,-.5 610.5,-63.5 769.5,-63.5 769.5,-.5 610.5,-.5"/>
<text text-anchor="start" x="618.5" y="-51.5" font-family="Helvetica,sans-Serif" font-size="10.00" fill="#000000">/home/travis/build</text>
<text text-anchor="start" x="618.5" y="-40.5" font-family="Helvetica,sans-Serif" font-size="10.00" fill="#000000">/AliceO2Group/AliceO2</text>
<text text-anchor="start" x="618.5" y="-29.5" font-family="Helvetica,sans-Serif" font-size="10.00" fill="#000000">/Detectors/TOF/calibration</text>
<text text-anchor="start" x="618.5" y="-18.5" font-family="Helvetica,sans-Serif" font-size="10.00" fill="#000000">/testWorkflow/lhc&#45;clockphase</text>
<text text-anchor="middle" x="690" y="-7.5" font-family="Helvetica,sans-Serif" font-size="10.00" fill="#000000">&#45;workflow.cxx</text>
</a>
</g>
</g>
<!-- Node12&#45;&gt;Node13 -->
<g id="edge6" class="edge">
<title>Node12&#45;&gt;Node13</title>
<path fill="none" stroke="#191970" d="M743.4993,-92.7946C735.0351,-83.1763 726.0785,-72.9983 717.9647,-63.778"/>
<polygon fill="#191970" stroke="#191970" points="740.9224,-95.1644 750.1563,-100.3594 746.1774,-90.54 740.9224,-95.1644"/>
</g>
<!-- Node14 -->
<g id="node8" class="node">
<title>Node14</title>
<g id="a_node8"><a xlink:href="../../dc/da8/tof-calib-workflow_8cxx.html" target="_top" xlink:title="/home/travis/build\l/AliceO2Group/AliceO2\l/Detectors/TOF/calibration\l/testWorkflow/tof&#45;calib&#45;workflow.cxx">
<polygon fill="none" stroke="#000000" points="787,-6 787,-58 981,-58 981,-6 787,-6"/>
<text text-anchor="start" x="795" y="-46" font-family="Helvetica,sans-Serif" font-size="10.00" fill="#000000">/home/travis/build</text>
<text text-anchor="start" x="795" y="-35" font-family="Helvetica,sans-Serif" font-size="10.00" fill="#000000">/AliceO2Group/AliceO2</text>
<text text-anchor="start" x="795" y="-24" font-family="Helvetica,sans-Serif" font-size="10.00" fill="#000000">/Detectors/TOF/calibration</text>
<text text-anchor="middle" x="884" y="-13" font-family="Helvetica,sans-Serif" font-size="10.00" fill="#000000">/testWorkflow/tof&#45;calib&#45;workflow.cxx</text>
</a>
</g>
</g>
<!-- Node12&#45;&gt;Node14 -->
<g id="edge7" class="edge">
<title>Node12&#45;&gt;Node14</title>
<path fill="none" stroke="#191970" d="M819.1542,-93.1752C831.6183,-81.4167 845.0035,-68.7892 856.3574,-58.078"/>
<polygon fill="#191970" stroke="#191970" points="816.4112,-90.9513 811.5391,-100.3594 821.2148,-96.043 816.4112,-90.9513"/>
</g>
<!-- Node15&#45;&gt;Node14 -->
<g id="edge9" class="edge">
<title>Node15&#45;&gt;Node14</title>
<path fill="none" stroke="#191970" d="M944.5635,-93.1752C932.9226,-81.4167 920.4213,-68.7892 909.8172,-58.078"/>
<polygon fill="#191970" stroke="#191970" points="942.153,-95.7153 951.6758,-100.3594 947.1276,-90.7904 942.153,-95.7153"/>
</g>
<!-- Node16 -->
<g id="node10" class="node">
<title>Node16</title>
<g id="a_node10"><a xlink:href="../../db/d97/tof-channel-calib-workflow_8cxx.html" target="_top" xlink:title="/home/travis/build\l/AliceO2Group/AliceO2\l/Detectors/TOF/calibration\l/testWorkflow/tof&#45;channel\l&#45;calib&#45;workflow.cxx">
<polygon fill="none" stroke="#000000" points="999.5,-.5 999.5,-63.5 1142.5,-63.5 1142.5,-.5 999.5,-.5"/>
<text text-anchor="start" x="1007.5" y="-51.5" font-family="Helvetica,sans-Serif" font-size="10.00" fill="#000000">/home/travis/build</text>
<text text-anchor="start" x="1007.5" y="-40.5" font-family="Helvetica,sans-Serif" font-size="10.00" fill="#000000">/AliceO2Group/AliceO2</text>
<text text-anchor="start" x="1007.5" y="-29.5" font-family="Helvetica,sans-Serif" font-size="10.00" fill="#000000">/Detectors/TOF/calibration</text>
<text text-anchor="start" x="1007.5" y="-18.5" font-family="Helvetica,sans-Serif" font-size="10.00" fill="#000000">/testWorkflow/tof&#45;channel</text>
<text text-anchor="middle" x="1071" y="-7.5" font-family="Helvetica,sans-Serif" font-size="10.00" fill="#000000">&#45;calib&#45;workflow.cxx</text>
</a>
</g>
</g>
<!-- Node15&#45;&gt;Node16 -->
<g id="edge10" class="edge">
<title>Node15&#45;&gt;Node16</title>
<path fill="none" stroke="#191970" d="M1017.5007,-92.7946C1025.9649,-83.1763 1034.9215,-72.9983 1043.0353,-63.778"/>
<polygon fill="#191970" stroke="#191970" points="1014.8226,-90.54 1010.8438,-100.3594 1020.0776,-95.1644 1014.8226,-90.54"/>
</g>
</g>
</svg>
