<?xml version="1.0" encoding="UTF-8" standalone="no"?>
<!DOCTYPE svg PUBLIC "-//W3C//DTD SVG 1.1//EN"
 "http://www.w3.org/Graphics/SVG/1.1/DTD/svg11.dtd">
<!-- Generated by graphviz version 2.40.1 (20161225.0304)
 -->
<!-- Title: /home/travis/build/AliceO2Group/AliceO2/DataFormats/Detectors/TPC/include/DataFormatsTPC/CTF.h Pages: 1 -->
<svg width="1155pt" height="464pt"
 viewBox="0.00 0.00 1155.00 464.00" xmlns="http://www.w3.org/2000/svg" xmlns:xlink="http://www.w3.org/1999/xlink">
<g id="graph0" class="graph" transform="scale(1 1) rotate(0) translate(4 460)">
<title>/home/travis/build/AliceO2Group/AliceO2/DataFormats/Detectors/TPC/include/DataFormatsTPC/CTF.h</title>
<!-- Node0 -->
<g id="node1" class="node">
<title>Node0</title>
<polygon fill="#bfbfbf" stroke="#000000" points="511,-403.5 511,-455.5 701,-455.5 701,-403.5 511,-403.5"/>
<text text-anchor="start" x="519" y="-443.5" font-family="Helvetica,sans-Serif" font-size="10.00" fill="#000000">/home/travis/build</text>
<text text-anchor="start" x="519" y="-432.5" font-family="Helvetica,sans-Serif" font-size="10.00" fill="#000000">/AliceO2Group/AliceO2</text>
<text text-anchor="start" x="519" y="-421.5" font-family="Helvetica,sans-Serif" font-size="10.00" fill="#000000">/DataFormats/Detectors</text>
<text text-anchor="middle" x="606" y="-410.5" font-family="Helvetica,sans-Serif" font-size="10.00" fill="#000000">/TPC/include/DataFormatsTPC/CTF.h</text>
</g>
<!-- Node1 -->
<g id="node2" class="node">
<title>Node1</title>
<g id="a_node2"><a xlink:href="../../da/d91/EncodedBlocks_8h.html" target="_top" xlink:title="DetectorsCommonDataFormats\l/EncodedBlocks.h">
<polygon fill="none" stroke="#000000" points="326.5,-336.5 326.5,-366.5 497.5,-366.5 497.5,-336.5 326.5,-336.5"/>
<text text-anchor="start" x="334.5" y="-354.5" font-family="Helvetica,sans-Serif" font-size="10.00" fill="#000000">DetectorsCommonDataFormats</text>
<text text-anchor="middle" x="412" y="-343.5" font-family="Helvetica,sans-Serif" font-size="10.00" fill="#000000">/EncodedBlocks.h</text>
</a>
</g>
</g>
<!-- Node0&#45;&gt;Node1 -->
<g id="edge1" class="edge">
<title>Node0&#45;&gt;Node1</title>
<path fill="none" stroke="#191970" d="M541.1311,-403.4187C514.1949,-392.5887 483.5321,-380.2603 458.847,-370.3354"/>
<polygon fill="#191970" stroke="#191970" points="459.9392,-367.0023 449.3553,-366.5192 457.3278,-373.497 459.9392,-367.0023"/>
</g>
<!-- Node31 -->
<g id="node32" class="node">
<title>Node31</title>
<g id="a_node32"><a xlink:href="../../d2/d7d/CompressedClusters_8h.html" target="_top" xlink:title="Container to store compressed TPC cluster data. ">
<polygon fill="none" stroke="#000000" points="720,-336.5 720,-366.5 882,-366.5 882,-336.5 720,-336.5"/>
<text text-anchor="start" x="728" y="-354.5" font-family="Helvetica,sans-Serif" font-size="10.00" fill="#000000">DataFormatsTPC/Compressed</text>
<text text-anchor="middle" x="801" y="-343.5" font-family="Helvetica,sans-Serif" font-size="10.00" fill="#000000">Clusters.h</text>
</a>
</g>
</g>
<!-- Node0&#45;&gt;Node31 -->
<g id="edge60" class="edge">
<title>Node0&#45;&gt;Node31</title>
<path fill="none" stroke="#191970" d="M671.2033,-403.4187C698.2783,-392.5887 729.0992,-380.2603 753.9115,-370.3354"/>
<polygon fill="#191970" stroke="#191970" points="755.4672,-373.4828 763.4521,-366.5192 752.8674,-366.9835 755.4672,-373.4828"/>
</g>
<!-- Node2 -->
<g id="node3" class="node">
<title>Node2</title>
<polygon fill="none" stroke="#bfbfbf" points="65.5,-112.5 65.5,-131.5 134.5,-131.5 134.5,-112.5 65.5,-112.5"/>
<text text-anchor="middle" x="100" y="-119.5" font-family="Helvetica,sans-Serif" font-size="10.00" fill="#000000">type_traits</text>
</g>
<!-- Node1&#45;&gt;Node2 -->
<g id="edge2" class="edge">
<title>Node1&#45;&gt;Node2</title>
<path fill="none" stroke="#191970" d="M326.3249,-339.1928C294.3557,-331.6236 259.0466,-319.4679 231,-300 169.9195,-257.6023 126.2487,-177.3997 108.629,-140.919"/>
<polygon fill="#191970" stroke="#191970" points="111.787,-139.4098 104.3573,-131.8567 105.4552,-142.3945 111.787,-139.4098"/>
</g>
<!-- Node3 -->
<g id="node4" class="node">
<title>Node3</title>
<polygon fill="none" stroke="#bfbfbf" points="703.5,-224.5 703.5,-243.5 762.5,-243.5 762.5,-224.5 703.5,-224.5"/>
<text text-anchor="middle" x="733" y="-231.5" font-family="Helvetica,sans-Serif" font-size="10.00" fill="#000000">Rtypes.h</text>
</g>
<!-- Node1&#45;&gt;Node3 -->
<g id="edge3" class="edge">
<title>Node1&#45;&gt;Node3</title>
<path fill="none" stroke="#191970" d="M411.4689,-336.4361C411.7756,-319.9887 415.0207,-294.1156 431,-280 473.1379,-242.7767 621.2836,-254.1121 693.2293,-243.7007"/>
<polygon fill="#191970" stroke="#191970" points="693.9955,-247.1209 703.2697,-241.9984 692.8253,-240.2193 693.9955,-247.1209"/>
</g>
<!-- Node4 -->
<g id="node5" class="node">
<title>Node4</title>
<g id="a_node5"><a xlink:href="../../d4/de7/rans_8h.html" target="_top" xlink:title="header for public api ">
<polygon fill="none" stroke="#000000" points="310,-280.5 310,-299.5 384,-299.5 384,-280.5 310,-280.5"/>
<text text-anchor="middle" x="347" y="-287.5" font-family="Helvetica,sans-Serif" font-size="10.00" fill="#000000">rANS/rans.h</text>
</a>
</g>
</g>
<!-- Node1&#45;&gt;Node4 -->
<g id="edge4" class="edge">
<title>Node1&#45;&gt;Node4</title>
<path fill="none" stroke="#191970" d="M395.9326,-336.2977C386.534,-327.4052 374.6473,-316.1586 364.943,-306.9769"/>
<polygon fill="#191970" stroke="#191970" points="367.0768,-304.1774 357.4073,-299.8469 362.2658,-309.2621 367.0768,-304.1774"/>
</g>
<!-- Node27 -->
<g id="node28" class="node">
<title>Node27</title>
<polygon fill="none" stroke="#bfbfbf" points="240,-280.5 240,-299.5 292,-299.5 292,-280.5 240,-280.5"/>
<text text-anchor="middle" x="266" y="-287.5" font-family="Helvetica,sans-Serif" font-size="10.00" fill="#000000">TTree.h</text>
</g>
<!-- Node1&#45;&gt;Node27 -->
<g id="edge56" class="edge">
<title>Node1&#45;&gt;Node27</title>
<path fill="none" stroke="#191970" d="M376.2844,-336.4554C352.3513,-326.374 321.1095,-313.2139 297.9906,-303.4755"/>
<polygon fill="#191970" stroke="#191970" points="299.1993,-300.1868 288.6248,-299.5303 296.4819,-306.6379 299.1993,-300.1868"/>
</g>
<!-- Node28 -->
<g id="node29" class="node">
<title>Node28</title>
<g id="a_node29"><a xlink:href="../../d4/d8f/StringUtils_8h.html" target="_top" xlink:title="CommonUtils/StringUtils.h">
<polygon fill="none" stroke="#000000" points="574,-280.5 574,-299.5 720,-299.5 720,-280.5 574,-280.5"/>
<text text-anchor="middle" x="647" y="-287.5" font-family="Helvetica,sans-Serif" font-size="10.00" fill="#000000">CommonUtils/StringUtils.h</text>
</a>
</g>
</g>
<!-- Node1&#45;&gt;Node28 -->
<g id="edge57" class="edge">
<title>Node1&#45;&gt;Node28</title>
<path fill="none" stroke="#191970" d="M469.4875,-336.4554C509.9017,-325.8789 563.2636,-311.914 600.8929,-302.0663"/>
<polygon fill="#191970" stroke="#191970" points="601.7953,-305.4481 610.5833,-299.5303 600.023,-298.6762 601.7953,-305.4481"/>
</g>
<!-- Node30 -->
<g id="node31" class="node">
<title>Node30</title>
<g id="a_node31"><a xlink:href="../../dd/da4/Logger_8h.html" target="_top" xlink:title="Framework/Logger.h">
<polygon fill="none" stroke="#000000" points="440.5,-280.5 440.5,-299.5 555.5,-299.5 555.5,-280.5 440.5,-280.5"/>
<text text-anchor="middle" x="498" y="-287.5" font-family="Helvetica,sans-Serif" font-size="10.00" fill="#000000">Framework/Logger.h</text>
</a>
</g>
</g>
<!-- Node1&#45;&gt;Node30 -->
<g id="edge59" class="edge">
<title>Node1&#45;&gt;Node30</title>
<path fill="none" stroke="#191970" d="M433.2584,-336.2977C446.2718,-326.9917 462.8903,-315.1075 476.0317,-305.7099"/>
<polygon fill="#191970" stroke="#191970" points="478.3889,-308.3271 484.4871,-299.6633 474.3171,-302.6332 478.3889,-308.3271"/>
</g>
<!-- Node5 -->
<g id="node6" class="node">
<title>Node5</title>
<g id="a_node6"><a xlink:href="../../d0/d51/SymbolStatistics_8h.html" target="_top" xlink:title="Structure to depict the distribution of symbols in the source message. ">
<polygon fill="none" stroke="#000000" points="267,-112.5 267,-131.5 401,-131.5 401,-112.5 267,-112.5"/>
<text text-anchor="middle" x="334" y="-119.5" font-family="Helvetica,sans-Serif" font-size="10.00" fill="#000000">rANS/SymbolStatistics.h</text>
</a>
</g>
</g>
<!-- Node4&#45;&gt;Node5 -->
<g id="edge5" class="edge">
<title>Node4&#45;&gt;Node5</title>
<path fill="none" stroke="#191970" d="M329.4973,-280.2902C303.6254,-264.7653 256.3643,-231.6087 239,-188 228.7876,-162.3526 256.9331,-145.219 285.1878,-134.8508"/>
<polygon fill="#191970" stroke="#191970" points="286.3893,-138.139 294.7188,-131.5915 284.1243,-131.5156 286.3893,-138.139"/>
</g>
<!-- Node17 -->
<g id="node18" class="node">
<title>Node17</title>
<g id="a_node18"><a xlink:href="../../dd/d74/Utilities_2rANS_2include_2rANS_2Encoder_8h.html" target="_top" xlink:title="rANS/Encoder.h">
<polygon fill="none" stroke="#000000" points="594.5,-224.5 594.5,-243.5 685.5,-243.5 685.5,-224.5 594.5,-224.5"/>
<text text-anchor="middle" x="640" y="-231.5" font-family="Helvetica,sans-Serif" font-size="10.00" fill="#000000">rANS/Encoder.h</text>
</a>
</g>
</g>
<!-- Node4&#45;&gt;Node17 -->
<g id="edge18" class="edge">
<title>Node4&#45;&gt;Node17</title>
<path fill="none" stroke="#191970" d="M384.0424,-282.7107C388.7398,-281.794 393.4818,-280.8724 398,-280 461.8996,-267.6623 535.3425,-253.7383 584.4038,-244.4734"/>
<polygon fill="#191970" stroke="#191970" points="585.3134,-247.8636 594.4906,-242.5693 584.0149,-240.9851 585.3134,-247.8636"/>
</g>
<!-- Node25 -->
<g id="node26" class="node">
<title>Node25</title>
<g id="a_node26"><a xlink:href="../../dc/d62/Utilities_2rANS_2include_2rANS_2Decoder_8h.html" target="_top" xlink:title="rANS/Decoder.h">
<polygon fill="none" stroke="#000000" points="301,-224.5 301,-243.5 393,-243.5 393,-224.5 301,-224.5"/>
<text text-anchor="middle" x="347" y="-231.5" font-family="Helvetica,sans-Serif" font-size="10.00" fill="#000000">rANS/Decoder.h</text>
</a>
</g>
</g>
<!-- Node4&#45;&gt;Node25 -->
<g id="edge42" class="edge">
<title>Node4&#45;&gt;Node25</title>
<path fill="none" stroke="#191970" d="M347,-280.2455C347,-272.9382 347,-262.6944 347,-253.7046"/>
<polygon fill="#191970" stroke="#191970" points="350.5001,-253.6426 347,-243.6427 343.5001,-253.6427 350.5001,-253.6426"/>
</g>
<!-- Node6 -->
<g id="node7" class="node">
<title>Node6</title>
<polygon fill="none" stroke="#bfbfbf" points="419,-56.5 419,-75.5 483,-75.5 483,-56.5 419,-56.5"/>
<text text-anchor="middle" x="451" y="-63.5" font-family="Helvetica,sans-Serif" font-size="10.00" fill="#000000">algorithm</text>
</g>
<!-- Node5&#45;&gt;Node6 -->
<g id="edge6" class="edge">
<title>Node5&#45;&gt;Node6</title>
<path fill="none" stroke="#191970" d="M354.113,-112.3733C372.8103,-103.4241 400.8744,-89.9917 421.9934,-79.8835"/>
<polygon fill="#191970" stroke="#191970" points="423.6405,-82.9755 431.1494,-75.5011 420.6183,-76.6614 423.6405,-82.9755"/>
</g>
<!-- Node7 -->
<g id="node8" class="node">
<title>Node7</title>
<polygon fill="none" stroke="#bfbfbf" points="946,-56.5 946,-75.5 998,-75.5 998,-56.5 946,-56.5"/>
<text text-anchor="middle" x="972" y="-63.5" font-family="Helvetica,sans-Serif" font-size="10.00" fill="#000000">cassert</text>
</g>
<!-- Node5&#45;&gt;Node7 -->
<g id="edge7" class="edge">
<title>Node5&#45;&gt;Node7</title>
<path fill="none" stroke="#191970" d="M401.0372,-116.4402C502.2331,-107.9988 700.0401,-91.3088 868,-76 890.5087,-73.9484 915.7449,-71.5249 935.7207,-69.5775"/>
<polygon fill="#191970" stroke="#191970" points="936.3232,-73.0354 945.935,-68.5786 935.6418,-66.0686 936.3232,-73.0354"/>
</g>
<!-- Node8 -->
<g id="node9" class="node">
<title>Node8</title>
<polygon fill="none" stroke="#bfbfbf" points="0,-56.5 0,-75.5 60,-75.5 60,-56.5 0,-56.5"/>
<text text-anchor="middle" x="30" y="-63.5" font-family="Helvetica,sans-Serif" font-size="10.00" fill="#000000">iostream</text>
</g>
<!-- Node5&#45;&gt;Node8 -->
<g id="edge8" class="edge">
<title>Node5&#45;&gt;Node8</title>
<path fill="none" stroke="#191970" d="M282.086,-112.4369C222.0244,-101.3729 124.4313,-83.3952 69.9714,-73.3632"/>
<polygon fill="#191970" stroke="#191970" points="70.4695,-69.8961 60.0008,-71.5265 69.2013,-76.7803 70.4695,-69.8961"/>
</g>
<!-- Node9 -->
<g id="node10" class="node">
<title>Node9</title>
<polygon fill="none" stroke="#bfbfbf" points="235,-56.5 235,-75.5 291,-75.5 291,-56.5 235,-56.5"/>
<text text-anchor="middle" x="263" y="-63.5" font-family="Helvetica,sans-Serif" font-size="10.00" fill="#000000">numeric</text>
</g>
<!-- Node5&#45;&gt;Node9 -->
<g id="edge9" class="edge">
<title>Node5&#45;&gt;Node9</title>
<path fill="none" stroke="#191970" d="M321.6327,-112.2455C311.0446,-103.8943 295.5936,-91.7076 283.2107,-81.9408"/>
<polygon fill="#191970" stroke="#191970" points="285.2447,-79.0875 275.2255,-75.6427 280.9097,-84.5837 285.2447,-79.0875"/>
</g>
<!-- Node10 -->
<g id="node11" class="node">
<title>Node10</title>
<polygon fill="none" stroke="#bfbfbf" points="501.5,-56.5 501.5,-75.5 548.5,-75.5 548.5,-56.5 501.5,-56.5"/>
<text text-anchor="middle" x="525" y="-63.5" font-family="Helvetica,sans-Serif" font-size="10.00" fill="#000000">vector</text>
</g>
<!-- Node5&#45;&gt;Node10 -->
<g id="edge10" class="edge">
<title>Node5&#45;&gt;Node10</title>
<path fill="none" stroke="#191970" d="M367.321,-112.4135C397.3188,-103.7576 442.8617,-90.554 491.4597,-76.1392"/>
<polygon fill="#191970" stroke="#191970" points="492.6269,-79.4437 501.2163,-73.241 490.6336,-72.7334 492.6269,-79.4437"/>
</g>
<!-- Node11 -->
<g id="node12" class="node">
<title>Node11</title>
<polygon fill="none" stroke="#bfbfbf" points="428.5,-.5 428.5,-19.5 475.5,-19.5 475.5,-.5 428.5,-.5"/>
<text text-anchor="middle" x="452" y="-7.5" font-family="Helvetica,sans-Serif" font-size="10.00" fill="#000000">cmath</text>
</g>
<!-- Node5&#45;&gt;Node11 -->
<g id="edge11" class="edge">
<title>Node5&#45;&gt;Node11</title>
<path fill="none" stroke="#191970" d="M344.0606,-112.4509C364.177,-93.3574 409.573,-50.2697 434.6094,-26.5063"/>
<polygon fill="#191970" stroke="#191970" points="437.1213,-28.9478 441.9649,-19.5249 432.3023,-23.8706 437.1213,-28.9478"/>
</g>
<!-- Node12 -->
<g id="node13" class="node">
<title>Node12</title>
<polygon fill="none" stroke="#bfbfbf" points="309.5,-56.5 309.5,-75.5 362.5,-75.5 362.5,-56.5 309.5,-56.5"/>
<text text-anchor="middle" x="336" y="-63.5" font-family="Helvetica,sans-Serif" font-size="10.00" fill="#000000">iterator</text>
</g>
<!-- Node5&#45;&gt;Node12 -->
<g id="edge12" class="edge">
<title>Node5&#45;&gt;Node12</title>
<path fill="none" stroke="#191970" d="M334.3484,-112.2455C334.6093,-104.9382 334.9752,-94.6944 335.2963,-85.7046"/>
<polygon fill="#191970" stroke="#191970" points="338.7964,-85.7613 335.6556,-75.6427 331.8008,-85.5113 338.7964,-85.7613"/>
</g>
<!-- Node13 -->
<g id="node14" class="node">
<title>Node13</title>
<polygon fill="none" stroke="#bfbfbf" points="109,-56.5 109,-75.5 217,-75.5 217,-56.5 109,-56.5"/>
<text text-anchor="middle" x="163" y="-63.5" font-family="Helvetica,sans-Serif" font-size="10.00" fill="#000000">fairlogger/Logger.h</text>
</g>
<!-- Node5&#45;&gt;Node13 -->
<g id="edge13" class="edge">
<title>Node5&#45;&gt;Node13</title>
<path fill="none" stroke="#191970" d="M304.6041,-112.3733C276.1693,-103.0613 232.9123,-88.8953 201.6919,-78.671"/>
<polygon fill="#191970" stroke="#191970" points="202.605,-75.2872 192.0124,-75.5011 200.4264,-81.9396 202.605,-75.2872"/>
</g>
<!-- Node14 -->
<g id="node15" class="node">
<title>Node14</title>
<g id="a_node15"><a xlink:href="../../d4/da1/helper_8h.html" target="_top" xlink:title="various helper functions ">
<polygon fill="none" stroke="#000000" points="616,-56.5 616,-75.5 672,-75.5 672,-56.5 616,-56.5"/>
<text text-anchor="middle" x="644" y="-63.5" font-family="Helvetica,sans-Serif" font-size="10.00" fill="#000000">helper.h</text>
</a>
</g>
</g>
<!-- Node5&#45;&gt;Node14 -->
<g id="edge14" class="edge">
<title>Node5&#45;&gt;Node14</title>
<path fill="none" stroke="#191970" d="M386.9387,-112.4369C449.1604,-101.1968 550.8823,-82.8213 605.8575,-72.8903"/>
<polygon fill="#191970" stroke="#191970" points="606.6626,-76.3016 615.8811,-71.0795 605.4182,-69.413 606.6626,-76.3016"/>
</g>
<!-- Node14&#45;&gt;Node11 -->
<g id="edge16" class="edge">
<title>Node14&#45;&gt;Node11</title>
<path fill="none" stroke="#191970" d="M615.6697,-57.737C580.963,-47.6142 522.2473,-30.4888 485.3831,-19.7367"/>
<polygon fill="#191970" stroke="#191970" points="486.1831,-16.3243 475.6031,-16.8842 484.2231,-23.0443 486.1831,-16.3243"/>
</g>
<!-- Node15 -->
<g id="node16" class="node">
<title>Node15</title>
<polygon fill="none" stroke="#bfbfbf" points="554.5,-.5 554.5,-19.5 607.5,-19.5 607.5,-.5 554.5,-.5"/>
<text text-anchor="middle" x="581" y="-7.5" font-family="Helvetica,sans-Serif" font-size="10.00" fill="#000000">cstddef</text>
</g>
<!-- Node14&#45;&gt;Node15 -->
<g id="edge15" class="edge">
<title>Node14&#45;&gt;Node15</title>
<path fill="none" stroke="#191970" d="M633.0262,-56.2455C623.8118,-48.0549 610.4468,-36.1749 599.5703,-26.5069"/>
<polygon fill="#191970" stroke="#191970" points="601.6474,-23.6704 591.848,-19.6427 596.9968,-28.9023 601.6474,-23.6704"/>
</g>
<!-- Node16 -->
<g id="node17" class="node">
<title>Node16</title>
<polygon fill="none" stroke="#bfbfbf" points="626,-.5 626,-19.5 676,-19.5 676,-.5 626,-.5"/>
<text text-anchor="middle" x="651" y="-7.5" font-family="Helvetica,sans-Serif" font-size="10.00" fill="#000000">chrono</text>
</g>
<!-- Node14&#45;&gt;Node16 -->
<g id="edge17" class="edge">
<title>Node14&#45;&gt;Node16</title>
<path fill="none" stroke="#191970" d="M645.2193,-56.2455C646.1327,-48.9382 647.4132,-38.6944 648.5369,-29.7046"/>
<polygon fill="#191970" stroke="#191970" points="652.0272,-29.9996 649.7947,-19.6427 645.0813,-29.1313 652.0272,-29.9996"/>
</g>
<!-- Node17&#45;&gt;Node6 -->
<g id="edge20" class="edge">
<title>Node17&#45;&gt;Node6</title>
<path fill="none" stroke="#191970" d="M629.297,-224.4862C598.3858,-197.0096 508.6974,-117.2866 469.5936,-82.5276"/>
<polygon fill="#191970" stroke="#191970" points="471.8558,-79.8556 462.0564,-75.8279 467.2052,-85.0875 471.8558,-79.8556"/>
</g>
<!-- Node17&#45;&gt;Node13 -->
<g id="edge21" class="edge">
<title>Node17&#45;&gt;Node13</title>
<path fill="none" stroke="#191970" d="M594.3457,-233.356C502.3139,-231.3253 298.2443,-222.902 239,-188 200.0891,-165.0768 178.2115,-113.5931 168.7304,-85.3861"/>
<polygon fill="#191970" stroke="#191970" points="171.9566,-83.9805 165.5992,-75.505 165.2836,-86.0951 171.9566,-83.9805"/>
</g>
<!-- Node17&#45;&gt;Node14 -->
<g id="edge41" class="edge">
<title>Node17&#45;&gt;Node14</title>
<path fill="none" stroke="#191970" d="M643.5876,-224.2967C646.7841,-215.1001 651.2228,-200.8237 653,-188 657.9835,-152.0415 652.2998,-109.712 647.972,-85.5502"/>
<polygon fill="#191970" stroke="#191970" points="651.3738,-84.7042 646.0655,-75.5351 644.4973,-86.0132 651.3738,-84.7042"/>
</g>
<!-- Node18 -->
<g id="node19" class="node">
<title>Node18</title>
<polygon fill="none" stroke="#bfbfbf" points="795,-168.5 795,-187.5 853,-187.5 853,-168.5 795,-168.5"/>
<text text-anchor="middle" x="824" y="-175.5" font-family="Helvetica,sans-Serif" font-size="10.00" fill="#000000">memory</text>
</g>
<!-- Node17&#45;&gt;Node18 -->
<g id="edge19" class="edge">
<title>Node17&#45;&gt;Node18</title>
<path fill="none" stroke="#191970" d="M671.6307,-224.3733C703.0114,-214.8226 751.1694,-200.1658 784.924,-189.8927"/>
<polygon fill="#191970" stroke="#191970" points="786.3549,-193.1158 794.9026,-186.8557 784.3167,-186.4191 786.3549,-193.1158"/>
</g>
<!-- Node19 -->
<g id="node20" class="node">
<title>Node19</title>
<polygon fill="none" stroke="#bfbfbf" points="871.5,-168.5 871.5,-187.5 936.5,-187.5 936.5,-168.5 871.5,-168.5"/>
<text text-anchor="middle" x="904" y="-175.5" font-family="Helvetica,sans-Serif" font-size="10.00" fill="#000000">stdexcept</text>
</g>
<!-- Node17&#45;&gt;Node19 -->
<g id="edge22" class="edge">
<title>Node17&#45;&gt;Node19</title>
<path fill="none" stroke="#191970" d="M685.5776,-224.9639C728.4078,-216.3809 794.5429,-202.8939 861.5695,-188.0468"/>
<polygon fill="#191970" stroke="#191970" points="862.4607,-191.4342 871.4625,-185.8468 860.9411,-184.6011 862.4607,-191.4342"/>
</g>
<!-- Node20 -->
<g id="node21" class="node">
<title>Node20</title>
<g id="a_node21"><a xlink:href="../../d8/dd9/SymbolTable_8h.html" target="_top" xlink:title="Container for information needed to encode/decode a symbol of the alphabet. ">
<polygon fill="none" stroke="#000000" points="428,-168.5 428,-187.5 516,-187.5 516,-168.5 428,-168.5"/>
<text text-anchor="middle" x="472" y="-175.5" font-family="Helvetica,sans-Serif" font-size="10.00" fill="#000000">SymbolTable.h</text>
</a>
</g>
</g>
<!-- Node17&#45;&gt;Node20 -->
<g id="edge23" class="edge">
<title>Node17&#45;&gt;Node20</title>
<path fill="none" stroke="#191970" d="M611.1198,-224.3733C583.1839,-215.0613 540.6858,-200.8953 510.0131,-190.671"/>
<polygon fill="#191970" stroke="#191970" points="511.097,-187.3431 500.5034,-187.5011 508.8834,-193.9839 511.097,-187.3431"/>
</g>
<!-- Node22 -->
<g id="node23" class="node">
<title>Node22</title>
<g id="a_node23"><a xlink:href="../../d2/d53/EncoderSymbol_8h.html" target="_top" xlink:title="Structure containing all relevant information to encode a symbol. ">
<polygon fill="none" stroke="#000000" points="921.5,-112.5 921.5,-131.5 1022.5,-131.5 1022.5,-112.5 921.5,-112.5"/>
<text text-anchor="middle" x="972" y="-119.5" font-family="Helvetica,sans-Serif" font-size="10.00" fill="#000000">EncoderSymbol.h</text>
</a>
</g>
</g>
<!-- Node17&#45;&gt;Node22 -->
<g id="edge28" class="edge">
<title>Node17&#45;&gt;Node22</title>
<path fill="none" stroke="#191970" d="M685.642,-225.4111C688.4681,-224.9217 691.2715,-224.4473 694,-224 749.8233,-214.8478 901.6151,-223.0711 946,-188 960.1516,-176.818 966.6207,-156.8296 969.5658,-141.7705"/>
<polygon fill="#191970" stroke="#191970" points="973.0256,-142.2997 971.1469,-131.8727 966.1132,-141.1954 973.0256,-142.2997"/>
</g>
<!-- Node23 -->
<g id="node24" class="node">
<title>Node23</title>
<g id="a_node24"><a xlink:href="../../d5/d7a/Coder_8h.html" target="_top" xlink:title="Stateless class for coding and decoding symbols using rANS. ">
<polygon fill="none" stroke="#000000" points="723.5,-168.5 723.5,-187.5 776.5,-187.5 776.5,-168.5 723.5,-168.5"/>
<text text-anchor="middle" x="750" y="-175.5" font-family="Helvetica,sans-Serif" font-size="10.00" fill="#000000">Coder.h</text>
</a>
</g>
</g>
<!-- Node17&#45;&gt;Node23 -->
<g id="edge32" class="edge">
<title>Node17&#45;&gt;Node23</title>
<path fill="none" stroke="#191970" d="M659.1605,-224.2455C676.5111,-215.4125 702.2901,-202.2887 721.9583,-192.2758"/>
<polygon fill="#191970" stroke="#191970" points="723.7353,-195.2986 731.059,-187.6427 720.5595,-189.0605 723.7353,-195.2986"/>
</g>
<!-- Node20&#45;&gt;Node5 -->
<g id="edge27" class="edge">
<title>Node20&#45;&gt;Node5</title>
<path fill="none" stroke="#191970" d="M448.277,-168.3733C425.8263,-159.2629 391.9261,-145.5062 366.8745,-135.3404"/>
<polygon fill="#191970" stroke="#191970" points="367.9957,-132.0182 357.4135,-131.5011 365.3635,-138.5045 367.9957,-132.0182"/>
</g>
<!-- Node20&#45;&gt;Node10 -->
<g id="edge24" class="edge">
<title>Node20&#45;&gt;Node10</title>
<path fill="none" stroke="#191970" d="M476.5188,-168.4509C485.2803,-149.936 504.7185,-108.8591 516.1421,-84.7187"/>
<polygon fill="#191970" stroke="#191970" points="519.3789,-86.061 520.4927,-75.5249 513.0516,-83.0668 519.3789,-86.061"/>
</g>
<!-- Node20&#45;&gt;Node13 -->
<g id="edge26" class="edge">
<title>Node20&#45;&gt;Node13</title>
<path fill="none" stroke="#191970" d="M427.847,-169.4744C369.8216,-158.1217 273.4256,-138.6945 258,-132 242.5628,-125.3005 206.6239,-99.0874 183.6419,-81.7809"/>
<polygon fill="#191970" stroke="#191970" points="185.6229,-78.8908 175.538,-75.6434 181.3967,-84.471 185.6229,-78.8908"/>
</g>
<!-- Node21 -->
<g id="node22" class="node">
<title>Node21</title>
<polygon fill="none" stroke="#bfbfbf" points="809,-56.5 809,-75.5 859,-75.5 859,-56.5 809,-56.5"/>
<text text-anchor="middle" x="834" y="-63.5" font-family="Helvetica,sans-Serif" font-size="10.00" fill="#000000">cstdint</text>
</g>
<!-- Node20&#45;&gt;Node21 -->
<g id="edge25" class="edge">
<title>Node20&#45;&gt;Node21</title>
<path fill="none" stroke="#191970" d="M502.8639,-168.4509C569.8426,-147.7282 728.1726,-98.7422 798.8585,-76.8725"/>
<polygon fill="#191970" stroke="#191970" points="800.1116,-80.1486 808.6303,-73.8492 798.0426,-73.4613 800.1116,-80.1486"/>
</g>
<!-- Node22&#45;&gt;Node7 -->
<g id="edge30" class="edge">
<title>Node22&#45;&gt;Node7</title>
<path fill="none" stroke="#191970" d="M972,-112.2455C972,-104.9382 972,-94.6944 972,-85.7046"/>
<polygon fill="#191970" stroke="#191970" points="975.5001,-85.6426 972,-75.6427 968.5001,-85.6427 975.5001,-85.6426"/>
</g>
<!-- Node22&#45;&gt;Node14 -->
<g id="edge31" class="edge">
<title>Node22&#45;&gt;Node14</title>
<path fill="none" stroke="#191970" d="M921.4688,-113.3727C855.5247,-102.114 741.5721,-82.6586 682.3052,-72.5399"/>
<polygon fill="#191970" stroke="#191970" points="682.6899,-69.055 672.2434,-70.822 681.5117,-75.9552 682.6899,-69.055"/>
</g>
<!-- Node22&#45;&gt;Node21 -->
<g id="edge29" class="edge">
<title>Node22&#45;&gt;Node21</title>
<path fill="none" stroke="#191970" d="M948.277,-112.3733C925.8263,-103.2629 891.9261,-89.5062 866.8745,-79.3404"/>
<polygon fill="#191970" stroke="#191970" points="867.9957,-76.0182 857.4135,-75.5011 865.3635,-82.5045 867.9957,-76.0182"/>
</g>
<!-- Node23&#45;&gt;Node2 -->
<g id="edge36" class="edge">
<title>Node23&#45;&gt;Node2</title>
<path fill="none" stroke="#191970" d="M723.3074,-175.7003C623.2762,-167.0823 269.9661,-136.6432 144.5602,-125.839"/>
<polygon fill="#191970" stroke="#191970" points="144.7984,-122.3467 134.5348,-124.9753 144.1975,-129.3208 144.7984,-122.3467"/>
</g>
<!-- Node23&#45;&gt;Node7 -->
<g id="edge35" class="edge">
<title>Node23&#45;&gt;Node7</title>
<path fill="none" stroke="#191970" d="M776.6444,-170.197C779.784,-169.397 782.9536,-168.6434 786,-168 840.0566,-156.584 995.8721,-173.7997 1032,-132 1047.4859,-114.083 1023.0579,-94.0195 1000.8773,-80.768"/>
<polygon fill="#191970" stroke="#191970" points="1002.3725,-77.5922 991.9476,-75.7021 998.9184,-83.6807 1002.3725,-77.5922"/>
</g>
<!-- Node23&#45;&gt;Node10 -->
<g id="edge33" class="edge">
<title>Node23&#45;&gt;Node10</title>
<path fill="none" stroke="#191970" d="M730.8166,-168.4509C691.1307,-148.6961 599.8457,-103.2565 553.3435,-80.1088"/>
<polygon fill="#191970" stroke="#191970" points="554.6467,-76.8479 544.1348,-75.5249 551.5273,-83.1144 554.6467,-76.8479"/>
</g>
<!-- Node23&#45;&gt;Node14 -->
<g id="edge40" class="edge">
<title>Node23&#45;&gt;Node14</title>
<path fill="none" stroke="#191970" d="M776.7681,-169.8835C808.6194,-158.8499 855.1168,-137.5369 835,-112 816.379,-88.3619 732.6885,-75.4559 682.4737,-69.7174"/>
<polygon fill="#191970" stroke="#191970" points="682.6243,-66.213 672.3019,-68.6004 681.8601,-73.1711 682.6243,-66.213"/>
</g>
<!-- Node23&#45;&gt;Node21 -->
<g id="edge34" class="edge">
<title>Node23&#45;&gt;Node21</title>
<path fill="none" stroke="#191970" d="M776.5557,-169.4991C809.9238,-158.5536 863.5206,-139.9926 869,-132 879.7896,-116.2615 866.6174,-96.814 853.4618,-83.119"/>
<polygon fill="#191970" stroke="#191970" points="855.5166,-80.2365 845.8991,-75.7918 850.6457,-85.2639 855.5166,-80.2365"/>
</g>
<!-- Node23&#45;&gt;Node22 -->
<g id="edge39" class="edge">
<title>Node23&#45;&gt;Node22</title>
<path fill="none" stroke="#191970" d="M776.7134,-170.4884C779.8406,-169.6361 782.9884,-168.7905 786,-168 831.879,-155.9573 884.3559,-143.0586 921.8463,-133.9937"/>
<polygon fill="#191970" stroke="#191970" points="923.1051,-137.2905 932.0051,-131.5425 921.4631,-130.4858 923.1051,-137.2905"/>
</g>
<!-- Node24 -->
<g id="node25" class="node">
<title>Node24</title>
<g id="a_node25"><a xlink:href="../../d7/d99/DecoderSymbol_8h.html" target="_top" xlink:title="Structure containing all relevant information for decoding a rANS encoded symbol. ...">
<polygon fill="none" stroke="#000000" points="723.5,-112.5 723.5,-131.5 826.5,-131.5 826.5,-112.5 723.5,-112.5"/>
<text text-anchor="middle" x="775" y="-119.5" font-family="Helvetica,sans-Serif" font-size="10.00" fill="#000000">DecoderSymbol.h</text>
</a>
</g>
</g>
<!-- Node23&#45;&gt;Node24 -->
<g id="edge37" class="edge">
<title>Node23&#45;&gt;Node24</title>
<path fill="none" stroke="#191970" d="M754.3547,-168.2455C757.7244,-160.6973 762.493,-150.0158 766.5983,-140.8197"/>
<polygon fill="#191970" stroke="#191970" points="769.8147,-142.2009 770.6952,-131.6427 763.4227,-139.3473 769.8147,-142.2009"/>
</g>
<!-- Node24&#45;&gt;Node21 -->
<g id="edge38" class="edge">
<title>Node24&#45;&gt;Node21</title>
<path fill="none" stroke="#191970" d="M785.277,-112.2455C793.8218,-104.1352 806.1778,-92.4075 816.3085,-82.7919"/>
<polygon fill="#191970" stroke="#191970" points="818.9972,-85.0655 823.8408,-75.6427 814.1782,-79.9884 818.9972,-85.0655"/>
</g>
<!-- Node25&#45;&gt;Node2 -->
<g id="edge44" class="edge">
<title>Node25&#45;&gt;Node2</title>
<path fill="none" stroke="#191970" d="M300.7821,-227.0439C250.3953,-218.8077 173.645,-204.1543 149,-188 131.1807,-176.3198 117.4801,-155.8158 109.1547,-140.7525"/>
<polygon fill="#191970" stroke="#191970" points="112.2034,-139.0295 104.4707,-131.7869 105.9991,-142.2709 112.2034,-139.0295"/>
</g>
<!-- Node25&#45;&gt;Node8 -->
<g id="edge45" class="edge">
<title>Node25&#45;&gt;Node8</title>
<path fill="none" stroke="#191970" d="M300.7844,-230.7986C234.2235,-225.399 115.5633,-212.5826 81,-188 47.4578,-164.1436 35.8831,-113.8596 31.9581,-85.8689"/>
<polygon fill="#191970" stroke="#191970" points="35.4038,-85.2066 30.734,-75.6964 28.4539,-86.0429 35.4038,-85.2066"/>
</g>
<!-- Node25&#45;&gt;Node13 -->
<g id="edge46" class="edge">
<title>Node25&#45;&gt;Node13</title>
<path fill="none" stroke="#191970" d="M300.9485,-231.0017C254.3574,-226.5079 181.2351,-215.3782 124,-188 88.6813,-171.1054 72.7093,-167.4068 56,-132 43.4218,-105.347 73.8823,-88.4485 105.4781,-78.4297"/>
<polygon fill="#191970" stroke="#191970" points="106.6738,-81.7261 115.2738,-75.538 104.692,-75.0125 106.6738,-81.7261"/>
</g>
<!-- Node25&#45;&gt;Node15 -->
<g id="edge43" class="edge">
<title>Node25&#45;&gt;Node15</title>
<path fill="none" stroke="#191970" d="M393.3624,-227.2193C439.5407,-219.5776 506.1926,-205.8556 525,-188 569.9437,-145.3307 578.9885,-67.038 580.6895,-30.1873"/>
<polygon fill="#191970" stroke="#191970" points="584.2008,-29.8827 581.0199,-19.7766 577.2043,-29.6605 584.2008,-29.8827"/>
</g>
<!-- Node25&#45;&gt;Node20 -->
<g id="edge47" class="edge">
<title>Node25&#45;&gt;Node20</title>
<path fill="none" stroke="#191970" d="M368.4883,-224.3733C388.644,-215.3435 418.988,-201.7494 441.618,-191.6111"/>
<polygon fill="#191970" stroke="#191970" points="443.0971,-194.7838 450.7921,-187.5011 440.2351,-188.3955 443.0971,-194.7838"/>
</g>
<!-- Node25&#45;&gt;Node23 -->
<g id="edge55" class="edge">
<title>Node25&#45;&gt;Node23</title>
<path fill="none" stroke="#191970" d="M393.2292,-227.5761C474.0225,-216.3492 639.3198,-193.3799 713.0611,-183.1329"/>
<polygon fill="#191970" stroke="#191970" points="713.8326,-186.5595 723.2557,-181.7163 712.8691,-179.6261 713.8326,-186.5595"/>
</g>
<!-- Node25&#45;&gt;Node24 -->
<g id="edge48" class="edge">
<title>Node25&#45;&gt;Node24</title>
<path fill="none" stroke="#191970" d="M393.2074,-226.5003C439.9277,-218.511 514.0285,-204.723 577,-188 634.9891,-172.6001 700.7997,-149.5093 740.0523,-135.1198"/>
<polygon fill="#191970" stroke="#191970" points="741.5052,-138.3145 749.6766,-131.5707 739.0832,-131.7469 741.5052,-138.3145"/>
</g>
<!-- Node26 -->
<g id="node27" class="node">
<title>Node26</title>
<g id="a_node27"><a xlink:href="../../dc/d3b/ReverseSymbolLookupTable_8h.html" target="_top" xlink:title="Maps CDF back to source symbol &#45; needed for the decoder. ">
<polygon fill="none" stroke="#000000" points="248,-168.5 248,-187.5 410,-187.5 410,-168.5 248,-168.5"/>
<text text-anchor="middle" x="329" y="-175.5" font-family="Helvetica,sans-Serif" font-size="10.00" fill="#000000">ReverseSymbolLookupTable.h</text>
</a>
</g>
</g>
<!-- Node25&#45;&gt;Node26 -->
<g id="edge49" class="edge">
<title>Node25&#45;&gt;Node26</title>
<path fill="none" stroke="#191970" d="M343.8646,-224.2455C341.49,-216.8579 338.1507,-206.4689 335.2385,-197.4087"/>
<polygon fill="#191970" stroke="#191970" points="338.4917,-196.0919 332.0994,-187.6427 331.8275,-198.234 338.4917,-196.0919"/>
</g>
<!-- Node26&#45;&gt;Node2 -->
<g id="edge51" class="edge">
<title>Node26&#45;&gt;Node2</title>
<path fill="none" stroke="#191970" d="M289.8937,-168.4369C249.5659,-158.5751 186.7759,-143.2203 144.5552,-132.8956"/>
<polygon fill="#191970" stroke="#191970" points="145.3648,-129.4905 134.8196,-130.5148 143.7019,-136.2901 145.3648,-129.4905"/>
</g>
<!-- Node26&#45;&gt;Node5 -->
<g id="edge53" class="edge">
<title>Node26&#45;&gt;Node5</title>
<path fill="none" stroke="#191970" d="M329.8709,-168.2455C330.5234,-160.9382 331.438,-150.6944 332.2407,-141.7046"/>
<polygon fill="#191970" stroke="#191970" points="335.7358,-141.9143 333.139,-131.6427 328.7635,-141.2918 335.7358,-141.9143"/>
</g>
<!-- Node26&#45;&gt;Node10 -->
<g id="edge50" class="edge">
<title>Node26&#45;&gt;Node10</title>
<path fill="none" stroke="#191970" d="M346.0792,-168.3304C362.4808,-159.0374 387.9504,-144.5882 410,-132 440.7482,-114.4458 476.061,-94.1606 499.3539,-80.7628"/>
<polygon fill="#191970" stroke="#191970" points="501.3314,-83.6631 508.2538,-75.6425 497.8406,-77.5956 501.3314,-83.6631"/>
</g>
<!-- Node26&#45;&gt;Node13 -->
<g id="edge52" class="edge">
<title>Node26&#45;&gt;Node13</title>
<path fill="none" stroke="#191970" d="M299.1047,-168.402C277.37,-160.5904 247.8732,-148.2102 225,-132 205.8803,-118.4499 188.0057,-98.3027 176.4086,-83.835"/>
<polygon fill="#191970" stroke="#191970" points="178.9526,-81.4055 170.044,-75.6706 173.4318,-85.7092 178.9526,-81.4055"/>
</g>
<!-- Node26&#45;&gt;Node14 -->
<g id="edge54" class="edge">
<title>Node26&#45;&gt;Node14</title>
<path fill="none" stroke="#191970" d="M355.8567,-168.4509C412.347,-148.3655 543.514,-101.7284 607.5346,-78.9655"/>
<polygon fill="#191970" stroke="#191970" points="608.9617,-82.1728 617.2113,-75.5249 606.6165,-75.5773 608.9617,-82.1728"/>
</g>
<!-- Node29 -->
<g id="node30" class="node">
<title>Node29</title>
<polygon fill="none" stroke="#bfbfbf" points="781,-224.5 781,-243.5 837,-243.5 837,-224.5 781,-224.5"/>
<text text-anchor="middle" x="809" y="-231.5" font-family="Helvetica,sans-Serif" font-size="10.00" fill="#000000">sstream</text>
</g>
<!-- Node28&#45;&gt;Node29 -->
<g id="edge58" class="edge">
<title>Node28&#45;&gt;Node29</title>
<path fill="none" stroke="#191970" d="M674.8488,-280.3733C701.6703,-271.1016 742.4127,-257.0178 771.9598,-246.804"/>
<polygon fill="#191970" stroke="#191970" points="773.2069,-250.0762 781.5146,-243.5011 770.9198,-243.4603 773.2069,-250.0762"/>
</g>
<!-- Node32 -->
<g id="node33" class="node">
<title>Node32</title>
<g id="a_node33"><a xlink:href="../../df/d21/GPUCommonDef_8h.html" target="_top" xlink:title="GPUCommonDef.h">
<polygon fill="none" stroke="#000000" points="881.5,-280.5 881.5,-299.5 988.5,-299.5 988.5,-280.5 881.5,-280.5"/>
<text text-anchor="middle" x="935" y="-287.5" font-family="Helvetica,sans-Serif" font-size="10.00" fill="#000000">GPUCommonDef.h</text>
</a>
</g>
</g>
<!-- Node31&#45;&gt;Node32 -->
<g id="edge61" class="edge">
<title>Node31&#45;&gt;Node32</title>
<path fill="none" stroke="#191970" d="M833.7801,-336.4554C855.55,-326.464 883.9086,-313.4487 905.0686,-303.7372"/>
<polygon fill="#191970" stroke="#191970" points="906.6062,-306.8826 914.2348,-299.5303 903.6863,-300.5206 906.6062,-306.8826"/>
</g>
<!-- Node35 -->
<g id="node36" class="node">
<title>Node35</title>
<g id="a_node36"><a xlink:href="../../d2/d45/GPUCommonRtypes_8h.html" target="_top" xlink:title="GPUCommonRtypes.h">
<polygon fill="none" stroke="#000000" points="738.5,-280.5 738.5,-299.5 863.5,-299.5 863.5,-280.5 738.5,-280.5"/>
<text text-anchor="middle" x="801" y="-287.5" font-family="Helvetica,sans-Serif" font-size="10.00" fill="#000000">GPUCommonRtypes.h</text>
</a>
</g>
</g>
<!-- Node31&#45;&gt;Node35 -->
<g id="edge64" class="edge">
<title>Node31&#45;&gt;Node35</title>
<path fill="none" stroke="#191970" d="M801,-336.2977C801,-328.3834 801,-318.6043 801,-310.0759"/>
<polygon fill="#191970" stroke="#191970" points="804.5001,-309.8469 801,-299.8469 797.5001,-309.847 804.5001,-309.8469"/>
</g>
<!-- Node33 -->
<g id="node34" class="node">
<title>Node33</title>
<g id="a_node34"><a xlink:href="../../d5/d93/GPUCommonDefSettings_8h.html" target="_top" xlink:title="GPUCommonDefSettings.h">
<polygon fill="none" stroke="#000000" points="857,-224.5 857,-243.5 1005,-243.5 1005,-224.5 857,-224.5"/>
<text text-anchor="middle" x="931" y="-231.5" font-family="Helvetica,sans-Serif" font-size="10.00" fill="#000000">GPUCommonDefSettings.h</text>
</a>
</g>
</g>
<!-- Node32&#45;&gt;Node33 -->
<g id="edge62" class="edge">
<title>Node32&#45;&gt;Node33</title>
<path fill="none" stroke="#191970" d="M934.3033,-280.2455C933.7813,-272.9382 933.0496,-262.6944 932.4075,-253.7046"/>
<polygon fill="#191970" stroke="#191970" points="935.8924,-253.3679 931.6888,-243.6427 928.9102,-253.8667 935.8924,-253.3679"/>
</g>
<!-- Node34 -->
<g id="node35" class="node">
<title>Node34</title>
<g id="a_node35"><a xlink:href="../../da/d5a/GPUCommonDefAPI_8h.html" target="_top" xlink:title="GPUCommonDefAPI.h">
<polygon fill="none" stroke="#000000" points="1023,-224.5 1023,-243.5 1147,-243.5 1147,-224.5 1023,-224.5"/>
<text text-anchor="middle" x="1085" y="-231.5" font-family="Helvetica,sans-Serif" font-size="10.00" fill="#000000">GPUCommonDefAPI.h</text>
</a>
</g>
</g>
<!-- Node32&#45;&gt;Node34 -->
<g id="edge63" class="edge">
<title>Node32&#45;&gt;Node34</title>
<path fill="none" stroke="#191970" d="M960.7859,-280.3733C985.4047,-271.1822 1022.69,-257.2624 1049.9875,-247.0713"/>
<polygon fill="#191970" stroke="#191970" points="1051.4063,-250.2777 1059.5506,-243.5011 1048.958,-243.7198 1051.4063,-250.2777"/>
</g>
<!-- Node35&#45;&gt;Node3 -->
<g id="edge65" class="edge">
<title>Node35&#45;&gt;Node3</title>
<path fill="none" stroke="#191970" d="M789.1553,-280.2455C779.112,-271.9746 764.5005,-259.9416 752.6996,-250.2232"/>
<polygon fill="#191970" stroke="#191970" points="754.6533,-247.298 744.709,-243.6427 750.2033,-252.7015 754.6533,-247.298"/>
</g>
</g>
</svg>
