<?xml version="1.0" encoding="UTF-8" standalone="no"?>
<!DOCTYPE svg PUBLIC "-//W3C//DTD SVG 1.1//EN"
 "http://www.w3.org/Graphics/SVG/1.1/DTD/svg11.dtd">
<!-- Generated by graphviz version 2.40.1 (20161225.0304)
 -->
<!-- Title: o2::framework::DeviceSpec Pages: 1 -->
<svg width="2109pt" height="430pt"
 viewBox="0.00 0.00 2109.00 430.00" xmlns="http://www.w3.org/2000/svg" xmlns:xlink="http://www.w3.org/1999/xlink">
<g id="graph0" class="graph" transform="scale(1 1) rotate(0) translate(4 426)">
<title>o2::framework::DeviceSpec</title>
<!-- Node1 -->
<g id="node1" class="node">
<title>Node1</title>
<polygon fill="#bfbfbf" stroke="#000000" points="984.5,-.5 984.5,-57.5 1135.5,-57.5 1135.5,-.5 984.5,-.5"/>
<text text-anchor="middle" x="1060" y="-45.5" font-family="Helvetica,sans-Serif" font-size="10.00" fill="#000000">o2::framework::DeviceSpec</text>
<polyline fill="none" stroke="#000000" points="984.5,-38.5 1135.5,-38.5 "/>
<text text-anchor="middle" x="1060" y="-26.5" font-family="Helvetica,sans-Serif" font-size="10.00" fill="#000000"> </text>
<polyline fill="none" stroke="#000000" points="984.5,-19.5 1135.5,-19.5 "/>
<text text-anchor="middle" x="1060" y="-7.5" font-family="Helvetica,sans-Serif" font-size="10.00" fill="#000000"> </text>
</g>
<!-- Node2 -->
<g id="node2" class="node">
<title>Node2</title>
<g id="a_node2"><a xlink:href="../../d4/d18/structo2_1_1framework_1_1ComputingResource.html" target="_top" xlink:title="A computing resource which can be offered to run a device. ">
<polygon fill="none" stroke="#000000" points="41.5,-171.5 41.5,-250.5 188.5,-250.5 188.5,-171.5 41.5,-171.5"/>
<text text-anchor="start" x="49.5" y="-238.5" font-family="Helvetica,sans-Serif" font-size="10.00" fill="#000000">o2::framework::Computing</text>
<text text-anchor="middle" x="115" y="-227.5" font-family="Helvetica,sans-Serif" font-size="10.00" fill="#000000">Resource</text>
<polyline fill="none" stroke="#000000" points="41.5,-220.5 188.5,-220.5 "/>
<text text-anchor="middle" x="115" y="-208.5" font-family="Helvetica,sans-Serif" font-size="10.00" fill="#000000"> </text>
<polyline fill="none" stroke="#000000" points="41.5,-201.5 188.5,-201.5 "/>
<text text-anchor="start" x="49.5" y="-189.5" font-family="Helvetica,sans-Serif" font-size="10.00" fill="#000000">+ ComputingResource()</text>
<text text-anchor="start" x="49.5" y="-178.5" font-family="Helvetica,sans-Serif" font-size="10.00" fill="#000000">+ ComputingResource()</text>
</a>
</g>
</g>
<!-- Node2&#45;&gt;Node1 -->
<g id="edge1" class="edge">
<title>Node2&#45;&gt;Node1</title>
<path fill="none" stroke="#404040" d="M122.6688,-171.2252C131.0169,-139.6972 147.7444,-97.4903 180,-76 212.5715,-54.2992 755.4534,-37.258 971.9228,-31.2949"/>
<polygon fill="none" stroke="#404040" points="972.1589,-31.2886 978.0472,-27.1259 984.1544,-30.9602 978.2661,-35.1229 972.1589,-31.2886"/>
<text text-anchor="middle" x="207" y="-95.5" font-family="Helvetica,sans-Serif" font-size="10.00" fill="#000000"> +resource</text>
</g>
<!-- Node3 -->
<g id="node3" class="node">
<title>Node3</title>
<g id="a_node3"><a xlink:href="../../d4/dc3/classfloat.html" target="_top" xlink:title="{float\n||}">
<polygon fill="none" stroke="#000000" points="0,-359 0,-416 38,-416 38,-359 0,-359"/>
<text text-anchor="middle" x="19" y="-404" font-family="Helvetica,sans-Serif" font-size="10.00" fill="#000000">float</text>
<polyline fill="none" stroke="#000000" points="0,-397 38,-397 "/>
<text text-anchor="middle" x="19" y="-385" font-family="Helvetica,sans-Serif" font-size="10.00" fill="#000000"> </text>
<polyline fill="none" stroke="#000000" points="0,-378 38,-378 "/>
<text text-anchor="middle" x="19" y="-366" font-family="Helvetica,sans-Serif" font-size="10.00" fill="#000000"> </text>
</a>
</g>
</g>
<!-- Node3&#45;&gt;Node2 -->
<g id="edge2" class="edge">
<title>Node3&#45;&gt;Node2</title>
<path fill="none" stroke="#404040" d="M21.4516,-358.6058C23.7742,-341.4588 28.2797,-319.687 37,-302 44.2591,-287.2767 54.4516,-272.9859 65.0801,-260.2592"/>
<polygon fill="none" stroke="#404040" points="65.3828,-259.9108 66.2971,-252.7578 73.2515,-250.8507 72.3371,-258.0037 65.3828,-259.9108"/>
<text text-anchor="middle" x="62" y="-321.5" font-family="Helvetica,sans-Serif" font-size="10.00" fill="#000000"> +cpu</text>
<text text-anchor="middle" x="62" y="-310.5" font-family="Helvetica,sans-Serif" font-size="10.00" fill="#000000">+memory</text>
</g>
<!-- Node4 -->
<g id="node4" class="node">
<title>Node4</title>
<polygon fill="none" stroke="#bfbfbf" points="254.5,-359 254.5,-416 283.5,-416 283.5,-359 254.5,-359"/>
<text text-anchor="middle" x="269" y="-404" font-family="Helvetica,sans-Serif" font-size="10.00" fill="#000000">int</text>
<polyline fill="none" stroke="#bfbfbf" points="254.5,-397 283.5,-397 "/>
<text text-anchor="middle" x="269" y="-385" font-family="Helvetica,sans-Serif" font-size="10.00" fill="#000000"> </text>
<polyline fill="none" stroke="#bfbfbf" points="254.5,-378 283.5,-378 "/>
<text text-anchor="middle" x="269" y="-366" font-family="Helvetica,sans-Serif" font-size="10.00" fill="#000000"> </text>
</g>
<!-- Node4&#45;&gt;Node1 -->
<g id="edge16" class="edge">
<title>Node4&#45;&gt;Node1</title>
<path fill="none" stroke="#404040" d="M256.8742,-358.945C237.6102,-308.6041 207.022,-203.2344 257,-138 321.3869,-53.9583 382.7015,-94.18 487,-76 657.1259,-46.3457 859.0179,-35.3069 972.0327,-31.2662"/>
<polygon fill="none" stroke="#404040" points="972.3686,-31.2547 978.227,-27.05 984.3615,-30.8407 978.5031,-35.0453 972.3686,-31.2547"/>
<text text-anchor="middle" x="275.5" y="-214" font-family="Helvetica,sans-Serif" font-size="10.00" fill="#000000"> +id</text>
<text text-anchor="middle" x="275.5" y="-203" font-family="Helvetica,sans-Serif" font-size="10.00" fill="#000000">+name</text>
</g>
<!-- Node4&#45;&gt;Node2 -->
<g id="edge3" class="edge">
<title>Node4&#45;&gt;Node2</title>
<path fill="none" stroke="#404040" d="M254.4866,-382.836C233.9367,-375.5793 196.2755,-359.7883 173,-335 162.2645,-323.5667 147.1825,-290.9642 135.0891,-262.0589"/>
<polygon fill="none" stroke="#404040" points="135.0219,-261.8958 129.037,-257.8733 130.4482,-250.8016 136.4331,-254.8242 135.0219,-261.8958"/>
<text text-anchor="middle" x="203.5" y="-316" font-family="Helvetica,sans-Serif" font-size="10.00" fill="#000000"> +hostname</text>
</g>
<!-- Node6 -->
<g id="node6" class="node">
<title>Node6</title>
<g id="a_node6"><a xlink:href="../../d0/d80/structo2_1_1framework_1_1DispatchPolicy.html" target="_top" xlink:title="{o2::framework::DispatchPolicy\n||+ createDefaultPolicies()\l}">
<polygon fill="none" stroke="#000000" points="303,-182.5 303,-239.5 469,-239.5 469,-182.5 303,-182.5"/>
<text text-anchor="middle" x="386" y="-227.5" font-family="Helvetica,sans-Serif" font-size="10.00" fill="#000000">o2::framework::DispatchPolicy</text>
<polyline fill="none" stroke="#000000" points="303,-220.5 469,-220.5 "/>
<text text-anchor="middle" x="386" y="-208.5" font-family="Helvetica,sans-Serif" font-size="10.00" fill="#000000"> </text>
<polyline fill="none" stroke="#000000" points="303,-201.5 469,-201.5 "/>
<text text-anchor="start" x="311" y="-189.5" font-family="Helvetica,sans-Serif" font-size="10.00" fill="#000000">+ createDefaultPolicies()</text>
</a>
</g>
</g>
<!-- Node4&#45;&gt;Node6 -->
<g id="edge8" class="edge">
<title>Node4&#45;&gt;Node6</title>
<path fill="none" stroke="#404040" d="M283.5816,-365.503C302.7609,-336.57 336.7825,-285.2469 360.3218,-249.7367"/>
<polygon fill="none" stroke="#404040" points="360.3317,-249.7219 360.3128,-242.5108 366.9619,-239.7198 366.9808,-246.9309 360.3317,-249.7219"/>
<text text-anchor="middle" x="344" y="-316" font-family="Helvetica,sans-Serif" font-size="10.00" fill="#000000"> +name</text>
</g>
<!-- Node16 -->
<g id="node16" class="node">
<title>Node16</title>
<g id="a_node16"><a xlink:href="../../d6/d43/structo2_1_1framework_1_1CompletionPolicy.html" target="_top" xlink:title="{o2::framework::Completion\lPolicy\n||+ CompletionPolicy()\l+ CompletionPolicy()\l+ createDefaultPolicies()\l}">
<polygon fill="none" stroke="#000000" points="1365,-166 1365,-256 1515,-256 1515,-166 1365,-166"/>
<text text-anchor="start" x="1373" y="-244" font-family="Helvetica,sans-Serif" font-size="10.00" fill="#000000">o2::framework::Completion</text>
<text text-anchor="middle" x="1440" y="-233" font-family="Helvetica,sans-Serif" font-size="10.00" fill="#000000">Policy</text>
<polyline fill="none" stroke="#000000" points="1365,-226 1515,-226 "/>
<text text-anchor="middle" x="1440" y="-214" font-family="Helvetica,sans-Serif" font-size="10.00" fill="#000000"> </text>
<polyline fill="none" stroke="#000000" points="1365,-207 1515,-207 "/>
<text text-anchor="start" x="1373" y="-195" font-family="Helvetica,sans-Serif" font-size="10.00" fill="#000000">+ CompletionPolicy()</text>
<text text-anchor="start" x="1373" y="-184" font-family="Helvetica,sans-Serif" font-size="10.00" fill="#000000">+ CompletionPolicy()</text>
<text text-anchor="start" x="1373" y="-173" font-family="Helvetica,sans-Serif" font-size="10.00" fill="#000000">+ createDefaultPolicies()</text>
</a>
</g>
</g>
<!-- Node4&#45;&gt;Node16 -->
<g id="edge20" class="edge">
<title>Node4&#45;&gt;Node16</title>
<path fill="none" stroke="#404040" d="M283.7694,-368.0893C289.3975,-362.1525 296.3254,-356.3189 304,-353 352.1713,-332.1685 723.6213,-338.2996 776,-335 808.2826,-332.9664 1326.2268,-296.6433 1356,-284 1367.59,-279.0783 1378.7229,-271.9313 1388.8803,-264.0112"/>
<polygon fill="none" stroke="#404040" points="1389.0511,-263.8702 1391.1297,-256.9651 1398.3031,-256.2281 1396.2244,-263.1331 1389.0511,-263.8702"/>
<text text-anchor="middle" x="1214" y="-316" font-family="Helvetica,sans-Serif" font-size="10.00" fill="#000000"> +name</text>
</g>
<!-- Node5 -->
<g id="node5" class="node">
<title>Node5</title>
<polygon fill="none" stroke="#bfbfbf" points="61.5,-359 61.5,-416 122.5,-416 122.5,-359 61.5,-359"/>
<text text-anchor="middle" x="92" y="-404" font-family="Helvetica,sans-Serif" font-size="10.00" fill="#000000">unsigned</text>
<polyline fill="none" stroke="#bfbfbf" points="61.5,-397 122.5,-397 "/>
<text text-anchor="middle" x="92" y="-385" font-family="Helvetica,sans-Serif" font-size="10.00" fill="#000000"> </text>
<polyline fill="none" stroke="#bfbfbf" points="61.5,-378 122.5,-378 "/>
<text text-anchor="middle" x="92" y="-366" font-family="Helvetica,sans-Serif" font-size="10.00" fill="#000000"> </text>
</g>
<!-- Node5&#45;&gt;Node2 -->
<g id="edge4" class="edge">
<title>Node5&#45;&gt;Node2</title>
<path fill="none" stroke="#404040" d="M90.731,-358.8908C90.3914,-342.2293 90.6414,-320.8543 93,-302 94.6207,-289.0446 97.3904,-275.2598 100.4284,-262.4417"/>
<polygon fill="none" stroke="#404040" points="100.5002,-262.1526 98.0656,-255.3649 103.3947,-250.5069 105.8294,-257.2946 100.5002,-262.1526"/>
<text text-anchor="middle" x="121.5" y="-327" font-family="Helvetica,sans-Serif" font-size="10.00" fill="#000000"> +startPort</text>
<text text-anchor="middle" x="121.5" y="-316" font-family="Helvetica,sans-Serif" font-size="10.00" fill="#000000">+usedPorts</text>
<text text-anchor="middle" x="121.5" y="-305" font-family="Helvetica,sans-Serif" font-size="10.00" fill="#000000">+lastPort</text>
</g>
<!-- Node6&#45;&gt;Node1 -->
<g id="edge5" class="edge">
<title>Node6&#45;&gt;Node1</title>
<path fill="none" stroke="#404040" d="M413.0751,-182.4705C445.8188,-150.0969 504.2681,-98.8361 566,-76 638.2583,-49.2699 850.6838,-36.9484 972.1462,-31.9497"/>
<polygon fill="none" stroke="#404040" points="972.3389,-31.942 978.1735,-27.7044 984.3293,-31.4603 978.4947,-35.698 972.3389,-31.942"/>
<text text-anchor="middle" x="607" y="-95.5" font-family="Helvetica,sans-Serif" font-size="10.00" fill="#000000"> +dispatchPolicy</text>
</g>
<!-- Node7 -->
<g id="node7" class="node">
<title>Node7</title>
<polygon fill="none" stroke="#bfbfbf" points="313.5,-353.5 313.5,-421.5 438.5,-421.5 438.5,-353.5 313.5,-353.5"/>
<text text-anchor="start" x="321.5" y="-409.5" font-family="Helvetica,sans-Serif" font-size="10.00" fill="#000000">function&lt; bool(Output</text>
<text text-anchor="middle" x="376" y="-398.5" font-family="Helvetica,sans-Serif" font-size="10.00" fill="#000000"> const &amp;)&gt;</text>
<polyline fill="none" stroke="#bfbfbf" points="313.5,-391.5 438.5,-391.5 "/>
<text text-anchor="middle" x="376" y="-379.5" font-family="Helvetica,sans-Serif" font-size="10.00" fill="#000000"> </text>
<polyline fill="none" stroke="#bfbfbf" points="313.5,-372.5 438.5,-372.5 "/>
<text text-anchor="middle" x="376" y="-360.5" font-family="Helvetica,sans-Serif" font-size="10.00" fill="#000000"> </text>
</g>
<!-- Node7&#45;&gt;Node6 -->
<g id="edge6" class="edge">
<title>Node7&#45;&gt;Node6</title>
<path fill="none" stroke="#404040" d="M377.9281,-353.469C379.5742,-324.4148 381.9456,-282.5593 383.6924,-251.7296"/>
<polygon fill="none" stroke="#404040" points="383.6964,-251.6576 380.0422,-245.4409 384.3753,-239.6768 388.0294,-245.8935 383.6964,-251.6576"/>
<text text-anchor="middle" x="422.5" y="-316" font-family="Helvetica,sans-Serif" font-size="10.00" fill="#000000"> +triggerMatcher</text>
</g>
<!-- Node8 -->
<g id="node8" class="node">
<title>Node8</title>
<polygon fill="none" stroke="#bfbfbf" points="1089.5,-353.5 1089.5,-421.5 1238.5,-421.5 1238.5,-353.5 1089.5,-353.5"/>
<text text-anchor="start" x="1097.5" y="-409.5" font-family="Helvetica,sans-Serif" font-size="10.00" fill="#000000">function&lt; bool(DeviceSpec</text>
<text text-anchor="middle" x="1164" y="-398.5" font-family="Helvetica,sans-Serif" font-size="10.00" fill="#000000"> const &amp;device)&gt;</text>
<polyline fill="none" stroke="#bfbfbf" points="1089.5,-391.5 1238.5,-391.5 "/>
<text text-anchor="middle" x="1164" y="-379.5" font-family="Helvetica,sans-Serif" font-size="10.00" fill="#000000"> </text>
<polyline fill="none" stroke="#bfbfbf" points="1089.5,-372.5 1238.5,-372.5 "/>
<text text-anchor="middle" x="1164" y="-360.5" font-family="Helvetica,sans-Serif" font-size="10.00" fill="#000000"> </text>
</g>
<!-- Node8&#45;&gt;Node6 -->
<g id="edge7" class="edge">
<title>Node8&#45;&gt;Node6</title>
<path fill="none" stroke="#404040" d="M1089.4061,-381.1346C935.2642,-367.1916 586.9321,-331.3775 478,-284 458.1805,-275.38 439.0008,-261.3827 423.3292,-247.9391"/>
<polygon fill="none" stroke="#404040" points="423.0201,-247.6645 415.8781,-246.6688 414.0503,-239.6932 421.1923,-240.6889 423.0201,-247.6645"/>
<text text-anchor="middle" x="730.5" y="-316" font-family="Helvetica,sans-Serif" font-size="10.00" fill="#000000"> +deviceMatcher</text>
</g>
<!-- Node8&#45;&gt;Node16 -->
<g id="edge19" class="edge">
<title>Node8&#45;&gt;Node16</title>
<path fill="none" stroke="#404040" d="M1235.9666,-353.4796C1272.9845,-334.8083 1318.1551,-310.1658 1356,-284 1364.8698,-277.8674 1373.8648,-270.9391 1382.5087,-263.8534"/>
<polygon fill="none" stroke="#404040" points="1382.5277,-263.8375 1384.5597,-256.9186 1391.7279,-256.1332 1389.6959,-263.0521 1382.5277,-263.8375"/>
<text text-anchor="middle" x="1352" y="-316" font-family="Helvetica,sans-Serif" font-size="10.00" fill="#000000"> +matcher</text>
</g>
<!-- Node9 -->
<g id="node9" class="node">
<title>Node9</title>
<polygon fill="none" stroke="#bfbfbf" points="456.5,-359 456.5,-416 529.5,-416 529.5,-359 456.5,-359"/>
<text text-anchor="middle" x="493" y="-404" font-family="Helvetica,sans-Serif" font-size="10.00" fill="#000000">DispatchOp</text>
<polyline fill="none" stroke="#bfbfbf" points="456.5,-397 529.5,-397 "/>
<text text-anchor="middle" x="493" y="-385" font-family="Helvetica,sans-Serif" font-size="10.00" fill="#000000"> </text>
<polyline fill="none" stroke="#bfbfbf" points="456.5,-378 529.5,-378 "/>
<text text-anchor="middle" x="493" y="-366" font-family="Helvetica,sans-Serif" font-size="10.00" fill="#000000"> </text>
</g>
<!-- Node9&#45;&gt;Node6 -->
<g id="edge9" class="edge">
<title>Node9&#45;&gt;Node6</title>
<path fill="none" stroke="#404040" d="M488.0001,-358.9068C484.1866,-341.6659 477.8716,-319.6918 468,-302 457.1723,-282.5946 441.5221,-263.8697 426.7903,-248.5027"/>
<polygon fill="none" stroke="#404040" points="426.6941,-248.4052 419.6326,-246.9436 418.2659,-239.8632 425.3273,-241.3248 426.6941,-248.4052"/>
<text text-anchor="middle" x="503" y="-316" font-family="Helvetica,sans-Serif" font-size="10.00" fill="#000000"> +action</text>
</g>
<!-- Node10 -->
<g id="node10" class="node">
<title>Node10</title>
<polygon fill="none" stroke="#bfbfbf" points="487,-177 487,-245 617,-245 617,-177 487,-177"/>
<text text-anchor="start" x="495" y="-233" font-family="Helvetica,sans-Serif" font-size="10.00" fill="#000000">vector&lt; o2::framework</text>
<text text-anchor="middle" x="552" y="-222" font-family="Helvetica,sans-Serif" font-size="10.00" fill="#000000">::InputRoute &gt;</text>
<polyline fill="none" stroke="#bfbfbf" points="487,-215 617,-215 "/>
<text text-anchor="middle" x="552" y="-203" font-family="Helvetica,sans-Serif" font-size="10.00" fill="#000000"> </text>
<polyline fill="none" stroke="#bfbfbf" points="487,-196 617,-196 "/>
<text text-anchor="middle" x="552" y="-184" font-family="Helvetica,sans-Serif" font-size="10.00" fill="#000000"> </text>
</g>
<!-- Node10&#45;&gt;Node1 -->
<g id="edge10" class="edge">
<title>Node10&#45;&gt;Node1</title>
<path fill="none" stroke="#404040" d="M582.4989,-176.7541C595.1696,-163.6816 610.5177,-149.2349 626,-138 674.5866,-102.7424 688.8805,-94.4694 746,-76 820.1544,-52.0225 908.1781,-40.1939 972.1318,-34.4085"/>
<polygon fill="none" stroke="#404040" points="972.2318,-34.3999 977.8639,-29.8967 984.187,-33.3636 978.5548,-37.8668 972.2318,-34.3999"/>
<text text-anchor="middle" x="767" y="-95.5" font-family="Helvetica,sans-Serif" font-size="10.00" fill="#000000"> +inputs</text>
</g>
<!-- Node11 -->
<g id="node11" class="node">
<title>Node11</title>
<polygon fill="none" stroke="#bfbfbf" points="635,-177 635,-245 765,-245 765,-177 635,-177"/>
<text text-anchor="start" x="643" y="-233" font-family="Helvetica,sans-Serif" font-size="10.00" fill="#000000">vector&lt; o2::framework</text>
<text text-anchor="middle" x="700" y="-222" font-family="Helvetica,sans-Serif" font-size="10.00" fill="#000000">::ConfigParamSpec &gt;</text>
<polyline fill="none" stroke="#bfbfbf" points="635,-215 765,-215 "/>
<text text-anchor="middle" x="700" y="-203" font-family="Helvetica,sans-Serif" font-size="10.00" fill="#000000"> </text>
<polyline fill="none" stroke="#bfbfbf" points="635,-196 765,-196 "/>
<text text-anchor="middle" x="700" y="-184" font-family="Helvetica,sans-Serif" font-size="10.00" fill="#000000"> </text>
</g>
<!-- Node11&#45;&gt;Node1 -->
<g id="edge11" class="edge">
<title>Node11&#45;&gt;Node1</title>
<path fill="none" stroke="#404040" d="M729.2558,-176.9938C758.4872,-145.417 806.4002,-99.8037 858,-76 893.6899,-59.5358 935.6712,-48.5668 972.0892,-41.4002"/>
<polygon fill="none" stroke="#404040" points="972.4174,-41.3384 977.5716,-36.2951 984.2093,-39.1131 979.0551,-44.1564 972.4174,-41.3384"/>
<text text-anchor="middle" x="882" y="-95.5" font-family="Helvetica,sans-Serif" font-size="10.00" fill="#000000"> +options</text>
</g>
<!-- Node12 -->
<g id="node12" class="node">
<title>Node12</title>
<polygon fill="none" stroke="#bfbfbf" points="783.5,-182.5 783.5,-239.5 902.5,-239.5 902.5,-182.5 783.5,-182.5"/>
<text text-anchor="middle" x="843" y="-227.5" font-family="Helvetica,sans-Serif" font-size="10.00" fill="#000000">vector&lt; std::string &gt;</text>
<polyline fill="none" stroke="#bfbfbf" points="783.5,-220.5 902.5,-220.5 "/>
<text text-anchor="middle" x="843" y="-208.5" font-family="Helvetica,sans-Serif" font-size="10.00" fill="#000000"> </text>
<polyline fill="none" stroke="#bfbfbf" points="783.5,-201.5 902.5,-201.5 "/>
<text text-anchor="middle" x="843" y="-189.5" font-family="Helvetica,sans-Serif" font-size="10.00" fill="#000000"> </text>
</g>
<!-- Node12&#45;&gt;Node1 -->
<g id="edge12" class="edge">
<title>Node12&#45;&gt;Node1</title>
<path fill="none" stroke="#404040" d="M860.953,-182.3824C880.873,-152.5443 915.4701,-106.0234 955,-76 960.9494,-71.4814 967.4019,-67.2798 974.0836,-63.3991"/>
<polygon fill="none" stroke="#404040" points="974.2082,-63.3308 977.5486,-56.94 984.7326,-57.5654 981.3922,-63.9562 974.2082,-63.3308"/>
<text text-anchor="middle" x="987" y="-95.5" font-family="Helvetica,sans-Serif" font-size="10.00" fill="#000000"> +arguments</text>
</g>
<!-- Node13 -->
<g id="node13" class="node">
<title>Node13</title>
<polygon fill="none" stroke="#bfbfbf" points="921,-177 921,-245 1051,-245 1051,-177 921,-177"/>
<text text-anchor="start" x="929" y="-233" font-family="Helvetica,sans-Serif" font-size="10.00" fill="#000000">vector&lt; o2::framework</text>
<text text-anchor="middle" x="986" y="-222" font-family="Helvetica,sans-Serif" font-size="10.00" fill="#000000">::OutputRoute &gt;</text>
<polyline fill="none" stroke="#bfbfbf" points="921,-215 1051,-215 "/>
<text text-anchor="middle" x="986" y="-203" font-family="Helvetica,sans-Serif" font-size="10.00" fill="#000000"> </text>
<polyline fill="none" stroke="#bfbfbf" points="921,-196 1051,-196 "/>
<text text-anchor="middle" x="986" y="-184" font-family="Helvetica,sans-Serif" font-size="10.00" fill="#000000"> </text>
</g>
<!-- Node13&#45;&gt;Node1 -->
<g id="edge13" class="edge">
<title>Node13&#45;&gt;Node1</title>
<path fill="none" stroke="#404040" d="M999.9188,-176.7672C1012.373,-146.1367 1030.6362,-101.2191 1043.7545,-68.9552"/>
<polygon fill="none" stroke="#404040" points="1043.8146,-68.8073 1042.3691,-61.7425 1048.3344,-57.691 1049.7799,-64.7557 1043.8146,-68.8073"/>
<text text-anchor="middle" x="1064.5" y="-95.5" font-family="Helvetica,sans-Serif" font-size="10.00" fill="#000000"> +outputs</text>
</g>
<!-- Node14 -->
<g id="node14" class="node">
<title>Node14</title>
<polygon fill="none" stroke="#bfbfbf" points="1069,-177 1069,-245 1199,-245 1199,-177 1069,-177"/>
<text text-anchor="start" x="1077" y="-233" font-family="Helvetica,sans-Serif" font-size="10.00" fill="#000000">vector&lt; o2::framework</text>
<text text-anchor="middle" x="1134" y="-222" font-family="Helvetica,sans-Serif" font-size="10.00" fill="#000000">::ServiceSpec &gt;</text>
<polyline fill="none" stroke="#bfbfbf" points="1069,-215 1199,-215 "/>
<text text-anchor="middle" x="1134" y="-203" font-family="Helvetica,sans-Serif" font-size="10.00" fill="#000000"> </text>
<polyline fill="none" stroke="#bfbfbf" points="1069,-196 1199,-196 "/>
<text text-anchor="middle" x="1134" y="-184" font-family="Helvetica,sans-Serif" font-size="10.00" fill="#000000"> </text>
</g>
<!-- Node14&#45;&gt;Node1 -->
<g id="edge14" class="edge">
<title>Node14&#45;&gt;Node1</title>
<path fill="none" stroke="#404040" d="M1126.813,-176.8743C1120.18,-148.8871 1108.9362,-108.6976 1093,-76 1091.6814,-73.2945 1090.2149,-70.5735 1088.6537,-67.8783"/>
<polygon fill="none" stroke="#404040" points="1088.6468,-67.8672 1082.0715,-64.9065 1082.2756,-57.6982 1088.8509,-60.659 1088.6468,-67.8672"/>
<text text-anchor="middle" x="1136" y="-95.5" font-family="Helvetica,sans-Serif" font-size="10.00" fill="#000000"> +services</text>
</g>
<!-- Node15 -->
<g id="node15" class="node">
<title>Node15</title>
<polygon fill="none" stroke="#bfbfbf" points="1217,-177 1217,-245 1347,-245 1347,-177 1217,-177"/>
<text text-anchor="start" x="1225" y="-233" font-family="Helvetica,sans-Serif" font-size="10.00" fill="#000000">vector&lt; o2::framework</text>
<text text-anchor="middle" x="1282" y="-222" font-family="Helvetica,sans-Serif" font-size="10.00" fill="#000000">::ForwardRoute &gt;</text>
<polyline fill="none" stroke="#bfbfbf" points="1217,-215 1347,-215 "/>
<text text-anchor="middle" x="1282" y="-203" font-family="Helvetica,sans-Serif" font-size="10.00" fill="#000000"> </text>
<polyline fill="none" stroke="#bfbfbf" points="1217,-196 1347,-196 "/>
<text text-anchor="middle" x="1282" y="-184" font-family="Helvetica,sans-Serif" font-size="10.00" fill="#000000"> </text>
</g>
<!-- Node15&#45;&gt;Node1 -->
<g id="edge15" class="edge">
<title>Node15&#45;&gt;Node1</title>
<path fill="none" stroke="#404040" d="M1259.2044,-176.7203C1237.9693,-146.9153 1203.9463,-104.2026 1166,-76 1159.9033,-71.4688 1153.3008,-67.2522 1146.4742,-63.356"/>
<polygon fill="none" stroke="#404040" points="1146.1666,-63.1902 1138.9871,-63.8653 1135.6026,-57.4978 1142.7821,-56.8227 1146.1666,-63.1902"/>
<text text-anchor="middle" x="1239.5" y="-95.5" font-family="Helvetica,sans-Serif" font-size="10.00" fill="#000000"> +forwards</text>
</g>
<!-- Node16&#45;&gt;Node1 -->
<g id="edge17" class="edge">
<title>Node16&#45;&gt;Node1</title>
<path fill="none" stroke="#404040" d="M1396.5123,-165.9823C1364.6263,-135.7321 1318.7319,-97.5844 1271,-76 1232.2624,-58.4828 1186.4919,-47.2654 1147.498,-40.2025"/>
<polygon fill="none" stroke="#404040" points="1147.4523,-40.1947 1140.8564,-43.1091 1135.6292,-38.1416 1142.2251,-35.2271 1147.4523,-40.1947"/>
<text text-anchor="middle" x="1389" y="-95.5" font-family="Helvetica,sans-Serif" font-size="10.00" fill="#000000"> +completionPolicy</text>
</g>
<!-- Node17 -->
<g id="node17" class="node">
<title>Node17</title>
<polygon fill="none" stroke="#bfbfbf" points="1297.5,-353.5 1297.5,-421.5 1434.5,-421.5 1434.5,-353.5 1297.5,-353.5"/>
<text text-anchor="start" x="1305.5" y="-409.5" font-family="Helvetica,sans-Serif" font-size="10.00" fill="#000000">function&lt; CompletionOp</text>
<text text-anchor="middle" x="1366" y="-398.5" font-family="Helvetica,sans-Serif" font-size="10.00" fill="#000000">(InputSet)&gt;</text>
<polyline fill="none" stroke="#bfbfbf" points="1297.5,-391.5 1434.5,-391.5 "/>
<text text-anchor="middle" x="1366" y="-379.5" font-family="Helvetica,sans-Serif" font-size="10.00" fill="#000000"> </text>
<polyline fill="none" stroke="#bfbfbf" points="1297.5,-372.5 1434.5,-372.5 "/>
<text text-anchor="middle" x="1366" y="-360.5" font-family="Helvetica,sans-Serif" font-size="10.00" fill="#000000"> </text>
</g>
<!-- Node17&#45;&gt;Node16 -->
<g id="edge18" class="edge">
<title>Node17&#45;&gt;Node16</title>
<path fill="none" stroke="#404040" d="M1380.2679,-353.469C1390.456,-329.1691 1404.3984,-295.9147 1416.2506,-267.6455"/>
<polygon fill="none" stroke="#404040" points="1416.3753,-267.3479 1415.0064,-260.2679 1421.0152,-256.2812 1422.3842,-263.3612 1416.3753,-267.3479"/>
<text text-anchor="middle" x="1426" y="-316" font-family="Helvetica,sans-Serif" font-size="10.00" fill="#000000"> +callback</text>
</g>
<!-- Node18 -->
<g id="node18" class="node">
<title>Node18</title>
<g id="a_node18"><a xlink:href="../../d4/d5e/structo2_1_1framework_1_1AlgorithmSpec.html" target="_top" xlink:title="{o2::framework::AlgorithmSpec\n||+ AlgorithmSpec()\l+ AlgorithmSpec()\l+ AlgorithmSpec()\l+ AlgorithmSpec()\l+ operator=()\l+ AlgorithmSpec()\l+ AlgorithmSpec()\l+ dummyAlgorithm()\l+ emptyErrorCallback()\l}">
<polygon fill="none" stroke="#000000" points="1533.5,-138.5 1533.5,-283.5 1698.5,-283.5 1698.5,-138.5 1533.5,-138.5"/>
<text text-anchor="middle" x="1616" y="-271.5" font-family="Helvetica,sans-Serif" font-size="10.00" fill="#000000">o2::framework::AlgorithmSpec</text>
<polyline fill="none" stroke="#000000" points="1533.5,-264.5 1698.5,-264.5 "/>
<text text-anchor="middle" x="1616" y="-252.5" font-family="Helvetica,sans-Serif" font-size="10.00" fill="#000000"> </text>
<polyline fill="none" stroke="#000000" points="1533.5,-245.5 1698.5,-245.5 "/>
<text text-anchor="start" x="1541.5" y="-233.5" font-family="Helvetica,sans-Serif" font-size="10.00" fill="#000000">+ AlgorithmSpec()</text>
<text text-anchor="start" x="1541.5" y="-222.5" font-family="Helvetica,sans-Serif" font-size="10.00" fill="#000000">+ AlgorithmSpec()</text>
<text text-anchor="start" x="1541.5" y="-211.5" font-family="Helvetica,sans-Serif" font-size="10.00" fill="#000000">+ AlgorithmSpec()</text>
<text text-anchor="start" x="1541.5" y="-200.5" font-family="Helvetica,sans-Serif" font-size="10.00" fill="#000000">+ AlgorithmSpec()</text>
<text text-anchor="start" x="1541.5" y="-189.5" font-family="Helvetica,sans-Serif" font-size="10.00" fill="#000000">+ operator=()</text>
<text text-anchor="start" x="1541.5" y="-178.5" font-family="Helvetica,sans-Serif" font-size="10.00" fill="#000000">+ AlgorithmSpec()</text>
<text text-anchor="start" x="1541.5" y="-167.5" font-family="Helvetica,sans-Serif" font-size="10.00" fill="#000000">+ AlgorithmSpec()</text>
<text text-anchor="start" x="1541.5" y="-156.5" font-family="Helvetica,sans-Serif" font-size="10.00" fill="#000000">+ dummyAlgorithm()</text>
<text text-anchor="start" x="1541.5" y="-145.5" font-family="Helvetica,sans-Serif" font-size="10.00" fill="#000000">+ emptyErrorCallback()</text>
</a>
</g>
</g>
<!-- Node18&#45;&gt;Node1 -->
<g id="edge21" class="edge">
<title>Node18&#45;&gt;Node1</title>
<path fill="none" stroke="#404040" d="M1540.7726,-138.3541C1511.7845,-114.5147 1476.9596,-90.4527 1441,-76 1389.4063,-55.2638 1243.2011,-41.5915 1147.6416,-34.5843"/>
<polygon fill="none" stroke="#404040" points="1147.6387,-34.5842 1141.3667,-38.1427 1135.6697,-33.7218 1141.9417,-30.1633 1147.6387,-34.5842"/>
<text text-anchor="middle" x="1543.5" y="-95.5" font-family="Helvetica,sans-Serif" font-size="10.00" fill="#000000"> +algorithm</text>
</g>
<!-- Node19 -->
<g id="node19" class="node">
<title>Node19</title>
<polygon fill="none" stroke="#bfbfbf" points="1781,-359 1781,-416 1957,-416 1957,-359 1781,-359"/>
<text text-anchor="middle" x="1869" y="-404" font-family="Helvetica,sans-Serif" font-size="10.00" fill="#000000">function&lt; void(ErrorContext &amp;)&gt;</text>
<polyline fill="none" stroke="#bfbfbf" points="1781,-397 1957,-397 "/>
<text text-anchor="middle" x="1869" y="-385" font-family="Helvetica,sans-Serif" font-size="10.00" fill="#000000"> </text>
<polyline fill="none" stroke="#bfbfbf" points="1781,-378 1957,-378 "/>
<text text-anchor="middle" x="1869" y="-366" font-family="Helvetica,sans-Serif" font-size="10.00" fill="#000000"> </text>
</g>
<!-- Node19&#45;&gt;Node18 -->
<g id="edge22" class="edge">
<title>Node19&#45;&gt;Node18</title>
<path fill="none" stroke="#404040" d="M1821.6847,-358.8095C1791.451,-340.0899 1751.4065,-314.5802 1708.4905,-284.2159"/>
<polygon fill="none" stroke="#404040" points="1708.4796,-284.2081 1701.2719,-283.9836 1698.707,-277.244 1705.9147,-277.4685 1708.4796,-284.2081"/>
<text text-anchor="middle" x="1804.5" y="-316" font-family="Helvetica,sans-Serif" font-size="10.00" fill="#000000"> +onError</text>
</g>
<!-- Node20 -->
<g id="node20" class="node">
<title>Node20</title>
<polygon fill="none" stroke="#bfbfbf" points="1452.5,-353.5 1452.5,-421.5 1597.5,-421.5 1597.5,-353.5 1452.5,-353.5"/>
<text text-anchor="start" x="1460.5" y="-409.5" font-family="Helvetica,sans-Serif" font-size="10.00" fill="#000000">function&lt; void(Processing</text>
<text text-anchor="middle" x="1525" y="-398.5" font-family="Helvetica,sans-Serif" font-size="10.00" fill="#000000">Context &amp;)&gt;</text>
<polyline fill="none" stroke="#bfbfbf" points="1452.5,-391.5 1597.5,-391.5 "/>
<text text-anchor="middle" x="1525" y="-379.5" font-family="Helvetica,sans-Serif" font-size="10.00" fill="#000000"> </text>
<polyline fill="none" stroke="#bfbfbf" points="1452.5,-372.5 1597.5,-372.5 "/>
<text text-anchor="middle" x="1525" y="-360.5" font-family="Helvetica,sans-Serif" font-size="10.00" fill="#000000"> </text>
</g>
<!-- Node20&#45;&gt;Node18 -->
<g id="edge23" class="edge">
<title>Node20&#45;&gt;Node18</title>
<path fill="none" stroke="#404040" d="M1542.5457,-353.469C1551.254,-336.5788 1562.1927,-315.3625 1572.9485,-294.501"/>
<polygon fill="none" stroke="#404040" points="1573.0444,-294.3148 1572.2387,-287.1488 1578.5436,-283.649 1579.3493,-290.8149 1573.0444,-294.3148"/>
<text text-anchor="middle" x="1597.5" y="-316" font-family="Helvetica,sans-Serif" font-size="10.00" fill="#000000"> +onProcess</text>
</g>
<!-- Node21 -->
<g id="node21" class="node">
<title>Node21</title>
<polygon fill="none" stroke="#bfbfbf" points="1615.5,-353.5 1615.5,-421.5 1762.5,-421.5 1762.5,-353.5 1615.5,-353.5"/>
<text text-anchor="start" x="1623.5" y="-409.5" font-family="Helvetica,sans-Serif" font-size="10.00" fill="#000000">function&lt; ProcessCallback</text>
<text text-anchor="middle" x="1689" y="-398.5" font-family="Helvetica,sans-Serif" font-size="10.00" fill="#000000">(InitContext &amp;)&gt;</text>
<polyline fill="none" stroke="#bfbfbf" points="1615.5,-391.5 1762.5,-391.5 "/>
<text text-anchor="middle" x="1689" y="-379.5" font-family="Helvetica,sans-Serif" font-size="10.00" fill="#000000"> </text>
<polyline fill="none" stroke="#bfbfbf" points="1615.5,-372.5 1762.5,-372.5 "/>
<text text-anchor="middle" x="1689" y="-360.5" font-family="Helvetica,sans-Serif" font-size="10.00" fill="#000000"> </text>
</g>
<!-- Node21&#45;&gt;Node18 -->
<g id="edge24" class="edge">
<title>Node21&#45;&gt;Node18</title>
<path fill="none" stroke="#404040" d="M1674.9249,-353.469C1667.9712,-336.6563 1659.2446,-315.557 1650.6546,-294.7881"/>
<polygon fill="none" stroke="#404040" points="1650.6339,-294.7379 1644.6443,-290.7223 1646.0474,-283.649 1652.037,-287.6646 1650.6339,-294.7379"/>
<text text-anchor="middle" x="1685" y="-316" font-family="Helvetica,sans-Serif" font-size="10.00" fill="#000000"> +onInit</text>
</g>
<!-- Node22 -->
<g id="node22" class="node">
<title>Node22</title>
<polygon fill="none" stroke="#bfbfbf" points="1717,-177 1717,-245 1847,-245 1847,-177 1717,-177"/>
<text text-anchor="start" x="1725" y="-233" font-family="Helvetica,sans-Serif" font-size="10.00" fill="#000000">vector&lt; o2::framework</text>
<text text-anchor="middle" x="1782" y="-222" font-family="Helvetica,sans-Serif" font-size="10.00" fill="#000000">::OutputChannelSpec &gt;</text>
<polyline fill="none" stroke="#bfbfbf" points="1717,-215 1847,-215 "/>
<text text-anchor="middle" x="1782" y="-203" font-family="Helvetica,sans-Serif" font-size="10.00" fill="#000000"> </text>
<polyline fill="none" stroke="#bfbfbf" points="1717,-196 1847,-196 "/>
<text text-anchor="middle" x="1782" y="-184" font-family="Helvetica,sans-Serif" font-size="10.00" fill="#000000"> </text>
</g>
<!-- Node22&#45;&gt;Node1 -->
<g id="edge25" class="edge">
<title>Node22&#45;&gt;Node1</title>
<path fill="none" stroke="#404040" d="M1752.0574,-176.8453C1739.3472,-163.6355 1723.8235,-149.0669 1708,-138 1655.2152,-101.0825 1639.1424,-92.9547 1577,-76 1498.533,-54.5914 1273.7208,-40.0079 1147.9255,-33.2673"/>
<polygon fill="none" stroke="#404040" points="1147.6803,-33.2544 1141.4773,-36.9316 1135.6971,-32.62 1141.9002,-28.9428 1147.6803,-33.2544"/>
<text text-anchor="middle" x="1724" y="-95.5" font-family="Helvetica,sans-Serif" font-size="10.00" fill="#000000"> +outputChannels</text>
</g>
<!-- Node23 -->
<g id="node23" class="node">
<title>Node23</title>
<polygon fill="none" stroke="#bfbfbf" points="1865,-177 1865,-245 1995,-245 1995,-177 1865,-177"/>
<text text-anchor="start" x="1873" y="-233" font-family="Helvetica,sans-Serif" font-size="10.00" fill="#000000">vector&lt; o2::framework</text>
<text text-anchor="middle" x="1930" y="-222" font-family="Helvetica,sans-Serif" font-size="10.00" fill="#000000">::InputChannelSpec &gt;</text>
<polyline fill="none" stroke="#bfbfbf" points="1865,-215 1995,-215 "/>
<text text-anchor="middle" x="1930" y="-203" font-family="Helvetica,sans-Serif" font-size="10.00" fill="#000000"> </text>
<polyline fill="none" stroke="#bfbfbf" points="1865,-196 1995,-196 "/>
<text text-anchor="middle" x="1930" y="-184" font-family="Helvetica,sans-Serif" font-size="10.00" fill="#000000"> </text>
</g>
<!-- Node23&#45;&gt;Node1 -->
<g id="edge26" class="edge">
<title>Node23&#45;&gt;Node1</title>
<path fill="none" stroke="#404040" d="M1903.1445,-176.9654C1874.6775,-143.9149 1826.3798,-95.9043 1772,-76 1714.8135,-55.0684 1325.421,-38.5633 1147.8898,-32.0336"/>
<polygon fill="none" stroke="#404040" points="1147.7299,-32.0279 1141.5879,-35.8063 1135.7379,-31.5901 1141.8798,-27.8116 1147.7299,-32.0279"/>
<text text-anchor="middle" x="1885" y="-95.5" font-family="Helvetica,sans-Serif" font-size="10.00" fill="#000000"> +inputChannels</text>
</g>
<!-- Node24 -->
<g id="node24" class="node">
<title>Node24</title>
<polygon fill="none" stroke="#bfbfbf" points="2013.5,-182.5 2013.5,-239.5 2058.5,-239.5 2058.5,-182.5 2013.5,-182.5"/>
<text text-anchor="middle" x="2036" y="-227.5" font-family="Helvetica,sans-Serif" font-size="10.00" fill="#000000">size_t</text>
<polyline fill="none" stroke="#bfbfbf" points="2013.5,-220.5 2058.5,-220.5 "/>
<text text-anchor="middle" x="2036" y="-208.5" font-family="Helvetica,sans-Serif" font-size="10.00" fill="#000000"> </text>
<polyline fill="none" stroke="#bfbfbf" points="2013.5,-201.5 2058.5,-201.5 "/>
<text text-anchor="middle" x="2036" y="-189.5" font-family="Helvetica,sans-Serif" font-size="10.00" fill="#000000"> </text>
</g>
<!-- Node24&#45;&gt;Node1 -->
<g id="edge27" class="edge">
<title>Node24&#45;&gt;Node1</title>
<path fill="none" stroke="#404040" d="M2026.935,-182.3321C2021.6139,-168.1571 2013.9601,-151.2866 2004,-138 1978.264,-103.6686 1969.9143,-91.7427 1930,-76 1858.6821,-47.8713 1354.7015,-34.8184 1148.0603,-30.6043"/>
<polygon fill="none" stroke="#404040" points="1147.7722,-30.5986 1141.6929,-34.477 1135.7747,-30.357 1141.854,-26.4786 1147.7722,-30.5986"/>
<text text-anchor="middle" x="2045.5" y="-112" font-family="Helvetica,sans-Serif" font-size="10.00" fill="#000000"> +maxInputTimeslices</text>
<text text-anchor="middle" x="2045.5" y="-101" font-family="Helvetica,sans-Serif" font-size="10.00" fill="#000000">+rank</text>
<text text-anchor="middle" x="2045.5" y="-90" font-family="Helvetica,sans-Serif" font-size="10.00" fill="#000000">+nSlots</text>
<text text-anchor="middle" x="2045.5" y="-79" font-family="Helvetica,sans-Serif" font-size="10.00" fill="#000000">+inputTimesliceId</text>
</g>
</g>
</svg>
