<?xml version="1.0" encoding="UTF-8" standalone="no"?>
<!DOCTYPE svg PUBLIC "-//W3C//DTD SVG 1.1//EN"
 "http://www.w3.org/Graphics/SVG/1.1/DTD/svg11.dtd">
<!-- Generated by graphviz version 2.40.1 (20161225.0304)
 -->
<!-- Title: /home/travis/build/AliceO2Group/AliceO2/Detectors/MUON/MID/Raw/src/GBTUserLogicDecoder.cxx Pages: 1 -->
<svg width="2070pt" height="408pt"
 viewBox="0.00 0.00 2070.00 408.00" xmlns="http://www.w3.org/2000/svg" xmlns:xlink="http://www.w3.org/1999/xlink">
<g id="graph0" class="graph" transform="scale(1 1) rotate(0) translate(4 404)">
<title>/home/travis/build/AliceO2Group/AliceO2/Detectors/MUON/MID/Raw/src/GBTUserLogicDecoder.cxx</title>
<!-- Node0 -->
<g id="node1" class="node">
<title>Node0</title>
<polygon fill="#bfbfbf" stroke="#000000" points="1679.5,-347.5 1679.5,-399.5 1844.5,-399.5 1844.5,-347.5 1679.5,-347.5"/>
<text text-anchor="start" x="1687.5" y="-387.5" font-family="Helvetica,sans-Serif" font-size="10.00" fill="#000000">/home/travis/build</text>
<text text-anchor="start" x="1687.5" y="-376.5" font-family="Helvetica,sans-Serif" font-size="10.00" fill="#000000">/AliceO2Group/AliceO2</text>
<text text-anchor="start" x="1687.5" y="-365.5" font-family="Helvetica,sans-Serif" font-size="10.00" fill="#000000">/Detectors/MUON/MID/Raw</text>
<text text-anchor="middle" x="1762" y="-354.5" font-family="Helvetica,sans-Serif" font-size="10.00" fill="#000000">/src/GBTUserLogicDecoder.cxx</text>
</g>
<!-- Node1 -->
<g id="node2" class="node">
<title>Node1</title>
<g id="a_node2"><a xlink:href="../../db/d41/GBTUserLogicDecoder_8h.html" target="_top" xlink:title="MID GBT decoder with user logic zero suppression. ">
<polygon fill="none" stroke="#000000" points="1674,-291.5 1674,-310.5 1850,-310.5 1850,-291.5 1674,-291.5"/>
<text text-anchor="middle" x="1762" y="-298.5" font-family="Helvetica,sans-Serif" font-size="10.00" fill="#000000">MIDRaw/GBTUserLogicDecoder.h</text>
</a>
</g>
</g>
<!-- Node0&#45;&gt;Node1 -->
<g id="edge1" class="edge">
<title>Node0&#45;&gt;Node1</title>
<path fill="none" stroke="#191970" d="M1762,-347.3258C1762,-338.5142 1762,-328.8397 1762,-320.621"/>
<polygon fill="#191970" stroke="#191970" points="1765.5001,-320.534 1762,-310.534 1758.5001,-320.534 1765.5001,-320.534"/>
</g>
<!-- Node2 -->
<g id="node3" class="node">
<title>Node2</title>
<polygon fill="none" stroke="#bfbfbf" points="1466,-56.5 1466,-75.5 1516,-75.5 1516,-56.5 1466,-56.5"/>
<text text-anchor="middle" x="1491" y="-63.5" font-family="Helvetica,sans-Serif" font-size="10.00" fill="#000000">cstdint</text>
</g>
<!-- Node1&#45;&gt;Node2 -->
<g id="edge2" class="edge">
<title>Node1&#45;&gt;Node2</title>
<path fill="none" stroke="#191970" d="M1803.8217,-291.4453C1828.7962,-284.2988 1860.1845,-272.6675 1884,-255 1939.2173,-214.037 1989.1679,-162.9455 1943,-112 1915.6345,-81.8026 1618.522,-80.3269 1578,-76 1561.0493,-74.19 1542.2575,-72.0472 1526.489,-70.2103"/>
<polygon fill="#191970" stroke="#191970" points="1526.4545,-66.6824 1516.1152,-68.9954 1525.6402,-73.6349 1526.4545,-66.6824"/>
</g>
<!-- Node3 -->
<g id="node4" class="node">
<title>Node3</title>
<polygon fill="none" stroke="#bfbfbf" points="1886.5,-118 1886.5,-137 1933.5,-137 1933.5,-118 1886.5,-118"/>
<text text-anchor="middle" x="1910" y="-125" font-family="Helvetica,sans-Serif" font-size="10.00" fill="#000000">vector</text>
</g>
<!-- Node1&#45;&gt;Node3 -->
<g id="edge3" class="edge">
<title>Node1&#45;&gt;Node3</title>
<path fill="none" stroke="#191970" d="M1789.6257,-291.402C1825.1795,-277.3731 1885.4114,-247.527 1911,-199 1919.3871,-183.0943 1917.9633,-162.2985 1915.1456,-147.2379"/>
<polygon fill="#191970" stroke="#191970" points="1918.5537,-146.4398 1912.9679,-137.437 1911.7204,-147.9582 1918.5537,-146.4398"/>
</g>
<!-- Node4 -->
<g id="node5" class="node">
<title>Node4</title>
<polygon fill="none" stroke="#bfbfbf" points="2014,-235.5 2014,-254.5 2062,-254.5 2062,-235.5 2014,-235.5"/>
<text text-anchor="middle" x="2038" y="-242.5" font-family="Helvetica,sans-Serif" font-size="10.00" fill="#000000">gsl/gsl</text>
</g>
<!-- Node1&#45;&gt;Node4 -->
<g id="edge4" class="edge">
<title>Node1&#45;&gt;Node4</title>
<path fill="none" stroke="#191970" d="M1817.044,-291.432C1865.4217,-282.7681 1937.632,-269.217 2000,-255 2001.272,-254.71 2002.5661,-254.4076 2003.8718,-254.0961"/>
<polygon fill="#191970" stroke="#191970" points="2005.0786,-257.4026 2013.9367,-251.5901 2003.3873,-250.61 2005.0786,-257.4026"/>
</g>
<!-- Node5 -->
<g id="node6" class="node">
<title>Node5</title>
<g id="a_node6"><a xlink:href="../../d6/dec/Raw_2include_2DetectorsRaw_2RDHUtils_8h.html" target="_top" xlink:title="DetectorsRaw/RDHUtils.h">
<polygon fill="none" stroke="#000000" points="934.5,-235.5 934.5,-254.5 1075.5,-254.5 1075.5,-235.5 934.5,-235.5"/>
<text text-anchor="middle" x="1005" y="-242.5" font-family="Helvetica,sans-Serif" font-size="10.00" fill="#000000">DetectorsRaw/RDHUtils.h</text>
</a>
</g>
</g>
<!-- Node1&#45;&gt;Node5 -->
<g id="edge5" class="edge">
<title>Node1&#45;&gt;Node5</title>
<path fill="none" stroke="#191970" d="M1673.6809,-294.4665C1525.4253,-283.4991 1228.7262,-261.5504 1085.7231,-250.9716"/>
<polygon fill="#191970" stroke="#191970" points="1085.9277,-247.4772 1075.6967,-250.2299 1085.4112,-254.4582 1085.9277,-247.4772"/>
</g>
<!-- Node29 -->
<g id="node30" class="node">
<title>Node29</title>
<g id="a_node30"><a xlink:href="../../d2/df9/MUON_2MID_2include_2DataFormatsMID_2ROFRecord_8h.html" target="_top" xlink:title="Definition of the MID event record. ">
<polygon fill="none" stroke="#000000" points="1130.5,-179.5 1130.5,-198.5 1293.5,-198.5 1293.5,-179.5 1130.5,-179.5"/>
<text text-anchor="middle" x="1212" y="-186.5" font-family="Helvetica,sans-Serif" font-size="10.00" fill="#000000">DataFormatsMID/ROFRecord.h</text>
</a>
</g>
</g>
<!-- Node1&#45;&gt;Node29 -->
<g id="edge36" class="edge">
<title>Node1&#45;&gt;Node29</title>
<path fill="none" stroke="#191970" d="M1693.1342,-291.4728C1635.4398,-283.1022 1551.0334,-269.9486 1478,-255 1399.3932,-238.9106 1308.9259,-215.38 1256.3318,-201.1927"/>
<polygon fill="#191970" stroke="#191970" points="1257.2154,-197.806 1246.6481,-198.5706 1255.3857,-204.5627 1257.2154,-197.806"/>
</g>
<!-- Node30 -->
<g id="node31" class="node">
<title>Node30</title>
<g id="a_node31"><a xlink:href="../../de/d54/ELinkDecoder_8h.html" target="_top" xlink:title="MID e&#45;link decoder. ">
<polygon fill="none" stroke="#000000" points="1748,-179.5 1748,-198.5 1882,-198.5 1882,-179.5 1748,-179.5"/>
<text text-anchor="middle" x="1815" y="-186.5" font-family="Helvetica,sans-Serif" font-size="10.00" fill="#000000">MIDRaw/ELinkDecoder.h</text>
</a>
</g>
</g>
<!-- Node1&#45;&gt;Node30 -->
<g id="edge38" class="edge">
<title>Node1&#45;&gt;Node30</title>
<path fill="none" stroke="#191970" d="M1766.5188,-291.4509C1775.2803,-272.936 1794.7185,-231.8591 1806.1421,-207.7187"/>
<polygon fill="#191970" stroke="#191970" points="1809.3789,-209.061 1810.4927,-198.5249 1803.0516,-206.0668 1809.3789,-209.061"/>
</g>
<!-- Node31 -->
<g id="node32" class="node">
<title>Node31</title>
<g id="a_node32"><a xlink:href="../../d0/d0c/GBTOutputHandler_8h.html" target="_top" xlink:title="MID GBT decoder output handler. ">
<polygon fill="none" stroke="#000000" points="1486.5,-235.5 1486.5,-254.5 1645.5,-254.5 1645.5,-235.5 1486.5,-235.5"/>
<text text-anchor="middle" x="1566" y="-242.5" font-family="Helvetica,sans-Serif" font-size="10.00" fill="#000000">MIDRaw/GBTOutputHandler.h</text>
</a>
</g>
</g>
<!-- Node1&#45;&gt;Node31 -->
<g id="edge41" class="edge">
<title>Node1&#45;&gt;Node31</title>
<path fill="none" stroke="#191970" d="M1728.3064,-291.3733C1695.2913,-281.9404 1644.8427,-267.5265 1608.9614,-257.2747"/>
<polygon fill="#191970" stroke="#191970" points="1609.8307,-253.8831 1599.2539,-254.5011 1607.9076,-260.6137 1609.8307,-253.8831"/>
</g>
<!-- Node34 -->
<g id="node35" class="node">
<title>Node34</title>
<g id="a_node35"><a xlink:href="../../d3/d4a/LocalBoardRO_8h.html" target="_top" xlink:title="Structure to store the FEE local board information. ">
<polygon fill="none" stroke="#000000" points="1594,-179.5 1594,-198.5 1730,-198.5 1730,-179.5 1594,-179.5"/>
<text text-anchor="middle" x="1662" y="-186.5" font-family="Helvetica,sans-Serif" font-size="10.00" fill="#000000">MIDRaw/LocalBoardRO.h</text>
</a>
</g>
</g>
<!-- Node1&#45;&gt;Node34 -->
<g id="edge55" class="edge">
<title>Node1&#45;&gt;Node34</title>
<path fill="none" stroke="#191970" d="M1753.4741,-291.4509C1736.5738,-272.5227 1698.6197,-230.014 1677.2928,-206.1279"/>
<polygon fill="#191970" stroke="#191970" points="1679.7753,-203.6532 1670.5044,-198.5249 1674.5538,-208.3154 1679.7753,-203.6532"/>
</g>
<!-- Node6 -->
<g id="node7" class="node">
<title>Node6</title>
<g id="a_node7"><a xlink:href="../../df/d21/GPUCommonDef_8h.html" target="_top" xlink:title="GPUCommonDef.h">
<polygon fill="none" stroke="#000000" points="782.5,-118 782.5,-137 889.5,-137 889.5,-118 782.5,-118"/>
<text text-anchor="middle" x="836" y="-125" font-family="Helvetica,sans-Serif" font-size="10.00" fill="#000000">GPUCommonDef.h</text>
</a>
</g>
</g>
<!-- Node5&#45;&gt;Node6 -->
<g id="edge6" class="edge">
<title>Node5&#45;&gt;Node6</title>
<path fill="none" stroke="#191970" d="M960.1017,-235.4471C923.0644,-226.7414 874.3575,-213.1204 860,-199 846.1776,-185.4059 840.3159,-163.6191 837.8301,-147.6637"/>
<polygon fill="#191970" stroke="#191970" points="841.2471,-146.7743 836.5512,-137.277 834.2996,-147.6298 841.2471,-146.7743"/>
</g>
<!-- Node9 -->
<g id="node10" class="node">
<title>Node9</title>
<g id="a_node10"><a xlink:href="../../d2/d45/GPUCommonRtypes_8h.html" target="_top" xlink:title="GPUCommonRtypes.h">
<polygon fill="none" stroke="#000000" points="1048.5,-56.5 1048.5,-75.5 1173.5,-75.5 1173.5,-56.5 1048.5,-56.5"/>
<text text-anchor="middle" x="1111" y="-63.5" font-family="Helvetica,sans-Serif" font-size="10.00" fill="#000000">GPUCommonRtypes.h</text>
</a>
</g>
</g>
<!-- Node5&#45;&gt;Node9 -->
<g id="edge9" class="edge">
<title>Node5&#45;&gt;Node9</title>
<path fill="none" stroke="#191970" d="M1003.6023,-235.2378C1000.7707,-211.6644 996.7527,-150.7237 1024,-112 1034.5202,-97.0488 1051.4449,-86.5598 1067.5824,-79.4148"/>
<polygon fill="#191970" stroke="#191970" points="1069.0093,-82.6126 1076.9387,-75.5858 1066.358,-76.1341 1069.0093,-82.6126"/>
</g>
<!-- Node11 -->
<g id="node12" class="node">
<title>Node11</title>
<g id="a_node12"><a xlink:href="../../d4/d78/DataFormats_2Headers_2include_2Headers_2RAWDataHeader_8h.html" target="_top" xlink:title="Headers/RAWDataHeader.h">
<polygon fill="none" stroke="#000000" points="1032.5,-118 1032.5,-137 1181.5,-137 1181.5,-118 1032.5,-118"/>
<text text-anchor="middle" x="1107" y="-125" font-family="Helvetica,sans-Serif" font-size="10.00" fill="#000000">Headers/RAWDataHeader.h</text>
</a>
</g>
</g>
<!-- Node5&#45;&gt;Node11 -->
<g id="edge11" class="edge">
<title>Node5&#45;&gt;Node11</title>
<path fill="none" stroke="#191970" d="M1013.3471,-235.3845C1030.5314,-215.5889 1070.0741,-170.0372 1091.8803,-144.9173"/>
<polygon fill="#191970" stroke="#191970" points="1094.6252,-147.0944 1098.5376,-137.2484 1089.3391,-142.5056 1094.6252,-147.0944"/>
</g>
<!-- Node12 -->
<g id="node13" class="node">
<title>Node12</title>
<g id="a_node13"><a xlink:href="../../d6/d89/RDHAny_8h.html" target="_top" xlink:title="Headers/RDHAny.h">
<polygon fill="none" stroke="#000000" points="869,-179.5 869,-198.5 977,-198.5 977,-179.5 869,-179.5"/>
<text text-anchor="middle" x="923" y="-186.5" font-family="Helvetica,sans-Serif" font-size="10.00" fill="#000000">Headers/RDHAny.h</text>
</a>
</g>
</g>
<!-- Node5&#45;&gt;Node12 -->
<g id="edge13" class="edge">
<title>Node5&#45;&gt;Node12</title>
<path fill="none" stroke="#191970" d="M990.7167,-235.2455C978.253,-226.7337 959.9549,-214.2375 945.5208,-204.3801"/>
<polygon fill="#191970" stroke="#191970" points="947.3515,-201.392 937.1196,-198.6427 943.4038,-207.1726 947.3515,-201.392"/>
</g>
<!-- Node15 -->
<g id="node16" class="node">
<title>Node15</title>
<g id="a_node16"><a xlink:href="../../d9/d80/InteractionRecord_8h.html" target="_top" xlink:title="CommonDataFormat/Interaction\lRecord.h">
<polygon fill="none" stroke="#000000" points="1200,-112.5 1200,-142.5 1374,-142.5 1374,-112.5 1200,-112.5"/>
<text text-anchor="start" x="1208" y="-130.5" font-family="Helvetica,sans-Serif" font-size="10.00" fill="#000000">CommonDataFormat/Interaction</text>
<text text-anchor="middle" x="1287" y="-119.5" font-family="Helvetica,sans-Serif" font-size="10.00" fill="#000000">Record.h</text>
</a>
</g>
</g>
<!-- Node5&#45;&gt;Node15 -->
<g id="edge18" class="edge">
<title>Node5&#45;&gt;Node15</title>
<path fill="none" stroke="#191970" d="M1019.6248,-235.4078C1041.2788,-221.5206 1083.4683,-195.6589 1122,-179 1152.8102,-165.6795 1188.1968,-154.1674 1218.2786,-145.4264"/>
<polygon fill="#191970" stroke="#191970" points="1219.6113,-148.6856 1228.2626,-142.5697 1217.6856,-141.9557 1219.6113,-148.6856"/>
</g>
<!-- Node19 -->
<g id="node20" class="node">
<title>Node19</title>
<g id="a_node20"><a xlink:href="../../d7/d34/DAQID_8h.html" target="_top" xlink:title="Headers/DAQID.h">
<polygon fill="none" stroke="#000000" points="564.5,-179.5 564.5,-198.5 665.5,-198.5 665.5,-179.5 564.5,-179.5"/>
<text text-anchor="middle" x="615" y="-186.5" font-family="Helvetica,sans-Serif" font-size="10.00" fill="#000000">Headers/DAQID.h</text>
</a>
</g>
</g>
<!-- Node5&#45;&gt;Node19 -->
<g id="edge24" class="edge">
<title>Node5&#45;&gt;Node19</title>
<path fill="none" stroke="#191970" d="M938.3997,-235.4369C864.7876,-224.8669 747.2304,-207.9869 675.9598,-197.7532"/>
<polygon fill="#191970" stroke="#191970" points="676.1871,-194.25 665.7911,-196.2931 675.1921,-201.179 676.1871,-194.25"/>
</g>
<!-- Node7 -->
<g id="node8" class="node">
<title>Node7</title>
<g id="a_node8"><a xlink:href="../../d5/d93/GPUCommonDefSettings_8h.html" target="_top" xlink:title="GPUCommonDefSettings.h">
<polygon fill="none" stroke="#000000" points="740,-56.5 740,-75.5 888,-75.5 888,-56.5 740,-56.5"/>
<text text-anchor="middle" x="814" y="-63.5" font-family="Helvetica,sans-Serif" font-size="10.00" fill="#000000">GPUCommonDefSettings.h</text>
</a>
</g>
</g>
<!-- Node6&#45;&gt;Node7 -->
<g id="edge7" class="edge">
<title>Node6&#45;&gt;Node7</title>
<path fill="none" stroke="#191970" d="M832.5625,-117.8906C829.4487,-109.1862 824.768,-96.1015 820.886,-85.2494"/>
<polygon fill="#191970" stroke="#191970" points="824.1497,-83.9817 817.486,-75.7449 817.5588,-86.3394 824.1497,-83.9817"/>
</g>
<!-- Node8 -->
<g id="node9" class="node">
<title>Node8</title>
<g id="a_node9"><a xlink:href="../../da/d5a/GPUCommonDefAPI_8h.html" target="_top" xlink:title="GPUCommonDefAPI.h">
<polygon fill="none" stroke="#000000" points="906,-56.5 906,-75.5 1030,-75.5 1030,-56.5 906,-56.5"/>
<text text-anchor="middle" x="968" y="-63.5" font-family="Helvetica,sans-Serif" font-size="10.00" fill="#000000">GPUCommonDefAPI.h</text>
</a>
</g>
</g>
<!-- Node6&#45;&gt;Node8 -->
<g id="edge8" class="edge">
<title>Node6&#45;&gt;Node8</title>
<path fill="none" stroke="#191970" d="M856.625,-117.8906C878.5173,-107.6908 913.3193,-91.4763 938.1927,-79.8875"/>
<polygon fill="#191970" stroke="#191970" points="939.9335,-82.9377 947.5198,-75.5419 936.9772,-76.5926 939.9335,-82.9377"/>
</g>
<!-- Node10 -->
<g id="node11" class="node">
<title>Node10</title>
<polygon fill="none" stroke="#bfbfbf" points="1081.5,-.5 1081.5,-19.5 1140.5,-19.5 1140.5,-.5 1081.5,-.5"/>
<text text-anchor="middle" x="1111" y="-7.5" font-family="Helvetica,sans-Serif" font-size="10.00" fill="#000000">Rtypes.h</text>
</g>
<!-- Node9&#45;&gt;Node10 -->
<g id="edge10" class="edge">
<title>Node9&#45;&gt;Node10</title>
<path fill="none" stroke="#191970" d="M1111,-56.2455C1111,-48.9382 1111,-38.6944 1111,-29.7046"/>
<polygon fill="#191970" stroke="#191970" points="1114.5001,-29.6426 1111,-19.6427 1107.5001,-29.6427 1114.5001,-29.6426"/>
</g>
<!-- Node11&#45;&gt;Node2 -->
<g id="edge12" class="edge">
<title>Node11&#45;&gt;Node2</title>
<path fill="none" stroke="#191970" d="M1156.6795,-117.9255C1167.9463,-115.8676 1179.8708,-113.7789 1191,-112 1305.5835,-93.6853 1338.5396,-100.4997 1455.7677,-75.9981"/>
<polygon fill="#191970" stroke="#191970" points="1456.8026,-79.3565 1465.8578,-73.8562 1455.349,-72.5091 1456.8026,-79.3565"/>
</g>
<!-- Node12&#45;&gt;Node6 -->
<g id="edge14" class="edge">
<title>Node12&#45;&gt;Node6</title>
<path fill="none" stroke="#191970" d="M909.4063,-179.3906C895.6157,-169.6421 874.0528,-154.3994 857.859,-142.9521"/>
<polygon fill="#191970" stroke="#191970" points="859.6844,-139.9563 849.4983,-137.0419 855.6437,-145.6723 859.6844,-139.9563"/>
</g>
<!-- Node12&#45;&gt;Node11 -->
<g id="edge15" class="edge">
<title>Node12&#45;&gt;Node11</title>
<path fill="none" stroke="#191970" d="M951.75,-179.3906C983.2117,-168.8749 1033.8008,-151.966 1068.6314,-140.3243"/>
<polygon fill="#191970" stroke="#191970" points="1070.0772,-143.5315 1078.4519,-137.0419 1067.8581,-136.8925 1070.0772,-143.5315"/>
</g>
<!-- Node13 -->
<g id="node14" class="node">
<title>Node13</title>
<polygon fill="none" stroke="#bfbfbf" points="907.5,-118 907.5,-137 976.5,-137 976.5,-118 907.5,-118"/>
<text text-anchor="middle" x="942" y="-125" font-family="Helvetica,sans-Serif" font-size="10.00" fill="#000000">type_traits</text>
</g>
<!-- Node12&#45;&gt;Node13 -->
<g id="edge16" class="edge">
<title>Node12&#45;&gt;Node13</title>
<path fill="none" stroke="#191970" d="M925.9688,-179.3906C928.6302,-170.776 932.6171,-157.8708 935.9491,-147.0858"/>
<polygon fill="#191970" stroke="#191970" points="939.3816,-147.8324 938.9894,-137.2449 932.6935,-145.7661 939.3816,-147.8324"/>
</g>
<!-- Node14 -->
<g id="node15" class="node">
<title>Node14</title>
<polygon fill="none" stroke="#bfbfbf" points="656.5,-56.5 656.5,-75.5 721.5,-75.5 721.5,-56.5 656.5,-56.5"/>
<text text-anchor="middle" x="689" y="-63.5" font-family="Helvetica,sans-Serif" font-size="10.00" fill="#000000">stdexcept</text>
</g>
<!-- Node12&#45;&gt;Node14 -->
<g id="edge17" class="edge">
<title>Node12&#45;&gt;Node14</title>
<path fill="none" stroke="#191970" d="M872.788,-179.4845C842.523,-172.3524 803.9705,-160.7224 773,-143 745.2585,-127.1253 719.076,-100.6193 703.534,-83.2237"/>
<polygon fill="#191970" stroke="#191970" points="706.0098,-80.7375 696.7988,-75.5023 700.7347,-85.339 706.0098,-80.7375"/>
</g>
<!-- Node15&#45;&gt;Node2 -->
<g id="edge22" class="edge">
<title>Node15&#45;&gt;Node2</title>
<path fill="none" stroke="#191970" d="M1336.904,-112.4554C1373.8909,-101.305 1423.3705,-86.3883 1456.1685,-76.5007"/>
<polygon fill="#191970" stroke="#191970" points="1457.2153,-79.8408 1465.7794,-73.6033 1455.1947,-73.1387 1457.2153,-79.8408"/>
</g>
<!-- Node15&#45;&gt;Node9 -->
<g id="edge19" class="edge">
<title>Node15&#45;&gt;Node9</title>
<path fill="none" stroke="#191970" d="M1243.9456,-112.4554C1214.5795,-102.194 1176.0855,-88.7429 1148.0805,-78.9571"/>
<polygon fill="#191970" stroke="#191970" points="1148.8686,-75.525 1138.2738,-75.5303 1146.5594,-82.1332 1148.8686,-75.525"/>
</g>
<!-- Node16 -->
<g id="node17" class="node">
<title>Node16</title>
<polygon fill="none" stroke="#bfbfbf" points="1586.5,-56.5 1586.5,-75.5 1635.5,-75.5 1635.5,-56.5 1586.5,-56.5"/>
<text text-anchor="middle" x="1611" y="-63.5" font-family="Helvetica,sans-Serif" font-size="10.00" fill="#000000">iosfwd</text>
</g>
<!-- Node15&#45;&gt;Node16 -->
<g id="edge20" class="edge">
<title>Node15&#45;&gt;Node16</title>
<path fill="none" stroke="#191970" d="M1366.2593,-112.4554C1433.4219,-99.707 1526.5205,-82.0355 1576.3065,-72.5853"/>
<polygon fill="#191970" stroke="#191970" points="1577.0761,-76.0018 1586.248,-70.6983 1575.7707,-69.1246 1577.0761,-76.0018"/>
</g>
<!-- Node17 -->
<g id="node18" class="node">
<title>Node17</title>
<polygon fill="none" stroke="#bfbfbf" points="1400.5,-56.5 1400.5,-75.5 1447.5,-75.5 1447.5,-56.5 1400.5,-56.5"/>
<text text-anchor="middle" x="1424" y="-63.5" font-family="Helvetica,sans-Serif" font-size="10.00" fill="#000000">cmath</text>
</g>
<!-- Node15&#45;&gt;Node17 -->
<g id="edge21" class="edge">
<title>Node15&#45;&gt;Node17</title>
<path fill="none" stroke="#191970" d="M1320.514,-112.4554C1342.7712,-102.464 1371.7647,-89.4487 1393.3985,-79.7372"/>
<polygon fill="#191970" stroke="#191970" points="1395.0803,-82.8187 1402.7699,-75.5303 1392.2135,-76.4327 1395.0803,-82.8187"/>
</g>
<!-- Node18 -->
<g id="node19" class="node">
<title>Node18</title>
<g id="a_node19"><a xlink:href="../../d4/dc6/LHCConstants_8h.html" target="_top" xlink:title="Header to collect LHC related constants. ">
<polygon fill="none" stroke="#000000" points="1192,-56.5 1192,-75.5 1382,-75.5 1382,-56.5 1192,-56.5"/>
<text text-anchor="middle" x="1287" y="-63.5" font-family="Helvetica,sans-Serif" font-size="10.00" fill="#000000">CommonConstants/LHCConstants.h</text>
</a>
</g>
</g>
<!-- Node15&#45;&gt;Node18 -->
<g id="edge23" class="edge">
<title>Node15&#45;&gt;Node18</title>
<path fill="none" stroke="#191970" d="M1287,-112.2977C1287,-104.3834 1287,-94.6043 1287,-86.0759"/>
<polygon fill="#191970" stroke="#191970" points="1290.5001,-85.8469 1287,-75.8469 1283.5001,-85.847 1290.5001,-85.8469"/>
</g>
<!-- Node20 -->
<g id="node21" class="node">
<title>Node20</title>
<g id="a_node21"><a xlink:href="../../dc/dcd/DataHeader_8h.html" target="_top" xlink:title="Headers/DataHeader.h">
<polygon fill="none" stroke="#000000" points="405.5,-118 405.5,-137 532.5,-137 532.5,-118 405.5,-118"/>
<text text-anchor="middle" x="469" y="-125" font-family="Helvetica,sans-Serif" font-size="10.00" fill="#000000">Headers/DataHeader.h</text>
</a>
</g>
</g>
<!-- Node19&#45;&gt;Node20 -->
<g id="edge25" class="edge">
<title>Node19&#45;&gt;Node20</title>
<path fill="none" stroke="#191970" d="M592.1875,-179.3906C567.6519,-169.0554 528.4558,-152.5447 500.8789,-140.9284"/>
<polygon fill="#191970" stroke="#191970" points="502.2268,-137.6984 491.6523,-137.0419 499.5094,-144.1495 502.2268,-137.6984"/>
</g>
<!-- Node20&#45;&gt;Node2 -->
<g id="edge26" class="edge">
<title>Node20&#45;&gt;Node2</title>
<path fill="none" stroke="#191970" d="M532.6504,-124.2313C736.8374,-113.7396 1366.8464,-81.3212 1455.6818,-74.9886"/>
<polygon fill="#191970" stroke="#191970" points="1456.247,-78.4526 1465.9033,-74.093 1455.6359,-71.4793 1456.247,-78.4526"/>
</g>
<!-- Node20&#45;&gt;Node14 -->
<g id="edge31" class="edge">
<title>Node20&#45;&gt;Node14</title>
<path fill="none" stroke="#191970" d="M503.375,-117.8906C542.0039,-107.0921 604.7491,-89.552 646.4428,-77.8967"/>
<polygon fill="#191970" stroke="#191970" points="647.6129,-81.2038 656.3013,-75.1408 645.7282,-74.4623 647.6129,-81.2038"/>
</g>
<!-- Node21 -->
<g id="node22" class="node">
<title>Node21</title>
<polygon fill="none" stroke="#bfbfbf" points="298,-56.5 298,-75.5 356,-75.5 356,-56.5 298,-56.5"/>
<text text-anchor="middle" x="327" y="-63.5" font-family="Helvetica,sans-Serif" font-size="10.00" fill="#000000">memory</text>
</g>
<!-- Node20&#45;&gt;Node21 -->
<g id="edge27" class="edge">
<title>Node20&#45;&gt;Node21</title>
<path fill="none" stroke="#191970" d="M446.8125,-117.8906C423.0533,-107.6005 385.1595,-91.1888 358.3575,-79.5809"/>
<polygon fill="#191970" stroke="#191970" points="359.5991,-76.3045 349.0317,-75.5419 356.817,-82.7279 359.5991,-76.3045"/>
</g>
<!-- Node22 -->
<g id="node23" class="node">
<title>Node22</title>
<polygon fill="none" stroke="#bfbfbf" points="374,-56.5 374,-75.5 426,-75.5 426,-56.5 374,-56.5"/>
<text text-anchor="middle" x="400" y="-63.5" font-family="Helvetica,sans-Serif" font-size="10.00" fill="#000000">cassert</text>
</g>
<!-- Node20&#45;&gt;Node22 -->
<g id="edge28" class="edge">
<title>Node20&#45;&gt;Node22</title>
<path fill="none" stroke="#191970" d="M458.2188,-117.8906C447.6474,-108.4683 431.3175,-93.9134 418.6397,-82.6137"/>
<polygon fill="#191970" stroke="#191970" points="420.7272,-79.7858 410.9333,-75.7449 416.0696,-85.0114 420.7272,-79.7858"/>
</g>
<!-- Node23 -->
<g id="node24" class="node">
<title>Node23</title>
<polygon fill="none" stroke="#bfbfbf" points="444,-56.5 444,-75.5 494,-75.5 494,-56.5 444,-56.5"/>
<text text-anchor="middle" x="469" y="-63.5" font-family="Helvetica,sans-Serif" font-size="10.00" fill="#000000">cstring</text>
</g>
<!-- Node20&#45;&gt;Node23 -->
<g id="edge29" class="edge">
<title>Node20&#45;&gt;Node23</title>
<path fill="none" stroke="#191970" d="M469,-117.8906C469,-109.3657 469,-96.6392 469,-85.9235"/>
<polygon fill="#191970" stroke="#191970" points="472.5001,-85.7448 469,-75.7449 465.5001,-85.7449 472.5001,-85.7448"/>
</g>
<!-- Node24 -->
<g id="node25" class="node">
<title>Node24</title>
<polygon fill="none" stroke="#bfbfbf" points="512,-56.5 512,-75.5 576,-75.5 576,-56.5 512,-56.5"/>
<text text-anchor="middle" x="544" y="-63.5" font-family="Helvetica,sans-Serif" font-size="10.00" fill="#000000">algorithm</text>
</g>
<!-- Node20&#45;&gt;Node24 -->
<g id="edge30" class="edge">
<title>Node20&#45;&gt;Node24</title>
<path fill="none" stroke="#191970" d="M480.7188,-117.8906C492.3188,-108.3786 510.2979,-93.6357 524.1321,-82.2917"/>
<polygon fill="#191970" stroke="#191970" points="526.6026,-84.7921 532.116,-75.7449 522.164,-79.3792 526.6026,-84.7921"/>
</g>
<!-- Node25 -->
<g id="node26" class="node">
<title>Node25</title>
<polygon fill="none" stroke="#bfbfbf" points="594,-56.5 594,-75.5 638,-75.5 638,-56.5 594,-56.5"/>
<text text-anchor="middle" x="616" y="-63.5" font-family="Helvetica,sans-Serif" font-size="10.00" fill="#000000">string</text>
</g>
<!-- Node20&#45;&gt;Node25 -->
<g id="edge32" class="edge">
<title>Node20&#45;&gt;Node25</title>
<path fill="none" stroke="#191970" d="M491.9688,-117.8906C516.8169,-107.495 556.5991,-90.8514 584.3886,-79.2252"/>
<polygon fill="#191970" stroke="#191970" points="585.7995,-82.4289 593.6739,-75.3405 583.0978,-75.9713 585.7995,-82.4289"/>
</g>
<!-- Node26 -->
<g id="node27" class="node">
<title>Node26</title>
<polygon fill="none" stroke="#bfbfbf" points="0,-56.5 0,-75.5 50,-75.5 50,-56.5 0,-56.5"/>
<text text-anchor="middle" x="25" y="-63.5" font-family="Helvetica,sans-Serif" font-size="10.00" fill="#000000">climits</text>
</g>
<!-- Node20&#45;&gt;Node26 -->
<g id="edge33" class="edge">
<title>Node20&#45;&gt;Node26</title>
<path fill="none" stroke="#191970" d="M405.2632,-122.697C326.2465,-116.0304 187.4214,-101.9893 60.0654,-75.9438"/>
<polygon fill="#191970" stroke="#191970" points="60.6389,-72.4883 50.1364,-73.8836 59.2167,-79.3423 60.6389,-72.4883"/>
</g>
<!-- Node27 -->
<g id="node28" class="node">
<title>Node27</title>
<g id="a_node28"><a xlink:href="../../d7/df8/Types_8h.html" target="_top" xlink:title="MemoryResources/Types.h">
<polygon fill="none" stroke="#000000" points="68,-56.5 68,-75.5 214,-75.5 214,-56.5 68,-56.5"/>
<text text-anchor="middle" x="141" y="-63.5" font-family="Helvetica,sans-Serif" font-size="10.00" fill="#000000">MemoryResources/Types.h</text>
</a>
</g>
</g>
<!-- Node20&#45;&gt;Node27 -->
<g id="edge34" class="edge">
<title>Node20&#45;&gt;Node27</title>
<path fill="none" stroke="#191970" d="M418.1099,-117.9581C359.7305,-107.012 264.0679,-89.0752 201.8139,-77.4026"/>
<polygon fill="#191970" stroke="#191970" points="202.2134,-73.9166 191.7396,-75.5137 200.9233,-80.7967 202.2134,-73.9166"/>
</g>
<!-- Node28 -->
<g id="node29" class="node">
<title>Node28</title>
<polygon fill="none" stroke="#bfbfbf" points="232.5,-56.5 232.5,-75.5 279.5,-75.5 279.5,-56.5 232.5,-56.5"/>
<text text-anchor="middle" x="256" y="-63.5" font-family="Helvetica,sans-Serif" font-size="10.00" fill="#000000">cerrno</text>
</g>
<!-- Node20&#45;&gt;Node28 -->
<g id="edge35" class="edge">
<title>Node20&#45;&gt;Node28</title>
<path fill="none" stroke="#191970" d="M435.1157,-117.9752C400.8802,-108.3141 346.2157,-92.7861 289.6183,-76.1514"/>
<polygon fill="#191970" stroke="#191970" points="290.3612,-72.7217 279.7798,-73.2542 288.3838,-79.4366 290.3612,-72.7217"/>
</g>
<!-- Node29&#45;&gt;Node15 -->
<g id="edge37" class="edge">
<title>Node29&#45;&gt;Node15</title>
<path fill="none" stroke="#191970" d="M1223.7188,-179.3906C1233.5871,-171.2986 1248.0723,-159.4207 1260.6946,-149.0705"/>
<polygon fill="#191970" stroke="#191970" points="1263.1395,-151.5919 1268.6529,-142.5446 1258.7009,-146.179 1263.1395,-151.5919"/>
</g>
<!-- Node30&#45;&gt;Node2 -->
<g id="edge39" class="edge">
<title>Node30&#45;&gt;Node2</title>
<path fill="none" stroke="#191970" d="M1789.8459,-179.4507C1732.4285,-157.6534 1591.614,-104.1961 1525.8712,-79.2381"/>
<polygon fill="#191970" stroke="#191970" points="1526.9527,-75.905 1516.3615,-75.628 1524.4683,-82.4493 1526.9527,-75.905"/>
</g>
<!-- Node30&#45;&gt;Node3 -->
<g id="edge40" class="edge">
<title>Node30&#45;&gt;Node3</title>
<path fill="none" stroke="#191970" d="M1829.8438,-179.3906C1845.0418,-169.5519 1868.8848,-154.1167 1886.6206,-142.6351"/>
<polygon fill="#191970" stroke="#191970" points="1888.768,-145.4144 1895.2605,-137.0419 1884.9639,-139.5382 1888.768,-145.4144"/>
</g>
<!-- Node31&#45;&gt;Node2 -->
<g id="edge42" class="edge">
<title>Node31&#45;&gt;Node2</title>
<path fill="none" stroke="#191970" d="M1487.4744,-235.4654C1442.6535,-228.2308 1392.7155,-216.4983 1379,-199 1361.0702,-176.1252 1433.4836,-112.4116 1470.473,-82.2395"/>
<polygon fill="#191970" stroke="#191970" points="1473.0346,-84.6701 1478.6214,-75.6679 1468.6402,-79.2212 1473.0346,-84.6701"/>
</g>
<!-- Node31&#45;&gt;Node3 -->
<g id="edge44" class="edge">
<title>Node31&#45;&gt;Node3</title>
<path fill="none" stroke="#191970" d="M1645.6555,-238.3201C1735.9149,-230.0417 1872.9121,-215.052 1891,-199 1905.518,-186.1161 1909.5165,-163.5266 1910.356,-147.1805"/>
<polygon fill="#191970" stroke="#191970" points="1913.8575,-147.1138 1910.523,-137.0574 1906.8585,-146.9983 1913.8575,-147.1138"/>
</g>
<!-- Node31&#45;&gt;Node15 -->
<g id="edge45" class="edge">
<title>Node31&#45;&gt;Node15</title>
<path fill="none" stroke="#191970" d="M1495.8675,-235.4883C1441.3264,-227.15 1370.8812,-214.0334 1346,-199 1326.8856,-187.4509 1311.1577,-167.414 1300.7613,-151.4844"/>
<polygon fill="#191970" stroke="#191970" points="1303.5305,-149.3104 1295.2708,-142.6751 1297.5899,-153.013 1303.5305,-149.3104"/>
</g>
<!-- Node31&#45;&gt;Node29 -->
<g id="edge46" class="edge">
<title>Node31&#45;&gt;Node29</title>
<path fill="none" stroke="#191970" d="M1505.5475,-235.4369C1443.6903,-225.6516 1347.6467,-210.4582 1282.4004,-200.1368"/>
<polygon fill="#191970" stroke="#191970" points="1282.6273,-196.6292 1272.2032,-198.5237 1281.5335,-203.5433 1282.6273,-196.6292"/>
</g>
<!-- Node31&#45;&gt;Node30 -->
<g id="edge50" class="edge">
<title>Node31&#45;&gt;Node30</title>
<path fill="none" stroke="#191970" d="M1608.5217,-235.4369C1651.1361,-225.8529 1716.8176,-211.0812 1762.621,-200.78"/>
<polygon fill="#191970" stroke="#191970" points="1763.6654,-204.1326 1772.6537,-198.5237 1762.1294,-197.3032 1763.6654,-204.1326"/>
</g>
<!-- Node32 -->
<g id="node33" class="node">
<title>Node32</title>
<polygon fill="none" stroke="#bfbfbf" points="1516,-118 1516,-137 1558,-137 1558,-118 1516,-118"/>
<text text-anchor="middle" x="1537" y="-125" font-family="Helvetica,sans-Serif" font-size="10.00" fill="#000000">array</text>
</g>
<!-- Node31&#45;&gt;Node32 -->
<g id="edge43" class="edge">
<title>Node31&#45;&gt;Node32</title>
<path fill="none" stroke="#191970" d="M1563.6268,-235.3845C1558.8898,-216.1913 1548.177,-172.786 1541.8785,-147.2663"/>
<polygon fill="#191970" stroke="#191970" points="1545.2003,-146.1184 1539.406,-137.2484 1538.4042,-147.7957 1545.2003,-146.1184"/>
</g>
<!-- Node33 -->
<g id="node34" class="node">
<title>Node33</title>
<g id="a_node34"><a xlink:href="../../d2/da5/CrateParameters_8h.html" target="_top" xlink:title="MID RO crate parameters. ">
<polygon fill="none" stroke="#000000" points="1388,-179.5 1388,-198.5 1538,-198.5 1538,-179.5 1388,-179.5"/>
<text text-anchor="middle" x="1463" y="-186.5" font-family="Helvetica,sans-Serif" font-size="10.00" fill="#000000">MIDRaw/CrateParameters.h</text>
</a>
</g>
</g>
<!-- Node31&#45;&gt;Node33 -->
<g id="edge47" class="edge">
<title>Node31&#45;&gt;Node33</title>
<path fill="none" stroke="#191970" d="M1548.0588,-235.2455C1531.96,-226.4928 1508.1121,-213.527 1489.7609,-203.5496"/>
<polygon fill="#191970" stroke="#191970" points="1491.1929,-200.3444 1480.7356,-198.6427 1487.8493,-206.4942 1491.1929,-200.3444"/>
</g>
<!-- Node31&#45;&gt;Node34 -->
<g id="edge51" class="edge">
<title>Node31&#45;&gt;Node34</title>
<path fill="none" stroke="#191970" d="M1582.7219,-235.2455C1597.5889,-226.5731 1619.5466,-213.7645 1636.5858,-203.825"/>
<polygon fill="#191970" stroke="#191970" points="1638.5955,-206.7047 1645.4697,-198.6427 1635.0683,-200.6582 1638.5955,-206.7047"/>
</g>
<!-- Node33&#45;&gt;Node2 -->
<g id="edge48" class="edge">
<title>Node33&#45;&gt;Node2</title>
<path fill="none" stroke="#191970" d="M1465.1971,-179.3484C1469.777,-159.2295 1480.4236,-112.4608 1486.5132,-85.7098"/>
<polygon fill="#191970" stroke="#191970" points="1490.0061,-86.1342 1488.8131,-75.6068 1483.1807,-84.5804 1490.0061,-86.1342"/>
</g>
<!-- Node33&#45;&gt;Node32 -->
<g id="edge49" class="edge">
<title>Node33&#45;&gt;Node32</title>
<path fill="none" stroke="#191970" d="M1474.5625,-179.3906C1486.0079,-169.8786 1503.7473,-155.1357 1517.397,-143.7917"/>
<polygon fill="#191970" stroke="#191970" points="1519.8208,-146.3283 1525.2745,-137.2449 1515.3467,-140.9447 1519.8208,-146.3283"/>
</g>
<!-- Node34&#45;&gt;Node2 -->
<g id="edge52" class="edge">
<title>Node34&#45;&gt;Node2</title>
<path fill="none" stroke="#191970" d="M1651.2668,-179.4846C1634.0535,-164.4148 1598.9579,-134.4648 1567,-112 1550.9087,-100.6886 1531.9886,-89.2312 1517.0517,-80.5805"/>
<polygon fill="#191970" stroke="#191970" points="1518.7439,-77.5164 1508.3269,-75.5833 1515.2648,-83.5906 1518.7439,-77.5164"/>
</g>
<!-- Node34&#45;&gt;Node16 -->
<g id="edge54" class="edge">
<title>Node34&#45;&gt;Node16</title>
<path fill="none" stroke="#191970" d="M1657.9981,-179.3484C1649.5817,-159.0499 1629.9171,-111.6235 1618.8773,-84.9981"/>
<polygon fill="#191970" stroke="#191970" points="1622.0466,-83.5036 1614.9833,-75.6068 1615.5804,-86.1848 1622.0466,-83.5036"/>
</g>
<!-- Node34&#45;&gt;Node32 -->
<g id="edge53" class="edge">
<title>Node34&#45;&gt;Node32</title>
<path fill="none" stroke="#191970" d="M1642.4688,-179.3906C1621.8292,-169.2359 1589.0724,-153.1196 1565.5398,-141.5416"/>
<polygon fill="#191970" stroke="#191970" points="1566.912,-138.3161 1556.3941,-137.0419 1563.8218,-144.5971 1566.912,-138.3161"/>
</g>
</g>
</svg>
