<?xml version="1.0" encoding="UTF-8" standalone="no"?>
<!DOCTYPE svg PUBLIC "-//W3C//DTD SVG 1.1//EN"
 "http://www.w3.org/Graphics/SVG/1.1/DTD/svg11.dtd">
<!-- Generated by graphviz version 2.40.1 (20161225.0304)
 -->
<!-- Title: /home/travis/build/AliceO2Group/AliceO2/GPU/GPUTracking/SliceTracker/GPUTPCSliceOutput.cxx Pages: 1 -->
<svg width="1000pt" height="453pt"
 viewBox="0.00 0.00 999.85 453.00" xmlns="http://www.w3.org/2000/svg" xmlns:xlink="http://www.w3.org/1999/xlink">
<g id="graph0" class="graph" transform="scale(1 1) rotate(0) translate(4 449)">
<title>/home/travis/build/AliceO2Group/AliceO2/GPU/GPUTracking/SliceTracker/GPUTPCSliceOutput.cxx</title>
<!-- Node0 -->
<g id="node1" class="node">
<title>Node0</title>
<polygon fill="#bfbfbf" stroke="#000000" points="677,-392.5 677,-444.5 844,-444.5 844,-392.5 677,-392.5"/>
<text text-anchor="start" x="685" y="-432.5" font-family="Helvetica,sans-Serif" font-size="10.00" fill="#000000">/home/travis/build</text>
<text text-anchor="start" x="685" y="-421.5" font-family="Helvetica,sans-Serif" font-size="10.00" fill="#000000">/AliceO2Group/AliceO2</text>
<text text-anchor="start" x="685" y="-410.5" font-family="Helvetica,sans-Serif" font-size="10.00" fill="#000000">/GPU/GPUTracking/SliceTracker</text>
<text text-anchor="middle" x="760.5" y="-399.5" font-family="Helvetica,sans-Serif" font-size="10.00" fill="#000000">/GPUTPCSliceOutput.cxx</text>
</g>
<!-- Node1 -->
<g id="node2" class="node">
<title>Node1</title>
<g id="a_node2"><a xlink:href="../../d5/d5b/GPUOutputControl_8h.html" target="_top" xlink:title="GPUOutputControl.h">
<polygon fill="none" stroke="#000000" points="802,-336.5 802,-355.5 917,-355.5 917,-336.5 802,-336.5"/>
<text text-anchor="middle" x="859.5" y="-343.5" font-family="Helvetica,sans-Serif" font-size="10.00" fill="#000000">GPUOutputControl.h</text>
</a>
</g>
</g>
<!-- Node0&#45;&gt;Node1 -->
<g id="edge1" class="edge">
<title>Node0&#45;&gt;Node1</title>
<path fill="none" stroke="#191970" d="M796.2413,-392.3258C810.3248,-382.0122 826.0224,-370.5165 838.257,-361.5567"/>
<polygon fill="#191970" stroke="#191970" points="840.4811,-364.2662 846.4812,-355.534 836.3453,-358.6186 840.4811,-364.2662"/>
</g>
<!-- Node8 -->
<g id="node9" class="node">
<title>Node8</title>
<g id="a_node9"><a xlink:href="../../da/d4b/GPUTPCSliceOutput_8h.html" target="_top" xlink:title="GPUTPCSliceOutput.h">
<polygon fill="none" stroke="#000000" points="415.5,-336.5 415.5,-355.5 537.5,-355.5 537.5,-336.5 415.5,-336.5"/>
<text text-anchor="middle" x="476.5" y="-343.5" font-family="Helvetica,sans-Serif" font-size="10.00" fill="#000000">GPUTPCSliceOutput.h</text>
</a>
</g>
</g>
<!-- Node0&#45;&gt;Node8 -->
<g id="edge8" class="edge">
<title>Node0&#45;&gt;Node8</title>
<path fill="none" stroke="#191970" d="M676.8267,-397.1397C626.9452,-384.4059 565.4416,-368.7052 523.8414,-358.0854"/>
<polygon fill="#191970" stroke="#191970" points="524.53,-354.649 513.9749,-355.5667 522.7985,-361.4315 524.53,-354.649"/>
</g>
<!-- Node20 -->
<g id="node21" class="node">
<title>Node20</title>
<g id="a_node21"><a xlink:href="../../d6/da2/GPUCommonMath_8h.html" target="_top" xlink:title="GPUCommonMath.h">
<polygon fill="none" stroke="#000000" points="637,-336.5 637,-355.5 752,-355.5 752,-336.5 637,-336.5"/>
<text text-anchor="middle" x="694.5" y="-343.5" font-family="Helvetica,sans-Serif" font-size="10.00" fill="#000000">GPUCommonMath.h</text>
</a>
</g>
</g>
<!-- Node0&#45;&gt;Node20 -->
<g id="edge24" class="edge">
<title>Node0&#45;&gt;Node20</title>
<path fill="none" stroke="#191970" d="M736.6725,-392.3258C727.8304,-382.613 718.034,-371.8518 710.1102,-363.1476"/>
<polygon fill="#191970" stroke="#191970" points="712.4992,-360.5727 703.1792,-355.534 707.3229,-365.285 712.4992,-360.5727"/>
</g>
<!-- Node23 -->
<g id="node24" class="node">
<title>Node23</title>
<polygon fill="none" stroke="#bfbfbf" points="935.5,-336.5 935.5,-355.5 985.5,-355.5 985.5,-336.5 935.5,-336.5"/>
<text text-anchor="middle" x="960.5" y="-343.5" font-family="Helvetica,sans-Serif" font-size="10.00" fill="#000000">atomic</text>
</g>
<!-- Node0&#45;&gt;Node23 -->
<g id="edge28" class="edge">
<title>Node0&#45;&gt;Node23</title>
<path fill="none" stroke="#191970" d="M832.422,-392.4283C864.0587,-380.96 899.7755,-368.0126 925.4385,-358.7098"/>
<polygon fill="#191970" stroke="#191970" points="926.8852,-361.9083 935.0938,-355.2098 924.4996,-355.3273 926.8852,-361.9083"/>
</g>
<!-- Node2 -->
<g id="node3" class="node">
<title>Node2</title>
<g id="a_node3"><a xlink:href="../../df/d21/GPUCommonDef_8h.html" target="_top" xlink:title="GPUCommonDef.h">
<polygon fill="none" stroke="#000000" points="673,-56.5 673,-75.5 780,-75.5 780,-56.5 673,-56.5"/>
<text text-anchor="middle" x="726.5" y="-63.5" font-family="Helvetica,sans-Serif" font-size="10.00" fill="#000000">GPUCommonDef.h</text>
</a>
</g>
</g>
<!-- Node1&#45;&gt;Node2 -->
<g id="edge2" class="edge">
<title>Node1&#45;&gt;Node2</title>
<path fill="none" stroke="#191970" d="M908.3262,-336.4285C930.691,-329.7174 955.8613,-318.5085 972.5,-300 992.9071,-277.2997 991.5,-264.5246 991.5,-234 991.5,-234 991.5,-234 991.5,-178 991.5,-133.0073 860.2534,-95.8719 782.4909,-77.8182"/>
<polygon fill="#191970" stroke="#191970" points="782.8853,-74.3182 772.3569,-75.5029 781.3262,-81.1424 782.8853,-74.3182"/>
</g>
<!-- Node5 -->
<g id="node6" class="node">
<title>Node5</title>
<polygon fill="none" stroke="#bfbfbf" points="772,-280.5 772,-299.5 825,-299.5 825,-280.5 772,-280.5"/>
<text text-anchor="middle" x="798.5" y="-287.5" font-family="Helvetica,sans-Serif" font-size="10.00" fill="#000000">cstddef</text>
</g>
<!-- Node1&#45;&gt;Node5 -->
<g id="edge5" class="edge">
<title>Node1&#45;&gt;Node5</title>
<path fill="none" stroke="#191970" d="M848.8746,-336.2455C839.9527,-328.0549 827.012,-316.1749 816.4808,-306.5069"/>
<polygon fill="#191970" stroke="#191970" points="818.7371,-303.8271 809.0036,-299.6427 814.0032,-308.9837 818.7371,-303.8271"/>
</g>
<!-- Node6 -->
<g id="node7" class="node">
<title>Node6</title>
<polygon fill="none" stroke="#bfbfbf" points="843,-280.5 843,-299.5 908,-299.5 908,-280.5 843,-280.5"/>
<text text-anchor="middle" x="875.5" y="-287.5" font-family="Helvetica,sans-Serif" font-size="10.00" fill="#000000">functional</text>
</g>
<!-- Node1&#45;&gt;Node6 -->
<g id="edge6" class="edge">
<title>Node1&#45;&gt;Node6</title>
<path fill="none" stroke="#191970" d="M862.287,-336.2455C864.3977,-328.8579 867.366,-318.4689 869.9547,-309.4087"/>
<polygon fill="#191970" stroke="#191970" points="873.363,-310.2195 872.745,-299.6427 866.6323,-308.2964 873.363,-310.2195"/>
</g>
<!-- Node7 -->
<g id="node8" class="node">
<title>Node7</title>
<polygon fill="none" stroke="#bfbfbf" points="926,-280.5 926,-299.5 963,-299.5 963,-280.5 926,-280.5"/>
<text text-anchor="middle" x="944.5" y="-287.5" font-family="Helvetica,sans-Serif" font-size="10.00" fill="#000000">new</text>
</g>
<!-- Node1&#45;&gt;Node7 -->
<g id="edge7" class="edge">
<title>Node1&#45;&gt;Node7</title>
<path fill="none" stroke="#191970" d="M874.3059,-336.2455C887.2256,-327.7337 906.1931,-315.2375 921.1552,-305.3801"/>
<polygon fill="#191970" stroke="#191970" points="923.4387,-308.067 929.8638,-299.6427 919.5876,-302.2216 923.4387,-308.067"/>
</g>
<!-- Node3 -->
<g id="node4" class="node">
<title>Node3</title>
<g id="a_node4"><a xlink:href="../../d5/d93/GPUCommonDefSettings_8h.html" target="_top" xlink:title="GPUCommonDefSettings.h">
<polygon fill="none" stroke="#000000" points="646.5,-.5 646.5,-19.5 794.5,-19.5 794.5,-.5 646.5,-.5"/>
<text text-anchor="middle" x="720.5" y="-7.5" font-family="Helvetica,sans-Serif" font-size="10.00" fill="#000000">GPUCommonDefSettings.h</text>
</a>
</g>
</g>
<!-- Node2&#45;&gt;Node3 -->
<g id="edge3" class="edge">
<title>Node2&#45;&gt;Node3</title>
<path fill="none" stroke="#191970" d="M725.4549,-56.2455C724.672,-48.9382 723.5744,-38.6944 722.6112,-29.7046"/>
<polygon fill="#191970" stroke="#191970" points="726.0786,-29.2129 721.5331,-19.6427 719.1185,-29.9587 726.0786,-29.2129"/>
</g>
<!-- Node4 -->
<g id="node5" class="node">
<title>Node4</title>
<g id="a_node5"><a xlink:href="../../da/d5a/GPUCommonDefAPI_8h.html" target="_top" xlink:title="GPUCommonDefAPI.h">
<polygon fill="none" stroke="#000000" points="812.5,-.5 812.5,-19.5 936.5,-19.5 936.5,-.5 812.5,-.5"/>
<text text-anchor="middle" x="874.5" y="-7.5" font-family="Helvetica,sans-Serif" font-size="10.00" fill="#000000">GPUCommonDefAPI.h</text>
</a>
</g>
</g>
<!-- Node2&#45;&gt;Node4 -->
<g id="edge4" class="edge">
<title>Node2&#45;&gt;Node4</title>
<path fill="none" stroke="#191970" d="M751.9421,-56.3733C776.2326,-47.1822 813.0208,-33.2624 839.9543,-23.0713"/>
<polygon fill="#191970" stroke="#191970" points="841.2757,-26.3136 849.3899,-19.5011 838.7984,-19.7666 841.2757,-26.3136"/>
</g>
<!-- Node9 -->
<g id="node10" class="node">
<title>Node9</title>
<g id="a_node10"><a xlink:href="../../da/dab/GPUTPCDef_8h.html" target="_top" xlink:title="GPUTPCDef.h">
<polygon fill="none" stroke="#000000" points="388.5,-168.5 388.5,-187.5 470.5,-187.5 470.5,-168.5 388.5,-168.5"/>
<text text-anchor="middle" x="429.5" y="-175.5" font-family="Helvetica,sans-Serif" font-size="10.00" fill="#000000">GPUTPCDef.h</text>
</a>
</g>
</g>
<!-- Node8&#45;&gt;Node9 -->
<g id="edge9" class="edge">
<title>Node8&#45;&gt;Node9</title>
<path fill="none" stroke="#191970" d="M438.7023,-336.4159C396.2238,-323.3951 329.3127,-295.5888 299.5,-244 279.4251,-209.2617 334.0513,-192.2385 378.5674,-184.3109"/>
<polygon fill="#191970" stroke="#191970" points="379.168,-187.7592 388.4575,-182.6645 378.0185,-180.8542 379.168,-187.7592"/>
</g>
<!-- Node17 -->
<g id="node18" class="node">
<title>Node17</title>
<g id="a_node18"><a xlink:href="../../d0/d88/GPUTPCTrack_8h.html" target="_top" xlink:title="GPUTPCTrack.h">
<polygon fill="none" stroke="#000000" points="431,-280.5 431,-299.5 522,-299.5 522,-280.5 431,-280.5"/>
<text text-anchor="middle" x="476.5" y="-287.5" font-family="Helvetica,sans-Serif" font-size="10.00" fill="#000000">GPUTPCTrack.h</text>
</a>
</g>
</g>
<!-- Node8&#45;&gt;Node17 -->
<g id="edge18" class="edge">
<title>Node8&#45;&gt;Node17</title>
<path fill="none" stroke="#191970" d="M476.5,-336.2455C476.5,-328.9382 476.5,-318.6944 476.5,-309.7046"/>
<polygon fill="#191970" stroke="#191970" points="480.0001,-309.6426 476.5,-299.6427 473.0001,-309.6427 480.0001,-309.6426"/>
</g>
<!-- Node10 -->
<g id="node11" class="node">
<title>Node10</title>
<g id="a_node11"><a xlink:href="../../d2/d6d/GPUDef_8h.html" target="_top" xlink:title="GPUDef.h">
<polygon fill="none" stroke="#000000" points="398,-112.5 398,-131.5 461,-131.5 461,-112.5 398,-112.5"/>
<text text-anchor="middle" x="429.5" y="-119.5" font-family="Helvetica,sans-Serif" font-size="10.00" fill="#000000">GPUDef.h</text>
</a>
</g>
</g>
<!-- Node9&#45;&gt;Node10 -->
<g id="edge10" class="edge">
<title>Node9&#45;&gt;Node10</title>
<path fill="none" stroke="#191970" d="M429.5,-168.2455C429.5,-160.9382 429.5,-150.6944 429.5,-141.7046"/>
<polygon fill="#191970" stroke="#191970" points="433.0001,-141.6426 429.5,-131.6427 426.0001,-141.6427 433.0001,-141.6426"/>
</g>
<!-- Node10&#45;&gt;Node2 -->
<g id="edge11" class="edge">
<title>Node10&#45;&gt;Node2</title>
<path fill="none" stroke="#191970" d="M461.003,-116.06C509.6506,-106.8874 603.9178,-89.1132 666.0306,-77.4016"/>
<polygon fill="#191970" stroke="#191970" points="666.9134,-80.7969 676.0917,-75.5046 665.6163,-73.9181 666.9134,-80.7969"/>
</g>
<!-- Node11 -->
<g id="node12" class="node">
<title>Node11</title>
<g id="a_node12"><a xlink:href="../../d2/d37/GPUDefConstantsAndSettings_8h.html" target="_top" xlink:title="GPUDefConstantsAndSettings.h">
<polygon fill="none" stroke="#000000" points="0,-56.5 0,-75.5 171,-75.5 171,-56.5 0,-56.5"/>
<text text-anchor="middle" x="85.5" y="-63.5" font-family="Helvetica,sans-Serif" font-size="10.00" fill="#000000">GPUDefConstantsAndSettings.h</text>
</a>
</g>
</g>
<!-- Node10&#45;&gt;Node11 -->
<g id="edge12" class="edge">
<title>Node10&#45;&gt;Node11</title>
<path fill="none" stroke="#191970" d="M397.7539,-116.832C342.6307,-107.8585 228.0396,-89.2041 154.0622,-77.1613"/>
<polygon fill="#191970" stroke="#191970" points="154.3361,-73.6599 143.9036,-75.5076 153.2113,-80.5689 154.3361,-73.6599"/>
</g>
<!-- Node12 -->
<g id="node13" class="node">
<title>Node12</title>
<g id="a_node13"><a xlink:href="../../dc/de9/GPUDefGPUParameters_8h.html" target="_top" xlink:title="GPUDefGPUParameters.h">
<polygon fill="none" stroke="#000000" points="189.5,-56.5 189.5,-75.5 329.5,-75.5 329.5,-56.5 189.5,-56.5"/>
<text text-anchor="middle" x="259.5" y="-63.5" font-family="Helvetica,sans-Serif" font-size="10.00" fill="#000000">GPUDefGPUParameters.h</text>
</a>
</g>
</g>
<!-- Node10&#45;&gt;Node12 -->
<g id="edge13" class="edge">
<title>Node10&#45;&gt;Node12</title>
<path fill="none" stroke="#191970" d="M400.276,-112.3733C372.0075,-103.0613 329.0035,-88.8953 297.9656,-78.671"/>
<polygon fill="#191970" stroke="#191970" points="298.9357,-75.3056 288.3427,-75.5011 296.7456,-81.9542 298.9357,-75.3056"/>
</g>
<!-- Node14 -->
<g id="node15" class="node">
<title>Node14</title>
<g id="a_node15"><a xlink:href="../../d3/d4c/GPUDefOpenCL12Templates_8h.html" target="_top" xlink:title="GPUDefOpenCL12Templates.h">
<polygon fill="none" stroke="#000000" points="347.5,-56.5 347.5,-75.5 511.5,-75.5 511.5,-56.5 347.5,-56.5"/>
<text text-anchor="middle" x="429.5" y="-63.5" font-family="Helvetica,sans-Serif" font-size="10.00" fill="#000000">GPUDefOpenCL12Templates.h</text>
</a>
</g>
</g>
<!-- Node10&#45;&gt;Node14 -->
<g id="edge15" class="edge">
<title>Node10&#45;&gt;Node14</title>
<path fill="none" stroke="#191970" d="M429.5,-112.2455C429.5,-104.9382 429.5,-94.6944 429.5,-85.7046"/>
<polygon fill="#191970" stroke="#191970" points="433.0001,-85.6426 429.5,-75.6427 426.0001,-85.6427 433.0001,-85.6426"/>
</g>
<!-- Node15 -->
<g id="node16" class="node">
<title>Node15</title>
<g id="a_node16"><a xlink:href="../../d2/d45/GPUCommonRtypes_8h.html" target="_top" xlink:title="GPUCommonRtypes.h">
<polygon fill="none" stroke="#000000" points="530,-56.5 530,-75.5 655,-75.5 655,-56.5 530,-56.5"/>
<text text-anchor="middle" x="592.5" y="-63.5" font-family="Helvetica,sans-Serif" font-size="10.00" fill="#000000">GPUCommonRtypes.h</text>
</a>
</g>
</g>
<!-- Node10&#45;&gt;Node15 -->
<g id="edge16" class="edge">
<title>Node10&#45;&gt;Node15</title>
<path fill="none" stroke="#191970" d="M457.5207,-112.3733C484.5078,-103.1016 525.5017,-89.0178 555.2311,-78.804"/>
<polygon fill="#191970" stroke="#191970" points="556.5248,-82.0605 564.8449,-75.5011 554.2503,-75.4403 556.5248,-82.0605"/>
</g>
<!-- Node13 -->
<g id="node14" class="node">
<title>Node13</title>
<g id="a_node14"><a xlink:href="../../d6/dff/GPUDefMacros_8h.html" target="_top" xlink:title="GPUDefMacros.h">
<polygon fill="none" stroke="#000000" points="210.5,-.5 210.5,-19.5 308.5,-19.5 308.5,-.5 210.5,-.5"/>
<text text-anchor="middle" x="259.5" y="-7.5" font-family="Helvetica,sans-Serif" font-size="10.00" fill="#000000">GPUDefMacros.h</text>
</a>
</g>
</g>
<!-- Node12&#45;&gt;Node13 -->
<g id="edge14" class="edge">
<title>Node12&#45;&gt;Node13</title>
<path fill="none" stroke="#191970" d="M259.5,-56.2455C259.5,-48.9382 259.5,-38.6944 259.5,-29.7046"/>
<polygon fill="#191970" stroke="#191970" points="263.0001,-29.6426 259.5,-19.6427 256.0001,-29.6427 263.0001,-29.6426"/>
</g>
<!-- Node16 -->
<g id="node17" class="node">
<title>Node16</title>
<polygon fill="none" stroke="#bfbfbf" points="563,-.5 563,-19.5 622,-19.5 622,-.5 563,-.5"/>
<text text-anchor="middle" x="592.5" y="-7.5" font-family="Helvetica,sans-Serif" font-size="10.00" fill="#000000">Rtypes.h</text>
</g>
<!-- Node15&#45;&gt;Node16 -->
<g id="edge17" class="edge">
<title>Node15&#45;&gt;Node16</title>
<path fill="none" stroke="#191970" d="M592.5,-56.2455C592.5,-48.9382 592.5,-38.6944 592.5,-29.7046"/>
<polygon fill="#191970" stroke="#191970" points="596.0001,-29.6426 592.5,-19.6427 589.0001,-29.6427 596.0001,-29.6426"/>
</g>
<!-- Node17&#45;&gt;Node9 -->
<g id="edge21" class="edge">
<title>Node17&#45;&gt;Node9</title>
<path fill="none" stroke="#191970" d="M474.5639,-280.3223C471.7513,-267.2057 465.9333,-243.2166 457.5,-224 453.2962,-214.4209 447.4182,-204.4278 442.1326,-196.2126"/>
<polygon fill="#191970" stroke="#191970" points="444.9931,-194.1934 436.5375,-187.8095 439.1665,-198.073 444.9931,-194.1934"/>
</g>
<!-- Node18 -->
<g id="node19" class="node">
<title>Node18</title>
<g id="a_node19"><a xlink:href="../../df/d00/GPUTPCBaseTrackParam_8h.html" target="_top" xlink:title="GPUTPCBaseTrackParam.h">
<polygon fill="none" stroke="#000000" points="504.5,-224.5 504.5,-243.5 650.5,-243.5 650.5,-224.5 504.5,-224.5"/>
<text text-anchor="middle" x="577.5" y="-231.5" font-family="Helvetica,sans-Serif" font-size="10.00" fill="#000000">GPUTPCBaseTrackParam.h</text>
</a>
</g>
</g>
<!-- Node17&#45;&gt;Node18 -->
<g id="edge19" class="edge">
<title>Node17&#45;&gt;Node18</title>
<path fill="none" stroke="#191970" d="M494.0929,-280.2455C509.879,-271.4928 533.2639,-258.527 551.2587,-248.5496"/>
<polygon fill="#191970" stroke="#191970" points="553.0603,-251.5528 560.1087,-243.6427 549.6659,-245.4308 553.0603,-251.5528"/>
</g>
<!-- Node19 -->
<g id="node20" class="node">
<title>Node19</title>
<g id="a_node20"><a xlink:href="../../d2/dd5/GPUTPCSliceOutCluster_8h.html" target="_top" xlink:title="GPUTPCSliceOutCluster.h">
<polygon fill="none" stroke="#000000" points="308.5,-224.5 308.5,-243.5 448.5,-243.5 448.5,-224.5 308.5,-224.5"/>
<text text-anchor="middle" x="378.5" y="-231.5" font-family="Helvetica,sans-Serif" font-size="10.00" fill="#000000">GPUTPCSliceOutCluster.h</text>
</a>
</g>
</g>
<!-- Node17&#45;&gt;Node19 -->
<g id="edge22" class="edge">
<title>Node17&#45;&gt;Node19</title>
<path fill="none" stroke="#191970" d="M459.4297,-280.2455C444.253,-271.5731 421.8379,-258.7645 404.4437,-248.825"/>
<polygon fill="#191970" stroke="#191970" points="405.7936,-245.5653 395.3747,-243.6427 402.3206,-251.643 405.7936,-245.5653"/>
</g>
<!-- Node18&#45;&gt;Node9 -->
<g id="edge20" class="edge">
<title>Node18&#45;&gt;Node9</title>
<path fill="none" stroke="#191970" d="M552.0579,-224.3733C527.7674,-215.1822 490.9792,-201.2624 464.0457,-191.0713"/>
<polygon fill="#191970" stroke="#191970" points="465.2016,-187.7666 454.6101,-187.5011 462.7243,-194.3136 465.2016,-187.7666"/>
</g>
<!-- Node19&#45;&gt;Node9 -->
<g id="edge23" class="edge">
<title>Node19&#45;&gt;Node9</title>
<path fill="none" stroke="#191970" d="M387.3835,-224.2455C394.6966,-216.2155 405.2391,-204.6394 413.9467,-195.0781"/>
<polygon fill="#191970" stroke="#191970" points="416.5727,-197.3928 420.7183,-187.6427 411.3972,-192.6795 416.5727,-197.3928"/>
</g>
<!-- Node20&#45;&gt;Node2 -->
<g id="edge25" class="edge">
<title>Node20&#45;&gt;Node2</title>
<path fill="none" stroke="#191970" d="M692.2076,-336.4772C687.7834,-317.2372 678.5,-272.3016 678.5,-234 678.5,-234 678.5,-234 678.5,-178 678.5,-142.4341 699.2017,-105.2782 713.4145,-83.9597"/>
<polygon fill="#191970" stroke="#191970" points="716.3933,-85.8059 719.2098,-75.5923 710.6387,-81.8202 716.3933,-85.8059"/>
</g>
<!-- Node21 -->
<g id="node22" class="node">
<title>Node21</title>
<polygon fill="none" stroke="#bfbfbf" points="707,-280.5 707,-299.5 754,-299.5 754,-280.5 707,-280.5"/>
<text text-anchor="middle" x="730.5" y="-287.5" font-family="Helvetica,sans-Serif" font-size="10.00" fill="#000000">cmath</text>
</g>
<!-- Node20&#45;&gt;Node21 -->
<g id="edge26" class="edge">
<title>Node20&#45;&gt;Node21</title>
<path fill="none" stroke="#191970" d="M700.7707,-336.2455C705.7264,-328.5367 712.783,-317.5598 718.7776,-308.2348"/>
<polygon fill="#191970" stroke="#191970" points="721.8376,-309.9471 724.3011,-299.6427 715.9494,-306.1618 721.8376,-309.9471"/>
</g>
<!-- Node22 -->
<g id="node23" class="node">
<title>Node22</title>
<polygon fill="none" stroke="#bfbfbf" points="586.5,-280.5 586.5,-299.5 650.5,-299.5 650.5,-280.5 586.5,-280.5"/>
<text text-anchor="middle" x="618.5" y="-287.5" font-family="Helvetica,sans-Serif" font-size="10.00" fill="#000000">algorithm</text>
</g>
<!-- Node20&#45;&gt;Node22 -->
<g id="edge27" class="edge">
<title>Node20&#45;&gt;Node22</title>
<path fill="none" stroke="#191970" d="M681.2618,-336.2455C669.819,-327.814 653.0704,-315.4729 639.7525,-305.6598"/>
<polygon fill="#191970" stroke="#191970" points="641.7133,-302.757 631.5865,-299.6427 637.5609,-308.3924 641.7133,-302.757"/>
</g>
</g>
</svg>
