<?xml version="1.0" encoding="UTF-8" standalone="no"?>
<!DOCTYPE svg PUBLIC "-//W3C//DTD SVG 1.1//EN"
 "http://www.w3.org/Graphics/SVG/1.1/DTD/svg11.dtd">
<!-- Generated by graphviz version 2.40.1 (20161225.0304)
 -->
<!-- Title: /home/travis/build/AliceO2Group/AliceO2/GPU/GPUTracking/DataCompression/GPUTPCCompressionTrackModel.h Pages: 1 -->
<!--zoomable 464 -->
<svg id="main" version="1.1" xmlns="http://www.w3.org/2000/svg" xmlns:xlink="http://www.w3.org/1999/xlink" xml:space="preserve" onload="init(evt)">
<style type="text/css"><![CDATA[
.edge:hover path { stroke: red; }
.edge:hover polygon { stroke: red; fill: red; }
]]></style>
<script type="text/javascript"><![CDATA[
var edges = document.getElementsByTagName('g');
if (edges && edges.length) {
  for (var i=0;i<edges.length;i++) {
    if (edges[i].id.substr(0,4)=='edge') {
      edges[i].setAttribute('class','edge');
    }
  }
}
]]></script>
        <defs>
                <circle id="rim" cx="0" cy="0" r="7"/>
                <circle id="rim2" cx="0" cy="0" r="3.5"/>
                <g id="zoomPlus">
                        <use xlink:href="#rim" fill="#404040">
                                <set attributeName="fill" to="#808080" begin="zoomplus.mouseover" end="zoomplus.mouseout"/>
                        </use>
                        <path d="M-4,0h8M0,-4v8" fill="none" stroke="white" stroke-width="1.5" pointer-events="none"/>
                </g>
                <g id="zoomMin">
                        <use xlink:href="#rim" fill="#404040">
                                <set attributeName="fill" to="#808080" begin="zoomminus.mouseover" end="zoomminus.mouseout"/>
                        </use>
                        <path d="M-4,0h8" fill="none" stroke="white" stroke-width="1.5" pointer-events="none"/>
                </g>
                <g id="dirArrow">
                        <path fill="none" stroke="white" stroke-width="1.5" d="M0,-3.0v7 M-2.5,-0.5L0,-3.0L2.5,-0.5"/>
                </g>
               <g id="resetDef">
                       <use xlink:href="#rim2" fill="#404040">
                               <set attributeName="fill" to="#808080" begin="reset.mouseover" end="reset.mouseout"/>
                       </use>
               </g>
        </defs>

<script type="text/javascript">
var viewWidth = 1004;
var viewHeight = 464;
var sectionId = 'dynsection-0';
</script>
<script xlink:href="../../svgpan.js"/>
<svg id="graph" class="graph">
<g id="viewport">
<title>/home/travis/build/AliceO2Group/AliceO2/GPU/GPUTracking/DataCompression/GPUTPCCompressionTrackModel.h</title>
<!-- Node0 -->
<g id="node1" class="node">
<title>Node0</title>
<polygon fill="#bfbfbf" stroke="#000000" points="360.5,-403.5 360.5,-455.5 555.5,-455.5 555.5,-403.5 360.5,-403.5"/>
<text text-anchor="start" x="368.5" y="-443.5" font-family="Helvetica,sans-Serif" font-size="10.00" fill="#000000">/home/travis/build</text>
<text text-anchor="start" x="368.5" y="-432.5" font-family="Helvetica,sans-Serif" font-size="10.00" fill="#000000">/AliceO2Group/AliceO2</text>
<text text-anchor="start" x="368.5" y="-421.5" font-family="Helvetica,sans-Serif" font-size="10.00" fill="#000000">/GPU/GPUTracking/DataCompression</text>
<text text-anchor="middle" x="458" y="-410.5" font-family="Helvetica,sans-Serif" font-size="10.00" fill="#000000">/GPUTPCCompressionTrackModel.h</text>
</g>
<!-- Node1 -->
<g id="node2" class="node">
<title>Node1</title>
<g id="a_node2"><a xlink:href="../../d2/d6d/GPUDef_8h.html" target="_top" xlink:title="GPUDef.h">
<polygon fill="none" stroke="#000000" points="362.5,-112.5 362.5,-131.5 425.5,-131.5 425.5,-112.5 362.5,-112.5"/>
<text text-anchor="middle" x="394" y="-119.5" font-family="Helvetica,sans-Serif" font-size="10.00" fill="#000000">GPUDef.h</text>
</a>
</g>
</g>
<!-- Node0&#45;&gt;Node1 -->
<g id="edge1" class="edge">
<title>Node0&#45;&gt;Node1</title>
<path fill="none" stroke="#191970" d="M405.8166,-403.2805C368.5559,-380.4623 325,-343.5191 325,-295.5 325,-295.5 325,-295.5 325,-234 325,-203.4754 327.9498,-193.9643 344,-168 351.0995,-156.5152 361.8469,-146.104 371.5604,-138.1025"/>
<polygon fill="#191970" stroke="#191970" points="373.9932,-140.6432 379.7128,-131.7248 369.68,-135.1298 373.9932,-140.6432"/>
</g>
<!-- Node11 -->
<g id="node12" class="node">
<title>Node11</title>
<g id="a_node12"><a xlink:href="../../d0/dd8/GPUTPCGMPropagator_8h.html" target="_top" xlink:title="GPUTPCGMPropagator.h">
<polygon fill="none" stroke="#000000" points="603,-347.5 603,-366.5 737,-366.5 737,-347.5 603,-347.5"/>
<text text-anchor="middle" x="670" y="-354.5" font-family="Helvetica,sans-Serif" font-size="10.00" fill="#000000">GPUTPCGMPropagator.h</text>
</a>
</g>
</g>
<!-- Node0&#45;&gt;Node11 -->
<g id="edge11" class="edge">
<title>Node0&#45;&gt;Node11</title>
<path fill="none" stroke="#191970" d="M534.2374,-403.4283C567.6461,-392.0031 605.3473,-379.11 632.5274,-369.8149"/>
<polygon fill="#191970" stroke="#191970" points="633.7083,-373.1102 642.0377,-366.5626 631.4431,-366.4868 633.7083,-373.1102"/>
</g>
<!-- Node14 -->
<g id="node15" class="node">
<title>Node14</title>
<g id="a_node15"><a xlink:href="../../d8/d33/GPUTPCGMTrackParam_8h.html" target="_top" xlink:title="GPUTPCGMTrackParam.h">
<polygon fill="none" stroke="#000000" points="529.5,-224.5 529.5,-243.5 666.5,-243.5 666.5,-224.5 529.5,-224.5"/>
<text text-anchor="middle" x="598" y="-231.5" font-family="Helvetica,sans-Serif" font-size="10.00" fill="#000000">GPUTPCGMTrackParam.h</text>
</a>
</g>
</g>
<!-- Node0&#45;&gt;Node14 -->
<g id="edge29" class="edge">
<title>Node0&#45;&gt;Node14</title>
<path fill="none" stroke="#191970" d="M462.272,-403.4325C468.7253,-371.1722 483.6949,-316.0921 515,-280 527.3626,-265.747 545.2748,-255.0404 561.2973,-247.5597"/>
<polygon fill="#191970" stroke="#191970" points="562.7157,-250.7595 570.4565,-243.5255 559.894,-244.3534 562.7157,-250.7595"/>
</g>
<!-- Node2 -->
<g id="node3" class="node">
<title>Node2</title>
<g id="a_node3"><a xlink:href="../../df/d21/GPUCommonDef_8h.html" target="_top" xlink:title="GPUCommonDef.h">
<polygon fill="none" stroke="#000000" points="714.5,-56.5 714.5,-75.5 821.5,-75.5 821.5,-56.5 714.5,-56.5"/>
<text text-anchor="middle" x="768" y="-63.5" font-family="Helvetica,sans-Serif" font-size="10.00" fill="#000000">GPUCommonDef.h</text>
</a>
</g>
</g>
<!-- Node1&#45;&gt;Node2 -->
<g id="edge2" class="edge">
<title>Node1&#45;&gt;Node2</title>
<path fill="none" stroke="#191970" d="M425.7143,-113.9264C428.8426,-113.232 431.9771,-112.5759 435,-112 528.1118,-94.2616 637.1094,-80.5158 704.3591,-72.8362"/>
<polygon fill="#191970" stroke="#191970" points="704.8353,-76.3048 714.378,-71.7018 704.0477,-69.3492 704.8353,-76.3048"/>
</g>
<!-- Node5 -->
<g id="node6" class="node">
<title>Node5</title>
<g id="a_node6"><a xlink:href="../../d2/d37/GPUDefConstantsAndSettings_8h.html" target="_top" xlink:title="GPUDefConstantsAndSettings.h">
<polygon fill="none" stroke="#000000" points="325.5,-56.5 325.5,-75.5 496.5,-75.5 496.5,-56.5 325.5,-56.5"/>
<text text-anchor="middle" x="411" y="-63.5" font-family="Helvetica,sans-Serif" font-size="10.00" fill="#000000">GPUDefConstantsAndSettings.h</text>
</a>
</g>
</g>
<!-- Node1&#45;&gt;Node5 -->
<g id="edge5" class="edge">
<title>Node1&#45;&gt;Node5</title>
<path fill="none" stroke="#191970" d="M396.9612,-112.2455C399.2038,-104.8579 402.3577,-94.4689 405.1081,-85.4087"/>
<polygon fill="#191970" stroke="#191970" points="408.517,-86.2282 408.0728,-75.6427 401.8188,-84.1948 408.517,-86.2282"/>
</g>
<!-- Node6 -->
<g id="node7" class="node">
<title>Node6</title>
<g id="a_node7"><a xlink:href="../../dc/de9/GPUDefGPUParameters_8h.html" target="_top" xlink:title="GPUDefGPUParameters.h">
<polygon fill="none" stroke="#000000" points="515,-56.5 515,-75.5 655,-75.5 655,-56.5 515,-56.5"/>
<text text-anchor="middle" x="585" y="-63.5" font-family="Helvetica,sans-Serif" font-size="10.00" fill="#000000">GPUDefGPUParameters.h</text>
</a>
</g>
</g>
<!-- Node1&#45;&gt;Node6 -->
<g id="edge6" class="edge">
<title>Node1&#45;&gt;Node6</title>
<path fill="none" stroke="#191970" d="M425.5398,-112.7527C457.4602,-103.3939 507.0243,-88.862 542.4176,-78.4849"/>
<polygon fill="#191970" stroke="#191970" points="543.8427,-81.7145 552.454,-75.5423 541.8732,-74.9972 543.8427,-81.7145"/>
</g>
<!-- Node8 -->
<g id="node9" class="node">
<title>Node8</title>
<g id="a_node9"><a xlink:href="../../d3/d4c/GPUDefOpenCL12Templates_8h.html" target="_top" xlink:title="GPUDefOpenCL12Templates.h">
<polygon fill="none" stroke="#000000" points="0,-56.5 0,-75.5 164,-75.5 164,-56.5 0,-56.5"/>
<text text-anchor="middle" x="82" y="-63.5" font-family="Helvetica,sans-Serif" font-size="10.00" fill="#000000">GPUDefOpenCL12Templates.h</text>
</a>
</g>
</g>
<!-- Node1&#45;&gt;Node8 -->
<g id="edge8" class="edge">
<title>Node1&#45;&gt;Node8</title>
<path fill="none" stroke="#191970" d="M362.3668,-116.3222C311.5289,-107.1975 210.6867,-89.0976 144.822,-77.2757"/>
<polygon fill="#191970" stroke="#191970" points="145.4276,-73.8286 134.9666,-75.5068 144.1909,-80.7185 145.4276,-73.8286"/>
</g>
<!-- Node9 -->
<g id="node10" class="node">
<title>Node9</title>
<g id="a_node10"><a xlink:href="../../d2/d45/GPUCommonRtypes_8h.html" target="_top" xlink:title="GPUCommonRtypes.h">
<polygon fill="none" stroke="#000000" points="182.5,-56.5 182.5,-75.5 307.5,-75.5 307.5,-56.5 182.5,-56.5"/>
<text text-anchor="middle" x="245" y="-63.5" font-family="Helvetica,sans-Serif" font-size="10.00" fill="#000000">GPUCommonRtypes.h</text>
</a>
</g>
</g>
<!-- Node1&#45;&gt;Node9 -->
<g id="edge9" class="edge">
<title>Node1&#45;&gt;Node9</title>
<path fill="none" stroke="#191970" d="M368.386,-112.3733C343.9313,-103.1822 306.8946,-89.2624 279.7791,-79.0713"/>
<polygon fill="#191970" stroke="#191970" points="280.8719,-75.7431 270.2798,-75.5011 278.4091,-82.2956 280.8719,-75.7431"/>
</g>
<!-- Node3 -->
<g id="node4" class="node">
<title>Node3</title>
<g id="a_node4"><a xlink:href="../../d5/d93/GPUCommonDefSettings_8h.html" target="_top" xlink:title="GPUCommonDefSettings.h">
<polygon fill="none" stroke="#000000" points="685,-.5 685,-19.5 833,-19.5 833,-.5 685,-.5"/>
<text text-anchor="middle" x="759" y="-7.5" font-family="Helvetica,sans-Serif" font-size="10.00" fill="#000000">GPUCommonDefSettings.h</text>
</a>
</g>
</g>
<!-- Node2&#45;&gt;Node3 -->
<g id="edge3" class="edge">
<title>Node2&#45;&gt;Node3</title>
<path fill="none" stroke="#191970" d="M766.4323,-56.2455C765.2579,-48.9382 763.6116,-38.6944 762.1668,-29.7046"/>
<polygon fill="#191970" stroke="#191970" points="765.5922,-28.9606 760.5497,-19.6427 758.6809,-30.0714 765.5922,-28.9606"/>
</g>
<!-- Node4 -->
<g id="node5" class="node">
<title>Node4</title>
<g id="a_node5"><a xlink:href="../../da/d5a/GPUCommonDefAPI_8h.html" target="_top" xlink:title="GPUCommonDefAPI.h">
<polygon fill="none" stroke="#000000" points="851,-.5 851,-19.5 975,-19.5 975,-.5 851,-.5"/>
<text text-anchor="middle" x="913" y="-7.5" font-family="Helvetica,sans-Serif" font-size="10.00" fill="#000000">GPUCommonDefAPI.h</text>
</a>
</g>
</g>
<!-- Node2&#45;&gt;Node4 -->
<g id="edge4" class="edge">
<title>Node2&#45;&gt;Node4</title>
<path fill="none" stroke="#191970" d="M792.9264,-56.3733C816.6202,-47.2226 852.4511,-33.3844 878.8068,-23.2057"/>
<polygon fill="#191970" stroke="#191970" points="880.3314,-26.3689 888.3989,-19.5011 877.8094,-19.8389 880.3314,-26.3689"/>
</g>
<!-- Node7 -->
<g id="node8" class="node">
<title>Node7</title>
<g id="a_node8"><a xlink:href="../../d6/dff/GPUDefMacros_8h.html" target="_top" xlink:title="GPUDefMacros.h">
<polygon fill="none" stroke="#000000" points="536,-.5 536,-19.5 634,-19.5 634,-.5 536,-.5"/>
<text text-anchor="middle" x="585" y="-7.5" font-family="Helvetica,sans-Serif" font-size="10.00" fill="#000000">GPUDefMacros.h</text>
</a>
</g>
</g>
<!-- Node6&#45;&gt;Node7 -->
<g id="edge7" class="edge">
<title>Node6&#45;&gt;Node7</title>
<path fill="none" stroke="#191970" d="M585,-56.2455C585,-48.9382 585,-38.6944 585,-29.7046"/>
<polygon fill="#191970" stroke="#191970" points="588.5001,-29.6426 585,-19.6427 581.5001,-29.6427 588.5001,-29.6426"/>
</g>
<!-- Node10 -->
<g id="node11" class="node">
<title>Node10</title>
<polygon fill="none" stroke="#bfbfbf" points="215.5,-.5 215.5,-19.5 274.5,-19.5 274.5,-.5 215.5,-.5"/>
<text text-anchor="middle" x="245" y="-7.5" font-family="Helvetica,sans-Serif" font-size="10.00" fill="#000000">Rtypes.h</text>
</g>
<!-- Node9&#45;&gt;Node10 -->
<g id="edge10" class="edge">
<title>Node9&#45;&gt;Node10</title>
<path fill="none" stroke="#191970" d="M245,-56.2455C245,-48.9382 245,-38.6944 245,-29.7046"/>
<polygon fill="#191970" stroke="#191970" points="248.5001,-29.6426 245,-19.6427 241.5001,-29.6427 248.5001,-29.6426"/>
</g>
<!-- Node11&#45;&gt;Node2 -->
<g id="edge12" class="edge">
<title>Node11&#45;&gt;Node2</title>
<path fill="none" stroke="#191970" d="M698.4498,-347.3766C740.4158,-331.1676 814,-294.1678 814,-234 814,-234 814,-234 814,-178 814,-142.66 794.1609,-105.4332 780.5403,-84.0395"/>
<polygon fill="#191970" stroke="#191970" points="783.4212,-82.0507 774.9864,-75.6394 777.5821,-85.9114 783.4212,-82.0507"/>
</g>
<!-- Node12 -->
<g id="node13" class="node">
<title>Node12</title>
<g id="a_node13"><a xlink:href="../../d0/d79/GPUTPCGMOfflineStatisticalErrors_8h.html" target="_top" xlink:title="GPUTPCGMOfflineStatistical\lErrors.h">
<polygon fill="none" stroke="#000000" points="842.5,-280.5 842.5,-310.5 995.5,-310.5 995.5,-280.5 842.5,-280.5"/>
<text text-anchor="start" x="850.5" y="-298.5" font-family="Helvetica,sans-Serif" font-size="10.00" fill="#000000">GPUTPCGMOfflineStatistical</text>
<text text-anchor="middle" x="919" y="-287.5" font-family="Helvetica,sans-Serif" font-size="10.00" fill="#000000">Errors.h</text>
</a>
</g>
</g>
<!-- Node11&#45;&gt;Node12 -->
<g id="edge13" class="edge">
<title>Node11&#45;&gt;Node12</title>
<path fill="none" stroke="#191970" d="M708.633,-347.4581C745.7937,-338.2799 802.8537,-324.1867 848.1762,-312.9926"/>
<polygon fill="#191970" stroke="#191970" points="849.0818,-316.3742 857.9508,-310.5784 847.4032,-309.5784 849.0818,-316.3742"/>
</g>
<!-- Node13 -->
<g id="node14" class="node">
<title>Node13</title>
<g id="a_node14"><a xlink:href="../../d6/d37/GPUTPCGMPhysicalTrackModel_8h.html" target="_top" xlink:title="GPUTPCGMPhysicalTrackModel.h">
<polygon fill="none" stroke="#000000" points="524,-286 524,-305 700,-305 700,-286 524,-286"/>
<text text-anchor="middle" x="612" y="-293" font-family="Helvetica,sans-Serif" font-size="10.00" fill="#000000">GPUTPCGMPhysicalTrackModel.h</text>
</a>
</g>
</g>
<!-- Node11&#45;&gt;Node13 -->
<g id="edge14" class="edge">
<title>Node11&#45;&gt;Node13</title>
<path fill="none" stroke="#191970" d="M660.9375,-347.3906C652.2207,-338.1478 638.846,-323.966 628.2804,-312.7628"/>
<polygon fill="#191970" stroke="#191970" points="630.5976,-310.1186 621.1903,-305.2449 625.505,-314.9213 630.5976,-310.1186"/>
</g>
<!-- Node17 -->
<g id="node18" class="node">
<title>Node17</title>
<g id="a_node18"><a xlink:href="../../d6/da2/GPUCommonMath_8h.html" target="_top" xlink:title="GPUCommonMath.h">
<polygon fill="none" stroke="#000000" points="670.5,-168.5 670.5,-187.5 785.5,-187.5 785.5,-168.5 670.5,-168.5"/>
<text text-anchor="middle" x="728" y="-175.5" font-family="Helvetica,sans-Serif" font-size="10.00" fill="#000000">GPUCommonMath.h</text>
</a>
</g>
</g>
<!-- Node11&#45;&gt;Node17 -->
<g id="edge28" class="edge">
<title>Node11&#45;&gt;Node17</title>
<path fill="none" stroke="#191970" d="M681.2095,-347.2386C690.2767,-338.6546 702.5593,-325.3237 709,-311 725.907,-273.3998 728.525,-224.32 728.5256,-197.5361"/>
<polygon fill="#191970" stroke="#191970" points="732.0252,-197.4759 728.3997,-187.5208 725.0258,-197.564 732.0252,-197.4759"/>
</g>
<!-- Node22 -->
<g id="node23" class="node">
<title>Node22</title>
<g id="a_node23"><a xlink:href="../../d9/d9c/GPUTPCGMPolynomialField_8h.html" target="_top" xlink:title="GPUTPCGMPolynomialField.h">
<polygon fill="none" stroke="#000000" points="353,-224.5 353,-243.5 511,-243.5 511,-224.5 353,-224.5"/>
<text text-anchor="middle" x="432" y="-231.5" font-family="Helvetica,sans-Serif" font-size="10.00" fill="#000000">GPUTPCGMPolynomialField.h</text>
</a>
</g>
</g>
<!-- Node11&#45;&gt;Node22 -->
<g id="edge26" class="edge">
<title>Node11&#45;&gt;Node22</title>
<path fill="none" stroke="#191970" d="M616.2714,-347.4298C585.265,-340.3863 546.334,-328.8661 515,-311 487.4131,-295.2705 461.5884,-268.7264 446.2892,-251.2829"/>
<polygon fill="#191970" stroke="#191970" points="448.8233,-248.861 439.6627,-243.5381 443.5045,-253.4119 448.8233,-248.861"/>
</g>
<!-- Node13&#45;&gt;Node14 -->
<g id="edge15" class="edge">
<title>Node13&#45;&gt;Node14</title>
<path fill="none" stroke="#191970" d="M609.8125,-285.8906C607.8514,-277.276 604.9137,-264.3708 602.4585,-253.5858"/>
<polygon fill="#191970" stroke="#191970" points="605.8507,-252.7185 600.2183,-243.7449 599.0254,-254.2723 605.8507,-252.7185"/>
</g>
<!-- Node15 -->
<g id="node16" class="node">
<title>Node15</title>
<g id="a_node16"><a xlink:href="../../da/dab/GPUTPCDef_8h.html" target="_top" xlink:title="GPUTPCDef.h">
<polygon fill="none" stroke="#000000" points="353,-168.5 353,-187.5 435,-187.5 435,-168.5 353,-168.5"/>
<text text-anchor="middle" x="394" y="-175.5" font-family="Helvetica,sans-Serif" font-size="10.00" fill="#000000">GPUTPCDef.h</text>
</a>
</g>
</g>
<!-- Node14&#45;&gt;Node15 -->
<g id="edge16" class="edge">
<title>Node14&#45;&gt;Node15</title>
<path fill="none" stroke="#191970" d="M562.9311,-224.3733C528.5685,-214.9404 476.0608,-200.5265 438.7149,-190.2747"/>
<polygon fill="#191970" stroke="#191970" points="439.181,-186.7732 428.6112,-187.5011 437.328,-193.5235 439.181,-186.7732"/>
</g>
<!-- Node16 -->
<g id="node17" class="node">
<title>Node16</title>
<g id="a_node17"><a xlink:href="../../d3/dcc/GPUTPCGMMergedTrackHit_8h.html" target="_top" xlink:title="GPUTPCGMMergedTrackHit.h">
<polygon fill="none" stroke="#000000" points="443.5,-112.5 443.5,-131.5 600.5,-131.5 600.5,-112.5 443.5,-112.5"/>
<text text-anchor="middle" x="522" y="-119.5" font-family="Helvetica,sans-Serif" font-size="10.00" fill="#000000">GPUTPCGMMergedTrackHit.h</text>
</a>
</g>
</g>
<!-- Node14&#45;&gt;Node16 -->
<g id="edge18" class="edge">
<title>Node14&#45;&gt;Node16</title>
<path fill="none" stroke="#191970" d="M606.8349,-224.4607C618.1046,-211.0853 634.8008,-186.3417 623,-168 612.8843,-152.2774 595.9269,-141.8649 578.7676,-134.996"/>
<polygon fill="#191970" stroke="#191970" points="579.85,-131.6653 569.256,-131.5332 577.4553,-138.243 579.85,-131.6653"/>
</g>
<!-- Node14&#45;&gt;Node17 -->
<g id="edge20" class="edge">
<title>Node14&#45;&gt;Node17</title>
<path fill="none" stroke="#191970" d="M620.3478,-224.3733C641.4033,-215.3032 673.1495,-201.6279 696.7175,-191.4755"/>
<polygon fill="#191970" stroke="#191970" points="698.1444,-194.6719 705.9438,-187.5011 695.375,-188.243 698.1444,-194.6719"/>
</g>
<!-- Node20 -->
<g id="node21" class="node">
<title>Node20</title>
<g id="a_node21"><a xlink:href="../../d3/d1f/GPUdEdxInfo_8h.html" target="_top" xlink:title="GPUdEdxInfo.h">
<polygon fill="none" stroke="#000000" points="524.5,-168.5 524.5,-187.5 613.5,-187.5 613.5,-168.5 524.5,-168.5"/>
<text text-anchor="middle" x="569" y="-175.5" font-family="Helvetica,sans-Serif" font-size="10.00" fill="#000000">GPUdEdxInfo.h</text>
</a>
</g>
</g>
<!-- Node14&#45;&gt;Node20 -->
<g id="edge24" class="edge">
<title>Node14&#45;&gt;Node20</title>
<path fill="none" stroke="#191970" d="M592.9486,-224.2455C588.9981,-216.617 583.3903,-205.7881 578.5942,-196.5267"/>
<polygon fill="#191970" stroke="#191970" points="581.7001,-194.9131 573.9935,-187.6427 575.4841,-198.1321 581.7001,-194.9131"/>
</g>
<!-- Node21 -->
<g id="node22" class="node">
<title>Node21</title>
<polygon fill="none" stroke="#bfbfbf" points="453.5,-168.5 453.5,-187.5 506.5,-187.5 506.5,-168.5 453.5,-168.5"/>
<text text-anchor="middle" x="480" y="-175.5" font-family="Helvetica,sans-Serif" font-size="10.00" fill="#000000">cstddef</text>
</g>
<!-- Node14&#45;&gt;Node21 -->
<g id="edge25" class="edge">
<title>Node14&#45;&gt;Node21</title>
<path fill="none" stroke="#191970" d="M577.7151,-224.3733C558.8579,-215.4241 530.554,-201.9917 509.2545,-191.8835"/>
<polygon fill="#191970" stroke="#191970" points="510.5551,-188.6266 500.0202,-187.5011 507.5539,-194.9506 510.5551,-188.6266"/>
</g>
<!-- Node15&#45;&gt;Node1 -->
<g id="edge17" class="edge">
<title>Node15&#45;&gt;Node1</title>
<path fill="none" stroke="#191970" d="M394,-168.2455C394,-160.9382 394,-150.6944 394,-141.7046"/>
<polygon fill="#191970" stroke="#191970" points="397.5001,-141.6426 394,-131.6427 390.5001,-141.6427 397.5001,-141.6426"/>
</g>
<!-- Node16&#45;&gt;Node2 -->
<g id="edge19" class="edge">
<title>Node16&#45;&gt;Node2</title>
<path fill="none" stroke="#191970" d="M564.0094,-112.4369C606.1104,-102.8529 671.0005,-88.0812 716.2521,-77.78"/>
<polygon fill="#191970" stroke="#191970" points="717.1902,-81.1561 726.1639,-75.5237 715.6364,-74.3307 717.1902,-81.1561"/>
</g>
<!-- Node17&#45;&gt;Node2 -->
<g id="edge21" class="edge">
<title>Node17&#45;&gt;Node2</title>
<path fill="none" stroke="#191970" d="M735.6788,-168.3823C742.3829,-159.4735 751.8264,-145.587 757,-132 762.6838,-117.073 765.4353,-99.1407 766.7648,-85.7378"/>
<polygon fill="#191970" stroke="#191970" points="770.2581,-85.9608 767.5802,-75.71 763.2811,-85.3934 770.2581,-85.9608"/>
</g>
<!-- Node18 -->
<g id="node19" class="node">
<title>Node18</title>
<polygon fill="none" stroke="#bfbfbf" points="618.5,-112.5 618.5,-131.5 665.5,-131.5 665.5,-112.5 618.5,-112.5"/>
<text text-anchor="middle" x="642" y="-119.5" font-family="Helvetica,sans-Serif" font-size="10.00" fill="#000000">cmath</text>
</g>
<!-- Node17&#45;&gt;Node18 -->
<g id="edge22" class="edge">
<title>Node17&#45;&gt;Node18</title>
<path fill="none" stroke="#191970" d="M713.0199,-168.2455C699.8249,-159.6534 680.3949,-147.0014 665.1921,-137.1018"/>
<polygon fill="#191970" stroke="#191970" points="667.0983,-134.1665 656.8084,-131.6427 663.2785,-140.0325 667.0983,-134.1665"/>
</g>
<!-- Node19 -->
<g id="node20" class="node">
<title>Node19</title>
<polygon fill="none" stroke="#bfbfbf" points="684,-112.5 684,-131.5 748,-131.5 748,-112.5 684,-112.5"/>
<text text-anchor="middle" x="716" y="-119.5" font-family="Helvetica,sans-Serif" font-size="10.00" fill="#000000">algorithm</text>
</g>
<!-- Node17&#45;&gt;Node19 -->
<g id="edge23" class="edge">
<title>Node17&#45;&gt;Node19</title>
<path fill="none" stroke="#191970" d="M725.9098,-168.2455C724.3439,-160.9382 722.1488,-150.6944 720.2224,-141.7046"/>
<polygon fill="#191970" stroke="#191970" points="723.584,-140.6873 718.0663,-131.6427 716.7393,-142.1541 723.584,-140.6873"/>
</g>
<!-- Node22&#45;&gt;Node15 -->
<g id="edge27" class="edge">
<title>Node22&#45;&gt;Node15</title>
<path fill="none" stroke="#191970" d="M425.3809,-224.2455C420.0954,-216.4564 412.5459,-205.3308 406.1762,-195.9439"/>
<polygon fill="#191970" stroke="#191970" points="409.0545,-193.9522 400.5432,-187.6427 403.2621,-197.8827 409.0545,-193.9522"/>
</g>
</g>
</svg>
        <g id="navigator" transform="translate(0 0)" fill="#404254">
                <rect fill="#f2f5e9" fill-opacity="0.5" stroke="#606060" stroke-width=".5" x="0" y="0" width="60" height="60"/>
                <use id="zoomplus" xlink:href="#zoomPlus" x="17" y="9" onmousedown="handleZoom(evt,'in')"/>
                <use id="zoomminus" xlink:href="#zoomMin" x="42" y="9" onmousedown="handleZoom(evt,'out')"/>
                <use id="reset" xlink:href="#resetDef" x="30" y="36" onmousedown="handleReset()"/>
                <g id="arrowUp" xlink:href="#dirArrow" transform="translate(30 24)" onmousedown="handlePan(0,-1)">
                  <use xlink:href="#rim" fill="#404040">
                        <set attributeName="fill" to="#808080" begin="arrowUp.mouseover" end="arrowUp.mouseout"/>
                  </use>
                  <path fill="none" stroke="white" stroke-width="1.5" d="M0,-3.0v7 M-2.5,-0.5L0,-3.0L2.5,-0.5"/>
                </g>
                <g id="arrowRight" xlink:href="#dirArrow" transform="rotate(90) translate(36 -43)" onmousedown="handlePan(1,0)">
                  <use xlink:href="#rim" fill="#404040">
                        <set attributeName="fill" to="#808080" begin="arrowRight.mouseover" end="arrowRight.mouseout"/>
                  </use>
                  <path fill="none" stroke="white" stroke-width="1.5" d="M0,-3.0v7 M-2.5,-0.5L0,-3.0L2.5,-0.5"/>
                </g>
                <g id="arrowDown" xlink:href="#dirArrow" transform="rotate(180) translate(-30 -48)" onmousedown="handlePan(0,1)">
                  <use xlink:href="#rim" fill="#404040">
                        <set attributeName="fill" to="#808080" begin="arrowDown.mouseover" end="arrowDown.mouseout"/>
                  </use>
                  <path fill="none" stroke="white" stroke-width="1.5" d="M0,-3.0v7 M-2.5,-0.5L0,-3.0L2.5,-0.5"/>
                </g>
                <g id="arrowLeft" xlink:href="#dirArrow" transform="rotate(270) translate(-36 17)" onmousedown="handlePan(-1,0)">
                  <use xlink:href="#rim" fill="#404040">
                        <set attributeName="fill" to="#808080" begin="arrowLeft.mouseover" end="arrowLeft.mouseout"/>
                  </use>
                  <path fill="none" stroke="white" stroke-width="1.5" d="M0,-3.0v7 M-2.5,-0.5L0,-3.0L2.5,-0.5"/>
                </g>
        </g>
        <svg viewBox="0 0 15 15" width="100%" height="30px" preserveAspectRatio="xMaxYMin meet">
         <g id="arrow_out" transform="scale(0.3 0.3)">
          <a xlink:href="GPUTPCCompressionTrackModel_8h__incl_org.svg" target="_base">
           <rect id="button" ry="5" rx="5" y="6" x="6" height="38" width="38"
                fill="#f2f5e9" fill-opacity="0.5" stroke="#606060" stroke-width="1.0"/>
           <path id="arrow"
             d="M 11.500037,31.436501 C 11.940474,20.09759 22.043105,11.32322 32.158766,21.979434 L 37.068811,17.246167 C 37.068811,17.246167 37.088388,32 37.088388,32 L 22.160133,31.978069 C 22.160133,31.978069 26.997745,27.140456 26.997745,27.140456 C 18.528582,18.264221 13.291696,25.230495 11.500037,31.436501 z"
             style="fill:#404040;"/>
          </a>
         </g>
        </svg>
</svg>
