<?xml version="1.0" encoding="UTF-8" standalone="no"?>
<!DOCTYPE svg PUBLIC "-//W3C//DTD SVG 1.1//EN"
 "http://www.w3.org/Graphics/SVG/1.1/DTD/svg11.dtd">
<!-- Generated by graphviz version 2.40.1 (20161225.0304)
 -->
<!-- Title: o2::framework::RouteConfigurator Pages: 1 -->
<svg width="563pt" height="193pt"
 viewBox="0.00 0.00 563.00 193.00" xmlns="http://www.w3.org/2000/svg" xmlns:xlink="http://www.w3.org/1999/xlink">
<g id="graph0" class="graph" transform="scale(1 1) rotate(0) translate(4 189)">
<title>o2::framework::RouteConfigurator</title>
<!-- Node1 -->
<g id="node1" class="node">
<title>Node1</title>
<polygon fill="#bfbfbf" stroke="#000000" points="186.5,-.5 186.5,-57.5 368.5,-57.5 368.5,-.5 186.5,-.5"/>
<text text-anchor="middle" x="277.5" y="-45.5" font-family="Helvetica,sans-Serif" font-size="10.00" fill="#000000">o2::framework::RouteConfigurator</text>
<polyline fill="none" stroke="#000000" points="186.5,-38.5 368.5,-38.5 "/>
<text text-anchor="middle" x="277.5" y="-26.5" font-family="Helvetica,sans-Serif" font-size="10.00" fill="#000000"> </text>
<polyline fill="none" stroke="#000000" points="186.5,-19.5 368.5,-19.5 "/>
<text text-anchor="middle" x="277.5" y="-7.5" font-family="Helvetica,sans-Serif" font-size="10.00" fill="#000000"> </text>
</g>
<!-- Node2 -->
<g id="node2" class="node">
<title>Node2</title>
<polygon fill="none" stroke="#bfbfbf" points="0,-105.5 0,-184.5 173,-184.5 173,-105.5 0,-105.5"/>
<text text-anchor="start" x="8" y="-172.5" font-family="Helvetica,sans-Serif" font-size="10.00" fill="#000000">function&lt; ExpirationHandler</text>
<text text-anchor="start" x="8" y="-161.5" font-family="Helvetica,sans-Serif" font-size="10.00" fill="#000000">::Handler(DeviceState &amp;,</text>
<text text-anchor="middle" x="86.5" y="-150.5" font-family="Helvetica,sans-Serif" font-size="10.00" fill="#000000"> ConfigParamRegistry const &amp;)&gt;</text>
<polyline fill="none" stroke="#bfbfbf" points="0,-143.5 173,-143.5 "/>
<text text-anchor="middle" x="86.5" y="-131.5" font-family="Helvetica,sans-Serif" font-size="10.00" fill="#000000"> </text>
<polyline fill="none" stroke="#bfbfbf" points="0,-124.5 173,-124.5 "/>
<text text-anchor="middle" x="86.5" y="-112.5" font-family="Helvetica,sans-Serif" font-size="10.00" fill="#000000"> </text>
</g>
<!-- Node2&#45;&gt;Node1 -->
<g id="edge1" class="edge">
<title>Node2&#45;&gt;Node1</title>
<path fill="none" stroke="#404040" d="M118.7379,-105.2404C128.7242,-94.7041 140.3271,-84.0387 152.5,-76 159.749,-71.2129 167.5538,-66.8203 175.5964,-62.8093"/>
<polygon fill="none" stroke="#404040" points="175.8301,-62.699 179.5476,-56.52 186.6811,-57.5749 182.9636,-63.754 175.8301,-62.699"/>
<text text-anchor="middle" x="213" y="-79" font-family="Helvetica,sans-Serif" font-size="10.00" fill="#000000"> +expirationConfigurator</text>
</g>
<!-- Node3 -->
<g id="node3" class="node">
<title>Node3</title>
<polygon fill="none" stroke="#bfbfbf" points="191,-105.5 191,-184.5 364,-184.5 364,-105.5 191,-105.5"/>
<text text-anchor="start" x="199" y="-172.5" font-family="Helvetica,sans-Serif" font-size="10.00" fill="#000000">function&lt; ExpirationHandler</text>
<text text-anchor="start" x="199" y="-161.5" font-family="Helvetica,sans-Serif" font-size="10.00" fill="#000000">::Creator(DeviceState &amp;,</text>
<text text-anchor="middle" x="277.5" y="-150.5" font-family="Helvetica,sans-Serif" font-size="10.00" fill="#000000"> ConfigParamRegistry const &amp;)&gt;</text>
<polyline fill="none" stroke="#bfbfbf" points="191,-143.5 364,-143.5 "/>
<text text-anchor="middle" x="277.5" y="-131.5" font-family="Helvetica,sans-Serif" font-size="10.00" fill="#000000"> </text>
<polyline fill="none" stroke="#bfbfbf" points="191,-124.5 364,-124.5 "/>
<text text-anchor="middle" x="277.5" y="-112.5" font-family="Helvetica,sans-Serif" font-size="10.00" fill="#000000"> </text>
</g>
<!-- Node3&#45;&gt;Node1 -->
<g id="edge2" class="edge">
<title>Node3&#45;&gt;Node1</title>
<path fill="none" stroke="#404040" d="M277.5,-105.4038C277.5,-93.9323 277.5,-81.3893 277.5,-69.8431"/>
<polygon fill="none" stroke="#404040" points="277.5001,-69.8034 273.5,-63.8034 277.5,-57.8034 281.5,-63.8034 277.5001,-69.8034"/>
<text text-anchor="middle" x="330.5" y="-79" font-family="Helvetica,sans-Serif" font-size="10.00" fill="#000000"> +creatorConfigurator</text>
</g>
<!-- Node4 -->
<g id="node4" class="node">
<title>Node4</title>
<polygon fill="none" stroke="#bfbfbf" points="382,-105.5 382,-184.5 555,-184.5 555,-105.5 382,-105.5"/>
<text text-anchor="start" x="390" y="-172.5" font-family="Helvetica,sans-Serif" font-size="10.00" fill="#000000">function&lt; ExpirationHandler</text>
<text text-anchor="start" x="390" y="-161.5" font-family="Helvetica,sans-Serif" font-size="10.00" fill="#000000">::Checker(DeviceState &amp;,</text>
<text text-anchor="middle" x="468.5" y="-150.5" font-family="Helvetica,sans-Serif" font-size="10.00" fill="#000000"> ConfigParamRegistry const &amp;)&gt;</text>
<polyline fill="none" stroke="#bfbfbf" points="382,-143.5 555,-143.5 "/>
<text text-anchor="middle" x="468.5" y="-131.5" font-family="Helvetica,sans-Serif" font-size="10.00" fill="#000000"> </text>
<polyline fill="none" stroke="#bfbfbf" points="382,-124.5 555,-124.5 "/>
<text text-anchor="middle" x="468.5" y="-112.5" font-family="Helvetica,sans-Serif" font-size="10.00" fill="#000000"> </text>
</g>
<!-- Node4&#45;&gt;Node1 -->
<g id="edge3" class="edge">
<title>Node4&#45;&gt;Node1</title>
<path fill="none" stroke="#404040" d="M426.6479,-105.1982C414.5774,-94.8996 401.0049,-84.3672 387.5,-76 379.951,-71.3229 371.8547,-66.8969 363.6047,-62.7687"/>
<polygon fill="none" stroke="#404040" points="363.5145,-62.7253 356.373,-63.7248 352.7036,-57.5171 359.8451,-56.5175 363.5145,-62.7253"/>
<text text-anchor="middle" x="458.5" y="-79" font-family="Helvetica,sans-Serif" font-size="10.00" fill="#000000"> +danglingConfigurator</text>
</g>
</g>
</svg>
