<?xml version="1.0" encoding="UTF-8" standalone="no"?>
<!DOCTYPE svg PUBLIC "-//W3C//DTD SVG 1.1//EN"
 "http://www.w3.org/Graphics/SVG/1.1/DTD/svg11.dtd">
<!-- Generated by graphviz version 2.40.1 (20161225.0304)
 -->
<!-- Title: /home/travis/build/AliceO2Group/AliceO2/Utilities/rANS/include/rANS/rans.h Pages: 1 -->
<svg width="1764pt" height="450pt"
 viewBox="0.00 0.00 1763.50 450.00" xmlns="http://www.w3.org/2000/svg" xmlns:xlink="http://www.w3.org/1999/xlink">
<g id="graph0" class="graph" transform="scale(1 1) rotate(0) translate(4 446)">
<title>/home/travis/build/AliceO2Group/AliceO2/Utilities/rANS/include/rANS/rans.h</title>
<!-- Node24 -->
<g id="node1" class="node">
<title>Node24</title>
<polygon fill="#bfbfbf" stroke="#000000" points="1158.5,-389.5 1158.5,-441.5 1285.5,-441.5 1285.5,-389.5 1158.5,-389.5"/>
<text text-anchor="start" x="1166.5" y="-429.5" font-family="Helvetica,sans-Serif" font-size="10.00" fill="#000000">/home/travis/build</text>
<text text-anchor="start" x="1166.5" y="-418.5" font-family="Helvetica,sans-Serif" font-size="10.00" fill="#000000">/AliceO2Group/AliceO2</text>
<text text-anchor="start" x="1166.5" y="-407.5" font-family="Helvetica,sans-Serif" font-size="10.00" fill="#000000">/Utilities/rANS/include</text>
<text text-anchor="middle" x="1222" y="-396.5" font-family="Helvetica,sans-Serif" font-size="10.00" fill="#000000">/rANS/rans.h</text>
</g>
<!-- Node25 -->
<g id="node2" class="node">
<title>Node25</title>
<g id="a_node2"><a xlink:href="../../da/d91/EncodedBlocks_8h.html" target="_top" xlink:title="/home/travis/build\l/AliceO2Group/AliceO2\l/DataFormats/Detectors\l/Common/include/DetectorsCommon\lDataFormats/EncodedBlocks.h">
<polygon fill="none" stroke="#000000" points="902.5,-289.5 902.5,-352.5 1099.5,-352.5 1099.5,-289.5 902.5,-289.5"/>
<text text-anchor="start" x="910.5" y="-340.5" font-family="Helvetica,sans-Serif" font-size="10.00" fill="#000000">/home/travis/build</text>
<text text-anchor="start" x="910.5" y="-329.5" font-family="Helvetica,sans-Serif" font-size="10.00" fill="#000000">/AliceO2Group/AliceO2</text>
<text text-anchor="start" x="910.5" y="-318.5" font-family="Helvetica,sans-Serif" font-size="10.00" fill="#000000">/DataFormats/Detectors</text>
<text text-anchor="start" x="910.5" y="-307.5" font-family="Helvetica,sans-Serif" font-size="10.00" fill="#000000">/Common/include/DetectorsCommon</text>
<text text-anchor="middle" x="1001" y="-296.5" font-family="Helvetica,sans-Serif" font-size="10.00" fill="#000000">DataFormats/EncodedBlocks.h</text>
</a>
</g>
</g>
<!-- Node24&#45;&gt;Node25 -->
<g id="edge1" class="edge">
<title>Node24&#45;&gt;Node25</title>
<path fill="none" stroke="#191970" d="M1151.776,-385.4721C1127.2169,-374.9706 1099.5827,-363.1541 1074.7446,-352.5333"/>
<polygon fill="#191970" stroke="#191970" points="1150.455,-388.7137 1161.0258,-389.4273 1153.2072,-382.2774 1150.455,-388.7137"/>
</g>
<!-- Node32 -->
<g id="node9" class="node">
<title>Node32</title>
<g id="a_node9"><a xlink:href="../../d4/d81/ITSMFT_2common_2reconstruction_2include_2ITSMFTReconstruction_2CTFCoder_8h.html" target="_top" xlink:title="/home/travis/build\l/AliceO2Group/AliceO2\l/Detectors/ITSMFT/common\l/reconstruction/include\l/ITSMFTReconstruction/CTFCoder.h">
<polygon fill="none" stroke="#000000" points="427,-89.5 427,-152.5 611,-152.5 611,-89.5 427,-89.5"/>
<text text-anchor="start" x="435" y="-140.5" font-family="Helvetica,sans-Serif" font-size="10.00" fill="#000000">/home/travis/build</text>
<text text-anchor="start" x="435" y="-129.5" font-family="Helvetica,sans-Serif" font-size="10.00" fill="#000000">/AliceO2Group/AliceO2</text>
<text text-anchor="start" x="435" y="-118.5" font-family="Helvetica,sans-Serif" font-size="10.00" fill="#000000">/Detectors/ITSMFT/common</text>
<text text-anchor="start" x="435" y="-107.5" font-family="Helvetica,sans-Serif" font-size="10.00" fill="#000000">/reconstruction/include</text>
<text text-anchor="middle" x="519" y="-96.5" font-family="Helvetica,sans-Serif" font-size="10.00" fill="#000000">/ITSMFTReconstruction/CTFCoder.h</text>
</a>
</g>
</g>
<!-- Node24&#45;&gt;Node32 -->
<g id="edge24" class="edge">
<title>Node24&#45;&gt;Node32</title>
<path fill="none" stroke="#191970" d="M1148.1026,-407.3017C1080.4481,-398.4354 978.1964,-381.584 893,-353 798.0262,-321.1356 776.0278,-305.9682 691,-253 641.7985,-222.3498 589.5496,-180.8078 555.7247,-152.5698"/>
<polygon fill="#191970" stroke="#191970" points="1147.8766,-410.8014 1158.2412,-408.6046 1148.7689,-403.8585 1147.8766,-410.8014"/>
</g>
<!-- Node38 -->
<g id="node15" class="node">
<title>Node38</title>
<g id="a_node15"><a xlink:href="../../d9/de3/TPC_2reconstruction_2include_2TPCReconstruction_2CTFCoder_8h.html" target="_top" xlink:title="/home/travis/build\l/AliceO2Group/AliceO2\l/Detectors/TPC/reconstruction\l/include/TPCReconstruction\l/CTFCoder.h">
<polygon fill="none" stroke="#000000" points="1271.5,-89.5 1271.5,-152.5 1432.5,-152.5 1432.5,-89.5 1271.5,-89.5"/>
<text text-anchor="start" x="1279.5" y="-140.5" font-family="Helvetica,sans-Serif" font-size="10.00" fill="#000000">/home/travis/build</text>
<text text-anchor="start" x="1279.5" y="-129.5" font-family="Helvetica,sans-Serif" font-size="10.00" fill="#000000">/AliceO2Group/AliceO2</text>
<text text-anchor="start" x="1279.5" y="-118.5" font-family="Helvetica,sans-Serif" font-size="10.00" fill="#000000">/Detectors/TPC/reconstruction</text>
<text text-anchor="start" x="1279.5" y="-107.5" font-family="Helvetica,sans-Serif" font-size="10.00" fill="#000000">/include/TPCReconstruction</text>
<text text-anchor="middle" x="1352" y="-96.5" font-family="Helvetica,sans-Serif" font-size="10.00" fill="#000000">/CTFCoder.h</text>
</a>
</g>
</g>
<!-- Node24&#45;&gt;Node38 -->
<g id="edge25" class="edge">
<title>Node24&#45;&gt;Node38</title>
<path fill="none" stroke="#191970" d="M1263.8122,-382.5226C1297.8197,-352.8191 1343.2848,-305.8038 1363,-253 1375.1861,-220.3616 1369.0963,-180.1243 1362.0941,-152.7129"/>
<polygon fill="#191970" stroke="#191970" points="1261.1885,-380.1616 1255.8732,-389.3267 1265.7438,-385.4767 1261.1885,-380.1616"/>
</g>
<!-- Node42 -->
<g id="node19" class="node">
<title>Node42</title>
<g id="a_node19"><a xlink:href="../../d6/d7c/test__ransEncodeDecode_8cxx.html" target="_top" xlink:title="/home/travis/build\l/AliceO2Group/AliceO2\l/Utilities/rANS/test/test\l_ransEncodeDecode.cxx">
<polygon fill="none" stroke="#000000" points="1410.5,-295 1410.5,-347 1545.5,-347 1545.5,-295 1410.5,-295"/>
<text text-anchor="start" x="1418.5" y="-335" font-family="Helvetica,sans-Serif" font-size="10.00" fill="#000000">/home/travis/build</text>
<text text-anchor="start" x="1418.5" y="-324" font-family="Helvetica,sans-Serif" font-size="10.00" fill="#000000">/AliceO2Group/AliceO2</text>
<text text-anchor="start" x="1418.5" y="-313" font-family="Helvetica,sans-Serif" font-size="10.00" fill="#000000">/Utilities/rANS/test/test</text>
<text text-anchor="middle" x="1478" y="-302" font-family="Helvetica,sans-Serif" font-size="10.00" fill="#000000">_ransEncodeDecode.cxx</text>
</a>
</g>
</g>
<!-- Node24&#45;&gt;Node42 -->
<g id="edge26" class="edge">
<title>Node24&#45;&gt;Node42</title>
<path fill="none" stroke="#191970" d="M1295.2607,-389.6842C1326.3908,-378.5853 1363.0397,-365.3483 1396,-353 1401.1517,-351.0699 1406.4762,-349.0499 1411.8228,-347.0034"/>
<polygon fill="#191970" stroke="#191970" points="1294.0341,-386.4056 1285.7871,-393.0566 1296.3818,-393.0002 1294.0341,-386.4056"/>
</g>
<!-- Node26 -->
<g id="node3" class="node">
<title>Node26</title>
<g id="a_node3"><a xlink:href="../../d2/dd6/EncodedBlocks_8cxx.html" target="_top" xlink:title="/home/travis/build\l/AliceO2Group/AliceO2\l/DataFormats/Detectors\l/Common/src/EncodedBlocks.cxx">
<polygon fill="none" stroke="#000000" points="1176,-195 1176,-247 1354,-247 1354,-195 1176,-195"/>
<text text-anchor="start" x="1184" y="-235" font-family="Helvetica,sans-Serif" font-size="10.00" fill="#000000">/home/travis/build</text>
<text text-anchor="start" x="1184" y="-224" font-family="Helvetica,sans-Serif" font-size="10.00" fill="#000000">/AliceO2Group/AliceO2</text>
<text text-anchor="start" x="1184" y="-213" font-family="Helvetica,sans-Serif" font-size="10.00" fill="#000000">/DataFormats/Detectors</text>
<text text-anchor="middle" x="1265" y="-202" font-family="Helvetica,sans-Serif" font-size="10.00" fill="#000000">/Common/src/EncodedBlocks.cxx</text>
</a>
</g>
</g>
<!-- Node25&#45;&gt;Node26 -->
<g id="edge2" class="edge">
<title>Node25&#45;&gt;Node26</title>
<path fill="none" stroke="#191970" d="M1093.5593,-285.9397C1127.2362,-273.1832 1164.6847,-258.9982 1195.9698,-247.1478"/>
<polygon fill="#191970" stroke="#191970" points="1092.2807,-282.6812 1084.1689,-289.4966 1094.7603,-289.2274 1092.2807,-282.6812"/>
</g>
<!-- Node27 -->
<g id="node4" class="node">
<title>Node27</title>
<g id="a_node4"><a xlink:href="../../dc/d8e/ITSMFT_2common_2include_2DataFormatsITSMFT_2CTF_8h.html" target="_top" xlink:title="/home/travis/build\l/AliceO2Group/AliceO2\l/DataFormats/Detectors\l/ITSMFT/common/include\l/DataFormatsITSMFT/CTF.h">
<polygon fill="none" stroke="#000000" points="700,-189.5 700,-252.5 846,-252.5 846,-189.5 700,-189.5"/>
<text text-anchor="start" x="708" y="-240.5" font-family="Helvetica,sans-Serif" font-size="10.00" fill="#000000">/home/travis/build</text>
<text text-anchor="start" x="708" y="-229.5" font-family="Helvetica,sans-Serif" font-size="10.00" fill="#000000">/AliceO2Group/AliceO2</text>
<text text-anchor="start" x="708" y="-218.5" font-family="Helvetica,sans-Serif" font-size="10.00" fill="#000000">/DataFormats/Detectors</text>
<text text-anchor="start" x="708" y="-207.5" font-family="Helvetica,sans-Serif" font-size="10.00" fill="#000000">/ITSMFT/common/include</text>
<text text-anchor="middle" x="773" y="-196.5" font-family="Helvetica,sans-Serif" font-size="10.00" fill="#000000">/DataFormatsITSMFT/CTF.h</text>
</a>
</g>
</g>
<!-- Node25&#45;&gt;Node27 -->
<g id="edge3" class="edge">
<title>Node25&#45;&gt;Node27</title>
<path fill="none" stroke="#191970" d="M919.9045,-285.4318C895.4123,-274.6896 868.7038,-262.9753 844.8582,-252.5168"/>
<polygon fill="#191970" stroke="#191970" points="918.6086,-288.6852 929.1723,-289.4966 921.4203,-282.2747 918.6086,-288.6852"/>
</g>
<!-- Node30 -->
<g id="node7" class="node">
<title>Node30</title>
<g id="a_node7"><a xlink:href="../../d8/d12/CTFReaderSpec_8cxx.html" target="_top" xlink:title="/home/travis/build\l/AliceO2Group/AliceO2\l/Detectors/CTF/workflow\l/src/CTFReaderSpec.cxx">
<polygon fill="none" stroke="#000000" points="995.5,-95 995.5,-147 1130.5,-147 1130.5,-95 995.5,-95"/>
<text text-anchor="start" x="1003.5" y="-135" font-family="Helvetica,sans-Serif" font-size="10.00" fill="#000000">/home/travis/build</text>
<text text-anchor="start" x="1003.5" y="-124" font-family="Helvetica,sans-Serif" font-size="10.00" fill="#000000">/AliceO2Group/AliceO2</text>
<text text-anchor="start" x="1003.5" y="-113" font-family="Helvetica,sans-Serif" font-size="10.00" fill="#000000">/Detectors/CTF/workflow</text>
<text text-anchor="middle" x="1063" y="-102" font-family="Helvetica,sans-Serif" font-size="10.00" fill="#000000">/src/CTFReaderSpec.cxx</text>
</a>
</g>
</g>
<!-- Node25&#45;&gt;Node30 -->
<g id="edge22" class="edge">
<title>Node25&#45;&gt;Node30</title>
<path fill="none" stroke="#191970" d="M971.9003,-280.4757C956.3714,-253.5165 943.3743,-217.8861 959,-189 968.5455,-171.3539 984.8808,-157.5546 1001.813,-147.136"/>
<polygon fill="#191970" stroke="#191970" points="969.0499,-282.5255 977.2259,-289.2637 975.0364,-278.8976 969.0499,-282.5255"/>
</g>
<!-- Node31 -->
<g id="node8" class="node">
<title>Node31</title>
<g id="a_node8"><a xlink:href="../../d4/dd7/CTFWriterSpec_8cxx.html" target="_top" xlink:title="/home/travis/build\l/AliceO2Group/AliceO2\l/Detectors/CTF/workflow\l/src/CTFWriterSpec.cxx">
<polygon fill="none" stroke="#000000" points="842.5,-95 842.5,-147 977.5,-147 977.5,-95 842.5,-95"/>
<text text-anchor="start" x="850.5" y="-135" font-family="Helvetica,sans-Serif" font-size="10.00" fill="#000000">/home/travis/build</text>
<text text-anchor="start" x="850.5" y="-124" font-family="Helvetica,sans-Serif" font-size="10.00" fill="#000000">/AliceO2Group/AliceO2</text>
<text text-anchor="start" x="850.5" y="-113" font-family="Helvetica,sans-Serif" font-size="10.00" fill="#000000">/Detectors/CTF/workflow</text>
<text text-anchor="middle" x="910" y="-102" font-family="Helvetica,sans-Serif" font-size="10.00" fill="#000000">/src/CTFWriterSpec.cxx</text>
</a>
</g>
</g>
<!-- Node25&#45;&gt;Node31 -->
<g id="edge23" class="edge">
<title>Node25&#45;&gt;Node31</title>
<path fill="none" stroke="#191970" d="M966.0019,-281.2625C959.354,-272.378 952.9419,-262.7005 948,-253 930.409,-218.4707 919.8391,-174.591 914.4647,-147.1443"/>
<polygon fill="#191970" stroke="#191970" points="963.2446,-283.4184 972.138,-289.1767 968.7767,-279.1292 963.2446,-283.4184"/>
</g>
<!-- Node36 -->
<g id="node13" class="node">
<title>Node36</title>
<g id="a_node13"><a xlink:href="../../d8/d9c/TPC_2include_2DataFormatsTPC_2CTF_8h.html" target="_top" xlink:title="/home/travis/build\l/AliceO2Group/AliceO2\l/DataFormats/Detectors\l/TPC/include/DataFormatsTPC/CTF.h">
<polygon fill="none" stroke="#000000" points="968,-195 968,-247 1158,-247 1158,-195 968,-195"/>
<text text-anchor="start" x="976" y="-235" font-family="Helvetica,sans-Serif" font-size="10.00" fill="#000000">/home/travis/build</text>
<text text-anchor="start" x="976" y="-224" font-family="Helvetica,sans-Serif" font-size="10.00" fill="#000000">/AliceO2Group/AliceO2</text>
<text text-anchor="start" x="976" y="-213" font-family="Helvetica,sans-Serif" font-size="10.00" fill="#000000">/DataFormats/Detectors</text>
<text text-anchor="middle" x="1063" y="-202" font-family="Helvetica,sans-Serif" font-size="10.00" fill="#000000">/TPC/include/DataFormatsTPC/CTF.h</text>
</a>
</g>
</g>
<!-- Node25&#45;&gt;Node36 -->
<g id="edge13" class="edge">
<title>Node25&#45;&gt;Node36</title>
<path fill="none" stroke="#191970" d="M1025.8989,-280.8405C1032.9508,-269.4664 1040.4413,-257.385 1046.8317,-247.078"/>
<polygon fill="#191970" stroke="#191970" points="1022.912,-279.016 1020.6172,-289.3594 1028.8613,-282.7046 1022.912,-279.016"/>
</g>
<!-- Node28 -->
<g id="node5" class="node">
<title>Node28</title>
<g id="a_node5"><a xlink:href="../../d6/dbb/CTF_8cxx.html" target="_top" xlink:title="/home/travis/build\l/AliceO2Group/AliceO2\l/DataFormats/Detectors\l/ITSMFT/common/src/CTF.cxx">
<polygon fill="none" stroke="#000000" points="667.5,-95 667.5,-147 824.5,-147 824.5,-95 667.5,-95"/>
<text text-anchor="start" x="675.5" y="-135" font-family="Helvetica,sans-Serif" font-size="10.00" fill="#000000">/home/travis/build</text>
<text text-anchor="start" x="675.5" y="-124" font-family="Helvetica,sans-Serif" font-size="10.00" fill="#000000">/AliceO2Group/AliceO2</text>
<text text-anchor="start" x="675.5" y="-113" font-family="Helvetica,sans-Serif" font-size="10.00" fill="#000000">/DataFormats/Detectors</text>
<text text-anchor="middle" x="746" y="-102" font-family="Helvetica,sans-Serif" font-size="10.00" fill="#000000">/ITSMFT/common/src/CTF.cxx</text>
</a>
</g>
</g>
<!-- Node27&#45;&gt;Node28 -->
<g id="edge4" class="edge">
<title>Node27&#45;&gt;Node28</title>
<path fill="none" stroke="#191970" d="M761.7948,-179.4993C758.8308,-168.5216 755.7148,-156.9808 753.0411,-147.078"/>
<polygon fill="#191970" stroke="#191970" points="758.4713,-180.6174 764.457,-189.3594 765.2293,-178.7927 758.4713,-180.6174"/>
</g>
<!-- Node29 -->
<g id="node6" class="node">
<title>Node29</title>
<g id="a_node6"><a xlink:href="../../db/db0/test__ctf__io__itsmft_8cxx.html" target="_top" xlink:title="/home/travis/build\l/AliceO2Group/AliceO2\l/Detectors/CTF/test/test\l_ctf_io_itsmft.cxx">
<polygon fill="none" stroke="#000000" points="640.5,-.5 640.5,-52.5 771.5,-52.5 771.5,-.5 640.5,-.5"/>
<text text-anchor="start" x="648.5" y="-40.5" font-family="Helvetica,sans-Serif" font-size="10.00" fill="#000000">/home/travis/build</text>
<text text-anchor="start" x="648.5" y="-29.5" font-family="Helvetica,sans-Serif" font-size="10.00" fill="#000000">/AliceO2Group/AliceO2</text>
<text text-anchor="start" x="648.5" y="-18.5" font-family="Helvetica,sans-Serif" font-size="10.00" fill="#000000">/Detectors/CTF/test/test</text>
<text text-anchor="middle" x="706" y="-7.5" font-family="Helvetica,sans-Serif" font-size="10.00" fill="#000000">_ctf_io_itsmft.cxx</text>
</a>
</g>
</g>
<!-- Node27&#45;&gt;Node29 -->
<g id="edge5" class="edge">
<title>Node27&#45;&gt;Node29</title>
<path fill="none" stroke="#191970" d="M691.3395,-187.4689C677.9912,-178.298 665.947,-166.9314 658,-153 643.9061,-128.2927 648.8511,-115.933 658,-89 662.4885,-75.7865 671.0204,-63.1804 679.6609,-52.7955"/>
<polygon fill="#191970" stroke="#191970" points="689.4886,-190.4399 699.7942,-192.8987 693.2713,-184.5499 689.4886,-190.4399"/>
</g>
<!-- Node27&#45;&gt;Node30 -->
<g id="edge6" class="edge">
<title>Node27&#45;&gt;Node30</title>
<path fill="none" stroke="#191970" d="M856.0906,-196.2679C895.6956,-184.0235 943.5769,-168.5551 986,-153 991.0289,-151.1561 996.2126,-149.1767 1001.4013,-147.1395"/>
<polygon fill="#191970" stroke="#191970" points="854.9982,-192.942 846.4705,-199.2292 857.0577,-199.6323 854.9982,-192.942"/>
</g>
<!-- Node27&#45;&gt;Node31 -->
<g id="edge7" class="edge">
<title>Node27&#45;&gt;Node31</title>
<path fill="none" stroke="#191970" d="M824.8251,-183.1715C841.3177,-171.133 859.1835,-158.0923 874.2732,-147.078"/>
<polygon fill="#191970" stroke="#191970" points="822.3613,-180.6366 816.3477,-189.3594 826.4883,-186.2906 822.3613,-180.6366"/>
</g>
<!-- Node27&#45;&gt;Node32 -->
<g id="edge8" class="edge">
<title>Node27&#45;&gt;Node32</title>
<path fill="none" stroke="#191970" d="M690.4962,-188.5182C661.1936,-176.9817 628.2734,-164.021 599.169,-152.5626"/>
<polygon fill="#191970" stroke="#191970" points="689.2864,-191.8033 699.8734,-192.21 691.8508,-185.2899 689.2864,-191.8033"/>
</g>
<!-- Node32&#45;&gt;Node29 -->
<g id="edge9" class="edge">
<title>Node32&#45;&gt;Node29</title>
<path fill="none" stroke="#191970" d="M590.5334,-84.8507C611.8076,-74.0999 634.6899,-62.5364 654.4282,-52.5617"/>
<polygon fill="#191970" stroke="#191970" points="588.8748,-81.7674 581.5283,-89.4015 592.032,-88.0149 588.8748,-81.7674"/>
</g>
<!-- Node33 -->
<g id="node10" class="node">
<title>Node33</title>
<g id="a_node10"><a xlink:href="../../d0/d07/ITSMFT_2common_2reconstruction_2src_2CTFCoder_8cxx.html" target="_top" xlink:title="/home/travis/build\l/AliceO2Group/AliceO2\l/Detectors/ITSMFT/common\l/reconstruction/src/CTFCoder.cxx">
<polygon fill="none" stroke="#000000" points="222,-.5 222,-52.5 398,-52.5 398,-.5 222,-.5"/>
<text text-anchor="start" x="230" y="-40.5" font-family="Helvetica,sans-Serif" font-size="10.00" fill="#000000">/home/travis/build</text>
<text text-anchor="start" x="230" y="-29.5" font-family="Helvetica,sans-Serif" font-size="10.00" fill="#000000">/AliceO2Group/AliceO2</text>
<text text-anchor="start" x="230" y="-18.5" font-family="Helvetica,sans-Serif" font-size="10.00" fill="#000000">/Detectors/ITSMFT/common</text>
<text text-anchor="middle" x="310" y="-7.5" font-family="Helvetica,sans-Serif" font-size="10.00" fill="#000000">/reconstruction/src/CTFCoder.cxx</text>
</a>
</g>
</g>
<!-- Node32&#45;&gt;Node33 -->
<g id="edge10" class="edge">
<title>Node32&#45;&gt;Node33</title>
<path fill="none" stroke="#191970" d="M439.6873,-85.1385C415.7309,-74.3065 389.8965,-62.6254 367.6391,-52.5617"/>
<polygon fill="#191970" stroke="#191970" points="438.5616,-88.4706 449.1155,-89.4015 441.4456,-82.0923 438.5616,-88.4706"/>
</g>
<!-- Node34 -->
<g id="node11" class="node">
<title>Node34</title>
<g id="a_node11"><a xlink:href="../../d8/d02/ITSMFT_2common_2workflow_2src_2EntropyDecoderSpec_8cxx.html" target="_top" xlink:title="/home/travis/build\l/AliceO2Group/AliceO2\l/Detectors/ITSMFT/common\l/workflow/src/EntropyDecoderSpec.cxx">
<polygon fill="none" stroke="#000000" points="416,-.5 416,-52.5 622,-52.5 622,-.5 416,-.5"/>
<text text-anchor="start" x="424" y="-40.5" font-family="Helvetica,sans-Serif" font-size="10.00" fill="#000000">/home/travis/build</text>
<text text-anchor="start" x="424" y="-29.5" font-family="Helvetica,sans-Serif" font-size="10.00" fill="#000000">/AliceO2Group/AliceO2</text>
<text text-anchor="start" x="424" y="-18.5" font-family="Helvetica,sans-Serif" font-size="10.00" fill="#000000">/Detectors/ITSMFT/common</text>
<text text-anchor="middle" x="519" y="-7.5" font-family="Helvetica,sans-Serif" font-size="10.00" fill="#000000">/workflow/src/EntropyDecoderSpec.cxx</text>
</a>
</g>
</g>
<!-- Node32&#45;&gt;Node34 -->
<g id="edge11" class="edge">
<title>Node32&#45;&gt;Node34</title>
<path fill="none" stroke="#191970" d="M519,-79.2457C519,-70.2008 519,-60.8836 519,-52.6442"/>
<polygon fill="#191970" stroke="#191970" points="515.5001,-79.2699 519,-89.27 522.5001,-79.27 515.5001,-79.2699"/>
</g>
<!-- Node35 -->
<g id="node12" class="node">
<title>Node35</title>
<g id="a_node12"><a xlink:href="../../d5/d11/ITSMFT_2common_2workflow_2src_2EntropyEncoderSpec_8cxx.html" target="_top" xlink:title="/home/travis/build\l/AliceO2Group/AliceO2\l/Detectors/ITSMFT/common\l/workflow/src/EntropyEncoderSpec.cxx">
<polygon fill="none" stroke="#000000" points="0,-.5 0,-52.5 204,-52.5 204,-.5 0,-.5"/>
<text text-anchor="start" x="8" y="-40.5" font-family="Helvetica,sans-Serif" font-size="10.00" fill="#000000">/home/travis/build</text>
<text text-anchor="start" x="8" y="-29.5" font-family="Helvetica,sans-Serif" font-size="10.00" fill="#000000">/AliceO2Group/AliceO2</text>
<text text-anchor="start" x="8" y="-18.5" font-family="Helvetica,sans-Serif" font-size="10.00" fill="#000000">/Detectors/ITSMFT/common</text>
<text text-anchor="middle" x="102" y="-7.5" font-family="Helvetica,sans-Serif" font-size="10.00" fill="#000000">/workflow/src/EntropyEncoderSpec.cxx</text>
</a>
</g>
</g>
<!-- Node32&#45;&gt;Node35 -->
<g id="edge12" class="edge">
<title>Node32&#45;&gt;Node35</title>
<path fill="none" stroke="#191970" d="M417.0737,-98.769C357.5201,-85.6751 280.9418,-68.6582 213,-53 210.1041,-52.3326 207.1664,-51.6524 204.2018,-50.9632"/>
<polygon fill="#191970" stroke="#191970" points="416.3389,-102.191 426.8571,-100.9184 417.8411,-95.354 416.3389,-102.191"/>
</g>
<!-- Node36&#45;&gt;Node30 -->
<g id="edge15" class="edge">
<title>Node36&#45;&gt;Node30</title>
<path fill="none" stroke="#191970" d="M1063,-184.8962C1063,-172.4433 1063,-158.7413 1063,-147.2299"/>
<polygon fill="#191970" stroke="#191970" points="1059.5001,-184.9872 1063,-194.9872 1066.5001,-184.9873 1059.5001,-184.9872"/>
</g>
<!-- Node36&#45;&gt;Node31 -->
<g id="edge16" class="edge">
<title>Node36&#45;&gt;Node31</title>
<path fill="none" stroke="#191970" d="M1014.7722,-189.4786C993.8823,-175.8251 969.7194,-160.0323 949.8658,-147.0561"/>
<polygon fill="#191970" stroke="#191970" points="1012.9149,-192.4459 1023.2005,-194.9872 1016.7447,-186.5864 1012.9149,-192.4459"/>
</g>
<!-- Node37 -->
<g id="node14" class="node">
<title>Node37</title>
<g id="a_node14"><a xlink:href="../../df/d43/test__ctf__io__tpc_8cxx.html" target="_top" xlink:title="/home/travis/build\l/AliceO2Group/AliceO2\l/Detectors/CTF/test/test\l_ctf_io_tpc.cxx">
<polygon fill="none" stroke="#000000" points="1093.5,-.5 1093.5,-52.5 1224.5,-52.5 1224.5,-.5 1093.5,-.5"/>
<text text-anchor="start" x="1101.5" y="-40.5" font-family="Helvetica,sans-Serif" font-size="10.00" fill="#000000">/home/travis/build</text>
<text text-anchor="start" x="1101.5" y="-29.5" font-family="Helvetica,sans-Serif" font-size="10.00" fill="#000000">/AliceO2Group/AliceO2</text>
<text text-anchor="start" x="1101.5" y="-18.5" font-family="Helvetica,sans-Serif" font-size="10.00" fill="#000000">/Detectors/CTF/test/test</text>
<text text-anchor="middle" x="1159" y="-7.5" font-family="Helvetica,sans-Serif" font-size="10.00" fill="#000000">_ctf_io_tpc.cxx</text>
</a>
</g>
</g>
<!-- Node36&#45;&gt;Node37 -->
<g id="edge14" class="edge">
<title>Node36&#45;&gt;Node37</title>
<path fill="none" stroke="#191970" d="M1109.6672,-188.3116C1120.9235,-178.2391 1131.7737,-166.2638 1139,-153 1156.1262,-121.5649 1159.6213,-79.6356 1159.8569,-52.8451"/>
<polygon fill="#191970" stroke="#191970" points="1107.1906,-185.8236 1101.849,-194.9734 1111.7306,-191.1517 1107.1906,-185.8236"/>
</g>
<!-- Node36&#45;&gt;Node38 -->
<g id="edge17" class="edge">
<title>Node36&#45;&gt;Node38</title>
<path fill="none" stroke="#191970" d="M1147.9297,-191.6126C1186.92,-178.1211 1232.9247,-162.2025 1271.3751,-148.8979"/>
<polygon fill="#191970" stroke="#191970" points="1146.4827,-188.4096 1138.1769,-194.9872 1148.7717,-195.0248 1146.4827,-188.4096"/>
</g>
<!-- Node38&#45;&gt;Node37 -->
<g id="edge18" class="edge">
<title>Node38&#45;&gt;Node37</title>
<path fill="none" stroke="#191970" d="M1278.4653,-84.9947C1256.4256,-74.2032 1232.6891,-62.5809 1212.2265,-52.5617"/>
<polygon fill="#191970" stroke="#191970" points="1276.9451,-88.1473 1287.4655,-89.4015 1280.0234,-81.8605 1276.9451,-88.1473"/>
</g>
<!-- Node39 -->
<g id="node16" class="node">
<title>Node39</title>
<g id="a_node16"><a xlink:href="../../d4/d51/TPC_2reconstruction_2src_2CTFCoder_8cxx.html" target="_top" xlink:title="/home/travis/build\l/AliceO2Group/AliceO2\l/Detectors/TPC/reconstruction\l/src/CTFCoder.cxx">
<polygon fill="none" stroke="#000000" points="1242.5,-.5 1242.5,-52.5 1403.5,-52.5 1403.5,-.5 1242.5,-.5"/>
<text text-anchor="start" x="1250.5" y="-40.5" font-family="Helvetica,sans-Serif" font-size="10.00" fill="#000000">/home/travis/build</text>
<text text-anchor="start" x="1250.5" y="-29.5" font-family="Helvetica,sans-Serif" font-size="10.00" fill="#000000">/AliceO2Group/AliceO2</text>
<text text-anchor="start" x="1250.5" y="-18.5" font-family="Helvetica,sans-Serif" font-size="10.00" fill="#000000">/Detectors/TPC/reconstruction</text>
<text text-anchor="middle" x="1323" y="-7.5" font-family="Helvetica,sans-Serif" font-size="10.00" fill="#000000">/src/CTFCoder.cxx</text>
</a>
</g>
</g>
<!-- Node38&#45;&gt;Node39 -->
<g id="edge19" class="edge">
<title>Node38&#45;&gt;Node39</title>
<path fill="none" stroke="#191970" d="M1339.276,-79.5374C1336.4724,-70.4013 1333.5788,-60.9722 1331.0231,-52.6442"/>
<polygon fill="#191970" stroke="#191970" points="1335.9829,-80.7368 1342.2627,-89.27 1342.6749,-78.6832 1335.9829,-80.7368"/>
</g>
<!-- Node40 -->
<g id="node17" class="node">
<title>Node40</title>
<g id="a_node17"><a xlink:href="../../db/d6d/TPC_2workflow_2src_2EntropyDecoderSpec_8cxx.html" target="_top" xlink:title="/home/travis/build\l/AliceO2Group/AliceO2\l/Detectors/TPC/workflow\l/src/EntropyDecoderSpec.cxx">
<polygon fill="none" stroke="#000000" points="1422,-.5 1422,-52.5 1580,-52.5 1580,-.5 1422,-.5"/>
<text text-anchor="start" x="1430" y="-40.5" font-family="Helvetica,sans-Serif" font-size="10.00" fill="#000000">/home/travis/build</text>
<text text-anchor="start" x="1430" y="-29.5" font-family="Helvetica,sans-Serif" font-size="10.00" fill="#000000">/AliceO2Group/AliceO2</text>
<text text-anchor="start" x="1430" y="-18.5" font-family="Helvetica,sans-Serif" font-size="10.00" fill="#000000">/Detectors/TPC/workflow</text>
<text text-anchor="middle" x="1501" y="-7.5" font-family="Helvetica,sans-Serif" font-size="10.00" fill="#000000">/src/EntropyDecoderSpec.cxx</text>
</a>
</g>
</g>
<!-- Node38&#45;&gt;Node40 -->
<g id="edge20" class="edge">
<title>Node38&#45;&gt;Node40</title>
<path fill="none" stroke="#191970" d="M1410.5231,-83.883C1426.9909,-73.4387 1444.5516,-62.3012 1459.778,-52.6442"/>
<polygon fill="#191970" stroke="#191970" points="1408.5995,-80.9583 1402.0293,-89.27 1412.3487,-86.8697 1408.5995,-80.9583"/>
</g>
<!-- Node41 -->
<g id="node18" class="node">
<title>Node41</title>
<g id="a_node18"><a xlink:href="../../db/dd4/TPC_2workflow_2src_2EntropyEncoderSpec_8cxx.html" target="_top" xlink:title="/home/travis/build\l/AliceO2Group/AliceO2\l/Detectors/TPC/workflow\l/src/EntropyEncoderSpec.cxx">
<polygon fill="none" stroke="#000000" points="1598.5,-.5 1598.5,-52.5 1755.5,-52.5 1755.5,-.5 1598.5,-.5"/>
<text text-anchor="start" x="1606.5" y="-40.5" font-family="Helvetica,sans-Serif" font-size="10.00" fill="#000000">/home/travis/build</text>
<text text-anchor="start" x="1606.5" y="-29.5" font-family="Helvetica,sans-Serif" font-size="10.00" fill="#000000">/AliceO2Group/AliceO2</text>
<text text-anchor="start" x="1606.5" y="-18.5" font-family="Helvetica,sans-Serif" font-size="10.00" fill="#000000">/Detectors/TPC/workflow</text>
<text text-anchor="middle" x="1677" y="-7.5" font-family="Helvetica,sans-Serif" font-size="10.00" fill="#000000">/src/EntropyEncoderSpec.cxx</text>
</a>
</g>
</g>
<!-- Node38&#45;&gt;Node41 -->
<g id="edge21" class="edge">
<title>Node38&#45;&gt;Node41</title>
<path fill="none" stroke="#191970" d="M1442.5574,-95.3177C1486.7623,-82.7045 1540.7021,-67.2003 1589,-53 1592.0615,-52.0999 1595.1818,-51.1786 1598.3329,-50.2451"/>
<polygon fill="#191970" stroke="#191970" points="1441.3583,-92.02 1432.7014,-98.1281 1443.2778,-98.7517 1441.3583,-92.02"/>
</g>
</g>
</svg>
