<?xml version="1.0" encoding="UTF-8" standalone="no"?>
<!DOCTYPE svg PUBLIC "-//W3C//DTD SVG 1.1//EN"
 "http://www.w3.org/Graphics/SVG/1.1/DTD/svg11.dtd">
<!-- Generated by graphviz version 2.40.1 (20161225.0304)
 -->
<!-- Title: /home/travis/build/AliceO2Group/AliceO2/Utilities/rANS/include/rANS/Encoder.h Pages: 1 -->
<!--zoomable 285 -->
<svg id="main" version="1.1" xmlns="http://www.w3.org/2000/svg" xmlns:xlink="http://www.w3.org/1999/xlink" xml:space="preserve" onload="init(evt)">
<style type="text/css"><![CDATA[
.edge:hover path { stroke: red; }
.edge:hover polygon { stroke: red; fill: red; }
]]></style>
<script type="text/javascript"><![CDATA[
var edges = document.getElementsByTagName('g');
if (edges && edges.length) {
  for (var i=0;i<edges.length;i++) {
    if (edges[i].id.substr(0,4)=='edge') {
      edges[i].setAttribute('class','edge');
    }
  }
}
]]></script>
        <defs>
                <circle id="rim" cx="0" cy="0" r="7"/>
                <circle id="rim2" cx="0" cy="0" r="3.5"/>
                <g id="zoomPlus">
                        <use xlink:href="#rim" fill="#404040">
                                <set attributeName="fill" to="#808080" begin="zoomplus.mouseover" end="zoomplus.mouseout"/>
                        </use>
                        <path d="M-4,0h8M0,-4v8" fill="none" stroke="white" stroke-width="1.5" pointer-events="none"/>
                </g>
                <g id="zoomMin">
                        <use xlink:href="#rim" fill="#404040">
                                <set attributeName="fill" to="#808080" begin="zoomminus.mouseover" end="zoomminus.mouseout"/>
                        </use>
                        <path d="M-4,0h8" fill="none" stroke="white" stroke-width="1.5" pointer-events="none"/>
                </g>
                <g id="dirArrow">
                        <path fill="none" stroke="white" stroke-width="1.5" d="M0,-3.0v7 M-2.5,-0.5L0,-3.0L2.5,-0.5"/>
                </g>
               <g id="resetDef">
                       <use xlink:href="#rim2" fill="#404040">
                               <set attributeName="fill" to="#808080" begin="reset.mouseover" end="reset.mouseout"/>
                       </use>
               </g>
        </defs>

<script type="text/javascript">
var viewWidth = 1000;
var viewHeight = 285;
var sectionId = 'dynsection-0';
</script>
<script xlink:href="../../svgpan.js"/>
<svg id="graph" class="graph">
<g id="viewport">
<title>/home/travis/build/AliceO2Group/AliceO2/Utilities/rANS/include/rANS/Encoder.h</title>
<!-- Node0 -->
<g id="node1" class="node">
<title>Node0</title>
<polygon fill="#bfbfbf" stroke="#000000" points="311.5,-224.5 311.5,-276.5 438.5,-276.5 438.5,-224.5 311.5,-224.5"/>
<text text-anchor="start" x="319.5" y="-264.5" font-family="Helvetica,sans-Serif" font-size="10.00" fill="#000000">/home/travis/build</text>
<text text-anchor="start" x="319.5" y="-253.5" font-family="Helvetica,sans-Serif" font-size="10.00" fill="#000000">/AliceO2Group/AliceO2</text>
<text text-anchor="start" x="319.5" y="-242.5" font-family="Helvetica,sans-Serif" font-size="10.00" fill="#000000">/Utilities/rANS/include</text>
<text text-anchor="middle" x="375" y="-231.5" font-family="Helvetica,sans-Serif" font-size="10.00" fill="#000000">/rANS/Encoder.h</text>
</g>
<!-- Node1 -->
<g id="node2" class="node">
<title>Node1</title>
<polygon fill="none" stroke="#bfbfbf" points="120,-168.5 120,-187.5 178,-187.5 178,-168.5 120,-168.5"/>
<text text-anchor="middle" x="149" y="-175.5" font-family="Helvetica,sans-Serif" font-size="10.00" fill="#000000">memory</text>
</g>
<!-- Node0&#45;&gt;Node1 -->
<g id="edge1" class="edge">
<title>Node0&#45;&gt;Node1</title>
<path fill="none" stroke="#191970" d="M311.445,-230.1118C271.6378,-217.3418 221.6333,-201.3005 187.6937,-190.4128"/>
<polygon fill="#191970" stroke="#191970" points="188.729,-187.0693 178.1379,-187.3473 186.5907,-193.7347 188.729,-187.0693"/>
</g>
<!-- Node2 -->
<g id="node3" class="node">
<title>Node2</title>
<polygon fill="none" stroke="#bfbfbf" points="0,-56.5 0,-75.5 64,-75.5 64,-56.5 0,-56.5"/>
<text text-anchor="middle" x="32" y="-63.5" font-family="Helvetica,sans-Serif" font-size="10.00" fill="#000000">algorithm</text>
</g>
<!-- Node0&#45;&gt;Node2 -->
<g id="edge2" class="edge">
<title>Node0&#45;&gt;Node2</title>
<path fill="none" stroke="#191970" d="M326.584,-224.457C253.2899,-185.032 116.604,-111.5085 58.8548,-80.4452"/>
<polygon fill="#191970" stroke="#191970" points="60.4334,-77.3201 49.9686,-75.6653 57.1173,-83.4849 60.4334,-77.3201"/>
</g>
<!-- Node3 -->
<g id="node4" class="node">
<title>Node3</title>
<polygon fill="none" stroke="#bfbfbf" points="82,-56.5 82,-75.5 190,-75.5 190,-56.5 82,-56.5"/>
<text text-anchor="middle" x="136" y="-63.5" font-family="Helvetica,sans-Serif" font-size="10.00" fill="#000000">fairlogger/Logger.h</text>
</g>
<!-- Node0&#45;&gt;Node3 -->
<g id="edge3" class="edge">
<title>Node0&#45;&gt;Node3</title>
<path fill="none" stroke="#191970" d="M333.5513,-224.4744C318.0024,-213.9337 300.5802,-201.1526 286,-188 252.7819,-158.0343 254.8322,-140.0731 220,-112 204.0919,-99.1789 184.1015,-88.0674 167.6132,-79.9785"/>
<polygon fill="#191970" stroke="#191970" points="168.9005,-76.7149 158.3672,-75.575 165.8906,-83.0348 168.9005,-76.7149"/>
</g>
<!-- Node4 -->
<g id="node5" class="node">
<title>Node4</title>
<polygon fill="none" stroke="#bfbfbf" points="295.5,-168.5 295.5,-187.5 360.5,-187.5 360.5,-168.5 295.5,-168.5"/>
<text text-anchor="middle" x="328" y="-175.5" font-family="Helvetica,sans-Serif" font-size="10.00" fill="#000000">stdexcept</text>
</g>
<!-- Node0&#45;&gt;Node4 -->
<g id="edge4" class="edge">
<title>Node0&#45;&gt;Node4</title>
<path fill="none" stroke="#191970" d="M358.0319,-224.3258C351.93,-214.9134 345.1899,-204.5164 339.6437,-195.961"/>
<polygon fill="#191970" stroke="#191970" points="342.5573,-194.0211 334.1807,-187.534 336.6835,-197.829 342.5573,-194.0211"/>
</g>
<!-- Node5 -->
<g id="node6" class="node">
<title>Node5</title>
<g id="a_node6"><a xlink:href="../../d8/dd9/SymbolTable_8h.html" target="_top" xlink:title="Container for information needed to encode/decode a symbol of the alphabet. ">
<polygon fill="none" stroke="#000000" points="379,-168.5 379,-187.5 467,-187.5 467,-168.5 379,-168.5"/>
<text text-anchor="middle" x="423" y="-175.5" font-family="Helvetica,sans-Serif" font-size="10.00" fill="#000000">SymbolTable.h</text>
</a>
</g>
</g>
<!-- Node0&#45;&gt;Node5 -->
<g id="edge5" class="edge">
<title>Node0&#45;&gt;Node5</title>
<path fill="none" stroke="#191970" d="M392.3291,-224.3258C398.5608,-214.9134 405.4443,-204.5164 411.1086,-195.961"/>
<polygon fill="#191970" stroke="#191970" points="414.0857,-197.8043 416.6878,-187.534 408.249,-193.94 414.0857,-197.8043"/>
</g>
<!-- Node14 -->
<g id="node15" class="node">
<title>Node14</title>
<g id="a_node15"><a xlink:href="../../d4/da1/helper_8h.html" target="_top" xlink:title="various helper functions ">
<polygon fill="none" stroke="#000000" points="536,-56.5 536,-75.5 592,-75.5 592,-56.5 536,-56.5"/>
<text text-anchor="middle" x="564" y="-63.5" font-family="Helvetica,sans-Serif" font-size="10.00" fill="#000000">helper.h</text>
</a>
</g>
</g>
<!-- Node0&#45;&gt;Node14 -->
<g id="edge35" class="edge">
<title>Node0&#45;&gt;Node14</title>
<path fill="none" stroke="#191970" d="M425.7735,-224.3599C442.7613,-214.2889 461.1389,-201.8452 476,-188 509.9064,-156.4114 539.0884,-109.9988 553.8049,-84.4893"/>
<polygon fill="#191970" stroke="#191970" points="557.0017,-85.9466 558.8781,-75.5193 550.9086,-82.5006 557.0017,-85.9466"/>
</g>
<!-- Node17 -->
<g id="node18" class="node">
<title>Node17</title>
<g id="a_node18"><a xlink:href="../../d2/d53/EncoderSymbol_8h.html" target="_top" xlink:title="Structure containing all relevant information to encode a symbol. ">
<polygon fill="none" stroke="#000000" points="588.5,-112.5 588.5,-131.5 689.5,-131.5 689.5,-112.5 588.5,-112.5"/>
<text text-anchor="middle" x="639" y="-119.5" font-family="Helvetica,sans-Serif" font-size="10.00" fill="#000000">EncoderSymbol.h</text>
</a>
</g>
</g>
<!-- Node0&#45;&gt;Node17 -->
<g id="edge22" class="edge">
<title>Node0&#45;&gt;Node17</title>
<path fill="none" stroke="#191970" d="M438.5775,-229.1446C468.7175,-218.1872 504.8579,-203.8222 536,-188 565.5237,-173.0001 597.294,-151.7876 617.6212,-137.4953"/>
<polygon fill="#191970" stroke="#191970" points="619.7258,-140.2935 625.8493,-131.6475 615.6706,-134.5877 619.7258,-140.2935"/>
</g>
<!-- Node18 -->
<g id="node19" class="node">
<title>Node18</title>
<g id="a_node19"><a xlink:href="../../d5/d7a/Coder_8h.html" target="_top" xlink:title="Stateless class for coding and decoding symbols using rANS. ">
<polygon fill="none" stroke="#000000" points="645.5,-168.5 645.5,-187.5 698.5,-187.5 698.5,-168.5 645.5,-168.5"/>
<text text-anchor="middle" x="672" y="-175.5" font-family="Helvetica,sans-Serif" font-size="10.00" fill="#000000">Coder.h</text>
</a>
</g>
</g>
<!-- Node0&#45;&gt;Node18 -->
<g id="edge26" class="edge">
<title>Node0&#45;&gt;Node18</title>
<path fill="none" stroke="#191970" d="M438.714,-234.9469C498.705,-220.3027 586.4587,-198.8813 635.4557,-186.9207"/>
<polygon fill="#191970" stroke="#191970" points="636.4142,-190.2896 645.2989,-184.5179 634.7542,-183.4893 636.4142,-190.2896"/>
</g>
<!-- Node5&#45;&gt;Node3 -->
<g id="edge8" class="edge">
<title>Node5&#45;&gt;Node3</title>
<path fill="none" stroke="#191970" d="M395.6351,-168.3454C370.757,-159.4117 333.1355,-145.5094 301,-132 281.5699,-123.8318 277.4301,-120.1682 258,-112 229.7559,-100.1265 197.274,-87.9495 172.9309,-79.1091"/>
<polygon fill="#191970" stroke="#191970" points="173.9592,-75.7593 163.3649,-75.6546 171.5816,-82.3431 173.9592,-75.7593"/>
</g>
<!-- Node6 -->
<g id="node7" class="node">
<title>Node6</title>
<polygon fill="none" stroke="#bfbfbf" points="470.5,-56.5 470.5,-75.5 517.5,-75.5 517.5,-56.5 470.5,-56.5"/>
<text text-anchor="middle" x="494" y="-63.5" font-family="Helvetica,sans-Serif" font-size="10.00" fill="#000000">vector</text>
</g>
<!-- Node5&#45;&gt;Node6 -->
<g id="edge6" class="edge">
<title>Node5&#45;&gt;Node6</title>
<path fill="none" stroke="#191970" d="M429.0534,-168.4509C440.8954,-149.7707 467.2965,-108.1238 482.541,-84.0761"/>
<polygon fill="#191970" stroke="#191970" points="485.5638,-85.8448 487.9619,-75.5249 479.6517,-82.0969 485.5638,-85.8448"/>
</g>
<!-- Node7 -->
<g id="node8" class="node">
<title>Node7</title>
<polygon fill="none" stroke="#bfbfbf" points="795,-56.5 795,-75.5 845,-75.5 845,-56.5 795,-56.5"/>
<text text-anchor="middle" x="820" y="-63.5" font-family="Helvetica,sans-Serif" font-size="10.00" fill="#000000">cstdint</text>
</g>
<!-- Node5&#45;&gt;Node7 -->
<g id="edge7" class="edge">
<title>Node5&#45;&gt;Node7</title>
<path fill="none" stroke="#191970" d="M467.1347,-175.1948C522.5759,-170.6496 620.0159,-159.2525 699,-132 735.5439,-119.391 774.1527,-96.4117 797.6664,-81.1725"/>
<polygon fill="#191970" stroke="#191970" points="799.7673,-83.9797 806.1922,-75.5553 795.9161,-78.1344 799.7673,-83.9797"/>
</g>
<!-- Node8 -->
<g id="node9" class="node">
<title>Node8</title>
<g id="a_node9"><a xlink:href="../../d0/d51/SymbolStatistics_8h.html" target="_top" xlink:title="Structure to depict the distribution of symbols in the source message. ">
<polygon fill="none" stroke="#000000" points="310.5,-112.5 310.5,-131.5 417.5,-131.5 417.5,-112.5 310.5,-112.5"/>
<text text-anchor="middle" x="364" y="-119.5" font-family="Helvetica,sans-Serif" font-size="10.00" fill="#000000">SymbolStatistics.h</text>
</a>
</g>
</g>
<!-- Node5&#45;&gt;Node8 -->
<g id="edge9" class="edge">
<title>Node5&#45;&gt;Node8</title>
<path fill="none" stroke="#191970" d="M412.723,-168.2455C404.1782,-160.1352 391.8222,-148.4075 381.6915,-138.7919"/>
<polygon fill="#191970" stroke="#191970" points="383.8218,-135.9884 374.1592,-131.6427 379.0028,-141.0655 383.8218,-135.9884"/>
</g>
<!-- Node8&#45;&gt;Node2 -->
<g id="edge10" class="edge">
<title>Node8&#45;&gt;Node2</title>
<path fill="none" stroke="#191970" d="M310.3975,-114.8776C253.9491,-107.0744 162.2909,-93.5482 74.0771,-76.0922"/>
<polygon fill="#191970" stroke="#191970" points="74.6651,-72.6406 64.173,-74.1126 73.293,-79.5048 74.6651,-72.6406"/>
</g>
<!-- Node8&#45;&gt;Node3 -->
<g id="edge17" class="edge">
<title>Node8&#45;&gt;Node3</title>
<path fill="none" stroke="#191970" d="M325.0645,-112.4369C286.208,-102.8932 226.407,-88.2052 184.4911,-77.9101"/>
<polygon fill="#191970" stroke="#191970" points="185.3212,-74.51 174.7749,-75.5237 183.6514,-81.308 185.3212,-74.51"/>
</g>
<!-- Node8&#45;&gt;Node6 -->
<g id="edge14" class="edge">
<title>Node8&#45;&gt;Node6</title>
<path fill="none" stroke="#191970" d="M386.3478,-112.3733C407.4033,-103.3032 439.1495,-89.6279 462.7175,-79.4755"/>
<polygon fill="#191970" stroke="#191970" points="464.1444,-82.6719 471.9438,-75.5011 461.375,-76.243 464.1444,-82.6719"/>
</g>
<!-- Node9 -->
<g id="node10" class="node">
<title>Node9</title>
<polygon fill="none" stroke="#bfbfbf" points="613,-56.5 613,-75.5 665,-75.5 665,-56.5 613,-56.5"/>
<text text-anchor="middle" x="639" y="-63.5" font-family="Helvetica,sans-Serif" font-size="10.00" fill="#000000">cassert</text>
</g>
<!-- Node8&#45;&gt;Node9 -->
<g id="edge11" class="edge">
<title>Node8&#45;&gt;Node9</title>
<path fill="none" stroke="#191970" d="M417.8631,-112.5862C466.0374,-103.9195 538.4815,-90.2771 601,-76 601.6027,-75.8624 602.2104,-75.7219 602.8219,-75.5791"/>
<polygon fill="#191970" stroke="#191970" points="604.0107,-78.8914 612.8903,-73.1118 602.3446,-72.0926 604.0107,-78.8914"/>
</g>
<!-- Node10 -->
<g id="node11" class="node">
<title>Node10</title>
<polygon fill="none" stroke="#bfbfbf" points="280,-56.5 280,-75.5 340,-75.5 340,-56.5 280,-56.5"/>
<text text-anchor="middle" x="310" y="-63.5" font-family="Helvetica,sans-Serif" font-size="10.00" fill="#000000">iostream</text>
</g>
<!-- Node8&#45;&gt;Node10 -->
<g id="edge12" class="edge">
<title>Node8&#45;&gt;Node10</title>
<path fill="none" stroke="#191970" d="M354.5939,-112.2455C346.8507,-104.2155 335.688,-92.6394 326.4682,-83.0781"/>
<polygon fill="#191970" stroke="#191970" points="328.7591,-80.4117 319.2983,-75.6427 323.7202,-85.2706 328.7591,-80.4117"/>
</g>
<!-- Node11 -->
<g id="node12" class="node">
<title>Node11</title>
<polygon fill="none" stroke="#bfbfbf" points="358,-56.5 358,-75.5 414,-75.5 414,-56.5 358,-56.5"/>
<text text-anchor="middle" x="386" y="-63.5" font-family="Helvetica,sans-Serif" font-size="10.00" fill="#000000">numeric</text>
</g>
<!-- Node8&#45;&gt;Node11 -->
<g id="edge13" class="edge">
<title>Node8&#45;&gt;Node11</title>
<path fill="none" stroke="#191970" d="M367.8321,-112.2455C370.7659,-104.7776 374.9047,-94.2427 378.491,-85.1137"/>
<polygon fill="#191970" stroke="#191970" points="381.8129,-86.23 382.2118,-75.6427 375.2976,-83.6704 381.8129,-86.23"/>
</g>
<!-- Node12 -->
<g id="node13" class="node">
<title>Node12</title>
<polygon fill="none" stroke="#bfbfbf" points="445.5,-.5 445.5,-19.5 492.5,-19.5 492.5,-.5 445.5,-.5"/>
<text text-anchor="middle" x="469" y="-7.5" font-family="Helvetica,sans-Serif" font-size="10.00" fill="#000000">cmath</text>
</g>
<!-- Node8&#45;&gt;Node12 -->
<g id="edge15" class="edge">
<title>Node8&#45;&gt;Node12</title>
<path fill="none" stroke="#191970" d="M378.576,-112.4872C391.1653,-103.8587 409.4186,-90.3285 423,-76 436.8959,-61.3397 449.7723,-42.1793 458.3462,-28.2824"/>
<polygon fill="#191970" stroke="#191970" points="461.3999,-29.9959 463.5542,-19.6224 455.4011,-26.3883 461.3999,-29.9959"/>
</g>
<!-- Node13 -->
<g id="node14" class="node">
<title>Node13</title>
<polygon fill="none" stroke="#bfbfbf" points="208.5,-56.5 208.5,-75.5 261.5,-75.5 261.5,-56.5 208.5,-56.5"/>
<text text-anchor="middle" x="235" y="-63.5" font-family="Helvetica,sans-Serif" font-size="10.00" fill="#000000">iterator</text>
</g>
<!-- Node8&#45;&gt;Node13 -->
<g id="edge16" class="edge">
<title>Node8&#45;&gt;Node13</title>
<path fill="none" stroke="#191970" d="M341.8241,-112.3733C321.0234,-103.3435 289.7083,-89.7494 266.3542,-79.6111"/>
<polygon fill="#191970" stroke="#191970" points="267.4532,-76.2727 256.8865,-75.5011 264.6657,-82.6938 267.4532,-76.2727"/>
</g>
<!-- Node8&#45;&gt;Node14 -->
<g id="edge18" class="edge">
<title>Node8&#45;&gt;Node14</title>
<path fill="none" stroke="#191970" d="M398.3812,-112.3733C433.9077,-102.4259 489.217,-86.9393 526.0152,-76.6358"/>
<polygon fill="#191970" stroke="#191970" points="527.1855,-79.9427 535.8714,-73.876 525.2981,-73.202 527.1855,-79.9427"/>
</g>
<!-- Node14&#45;&gt;Node12 -->
<g id="edge20" class="edge">
<title>Node14&#45;&gt;Node12</title>
<path fill="none" stroke="#191970" d="M547.4523,-56.2455C532.7401,-47.5731 511.0112,-34.7645 494.1495,-24.825"/>
<polygon fill="#191970" stroke="#191970" points="495.7502,-21.7057 485.3581,-19.6427 492.1954,-27.736 495.7502,-21.7057"/>
</g>
<!-- Node15 -->
<g id="node16" class="node">
<title>Node15</title>
<polygon fill="none" stroke="#bfbfbf" points="593.5,-.5 593.5,-19.5 646.5,-19.5 646.5,-.5 593.5,-.5"/>
<text text-anchor="middle" x="620" y="-7.5" font-family="Helvetica,sans-Serif" font-size="10.00" fill="#000000">cstddef</text>
</g>
<!-- Node14&#45;&gt;Node15 -->
<g id="edge19" class="edge">
<title>Node14&#45;&gt;Node15</title>
<path fill="none" stroke="#191970" d="M573.7545,-56.2455C581.8648,-48.1352 593.5925,-36.4075 603.2081,-26.7919"/>
<polygon fill="#191970" stroke="#191970" points="605.7611,-29.1887 610.3573,-19.6427 600.8113,-24.2389 605.7611,-29.1887"/>
</g>
<!-- Node16 -->
<g id="node17" class="node">
<title>Node16</title>
<polygon fill="none" stroke="#bfbfbf" points="525,-.5 525,-19.5 575,-19.5 575,-.5 525,-.5"/>
<text text-anchor="middle" x="550" y="-7.5" font-family="Helvetica,sans-Serif" font-size="10.00" fill="#000000">chrono</text>
</g>
<!-- Node14&#45;&gt;Node16 -->
<g id="edge21" class="edge">
<title>Node14&#45;&gt;Node16</title>
<path fill="none" stroke="#191970" d="M561.5614,-56.2455C559.7145,-48.8579 557.1172,-38.4689 554.8522,-29.4087"/>
<polygon fill="#191970" stroke="#191970" points="558.2316,-28.4952 552.4107,-19.6427 551.4406,-30.193 558.2316,-28.4952"/>
</g>
<!-- Node17&#45;&gt;Node7 -->
<g id="edge23" class="edge">
<title>Node17&#45;&gt;Node7</title>
<path fill="none" stroke="#191970" d="M670.115,-112.3733C702.0832,-102.4825 751.7515,-87.1156 785.0528,-76.8124"/>
<polygon fill="#191970" stroke="#191970" points="786.3058,-80.0885 794.8245,-73.7891 784.2368,-73.4012 786.3058,-80.0885"/>
</g>
<!-- Node17&#45;&gt;Node9 -->
<g id="edge24" class="edge">
<title>Node17&#45;&gt;Node9</title>
<path fill="none" stroke="#191970" d="M639,-112.2455C639,-104.9382 639,-94.6944 639,-85.7046"/>
<polygon fill="#191970" stroke="#191970" points="642.5001,-85.6426 639,-75.6427 635.5001,-85.6427 642.5001,-85.6426"/>
</g>
<!-- Node17&#45;&gt;Node14 -->
<g id="edge25" class="edge">
<title>Node17&#45;&gt;Node14</title>
<path fill="none" stroke="#191970" d="M625.936,-112.2455C614.6438,-103.814 598.1155,-91.4729 584.9729,-81.6598"/>
<polygon fill="#191970" stroke="#191970" points="587.0211,-78.8211 576.9143,-75.6427 582.8331,-84.4301 587.0211,-78.8211"/>
</g>
<!-- Node18&#45;&gt;Node6 -->
<g id="edge27" class="edge">
<title>Node18&#45;&gt;Node6</title>
<path fill="none" stroke="#191970" d="M645.2278,-169.3876C622.7801,-161.5046 590.4123,-148.5575 565,-132 543.783,-118.1759 522.9789,-97.8014 509.4322,-83.3526"/>
<polygon fill="#191970" stroke="#191970" points="511.6843,-80.6299 502.3464,-75.6244 506.5247,-85.3606 511.6843,-80.6299"/>
</g>
<!-- Node18&#45;&gt;Node7 -->
<g id="edge28" class="edge">
<title>Node18&#45;&gt;Node7</title>
<path fill="none" stroke="#191970" d="M698.5707,-176.0478C770.5866,-170.4892 965.3716,-153.5763 984,-132 1022.0311,-87.9506 913.7515,-72.9461 855.0369,-68.1264"/>
<polygon fill="#191970" stroke="#191970" points="855.2766,-64.6346 845.0395,-67.3643 854.7445,-71.6144 855.2766,-64.6346"/>
</g>
<!-- Node18&#45;&gt;Node9 -->
<g id="edge29" class="edge">
<title>Node18&#45;&gt;Node9</title>
<path fill="none" stroke="#191970" d="M681.0867,-168.417C692.2639,-155.4077 708.6411,-131.5399 699,-112 692.5207,-98.8681 680.2938,-88.4457 668.5593,-80.8651"/>
<polygon fill="#191970" stroke="#191970" points="670.1652,-77.7475 659.7852,-75.6244 666.5756,-83.7572 670.1652,-77.7475"/>
</g>
<!-- Node18&#45;&gt;Node14 -->
<g id="edge34" class="edge">
<title>Node18&#45;&gt;Node14</title>
<path fill="none" stroke="#191970" d="M645.484,-171.3857C624.6402,-164.8188 596.4637,-152.6747 580,-132 569.5684,-118.9002 565.7869,-100.0205 564.4874,-85.8067"/>
<polygon fill="#191970" stroke="#191970" points="567.9692,-85.3886 563.8977,-75.6073 560.9808,-85.7927 567.9692,-85.3886"/>
</g>
<!-- Node18&#45;&gt;Node17 -->
<g id="edge33" class="edge">
<title>Node18&#45;&gt;Node17</title>
<path fill="none" stroke="#191970" d="M666.2518,-168.2455C661.7565,-160.617 655.3752,-149.7881 649.9175,-140.5267"/>
<polygon fill="#191970" stroke="#191970" points="652.7747,-138.4811 644.6823,-131.6427 646.7439,-142.035 652.7747,-138.4811"/>
</g>
<!-- Node19 -->
<g id="node20" class="node">
<title>Node19</title>
<polygon fill="none" stroke="#bfbfbf" points="784.5,-112.5 784.5,-131.5 853.5,-131.5 853.5,-112.5 784.5,-112.5"/>
<text text-anchor="middle" x="819" y="-119.5" font-family="Helvetica,sans-Serif" font-size="10.00" fill="#000000">type_traits</text>
</g>
<!-- Node18&#45;&gt;Node19 -->
<g id="edge30" class="edge">
<title>Node18&#45;&gt;Node19</title>
<path fill="none" stroke="#191970" d="M697.2702,-168.3733C721.3966,-159.1822 757.9362,-145.2624 784.6877,-135.0713"/>
<polygon fill="#191970" stroke="#191970" points="785.9607,-138.3318 794.0596,-131.5011 783.4687,-131.7904 785.9607,-138.3318"/>
</g>
<!-- Node20 -->
<g id="node21" class="node">
<title>Node20</title>
<g id="a_node21"><a xlink:href="../../d7/d99/DecoderSymbol_8h.html" target="_top" xlink:title="Structure containing all relevant information for decoding a rANS encoded symbol. ...">
<polygon fill="none" stroke="#000000" points="871.5,-112.5 871.5,-131.5 974.5,-131.5 974.5,-112.5 871.5,-112.5"/>
<text text-anchor="middle" x="923" y="-119.5" font-family="Helvetica,sans-Serif" font-size="10.00" fill="#000000">DecoderSymbol.h</text>
</a>
</g>
</g>
<!-- Node18&#45;&gt;Node20 -->
<g id="edge31" class="edge">
<title>Node18&#45;&gt;Node20</title>
<path fill="none" stroke="#191970" d="M698.8614,-172.007C739.6132,-162.915 817.8499,-145.4598 870.2469,-133.7696"/>
<polygon fill="#191970" stroke="#191970" points="871.0409,-137.1786 880.0388,-131.585 869.5166,-130.3466 871.0409,-137.1786"/>
</g>
<!-- Node20&#45;&gt;Node7 -->
<g id="edge32" class="edge">
<title>Node20&#45;&gt;Node7</title>
<path fill="none" stroke="#191970" d="M905.0588,-112.2455C888.96,-103.4928 865.1121,-90.527 846.7609,-80.5496"/>
<polygon fill="#191970" stroke="#191970" points="848.1929,-77.3444 837.7356,-75.6427 844.8493,-83.4942 848.1929,-77.3444"/>
</g>
</g>
</svg>
        <g id="navigator" transform="translate(0 0)" fill="#404254">
                <rect fill="#f2f5e9" fill-opacity="0.5" stroke="#606060" stroke-width=".5" x="0" y="0" width="60" height="60"/>
                <use id="zoomplus" xlink:href="#zoomPlus" x="17" y="9" onmousedown="handleZoom(evt,'in')"/>
                <use id="zoomminus" xlink:href="#zoomMin" x="42" y="9" onmousedown="handleZoom(evt,'out')"/>
                <use id="reset" xlink:href="#resetDef" x="30" y="36" onmousedown="handleReset()"/>
                <g id="arrowUp" xlink:href="#dirArrow" transform="translate(30 24)" onmousedown="handlePan(0,-1)">
                  <use xlink:href="#rim" fill="#404040">
                        <set attributeName="fill" to="#808080" begin="arrowUp.mouseover" end="arrowUp.mouseout"/>
                  </use>
                  <path fill="none" stroke="white" stroke-width="1.5" d="M0,-3.0v7 M-2.5,-0.5L0,-3.0L2.5,-0.5"/>
                </g>
                <g id="arrowRight" xlink:href="#dirArrow" transform="rotate(90) translate(36 -43)" onmousedown="handlePan(1,0)">
                  <use xlink:href="#rim" fill="#404040">
                        <set attributeName="fill" to="#808080" begin="arrowRight.mouseover" end="arrowRight.mouseout"/>
                  </use>
                  <path fill="none" stroke="white" stroke-width="1.5" d="M0,-3.0v7 M-2.5,-0.5L0,-3.0L2.5,-0.5"/>
                </g>
                <g id="arrowDown" xlink:href="#dirArrow" transform="rotate(180) translate(-30 -48)" onmousedown="handlePan(0,1)">
                  <use xlink:href="#rim" fill="#404040">
                        <set attributeName="fill" to="#808080" begin="arrowDown.mouseover" end="arrowDown.mouseout"/>
                  </use>
                  <path fill="none" stroke="white" stroke-width="1.5" d="M0,-3.0v7 M-2.5,-0.5L0,-3.0L2.5,-0.5"/>
                </g>
                <g id="arrowLeft" xlink:href="#dirArrow" transform="rotate(270) translate(-36 17)" onmousedown="handlePan(-1,0)">
                  <use xlink:href="#rim" fill="#404040">
                        <set attributeName="fill" to="#808080" begin="arrowLeft.mouseover" end="arrowLeft.mouseout"/>
                  </use>
                  <path fill="none" stroke="white" stroke-width="1.5" d="M0,-3.0v7 M-2.5,-0.5L0,-3.0L2.5,-0.5"/>
                </g>
        </g>
        <svg viewBox="0 0 15 15" width="100%" height="30px" preserveAspectRatio="xMaxYMin meet">
         <g id="arrow_out" transform="scale(0.3 0.3)">
          <a xlink:href="Utilities_2rANS_2include_2rANS_2Encoder_8h__incl_org.svg" target="_base">
           <rect id="button" ry="5" rx="5" y="6" x="6" height="38" width="38"
                fill="#f2f5e9" fill-opacity="0.5" stroke="#606060" stroke-width="1.0"/>
           <path id="arrow"
             d="M 11.500037,31.436501 C 11.940474,20.09759 22.043105,11.32322 32.158766,21.979434 L 37.068811,17.246167 C 37.068811,17.246167 37.088388,32 37.088388,32 L 22.160133,31.978069 C 22.160133,31.978069 26.997745,27.140456 26.997745,27.140456 C 18.528582,18.264221 13.291696,25.230495 11.500037,31.436501 z"
             style="fill:#404040;"/>
          </a>
         </g>
        </svg>
</svg>
