<?xml version="1.0" encoding="UTF-8" standalone="no"?>
<!DOCTYPE svg PUBLIC "-//W3C//DTD SVG 1.1//EN"
 "http://www.w3.org/Graphics/SVG/1.1/DTD/svg11.dtd">
<!-- Generated by graphviz version 2.40.1 (20161225.0304)
 -->
<!-- Title: /home/travis/build/AliceO2Group/AliceO2/Detectors/Calibration/include/DetectorsCalibration/TimeSlotCalibration.h Pages: 1 -->
<svg width="304pt" height="195pt"
 viewBox="0.00 0.00 304.00 195.00" xmlns="http://www.w3.org/2000/svg" xmlns:xlink="http://www.w3.org/1999/xlink">
<g id="graph0" class="graph" transform="scale(1 1) rotate(0) translate(4 191)">
<title>/home/travis/build/AliceO2Group/AliceO2/Detectors/Calibration/include/DetectorsCalibration/TimeSlotCalibration.h</title>
<!-- Node0 -->
<g id="node1" class="node">
<title>Node0</title>
<polygon fill="#bfbfbf" stroke="#000000" points="127,-123.5 127,-186.5 285,-186.5 285,-123.5 127,-123.5"/>
<text text-anchor="start" x="135" y="-174.5" font-family="Helvetica,sans-Serif" font-size="10.00" fill="#000000">/home/travis/build</text>
<text text-anchor="start" x="135" y="-163.5" font-family="Helvetica,sans-Serif" font-size="10.00" fill="#000000">/AliceO2Group/AliceO2</text>
<text text-anchor="start" x="135" y="-152.5" font-family="Helvetica,sans-Serif" font-size="10.00" fill="#000000">/Detectors/Calibration</text>
<text text-anchor="start" x="135" y="-141.5" font-family="Helvetica,sans-Serif" font-size="10.00" fill="#000000">/include/DetectorsCalibration</text>
<text text-anchor="middle" x="206" y="-130.5" font-family="Helvetica,sans-Serif" font-size="10.00" fill="#000000">/TimeSlotCalibration.h</text>
</g>
<!-- Node1 -->
<g id="node2" class="node">
<title>Node1</title>
<g id="a_node2"><a xlink:href="../../dd/d77/TimeSlot_8h.html" target="_top" xlink:title="DetectorsCalibration\l/TimeSlot.h">
<polygon fill="none" stroke="#000000" points="47.5,-56.5 47.5,-86.5 164.5,-86.5 164.5,-56.5 47.5,-56.5"/>
<text text-anchor="start" x="55.5" y="-74.5" font-family="Helvetica,sans-Serif" font-size="10.00" fill="#000000">DetectorsCalibration</text>
<text text-anchor="middle" x="106" y="-63.5" font-family="Helvetica,sans-Serif" font-size="10.00" fill="#000000">/TimeSlot.h</text>
</a>
</g>
</g>
<!-- Node0&#45;&gt;Node1 -->
<g id="edge1" class="edge">
<title>Node0&#45;&gt;Node1</title>
<path fill="none" stroke="#191970" d="M168.1943,-123.4322C156.1179,-113.3484 143.0308,-102.4207 131.9912,-93.2026"/>
<polygon fill="#191970" stroke="#191970" points="133.9181,-90.2519 123.9989,-86.5291 129.4316,-95.6251 133.9181,-90.2519"/>
</g>
<!-- Node5 -->
<g id="node6" class="node">
<title>Node5</title>
<polygon fill="none" stroke="#bfbfbf" points="182.5,-62 182.5,-81 229.5,-81 229.5,-62 182.5,-62"/>
<text text-anchor="middle" x="206" y="-69" font-family="Helvetica,sans-Serif" font-size="10.00" fill="#000000">deque</text>
</g>
<!-- Node0&#45;&gt;Node5 -->
<g id="edge5" class="edge">
<title>Node0&#45;&gt;Node5</title>
<path fill="none" stroke="#191970" d="M206,-123.4322C206,-112.6773 206,-100.9624 206,-91.3857"/>
<polygon fill="#191970" stroke="#191970" points="209.5001,-91.3112 206,-81.3112 202.5001,-91.3112 209.5001,-91.3112"/>
</g>
<!-- Node6 -->
<g id="node7" class="node">
<title>Node6</title>
<polygon fill="none" stroke="#bfbfbf" points="248,-62 248,-81 296,-81 296,-62 248,-62"/>
<text text-anchor="middle" x="272" y="-69" font-family="Helvetica,sans-Serif" font-size="10.00" fill="#000000">gsl/gsl</text>
</g>
<!-- Node0&#45;&gt;Node6 -->
<g id="edge6" class="edge">
<title>Node0&#45;&gt;Node6</title>
<path fill="none" stroke="#191970" d="M230.9518,-123.4322C240.0994,-111.859 250.1258,-99.1741 257.9794,-89.2382"/>
<polygon fill="#191970" stroke="#191970" points="260.7898,-91.3268 264.245,-81.3112 255.2982,-86.9861 260.7898,-91.3268"/>
</g>
<!-- Node2 -->
<g id="node3" class="node">
<title>Node2</title>
<polygon fill="none" stroke="#bfbfbf" points="0,-.5 0,-19.5 58,-19.5 58,-.5 0,-.5"/>
<text text-anchor="middle" x="29" y="-7.5" font-family="Helvetica,sans-Serif" font-size="10.00" fill="#000000">memory</text>
</g>
<!-- Node1&#45;&gt;Node2 -->
<g id="edge2" class="edge">
<title>Node1&#45;&gt;Node2</title>
<path fill="none" stroke="#191970" d="M86.9663,-56.2977C75.4985,-47.1384 60.9038,-35.4816 49.2281,-26.1562"/>
<polygon fill="#191970" stroke="#191970" points="51.3266,-23.3529 41.3287,-19.8469 46.9581,-28.8225 51.3266,-23.3529"/>
</g>
<!-- Node3 -->
<g id="node4" class="node">
<title>Node3</title>
<polygon fill="none" stroke="#bfbfbf" points="76.5,-.5 76.5,-19.5 135.5,-19.5 135.5,-.5 76.5,-.5"/>
<text text-anchor="middle" x="106" y="-7.5" font-family="Helvetica,sans-Serif" font-size="10.00" fill="#000000">Rtypes.h</text>
</g>
<!-- Node1&#45;&gt;Node3 -->
<g id="edge3" class="edge">
<title>Node1&#45;&gt;Node3</title>
<path fill="none" stroke="#191970" d="M106,-56.2977C106,-48.3834 106,-38.6043 106,-30.0759"/>
<polygon fill="#191970" stroke="#191970" points="109.5001,-29.8469 106,-19.8469 102.5001,-29.847 109.5001,-29.8469"/>
</g>
<!-- Node4 -->
<g id="node5" class="node">
<title>Node4</title>
<g id="a_node5"><a xlink:href="../../dd/da4/Logger_8h.html" target="_top" xlink:title="Framework/Logger.h">
<polygon fill="none" stroke="#000000" points="153.5,-.5 153.5,-19.5 268.5,-19.5 268.5,-.5 153.5,-.5"/>
<text text-anchor="middle" x="211" y="-7.5" font-family="Helvetica,sans-Serif" font-size="10.00" fill="#000000">Framework/Logger.h</text>
</a>
</g>
</g>
<!-- Node1&#45;&gt;Node4 -->
<g id="edge4" class="edge">
<title>Node1&#45;&gt;Node4</title>
<path fill="none" stroke="#191970" d="M131.6859,-56.4554C148.1297,-46.8241 169.3708,-34.3828 185.7323,-24.7996"/>
<polygon fill="#191970" stroke="#191970" points="187.8688,-27.6045 194.7287,-19.5303 184.331,-21.5643 187.8688,-27.6045"/>
</g>
</g>
</svg>
