<?xml version="1.0" encoding="UTF-8" standalone="no"?>
<!DOCTYPE svg PUBLIC "-//W3C//DTD SVG 1.1//EN"
 "http://www.w3.org/Graphics/SVG/1.1/DTD/svg11.dtd">
<!-- Generated by graphviz version 2.40.1 (20161225.0304)
 -->
<!-- Title: /home/travis/build/AliceO2Group/AliceO2/Detectors/ITSMFT/ITS/tracking/cuda/include/ITStrackingCUDA/UniquePointer.h Pages: 1 -->
<svg width="347pt" height="352pt"
 viewBox="0.00 0.00 346.50 352.00" xmlns="http://www.w3.org/2000/svg" xmlns:xlink="http://www.w3.org/1999/xlink">
<g id="graph0" class="graph" transform="scale(1 1) rotate(0) translate(4 348)">
<title>/home/travis/build/AliceO2Group/AliceO2/Detectors/ITSMFT/ITS/tracking/cuda/include/ITStrackingCUDA/UniquePointer.h</title>
<!-- Node0 -->
<g id="node1" class="node">
<title>Node0</title>
<polygon fill="#bfbfbf" stroke="#000000" points="109.5,-280.5 109.5,-343.5 292.5,-343.5 292.5,-280.5 109.5,-280.5"/>
<text text-anchor="start" x="117.5" y="-331.5" font-family="Helvetica,sans-Serif" font-size="10.00" fill="#000000">/home/travis/build</text>
<text text-anchor="start" x="117.5" y="-320.5" font-family="Helvetica,sans-Serif" font-size="10.00" fill="#000000">/AliceO2Group/AliceO2</text>
<text text-anchor="start" x="117.5" y="-309.5" font-family="Helvetica,sans-Serif" font-size="10.00" fill="#000000">/Detectors/ITSMFT/ITS</text>
<text text-anchor="start" x="117.5" y="-298.5" font-family="Helvetica,sans-Serif" font-size="10.00" fill="#000000">/tracking/cuda/include</text>
<text text-anchor="middle" x="201" y="-287.5" font-family="Helvetica,sans-Serif" font-size="10.00" fill="#000000">/ITStrackingCUDA/UniquePointer.h</text>
</g>
<!-- Node1 -->
<g id="node2" class="node">
<title>Node1</title>
<g id="a_node2"><a xlink:href="../../d8/def/Detectors_2ITSMFT_2ITS_2tracking_2cuda_2include_2ITStrackingCUDA_2Utils_8h.html" target="_top" xlink:title="ITStrackingCUDA/Utils.h">
<polygon fill="none" stroke="#000000" points="134,-224.5 134,-243.5 268,-243.5 268,-224.5 134,-224.5"/>
<text text-anchor="middle" x="201" y="-231.5" font-family="Helvetica,sans-Serif" font-size="10.00" fill="#000000">ITStrackingCUDA/Utils.h</text>
</a>
</g>
</g>
<!-- Node0&#45;&gt;Node1 -->
<g id="edge1" class="edge">
<title>Node0&#45;&gt;Node1</title>
<path fill="none" stroke="#191970" d="M201,-280.2744C201,-271.3302 201,-261.8568 201,-253.8269"/>
<polygon fill="#191970" stroke="#191970" points="204.5001,-253.6425 201,-243.6426 197.5001,-253.6426 204.5001,-253.6425"/>
</g>
<!-- Node2 -->
<g id="node3" class="node">
<title>Node2</title>
<g id="a_node3"><a xlink:href="../../df/d21/GPUCommonDef_8h.html" target="_top" xlink:title="GPUCommonDef.h">
<polygon fill="none" stroke="#000000" points="97.5,-56.5 97.5,-75.5 204.5,-75.5 204.5,-56.5 97.5,-56.5"/>
<text text-anchor="middle" x="151" y="-63.5" font-family="Helvetica,sans-Serif" font-size="10.00" fill="#000000">GPUCommonDef.h</text>
</a>
</g>
</g>
<!-- Node1&#45;&gt;Node2 -->
<g id="edge2" class="edge">
<title>Node1&#45;&gt;Node2</title>
<path fill="none" stroke="#191970" d="M192.1435,-224.1998C184.7058,-215.387 174.4456,-201.748 169,-188 155.455,-153.8043 151.9832,-110.5635 151.1648,-85.8167"/>
<polygon fill="#191970" stroke="#191970" points="154.6586,-85.4832 150.9462,-75.5601 147.6602,-85.6325 154.6586,-85.4832"/>
</g>
<!-- Node5 -->
<g id="node6" class="node">
<title>Node5</title>
<g id="a_node6"><a xlink:href="../../de/dd1/Stream_8h.html" target="_top" xlink:title="ITStrackingCUDA/Stream.h">
<polygon fill="none" stroke="#000000" points="178.5,-168.5 178.5,-187.5 325.5,-187.5 325.5,-168.5 178.5,-168.5"/>
<text text-anchor="middle" x="252" y="-175.5" font-family="Helvetica,sans-Serif" font-size="10.00" fill="#000000">ITStrackingCUDA/Stream.h</text>
</a>
</g>
</g>
<!-- Node1&#45;&gt;Node5 -->
<g id="edge5" class="edge">
<title>Node1&#45;&gt;Node5</title>
<path fill="none" stroke="#191970" d="M209.8835,-224.2455C217.1966,-216.2155 227.7391,-204.6394 236.4467,-195.0781"/>
<polygon fill="#191970" stroke="#191970" points="239.0727,-197.3928 243.2183,-187.6427 233.8972,-192.6795 239.0727,-197.3928"/>
</g>
<!-- Node3 -->
<g id="node4" class="node">
<title>Node3</title>
<g id="a_node4"><a xlink:href="../../d5/d93/GPUCommonDefSettings_8h.html" target="_top" xlink:title="GPUCommonDefSettings.h">
<polygon fill="none" stroke="#000000" points="0,-.5 0,-19.5 148,-19.5 148,-.5 0,-.5"/>
<text text-anchor="middle" x="74" y="-7.5" font-family="Helvetica,sans-Serif" font-size="10.00" fill="#000000">GPUCommonDefSettings.h</text>
</a>
</g>
</g>
<!-- Node2&#45;&gt;Node3 -->
<g id="edge3" class="edge">
<title>Node2&#45;&gt;Node3</title>
<path fill="none" stroke="#191970" d="M137.5876,-56.2455C125.9943,-47.814 109.0252,-35.4729 95.5322,-25.6598"/>
<polygon fill="#191970" stroke="#191970" points="97.4047,-22.6938 87.2587,-19.6427 93.2874,-28.355 97.4047,-22.6938"/>
</g>
<!-- Node4 -->
<g id="node5" class="node">
<title>Node4</title>
<g id="a_node5"><a xlink:href="../../da/d5a/GPUCommonDefAPI_8h.html" target="_top" xlink:title="GPUCommonDefAPI.h">
<polygon fill="none" stroke="#000000" points="166,-.5 166,-19.5 290,-19.5 290,-.5 166,-.5"/>
<text text-anchor="middle" x="228" y="-7.5" font-family="Helvetica,sans-Serif" font-size="10.00" fill="#000000">GPUCommonDefAPI.h</text>
</a>
</g>
</g>
<!-- Node2&#45;&gt;Node4 -->
<g id="edge4" class="edge">
<title>Node2&#45;&gt;Node4</title>
<path fill="none" stroke="#191970" d="M164.4124,-56.2455C176.0057,-47.814 192.9748,-35.4729 206.4678,-25.6598"/>
<polygon fill="#191970" stroke="#191970" points="208.7126,-28.355 214.7413,-19.6427 204.5953,-22.6938 208.7126,-28.355"/>
</g>
<!-- Node6 -->
<g id="node7" class="node">
<title>Node6</title>
<g id="a_node7"><a xlink:href="../../df/d3d/Definitions_8h.html" target="_top" xlink:title="ITStracking/Definitions.h">
<polygon fill="none" stroke="#000000" points="181,-112.5 181,-131.5 317,-131.5 317,-112.5 181,-112.5"/>
<text text-anchor="middle" x="249" y="-119.5" font-family="Helvetica,sans-Serif" font-size="10.00" fill="#000000">ITStracking/Definitions.h</text>
</a>
</g>
</g>
<!-- Node5&#45;&gt;Node6 -->
<g id="edge6" class="edge">
<title>Node5&#45;&gt;Node6</title>
<path fill="none" stroke="#191970" d="M251.4774,-168.2455C251.086,-160.9382 250.5372,-150.6944 250.0556,-141.7046"/>
<polygon fill="#191970" stroke="#191970" points="253.5466,-141.4411 249.5166,-131.6427 246.5566,-141.8156 253.5466,-141.4411"/>
</g>
<!-- Node6&#45;&gt;Node2 -->
<g id="edge8" class="edge">
<title>Node6&#45;&gt;Node2</title>
<path fill="none" stroke="#191970" d="M231.9297,-112.2455C216.753,-103.5731 194.3379,-90.7645 176.9437,-80.825"/>
<polygon fill="#191970" stroke="#191970" points="178.2936,-77.5653 167.8747,-75.6427 174.8206,-83.643 178.2936,-77.5653"/>
</g>
<!-- Node7 -->
<g id="node8" class="node">
<title>Node7</title>
<polygon fill="none" stroke="#bfbfbf" points="225,-56.5 225,-75.5 267,-75.5 267,-56.5 225,-56.5"/>
<text text-anchor="middle" x="246" y="-63.5" font-family="Helvetica,sans-Serif" font-size="10.00" fill="#000000">array</text>
</g>
<!-- Node6&#45;&gt;Node7 -->
<g id="edge7" class="edge">
<title>Node6&#45;&gt;Node7</title>
<path fill="none" stroke="#191970" d="M248.4774,-112.2455C248.086,-104.9382 247.5372,-94.6944 247.0556,-85.7046"/>
<polygon fill="#191970" stroke="#191970" points="250.5466,-85.4411 246.5166,-75.6427 243.5566,-85.8156 250.5466,-85.4411"/>
</g>
<!-- Node8 -->
<g id="node9" class="node">
<title>Node8</title>
<polygon fill="none" stroke="#bfbfbf" points="285.5,-56.5 285.5,-75.5 338.5,-75.5 338.5,-56.5 285.5,-56.5"/>
<text text-anchor="middle" x="312" y="-63.5" font-family="Helvetica,sans-Serif" font-size="10.00" fill="#000000">cstddef</text>
</g>
<!-- Node6&#45;&gt;Node8 -->
<g id="edge9" class="edge">
<title>Node6&#45;&gt;Node8</title>
<path fill="none" stroke="#191970" d="M259.9738,-112.2455C269.1882,-104.0549 282.5532,-92.1749 293.4297,-82.5069"/>
<polygon fill="#191970" stroke="#191970" points="296.0032,-84.9023 301.152,-75.6427 291.3526,-79.6704 296.0032,-84.9023"/>
</g>
</g>
</svg>
