<?xml version="1.0" encoding="UTF-8" standalone="no"?>
<!DOCTYPE svg PUBLIC "-//W3C//DTD SVG 1.1//EN"
 "http://www.w3.org/Graphics/SVG/1.1/DTD/svg11.dtd">
<!-- Generated by graphviz version 2.40.1 (20161225.0304)
 -->
<!-- Title: HFCandidateCreator2Prong Pages: 1 -->
<!--zoomable 827 -->
<svg id="main" version="1.1" xmlns="http://www.w3.org/2000/svg" xmlns:xlink="http://www.w3.org/1999/xlink" xml:space="preserve" onload="init(evt)">
<style type="text/css"><![CDATA[
.edge:hover path { stroke: red; }
.edge:hover polygon { stroke: red; fill: red; }
]]></style>
<script type="text/javascript"><![CDATA[
var edges = document.getElementsByTagName('g');
if (edges && edges.length) {
  for (var i=0;i<edges.length;i++) {
    if (edges[i].id.substr(0,4)=='edge') {
      edges[i].setAttribute('class','edge');
    }
  }
}
]]></script>
        <defs>
                <circle id="rim" cx="0" cy="0" r="7"/>
                <circle id="rim2" cx="0" cy="0" r="3.5"/>
                <g id="zoomPlus">
                        <use xlink:href="#rim" fill="#404040">
                                <set attributeName="fill" to="#808080" begin="zoomplus.mouseover" end="zoomplus.mouseout"/>
                        </use>
                        <path d="M-4,0h8M0,-4v8" fill="none" stroke="white" stroke-width="1.5" pointer-events="none"/>
                </g>
                <g id="zoomMin">
                        <use xlink:href="#rim" fill="#404040">
                                <set attributeName="fill" to="#808080" begin="zoomminus.mouseover" end="zoomminus.mouseout"/>
                        </use>
                        <path d="M-4,0h8" fill="none" stroke="white" stroke-width="1.5" pointer-events="none"/>
                </g>
                <g id="dirArrow">
                        <path fill="none" stroke="white" stroke-width="1.5" d="M0,-3.0v7 M-2.5,-0.5L0,-3.0L2.5,-0.5"/>
                </g>
               <g id="resetDef">
                       <use xlink:href="#rim2" fill="#404040">
                               <set attributeName="fill" to="#808080" begin="reset.mouseover" end="reset.mouseout"/>
                       </use>
               </g>
        </defs>

<script type="text/javascript">
var viewWidth = 1415;
var viewHeight = 827;
var sectionId = 'dynsection-0';
</script>
<script xlink:href="../../svgpan.js"/>
<svg id="graph" class="graph">
<g id="viewport">
<title>HFCandidateCreator2Prong</title>
<!-- Node1 -->
<g id="node1" class="node">
<title>Node1</title>
<polygon fill="#bfbfbf" stroke="#000000" points="287,-.5 287,-57.5 436,-57.5 436,-.5 287,-.5"/>
<text text-anchor="middle" x="361.5" y="-45.5" font-family="Helvetica,sans-Serif" font-size="10.00" fill="#000000">HFCandidateCreator2Prong</text>
<polyline fill="none" stroke="#000000" points="287,-38.5 436,-38.5 "/>
<text text-anchor="middle" x="361.5" y="-26.5" font-family="Helvetica,sans-Serif" font-size="10.00" fill="#000000"> </text>
<polyline fill="none" stroke="#000000" points="287,-19.5 436,-19.5 "/>
<text text-anchor="start" x="295" y="-7.5" font-family="Helvetica,sans-Serif" font-size="10.00" fill="#000000">+ process()</text>
</g>
<!-- Node2 -->
<g id="node2" class="node">
<title>Node2</title>
<g id="a_node2"><a xlink:href="../../d8/d71/structo2_1_1framework_1_1Configurable.html" target="_top" xlink:title="{o2::framework::Configurable\l\&lt; double \&gt;\n||+ Configurable()\l+ operator double()\l+ operator&#45;\&gt;()\l}">
<polygon fill="none" stroke="#000000" points="0,-386.5 0,-476.5 155,-476.5 155,-386.5 0,-386.5"/>
<text text-anchor="start" x="8" y="-464.5" font-family="Helvetica,sans-Serif" font-size="10.00" fill="#000000">o2::framework::Configurable</text>
<text text-anchor="middle" x="77.5" y="-453.5" font-family="Helvetica,sans-Serif" font-size="10.00" fill="#000000">&lt; double &gt;</text>
<polyline fill="none" stroke="#000000" points="0,-446.5 155,-446.5 "/>
<text text-anchor="middle" x="77.5" y="-434.5" font-family="Helvetica,sans-Serif" font-size="10.00" fill="#000000"> </text>
<polyline fill="none" stroke="#000000" points="0,-427.5 155,-427.5 "/>
<text text-anchor="start" x="8" y="-415.5" font-family="Helvetica,sans-Serif" font-size="10.00" fill="#000000">+ Configurable()</text>
<text text-anchor="start" x="8" y="-404.5" font-family="Helvetica,sans-Serif" font-size="10.00" fill="#000000">+ operator double()</text>
<text text-anchor="start" x="8" y="-393.5" font-family="Helvetica,sans-Serif" font-size="10.00" fill="#000000">+ operator&#45;&gt;()</text>
</a>
</g>
</g>
<!-- Node2&#45;&gt;Node1 -->
<g id="edge1" class="edge">
<title>Node2&#45;&gt;Node1</title>
<path fill="none" stroke="#404040" d="M70.4403,-386.2542C63.3112,-323.9321 60.037,-211.1031 114.5,-138 152.6548,-86.7866 220.1639,-59.2114 274.9721,-44.6197"/>
<polygon fill="none" stroke="#404040" points="275.184,-44.566 280.0153,-39.2126 286.8151,-41.6132 281.9838,-46.9667 275.184,-44.566"/>
<text text-anchor="middle" x="168" y="-241.5" font-family="Helvetica,sans-Serif" font-size="10.00" fill="#000000"> +d_maxdzini</text>
<text text-anchor="middle" x="168" y="-230.5" font-family="Helvetica,sans-Serif" font-size="10.00" fill="#000000">+d_maxr</text>
<text text-anchor="middle" x="168" y="-219.5" font-family="Helvetica,sans-Serif" font-size="10.00" fill="#000000">+d_bz</text>
<text text-anchor="middle" x="168" y="-208.5" font-family="Helvetica,sans-Serif" font-size="10.00" fill="#000000">+d_minrelchi2change</text>
<text text-anchor="middle" x="168" y="-197.5" font-family="Helvetica,sans-Serif" font-size="10.00" fill="#000000">+d_minparamchange</text>
</g>
<!-- Node3 -->
<g id="node3" class="node">
<title>Node3</title>
<polygon fill="none" stroke="#bfbfbf" points="52.5,-585 52.5,-642 102.5,-642 102.5,-585 52.5,-585"/>
<text text-anchor="middle" x="77.5" y="-630" font-family="Helvetica,sans-Serif" font-size="10.00" fill="#000000">double</text>
<polyline fill="none" stroke="#bfbfbf" points="52.5,-623 102.5,-623 "/>
<text text-anchor="middle" x="77.5" y="-611" font-family="Helvetica,sans-Serif" font-size="10.00" fill="#000000"> </text>
<polyline fill="none" stroke="#bfbfbf" points="52.5,-604 102.5,-604 "/>
<text text-anchor="middle" x="77.5" y="-592" font-family="Helvetica,sans-Serif" font-size="10.00" fill="#000000"> </text>
</g>
<!-- Node3&#45;&gt;Node2 -->
<g id="edge2" class="edge">
<title>Node3&#45;&gt;Node2</title>
<path fill="none" stroke="#404040" d="M77.5,-584.6616C77.5,-559.0005 77.5,-520.707 77.5,-488.8303"/>
<polygon fill="none" stroke="#404040" points="77.5001,-488.5198 73.5,-482.5198 77.5,-476.5198 81.5,-482.5198 77.5001,-488.5198"/>
<text text-anchor="middle" x="97" y="-531" font-family="Helvetica,sans-Serif" font-size="10.00" fill="#000000"> +value</text>
</g>
<!-- Node4 -->
<g id="node4" class="node">
<title>Node4</title>
<polygon fill="none" stroke="#bfbfbf" points="638,-745 638,-802 667,-802 667,-745 638,-745"/>
<text text-anchor="middle" x="652.5" y="-790" font-family="Helvetica,sans-Serif" font-size="10.00" fill="#000000">int</text>
<polyline fill="none" stroke="#bfbfbf" points="638,-783 667,-783 "/>
<text text-anchor="middle" x="652.5" y="-771" font-family="Helvetica,sans-Serif" font-size="10.00" fill="#000000"> </text>
<polyline fill="none" stroke="#bfbfbf" points="638,-764 667,-764 "/>
<text text-anchor="middle" x="652.5" y="-752" font-family="Helvetica,sans-Serif" font-size="10.00" fill="#000000"> </text>
</g>
<!-- Node4&#45;&gt;Node2 -->
<g id="edge3" class="edge">
<title>Node4&#45;&gt;Node2</title>
<path fill="none" stroke="#404040" d="M637.9139,-767.7862C609.7564,-756.7395 545.9683,-731.6334 492.5,-710 449.2715,-692.5096 424.4628,-706.5482 395.5,-670 355.7919,-619.8924 419.3548,-571.4987 372.5,-528 338.4987,-496.4341 207.046,-528.5021 164.5,-510 150.6624,-503.9824 137.54,-494.8621 125.8799,-484.9421"/>
<polygon fill="none" stroke="#404040" points="125.7948,-484.8658 118.6567,-483.8418 116.8566,-476.859 123.9946,-477.883 125.7948,-484.8658"/>
<text text-anchor="middle" x="415.5" y="-616.5" font-family="Helvetica,sans-Serif" font-size="10.00" fill="#000000"> +name</text>
<text text-anchor="middle" x="415.5" y="-605.5" font-family="Helvetica,sans-Serif" font-size="10.00" fill="#000000">+help</text>
</g>
<!-- Node5 -->
<g id="node5" class="node">
<title>Node5</title>
<g id="a_node5"><a xlink:href="../../d8/d71/structo2_1_1framework_1_1Configurable.html" target="_top" xlink:title="{o2::framework::Configurable\&lt; T \&gt;\n||+ Configurable()\l+ operator T()\l+ operator&#45;\&gt;()\l}">
<polygon fill="none" stroke="#000000" points="166.5,-574 166.5,-653 350.5,-653 350.5,-574 166.5,-574"/>
<text text-anchor="middle" x="258.5" y="-641" font-family="Helvetica,sans-Serif" font-size="10.00" fill="#000000">o2::framework::Configurable&lt; T &gt;</text>
<polyline fill="none" stroke="#000000" points="166.5,-634 350.5,-634 "/>
<text text-anchor="middle" x="258.5" y="-622" font-family="Helvetica,sans-Serif" font-size="10.00" fill="#000000"> </text>
<polyline fill="none" stroke="#000000" points="166.5,-615 350.5,-615 "/>
<text text-anchor="start" x="174.5" y="-603" font-family="Helvetica,sans-Serif" font-size="10.00" fill="#000000">+ Configurable()</text>
<text text-anchor="start" x="174.5" y="-592" font-family="Helvetica,sans-Serif" font-size="10.00" fill="#000000">+ operator T()</text>
<text text-anchor="start" x="174.5" y="-581" font-family="Helvetica,sans-Serif" font-size="10.00" fill="#000000">+ operator&#45;&gt;()</text>
</a>
</g>
</g>
<!-- Node4&#45;&gt;Node5 -->
<g id="edge5" class="edge">
<title>Node4&#45;&gt;Node5</title>
<path fill="none" stroke="#404040" d="M637.6792,-771.9562C581.9094,-765.9368 385.1695,-742.7466 332.5,-710 314.0649,-698.5382 298.501,-680.7165 286.4758,-663.4926"/>
<polygon fill="none" stroke="#404040" points="286.4567,-663.4639 279.8029,-660.6843 279.8095,-653.4732 286.4634,-656.2528 286.4567,-663.4639"/>
<text text-anchor="middle" x="352.5" y="-702" font-family="Helvetica,sans-Serif" font-size="10.00" fill="#000000"> +name</text>
<text text-anchor="middle" x="352.5" y="-691" font-family="Helvetica,sans-Serif" font-size="10.00" fill="#000000">+help</text>
</g>
<!-- Node7 -->
<g id="node7" class="node">
<title>Node7</title>
<g id="a_node7"><a xlink:href="../../d8/d71/structo2_1_1framework_1_1Configurable.html" target="_top" xlink:title="{o2::framework::Configurable\l\&lt; bool \&gt;\n||+ Configurable()\l+ operator bool()\l+ operator&#45;\&gt;()\l}">
<polygon fill="none" stroke="#000000" points="358,-386.5 358,-476.5 513,-476.5 513,-386.5 358,-386.5"/>
<text text-anchor="start" x="366" y="-464.5" font-family="Helvetica,sans-Serif" font-size="10.00" fill="#000000">o2::framework::Configurable</text>
<text text-anchor="middle" x="435.5" y="-453.5" font-family="Helvetica,sans-Serif" font-size="10.00" fill="#000000">&lt; bool &gt;</text>
<polyline fill="none" stroke="#000000" points="358,-446.5 513,-446.5 "/>
<text text-anchor="middle" x="435.5" y="-434.5" font-family="Helvetica,sans-Serif" font-size="10.00" fill="#000000"> </text>
<polyline fill="none" stroke="#000000" points="358,-427.5 513,-427.5 "/>
<text text-anchor="start" x="366" y="-415.5" font-family="Helvetica,sans-Serif" font-size="10.00" fill="#000000">+ Configurable()</text>
<text text-anchor="start" x="366" y="-404.5" font-family="Helvetica,sans-Serif" font-size="10.00" fill="#000000">+ operator bool()</text>
<text text-anchor="start" x="366" y="-393.5" font-family="Helvetica,sans-Serif" font-size="10.00" fill="#000000">+ operator&#45;&gt;()</text>
</a>
</g>
</g>
<!-- Node4&#45;&gt;Node7 -->
<g id="edge8" class="edge">
<title>Node4&#45;&gt;Node7</title>
<path fill="none" stroke="#404040" d="M637.734,-769.1456C604.0496,-758.3957 521.3736,-727.2301 481.5,-670 444.1974,-616.4601 435.1835,-540.5048 433.8889,-488.7943"/>
<polygon fill="none" stroke="#404040" points="433.8851,-488.5228 429.8003,-482.5803 433.7146,-476.524 437.7995,-482.4665 433.8851,-488.5228"/>
<text text-anchor="middle" x="501.5" y="-616.5" font-family="Helvetica,sans-Serif" font-size="10.00" fill="#000000"> +name</text>
<text text-anchor="middle" x="501.5" y="-605.5" font-family="Helvetica,sans-Serif" font-size="10.00" fill="#000000">+help</text>
</g>
<!-- Node11 -->
<g id="node11" class="node">
<title>Node11</title>
<g id="a_node11"><a xlink:href="../../d4/d79/structo2_1_1framework_1_1OutputObj.html" target="_top" xlink:title="{o2::framework::OutputObj\l\&lt; TH1F \&gt;\n||+ spec()\l+ OutputObj()\l+ OutputObj()\l+ setObject()\l+ setObject()\l+ setObject()\l+ setHash()\l+ operator&#45;\&gt;()\l+ operator*()\l+ ref()\l}">
<polygon fill="none" stroke="#000000" points="763,-138.5 763,-305.5 906,-305.5 906,-138.5 763,-138.5"/>
<text text-anchor="start" x="771" y="-293.5" font-family="Helvetica,sans-Serif" font-size="10.00" fill="#000000">o2::framework::OutputObj</text>
<text text-anchor="middle" x="834.5" y="-282.5" font-family="Helvetica,sans-Serif" font-size="10.00" fill="#000000">&lt; TH1F &gt;</text>
<polyline fill="none" stroke="#000000" points="763,-275.5 906,-275.5 "/>
<text text-anchor="middle" x="834.5" y="-263.5" font-family="Helvetica,sans-Serif" font-size="10.00" fill="#000000"> </text>
<polyline fill="none" stroke="#000000" points="763,-256.5 906,-256.5 "/>
<text text-anchor="start" x="771" y="-244.5" font-family="Helvetica,sans-Serif" font-size="10.00" fill="#000000">+ spec()</text>
<text text-anchor="start" x="771" y="-233.5" font-family="Helvetica,sans-Serif" font-size="10.00" fill="#000000">+ OutputObj()</text>
<text text-anchor="start" x="771" y="-222.5" font-family="Helvetica,sans-Serif" font-size="10.00" fill="#000000">+ OutputObj()</text>
<text text-anchor="start" x="771" y="-211.5" font-family="Helvetica,sans-Serif" font-size="10.00" fill="#000000">+ setObject()</text>
<text text-anchor="start" x="771" y="-200.5" font-family="Helvetica,sans-Serif" font-size="10.00" fill="#000000">+ setObject()</text>
<text text-anchor="start" x="771" y="-189.5" font-family="Helvetica,sans-Serif" font-size="10.00" fill="#000000">+ setObject()</text>
<text text-anchor="start" x="771" y="-178.5" font-family="Helvetica,sans-Serif" font-size="10.00" fill="#000000">+ setHash()</text>
<text text-anchor="start" x="771" y="-167.5" font-family="Helvetica,sans-Serif" font-size="10.00" fill="#000000">+ operator&#45;&gt;()</text>
<text text-anchor="start" x="771" y="-156.5" font-family="Helvetica,sans-Serif" font-size="10.00" fill="#000000">+ operator*()</text>
<text text-anchor="start" x="771" y="-145.5" font-family="Helvetica,sans-Serif" font-size="10.00" fill="#000000">+ ref()</text>
</a>
</g>
</g>
<!-- Node4&#45;&gt;Node11 -->
<g id="edge16" class="edge">
<title>Node4&#45;&gt;Node11</title>
<path fill="none" stroke="#404040" d="M667.0188,-761.7971C707.5351,-728.0439 821.2931,-625.5163 858.5,-510 878.4973,-447.9143 871.9952,-374.6148 860.7507,-317.5019"/>
<polygon fill="none" stroke="#404040" points="860.7136,-317.3223 855.583,-312.2551 858.2871,-305.5702 863.4177,-310.6373 860.7136,-317.3223"/>
<text text-anchor="middle" x="868.5" y="-531" font-family="Helvetica,sans-Serif" font-size="10.00" fill="#000000"> +label</text>
</g>
<!-- Node14 -->
<g id="node14" class="node">
<title>Node14</title>
<g id="a_node14"><a xlink:href="../../da/d96/structo2_1_1framework_1_1InputSpec.html" target="_top" xlink:title="{o2::framework::InputSpec\n||+ InputSpec()\l+ InputSpec()\l+ InputSpec()\l+ InputSpec()\l+ InputSpec()\l+ operator==()\l}">
<polygon fill="none" stroke="#000000" points="1219.5,-557.5 1219.5,-669.5 1361.5,-669.5 1361.5,-557.5 1219.5,-557.5"/>
<text text-anchor="middle" x="1290.5" y="-657.5" font-family="Helvetica,sans-Serif" font-size="10.00" fill="#000000">o2::framework::InputSpec</text>
<polyline fill="none" stroke="#000000" points="1219.5,-650.5 1361.5,-650.5 "/>
<text text-anchor="middle" x="1290.5" y="-638.5" font-family="Helvetica,sans-Serif" font-size="10.00" fill="#000000"> </text>
<polyline fill="none" stroke="#000000" points="1219.5,-631.5 1361.5,-631.5 "/>
<text text-anchor="start" x="1227.5" y="-619.5" font-family="Helvetica,sans-Serif" font-size="10.00" fill="#000000">+ InputSpec()</text>
<text text-anchor="start" x="1227.5" y="-608.5" font-family="Helvetica,sans-Serif" font-size="10.00" fill="#000000">+ InputSpec()</text>
<text text-anchor="start" x="1227.5" y="-597.5" font-family="Helvetica,sans-Serif" font-size="10.00" fill="#000000">+ InputSpec()</text>
<text text-anchor="start" x="1227.5" y="-586.5" font-family="Helvetica,sans-Serif" font-size="10.00" fill="#000000">+ InputSpec()</text>
<text text-anchor="start" x="1227.5" y="-575.5" font-family="Helvetica,sans-Serif" font-size="10.00" fill="#000000">+ InputSpec()</text>
<text text-anchor="start" x="1227.5" y="-564.5" font-family="Helvetica,sans-Serif" font-size="10.00" fill="#000000">+ operator==()</text>
</a>
</g>
</g>
<!-- Node4&#45;&gt;Node14 -->
<g id="edge21" class="edge">
<title>Node4&#45;&gt;Node14</title>
<path fill="none" stroke="#404040" d="M667.3862,-773.0572C732.5041,-770.6614 998.0356,-756.1064 1208.1846,-670.5455"/>
<polygon fill="none" stroke="#404040" points="1208.3278,-670.4861 1212.3351,-664.491 1219.4103,-665.8842 1215.403,-671.8793 1208.3278,-670.4861"/>
<text text-anchor="middle" x="1176.5" y="-696.5" font-family="Helvetica,sans-Serif" font-size="10.00" fill="#000000"> +binding</text>
</g>
<!-- Node18 -->
<g id="node18" class="node">
<title>Node18</title>
<g id="a_node18"><a xlink:href="../../d4/d79/structo2_1_1framework_1_1OutputObj.html" target="_top" xlink:title="{o2::framework::OutputObj\&lt; T \&gt;\n||+ OutputObj()\l+ OutputObj()\l+ setObject()\l+ setObject()\l+ setObject()\l+ setHash()\l+ spec()\l+ operator&#45;\&gt;()\l+ operator*()\l+ ref()\l}">
<polygon fill="none" stroke="#000000" points="905.5,-353.5 905.5,-509.5 1077.5,-509.5 1077.5,-353.5 905.5,-353.5"/>
<text text-anchor="middle" x="991.5" y="-497.5" font-family="Helvetica,sans-Serif" font-size="10.00" fill="#000000">o2::framework::OutputObj&lt; T &gt;</text>
<polyline fill="none" stroke="#000000" points="905.5,-490.5 1077.5,-490.5 "/>
<text text-anchor="middle" x="991.5" y="-478.5" font-family="Helvetica,sans-Serif" font-size="10.00" fill="#000000"> </text>
<polyline fill="none" stroke="#000000" points="905.5,-471.5 1077.5,-471.5 "/>
<text text-anchor="start" x="913.5" y="-459.5" font-family="Helvetica,sans-Serif" font-size="10.00" fill="#000000">+ OutputObj()</text>
<text text-anchor="start" x="913.5" y="-448.5" font-family="Helvetica,sans-Serif" font-size="10.00" fill="#000000">+ OutputObj()</text>
<text text-anchor="start" x="913.5" y="-437.5" font-family="Helvetica,sans-Serif" font-size="10.00" fill="#000000">+ setObject()</text>
<text text-anchor="start" x="913.5" y="-426.5" font-family="Helvetica,sans-Serif" font-size="10.00" fill="#000000">+ setObject()</text>
<text text-anchor="start" x="913.5" y="-415.5" font-family="Helvetica,sans-Serif" font-size="10.00" fill="#000000">+ setObject()</text>
<text text-anchor="start" x="913.5" y="-404.5" font-family="Helvetica,sans-Serif" font-size="10.00" fill="#000000">+ setHash()</text>
<text text-anchor="start" x="913.5" y="-393.5" font-family="Helvetica,sans-Serif" font-size="10.00" fill="#000000">+ spec()</text>
<text text-anchor="start" x="913.5" y="-382.5" font-family="Helvetica,sans-Serif" font-size="10.00" fill="#000000">+ operator&#45;&gt;()</text>
<text text-anchor="start" x="913.5" y="-371.5" font-family="Helvetica,sans-Serif" font-size="10.00" fill="#000000">+ operator*()</text>
<text text-anchor="start" x="913.5" y="-360.5" font-family="Helvetica,sans-Serif" font-size="10.00" fill="#000000">+ ref()</text>
</a>
</g>
</g>
<!-- Node4&#45;&gt;Node18 -->
<g id="edge26" class="edge">
<title>Node4&#45;&gt;Node18</title>
<path fill="none" stroke="#404040" d="M667.2513,-770.8957C710.0212,-763.0629 832.8022,-738.4955 860.5,-710 909.6492,-659.4352 872.3129,-620.7274 902.5,-557 908.4407,-544.4587 915.6356,-531.839 923.3311,-519.6892"/>
<polygon fill="none" stroke="#404040" points="923.3487,-519.6621 923.2705,-512.4514 929.8965,-509.6059 929.9747,-516.8166 923.3487,-519.6621"/>
<text text-anchor="middle" x="920.5" y="-611" font-family="Helvetica,sans-Serif" font-size="10.00" fill="#000000"> +label</text>
</g>
<!-- Node5&#45;&gt;Node2 -->
<g id="edge4" class="edge">
<title>Node5&#45;&gt;Node2</title>
<path fill="none" stroke="#ffa500" d="M211.5985,-566.3393C184.148,-538.7372 149.6659,-504.0646 122.5423,-476.7912"/>
<polygon fill="#ffa500" stroke="#ffa500" points="209.2455,-568.9368 218.7788,-573.5593 214.2089,-564.0007 209.2455,-568.9368"/>
<text text-anchor="middle" x="214" y="-531" font-family="Helvetica,sans-Serif" font-size="10.00" fill="#000000"> &lt; double &gt;</text>
</g>
<!-- Node5&#45;&gt;Node7 -->
<g id="edge10" class="edge">
<title>Node5&#45;&gt;Node7</title>
<path fill="none" stroke="#ffa500" d="M304.365,-566.3393C331.2088,-538.7372 364.9289,-504.0646 391.4531,-476.7912"/>
<polygon fill="#ffa500" stroke="#ffa500" points="301.8062,-563.9503 297.3434,-573.5593 306.8244,-568.8306 301.8062,-563.9503"/>
<text text-anchor="middle" x="359" y="-531" font-family="Helvetica,sans-Serif" font-size="10.00" fill="#000000"> &lt; bool &gt;</text>
</g>
<!-- Node6 -->
<g id="node6" class="node">
<title>Node6</title>
<polygon fill="none" stroke="#bfbfbf" points="244,-745 244,-802 273,-802 273,-745 244,-745"/>
<text text-anchor="middle" x="258.5" y="-790" font-family="Helvetica,sans-Serif" font-size="10.00" fill="#000000">T</text>
<polyline fill="none" stroke="#bfbfbf" points="244,-783 273,-783 "/>
<text text-anchor="middle" x="258.5" y="-771" font-family="Helvetica,sans-Serif" font-size="10.00" fill="#000000"> </text>
<polyline fill="none" stroke="#bfbfbf" points="244,-764 273,-764 "/>
<text text-anchor="middle" x="258.5" y="-752" font-family="Helvetica,sans-Serif" font-size="10.00" fill="#000000"> </text>
</g>
<!-- Node6&#45;&gt;Node5 -->
<g id="edge6" class="edge">
<title>Node6&#45;&gt;Node5</title>
<path fill="none" stroke="#404040" d="M258.5,-744.8952C258.5,-722.8577 258.5,-691.7968 258.5,-665.4075"/>
<polygon fill="none" stroke="#404040" points="258.5001,-665.2754 254.5,-659.2755 258.5,-653.2754 262.5,-659.2754 258.5001,-665.2754"/>
<text text-anchor="middle" x="278" y="-696.5" font-family="Helvetica,sans-Serif" font-size="10.00" fill="#000000"> +value</text>
</g>
<!-- Node7&#45;&gt;Node1 -->
<g id="edge7" class="edge">
<title>Node7&#45;&gt;Node1</title>
<path fill="none" stroke="#404040" d="M438.9563,-386.3039C442.5363,-316.7868 442.5857,-180.6936 399.5,-76 398.3469,-73.1981 396.9705,-70.4304 395.4358,-67.7247"/>
<polygon fill="none" stroke="#404040" points="395.4245,-67.7072 388.7965,-64.8664 388.8696,-57.6556 395.4976,-60.4965 395.4245,-67.7072"/>
<text text-anchor="middle" x="475" y="-225" font-family="Helvetica,sans-Serif" font-size="10.00" fill="#000000"> +b_propdca</text>
<text text-anchor="middle" x="475" y="-214" font-family="Helvetica,sans-Serif" font-size="10.00" fill="#000000">+b_dovalplots</text>
</g>
<!-- Node8 -->
<g id="node8" class="node">
<title>Node8</title>
<polygon fill="none" stroke="#bfbfbf" points="530.5,-585 530.5,-642 568.5,-642 568.5,-585 530.5,-585"/>
<text text-anchor="middle" x="549.5" y="-630" font-family="Helvetica,sans-Serif" font-size="10.00" fill="#000000">bool</text>
<polyline fill="none" stroke="#bfbfbf" points="530.5,-623 568.5,-623 "/>
<text text-anchor="middle" x="549.5" y="-611" font-family="Helvetica,sans-Serif" font-size="10.00" fill="#000000"> </text>
<polyline fill="none" stroke="#bfbfbf" points="530.5,-604 568.5,-604 "/>
<text text-anchor="middle" x="549.5" y="-592" font-family="Helvetica,sans-Serif" font-size="10.00" fill="#000000"> </text>
</g>
<!-- Node8&#45;&gt;Node7 -->
<g id="edge9" class="edge">
<title>Node8&#45;&gt;Node7</title>
<path fill="none" stroke="#404040" d="M530.4434,-588.0863C520.0469,-573.8883 507.1609,-555.7339 496.5,-539 486.0016,-522.521 475.2543,-504.1648 465.7633,-487.3515"/>
<polygon fill="none" stroke="#404040" points="465.5844,-487.0319 459.1633,-483.7502 459.723,-476.5608 466.1441,-479.8425 465.5844,-487.0319"/>
<text text-anchor="middle" x="516" y="-531" font-family="Helvetica,sans-Serif" font-size="10.00" fill="#000000"> +value</text>
</g>
<!-- Node8&#45;&gt;Node11 -->
<g id="edge17" class="edge">
<title>Node8&#45;&gt;Node11</title>
<path fill="none" stroke="#404040" d="M544.3471,-584.6752C536.7958,-533.1916 528.4709,-424.1703 577.5,-353 617.919,-294.328 692.7837,-260.4102 751.3268,-241.8533"/>
<polygon fill="none" stroke="#404040" points="751.3273,-241.8532 755.8953,-236.2734 762.8028,-238.3439 758.2348,-243.9237 751.3273,-241.8532"/>
<text text-anchor="middle" x="608.5" y="-429" font-family="Helvetica,sans-Serif" font-size="10.00" fill="#000000"> +isdangling</text>
</g>
<!-- Node8&#45;&gt;Node18 -->
<g id="edge28" class="edge">
<title>Node8&#45;&gt;Node18</title>
<path fill="none" stroke="#404040" d="M568.9003,-597.3376C594.1918,-577.2707 640.6313,-543.768 686.5,-528 759.187,-503.0129 785.5095,-534.086 858.5,-510 870.5864,-506.0116 882.7634,-500.8034 894.5818,-494.9647"/>
<polygon fill="none" stroke="#404040" points="894.65,-494.9297 898.1568,-488.6287 905.3219,-489.4423 901.815,-495.7433 894.65,-494.9297"/>
<text text-anchor="middle" x="717.5" y="-531" font-family="Helvetica,sans-Serif" font-size="10.00" fill="#000000"> +isdangling</text>
</g>
<!-- Node9 -->
<g id="node9" class="node">
<title>Node9</title>
<g id="a_node9"><a xlink:href="../../d6/d86/structo2_1_1framework_1_1Produces.html" target="_top" xlink:title="{o2::framework::Produces\l\&lt; aod::HfCandProng2 \&gt;\n||}">
<polygon fill="none" stroke="#000000" points="230.5,-188 230.5,-256 368.5,-256 368.5,-188 230.5,-188"/>
<text text-anchor="start" x="238.5" y="-244" font-family="Helvetica,sans-Serif" font-size="10.00" fill="#000000">o2::framework::Produces</text>
<text text-anchor="middle" x="299.5" y="-233" font-family="Helvetica,sans-Serif" font-size="10.00" fill="#000000">&lt; aod::HfCandProng2 &gt;</text>
<polyline fill="none" stroke="#000000" points="230.5,-226 368.5,-226 "/>
<text text-anchor="middle" x="299.5" y="-214" font-family="Helvetica,sans-Serif" font-size="10.00" fill="#000000"> </text>
<polyline fill="none" stroke="#000000" points="230.5,-207 368.5,-207 "/>
<text text-anchor="middle" x="299.5" y="-195" font-family="Helvetica,sans-Serif" font-size="10.00" fill="#000000"> </text>
</a>
</g>
</g>
<!-- Node9&#45;&gt;Node1 -->
<g id="edge11" class="edge">
<title>Node9&#45;&gt;Node1</title>
<path fill="none" stroke="#404040" d="M299.0214,-187.7091C299.8253,-157.1023 304.1103,-111.7285 320.5,-76 321.8502,-73.0566 323.4445,-70.1595 325.2074,-67.3381"/>
<polygon fill="none" stroke="#404040" points="325.2439,-67.2867 325.4584,-60.0788 332.1945,-57.5046 331.9799,-64.7125 325.2439,-67.2867"/>
<text text-anchor="middle" x="360" y="-95.5" font-family="Helvetica,sans-Serif" font-size="10.00" fill="#000000"> +hfcandprong2</text>
</g>
<!-- Node10 -->
<g id="node10" class="node">
<title>Node10</title>
<g id="a_node10"><a xlink:href="../../d6/d86/structo2_1_1framework_1_1Produces.html" target="_top" xlink:title="{o2::framework::Produces\&lt; T \&gt;\n||}">
<polygon fill="none" stroke="#000000" points="173,-403 173,-460 340,-460 340,-403 173,-403"/>
<text text-anchor="middle" x="256.5" y="-448" font-family="Helvetica,sans-Serif" font-size="10.00" fill="#000000">o2::framework::Produces&lt; T &gt;</text>
<polyline fill="none" stroke="#000000" points="173,-441 340,-441 "/>
<text text-anchor="middle" x="256.5" y="-429" font-family="Helvetica,sans-Serif" font-size="10.00" fill="#000000"> </text>
<polyline fill="none" stroke="#000000" points="173,-422 340,-422 "/>
<text text-anchor="middle" x="256.5" y="-410" font-family="Helvetica,sans-Serif" font-size="10.00" fill="#000000"> </text>
</a>
</g>
</g>
<!-- Node10&#45;&gt;Node9 -->
<g id="edge12" class="edge">
<title>Node10&#45;&gt;Node9</title>
<path fill="none" stroke="#ffa500" d="M264.4341,-392.8444C272.4688,-353.6983 284.7772,-293.731 292.471,-256.2457"/>
<polygon fill="#ffa500" stroke="#ffa500" points="260.9709,-392.3097 262.3888,-402.8092 267.828,-393.7171 260.9709,-392.3097"/>
<text text-anchor="middle" x="337.5" y="-327" font-family="Helvetica,sans-Serif" font-size="10.00" fill="#000000"> &lt; aod::HfCandProng2 &gt;</text>
</g>
<!-- Node11&#45;&gt;Node1 -->
<g id="edge13" class="edge">
<title>Node11&#45;&gt;Node1</title>
<path fill="none" stroke="#404040" d="M762.9184,-192.7923C676.8542,-157.6752 532.7685,-98.8833 442.6505,-62.1121"/>
<polygon fill="none" stroke="#404040" points="442.5031,-62.0521 435.4365,-63.4888 431.3924,-57.5185 438.4589,-56.0817 442.5031,-62.0521"/>
<text text-anchor="middle" x="616.5" y="-112" font-family="Helvetica,sans-Serif" font-size="10.00" fill="#000000"> +hvtx_x_out</text>
<text text-anchor="middle" x="616.5" y="-101" font-family="Helvetica,sans-Serif" font-size="10.00" fill="#000000">+hvtx_z_out</text>
<text text-anchor="middle" x="616.5" y="-90" font-family="Helvetica,sans-Serif" font-size="10.00" fill="#000000">+hmass2</text>
<text text-anchor="middle" x="616.5" y="-79" font-family="Helvetica,sans-Serif" font-size="10.00" fill="#000000">+hvtx_y_out</text>
</g>
<!-- Node12 -->
<g id="node12" class="node">
<title>Node12</title>
<polygon fill="none" stroke="#bfbfbf" points="1062,-585 1062,-642 1201,-642 1201,-585 1062,-585"/>
<text text-anchor="middle" x="1131.5" y="-630" font-family="Helvetica,sans-Serif" font-size="10.00" fill="#000000">OutputObjHandlingPolicy</text>
<polyline fill="none" stroke="#bfbfbf" points="1062,-623 1201,-623 "/>
<text text-anchor="middle" x="1131.5" y="-611" font-family="Helvetica,sans-Serif" font-size="10.00" fill="#000000"> </text>
<polyline fill="none" stroke="#bfbfbf" points="1062,-604 1201,-604 "/>
<text text-anchor="middle" x="1131.5" y="-592" font-family="Helvetica,sans-Serif" font-size="10.00" fill="#000000"> </text>
</g>
<!-- Node12&#45;&gt;Node11 -->
<g id="edge14" class="edge">
<title>Node12&#45;&gt;Node11</title>
<path fill="none" stroke="#404040" d="M1129.7143,-584.6395C1125.5073,-524.7686 1113.2461,-389.5884 1086.5,-353 1045.7333,-297.2315 974.1145,-263.2692 917.6211,-243.9479"/>
<polygon fill="none" stroke="#404040" points="917.5679,-243.9304 910.6151,-245.8431 906.1754,-240.1608 913.1282,-238.2481 917.5679,-243.9304"/>
<text text-anchor="middle" x="1143" y="-429" font-family="Helvetica,sans-Serif" font-size="10.00" fill="#000000"> +policy</text>
</g>
<!-- Node12&#45;&gt;Node18 -->
<g id="edge25" class="edge">
<title>Node12&#45;&gt;Node18</title>
<path fill="none" stroke="#404040" d="M1104.6339,-584.8378C1092.3074,-571.2737 1077.7451,-554.6503 1065.5,-539 1060.5752,-532.7056 1055.6026,-526.1048 1050.6889,-519.4017"/>
<polygon fill="none" stroke="#404040" points="1050.5805,-519.252 1043.8222,-516.737 1043.5443,-509.5312 1050.3027,-512.0462 1050.5805,-519.252"/>
<text text-anchor="middle" x="1086" y="-531" font-family="Helvetica,sans-Serif" font-size="10.00" fill="#000000"> +policy</text>
</g>
<!-- Node13 -->
<g id="node13" class="node">
<title>Node13</title>
<g id="a_node13"><a xlink:href="../../d3/d87/classuint32__t.html" target="_top" xlink:title="{uint32_t\n||}">
<polygon fill="none" stroke="#000000" points="678.5,-585 678.5,-642 734.5,-642 734.5,-585 678.5,-585"/>
<text text-anchor="middle" x="706.5" y="-630" font-family="Helvetica,sans-Serif" font-size="10.00" fill="#000000">uint32_t</text>
<polyline fill="none" stroke="#000000" points="678.5,-623 734.5,-623 "/>
<text text-anchor="middle" x="706.5" y="-611" font-family="Helvetica,sans-Serif" font-size="10.00" fill="#000000"> </text>
<polyline fill="none" stroke="#000000" points="678.5,-604 734.5,-604 "/>
<text text-anchor="middle" x="706.5" y="-592" font-family="Helvetica,sans-Serif" font-size="10.00" fill="#000000"> </text>
</a>
</g>
</g>
<!-- Node13&#45;&gt;Node11 -->
<g id="edge15" class="edge">
<title>Node13&#45;&gt;Node11</title>
<path fill="none" stroke="#404040" d="M685.6495,-584.7074C676.9351,-571.3881 667.4679,-554.9979 661.5,-539 639.5237,-480.0892 638.073,-389.4409 656.5,-353 676.7502,-312.9536 715.6492,-282.1561 751.9309,-260.5151"/>
<polygon fill="none" stroke="#404040" points="752.1833,-260.3695 755.3823,-253.9067 762.5782,-254.3739 759.3793,-260.8367 752.1833,-260.3695"/>
<text text-anchor="middle" x="690.5" y="-429" font-family="Helvetica,sans-Serif" font-size="10.00" fill="#000000"> +mTaskHash</text>
</g>
<!-- Node13&#45;&gt;Node18 -->
<g id="edge24" class="edge">
<title>Node13&#45;&gt;Node18</title>
<path fill="none" stroke="#404040" d="M719.3962,-584.8511C729.4892,-565.7571 745.3615,-541.7303 766.5,-528 801.4404,-505.3048 819.5539,-524.8022 858.5,-510 870.4931,-505.4418 882.6496,-499.8449 894.4893,-493.7569"/>
<polygon fill="none" stroke="#404040" points="894.659,-493.667 898.0849,-487.3217 905.2598,-488.0436 901.8339,-494.3889 894.659,-493.667"/>
<text text-anchor="middle" x="800.5" y="-531" font-family="Helvetica,sans-Serif" font-size="10.00" fill="#000000"> +mTaskHash</text>
</g>
<!-- Node14&#45;&gt;Node11 -->
<g id="edge18" class="edge">
<title>Node14&#45;&gt;Node11</title>
<path fill="none" stroke="#404040" d="M1277.163,-557.3948C1260.6141,-499.0802 1227.0249,-408.7015 1167.5,-353 1097.7818,-287.7598 991.75,-253.6381 918.1368,-236.785"/>
<polygon fill="none" stroke="#404040" points="917.8714,-236.7262 911.1477,-239.3325 906.1559,-234.1285 912.8795,-231.5222 917.8714,-236.7262"/>
<text text-anchor="middle" x="1277.5" y="-429" font-family="Helvetica,sans-Serif" font-size="10.00" fill="#000000"> +spec</text>
</g>
<!-- Node14&#45;&gt;Node18 -->
<g id="edge29" class="edge">
<title>Node14&#45;&gt;Node18</title>
<path fill="none" stroke="#404040" d="M1219.4719,-562.1839C1216.4723,-560.3845 1213.4744,-558.6486 1210.5,-557 1163.2846,-530.8299 1145.4774,-536.595 1098.5,-510 1095.0415,-508.042 1091.5632,-505.9915 1088.0835,-503.8698"/>
<polygon fill="none" stroke="#404040" points="1087.8164,-503.7018 1080.6078,-503.893 1077.6588,-497.3124 1084.8674,-497.1213 1087.8164,-503.7018"/>
<text text-anchor="middle" x="1186.5" y="-531" font-family="Helvetica,sans-Serif" font-size="10.00" fill="#000000"> +spec</text>
</g>
<!-- Node15 -->
<g id="node15" class="node">
<title>Node15</title>
<polygon fill="none" stroke="#bfbfbf" points="1318.5,-745 1318.5,-802 1406.5,-802 1406.5,-745 1318.5,-745"/>
<text text-anchor="middle" x="1362.5" y="-790" font-family="Helvetica,sans-Serif" font-size="10.00" fill="#000000">enum Lifetime</text>
<polyline fill="none" stroke="#bfbfbf" points="1318.5,-783 1406.5,-783 "/>
<text text-anchor="middle" x="1362.5" y="-771" font-family="Helvetica,sans-Serif" font-size="10.00" fill="#000000"> </text>
<polyline fill="none" stroke="#bfbfbf" points="1318.5,-764 1406.5,-764 "/>
<text text-anchor="middle" x="1362.5" y="-752" font-family="Helvetica,sans-Serif" font-size="10.00" fill="#000000"> </text>
</g>
<!-- Node15&#45;&gt;Node14 -->
<g id="edge19" class="edge">
<title>Node15&#45;&gt;Node14</title>
<path fill="none" stroke="#404040" d="M1349.6278,-744.8952C1341.6,-727.0556 1330.9114,-703.303 1320.831,-680.9022"/>
<polygon fill="none" stroke="#404040" points="1320.714,-680.6422 1314.6041,-676.8121 1315.7896,-669.6991 1321.8995,-673.5291 1320.714,-680.6422"/>
<text text-anchor="middle" x="1357.5" y="-696.5" font-family="Helvetica,sans-Serif" font-size="10.00" fill="#000000"> +lifetime</text>
</g>
<!-- Node16 -->
<g id="node16" class="node">
<title>Node16</title>
<polygon fill="none" stroke="#bfbfbf" points="1136.5,-728.5 1136.5,-818.5 1300.5,-818.5 1300.5,-728.5 1136.5,-728.5"/>
<text text-anchor="start" x="1144.5" y="-806.5" font-family="Helvetica,sans-Serif" font-size="10.00" fill="#000000">variant&lt; o2::framework</text>
<text text-anchor="start" x="1144.5" y="-795.5" font-family="Helvetica,sans-Serif" font-size="10.00" fill="#000000">::ConcreteDataMatcher,</text>
<text text-anchor="start" x="1144.5" y="-784.5" font-family="Helvetica,sans-Serif" font-size="10.00" fill="#000000"> o2::framework::data_matcher</text>
<text text-anchor="middle" x="1218.5" y="-773.5" font-family="Helvetica,sans-Serif" font-size="10.00" fill="#000000">::DataDescriptorMatcher &gt;</text>
<polyline fill="none" stroke="#bfbfbf" points="1136.5,-766.5 1300.5,-766.5 "/>
<text text-anchor="middle" x="1218.5" y="-754.5" font-family="Helvetica,sans-Serif" font-size="10.00" fill="#000000"> </text>
<polyline fill="none" stroke="#bfbfbf" points="1136.5,-747.5 1300.5,-747.5 "/>
<text text-anchor="middle" x="1218.5" y="-735.5" font-family="Helvetica,sans-Serif" font-size="10.00" fill="#000000"> </text>
</g>
<!-- Node16&#45;&gt;Node14 -->
<g id="edge20" class="edge">
<title>Node16&#45;&gt;Node14</title>
<path fill="none" stroke="#404040" d="M1238.9397,-728.0784C1245.5943,-713.2904 1253.1273,-696.5505 1260.339,-680.5244"/>
<polygon fill="none" stroke="#404040" points="1260.3413,-680.5192 1259.1558,-673.4062 1265.2657,-669.5761 1266.4512,-676.6891 1260.3413,-680.5192"/>
<text text-anchor="middle" x="1282.5" y="-696.5" font-family="Helvetica,sans-Serif" font-size="10.00" fill="#000000"> +matcher</text>
</g>
<!-- Node17 -->
<g id="node17" class="node">
<title>Node17</title>
<polygon fill="none" stroke="#bfbfbf" points="733.5,-403 733.5,-460 849.5,-460 849.5,-403 733.5,-403"/>
<text text-anchor="middle" x="791.5" y="-448" font-family="Helvetica,sans-Serif" font-size="10.00" fill="#000000">shared_ptr&lt; TH1F &gt;</text>
<polyline fill="none" stroke="#bfbfbf" points="733.5,-441 849.5,-441 "/>
<text text-anchor="middle" x="791.5" y="-429" font-family="Helvetica,sans-Serif" font-size="10.00" fill="#000000"> </text>
<polyline fill="none" stroke="#bfbfbf" points="733.5,-422 849.5,-422 "/>
<text text-anchor="middle" x="791.5" y="-410" font-family="Helvetica,sans-Serif" font-size="10.00" fill="#000000"> </text>
</g>
<!-- Node17&#45;&gt;Node11 -->
<g id="edge22" class="edge">
<title>Node17&#45;&gt;Node11</title>
<path fill="none" stroke="#404040" d="M797.3888,-402.8092C801.937,-380.6498 808.5075,-348.6379 814.8598,-317.6888"/>
<polygon fill="none" stroke="#404040" points="814.8663,-317.657 812.1543,-310.9753 817.279,-305.9021 819.991,-312.5838 814.8663,-317.657"/>
<text text-anchor="middle" x="833.5" y="-327" font-family="Helvetica,sans-Serif" font-size="10.00" fill="#000000"> +object</text>
</g>
<!-- Node18&#45;&gt;Node11 -->
<g id="edge23" class="edge">
<title>Node18&#45;&gt;Node11</title>
<path fill="none" stroke="#ffa500" d="M926.9648,-345.3845C917.1373,-332.2708 907.0081,-318.7545 897.2204,-305.6937"/>
<polygon fill="#ffa500" stroke="#ffa500" points="924.2412,-347.5866 933.039,-353.4899 929.8428,-343.3887 924.2412,-347.5866"/>
<text text-anchor="middle" x="943" y="-327" font-family="Helvetica,sans-Serif" font-size="10.00" fill="#000000"> &lt; TH1F &gt;</text>
</g>
<!-- Node19 -->
<g id="node19" class="node">
<title>Node19</title>
<polygon fill="none" stroke="#bfbfbf" points="947,-585 947,-642 1044,-642 1044,-585 947,-585"/>
<text text-anchor="middle" x="995.5" y="-630" font-family="Helvetica,sans-Serif" font-size="10.00" fill="#000000">shared_ptr&lt; T &gt;</text>
<polyline fill="none" stroke="#bfbfbf" points="947,-623 1044,-623 "/>
<text text-anchor="middle" x="995.5" y="-611" font-family="Helvetica,sans-Serif" font-size="10.00" fill="#000000"> </text>
<polyline fill="none" stroke="#bfbfbf" points="947,-604 1044,-604 "/>
<text text-anchor="middle" x="995.5" y="-592" font-family="Helvetica,sans-Serif" font-size="10.00" fill="#000000"> </text>
</g>
<!-- Node19&#45;&gt;Node18 -->
<g id="edge27" class="edge">
<title>Node19&#45;&gt;Node18</title>
<path fill="none" stroke="#404040" d="M994.8662,-584.6616C994.489,-567.4991 993.9876,-544.686 993.4873,-521.9212"/>
<polygon fill="none" stroke="#404040" points="993.4821,-521.682 989.3512,-515.7714 993.2183,-509.6849 997.3493,-515.5955 993.4821,-521.682"/>
<text text-anchor="middle" x="1014.5" y="-531" font-family="Helvetica,sans-Serif" font-size="10.00" fill="#000000"> +object</text>
</g>
</g>
</svg>
        <g id="navigator" transform="translate(0 0)" fill="#404254">
                <rect fill="#f2f5e9" fill-opacity="0.5" stroke="#606060" stroke-width=".5" x="0" y="0" width="60" height="60"/>
                <use id="zoomplus" xlink:href="#zoomPlus" x="17" y="9" onmousedown="handleZoom(evt,'in')"/>
                <use id="zoomminus" xlink:href="#zoomMin" x="42" y="9" onmousedown="handleZoom(evt,'out')"/>
                <use id="reset" xlink:href="#resetDef" x="30" y="36" onmousedown="handleReset()"/>
                <g id="arrowUp" xlink:href="#dirArrow" transform="translate(30 24)" onmousedown="handlePan(0,-1)">
                  <use xlink:href="#rim" fill="#404040">
                        <set attributeName="fill" to="#808080" begin="arrowUp.mouseover" end="arrowUp.mouseout"/>
                  </use>
                  <path fill="none" stroke="white" stroke-width="1.5" d="M0,-3.0v7 M-2.5,-0.5L0,-3.0L2.5,-0.5"/>
                </g>
                <g id="arrowRight" xlink:href="#dirArrow" transform="rotate(90) translate(36 -43)" onmousedown="handlePan(1,0)">
                  <use xlink:href="#rim" fill="#404040">
                        <set attributeName="fill" to="#808080" begin="arrowRight.mouseover" end="arrowRight.mouseout"/>
                  </use>
                  <path fill="none" stroke="white" stroke-width="1.5" d="M0,-3.0v7 M-2.5,-0.5L0,-3.0L2.5,-0.5"/>
                </g>
                <g id="arrowDown" xlink:href="#dirArrow" transform="rotate(180) translate(-30 -48)" onmousedown="handlePan(0,1)">
                  <use xlink:href="#rim" fill="#404040">
                        <set attributeName="fill" to="#808080" begin="arrowDown.mouseover" end="arrowDown.mouseout"/>
                  </use>
                  <path fill="none" stroke="white" stroke-width="1.5" d="M0,-3.0v7 M-2.5,-0.5L0,-3.0L2.5,-0.5"/>
                </g>
                <g id="arrowLeft" xlink:href="#dirArrow" transform="rotate(270) translate(-36 17)" onmousedown="handlePan(-1,0)">
                  <use xlink:href="#rim" fill="#404040">
                        <set attributeName="fill" to="#808080" begin="arrowLeft.mouseover" end="arrowLeft.mouseout"/>
                  </use>
                  <path fill="none" stroke="white" stroke-width="1.5" d="M0,-3.0v7 M-2.5,-0.5L0,-3.0L2.5,-0.5"/>
                </g>
        </g>
        <svg viewBox="0 0 15 15" width="100%" height="30px" preserveAspectRatio="xMaxYMin meet">
         <g id="arrow_out" transform="scale(0.3 0.3)">
          <a xlink:href="structHFCandidateCreator2Prong__coll__graph_org.svg" target="_base">
           <rect id="button" ry="5" rx="5" y="6" x="6" height="38" width="38"
                fill="#f2f5e9" fill-opacity="0.5" stroke="#606060" stroke-width="1.0"/>
           <path id="arrow"
             d="M 11.500037,31.436501 C 11.940474,20.09759 22.043105,11.32322 32.158766,21.979434 L 37.068811,17.246167 C 37.068811,17.246167 37.088388,32 37.088388,32 L 22.160133,31.978069 C 22.160133,31.978069 26.997745,27.140456 26.997745,27.140456 C 18.528582,18.264221 13.291696,25.230495 11.500037,31.436501 z"
             style="fill:#404040;"/>
          </a>
         </g>
        </svg>
</svg>
