<?xml version="1.0" encoding="UTF-8" standalone="no"?>
<!DOCTYPE svg PUBLIC "-//W3C//DTD SVG 1.1//EN"
 "http://www.w3.org/Graphics/SVG/1.1/DTD/svg11.dtd">
<!-- Generated by graphviz version 2.40.1 (20161225.0304)
 -->
<!-- Title: /home/travis/build/AliceO2Group/AliceO2/Detectors/TRD/base/include/TRDBase/TRDGeometry.h Pages: 1 -->
<svg width="2586pt" height="441pt"
 viewBox="0.00 0.00 2585.93 441.00" xmlns="http://www.w3.org/2000/svg" xmlns:xlink="http://www.w3.org/1999/xlink">
<g id="graph0" class="graph" transform="scale(1 1) rotate(0) translate(4 437)">
<title>/home/travis/build/AliceO2Group/AliceO2/Detectors/TRD/base/include/TRDBase/TRDGeometry.h</title>
<!-- Node0 -->
<g id="node1" class="node">
<title>Node0</title>
<polygon fill="#bfbfbf" stroke="#000000" points="1886.4258,-380.5 1886.4258,-432.5 2041.4258,-432.5 2041.4258,-380.5 1886.4258,-380.5"/>
<text text-anchor="start" x="1894.4258" y="-420.5" font-family="Helvetica,sans-Serif" font-size="10.00" fill="#000000">/home/travis/build</text>
<text text-anchor="start" x="1894.4258" y="-409.5" font-family="Helvetica,sans-Serif" font-size="10.00" fill="#000000">/AliceO2Group/AliceO2</text>
<text text-anchor="start" x="1894.4258" y="-398.5" font-family="Helvetica,sans-Serif" font-size="10.00" fill="#000000">/Detectors/TRD/base/include</text>
<text text-anchor="middle" x="1963.9258" y="-387.5" font-family="Helvetica,sans-Serif" font-size="10.00" fill="#000000">/TRDBase/TRDGeometry.h</text>
</g>
<!-- Node1 -->
<g id="node2" class="node">
<title>Node1</title>
<g id="a_node2"><a xlink:href="../../d8/dad/TRDGeometryBase_8h.html" target="_top" xlink:title="TRDBase/TRDGeometryBase.h">
<polygon fill="none" stroke="#000000" points="105.9258,-319 105.9258,-338 271.9258,-338 271.9258,-319 105.9258,-319"/>
<text text-anchor="middle" x="188.9258" y="-326" font-family="Helvetica,sans-Serif" font-size="10.00" fill="#000000">TRDBase/TRDGeometryBase.h</text>
</a>
</g>
</g>
<!-- Node0&#45;&gt;Node1 -->
<g id="edge1" class="edge">
<title>Node0&#45;&gt;Node1</title>
<path fill="none" stroke="#191970" d="M1886.2284,-403.0857C1598.5872,-390.4457 594.7626,-346.334 282.4198,-332.6085"/>
<polygon fill="#191970" stroke="#191970" points="282.1907,-329.0951 272.0466,-332.1526 281.8833,-336.0884 282.1907,-329.0951"/>
</g>
<!-- Node9 -->
<g id="node10" class="node">
<title>Node9</title>
<g id="a_node10"><a xlink:href="../../d4/d20/DetMatrixCache_8h.html" target="_top" xlink:title="DetectorsCommonDataFormats\l/DetMatrixCache.h">
<polygon fill="none" stroke="#000000" points="1655.4258,-313.5 1655.4258,-343.5 1826.4258,-343.5 1826.4258,-313.5 1655.4258,-313.5"/>
<text text-anchor="start" x="1663.4258" y="-331.5" font-family="Helvetica,sans-Serif" font-size="10.00" fill="#000000">DetectorsCommonDataFormats</text>
<text text-anchor="middle" x="1740.9258" y="-320.5" font-family="Helvetica,sans-Serif" font-size="10.00" fill="#000000">/DetMatrixCache.h</text>
</a>
</g>
</g>
<!-- Node0&#45;&gt;Node9 -->
<g id="edge11" class="edge">
<title>Node0&#45;&gt;Node9</title>
<path fill="none" stroke="#191970" d="M1889.36,-380.4187C1857.9863,-369.4449 1822.2143,-356.9328 1793.6494,-346.9414"/>
<polygon fill="#191970" stroke="#191970" points="1794.46,-343.5171 1783.8652,-343.5192 1792.1489,-350.1246 1794.46,-343.5171"/>
</g>
<!-- Node14 -->
<g id="node15" class="node">
<title>Node14</title>
<polygon fill="none" stroke="#bfbfbf" points="1850.4258,-252 1850.4258,-271 1897.4258,-271 1897.4258,-252 1850.4258,-252"/>
<text text-anchor="middle" x="1873.9258" y="-259" font-family="Helvetica,sans-Serif" font-size="10.00" fill="#000000">vector</text>
</g>
<!-- Node0&#45;&gt;Node14 -->
<g id="edge61" class="edge">
<title>Node0&#45;&gt;Node14</title>
<path fill="none" stroke="#191970" d="M1947.6275,-380.2416C1929.5708,-351.1503 1900.9326,-305.011 1885.1992,-279.6626"/>
<polygon fill="#191970" stroke="#191970" points="1888.0974,-277.6951 1879.85,-271.0445 1882.1499,-281.3867 1888.0974,-277.6951"/>
</g>
<!-- Node15 -->
<g id="node16" class="node">
<title>Node15</title>
<g id="a_node16"><a xlink:href="../../d6/d31/DetID_8h.html" target="_top" xlink:title="DetectorsCommonDataFormats\l/DetID.h">
<polygon fill="none" stroke="#000000" points="1938.4258,-246.5 1938.4258,-276.5 2109.4258,-276.5 2109.4258,-246.5 1938.4258,-246.5"/>
<text text-anchor="start" x="1946.4258" y="-264.5" font-family="Helvetica,sans-Serif" font-size="10.00" fill="#000000">DetectorsCommonDataFormats</text>
<text text-anchor="middle" x="2023.9258" y="-253.5" font-family="Helvetica,sans-Serif" font-size="10.00" fill="#000000">/DetID.h</text>
</a>
</g>
</g>
<!-- Node0&#45;&gt;Node15 -->
<g id="edge59" class="edge">
<title>Node0&#45;&gt;Node15</title>
<path fill="none" stroke="#191970" d="M1974.7914,-380.2416C1985.8221,-353.584 2002.7763,-312.6114 2013.6064,-286.4387"/>
<polygon fill="#191970" stroke="#191970" points="2016.9778,-287.4448 2017.5673,-276.8663 2010.5097,-284.7683 2016.9778,-287.4448"/>
</g>
<!-- Node20 -->
<g id="node21" class="node">
<title>Node20</title>
<polygon fill="none" stroke="#bfbfbf" points="2533.9258,-118 2533.9258,-137 2577.9258,-137 2577.9258,-118 2533.9258,-118"/>
<text text-anchor="middle" x="2555.9258" y="-125" font-family="Helvetica,sans-Serif" font-size="10.00" fill="#000000">string</text>
</g>
<!-- Node0&#45;&gt;Node20 -->
<g id="edge60" class="edge">
<title>Node0&#45;&gt;Node20</title>
<path fill="none" stroke="#191970" d="M2041.4751,-384.8867C2078.3989,-373.8717 2122.9093,-359.5327 2161.9258,-344 2286.3912,-294.4496 2316.2296,-277.537 2431.9258,-210 2468.9183,-188.4059 2509.9582,-160.2133 2534.3175,-143.004"/>
<polygon fill="#191970" stroke="#191970" points="2536.3726,-145.8374 2542.4989,-137.1933 2532.3192,-140.1303 2536.3726,-145.8374"/>
</g>
<!-- Node28 -->
<g id="node29" class="node">
<title>Node28</title>
<polygon fill="none" stroke="#bfbfbf" points="2457.9258,-118 2457.9258,-137 2515.9258,-137 2515.9258,-118 2457.9258,-118"/>
<text text-anchor="middle" x="2486.9258" y="-125" font-family="Helvetica,sans-Serif" font-size="10.00" fill="#000000">memory</text>
</g>
<!-- Node0&#45;&gt;Node28 -->
<g id="edge62" class="edge">
<title>Node0&#45;&gt;Node28</title>
<path fill="none" stroke="#191970" d="M2029.1579,-380.4482C2112.5639,-346.0465 2260.2641,-281.416 2377.9258,-210 2411.2706,-189.7611 2446.7275,-161.5045 2467.8405,-143.8673"/>
<polygon fill="#191970" stroke="#191970" points="2470.3207,-146.3541 2475.7073,-137.2307 2465.807,-141.0037 2470.3207,-146.3541"/>
</g>
<!-- Node2 -->
<g id="node3" class="node">
<title>Node2</title>
<g id="a_node3"><a xlink:href="../../df/d21/GPUCommonDef_8h.html" target="_top" xlink:title="GPUCommonDef.h">
<polygon fill="none" stroke="#000000" points="712.4258,-56.5 712.4258,-75.5 819.4258,-75.5 819.4258,-56.5 712.4258,-56.5"/>
<text text-anchor="middle" x="765.9258" y="-63.5" font-family="Helvetica,sans-Serif" font-size="10.00" fill="#000000">GPUCommonDef.h</text>
</a>
</g>
</g>
<!-- Node1&#45;&gt;Node2 -->
<g id="edge2" class="edge">
<title>Node1&#45;&gt;Node2</title>
<path fill="none" stroke="#191970" d="M136.3635,-318.9595C93.6475,-310.0107 38.3478,-295.283 24.9258,-277 -25.3293,-208.5439 -1.735,-181.6237 126.9258,-112 176.6499,-85.0922 550.4901,-71.9091 702.2199,-67.6234"/>
<polygon fill="#191970" stroke="#191970" points="702.4218,-71.1192 712.3204,-67.342 702.2268,-64.1219 702.4218,-71.1192"/>
</g>
<!-- Node5 -->
<g id="node6" class="node">
<title>Node5</title>
<g id="a_node6"><a xlink:href="../../da/d32/TRDCommonParam_8h.html" target="_top" xlink:title="TRDBase/TRDCommonParam.h">
<polygon fill="none" stroke="#000000" points="189.9258,-252 189.9258,-271 357.9258,-271 357.9258,-252 189.9258,-252"/>
<text text-anchor="middle" x="273.9258" y="-259" font-family="Helvetica,sans-Serif" font-size="10.00" fill="#000000">TRDBase/TRDCommonParam.h</text>
</a>
</g>
</g>
<!-- Node1&#45;&gt;Node5 -->
<g id="edge5" class="edge">
<title>Node1&#45;&gt;Node5</title>
<path fill="none" stroke="#191970" d="M201.1042,-318.9005C214.8642,-308.0544 237.4723,-290.2339 253.852,-277.3229"/>
<polygon fill="#191970" stroke="#191970" points="256.0831,-280.0209 261.77,-271.0817 251.7497,-274.5234 256.0831,-280.0209"/>
</g>
<!-- Node8 -->
<g id="node9" class="node">
<title>Node8</title>
<g id="a_node9"><a xlink:href="../../de/df3/TRDPadPlane_8h.html" target="_top" xlink:title="TRDBase/TRDPadPlane.h">
<polygon fill="none" stroke="#000000" points="34.4258,-252 34.4258,-271 171.4258,-271 171.4258,-252 34.4258,-252"/>
<text text-anchor="middle" x="102.9258" y="-259" font-family="Helvetica,sans-Serif" font-size="10.00" fill="#000000">TRDBase/TRDPadPlane.h</text>
</a>
</g>
</g>
<!-- Node1&#45;&gt;Node8 -->
<g id="edge8" class="edge">
<title>Node1&#45;&gt;Node8</title>
<path fill="none" stroke="#191970" d="M176.6041,-318.9005C162.6823,-308.0544 139.8082,-290.2339 123.2358,-277.3229"/>
<polygon fill="#191970" stroke="#191970" points="125.2643,-274.4664 115.2247,-271.0817 120.9622,-279.9885 125.2643,-274.4664"/>
</g>
<!-- Node3 -->
<g id="node4" class="node">
<title>Node3</title>
<g id="a_node4"><a xlink:href="../../d5/d93/GPUCommonDefSettings_8h.html" target="_top" xlink:title="GPUCommonDefSettings.h">
<polygon fill="none" stroke="#000000" points="614.9258,-.5 614.9258,-19.5 762.9258,-19.5 762.9258,-.5 614.9258,-.5"/>
<text text-anchor="middle" x="688.9258" y="-7.5" font-family="Helvetica,sans-Serif" font-size="10.00" fill="#000000">GPUCommonDefSettings.h</text>
</a>
</g>
</g>
<!-- Node2&#45;&gt;Node3 -->
<g id="edge3" class="edge">
<title>Node2&#45;&gt;Node3</title>
<path fill="none" stroke="#191970" d="M752.5134,-56.2455C740.9201,-47.814 723.9511,-35.4729 710.458,-25.6598"/>
<polygon fill="#191970" stroke="#191970" points="712.3305,-22.6938 702.1845,-19.6427 708.2133,-28.355 712.3305,-22.6938"/>
</g>
<!-- Node4 -->
<g id="node5" class="node">
<title>Node4</title>
<g id="a_node5"><a xlink:href="../../da/d5a/GPUCommonDefAPI_8h.html" target="_top" xlink:title="GPUCommonDefAPI.h">
<polygon fill="none" stroke="#000000" points="780.9258,-.5 780.9258,-19.5 904.9258,-19.5 904.9258,-.5 780.9258,-.5"/>
<text text-anchor="middle" x="842.9258" y="-7.5" font-family="Helvetica,sans-Serif" font-size="10.00" fill="#000000">GPUCommonDefAPI.h</text>
</a>
</g>
</g>
<!-- Node2&#45;&gt;Node4 -->
<g id="edge4" class="edge">
<title>Node2&#45;&gt;Node4</title>
<path fill="none" stroke="#191970" d="M779.3382,-56.2455C790.9315,-47.814 807.9006,-35.4729 821.3936,-25.6598"/>
<polygon fill="#191970" stroke="#191970" points="823.6384,-28.355 829.6671,-19.6427 819.5211,-22.6938 823.6384,-28.355"/>
</g>
<!-- Node6 -->
<g id="node7" class="node">
<title>Node6</title>
<g id="a_node7"><a xlink:href="../../d2/d45/GPUCommonRtypes_8h.html" target="_top" xlink:title="GPUCommonRtypes.h">
<polygon fill="none" stroke="#000000" points="101.4258,-185 101.4258,-204 226.4258,-204 226.4258,-185 101.4258,-185"/>
<text text-anchor="middle" x="163.9258" y="-192" font-family="Helvetica,sans-Serif" font-size="10.00" fill="#000000">GPUCommonRtypes.h</text>
</a>
</g>
</g>
<!-- Node5&#45;&gt;Node6 -->
<g id="edge6" class="edge">
<title>Node5&#45;&gt;Node6</title>
<path fill="none" stroke="#191970" d="M258.1655,-251.9005C239.9501,-240.8057 209.7528,-222.4128 188.4581,-209.4424"/>
<polygon fill="#191970" stroke="#191970" points="190.0181,-206.2945 179.6569,-204.0817 186.3767,-212.2728 190.0181,-206.2945"/>
</g>
<!-- Node7 -->
<g id="node8" class="node">
<title>Node7</title>
<polygon fill="none" stroke="#bfbfbf" points="367.4258,-118 367.4258,-137 426.4258,-137 426.4258,-118 367.4258,-118"/>
<text text-anchor="middle" x="396.9258" y="-125" font-family="Helvetica,sans-Serif" font-size="10.00" fill="#000000">Rtypes.h</text>
</g>
<!-- Node6&#45;&gt;Node7 -->
<g id="edge7" class="edge">
<title>Node6&#45;&gt;Node7</title>
<path fill="none" stroke="#191970" d="M197.309,-184.9005C239.6578,-172.723 312.5812,-151.7536 357.5872,-138.812"/>
<polygon fill="#191970" stroke="#191970" points="358.651,-142.148 367.2943,-136.0207 356.7164,-135.4206 358.651,-142.148"/>
</g>
<!-- Node8&#45;&gt;Node2 -->
<g id="edge10" class="edge">
<title>Node8&#45;&gt;Node2</title>
<path fill="none" stroke="#191970" d="M97.6101,-251.9314C89.1341,-235.2426 75.138,-200.5406 91.9258,-179 166.8687,-82.8398 237.97,-133.7675 357.9258,-112 478.6575,-90.0917 621.4989,-76.8479 702.1287,-70.5219"/>
<polygon fill="#191970" stroke="#191970" points="702.4263,-74.0094 712.1263,-69.748 701.886,-67.0303 702.4263,-74.0094"/>
</g>
<!-- Node8&#45;&gt;Node6 -->
<g id="edge9" class="edge">
<title>Node8&#45;&gt;Node6</title>
<path fill="none" stroke="#191970" d="M111.6656,-251.9005C121.178,-241.4525 136.5828,-224.5325 148.2083,-211.7635"/>
<polygon fill="#191970" stroke="#191970" points="151.058,-213.8324 155.2022,-204.0817 145.8819,-209.1198 151.058,-213.8324"/>
</g>
<!-- Node9&#45;&gt;Node6 -->
<g id="edge15" class="edge">
<title>Node9&#45;&gt;Node6</title>
<path fill="none" stroke="#191970" d="M1655.1615,-326.661C1369.4212,-320.3419 464.4739,-298.7095 405.9258,-277 385.165,-269.3019 386.766,-255.8305 366.9258,-246 353.3157,-239.2564 270.9829,-219.3742 215.4413,-206.3786"/>
<polygon fill="#191970" stroke="#191970" points="215.9385,-202.9007 205.4048,-204.0369 214.348,-209.7176 215.9385,-202.9007"/>
</g>
<!-- Node10 -->
<g id="node11" class="node">
<title>Node10</title>
<g id="a_node11"><a xlink:href="../../df/d5b/GPUCommonLogger_8h.html" target="_top" xlink:title="GPUCommonLogger.h">
<polygon fill="none" stroke="#000000" points="414.4258,-252 414.4258,-271 537.4258,-271 537.4258,-252 414.4258,-252"/>
<text text-anchor="middle" x="475.9258" y="-259" font-family="Helvetica,sans-Serif" font-size="10.00" fill="#000000">GPUCommonLogger.h</text>
</a>
</g>
</g>
<!-- Node9&#45;&gt;Node10 -->
<g id="edge12" class="edge">
<title>Node9&#45;&gt;Node10</title>
<path fill="none" stroke="#191970" d="M1654.9718,-323.9475C1419.179,-311.4589 765.2824,-276.8256 547.5178,-265.2918"/>
<polygon fill="#191970" stroke="#191970" points="547.6522,-261.7941 537.4811,-264.7602 547.2819,-268.7843 547.6522,-261.7941"/>
</g>
<!-- Node13 -->
<g id="node14" class="node">
<title>Node13</title>
<polygon fill="none" stroke="#bfbfbf" points="1350.9258,-118 1350.9258,-137 1392.9258,-137 1392.9258,-118 1350.9258,-118"/>
<text text-anchor="middle" x="1371.9258" y="-125" font-family="Helvetica,sans-Serif" font-size="10.00" fill="#000000">array</text>
</g>
<!-- Node9&#45;&gt;Node13 -->
<g id="edge16" class="edge">
<title>Node9&#45;&gt;Node13</title>
<path fill="none" stroke="#191970" d="M1744.3967,-313.1767C1750.2773,-282.7987 1758.2848,-214.7906 1721.9258,-179 1670.2989,-128.1801 1466.5968,-166.0714 1397.9258,-143 1396.8548,-142.6402 1395.7803,-142.2314 1394.7104,-141.7846"/>
<polygon fill="#191970" stroke="#191970" points="1395.9223,-138.4727 1385.427,-137.0234 1392.7278,-144.7013 1395.9223,-138.4727"/>
</g>
<!-- Node9&#45;&gt;Node14 -->
<g id="edge17" class="edge">
<title>Node9&#45;&gt;Node14</title>
<path fill="none" stroke="#191970" d="M1770.7736,-313.4639C1793.1898,-302.1715 1823.6864,-286.8086 1845.6996,-275.7192"/>
<polygon fill="#191970" stroke="#191970" points="1847.5052,-278.7287 1854.8613,-271.1039 1844.3558,-272.4772 1847.5052,-278.7287"/>
</g>
<!-- Node9&#45;&gt;Node15 -->
<g id="edge18" class="edge">
<title>Node9&#45;&gt;Node15</title>
<path fill="none" stroke="#191970" d="M1804.4365,-313.4639C1847.7065,-303.2198 1905.126,-289.6257 1950.3828,-278.9113"/>
<polygon fill="#191970" stroke="#191970" points="1951.2134,-282.3114 1960.1381,-276.6017 1949.6007,-275.4997 1951.2134,-282.3114"/>
</g>
<!-- Node34 -->
<g id="node35" class="node">
<title>Node34</title>
<g id="a_node35"><a xlink:href="../../dd/d76/Cartesian3D_8h.html" target="_top" xlink:title="MathUtils/Cartesian3D.h">
<polygon fill="none" stroke="#000000" points="986.4258,-252 986.4258,-271 1121.4258,-271 1121.4258,-252 986.4258,-252"/>
<text text-anchor="middle" x="1053.9258" y="-259" font-family="Helvetica,sans-Serif" font-size="10.00" fill="#000000">MathUtils/Cartesian3D.h</text>
</a>
</g>
</g>
<!-- Node9&#45;&gt;Node34 -->
<g id="edge47" class="edge">
<title>Node9&#45;&gt;Node34</title>
<path fill="none" stroke="#191970" d="M1655.3059,-320.1499C1520.6508,-307.0176 1261.4004,-281.7341 1131.7457,-269.0894"/>
<polygon fill="#191970" stroke="#191970" points="1131.7948,-265.5777 1121.5022,-268.0904 1131.1153,-272.5446 1131.7948,-265.5777"/>
</g>
<!-- Node11 -->
<g id="node12" class="node">
<title>Node11</title>
<polygon fill="none" stroke="#bfbfbf" points="308.9258,-185 308.9258,-204 368.9258,-204 368.9258,-185 308.9258,-185"/>
<text text-anchor="middle" x="338.9258" y="-192" font-family="Helvetica,sans-Serif" font-size="10.00" fill="#000000">iostream</text>
</g>
<!-- Node10&#45;&gt;Node11 -->
<g id="edge13" class="edge">
<title>Node10&#45;&gt;Node11</title>
<path fill="none" stroke="#191970" d="M456.2971,-251.9005C433.1019,-240.5569 394.3073,-221.5844 367.7127,-208.5783"/>
<polygon fill="#191970" stroke="#191970" points="369.0391,-205.3308 358.5182,-204.0817 365.9638,-211.6191 369.0391,-205.3308"/>
</g>
<!-- Node12 -->
<g id="node13" class="node">
<title>Node12</title>
<polygon fill="none" stroke="#bfbfbf" points="244.9258,-185 244.9258,-204 290.9258,-204 290.9258,-185 244.9258,-185"/>
<text text-anchor="middle" x="267.9258" y="-192" font-family="Helvetica,sans-Serif" font-size="10.00" fill="#000000">cstdio</text>
</g>
<!-- Node10&#45;&gt;Node12 -->
<g id="edge14" class="edge">
<title>Node10&#45;&gt;Node12</title>
<path fill="none" stroke="#191970" d="M436.5085,-251.9746C400.4254,-242.785 345.8228,-227.6893 299.9258,-210 298.5218,-209.4589 297.0951,-208.8803 295.6627,-208.2763"/>
<polygon fill="#191970" stroke="#191970" points="296.8618,-204.9774 286.3077,-204.0486 293.979,-211.3563 296.8618,-204.9774"/>
</g>
<!-- Node15&#45;&gt;Node7 -->
<g id="edge19" class="edge">
<title>Node15&#45;&gt;Node7</title>
<path fill="none" stroke="#191970" d="M1938.333,-249.9038C1927.7606,-248.5473 1917.0985,-247.2154 1906.9258,-246 1756.9207,-228.0783 1708.7191,-267.2761 1568.9258,-210 1548.4368,-201.6052 1550.6601,-186.7693 1529.9258,-179 1477.7314,-159.4423 631.2812,-134.1863 436.6211,-128.6178"/>
<polygon fill="#191970" stroke="#191970" points="436.6432,-125.1171 426.5474,-128.3306 436.4436,-132.1143 436.6432,-125.1171"/>
</g>
<!-- Node15&#45;&gt;Node13 -->
<g id="edge20" class="edge">
<title>Node15&#45;&gt;Node13</title>
<path fill="none" stroke="#191970" d="M1971.6642,-246.4831C1945.0646,-237.7417 1912.7669,-225.3945 1885.9258,-210 1867.0189,-199.1561 1868.1436,-187.1427 1847.9258,-179 1665.5124,-105.5333 1597.5044,-191.4953 1406.9258,-143 1404.5892,-142.4054 1402.2119,-141.668 1399.8523,-140.8403"/>
<polygon fill="#191970" stroke="#191970" points="1400.9874,-137.5248 1390.4026,-137.063 1398.3892,-144.0247 1400.9874,-137.5248"/>
</g>
<!-- Node16 -->
<g id="node17" class="node">
<title>Node16</title>
<polygon fill="none" stroke="#bfbfbf" points="2156.9258,-185 2156.9258,-204 2200.9258,-204 2200.9258,-185 2156.9258,-185"/>
<text text-anchor="middle" x="2178.9258" y="-192" font-family="Helvetica,sans-Serif" font-size="10.00" fill="#000000">bitset</text>
</g>
<!-- Node15&#45;&gt;Node16 -->
<g id="edge21" class="edge">
<title>Node15&#45;&gt;Node16</title>
<path fill="none" stroke="#191970" d="M2062.2127,-246.405C2086.8729,-236.4848 2119.5155,-222.983 2147.9258,-210 2148.9383,-209.5373 2149.9663,-209.0606 2151.0024,-208.5742"/>
<polygon fill="#191970" stroke="#191970" points="2152.8621,-211.5626 2160.34,-204.0571 2149.8138,-205.2612 2152.8621,-211.5626"/>
</g>
<!-- Node17 -->
<g id="node18" class="node">
<title>Node17</title>
<polygon fill="none" stroke="#bfbfbf" points="2319.9258,-118 2319.9258,-137 2371.9258,-137 2371.9258,-118 2319.9258,-118"/>
<text text-anchor="middle" x="2345.9258" y="-125" font-family="Helvetica,sans-Serif" font-size="10.00" fill="#000000">cassert</text>
</g>
<!-- Node15&#45;&gt;Node17 -->
<g id="edge22" class="edge">
<title>Node15&#45;&gt;Node17</title>
<path fill="none" stroke="#191970" d="M2101.7001,-246.4671C2135.9051,-238.2271 2175.9406,-226.3068 2209.9258,-210 2231.1669,-199.808 2233.0298,-191.6179 2252.9258,-179 2274.2592,-165.4705 2299.3659,-151.6863 2318.1125,-141.7874"/>
<polygon fill="#191970" stroke="#191970" points="2319.7852,-144.8624 2327.0206,-137.1229 2316.538,-138.6611 2319.7852,-144.8624"/>
</g>
<!-- Node18 -->
<g id="node19" class="node">
<title>Node18</title>
<polygon fill="none" stroke="#bfbfbf" points="2389.9258,-118 2389.9258,-137 2439.9258,-137 2439.9258,-118 2389.9258,-118"/>
<text text-anchor="middle" x="2414.9258" y="-125" font-family="Helvetica,sans-Serif" font-size="10.00" fill="#000000">cstdint</text>
</g>
<!-- Node15&#45;&gt;Node18 -->
<g id="edge23" class="edge">
<title>Node15&#45;&gt;Node18</title>
<path fill="none" stroke="#191970" d="M2109.4887,-249.9175C2151.6126,-242.1547 2202.3592,-229.6453 2244.9258,-210 2265.9912,-200.2779 2266.5741,-190.1391 2286.9258,-179 2326.169,-157.5209 2339.6639,-160.287 2380.9258,-143 2382.3095,-142.4203 2383.7206,-141.8189 2385.1429,-141.2043"/>
<polygon fill="#191970" stroke="#191970" points="2386.7943,-144.3009 2394.5199,-137.0506 2383.9592,-137.9007 2386.7943,-144.3009"/>
</g>
<!-- Node19 -->
<g id="node20" class="node">
<title>Node19</title>
<polygon fill="none" stroke="#bfbfbf" points="2295.4258,-185 2295.4258,-204 2368.4258,-204 2368.4258,-185 2295.4258,-185"/>
<text text-anchor="middle" x="2331.9258" y="-192" font-family="Helvetica,sans-Serif" font-size="10.00" fill="#000000">string_view</text>
</g>
<!-- Node15&#45;&gt;Node19 -->
<g id="edge24" class="edge">
<title>Node15&#45;&gt;Node19</title>
<path fill="none" stroke="#191970" d="M2109.4737,-246.5149C2159.6866,-237.1833 2224.218,-224.2632 2280.9258,-210 2284.754,-209.0371 2288.7224,-207.9648 2292.6781,-206.8462"/>
<polygon fill="#191970" stroke="#191970" points="2293.7802,-210.1706 2302.3972,-204.0064 2291.8169,-203.4515 2293.7802,-210.1706"/>
</g>
<!-- Node15&#45;&gt;Node20 -->
<g id="edge25" class="edge">
<title>Node15&#45;&gt;Node20</title>
<path fill="none" stroke="#191970" d="M2109.7743,-255.8437C2182.3781,-249.4498 2288.5535,-236.2867 2377.9258,-210 2434.9744,-193.2205 2496.9978,-160.9574 2530.6777,-142.1336"/>
<polygon fill="#191970" stroke="#191970" points="2532.4145,-145.1723 2539.3979,-137.2047 2528.97,-139.0784 2532.4145,-145.1723"/>
</g>
<!-- Node21 -->
<g id="node22" class="node">
<title>Node21</title>
<polygon fill="none" stroke="#bfbfbf" points="1769.4258,-185 1769.4258,-204 1838.4258,-204 1838.4258,-185 1769.4258,-185"/>
<text text-anchor="middle" x="1803.9258" y="-192" font-family="Helvetica,sans-Serif" font-size="10.00" fill="#000000">type_traits</text>
</g>
<!-- Node15&#45;&gt;Node21 -->
<g id="edge26" class="edge">
<title>Node15&#45;&gt;Node21</title>
<path fill="none" stroke="#191970" d="M1973.3642,-246.4723C1939.2948,-236.2972 1893.3638,-222.4845 1852.9258,-210 1849.9526,-209.0821 1846.8801,-208.1266 1843.7905,-207.1608"/>
<polygon fill="#191970" stroke="#191970" points="1844.5543,-203.7322 1833.965,-204.0744 1842.4565,-210.4105 1844.5543,-203.7322"/>
</g>
<!-- Node22 -->
<g id="node23" class="node">
<title>Node22</title>
<g id="a_node23"><a xlink:href="../../d9/d52/Common_2MathUtils_2include_2MathUtils_2Utils_8h.html" target="_top" xlink:title="MathUtils/Utils.h">
<polygon fill="none" stroke="#000000" points="1894.9258,-185 1894.9258,-204 1992.9258,-204 1992.9258,-185 1894.9258,-185"/>
<text text-anchor="middle" x="1943.9258" y="-192" font-family="Helvetica,sans-Serif" font-size="10.00" fill="#000000">MathUtils/Utils.h</text>
</a>
</g>
</g>
<!-- Node15&#45;&gt;Node22 -->
<g id="edge27" class="edge">
<title>Node15&#45;&gt;Node22</title>
<path fill="none" stroke="#191970" d="M2005.7726,-246.2967C1993.0662,-235.6551 1976.1171,-221.4602 1963.1756,-210.6217"/>
<polygon fill="#191970" stroke="#191970" points="1965.2485,-207.7924 1955.3347,-204.055 1960.754,-213.159 1965.2485,-207.7924"/>
</g>
<!-- Node27 -->
<g id="node28" class="node">
<title>Node27</title>
<g id="a_node28"><a xlink:href="../../dc/dcd/DataHeader_8h.html" target="_top" xlink:title="Headers/DataHeader.h">
<polygon fill="none" stroke="#000000" points="2011.4258,-185 2011.4258,-204 2138.4258,-204 2138.4258,-185 2011.4258,-185"/>
<text text-anchor="middle" x="2074.9258" y="-192" font-family="Helvetica,sans-Serif" font-size="10.00" fill="#000000">Headers/DataHeader.h</text>
</a>
</g>
</g>
<!-- Node15&#45;&gt;Node27 -->
<g id="edge36" class="edge">
<title>Node15&#45;&gt;Node27</title>
<path fill="none" stroke="#191970" d="M2035.4985,-246.2967C2043.2131,-236.1618 2053.3809,-222.804 2061.4587,-212.1921"/>
<polygon fill="#191970" stroke="#191970" points="2064.3807,-214.1319 2067.6526,-204.055 2058.8108,-209.8921 2064.3807,-214.1319"/>
</g>
<!-- Node22&#45;&gt;Node2 -->
<g id="edge30" class="edge">
<title>Node22&#45;&gt;Node2</title>
<path fill="none" stroke="#191970" d="M1909.4701,-184.9697C1900.2575,-182.7113 1890.2644,-180.52 1880.9258,-179 1686.828,-147.4084 1622.3392,-216.4667 1439.9258,-143 1419.708,-134.8573 1422.181,-120.0491 1401.9258,-112 1349.6928,-91.2435 980.0858,-74.4705 829.519,-68.4232"/>
<polygon fill="#191970" stroke="#191970" points="829.6252,-64.9247 819.4936,-68.0234 829.3462,-71.9192 829.6252,-64.9247"/>
</g>
<!-- Node22&#45;&gt;Node13 -->
<g id="edge28" class="edge">
<title>Node22&#45;&gt;Node13</title>
<path fill="none" stroke="#191970" d="M1909.4759,-184.934C1900.2632,-182.6758 1890.2687,-180.4936 1880.9258,-179 1672.3014,-145.6486 1611.8206,-194.5225 1406.9258,-143 1404.5875,-142.412 1402.209,-141.6794 1399.8486,-140.8549"/>
<polygon fill="#191970" stroke="#191970" points="1400.9824,-137.539 1390.3974,-137.0837 1398.3882,-144.0405 1400.9824,-137.539"/>
</g>
<!-- Node23 -->
<g id="node24" class="node">
<title>Node23</title>
<polygon fill="none" stroke="#bfbfbf" points="1723.4258,-56.5 1723.4258,-75.5 1770.4258,-75.5 1770.4258,-56.5 1723.4258,-56.5"/>
<text text-anchor="middle" x="1746.9258" y="-63.5" font-family="Helvetica,sans-Serif" font-size="10.00" fill="#000000">cmath</text>
</g>
<!-- Node22&#45;&gt;Node23 -->
<g id="edge29" class="edge">
<title>Node22&#45;&gt;Node23</title>
<path fill="none" stroke="#191970" d="M1913.2163,-184.9589C1887.9557,-176.2829 1851.8928,-161.9449 1823.9258,-143 1799.1342,-126.2062 1775.5443,-100.7174 1761.1595,-83.7218"/>
<polygon fill="#191970" stroke="#191970" points="1763.5914,-81.1708 1754.5186,-75.6994 1758.1992,-85.6345 1763.5914,-81.1708"/>
</g>
<!-- Node24 -->
<g id="node25" class="node">
<title>Node24</title>
<g id="a_node25"><a xlink:href="../../d6/da2/GPUCommonMath_8h.html" target="_top" xlink:title="GPUCommonMath.h">
<polygon fill="none" stroke="#000000" points="1660.4258,-118 1660.4258,-137 1775.4258,-137 1775.4258,-118 1660.4258,-118"/>
<text text-anchor="middle" x="1717.9258" y="-125" font-family="Helvetica,sans-Serif" font-size="10.00" fill="#000000">GPUCommonMath.h</text>
</a>
</g>
</g>
<!-- Node22&#45;&gt;Node24 -->
<g id="edge31" class="edge">
<title>Node22&#45;&gt;Node24</title>
<path fill="none" stroke="#191970" d="M1911.5455,-184.9005C1871.6877,-173.0843 1803.9072,-152.9901 1760.0379,-139.9845"/>
<polygon fill="#191970" stroke="#191970" points="1760.8284,-136.5684 1750.246,-137.0817 1758.8388,-143.2797 1760.8284,-136.5684"/>
</g>
<!-- Node26 -->
<g id="node27" class="node">
<title>Node26</title>
<g id="a_node27"><a xlink:href="../../d6/d84/MathConstants_8h.html" target="_top" xlink:title="useful math constants ">
<polygon fill="none" stroke="#000000" points="1448.9258,-118 1448.9258,-137 1642.9258,-137 1642.9258,-118 1448.9258,-118"/>
<text text-anchor="middle" x="1545.9258" y="-125" font-family="Helvetica,sans-Serif" font-size="10.00" fill="#000000">CommonConstants/MathConstants.h</text>
</a>
</g>
</g>
<!-- Node22&#45;&gt;Node26 -->
<g id="edge35" class="edge">
<title>Node22&#45;&gt;Node26</title>
<path fill="none" stroke="#191970" d="M1907.4039,-184.9326C1898.7559,-182.8289 1889.5417,-180.7186 1880.9258,-179 1855.8964,-174.0073 1710.9262,-152.1278 1620.0837,-138.5436"/>
<polygon fill="#191970" stroke="#191970" points="1620.5122,-135.0689 1610.1047,-137.0522 1619.4775,-141.992 1620.5122,-135.0689"/>
</g>
<!-- Node24&#45;&gt;Node2 -->
<g id="edge32" class="edge">
<title>Node24&#45;&gt;Node2</title>
<path fill="none" stroke="#191970" d="M1682.5243,-117.9579C1672.6839,-115.6421 1661.9472,-113.4252 1651.9258,-112 1492.9739,-89.3942 1005.3483,-73.101 829.7662,-67.8303"/>
<polygon fill="#191970" stroke="#191970" points="829.7497,-64.3284 819.6497,-67.5285 829.5409,-71.3253 829.7497,-64.3284"/>
</g>
<!-- Node24&#45;&gt;Node23 -->
<g id="edge33" class="edge">
<title>Node24&#45;&gt;Node23</title>
<path fill="none" stroke="#191970" d="M1722.4571,-117.8906C1726.6039,-109.0965 1732.8591,-95.8312 1738.0068,-84.9145"/>
<polygon fill="#191970" stroke="#191970" points="1741.2313,-86.2825 1742.3307,-75.7449 1734.8999,-83.2969 1741.2313,-86.2825"/>
</g>
<!-- Node25 -->
<g id="node26" class="node">
<title>Node25</title>
<polygon fill="none" stroke="#bfbfbf" points="1846.9258,-56.5 1846.9258,-75.5 1910.9258,-75.5 1910.9258,-56.5 1846.9258,-56.5"/>
<text text-anchor="middle" x="1878.9258" y="-63.5" font-family="Helvetica,sans-Serif" font-size="10.00" fill="#000000">algorithm</text>
</g>
<!-- Node24&#45;&gt;Node25 -->
<g id="edge34" class="edge">
<title>Node24&#45;&gt;Node25</title>
<path fill="none" stroke="#191970" d="M1743.0821,-117.8906C1770.3748,-107.4652 1814.1178,-90.7559 1844.5655,-79.1252"/>
<polygon fill="#191970" stroke="#191970" points="1845.8535,-82.3799 1853.9462,-75.5419 1843.3556,-75.8408 1845.8535,-82.3799"/>
</g>
<!-- Node27&#45;&gt;Node17 -->
<g id="edge39" class="edge">
<title>Node27&#45;&gt;Node17</title>
<path fill="none" stroke="#191970" d="M2119.5974,-184.9946C2185.4477,-170.9478 2301.8199,-145.976 2310.9258,-143 2312.8209,-142.3807 2314.7524,-141.6936 2316.6859,-140.9633"/>
<polygon fill="#191970" stroke="#191970" points="2318.2815,-144.092 2326.2091,-137.0632 2315.6286,-137.6142 2318.2815,-144.092"/>
</g>
<!-- Node27&#45;&gt;Node18 -->
<g id="edge37" class="edge">
<title>Node27&#45;&gt;Node18</title>
<path fill="none" stroke="#191970" d="M2118.0795,-184.9198C2127.8719,-182.8622 2138.2405,-180.775 2147.9258,-179 2250.9935,-160.1108 2280.5323,-173.015 2380.9258,-143 2382.837,-142.4286 2384.7797,-141.7708 2386.7186,-141.0557"/>
<polygon fill="#191970" stroke="#191970" points="2388.3103,-144.1852 2396.2198,-137.1361 2385.6407,-137.7143 2388.3103,-144.1852"/>
</g>
<!-- Node27&#45;&gt;Node20 -->
<g id="edge43" class="edge">
<title>Node27&#45;&gt;Node20</title>
<path fill="none" stroke="#191970" d="M2115.7007,-184.9847C2126.1609,-182.7801 2137.4246,-180.6109 2147.9258,-179 2314.2975,-153.4789 2363.1364,-189.4225 2524.9258,-143 2526.6357,-142.5094 2528.364,-141.9254 2530.0837,-141.2761"/>
<polygon fill="#191970" stroke="#191970" points="2531.9247,-144.2888 2539.6511,-137.0394 2529.0903,-137.8883 2531.9247,-144.2888"/>
</g>
<!-- Node27&#45;&gt;Node25 -->
<g id="edge41" class="edge">
<title>Node27&#45;&gt;Node25</title>
<path fill="none" stroke="#191970" d="M2038.7652,-184.9149C2000.8744,-174.3545 1944.4609,-157.0101 1926.9258,-143 1907.8673,-127.7727 1894.302,-102.7916 1886.558,-85.4292"/>
<polygon fill="#191970" stroke="#191970" points="1889.5942,-83.6201 1882.4915,-75.7586 1883.1415,-86.3335 1889.5942,-83.6201"/>
</g>
<!-- Node27&#45;&gt;Node28 -->
<g id="edge38" class="edge">
<title>Node27&#45;&gt;Node28</title>
<path fill="none" stroke="#191970" d="M2116.495,-184.9964C2126.7367,-182.8423 2137.7002,-180.6936 2147.9258,-179 2280.8464,-156.9859 2318.4892,-176.746 2448.9258,-143 2451.5513,-142.3207 2454.2361,-141.5008 2456.9045,-140.5971"/>
<polygon fill="#191970" stroke="#191970" points="2458.2222,-143.8411 2466.3616,-137.0586 2455.7691,-137.285 2458.2222,-143.8411"/>
</g>
<!-- Node29 -->
<g id="node30" class="node">
<title>Node29</title>
<polygon fill="none" stroke="#bfbfbf" points="1935.9258,-118 1935.9258,-137 1985.9258,-137 1985.9258,-118 1935.9258,-118"/>
<text text-anchor="middle" x="1960.9258" y="-125" font-family="Helvetica,sans-Serif" font-size="10.00" fill="#000000">cstring</text>
</g>
<!-- Node27&#45;&gt;Node29 -->
<g id="edge40" class="edge">
<title>Node27&#45;&gt;Node29</title>
<path fill="none" stroke="#191970" d="M2058.5924,-184.9005C2039.6299,-173.7559 2008.1383,-155.2477 1986.0538,-142.2682"/>
<polygon fill="#191970" stroke="#191970" points="1987.6237,-139.1311 1977.2289,-137.0817 1984.0768,-145.1661 1987.6237,-139.1311"/>
</g>
<!-- Node30 -->
<g id="node31" class="node">
<title>Node30</title>
<polygon fill="none" stroke="#bfbfbf" points="2004.4258,-118 2004.4258,-137 2069.4258,-137 2069.4258,-118 2004.4258,-118"/>
<text text-anchor="middle" x="2036.9258" y="-125" font-family="Helvetica,sans-Serif" font-size="10.00" fill="#000000">stdexcept</text>
</g>
<!-- Node27&#45;&gt;Node30 -->
<g id="edge42" class="edge">
<title>Node27&#45;&gt;Node30</title>
<path fill="none" stroke="#191970" d="M2069.4813,-184.9005C2063.7249,-174.751 2054.5045,-158.4941 2047.3434,-145.8679"/>
<polygon fill="#191970" stroke="#191970" points="2050.3381,-144.0533 2042.3602,-137.0817 2044.2492,-147.5067 2050.3381,-144.0533"/>
</g>
<!-- Node31 -->
<g id="node32" class="node">
<title>Node31</title>
<polygon fill="none" stroke="#bfbfbf" points="2087.9258,-118 2087.9258,-137 2137.9258,-137 2137.9258,-118 2087.9258,-118"/>
<text text-anchor="middle" x="2112.9258" y="-125" font-family="Helvetica,sans-Serif" font-size="10.00" fill="#000000">climits</text>
</g>
<!-- Node27&#45;&gt;Node31 -->
<g id="edge44" class="edge">
<title>Node27&#45;&gt;Node31</title>
<path fill="none" stroke="#191970" d="M2080.3703,-184.9005C2086.1268,-174.751 2095.3471,-158.4941 2102.5082,-145.8679"/>
<polygon fill="#191970" stroke="#191970" points="2105.6024,-147.5067 2107.4914,-137.0817 2099.5136,-144.0533 2105.6024,-147.5067"/>
</g>
<!-- Node32 -->
<g id="node33" class="node">
<title>Node32</title>
<g id="a_node33"><a xlink:href="../../d7/df8/Types_8h.html" target="_top" xlink:title="MemoryResources/Types.h">
<polygon fill="none" stroke="#000000" points="2155.9258,-118 2155.9258,-137 2301.9258,-137 2301.9258,-118 2155.9258,-118"/>
<text text-anchor="middle" x="2228.9258" y="-125" font-family="Helvetica,sans-Serif" font-size="10.00" fill="#000000">MemoryResources/Types.h</text>
</a>
</g>
</g>
<!-- Node27&#45;&gt;Node32 -->
<g id="edge45" class="edge">
<title>Node27&#45;&gt;Node32</title>
<path fill="none" stroke="#191970" d="M2096.9903,-184.9005C2123.2924,-173.4574 2167.4386,-154.2509 2197.3504,-141.2374"/>
<polygon fill="#191970" stroke="#191970" points="2199.1289,-144.2806 2206.9023,-137.0817 2196.3362,-137.8617 2199.1289,-144.2806"/>
</g>
<!-- Node33 -->
<g id="node34" class="node">
<title>Node33</title>
<polygon fill="none" stroke="#bfbfbf" points="1832.4258,-118 1832.4258,-137 1879.4258,-137 1879.4258,-118 1832.4258,-118"/>
<text text-anchor="middle" x="1855.9258" y="-125" font-family="Helvetica,sans-Serif" font-size="10.00" fill="#000000">cerrno</text>
</g>
<!-- Node27&#45;&gt;Node33 -->
<g id="edge46" class="edge">
<title>Node27&#45;&gt;Node33</title>
<path fill="none" stroke="#191970" d="M2036.7618,-184.9484C1999.8686,-175.4089 1942.5683,-159.7836 1893.9258,-143 1892.0063,-142.3377 1890.0431,-141.6307 1888.0699,-140.8973"/>
<polygon fill="#191970" stroke="#191970" points="1888.8638,-137.451 1878.275,-137.0933 1886.3296,-143.9762 1888.8638,-137.451"/>
</g>
<!-- Node34&#45;&gt;Node7 -->
<g id="edge53" class="edge">
<title>Node34&#45;&gt;Node7</title>
<path fill="none" stroke="#191970" d="M986.2531,-260.4437C831.0492,-257.402 459.5068,-246.3645 416.9258,-210 399.0321,-194.7186 395.6788,-166.4075 395.689,-147.2638"/>
<polygon fill="#191970" stroke="#191970" points="399.1888,-147.3228 395.9992,-137.2195 392.1921,-147.1067 399.1888,-147.3228"/>
</g>
<!-- Node35 -->
<g id="node36" class="node">
<title>Node35</title>
<polygon fill="none" stroke="#bfbfbf" points="492.9258,-179.5 492.9258,-209.5 656.9258,-209.5 656.9258,-179.5 492.9258,-179.5"/>
<text text-anchor="start" x="500.9258" y="-197.5" font-family="Helvetica,sans-Serif" font-size="10.00" fill="#000000">Math/GenVector/Displacement</text>
<text text-anchor="middle" x="574.9258" y="-186.5" font-family="Helvetica,sans-Serif" font-size="10.00" fill="#000000">Vector3D.h</text>
</g>
<!-- Node34&#45;&gt;Node35 -->
<g id="edge48" class="edge">
<title>Node34&#45;&gt;Node35</title>
<path fill="none" stroke="#191970" d="M986.3618,-253.2284C911.1626,-243.8597 785.7757,-227.7564 667.1494,-210.0012"/>
<polygon fill="#191970" stroke="#191970" points="667.5712,-206.5254 657.162,-208.5 666.5307,-213.4476 667.5712,-206.5254"/>
</g>
<!-- Node36 -->
<g id="node37" class="node">
<title>Node36</title>
<polygon fill="none" stroke="#bfbfbf" points="675.4258,-185 675.4258,-204 864.4258,-204 864.4258,-185 675.4258,-185"/>
<text text-anchor="middle" x="769.9258" y="-192" font-family="Helvetica,sans-Serif" font-size="10.00" fill="#000000">Math/GenVector/PositionVector3D.h</text>
</g>
<!-- Node34&#45;&gt;Node36 -->
<g id="edge49" class="edge">
<title>Node34&#45;&gt;Node36</title>
<path fill="none" stroke="#191970" d="M1013.5371,-251.9717C962.7906,-239.9998 875.6858,-219.4504 820.5434,-206.4415"/>
<polygon fill="#191970" stroke="#191970" points="821.1715,-202.9936 810.635,-204.1039 819.5641,-209.8066 821.1715,-202.9936"/>
</g>
<!-- Node37 -->
<g id="node38" class="node">
<title>Node37</title>
<polygon fill="none" stroke="#bfbfbf" points="882.9258,-185 882.9258,-204 1042.9258,-204 1042.9258,-185 882.9258,-185"/>
<text text-anchor="middle" x="962.9258" y="-192" font-family="Helvetica,sans-Serif" font-size="10.00" fill="#000000">Math/GenVector/Rotation3D.h</text>
</g>
<!-- Node34&#45;&gt;Node37 -->
<g id="edge50" class="edge">
<title>Node34&#45;&gt;Node37</title>
<path fill="none" stroke="#191970" d="M1040.8877,-251.9005C1026.1565,-241.0544 1001.9525,-223.2339 984.4166,-210.3229"/>
<polygon fill="#191970" stroke="#191970" points="986.0677,-207.1922 975.9397,-204.0817 981.9174,-212.8291 986.0677,-207.1922"/>
</g>
<!-- Node38 -->
<g id="node39" class="node">
<title>Node38</title>
<polygon fill="none" stroke="#bfbfbf" points="1060.9258,-185 1060.9258,-204 1228.9258,-204 1228.9258,-185 1060.9258,-185"/>
<text text-anchor="middle" x="1144.9258" y="-192" font-family="Helvetica,sans-Serif" font-size="10.00" fill="#000000">Math/GenVector/Transform3D.h</text>
</g>
<!-- Node34&#45;&gt;Node38 -->
<g id="edge51" class="edge">
<title>Node34&#45;&gt;Node38</title>
<path fill="none" stroke="#191970" d="M1066.9639,-251.9005C1081.6952,-241.0544 1105.8991,-223.2339 1123.4351,-210.3229"/>
<polygon fill="#191970" stroke="#191970" points="1125.9343,-212.8291 1131.9119,-204.0817 1121.784,-207.1922 1125.9343,-212.8291"/>
</g>
<!-- Node39 -->
<g id="node40" class="node">
<title>Node39</title>
<polygon fill="none" stroke="#bfbfbf" points="1247.4258,-185 1247.4258,-204 1420.4258,-204 1420.4258,-185 1247.4258,-185"/>
<text text-anchor="middle" x="1333.9258" y="-192" font-family="Helvetica,sans-Serif" font-size="10.00" fill="#000000">Math/GenVector/Translation3D.h</text>
</g>
<!-- Node34&#45;&gt;Node39 -->
<g id="edge52" class="edge">
<title>Node34&#45;&gt;Node39</title>
<path fill="none" stroke="#191970" d="M1093.7456,-251.9717C1143.7774,-239.9998 1229.6554,-219.4504 1284.0212,-206.4415"/>
<polygon fill="#191970" stroke="#191970" points="1284.8791,-209.8351 1293.79,-204.1039 1283.25,-203.0272 1284.8791,-209.8351"/>
</g>
<!-- Node40 -->
<g id="node41" class="node">
<title>Node40</title>
<polygon fill="none" stroke="#bfbfbf" points="1438.9258,-185 1438.9258,-204 1520.9258,-204 1520.9258,-185 1438.9258,-185"/>
<text text-anchor="middle" x="1479.9258" y="-192" font-family="Helvetica,sans-Serif" font-size="10.00" fill="#000000">TGeoMatrix.h</text>
</g>
<!-- Node34&#45;&gt;Node40 -->
<g id="edge54" class="edge">
<title>Node34&#45;&gt;Node40</title>
<path fill="none" stroke="#191970" d="M1121.7606,-255.5986C1197.5133,-248.2257 1323.4718,-233.6223 1429.9258,-210 1434.0182,-209.0919 1438.259,-208.0079 1442.4619,-206.8408"/>
<polygon fill="#191970" stroke="#191970" points="1443.5016,-210.1833 1452.1124,-204.0105 1441.5315,-203.4663 1443.5016,-210.1833"/>
</g>
<!-- Node41 -->
<g id="node42" class="node">
<title>Node41</title>
<polygon fill="none" stroke="#bfbfbf" points="425.4258,-185 425.4258,-204 474.4258,-204 474.4258,-185 425.4258,-185"/>
<text text-anchor="middle" x="449.9258" y="-192" font-family="Helvetica,sans-Serif" font-size="10.00" fill="#000000">iosfwd</text>
</g>
<!-- Node34&#45;&gt;Node41 -->
<g id="edge55" class="edge">
<title>Node34&#45;&gt;Node41</title>
<path fill="none" stroke="#191970" d="M986.2146,-258.2433C856.3935,-251.5283 577.0937,-234.677 483.9258,-210 481.7349,-209.4197 479.5087,-208.7091 477.2977,-207.9146"/>
<polygon fill="#191970" stroke="#191970" points="478.438,-204.5993 467.8581,-204.0378 475.7787,-211.0745 478.438,-204.5993"/>
</g>
<!-- Node42 -->
<g id="node43" class="node">
<title>Node42</title>
<g id="a_node43"><a xlink:href="../../d2/dd0/Cartesian2D_8h.html" target="_top" xlink:title="MathUtils/Cartesian2D.h">
<polygon fill="none" stroke="#000000" points="1577.4258,-185 1577.4258,-204 1712.4258,-204 1712.4258,-185 1577.4258,-185"/>
<text text-anchor="middle" x="1644.9258" y="-192" font-family="Helvetica,sans-Serif" font-size="10.00" fill="#000000">MathUtils/Cartesian2D.h</text>
</a>
</g>
</g>
<!-- Node34&#45;&gt;Node42 -->
<g id="edge56" class="edge">
<title>Node34&#45;&gt;Node42</title>
<path fill="none" stroke="#191970" d="M1121.7796,-254.7234C1214.1753,-245.3669 1384.7,-227.6401 1529.9258,-210 1541.9978,-208.5337 1554.7706,-206.897 1567.2426,-205.252"/>
<polygon fill="#191970" stroke="#191970" points="1567.7094,-208.7208 1577.1612,-203.934 1566.7873,-201.7818 1567.7094,-208.7208"/>
</g>
<!-- Node43 -->
<g id="node44" class="node">
<title>Node43</title>
<polygon fill="none" stroke="#bfbfbf" points="1168.9258,-112.5 1168.9258,-142.5 1332.9258,-142.5 1332.9258,-112.5 1168.9258,-112.5"/>
<text text-anchor="start" x="1176.9258" y="-130.5" font-family="Helvetica,sans-Serif" font-size="10.00" fill="#000000">Math/GenVector/Displacement</text>
<text text-anchor="middle" x="1250.9258" y="-119.5" font-family="Helvetica,sans-Serif" font-size="10.00" fill="#000000">Vector2D.h</text>
</g>
<!-- Node42&#45;&gt;Node43 -->
<g id="edge57" class="edge">
<title>Node42&#45;&gt;Node43</title>
<path fill="none" stroke="#191970" d="M1595.5305,-184.9534C1584.7912,-182.9365 1573.4849,-180.8577 1562.9258,-179 1468.0728,-162.3124 1441.7656,-159.5253 1343.339,-143.2259"/>
<polygon fill="#191970" stroke="#191970" points="1343.6996,-139.7379 1333.2612,-141.5516 1342.5524,-146.6432 1343.6996,-139.7379"/>
</g>
<!-- Node44 -->
<g id="node45" class="node">
<title>Node44</title>
<polygon fill="none" stroke="#bfbfbf" points="961.4258,-118 961.4258,-137 1150.4258,-137 1150.4258,-118 961.4258,-118"/>
<text text-anchor="middle" x="1055.9258" y="-125" font-family="Helvetica,sans-Serif" font-size="10.00" fill="#000000">Math/GenVector/PositionVector2D.h</text>
</g>
<!-- Node42&#45;&gt;Node44 -->
<g id="edge58" class="edge">
<title>Node42&#45;&gt;Node44</title>
<path fill="none" stroke="#191970" d="M1598.6543,-184.9357C1587.0272,-182.7582 1574.5498,-180.6139 1562.9258,-179 1384.81,-154.2706 1338.4886,-164.2632 1159.9258,-143 1148.85,-141.6811 1137.1367,-140.1088 1125.7212,-138.4792"/>
<polygon fill="#191970" stroke="#191970" points="1126.1887,-135.0104 1115.7895,-137.0373 1125.1829,-141.9378 1126.1887,-135.0104"/>
</g>
</g>
</svg>
