<?xml version="1.0" encoding="UTF-8" standalone="no"?>
<!DOCTYPE svg PUBLIC "-//W3C//DTD SVG 1.1//EN"
 "http://www.w3.org/Graphics/SVG/1.1/DTD/svg11.dtd">
<!-- Generated by graphviz version 2.40.1 (20161225.0304)
 -->
<!-- Title: /home/travis/build/AliceO2Group/AliceO2/DataFormats/Detectors/Common/include/DetectorsCommonDataFormats/CTFHeader.h Pages: 1 -->
<svg width="1304pt" height="363pt"
 viewBox="0.00 0.00 1303.50 363.00" xmlns="http://www.w3.org/2000/svg" xmlns:xlink="http://www.w3.org/1999/xlink">
<g id="graph0" class="graph" transform="scale(1 1) rotate(0) translate(4 359)">
<title>/home/travis/build/AliceO2Group/AliceO2/DataFormats/Detectors/Common/include/DetectorsCommonDataFormats/CTFHeader.h</title>
<!-- Node0 -->
<g id="node1" class="node">
<title>Node0</title>
<polygon fill="#bfbfbf" stroke="#000000" points="0,-291.5 0,-354.5 197,-354.5 197,-291.5 0,-291.5"/>
<text text-anchor="start" x="8" y="-342.5" font-family="Helvetica,sans-Serif" font-size="10.00" fill="#000000">/home/travis/build</text>
<text text-anchor="start" x="8" y="-331.5" font-family="Helvetica,sans-Serif" font-size="10.00" fill="#000000">/AliceO2Group/AliceO2</text>
<text text-anchor="start" x="8" y="-320.5" font-family="Helvetica,sans-Serif" font-size="10.00" fill="#000000">/DataFormats/Detectors</text>
<text text-anchor="start" x="8" y="-309.5" font-family="Helvetica,sans-Serif" font-size="10.00" fill="#000000">/Common/include/DetectorsCommon</text>
<text text-anchor="middle" x="98.5" y="-298.5" font-family="Helvetica,sans-Serif" font-size="10.00" fill="#000000">DataFormats/CTFHeader.h</text>
</g>
<!-- Node1 -->
<g id="node2" class="node">
<title>Node1</title>
<polygon fill="none" stroke="#bfbfbf" points="69,-168.5 69,-187.5 128,-187.5 128,-168.5 69,-168.5"/>
<text text-anchor="middle" x="98.5" y="-175.5" font-family="Helvetica,sans-Serif" font-size="10.00" fill="#000000">Rtypes.h</text>
</g>
<!-- Node0&#45;&gt;Node1 -->
<g id="edge1" class="edge">
<title>Node0&#45;&gt;Node1</title>
<path fill="none" stroke="#191970" d="M98.5,-291.1791C98.5,-262.6799 98.5,-221.7812 98.5,-197.7465"/>
<polygon fill="#191970" stroke="#191970" points="102.0001,-197.7125 98.5,-187.7125 95.0001,-197.7125 102.0001,-197.7125"/>
</g>
<!-- Node2 -->
<g id="node3" class="node">
<title>Node2</title>
<polygon fill="none" stroke="#bfbfbf" points="67.5,-112.5 67.5,-131.5 111.5,-131.5 111.5,-112.5 67.5,-112.5"/>
<text text-anchor="middle" x="89.5" y="-119.5" font-family="Helvetica,sans-Serif" font-size="10.00" fill="#000000">string</text>
</g>
<!-- Node0&#45;&gt;Node2 -->
<g id="edge2" class="edge">
<title>Node0&#45;&gt;Node2</title>
<path fill="none" stroke="#191970" d="M80.5307,-291.319C65.0174,-259.841 46.9281,-210.291 59.5,-168 62.5326,-157.7984 68.6244,-147.7475 74.5309,-139.6555"/>
<polygon fill="#191970" stroke="#191970" points="77.323,-141.7667 80.7139,-131.7291 71.8036,-137.4613 77.323,-141.7667"/>
</g>
<!-- Node3 -->
<g id="node4" class="node">
<title>Node3</title>
<g id="a_node4"><a xlink:href="../../d6/d31/DetID_8h.html" target="_top" xlink:title="DetectorsCommonDataFormats\l/DetID.h">
<polygon fill="none" stroke="#000000" points="236,-224.5 236,-254.5 407,-254.5 407,-224.5 236,-224.5"/>
<text text-anchor="start" x="244" y="-242.5" font-family="Helvetica,sans-Serif" font-size="10.00" fill="#000000">DetectorsCommonDataFormats</text>
<text text-anchor="middle" x="321.5" y="-231.5" font-family="Helvetica,sans-Serif" font-size="10.00" fill="#000000">/DetID.h</text>
</a>
</g>
</g>
<!-- Node0&#45;&gt;Node3 -->
<g id="edge3" class="edge">
<title>Node0&#45;&gt;Node3</title>
<path fill="none" stroke="#191970" d="M182.8067,-291.4322C212.7734,-280.2115 245.5309,-267.9458 271.6826,-258.1536"/>
<polygon fill="#191970" stroke="#191970" points="273.2248,-261.3135 281.3624,-254.5291 270.7701,-254.758 273.2248,-261.3135"/>
</g>
<!-- Node3&#45;&gt;Node1 -->
<g id="edge4" class="edge">
<title>Node3&#45;&gt;Node1</title>
<path fill="none" stroke="#191970" d="M266.9481,-224.4554C227.1636,-213.4835 174.1565,-198.8649 138.3113,-188.9793"/>
<polygon fill="#191970" stroke="#191970" points="138.7977,-185.4829 128.227,-186.1983 136.9366,-192.231 138.7977,-185.4829"/>
</g>
<!-- Node3&#45;&gt;Node2 -->
<g id="edge10" class="edge">
<title>Node3&#45;&gt;Node2</title>
<path fill="none" stroke="#191970" d="M275.4826,-224.4828C249.3618,-215.2734 216.4113,-202.4856 188.5,-188 160.0397,-173.2295 129.6946,-152.1054 110.2143,-137.7634"/>
<polygon fill="#191970" stroke="#191970" points="112.1842,-134.8665 102.0742,-131.6982 108.0018,-140.4797 112.1842,-134.8665"/>
</g>
<!-- Node4 -->
<g id="node5" class="node">
<title>Node4</title>
<polygon fill="none" stroke="#bfbfbf" points="1253.5,-112.5 1253.5,-131.5 1295.5,-131.5 1295.5,-112.5 1253.5,-112.5"/>
<text text-anchor="middle" x="1274.5" y="-119.5" font-family="Helvetica,sans-Serif" font-size="10.00" fill="#000000">array</text>
</g>
<!-- Node3&#45;&gt;Node4 -->
<g id="edge5" class="edge">
<title>Node3&#45;&gt;Node4</title>
<path fill="none" stroke="#191970" d="M407.3068,-236.3272C605.6187,-228.689 1084.1812,-208.3953 1154.5,-188 1191.7948,-177.183 1230.3444,-153.3055 1253.3685,-137.4344"/>
<polygon fill="#191970" stroke="#191970" points="1255.5141,-140.2043 1261.6774,-131.5866 1251.4853,-134.4799 1255.5141,-140.2043"/>
</g>
<!-- Node5 -->
<g id="node6" class="node">
<title>Node5</title>
<polygon fill="none" stroke="#bfbfbf" points="222.5,-168.5 222.5,-187.5 266.5,-187.5 266.5,-168.5 222.5,-168.5"/>
<text text-anchor="middle" x="244.5" y="-175.5" font-family="Helvetica,sans-Serif" font-size="10.00" fill="#000000">bitset</text>
</g>
<!-- Node3&#45;&gt;Node5 -->
<g id="edge6" class="edge">
<title>Node3&#45;&gt;Node5</title>
<path fill="none" stroke="#191970" d="M302.4663,-224.2977C290.9985,-215.1384 276.4038,-203.4816 264.7281,-194.1562"/>
<polygon fill="#191970" stroke="#191970" points="266.8266,-191.3529 256.8287,-187.8469 262.4581,-196.8225 266.8266,-191.3529"/>
</g>
<!-- Node6 -->
<g id="node7" class="node">
<title>Node6</title>
<polygon fill="none" stroke="#bfbfbf" points="761.5,-112.5 761.5,-131.5 813.5,-131.5 813.5,-112.5 761.5,-112.5"/>
<text text-anchor="middle" x="787.5" y="-119.5" font-family="Helvetica,sans-Serif" font-size="10.00" fill="#000000">cassert</text>
</g>
<!-- Node3&#45;&gt;Node6 -->
<g id="edge7" class="edge">
<title>Node3&#45;&gt;Node6</title>
<path fill="none" stroke="#191970" d="M407.1103,-227.0355C462.2308,-218.1645 535.1559,-204.8437 598.5,-188 654.308,-173.1602 717.2885,-149.7814 754.6225,-135.1989"/>
<polygon fill="#191970" stroke="#191970" points="755.9687,-138.4304 763.9933,-131.5126 753.4062,-131.9163 755.9687,-138.4304"/>
</g>
<!-- Node7 -->
<g id="node8" class="node">
<title>Node7</title>
<polygon fill="none" stroke="#bfbfbf" points="129.5,-112.5 129.5,-131.5 179.5,-131.5 179.5,-112.5 129.5,-112.5"/>
<text text-anchor="middle" x="154.5" y="-119.5" font-family="Helvetica,sans-Serif" font-size="10.00" fill="#000000">cstdint</text>
</g>
<!-- Node3&#45;&gt;Node7 -->
<g id="edge8" class="edge">
<title>Node3&#45;&gt;Node7</title>
<path fill="none" stroke="#191970" d="M280.3748,-224.4333C259.2581,-215.6071 233.7795,-203.1984 213.5,-188 195.1673,-174.2606 178.1804,-154.1445 167.1875,-139.7359"/>
<polygon fill="#191970" stroke="#191970" points="169.9283,-137.5559 161.1591,-131.6102 164.3065,-141.7267 169.9283,-137.5559"/>
</g>
<!-- Node8 -->
<g id="node9" class="node">
<title>Node8</title>
<polygon fill="none" stroke="#bfbfbf" points="285,-168.5 285,-187.5 358,-187.5 358,-168.5 285,-168.5"/>
<text text-anchor="middle" x="321.5" y="-175.5" font-family="Helvetica,sans-Serif" font-size="10.00" fill="#000000">string_view</text>
</g>
<!-- Node3&#45;&gt;Node8 -->
<g id="edge9" class="edge">
<title>Node3&#45;&gt;Node8</title>
<path fill="none" stroke="#191970" d="M321.5,-224.2977C321.5,-216.3834 321.5,-206.6043 321.5,-198.0759"/>
<polygon fill="#191970" stroke="#191970" points="325.0001,-197.8469 321.5,-187.8469 318.0001,-197.847 325.0001,-197.8469"/>
</g>
<!-- Node9 -->
<g id="node10" class="node">
<title>Node9</title>
<polygon fill="none" stroke="#bfbfbf" points="376,-168.5 376,-187.5 445,-187.5 445,-168.5 376,-168.5"/>
<text text-anchor="middle" x="410.5" y="-175.5" font-family="Helvetica,sans-Serif" font-size="10.00" fill="#000000">type_traits</text>
</g>
<!-- Node3&#45;&gt;Node9 -->
<g id="edge11" class="edge">
<title>Node3&#45;&gt;Node9</title>
<path fill="none" stroke="#191970" d="M343.5,-224.2977C357.0968,-214.9022 374.4966,-202.8787 388.1567,-193.4395"/>
<polygon fill="#191970" stroke="#191970" points="390.2785,-196.2276 396.5158,-187.6633 386.2991,-190.4688 390.2785,-196.2276"/>
</g>
<!-- Node10 -->
<g id="node11" class="node">
<title>Node10</title>
<g id="a_node11"><a xlink:href="../../d9/d52/Common_2MathUtils_2include_2MathUtils_2Utils_8h.html" target="_top" xlink:title="MathUtils/Utils.h">
<polygon fill="none" stroke="#000000" points="1047.5,-168.5 1047.5,-187.5 1145.5,-187.5 1145.5,-168.5 1047.5,-168.5"/>
<text text-anchor="middle" x="1096.5" y="-175.5" font-family="Helvetica,sans-Serif" font-size="10.00" fill="#000000">MathUtils/Utils.h</text>
</a>
</g>
</g>
<!-- Node3&#45;&gt;Node10 -->
<g id="edge12" class="edge">
<title>Node3&#45;&gt;Node10</title>
<path fill="none" stroke="#191970" d="M407.0273,-232.713C565.4799,-220.139 900.9209,-193.5202 1037.1369,-182.7108"/>
<polygon fill="#191970" stroke="#191970" points="1037.679,-186.1788 1047.3707,-181.8986 1037.1252,-179.2008 1037.679,-186.1788"/>
</g>
<!-- Node18 -->
<g id="node19" class="node">
<title>Node18</title>
<g id="a_node19"><a xlink:href="../../dc/dcd/DataHeader_8h.html" target="_top" xlink:title="Headers/DataHeader.h">
<polygon fill="none" stroke="#000000" points="463,-168.5 463,-187.5 590,-187.5 590,-168.5 463,-168.5"/>
<text text-anchor="middle" x="526.5" y="-175.5" font-family="Helvetica,sans-Serif" font-size="10.00" fill="#000000">Headers/DataHeader.h</text>
</a>
</g>
</g>
<!-- Node3&#45;&gt;Node18 -->
<g id="edge23" class="edge">
<title>Node3&#45;&gt;Node18</title>
<path fill="none" stroke="#191970" d="M371.6486,-224.4554C406.4535,-214.0139 452.2667,-200.27 485.0151,-190.4455"/>
<polygon fill="#191970" stroke="#191970" points="486.1598,-193.7563 494.7323,-187.5303 484.1483,-187.0515 486.1598,-193.7563"/>
</g>
<!-- Node10&#45;&gt;Node4 -->
<g id="edge13" class="edge">
<title>Node10&#45;&gt;Node4</title>
<path fill="none" stroke="#191970" d="M1127.0993,-168.3733C1159.6579,-158.1301 1210.8856,-142.0135 1243.57,-131.7308"/>
<polygon fill="#191970" stroke="#191970" points="1244.9943,-134.9519 1253.483,-128.6121 1242.8935,-128.2745 1244.9943,-134.9519"/>
</g>
<!-- Node11 -->
<g id="node12" class="node">
<title>Node11</title>
<polygon fill="none" stroke="#bfbfbf" points="1141,-56.5 1141,-75.5 1188,-75.5 1188,-56.5 1141,-56.5"/>
<text text-anchor="middle" x="1164.5" y="-63.5" font-family="Helvetica,sans-Serif" font-size="10.00" fill="#000000">cmath</text>
</g>
<!-- Node10&#45;&gt;Node11 -->
<g id="edge14" class="edge">
<title>Node10&#45;&gt;Node11</title>
<path fill="none" stroke="#191970" d="M1145.5742,-168.9429C1166.5171,-162.3858 1188.9776,-151.1574 1201.5,-132 1212.1731,-115.6718 1198.0136,-96.0785 1184.2398,-82.5024"/>
<polygon fill="#191970" stroke="#191970" points="1186.514,-79.8387 1176.7875,-75.6381 1181.7716,-84.9874 1186.514,-79.8387"/>
</g>
<!-- Node12 -->
<g id="node13" class="node">
<title>Node12</title>
<g id="a_node13"><a xlink:href="../../df/d21/GPUCommonDef_8h.html" target="_top" xlink:title="GPUCommonDef.h">
<polygon fill="none" stroke="#000000" points="896,-56.5 896,-75.5 1003,-75.5 1003,-56.5 896,-56.5"/>
<text text-anchor="middle" x="949.5" y="-63.5" font-family="Helvetica,sans-Serif" font-size="10.00" fill="#000000">GPUCommonDef.h</text>
</a>
</g>
</g>
<!-- Node10&#45;&gt;Node12 -->
<g id="edge15" class="edge">
<title>Node10&#45;&gt;Node12</title>
<path fill="none" stroke="#191970" d="M1121.086,-168.4491C1148.5108,-156.3979 1186.7753,-134.5127 1168.5,-112 1149.2125,-88.2404 1070.7262,-76.3031 1013.2068,-70.6355"/>
<polygon fill="#191970" stroke="#191970" points="1013.3748,-67.1359 1003.0903,-69.6812 1012.7173,-74.1049 1013.3748,-67.1359"/>
</g>
<!-- Node15 -->
<g id="node16" class="node">
<title>Node15</title>
<g id="a_node16"><a xlink:href="../../d6/da2/GPUCommonMath_8h.html" target="_top" xlink:title="GPUCommonMath.h">
<polygon fill="none" stroke="#000000" points="832,-112.5 832,-131.5 947,-131.5 947,-112.5 832,-112.5"/>
<text text-anchor="middle" x="889.5" y="-119.5" font-family="Helvetica,sans-Serif" font-size="10.00" fill="#000000">GPUCommonMath.h</text>
</a>
</g>
</g>
<!-- Node10&#45;&gt;Node15 -->
<g id="edge18" class="edge">
<title>Node10&#45;&gt;Node15</title>
<path fill="none" stroke="#191970" d="M1060.9154,-168.3733C1025.8984,-158.9001 972.3119,-144.4032 934.3875,-134.1435"/>
<polygon fill="#191970" stroke="#191970" points="935.1873,-130.7341 924.6202,-131.5011 933.3592,-137.4912 935.1873,-130.7341"/>
</g>
<!-- Node17 -->
<g id="node18" class="node">
<title>Node17</title>
<g id="a_node18"><a xlink:href="../../d6/d84/MathConstants_8h.html" target="_top" xlink:title="useful math constants ">
<polygon fill="none" stroke="#000000" points="965.5,-112.5 965.5,-131.5 1159.5,-131.5 1159.5,-112.5 965.5,-112.5"/>
<text text-anchor="middle" x="1062.5" y="-119.5" font-family="Helvetica,sans-Serif" font-size="10.00" fill="#000000">CommonConstants/MathConstants.h</text>
</a>
</g>
</g>
<!-- Node10&#45;&gt;Node17 -->
<g id="edge22" class="edge">
<title>Node10&#45;&gt;Node17</title>
<path fill="none" stroke="#191970" d="M1090.5777,-168.2455C1085.8973,-160.5367 1079.2327,-149.5598 1073.5711,-140.2348"/>
<polygon fill="#191970" stroke="#191970" points="1076.5361,-138.3741 1068.3545,-131.6427 1070.5525,-142.007 1076.5361,-138.3741"/>
</g>
<!-- Node13 -->
<g id="node14" class="node">
<title>Node13</title>
<g id="a_node14"><a xlink:href="../../d5/d93/GPUCommonDefSettings_8h.html" target="_top" xlink:title="GPUCommonDefSettings.h">
<polygon fill="none" stroke="#000000" points="798.5,-.5 798.5,-19.5 946.5,-19.5 946.5,-.5 798.5,-.5"/>
<text text-anchor="middle" x="872.5" y="-7.5" font-family="Helvetica,sans-Serif" font-size="10.00" fill="#000000">GPUCommonDefSettings.h</text>
</a>
</g>
</g>
<!-- Node12&#45;&gt;Node13 -->
<g id="edge16" class="edge">
<title>Node12&#45;&gt;Node13</title>
<path fill="none" stroke="#191970" d="M936.0876,-56.2455C924.4943,-47.814 907.5252,-35.4729 894.0322,-25.6598"/>
<polygon fill="#191970" stroke="#191970" points="895.9047,-22.6938 885.7587,-19.6427 891.7874,-28.355 895.9047,-22.6938"/>
</g>
<!-- Node14 -->
<g id="node15" class="node">
<title>Node14</title>
<g id="a_node15"><a xlink:href="../../da/d5a/GPUCommonDefAPI_8h.html" target="_top" xlink:title="GPUCommonDefAPI.h">
<polygon fill="none" stroke="#000000" points="964.5,-.5 964.5,-19.5 1088.5,-19.5 1088.5,-.5 964.5,-.5"/>
<text text-anchor="middle" x="1026.5" y="-7.5" font-family="Helvetica,sans-Serif" font-size="10.00" fill="#000000">GPUCommonDefAPI.h</text>
</a>
</g>
</g>
<!-- Node12&#45;&gt;Node14 -->
<g id="edge17" class="edge">
<title>Node12&#45;&gt;Node14</title>
<path fill="none" stroke="#191970" d="M962.9124,-56.2455C974.5057,-47.814 991.4748,-35.4729 1004.9678,-25.6598"/>
<polygon fill="#191970" stroke="#191970" points="1007.2126,-28.355 1013.2413,-19.6427 1003.0953,-22.6938 1007.2126,-28.355"/>
</g>
<!-- Node15&#45;&gt;Node11 -->
<g id="edge20" class="edge">
<title>Node15&#45;&gt;Node11</title>
<path fill="none" stroke="#191970" d="M936.4617,-112.4369C991.7711,-101.1739 1082.2641,-82.7462 1130.962,-72.8296"/>
<polygon fill="#191970" stroke="#191970" points="1131.8757,-76.2154 1140.9761,-70.7903 1130.4788,-69.3562 1131.8757,-76.2154"/>
</g>
<!-- Node15&#45;&gt;Node12 -->
<g id="edge19" class="edge">
<title>Node15&#45;&gt;Node12</title>
<path fill="none" stroke="#191970" d="M899.9512,-112.2455C908.7269,-104.0549 921.4554,-92.1749 931.814,-82.5069"/>
<polygon fill="#191970" stroke="#191970" points="934.2461,-85.0246 939.1686,-75.6427 929.4699,-79.9072 934.2461,-85.0246"/>
</g>
<!-- Node16 -->
<g id="node17" class="node">
<title>Node16</title>
<polygon fill="none" stroke="#bfbfbf" points="787.5,-56.5 787.5,-75.5 851.5,-75.5 851.5,-56.5 787.5,-56.5"/>
<text text-anchor="middle" x="819.5" y="-63.5" font-family="Helvetica,sans-Serif" font-size="10.00" fill="#000000">algorithm</text>
</g>
<!-- Node15&#45;&gt;Node16 -->
<g id="edge21" class="edge">
<title>Node15&#45;&gt;Node16</title>
<path fill="none" stroke="#191970" d="M877.3069,-112.2455C866.8679,-103.8943 851.6345,-91.7076 839.426,-81.9408"/>
<polygon fill="#191970" stroke="#191970" points="841.5485,-79.1566 831.5533,-75.6427 837.1756,-84.6227 841.5485,-79.1566"/>
</g>
<!-- Node18&#45;&gt;Node2 -->
<g id="edge30" class="edge">
<title>Node18&#45;&gt;Node2</title>
<path fill="none" stroke="#191970" d="M462.8126,-169.1671C459.6648,-168.7646 456.5473,-168.3734 453.5,-168 308.917,-150.2854 267.8496,-162.4632 121.4978,-131.8424"/>
<polygon fill="#191970" stroke="#191970" points="122.2123,-128.4161 111.7034,-129.7628 120.7584,-135.2635 122.2123,-128.4161"/>
</g>
<!-- Node18&#45;&gt;Node6 -->
<g id="edge26" class="edge">
<title>Node18&#45;&gt;Node6</title>
<path fill="none" stroke="#191970" d="M575.3403,-168.414C620.2026,-159.4713 688.4784,-145.5146 747.5,-132 748.756,-131.7124 750.0331,-131.4158 751.3221,-131.1129"/>
<polygon fill="#191970" stroke="#191970" points="752.384,-134.4573 761.2858,-128.712 750.7441,-127.6521 752.384,-134.4573"/>
</g>
<!-- Node18&#45;&gt;Node7 -->
<g id="edge24" class="edge">
<title>Node18&#45;&gt;Node7</title>
<path fill="none" stroke="#191970" d="M462.7993,-169.2696C459.655,-168.84 456.5419,-168.415 453.5,-168 338.9514,-152.3736 306.495,-156.5873 189.6966,-131.998"/>
<polygon fill="#191970" stroke="#191970" points="190.1524,-128.5166 179.6425,-129.8548 188.693,-135.3628 190.1524,-128.5166"/>
</g>
<!-- Node18&#45;&gt;Node16 -->
<g id="edge28" class="edge">
<title>Node18&#45;&gt;Node16</title>
<path fill="none" stroke="#191970" d="M585.3048,-168.4759C622.9191,-161.1944 672.2196,-149.4069 713.5,-132 730.3857,-124.8797 771.2,-98.3783 796.9726,-81.2005"/>
<polygon fill="#191970" stroke="#191970" points="799.0348,-84.0319 805.3975,-75.5603 795.1406,-78.215 799.0348,-84.0319"/>
</g>
<!-- Node19 -->
<g id="node20" class="node">
<title>Node19</title>
<polygon fill="none" stroke="#bfbfbf" points="197.5,-112.5 197.5,-131.5 255.5,-131.5 255.5,-112.5 197.5,-112.5"/>
<text text-anchor="middle" x="226.5" y="-119.5" font-family="Helvetica,sans-Serif" font-size="10.00" fill="#000000">memory</text>
</g>
<!-- Node18&#45;&gt;Node19 -->
<g id="edge25" class="edge">
<title>Node18&#45;&gt;Node19</title>
<path fill="none" stroke="#191970" d="M463.7463,-168.4924C412.7778,-160.4256 338.8539,-147.9467 265.7405,-132.1445"/>
<polygon fill="#191970" stroke="#191970" points="266.4161,-128.7096 255.8997,-129.9961 264.923,-135.5486 266.4161,-128.7096"/>
</g>
<!-- Node20 -->
<g id="node21" class="node">
<title>Node20</title>
<polygon fill="none" stroke="#bfbfbf" points="273.5,-112.5 273.5,-131.5 323.5,-131.5 323.5,-112.5 273.5,-112.5"/>
<text text-anchor="middle" x="298.5" y="-119.5" font-family="Helvetica,sans-Serif" font-size="10.00" fill="#000000">cstring</text>
</g>
<!-- Node18&#45;&gt;Node20 -->
<g id="edge27" class="edge">
<title>Node18&#45;&gt;Node20</title>
<path fill="none" stroke="#191970" d="M483.1861,-168.4241C445.9171,-160.0291 390.4955,-147.1767 333.5958,-132.1973"/>
<polygon fill="#191970" stroke="#191970" points="334.272,-128.7558 323.709,-129.5767 332.4785,-135.5221 334.272,-128.7558"/>
</g>
<!-- Node21 -->
<g id="node22" class="node">
<title>Node21</title>
<polygon fill="none" stroke="#bfbfbf" points="342,-112.5 342,-131.5 407,-131.5 407,-112.5 342,-112.5"/>
<text text-anchor="middle" x="374.5" y="-119.5" font-family="Helvetica,sans-Serif" font-size="10.00" fill="#000000">stdexcept</text>
</g>
<!-- Node18&#45;&gt;Node21 -->
<g id="edge29" class="edge">
<title>Node18&#45;&gt;Node21</title>
<path fill="none" stroke="#191970" d="M500.3703,-168.3733C475.4232,-159.1822 437.6408,-145.2624 409.9794,-135.0713"/>
<polygon fill="#191970" stroke="#191970" points="410.8822,-131.674 400.2888,-131.5011 408.4622,-138.2424 410.8822,-131.674"/>
</g>
<!-- Node22 -->
<g id="node23" class="node">
<title>Node22</title>
<polygon fill="none" stroke="#bfbfbf" points="425.5,-112.5 425.5,-131.5 475.5,-131.5 475.5,-112.5 425.5,-112.5"/>
<text text-anchor="middle" x="450.5" y="-119.5" font-family="Helvetica,sans-Serif" font-size="10.00" fill="#000000">climits</text>
</g>
<!-- Node18&#45;&gt;Node22 -->
<g id="edge31" class="edge">
<title>Node18&#45;&gt;Node22</title>
<path fill="none" stroke="#191970" d="M513.2618,-168.2455C501.819,-159.814 485.0704,-147.4729 471.7525,-137.6598"/>
<polygon fill="#191970" stroke="#191970" points="473.7133,-134.757 463.5865,-131.6427 469.5609,-140.3924 473.7133,-134.757"/>
</g>
<!-- Node23 -->
<g id="node24" class="node">
<title>Node23</title>
<g id="a_node24"><a xlink:href="../../d7/df8/Types_8h.html" target="_top" xlink:title="MemoryResources/Types.h">
<polygon fill="none" stroke="#000000" points="493.5,-112.5 493.5,-131.5 639.5,-131.5 639.5,-112.5 493.5,-112.5"/>
<text text-anchor="middle" x="566.5" y="-119.5" font-family="Helvetica,sans-Serif" font-size="10.00" fill="#000000">MemoryResources/Types.h</text>
</a>
</g>
</g>
<!-- Node18&#45;&gt;Node23 -->
<g id="edge32" class="edge">
<title>Node18&#45;&gt;Node23</title>
<path fill="none" stroke="#191970" d="M533.4675,-168.2455C539.0311,-160.4564 546.978,-149.3308 553.6829,-139.9439"/>
<polygon fill="#191970" stroke="#191970" points="556.648,-141.8144 559.6124,-131.6427 550.9519,-137.7457 556.648,-141.8144"/>
</g>
<!-- Node24 -->
<g id="node25" class="node">
<title>Node24</title>
<polygon fill="none" stroke="#bfbfbf" points="658,-112.5 658,-131.5 705,-131.5 705,-112.5 658,-112.5"/>
<text text-anchor="middle" x="681.5" y="-119.5" font-family="Helvetica,sans-Serif" font-size="10.00" fill="#000000">cerrno</text>
</g>
<!-- Node18&#45;&gt;Node24 -->
<g id="edge33" class="edge">
<title>Node18&#45;&gt;Node24</title>
<path fill="none" stroke="#191970" d="M553.1454,-168.3733C579.4707,-158.8622 619.8121,-144.2872 648.2286,-134.0207"/>
<polygon fill="#191970" stroke="#191970" points="649.5242,-137.274 657.7399,-130.5843 647.1456,-130.6905 649.5242,-137.274"/>
</g>
</g>
</svg>
