<?xml version="1.0" encoding="UTF-8" standalone="no"?>
<!DOCTYPE svg PUBLIC "-//W3C//DTD SVG 1.1//EN"
 "http://www.w3.org/Graphics/SVG/1.1/DTD/svg11.dtd">
<!-- Generated by graphviz version 2.40.1 (20161225.0304)
 -->
<!-- Title: o2::framework::ServiceHandle Pages: 1 -->
<svg width="172pt" height="171pt"
 viewBox="0.00 0.00 172.00 171.00" xmlns="http://www.w3.org/2000/svg" xmlns:xlink="http://www.w3.org/1999/xlink">
<g id="graph0" class="graph" transform="scale(1 1) rotate(0) translate(4 167)">
<title>o2::framework::ServiceHandle</title>
<!-- Node1 -->
<g id="node1" class="node">
<title>Node1</title>
<polygon fill="#bfbfbf" stroke="#000000" points="0,-.5 0,-57.5 164,-57.5 164,-.5 0,-.5"/>
<text text-anchor="middle" x="82" y="-45.5" font-family="Helvetica,sans-Serif" font-size="10.00" fill="#000000">o2::framework::ServiceHandle</text>
<polyline fill="none" stroke="#000000" points="0,-38.5 164,-38.5 "/>
<text text-anchor="middle" x="82" y="-26.5" font-family="Helvetica,sans-Serif" font-size="10.00" fill="#000000"> </text>
<polyline fill="none" stroke="#000000" points="0,-19.5 164,-19.5 "/>
<text text-anchor="middle" x="82" y="-7.5" font-family="Helvetica,sans-Serif" font-size="10.00" fill="#000000"> </text>
</g>
<!-- Node2 -->
<g id="node2" class="node">
<title>Node2</title>
<g id="a_node2"><a xlink:href="../../d3/d87/classuint32__t.html" target="_top" xlink:title="{uint32_t\n||}">
<polygon fill="none" stroke="#000000" points="20,-105.5 20,-162.5 76,-162.5 76,-105.5 20,-105.5"/>
<text text-anchor="middle" x="48" y="-150.5" font-family="Helvetica,sans-Serif" font-size="10.00" fill="#000000">uint32_t</text>
<polyline fill="none" stroke="#000000" points="20,-143.5 76,-143.5 "/>
<text text-anchor="middle" x="48" y="-131.5" font-family="Helvetica,sans-Serif" font-size="10.00" fill="#000000"> </text>
<polyline fill="none" stroke="#000000" points="20,-124.5 76,-124.5 "/>
<text text-anchor="middle" x="48" y="-112.5" font-family="Helvetica,sans-Serif" font-size="10.00" fill="#000000"> </text>
</a>
</g>
</g>
<!-- Node2&#45;&gt;Node1 -->
<g id="edge1" class="edge">
<title>Node2&#45;&gt;Node1</title>
<path fill="none" stroke="#404040" d="M52.5543,-105.3291C54.4204,-95.8656 56.8863,-85.3675 60,-76 60.7882,-73.6289 61.6637,-71.2198 62.5986,-68.809"/>
<polygon fill="none" stroke="#404040" points="62.6408,-68.7086 61.2836,-61.6263 67.2991,-57.6496 68.6563,-64.7319 62.6408,-68.7086"/>
<text text-anchor="middle" x="77.5" y="-79" font-family="Helvetica,sans-Serif" font-size="10.00" fill="#000000"> +hash</text>
</g>
<!-- Node3 -->
<g id="node3" class="node">
<title>Node3</title>
<polygon fill="none" stroke="#bfbfbf" points="94,-105.5 94,-162.5 140,-162.5 140,-105.5 94,-105.5"/>
<text text-anchor="middle" x="117" y="-150.5" font-family="Helvetica,sans-Serif" font-size="10.00" fill="#000000">void *</text>
<polyline fill="none" stroke="#bfbfbf" points="94,-143.5 140,-143.5 "/>
<text text-anchor="middle" x="117" y="-131.5" font-family="Helvetica,sans-Serif" font-size="10.00" fill="#000000"> </text>
<polyline fill="none" stroke="#bfbfbf" points="94,-124.5 140,-124.5 "/>
<text text-anchor="middle" x="117" y="-112.5" font-family="Helvetica,sans-Serif" font-size="10.00" fill="#000000"> </text>
</g>
<!-- Node3&#45;&gt;Node1 -->
<g id="edge2" class="edge">
<title>Node3&#45;&gt;Node1</title>
<path fill="none" stroke="#404040" d="M107.4361,-105.3083C103.7322,-94.1966 99.4265,-81.2796 95.4224,-69.2673"/>
<polygon fill="none" stroke="#404040" points="95.3471,-69.0412 89.655,-64.6141 91.5523,-57.657 97.2445,-62.0842 95.3471,-69.0412"/>
<text text-anchor="middle" x="126.5" y="-79" font-family="Helvetica,sans-Serif" font-size="10.00" fill="#000000"> +instance</text>
</g>
</g>
</svg>
