<?xml version="1.0" encoding="UTF-8" standalone="no"?>
<!DOCTYPE svg PUBLIC "-//W3C//DTD SVG 1.1//EN"
 "http://www.w3.org/Graphics/SVG/1.1/DTD/svg11.dtd">
<!-- Generated by graphviz version 2.40.1 (20161225.0304)
 -->
<!-- Title: /home/travis/build/AliceO2Group/AliceO2/Detectors/ITSMFT/ITS/reconstruction/include/ITSReconstruction/CookedTracker.h Pages: 1 -->
<svg width="3420pt" height="642pt"
 viewBox="0.00 0.00 3420.19 642.00" xmlns="http://www.w3.org/2000/svg" xmlns:xlink="http://www.w3.org/1999/xlink">
<g id="graph0" class="graph" transform="scale(1 1) rotate(0) translate(4 638)">
<title>/home/travis/build/AliceO2Group/AliceO2/Detectors/ITSMFT/ITS/reconstruction/include/ITSReconstruction/CookedTracker.h</title>
<!-- Node0 -->
<g id="node1" class="node">
<title>Node0</title>
<polygon fill="#bfbfbf" stroke="#000000" points="2033.1893,-570.5 2033.1893,-633.5 2223.1893,-633.5 2223.1893,-570.5 2033.1893,-570.5"/>
<text text-anchor="start" x="2041.1893" y="-621.5" font-family="Helvetica,sans-Serif" font-size="10.00" fill="#000000">/home/travis/build</text>
<text text-anchor="start" x="2041.1893" y="-610.5" font-family="Helvetica,sans-Serif" font-size="10.00" fill="#000000">/AliceO2Group/AliceO2</text>
<text text-anchor="start" x="2041.1893" y="-599.5" font-family="Helvetica,sans-Serif" font-size="10.00" fill="#000000">/Detectors/ITSMFT/ITS</text>
<text text-anchor="start" x="2041.1893" y="-588.5" font-family="Helvetica,sans-Serif" font-size="10.00" fill="#000000">/reconstruction/include</text>
<text text-anchor="middle" x="2128.1893" y="-577.5" font-family="Helvetica,sans-Serif" font-size="10.00" fill="#000000">/ITSReconstruction/CookedTracker.h</text>
</g>
<!-- Node1 -->
<g id="node2" class="node">
<title>Node1</title>
<polygon fill="none" stroke="#bfbfbf" points="32.6893,-252 32.6893,-271 79.6893,-271 79.6893,-252 32.6893,-252"/>
<text text-anchor="middle" x="56.1893" y="-259" font-family="Helvetica,sans-Serif" font-size="10.00" fill="#000000">vector</text>
</g>
<!-- Node0&#45;&gt;Node1 -->
<g id="edge1" class="edge">
<title>Node0&#45;&gt;Node1</title>
<path fill="none" stroke="#191970" d="M2033.1522,-598.7683C1701.4363,-587.0146 596.323,-543.7494 248.1893,-478 151.5065,-459.7402 97.6302,-488.6395 37.1893,-411 7.2993,-372.6046 30.8652,-311.0954 45.9934,-280.3189"/>
<polygon fill="#191970" stroke="#191970" points="49.2538,-281.6318 50.711,-271.1376 43.0276,-278.4326 49.2538,-281.6318"/>
</g>
<!-- Node2 -->
<g id="node3" class="node">
<title>Node2</title>
<polygon fill="none" stroke="#bfbfbf" points="1893.6893,-514.5 1893.6893,-533.5 1934.6893,-533.5 1934.6893,-514.5 1893.6893,-514.5"/>
<text text-anchor="middle" x="1914.1893" y="-521.5" font-family="Helvetica,sans-Serif" font-size="10.00" fill="#000000">tuple</text>
</g>
<!-- Node0&#45;&gt;Node2 -->
<g id="edge2" class="edge">
<title>Node0&#45;&gt;Node2</title>
<path fill="none" stroke="#191970" d="M2041.7642,-570.4992C2007.1504,-557.883 1969.5513,-544.1787 1944.2032,-534.9396"/>
<polygon fill="#191970" stroke="#191970" points="1945.386,-531.6456 1934.792,-531.5094 1942.9888,-538.2223 1945.386,-531.6456"/>
</g>
<!-- Node3 -->
<g id="node4" class="node">
<title>Node3</title>
<g id="a_node4"><a xlink:href="../../d9/dfb/ITSMFT_2ITS_2base_2include_2ITSBase_2GeometryTGeo_8h.html" target="_top" xlink:title="ITSBase/GeometryTGeo.h">
<polygon fill="none" stroke="#000000" points="1020.1893,-453 1020.1893,-472 1162.1893,-472 1162.1893,-453 1020.1893,-453"/>
<text text-anchor="middle" x="1091.1893" y="-460" font-family="Helvetica,sans-Serif" font-size="10.00" fill="#000000">ITSBase/GeometryTGeo.h</text>
</a>
</g>
</g>
<!-- Node0&#45;&gt;Node3 -->
<g id="edge3" class="edge">
<title>Node0&#45;&gt;Node3</title>
<path fill="none" stroke="#191970" d="M2059.7212,-570.4961C2035.4601,-559.1733 2008.0256,-546.1872 1983.1893,-534 1965.7017,-525.4187 1962.9784,-519.1409 1944.1893,-514 1800.4089,-474.6597 1356.7611,-465.3482 1172.6095,-463.1626"/>
<polygon fill="#191970" stroke="#191970" points="1172.4866,-459.6611 1162.4471,-463.0462 1172.4063,-466.6606 1172.4866,-459.6611"/>
</g>
<!-- Node37 -->
<g id="node38" class="node">
<title>Node37</title>
<g id="a_node38"><a xlink:href="../../dd/d76/Cartesian3D_8h.html" target="_top" xlink:title="MathUtils/Cartesian3D.h">
<polygon fill="none" stroke="#000000" points="2150.6893,-252 2150.6893,-271 2285.6893,-271 2285.6893,-252 2150.6893,-252"/>
<text text-anchor="middle" x="2218.1893" y="-259" font-family="Helvetica,sans-Serif" font-size="10.00" fill="#000000">MathUtils/Cartesian3D.h</text>
</a>
</g>
</g>
<!-- Node0&#45;&gt;Node37 -->
<g id="edge80" class="edge">
<title>Node0&#45;&gt;Node37</title>
<path fill="none" stroke="#191970" d="M2147.4045,-570.2709C2162.2173,-542.7748 2180.1893,-501.3992 2180.1893,-462.5 2180.1893,-462.5 2180.1893,-462.5 2180.1893,-395.5 2180.1893,-353.2065 2197.9269,-306.1555 2209.165,-280.5895"/>
<polygon fill="#191970" stroke="#191970" points="2212.429,-281.8667 2213.3766,-271.3143 2206.0552,-278.9726 2212.429,-281.8667"/>
</g>
<!-- Node55 -->
<g id="node56" class="node">
<title>Node55</title>
<g id="a_node56"><a xlink:href="../../d1/d62/DataFormats_2Detectors_2ITSMFT_2common_2include_2DataFormatsITSMFT_2Cluster_8h.html" target="_top" xlink:title="DataFormatsITSMFT/Cluster.h">
<polygon fill="none" stroke="#000000" points="2208.1893,-453 2208.1893,-472 2368.1893,-472 2368.1893,-453 2208.1893,-453"/>
<text text-anchor="middle" x="2288.1893" y="-460" font-family="Helvetica,sans-Serif" font-size="10.00" fill="#000000">DataFormatsITSMFT/Cluster.h</text>
</a>
</g>
</g>
<!-- Node0&#45;&gt;Node55 -->
<g id="edge81" class="edge">
<title>Node0&#45;&gt;Node55</title>
<path fill="none" stroke="#191970" d="M2164.4958,-570.3453C2197.1089,-541.9108 2243.6969,-501.2919 2269.3848,-478.8952"/>
<polygon fill="#191970" stroke="#191970" points="2271.7091,-481.5123 2276.9464,-472.3024 2267.1088,-476.2361 2271.7091,-481.5123"/>
</g>
<!-- Node59 -->
<g id="node60" class="node">
<title>Node59</title>
<g id="a_node60"><a xlink:href="../../d1/d71/TrackITS_8h.html" target="_top" xlink:title="Definition of the ITS track. ">
<polygon fill="none" stroke="#000000" points="1991.6893,-514.5 1991.6893,-533.5 2138.6893,-533.5 2138.6893,-514.5 1991.6893,-514.5"/>
<text text-anchor="middle" x="2065.1893" y="-521.5" font-family="Helvetica,sans-Serif" font-size="10.00" fill="#000000">DataFormatsITS/TrackITS.h</text>
</a>
</g>
</g>
<!-- Node0&#45;&gt;Node59 -->
<g id="edge90" class="edge">
<title>Node0&#45;&gt;Node59</title>
<path fill="none" stroke="#191970" d="M2102.5648,-570.2744C2094.6764,-560.5078 2086.2782,-550.1101 2079.445,-541.6499"/>
<polygon fill="#191970" stroke="#191970" points="2081.9838,-539.2228 2072.9776,-533.6426 2076.5382,-543.6212 2081.9838,-539.2228"/>
</g>
<!-- Node64 -->
<g id="node65" class="node">
<title>Node64</title>
<g id="a_node65"><a xlink:href="../../d0/dc6/ITSMFT_2common_2include_2DataFormatsITSMFT_2ROFRecord_8h.html" target="_top" xlink:title="DataFormatsITSMFT/ROFRecord.h">
<polygon fill="none" stroke="#000000" points="2990.6893,-386 2990.6893,-405 3169.6893,-405 3169.6893,-386 2990.6893,-386"/>
<text text-anchor="middle" x="3080.1893" y="-393" font-family="Helvetica,sans-Serif" font-size="10.00" fill="#000000">DataFormatsITSMFT/ROFRecord.h</text>
</a>
</g>
</g>
<!-- Node0&#45;&gt;Node64 -->
<g id="edge108" class="edge">
<title>Node0&#45;&gt;Node64</title>
<path fill="none" stroke="#191970" d="M2223.3899,-581.3499C2421.3008,-538.4207 2871.6029,-440.7449 3026.5987,-407.1244"/>
<polygon fill="#191970" stroke="#191970" points="3027.3444,-410.5442 3036.3751,-405.0038 3025.8604,-403.7033 3027.3444,-410.5442"/>
</g>
<!-- Node68 -->
<g id="node69" class="node">
<title>Node68</title>
<g id="a_node69"><a xlink:href="../../d3/d6f/DataFormats_2Reconstruction_2include_2ReconstructionDataFormats_2Vertex_8h.html" target="_top" xlink:title="ReconstructionDataFormats\l/Vertex.h">
<polygon fill="none" stroke="#000000" points="2378.1893,-380.5 2378.1893,-410.5 2530.1893,-410.5 2530.1893,-380.5 2378.1893,-380.5"/>
<text text-anchor="start" x="2386.1893" y="-398.5" font-family="Helvetica,sans-Serif" font-size="10.00" fill="#000000">ReconstructionDataFormats</text>
<text text-anchor="middle" x="2454.1893" y="-387.5" font-family="Helvetica,sans-Serif" font-size="10.00" fill="#000000">/Vertex.h</text>
</a>
</g>
</g>
<!-- Node0&#45;&gt;Node68 -->
<g id="edge117" class="edge">
<title>Node0&#45;&gt;Node68</title>
<path fill="none" stroke="#191970" d="M2209.1725,-570.4756C2260.02,-548.6159 2325.5141,-516.5511 2377.1893,-478 2399.9963,-460.9854 2421.7083,-436.7233 2436.2271,-418.9133"/>
<polygon fill="#191970" stroke="#191970" points="2439.2428,-420.746 2442.75,-410.7486 2433.7738,-416.3768 2439.2428,-420.746"/>
</g>
<!-- Node3&#45;&gt;Node1 -->
<g id="edge8" class="edge">
<title>Node3&#45;&gt;Node1</title>
<path fill="none" stroke="#191970" d="M1020.0513,-459.1635C881.6679,-452.2355 580.9816,-434.9195 480.1893,-411 366.483,-384.0158 346.7369,-350.9014 236.1893,-313 185.8171,-295.7298 126.1994,-279.4725 89.799,-270.0045"/>
<polygon fill="#191970" stroke="#191970" points="90.2868,-266.5158 79.7294,-267.4048 88.5369,-273.2936 90.2868,-266.5158"/>
</g>
<!-- Node4 -->
<g id="node5" class="node">
<title>Node4</title>
<polygon fill="none" stroke="#bfbfbf" points="1830.1893,-185 1830.1893,-204 1912.1893,-204 1912.1893,-185 1830.1893,-185"/>
<text text-anchor="middle" x="1871.1893" y="-192" font-family="Helvetica,sans-Serif" font-size="10.00" fill="#000000">TGeoMatrix.h</text>
</g>
<!-- Node3&#45;&gt;Node4 -->
<g id="edge4" class="edge">
<title>Node3&#45;&gt;Node4</title>
<path fill="none" stroke="#191970" d="M1162.4249,-460.7182C1287.8145,-456.7426 1542.4197,-444.6782 1624.1893,-411 1731.4993,-366.8026 1824.299,-256.0422 1857.8353,-212.4906"/>
<polygon fill="#191970" stroke="#191970" points="1860.8198,-214.3475 1864.0759,-204.2654 1855.2432,-210.1164 1860.8198,-214.3475"/>
</g>
<!-- Node5 -->
<g id="node6" class="node">
<title>Node5</title>
<polygon fill="none" stroke="#bfbfbf" points="1059.6893,-319 1059.6893,-338 1122.6893,-338 1122.6893,-319 1059.6893,-319"/>
<text text-anchor="middle" x="1091.1893" y="-326" font-family="Helvetica,sans-Serif" font-size="10.00" fill="#000000">TObject.h</text>
</g>
<!-- Node3&#45;&gt;Node5 -->
<g id="edge5" class="edge">
<title>Node3&#45;&gt;Node5</title>
<path fill="none" stroke="#191970" d="M1091.1893,-452.8631C1091.1893,-431.0364 1091.1893,-377.4605 1091.1893,-348.2589"/>
<polygon fill="#191970" stroke="#191970" points="1094.6894,-348.0496 1091.1893,-338.0496 1087.6894,-348.0497 1094.6894,-348.0496"/>
</g>
<!-- Node6 -->
<g id="node7" class="node">
<title>Node6</title>
<polygon fill="none" stroke="#bfbfbf" points="1593.1893,-118 1593.1893,-137 1635.1893,-137 1635.1893,-118 1593.1893,-118"/>
<text text-anchor="middle" x="1614.1893" y="-125" font-family="Helvetica,sans-Serif" font-size="10.00" fill="#000000">array</text>
</g>
<!-- Node3&#45;&gt;Node6 -->
<g id="edge6" class="edge">
<title>Node3&#45;&gt;Node6</title>
<path fill="none" stroke="#191970" d="M1148.5276,-452.9924C1273.9098,-431.6343 1563.5236,-378.9889 1591.1893,-344 1637.9267,-284.8913 1520.1733,-247.2144 1552.1893,-179 1559.3868,-163.6648 1573.6422,-151.3165 1586.6706,-142.5595"/>
<polygon fill="#191970" stroke="#191970" points="1588.788,-145.3627 1595.3924,-137.0782 1585.0633,-139.4359 1588.788,-145.3627"/>
</g>
<!-- Node7 -->
<g id="node8" class="node">
<title>Node7</title>
<polygon fill="none" stroke="#bfbfbf" points="310.1893,-118 310.1893,-137 354.1893,-137 354.1893,-118 310.1893,-118"/>
<text text-anchor="middle" x="332.1893" y="-125" font-family="Helvetica,sans-Serif" font-size="10.00" fill="#000000">string</text>
</g>
<!-- Node3&#45;&gt;Node7 -->
<g id="edge7" class="edge">
<title>Node3&#45;&gt;Node7</title>
<path fill="none" stroke="#191970" d="M1019.8307,-461.2557C791.9467,-456.9815 94.3914,-441.4572 57.1893,-411 -.7454,-363.5691 -19.2297,-307.6988 23.1893,-246 55.9206,-198.3921 227.9223,-152.4529 300.1775,-134.9414"/>
<polygon fill="#191970" stroke="#191970" points="301.1768,-138.3011 310.0859,-132.5672 299.5456,-131.4938 301.1768,-138.3011"/>
</g>
<!-- Node8 -->
<g id="node9" class="node">
<title>Node8</title>
<g id="a_node9"><a xlink:href="../../db/dcc/Detectors_2Base_2include_2DetectorsBase_2GeometryManager_8h.html" target="_top" xlink:title="DetectorsBase/GeometryManager.h">
<polygon fill="none" stroke="#000000" points="788.1893,-386 788.1893,-405 978.1893,-405 978.1893,-386 788.1893,-386"/>
<text text-anchor="middle" x="883.1893" y="-393" font-family="Helvetica,sans-Serif" font-size="10.00" fill="#000000">DetectorsBase/GeometryManager.h</text>
</a>
</g>
</g>
<!-- Node3&#45;&gt;Node8 -->
<g id="edge9" class="edge">
<title>Node3&#45;&gt;Node8</title>
<path fill="none" stroke="#191970" d="M1061.388,-452.9005C1024.8591,-441.134 962.8476,-421.1591 922.4585,-408.1492"/>
<polygon fill="#191970" stroke="#191970" points="923.5269,-404.8163 912.9354,-405.0817 921.3806,-411.4792 923.5269,-404.8163"/>
</g>
<!-- Node15 -->
<g id="node16" class="node">
<title>Node15</title>
<g id="a_node16"><a xlink:href="../../d6/d31/DetID_8h.html" target="_top" xlink:title="DetectorsCommonDataFormats\l/DetID.h">
<polygon fill="none" stroke="#000000" points="831.6893,-246.5 831.6893,-276.5 1002.6893,-276.5 1002.6893,-246.5 831.6893,-246.5"/>
<text text-anchor="start" x="839.6893" y="-264.5" font-family="Helvetica,sans-Serif" font-size="10.00" fill="#000000">DetectorsCommonDataFormats</text>
<text text-anchor="middle" x="917.1893" y="-253.5" font-family="Helvetica,sans-Serif" font-size="10.00" fill="#000000">/DetID.h</text>
</a>
</g>
</g>
<!-- Node3&#45;&gt;Node15 -->
<g id="edge65" class="edge">
<title>Node3&#45;&gt;Node15</title>
<path fill="none" stroke="#191970" d="M1020.1036,-455.8564C848.0901,-439.0657 420.4786,-392.7805 379.1893,-344 370.288,-333.4837 369.9228,-323.196 379.1893,-313 408.2702,-281.0024 674.3911,-268.3835 821.1264,-263.8257"/>
<polygon fill="#191970" stroke="#191970" points="821.591,-267.3133 831.4801,-263.5113 821.3785,-260.3165 821.591,-267.3133"/>
</g>
<!-- Node16 -->
<g id="node17" class="node">
<title>Node16</title>
<polygon fill="none" stroke="#bfbfbf" points="1560.6893,-185 1560.6893,-204 1619.6893,-204 1619.6893,-185 1560.6893,-185"/>
<text text-anchor="middle" x="1590.1893" y="-192" font-family="Helvetica,sans-Serif" font-size="10.00" fill="#000000">Rtypes.h</text>
</g>
<!-- Node3&#45;&gt;Node16 -->
<g id="edge79" class="edge">
<title>Node3&#45;&gt;Node16</title>
<path fill="none" stroke="#191970" d="M1162.2278,-458.6683C1301.1124,-449.524 1600.4781,-421.1265 1662.1893,-344 1696.2239,-301.4637 1640.6909,-240.1947 1609.3426,-211.0776"/>
<polygon fill="#191970" stroke="#191970" points="1611.3647,-208.1875 1601.5992,-204.0783 1606.6708,-213.3804 1611.3647,-208.1875"/>
</g>
<!-- Node21 -->
<g id="node22" class="node">
<title>Node21</title>
<g id="a_node22"><a xlink:href="../../d9/d52/Common_2MathUtils_2include_2MathUtils_2Utils_8h.html" target="_top" xlink:title="MathUtils/Utils.h">
<polygon fill="none" stroke="#000000" points="1714.1893,-185 1714.1893,-204 1812.1893,-204 1812.1893,-185 1714.1893,-185"/>
<text text-anchor="middle" x="1763.1893" y="-192" font-family="Helvetica,sans-Serif" font-size="10.00" fill="#000000">MathUtils/Utils.h</text>
</a>
</g>
</g>
<!-- Node3&#45;&gt;Node21 -->
<g id="edge78" class="edge">
<title>Node3&#45;&gt;Node21</title>
<path fill="none" stroke="#191970" d="M1162.3939,-459.0622C1278.5517,-452.7714 1503.3739,-437.5523 1578.1893,-411 1629.6548,-392.7347 1644.0493,-384.0367 1681.1893,-344 1718.2881,-304.0078 1744.4655,-244.1282 1756.222,-213.7133"/>
<polygon fill="#191970" stroke="#191970" points="1759.5312,-214.8569 1759.7733,-204.2648 1752.9787,-212.3941 1759.5312,-214.8569"/>
</g>
<!-- Node49 -->
<g id="node50" class="node">
<title>Node49</title>
<g id="a_node50"><a xlink:href="../../d4/d5c/ITSMFT_2common_2base_2include_2ITSMFTBase_2GeometryTGeo_8h.html" target="_top" xlink:title="ITSMFTBase/GeometryTGeo.h">
<polygon fill="none" stroke="#000000" points="66.6893,-386 66.6893,-405 227.6893,-405 227.6893,-386 66.6893,-386"/>
<text text-anchor="middle" x="147.1893" y="-393" font-family="Helvetica,sans-Serif" font-size="10.00" fill="#000000">ITSMFTBase/GeometryTGeo.h</text>
</a>
</g>
</g>
<!-- Node3&#45;&gt;Node49 -->
<g id="edge66" class="edge">
<title>Node3&#45;&gt;Node49</title>
<path fill="none" stroke="#191970" d="M1019.9822,-460.6132C873.8094,-456.2046 529.463,-443.0653 242.1893,-411 231.7432,-409.834 220.6953,-408.3053 209.972,-406.6625"/>
<polygon fill="#191970" stroke="#191970" points="210.244,-403.1622 199.8207,-405.0606 209.1528,-410.0766 210.244,-403.1622"/>
</g>
<!-- Node8&#45;&gt;Node5 -->
<g id="edge15" class="edge">
<title>Node8&#45;&gt;Node5</title>
<path fill="none" stroke="#191970" d="M913.6946,-385.9743C946.2968,-375.7536 999.4727,-358.9677 1045.1893,-344 1047.8924,-343.115 1050.6822,-342.194 1053.489,-341.2618"/>
<polygon fill="#191970" stroke="#191970" points="1054.62,-344.5741 1062.9955,-338.0855 1052.4017,-337.9349 1054.62,-344.5741"/>
</g>
<!-- Node9 -->
<g id="node10" class="node">
<title>Node9</title>
<polygon fill="none" stroke="#bfbfbf" points="666.1893,-319 666.1893,-338 758.1893,-338 758.1893,-319 666.1893,-319"/>
<text text-anchor="middle" x="712.1893" y="-326" font-family="Helvetica,sans-Serif" font-size="10.00" fill="#000000">TGeoManager.h</text>
</g>
<!-- Node8&#45;&gt;Node9 -->
<g id="edge10" class="edge">
<title>Node8&#45;&gt;Node9</title>
<path fill="none" stroke="#191970" d="M858.6892,-385.9005C829.1027,-374.3082 779.1819,-354.7486 745.9589,-341.7313"/>
<polygon fill="#191970" stroke="#191970" points="747.2317,-338.471 736.644,-338.0817 744.678,-344.9886 747.2317,-338.471"/>
</g>
<!-- Node10 -->
<g id="node11" class="node">
<title>Node10</title>
<polygon fill="none" stroke="#bfbfbf" points="776.6893,-319 776.6893,-338 867.6893,-338 867.6893,-319 776.6893,-319"/>
<text text-anchor="middle" x="822.1893" y="-326" font-family="Helvetica,sans-Serif" font-size="10.00" fill="#000000">TGeoMaterial.h</text>
</g>
<!-- Node8&#45;&gt;Node10 -->
<g id="edge11" class="edge">
<title>Node8&#45;&gt;Node10</title>
<path fill="none" stroke="#191970" d="M874.4495,-385.9005C864.9371,-375.4525 849.5323,-358.5325 837.9069,-345.7635"/>
<polygon fill="#191970" stroke="#191970" points="840.2332,-343.1198 830.9129,-338.0817 835.0571,-347.8324 840.2332,-343.1198"/>
</g>
<!-- Node11 -->
<g id="node12" class="node">
<title>Node11</title>
<polygon fill="none" stroke="#bfbfbf" points="885.6893,-319 885.6893,-338 1002.6893,-338 1002.6893,-319 885.6893,-319"/>
<text text-anchor="middle" x="944.1893" y="-326" font-family="Helvetica,sans-Serif" font-size="10.00" fill="#000000">TGeoPhysicalNode.h</text>
</g>
<!-- Node8&#45;&gt;Node11 -->
<g id="edge12" class="edge">
<title>Node8&#45;&gt;Node11</title>
<path fill="none" stroke="#191970" d="M891.9291,-385.9005C901.4416,-375.4525 916.8463,-358.5325 928.4718,-345.7635"/>
<polygon fill="#191970" stroke="#191970" points="931.3215,-347.8324 935.4657,-338.0817 926.1454,-343.1198 931.3215,-347.8324"/>
</g>
<!-- Node12 -->
<g id="node13" class="node">
<title>Node12</title>
<polygon fill="none" stroke="#bfbfbf" points="398.6893,-319 398.6893,-338 479.6893,-338 479.6893,-319 398.6893,-319"/>
<text text-anchor="middle" x="439.1893" y="-326" font-family="Helvetica,sans-Serif" font-size="10.00" fill="#000000">TGeoShape.h</text>
</g>
<!-- Node8&#45;&gt;Node12 -->
<g id="edge13" class="edge">
<title>Node8&#45;&gt;Node12</title>
<path fill="none" stroke="#191970" d="M788.0705,-387.6547C707.7792,-379.9412 590.109,-366.069 489.1893,-344 485.0942,-343.1045 480.8516,-342.0285 476.6476,-340.8661"/>
<polygon fill="#191970" stroke="#191970" points="477.5765,-337.4912 466.9959,-338.0415 475.6103,-344.2094 477.5765,-337.4912"/>
</g>
<!-- Node13 -->
<g id="node14" class="node">
<title>Node13</title>
<polygon fill="none" stroke="#bfbfbf" points="498.1893,-319 498.1893,-338 554.1893,-338 554.1893,-319 498.1893,-319"/>
<text text-anchor="middle" x="526.1893" y="-326" font-family="Helvetica,sans-Serif" font-size="10.00" fill="#000000">TMath.h</text>
</g>
<!-- Node8&#45;&gt;Node13 -->
<g id="edge14" class="edge">
<title>Node8&#45;&gt;Node13</title>
<path fill="none" stroke="#191970" d="M788.089,-386.1823C723.7505,-378.4274 637.3171,-365.1665 563.1893,-344 560.8727,-343.3385 558.5064,-342.5727 556.1464,-341.743"/>
<polygon fill="#191970" stroke="#191970" points="557.2118,-338.4027 546.622,-338.0747 554.6959,-344.935 557.2118,-338.4027"/>
</g>
<!-- Node14 -->
<g id="node15" class="node">
<title>Node14</title>
<polygon fill="none" stroke="#bfbfbf" points="1015.6893,-185 1015.6893,-204 1088.6893,-204 1088.6893,-185 1015.6893,-185"/>
<text text-anchor="middle" x="1052.1893" y="-192" font-family="Helvetica,sans-Serif" font-size="10.00" fill="#000000">string_view</text>
</g>
<!-- Node8&#45;&gt;Node14 -->
<g id="edge16" class="edge">
<title>Node8&#45;&gt;Node14</title>
<path fill="none" stroke="#191970" d="M935.3838,-385.9626C961.5179,-378.6389 991.6658,-365.9053 1011.1893,-344 1044.2023,-306.9595 1050.9299,-245.7348 1052.1099,-214.3686"/>
<polygon fill="#191970" stroke="#191970" points="1055.6114,-214.3382 1052.3321,-204.2636 1048.6131,-214.1843 1055.6114,-214.3382"/>
</g>
<!-- Node8&#45;&gt;Node15 -->
<g id="edge17" class="edge">
<title>Node8&#45;&gt;Node15</title>
<path fill="none" stroke="#191970" d="M788.1215,-392.3157C652.0944,-386.766 415.3461,-373.0254 389.1893,-344 379.9659,-333.765 379.9319,-323.2043 389.1893,-313 417.612,-281.6702 677.1639,-268.7846 821.472,-264.0056"/>
<polygon fill="#191970" stroke="#191970" points="821.777,-267.4977 831.6583,-263.6754 821.5501,-260.5014 821.777,-267.4977"/>
</g>
<!-- Node36 -->
<g id="node37" class="node">
<title>Node36</title>
<polygon fill="none" stroke="#bfbfbf" points="572.6893,-319 572.6893,-338 647.6893,-338 647.6893,-319 572.6893,-319"/>
<text text-anchor="middle" x="610.1893" y="-326" font-family="Helvetica,sans-Serif" font-size="10.00" fill="#000000">FairLogger.h</text>
</g>
<!-- Node8&#45;&gt;Node36 -->
<g id="edge48" class="edge">
<title>Node8&#45;&gt;Node36</title>
<path fill="none" stroke="#191970" d="M835.2437,-385.9476C789.2694,-376.4652 718.0582,-360.9314 657.1893,-344 654.0438,-343.125 650.7965,-342.1683 647.547,-341.1734"/>
<polygon fill="#191970" stroke="#191970" points="648.4812,-337.798 637.8912,-338.1174 646.369,-344.4717 648.4812,-337.798"/>
</g>
<!-- Node8&#45;&gt;Node37 -->
<g id="edge49" class="edge">
<title>Node8&#45;&gt;Node37</title>
<path fill="none" stroke="#191970" d="M978.2078,-391.2829C1114.3317,-384.6301 1372.5588,-369.7354 1591.1893,-344 1676.1637,-333.9975 1696.4597,-324.8988 1781.1893,-313 1906.5348,-295.3974 2052.6864,-279.0071 2140.2042,-269.6336"/>
<polygon fill="#191970" stroke="#191970" points="2140.7472,-273.0956 2150.3191,-268.5536 2140.0039,-266.1352 2140.7472,-273.0956"/>
</g>
<!-- Node47 -->
<g id="node48" class="node">
<title>Node47</title>
<g id="a_node48"><a xlink:href="../../db/dba/MatCell_8h.html" target="_top" xlink:title="Declarations for material properties of the cell (voxel) ">
<polygon fill="none" stroke="#000000" points="1444.6893,-319 1444.6893,-338 1581.6893,-338 1581.6893,-319 1444.6893,-319"/>
<text text-anchor="middle" x="1513.1893" y="-326" font-family="Helvetica,sans-Serif" font-size="10.00" fill="#000000">DetectorsBase/MatCell.h</text>
</a>
</g>
</g>
<!-- Node8&#45;&gt;Node47 -->
<g id="edge61" class="edge">
<title>Node8&#45;&gt;Node47</title>
<path fill="none" stroke="#191970" d="M978.4713,-389.7011C1088.9643,-382.2656 1276.3943,-367.4568 1436.1893,-344 1443.8732,-342.8721 1451.9493,-341.4788 1459.8627,-339.9942"/>
<polygon fill="#191970" stroke="#191970" points="1460.6055,-343.4154 1469.7575,-338.0778 1459.2745,-336.5431 1460.6055,-343.4154"/>
</g>
<!-- Node15&#45;&gt;Node6 -->
<g id="edge19" class="edge">
<title>Node15&#45;&gt;Node6</title>
<path fill="none" stroke="#191970" d="M933.262,-246.4792C958.5943,-222.8218 1005.0692,-179.4949 1006.1893,-179 1059.2208,-155.571 1466.1621,-134.5521 1582.9486,-128.9541"/>
<polygon fill="#191970" stroke="#191970" points="1583.1959,-132.4464 1593.0183,-128.4753 1582.8633,-125.4543 1583.1959,-132.4464"/>
</g>
<!-- Node15&#45;&gt;Node7 -->
<g id="edge24" class="edge">
<title>Node15&#45;&gt;Node7</title>
<path fill="none" stroke="#191970" d="M835.8861,-246.4487C784.7426,-236.7051 717.443,-223.3793 658.1893,-210 549.6705,-185.4968 422.0759,-151.7604 363.9331,-136.1135"/>
<polygon fill="#191970" stroke="#191970" points="364.7969,-132.7214 354.2304,-133.4966 362.974,-139.48 364.7969,-132.7214"/>
</g>
<!-- Node15&#45;&gt;Node14 -->
<g id="edge23" class="edge">
<title>Node15&#45;&gt;Node14</title>
<path fill="none" stroke="#191970" d="M947.486,-246.4639C970.3413,-235.1209 1001.4723,-219.6707 1023.8388,-208.5703"/>
<polygon fill="#191970" stroke="#191970" points="1025.4366,-211.6847 1032.8382,-204.1039 1022.3247,-205.4144 1025.4366,-211.6847"/>
</g>
<!-- Node15&#45;&gt;Node16 -->
<g id="edge18" class="edge">
<title>Node15&#45;&gt;Node16</title>
<path fill="none" stroke="#191970" d="M1002.86,-254.7159C1112.4884,-245.7769 1308.1985,-228.9514 1475.1893,-210 1500.2462,-207.1564 1528.2943,-203.3877 1550.4177,-200.2786"/>
<polygon fill="#191970" stroke="#191970" points="1551.0375,-203.7258 1560.4475,-198.8573 1550.0554,-196.795 1551.0375,-203.7258"/>
</g>
<!-- Node17 -->
<g id="node18" class="node">
<title>Node17</title>
<polygon fill="none" stroke="#bfbfbf" points="1166.1893,-185 1166.1893,-204 1210.1893,-204 1210.1893,-185 1166.1893,-185"/>
<text text-anchor="middle" x="1188.1893" y="-192" font-family="Helvetica,sans-Serif" font-size="10.00" fill="#000000">bitset</text>
</g>
<!-- Node15&#45;&gt;Node17 -->
<g id="edge20" class="edge">
<title>Node15&#45;&gt;Node17</title>
<path fill="none" stroke="#191970" d="M978.007,-246.4639C1033.1954,-232.8195 1112.421,-213.2324 1156.1479,-202.4217"/>
<polygon fill="#191970" stroke="#191970" points="1157.0817,-205.7963 1165.9493,-199.9985 1155.4016,-199.0009 1157.0817,-205.7963"/>
</g>
<!-- Node18 -->
<g id="node19" class="node">
<title>Node18</title>
<polygon fill="none" stroke="#bfbfbf" points="556.1893,-118 556.1893,-137 608.1893,-137 608.1893,-118 556.1893,-118"/>
<text text-anchor="middle" x="582.1893" y="-125" font-family="Helvetica,sans-Serif" font-size="10.00" fill="#000000">cassert</text>
</g>
<!-- Node15&#45;&gt;Node18 -->
<g id="edge21" class="edge">
<title>Node15&#45;&gt;Node18</title>
<path fill="none" stroke="#191970" d="M867.8745,-246.3984C842.0889,-237.5257 810.5042,-225.0852 784.1893,-210 764.9798,-198.988 764.9015,-189.0848 745.1893,-179 692.5786,-152.0842 672.7925,-163.0157 617.1893,-143 615.3604,-142.3416 613.4925,-141.6314 611.6184,-140.8896"/>
<polygon fill="#191970" stroke="#191970" points="612.9241,-137.642 602.3479,-137.0137 610.2239,-144.1003 612.9241,-137.642"/>
</g>
<!-- Node19 -->
<g id="node20" class="node">
<title>Node19</title>
<polygon fill="none" stroke="#bfbfbf" points="1190.1893,-118 1190.1893,-137 1240.1893,-137 1240.1893,-118 1190.1893,-118"/>
<text text-anchor="middle" x="1215.1893" y="-125" font-family="Helvetica,sans-Serif" font-size="10.00" fill="#000000">cstdint</text>
</g>
<!-- Node15&#45;&gt;Node19 -->
<g id="edge22" class="edge">
<title>Node15&#45;&gt;Node19</title>
<path fill="none" stroke="#191970" d="M923.0959,-246.2263C931.2967,-227.203 948.0234,-195.2342 973.1893,-179 1052.0276,-128.1424 1091.5485,-170.6857 1181.1893,-143 1183.0953,-142.4113 1185.034,-141.7404 1186.97,-141.0156"/>
<polygon fill="#191970" stroke="#191970" points="1188.5714,-144.1404 1196.4639,-137.0723 1185.8863,-137.6758 1188.5714,-144.1404"/>
</g>
<!-- Node20 -->
<g id="node21" class="node">
<title>Node20</title>
<polygon fill="none" stroke="#bfbfbf" points="667.6893,-185 667.6893,-204 736.6893,-204 736.6893,-185 667.6893,-185"/>
<text text-anchor="middle" x="702.1893" y="-192" font-family="Helvetica,sans-Serif" font-size="10.00" fill="#000000">type_traits</text>
</g>
<!-- Node15&#45;&gt;Node20 -->
<g id="edge25" class="edge">
<title>Node15&#45;&gt;Node20</title>
<path fill="none" stroke="#191970" d="M868.5009,-246.4726C835.4053,-236.2387 790.6379,-222.3585 751.1893,-210 748.22,-209.0697 745.1502,-208.1053 742.0626,-207.1332"/>
<polygon fill="#191970" stroke="#191970" points="742.8305,-203.7055 732.2408,-204.035 740.7247,-210.3812 742.8305,-203.7055"/>
</g>
<!-- Node15&#45;&gt;Node21 -->
<g id="edge26" class="edge">
<title>Node15&#45;&gt;Node21</title>
<path fill="none" stroke="#191970" d="M1002.7743,-256.5008C1136.5769,-248.4164 1403.3846,-231.2161 1629.1893,-210 1653.6637,-207.7004 1680.5961,-204.6808 1703.8562,-201.9181"/>
<polygon fill="#191970" stroke="#191970" points="1704.4089,-205.377 1713.9213,-200.7117 1703.5758,-198.4267 1704.4089,-205.377"/>
</g>
<!-- Node29 -->
<g id="node30" class="node">
<title>Node29</title>
<g id="a_node30"><a xlink:href="../../dc/dcd/DataHeader_8h.html" target="_top" xlink:title="Headers/DataHeader.h">
<polygon fill="none" stroke="#000000" points="793.6893,-185 793.6893,-204 920.6893,-204 920.6893,-185 793.6893,-185"/>
<text text-anchor="middle" x="857.1893" y="-192" font-family="Helvetica,sans-Serif" font-size="10.00" fill="#000000">Headers/DataHeader.h</text>
</a>
</g>
</g>
<!-- Node15&#45;&gt;Node29 -->
<g id="edge37" class="edge">
<title>Node15&#45;&gt;Node29</title>
<path fill="none" stroke="#191970" d="M903.5744,-246.2967C894.3169,-235.9591 882.0566,-222.2684 872.4658,-211.5588"/>
<polygon fill="#191970" stroke="#191970" points="875.0246,-209.1696 865.746,-204.055 869.8099,-213.8394 875.0246,-209.1696"/>
</g>
<!-- Node21&#45;&gt;Node6 -->
<g id="edge27" class="edge">
<title>Node21&#45;&gt;Node6</title>
<path fill="none" stroke="#191970" d="M1741.8413,-184.9005C1716.3931,-173.4574 1673.6802,-154.2509 1644.7396,-141.2374"/>
<polygon fill="#191970" stroke="#191970" points="1646.0536,-137.9907 1635.4978,-137.0817 1643.1828,-144.3749 1646.0536,-137.9907"/>
</g>
<!-- Node22 -->
<g id="node23" class="node">
<title>Node22</title>
<polygon fill="none" stroke="#bfbfbf" points="1894.6893,-56.5 1894.6893,-75.5 1941.6893,-75.5 1941.6893,-56.5 1894.6893,-56.5"/>
<text text-anchor="middle" x="1918.1893" y="-63.5" font-family="Helvetica,sans-Serif" font-size="10.00" fill="#000000">cmath</text>
</g>
<!-- Node21&#45;&gt;Node22 -->
<g id="edge28" class="edge">
<title>Node21&#45;&gt;Node22</title>
<path fill="none" stroke="#191970" d="M1790.209,-184.9377C1811.879,-176.3338 1842.2002,-162.1065 1864.1893,-143 1883.3528,-126.3487 1899.1579,-101.5198 1908.615,-84.5892"/>
<polygon fill="#191970" stroke="#191970" points="1911.7664,-86.1189 1913.427,-75.655 1905.6035,-82.7995 1911.7664,-86.1189"/>
</g>
<!-- Node23 -->
<g id="node24" class="node">
<title>Node23</title>
<g id="a_node24"><a xlink:href="../../df/d21/GPUCommonDef_8h.html" target="_top" xlink:title="GPUCommonDef.h">
<polygon fill="none" stroke="#000000" points="1731.6893,-56.5 1731.6893,-75.5 1838.6893,-75.5 1838.6893,-56.5 1731.6893,-56.5"/>
<text text-anchor="middle" x="1785.1893" y="-63.5" font-family="Helvetica,sans-Serif" font-size="10.00" fill="#000000">GPUCommonDef.h</text>
</a>
</g>
</g>
<!-- Node21&#45;&gt;Node23 -->
<g id="edge29" class="edge">
<title>Node21&#45;&gt;Node23</title>
<path fill="none" stroke="#191970" d="M1754.2071,-184.6831C1741.0545,-169.0551 1719.3384,-137.663 1731.1893,-112 1737.0152,-99.384 1748.1962,-88.9528 1758.8798,-81.2314"/>
<polygon fill="#191970" stroke="#191970" points="1760.8749,-84.1076 1767.2294,-75.6299 1756.9751,-78.2946 1760.8749,-84.1076"/>
</g>
<!-- Node26 -->
<g id="node27" class="node">
<title>Node26</title>
<g id="a_node27"><a xlink:href="../../d6/da2/GPUCommonMath_8h.html" target="_top" xlink:title="GPUCommonMath.h">
<polygon fill="none" stroke="#000000" points="1739.6893,-118 1739.6893,-137 1854.6893,-137 1854.6893,-118 1739.6893,-118"/>
<text text-anchor="middle" x="1797.1893" y="-125" font-family="Helvetica,sans-Serif" font-size="10.00" fill="#000000">GPUCommonMath.h</text>
</a>
</g>
</g>
<!-- Node21&#45;&gt;Node26 -->
<g id="edge32" class="edge">
<title>Node21&#45;&gt;Node26</title>
<path fill="none" stroke="#191970" d="M1768.0607,-184.9005C1773.1607,-174.8505 1781.2995,-158.8122 1787.6793,-146.2403"/>
<polygon fill="#191970" stroke="#191970" points="1790.9228,-147.583 1792.327,-137.0817 1784.6805,-144.4153 1790.9228,-147.583"/>
</g>
<!-- Node28 -->
<g id="node29" class="node">
<title>Node28</title>
<g id="a_node29"><a xlink:href="../../d6/d84/MathConstants_8h.html" target="_top" xlink:title="useful math constants ">
<polygon fill="none" stroke="#000000" points="2205.1893,-118 2205.1893,-137 2399.1893,-137 2399.1893,-118 2205.1893,-118"/>
<text text-anchor="middle" x="2302.1893" y="-125" font-family="Helvetica,sans-Serif" font-size="10.00" fill="#000000">CommonConstants/MathConstants.h</text>
</a>
</g>
</g>
<!-- Node21&#45;&gt;Node28 -->
<g id="edge36" class="edge">
<title>Node21&#45;&gt;Node28</title>
<path fill="none" stroke="#191970" d="M1795.2,-184.9988C1803.5974,-182.7674 1812.6843,-180.582 1821.1893,-179 1948.3841,-155.3415 2096.672,-141.5077 2194.6095,-134.2414"/>
<polygon fill="#191970" stroke="#191970" points="2195.0972,-137.7151 2204.815,-133.4944 2194.5862,-130.7338 2195.0972,-137.7151"/>
</g>
<!-- Node24 -->
<g id="node25" class="node">
<title>Node24</title>
<g id="a_node25"><a xlink:href="../../d5/d93/GPUCommonDefSettings_8h.html" target="_top" xlink:title="GPUCommonDefSettings.h">
<polygon fill="none" stroke="#000000" points="1634.1893,-.5 1634.1893,-19.5 1782.1893,-19.5 1782.1893,-.5 1634.1893,-.5"/>
<text text-anchor="middle" x="1708.1893" y="-7.5" font-family="Helvetica,sans-Serif" font-size="10.00" fill="#000000">GPUCommonDefSettings.h</text>
</a>
</g>
</g>
<!-- Node23&#45;&gt;Node24 -->
<g id="edge30" class="edge">
<title>Node23&#45;&gt;Node24</title>
<path fill="none" stroke="#191970" d="M1771.777,-56.2455C1760.1836,-47.814 1743.2146,-35.4729 1729.7215,-25.6598"/>
<polygon fill="#191970" stroke="#191970" points="1731.594,-22.6938 1721.448,-19.6427 1727.4768,-28.355 1731.594,-22.6938"/>
</g>
<!-- Node25 -->
<g id="node26" class="node">
<title>Node25</title>
<g id="a_node26"><a xlink:href="../../da/d5a/GPUCommonDefAPI_8h.html" target="_top" xlink:title="GPUCommonDefAPI.h">
<polygon fill="none" stroke="#000000" points="1800.1893,-.5 1800.1893,-19.5 1924.1893,-19.5 1924.1893,-.5 1800.1893,-.5"/>
<text text-anchor="middle" x="1862.1893" y="-7.5" font-family="Helvetica,sans-Serif" font-size="10.00" fill="#000000">GPUCommonDefAPI.h</text>
</a>
</g>
</g>
<!-- Node23&#45;&gt;Node25 -->
<g id="edge31" class="edge">
<title>Node23&#45;&gt;Node25</title>
<path fill="none" stroke="#191970" d="M1798.6017,-56.2455C1810.1951,-47.814 1827.1641,-35.4729 1840.6572,-25.6598"/>
<polygon fill="#191970" stroke="#191970" points="1842.9019,-28.355 1848.9307,-19.6427 1838.7847,-22.6938 1842.9019,-28.355"/>
</g>
<!-- Node26&#45;&gt;Node22 -->
<g id="edge34" class="edge">
<title>Node26&#45;&gt;Node22</title>
<path fill="none" stroke="#191970" d="M1816.0956,-117.8906C1835.9859,-107.7811 1867.5016,-91.7628 1890.2586,-80.1962"/>
<polygon fill="#191970" stroke="#191970" points="1892.0871,-83.193 1899.4158,-75.5419 1888.9154,-76.9528 1892.0871,-83.193"/>
</g>
<!-- Node26&#45;&gt;Node23 -->
<g id="edge33" class="edge">
<title>Node26&#45;&gt;Node23</title>
<path fill="none" stroke="#191970" d="M1795.3143,-117.8906C1793.6334,-109.276 1791.1153,-96.3708 1789.011,-85.5858"/>
<polygon fill="#191970" stroke="#191970" points="1792.4412,-84.8895 1787.0908,-75.7449 1785.5707,-86.2301 1792.4412,-84.8895"/>
</g>
<!-- Node27 -->
<g id="node28" class="node">
<title>Node27</title>
<polygon fill="none" stroke="#bfbfbf" points="1244.1893,-56.5 1244.1893,-75.5 1308.1893,-75.5 1308.1893,-56.5 1244.1893,-56.5"/>
<text text-anchor="middle" x="1276.1893" y="-63.5" font-family="Helvetica,sans-Serif" font-size="10.00" fill="#000000">algorithm</text>
</g>
<!-- Node26&#45;&gt;Node27 -->
<g id="edge35" class="edge">
<title>Node26&#45;&gt;Node27</title>
<path fill="none" stroke="#191970" d="M1739.4426,-120.6834C1633.7006,-108.2014 1411.3142,-81.9504 1318.394,-70.9819"/>
<polygon fill="#191970" stroke="#191970" points="1318.583,-67.48 1308.2417,-69.7835 1317.7624,-74.4318 1318.583,-67.48"/>
</g>
<!-- Node29&#45;&gt;Node7 -->
<g id="edge44" class="edge">
<title>Node29&#45;&gt;Node7</title>
<path fill="none" stroke="#191970" d="M793.5376,-185.5397C777.7449,-183.3582 760.8563,-181.0608 745.1893,-179 603.7459,-160.3947 434.8191,-139.8549 364.9336,-131.4312"/>
<polygon fill="#191970" stroke="#191970" points="364.9339,-127.906 354.5872,-130.1854 364.097,-134.8558 364.9339,-127.906"/>
</g>
<!-- Node29&#45;&gt;Node18 -->
<g id="edge40" class="edge">
<title>Node29&#45;&gt;Node18</title>
<path fill="none" stroke="#191970" d="M810.3058,-184.9798C745.7453,-171.7873 635.3517,-148.9009 617.1893,-143 615.2932,-142.384 613.3609,-141.6994 611.4268,-140.971"/>
<polygon fill="#191970" stroke="#191970" points="612.4828,-137.6215 601.902,-137.0756 609.833,-144.1006 612.4828,-137.6215"/>
</g>
<!-- Node29&#45;&gt;Node19 -->
<g id="edge38" class="edge">
<title>Node29&#45;&gt;Node19</title>
<path fill="none" stroke="#191970" d="M903.3112,-184.9314C913.7737,-182.8732 924.849,-180.7828 935.1893,-179 1044.0806,-160.2255 1075.1962,-174.2287 1181.1893,-143 1183.1495,-142.4225 1185.1421,-141.7524 1187.1294,-141.0213"/>
<polygon fill="#191970" stroke="#191970" points="1188.9439,-144.0585 1196.8478,-137.0031 1186.2692,-137.5896 1188.9439,-144.0585"/>
</g>
<!-- Node29&#45;&gt;Node27 -->
<g id="edge42" class="edge">
<title>Node29&#45;&gt;Node27</title>
<path fill="none" stroke="#191970" d="M813.5359,-184.9622C763.2136,-172.0799 691.2772,-146.6769 723.1893,-112 757.5781,-74.6319 1110.4734,-67.6139 1233.8698,-66.3008"/>
<polygon fill="#191970" stroke="#191970" points="1234.096,-69.7988 1244.0608,-66.1999 1234.0267,-62.7991 1234.096,-69.7988"/>
</g>
<!-- Node30 -->
<g id="node31" class="node">
<title>Node30</title>
<polygon fill="none" stroke="#bfbfbf" points="962.1893,-118 962.1893,-137 1020.1893,-137 1020.1893,-118 962.1893,-118"/>
<text text-anchor="middle" x="991.1893" y="-125" font-family="Helvetica,sans-Serif" font-size="10.00" fill="#000000">memory</text>
</g>
<!-- Node29&#45;&gt;Node30 -->
<g id="edge39" class="edge">
<title>Node29&#45;&gt;Node30</title>
<path fill="none" stroke="#191970" d="M876.3883,-184.9005C899.0755,-173.5569 937.0206,-154.5844 963.0328,-141.5783"/>
<polygon fill="#191970" stroke="#191970" points="964.647,-144.6843 972.026,-137.0817 961.5165,-138.4234 964.647,-144.6843"/>
</g>
<!-- Node31 -->
<g id="node32" class="node">
<title>Node31</title>
<polygon fill="none" stroke="#bfbfbf" points="1122.1893,-118 1122.1893,-137 1172.1893,-137 1172.1893,-118 1122.1893,-118"/>
<text text-anchor="middle" x="1147.1893" y="-125" font-family="Helvetica,sans-Serif" font-size="10.00" fill="#000000">cstring</text>
</g>
<!-- Node29&#45;&gt;Node31 -->
<g id="edge41" class="edge">
<title>Node29&#45;&gt;Node31</title>
<path fill="none" stroke="#191970" d="M905.1814,-184.944C977.6719,-170.4909 1107.24,-144.575 1112.1893,-143 1114.0891,-142.3954 1116.0243,-141.7197 1117.9605,-140.9978"/>
<polygon fill="#191970" stroke="#191970" points="1119.5478,-144.1306 1127.4906,-137.119 1116.909,-137.6471 1119.5478,-144.1306"/>
</g>
<!-- Node32 -->
<g id="node33" class="node">
<title>Node32</title>
<polygon fill="none" stroke="#bfbfbf" points="1038.6893,-118 1038.6893,-137 1103.6893,-137 1103.6893,-118 1038.6893,-118"/>
<text text-anchor="middle" x="1071.1893" y="-125" font-family="Helvetica,sans-Serif" font-size="10.00" fill="#000000">stdexcept</text>
</g>
<!-- Node29&#45;&gt;Node32 -->
<g id="edge43" class="edge">
<title>Node29&#45;&gt;Node32</title>
<path fill="none" stroke="#191970" d="M891.3275,-184.9609C926.1758,-175.0639 981.735,-158.8435 1029.1893,-143 1031.5761,-142.2031 1034.031,-141.3599 1036.4984,-140.4948"/>
<polygon fill="#191970" stroke="#191970" points="1037.7293,-143.7717 1045.9609,-137.1015 1035.3663,-137.1826 1037.7293,-143.7717"/>
</g>
<!-- Node33 -->
<g id="node34" class="node">
<title>Node33</title>
<polygon fill="none" stroke="#bfbfbf" points="626.1893,-118 626.1893,-137 676.1893,-137 676.1893,-118 626.1893,-118"/>
<text text-anchor="middle" x="651.1893" y="-125" font-family="Helvetica,sans-Serif" font-size="10.00" fill="#000000">climits</text>
</g>
<!-- Node29&#45;&gt;Node33 -->
<g id="edge45" class="edge">
<title>Node29&#45;&gt;Node33</title>
<path fill="none" stroke="#191970" d="M823.3472,-184.9179C789.4275,-175.1142 735.8327,-159.0796 690.1893,-143 688.2824,-142.3282 686.3305,-141.6199 684.366,-140.8909"/>
<polygon fill="#191970" stroke="#191970" points="685.1767,-137.4536 674.5863,-137.1469 682.6739,-143.9909 685.1767,-137.4536"/>
</g>
<!-- Node34 -->
<g id="node35" class="node">
<title>Node34</title>
<g id="a_node35"><a xlink:href="../../d7/df8/Types_8h.html" target="_top" xlink:title="MemoryResources/Types.h">
<polygon fill="none" stroke="#000000" points="732.1893,-118 732.1893,-137 878.1893,-137 878.1893,-118 732.1893,-118"/>
<text text-anchor="middle" x="805.1893" y="-125" font-family="Helvetica,sans-Serif" font-size="10.00" fill="#000000">MemoryResources/Types.h</text>
</a>
</g>
</g>
<!-- Node29&#45;&gt;Node34 -->
<g id="edge46" class="edge">
<title>Node29&#45;&gt;Node34</title>
<path fill="none" stroke="#191970" d="M849.739,-184.9005C841.7073,-174.552 828.7478,-157.8542 818.8719,-145.1295"/>
<polygon fill="#191970" stroke="#191970" points="821.5221,-142.8356 812.6258,-137.0817 815.9922,-147.1275 821.5221,-142.8356"/>
</g>
<!-- Node35 -->
<g id="node36" class="node">
<title>Node35</title>
<polygon fill="none" stroke="#bfbfbf" points="896.6893,-118 896.6893,-137 943.6893,-137 943.6893,-118 896.6893,-118"/>
<text text-anchor="middle" x="920.1893" y="-125" font-family="Helvetica,sans-Serif" font-size="10.00" fill="#000000">cerrno</text>
</g>
<!-- Node29&#45;&gt;Node35 -->
<g id="edge47" class="edge">
<title>Node29&#45;&gt;Node35</title>
<path fill="none" stroke="#191970" d="M866.2157,-184.9005C876.1336,-174.353 892.2534,-157.2096 904.2985,-144.3998"/>
<polygon fill="#191970" stroke="#191970" points="906.8793,-146.7645 911.1797,-137.0817 901.7796,-141.9693 906.8793,-146.7645"/>
</g>
<!-- Node37&#45;&gt;Node4 -->
<g id="edge56" class="edge">
<title>Node37&#45;&gt;Node4</title>
<path fill="none" stroke="#191970" d="M2168.7866,-251.9949C2158.0479,-249.9754 2146.7436,-247.885 2136.1893,-246 2041.2443,-229.0423 2016.0782,-232.0684 1922.1893,-210 1918.1355,-209.0472 1913.931,-207.9504 1909.754,-206.7897"/>
<polygon fill="#191970" stroke="#191970" points="1910.7207,-203.4259 1900.1416,-204.0031 1908.7717,-210.1491 1910.7207,-203.4259"/>
</g>
<!-- Node37&#45;&gt;Node16 -->
<g id="edge55" class="edge">
<title>Node37&#45;&gt;Node16</title>
<path fill="none" stroke="#191970" d="M2150.476,-255.4397C2052.2472,-246.4809 1864.5391,-228.7319 1705.1893,-210 1680.1441,-207.0559 1652.0962,-203.285 1629.9701,-200.1999"/>
<polygon fill="#191970" stroke="#191970" points="1630.3282,-196.7159 1619.9387,-198.7916 1629.355,-203.6479 1630.3282,-196.7159"/>
</g>
<!-- Node38 -->
<g id="node39" class="node">
<title>Node38</title>
<polygon fill="none" stroke="#bfbfbf" points="2694.1893,-179.5 2694.1893,-209.5 2858.1893,-209.5 2858.1893,-179.5 2694.1893,-179.5"/>
<text text-anchor="start" x="2702.1893" y="-197.5" font-family="Helvetica,sans-Serif" font-size="10.00" fill="#000000">Math/GenVector/Displacement</text>
<text text-anchor="middle" x="2776.1893" y="-186.5" font-family="Helvetica,sans-Serif" font-size="10.00" fill="#000000">Vector3D.h</text>
</g>
<!-- Node37&#45;&gt;Node38 -->
<g id="edge50" class="edge">
<title>Node37&#45;&gt;Node38</title>
<path fill="none" stroke="#191970" d="M2264.4656,-251.9695C2276.0926,-249.7911 2288.5688,-247.6379 2300.1893,-246 2467.1241,-222.4705 2513.0656,-232.0596 2683.8052,-210.118"/>
<polygon fill="#191970" stroke="#191970" points="2684.4275,-213.5666 2693.8916,-208.804 2683.5232,-206.6252 2684.4275,-213.5666"/>
</g>
<!-- Node39 -->
<g id="node40" class="node">
<title>Node39</title>
<polygon fill="none" stroke="#bfbfbf" points="1930.6893,-185 1930.6893,-204 2119.6893,-204 2119.6893,-185 1930.6893,-185"/>
<text text-anchor="middle" x="2025.1893" y="-192" font-family="Helvetica,sans-Serif" font-size="10.00" fill="#000000">Math/GenVector/PositionVector3D.h</text>
</g>
<!-- Node37&#45;&gt;Node39 -->
<g id="edge51" class="edge">
<title>Node37&#45;&gt;Node39</title>
<path fill="none" stroke="#191970" d="M2190.5371,-251.9005C2156.8575,-240.2086 2099.8319,-220.4122 2062.3421,-207.3976"/>
<polygon fill="#191970" stroke="#191970" points="2063.385,-204.0548 2052.7902,-204.0817 2061.0893,-210.6677 2063.385,-204.0548"/>
</g>
<!-- Node40 -->
<g id="node41" class="node">
<title>Node40</title>
<polygon fill="none" stroke="#bfbfbf" points="2138.1893,-185 2138.1893,-204 2298.1893,-204 2298.1893,-185 2138.1893,-185"/>
<text text-anchor="middle" x="2218.1893" y="-192" font-family="Helvetica,sans-Serif" font-size="10.00" fill="#000000">Math/GenVector/Rotation3D.h</text>
</g>
<!-- Node37&#45;&gt;Node40 -->
<g id="edge52" class="edge">
<title>Node37&#45;&gt;Node40</title>
<path fill="none" stroke="#191970" d="M2218.1893,-251.9005C2218.1893,-242.149 2218.1893,-226.7597 2218.1893,-214.3695"/>
<polygon fill="#191970" stroke="#191970" points="2221.6894,-214.0816 2218.1893,-204.0817 2214.6894,-214.0817 2221.6894,-214.0816"/>
</g>
<!-- Node41 -->
<g id="node42" class="node">
<title>Node41</title>
<polygon fill="none" stroke="#bfbfbf" points="2316.1893,-185 2316.1893,-204 2484.1893,-204 2484.1893,-185 2316.1893,-185"/>
<text text-anchor="middle" x="2400.1893" y="-192" font-family="Helvetica,sans-Serif" font-size="10.00" fill="#000000">Math/GenVector/Transform3D.h</text>
</g>
<!-- Node37&#45;&gt;Node41 -->
<g id="edge53" class="edge">
<title>Node37&#45;&gt;Node41</title>
<path fill="none" stroke="#191970" d="M2244.2655,-251.9005C2275.8904,-240.2584 2329.3437,-220.5805 2364.7018,-207.5641"/>
<polygon fill="#191970" stroke="#191970" points="2365.9864,-210.8209 2374.1615,-204.0817 2363.5681,-204.2519 2365.9864,-210.8209"/>
</g>
<!-- Node42 -->
<g id="node43" class="node">
<title>Node42</title>
<polygon fill="none" stroke="#bfbfbf" points="2502.6893,-185 2502.6893,-204 2675.6893,-204 2675.6893,-185 2502.6893,-185"/>
<text text-anchor="middle" x="2589.1893" y="-192" font-family="Helvetica,sans-Serif" font-size="10.00" fill="#000000">Math/GenVector/Translation3D.h</text>
</g>
<!-- Node37&#45;&gt;Node42 -->
<g id="edge54" class="edge">
<title>Node37&#45;&gt;Node42</title>
<path fill="none" stroke="#191970" d="M2268.0417,-251.9903C2278.6493,-249.991 2289.7868,-247.91 2300.1893,-246 2377.4266,-231.8187 2466.3853,-216.0513 2524.9735,-205.7448"/>
<polygon fill="#191970" stroke="#191970" points="2525.5857,-209.1909 2534.8287,-204.0122 2524.3737,-202.2966 2525.5857,-209.1909"/>
</g>
<!-- Node43 -->
<g id="node44" class="node">
<title>Node43</title>
<polygon fill="none" stroke="#bfbfbf" points="3105.6893,-185 3105.6893,-204 3154.6893,-204 3154.6893,-185 3105.6893,-185"/>
<text text-anchor="middle" x="3130.1893" y="-192" font-family="Helvetica,sans-Serif" font-size="10.00" fill="#000000">iosfwd</text>
</g>
<!-- Node37&#45;&gt;Node43 -->
<g id="edge57" class="edge">
<title>Node37&#45;&gt;Node43</title>
<path fill="none" stroke="#191970" d="M2262.2719,-251.9799C2274.4982,-249.6642 2287.8132,-247.4418 2300.1893,-246 2476.29,-225.4839 2925.0692,-252.5087 3097.1893,-210 3099.3862,-209.4574 3101.613,-208.7641 3103.8186,-207.9728"/>
<polygon fill="#191970" stroke="#191970" points="3105.3265,-211.1358 3113.1933,-204.0391 3102.618,-204.681 3105.3265,-211.1358"/>
</g>
<!-- Node44 -->
<g id="node45" class="node">
<title>Node44</title>
<g id="a_node45"><a xlink:href="../../d2/dd0/Cartesian2D_8h.html" target="_top" xlink:title="MathUtils/Cartesian2D.h">
<polygon fill="none" stroke="#000000" points="2952.6893,-185 2952.6893,-204 3087.6893,-204 3087.6893,-185 2952.6893,-185"/>
<text text-anchor="middle" x="3020.1893" y="-192" font-family="Helvetica,sans-Serif" font-size="10.00" fill="#000000">MathUtils/Cartesian2D.h</text>
</a>
</g>
</g>
<!-- Node37&#45;&gt;Node44 -->
<g id="edge58" class="edge">
<title>Node37&#45;&gt;Node44</title>
<path fill="none" stroke="#191970" d="M2263.1448,-251.968C2275.135,-249.7095 2288.1144,-247.5187 2300.1893,-246 2550.723,-214.4903 2615.5342,-230.7289 2867.1893,-210 2891.6358,-207.9863 2918.2415,-205.4216 2942.308,-202.9608"/>
<polygon fill="#191970" stroke="#191970" points="2942.865,-206.422 2952.4531,-201.9144 2942.1468,-199.4589 2942.865,-206.422"/>
</g>
<!-- Node45 -->
<g id="node46" class="node">
<title>Node45</title>
<polygon fill="none" stroke="#bfbfbf" points="2991.1893,-112.5 2991.1893,-142.5 3155.1893,-142.5 3155.1893,-112.5 2991.1893,-112.5"/>
<text text-anchor="start" x="2999.1893" y="-130.5" font-family="Helvetica,sans-Serif" font-size="10.00" fill="#000000">Math/GenVector/Displacement</text>
<text text-anchor="middle" x="3073.1893" y="-119.5" font-family="Helvetica,sans-Serif" font-size="10.00" fill="#000000">Vector2D.h</text>
</g>
<!-- Node44&#45;&gt;Node45 -->
<g id="edge59" class="edge">
<title>Node44&#45;&gt;Node45</title>
<path fill="none" stroke="#191970" d="M3027.7829,-184.9005C3034.8309,-175.9908 3045.6018,-162.3748 3054.8846,-150.6399"/>
<polygon fill="#191970" stroke="#191970" points="3057.8474,-152.536 3061.3064,-142.5218 3052.3574,-148.1932 3057.8474,-152.536"/>
</g>
<!-- Node46 -->
<g id="node47" class="node">
<title>Node46</title>
<polygon fill="none" stroke="#bfbfbf" points="2783.6893,-118 2783.6893,-137 2972.6893,-137 2972.6893,-118 2783.6893,-118"/>
<text text-anchor="middle" x="2878.1893" y="-125" font-family="Helvetica,sans-Serif" font-size="10.00" fill="#000000">Math/GenVector/PositionVector2D.h</text>
</g>
<!-- Node44&#45;&gt;Node46 -->
<g id="edge60" class="edge">
<title>Node44&#45;&gt;Node46</title>
<path fill="none" stroke="#191970" d="M2999.8442,-184.9005C2975.6971,-173.5072 2935.239,-154.4178 2907.6649,-141.4075"/>
<polygon fill="#191970" stroke="#191970" points="2909.0341,-138.1835 2898.4967,-137.0817 2906.0471,-144.5142 2909.0341,-138.1835"/>
</g>
<!-- Node47&#45;&gt;Node23 -->
<g id="edge62" class="edge">
<title>Node47&#45;&gt;Node23</title>
<path fill="none" stroke="#191970" d="M1470.3095,-318.9711C1420.0831,-307.3838 1342.6107,-288.0139 1334.1893,-277 1307.7321,-242.398 1306.6566,-213.5442 1333.1893,-179 1380.1928,-117.804 1608.1993,-85.059 1721.3018,-72.3482"/>
<polygon fill="#191970" stroke="#191970" points="1721.9943,-75.793 1731.5495,-71.216 1721.2256,-68.8354 1721.9943,-75.793"/>
</g>
<!-- Node48 -->
<g id="node49" class="node">
<title>Node48</title>
<g id="a_node49"><a xlink:href="../../d2/d45/GPUCommonRtypes_8h.html" target="_top" xlink:title="GPUCommonRtypes.h">
<polygon fill="none" stroke="#000000" points="1847.6893,-252 1847.6893,-271 1972.6893,-271 1972.6893,-252 1847.6893,-252"/>
<text text-anchor="middle" x="1910.1893" y="-259" font-family="Helvetica,sans-Serif" font-size="10.00" fill="#000000">GPUCommonRtypes.h</text>
</a>
</g>
</g>
<!-- Node47&#45;&gt;Node48 -->
<g id="edge63" class="edge">
<title>Node47&#45;&gt;Node48</title>
<path fill="none" stroke="#191970" d="M1563.1922,-318.9776C1574.0621,-316.9592 1585.5048,-314.8736 1596.1893,-313 1679.7314,-298.3502 1776.0107,-282.7483 1839.6987,-272.6058"/>
<polygon fill="#191970" stroke="#191970" points="1840.3073,-276.0531 1849.6335,-271.0259 1839.2079,-269.14 1840.3073,-276.0531"/>
</g>
<!-- Node48&#45;&gt;Node16 -->
<g id="edge64" class="edge">
<title>Node48&#45;&gt;Node16</title>
<path fill="none" stroke="#191970" d="M1847.6424,-252.6491C1791.2975,-244.0108 1706.4656,-229.3498 1634.1893,-210 1631.0599,-209.1622 1627.8343,-208.2078 1624.6188,-207.1937"/>
<polygon fill="#191970" stroke="#191970" points="1625.7031,-203.8658 1615.1095,-204.0291 1623.4927,-210.5077 1625.7031,-203.8658"/>
</g>
<!-- Node49&#45;&gt;Node7 -->
<g id="edge68" class="edge">
<title>Node49&#45;&gt;Node7</title>
<path fill="none" stroke="#191970" d="M144.524,-385.886C140.641,-370.004 134.9419,-337.5994 145.1893,-313 178.4462,-233.1658 264.6241,-170.0484 307.3804,-142.5193"/>
<polygon fill="#191970" stroke="#191970" points="309.467,-145.3411 316.0527,-137.0417 305.7289,-139.4227 309.467,-145.3411"/>
</g>
<!-- Node50 -->
<g id="node51" class="node">
<title>Node50</title>
<polygon fill="none" stroke="#bfbfbf" points="154.6893,-319 154.6893,-338 227.6893,-338 227.6893,-319 154.6893,-319"/>
<text text-anchor="middle" x="191.1893" y="-326" font-family="Helvetica,sans-Serif" font-size="10.00" fill="#000000">TObjArray.h</text>
</g>
<!-- Node49&#45;&gt;Node50 -->
<g id="edge67" class="edge">
<title>Node49&#45;&gt;Node50</title>
<path fill="none" stroke="#191970" d="M153.4935,-385.9005C160.2242,-375.6515 171.0448,-359.1747 179.37,-346.4976"/>
<polygon fill="#191970" stroke="#191970" points="182.3331,-348.3616 184.8969,-338.0817 176.482,-344.5191 182.3331,-348.3616"/>
</g>
<!-- Node51 -->
<g id="node52" class="node">
<title>Node51</title>
<g id="a_node52"><a xlink:href="../../d4/d20/DetMatrixCache_8h.html" target="_top" xlink:title="DetectorsCommonDataFormats\l/DetMatrixCache.h">
<polygon fill="none" stroke="#000000" points="1255.6893,-313.5 1255.6893,-343.5 1426.6893,-343.5 1426.6893,-313.5 1255.6893,-313.5"/>
<text text-anchor="start" x="1263.6893" y="-331.5" font-family="Helvetica,sans-Serif" font-size="10.00" fill="#000000">DetectorsCommonDataFormats</text>
<text text-anchor="middle" x="1341.1893" y="-320.5" font-family="Helvetica,sans-Serif" font-size="10.00" fill="#000000">/DetMatrixCache.h</text>
</a>
</g>
</g>
<!-- Node49&#45;&gt;Node51 -->
<g id="edge69" class="edge">
<title>Node49&#45;&gt;Node51</title>
<path fill="none" stroke="#191970" d="M227.9,-391.8612C396.0031,-384.1533 795.9223,-365.144 1131.1893,-344 1168.6243,-341.6391 1209.7854,-338.6808 1245.6725,-335.9833"/>
<polygon fill="#191970" stroke="#191970" points="1245.9391,-339.4732 1255.6471,-335.23 1245.4119,-332.4931 1245.9391,-339.4732"/>
</g>
<!-- Node51&#45;&gt;Node1 -->
<g id="edge75" class="edge">
<title>Node51&#45;&gt;Node1</title>
<path fill="none" stroke="#191970" d="M1255.6524,-321.6844C1217.5643,-318.7791 1172.1494,-315.4923 1131.1893,-313 721.6757,-288.0819 223.7949,-268.0215 90.4109,-262.8176"/>
<polygon fill="#191970" stroke="#191970" points="90.1644,-259.3055 80.0359,-262.4142 89.8923,-266.3002 90.1644,-259.3055"/>
</g>
<!-- Node51&#45;&gt;Node6 -->
<g id="edge74" class="edge">
<title>Node51&#45;&gt;Node6</title>
<path fill="none" stroke="#191970" d="M1410.0846,-313.4888C1433.014,-305.7144 1457.2509,-294.1221 1475.1893,-277 1509.5958,-244.1592 1485.9094,-213.9331 1518.1893,-179 1535.949,-159.7806 1562.5537,-146.2927 1583.2548,-137.955"/>
<polygon fill="#191970" stroke="#191970" points="1584.7892,-141.1155 1592.8783,-134.2732 1582.2878,-134.5776 1584.7892,-141.1155"/>
</g>
<!-- Node51&#45;&gt;Node15 -->
<g id="edge76" class="edge">
<title>Node51&#45;&gt;Node15</title>
<path fill="none" stroke="#191970" d="M1255.6418,-314.9819C1185.4065,-303.8834 1085.9904,-288.1738 1013.0751,-276.6518"/>
<polygon fill="#191970" stroke="#191970" points="1013.3919,-273.1585 1002.9681,-275.0547 1012.2993,-280.0727 1013.3919,-273.1585"/>
</g>
<!-- Node51&#45;&gt;Node37 -->
<g id="edge77" class="edge">
<title>Node51&#45;&gt;Node37</title>
<path fill="none" stroke="#191970" d="M1426.8416,-314.1372C1429.994,-313.732 1433.1178,-313.3509 1436.1893,-313 1438.364,-312.7516 1943.0076,-279.5814 2140.3674,-266.613"/>
<polygon fill="#191970" stroke="#191970" points="2140.63,-270.1034 2150.3789,-265.9552 2140.1709,-263.1185 2140.63,-270.1034"/>
</g>
<!-- Node51&#45;&gt;Node48 -->
<g id="edge73" class="edge">
<title>Node51&#45;&gt;Node48</title>
<path fill="none" stroke="#191970" d="M1426.8627,-314.3054C1430.0091,-313.8529 1433.1259,-313.416 1436.1893,-313 1577.9032,-293.7546 1744.2323,-277.029 1837.4028,-268.188"/>
<polygon fill="#191970" stroke="#191970" points="1837.9411,-271.6529 1847.5674,-267.2273 1837.2824,-264.6839 1837.9411,-271.6529"/>
</g>
<!-- Node52 -->
<g id="node53" class="node">
<title>Node52</title>
<g id="a_node53"><a xlink:href="../../df/d5b/GPUCommonLogger_8h.html" target="_top" xlink:title="GPUCommonLogger.h">
<polygon fill="none" stroke="#000000" points="1342.6893,-252 1342.6893,-271 1465.6893,-271 1465.6893,-252 1342.6893,-252"/>
<text text-anchor="middle" x="1404.1893" y="-259" font-family="Helvetica,sans-Serif" font-size="10.00" fill="#000000">GPUCommonLogger.h</text>
</a>
</g>
</g>
<!-- Node51&#45;&gt;Node52 -->
<g id="edge70" class="edge">
<title>Node51&#45;&gt;Node52</title>
<path fill="none" stroke="#191970" d="M1355.485,-313.2967C1365.2054,-302.9591 1378.0787,-289.2684 1388.149,-278.5588"/>
<polygon fill="#191970" stroke="#191970" points="1390.9044,-280.7378 1395.2048,-271.055 1385.8047,-275.9426 1390.9044,-280.7378"/>
</g>
<!-- Node53 -->
<g id="node54" class="node">
<title>Node53</title>
<polygon fill="none" stroke="#bfbfbf" points="1342.1893,-185 1342.1893,-204 1402.1893,-204 1402.1893,-185 1342.1893,-185"/>
<text text-anchor="middle" x="1372.1893" y="-192" font-family="Helvetica,sans-Serif" font-size="10.00" fill="#000000">iostream</text>
</g>
<!-- Node52&#45;&gt;Node53 -->
<g id="edge71" class="edge">
<title>Node52&#45;&gt;Node53</title>
<path fill="none" stroke="#191970" d="M1399.6045,-251.9005C1394.8045,-241.8505 1387.1444,-225.8122 1381.1399,-213.2403"/>
<polygon fill="#191970" stroke="#191970" points="1384.2338,-211.5968 1376.7657,-204.0817 1377.9172,-214.6137 1384.2338,-211.5968"/>
</g>
<!-- Node54 -->
<g id="node55" class="node">
<title>Node54</title>
<polygon fill="none" stroke="#bfbfbf" points="1420.1893,-185 1420.1893,-204 1466.1893,-204 1466.1893,-185 1420.1893,-185"/>
<text text-anchor="middle" x="1443.1893" y="-192" font-family="Helvetica,sans-Serif" font-size="10.00" fill="#000000">cstdio</text>
</g>
<!-- Node52&#45;&gt;Node54 -->
<g id="edge72" class="edge">
<title>Node52&#45;&gt;Node54</title>
<path fill="none" stroke="#191970" d="M1409.7771,-251.9005C1415.685,-241.751 1425.148,-225.4941 1432.4976,-212.8679"/>
<polygon fill="#191970" stroke="#191970" points="1435.6061,-214.4849 1437.612,-204.0817 1429.5563,-210.9634 1435.6061,-214.4849"/>
</g>
<!-- Node56 -->
<g id="node57" class="node">
<title>Node56</title>
<g id="a_node57"><a xlink:href="../../d4/de2/BaseCluster_8h.html" target="_top" xlink:title="ReconstructionDataFormats\l/BaseCluster.h">
<polygon fill="none" stroke="#000000" points="2208.1893,-380.5 2208.1893,-410.5 2360.1893,-410.5 2360.1893,-380.5 2208.1893,-380.5"/>
<text text-anchor="start" x="2216.1893" y="-398.5" font-family="Helvetica,sans-Serif" font-size="10.00" fill="#000000">ReconstructionDataFormats</text>
<text text-anchor="middle" x="2284.1893" y="-387.5" font-family="Helvetica,sans-Serif" font-size="10.00" fill="#000000">/BaseCluster.h</text>
</a>
</g>
</g>
<!-- Node55&#45;&gt;Node56 -->
<g id="edge82" class="edge">
<title>Node55&#45;&gt;Node56</title>
<path fill="none" stroke="#191970" d="M2287.6162,-452.9005C2287.1153,-444.5099 2286.3652,-431.9451 2285.6943,-420.7085"/>
<polygon fill="#191970" stroke="#191970" points="2289.176,-420.2954 2285.0862,-410.5218 2282.1884,-420.7126 2289.176,-420.2954"/>
</g>
<!-- Node56&#45;&gt;Node5 -->
<g id="edge83" class="edge">
<title>Node56&#45;&gt;Node5</title>
<path fill="none" stroke="#191970" d="M2208.166,-388.8938C2171.094,-385.8472 2125.8369,-382.3862 2085.1893,-380 1681.1242,-356.28 1577.4589,-388.8385 1175.1893,-344 1161.3308,-342.4553 1146.32,-339.9541 1132.8732,-337.4076"/>
<polygon fill="#191970" stroke="#191970" points="1133.4259,-333.9494 1122.9402,-335.4665 1132.0833,-340.8195 1133.4259,-333.9494"/>
</g>
<!-- Node56&#45;&gt;Node17 -->
<g id="edge84" class="edge">
<title>Node56&#45;&gt;Node17</title>
<path fill="none" stroke="#191970" d="M2208.1625,-388.9534C2171.0896,-385.9207 2125.8329,-382.4541 2085.1893,-380 2038.6202,-377.1881 1284.1112,-371.1758 1246.1893,-344 1203.8828,-313.6821 1192.4356,-247.9123 1189.3382,-214.6415"/>
<polygon fill="#191970" stroke="#191970" points="1192.8031,-214.0454 1188.554,-204.3399 1185.8233,-214.5768 1192.8031,-214.0454"/>
</g>
<!-- Node56&#45;&gt;Node37 -->
<g id="edge89" class="edge">
<title>Node56&#45;&gt;Node37</title>
<path fill="none" stroke="#191970" d="M2269.1577,-380.4466C2260.2159,-370.7536 2249.2707,-357.4827 2242.1893,-344 2231.6065,-323.8505 2225.1131,-298.4134 2221.5938,-281.1493"/>
<polygon fill="#191970" stroke="#191970" points="2224.9949,-280.2976 2219.6976,-271.1222 2218.1168,-281.5984 2224.9949,-280.2976"/>
</g>
<!-- Node56&#45;&gt;Node43 -->
<g id="edge87" class="edge">
<title>Node56&#45;&gt;Node43</title>
<path fill="none" stroke="#191970" d="M2276.4799,-380.3637C2268.3792,-362.077 2258.8869,-331.4726 2275.1893,-313 2397.0033,-174.9697 2920.3599,-261.2089 3097.1893,-210 3099.1045,-209.4454 3101.048,-208.7926 3102.9838,-208.0741"/>
<polygon fill="#191970" stroke="#191970" points="3104.581,-211.1991 3112.4329,-204.0858 3101.8589,-204.75 3104.581,-211.1991"/>
</g>
<!-- Node56&#45;&gt;Node51 -->
<g id="edge88" class="edge">
<title>Node56&#45;&gt;Node51</title>
<path fill="none" stroke="#191970" d="M2208.1483,-389.177C2171.0721,-386.1962 2125.8167,-382.7087 2085.1893,-380 1800.3193,-361.0073 1725.1298,-374.9681 1437.1711,-344.0237"/>
<polygon fill="#191970" stroke="#191970" points="1437.1559,-340.5017 1426.837,-342.9039 1436.4017,-347.4609 1437.1559,-340.5017"/>
</g>
<!-- Node57 -->
<g id="node58" class="node">
<title>Node57</title>
<polygon fill="none" stroke="#bfbfbf" points="2284.1893,-319 2284.1893,-338 2340.1893,-338 2340.1893,-319 2284.1893,-319"/>
<text text-anchor="middle" x="2312.1893" y="-326" font-family="Helvetica,sans-Serif" font-size="10.00" fill="#000000">iomanip</text>
</g>
<!-- Node56&#45;&gt;Node57 -->
<g id="edge85" class="edge">
<title>Node56&#45;&gt;Node57</title>
<path fill="none" stroke="#191970" d="M2290.543,-380.2967C2294.609,-370.5672 2299.9163,-357.8675 2304.2581,-347.4784"/>
<polygon fill="#191970" stroke="#191970" points="2307.5696,-348.6313 2308.1962,-338.055 2301.1109,-345.9321 2307.5696,-348.6313"/>
</g>
<!-- Node58 -->
<g id="node59" class="node">
<title>Node58</title>
<polygon fill="none" stroke="#bfbfbf" points="2358.6893,-319 2358.6893,-338 2389.6893,-338 2389.6893,-319 2358.6893,-319"/>
<text text-anchor="middle" x="2374.1893" y="-326" font-family="Helvetica,sans-Serif" font-size="10.00" fill="#000000">ios</text>
</g>
<!-- Node56&#45;&gt;Node58 -->
<g id="edge86" class="edge">
<title>Node56&#45;&gt;Node58</title>
<path fill="none" stroke="#191970" d="M2304.6117,-380.2967C2319.0426,-369.5537 2338.3378,-355.1895 2352.9481,-344.3129"/>
<polygon fill="#191970" stroke="#191970" points="2355.423,-346.8339 2361.3543,-338.055 2351.2429,-341.219 2355.423,-346.8339"/>
</g>
<!-- Node59&#45;&gt;Node1 -->
<g id="edge91" class="edge">
<title>Node59&#45;&gt;Node1</title>
<path fill="none" stroke="#191970" d="M1991.6408,-517.4022C1975.9872,-516.1435 1959.5485,-514.9305 1944.1893,-514 1839.3921,-507.6508 129.0368,-487.5553 57.1893,-411 24.1407,-375.7858 38.6038,-312.7864 48.9728,-280.9925"/>
<polygon fill="#191970" stroke="#191970" points="52.418,-281.7395 52.3851,-271.1447 45.8038,-279.4476 52.418,-281.7395"/>
</g>
<!-- Node60 -->
<g id="node61" class="node">
<title>Node60</title>
<g id="a_node61"><a xlink:href="../../d7/d8b/DataFormats_2Reconstruction_2include_2ReconstructionDataFormats_2Track_8h.html" target="_top" xlink:title="ReconstructionDataFormats\l/Track.h">
<polygon fill="none" stroke="#000000" points="1989.1893,-447.5 1989.1893,-477.5 2141.1893,-477.5 2141.1893,-447.5 1989.1893,-447.5"/>
<text text-anchor="start" x="1997.1893" y="-465.5" font-family="Helvetica,sans-Serif" font-size="10.00" fill="#000000">ReconstructionDataFormats</text>
<text text-anchor="middle" x="2065.1893" y="-454.5" font-family="Helvetica,sans-Serif" font-size="10.00" fill="#000000">/Track.h</text>
</a>
</g>
</g>
<!-- Node59&#45;&gt;Node60 -->
<g id="edge92" class="edge">
<title>Node59&#45;&gt;Node60</title>
<path fill="none" stroke="#191970" d="M2065.1893,-514.3906C2065.1893,-507.2234 2065.1893,-497.0862 2065.1893,-487.671"/>
<polygon fill="#191970" stroke="#191970" points="2068.6894,-487.5446 2065.1893,-477.5446 2061.6894,-487.5446 2068.6894,-487.5446"/>
</g>
<!-- Node63 -->
<g id="node64" class="node">
<title>Node63</title>
<g id="a_node64"><a xlink:href="../../de/d64/RangeReference_8h.html" target="_top" xlink:title="Class to refer to the 1st entry and N elements of some group in the continuous container. ">
<polygon fill="none" stroke="#000000" points="1790.1893,-319 1790.1893,-338 2000.1893,-338 2000.1893,-319 1790.1893,-319"/>
<text text-anchor="middle" x="1895.1893" y="-326" font-family="Helvetica,sans-Serif" font-size="10.00" fill="#000000">CommonDataFormat/RangeReference.h</text>
</a>
</g>
</g>
<!-- Node59&#45;&gt;Node63 -->
<g id="edge106" class="edge">
<title>Node59&#45;&gt;Node63</title>
<path fill="none" stroke="#191970" d="M2010.8808,-514.4797C1955.5769,-501.5781 1872.6575,-472.642 1834.1893,-411 1826.895,-399.3115 1828.3855,-392.4957 1834.1893,-380 1841.2575,-364.7823 1855.2823,-352.4403 1868.1035,-343.6574"/>
<polygon fill="#191970" stroke="#191970" points="1870.1579,-346.4979 1876.6871,-338.1539 1866.3797,-340.6051 1870.1579,-346.4979"/>
</g>
<!-- Node60&#45;&gt;Node6 -->
<g id="edge95" class="edge">
<title>Node60&#45;&gt;Node6</title>
<path fill="none" stroke="#191970" d="M2073.5685,-447.4831C2081.7464,-430.8615 2092.0331,-403.3344 2085.1893,-380 2064.0488,-307.9199 2048.947,-280.4367 1982.1893,-246 1854.9959,-180.3876 1782.0646,-288.1862 1662.1893,-210 1639.7046,-195.3348 1626.4554,-166.1929 1619.7571,-146.7692"/>
<polygon fill="#191970" stroke="#191970" points="1623.0584,-145.601 1616.6927,-137.1317 1616.3875,-147.7221 1623.0584,-145.601"/>
</g>
<!-- Node60&#45;&gt;Node7 -->
<g id="edge101" class="edge">
<title>Node60&#45;&gt;Node7</title>
<path fill="none" stroke="#191970" d="M1988.9865,-460.7101C1749.8352,-454.8938 1016.0339,-435.4798 779.1893,-411 578.2379,-390.23 332.1893,-530.522 332.1893,-328.5 332.1893,-328.5 332.1893,-328.5 332.1893,-261.5 332.1893,-220.9699 332.1893,-173.5443 332.1893,-147.3795"/>
<polygon fill="#191970" stroke="#191970" points="335.6894,-147.2517 332.1893,-137.2517 328.6894,-147.2518 335.6894,-147.2517"/>
</g>
<!-- Node60&#45;&gt;Node21 -->
<g id="edge103" class="edge">
<title>Node60&#45;&gt;Node21</title>
<path fill="none" stroke="#191970" d="M2087.7162,-447.4495C2099.1634,-438.397 2111.9459,-425.7722 2118.1893,-411 2135.1457,-370.8806 2137.527,-352.0275 2118.1893,-313 2056.1603,-187.8121 1957.6596,-239.9243 1821.1893,-210 1816.4743,-208.9661 1811.567,-207.799 1806.6914,-206.5808"/>
<polygon fill="#191970" stroke="#191970" points="1807.3564,-203.1379 1796.7996,-204.0345 1805.6114,-209.917 1807.3564,-203.1379"/>
</g>
<!-- Node60&#45;&gt;Node22 -->
<g id="edge97" class="edge">
<title>Node60&#45;&gt;Node22</title>
<path fill="none" stroke="#191970" d="M2141.2686,-452.6506C2160.1655,-450.4937 2180.3914,-448.4302 2199.1893,-447 2416.4859,-430.4669 2965.1253,-451.8382 3179.1893,-411 3287.0985,-390.4136 3412.1893,-438.3553 3412.1893,-328.5 3412.1893,-328.5 3412.1893,-328.5 3412.1893,-194.5 3412.1893,-87.5723 3291.1289,-132.5236 3186.1893,-112 3062.1278,-87.7366 2141.0854,-70.0014 1952.042,-66.5949"/>
<polygon fill="#191970" stroke="#191970" points="1951.9324,-63.0925 1941.8713,-66.4128 1951.807,-70.0913 1951.9324,-63.0925"/>
</g>
<!-- Node60&#45;&gt;Node27 -->
<g id="edge94" class="edge">
<title>Node60&#45;&gt;Node27</title>
<path fill="none" stroke="#191970" d="M1989.1615,-452.16C1787.2154,-424.6102 1252.2905,-351.0475 1246.1893,-344 1212.7529,-305.3776 1254.5732,-142.3557 1270.5069,-85.5885"/>
<polygon fill="#191970" stroke="#191970" points="1273.9444,-86.2965 1273.3185,-75.7201 1267.2123,-84.3784 1273.9444,-86.2965"/>
</g>
<!-- Node60&#45;&gt;Node28 -->
<g id="edge102" class="edge">
<title>Node60&#45;&gt;Node28</title>
<path fill="none" stroke="#191970" d="M2141.3536,-453.5606C2160.2482,-451.3786 2180.4517,-449.0757 2199.1893,-447 2361.4458,-429.0261 2924.1893,-491.749 2924.1893,-328.5 2924.1893,-328.5 2924.1893,-328.5 2924.1893,-261.5 2924.1893,-216.9329 2905.6748,-201.4743 2867.1893,-179 2828.7345,-156.5436 2562.6553,-140.1143 2409.741,-132.4034"/>
<polygon fill="#191970" stroke="#191970" points="2409.5461,-128.8893 2399.3838,-131.8857 2409.1966,-135.8806 2409.5461,-128.8893"/>
</g>
<!-- Node60&#45;&gt;Node31 -->
<g id="edge98" class="edge">
<title>Node60&#45;&gt;Node31</title>
<path fill="none" stroke="#191970" d="M1988.9714,-456.2999C1791.8236,-439.6463 1276.2231,-391.9469 1216.1893,-344 1154.7862,-294.9594 1147.1636,-191.1529 1146.8039,-147.5023"/>
<polygon fill="#191970" stroke="#191970" points="1150.3046,-147.3386 1146.8483,-137.3234 1143.3047,-147.308 1150.3046,-147.3386"/>
</g>
<!-- Node60&#45;&gt;Node43 -->
<g id="edge99" class="edge">
<title>Node60&#45;&gt;Node43</title>
<path fill="none" stroke="#191970" d="M2141.2811,-452.809C2160.1777,-450.6477 2180.4003,-448.5426 2199.1893,-447 2281.1221,-440.2732 2869.893,-456.7585 2938.1893,-411 2978.1619,-384.2184 2954.5401,-350.8944 2984.1893,-313 3019.16,-268.3043 3073.9605,-229.6676 3105.5335,-209.4713"/>
<polygon fill="#191970" stroke="#191970" points="3107.5632,-212.3295 3114.1631,-204.0414 3103.8352,-206.4047 3107.5632,-212.3295"/>
</g>
<!-- Node60&#45;&gt;Node48 -->
<g id="edge93" class="edge">
<title>Node60&#45;&gt;Node48</title>
<path fill="none" stroke="#191970" d="M2047.9046,-447.1841C2038.643,-437.7871 2028.143,-424.9121 2023.1893,-411 2008.5761,-369.9594 2048.8768,-349.562 2025.1893,-313 2012.8115,-293.8946 1991.4944,-281.812 1970.5509,-274.1995"/>
<polygon fill="#191970" stroke="#191970" points="1971.5816,-270.8538 1960.9879,-271.0073 1969.3651,-277.4937 1971.5816,-270.8538"/>
</g>
<!-- Node60&#45;&gt;Node56 -->
<g id="edge100" class="edge">
<title>Node60&#45;&gt;Node56</title>
<path fill="none" stroke="#191970" d="M2114.3372,-447.4639C2147.0495,-437.456 2190.2124,-424.2509 2224.8403,-413.657"/>
<polygon fill="#191970" stroke="#191970" points="2226.2886,-416.8741 2234.8271,-410.6017 2224.2406,-410.1804 2226.2886,-416.8741"/>
</g>
<!-- Node61 -->
<g id="node62" class="node">
<title>Node61</title>
<polygon fill="none" stroke="#bfbfbf" points="2032.1893,-386 2032.1893,-405 2076.1893,-405 2076.1893,-386 2032.1893,-386"/>
<text text-anchor="middle" x="2054.1893" y="-393" font-family="Helvetica,sans-Serif" font-size="10.00" fill="#000000">cfloat</text>
</g>
<!-- Node60&#45;&gt;Node61 -->
<g id="edge96" class="edge">
<title>Node60&#45;&gt;Node61</title>
<path fill="none" stroke="#191970" d="M2062.6933,-447.2967C2061.1292,-437.7699 2059.0975,-425.3954 2057.4123,-415.1306"/>
<polygon fill="#191970" stroke="#191970" points="2060.832,-414.3558 2055.7581,-405.055 2053.9245,-415.4899 2060.832,-414.3558"/>
</g>
<!-- Node62 -->
<g id="node63" class="node">
<title>Node62</title>
<g id="a_node63"><a xlink:href="../../d8/d77/Primitive2D_8h.html" target="_top" xlink:title="Declarations of 2D primitives: straight line (XY interval) and circle. ">
<polygon fill="none" stroke="#000000" points="1842.6893,-386 1842.6893,-405 1975.6893,-405 1975.6893,-386 1842.6893,-386"/>
<text text-anchor="middle" x="1909.1893" y="-393" font-family="Helvetica,sans-Serif" font-size="10.00" fill="#000000">MathUtils/Primitive2D.h</text>
</a>
</g>
</g>
<!-- Node60&#45;&gt;Node62 -->
<g id="edge104" class="edge">
<title>Node60&#45;&gt;Node62</title>
<path fill="none" stroke="#191970" d="M2030.1799,-447.4639C2003.4156,-435.969 1966.8304,-420.2561 1940.917,-409.1266"/>
<polygon fill="#191970" stroke="#191970" points="1942.1203,-405.8343 1931.5507,-405.1039 1939.3579,-412.2662 1942.1203,-405.8343"/>
</g>
<!-- Node62&#45;&gt;Node48 -->
<g id="edge105" class="edge">
<title>Node62&#45;&gt;Node48</title>
<path fill="none" stroke="#191970" d="M1948.9196,-385.9314C1970.7838,-378.4166 1996.0735,-365.5076 2009.1893,-344 2016.3627,-332.2369 2016.3386,-324.7778 2009.1893,-313 1998.0522,-294.6525 1978.0145,-282.5403 1958.8652,-274.7026"/>
<polygon fill="#191970" stroke="#191970" points="1959.8745,-271.3426 1949.2827,-271.0867 1957.4031,-277.8919 1959.8745,-271.3426"/>
</g>
<!-- Node63&#45;&gt;Node48 -->
<g id="edge107" class="edge">
<title>Node63&#45;&gt;Node48</title>
<path fill="none" stroke="#191970" d="M1897.3385,-318.9005C1899.5439,-309.0495 1903.0375,-293.4451 1905.8256,-280.9912"/>
<polygon fill="#191970" stroke="#191970" points="1909.2748,-281.6048 1908.0442,-271.0817 1902.4439,-280.0754 1909.2748,-281.6048"/>
</g>
<!-- Node64&#45;&gt;Node63 -->
<g id="edge109" class="edge">
<title>Node64&#45;&gt;Node63</title>
<path fill="none" stroke="#191970" d="M2990.636,-390.4366C2778.653,-378.4511 2246.3044,-348.3521 2010.5898,-335.0248"/>
<polygon fill="#191970" stroke="#191970" points="2010.4577,-331.5118 2000.276,-334.4416 2010.0624,-338.5006 2010.4577,-331.5118"/>
</g>
<!-- Node65 -->
<g id="node66" class="node">
<title>Node65</title>
<g id="a_node66"><a xlink:href="../../d9/d80/InteractionRecord_8h.html" target="_top" xlink:title="CommonDataFormat/Interaction\lRecord.h">
<polygon fill="none" stroke="#000000" points="2993.1893,-313.5 2993.1893,-343.5 3167.1893,-343.5 3167.1893,-313.5 2993.1893,-313.5"/>
<text text-anchor="start" x="3001.1893" y="-331.5" font-family="Helvetica,sans-Serif" font-size="10.00" fill="#000000">CommonDataFormat/Interaction</text>
<text text-anchor="middle" x="3080.1893" y="-320.5" font-family="Helvetica,sans-Serif" font-size="10.00" fill="#000000">Record.h</text>
</a>
</g>
</g>
<!-- Node64&#45;&gt;Node65 -->
<g id="edge110" class="edge">
<title>Node64&#45;&gt;Node65</title>
<path fill="none" stroke="#191970" d="M3080.1893,-385.9005C3080.1893,-377.5099 3080.1893,-364.9451 3080.1893,-353.7085"/>
<polygon fill="#191970" stroke="#191970" points="3083.6894,-353.5217 3080.1893,-343.5218 3076.6894,-353.5218 3083.6894,-353.5217"/>
</g>
<!-- Node67 -->
<g id="node68" class="node">
<title>Node67</title>
<polygon fill="none" stroke="#bfbfbf" points="3185.6893,-319 3185.6893,-338 3242.6893,-338 3242.6893,-319 3185.6893,-319"/>
<text text-anchor="middle" x="3214.1893" y="-326" font-family="Helvetica,sans-Serif" font-size="10.00" fill="#000000">gsl/span</text>
</g>
<!-- Node64&#45;&gt;Node67 -->
<g id="edge116" class="edge">
<title>Node64&#45;&gt;Node67</title>
<path fill="none" stroke="#191970" d="M3099.3883,-385.9005C3122.0755,-374.5569 3160.0206,-355.5844 3186.0328,-342.5783"/>
<polygon fill="#191970" stroke="#191970" points="3187.647,-345.6843 3195.026,-338.0817 3184.5165,-339.4234 3187.647,-345.6843"/>
</g>
<!-- Node65&#45;&gt;Node19 -->
<g id="edge114" class="edge">
<title>Node65&#45;&gt;Node19</title>
<path fill="none" stroke="#191970" d="M2992.9383,-325.2104C2904.5451,-321.9253 2763.872,-316.8275 2642.1893,-313 2569.5311,-310.7145 1399.2297,-309.4685 1334.1893,-277 1277.7033,-248.8019 1239.4356,-179.9071 1223.5162,-146.4081"/>
<polygon fill="#191970" stroke="#191970" points="1226.655,-144.8562 1219.2978,-137.2324 1220.2949,-147.7802 1226.655,-144.8562"/>
</g>
<!-- Node65&#45;&gt;Node22 -->
<g id="edge113" class="edge">
<title>Node65&#45;&gt;Node22</title>
<path fill="none" stroke="#191970" d="M3095.6912,-313.2317C3133.1762,-274.5419 3221.5431,-171.5102 3164.1893,-112 3142.5366,-89.5331 2148.6075,-70.2123 1951.8331,-66.6038"/>
<polygon fill="#191970" stroke="#191970" points="1951.8546,-63.1037 1941.7924,-66.4206 1951.7269,-70.1025 1951.8546,-63.1037"/>
</g>
<!-- Node65&#45;&gt;Node43 -->
<g id="edge112" class="edge">
<title>Node65&#45;&gt;Node43</title>
<path fill="none" stroke="#191970" d="M3085.8278,-313.389C3094.9817,-288.8564 3113.0592,-240.4088 3123.0805,-213.5517"/>
<polygon fill="#191970" stroke="#191970" points="3126.3889,-214.6968 3126.6057,-204.1042 3119.8306,-212.2496 3126.3889,-214.6968"/>
</g>
<!-- Node65&#45;&gt;Node48 -->
<g id="edge111" class="edge">
<title>Node65&#45;&gt;Node48</title>
<path fill="none" stroke="#191970" d="M2992.8796,-324.0528C2827.0612,-315.5298 2455.1557,-296.0456 2142.1893,-277 2088.8089,-273.7515 2028.546,-269.7142 1982.8196,-266.5745"/>
<polygon fill="#191970" stroke="#191970" points="1982.9202,-263.0732 1972.7034,-265.8782 1982.4395,-270.0567 1982.9202,-263.0732"/>
</g>
<!-- Node66 -->
<g id="node67" class="node">
<title>Node66</title>
<g id="a_node67"><a xlink:href="../../d4/dc6/LHCConstants_8h.html" target="_top" xlink:title="Header to collect LHC related constants. ">
<polygon fill="none" stroke="#000000" points="3194.1893,-252 3194.1893,-271 3384.1893,-271 3384.1893,-252 3194.1893,-252"/>
<text text-anchor="middle" x="3289.1893" y="-259" font-family="Helvetica,sans-Serif" font-size="10.00" fill="#000000">CommonConstants/LHCConstants.h</text>
</a>
</g>
</g>
<!-- Node65&#45;&gt;Node66 -->
<g id="edge115" class="edge">
<title>Node65&#45;&gt;Node66</title>
<path fill="none" stroke="#191970" d="M3127.093,-313.4639C3164.0077,-301.63 3214.867,-285.3258 3249.7155,-274.1543"/>
<polygon fill="#191970" stroke="#191970" points="3251.0843,-277.391 3259.5385,-271.0053 3248.9474,-270.7251 3251.0843,-277.391"/>
</g>
<!-- Node68&#45;&gt;Node6 -->
<g id="edge122" class="edge">
<title>Node68&#45;&gt;Node6</title>
<path fill="none" stroke="#191970" d="M2448.6817,-380.4339C2440.8453,-361.3214 2424.551,-328.9352 2399.1893,-313 2301.5294,-251.6383 2255.1211,-300.4336 2142.1893,-277 2091.6173,-266.5062 2080.9075,-255.7632 2030.1893,-246 1887.4815,-218.5289 1837.6854,-269.7075 1705.1893,-210 1688.1337,-202.3141 1651.7119,-166.4113 1630.481,-144.5795"/>
<polygon fill="#191970" stroke="#191970" points="1632.8727,-142.0175 1623.4105,-137.2512 1627.8351,-146.8779 1632.8727,-142.0175"/>
</g>
<!-- Node68&#45;&gt;Node37 -->
<g id="edge118" class="edge">
<title>Node68&#45;&gt;Node37</title>
<path fill="none" stroke="#191970" d="M2530.2607,-387.3098C2597.6311,-377.1075 2679.8877,-355.5543 2642.1893,-313 2619.6666,-287.5761 2412.1967,-272.1642 2296.0513,-265.456"/>
<polygon fill="#191970" stroke="#191970" points="2295.9749,-261.9461 2285.7922,-264.8724 2295.5773,-268.9348 2295.9749,-261.9461"/>
</g>
<!-- Node68&#45;&gt;Node43 -->
<g id="edge125" class="edge">
<title>Node68&#45;&gt;Node43</title>
<path fill="none" stroke="#191970" d="M2519.9338,-380.3982C2560.5537,-370.738 2613.6356,-357.519 2660.1893,-344 2751.0242,-317.622 2772.8016,-307.929 2862.1893,-277 2900.5855,-263.7146 2909.2739,-257.6772 2948.1893,-246 3013.4426,-226.4197 3032.9184,-232.597 3097.1893,-210 3098.8315,-209.4226 3100.5016,-208.7905 3102.1747,-208.1219"/>
<polygon fill="#191970" stroke="#191970" points="3103.8374,-211.2158 3111.6169,-204.0235 3101.0501,-204.7946 3103.8374,-211.2158"/>
</g>
<!-- Node68&#45;&gt;Node57 -->
<g id="edge123" class="edge">
<title>Node68&#45;&gt;Node57</title>
<path fill="none" stroke="#191970" d="M2422.3218,-380.4639C2398.174,-369.0702 2365.2436,-353.5327 2341.6954,-342.4219"/>
<polygon fill="#191970" stroke="#191970" points="2343.0813,-339.2058 2332.5439,-338.1039 2340.0942,-345.5365 2343.0813,-339.2058"/>
</g>
<!-- Node68&#45;&gt;Node58 -->
<g id="edge124" class="edge">
<title>Node68&#45;&gt;Node58</title>
<path fill="none" stroke="#191970" d="M2436.0361,-380.2967C2423.3297,-369.6551 2406.3806,-355.4602 2393.4391,-344.6217"/>
<polygon fill="#191970" stroke="#191970" points="2395.512,-341.7924 2385.5983,-338.055 2391.0175,-347.159 2395.512,-341.7924"/>
</g>
<!-- Node69 -->
<g id="node70" class="node">
<title>Node69</title>
<g id="a_node70"><a xlink:href="../../df/d5d/common_2include_2CommonDataFormat_2TimeStamp_8h.html" target="_top" xlink:title="CommonDataFormat/TimeStamp.h">
<polygon fill="none" stroke="#000000" points="2445.6893,-319 2445.6893,-338 2632.6893,-338 2632.6893,-319 2445.6893,-319"/>
<text text-anchor="middle" x="2539.1893" y="-326" font-family="Helvetica,sans-Serif" font-size="10.00" fill="#000000">CommonDataFormat/TimeStamp.h</text>
</a>
</g>
</g>
<!-- Node68&#45;&gt;Node69 -->
<g id="edge119" class="edge">
<title>Node68&#45;&gt;Node69</title>
<path fill="none" stroke="#191970" d="M2473.4772,-380.2967C2487.1063,-369.5537 2505.3295,-355.1895 2519.1282,-344.3129"/>
<polygon fill="#191970" stroke="#191970" points="2521.3805,-346.9942 2527.0674,-338.055 2517.0471,-341.4967 2521.3805,-346.9942"/>
</g>
<!-- Node69&#45;&gt;Node23 -->
<g id="edge121" class="edge">
<title>Node69&#45;&gt;Node23</title>
<path fill="none" stroke="#191970" d="M2583.8585,-318.9764C2665.5543,-300.5546 2833.7502,-257.6354 2867.1893,-210 2875.1054,-198.7233 2876.2007,-189.4222 2867.1893,-179 2833.4793,-140.0121 2459.4356,-117.4992 2408.1893,-112 2176.9658,-87.1873 2117.9249,-95.4586 1886.1893,-76 1874.1863,-74.9921 1861.3919,-73.8095 1849.0845,-72.6172"/>
<polygon fill="#191970" stroke="#191970" points="1849.1829,-69.1102 1838.889,-71.6171 1848.4995,-76.0767 1849.1829,-69.1102"/>
</g>
<!-- Node69&#45;&gt;Node48 -->
<g id="edge120" class="edge">
<title>Node69&#45;&gt;Node48</title>
<path fill="none" stroke="#191970" d="M2453.6847,-318.9601C2435.6874,-316.9726 2416.816,-314.9039 2399.1893,-313 2251.3817,-297.0346 2078.3716,-278.9575 1982.8536,-269.0305"/>
<polygon fill="#191970" stroke="#191970" points="1983.0342,-265.5305 1972.726,-267.9783 1982.3107,-272.493 1983.0342,-265.5305"/>
</g>
</g>
</svg>
