<?xml version="1.0" encoding="UTF-8" standalone="no"?>
<!DOCTYPE svg PUBLIC "-//W3C//DTD SVG 1.1//EN"
 "http://www.w3.org/Graphics/SVG/1.1/DTD/svg11.dtd">
<!-- Generated by graphviz version 2.40.1 (20161225.0304)
 -->
<!-- Title: /home/travis/build/AliceO2Group/AliceO2/Utilities/rANS/include/rANS/SymbolStatistics.h Pages: 1 -->
<svg width="702pt" height="173pt"
 viewBox="0.00 0.00 702.00 173.00" xmlns="http://www.w3.org/2000/svg" xmlns:xlink="http://www.w3.org/1999/xlink">
<g id="graph0" class="graph" transform="scale(1 1) rotate(0) translate(4 169)">
<title>/home/travis/build/AliceO2Group/AliceO2/Utilities/rANS/include/rANS/SymbolStatistics.h</title>
<!-- Node0 -->
<g id="node1" class="node">
<title>Node0</title>
<polygon fill="#bfbfbf" stroke="#000000" points="259.5,-112.5 259.5,-164.5 396.5,-164.5 396.5,-112.5 259.5,-112.5"/>
<text text-anchor="start" x="267.5" y="-152.5" font-family="Helvetica,sans-Serif" font-size="10.00" fill="#000000">/home/travis/build</text>
<text text-anchor="start" x="267.5" y="-141.5" font-family="Helvetica,sans-Serif" font-size="10.00" fill="#000000">/AliceO2Group/AliceO2</text>
<text text-anchor="start" x="267.5" y="-130.5" font-family="Helvetica,sans-Serif" font-size="10.00" fill="#000000">/Utilities/rANS/include</text>
<text text-anchor="middle" x="328" y="-119.5" font-family="Helvetica,sans-Serif" font-size="10.00" fill="#000000">/rANS/SymbolStatistics.h</text>
</g>
<!-- Node1 -->
<g id="node2" class="node">
<title>Node1</title>
<polygon fill="none" stroke="#bfbfbf" points="0,-56.5 0,-75.5 64,-75.5 64,-56.5 0,-56.5"/>
<text text-anchor="middle" x="32" y="-63.5" font-family="Helvetica,sans-Serif" font-size="10.00" fill="#000000">algorithm</text>
</g>
<!-- Node0&#45;&gt;Node1 -->
<g id="edge1" class="edge">
<title>Node0&#45;&gt;Node1</title>
<path fill="none" stroke="#191970" d="M259.3477,-121.6848C202.1077,-107.6649 122.3858,-88.1384 74.1438,-76.3224"/>
<polygon fill="#191970" stroke="#191970" points="74.8923,-72.9023 64.3468,-73.9228 73.227,-79.7014 74.8923,-72.9023"/>
</g>
<!-- Node2 -->
<g id="node3" class="node">
<title>Node2</title>
<polygon fill="none" stroke="#bfbfbf" points="82,-56.5 82,-75.5 134,-75.5 134,-56.5 82,-56.5"/>
<text text-anchor="middle" x="108" y="-63.5" font-family="Helvetica,sans-Serif" font-size="10.00" fill="#000000">cassert</text>
</g>
<!-- Node0&#45;&gt;Node2 -->
<g id="edge2" class="edge">
<title>Node0&#45;&gt;Node2</title>
<path fill="none" stroke="#191970" d="M259.2956,-115.8588C220.9574,-103.2246 174.7901,-88.0104 143.6172,-77.7375"/>
<polygon fill="#191970" stroke="#191970" points="144.645,-74.3911 134.052,-74.5853 142.4541,-81.0394 144.645,-74.3911"/>
</g>
<!-- Node3 -->
<g id="node4" class="node">
<title>Node3</title>
<polygon fill="none" stroke="#bfbfbf" points="152,-56.5 152,-75.5 212,-75.5 212,-56.5 152,-56.5"/>
<text text-anchor="middle" x="182" y="-63.5" font-family="Helvetica,sans-Serif" font-size="10.00" fill="#000000">iostream</text>
</g>
<!-- Node0&#45;&gt;Node3 -->
<g id="edge3" class="edge">
<title>Node0&#45;&gt;Node3</title>
<path fill="none" stroke="#191970" d="M275.2906,-112.3258C253.3112,-101.4114 228.6659,-89.1731 210.2283,-80.0175"/>
<polygon fill="#191970" stroke="#191970" points="211.7127,-76.8469 201.1995,-75.534 208.5994,-83.1164 211.7127,-76.8469"/>
</g>
<!-- Node4 -->
<g id="node5" class="node">
<title>Node4</title>
<polygon fill="none" stroke="#bfbfbf" points="230,-56.5 230,-75.5 286,-75.5 286,-56.5 230,-56.5"/>
<text text-anchor="middle" x="258" y="-63.5" font-family="Helvetica,sans-Serif" font-size="10.00" fill="#000000">numeric</text>
</g>
<!-- Node0&#45;&gt;Node4 -->
<g id="edge4" class="edge">
<title>Node0&#45;&gt;Node4</title>
<path fill="none" stroke="#191970" d="M302.7284,-112.3258C293.2538,-102.5128 282.746,-91.6298 274.297,-82.879"/>
<polygon fill="#191970" stroke="#191970" points="276.6691,-80.297 267.2052,-75.534 271.6333,-85.1591 276.6691,-80.297"/>
</g>
<!-- Node5 -->
<g id="node6" class="node">
<title>Node5</title>
<polygon fill="none" stroke="#bfbfbf" points="304.5,-56.5 304.5,-75.5 351.5,-75.5 351.5,-56.5 304.5,-56.5"/>
<text text-anchor="middle" x="328" y="-63.5" font-family="Helvetica,sans-Serif" font-size="10.00" fill="#000000">vector</text>
</g>
<!-- Node0&#45;&gt;Node5 -->
<g id="edge5" class="edge">
<title>Node0&#45;&gt;Node5</title>
<path fill="none" stroke="#191970" d="M328,-112.3258C328,-103.5142 328,-93.8397 328,-85.621"/>
<polygon fill="#191970" stroke="#191970" points="331.5001,-85.534 328,-75.534 324.5001,-85.534 331.5001,-85.534"/>
</g>
<!-- Node6 -->
<g id="node7" class="node">
<title>Node6</title>
<polygon fill="none" stroke="#bfbfbf" points="449.5,-.5 449.5,-19.5 496.5,-19.5 496.5,-.5 449.5,-.5"/>
<text text-anchor="middle" x="473" y="-7.5" font-family="Helvetica,sans-Serif" font-size="10.00" fill="#000000">cmath</text>
</g>
<!-- Node0&#45;&gt;Node6 -->
<g id="edge6" class="edge">
<title>Node0&#45;&gt;Node6</title>
<path fill="none" stroke="#191970" d="M347.3089,-112.1311C360.6618,-94.9551 379.4799,-72.7162 399,-56 413.1379,-43.893 430.7809,-32.7973 445.2933,-24.5377"/>
<polygon fill="#191970" stroke="#191970" points="447.262,-27.4482 454.3097,-19.5375 443.867,-21.3266 447.262,-27.4482"/>
</g>
<!-- Node7 -->
<g id="node8" class="node">
<title>Node7</title>
<polygon fill="none" stroke="#bfbfbf" points="408.5,-56.5 408.5,-75.5 461.5,-75.5 461.5,-56.5 408.5,-56.5"/>
<text text-anchor="middle" x="435" y="-63.5" font-family="Helvetica,sans-Serif" font-size="10.00" fill="#000000">iterator</text>
</g>
<!-- Node0&#45;&gt;Node7 -->
<g id="edge7" class="edge">
<title>Node0&#45;&gt;Node7</title>
<path fill="none" stroke="#191970" d="M366.6295,-112.3258C381.9988,-101.912 399.1467,-90.2931 412.4245,-81.2965"/>
<polygon fill="#191970" stroke="#191970" points="414.6138,-84.0409 420.9291,-75.534 410.6872,-78.2459 414.6138,-84.0409"/>
</g>
<!-- Node8 -->
<g id="node9" class="node">
<title>Node8</title>
<polygon fill="none" stroke="#bfbfbf" points="480,-56.5 480,-75.5 588,-75.5 588,-56.5 480,-56.5"/>
<text text-anchor="middle" x="534" y="-63.5" font-family="Helvetica,sans-Serif" font-size="10.00" fill="#000000">fairlogger/Logger.h</text>
</g>
<!-- Node0&#45;&gt;Node8 -->
<g id="edge8" class="edge">
<title>Node0&#45;&gt;Node8</title>
<path fill="none" stroke="#191970" d="M396.595,-114.3585C430.1605,-102.5455 469.2332,-88.7941 497.1131,-78.982"/>
<polygon fill="#191970" stroke="#191970" points="498.5764,-82.1775 506.8473,-75.5562 496.2525,-75.5745 498.5764,-82.1775"/>
</g>
<!-- Node9 -->
<g id="node10" class="node">
<title>Node9</title>
<g id="a_node10"><a xlink:href="../../d4/da1/helper_8h.html" target="_top" xlink:title="various helper functions ">
<polygon fill="none" stroke="#000000" points="606,-56.5 606,-75.5 662,-75.5 662,-56.5 606,-56.5"/>
<text text-anchor="middle" x="634" y="-63.5" font-family="Helvetica,sans-Serif" font-size="10.00" fill="#000000">helper.h</text>
</a>
</g>
</g>
<!-- Node0&#45;&gt;Node9 -->
<g id="edge9" class="edge">
<title>Node0&#45;&gt;Node9</title>
<path fill="none" stroke="#191970" d="M396.7117,-123.2453C448.8228,-111.5124 522.4542,-94.586 595.8612,-76.2286"/>
<polygon fill="#191970" stroke="#191970" points="596.8983,-79.5769 605.7454,-73.7477 595.1941,-72.7875 596.8983,-79.5769"/>
</g>
<!-- Node9&#45;&gt;Node6 -->
<g id="edge11" class="edge">
<title>Node9&#45;&gt;Node6</title>
<path fill="none" stroke="#191970" d="M606.3231,-56.3733C578.5363,-46.7083 535.7157,-31.8142 506.1362,-21.5256"/>
<polygon fill="#191970" stroke="#191970" points="507.2482,-18.2068 496.6534,-18.2273 504.9485,-24.8183 507.2482,-18.2068"/>
</g>
<!-- Node10 -->
<g id="node11" class="node">
<title>Node10</title>
<polygon fill="none" stroke="#bfbfbf" points="572.5,-.5 572.5,-19.5 625.5,-19.5 625.5,-.5 572.5,-.5"/>
<text text-anchor="middle" x="599" y="-7.5" font-family="Helvetica,sans-Serif" font-size="10.00" fill="#000000">cstddef</text>
</g>
<!-- Node9&#45;&gt;Node10 -->
<g id="edge10" class="edge">
<title>Node9&#45;&gt;Node10</title>
<path fill="none" stroke="#191970" d="M627.9035,-56.2455C623.0855,-48.5367 616.2249,-37.5598 610.3968,-28.2348"/>
<polygon fill="#191970" stroke="#191970" points="613.2947,-26.2677 605.0267,-19.6427 607.3587,-29.9777 613.2947,-26.2677"/>
</g>
<!-- Node11 -->
<g id="node12" class="node">
<title>Node11</title>
<polygon fill="none" stroke="#bfbfbf" points="644,-.5 644,-19.5 694,-19.5 694,-.5 644,-.5"/>
<text text-anchor="middle" x="669" y="-7.5" font-family="Helvetica,sans-Serif" font-size="10.00" fill="#000000">chrono</text>
</g>
<!-- Node9&#45;&gt;Node11 -->
<g id="edge12" class="edge">
<title>Node9&#45;&gt;Node11</title>
<path fill="none" stroke="#191970" d="M640.0965,-56.2455C644.9145,-48.5367 651.7751,-37.5598 657.6032,-28.2348"/>
<polygon fill="#191970" stroke="#191970" points="660.6413,-29.9777 662.9733,-19.6427 654.7053,-26.2677 660.6413,-29.9777"/>
</g>
</g>
</svg>
