<?xml version="1.0" encoding="UTF-8" standalone="no"?>
<!DOCTYPE svg PUBLIC "-//W3C//DTD SVG 1.1//EN"
 "http://www.w3.org/Graphics/SVG/1.1/DTD/svg11.dtd">
<!-- Generated by graphviz version 2.40.1 (20161225.0304)
 -->
<!-- Title: /home/travis/build/AliceO2Group/AliceO2/Detectors/ITSMFT/ITS/reconstruction/include/ITSReconstruction/FastMultEstConfig.h Pages: 1 -->
<svg width="1935pt" height="441pt"
 viewBox="0.00 0.00 1934.50 441.00" xmlns="http://www.w3.org/2000/svg" xmlns:xlink="http://www.w3.org/1999/xlink">
<g id="graph0" class="graph" transform="scale(1 1) rotate(0) translate(4 437)">
<title>/home/travis/build/AliceO2Group/AliceO2/Detectors/ITSMFT/ITS/reconstruction/include/ITSReconstruction/FastMultEstConfig.h</title>
<!-- Node0 -->
<g id="node1" class="node">
<title>Node0</title>
<polygon fill="#bfbfbf" stroke="#000000" points="341,-369.5 341,-432.5 546,-432.5 546,-369.5 341,-369.5"/>
<text text-anchor="start" x="349" y="-420.5" font-family="Helvetica,sans-Serif" font-size="10.00" fill="#000000">/home/travis/build</text>
<text text-anchor="start" x="349" y="-409.5" font-family="Helvetica,sans-Serif" font-size="10.00" fill="#000000">/AliceO2Group/AliceO2</text>
<text text-anchor="start" x="349" y="-398.5" font-family="Helvetica,sans-Serif" font-size="10.00" fill="#000000">/Detectors/ITSMFT/ITS</text>
<text text-anchor="start" x="349" y="-387.5" font-family="Helvetica,sans-Serif" font-size="10.00" fill="#000000">/reconstruction/include</text>
<text text-anchor="middle" x="443.5" y="-376.5" font-family="Helvetica,sans-Serif" font-size="10.00" fill="#000000">/ITSReconstruction/FastMultEstConfig.h</text>
</g>
<!-- Node1 -->
<g id="node2" class="node">
<title>Node1</title>
<g id="a_node2"><a xlink:href="../../db/d2c/ConfigurableParam_8h.html" target="_top" xlink:title="CommonUtils/Configurable\lParam.h">
<polygon fill="none" stroke="#000000" points="215.5,-235.5 215.5,-265.5 363.5,-265.5 363.5,-235.5 215.5,-235.5"/>
<text text-anchor="start" x="223.5" y="-253.5" font-family="Helvetica,sans-Serif" font-size="10.00" fill="#000000">CommonUtils/Configurable</text>
<text text-anchor="middle" x="289.5" y="-242.5" font-family="Helvetica,sans-Serif" font-size="10.00" fill="#000000">Param.h</text>
</a>
</g>
</g>
<!-- Node0&#45;&gt;Node1 -->
<g id="edge1" class="edge">
<title>Node0&#45;&gt;Node1</title>
<path fill="none" stroke="#191970" d="M402.1831,-369.4961C388.4789,-358.4407 373.4309,-345.6212 360.5,-333 341.2087,-314.1706 321.3701,-290.708 307.5846,-273.623"/>
<polygon fill="#191970" stroke="#191970" points="310.3084,-271.425 301.3324,-265.7963 304.8392,-275.794 310.3084,-271.425"/>
</g>
<!-- Node8 -->
<g id="node9" class="node">
<title>Node8</title>
<g id="a_node9"><a xlink:href="../../da/d6b/ConfigurableParamHelper_8h.html" target="_top" xlink:title="CommonUtils/Configurable\lParamHelper.h">
<polygon fill="none" stroke="#000000" points="369.5,-302.5 369.5,-332.5 517.5,-332.5 517.5,-302.5 369.5,-302.5"/>
<text text-anchor="start" x="377.5" y="-320.5" font-family="Helvetica,sans-Serif" font-size="10.00" fill="#000000">CommonUtils/Configurable</text>
<text text-anchor="middle" x="443.5" y="-309.5" font-family="Helvetica,sans-Serif" font-size="10.00" fill="#000000">ParamHelper.h</text>
</a>
</g>
</g>
<!-- Node0&#45;&gt;Node8 -->
<g id="edge8" class="edge">
<title>Node0&#45;&gt;Node8</title>
<path fill="none" stroke="#191970" d="M443.5,-369.4322C443.5,-360.6979 443.5,-351.3303 443.5,-342.989"/>
<polygon fill="#191970" stroke="#191970" points="447.0001,-342.7544 443.5,-332.7545 440.0001,-342.7545 447.0001,-342.7544"/>
</g>
<!-- Node12 -->
<g id="node13" class="node">
<title>Node12</title>
<g id="a_node13"><a xlink:href="../../d3/d57/ChipMappingITS_8h.html" target="_top" xlink:title="ITSMFTReconstruction\l/ChipMappingITS.h">
<polygon fill="none" stroke="#000000" points="765,-302.5 765,-332.5 888,-332.5 888,-302.5 765,-302.5"/>
<text text-anchor="start" x="773" y="-320.5" font-family="Helvetica,sans-Serif" font-size="10.00" fill="#000000">ITSMFTReconstruction</text>
<text text-anchor="middle" x="826.5" y="-309.5" font-family="Helvetica,sans-Serif" font-size="10.00" fill="#000000">/ChipMappingITS.h</text>
</a>
</g>
</g>
<!-- Node0&#45;&gt;Node12 -->
<g id="edge14" class="edge">
<title>Node0&#45;&gt;Node12</title>
<path fill="none" stroke="#191970" d="M546.137,-378.6235C612.1178,-364.2387 696.1827,-345.9112 754.979,-333.0927"/>
<polygon fill="#191970" stroke="#191970" points="755.8963,-336.475 764.9212,-330.9251 754.4052,-329.6357 755.8963,-336.475"/>
</g>
<!-- Node2 -->
<g id="node3" class="node">
<title>Node2</title>
<polygon fill="none" stroke="#bfbfbf" points="0,-174 0,-193 47,-193 47,-174 0,-174"/>
<text text-anchor="middle" x="23.5" y="-181" font-family="Helvetica,sans-Serif" font-size="10.00" fill="#000000">vector</text>
</g>
<!-- Node1&#45;&gt;Node2 -->
<g id="edge2" class="edge">
<title>Node1&#45;&gt;Node2</title>
<path fill="none" stroke="#191970" d="M215.4189,-238.4655C169.0507,-229.8741 108.4597,-216.7002 56.5,-199 54.8523,-198.4387 53.1778,-197.8192 51.5013,-197.1603"/>
<polygon fill="#191970" stroke="#191970" points="52.6184,-193.8307 42.0495,-193.0897 49.8495,-200.2598 52.6184,-193.8307"/>
</g>
<!-- Node3 -->
<g id="node4" class="node">
<title>Node3</title>
<polygon fill="none" stroke="#bfbfbf" points="65.5,-174 65.5,-193 103.5,-193 103.5,-174 65.5,-174"/>
<text text-anchor="middle" x="84.5" y="-181" font-family="Helvetica,sans-Serif" font-size="10.00" fill="#000000">map</text>
</g>
<!-- Node1&#45;&gt;Node3 -->
<g id="edge3" class="edge">
<title>Node1&#45;&gt;Node3</title>
<path fill="none" stroke="#191970" d="M225.2452,-235.4889C191.1229,-226.6041 148.8427,-214.1245 112.5,-199 111.4997,-198.5837 110.4893,-198.1409 109.4762,-197.678"/>
<polygon fill="#191970" stroke="#191970" points="110.9878,-194.5205 100.4826,-193.1449 107.8371,-200.7714 110.9878,-194.5205"/>
</g>
<!-- Node4 -->
<g id="node5" class="node">
<title>Node4</title>
<polygon fill="none" stroke="#bfbfbf" points="122,-174 122,-193 215,-193 215,-174 122,-174"/>
<text text-anchor="middle" x="168.5" y="-181" font-family="Helvetica,sans-Serif" font-size="10.00" fill="#000000">unordered_map</text>
</g>
<!-- Node1&#45;&gt;Node4 -->
<g id="edge4" class="edge">
<title>Node1&#45;&gt;Node4</title>
<path fill="none" stroke="#191970" d="M262.3452,-235.4639C242.1344,-224.2728 214.7036,-209.0838 194.7201,-198.0186"/>
<polygon fill="#191970" stroke="#191970" points="196.2883,-194.8862 185.8444,-193.1039 192.8973,-201.0101 196.2883,-194.8862"/>
</g>
<!-- Node5 -->
<g id="node6" class="node">
<title>Node5</title>
<polygon fill="none" stroke="#bfbfbf" points="233,-168.5 233,-198.5 346,-198.5 346,-168.5 233,-168.5"/>
<text text-anchor="start" x="241" y="-186.5" font-family="Helvetica,sans-Serif" font-size="10.00" fill="#000000">boost/property_tree</text>
<text text-anchor="middle" x="289.5" y="-175.5" font-family="Helvetica,sans-Serif" font-size="10.00" fill="#000000">/ptree.hpp</text>
</g>
<!-- Node1&#45;&gt;Node5 -->
<g id="edge5" class="edge">
<title>Node1&#45;&gt;Node5</title>
<path fill="none" stroke="#191970" d="M289.5,-235.2967C289.5,-227.5013 289.5,-217.7991 289.5,-208.9064"/>
<polygon fill="#191970" stroke="#191970" points="293.0001,-208.6431 289.5,-198.6432 286.0001,-208.6432 293.0001,-208.6431"/>
</g>
<!-- Node6 -->
<g id="node7" class="node">
<title>Node6</title>
<polygon fill="none" stroke="#bfbfbf" points="443,-174 443,-193 500,-193 500,-174 443,-174"/>
<text text-anchor="middle" x="471.5" y="-181" font-family="Helvetica,sans-Serif" font-size="10.00" fill="#000000">typeinfo</text>
</g>
<!-- Node1&#45;&gt;Node6 -->
<g id="edge6" class="edge">
<title>Node1&#45;&gt;Node6</title>
<path fill="none" stroke="#191970" d="M333.1627,-235.4436C361.8082,-225.4283 400.0226,-211.807 433.5,-199 435.3467,-198.2936 437.2395,-197.5581 439.1467,-196.8083"/>
<polygon fill="#191970" stroke="#191970" points="440.6702,-199.9687 448.6567,-193.0068 438.072,-193.4687 440.6702,-199.9687"/>
</g>
<!-- Node7 -->
<g id="node8" class="node">
<title>Node7</title>
<polygon fill="none" stroke="#bfbfbf" points="364.5,-174 364.5,-193 424.5,-193 424.5,-174 364.5,-174"/>
<text text-anchor="middle" x="394.5" y="-181" font-family="Helvetica,sans-Serif" font-size="10.00" fill="#000000">iostream</text>
</g>
<!-- Node1&#45;&gt;Node7 -->
<g id="edge7" class="edge">
<title>Node1&#45;&gt;Node7</title>
<path fill="none" stroke="#191970" d="M313.064,-235.4639C330.2056,-224.526 353.3321,-209.769 370.5602,-198.7759"/>
<polygon fill="#191970" stroke="#191970" points="372.9018,-201.4336 379.4491,-193.1039 369.1364,-195.5326 372.9018,-201.4336"/>
</g>
<!-- Node8&#45;&gt;Node1 -->
<g id="edge9" class="edge">
<title>Node8&#45;&gt;Node1</title>
<path fill="none" stroke="#191970" d="M408.9394,-302.4639C386.6273,-292.7567 357.4013,-280.0415 333.4446,-269.6188"/>
<polygon fill="#191970" stroke="#191970" points="334.7774,-266.3818 324.2113,-265.6017 331.9848,-272.8006 334.7774,-266.3818"/>
</g>
<!-- Node8&#45;&gt;Node6 -->
<g id="edge12" class="edge">
<title>Node8&#45;&gt;Node6</title>
<path fill="none" stroke="#191970" d="M429.8905,-302.3884C416.5861,-285.684 399.7778,-258.0848 410.5,-235 417.5682,-219.7823 431.593,-207.4403 444.4141,-198.6574"/>
<polygon fill="#191970" stroke="#191970" points="446.4686,-201.4979 452.9977,-193.1539 442.6903,-195.6051 446.4686,-201.4979"/>
</g>
<!-- Node9 -->
<g id="node10" class="node">
<title>Node9</title>
<polygon fill="none" stroke="#bfbfbf" points="486,-241 486,-260 543,-260 543,-241 486,-241"/>
<text text-anchor="middle" x="514.5" y="-248" font-family="Helvetica,sans-Serif" font-size="10.00" fill="#000000">TClass.h</text>
</g>
<!-- Node8&#45;&gt;Node9 -->
<g id="edge10" class="edge">
<title>Node8&#45;&gt;Node9</title>
<path fill="none" stroke="#191970" d="M459.611,-302.2967C470.7805,-291.7564 485.644,-277.7303 497.0867,-266.9323"/>
<polygon fill="#191970" stroke="#191970" points="499.5037,-269.4638 504.3746,-260.055 494.6994,-264.3727 499.5037,-269.4638"/>
</g>
<!-- Node10 -->
<g id="node11" class="node">
<title>Node10</title>
<polygon fill="none" stroke="#bfbfbf" points="691,-174 691,-193 760,-193 760,-174 691,-174"/>
<text text-anchor="middle" x="725.5" y="-181" font-family="Helvetica,sans-Serif" font-size="10.00" fill="#000000">type_traits</text>
</g>
<!-- Node8&#45;&gt;Node10 -->
<g id="edge11" class="edge">
<title>Node8&#45;&gt;Node10</title>
<path fill="none" stroke="#191970" d="M517.5592,-309.9573C581.0741,-302.1188 666.3547,-287.8935 692.5,-266 711.3838,-250.1871 719.549,-222.0075 723.0201,-203.038"/>
<polygon fill="#191970" stroke="#191970" points="726.4878,-203.5158 724.567,-193.0965 719.571,-202.4395 726.4878,-203.5158"/>
</g>
<!-- Node11 -->
<g id="node12" class="node">
<title>Node11</title>
<polygon fill="none" stroke="#bfbfbf" points="419.5,-241 419.5,-260 467.5,-260 467.5,-241 419.5,-241"/>
<text text-anchor="middle" x="443.5" y="-248" font-family="Helvetica,sans-Serif" font-size="10.00" fill="#000000">TFile.h</text>
</g>
<!-- Node8&#45;&gt;Node11 -->
<g id="edge13" class="edge">
<title>Node8&#45;&gt;Node11</title>
<path fill="none" stroke="#191970" d="M443.5,-302.2967C443.5,-292.7699 443.5,-280.3954 443.5,-270.1306"/>
<polygon fill="#191970" stroke="#191970" points="447.0001,-270.0549 443.5,-260.055 440.0001,-270.055 447.0001,-270.0549"/>
</g>
<!-- Node13 -->
<g id="node14" class="node">
<title>Node13</title>
<polygon fill="none" stroke="#bfbfbf" points="614,-174 614,-193 673,-193 673,-174 614,-174"/>
<text text-anchor="middle" x="643.5" y="-181" font-family="Helvetica,sans-Serif" font-size="10.00" fill="#000000">Rtypes.h</text>
</g>
<!-- Node12&#45;&gt;Node13 -->
<g id="edge15" class="edge">
<title>Node12&#45;&gt;Node13</title>
<path fill="none" stroke="#191970" d="M805.8633,-302.389C770.8774,-276.7709 700.2772,-225.0746 664.8282,-199.1174"/>
<polygon fill="#191970" stroke="#191970" points="666.7522,-196.1882 656.6161,-193.1042 662.6166,-201.836 666.7522,-196.1882"/>
</g>
<!-- Node14 -->
<g id="node15" class="node">
<title>Node14</title>
<polygon fill="none" stroke="#bfbfbf" points="1835.5,-112.5 1835.5,-131.5 1877.5,-131.5 1877.5,-112.5 1835.5,-112.5"/>
<text text-anchor="middle" x="1856.5" y="-119.5" font-family="Helvetica,sans-Serif" font-size="10.00" fill="#000000">array</text>
</g>
<!-- Node12&#45;&gt;Node14 -->
<g id="edge16" class="edge">
<title>Node12&#45;&gt;Node14</title>
<path fill="none" stroke="#191970" d="M888.2955,-313.897C1069.8584,-302.646 1598.8555,-264.9216 1757.5,-199 1790.63,-185.2335 1822.1239,-157.2911 1840.3639,-139.1231"/>
<polygon fill="#191970" stroke="#191970" points="1843.2809,-141.1463 1847.7701,-131.5495 1838.2761,-136.2521 1843.2809,-141.1463"/>
</g>
<!-- Node15 -->
<g id="node16" class="node">
<title>Node15</title>
<polygon fill="none" stroke="#bfbfbf" points="893,-241 893,-260 942,-260 942,-241 893,-241"/>
<text text-anchor="middle" x="917.5" y="-248" font-family="Helvetica,sans-Serif" font-size="10.00" fill="#000000">cstdlib</text>
</g>
<!-- Node12&#45;&gt;Node15 -->
<g id="edge17" class="edge">
<title>Node12&#45;&gt;Node15</title>
<path fill="none" stroke="#191970" d="M847.1493,-302.2967C861.8781,-291.4524 881.6186,-276.9182 896.4396,-266.006"/>
<polygon fill="#191970" stroke="#191970" points="898.5447,-268.8025 904.5224,-260.055 894.3944,-263.1655 898.5447,-268.8025"/>
</g>
<!-- Node16 -->
<g id="node17" class="node">
<title>Node16</title>
<polygon fill="none" stroke="#bfbfbf" points="649.5,-112.5 649.5,-131.5 699.5,-131.5 699.5,-112.5 649.5,-112.5"/>
<text text-anchor="middle" x="674.5" y="-119.5" font-family="Helvetica,sans-Serif" font-size="10.00" fill="#000000">cstdint</text>
</g>
<!-- Node12&#45;&gt;Node16 -->
<g id="edge18" class="edge">
<title>Node12&#45;&gt;Node16</title>
<path fill="none" stroke="#191970" d="M824.3704,-302.4404C819.5038,-273.1226 805.0327,-207.7785 768.5,-168 759.7508,-158.4735 731.656,-145.3143 708.4415,-135.5103"/>
<polygon fill="#191970" stroke="#191970" points="709.7651,-132.2702 699.1874,-131.6673 707.0804,-138.7349 709.7651,-132.2702"/>
</g>
<!-- Node17 -->
<g id="node18" class="node">
<title>Node17</title>
<polygon fill="none" stroke="#bfbfbf" points="717.5,-112.5 717.5,-131.5 761.5,-131.5 761.5,-112.5 717.5,-112.5"/>
<text text-anchor="middle" x="739.5" y="-119.5" font-family="Helvetica,sans-Serif" font-size="10.00" fill="#000000">string</text>
</g>
<!-- Node12&#45;&gt;Node17 -->
<g id="edge19" class="edge">
<title>Node12&#45;&gt;Node17</title>
<path fill="none" stroke="#191970" d="M827.6935,-302.2101C829.1828,-273.6125 828.8655,-211.0374 802.5,-168 794.4731,-154.8975 781.1862,-144.3733 768.8785,-136.7158"/>
<polygon fill="#191970" stroke="#191970" points="770.5819,-133.6576 760.1788,-131.6507 767.0597,-139.707 770.5819,-133.6576"/>
</g>
<!-- Node18 -->
<g id="node19" class="node">
<title>Node18</title>
<g id="a_node19"><a xlink:href="../../dc/dcd/DataHeader_8h.html" target="_top" xlink:title="Headers/DataHeader.h">
<polygon fill="none" stroke="#000000" points="931,-174 931,-193 1058,-193 1058,-174 931,-174"/>
<text text-anchor="middle" x="994.5" y="-181" font-family="Helvetica,sans-Serif" font-size="10.00" fill="#000000">Headers/DataHeader.h</text>
</a>
</g>
</g>
<!-- Node12&#45;&gt;Node18 -->
<g id="edge20" class="edge">
<title>Node12&#45;&gt;Node18</title>
<path fill="none" stroke="#191970" d="M833.8144,-302.2814C843.1597,-284.1952 860.87,-254.0726 883.5,-235 903.8763,-217.8268 930.9342,-205.1184 953.2338,-196.6224"/>
<polygon fill="#191970" stroke="#191970" points="954.5964,-199.8508 962.7839,-193.1266 952.1902,-193.2774 954.5964,-199.8508"/>
</g>
<!-- Node27 -->
<g id="node28" class="node">
<title>Node27</title>
<g id="a_node28"><a xlink:href="../../dc/dd8/RUInfo_8h.html" target="_top" xlink:title="ITSMFTReconstruction\l/RUInfo.h">
<polygon fill="none" stroke="#000000" points="561,-235.5 561,-265.5 684,-265.5 684,-235.5 561,-235.5"/>
<text text-anchor="start" x="569" y="-253.5" font-family="Helvetica,sans-Serif" font-size="10.00" fill="#000000">ITSMFTReconstruction</text>
<text text-anchor="middle" x="622.5" y="-242.5" font-family="Helvetica,sans-Serif" font-size="10.00" fill="#000000">/RUInfo.h</text>
</a>
</g>
</g>
<!-- Node12&#45;&gt;Node27 -->
<g id="edge31" class="edge">
<title>Node12&#45;&gt;Node27</title>
<path fill="none" stroke="#191970" d="M780.7184,-302.4639C750.3774,-292.499 710.3851,-279.3642 678.1998,-268.7936"/>
<polygon fill="#191970" stroke="#191970" points="679.0741,-265.3968 668.4813,-265.6017 676.8898,-272.0473 679.0741,-265.3968"/>
</g>
<!-- Node28 -->
<g id="node29" class="node">
<title>Node28</title>
<g id="a_node29"><a xlink:href="../../d6/d31/DetID_8h.html" target="_top" xlink:title="DetectorsCommonDataFormats\l/DetID.h">
<polygon fill="none" stroke="#000000" points="960,-235.5 960,-265.5 1131,-265.5 1131,-235.5 960,-235.5"/>
<text text-anchor="start" x="968" y="-253.5" font-family="Helvetica,sans-Serif" font-size="10.00" fill="#000000">DetectorsCommonDataFormats</text>
<text text-anchor="middle" x="1045.5" y="-242.5" font-family="Helvetica,sans-Serif" font-size="10.00" fill="#000000">/DetID.h</text>
</a>
</g>
</g>
<!-- Node12&#45;&gt;Node28 -->
<g id="edge34" class="edge">
<title>Node12&#45;&gt;Node28</title>
<path fill="none" stroke="#191970" d="M875.6479,-302.4639C908.3602,-292.456 951.523,-279.2509 986.1509,-268.657"/>
<polygon fill="#191970" stroke="#191970" points="987.5992,-271.8741 996.1378,-265.6017 985.5513,-265.1804 987.5992,-271.8741"/>
</g>
<!-- Node18&#45;&gt;Node16 -->
<g id="edge21" class="edge">
<title>Node18&#45;&gt;Node16</title>
<path fill="none" stroke="#191970" d="M930.765,-174.0439C874.8107,-165.2833 791.0871,-151.0659 709.5951,-132.0717"/>
<polygon fill="#191970" stroke="#191970" points="710.2065,-128.62 699.6702,-129.7317 708.6001,-135.4332 710.2065,-128.62"/>
</g>
<!-- Node18&#45;&gt;Node17 -->
<g id="edge27" class="edge">
<title>Node18&#45;&gt;Node17</title>
<path fill="none" stroke="#191970" d="M951.5728,-173.9388C907.3288,-163.9593 836.4135,-147.6158 775.5,-132 774.2276,-131.6738 772.9312,-131.3367 771.6227,-130.9923"/>
<polygon fill="#191970" stroke="#191970" points="772.1139,-127.4998 761.5474,-128.2744 770.2907,-134.2582 772.1139,-127.4998"/>
</g>
<!-- Node19 -->
<g id="node20" class="node">
<title>Node19</title>
<polygon fill="none" stroke="#bfbfbf" points="817.5,-112.5 817.5,-131.5 875.5,-131.5 875.5,-112.5 817.5,-112.5"/>
<text text-anchor="middle" x="846.5" y="-119.5" font-family="Helvetica,sans-Serif" font-size="10.00" fill="#000000">memory</text>
</g>
<!-- Node18&#45;&gt;Node19 -->
<g id="edge22" class="edge">
<title>Node18&#45;&gt;Node19</title>
<path fill="none" stroke="#191970" d="M971.375,-173.8906C946.5033,-163.5554 906.7702,-147.0447 878.8156,-135.4284"/>
<polygon fill="#191970" stroke="#191970" points="880.0402,-132.1472 869.4626,-131.5419 877.354,-138.6113 880.0402,-132.1472"/>
</g>
<!-- Node20 -->
<g id="node21" class="node">
<title>Node20</title>
<polygon fill="none" stroke="#bfbfbf" points="1343.5,-112.5 1343.5,-131.5 1395.5,-131.5 1395.5,-112.5 1343.5,-112.5"/>
<text text-anchor="middle" x="1369.5" y="-119.5" font-family="Helvetica,sans-Serif" font-size="10.00" fill="#000000">cassert</text>
</g>
<!-- Node18&#45;&gt;Node20 -->
<g id="edge23" class="edge">
<title>Node18&#45;&gt;Node20</title>
<path fill="none" stroke="#191970" d="M1040.1984,-173.9492C1050.7825,-171.8678 1062.0163,-169.7631 1072.5,-168 1187.9767,-148.5799 1218.83,-155.7234 1333.5,-132 1333.5993,-131.9795 1333.6986,-131.9588 1333.7981,-131.938"/>
<polygon fill="#191970" stroke="#191970" points="1334.3122,-135.4123 1343.2531,-129.7282 1332.719,-128.596 1334.3122,-135.4123"/>
</g>
<!-- Node21 -->
<g id="node22" class="node">
<title>Node21</title>
<polygon fill="none" stroke="#bfbfbf" points="893.5,-112.5 893.5,-131.5 943.5,-131.5 943.5,-112.5 893.5,-112.5"/>
<text text-anchor="middle" x="918.5" y="-119.5" font-family="Helvetica,sans-Serif" font-size="10.00" fill="#000000">cstring</text>
</g>
<!-- Node18&#45;&gt;Node21 -->
<g id="edge24" class="edge">
<title>Node18&#45;&gt;Node21</title>
<path fill="none" stroke="#191970" d="M982.625,-173.8906C970.8703,-164.3786 952.6514,-149.6357 938.6328,-138.2917"/>
<polygon fill="#191970" stroke="#191970" points="940.5178,-135.3146 930.5424,-131.7449 936.1144,-140.7562 940.5178,-135.3146"/>
</g>
<!-- Node22 -->
<g id="node23" class="node">
<title>Node22</title>
<polygon fill="none" stroke="#bfbfbf" points="1162.5,-56.5 1162.5,-75.5 1226.5,-75.5 1226.5,-56.5 1162.5,-56.5"/>
<text text-anchor="middle" x="1194.5" y="-63.5" font-family="Helvetica,sans-Serif" font-size="10.00" fill="#000000">algorithm</text>
</g>
<!-- Node18&#45;&gt;Node22 -->
<g id="edge25" class="edge">
<title>Node18&#45;&gt;Node22</title>
<path fill="none" stroke="#191970" d="M949.0099,-173.9072C896.7814,-162.4369 817.1473,-143.3669 808.5,-132 803.1182,-124.9255 802.5982,-118.6469 808.5,-112 831.0397,-86.6148 1056.5971,-72.7172 1152.1185,-67.9311"/>
<polygon fill="#191970" stroke="#191970" points="1152.4791,-71.4177 1162.2953,-67.4311 1152.1355,-64.4261 1152.4791,-71.4177"/>
</g>
<!-- Node23 -->
<g id="node24" class="node">
<title>Node23</title>
<polygon fill="none" stroke="#bfbfbf" points="962,-112.5 962,-131.5 1027,-131.5 1027,-112.5 962,-112.5"/>
<text text-anchor="middle" x="994.5" y="-119.5" font-family="Helvetica,sans-Serif" font-size="10.00" fill="#000000">stdexcept</text>
</g>
<!-- Node18&#45;&gt;Node23 -->
<g id="edge26" class="edge">
<title>Node18&#45;&gt;Node23</title>
<path fill="none" stroke="#191970" d="M994.5,-173.8906C994.5,-165.3657 994.5,-152.6392 994.5,-141.9235"/>
<polygon fill="#191970" stroke="#191970" points="998.0001,-141.7448 994.5,-131.7449 991.0001,-141.7449 998.0001,-141.7448"/>
</g>
<!-- Node24 -->
<g id="node25" class="node">
<title>Node24</title>
<polygon fill="none" stroke="#bfbfbf" points="1045.5,-112.5 1045.5,-131.5 1095.5,-131.5 1095.5,-112.5 1045.5,-112.5"/>
<text text-anchor="middle" x="1070.5" y="-119.5" font-family="Helvetica,sans-Serif" font-size="10.00" fill="#000000">climits</text>
</g>
<!-- Node18&#45;&gt;Node24 -->
<g id="edge28" class="edge">
<title>Node18&#45;&gt;Node24</title>
<path fill="none" stroke="#191970" d="M1006.375,-173.8906C1018.1297,-164.3786 1036.3486,-149.6357 1050.3672,-138.2917"/>
<polygon fill="#191970" stroke="#191970" points="1052.8856,-140.7562 1058.4576,-131.7449 1048.4822,-135.3146 1052.8856,-140.7562"/>
</g>
<!-- Node25 -->
<g id="node26" class="node">
<title>Node25</title>
<g id="a_node26"><a xlink:href="../../d7/df8/Types_8h.html" target="_top" xlink:title="MemoryResources/Types.h">
<polygon fill="none" stroke="#000000" points="1113.5,-112.5 1113.5,-131.5 1259.5,-131.5 1259.5,-112.5 1113.5,-112.5"/>
<text text-anchor="middle" x="1186.5" y="-119.5" font-family="Helvetica,sans-Serif" font-size="10.00" fill="#000000">MemoryResources/Types.h</text>
</a>
</g>
</g>
<!-- Node18&#45;&gt;Node25 -->
<g id="edge29" class="edge">
<title>Node18&#45;&gt;Node25</title>
<path fill="none" stroke="#191970" d="M1024.5,-173.8906C1057.4705,-163.3298 1110.5717,-146.3208 1146.9303,-134.6747"/>
<polygon fill="#191970" stroke="#191970" points="1148.255,-137.9256 1156.7107,-131.5419 1146.1196,-131.2592 1148.255,-137.9256"/>
</g>
<!-- Node26 -->
<g id="node27" class="node">
<title>Node26</title>
<polygon fill="none" stroke="#bfbfbf" points="1278,-112.5 1278,-131.5 1325,-131.5 1325,-112.5 1278,-112.5"/>
<text text-anchor="middle" x="1301.5" y="-119.5" font-family="Helvetica,sans-Serif" font-size="10.00" fill="#000000">cerrno</text>
</g>
<!-- Node18&#45;&gt;Node26 -->
<g id="edge30" class="edge">
<title>Node18&#45;&gt;Node26</title>
<path fill="none" stroke="#191970" d="M1041.9139,-173.9637C1052.0044,-171.9662 1062.6006,-169.8926 1072.5,-168 1156.4344,-151.953 1180.7353,-152.7922 1267.9991,-131.9038"/>
<polygon fill="#191970" stroke="#191970" points="1268.8992,-135.2871 1277.7948,-129.532 1267.2519,-128.4836 1268.8992,-135.2871"/>
</g>
<!-- Node27&#45;&gt;Node13 -->
<g id="edge32" class="edge">
<title>Node27&#45;&gt;Node13</title>
<path fill="none" stroke="#191970" d="M627.2652,-235.2967C630.283,-225.6685 634.2124,-213.1318 637.4496,-202.8038"/>
<polygon fill="#191970" stroke="#191970" points="640.854,-203.6441 640.5052,-193.055 634.1744,-201.5504 640.854,-203.6441"/>
</g>
<!-- Node27&#45;&gt;Node16 -->
<g id="edge33" class="edge">
<title>Node27&#45;&gt;Node16</title>
<path fill="none" stroke="#191970" d="M613.2714,-235.3319C604.078,-218.0898 592.8766,-189.5468 604.5,-168 612.1852,-153.7537 626.4216,-143.1995 640.059,-135.82"/>
<polygon fill="#191970" stroke="#191970" points="641.9241,-138.8014 649.3168,-131.2121 638.8049,-132.5347 641.9241,-138.8014"/>
</g>
<!-- Node28&#45;&gt;Node10 -->
<g id="edge42" class="edge">
<title>Node28&#45;&gt;Node10</title>
<path fill="none" stroke="#191970" d="M973.6858,-235.4639C911.3216,-222.4064 822.9631,-203.9063 770.2244,-192.8642"/>
<polygon fill="#191970" stroke="#191970" points="770.6749,-189.3827 760.1699,-190.759 769.2404,-196.2341 770.6749,-189.3827"/>
</g>
<!-- Node28&#45;&gt;Node13 -->
<g id="edge35" class="edge">
<title>Node28&#45;&gt;Node13</title>
<path fill="none" stroke="#191970" d="M959.8127,-236.4034C956.6702,-235.9233 953.558,-235.454 950.5,-235 831.1863,-217.2864 798.0622,-230.0288 681.5,-199 678.8793,-198.3024 676.1979,-197.4696 673.5318,-196.5572"/>
<polygon fill="#191970" stroke="#191970" points="674.6707,-193.2462 664.0787,-193.0037 672.2076,-199.7986 674.6707,-193.2462"/>
</g>
<!-- Node28&#45;&gt;Node14 -->
<g id="edge36" class="edge">
<title>Node28&#45;&gt;Node14</title>
<path fill="none" stroke="#191970" d="M1131.2457,-248.0193C1284.8419,-242.8799 1600.7355,-228.9562 1706.5,-199 1754.7867,-185.3235 1805.6738,-155.4303 1834.0212,-137.1754"/>
<polygon fill="#191970" stroke="#191970" points="1835.9492,-140.0966 1842.401,-131.6927 1832.1167,-134.2389 1835.9492,-140.0966"/>
</g>
<!-- Node28&#45;&gt;Node16 -->
<g id="edge39" class="edge">
<title>Node28&#45;&gt;Node16</title>
<path fill="none" stroke="#191970" d="M992.4578,-235.4426C959.4352,-225.7482 916.2136,-212.4771 878.5,-199 844.1479,-186.7241 836.5615,-181.0605 802.5,-168 771.162,-155.9838 735.1656,-143.1309 709.3436,-134.0743"/>
<polygon fill="#191970" stroke="#191970" points="710.2279,-130.6758 699.633,-130.6793 707.9176,-137.2836 710.2279,-130.6758"/>
</g>
<!-- Node28&#45;&gt;Node17 -->
<g id="edge41" class="edge">
<title>Node28&#45;&gt;Node17</title>
<path fill="none" stroke="#191970" d="M1002.4648,-235.4405C978.0691,-226.2174 947.3496,-213.43 921.5,-199 900.9285,-187.5163 899.4825,-178.7142 878.5,-168 843.6191,-150.1889 800.3736,-137.1544 771.4676,-129.5987"/>
<polygon fill="#191970" stroke="#191970" points="772.0632,-126.1388 761.5089,-127.0642 770.3367,-132.9225 772.0632,-126.1388"/>
</g>
<!-- Node28&#45;&gt;Node18 -->
<g id="edge54" class="edge">
<title>Node28&#45;&gt;Node18</title>
<path fill="none" stroke="#191970" d="M1033.9273,-235.2967C1026.2127,-225.1618 1016.0449,-211.804 1007.9671,-201.1921"/>
<polygon fill="#191970" stroke="#191970" points="1010.6151,-198.8921 1001.7732,-193.055 1005.0451,-203.1319 1010.6151,-198.8921"/>
</g>
<!-- Node28&#45;&gt;Node20 -->
<g id="edge38" class="edge">
<title>Node28&#45;&gt;Node20</title>
<path fill="none" stroke="#191970" d="M1051.9346,-235.4811C1060.9443,-216.4198 1079.2175,-184.0887 1105.5,-168 1192.9969,-114.4393 1233.2465,-153.7642 1333.5,-132 1333.599,-131.9785 1333.6982,-131.9569 1333.7975,-131.9352"/>
<polygon fill="#191970" stroke="#191970" points="1334.3339,-135.4059 1343.2404,-129.668 1332.6996,-128.5994 1334.3339,-135.4059"/>
</g>
<!-- Node29 -->
<g id="node30" class="node">
<title>Node29</title>
<polygon fill="none" stroke="#bfbfbf" points="1114.5,-174 1114.5,-193 1158.5,-193 1158.5,-174 1114.5,-174"/>
<text text-anchor="middle" x="1136.5" y="-181" font-family="Helvetica,sans-Serif" font-size="10.00" fill="#000000">bitset</text>
</g>
<!-- Node28&#45;&gt;Node29 -->
<g id="edge37" class="edge">
<title>Node28&#45;&gt;Node29</title>
<path fill="none" stroke="#191970" d="M1066.1493,-235.2967C1080.8781,-224.4524 1100.6186,-209.9182 1115.4396,-199.006"/>
<polygon fill="#191970" stroke="#191970" points="1117.5447,-201.8025 1123.5224,-193.055 1113.3944,-196.1655 1117.5447,-201.8025"/>
</g>
<!-- Node30 -->
<g id="node31" class="node">
<title>Node30</title>
<polygon fill="none" stroke="#bfbfbf" points="1177,-174 1177,-193 1250,-193 1250,-174 1177,-174"/>
<text text-anchor="middle" x="1213.5" y="-181" font-family="Helvetica,sans-Serif" font-size="10.00" fill="#000000">string_view</text>
</g>
<!-- Node28&#45;&gt;Node30 -->
<g id="edge40" class="edge">
<title>Node28&#45;&gt;Node30</title>
<path fill="none" stroke="#191970" d="M1083.2025,-235.4639C1112.2795,-223.8677 1152.12,-207.9789 1180.0666,-196.8335"/>
<polygon fill="#191970" stroke="#191970" points="1181.4265,-200.0594 1189.4185,-193.1039 1178.8334,-193.5574 1181.4265,-200.0594"/>
</g>
<!-- Node31 -->
<g id="node32" class="node">
<title>Node31</title>
<g id="a_node32"><a xlink:href="../../d9/d52/Common_2MathUtils_2include_2MathUtils_2Utils_8h.html" target="_top" xlink:title="MathUtils/Utils.h">
<polygon fill="none" stroke="#000000" points="1599.5,-174 1599.5,-193 1697.5,-193 1697.5,-174 1599.5,-174"/>
<text text-anchor="middle" x="1648.5" y="-181" font-family="Helvetica,sans-Serif" font-size="10.00" fill="#000000">MathUtils/Utils.h</text>
</a>
</g>
</g>
<!-- Node28&#45;&gt;Node31 -->
<g id="edge43" class="edge">
<title>Node28&#45;&gt;Node31</title>
<path fill="none" stroke="#191970" d="M1131.2548,-240.9717C1255.3611,-227.1821 1481.8857,-202.0127 1589.1548,-190.0939"/>
<polygon fill="#191970" stroke="#191970" points="1589.6037,-193.5657 1599.156,-188.9827 1588.8306,-186.6085 1589.6037,-193.5657"/>
</g>
<!-- Node31&#45;&gt;Node14 -->
<g id="edge44" class="edge">
<title>Node31&#45;&gt;Node14</title>
<path fill="none" stroke="#191970" d="M1681,-173.8906C1720.5417,-162.1992 1786.8106,-142.6053 1825.6099,-131.1334"/>
<polygon fill="#191970" stroke="#191970" points="1826.7174,-134.4558 1835.3146,-128.264 1824.7326,-127.743 1826.7174,-134.4558"/>
</g>
<!-- Node32 -->
<g id="node33" class="node">
<title>Node32</title>
<polygon fill="none" stroke="#bfbfbf" points="1631,-56.5 1631,-75.5 1678,-75.5 1678,-56.5 1631,-56.5"/>
<text text-anchor="middle" x="1654.5" y="-63.5" font-family="Helvetica,sans-Serif" font-size="10.00" fill="#000000">cmath</text>
</g>
<!-- Node31&#45;&gt;Node32 -->
<g id="edge45" class="edge">
<title>Node31&#45;&gt;Node32</title>
<path fill="none" stroke="#191970" d="M1648.991,-173.8845C1649.9711,-154.6913 1652.1875,-111.286 1653.4907,-85.7663"/>
<polygon fill="#191970" stroke="#191970" points="1656.9876,-85.9139 1654.0022,-75.7484 1649.9967,-85.5568 1656.9876,-85.9139"/>
</g>
<!-- Node33 -->
<g id="node34" class="node">
<title>Node33</title>
<g id="a_node34"><a xlink:href="../../df/d21/GPUCommonDef_8h.html" target="_top" xlink:title="GPUCommonDef.h">
<polygon fill="none" stroke="#000000" points="1734,-56.5 1734,-75.5 1841,-75.5 1841,-56.5 1734,-56.5"/>
<text text-anchor="middle" x="1787.5" y="-63.5" font-family="Helvetica,sans-Serif" font-size="10.00" fill="#000000">GPUCommonDef.h</text>
</a>
</g>
</g>
<!-- Node31&#45;&gt;Node33 -->
<g id="edge46" class="edge">
<title>Node31&#45;&gt;Node33</title>
<path fill="none" stroke="#191970" d="M1688.9082,-173.9734C1725.6607,-164.3937 1775.8868,-148.6874 1787.5,-132 1796.7962,-118.642 1795.7772,-99.7906 1793.0274,-85.6531"/>
<polygon fill="#191970" stroke="#191970" points="1796.336,-84.4382 1790.615,-75.5208 1789.5264,-86.0596 1796.336,-84.4382"/>
</g>
<!-- Node36 -->
<g id="node37" class="node">
<title>Node36</title>
<g id="a_node37"><a xlink:href="../../d6/da2/GPUCommonMath_8h.html" target="_top" xlink:title="GPUCommonMath.h">
<polygon fill="none" stroke="#000000" points="1664,-112.5 1664,-131.5 1779,-131.5 1779,-112.5 1664,-112.5"/>
<text text-anchor="middle" x="1721.5" y="-119.5" font-family="Helvetica,sans-Serif" font-size="10.00" fill="#000000">GPUCommonMath.h</text>
</a>
</g>
</g>
<!-- Node31&#45;&gt;Node36 -->
<g id="edge49" class="edge">
<title>Node31&#45;&gt;Node36</title>
<path fill="none" stroke="#191970" d="M1659.9063,-173.8906C1671.1969,-164.3786 1688.6967,-149.6357 1702.1619,-138.2917"/>
<polygon fill="#191970" stroke="#191970" points="1704.5402,-140.8646 1709.9329,-131.7449 1700.0301,-135.5111 1704.5402,-140.8646"/>
</g>
<!-- Node37 -->
<g id="node38" class="node">
<title>Node37</title>
<g id="a_node38"><a xlink:href="../../d6/d84/MathConstants_8h.html" target="_top" xlink:title="useful math constants ">
<polygon fill="none" stroke="#000000" points="1413.5,-112.5 1413.5,-131.5 1607.5,-131.5 1607.5,-112.5 1413.5,-112.5"/>
<text text-anchor="middle" x="1510.5" y="-119.5" font-family="Helvetica,sans-Serif" font-size="10.00" fill="#000000">CommonConstants/MathConstants.h</text>
</a>
</g>
</g>
<!-- Node31&#45;&gt;Node37 -->
<g id="edge53" class="edge">
<title>Node31&#45;&gt;Node37</title>
<path fill="none" stroke="#191970" d="M1626.9375,-173.8906C1603.9488,-163.6457 1567.344,-147.3326 1541.3176,-135.7339"/>
<polygon fill="#191970" stroke="#191970" points="1542.4698,-132.4156 1531.9111,-131.5419 1539.6204,-138.8095 1542.4698,-132.4156"/>
</g>
<!-- Node34 -->
<g id="node35" class="node">
<title>Node34</title>
<g id="a_node35"><a xlink:href="../../d5/d93/GPUCommonDefSettings_8h.html" target="_top" xlink:title="GPUCommonDefSettings.h">
<polygon fill="none" stroke="#000000" points="1636.5,-.5 1636.5,-19.5 1784.5,-19.5 1784.5,-.5 1636.5,-.5"/>
<text text-anchor="middle" x="1710.5" y="-7.5" font-family="Helvetica,sans-Serif" font-size="10.00" fill="#000000">GPUCommonDefSettings.h</text>
</a>
</g>
</g>
<!-- Node33&#45;&gt;Node34 -->
<g id="edge47" class="edge">
<title>Node33&#45;&gt;Node34</title>
<path fill="none" stroke="#191970" d="M1774.0876,-56.2455C1762.4943,-47.814 1745.5252,-35.4729 1732.0322,-25.6598"/>
<polygon fill="#191970" stroke="#191970" points="1733.9047,-22.6938 1723.7587,-19.6427 1729.7874,-28.355 1733.9047,-22.6938"/>
</g>
<!-- Node35 -->
<g id="node36" class="node">
<title>Node35</title>
<g id="a_node36"><a xlink:href="../../da/d5a/GPUCommonDefAPI_8h.html" target="_top" xlink:title="GPUCommonDefAPI.h">
<polygon fill="none" stroke="#000000" points="1802.5,-.5 1802.5,-19.5 1926.5,-19.5 1926.5,-.5 1802.5,-.5"/>
<text text-anchor="middle" x="1864.5" y="-7.5" font-family="Helvetica,sans-Serif" font-size="10.00" fill="#000000">GPUCommonDefAPI.h</text>
</a>
</g>
</g>
<!-- Node33&#45;&gt;Node35 -->
<g id="edge48" class="edge">
<title>Node33&#45;&gt;Node35</title>
<path fill="none" stroke="#191970" d="M1800.9124,-56.2455C1812.5057,-47.814 1829.4748,-35.4729 1842.9678,-25.6598"/>
<polygon fill="#191970" stroke="#191970" points="1845.2126,-28.355 1851.2413,-19.6427 1841.0953,-22.6938 1845.2126,-28.355"/>
</g>
<!-- Node36&#45;&gt;Node22 -->
<g id="edge52" class="edge">
<title>Node36&#45;&gt;Node22</title>
<path fill="none" stroke="#191970" d="M1663.8466,-115.8736C1557.0142,-104.5214 1330.636,-80.4661 1236.7116,-70.4855"/>
<polygon fill="#191970" stroke="#191970" points="1237.0342,-67.0001 1226.7203,-69.4238 1236.2945,-73.961 1237.0342,-67.0001"/>
</g>
<!-- Node36&#45;&gt;Node32 -->
<g id="edge51" class="edge">
<title>Node36&#45;&gt;Node32</title>
<path fill="none" stroke="#191970" d="M1709.8295,-112.2455C1699.9339,-103.9746 1685.5373,-91.9416 1673.9099,-82.2232"/>
<polygon fill="#191970" stroke="#191970" points="1675.9542,-79.3703 1666.0368,-75.6427 1671.465,-84.7413 1675.9542,-79.3703"/>
</g>
<!-- Node36&#45;&gt;Node33 -->
<g id="edge50" class="edge">
<title>Node36&#45;&gt;Node33</title>
<path fill="none" stroke="#191970" d="M1732.9963,-112.2455C1742.7442,-103.9746 1756.9259,-91.9416 1768.3798,-82.2232"/>
<polygon fill="#191970" stroke="#191970" points="1770.7747,-84.7813 1776.1354,-75.6427 1766.2459,-79.4437 1770.7747,-84.7813"/>
</g>
</g>
</svg>
