<?xml version="1.0" encoding="UTF-8" standalone="no"?>
<!DOCTYPE svg PUBLIC "-//W3C//DTD SVG 1.1//EN"
 "http://www.w3.org/Graphics/SVG/1.1/DTD/svg11.dtd">
<!-- Generated by graphviz version 2.40.1 (20161225.0304)
 -->
<!-- Title: /home/travis/build/AliceO2Group/AliceO2/Detectors/MUON/MID/Raw/src/GBTUserLogicEncoder.cxx Pages: 1 -->
<svg width="827pt" height="352pt"
 viewBox="0.00 0.00 826.50 352.00" xmlns="http://www.w3.org/2000/svg" xmlns:xlink="http://www.w3.org/1999/xlink">
<g id="graph0" class="graph" transform="scale(1 1) rotate(0) translate(4 348)">
<title>/home/travis/build/AliceO2Group/AliceO2/Detectors/MUON/MID/Raw/src/GBTUserLogicEncoder.cxx</title>
<!-- Node0 -->
<g id="node1" class="node">
<title>Node0</title>
<polygon fill="#bfbfbf" stroke="#000000" points="558.5,-291.5 558.5,-343.5 722.5,-343.5 722.5,-291.5 558.5,-291.5"/>
<text text-anchor="start" x="566.5" y="-331.5" font-family="Helvetica,sans-Serif" font-size="10.00" fill="#000000">/home/travis/build</text>
<text text-anchor="start" x="566.5" y="-320.5" font-family="Helvetica,sans-Serif" font-size="10.00" fill="#000000">/AliceO2Group/AliceO2</text>
<text text-anchor="start" x="566.5" y="-309.5" font-family="Helvetica,sans-Serif" font-size="10.00" fill="#000000">/Detectors/MUON/MID/Raw</text>
<text text-anchor="middle" x="640.5" y="-298.5" font-family="Helvetica,sans-Serif" font-size="10.00" fill="#000000">/src/GBTUserLogicEncoder.cxx</text>
</g>
<!-- Node1 -->
<g id="node2" class="node">
<title>Node1</title>
<g id="a_node2"><a xlink:href="../../d8/d2e/GBTUserLogicEncoder_8h.html" target="_top" xlink:title="Raw data encoder for MID GBT user logic. ">
<polygon fill="none" stroke="#000000" points="264,-235.5 264,-254.5 439,-254.5 439,-235.5 264,-235.5"/>
<text text-anchor="middle" x="351.5" y="-242.5" font-family="Helvetica,sans-Serif" font-size="10.00" fill="#000000">MIDRaw/GBTUserLogicEncoder.h</text>
</a>
</g>
</g>
<!-- Node0&#45;&gt;Node1 -->
<g id="edge1" class="edge">
<title>Node0&#45;&gt;Node1</title>
<path fill="none" stroke="#191970" d="M558.4572,-296.9183C507.166,-284.0512 442.8743,-267.9226 399.6747,-257.0853"/>
<polygon fill="#191970" stroke="#191970" points="400.2603,-253.6239 389.7092,-254.5853 398.557,-260.4135 400.2603,-253.6239"/>
</g>
<!-- Node15 -->
<g id="node16" class="node">
<title>Node15</title>
<g id="a_node16"><a xlink:href="../../d2/da5/CrateParameters_8h.html" target="_top" xlink:title="MID RO crate parameters. ">
<polygon fill="none" stroke="#000000" points="668.5,-118 668.5,-137 818.5,-137 818.5,-118 668.5,-118"/>
<text text-anchor="middle" x="743.5" y="-125" font-family="Helvetica,sans-Serif" font-size="10.00" fill="#000000">MIDRaw/CrateParameters.h</text>
</a>
</g>
</g>
<!-- Node0&#45;&gt;Node15 -->
<g id="edge19" class="edge">
<title>Node0&#45;&gt;Node15</title>
<path fill="none" stroke="#191970" d="M658.8246,-291.2044C666.1988,-280.2141 674.5776,-267.1863 681.5,-255 702.7634,-217.5677 723.9122,-171.7695 735.1778,-146.5094"/>
<polygon fill="#191970" stroke="#191970" points="738.4009,-147.8748 739.2458,-137.3137 731.9993,-145.0428 738.4009,-147.8748"/>
</g>
<!-- Node16 -->
<g id="node17" class="node">
<title>Node16</title>
<g id="a_node17"><a xlink:href="../../d7/d1a/RawInfo_8h.html" target="_top" xlink:title="Raw data format MID. ">
<polygon fill="none" stroke="#000000" points="608,-235.5 608,-254.5 673,-254.5 673,-235.5 608,-235.5"/>
<text text-anchor="middle" x="640.5" y="-242.5" font-family="Helvetica,sans-Serif" font-size="10.00" fill="#000000">RawInfo.h</text>
</a>
</g>
</g>
<!-- Node0&#45;&gt;Node16 -->
<g id="edge22" class="edge">
<title>Node0&#45;&gt;Node16</title>
<path fill="none" stroke="#191970" d="M640.5,-291.3258C640.5,-282.5142 640.5,-272.8397 640.5,-264.621"/>
<polygon fill="#191970" stroke="#191970" points="644.0001,-264.534 640.5,-254.534 637.0001,-264.534 644.0001,-264.534"/>
</g>
<!-- Node2 -->
<g id="node3" class="node">
<title>Node2</title>
<polygon fill="none" stroke="#bfbfbf" points="510.5,-56.5 510.5,-75.5 560.5,-75.5 560.5,-56.5 510.5,-56.5"/>
<text text-anchor="middle" x="535.5" y="-63.5" font-family="Helvetica,sans-Serif" font-size="10.00" fill="#000000">cstdint</text>
</g>
<!-- Node1&#45;&gt;Node2 -->
<g id="edge2" class="edge">
<title>Node1&#45;&gt;Node2</title>
<path fill="none" stroke="#191970" d="M341.6213,-235.2532C318.9464,-211.7137 267.4971,-150.843 299.5,-112 299.9016,-111.5126 434.724,-85.4435 500.3833,-72.7719"/>
<polygon fill="#191970" stroke="#191970" points="501.1405,-76.1905 510.2962,-70.8593 499.8142,-69.3173 501.1405,-76.1905"/>
</g>
<!-- Node3 -->
<g id="node4" class="node">
<title>Node3</title>
<polygon fill="none" stroke="#bfbfbf" points="380,-179.5 380,-198.5 427,-198.5 427,-179.5 380,-179.5"/>
<text text-anchor="middle" x="403.5" y="-186.5" font-family="Helvetica,sans-Serif" font-size="10.00" fill="#000000">vector</text>
</g>
<!-- Node1&#45;&gt;Node3 -->
<g id="edge3" class="edge">
<title>Node1&#45;&gt;Node3</title>
<path fill="none" stroke="#191970" d="M360.5577,-235.2455C368.0142,-227.2155 378.7634,-215.6394 387.6417,-206.0781"/>
<polygon fill="#191970" stroke="#191970" points="390.3063,-208.3522 394.5461,-198.6427 385.1768,-203.589 390.3063,-208.3522"/>
</g>
<!-- Node4 -->
<g id="node5" class="node">
<title>Node4</title>
<polygon fill="none" stroke="#bfbfbf" points="23.5,-179.5 23.5,-198.5 71.5,-198.5 71.5,-179.5 23.5,-179.5"/>
<text text-anchor="middle" x="47.5" y="-186.5" font-family="Helvetica,sans-Serif" font-size="10.00" fill="#000000">gsl/gsl</text>
</g>
<!-- Node1&#45;&gt;Node4 -->
<g id="edge4" class="edge">
<title>Node1&#45;&gt;Node4</title>
<path fill="none" stroke="#191970" d="M280.8246,-235.4976C228.213,-227.8503 154.5156,-215.9338 81.3983,-198.9856"/>
<polygon fill="#191970" stroke="#191970" points="82.0909,-195.5531 71.5554,-196.6723 80.4893,-202.3674 82.0909,-195.5531"/>
</g>
<!-- Node5 -->
<g id="node6" class="node">
<title>Node5</title>
<g id="a_node6"><a xlink:href="../../d4/d78/DataFormats_2Headers_2include_2Headers_2RAWDataHeader_8h.html" target="_top" xlink:title="Headers/RAWDataHeader.h">
<polygon fill="none" stroke="#000000" points="309,-118 309,-137 458,-137 458,-118 309,-118"/>
<text text-anchor="middle" x="383.5" y="-125" font-family="Helvetica,sans-Serif" font-size="10.00" fill="#000000">Headers/RAWDataHeader.h</text>
</a>
</g>
</g>
<!-- Node1&#45;&gt;Node5 -->
<g id="edge5" class="edge">
<title>Node1&#45;&gt;Node5</title>
<path fill="none" stroke="#191970" d="M354.1187,-235.3845C359.3692,-216.1053 371.2729,-172.3963 378.21,-146.9241"/>
<polygon fill="#191970" stroke="#191970" points="381.5944,-147.8167 380.8451,-137.2484 374.8403,-145.9772 381.5944,-147.8167"/>
</g>
<!-- Node6 -->
<g id="node7" class="node">
<title>Node6</title>
<g id="a_node7"><a xlink:href="../../d2/df9/MUON_2MID_2include_2DataFormatsMID_2ROFRecord_8h.html" target="_top" xlink:title="Definition of the MID event record. ">
<polygon fill="none" stroke="#000000" points="90,-179.5 90,-198.5 253,-198.5 253,-179.5 90,-179.5"/>
<text text-anchor="middle" x="171.5" y="-186.5" font-family="Helvetica,sans-Serif" font-size="10.00" fill="#000000">DataFormatsMID/ROFRecord.h</text>
</a>
</g>
</g>
<!-- Node1&#45;&gt;Node6 -->
<g id="edge7" class="edge">
<title>Node1&#45;&gt;Node6</title>
<path fill="none" stroke="#191970" d="M320.5569,-235.3733C290.4961,-226.021 244.6974,-211.7725 211.8022,-201.5385"/>
<polygon fill="#191970" stroke="#191970" points="212.6277,-198.1299 202.0393,-198.5011 210.5481,-204.8139 212.6277,-198.1299"/>
</g>
<!-- Node13 -->
<g id="node14" class="node">
<title>Node13</title>
<g id="a_node14"><a xlink:href="../../d3/d4a/LocalBoardRO_8h.html" target="_top" xlink:title="Structure to store the FEE local board information. ">
<polygon fill="none" stroke="#000000" points="476.5,-118 476.5,-137 612.5,-137 612.5,-118 476.5,-118"/>
<text text-anchor="middle" x="544.5" y="-125" font-family="Helvetica,sans-Serif" font-size="10.00" fill="#000000">MIDRaw/LocalBoardRO.h</text>
</a>
</g>
</g>
<!-- Node1&#45;&gt;Node13 -->
<g id="edge15" class="edge">
<title>Node1&#45;&gt;Node13</title>
<path fill="none" stroke="#191970" d="M370.0909,-235.3648C387.2726,-226.3321 413.4059,-212.2674 435.5,-199 466.0585,-180.6497 500.2737,-157.8152 522.0793,-142.96"/>
<polygon fill="#191970" stroke="#191970" points="524.3409,-145.6535 530.618,-137.1183 520.3883,-139.8761 524.3409,-145.6535"/>
</g>
<!-- Node5&#45;&gt;Node2 -->
<g id="edge6" class="edge">
<title>Node5&#45;&gt;Node2</title>
<path fill="none" stroke="#191970" d="M407.25,-117.8906C432.7939,-107.5554 473.6009,-91.0447 502.311,-79.4284"/>
<polygon fill="#191970" stroke="#191970" points="503.9596,-82.5371 511.9168,-75.5419 501.334,-76.0481 503.9596,-82.5371"/>
</g>
<!-- Node7 -->
<g id="node8" class="node">
<title>Node7</title>
<g id="a_node8"><a xlink:href="../../d9/d80/InteractionRecord_8h.html" target="_top" xlink:title="CommonDataFormat/Interaction\lRecord.h">
<polygon fill="none" stroke="#000000" points="79.5,-112.5 79.5,-142.5 253.5,-142.5 253.5,-112.5 79.5,-112.5"/>
<text text-anchor="start" x="87.5" y="-130.5" font-family="Helvetica,sans-Serif" font-size="10.00" fill="#000000">CommonDataFormat/Interaction</text>
<text text-anchor="middle" x="166.5" y="-119.5" font-family="Helvetica,sans-Serif" font-size="10.00" fill="#000000">Record.h</text>
</a>
</g>
</g>
<!-- Node6&#45;&gt;Node7 -->
<g id="edge8" class="edge">
<title>Node6&#45;&gt;Node7</title>
<path fill="none" stroke="#191970" d="M170.7188,-179.3906C170.136,-172.2234 169.3119,-162.0862 168.5464,-152.671"/>
<polygon fill="#191970" stroke="#191970" points="172.0221,-152.2281 167.7231,-142.5446 165.0451,-152.7954 172.0221,-152.2281"/>
</g>
<!-- Node7&#45;&gt;Node2 -->
<g id="edge13" class="edge">
<title>Node7&#45;&gt;Node2</title>
<path fill="none" stroke="#191970" d="M253.7354,-114.0235C317.4751,-104.0073 405.9543,-89.7524 483.5,-76 488.9877,-75.0268 494.7926,-73.9537 500.4566,-72.8826"/>
<polygon fill="#191970" stroke="#191970" points="501.2372,-76.2968 510.4007,-70.9788 499.9209,-69.4217 501.2372,-76.2968"/>
</g>
<!-- Node8 -->
<g id="node9" class="node">
<title>Node8</title>
<g id="a_node9"><a xlink:href="../../d2/d45/GPUCommonRtypes_8h.html" target="_top" xlink:title="GPUCommonRtypes.h">
<polygon fill="none" stroke="#000000" points="0,-56.5 0,-75.5 125,-75.5 125,-56.5 0,-56.5"/>
<text text-anchor="middle" x="62.5" y="-63.5" font-family="Helvetica,sans-Serif" font-size="10.00" fill="#000000">GPUCommonRtypes.h</text>
</a>
</g>
</g>
<!-- Node7&#45;&gt;Node8 -->
<g id="edge9" class="edge">
<title>Node7&#45;&gt;Node8</title>
<path fill="none" stroke="#191970" d="M141.0587,-112.4554C124.7716,-102.8241 103.7327,-90.3828 87.527,-80.7996"/>
<polygon fill="#191970" stroke="#191970" points="89.0055,-77.6078 78.6163,-75.5303 85.4424,-83.6331 89.0055,-77.6078"/>
</g>
<!-- Node10 -->
<g id="node11" class="node">
<title>Node10</title>
<polygon fill="none" stroke="#bfbfbf" points="426,-56.5 426,-75.5 475,-75.5 475,-56.5 426,-56.5"/>
<text text-anchor="middle" x="450.5" y="-63.5" font-family="Helvetica,sans-Serif" font-size="10.00" fill="#000000">iosfwd</text>
</g>
<!-- Node7&#45;&gt;Node10 -->
<g id="edge11" class="edge">
<title>Node7&#45;&gt;Node10</title>
<path fill="none" stroke="#191970" d="M238.5469,-112.4573C286.4786,-102.3627 350.8132,-88.6472 407.5,-76 410.3052,-75.3741 413.2113,-74.7171 416.1284,-74.0513"/>
<polygon fill="#191970" stroke="#191970" points="416.9995,-77.4424 425.9589,-71.7874 415.4285,-70.621 416.9995,-77.4424"/>
</g>
<!-- Node11 -->
<g id="node12" class="node">
<title>Node11</title>
<polygon fill="none" stroke="#bfbfbf" points="143,-56.5 143,-75.5 190,-75.5 190,-56.5 143,-56.5"/>
<text text-anchor="middle" x="166.5" y="-63.5" font-family="Helvetica,sans-Serif" font-size="10.00" fill="#000000">cmath</text>
</g>
<!-- Node7&#45;&gt;Node11 -->
<g id="edge12" class="edge">
<title>Node7&#45;&gt;Node11</title>
<path fill="none" stroke="#191970" d="M166.5,-112.2977C166.5,-104.3834 166.5,-94.6043 166.5,-86.0759"/>
<polygon fill="#191970" stroke="#191970" points="170.0001,-85.8469 166.5,-75.8469 163.0001,-85.847 170.0001,-85.8469"/>
</g>
<!-- Node12 -->
<g id="node13" class="node">
<title>Node12</title>
<g id="a_node13"><a xlink:href="../../d4/dc6/LHCConstants_8h.html" target="_top" xlink:title="Header to collect LHC related constants. ">
<polygon fill="none" stroke="#000000" points="208.5,-56.5 208.5,-75.5 398.5,-75.5 398.5,-56.5 208.5,-56.5"/>
<text text-anchor="middle" x="303.5" y="-63.5" font-family="Helvetica,sans-Serif" font-size="10.00" fill="#000000">CommonConstants/LHCConstants.h</text>
</a>
</g>
</g>
<!-- Node7&#45;&gt;Node12 -->
<g id="edge14" class="edge">
<title>Node7&#45;&gt;Node12</title>
<path fill="none" stroke="#191970" d="M200.014,-112.4554C222.2712,-102.464 251.2647,-89.4487 272.8985,-79.7372"/>
<polygon fill="#191970" stroke="#191970" points="274.5803,-82.8187 282.2699,-75.5303 271.7135,-76.4327 274.5803,-82.8187"/>
</g>
<!-- Node9 -->
<g id="node10" class="node">
<title>Node9</title>
<polygon fill="none" stroke="#bfbfbf" points="33,-.5 33,-19.5 92,-19.5 92,-.5 33,-.5"/>
<text text-anchor="middle" x="62.5" y="-7.5" font-family="Helvetica,sans-Serif" font-size="10.00" fill="#000000">Rtypes.h</text>
</g>
<!-- Node8&#45;&gt;Node9 -->
<g id="edge10" class="edge">
<title>Node8&#45;&gt;Node9</title>
<path fill="none" stroke="#191970" d="M62.5,-56.2455C62.5,-48.9382 62.5,-38.6944 62.5,-29.7046"/>
<polygon fill="#191970" stroke="#191970" points="66.0001,-29.6426 62.5,-19.6427 59.0001,-29.6427 66.0001,-29.6426"/>
</g>
<!-- Node13&#45;&gt;Node2 -->
<g id="edge16" class="edge">
<title>Node13&#45;&gt;Node2</title>
<path fill="none" stroke="#191970" d="M543.0938,-117.8906C541.8462,-109.3657 539.9838,-96.6392 538.4156,-85.9235"/>
<polygon fill="#191970" stroke="#191970" points="541.8373,-85.1326 536.9261,-75.7449 534.911,-86.1463 541.8373,-85.1326"/>
</g>
<!-- Node13&#45;&gt;Node10 -->
<g id="edge18" class="edge">
<title>Node13&#45;&gt;Node10</title>
<path fill="none" stroke="#191970" d="M529.8125,-117.8906C514.7744,-108.0519 491.1824,-92.6167 473.6333,-81.1351"/>
<polygon fill="#191970" stroke="#191970" points="475.3687,-78.088 465.0844,-75.5419 471.5363,-83.9457 475.3687,-78.088"/>
</g>
<!-- Node14 -->
<g id="node15" class="node">
<title>Node14</title>
<polygon fill="none" stroke="#bfbfbf" points="645.5,-56.5 645.5,-75.5 687.5,-75.5 687.5,-56.5 645.5,-56.5"/>
<text text-anchor="middle" x="666.5" y="-63.5" font-family="Helvetica,sans-Serif" font-size="10.00" fill="#000000">array</text>
</g>
<!-- Node13&#45;&gt;Node14 -->
<g id="edge17" class="edge">
<title>Node13&#45;&gt;Node14</title>
<path fill="none" stroke="#191970" d="M563.5625,-117.8906C583.6172,-107.7811 615.3934,-91.7628 638.3384,-80.1962"/>
<polygon fill="#191970" stroke="#191970" points="640.2173,-83.1687 647.5714,-75.5419 637.0663,-76.918 640.2173,-83.1687"/>
</g>
<!-- Node15&#45;&gt;Node2 -->
<g id="edge20" class="edge">
<title>Node15&#45;&gt;Node2</title>
<path fill="none" stroke="#191970" d="M711,-117.8906C672.7406,-106.5783 609.4593,-87.8678 570.2495,-76.2745"/>
<polygon fill="#191970" stroke="#191970" points="571.1717,-72.8974 560.5897,-73.4183 569.1869,-79.6102 571.1717,-72.8974"/>
</g>
<!-- Node15&#45;&gt;Node14 -->
<g id="edge21" class="edge">
<title>Node15&#45;&gt;Node14</title>
<path fill="none" stroke="#191970" d="M731.4688,-117.8906C719.4893,-108.3227 700.8834,-93.4621 686.6475,-82.0919"/>
<polygon fill="#191970" stroke="#191970" points="688.4447,-79.0479 678.4468,-75.5419 684.0761,-84.5175 688.4447,-79.0479"/>
</g>
<!-- Node16&#45;&gt;Node2 -->
<g id="edge23" class="edge">
<title>Node16&#45;&gt;Node2</title>
<path fill="none" stroke="#191970" d="M641.8858,-235.2462C644.6908,-211.6913 648.6545,-150.7889 621.5,-112 609.3178,-94.5984 588.4225,-83.2052 570.2794,-76.1106"/>
<polygon fill="#191970" stroke="#191970" points="571.4247,-72.803 560.8304,-72.692 569.0431,-79.3854 571.4247,-72.803"/>
</g>
</g>
</svg>
