<?xml version="1.0" encoding="UTF-8" standalone="no"?>
<!DOCTYPE svg PUBLIC "-//W3C//DTD SVG 1.1//EN"
 "http://www.w3.org/Graphics/SVG/1.1/DTD/svg11.dtd">
<!-- Generated by graphviz version 2.40.1 (20161225.0304)
 -->
<!-- Title: o2::framework::DeviceState Pages: 1 -->
<svg width="705pt" height="193pt"
 viewBox="0.00 0.00 705.00 193.00" xmlns="http://www.w3.org/2000/svg" xmlns:xlink="http://www.w3.org/1999/xlink">
<g id="graph0" class="graph" transform="scale(1 1) rotate(0) translate(4 189)">
<title>o2::framework::DeviceState</title>
<!-- Node1 -->
<g id="node1" class="node">
<title>Node1</title>
<polygon fill="#bfbfbf" stroke="#000000" points="295.5,-.5 295.5,-57.5 448.5,-57.5 448.5,-.5 295.5,-.5"/>
<text text-anchor="middle" x="372" y="-45.5" font-family="Helvetica,sans-Serif" font-size="10.00" fill="#000000">o2::framework::DeviceState</text>
<polyline fill="none" stroke="#000000" points="295.5,-38.5 448.5,-38.5 "/>
<text text-anchor="middle" x="372" y="-26.5" font-family="Helvetica,sans-Serif" font-size="10.00" fill="#000000"> </text>
<polyline fill="none" stroke="#000000" points="295.5,-19.5 448.5,-19.5 "/>
<text text-anchor="middle" x="372" y="-7.5" font-family="Helvetica,sans-Serif" font-size="10.00" fill="#000000"> </text>
</g>
<!-- Node2 -->
<g id="node2" class="node">
<title>Node2</title>
<polygon fill="none" stroke="#bfbfbf" points="0,-122 0,-179 92,-179 92,-122 0,-122"/>
<text text-anchor="middle" x="46" y="-167" font-family="Helvetica,sans-Serif" font-size="10.00" fill="#000000">StreamingState</text>
<polyline fill="none" stroke="#bfbfbf" points="0,-160 92,-160 "/>
<text text-anchor="middle" x="46" y="-148" font-family="Helvetica,sans-Serif" font-size="10.00" fill="#000000"> </text>
<polyline fill="none" stroke="#bfbfbf" points="0,-141 92,-141 "/>
<text text-anchor="middle" x="46" y="-129" font-family="Helvetica,sans-Serif" font-size="10.00" fill="#000000"> </text>
</g>
<!-- Node2&#45;&gt;Node1 -->
<g id="edge1" class="edge">
<title>Node2&#45;&gt;Node1</title>
<path fill="none" stroke="#404040" d="M67.2184,-121.8056C80.5847,-105.8278 99.2125,-86.9966 120,-76 147.937,-61.2214 222.4436,-48.3741 283.2459,-39.8643"/>
<polygon fill="none" stroke="#404040" points="283.3175,-39.8545 288.7171,-35.0749 295.2058,-38.2208 289.8062,-43.0004 283.3175,-39.8545"/>
<text text-anchor="middle" x="150.5" y="-84.5" font-family="Helvetica,sans-Serif" font-size="10.00" fill="#000000"> +streaming</text>
</g>
<!-- Node3 -->
<g id="node3" class="node">
<title>Node3</title>
<polygon fill="none" stroke="#bfbfbf" points="110,-116.5 110,-184.5 240,-184.5 240,-116.5 110,-116.5"/>
<text text-anchor="start" x="118" y="-172.5" font-family="Helvetica,sans-Serif" font-size="10.00" fill="#000000">vector&lt; o2::framework</text>
<text text-anchor="middle" x="175" y="-161.5" font-family="Helvetica,sans-Serif" font-size="10.00" fill="#000000">::InputChannelInfo &gt;</text>
<polyline fill="none" stroke="#bfbfbf" points="110,-154.5 240,-154.5 "/>
<text text-anchor="middle" x="175" y="-142.5" font-family="Helvetica,sans-Serif" font-size="10.00" fill="#000000"> </text>
<polyline fill="none" stroke="#bfbfbf" points="110,-135.5 240,-135.5 "/>
<text text-anchor="middle" x="175" y="-123.5" font-family="Helvetica,sans-Serif" font-size="10.00" fill="#000000"> </text>
</g>
<!-- Node3&#45;&gt;Node1 -->
<g id="edge2" class="edge">
<title>Node3&#45;&gt;Node1</title>
<path fill="none" stroke="#404040" d="M179.2875,-116.2614C182.7181,-102.0635 188.8918,-86.4922 200,-76 212.7883,-63.9209 248.1222,-53.3034 283.4627,-45.2306"/>
<polygon fill="none" stroke="#404040" points="283.6976,-45.1788 288.6942,-39.9794 295.4154,-42.5919 290.4188,-47.7913 283.6976,-45.1788"/>
<text text-anchor="middle" x="250" y="-84.5" font-family="Helvetica,sans-Serif" font-size="10.00" fill="#000000"> +inputChannelInfos</text>
</g>
<!-- Node4 -->
<g id="node4" class="node">
<title>Node4</title>
<polygon fill="none" stroke="#bfbfbf" points="258,-122 258,-179 380,-179 380,-122 258,-122"/>
<text text-anchor="middle" x="319" y="-167" font-family="Helvetica,sans-Serif" font-size="10.00" fill="#000000">vector&lt; uv_poll_t * &gt;</text>
<polyline fill="none" stroke="#bfbfbf" points="258,-160 380,-160 "/>
<text text-anchor="middle" x="319" y="-148" font-family="Helvetica,sans-Serif" font-size="10.00" fill="#000000"> </text>
<polyline fill="none" stroke="#bfbfbf" points="258,-141 380,-141 "/>
<text text-anchor="middle" x="319" y="-129" font-family="Helvetica,sans-Serif" font-size="10.00" fill="#000000"> </text>
</g>
<!-- Node4&#45;&gt;Node1 -->
<g id="edge3" class="edge">
<title>Node4&#45;&gt;Node1</title>
<path fill="none" stroke="#404040" d="M307.6838,-121.9727C303.7672,-107.53 301.9203,-90.1145 309,-76 310.606,-72.7982 312.5451,-69.7588 314.732,-66.8822"/>
<polygon fill="none" stroke="#404040" points="314.9552,-66.6351 316.0084,-59.5013 322.9985,-57.7297 321.9453,-64.8635 314.9552,-66.6351"/>
<text text-anchor="middle" x="361.5" y="-90" font-family="Helvetica,sans-Serif" font-size="10.00" fill="#000000"> +activeInputPollers</text>
<text text-anchor="middle" x="361.5" y="-79" font-family="Helvetica,sans-Serif" font-size="10.00" fill="#000000">+activeOutputPollers</text>
</g>
<!-- Node5 -->
<g id="node5" class="node">
<title>Node5</title>
<polygon fill="none" stroke="#bfbfbf" points="417,-122 417,-179 455,-179 455,-122 417,-122"/>
<text text-anchor="middle" x="436" y="-167" font-family="Helvetica,sans-Serif" font-size="10.00" fill="#000000">bool</text>
<polyline fill="none" stroke="#bfbfbf" points="417,-160 455,-160 "/>
<text text-anchor="middle" x="436" y="-148" font-family="Helvetica,sans-Serif" font-size="10.00" fill="#000000"> </text>
<polyline fill="none" stroke="#bfbfbf" points="417,-141 455,-141 "/>
<text text-anchor="middle" x="436" y="-129" font-family="Helvetica,sans-Serif" font-size="10.00" fill="#000000"> </text>
</g>
<!-- Node5&#45;&gt;Node1 -->
<g id="edge4" class="edge">
<title>Node5&#45;&gt;Node1</title>
<path fill="none" stroke="#404040" d="M430.6378,-121.7328C427.2013,-107.3914 421.8751,-90.1381 414,-76 412.3276,-72.9976 410.4334,-70.0244 408.3971,-67.1186"/>
<polygon fill="none" stroke="#404040" points="408.3566,-67.066 401.5281,-64.7481 401.0413,-57.5534 407.8698,-59.8713 408.3566,-67.066"/>
<text text-anchor="middle" x="464" y="-84.5" font-family="Helvetica,sans-Serif" font-size="10.00" fill="#000000"> +quitRequested</text>
</g>
<!-- Node6 -->
<g id="node6" class="node">
<title>Node6</title>
<polygon fill="none" stroke="#bfbfbf" points="475.5,-122 475.5,-179 606.5,-179 606.5,-122 475.5,-122"/>
<text text-anchor="middle" x="541" y="-167" font-family="Helvetica,sans-Serif" font-size="10.00" fill="#000000">vector&lt; uv_timer_t * &gt;</text>
<polyline fill="none" stroke="#bfbfbf" points="475.5,-160 606.5,-160 "/>
<text text-anchor="middle" x="541" y="-148" font-family="Helvetica,sans-Serif" font-size="10.00" fill="#000000"> </text>
<polyline fill="none" stroke="#bfbfbf" points="475.5,-141 606.5,-141 "/>
<text text-anchor="middle" x="541" y="-129" font-family="Helvetica,sans-Serif" font-size="10.00" fill="#000000"> </text>
</g>
<!-- Node6&#45;&gt;Node1 -->
<g id="edge5" class="edge">
<title>Node6&#45;&gt;Node1</title>
<path fill="none" stroke="#404040" d="M534.6855,-121.7079C529.9595,-106.2972 522.0044,-88.0613 509,-76 495.2479,-63.2452 477.8786,-53.9331 460.1677,-47.1401"/>
<polygon fill="none" stroke="#404040" points="460.135,-47.1286 453.1448,-48.9 448.8212,-43.1288 455.8114,-41.3574 460.135,-47.1286"/>
<text text-anchor="middle" x="562" y="-84.5" font-family="Helvetica,sans-Serif" font-size="10.00" fill="#000000"> +activeTimers</text>
</g>
<!-- Node7 -->
<g id="node7" class="node">
<title>Node7</title>
<polygon fill="none" stroke="#bfbfbf" points="625,-122 625,-179 697,-179 697,-122 625,-122"/>
<text text-anchor="middle" x="661" y="-167" font-family="Helvetica,sans-Serif" font-size="10.00" fill="#000000">uv_loop_t *</text>
<polyline fill="none" stroke="#bfbfbf" points="625,-160 697,-160 "/>
<text text-anchor="middle" x="661" y="-148" font-family="Helvetica,sans-Serif" font-size="10.00" fill="#000000"> </text>
<polyline fill="none" stroke="#bfbfbf" points="625,-141 697,-141 "/>
<text text-anchor="middle" x="661" y="-129" font-family="Helvetica,sans-Serif" font-size="10.00" fill="#000000"> </text>
</g>
<!-- Node7&#45;&gt;Node1 -->
<g id="edge6" class="edge">
<title>Node7&#45;&gt;Node1</title>
<path fill="none" stroke="#404040" d="M645.9857,-121.9098C636.1472,-105.9679 621.8128,-87.1378 604,-76 580.1802,-61.1063 515.6326,-48.7156 460.6528,-40.4023"/>
<polygon fill="none" stroke="#404040" points="460.5957,-40.3939 454.0752,-43.4734 448.7247,-38.6388 455.2452,-35.5594 460.5957,-40.3939"/>
<text text-anchor="middle" x="644.5" y="-84.5" font-family="Helvetica,sans-Serif" font-size="10.00" fill="#000000"> +loop</text>
</g>
</g>
</svg>
