<?xml version="1.0" encoding="UTF-8" standalone="no"?>
<!DOCTYPE svg PUBLIC "-//W3C//DTD SVG 1.1//EN"
 "http://www.w3.org/Graphics/SVG/1.1/DTD/svg11.dtd">
<!-- Generated by graphviz version 2.40.1 (20161225.0304)
 -->
<!-- Title: /home/travis/build/AliceO2Group/AliceO2/Steer/src/InteractionSampler.cxx Pages: 1 -->
<svg width="1036pt" height="285pt"
 viewBox="0.00 0.00 1035.50 285.00" xmlns="http://www.w3.org/2000/svg" xmlns:xlink="http://www.w3.org/1999/xlink">
<g id="graph0" class="graph" transform="scale(1 1) rotate(0) translate(4 281)">
<title>/home/travis/build/AliceO2Group/AliceO2/Steer/src/InteractionSampler.cxx</title>
<!-- Node0 -->
<g id="node1" class="node">
<title>Node0</title>
<polygon fill="#bfbfbf" stroke="#000000" points="401.5,-235.5 401.5,-276.5 579.5,-276.5 579.5,-235.5 401.5,-235.5"/>
<text text-anchor="start" x="409.5" y="-264.5" font-family="Helvetica,sans-Serif" font-size="10.00" fill="#000000">/home/travis/build</text>
<text text-anchor="start" x="409.5" y="-253.5" font-family="Helvetica,sans-Serif" font-size="10.00" fill="#000000">/AliceO2Group/AliceO2</text>
<text text-anchor="middle" x="490.5" y="-242.5" font-family="Helvetica,sans-Serif" font-size="10.00" fill="#000000">/Steer/src/InteractionSampler.cxx</text>
</g>
<!-- Node1 -->
<g id="node2" class="node">
<title>Node1</title>
<g id="a_node2"><a xlink:href="../../df/dff/InteractionSampler_8h.html" target="_top" xlink:title="Steer/InteractionSampler.h">
<polygon fill="none" stroke="#000000" points="353.5,-179.5 353.5,-198.5 499.5,-198.5 499.5,-179.5 353.5,-179.5"/>
<text text-anchor="middle" x="426.5" y="-186.5" font-family="Helvetica,sans-Serif" font-size="10.00" fill="#000000">Steer/InteractionSampler.h</text>
</a>
</g>
</g>
<!-- Node0&#45;&gt;Node1 -->
<g id="edge1" class="edge">
<title>Node0&#45;&gt;Node1</title>
<path fill="none" stroke="#191970" d="M470.6008,-235.168C461.7232,-225.8742 451.3883,-215.0549 442.9556,-206.227"/>
<polygon fill="#191970" stroke="#191970" points="445.2808,-203.594 435.8425,-198.7805 440.219,-208.4292 445.2808,-203.594"/>
</g>
<!-- Node20 -->
<g id="node21" class="node">
<title>Node20</title>
<polygon fill="none" stroke="#bfbfbf" points="518,-179.5 518,-198.5 593,-198.5 593,-179.5 518,-179.5"/>
<text text-anchor="middle" x="555.5" y="-186.5" font-family="Helvetica,sans-Serif" font-size="10.00" fill="#000000">FairLogger.h</text>
</g>
<!-- Node0&#45;&gt;Node20 -->
<g id="edge24" class="edge">
<title>Node0&#45;&gt;Node20</title>
<path fill="none" stroke="#191970" d="M510.7101,-235.168C519.7265,-225.8742 530.2228,-215.0549 538.7872,-206.227"/>
<polygon fill="#191970" stroke="#191970" points="541.5604,-208.395 546.0115,-198.7805 536.5362,-203.5208 541.5604,-208.395"/>
</g>
<!-- Node2 -->
<g id="node3" class="node">
<title>Node2</title>
<polygon fill="none" stroke="#bfbfbf" points="0,-.5 0,-19.5 59,-19.5 59,-.5 0,-.5"/>
<text text-anchor="middle" x="29.5" y="-7.5" font-family="Helvetica,sans-Serif" font-size="10.00" fill="#000000">Rtypes.h</text>
</g>
<!-- Node1&#45;&gt;Node2 -->
<g id="edge2" class="edge">
<title>Node1&#45;&gt;Node2</title>
<path fill="none" stroke="#191970" d="M353.1485,-182.5337C271.7716,-174.6727 146.0599,-160.2906 101.5,-143 52.3115,-123.9134 28.1239,-122.6633 3.5,-76 -4.7981,-60.2748 4.533,-41.2948 14.248,-27.7327"/>
<polygon fill="#191970" stroke="#191970" points="17.1264,-29.7328 20.5061,-19.6915 11.6022,-25.4335 17.1264,-29.7328"/>
</g>
<!-- Node3 -->
<g id="node4" class="node">
<title>Node3</title>
<polygon fill="none" stroke="#bfbfbf" points="110.5,-118 110.5,-137 166.5,-137 166.5,-118 110.5,-118"/>
<text text-anchor="middle" x="138.5" y="-125" font-family="Helvetica,sans-Serif" font-size="10.00" fill="#000000">TMath.h</text>
</g>
<!-- Node1&#45;&gt;Node3 -->
<g id="edge3" class="edge">
<title>Node1&#45;&gt;Node3</title>
<path fill="none" stroke="#191970" d="M353.304,-179.8348C302.709,-172.472 234.208,-160.4542 175.5,-143 173.3304,-142.355 171.1153,-141.6239 168.9013,-140.839"/>
<polygon fill="#191970" stroke="#191970" points="169.9353,-137.4866 159.3457,-137.1536 167.4164,-144.0177 169.9353,-137.4866"/>
</g>
<!-- Node4 -->
<g id="node5" class="node">
<title>Node4</title>
<polygon fill="none" stroke="#bfbfbf" points="688.5,-56.5 688.5,-75.5 760.5,-75.5 760.5,-56.5 688.5,-56.5"/>
<text text-anchor="middle" x="724.5" y="-63.5" font-family="Helvetica,sans-Serif" font-size="10.00" fill="#000000">TRandom.h</text>
</g>
<!-- Node1&#45;&gt;Node4 -->
<g id="edge4" class="edge">
<title>Node1&#45;&gt;Node4</title>
<path fill="none" stroke="#191970" d="M498.6495,-179.4558C569.6674,-169.5334 669.6091,-153.9501 684.5,-143 703.5845,-128.9661 714.3161,-103.1189 719.7555,-85.2671"/>
<polygon fill="#191970" stroke="#191970" points="723.1379,-86.167 722.4279,-75.596 716.3908,-84.3025 723.1379,-86.167"/>
</g>
<!-- Node5 -->
<g id="node6" class="node">
<title>Node5</title>
<polygon fill="none" stroke="#bfbfbf" points="377,-118 377,-137 424,-137 424,-118 377,-118"/>
<text text-anchor="middle" x="400.5" y="-125" font-family="Helvetica,sans-Serif" font-size="10.00" fill="#000000">vector</text>
</g>
<!-- Node1&#45;&gt;Node5 -->
<g id="edge5" class="edge">
<title>Node1&#45;&gt;Node5</title>
<path fill="none" stroke="#191970" d="M422.4375,-179.3906C418.7576,-170.6862 413.2258,-157.6015 408.638,-146.7494"/>
<polygon fill="#191970" stroke="#191970" points="411.7375,-145.0927 404.6198,-137.2449 405.29,-147.8185 411.7375,-145.0927"/>
</g>
<!-- Node6 -->
<g id="node7" class="node">
<title>Node6</title>
<g id="a_node7"><a xlink:href="../../d9/d80/InteractionRecord_8h.html" target="_top" xlink:title="CommonDataFormat/Interaction\lRecord.h">
<polygon fill="none" stroke="#000000" points="184.5,-112.5 184.5,-142.5 358.5,-142.5 358.5,-112.5 184.5,-112.5"/>
<text text-anchor="start" x="192.5" y="-130.5" font-family="Helvetica,sans-Serif" font-size="10.00" fill="#000000">CommonDataFormat/Interaction</text>
<text text-anchor="middle" x="271.5" y="-119.5" font-family="Helvetica,sans-Serif" font-size="10.00" fill="#000000">Record.h</text>
</a>
</g>
</g>
<!-- Node1&#45;&gt;Node6 -->
<g id="edge6" class="edge">
<title>Node1&#45;&gt;Node6</title>
<path fill="none" stroke="#191970" d="M402.2813,-179.3906C380.0414,-170.5664 346.4555,-157.2404 318.8886,-146.3026"/>
<polygon fill="#191970" stroke="#191970" points="320.0032,-142.9794 309.4173,-142.5446 317.4215,-149.486 320.0032,-142.9794"/>
</g>
<!-- Node11 -->
<g id="node12" class="node">
<title>Node11</title>
<g id="a_node12"><a xlink:href="../../d4/dc6/LHCConstants_8h.html" target="_top" xlink:title="Header to collect LHC related constants. ">
<polygon fill="none" stroke="#000000" points="356.5,-56.5 356.5,-75.5 546.5,-75.5 546.5,-56.5 356.5,-56.5"/>
<text text-anchor="middle" x="451.5" y="-63.5" font-family="Helvetica,sans-Serif" font-size="10.00" fill="#000000">CommonConstants/LHCConstants.h</text>
</a>
</g>
</g>
<!-- Node1&#45;&gt;Node11 -->
<g id="edge17" class="edge">
<title>Node1&#45;&gt;Node11</title>
<path fill="none" stroke="#191970" d="M428.4617,-179.3484C432.5509,-159.2295 442.0567,-112.4608 447.4939,-85.7098"/>
<polygon fill="#191970" stroke="#191970" points="450.9854,-86.1036 449.5474,-75.6068 444.1257,-84.7092 450.9854,-86.1036"/>
</g>
<!-- Node12 -->
<g id="node13" class="node">
<title>Node12</title>
<g id="a_node13"><a xlink:href="../../d4/d5f/BunchFilling_8h.html" target="_top" xlink:title="CommonDataFormat/BunchFilling.h">
<polygon fill="none" stroke="#000000" points="487,-118 487,-137 676,-137 676,-118 487,-118"/>
<text text-anchor="middle" x="581.5" y="-125" font-family="Helvetica,sans-Serif" font-size="10.00" fill="#000000">CommonDataFormat/BunchFilling.h</text>
</a>
</g>
</g>
<!-- Node1&#45;&gt;Node12 -->
<g id="edge13" class="edge">
<title>Node1&#45;&gt;Node12</title>
<path fill="none" stroke="#191970" d="M450.7188,-179.3906C476.8806,-169.0103 518.7429,-152.4004 548.0388,-140.7766"/>
<polygon fill="#191970" stroke="#191970" points="549.4471,-143.9833 557.4513,-137.0419 546.8654,-137.4767 549.4471,-143.9833"/>
</g>
<!-- Node15 -->
<g id="node16" class="node">
<title>Node15</title>
<g id="a_node16"><a xlink:href="../../db/dac/RandomRing_8h.html" target="_top" xlink:title="MathUtils/RandomRing.h">
<polygon fill="none" stroke="#000000" points="736,-118 736,-137 873,-137 873,-118 736,-118"/>
<text text-anchor="middle" x="804.5" y="-125" font-family="Helvetica,sans-Serif" font-size="10.00" fill="#000000">MathUtils/RandomRing.h</text>
</a>
</g>
</g>
<!-- Node1&#45;&gt;Node15 -->
<g id="edge18" class="edge">
<title>Node1&#45;&gt;Node15</title>
<path fill="none" stroke="#191970" d="M490.5284,-179.4962C550.1405,-170.526 641.4342,-156.4776 720.5,-143 728.1063,-141.7034 736.0906,-140.2936 743.9852,-138.8701"/>
<polygon fill="#191970" stroke="#191970" points="744.689,-142.2996 753.9017,-137.0673 743.4369,-135.4125 744.689,-142.2996"/>
</g>
<!-- Node7 -->
<g id="node8" class="node">
<title>Node7</title>
<g id="a_node8"><a xlink:href="../../d2/d45/GPUCommonRtypes_8h.html" target="_top" xlink:title="GPUCommonRtypes.h">
<polygon fill="none" stroke="#000000" points="13,-56.5 13,-75.5 138,-75.5 138,-56.5 13,-56.5"/>
<text text-anchor="middle" x="75.5" y="-63.5" font-family="Helvetica,sans-Serif" font-size="10.00" fill="#000000">GPUCommonRtypes.h</text>
</a>
</g>
</g>
<!-- Node6&#45;&gt;Node7 -->
<g id="edge7" class="edge">
<title>Node6&#45;&gt;Node7</title>
<path fill="none" stroke="#191970" d="M223.553,-112.4554C190.4196,-102.059 146.8517,-88.3884 115.5692,-78.5727"/>
<polygon fill="#191970" stroke="#191970" points="116.4622,-75.1848 105.873,-75.5303 114.3665,-81.8637 116.4622,-75.1848"/>
</g>
<!-- Node8 -->
<g id="node9" class="node">
<title>Node8</title>
<polygon fill="none" stroke="#bfbfbf" points="156,-56.5 156,-75.5 205,-75.5 205,-56.5 156,-56.5"/>
<text text-anchor="middle" x="180.5" y="-63.5" font-family="Helvetica,sans-Serif" font-size="10.00" fill="#000000">iosfwd</text>
</g>
<!-- Node6&#45;&gt;Node8 -->
<g id="edge9" class="edge">
<title>Node6&#45;&gt;Node8</title>
<path fill="none" stroke="#191970" d="M249.0056,-112.2977C235.1033,-102.9022 217.3124,-90.8787 203.3454,-81.4395"/>
<polygon fill="#191970" stroke="#191970" points="205.0436,-78.3629 194.7985,-75.6633 201.124,-84.1626 205.0436,-78.3629"/>
</g>
<!-- Node9 -->
<g id="node10" class="node">
<title>Node9</title>
<polygon fill="none" stroke="#bfbfbf" points="223,-56.5 223,-75.5 270,-75.5 270,-56.5 223,-56.5"/>
<text text-anchor="middle" x="246.5" y="-63.5" font-family="Helvetica,sans-Serif" font-size="10.00" fill="#000000">cmath</text>
</g>
<!-- Node6&#45;&gt;Node9 -->
<g id="edge10" class="edge">
<title>Node6&#45;&gt;Node9</title>
<path fill="none" stroke="#191970" d="M265.3202,-112.2977C261.9946,-104.1166 257.8589,-93.943 254.3121,-85.2179"/>
<polygon fill="#191970" stroke="#191970" points="257.511,-83.7927 250.5028,-75.8469 251.0263,-86.4288 257.511,-83.7927"/>
</g>
<!-- Node10 -->
<g id="node11" class="node">
<title>Node10</title>
<polygon fill="none" stroke="#bfbfbf" points="288.5,-56.5 288.5,-75.5 338.5,-75.5 338.5,-56.5 288.5,-56.5"/>
<text text-anchor="middle" x="313.5" y="-63.5" font-family="Helvetica,sans-Serif" font-size="10.00" fill="#000000">cstdint</text>
</g>
<!-- Node6&#45;&gt;Node10 -->
<g id="edge11" class="edge">
<title>Node6&#45;&gt;Node10</title>
<path fill="none" stroke="#191970" d="M281.882,-112.2977C287.6513,-103.8498 294.8716,-93.2773 300.9553,-84.369"/>
<polygon fill="#191970" stroke="#191970" points="304.0259,-86.0788 306.7753,-75.8469 298.2453,-82.1311 304.0259,-86.0788"/>
</g>
<!-- Node6&#45;&gt;Node11 -->
<g id="edge12" class="edge">
<title>Node6&#45;&gt;Node11</title>
<path fill="none" stroke="#191970" d="M315.533,-112.4554C345.6981,-102.149 385.2808,-88.6249 413.953,-78.8286"/>
<polygon fill="#191970" stroke="#191970" points="415.2751,-82.0756 423.6064,-75.5303 413.0118,-75.4515 415.2751,-82.0756"/>
</g>
<!-- Node7&#45;&gt;Node2 -->
<g id="edge8" class="edge">
<title>Node7&#45;&gt;Node2</title>
<path fill="none" stroke="#191970" d="M67.4874,-56.2455C61.0232,-48.3761 51.7615,-37.101 44.0017,-27.6542"/>
<polygon fill="#191970" stroke="#191970" points="46.4727,-25.1484 37.4208,-19.6427 41.0636,-29.5916 46.4727,-25.1484"/>
</g>
<!-- Node12&#45;&gt;Node11 -->
<g id="edge14" class="edge">
<title>Node12&#45;&gt;Node11</title>
<path fill="none" stroke="#191970" d="M561.1875,-117.8906C539.6269,-107.6908 505.3522,-91.4763 480.8556,-79.8875"/>
<polygon fill="#191970" stroke="#191970" points="482.2061,-76.6545 471.6699,-75.5419 479.2126,-82.9822 482.2061,-76.6545"/>
</g>
<!-- Node13 -->
<g id="node14" class="node">
<title>Node13</title>
<polygon fill="none" stroke="#bfbfbf" points="626.5,-56.5 626.5,-75.5 670.5,-75.5 670.5,-56.5 626.5,-56.5"/>
<text text-anchor="middle" x="648.5" y="-63.5" font-family="Helvetica,sans-Serif" font-size="10.00" fill="#000000">bitset</text>
</g>
<!-- Node12&#45;&gt;Node13 -->
<g id="edge15" class="edge">
<title>Node12&#45;&gt;Node13</title>
<path fill="none" stroke="#191970" d="M591.9688,-117.8906C602.2337,-108.4683 618.0903,-93.9134 630.4006,-82.6137"/>
<polygon fill="#191970" stroke="#191970" points="632.8834,-85.0856 637.8837,-75.7449 628.1499,-79.9287 632.8834,-85.0856"/>
</g>
<!-- Node14 -->
<g id="node15" class="node">
<title>Node14</title>
<polygon fill="none" stroke="#bfbfbf" points="564.5,-56.5 564.5,-75.5 608.5,-75.5 608.5,-56.5 564.5,-56.5"/>
<text text-anchor="middle" x="586.5" y="-63.5" font-family="Helvetica,sans-Serif" font-size="10.00" fill="#000000">string</text>
</g>
<!-- Node12&#45;&gt;Node14 -->
<g id="edge16" class="edge">
<title>Node12&#45;&gt;Node14</title>
<path fill="none" stroke="#191970" d="M582.2813,-117.8906C582.9743,-109.3657 584.009,-96.6392 584.8802,-85.9235"/>
<polygon fill="#191970" stroke="#191970" points="588.3858,-85.9956 585.7077,-75.7449 581.4088,-85.4283 588.3858,-85.9956"/>
</g>
<!-- Node15&#45;&gt;Node4 -->
<g id="edge22" class="edge">
<title>Node15&#45;&gt;Node4</title>
<path fill="none" stroke="#191970" d="M792,-117.8906C779.4364,-108.2324 759.8577,-93.1812 745.0151,-81.771"/>
<polygon fill="#191970" stroke="#191970" points="746.9735,-78.8618 736.9122,-75.5419 742.7072,-84.4115 746.9735,-78.8618"/>
</g>
<!-- Node16 -->
<g id="node17" class="node">
<title>Node16</title>
<polygon fill="none" stroke="#bfbfbf" points="983.5,-56.5 983.5,-75.5 1027.5,-75.5 1027.5,-56.5 983.5,-56.5"/>
<text text-anchor="middle" x="1005.5" y="-63.5" font-family="Helvetica,sans-Serif" font-size="10.00" fill="#000000">Vc/Vc</text>
</g>
<!-- Node15&#45;&gt;Node16 -->
<g id="edge19" class="edge">
<title>Node15&#45;&gt;Node16</title>
<path fill="none" stroke="#191970" d="M836.5112,-117.9885C868.7853,-108.3579 920.2726,-92.8829 973.5517,-76.2628"/>
<polygon fill="#191970" stroke="#191970" points="974.664,-79.5822 983.1641,-73.2578 972.5753,-72.9011 974.664,-79.5822"/>
</g>
<!-- Node17 -->
<g id="node18" class="node">
<title>Node17</title>
<polygon fill="none" stroke="#bfbfbf" points="778.5,-56.5 778.5,-75.5 820.5,-75.5 820.5,-56.5 778.5,-56.5"/>
<text text-anchor="middle" x="799.5" y="-63.5" font-family="Helvetica,sans-Serif" font-size="10.00" fill="#000000">array</text>
</g>
<!-- Node15&#45;&gt;Node17 -->
<g id="edge20" class="edge">
<title>Node15&#45;&gt;Node17</title>
<path fill="none" stroke="#191970" d="M803.7188,-117.8906C803.0257,-109.3657 801.991,-96.6392 801.1198,-85.9235"/>
<polygon fill="#191970" stroke="#191970" points="804.5912,-85.4283 800.2923,-75.7449 797.6142,-85.9956 804.5912,-85.4283"/>
</g>
<!-- Node18 -->
<g id="node19" class="node">
<title>Node18</title>
<polygon fill="none" stroke="#bfbfbf" points="839,-56.5 839,-75.5 882,-75.5 882,-56.5 839,-56.5"/>
<text text-anchor="middle" x="860.5" y="-63.5" font-family="Helvetica,sans-Serif" font-size="10.00" fill="#000000">TF1.h</text>
</g>
<!-- Node15&#45;&gt;Node18 -->
<g id="edge21" class="edge">
<title>Node15&#45;&gt;Node18</title>
<path fill="none" stroke="#191970" d="M813.25,-117.8906C821.6662,-108.6478 834.5797,-94.466 844.781,-83.2628"/>
<polygon fill="#191970" stroke="#191970" points="847.4818,-85.4953 851.6266,-75.7449 842.306,-80.7824 847.4818,-85.4953"/>
</g>
<!-- Node19 -->
<g id="node20" class="node">
<title>Node19</title>
<polygon fill="none" stroke="#bfbfbf" points="900,-56.5 900,-75.5 965,-75.5 965,-56.5 900,-56.5"/>
<text text-anchor="middle" x="932.5" y="-63.5" font-family="Helvetica,sans-Serif" font-size="10.00" fill="#000000">functional</text>
</g>
<!-- Node15&#45;&gt;Node19 -->
<g id="edge23" class="edge">
<title>Node15&#45;&gt;Node19</title>
<path fill="none" stroke="#191970" d="M824.5,-117.8906C845.7289,-107.6908 879.4762,-91.4763 903.596,-79.8875"/>
<polygon fill="#191970" stroke="#191970" points="905.1426,-83.0275 912.6404,-75.5419 902.1111,-76.7179 905.1426,-83.0275"/>
</g>
</g>
</svg>
