<?xml version="1.0" encoding="UTF-8" standalone="no"?>
<!DOCTYPE svg PUBLIC "-//W3C//DTD SVG 1.1//EN"
 "http://www.w3.org/Graphics/SVG/1.1/DTD/svg11.dtd">
<!-- Generated by graphviz version 2.40.1 (20161225.0304)
 -->
<!-- Title: /home/travis/build/AliceO2Group/AliceO2/GPU/GPUTracking/Merger/GPUTPCGMMerger.h Pages: 1 -->
<svg width="1850pt" height="453pt"
 viewBox="0.00 0.00 1849.50 453.00" xmlns="http://www.w3.org/2000/svg" xmlns:xlink="http://www.w3.org/1999/xlink">
<g id="graph0" class="graph" transform="scale(1 1) rotate(0) translate(4 449)">
<title>/home/travis/build/AliceO2Group/AliceO2/GPU/GPUTracking/Merger/GPUTPCGMMerger.h</title>
<!-- Node0 -->
<g id="node1" class="node">
<title>Node0</title>
<polygon fill="#bfbfbf" stroke="#000000" points="818.5,-392.5 818.5,-444.5 960.5,-444.5 960.5,-392.5 818.5,-392.5"/>
<text text-anchor="start" x="826.5" y="-432.5" font-family="Helvetica,sans-Serif" font-size="10.00" fill="#000000">/home/travis/build</text>
<text text-anchor="start" x="826.5" y="-421.5" font-family="Helvetica,sans-Serif" font-size="10.00" fill="#000000">/AliceO2Group/AliceO2</text>
<text text-anchor="start" x="826.5" y="-410.5" font-family="Helvetica,sans-Serif" font-size="10.00" fill="#000000">/GPU/GPUTracking/Merger</text>
<text text-anchor="middle" x="889.5" y="-399.5" font-family="Helvetica,sans-Serif" font-size="10.00" fill="#000000">/GPUTPCGMMerger.h</text>
</g>
<!-- Node1 -->
<g id="node2" class="node">
<title>Node1</title>
<g id="a_node2"><a xlink:href="../../df/d13/GPUParam_8h.html" target="_top" xlink:title="GPUParam.h">
<polygon fill="none" stroke="#000000" points="216,-280.5 216,-299.5 293,-299.5 293,-280.5 216,-280.5"/>
<text text-anchor="middle" x="254.5" y="-287.5" font-family="Helvetica,sans-Serif" font-size="10.00" fill="#000000">GPUParam.h</text>
</a>
</g>
</g>
<!-- Node0&#45;&gt;Node1 -->
<g id="edge1" class="edge">
<title>Node0&#45;&gt;Node1</title>
<path fill="none" stroke="#191970" d="M818.2302,-413.4069C728.069,-405.8916 568.5129,-389.0064 435.5,-356 381.3464,-342.5621 320.9129,-318.6124 285.3784,-303.5565"/>
<polygon fill="#191970" stroke="#191970" points="286.6127,-300.2777 276.042,-299.5619 283.8591,-306.7134 286.6127,-300.2777"/>
</g>
<!-- Node2 -->
<g id="node3" class="node">
<title>Node2</title>
<g id="a_node3"><a xlink:href="../../df/d21/GPUCommonDef_8h.html" target="_top" xlink:title="GPUCommonDef.h">
<polygon fill="none" stroke="#000000" points="423,-56.5 423,-75.5 530,-75.5 530,-56.5 423,-56.5"/>
<text text-anchor="middle" x="476.5" y="-63.5" font-family="Helvetica,sans-Serif" font-size="10.00" fill="#000000">GPUCommonDef.h</text>
</a>
</g>
</g>
<!-- Node0&#45;&gt;Node2 -->
<g id="edge54" class="edge">
<title>Node0&#45;&gt;Node2</title>
<path fill="none" stroke="#191970" d="M818.189,-397.697C740.8912,-372.1351 617.7276,-322.2687 536.5,-244 496.1338,-205.1041 488.9028,-187.0827 478.5,-132 475.637,-116.8405 475.2314,-99.3801 475.4908,-86.2273"/>
<polygon fill="#191970" stroke="#191970" points="478.9986,-86.0583 475.8448,-75.9438 472.0027,-85.8175 478.9986,-86.0583"/>
</g>
<!-- Node6 -->
<g id="node7" class="node">
<title>Node6</title>
<polygon fill="none" stroke="#bfbfbf" points="197,-112.5 197,-131.5 244,-131.5 244,-112.5 197,-112.5"/>
<text text-anchor="middle" x="220.5" y="-119.5" font-family="Helvetica,sans-Serif" font-size="10.00" fill="#000000">cmath</text>
</g>
<!-- Node0&#45;&gt;Node6 -->
<g id="edge66" class="edge">
<title>Node0&#45;&gt;Node6</title>
<path fill="none" stroke="#191970" d="M818.2888,-415.0201C716.6743,-408.9274 524.7424,-393.2293 365.5,-356 292.9538,-339.0394 268.7112,-342.4713 207.5,-300 174.8702,-277.3598 150.0652,-262.3197 160.5,-224 169.3472,-191.5103 191.4595,-158.8132 206.2251,-139.4916"/>
<polygon fill="#191970" stroke="#191970" points="208.9954,-141.6308 212.4183,-131.6041 203.4897,-137.3078 208.9954,-141.6308"/>
</g>
<!-- Node18 -->
<g id="node19" class="node">
<title>Node18</title>
<g id="a_node19"><a xlink:href="../../da/dab/GPUTPCDef_8h.html" target="_top" xlink:title="GPUTPCDef.h">
<polygon fill="none" stroke="#000000" points="1224.5,-168.5 1224.5,-187.5 1306.5,-187.5 1306.5,-168.5 1224.5,-168.5"/>
<text text-anchor="middle" x="1265.5" y="-175.5" font-family="Helvetica,sans-Serif" font-size="10.00" fill="#000000">GPUTPCDef.h</text>
</a>
</g>
</g>
<!-- Node0&#45;&gt;Node18 -->
<g id="edge24" class="edge">
<title>Node0&#45;&gt;Node18</title>
<path fill="none" stroke="#191970" d="M960.5259,-413.4662C1150.4142,-399.2916 1658.753,-356.3757 1707.5,-300 1729.6409,-274.3942 1735.1779,-249.1314 1712.5,-224 1686.367,-195.0396 1428.2242,-183.2533 1316.5493,-179.4829"/>
<polygon fill="#191970" stroke="#191970" points="1316.6399,-175.9841 1306.5301,-179.1529 1316.4095,-182.9803 1316.6399,-175.9841"/>
</g>
<!-- Node19 -->
<g id="node20" class="node">
<title>Node19</title>
<g id="a_node20"><a xlink:href="../../d8/dd4/GPUTPCGMBorderTrack_8h.html" target="_top" xlink:title="GPUTPCGMBorderTrack.h">
<polygon fill="none" stroke="#000000" points="350,-224.5 350,-243.5 489,-243.5 489,-224.5 350,-224.5"/>
<text text-anchor="middle" x="419.5" y="-231.5" font-family="Helvetica,sans-Serif" font-size="10.00" fill="#000000">GPUTPCGMBorderTrack.h</text>
</a>
</g>
</g>
<!-- Node0&#45;&gt;Node19 -->
<g id="edge25" class="edge">
<title>Node0&#45;&gt;Node19</title>
<path fill="none" stroke="#191970" d="M818.461,-413.6593C721.6961,-405.9527 554.6279,-388.3523 503.5,-356 464.1916,-331.1267 438.4938,-280.4913 426.7983,-252.9199"/>
<polygon fill="#191970" stroke="#191970" points="430.0112,-251.5292 423.0023,-243.584 423.5267,-254.1659 430.0112,-251.5292"/>
</g>
<!-- Node20 -->
<g id="node21" class="node">
<title>Node20</title>
<g id="a_node21"><a xlink:href="../../d8/dfd/GPUTPCGMMergedTrack_8h.html" target="_top" xlink:title="GPUTPCGMMergedTrack.h">
<polygon fill="none" stroke="#000000" points="818,-280.5 818,-299.5 961,-299.5 961,-280.5 818,-280.5"/>
<text text-anchor="middle" x="889.5" y="-287.5" font-family="Helvetica,sans-Serif" font-size="10.00" fill="#000000">GPUTPCGMMergedTrack.h</text>
</a>
</g>
</g>
<!-- Node0&#45;&gt;Node20 -->
<g id="edge28" class="edge">
<title>Node0&#45;&gt;Node20</title>
<path fill="none" stroke="#191970" d="M889.5,-392.4961C889.5,-368.0156 889.5,-331.8881 889.5,-309.7068"/>
<polygon fill="#191970" stroke="#191970" points="893.0001,-309.5141 889.5,-299.5142 886.0001,-309.5142 893.0001,-309.5141"/>
</g>
<!-- Node25 -->
<g id="node26" class="node">
<title>Node25</title>
<g id="a_node26"><a xlink:href="../../d1/dc3/GPUTPCGMSliceTrack_8h.html" target="_top" xlink:title="GPUTPCGMSliceTrack.h">
<polygon fill="none" stroke="#000000" points="724.5,-336.5 724.5,-355.5 854.5,-355.5 854.5,-336.5 724.5,-336.5"/>
<text text-anchor="middle" x="789.5" y="-343.5" font-family="Helvetica,sans-Serif" font-size="10.00" fill="#000000">GPUTPCGMSliceTrack.h</text>
</a>
</g>
</g>
<!-- Node0&#45;&gt;Node25 -->
<g id="edge38" class="edge">
<title>Node0&#45;&gt;Node25</title>
<path fill="none" stroke="#191970" d="M853.3977,-392.3258C839.172,-382.0122 823.3158,-370.5165 810.9575,-361.5567"/>
<polygon fill="#191970" stroke="#191970" points="812.8009,-358.5701 802.6503,-355.534 808.6921,-364.2374 812.8009,-358.5701"/>
</g>
<!-- Node32 -->
<g id="node33" class="node">
<title>Node32</title>
<g id="a_node33"><a xlink:href="../../d6/d57/GPUProcessor_8h.html" target="_top" xlink:title="GPUProcessor.h">
<polygon fill="none" stroke="#000000" points="962,-168.5 962,-187.5 1055,-187.5 1055,-168.5 962,-168.5"/>
<text text-anchor="middle" x="1008.5" y="-175.5" font-family="Helvetica,sans-Serif" font-size="10.00" fill="#000000">GPUProcessor.h</text>
</a>
</g>
</g>
<!-- Node0&#45;&gt;Node32 -->
<g id="edge55" class="edge">
<title>Node0&#45;&gt;Node32</title>
<path fill="none" stroke="#191970" d="M910.9279,-392.1416C928.871,-369.0122 954.1065,-333.8702 970.5,-300 987.1786,-265.5407 998.6388,-222.1011 1004.337,-197.4472"/>
<polygon fill="#191970" stroke="#191970" points="1007.7855,-198.0637 1006.5477,-187.5414 1000.9535,-196.539 1007.7855,-198.0637"/>
</g>
<!-- Node33 -->
<g id="node34" class="node">
<title>Node33</title>
<g id="a_node34"><a xlink:href="../../de/d4c/GPUTPCGMMergerTypes_8h.html" target="_top" xlink:title="GPUTPCGMMergerTypes.h">
<polygon fill="none" stroke="#000000" points="1555,-280.5 1555,-299.5 1698,-299.5 1698,-280.5 1555,-280.5"/>
<text text-anchor="middle" x="1626.5" y="-287.5" font-family="Helvetica,sans-Serif" font-size="10.00" fill="#000000">GPUTPCGMMergerTypes.h</text>
</a>
</g>
</g>
<!-- Node0&#45;&gt;Node33 -->
<g id="edge60" class="edge">
<title>Node0&#45;&gt;Node33</title>
<path fill="none" stroke="#191970" d="M960.9301,-414.587C1063.8947,-407.9423 1259.5611,-391.5502 1422.5,-356 1483.6872,-342.6501 1552.5594,-318.3414 1592.5883,-303.2439"/>
<polygon fill="#191970" stroke="#191970" points="1594.0201,-306.444 1602.1215,-299.6163 1591.5305,-299.9017 1594.0201,-306.444"/>
</g>
<!-- Node34 -->
<g id="node35" class="node">
<title>Node34</title>
<g id="a_node35"><a xlink:href="../../d9/de5/GPUGeneralKernels_8h.html" target="_top" xlink:title="GPUGeneralKernels.h">
<polygon fill="none" stroke="#000000" points="1566,-224.5 1566,-243.5 1687,-243.5 1687,-224.5 1566,-224.5"/>
<text text-anchor="middle" x="1626.5" y="-231.5" font-family="Helvetica,sans-Serif" font-size="10.00" fill="#000000">GPUGeneralKernels.h</text>
</a>
</g>
</g>
<!-- Node0&#45;&gt;Node34 -->
<g id="edge65" class="edge">
<title>Node0&#45;&gt;Node34</title>
<path fill="none" stroke="#191970" d="M960.5012,-400.7256C1109.6085,-363.3982 1451.9745,-277.6906 1578.4228,-246.0356"/>
<polygon fill="#191970" stroke="#191970" points="1579.3621,-249.4085 1588.2128,-243.5848 1577.6622,-242.6181 1579.3621,-249.4085"/>
</g>
<!-- Node35 -->
<g id="node36" class="node">
<title>Node35</title>
<polygon fill="none" stroke="#bfbfbf" points="1781.5,-336.5 1781.5,-355.5 1841.5,-355.5 1841.5,-336.5 1781.5,-336.5"/>
<text text-anchor="middle" x="1811.5" y="-343.5" font-family="Helvetica,sans-Serif" font-size="10.00" fill="#000000">iostream</text>
</g>
<!-- Node0&#45;&gt;Node35 -->
<g id="edge67" class="edge">
<title>Node0&#45;&gt;Node35</title>
<path fill="none" stroke="#191970" d="M960.7445,-417.1031C1110.7612,-413.3565 1469.8997,-400.1474 1767.5,-356 1768.764,-355.8125 1770.0456,-355.6083 1771.3374,-355.3902"/>
<polygon fill="#191970" stroke="#191970" points="1772.1458,-358.7994 1781.3179,-353.4962 1770.8406,-351.9221 1772.1458,-358.7994"/>
</g>
<!-- Node1&#45;&gt;Node2 -->
<g id="edge2" class="edge">
<title>Node1&#45;&gt;Node2</title>
<path fill="none" stroke="#191970" d="M215.7736,-281.4862C195.5792,-274.8689 172.6185,-263.422 160.5,-244 137.9233,-207.8168 97.6685,-195.2879 188.5,-112 220.3561,-82.7896 337.8044,-72.0813 412.519,-68.1885"/>
<polygon fill="#191970" stroke="#191970" points="412.9492,-71.6716 422.7646,-67.6832 412.6043,-64.6801 412.9492,-71.6716"/>
</g>
<!-- Node5 -->
<g id="node6" class="node">
<title>Node5</title>
<g id="a_node6"><a xlink:href="../../d6/da2/GPUCommonMath_8h.html" target="_top" xlink:title="GPUCommonMath.h">
<polygon fill="none" stroke="#000000" points="253,-168.5 253,-187.5 368,-187.5 368,-168.5 253,-168.5"/>
<text text-anchor="middle" x="310.5" y="-175.5" font-family="Helvetica,sans-Serif" font-size="10.00" fill="#000000">GPUCommonMath.h</text>
</a>
</g>
</g>
<!-- Node1&#45;&gt;Node5 -->
<g id="edge5" class="edge">
<title>Node1&#45;&gt;Node5</title>
<path fill="none" stroke="#191970" d="M259.2745,-280.4509C268.532,-261.936 289.0705,-220.8591 301.1407,-196.7187"/>
<polygon fill="#191970" stroke="#191970" points="304.3959,-198.0344 305.7376,-187.5249 298.1349,-194.9039 304.3959,-198.0344"/>
</g>
<!-- Node8 -->
<g id="node9" class="node">
<title>Node8</title>
<g id="a_node9"><a xlink:href="../../d2/d6d/GPUDef_8h.html" target="_top" xlink:title="GPUDef.h">
<polygon fill="none" stroke="#000000" points="1052,-112.5 1052,-131.5 1115,-131.5 1115,-112.5 1052,-112.5"/>
<text text-anchor="middle" x="1083.5" y="-119.5" font-family="Helvetica,sans-Serif" font-size="10.00" fill="#000000">GPUDef.h</text>
</a>
</g>
</g>
<!-- Node1&#45;&gt;Node8 -->
<g id="edge9" class="edge">
<title>Node1&#45;&gt;Node8</title>
<path fill="none" stroke="#191970" d="M293.0641,-288.6459C414.5164,-284.1664 788.0529,-268.6926 906.5,-244 979.4345,-228.7954 1013.4313,-242.2458 1064.5,-188 1076.2235,-175.5472 1080.7744,-156.3291 1082.5099,-141.8363"/>
<polygon fill="#191970" stroke="#191970" points="1085.9978,-142.1263 1083.3605,-131.865 1079.0231,-141.5314 1085.9978,-142.1263"/>
</g>
<!-- Node15 -->
<g id="node16" class="node">
<title>Node15</title>
<g id="a_node16"><a xlink:href="../../dd/dc6/GPUSettings_8h.html" target="_top" xlink:title="GPUSettings.h">
<polygon fill="none" stroke="#000000" points="169.5,-224.5 169.5,-243.5 255.5,-243.5 255.5,-224.5 169.5,-224.5"/>
<text text-anchor="middle" x="212.5" y="-231.5" font-family="Helvetica,sans-Serif" font-size="10.00" fill="#000000">GPUSettings.h</text>
</a>
</g>
</g>
<!-- Node1&#45;&gt;Node15 -->
<g id="edge17" class="edge">
<title>Node1&#45;&gt;Node15</title>
<path fill="none" stroke="#191970" d="M247.1842,-280.2455C241.2821,-272.3761 232.8258,-261.101 225.7406,-251.6542"/>
<polygon fill="#191970" stroke="#191970" points="228.5321,-249.5427 219.732,-243.6427 222.932,-253.7427 228.5321,-249.5427"/>
</g>
<!-- Node16 -->
<g id="node17" class="node">
<title>Node16</title>
<g id="a_node17"><a xlink:href="../../d6/d1b/GPUTPCGeometry_8h.html" target="_top" xlink:title="GPUTPCGeometry.h">
<polygon fill="none" stroke="#000000" points="0,-112.5 0,-131.5 113,-131.5 113,-112.5 0,-112.5"/>
<text text-anchor="middle" x="56.5" y="-119.5" font-family="Helvetica,sans-Serif" font-size="10.00" fill="#000000">GPUTPCGeometry.h</text>
</a>
</g>
</g>
<!-- Node1&#45;&gt;Node16 -->
<g id="edge19" class="edge">
<title>Node1&#45;&gt;Node16</title>
<path fill="none" stroke="#191970" d="M215.7175,-283.2527C188.5765,-276.9088 152.7925,-265.115 127.5,-244 94.1008,-216.1172 72.879,-168.2315 63.0079,-141.4979"/>
<polygon fill="#191970" stroke="#191970" points="66.2001,-140.0259 59.5721,-131.7602 59.5989,-142.3551 66.2001,-140.0259"/>
</g>
<!-- Node17 -->
<g id="node18" class="node">
<title>Node17</title>
<g id="a_node18"><a xlink:href="../../d9/d9c/GPUTPCGMPolynomialField_8h.html" target="_top" xlink:title="GPUTPCGMPolynomialField.h">
<polygon fill="none" stroke="#000000" points="1029.5,-224.5 1029.5,-243.5 1187.5,-243.5 1187.5,-224.5 1029.5,-224.5"/>
<text text-anchor="middle" x="1108.5" y="-231.5" font-family="Helvetica,sans-Serif" font-size="10.00" fill="#000000">GPUTPCGMPolynomialField.h</text>
</a>
</g>
</g>
<!-- Node1&#45;&gt;Node17 -->
<g id="edge21" class="edge">
<title>Node1&#45;&gt;Node17</title>
<path fill="none" stroke="#191970" d="M293.1333,-287.4667C421.3698,-279.0577 835.1829,-251.9224 1019.038,-239.8664"/>
<polygon fill="#191970" stroke="#191970" points="1019.466,-243.3459 1029.2155,-239.199 1019.0079,-236.3609 1019.466,-243.3459"/>
</g>
<!-- Node3 -->
<g id="node4" class="node">
<title>Node3</title>
<g id="a_node4"><a xlink:href="../../d5/d93/GPUCommonDefSettings_8h.html" target="_top" xlink:title="GPUCommonDefSettings.h">
<polygon fill="none" stroke="#000000" points="366.5,-.5 366.5,-19.5 514.5,-19.5 514.5,-.5 366.5,-.5"/>
<text text-anchor="middle" x="440.5" y="-7.5" font-family="Helvetica,sans-Serif" font-size="10.00" fill="#000000">GPUCommonDefSettings.h</text>
</a>
</g>
</g>
<!-- Node2&#45;&gt;Node3 -->
<g id="edge3" class="edge">
<title>Node2&#45;&gt;Node3</title>
<path fill="none" stroke="#191970" d="M470.2293,-56.2455C465.2736,-48.5367 458.217,-37.5598 452.2224,-28.2348"/>
<polygon fill="#191970" stroke="#191970" points="455.0506,-26.1618 446.6989,-19.6427 449.1624,-29.9471 455.0506,-26.1618"/>
</g>
<!-- Node4 -->
<g id="node5" class="node">
<title>Node4</title>
<g id="a_node5"><a xlink:href="../../da/d5a/GPUCommonDefAPI_8h.html" target="_top" xlink:title="GPUCommonDefAPI.h">
<polygon fill="none" stroke="#000000" points="532.5,-.5 532.5,-19.5 656.5,-19.5 656.5,-.5 532.5,-.5"/>
<text text-anchor="middle" x="594.5" y="-7.5" font-family="Helvetica,sans-Serif" font-size="10.00" fill="#000000">GPUCommonDefAPI.h</text>
</a>
</g>
</g>
<!-- Node2&#45;&gt;Node4 -->
<g id="edge4" class="edge">
<title>Node2&#45;&gt;Node4</title>
<path fill="none" stroke="#191970" d="M496.7849,-56.3733C515.6421,-47.4241 543.946,-33.9917 565.2455,-23.8835"/>
<polygon fill="#191970" stroke="#191970" points="566.9461,-26.9506 574.4798,-19.5011 563.9449,-20.6266 566.9461,-26.9506"/>
</g>
<!-- Node5&#45;&gt;Node2 -->
<g id="edge6" class="edge">
<title>Node5&#45;&gt;Node2</title>
<path fill="none" stroke="#191970" d="M308.6407,-168.1902C306.5598,-154.032 305.0514,-127.8359 318.5,-112 331.0201,-97.2574 374.4957,-85.2416 412.6792,-77.1922"/>
<polygon fill="#191970" stroke="#191970" points="413.6669,-80.5627 422.763,-75.1302 412.2645,-73.7047 413.6669,-80.5627"/>
</g>
<!-- Node5&#45;&gt;Node6 -->
<g id="edge7" class="edge">
<title>Node5&#45;&gt;Node6</title>
<path fill="none" stroke="#191970" d="M294.8232,-168.2455C281.0144,-159.6534 260.6807,-147.0014 244.7708,-137.1018"/>
<polygon fill="#191970" stroke="#191970" points="246.3368,-133.954 235.9972,-131.6427 242.6387,-139.8974 246.3368,-133.954"/>
</g>
<!-- Node7 -->
<g id="node8" class="node">
<title>Node7</title>
<polygon fill="none" stroke="#bfbfbf" points="327.5,-112.5 327.5,-131.5 391.5,-131.5 391.5,-112.5 327.5,-112.5"/>
<text text-anchor="middle" x="359.5" y="-119.5" font-family="Helvetica,sans-Serif" font-size="10.00" fill="#000000">algorithm</text>
</g>
<!-- Node5&#45;&gt;Node7 -->
<g id="edge8" class="edge">
<title>Node5&#45;&gt;Node7</title>
<path fill="none" stroke="#191970" d="M319.0351,-168.2455C325.9912,-160.2958 335.9883,-148.8706 344.3051,-139.3656"/>
<polygon fill="#191970" stroke="#191970" points="347.1116,-141.4732 351.0627,-131.6427 341.8436,-136.8637 347.1116,-141.4732"/>
</g>
<!-- Node8&#45;&gt;Node2 -->
<g id="edge10" class="edge">
<title>Node8&#45;&gt;Node2</title>
<path fill="none" stroke="#191970" d="M1051.7375,-117.151C1039.4935,-115.3803 1025.3637,-113.4568 1012.5,-112 842.2506,-92.7195 640.7581,-77.4501 540.226,-70.3439"/>
<polygon fill="#191970" stroke="#191970" points="540.4517,-66.8512 530.2307,-69.6408 539.9605,-73.834 540.4517,-66.8512"/>
</g>
<!-- Node9 -->
<g id="node10" class="node">
<title>Node9</title>
<g id="a_node10"><a xlink:href="../../d2/d37/GPUDefConstantsAndSettings_8h.html" target="_top" xlink:title="GPUDefConstantsAndSettings.h">
<polygon fill="none" stroke="#000000" points="1200,-56.5 1200,-75.5 1371,-75.5 1371,-56.5 1200,-56.5"/>
<text text-anchor="middle" x="1285.5" y="-63.5" font-family="Helvetica,sans-Serif" font-size="10.00" fill="#000000">GPUDefConstantsAndSettings.h</text>
</a>
</g>
</g>
<!-- Node8&#45;&gt;Node9 -->
<g id="edge11" class="edge">
<title>Node8&#45;&gt;Node9</title>
<path fill="none" stroke="#191970" d="M1115.0625,-113.25C1148.9817,-103.8466 1203.1521,-88.8291 1241.3014,-78.2531"/>
<polygon fill="#191970" stroke="#191970" points="1242.4175,-81.5757 1251.119,-75.5314 1240.5474,-74.8302 1242.4175,-81.5757"/>
</g>
<!-- Node10 -->
<g id="node11" class="node">
<title>Node10</title>
<g id="a_node11"><a xlink:href="../../dc/de9/GPUDefGPUParameters_8h.html" target="_top" xlink:title="GPUDefGPUParameters.h">
<polygon fill="none" stroke="#000000" points="716.5,-56.5 716.5,-75.5 856.5,-75.5 856.5,-56.5 716.5,-56.5"/>
<text text-anchor="middle" x="786.5" y="-63.5" font-family="Helvetica,sans-Serif" font-size="10.00" fill="#000000">GPUDefGPUParameters.h</text>
</a>
</g>
</g>
<!-- Node8&#45;&gt;Node10 -->
<g id="edge12" class="edge">
<title>Node8&#45;&gt;Node10</title>
<path fill="none" stroke="#191970" d="M1051.997,-116.06C1003.3494,-106.8874 909.0822,-89.1132 846.9694,-77.4016"/>
<polygon fill="#191970" stroke="#191970" points="847.3837,-73.9181 836.9083,-75.5046 846.0866,-80.7969 847.3837,-73.9181"/>
</g>
<!-- Node12 -->
<g id="node13" class="node">
<title>Node12</title>
<g id="a_node13"><a xlink:href="../../d3/d4c/GPUDefOpenCL12Templates_8h.html" target="_top" xlink:title="GPUDefOpenCL12Templates.h">
<polygon fill="none" stroke="#000000" points="874.5,-56.5 874.5,-75.5 1038.5,-75.5 1038.5,-56.5 874.5,-56.5"/>
<text text-anchor="middle" x="956.5" y="-63.5" font-family="Helvetica,sans-Serif" font-size="10.00" fill="#000000">GPUDefOpenCL12Templates.h</text>
</a>
</g>
</g>
<!-- Node8&#45;&gt;Node12 -->
<g id="edge14" class="edge">
<title>Node8&#45;&gt;Node12</title>
<path fill="none" stroke="#191970" d="M1061.6679,-112.3733C1041.1897,-103.3435 1010.3601,-89.7494 987.3681,-79.6111"/>
<polygon fill="#191970" stroke="#191970" points="988.6093,-76.3333 978.0472,-75.5011 985.785,-82.7383 988.6093,-76.3333"/>
</g>
<!-- Node13 -->
<g id="node14" class="node">
<title>Node13</title>
<g id="a_node14"><a xlink:href="../../d2/d45/GPUCommonRtypes_8h.html" target="_top" xlink:title="GPUCommonRtypes.h">
<polygon fill="none" stroke="#000000" points="1057,-56.5 1057,-75.5 1182,-75.5 1182,-56.5 1057,-56.5"/>
<text text-anchor="middle" x="1119.5" y="-63.5" font-family="Helvetica,sans-Serif" font-size="10.00" fill="#000000">GPUCommonRtypes.h</text>
</a>
</g>
</g>
<!-- Node8&#45;&gt;Node13 -->
<g id="edge15" class="edge">
<title>Node8&#45;&gt;Node13</title>
<path fill="none" stroke="#191970" d="M1089.7707,-112.2455C1094.7264,-104.5367 1101.783,-93.5598 1107.7776,-84.2348"/>
<polygon fill="#191970" stroke="#191970" points="1110.8376,-85.9471 1113.3011,-75.6427 1104.9494,-82.1618 1110.8376,-85.9471"/>
</g>
<!-- Node11 -->
<g id="node12" class="node">
<title>Node11</title>
<g id="a_node12"><a xlink:href="../../d6/dff/GPUDefMacros_8h.html" target="_top" xlink:title="GPUDefMacros.h">
<polygon fill="none" stroke="#000000" points="737.5,-.5 737.5,-19.5 835.5,-19.5 835.5,-.5 737.5,-.5"/>
<text text-anchor="middle" x="786.5" y="-7.5" font-family="Helvetica,sans-Serif" font-size="10.00" fill="#000000">GPUDefMacros.h</text>
</a>
</g>
</g>
<!-- Node10&#45;&gt;Node11 -->
<g id="edge13" class="edge">
<title>Node10&#45;&gt;Node11</title>
<path fill="none" stroke="#191970" d="M786.5,-56.2455C786.5,-48.9382 786.5,-38.6944 786.5,-29.7046"/>
<polygon fill="#191970" stroke="#191970" points="790.0001,-29.6426 786.5,-19.6427 783.0001,-29.6427 790.0001,-29.6426"/>
</g>
<!-- Node14 -->
<g id="node15" class="node">
<title>Node14</title>
<polygon fill="none" stroke="#bfbfbf" points="1090,-.5 1090,-19.5 1149,-19.5 1149,-.5 1090,-.5"/>
<text text-anchor="middle" x="1119.5" y="-7.5" font-family="Helvetica,sans-Serif" font-size="10.00" fill="#000000">Rtypes.h</text>
</g>
<!-- Node13&#45;&gt;Node14 -->
<g id="edge16" class="edge">
<title>Node13&#45;&gt;Node14</title>
<path fill="none" stroke="#191970" d="M1119.5,-56.2455C1119.5,-48.9382 1119.5,-38.6944 1119.5,-29.7046"/>
<polygon fill="#191970" stroke="#191970" points="1123.0001,-29.6426 1119.5,-19.6427 1116.0001,-29.6427 1123.0001,-29.6426"/>
</g>
<!-- Node15&#45;&gt;Node5 -->
<g id="edge18" class="edge">
<title>Node15&#45;&gt;Node5</title>
<path fill="none" stroke="#191970" d="M229.5703,-224.2455C244.747,-215.5731 267.1621,-202.7645 284.5563,-192.825"/>
<polygon fill="#191970" stroke="#191970" points="286.6794,-195.643 293.6253,-187.6427 283.2064,-189.5653 286.6794,-195.643"/>
</g>
<!-- Node16&#45;&gt;Node2 -->
<g id="edge20" class="edge">
<title>Node16&#45;&gt;Node2</title>
<path fill="none" stroke="#191970" d="M113.075,-113.9856C117.9532,-113.3085 122.8131,-112.6389 127.5,-112 227.204,-98.4081 343.0256,-83.2712 412.9872,-74.1993"/>
<polygon fill="#191970" stroke="#191970" points="413.502,-77.6619 422.9693,-72.9057 412.6024,-70.72 413.502,-77.6619"/>
</g>
<!-- Node17&#45;&gt;Node18 -->
<g id="edge22" class="edge">
<title>Node17&#45;&gt;Node18</title>
<path fill="none" stroke="#191970" d="M1135.4893,-224.3733C1161.3699,-215.1419 1200.6248,-201.1402 1229.2289,-190.9375"/>
<polygon fill="#191970" stroke="#191970" points="1230.62,-194.1573 1238.8629,-187.5011 1228.2683,-187.5642 1230.62,-194.1573"/>
</g>
<!-- Node18&#45;&gt;Node8 -->
<g id="edge23" class="edge">
<title>Node18&#45;&gt;Node8</title>
<path fill="none" stroke="#191970" d="M1234.2131,-168.3733C1203.8182,-159.021 1157.5107,-144.7725 1124.25,-134.5385"/>
<polygon fill="#191970" stroke="#191970" points="1124.9658,-131.0968 1114.3786,-131.5011 1122.9071,-137.7873 1124.9658,-131.0968"/>
</g>
<!-- Node19&#45;&gt;Node2 -->
<g id="edge26" class="edge">
<title>Node19&#45;&gt;Node2</title>
<path fill="none" stroke="#191970" d="M420.0031,-224.4124C421.4029,-203.2772 426.445,-151.4264 443.5,-112 447.8558,-101.9306 454.6872,-91.8966 461.0072,-83.7816"/>
<polygon fill="#191970" stroke="#191970" points="463.8992,-85.7741 467.5229,-75.8182 458.4816,-81.3413 463.8992,-85.7741"/>
</g>
<!-- Node19&#45;&gt;Node5 -->
<g id="edge27" class="edge">
<title>Node19&#45;&gt;Node5</title>
<path fill="none" stroke="#191970" d="M400.5136,-224.2455C383.3208,-215.4125 357.7762,-202.2887 338.2868,-192.2758"/>
<polygon fill="#191970" stroke="#191970" points="339.763,-189.0993 329.2688,-187.6427 336.5641,-195.3257 339.763,-189.0993"/>
</g>
<!-- Node21 -->
<g id="node22" class="node">
<title>Node21</title>
<g id="a_node22"><a xlink:href="../../d8/d33/GPUTPCGMTrackParam_8h.html" target="_top" xlink:title="GPUTPCGMTrackParam.h">
<polygon fill="none" stroke="#000000" points="760,-224.5 760,-243.5 897,-243.5 897,-224.5 760,-224.5"/>
<text text-anchor="middle" x="828.5" y="-231.5" font-family="Helvetica,sans-Serif" font-size="10.00" fill="#000000">GPUTPCGMTrackParam.h</text>
</a>
</g>
</g>
<!-- Node20&#45;&gt;Node21 -->
<g id="edge29" class="edge">
<title>Node20&#45;&gt;Node21</title>
<path fill="none" stroke="#191970" d="M878.8746,-280.2455C869.9527,-272.0549 857.012,-260.1749 846.4808,-250.5069"/>
<polygon fill="#191970" stroke="#191970" points="848.7371,-247.8271 839.0036,-243.6427 844.0032,-252.9837 848.7371,-247.8271"/>
</g>
<!-- Node22 -->
<g id="node23" class="node">
<title>Node22</title>
<g id="a_node23"><a xlink:href="../../d3/dcc/GPUTPCGMMergedTrackHit_8h.html" target="_top" xlink:title="GPUTPCGMMergedTrackHit.h">
<polygon fill="none" stroke="#000000" points="524,-168.5 524,-187.5 681,-187.5 681,-168.5 524,-168.5"/>
<text text-anchor="middle" x="602.5" y="-175.5" font-family="Helvetica,sans-Serif" font-size="10.00" fill="#000000">GPUTPCGMMergedTrackHit.h</text>
</a>
</g>
</g>
<!-- Node20&#45;&gt;Node22 -->
<g id="edge36" class="edge">
<title>Node20&#45;&gt;Node22</title>
<path fill="none" stroke="#191970" d="M857.957,-280.4271C829.7881,-271.6559 787.5331,-257.9496 751.5,-244 709.306,-227.6654 661.6825,-205.983 631.8789,-192.0087"/>
<polygon fill="#191970" stroke="#191970" points="633.0263,-188.6804 622.4884,-187.584 630.0426,-195.0126 633.0263,-188.6804"/>
</g>
<!-- Node23 -->
<g id="node24" class="node">
<title>Node23</title>
<g id="a_node24"><a xlink:href="../../d3/d1f/GPUdEdxInfo_8h.html" target="_top" xlink:title="GPUdEdxInfo.h">
<polygon fill="none" stroke="#000000" points="816,-168.5 816,-187.5 905,-187.5 905,-168.5 816,-168.5"/>
<text text-anchor="middle" x="860.5" y="-175.5" font-family="Helvetica,sans-Serif" font-size="10.00" fill="#000000">GPUdEdxInfo.h</text>
</a>
</g>
</g>
<!-- Node20&#45;&gt;Node23 -->
<g id="edge37" class="edge">
<title>Node20&#45;&gt;Node23</title>
<path fill="none" stroke="#191970" d="M895.7776,-280.329C903.4457,-267.2201 914.4693,-243.2397 906.5,-224 901.6688,-212.3363 892.2863,-202.0881 883.2482,-194.243"/>
<polygon fill="#191970" stroke="#191970" points="885.167,-191.2942 875.1852,-187.7423 880.7734,-196.7436 885.167,-191.2942"/>
</g>
<!-- Node21&#45;&gt;Node5 -->
<g id="edge33" class="edge">
<title>Node21&#45;&gt;Node5</title>
<path fill="none" stroke="#191970" d="M759.9809,-226.5925C660.5255,-215.8406 477.2697,-196.0292 378.2489,-185.3242"/>
<polygon fill="#191970" stroke="#191970" points="378.3783,-181.8179 368.06,-184.2227 377.6259,-188.7773 378.3783,-181.8179"/>
</g>
<!-- Node21&#45;&gt;Node18 -->
<g id="edge30" class="edge">
<title>Node21&#45;&gt;Node18</title>
<path fill="none" stroke="#191970" d="M897.262,-225.1884C985.2499,-213.9131 1135.6569,-194.6389 1214.2497,-184.5675"/>
<polygon fill="#191970" stroke="#191970" points="1214.9153,-188.011 1224.3893,-183.2682 1214.0255,-181.0677 1214.9153,-188.011"/>
</g>
<!-- Node21&#45;&gt;Node22 -->
<g id="edge31" class="edge">
<title>Node21&#45;&gt;Node22</title>
<path fill="none" stroke="#191970" d="M789.906,-224.4369C751.4716,-214.9133 692.364,-200.2672 650.829,-189.9753"/>
<polygon fill="#191970" stroke="#191970" points="651.4831,-186.5316 640.9348,-187.5237 649.7994,-193.3261 651.4831,-186.5316"/>
</g>
<!-- Node21&#45;&gt;Node23 -->
<g id="edge34" class="edge">
<title>Node21&#45;&gt;Node23</title>
<path fill="none" stroke="#191970" d="M834.074,-224.2455C838.4331,-216.617 844.6211,-205.7881 849.9133,-196.5267"/>
<polygon fill="#191970" stroke="#191970" points="853.0673,-198.0616 854.9899,-187.6427 846.9896,-194.5886 853.0673,-198.0616"/>
</g>
<!-- Node24 -->
<g id="node25" class="node">
<title>Node24</title>
<polygon fill="none" stroke="#bfbfbf" points="907,-112.5 907,-131.5 960,-131.5 960,-112.5 907,-112.5"/>
<text text-anchor="middle" x="933.5" y="-119.5" font-family="Helvetica,sans-Serif" font-size="10.00" fill="#000000">cstddef</text>
</g>
<!-- Node21&#45;&gt;Node24 -->
<g id="edge35" class="edge">
<title>Node21&#45;&gt;Node24</title>
<path fill="none" stroke="#191970" d="M859.1754,-224.4744C877.6809,-217.2432 900.3403,-205.5113 914.5,-188 925.1484,-174.8312 929.8296,-155.959 931.8872,-141.7656"/>
<polygon fill="#191970" stroke="#191970" points="935.3926,-141.9142 933.0387,-131.5842 928.4369,-141.1275 935.3926,-141.9142"/>
</g>
<!-- Node22&#45;&gt;Node2 -->
<g id="edge32" class="edge">
<title>Node22&#45;&gt;Node2</title>
<path fill="none" stroke="#191970" d="M591.7573,-168.4509C570.1841,-149.2747 521.3833,-105.8962 494.7237,-82.1988"/>
<polygon fill="#191970" stroke="#191970" points="497.0149,-79.5526 487.2155,-75.5249 492.3643,-84.7845 497.0149,-79.5526"/>
</g>
<!-- Node25&#45;&gt;Node5 -->
<g id="edge46" class="edge">
<title>Node25&#45;&gt;Node5</title>
<path fill="none" stroke="#191970" d="M724.2648,-338.2419C614.7091,-324.0754 399.9866,-291.0808 341.5,-244 327.0579,-232.3743 318.9943,-212.45 314.7378,-197.5268"/>
<polygon fill="#191970" stroke="#191970" points="318.1083,-196.5785 312.2744,-187.7345 311.3198,-198.2863 318.1083,-196.5785"/>
</g>
<!-- Node25&#45;&gt;Node21 -->
<g id="edge45" class="edge">
<title>Node25&#45;&gt;Node21</title>
<path fill="none" stroke="#191970" d="M792.1851,-336.0621C795.7725,-323.0591 802.4943,-299.6195 809.5,-280 812.6872,-271.0744 816.6312,-261.3526 820.0985,-253.1554"/>
<polygon fill="#191970" stroke="#191970" points="823.4027,-254.3315 824.1424,-243.7626 816.9732,-251.5634 823.4027,-254.3315"/>
</g>
<!-- Node26 -->
<g id="node27" class="node">
<title>Node26</title>
<g id="a_node27"><a xlink:href="../../d0/d88/GPUTPCTrack_8h.html" target="_top" xlink:title="GPUTPCTrack.h">
<polygon fill="none" stroke="#000000" points="1220,-280.5 1220,-299.5 1311,-299.5 1311,-280.5 1220,-280.5"/>
<text text-anchor="middle" x="1265.5" y="-287.5" font-family="Helvetica,sans-Serif" font-size="10.00" fill="#000000">GPUTPCTrack.h</text>
</a>
</g>
</g>
<!-- Node25&#45;&gt;Node26 -->
<g id="edge39" class="edge">
<title>Node25&#45;&gt;Node26</title>
<path fill="none" stroke="#191970" d="M854.6877,-338.3309C948.8597,-327.2518 1121.3491,-306.9589 1209.8654,-296.5452"/>
<polygon fill="#191970" stroke="#191970" points="1210.452,-300.0005 1219.9746,-295.3559 1209.6341,-293.0484 1210.452,-300.0005"/>
</g>
<!-- Node29 -->
<g id="node30" class="node">
<title>Node29</title>
<g id="a_node30"><a xlink:href="../../d5/d5c/GPUO2DataTypes_8h.html" target="_top" xlink:title="GPUO2DataTypes.h">
<polygon fill="none" stroke="#000000" points="638,-280.5 638,-299.5 749,-299.5 749,-280.5 638,-280.5"/>
<text text-anchor="middle" x="693.5" y="-287.5" font-family="Helvetica,sans-Serif" font-size="10.00" fill="#000000">GPUO2DataTypes.h</text>
</a>
</g>
</g>
<!-- Node25&#45;&gt;Node29 -->
<g id="edge47" class="edge">
<title>Node25&#45;&gt;Node29</title>
<path fill="none" stroke="#191970" d="M772.7781,-336.2455C757.9111,-327.5731 735.9534,-314.7645 718.9142,-304.825"/>
<polygon fill="#191970" stroke="#191970" points="720.4317,-301.6582 710.0303,-299.6427 716.9045,-307.7047 720.4317,-301.6582"/>
</g>
<!-- Node26&#45;&gt;Node18 -->
<g id="edge42" class="edge">
<title>Node26&#45;&gt;Node18</title>
<path fill="none" stroke="#191970" d="M1255.6225,-280.0715C1244.3189,-267.4592 1228.1381,-244.8239 1234.5,-224 1237.6409,-213.7192 1243.9366,-203.6582 1250.0388,-195.5799"/>
<polygon fill="#191970" stroke="#191970" points="1252.863,-197.6535 1256.4259,-187.6757 1247.4184,-193.2539 1252.863,-197.6535"/>
</g>
<!-- Node27 -->
<g id="node28" class="node">
<title>Node27</title>
<g id="a_node28"><a xlink:href="../../df/d00/GPUTPCBaseTrackParam_8h.html" target="_top" xlink:title="GPUTPCBaseTrackParam.h">
<polygon fill="none" stroke="#000000" points="1243.5,-224.5 1243.5,-243.5 1389.5,-243.5 1389.5,-224.5 1243.5,-224.5"/>
<text text-anchor="middle" x="1316.5" y="-231.5" font-family="Helvetica,sans-Serif" font-size="10.00" fill="#000000">GPUTPCBaseTrackParam.h</text>
</a>
</g>
</g>
<!-- Node26&#45;&gt;Node27 -->
<g id="edge40" class="edge">
<title>Node26&#45;&gt;Node27</title>
<path fill="none" stroke="#191970" d="M1274.3835,-280.2455C1281.6966,-272.2155 1292.2391,-260.6394 1300.9467,-251.0781"/>
<polygon fill="#191970" stroke="#191970" points="1303.5727,-253.3928 1307.7183,-243.6427 1298.3972,-248.6795 1303.5727,-253.3928"/>
</g>
<!-- Node28 -->
<g id="node29" class="node">
<title>Node28</title>
<g id="a_node29"><a xlink:href="../../d2/dd5/GPUTPCSliceOutCluster_8h.html" target="_top" xlink:title="GPUTPCSliceOutCluster.h">
<polygon fill="none" stroke="#000000" points="1407.5,-224.5 1407.5,-243.5 1547.5,-243.5 1547.5,-224.5 1407.5,-224.5"/>
<text text-anchor="middle" x="1477.5" y="-231.5" font-family="Helvetica,sans-Serif" font-size="10.00" fill="#000000">GPUTPCSliceOutCluster.h</text>
</a>
</g>
</g>
<!-- Node26&#45;&gt;Node28 -->
<g id="edge43" class="edge">
<title>Node26&#45;&gt;Node28</title>
<path fill="none" stroke="#191970" d="M1301.9441,-280.3733C1337.8069,-270.9001 1392.6878,-256.4032 1431.5282,-246.1435"/>
<polygon fill="#191970" stroke="#191970" points="1432.757,-249.439 1441.5315,-243.5011 1430.9692,-242.6712 1432.757,-249.439"/>
</g>
<!-- Node27&#45;&gt;Node18 -->
<g id="edge41" class="edge">
<title>Node27&#45;&gt;Node18</title>
<path fill="none" stroke="#191970" d="M1307.6165,-224.2455C1300.3034,-216.2155 1289.7609,-204.6394 1281.0533,-195.0781"/>
<polygon fill="#191970" stroke="#191970" points="1283.6028,-192.6795 1274.2817,-187.6427 1278.4273,-197.3928 1283.6028,-192.6795"/>
</g>
<!-- Node28&#45;&gt;Node18 -->
<g id="edge44" class="edge">
<title>Node28&#45;&gt;Node18</title>
<path fill="none" stroke="#191970" d="M1441.0559,-224.3733C1405.1931,-214.9001 1350.3122,-200.4032 1311.4718,-190.1435"/>
<polygon fill="#191970" stroke="#191970" points="1312.0308,-186.6712 1301.4685,-187.5011 1310.243,-193.439 1312.0308,-186.6712"/>
</g>
<!-- Node29&#45;&gt;Node23 -->
<g id="edge53" class="edge">
<title>Node29&#45;&gt;Node23</title>
<path fill="none" stroke="#191970" d="M699.9111,-280.2484C709.6007,-266.1626 729.2264,-240.056 751.5,-224 771.4937,-209.5875 796.6926,-198.5795 817.824,-190.951"/>
<polygon fill="#191970" stroke="#191970" points="819.2243,-194.1698 827.521,-187.5808 816.9262,-187.5578 819.2243,-194.1698"/>
</g>
<!-- Node30 -->
<g id="node31" class="node">
<title>Node30</title>
<g id="a_node31"><a xlink:href="../../da/d28/GPUO2FakeClasses_8h.html" target="_top" xlink:title="GPUO2FakeClasses.h">
<polygon fill="none" stroke="#000000" points="545.5,-224.5 545.5,-243.5 665.5,-243.5 665.5,-224.5 545.5,-224.5"/>
<text text-anchor="middle" x="605.5" y="-231.5" font-family="Helvetica,sans-Serif" font-size="10.00" fill="#000000">GPUO2FakeClasses.h</text>
</a>
</g>
</g>
<!-- Node29&#45;&gt;Node30 -->
<g id="edge48" class="edge">
<title>Node29&#45;&gt;Node30</title>
<path fill="none" stroke="#191970" d="M678.1716,-280.2455C664.6697,-271.6534 644.7878,-259.0014 629.2314,-249.1018"/>
<polygon fill="#191970" stroke="#191970" points="630.9685,-246.0587 620.6528,-243.6427 627.2103,-251.9643 630.9685,-246.0587"/>
</g>
<!-- Node30&#45;&gt;Node2 -->
<g id="edge49" class="edge">
<title>Node30&#45;&gt;Node2</title>
<path fill="none" stroke="#191970" d="M572.7222,-224.343C553.5949,-217.1592 530.3765,-205.5245 515.5,-188 490.3036,-158.3186 481.3297,-112.1689 478.174,-85.9621"/>
<polygon fill="#191970" stroke="#191970" points="481.629,-85.344 477.1216,-75.7558 474.6659,-86.0621 481.629,-85.344"/>
</g>
<!-- Node31 -->
<g id="node32" class="node">
<title>Node31</title>
<g id="a_node32"><a xlink:href="../../d4/dc5/GPUDataTypes_8h.html" target="_top" xlink:title="GPUDataTypes.h">
<polygon fill="none" stroke="#000000" points="699.5,-168.5 699.5,-187.5 797.5,-187.5 797.5,-168.5 699.5,-168.5"/>
<text text-anchor="middle" x="748.5" y="-175.5" font-family="Helvetica,sans-Serif" font-size="10.00" fill="#000000">GPUDataTypes.h</text>
</a>
</g>
</g>
<!-- Node30&#45;&gt;Node31 -->
<g id="edge50" class="edge">
<title>Node30&#45;&gt;Node31</title>
<path fill="none" stroke="#191970" d="M630.0826,-224.3733C653.4496,-215.2226 688.7862,-201.3844 714.7784,-191.2057"/>
<polygon fill="#191970" stroke="#191970" points="716.203,-194.4066 724.2382,-187.5011 713.6505,-187.8886 716.203,-194.4066"/>
</g>
<!-- Node31&#45;&gt;Node2 -->
<g id="edge51" class="edge">
<title>Node31&#45;&gt;Node2</title>
<path fill="none" stroke="#191970" d="M725.3094,-168.4509C676.8317,-148.4895 564.6647,-102.3031 509.0179,-79.3897"/>
<polygon fill="#191970" stroke="#191970" points="510.2113,-76.0961 499.6319,-75.5249 507.546,-82.5688 510.2113,-76.0961"/>
</g>
<!-- Node31&#45;&gt;Node24 -->
<g id="edge52" class="edge">
<title>Node31&#45;&gt;Node24</title>
<path fill="none" stroke="#191970" d="M780.3026,-168.3733C812.6965,-158.5676 862.8718,-143.3793 896.8991,-133.0792"/>
<polygon fill="#191970" stroke="#191970" points="898.3462,-136.2981 906.9033,-130.0509 896.3181,-129.5983 898.3462,-136.2981"/>
</g>
<!-- Node32&#45;&gt;Node2 -->
<g id="edge56" class="edge">
<title>Node32&#45;&gt;Node2</title>
<path fill="none" stroke="#191970" d="M1005.8884,-168.3863C1001.2813,-153.4719 990.1824,-125.1132 969.5,-112 934.0603,-89.5304 665.8713,-74.5763 540.6038,-68.745"/>
<polygon fill="#191970" stroke="#191970" points="540.5366,-65.2383 530.3862,-68.2749 540.2148,-72.2309 540.5366,-65.2383"/>
</g>
<!-- Node32&#45;&gt;Node7 -->
<g id="edge59" class="edge">
<title>Node32&#45;&gt;Node7</title>
<path fill="none" stroke="#191970" d="M961.6646,-172.8005C946.6115,-171.1875 929.8582,-169.4532 914.5,-168 723.342,-149.9126 494.7654,-132.205 401.8679,-125.1731"/>
<polygon fill="#191970" stroke="#191970" points="401.9769,-121.6715 391.7417,-124.4083 401.4496,-128.6516 401.9769,-121.6715"/>
</g>
<!-- Node32&#45;&gt;Node8 -->
<g id="edge57" class="edge">
<title>Node32&#45;&gt;Node8</title>
<path fill="none" stroke="#191970" d="M1021.564,-168.2455C1032.8562,-159.814 1049.3845,-147.4729 1062.5271,-137.6598"/>
<polygon fill="#191970" stroke="#191970" points="1064.6669,-140.4301 1070.5857,-131.6427 1060.4789,-134.8211 1064.6669,-140.4301"/>
</g>
<!-- Node32&#45;&gt;Node24 -->
<g id="edge58" class="edge">
<title>Node32&#45;&gt;Node24</title>
<path fill="none" stroke="#191970" d="M995.436,-168.2455C984.1438,-159.814 967.6155,-147.4729 954.4729,-137.6598"/>
<polygon fill="#191970" stroke="#191970" points="956.5211,-134.8211 946.4143,-131.6427 952.3331,-140.4301 956.5211,-134.8211"/>
</g>
<!-- Node33&#45;&gt;Node18 -->
<g id="edge61" class="edge">
<title>Node33&#45;&gt;Node18</title>
<path fill="none" stroke="#191970" d="M1649.8953,-280.4621C1677.0588,-268.0754 1715.8178,-245.4893 1696.5,-224 1671.4924,-196.1813 1425.3235,-183.826 1316.6328,-179.6953"/>
<polygon fill="#191970" stroke="#191970" points="1316.6786,-176.1947 1306.5556,-179.321 1316.4187,-183.1899 1316.6786,-176.1947"/>
</g>
<!-- Node33&#45;&gt;Node34 -->
<g id="edge62" class="edge">
<title>Node33&#45;&gt;Node34</title>
<path fill="none" stroke="#191970" d="M1626.5,-280.2455C1626.5,-272.9382 1626.5,-262.6944 1626.5,-253.7046"/>
<polygon fill="#191970" stroke="#191970" points="1630.0001,-253.6426 1626.5,-243.6427 1623.0001,-253.6427 1630.0001,-253.6426"/>
</g>
<!-- Node34&#45;&gt;Node8 -->
<g id="edge63" class="edge">
<title>Node34&#45;&gt;Node8</title>
<path fill="none" stroke="#191970" d="M1582.5043,-224.4696C1522.2877,-211.4697 1410.7957,-187.5583 1315.5,-168 1248.9365,-154.3387 1171.4851,-139.1176 1125.0367,-130.0619"/>
<polygon fill="#191970" stroke="#191970" points="1125.5328,-126.5929 1115.0481,-128.1164 1124.1945,-133.4637 1125.5328,-126.5929"/>
</g>
<!-- Node34&#45;&gt;Node31 -->
<g id="edge64" class="edge">
<title>Node34&#45;&gt;Node31</title>
<path fill="none" stroke="#191970" d="M1565.8352,-224.9783C1562.6813,-224.6205 1559.5552,-224.291 1556.5,-224 1228.1303,-192.7233 1140.6202,-223.2712 808.108,-187.9117"/>
<polygon fill="#191970" stroke="#191970" points="808.011,-184.3812 797.6939,-186.7914 807.2621,-191.341 808.011,-184.3812"/>
</g>
</g>
</svg>
