<?xml version="1.0" encoding="UTF-8" standalone="no"?>
<!DOCTYPE svg PUBLIC "-//W3C//DTD SVG 1.1//EN"
 "http://www.w3.org/Graphics/SVG/1.1/DTD/svg11.dtd">
<!-- Generated by graphviz version 2.40.1 (20161225.0304)
 -->
<!-- Title: /home/travis/build/AliceO2Group/AliceO2/Detectors/Base/include/DetectorsBase/GeometryManager.h Pages: 1 -->
<svg width="2790pt" height="374pt"
 viewBox="0.00 0.00 2789.50 374.00" xmlns="http://www.w3.org/2000/svg" xmlns:xlink="http://www.w3.org/1999/xlink">
<g id="graph0" class="graph" transform="scale(1 1) rotate(0) translate(4 370)">
<title>/home/travis/build/AliceO2Group/AliceO2/Detectors/Base/include/DetectorsBase/GeometryManager.h</title>
<!-- Node0 -->
<g id="node1" class="node">
<title>Node0</title>
<polygon fill="#bfbfbf" stroke="#000000" points="785,-313.5 785,-365.5 978,-365.5 978,-313.5 785,-313.5"/>
<text text-anchor="start" x="793" y="-353.5" font-family="Helvetica,sans-Serif" font-size="10.00" fill="#000000">/home/travis/build</text>
<text text-anchor="start" x="793" y="-342.5" font-family="Helvetica,sans-Serif" font-size="10.00" fill="#000000">/AliceO2Group/AliceO2</text>
<text text-anchor="start" x="793" y="-331.5" font-family="Helvetica,sans-Serif" font-size="10.00" fill="#000000">/Detectors/Base/include</text>
<text text-anchor="middle" x="881.5" y="-320.5" font-family="Helvetica,sans-Serif" font-size="10.00" fill="#000000">/DetectorsBase/GeometryManager.h</text>
</g>
<!-- Node1 -->
<g id="node2" class="node">
<title>Node1</title>
<polygon fill="none" stroke="#bfbfbf" points="321.5,-252 321.5,-271 413.5,-271 413.5,-252 321.5,-252"/>
<text text-anchor="middle" x="367.5" y="-259" font-family="Helvetica,sans-Serif" font-size="10.00" fill="#000000">TGeoManager.h</text>
</g>
<!-- Node0&#45;&gt;Node1 -->
<g id="edge1" class="edge">
<title>Node0&#45;&gt;Node1</title>
<path fill="none" stroke="#191970" d="M784.5678,-330.2679C691.209,-320.4445 546.3165,-302.7458 422.5,-277 417.8288,-276.0287 412.9715,-274.8753 408.163,-273.6425"/>
<polygon fill="#191970" stroke="#191970" points="409.0019,-270.2438 398.4365,-271.0333 407.1882,-277.0048 409.0019,-270.2438"/>
</g>
<!-- Node2 -->
<g id="node3" class="node">
<title>Node2</title>
<polygon fill="none" stroke="#bfbfbf" points="432,-252 432,-271 523,-271 523,-252 432,-252"/>
<text text-anchor="middle" x="477.5" y="-259" font-family="Helvetica,sans-Serif" font-size="10.00" fill="#000000">TGeoMaterial.h</text>
</g>
<!-- Node0&#45;&gt;Node2 -->
<g id="edge2" class="edge">
<title>Node0&#45;&gt;Node2</title>
<path fill="none" stroke="#191970" d="M784.7673,-324.9694C714.1895,-313.7029 616.4281,-296.7166 531.5,-277 527.3315,-276.0323 523.0057,-274.9409 518.6989,-273.7968"/>
<polygon fill="#191970" stroke="#191970" points="519.3375,-270.3426 508.7673,-271.0648 517.4808,-277.0918 519.3375,-270.3426"/>
</g>
<!-- Node3 -->
<g id="node4" class="node">
<title>Node3</title>
<polygon fill="none" stroke="#bfbfbf" points="541,-252 541,-271 658,-271 658,-252 541,-252"/>
<text text-anchor="middle" x="599.5" y="-259" font-family="Helvetica,sans-Serif" font-size="10.00" fill="#000000">TGeoPhysicalNode.h</text>
</g>
<!-- Node0&#45;&gt;Node3 -->
<g id="edge3" class="edge">
<title>Node0&#45;&gt;Node3</title>
<path fill="none" stroke="#191970" d="M787.206,-313.4187C738.8491,-300.0434 682.2295,-284.3826 643.9204,-273.7865"/>
<polygon fill="#191970" stroke="#191970" points="644.6792,-270.365 634.108,-271.0724 642.813,-277.1117 644.6792,-270.365"/>
</g>
<!-- Node4 -->
<g id="node5" class="node">
<title>Node4</title>
<polygon fill="none" stroke="#bfbfbf" points="676,-252 676,-271 757,-271 757,-252 676,-252"/>
<text text-anchor="middle" x="716.5" y="-259" font-family="Helvetica,sans-Serif" font-size="10.00" fill="#000000">TGeoShape.h</text>
</g>
<!-- Node0&#45;&gt;Node4 -->
<g id="edge4" class="edge">
<title>Node0&#45;&gt;Node4</title>
<path fill="none" stroke="#191970" d="M826.0984,-313.3101C799.3489,-300.665 768.3238,-285.9985 746.1252,-275.5046"/>
<polygon fill="#191970" stroke="#191970" points="747.4291,-272.2497 736.8925,-271.1401 744.4374,-278.5782 747.4291,-272.2497"/>
</g>
<!-- Node5 -->
<g id="node6" class="node">
<title>Node5</title>
<polygon fill="none" stroke="#bfbfbf" points="775.5,-252 775.5,-271 831.5,-271 831.5,-252 775.5,-252"/>
<text text-anchor="middle" x="803.5" y="-259" font-family="Helvetica,sans-Serif" font-size="10.00" fill="#000000">TMath.h</text>
</g>
<!-- Node0&#45;&gt;Node5 -->
<g id="edge5" class="edge">
<title>Node0&#45;&gt;Node5</title>
<path fill="none" stroke="#191970" d="M855.0928,-313.0928C843.541,-301.541 830.338,-288.338 820.1802,-278.1802"/>
<polygon fill="#191970" stroke="#191970" points="822.6298,-275.6801 813.0839,-271.0839 817.6801,-280.6298 822.6298,-275.6801"/>
</g>
<!-- Node6 -->
<g id="node7" class="node">
<title>Node6</title>
<polygon fill="none" stroke="#bfbfbf" points="850,-252 850,-271 913,-271 913,-252 850,-252"/>
<text text-anchor="middle" x="881.5" y="-259" font-family="Helvetica,sans-Serif" font-size="10.00" fill="#000000">TObject.h</text>
</g>
<!-- Node0&#45;&gt;Node6 -->
<g id="edge6" class="edge">
<title>Node0&#45;&gt;Node6</title>
<path fill="none" stroke="#191970" d="M881.5,-313.0928C881.5,-302.6735 881.5,-290.911 881.5,-281.2512"/>
<polygon fill="#191970" stroke="#191970" points="885.0001,-281.0838 881.5,-271.0839 878.0001,-281.0839 885.0001,-281.0838"/>
</g>
<!-- Node7 -->
<g id="node8" class="node">
<title>Node7</title>
<polygon fill="none" stroke="#bfbfbf" points="1487,-185 1487,-204 1560,-204 1560,-185 1487,-185"/>
<text text-anchor="middle" x="1523.5" y="-192" font-family="Helvetica,sans-Serif" font-size="10.00" fill="#000000">string_view</text>
</g>
<!-- Node0&#45;&gt;Node7 -->
<g id="edge7" class="edge">
<title>Node0&#45;&gt;Node7</title>
<path fill="none" stroke="#191970" d="M978.1824,-336.6773C1116.9904,-331.298 1364.8139,-316.3626 1444.5,-277 1473.9699,-262.4427 1498.3958,-232.1515 1511.9554,-212.6031"/>
<polygon fill="#191970" stroke="#191970" points="1514.9062,-214.4868 1517.557,-204.2289 1509.0879,-210.5948 1514.9062,-214.4868"/>
</g>
<!-- Node8 -->
<g id="node9" class="node">
<title>Node8</title>
<g id="a_node9"><a xlink:href="../../d6/d31/DetID_8h.html" target="_top" xlink:title="DetectorsCommonDataFormats\l/DetID.h">
<polygon fill="none" stroke="#000000" points="1598,-246.5 1598,-276.5 1769,-276.5 1769,-246.5 1598,-246.5"/>
<text text-anchor="start" x="1606" y="-264.5" font-family="Helvetica,sans-Serif" font-size="10.00" fill="#000000">DetectorsCommonDataFormats</text>
<text text-anchor="middle" x="1683.5" y="-253.5" font-family="Helvetica,sans-Serif" font-size="10.00" fill="#000000">/DetID.h</text>
</a>
</g>
</g>
<!-- Node0&#45;&gt;Node8 -->
<g id="edge8" class="edge">
<title>Node0&#45;&gt;Node8</title>
<path fill="none" stroke="#191970" d="M978.2399,-330.0914C1132.6928,-315.0698 1433.2391,-285.8396 1587.331,-270.8531"/>
<polygon fill="#191970" stroke="#191970" points="1588.103,-274.2946 1597.7173,-269.843 1587.4254,-267.3275 1588.103,-274.2946"/>
</g>
<!-- Node31 -->
<g id="node32" class="node">
<title>Node31</title>
<polygon fill="none" stroke="#bfbfbf" points="1787,-252 1787,-271 1862,-271 1862,-252 1787,-252"/>
<text text-anchor="middle" x="1824.5" y="-259" font-family="Helvetica,sans-Serif" font-size="10.00" fill="#000000">FairLogger.h</text>
</g>
<!-- Node0&#45;&gt;Node31 -->
<g id="edge39" class="edge">
<title>Node0&#45;&gt;Node31</title>
<path fill="none" stroke="#191970" d="M978.0674,-335.8888C1177.2437,-327.9298 1627.6219,-307.1584 1778.5,-277 1782.3866,-276.2231 1786.3977,-275.2086 1790.3564,-274.0698"/>
<polygon fill="#191970" stroke="#191970" points="1791.4941,-277.3812 1799.9879,-271.0482 1789.3987,-270.7021 1791.4941,-277.3812"/>
</g>
<!-- Node32 -->
<g id="node33" class="node">
<title>Node32</title>
<g id="a_node33"><a xlink:href="../../dd/d76/Cartesian3D_8h.html" target="_top" xlink:title="MathUtils/Cartesian3D.h">
<polygon fill="none" stroke="#000000" points="931,-252 931,-271 1066,-271 1066,-252 931,-252"/>
<text text-anchor="middle" x="998.5" y="-259" font-family="Helvetica,sans-Serif" font-size="10.00" fill="#000000">MathUtils/Cartesian3D.h</text>
</a>
</g>
</g>
<!-- Node0&#45;&gt;Node32 -->
<g id="edge40" class="edge">
<title>Node0&#45;&gt;Node32</title>
<path fill="none" stroke="#191970" d="M920.7848,-313.3101C938.9871,-301.1753 959.9814,-287.1791 975.5572,-276.7952"/>
<polygon fill="#191970" stroke="#191970" points="977.6608,-279.5993 984.0398,-271.1401 973.7778,-273.775 977.6608,-279.5993"/>
</g>
<!-- Node43 -->
<g id="node44" class="node">
<title>Node43</title>
<g id="a_node44"><a xlink:href="../../db/dba/MatCell_8h.html" target="_top" xlink:title="Declarations for material properties of the cell (voxel) ">
<polygon fill="none" stroke="#000000" points="1299,-252 1299,-271 1436,-271 1436,-252 1299,-252"/>
<text text-anchor="middle" x="1367.5" y="-259" font-family="Helvetica,sans-Serif" font-size="10.00" fill="#000000">DetectorsBase/MatCell.h</text>
</a>
</g>
</g>
<!-- Node0&#45;&gt;Node43 -->
<g id="edge52" class="edge">
<title>Node0&#45;&gt;Node43</title>
<path fill="none" stroke="#191970" d="M978.099,-323.9965C1072.6647,-308.8192 1214.3905,-286.0731 1298.2465,-272.6148"/>
<polygon fill="#191970" stroke="#191970" points="1298.8599,-276.0612 1308.1789,-271.0207 1297.7506,-269.1496 1298.8599,-276.0612"/>
</g>
<!-- Node8&#45;&gt;Node7 -->
<g id="edge14" class="edge">
<title>Node8&#45;&gt;Node7</title>
<path fill="none" stroke="#191970" d="M1647.5929,-246.4639C1620.0214,-234.9183 1582.2883,-219.1176 1555.6906,-207.9798"/>
<polygon fill="#191970" stroke="#191970" points="1557.0106,-204.7381 1546.4347,-204.1039 1554.3068,-211.1949 1557.0106,-204.7381"/>
</g>
<!-- Node9 -->
<g id="node10" class="node">
<title>Node9</title>
<polygon fill="none" stroke="#bfbfbf" points="1338,-118 1338,-137 1397,-137 1397,-118 1338,-118"/>
<text text-anchor="middle" x="1367.5" y="-125" font-family="Helvetica,sans-Serif" font-size="10.00" fill="#000000">Rtypes.h</text>
</g>
<!-- Node8&#45;&gt;Node9 -->
<g id="edge9" class="edge">
<title>Node8&#45;&gt;Node9</title>
<path fill="none" stroke="#191970" d="M1664.4102,-246.4762C1637.2531,-225.3386 1588.5402,-188.3505 1568.5,-179 1515.5344,-154.2868 1448.9674,-140.2126 1407.3156,-133.2186"/>
<polygon fill="#191970" stroke="#191970" points="1407.7179,-129.7382 1397.2864,-131.5908 1406.5964,-136.6478 1407.7179,-129.7382"/>
</g>
<!-- Node10 -->
<g id="node11" class="node">
<title>Node10</title>
<polygon fill="none" stroke="#bfbfbf" points="2739.5,-118 2739.5,-137 2781.5,-137 2781.5,-118 2739.5,-118"/>
<text text-anchor="middle" x="2760.5" y="-125" font-family="Helvetica,sans-Serif" font-size="10.00" fill="#000000">array</text>
</g>
<!-- Node8&#45;&gt;Node10 -->
<g id="edge10" class="edge">
<title>Node8&#45;&gt;Node10</title>
<path fill="none" stroke="#191970" d="M1769.1435,-247.0569C1772.2984,-246.6744 1775.425,-246.3198 1778.5,-246 1953.2948,-227.8199 2397.2188,-249.3258 2568.5,-210 2631.3093,-195.5791 2699.393,-161.4519 2735.1932,-141.9077"/>
<polygon fill="#191970" stroke="#191970" points="2736.9337,-144.9447 2743.9905,-137.042 2733.5457,-138.8192 2736.9337,-144.9447"/>
</g>
<!-- Node11 -->
<g id="node12" class="node">
<title>Node11</title>
<polygon fill="none" stroke="#bfbfbf" points="1730.5,-185 1730.5,-204 1774.5,-204 1774.5,-185 1730.5,-185"/>
<text text-anchor="middle" x="1752.5" y="-192" font-family="Helvetica,sans-Serif" font-size="10.00" fill="#000000">bitset</text>
</g>
<!-- Node8&#45;&gt;Node11 -->
<g id="edge11" class="edge">
<title>Node8&#45;&gt;Node11</title>
<path fill="none" stroke="#191970" d="M1699.1572,-246.2967C1709.9077,-235.8578 1724.1794,-221.9997 1735.2555,-211.2446"/>
<polygon fill="#191970" stroke="#191970" points="1737.9237,-213.5323 1742.6598,-204.055 1733.0473,-208.5103 1737.9237,-213.5323"/>
</g>
<!-- Node12 -->
<g id="node13" class="node">
<title>Node12</title>
<polygon fill="none" stroke="#bfbfbf" points="1554.5,-118 1554.5,-137 1606.5,-137 1606.5,-118 1554.5,-118"/>
<text text-anchor="middle" x="1580.5" y="-125" font-family="Helvetica,sans-Serif" font-size="10.00" fill="#000000">cassert</text>
</g>
<!-- Node8&#45;&gt;Node12 -->
<g id="edge12" class="edge">
<title>Node8&#45;&gt;Node12</title>
<path fill="none" stroke="#191970" d="M1671.8848,-246.389C1652.6939,-221.4222 1614.4641,-171.6864 1594.0639,-145.1462"/>
<polygon fill="#191970" stroke="#191970" points="1596.7516,-142.8996 1587.8823,-137.1042 1591.2016,-147.1656 1596.7516,-142.8996"/>
</g>
<!-- Node13 -->
<g id="node14" class="node">
<title>Node13</title>
<polygon fill="none" stroke="#bfbfbf" points="1624.5,-118 1624.5,-137 1674.5,-137 1674.5,-118 1624.5,-118"/>
<text text-anchor="middle" x="1649.5" y="-125" font-family="Helvetica,sans-Serif" font-size="10.00" fill="#000000">cstdint</text>
</g>
<!-- Node8&#45;&gt;Node13 -->
<g id="edge13" class="edge">
<title>Node8&#45;&gt;Node13</title>
<path fill="none" stroke="#191970" d="M1679.6659,-246.389C1673.4687,-221.9649 1661.2572,-173.8371 1654.4248,-146.9095"/>
<polygon fill="#191970" stroke="#191970" points="1657.7888,-145.9362 1651.9369,-137.1042 1651.0038,-147.6578 1657.7888,-145.9362"/>
</g>
<!-- Node14 -->
<g id="node15" class="node">
<title>Node14</title>
<polygon fill="none" stroke="#bfbfbf" points="1692.5,-118 1692.5,-137 1736.5,-137 1736.5,-118 1692.5,-118"/>
<text text-anchor="middle" x="1714.5" y="-125" font-family="Helvetica,sans-Serif" font-size="10.00" fill="#000000">string</text>
</g>
<!-- Node8&#45;&gt;Node14 -->
<g id="edge15" class="edge">
<title>Node8&#45;&gt;Node14</title>
<path fill="none" stroke="#191970" d="M1686.9958,-246.389C1692.6462,-221.9649 1703.7802,-173.8371 1710.0097,-146.9095"/>
<polygon fill="#191970" stroke="#191970" points="1713.4341,-147.6357 1712.2781,-137.1042 1706.6142,-146.058 1713.4341,-147.6357"/>
</g>
<!-- Node15 -->
<g id="node16" class="node">
<title>Node15</title>
<polygon fill="none" stroke="#bfbfbf" points="1793,-185 1793,-204 1862,-204 1862,-185 1793,-185"/>
<text text-anchor="middle" x="1827.5" y="-192" font-family="Helvetica,sans-Serif" font-size="10.00" fill="#000000">type_traits</text>
</g>
<!-- Node8&#45;&gt;Node15 -->
<g id="edge16" class="edge">
<title>Node8&#45;&gt;Node15</title>
<path fill="none" stroke="#191970" d="M1715.8164,-246.4639C1740.3043,-235.0702 1773.6984,-219.5327 1797.5784,-208.4219"/>
<polygon fill="#191970" stroke="#191970" points="1799.2686,-211.4958 1806.8587,-204.1039 1796.3156,-205.1492 1799.2686,-211.4958"/>
</g>
<!-- Node16 -->
<g id="node17" class="node">
<title>Node16</title>
<g id="a_node17"><a xlink:href="../../d9/d52/Common_2MathUtils_2include_2MathUtils_2Utils_8h.html" target="_top" xlink:title="MathUtils/Utils.h">
<polygon fill="none" stroke="#000000" points="2461.5,-185 2461.5,-204 2559.5,-204 2559.5,-185 2461.5,-185"/>
<text text-anchor="middle" x="2510.5" y="-192" font-family="Helvetica,sans-Serif" font-size="10.00" fill="#000000">MathUtils/Utils.h</text>
</a>
</g>
</g>
<!-- Node8&#45;&gt;Node16 -->
<g id="edge17" class="edge">
<title>Node8&#45;&gt;Node16</title>
<path fill="none" stroke="#191970" d="M1769.1543,-247.1549C1772.3061,-246.7448 1775.4292,-246.3578 1778.5,-246 2027.4321,-216.9972 2326.0292,-202.1575 2450.9695,-196.8401"/>
<polygon fill="#191970" stroke="#191970" points="2451.246,-200.3316 2461.0899,-196.4141 2450.9516,-193.3378 2451.246,-200.3316"/>
</g>
<!-- Node24 -->
<g id="node25" class="node">
<title>Node24</title>
<g id="a_node25"><a xlink:href="../../dc/dcd/DataHeader_8h.html" target="_top" xlink:title="Headers/DataHeader.h">
<polygon fill="none" stroke="#000000" points="1880,-185 1880,-204 2007,-204 2007,-185 1880,-185"/>
<text text-anchor="middle" x="1943.5" y="-192" font-family="Helvetica,sans-Serif" font-size="10.00" fill="#000000">Headers/DataHeader.h</text>
</a>
</g>
</g>
<!-- Node8&#45;&gt;Node24 -->
<g id="edge28" class="edge">
<title>Node8&#45;&gt;Node24</title>
<path fill="none" stroke="#191970" d="M1741.8491,-246.4639C1788.6585,-234.4015 1853.492,-217.6944 1896.883,-206.5128"/>
<polygon fill="#191970" stroke="#191970" points="1897.8036,-209.89 1906.6138,-204.0053 1896.0567,-203.1115 1897.8036,-209.89"/>
</g>
<!-- Node16&#45;&gt;Node10 -->
<g id="edge18" class="edge">
<title>Node16&#45;&gt;Node10</title>
<path fill="none" stroke="#191970" d="M2559.8892,-185.3315C2603.9372,-176.5293 2669.8681,-161.8071 2725.5,-143 2727.3415,-142.3775 2729.219,-141.6949 2731.1004,-140.974"/>
<polygon fill="#191970" stroke="#191970" points="2732.4735,-144.1938 2740.3898,-137.1523 2729.8102,-137.7202 2732.4735,-144.1938"/>
</g>
<!-- Node17 -->
<g id="node18" class="node">
<title>Node17</title>
<polygon fill="none" stroke="#bfbfbf" points="2645,-56.5 2645,-75.5 2692,-75.5 2692,-56.5 2645,-56.5"/>
<text text-anchor="middle" x="2668.5" y="-63.5" font-family="Helvetica,sans-Serif" font-size="10.00" fill="#000000">cmath</text>
</g>
<!-- Node16&#45;&gt;Node17 -->
<g id="edge19" class="edge">
<title>Node16&#45;&gt;Node17</title>
<path fill="none" stroke="#191970" d="M2559.6052,-187.3494C2607.8351,-179.2028 2676.4554,-164.2146 2692.5,-143 2705.613,-125.6616 2693.9947,-101.0341 2682.8189,-84.3349"/>
<polygon fill="#191970" stroke="#191970" points="2685.4897,-82.0535 2676.8155,-75.97 2679.8027,-86.135 2685.4897,-82.0535"/>
</g>
<!-- Node18 -->
<g id="node19" class="node">
<title>Node18</title>
<g id="a_node19"><a xlink:href="../../df/d21/GPUCommonDef_8h.html" target="_top" xlink:title="GPUCommonDef.h">
<polygon fill="none" stroke="#000000" points="2275,-56.5 2275,-75.5 2382,-75.5 2382,-56.5 2275,-56.5"/>
<text text-anchor="middle" x="2328.5" y="-63.5" font-family="Helvetica,sans-Serif" font-size="10.00" fill="#000000">GPUCommonDef.h</text>
</a>
</g>
</g>
<!-- Node16&#45;&gt;Node18 -->
<g id="edge20" class="edge">
<title>Node16&#45;&gt;Node18</title>
<path fill="none" stroke="#191970" d="M2463.3735,-184.9751C2421.1328,-175.5127 2363.437,-159.9928 2347.5,-143 2333.0512,-127.5939 2329.0961,-103.0036 2328.2468,-85.7673"/>
<polygon fill="#191970" stroke="#191970" points="2331.7445,-85.6057 2328.058,-75.673 2324.7457,-85.7367 2331.7445,-85.6057"/>
</g>
<!-- Node21 -->
<g id="node22" class="node">
<title>Node21</title>
<g id="a_node22"><a xlink:href="../../d6/da2/GPUCommonMath_8h.html" target="_top" xlink:title="GPUCommonMath.h">
<polygon fill="none" stroke="#000000" points="2568,-118 2568,-137 2683,-137 2683,-118 2568,-118"/>
<text text-anchor="middle" x="2625.5" y="-125" font-family="Helvetica,sans-Serif" font-size="10.00" fill="#000000">GPUCommonMath.h</text>
</a>
</g>
</g>
<!-- Node16&#45;&gt;Node21 -->
<g id="edge23" class="edge">
<title>Node16&#45;&gt;Node21</title>
<path fill="none" stroke="#191970" d="M2526.9767,-184.9005C2546.1055,-173.7559 2577.8733,-155.2477 2600.1516,-142.2682"/>
<polygon fill="#191970" stroke="#191970" points="2602.1753,-145.1399 2609.0539,-137.0817 2598.6514,-139.0916 2602.1753,-145.1399"/>
</g>
<!-- Node23 -->
<g id="node24" class="node">
<title>Node23</title>
<g id="a_node24"><a xlink:href="../../d6/d84/MathConstants_8h.html" target="_top" xlink:title="useful math constants ">
<polygon fill="none" stroke="#000000" points="2356.5,-118 2356.5,-137 2550.5,-137 2550.5,-118 2356.5,-118"/>
<text text-anchor="middle" x="2453.5" y="-125" font-family="Helvetica,sans-Serif" font-size="10.00" fill="#000000">CommonConstants/MathConstants.h</text>
</a>
</g>
</g>
<!-- Node16&#45;&gt;Node23 -->
<g id="edge27" class="edge">
<title>Node16&#45;&gt;Node23</title>
<path fill="none" stroke="#191970" d="M2502.3333,-184.9005C2493.4446,-174.4525 2479.05,-157.5325 2468.1869,-144.7635"/>
<polygon fill="#191970" stroke="#191970" points="2470.7972,-142.4303 2461.6516,-137.0817 2465.4656,-146.9662 2470.7972,-142.4303"/>
</g>
<!-- Node19 -->
<g id="node20" class="node">
<title>Node19</title>
<g id="a_node20"><a xlink:href="../../d5/d93/GPUCommonDefSettings_8h.html" target="_top" xlink:title="GPUCommonDefSettings.h">
<polygon fill="none" stroke="#000000" points="2177.5,-.5 2177.5,-19.5 2325.5,-19.5 2325.5,-.5 2177.5,-.5"/>
<text text-anchor="middle" x="2251.5" y="-7.5" font-family="Helvetica,sans-Serif" font-size="10.00" fill="#000000">GPUCommonDefSettings.h</text>
</a>
</g>
</g>
<!-- Node18&#45;&gt;Node19 -->
<g id="edge21" class="edge">
<title>Node18&#45;&gt;Node19</title>
<path fill="none" stroke="#191970" d="M2315.0876,-56.2455C2303.4943,-47.814 2286.5252,-35.4729 2273.0322,-25.6598"/>
<polygon fill="#191970" stroke="#191970" points="2274.9047,-22.6938 2264.7587,-19.6427 2270.7874,-28.355 2274.9047,-22.6938"/>
</g>
<!-- Node20 -->
<g id="node21" class="node">
<title>Node20</title>
<g id="a_node21"><a xlink:href="../../da/d5a/GPUCommonDefAPI_8h.html" target="_top" xlink:title="GPUCommonDefAPI.h">
<polygon fill="none" stroke="#000000" points="2343.5,-.5 2343.5,-19.5 2467.5,-19.5 2467.5,-.5 2343.5,-.5"/>
<text text-anchor="middle" x="2405.5" y="-7.5" font-family="Helvetica,sans-Serif" font-size="10.00" fill="#000000">GPUCommonDefAPI.h</text>
</a>
</g>
</g>
<!-- Node18&#45;&gt;Node20 -->
<g id="edge22" class="edge">
<title>Node18&#45;&gt;Node20</title>
<path fill="none" stroke="#191970" d="M2341.9124,-56.2455C2353.5057,-47.814 2370.4748,-35.4729 2383.9678,-25.6598"/>
<polygon fill="#191970" stroke="#191970" points="2386.2126,-28.355 2392.2413,-19.6427 2382.0953,-22.6938 2386.2126,-28.355"/>
</g>
<!-- Node21&#45;&gt;Node17 -->
<g id="edge25" class="edge">
<title>Node21&#45;&gt;Node17</title>
<path fill="none" stroke="#191970" d="M2632.2188,-117.8906C2638.493,-108.917 2648.0223,-95.2879 2655.7404,-84.2491"/>
<polygon fill="#191970" stroke="#191970" points="2658.8247,-85.9459 2661.6865,-75.7449 2653.0879,-81.9348 2658.8247,-85.9459"/>
</g>
<!-- Node21&#45;&gt;Node18 -->
<g id="edge24" class="edge">
<title>Node21&#45;&gt;Node18</title>
<path fill="none" stroke="#191970" d="M2585.7626,-117.9364C2577.1176,-115.9205 2568.0119,-113.8464 2559.5,-112 2501.7929,-99.4819 2435.6877,-86.4497 2389.0204,-77.4664"/>
<polygon fill="#191970" stroke="#191970" points="2389.5533,-74.0049 2379.0727,-75.5562 2388.2332,-80.8793 2389.5533,-74.0049"/>
</g>
<!-- Node22 -->
<g id="node23" class="node">
<title>Node22</title>
<polygon fill="none" stroke="#bfbfbf" points="2503.5,-56.5 2503.5,-75.5 2567.5,-75.5 2567.5,-56.5 2503.5,-56.5"/>
<text text-anchor="middle" x="2535.5" y="-63.5" font-family="Helvetica,sans-Serif" font-size="10.00" fill="#000000">algorithm</text>
</g>
<!-- Node21&#45;&gt;Node22 -->
<g id="edge26" class="edge">
<title>Node21&#45;&gt;Node22</title>
<path fill="none" stroke="#191970" d="M2611.4375,-117.8906C2597.1714,-108.1421 2574.865,-92.8994 2558.1128,-81.4521"/>
<polygon fill="#191970" stroke="#191970" points="2559.6949,-78.2941 2549.4638,-75.5419 2555.7455,-84.0736 2559.6949,-78.2941"/>
</g>
<!-- Node24&#45;&gt;Node12 -->
<g id="edge31" class="edge">
<title>Node24&#45;&gt;Node12</title>
<path fill="none" stroke="#191970" d="M1901.7212,-184.9709C1891.8394,-182.8656 1881.3195,-180.745 1871.5,-179 1758.3752,-158.8964 1725.9764,-174.5651 1615.5,-143 1613.3195,-142.377 1611.0983,-141.6446 1608.8862,-140.8432"/>
<polygon fill="#191970" stroke="#191970" points="1609.9822,-137.5112 1599.3991,-137.0118 1607.3609,-144.0019 1609.9822,-137.5112"/>
</g>
<!-- Node24&#45;&gt;Node13 -->
<g id="edge29" class="edge">
<title>Node24&#45;&gt;Node13</title>
<path fill="none" stroke="#191970" d="M1900.1296,-184.9957C1890.6999,-182.9761 1880.7721,-180.8855 1871.5,-179 1788.1326,-162.0468 1764.5582,-168.8282 1683.5,-143 1681.5993,-142.3944 1679.6647,-141.7106 1677.7317,-140.9762"/>
<polygon fill="#191970" stroke="#191970" points="1678.8212,-137.6382 1668.2451,-137.0096 1676.1209,-144.0964 1678.8212,-137.6382"/>
</g>
<!-- Node24&#45;&gt;Node14 -->
<g id="edge35" class="edge">
<title>Node24&#45;&gt;Node14</title>
<path fill="none" stroke="#191970" d="M1902.7734,-184.9713C1853.6479,-173.2918 1774.0982,-153.7336 1745.5,-143 1744.0916,-142.4714 1742.6627,-141.8982 1741.2306,-141.2942"/>
<polygon fill="#191970" stroke="#191970" points="1742.4668,-138.0102 1731.9196,-137.0065 1739.5388,-144.3685 1742.4668,-138.0102"/>
</g>
<!-- Node24&#45;&gt;Node22 -->
<g id="edge33" class="edge">
<title>Node24&#45;&gt;Node22</title>
<path fill="none" stroke="#191970" d="M2007.3064,-188.8982C2074.0881,-182.0149 2181.5408,-168.0439 2271.5,-143 2306.6432,-133.2164 2312.7998,-123.2545 2347.5,-112 2396.7924,-96.0128 2454.922,-82.5938 2493.3529,-74.4507"/>
<polygon fill="#191970" stroke="#191970" points="2494.0933,-77.8716 2503.1634,-72.3959 2492.6583,-71.0203 2494.0933,-77.8716"/>
</g>
<!-- Node25 -->
<g id="node26" class="node">
<title>Node25</title>
<polygon fill="none" stroke="#bfbfbf" points="1754.5,-118 1754.5,-137 1812.5,-137 1812.5,-118 1754.5,-118"/>
<text text-anchor="middle" x="1783.5" y="-125" font-family="Helvetica,sans-Serif" font-size="10.00" fill="#000000">memory</text>
</g>
<!-- Node24&#45;&gt;Node25 -->
<g id="edge30" class="edge">
<title>Node24&#45;&gt;Node25</title>
<path fill="none" stroke="#191970" d="M1920.5759,-184.9005C1893.1302,-173.4077 1846.9836,-154.0838 1815.9012,-141.068"/>
<polygon fill="#191970" stroke="#191970" points="1816.9574,-137.7159 1806.3816,-137.0817 1814.2536,-144.1726 1816.9574,-137.7159"/>
</g>
<!-- Node26 -->
<g id="node27" class="node">
<title>Node26</title>
<polygon fill="none" stroke="#bfbfbf" points="1830.5,-118 1830.5,-137 1880.5,-137 1880.5,-118 1830.5,-118"/>
<text text-anchor="middle" x="1855.5" y="-125" font-family="Helvetica,sans-Serif" font-size="10.00" fill="#000000">cstring</text>
</g>
<!-- Node24&#45;&gt;Node26 -->
<g id="edge32" class="edge">
<title>Node24&#45;&gt;Node26</title>
<path fill="none" stroke="#191970" d="M1930.8917,-184.9005C1916.6461,-174.0544 1893.2401,-156.2339 1876.2823,-143.3229"/>
<polygon fill="#191970" stroke="#191970" points="1878.1615,-140.3547 1868.0849,-137.0817 1873.9211,-145.9241 1878.1615,-140.3547"/>
</g>
<!-- Node27 -->
<g id="node28" class="node">
<title>Node27</title>
<polygon fill="none" stroke="#bfbfbf" points="1899,-118 1899,-137 1964,-137 1964,-118 1899,-118"/>
<text text-anchor="middle" x="1931.5" y="-125" font-family="Helvetica,sans-Serif" font-size="10.00" fill="#000000">stdexcept</text>
</g>
<!-- Node24&#45;&gt;Node27 -->
<g id="edge34" class="edge">
<title>Node24&#45;&gt;Node27</title>
<path fill="none" stroke="#191970" d="M1941.7807,-184.9005C1940.0163,-175.0495 1937.2215,-159.4451 1934.991,-146.9912"/>
<polygon fill="#191970" stroke="#191970" points="1938.4244,-146.308 1933.2161,-137.0817 1931.534,-147.5421 1938.4244,-146.308"/>
</g>
<!-- Node28 -->
<g id="node29" class="node">
<title>Node28</title>
<polygon fill="none" stroke="#bfbfbf" points="1982.5,-118 1982.5,-137 2032.5,-137 2032.5,-118 1982.5,-118"/>
<text text-anchor="middle" x="2007.5" y="-125" font-family="Helvetica,sans-Serif" font-size="10.00" fill="#000000">climits</text>
</g>
<!-- Node24&#45;&gt;Node28 -->
<g id="edge36" class="edge">
<title>Node24&#45;&gt;Node28</title>
<path fill="none" stroke="#191970" d="M1952.6696,-184.9005C1962.7449,-174.353 1979.1207,-157.2096 1991.3569,-144.3998"/>
<polygon fill="#191970" stroke="#191970" points="1993.9709,-146.7304 1998.3474,-137.0817 1988.9091,-141.8952 1993.9709,-146.7304"/>
</g>
<!-- Node29 -->
<g id="node30" class="node">
<title>Node29</title>
<g id="a_node30"><a xlink:href="../../d7/df8/Types_8h.html" target="_top" xlink:title="MemoryResources/Types.h">
<polygon fill="none" stroke="#000000" points="2050.5,-118 2050.5,-137 2196.5,-137 2196.5,-118 2050.5,-118"/>
<text text-anchor="middle" x="2123.5" y="-125" font-family="Helvetica,sans-Serif" font-size="10.00" fill="#000000">MemoryResources/Types.h</text>
</a>
</g>
</g>
<!-- Node24&#45;&gt;Node29 -->
<g id="edge37" class="edge">
<title>Node24&#45;&gt;Node29</title>
<path fill="none" stroke="#191970" d="M1969.2896,-184.9005C2000.4333,-173.3082 2052.9815,-153.7486 2087.9531,-140.7313"/>
<polygon fill="#191970" stroke="#191970" points="2089.6074,-143.8503 2097.7582,-137.0817 2087.1654,-137.29 2089.6074,-143.8503"/>
</g>
<!-- Node30 -->
<g id="node31" class="node">
<title>Node30</title>
<polygon fill="none" stroke="#bfbfbf" points="2215,-118 2215,-137 2262,-137 2262,-118 2215,-118"/>
<text text-anchor="middle" x="2238.5" y="-125" font-family="Helvetica,sans-Serif" font-size="10.00" fill="#000000">cerrno</text>
</g>
<!-- Node24&#45;&gt;Node30 -->
<g id="edge38" class="edge">
<title>Node24&#45;&gt;Node30</title>
<path fill="none" stroke="#191970" d="M2007.0719,-186.4583C2060.8279,-178.6091 2139.4212,-164.6489 2205.5,-143 2207.3496,-142.394 2209.2311,-141.71 2211.1099,-140.9754"/>
<polygon fill="#191970" stroke="#191970" points="2212.5234,-144.1775 2220.3243,-137.0083 2209.7553,-137.748 2212.5234,-144.1775"/>
</g>
<!-- Node32&#45;&gt;Node9 -->
<g id="edge46" class="edge">
<title>Node32&#45;&gt;Node9</title>
<path fill="none" stroke="#191970" d="M1066.2205,-257.0628C1120.1846,-251.4403 1196.5343,-238.7229 1257.5,-210 1277.2172,-200.7106 1278.183,-192.2357 1295.5,-179 1311.881,-166.4797 1330.8662,-152.9387 1345.2276,-142.8851"/>
<polygon fill="#191970" stroke="#191970" points="1347.3033,-145.7047 1353.5074,-137.1163 1343.3016,-139.9612 1347.3033,-145.7047"/>
</g>
<!-- Node33 -->
<g id="node34" class="node">
<title>Node33</title>
<polygon fill="none" stroke="#bfbfbf" points="1084.5,-179.5 1084.5,-209.5 1248.5,-209.5 1248.5,-179.5 1084.5,-179.5"/>
<text text-anchor="start" x="1092.5" y="-197.5" font-family="Helvetica,sans-Serif" font-size="10.00" fill="#000000">Math/GenVector/Displacement</text>
<text text-anchor="middle" x="1166.5" y="-186.5" font-family="Helvetica,sans-Serif" font-size="10.00" fill="#000000">Vector3D.h</text>
</g>
<!-- Node32&#45;&gt;Node33 -->
<g id="edge41" class="edge">
<title>Node32&#45;&gt;Node33</title>
<path fill="none" stroke="#191970" d="M1022.5703,-251.9005C1047.7307,-241.8663 1087.8591,-225.8627 1119.3603,-213.2997"/>
<polygon fill="#191970" stroke="#191970" points="1120.8415,-216.4772 1128.8335,-209.5218 1118.2484,-209.9752 1120.8415,-216.4772"/>
</g>
<!-- Node34 -->
<g id="node35" class="node">
<title>Node34</title>
<polygon fill="none" stroke="#bfbfbf" points="0,-185 0,-204 189,-204 189,-185 0,-185"/>
<text text-anchor="middle" x="94.5" y="-192" font-family="Helvetica,sans-Serif" font-size="10.00" fill="#000000">Math/GenVector/PositionVector3D.h</text>
</g>
<!-- Node32&#45;&gt;Node34 -->
<g id="edge42" class="edge">
<title>Node32&#45;&gt;Node34</title>
<path fill="none" stroke="#191970" d="M957.1256,-251.9943C945.6449,-249.6787 933.1368,-247.4527 921.5,-246 602.2468,-206.1443 518.6608,-241.7515 198.5,-210 186.5786,-208.8177 173.9351,-207.223 161.7229,-205.505"/>
<polygon fill="#191970" stroke="#191970" points="161.9896,-202.0073 151.5915,-204.0393 160.9873,-208.9351 161.9896,-202.0073"/>
</g>
<!-- Node35 -->
<g id="node36" class="node">
<title>Node35</title>
<polygon fill="none" stroke="#bfbfbf" points="207.5,-185 207.5,-204 367.5,-204 367.5,-185 207.5,-185"/>
<text text-anchor="middle" x="287.5" y="-192" font-family="Helvetica,sans-Serif" font-size="10.00" fill="#000000">Math/GenVector/Rotation3D.h</text>
</g>
<!-- Node32&#45;&gt;Node35 -->
<g id="edge43" class="edge">
<title>Node32&#45;&gt;Node35</title>
<path fill="none" stroke="#191970" d="M956.3069,-251.9576C945.0476,-249.6993 932.8543,-247.511 921.5,-246 680.8713,-213.9774 617.5277,-238.8658 376.5,-210 366.907,-208.8511 356.7773,-207.3577 346.9248,-205.752"/>
<polygon fill="#191970" stroke="#191970" points="347.2338,-202.2549 336.7918,-204.0478 346.0728,-209.1579 347.2338,-202.2549"/>
</g>
<!-- Node36 -->
<g id="node37" class="node">
<title>Node36</title>
<polygon fill="none" stroke="#bfbfbf" points="385.5,-185 385.5,-204 553.5,-204 553.5,-185 385.5,-185"/>
<text text-anchor="middle" x="469.5" y="-192" font-family="Helvetica,sans-Serif" font-size="10.00" fill="#000000">Math/GenVector/Transform3D.h</text>
</g>
<!-- Node32&#45;&gt;Node36 -->
<g id="edge44" class="edge">
<title>Node32&#45;&gt;Node36</title>
<path fill="none" stroke="#191970" d="M955.0601,-251.9764C944.1418,-249.7979 932.4225,-247.6429 921.5,-246 762.928,-222.1486 721.4492,-231.1924 562.5,-210 552.9868,-208.7316 542.9529,-207.2312 533.1357,-205.6715"/>
<polygon fill="#191970" stroke="#191970" points="533.4456,-202.1761 523.0146,-204.0319 532.3262,-209.0861 533.4456,-202.1761"/>
</g>
<!-- Node37 -->
<g id="node38" class="node">
<title>Node37</title>
<polygon fill="none" stroke="#bfbfbf" points="572,-185 572,-204 745,-204 745,-185 572,-185"/>
<text text-anchor="middle" x="658.5" y="-192" font-family="Helvetica,sans-Serif" font-size="10.00" fill="#000000">Math/GenVector/Translation3D.h</text>
</g>
<!-- Node32&#45;&gt;Node37 -->
<g id="edge45" class="edge">
<title>Node32&#45;&gt;Node37</title>
<path fill="none" stroke="#191970" d="M951.2711,-251.952C941.4341,-249.9747 931.1301,-247.9121 921.5,-246 851.4029,-232.0817 770.7419,-216.3253 717.4289,-205.9471"/>
<polygon fill="#191970" stroke="#191970" points="717.9564,-202.4842 707.4719,-204.0095 716.6192,-209.3553 717.9564,-202.4842"/>
</g>
<!-- Node38 -->
<g id="node39" class="node">
<title>Node38</title>
<polygon fill="none" stroke="#bfbfbf" points="763.5,-185 763.5,-204 845.5,-204 845.5,-185 763.5,-185"/>
<text text-anchor="middle" x="804.5" y="-192" font-family="Helvetica,sans-Serif" font-size="10.00" fill="#000000">TGeoMatrix.h</text>
</g>
<!-- Node32&#45;&gt;Node38 -->
<g id="edge47" class="edge">
<title>Node32&#45;&gt;Node38</title>
<path fill="none" stroke="#191970" d="M970.7045,-251.9005C936.8504,-240.2086 879.5293,-220.4122 841.8453,-207.3976"/>
<polygon fill="#191970" stroke="#191970" points="842.8387,-204.0379 832.2439,-204.0817 840.5535,-210.6544 842.8387,-204.0379"/>
</g>
<!-- Node39 -->
<g id="node40" class="node">
<title>Node39</title>
<polygon fill="none" stroke="#bfbfbf" points="864,-185 864,-204 913,-204 913,-185 864,-185"/>
<text text-anchor="middle" x="888.5" y="-192" font-family="Helvetica,sans-Serif" font-size="10.00" fill="#000000">iosfwd</text>
</g>
<!-- Node32&#45;&gt;Node39 -->
<g id="edge48" class="edge">
<title>Node32&#45;&gt;Node39</title>
<path fill="none" stroke="#191970" d="M982.7397,-251.9005C964.5243,-240.8057 934.327,-222.4128 913.0323,-209.4424"/>
<polygon fill="#191970" stroke="#191970" points="914.5923,-206.2945 904.2311,-204.0817 910.9509,-212.2728 914.5923,-206.2945"/>
</g>
<!-- Node40 -->
<g id="node41" class="node">
<title>Node40</title>
<g id="a_node41"><a xlink:href="../../d2/dd0/Cartesian2D_8h.html" target="_top" xlink:title="MathUtils/Cartesian2D.h">
<polygon fill="none" stroke="#000000" points="931,-185 931,-204 1066,-204 1066,-185 931,-185"/>
<text text-anchor="middle" x="998.5" y="-192" font-family="Helvetica,sans-Serif" font-size="10.00" fill="#000000">MathUtils/Cartesian2D.h</text>
</a>
</g>
</g>
<!-- Node32&#45;&gt;Node40 -->
<g id="edge49" class="edge">
<title>Node32&#45;&gt;Node40</title>
<path fill="none" stroke="#191970" d="M998.5,-251.9005C998.5,-242.149 998.5,-226.7597 998.5,-214.3695"/>
<polygon fill="#191970" stroke="#191970" points="1002.0001,-214.0816 998.5,-204.0817 995.0001,-214.0817 1002.0001,-214.0816"/>
</g>
<!-- Node41 -->
<g id="node42" class="node">
<title>Node41</title>
<polygon fill="none" stroke="#bfbfbf" points="818.5,-112.5 818.5,-142.5 982.5,-142.5 982.5,-112.5 818.5,-112.5"/>
<text text-anchor="start" x="826.5" y="-130.5" font-family="Helvetica,sans-Serif" font-size="10.00" fill="#000000">Math/GenVector/Displacement</text>
<text text-anchor="middle" x="900.5" y="-119.5" font-family="Helvetica,sans-Serif" font-size="10.00" fill="#000000">Vector2D.h</text>
</g>
<!-- Node40&#45;&gt;Node41 -->
<g id="edge50" class="edge">
<title>Node40&#45;&gt;Node41</title>
<path fill="none" stroke="#191970" d="M984.459,-184.9005C970.5412,-175.3853 948.772,-160.5023 930.888,-148.2755"/>
<polygon fill="#191970" stroke="#191970" points="932.7026,-145.2763 922.4721,-142.5218 928.7519,-151.0549 932.7026,-145.2763"/>
</g>
<!-- Node42 -->
<g id="node43" class="node">
<title>Node42</title>
<polygon fill="none" stroke="#bfbfbf" points="1001,-118 1001,-137 1190,-137 1190,-118 1001,-118"/>
<text text-anchor="middle" x="1095.5" y="-125" font-family="Helvetica,sans-Serif" font-size="10.00" fill="#000000">Math/GenVector/PositionVector2D.h</text>
</g>
<!-- Node40&#45;&gt;Node42 -->
<g id="edge51" class="edge">
<title>Node40&#45;&gt;Node42</title>
<path fill="none" stroke="#191970" d="M1012.3977,-184.9005C1028.3164,-173.9052 1054.6121,-155.7422 1073.3599,-142.7927"/>
<polygon fill="#191970" stroke="#191970" points="1075.3892,-145.6448 1081.628,-137.0817 1071.4108,-139.8852 1075.3892,-145.6448"/>
</g>
<!-- Node43&#45;&gt;Node18 -->
<g id="edge53" class="edge">
<title>Node43&#45;&gt;Node18</title>
<path fill="none" stroke="#191970" d="M1381.7289,-251.8918C1396.3213,-241.8748 1419.5067,-225.502 1438.5,-210 1488.4593,-169.224 1486.1058,-137.1186 1545.5,-112 1610.9034,-84.34 2089.5849,-71.2149 2264.6236,-67.3025"/>
<polygon fill="#191970" stroke="#191970" points="2264.7967,-70.7996 2274.717,-67.0796 2264.6421,-63.8013 2264.7967,-70.7996"/>
</g>
<!-- Node44 -->
<g id="node45" class="node">
<title>Node44</title>
<g id="a_node45"><a xlink:href="../../d2/d45/GPUCommonRtypes_8h.html" target="_top" xlink:title="GPUCommonRtypes.h">
<polygon fill="none" stroke="#000000" points="1305,-185 1305,-204 1430,-204 1430,-185 1305,-185"/>
<text text-anchor="middle" x="1367.5" y="-192" font-family="Helvetica,sans-Serif" font-size="10.00" fill="#000000">GPUCommonRtypes.h</text>
</a>
</g>
</g>
<!-- Node43&#45;&gt;Node44 -->
<g id="edge54" class="edge">
<title>Node43&#45;&gt;Node44</title>
<path fill="none" stroke="#191970" d="M1367.5,-251.9005C1367.5,-242.149 1367.5,-226.7597 1367.5,-214.3695"/>
<polygon fill="#191970" stroke="#191970" points="1371.0001,-214.0816 1367.5,-204.0817 1364.0001,-214.0817 1371.0001,-214.0816"/>
</g>
<!-- Node44&#45;&gt;Node9 -->
<g id="edge55" class="edge">
<title>Node44&#45;&gt;Node9</title>
<path fill="none" stroke="#191970" d="M1367.5,-184.9005C1367.5,-175.149 1367.5,-159.7597 1367.5,-147.3695"/>
<polygon fill="#191970" stroke="#191970" points="1371.0001,-147.0816 1367.5,-137.0817 1364.0001,-147.0817 1371.0001,-147.0816"/>
</g>
</g>
</svg>
