<?xml version="1.0" encoding="UTF-8" standalone="no"?>
<!DOCTYPE svg PUBLIC "-//W3C//DTD SVG 1.1//EN"
 "http://www.w3.org/Graphics/SVG/1.1/DTD/svg11.dtd">
<!-- Generated by graphviz version 2.40.1 (20161225.0304)
 -->
<!-- Title: GPUCA_NAMESPACE::gpu::GPUTPCGMMergerTypes::GPUTPCGMBorderRange Pages: 1 -->
<svg width="149pt" height="204pt"
 viewBox="0.00 0.00 149.00 204.00" xmlns="http://www.w3.org/2000/svg" xmlns:xlink="http://www.w3.org/1999/xlink">
<g id="graph0" class="graph" transform="scale(1 1) rotate(0) translate(4 200)">
<title>GPUCA_NAMESPACE::gpu::GPUTPCGMMergerTypes::GPUTPCGMBorderRange</title>
<!-- Node1 -->
<g id="node1" class="node">
<title>Node1</title>
<polygon fill="#bfbfbf" stroke="#000000" points="0,-.5 0,-79.5 141,-79.5 141,-.5 0,-.5"/>
<text text-anchor="start" x="8" y="-67.5" font-family="Helvetica,sans-Serif" font-size="10.00" fill="#000000">GPUCA_NAMESPACE::gpu</text>
<text text-anchor="start" x="8" y="-56.5" font-family="Helvetica,sans-Serif" font-size="10.00" fill="#000000">::GPUTPCGMMergerTypes</text>
<text text-anchor="middle" x="70.5" y="-45.5" font-family="Helvetica,sans-Serif" font-size="10.00" fill="#000000">::GPUTPCGMBorderRange</text>
<polyline fill="none" stroke="#000000" points="0,-38.5 141,-38.5 "/>
<text text-anchor="middle" x="70.5" y="-26.5" font-family="Helvetica,sans-Serif" font-size="10.00" fill="#000000"> </text>
<polyline fill="none" stroke="#000000" points="0,-19.5 141,-19.5 "/>
<text text-anchor="middle" x="70.5" y="-7.5" font-family="Helvetica,sans-Serif" font-size="10.00" fill="#000000"> </text>
</g>
<!-- Node2 -->
<g id="node2" class="node">
<title>Node2</title>
<g id="a_node2"><a xlink:href="../../d4/dc3/classfloat.html" target="_top" xlink:title="{float\n||}">
<polygon fill="none" stroke="#000000" points="23.5,-138.5 23.5,-195.5 61.5,-195.5 61.5,-138.5 23.5,-138.5"/>
<text text-anchor="middle" x="42.5" y="-183.5" font-family="Helvetica,sans-Serif" font-size="10.00" fill="#000000">float</text>
<polyline fill="none" stroke="#000000" points="23.5,-176.5 61.5,-176.5 "/>
<text text-anchor="middle" x="42.5" y="-164.5" font-family="Helvetica,sans-Serif" font-size="10.00" fill="#000000"> </text>
<polyline fill="none" stroke="#000000" points="23.5,-157.5 61.5,-157.5 "/>
<text text-anchor="middle" x="42.5" y="-145.5" font-family="Helvetica,sans-Serif" font-size="10.00" fill="#000000"> </text>
</a>
</g>
</g>
<!-- Node2&#45;&gt;Node1 -->
<g id="edge1" class="edge">
<title>Node2&#45;&gt;Node1</title>
<path fill="none" stroke="#404040" d="M40.2505,-138.4803C39.9394,-125.9216 40.5052,-111.0796 43.5,-98 44.0206,-95.7264 44.6375,-93.4354 45.3313,-91.1454"/>
<polygon fill="none" stroke="#404040" points="45.3479,-91.0983 43.5796,-84.1074 49.3527,-79.7863 51.121,-86.7772 45.3479,-91.0983"/>
<text text-anchor="middle" x="60" y="-112" font-family="Helvetica,sans-Serif" font-size="10.00" fill="#000000"> +fMin</text>
<text text-anchor="middle" x="60" y="-101" font-family="Helvetica,sans-Serif" font-size="10.00" fill="#000000">+fMax</text>
</g>
<!-- Node3 -->
<g id="node3" class="node">
<title>Node3</title>
<polygon fill="none" stroke="#bfbfbf" points="84,-138.5 84,-195.5 113,-195.5 113,-138.5 84,-138.5"/>
<text text-anchor="middle" x="98.5" y="-183.5" font-family="Helvetica,sans-Serif" font-size="10.00" fill="#000000">int</text>
<polyline fill="none" stroke="#bfbfbf" points="84,-176.5 113,-176.5 "/>
<text text-anchor="middle" x="98.5" y="-164.5" font-family="Helvetica,sans-Serif" font-size="10.00" fill="#000000"> </text>
<polyline fill="none" stroke="#bfbfbf" points="84,-157.5 113,-157.5 "/>
<text text-anchor="middle" x="98.5" y="-145.5" font-family="Helvetica,sans-Serif" font-size="10.00" fill="#000000"> </text>
</g>
<!-- Node3&#45;&gt;Node1 -->
<g id="edge2" class="edge">
<title>Node3&#45;&gt;Node1</title>
<path fill="none" stroke="#404040" d="M92.2163,-138.4987C89.184,-124.7452 85.4494,-107.8063 81.9375,-91.8775"/>
<polygon fill="none" stroke="#404040" points="81.8944,-91.6816 76.6964,-86.6835 79.3107,-79.963 84.5088,-84.9611 81.8944,-91.6816"/>
<text text-anchor="middle" x="100" y="-106.5" font-family="Helvetica,sans-Serif" font-size="10.00" fill="#000000"> +fId</text>
</g>
</g>
</svg>
