<?xml version="1.0" encoding="UTF-8" standalone="no"?>
<!DOCTYPE svg PUBLIC "-//W3C//DTD SVG 1.1//EN"
 "http://www.w3.org/Graphics/SVG/1.1/DTD/svg11.dtd">
<!-- Generated by graphviz version 2.40.1 (20161225.0304)
 -->
<!-- Title: o2::itsmft::PixelReader Pages: 1 -->
<svg width="463pt" height="804pt"
 viewBox="0.00 0.00 463.00 804.00" xmlns="http://www.w3.org/2000/svg" xmlns:xlink="http://www.w3.org/1999/xlink">
<g id="graph0" class="graph" transform="scale(1 1) rotate(0) translate(4 800)">
<title>o2::itsmft::PixelReader</title>
<!-- Node5 -->
<g id="node1" class="node">
<title>Node5</title>
<polygon fill="#bfbfbf" stroke="#000000" points="222.5,-.5 222.5,-211.5 373.5,-211.5 373.5,-.5 222.5,-.5"/>
<text text-anchor="middle" x="298" y="-199.5" font-family="Helvetica,sans-Serif" font-size="10.00" fill="#000000">o2::itsmft::PixelReader</text>
<polyline fill="none" stroke="#000000" points="222.5,-192.5 373.5,-192.5 "/>
<text text-anchor="middle" x="298" y="-180.5" font-family="Helvetica,sans-Serif" font-size="10.00" fill="#000000"> </text>
<polyline fill="none" stroke="#000000" points="222.5,-173.5 373.5,-173.5 "/>
<text text-anchor="start" x="230.5" y="-161.5" font-family="Helvetica,sans-Serif" font-size="10.00" fill="#000000">+ PixelReader()</text>
<text text-anchor="start" x="230.5" y="-150.5" font-family="Helvetica,sans-Serif" font-size="10.00" fill="#000000">+ ~PixelReader()</text>
<text text-anchor="start" x="230.5" y="-139.5" font-family="Helvetica,sans-Serif" font-size="10.00" fill="#000000">+ PixelReader()</text>
<text text-anchor="start" x="230.5" y="-128.5" font-family="Helvetica,sans-Serif" font-size="10.00" fill="#000000">+ operator=()</text>
<text text-anchor="start" x="230.5" y="-117.5" font-family="Helvetica,sans-Serif" font-size="10.00" fill="#000000">+ init()</text>
<text text-anchor="start" x="230.5" y="-106.5" font-family="Helvetica,sans-Serif" font-size="10.00" fill="#000000">+ getNextChipData()</text>
<text text-anchor="start" x="230.5" y="-95.5" font-family="Helvetica,sans-Serif" font-size="10.00" fill="#000000">+ getNextChipData()</text>
<text text-anchor="start" x="230.5" y="-84.5" font-family="Helvetica,sans-Serif" font-size="10.00" fill="#000000">+ decodeNextTrigger()</text>
<text text-anchor="start" x="230.5" y="-73.5" font-family="Helvetica,sans-Serif" font-size="10.00" fill="#000000">+ getDigitsMCTruth()</text>
<text text-anchor="start" x="230.5" y="-62.5" font-family="Helvetica,sans-Serif" font-size="10.00" fill="#000000">+ getInteractionRecordHB()</text>
<text text-anchor="start" x="230.5" y="-51.5" font-family="Helvetica,sans-Serif" font-size="10.00" fill="#000000">+ getInteractionRecord()</text>
<text text-anchor="start" x="230.5" y="-40.5" font-family="Helvetica,sans-Serif" font-size="10.00" fill="#000000">+ getTrigger()</text>
<text text-anchor="start" x="230.5" y="-29.5" font-family="Helvetica,sans-Serif" font-size="10.00" fill="#000000">+ getDecodeNextAuto()</text>
<text text-anchor="start" x="230.5" y="-18.5" font-family="Helvetica,sans-Serif" font-size="10.00" fill="#000000">+ setDecodeNextAuto()</text>
<text text-anchor="start" x="230.5" y="-7.5" font-family="Helvetica,sans-Serif" font-size="10.00" fill="#000000"># ClassDef()</text>
</g>
<!-- Node6 -->
<g id="node2" class="node">
<title>Node6</title>
<g id="a_node2"><a xlink:href="../../d1/d21/structo2_1_1InteractionRecord.html" target="_top" xlink:title="{o2::InteractionRecord\n||+ InteractionRecord()\l+ InteractionRecord()\l+ InteractionRecord()\l+ InteractionRecord()\l+ clear()\l+ isDummy()\l+ setFromNS()\l+ bc2ns()\l+ operator==()\l+ operator!=()\l+ differenceInBC()\l+ toLong()\l+ setFromLong()\l+ operator\&gt;()\l+ operator\&gt;=()\l+ operator\&lt;()\l+ operator\&lt;=()\l+ operator&#45;&#45;()\l+ operator&#45;&#45;()\l+ operator++()\l+ operator++()\l+ operator+=()\l+ operator&#45;=()\l+ operator+=()\l+ operator&#45;=()\l+ operator+()\l+ operator&#45;()\l+ operator+()\l+ operator&#45;()\l+ print()\l+ ClassDefNV()\l+ bc2ns()\l+ ns2bc()\l}">
<polygon fill="none" stroke="#000000" points="82.5,-270.5 82.5,-679.5 203.5,-679.5 203.5,-270.5 82.5,-270.5"/>
<text text-anchor="middle" x="143" y="-667.5" font-family="Helvetica,sans-Serif" font-size="10.00" fill="#000000">o2::InteractionRecord</text>
<polyline fill="none" stroke="#000000" points="82.5,-660.5 203.5,-660.5 "/>
<text text-anchor="middle" x="143" y="-648.5" font-family="Helvetica,sans-Serif" font-size="10.00" fill="#000000"> </text>
<polyline fill="none" stroke="#000000" points="82.5,-641.5 203.5,-641.5 "/>
<text text-anchor="start" x="90.5" y="-629.5" font-family="Helvetica,sans-Serif" font-size="10.00" fill="#000000">+ InteractionRecord()</text>
<text text-anchor="start" x="90.5" y="-618.5" font-family="Helvetica,sans-Serif" font-size="10.00" fill="#000000">+ InteractionRecord()</text>
<text text-anchor="start" x="90.5" y="-607.5" font-family="Helvetica,sans-Serif" font-size="10.00" fill="#000000">+ InteractionRecord()</text>
<text text-anchor="start" x="90.5" y="-596.5" font-family="Helvetica,sans-Serif" font-size="10.00" fill="#000000">+ InteractionRecord()</text>
<text text-anchor="start" x="90.5" y="-585.5" font-family="Helvetica,sans-Serif" font-size="10.00" fill="#000000">+ clear()</text>
<text text-anchor="start" x="90.5" y="-574.5" font-family="Helvetica,sans-Serif" font-size="10.00" fill="#000000">+ isDummy()</text>
<text text-anchor="start" x="90.5" y="-563.5" font-family="Helvetica,sans-Serif" font-size="10.00" fill="#000000">+ setFromNS()</text>
<text text-anchor="start" x="90.5" y="-552.5" font-family="Helvetica,sans-Serif" font-size="10.00" fill="#000000">+ bc2ns()</text>
<text text-anchor="start" x="90.5" y="-541.5" font-family="Helvetica,sans-Serif" font-size="10.00" fill="#000000">+ operator==()</text>
<text text-anchor="start" x="90.5" y="-530.5" font-family="Helvetica,sans-Serif" font-size="10.00" fill="#000000">+ operator!=()</text>
<text text-anchor="start" x="90.5" y="-519.5" font-family="Helvetica,sans-Serif" font-size="10.00" fill="#000000">+ differenceInBC()</text>
<text text-anchor="start" x="90.5" y="-508.5" font-family="Helvetica,sans-Serif" font-size="10.00" fill="#000000">+ toLong()</text>
<text text-anchor="start" x="90.5" y="-497.5" font-family="Helvetica,sans-Serif" font-size="10.00" fill="#000000">+ setFromLong()</text>
<text text-anchor="start" x="90.5" y="-486.5" font-family="Helvetica,sans-Serif" font-size="10.00" fill="#000000">+ operator&gt;()</text>
<text text-anchor="start" x="90.5" y="-475.5" font-family="Helvetica,sans-Serif" font-size="10.00" fill="#000000">+ operator&gt;=()</text>
<text text-anchor="start" x="90.5" y="-464.5" font-family="Helvetica,sans-Serif" font-size="10.00" fill="#000000">+ operator&lt;()</text>
<text text-anchor="start" x="90.5" y="-453.5" font-family="Helvetica,sans-Serif" font-size="10.00" fill="#000000">+ operator&lt;=()</text>
<text text-anchor="start" x="90.5" y="-442.5" font-family="Helvetica,sans-Serif" font-size="10.00" fill="#000000">+ operator&#45;&#45;()</text>
<text text-anchor="start" x="90.5" y="-431.5" font-family="Helvetica,sans-Serif" font-size="10.00" fill="#000000">+ operator&#45;&#45;()</text>
<text text-anchor="start" x="90.5" y="-420.5" font-family="Helvetica,sans-Serif" font-size="10.00" fill="#000000">+ operator++()</text>
<text text-anchor="start" x="90.5" y="-409.5" font-family="Helvetica,sans-Serif" font-size="10.00" fill="#000000">+ operator++()</text>
<text text-anchor="start" x="90.5" y="-398.5" font-family="Helvetica,sans-Serif" font-size="10.00" fill="#000000">+ operator+=()</text>
<text text-anchor="start" x="90.5" y="-387.5" font-family="Helvetica,sans-Serif" font-size="10.00" fill="#000000">+ operator&#45;=()</text>
<text text-anchor="start" x="90.5" y="-376.5" font-family="Helvetica,sans-Serif" font-size="10.00" fill="#000000">+ operator+=()</text>
<text text-anchor="start" x="90.5" y="-365.5" font-family="Helvetica,sans-Serif" font-size="10.00" fill="#000000">+ operator&#45;=()</text>
<text text-anchor="start" x="90.5" y="-354.5" font-family="Helvetica,sans-Serif" font-size="10.00" fill="#000000">+ operator+()</text>
<text text-anchor="start" x="90.5" y="-343.5" font-family="Helvetica,sans-Serif" font-size="10.00" fill="#000000">+ operator&#45;()</text>
<text text-anchor="start" x="90.5" y="-332.5" font-family="Helvetica,sans-Serif" font-size="10.00" fill="#000000">+ operator+()</text>
<text text-anchor="start" x="90.5" y="-321.5" font-family="Helvetica,sans-Serif" font-size="10.00" fill="#000000">+ operator&#45;()</text>
<text text-anchor="start" x="90.5" y="-310.5" font-family="Helvetica,sans-Serif" font-size="10.00" fill="#000000">+ print()</text>
<text text-anchor="start" x="90.5" y="-299.5" font-family="Helvetica,sans-Serif" font-size="10.00" fill="#000000">+ ClassDefNV()</text>
<text text-anchor="start" x="90.5" y="-288.5" font-family="Helvetica,sans-Serif" font-size="10.00" fill="#000000">+ bc2ns()</text>
<text text-anchor="start" x="90.5" y="-277.5" font-family="Helvetica,sans-Serif" font-size="10.00" fill="#000000">+ ns2bc()</text>
</a>
</g>
</g>
<!-- Node6&#45;&gt;Node5 -->
<g id="edge1" class="edge">
<title>Node6&#45;&gt;Node5</title>
<path fill="none" stroke="#404040" d="M147.922,-270.281C151.8185,-256.3182 156.7686,-242.7484 163,-230 174.7557,-205.95 193.3614,-184.3169 213.0464,-166.1091"/>
<polygon fill="none" stroke="#404040" points="213.193,-165.9783 215.0061,-158.9988 222.146,-157.988 220.3329,-164.9675 213.193,-165.9783"/>
<text text-anchor="middle" x="223.5" y="-244" font-family="Helvetica,sans-Serif" font-size="10.00" fill="#000000"> #mInteractionRecordHB</text>
<text text-anchor="middle" x="223.5" y="-233" font-family="Helvetica,sans-Serif" font-size="10.00" fill="#000000">#mInteractionRecord</text>
</g>
<!-- Node7 -->
<g id="node3" class="node">
<title>Node7</title>
<polygon fill="none" stroke="#bfbfbf" points="0,-738.5 0,-795.5 50,-795.5 50,-738.5 0,-738.5"/>
<text text-anchor="middle" x="25" y="-783.5" font-family="Helvetica,sans-Serif" font-size="10.00" fill="#000000">double</text>
<polyline fill="none" stroke="#bfbfbf" points="0,-776.5 50,-776.5 "/>
<text text-anchor="middle" x="25" y="-764.5" font-family="Helvetica,sans-Serif" font-size="10.00" fill="#000000"> </text>
<polyline fill="none" stroke="#bfbfbf" points="0,-757.5 50,-757.5 "/>
<text text-anchor="middle" x="25" y="-745.5" font-family="Helvetica,sans-Serif" font-size="10.00" fill="#000000"> </text>
</g>
<!-- Node7&#45;&gt;Node6 -->
<g id="edge2" class="edge">
<title>Node7&#45;&gt;Node6</title>
<path fill="none" stroke="#404040" d="M32.4355,-738.1926C35.8905,-725.7145 40.2777,-711.0139 45,-698 54.7304,-671.1845 66.1373,-643.0173 77.6615,-616.0727"/>
<polygon fill="none" stroke="#404040" points="77.6788,-616.0324 76.3796,-608.9393 82.4274,-605.012 83.7266,-612.1051 77.6788,-616.0324"/>
<text text-anchor="middle" x="83" y="-706.5" font-family="Helvetica,sans-Serif" font-size="10.00" fill="#000000"> +DummyTime</text>
</g>
<!-- Node8 -->
<g id="node4" class="node">
<title>Node8</title>
<polygon fill="none" stroke="#bfbfbf" points="96,-738.5 96,-795.5 152,-795.5 152,-738.5 96,-738.5"/>
<text text-anchor="middle" x="124" y="-783.5" font-family="Helvetica,sans-Serif" font-size="10.00" fill="#000000">uint16_t</text>
<polyline fill="none" stroke="#bfbfbf" points="96,-776.5 152,-776.5 "/>
<text text-anchor="middle" x="124" y="-764.5" font-family="Helvetica,sans-Serif" font-size="10.00" fill="#000000"> </text>
<polyline fill="none" stroke="#bfbfbf" points="96,-757.5 152,-757.5 "/>
<text text-anchor="middle" x="124" y="-745.5" font-family="Helvetica,sans-Serif" font-size="10.00" fill="#000000"> </text>
</g>
<!-- Node8&#45;&gt;Node6 -->
<g id="edge3" class="edge">
<title>Node8&#45;&gt;Node6</title>
<path fill="none" stroke="#404040" d="M123.9911,-738.4518C124.0964,-726.0197 124.3683,-711.2833 125,-698 125.0983,-695.9328 125.2003,-693.8551 125.3058,-691.7682"/>
<polygon fill="none" stroke="#404040" points="125.309,-691.7072 121.6337,-685.503 125.9471,-679.7242 129.6224,-685.9284 125.309,-691.7072"/>
<text text-anchor="middle" x="157" y="-712" font-family="Helvetica,sans-Serif" font-size="10.00" fill="#000000"> +DummyBC</text>
<text text-anchor="middle" x="157" y="-701" font-family="Helvetica,sans-Serif" font-size="10.00" fill="#000000">+bc</text>
</g>
<!-- Node9 -->
<g id="node5" class="node">
<title>Node9</title>
<g id="a_node5"><a xlink:href="../../d3/d87/classuint32__t.html" target="_top" xlink:title="{uint32_t\n||}">
<polygon fill="none" stroke="#000000" points="226,-738.5 226,-795.5 282,-795.5 282,-738.5 226,-738.5"/>
<text text-anchor="middle" x="254" y="-783.5" font-family="Helvetica,sans-Serif" font-size="10.00" fill="#000000">uint32_t</text>
<polyline fill="none" stroke="#000000" points="226,-776.5 282,-776.5 "/>
<text text-anchor="middle" x="254" y="-764.5" font-family="Helvetica,sans-Serif" font-size="10.00" fill="#000000"> </text>
<polyline fill="none" stroke="#000000" points="226,-757.5 282,-757.5 "/>
<text text-anchor="middle" x="254" y="-745.5" font-family="Helvetica,sans-Serif" font-size="10.00" fill="#000000"> </text>
</a>
</g>
</g>
<!-- Node9&#45;&gt;Node5 -->
<g id="edge5" class="edge">
<title>Node9&#45;&gt;Node5</title>
<path fill="none" stroke="#404040" d="M275.6734,-738.3754C279.0682,-732.5654 282.0833,-726.2974 284,-720 311.2237,-630.5541 307.7179,-375.5045 302.8095,-223.7263"/>
<polygon fill="none" stroke="#404040" points="302.8061,-223.6212 298.6094,-217.7571 302.4082,-211.6278 306.605,-217.4919 302.8061,-223.6212"/>
<text text-anchor="middle" x="333.5" y="-472.5" font-family="Helvetica,sans-Serif" font-size="10.00" fill="#000000"> #mTrigger</text>
</g>
<!-- Node9&#45;&gt;Node6 -->
<g id="edge4" class="edge">
<title>Node9&#45;&gt;Node6</title>
<path fill="none" stroke="#404040" d="M225.9726,-739.767C220.7711,-733.647 215.7905,-726.9073 212,-720 206.9028,-710.7116 202.1551,-701.0139 197.7362,-691.0652"/>
<polygon fill="none" stroke="#404040" points="197.6082,-690.7662 191.5697,-686.8245 192.8857,-679.7345 198.9242,-683.6761 197.6082,-690.7662"/>
<text text-anchor="middle" x="248" y="-712" font-family="Helvetica,sans-Serif" font-size="10.00" fill="#000000"> +orbit</text>
<text text-anchor="middle" x="248" y="-701" font-family="Helvetica,sans-Serif" font-size="10.00" fill="#000000">+DummyOrbit</text>
</g>
<!-- Node10 -->
<g id="node6" class="node">
<title>Node10</title>
<polygon fill="none" stroke="#bfbfbf" points="371,-446.5 371,-503.5 409,-503.5 409,-446.5 371,-446.5"/>
<text text-anchor="middle" x="390" y="-491.5" font-family="Helvetica,sans-Serif" font-size="10.00" fill="#000000">bool</text>
<polyline fill="none" stroke="#bfbfbf" points="371,-484.5 409,-484.5 "/>
<text text-anchor="middle" x="390" y="-472.5" font-family="Helvetica,sans-Serif" font-size="10.00" fill="#000000"> </text>
<polyline fill="none" stroke="#bfbfbf" points="371,-465.5 409,-465.5 "/>
<text text-anchor="middle" x="390" y="-453.5" font-family="Helvetica,sans-Serif" font-size="10.00" fill="#000000"> </text>
</g>
<!-- Node10&#45;&gt;Node5 -->
<g id="edge6" class="edge">
<title>Node10&#45;&gt;Node5</title>
<path fill="none" stroke="#404040" d="M387.1029,-446.4713C382.6671,-406.5506 372.9837,-331.9575 357,-270 353.0849,-254.8238 348.3387,-239.075 343.2581,-223.6067"/>
<polygon fill="none" stroke="#404040" points="343.13,-223.2244 337.4304,-218.8069 339.3159,-211.8467 345.0156,-216.2642 343.13,-223.2244"/>
<text text-anchor="middle" x="403" y="-238.5" font-family="Helvetica,sans-Serif" font-size="10.00" fill="#000000"> #mDecodeNextAuto</text>
</g>
</g>
</svg>
