<?xml version="1.0" encoding="UTF-8" standalone="no"?>
<!DOCTYPE svg PUBLIC "-//W3C//DTD SVG 1.1//EN"
 "http://www.w3.org/Graphics/SVG/1.1/DTD/svg11.dtd">
<!-- Generated by graphviz version 2.40.1 (20161225.0304)
 -->
<!-- Title: /home/travis/build/AliceO2Group/AliceO2/Detectors/MUON/MID/Raw/src/GBTOutputHandler.cxx Pages: 1 -->
<svg width="880pt" height="352pt"
 viewBox="0.00 0.00 880.30 352.00" xmlns="http://www.w3.org/2000/svg" xmlns:xlink="http://www.w3.org/1999/xlink">
<g id="graph0" class="graph" transform="scale(1 1) rotate(0) translate(4 348)">
<title>/home/travis/build/AliceO2Group/AliceO2/Detectors/MUON/MID/Raw/src/GBTOutputHandler.cxx</title>
<!-- Node0 -->
<g id="node1" class="node">
<title>Node0</title>
<polygon fill="#bfbfbf" stroke="#000000" points="57.2964,-291.5 57.2964,-343.5 205.2964,-343.5 205.2964,-291.5 57.2964,-291.5"/>
<text text-anchor="start" x="65.2964" y="-331.5" font-family="Helvetica,sans-Serif" font-size="10.00" fill="#000000">/home/travis/build</text>
<text text-anchor="start" x="65.2964" y="-320.5" font-family="Helvetica,sans-Serif" font-size="10.00" fill="#000000">/AliceO2Group/AliceO2</text>
<text text-anchor="start" x="65.2964" y="-309.5" font-family="Helvetica,sans-Serif" font-size="10.00" fill="#000000">/Detectors/MUON/MID/Raw</text>
<text text-anchor="middle" x="131.2964" y="-298.5" font-family="Helvetica,sans-Serif" font-size="10.00" fill="#000000">/src/GBTOutputHandler.cxx</text>
</g>
<!-- Node1 -->
<g id="node2" class="node">
<title>Node1</title>
<g id="a_node2"><a xlink:href="../../d0/d0c/GBTOutputHandler_8h.html" target="_top" xlink:title="MID GBT decoder output handler. ">
<polygon fill="none" stroke="#000000" points="221.7964,-235.5 221.7964,-254.5 380.7964,-254.5 380.7964,-235.5 221.7964,-235.5"/>
<text text-anchor="middle" x="301.2964" y="-242.5" font-family="Helvetica,sans-Serif" font-size="10.00" fill="#000000">MIDRaw/GBTOutputHandler.h</text>
</a>
</g>
</g>
<!-- Node0&#45;&gt;Node1 -->
<g id="edge1" class="edge">
<title>Node0&#45;&gt;Node1</title>
<path fill="none" stroke="#191970" d="M192.6703,-291.3258C218.7325,-280.2111 248.0136,-267.7236 269.6022,-258.5167"/>
<polygon fill="#191970" stroke="#191970" points="271.1154,-261.6764 278.9409,-254.534 268.3694,-255.2375 271.1154,-261.6764"/>
</g>
<!-- Node15 -->
<g id="node16" class="node">
<title>Node15</title>
<g id="a_node16"><a xlink:href="../../d7/d1a/RawInfo_8h.html" target="_top" xlink:title="Raw data format MID. ">
<polygon fill="none" stroke="#000000" points="33.7964,-235.5 33.7964,-254.5 98.7964,-254.5 98.7964,-235.5 33.7964,-235.5"/>
<text text-anchor="middle" x="66.2964" y="-242.5" font-family="Helvetica,sans-Serif" font-size="10.00" fill="#000000">RawInfo.h</text>
</a>
</g>
</g>
<!-- Node0&#45;&gt;Node15 -->
<g id="edge24" class="edge">
<title>Node0&#45;&gt;Node15</title>
<path fill="none" stroke="#191970" d="M107.83,-291.3258C99.1219,-281.613 89.4739,-270.8518 81.6701,-262.1476"/>
<polygon fill="#191970" stroke="#191970" points="84.1257,-259.6433 74.8442,-254.534 78.9137,-264.3161 84.1257,-259.6433"/>
</g>
<!-- Node2 -->
<g id="node3" class="node">
<title>Node2</title>
<polygon fill="none" stroke="#bfbfbf" points="164.2964,-56.5 164.2964,-75.5 214.2964,-75.5 214.2964,-56.5 164.2964,-56.5"/>
<text text-anchor="middle" x="189.2964" y="-63.5" font-family="Helvetica,sans-Serif" font-size="10.00" fill="#000000">cstdint</text>
</g>
<!-- Node1&#45;&gt;Node2 -->
<g id="edge2" class="edge">
<title>Node1&#45;&gt;Node2</title>
<path fill="none" stroke="#191970" d="M221.5903,-237.3158C142.5763,-228.8749 31.4386,-214.4508 18.2964,-199 -28.5614,-143.9108 91.4587,-96.5398 154.0939,-76.3749"/>
<polygon fill="#191970" stroke="#191970" points="155.494,-79.6036 163.9824,-73.2634 153.3929,-72.9263 155.494,-79.6036"/>
</g>
<!-- Node3 -->
<g id="node4" class="node">
<title>Node3</title>
<polygon fill="none" stroke="#bfbfbf" points="184.2964,-118 184.2964,-137 226.2964,-137 226.2964,-118 184.2964,-118"/>
<text text-anchor="middle" x="205.2964" y="-125" font-family="Helvetica,sans-Serif" font-size="10.00" fill="#000000">array</text>
</g>
<!-- Node1&#45;&gt;Node3 -->
<g id="edge3" class="edge">
<title>Node1&#45;&gt;Node3</title>
<path fill="none" stroke="#191970" d="M275.1755,-235.4643C258.2885,-228.0109 237.1393,-216.0346 224.2964,-199 212.9725,-183.98 208.3867,-162.745 206.5356,-147.3216"/>
<polygon fill="#191970" stroke="#191970" points="210.0143,-146.9279 205.6138,-137.2902 203.0436,-147.5685 210.0143,-146.9279"/>
</g>
<!-- Node4 -->
<g id="node5" class="node">
<title>Node4</title>
<polygon fill="none" stroke="#bfbfbf" points="449.7964,-118 449.7964,-137 496.7964,-137 496.7964,-118 449.7964,-118"/>
<text text-anchor="middle" x="473.2964" y="-125" font-family="Helvetica,sans-Serif" font-size="10.00" fill="#000000">vector</text>
</g>
<!-- Node1&#45;&gt;Node4 -->
<g id="edge4" class="edge">
<title>Node1&#45;&gt;Node4</title>
<path fill="none" stroke="#191970" d="M380.8151,-239.5641C439.1999,-233.7223 511.4743,-221.979 530.2964,-199 546.1223,-179.679 520.9696,-157.102 499.2279,-142.5679"/>
<polygon fill="#191970" stroke="#191970" points="500.8676,-139.4629 490.5517,-137.0481 497.1101,-145.3689 500.8676,-139.4629"/>
</g>
<!-- Node5 -->
<g id="node6" class="node">
<title>Node5</title>
<g id="a_node6"><a xlink:href="../../d9/d80/InteractionRecord_8h.html" target="_top" xlink:title="CommonDataFormat/Interaction\lRecord.h">
<polygon fill="none" stroke="#000000" points="553.2964,-112.5 553.2964,-142.5 727.2964,-142.5 727.2964,-112.5 553.2964,-112.5"/>
<text text-anchor="start" x="561.2964" y="-130.5" font-family="Helvetica,sans-Serif" font-size="10.00" fill="#000000">CommonDataFormat/Interaction</text>
<text text-anchor="middle" x="640.2964" y="-119.5" font-family="Helvetica,sans-Serif" font-size="10.00" fill="#000000">Record.h</text>
</a>
</g>
</g>
<!-- Node1&#45;&gt;Node5 -->
<g id="edge5" class="edge">
<title>Node1&#45;&gt;Node5</title>
<path fill="none" stroke="#191970" d="M381.1388,-242.5178C503.551,-237.8789 726.0766,-225.8279 750.2964,-199 770.3864,-176.7467 740.7377,-158.4752 707.1867,-145.9737"/>
<polygon fill="#191970" stroke="#191970" points="708.253,-142.6384 697.6582,-142.6022 705.918,-149.2375 708.253,-142.6384"/>
</g>
<!-- Node11 -->
<g id="node12" class="node">
<title>Node11</title>
<g id="a_node12"><a xlink:href="../../d2/df9/MUON_2MID_2include_2DataFormatsMID_2ROFRecord_8h.html" target="_top" xlink:title="Definition of the MID event record. ">
<polygon fill="none" stroke="#000000" points="577.7964,-179.5 577.7964,-198.5 740.7964,-198.5 740.7964,-179.5 577.7964,-179.5"/>
<text text-anchor="middle" x="659.2964" y="-186.5" font-family="Helvetica,sans-Serif" font-size="10.00" fill="#000000">DataFormatsMID/ROFRecord.h</text>
</a>
</g>
</g>
<!-- Node1&#45;&gt;Node11 -->
<g id="edge12" class="edge">
<title>Node1&#45;&gt;Node11</title>
<path fill="none" stroke="#191970" d="M362.4321,-235.4369C425.1169,-225.6314 522.5169,-210.3957 588.5074,-200.0731"/>
<polygon fill="#191970" stroke="#191970" points="589.0741,-203.5272 598.413,-198.5237 587.9922,-196.6113 589.0741,-203.5272"/>
</g>
<!-- Node12 -->
<g id="node13" class="node">
<title>Node12</title>
<g id="a_node13"><a xlink:href="../../d2/da5/CrateParameters_8h.html" target="_top" xlink:title="MID RO crate parameters. ">
<polygon fill="none" stroke="#000000" points="27.2964,-179.5 27.2964,-198.5 177.2964,-198.5 177.2964,-179.5 27.2964,-179.5"/>
<text text-anchor="middle" x="102.2964" y="-186.5" font-family="Helvetica,sans-Serif" font-size="10.00" fill="#000000">MIDRaw/CrateParameters.h</text>
</a>
</g>
</g>
<!-- Node1&#45;&gt;Node12 -->
<g id="edge14" class="edge">
<title>Node1&#45;&gt;Node12</title>
<path fill="none" stroke="#191970" d="M267.0871,-235.3733C233.5667,-225.9404 182.346,-211.5265 145.9154,-201.2747"/>
<polygon fill="#191970" stroke="#191970" points="146.6336,-197.8409 136.0594,-198.5011 144.7374,-204.5792 146.6336,-197.8409"/>
</g>
<!-- Node13 -->
<g id="node14" class="node">
<title>Node13</title>
<g id="a_node14"><a xlink:href="../../de/d54/ELinkDecoder_8h.html" target="_top" xlink:title="MID e&#45;link decoder. ">
<polygon fill="none" stroke="#000000" points="387.2964,-179.5 387.2964,-198.5 521.2964,-198.5 521.2964,-179.5 387.2964,-179.5"/>
<text text-anchor="middle" x="454.2964" y="-186.5" font-family="Helvetica,sans-Serif" font-size="10.00" fill="#000000">MIDRaw/ELinkDecoder.h</text>
</a>
</g>
</g>
<!-- Node1&#45;&gt;Node13 -->
<g id="edge17" class="edge">
<title>Node1&#45;&gt;Node13</title>
<path fill="none" stroke="#191970" d="M327.5981,-235.3733C352.7092,-226.1822 390.7403,-212.2624 418.5837,-202.0713"/>
<polygon fill="#191970" stroke="#191970" points="420.1503,-205.2251 428.338,-198.5011 417.7442,-198.6516 420.1503,-205.2251"/>
</g>
<!-- Node14 -->
<g id="node15" class="node">
<title>Node14</title>
<g id="a_node15"><a xlink:href="../../d3/d4a/LocalBoardRO_8h.html" target="_top" xlink:title="Structure to store the FEE local board information. ">
<polygon fill="none" stroke="#000000" points="233.2964,-179.5 233.2964,-198.5 369.2964,-198.5 369.2964,-179.5 233.2964,-179.5"/>
<text text-anchor="middle" x="301.2964" y="-186.5" font-family="Helvetica,sans-Serif" font-size="10.00" fill="#000000">MIDRaw/LocalBoardRO.h</text>
</a>
</g>
</g>
<!-- Node1&#45;&gt;Node14 -->
<g id="edge20" class="edge">
<title>Node1&#45;&gt;Node14</title>
<path fill="none" stroke="#191970" d="M301.2964,-235.2455C301.2964,-227.9382 301.2964,-217.6944 301.2964,-208.7046"/>
<polygon fill="#191970" stroke="#191970" points="304.7965,-208.6426 301.2964,-198.6427 297.7965,-208.6427 304.7965,-208.6426"/>
</g>
<!-- Node5&#45;&gt;Node2 -->
<g id="edge10" class="edge">
<title>Node5&#45;&gt;Node2</title>
<path fill="none" stroke="#191970" d="M553.0719,-115.6057C453.2121,-101.9885 294.4278,-80.3361 224.4168,-70.7891"/>
<polygon fill="#191970" stroke="#191970" points="224.7378,-67.3006 214.3566,-69.4173 223.7919,-74.2364 224.7378,-67.3006"/>
</g>
<!-- Node6 -->
<g id="node7" class="node">
<title>Node6</title>
<g id="a_node7"><a xlink:href="../../d2/d45/GPUCommonRtypes_8h.html" target="_top" xlink:title="GPUCommonRtypes.h">
<polygon fill="none" stroke="#000000" points="473.7964,-56.5 473.7964,-75.5 598.7964,-75.5 598.7964,-56.5 473.7964,-56.5"/>
<text text-anchor="middle" x="536.2964" y="-63.5" font-family="Helvetica,sans-Serif" font-size="10.00" fill="#000000">GPUCommonRtypes.h</text>
</a>
</g>
</g>
<!-- Node5&#45;&gt;Node6 -->
<g id="edge6" class="edge">
<title>Node5&#45;&gt;Node6</title>
<path fill="none" stroke="#191970" d="M614.8552,-112.4554C598.568,-102.8241 577.5291,-90.3828 561.3235,-80.7996"/>
<polygon fill="#191970" stroke="#191970" points="562.8019,-77.6078 552.4128,-75.5303 559.2388,-83.6331 562.8019,-77.6078"/>
</g>
<!-- Node8 -->
<g id="node9" class="node">
<title>Node8</title>
<polygon fill="none" stroke="#bfbfbf" points="365.7964,-56.5 365.7964,-75.5 414.7964,-75.5 414.7964,-56.5 365.7964,-56.5"/>
<text text-anchor="middle" x="390.2964" y="-63.5" font-family="Helvetica,sans-Serif" font-size="10.00" fill="#000000">iosfwd</text>
</g>
<!-- Node5&#45;&gt;Node8 -->
<g id="edge8" class="edge">
<title>Node5&#45;&gt;Node8</title>
<path fill="none" stroke="#191970" d="M579.1396,-112.4554C530.6021,-100.5152 464.5094,-84.2564 424.7619,-74.4785"/>
<polygon fill="#191970" stroke="#191970" points="425.5565,-71.0697 415.0099,-72.0795 423.8843,-77.867 425.5565,-71.0697"/>
</g>
<!-- Node9 -->
<g id="node10" class="node">
<title>Node9</title>
<polygon fill="none" stroke="#bfbfbf" points="616.7964,-56.5 616.7964,-75.5 663.7964,-75.5 663.7964,-56.5 616.7964,-56.5"/>
<text text-anchor="middle" x="640.2964" y="-63.5" font-family="Helvetica,sans-Serif" font-size="10.00" fill="#000000">cmath</text>
</g>
<!-- Node5&#45;&gt;Node9 -->
<g id="edge9" class="edge">
<title>Node5&#45;&gt;Node9</title>
<path fill="none" stroke="#191970" d="M640.2964,-112.2977C640.2964,-104.3834 640.2964,-94.6043 640.2964,-86.0759"/>
<polygon fill="#191970" stroke="#191970" points="643.7965,-85.8469 640.2964,-75.8469 636.7965,-85.847 643.7965,-85.8469"/>
</g>
<!-- Node10 -->
<g id="node11" class="node">
<title>Node10</title>
<g id="a_node11"><a xlink:href="../../d4/dc6/LHCConstants_8h.html" target="_top" xlink:title="Header to collect LHC related constants. ">
<polygon fill="none" stroke="#000000" points="682.2964,-56.5 682.2964,-75.5 872.2964,-75.5 872.2964,-56.5 682.2964,-56.5"/>
<text text-anchor="middle" x="777.2964" y="-63.5" font-family="Helvetica,sans-Serif" font-size="10.00" fill="#000000">CommonConstants/LHCConstants.h</text>
</a>
</g>
</g>
<!-- Node5&#45;&gt;Node10 -->
<g id="edge11" class="edge">
<title>Node5&#45;&gt;Node10</title>
<path fill="none" stroke="#191970" d="M673.8104,-112.4554C696.0677,-102.464 725.0612,-89.4487 746.695,-79.7372"/>
<polygon fill="#191970" stroke="#191970" points="748.3767,-82.8187 756.0663,-75.5303 745.51,-76.4327 748.3767,-82.8187"/>
</g>
<!-- Node7 -->
<g id="node8" class="node">
<title>Node7</title>
<polygon fill="none" stroke="#bfbfbf" points="506.7964,-.5 506.7964,-19.5 565.7964,-19.5 565.7964,-.5 506.7964,-.5"/>
<text text-anchor="middle" x="536.2964" y="-7.5" font-family="Helvetica,sans-Serif" font-size="10.00" fill="#000000">Rtypes.h</text>
</g>
<!-- Node6&#45;&gt;Node7 -->
<g id="edge7" class="edge">
<title>Node6&#45;&gt;Node7</title>
<path fill="none" stroke="#191970" d="M536.2964,-56.2455C536.2964,-48.9382 536.2964,-38.6944 536.2964,-29.7046"/>
<polygon fill="#191970" stroke="#191970" points="539.7965,-29.6426 536.2964,-19.6427 532.7965,-29.6427 539.7965,-29.6426"/>
</g>
<!-- Node11&#45;&gt;Node5 -->
<g id="edge13" class="edge">
<title>Node11&#45;&gt;Node5</title>
<path fill="none" stroke="#191970" d="M656.3277,-179.3906C654.0896,-172.1463 650.9142,-161.8679 647.9791,-152.3676"/>
<polygon fill="#191970" stroke="#191970" points="651.2403,-151.0659 644.9444,-142.5446 644.5522,-153.1322 651.2403,-151.0659"/>
</g>
<!-- Node12&#45;&gt;Node2 -->
<g id="edge15" class="edge">
<title>Node12&#45;&gt;Node2</title>
<path fill="none" stroke="#191970" d="M109.1232,-179.3484C123.6713,-158.7804 157.9201,-110.3596 176.6009,-83.9489"/>
<polygon fill="#191970" stroke="#191970" points="179.5842,-85.7921 182.5014,-75.6068 173.8693,-81.7498 179.5842,-85.7921"/>
</g>
<!-- Node12&#45;&gt;Node3 -->
<g id="edge16" class="edge">
<title>Node12&#45;&gt;Node3</title>
<path fill="none" stroke="#191970" d="M118.3902,-179.3906C135.0193,-169.4616 161.1941,-153.833 180.4759,-142.3201"/>
<polygon fill="#191970" stroke="#191970" points="182.5241,-145.1736 189.3157,-137.0419 178.9354,-139.1634 182.5241,-145.1736"/>
</g>
<!-- Node13&#45;&gt;Node2 -->
<g id="edge18" class="edge">
<title>Node13&#45;&gt;Node2</title>
<path fill="none" stroke="#191970" d="M433.5023,-179.3484C386.7704,-157.6577 273.3005,-104.9905 219.0903,-79.8289"/>
<polygon fill="#191970" stroke="#191970" points="220.5381,-76.6422 209.994,-75.6068 217.591,-82.9916 220.5381,-76.6422"/>
</g>
<!-- Node13&#45;&gt;Node4 -->
<g id="edge19" class="edge">
<title>Node13&#45;&gt;Node4</title>
<path fill="none" stroke="#191970" d="M457.2652,-179.3906C459.9266,-170.776 463.9136,-157.8708 467.2456,-147.0858"/>
<polygon fill="#191970" stroke="#191970" points="470.678,-147.8324 470.2858,-137.2449 463.9899,-145.7661 470.678,-147.8324"/>
</g>
<!-- Node14&#45;&gt;Node2 -->
<g id="edge21" class="edge">
<title>Node14&#45;&gt;Node2</title>
<path fill="none" stroke="#191970" d="M293.3981,-179.3116C281.2422,-164.5109 257.0689,-135.5116 235.2964,-112 226.1311,-102.1026 215.5051,-91.4276 206.7764,-82.855"/>
<polygon fill="#191970" stroke="#191970" points="208.9942,-80.1291 199.39,-75.6559 204.1084,-85.1421 208.9942,-80.1291"/>
</g>
<!-- Node14&#45;&gt;Node3 -->
<g id="edge22" class="edge">
<title>Node14&#45;&gt;Node3</title>
<path fill="none" stroke="#191970" d="M286.2964,-179.3906C270.9384,-169.5519 246.8444,-154.1167 228.9219,-142.6351"/>
<polygon fill="#191970" stroke="#191970" points="230.4995,-139.4891 220.1911,-137.0419 226.7234,-145.3833 230.4995,-139.4891"/>
</g>
<!-- Node14&#45;&gt;Node8 -->
<g id="edge23" class="edge">
<title>Node14&#45;&gt;Node8</title>
<path fill="none" stroke="#191970" d="M308.2801,-179.3484C323.1626,-158.7804 358.1988,-110.3596 377.309,-83.9489"/>
<polygon fill="#191970" stroke="#191970" points="380.3186,-85.7601 383.3452,-75.6068 374.6475,-81.6566 380.3186,-85.7601"/>
</g>
<!-- Node15&#45;&gt;Node2 -->
<g id="edge25" class="edge">
<title>Node15&#45;&gt;Node2</title>
<path fill="none" stroke="#191970" d="M45.1749,-235.4622C31.0461,-227.8191 13.5792,-215.6199 5.2964,-199 -6.498,-175.3338 4.0722,-129.7995 21.2964,-112 39.5967,-93.0886 110.667,-78.6295 154.2949,-71.31"/>
<polygon fill="#191970" stroke="#191970" points="154.9126,-74.7556 164.2172,-69.6887 153.7837,-67.8472 154.9126,-74.7556"/>
</g>
</g>
</svg>
