<?xml version="1.0" encoding="UTF-8" standalone="no"?>
<!DOCTYPE svg PUBLIC "-//W3C//DTD SVG 1.1//EN"
 "http://www.w3.org/Graphics/SVG/1.1/DTD/svg11.dtd">
<!-- Generated by graphviz version 2.40.1 (20161225.0304)
 -->
<!-- Title: /home/travis/build/AliceO2Group/AliceO2/GPU/GPUTracking/Merger/GPUTPCGMMergerGPU.h Pages: 1 -->
<svg width="1625pt" height="565pt"
 viewBox="0.00 0.00 1625.00 565.00" xmlns="http://www.w3.org/2000/svg" xmlns:xlink="http://www.w3.org/1999/xlink">
<g id="graph0" class="graph" transform="scale(1 1) rotate(0) translate(4 561)">
<title>/home/travis/build/AliceO2Group/AliceO2/GPU/GPUTracking/Merger/GPUTPCGMMergerGPU.h</title>
<!-- Node0 -->
<g id="node1" class="node">
<title>Node0</title>
<polygon fill="#bfbfbf" stroke="#000000" points="100.5,-504.5 100.5,-556.5 242.5,-556.5 242.5,-504.5 100.5,-504.5"/>
<text text-anchor="start" x="108.5" y="-544.5" font-family="Helvetica,sans-Serif" font-size="10.00" fill="#000000">/home/travis/build</text>
<text text-anchor="start" x="108.5" y="-533.5" font-family="Helvetica,sans-Serif" font-size="10.00" fill="#000000">/AliceO2Group/AliceO2</text>
<text text-anchor="start" x="108.5" y="-522.5" font-family="Helvetica,sans-Serif" font-size="10.00" fill="#000000">/GPU/GPUTracking/Merger</text>
<text text-anchor="middle" x="171.5" y="-511.5" font-family="Helvetica,sans-Serif" font-size="10.00" fill="#000000">/GPUTPCGMMergerGPU.h</text>
</g>
<!-- Node1 -->
<g id="node2" class="node">
<title>Node1</title>
<g id="a_node2"><a xlink:href="../../d9/de5/GPUGeneralKernels_8h.html" target="_top" xlink:title="GPUGeneralKernels.h">
<polygon fill="none" stroke="#000000" points="80,-224.5 80,-243.5 201,-243.5 201,-224.5 80,-224.5"/>
<text text-anchor="middle" x="140.5" y="-231.5" font-family="Helvetica,sans-Serif" font-size="10.00" fill="#000000">GPUGeneralKernels.h</text>
</a>
</g>
</g>
<!-- Node0&#45;&gt;Node1 -->
<g id="edge1" class="edge">
<title>Node0&#45;&gt;Node1</title>
<path fill="none" stroke="#191970" d="M171.5,-504.4123C171.5,-478.4505 171.5,-437.4714 171.5,-402 171.5,-402 171.5,-402 171.5,-346 171.5,-312.3636 158.3523,-275.0368 149.1816,-253.0922"/>
<polygon fill="#191970" stroke="#191970" points="152.2693,-251.4156 145.0742,-243.6387 145.8491,-254.2051 152.2693,-251.4156"/>
</g>
<!-- Node14 -->
<g id="node15" class="node">
<title>Node14</title>
<g id="a_node15"><a xlink:href="../../db/df8/GPUConstantMem_8h.html" target="_top" xlink:title="GPUConstantMem.h">
<polygon fill="none" stroke="#000000" points="1226.5,-448.5 1226.5,-467.5 1340.5,-467.5 1340.5,-448.5 1226.5,-448.5"/>
<text text-anchor="middle" x="1283.5" y="-455.5" font-family="Helvetica,sans-Serif" font-size="10.00" fill="#000000">GPUConstantMem.h</text>
</a>
</g>
</g>
<!-- Node0&#45;&gt;Node14 -->
<g id="edge15" class="edge">
<title>Node0&#45;&gt;Node14</title>
<path fill="none" stroke="#191970" d="M242.7522,-525.8545C444.6632,-512.6903 1018.7416,-475.2617 1215.9817,-462.402"/>
<polygon fill="#191970" stroke="#191970" points="1216.4518,-465.8789 1226.2029,-461.7356 1215.9963,-458.8938 1216.4518,-465.8789"/>
</g>
<!-- Node38 -->
<g id="node39" class="node">
<title>Node38</title>
<g id="a_node39"><a xlink:href="../../de/d4c/GPUTPCGMMergerTypes_8h.html" target="_top" xlink:title="GPUTPCGMMergerTypes.h">
<polygon fill="none" stroke="#000000" points="0,-280.5 0,-299.5 143,-299.5 143,-280.5 0,-280.5"/>
<text text-anchor="middle" x="71.5" y="-287.5" font-family="Helvetica,sans-Serif" font-size="10.00" fill="#000000">GPUTPCGMMergerTypes.h</text>
</a>
</g>
</g>
<!-- Node0&#45;&gt;Node38 -->
<g id="edge67" class="edge">
<title>Node0&#45;&gt;Node38</title>
<path fill="none" stroke="#191970" d="M160.6079,-504.3045C140.3119,-455.4927 97.1596,-351.7114 79.3941,-308.9853"/>
<polygon fill="#191970" stroke="#191970" points="82.6156,-307.6168 75.5445,-299.7269 76.1521,-310.3043 82.6156,-307.6168"/>
</g>
<!-- Node2 -->
<g id="node3" class="node">
<title>Node2</title>
<g id="a_node3"><a xlink:href="../../d2/d6d/GPUDef_8h.html" target="_top" xlink:title="GPUDef.h">
<polygon fill="none" stroke="#000000" points="661,-112.5 661,-131.5 724,-131.5 724,-112.5 661,-112.5"/>
<text text-anchor="middle" x="692.5" y="-119.5" font-family="Helvetica,sans-Serif" font-size="10.00" fill="#000000">GPUDef.h</text>
</a>
</g>
</g>
<!-- Node1&#45;&gt;Node2 -->
<g id="edge2" class="edge">
<title>Node1&#45;&gt;Node2</title>
<path fill="none" stroke="#191970" d="M148.0117,-224.2857C160.2831,-209.2332 186.2169,-180.689 215.5,-168 293.2838,-134.2947 549.4991,-125.1016 650.7752,-122.7538"/>
<polygon fill="#191970" stroke="#191970" points="651.0104,-126.2495 660.9306,-122.5294 650.8557,-119.2512 651.0104,-126.2495"/>
</g>
<!-- Node12 -->
<g id="node13" class="node">
<title>Node12</title>
<g id="a_node13"><a xlink:href="../../d4/dc5/GPUDataTypes_8h.html" target="_top" xlink:title="GPUDataTypes.h">
<polygon fill="none" stroke="#000000" points="1420.5,-168.5 1420.5,-187.5 1518.5,-187.5 1518.5,-168.5 1420.5,-168.5"/>
<text text-anchor="middle" x="1469.5" y="-175.5" font-family="Helvetica,sans-Serif" font-size="10.00" fill="#000000">GPUDataTypes.h</text>
</a>
</g>
</g>
<!-- Node1&#45;&gt;Node12 -->
<g id="edge12" class="edge">
<title>Node1&#45;&gt;Node12</title>
<path fill="none" stroke="#191970" d="M201.205,-229.3459C227.4258,-227.4641 258.461,-225.4084 286.5,-224 782.8326,-199.0693 912.1122,-238.0994 1410.2381,-187.9877"/>
<polygon fill="#191970" stroke="#191970" points="1410.6067,-191.4684 1420.2031,-186.9784 1409.9012,-184.504 1410.6067,-191.4684"/>
</g>
<!-- Node3 -->
<g id="node4" class="node">
<title>Node3</title>
<g id="a_node4"><a xlink:href="../../df/d21/GPUCommonDef_8h.html" target="_top" xlink:title="GPUCommonDef.h">
<polygon fill="none" stroke="#000000" points="1115,-56.5 1115,-75.5 1222,-75.5 1222,-56.5 1115,-56.5"/>
<text text-anchor="middle" x="1168.5" y="-63.5" font-family="Helvetica,sans-Serif" font-size="10.00" fill="#000000">GPUCommonDef.h</text>
</a>
</g>
</g>
<!-- Node2&#45;&gt;Node3 -->
<g id="edge3" class="edge">
<title>Node2&#45;&gt;Node3</title>
<path fill="none" stroke="#191970" d="M724.1003,-118.2823C801.4661,-109.1805 1001.5744,-85.6383 1104.8096,-73.493"/>
<polygon fill="#191970" stroke="#191970" points="1105.2698,-76.9631 1114.7923,-72.3186 1104.4518,-70.011 1105.2698,-76.9631"/>
</g>
<!-- Node6 -->
<g id="node7" class="node">
<title>Node6</title>
<g id="a_node7"><a xlink:href="../../d2/d37/GPUDefConstantsAndSettings_8h.html" target="_top" xlink:title="GPUDefConstantsAndSettings.h">
<polygon fill="none" stroke="#000000" points="348,-56.5 348,-75.5 519,-75.5 519,-56.5 348,-56.5"/>
<text text-anchor="middle" x="433.5" y="-63.5" font-family="Helvetica,sans-Serif" font-size="10.00" fill="#000000">GPUDefConstantsAndSettings.h</text>
</a>
</g>
</g>
<!-- Node2&#45;&gt;Node6 -->
<g id="edge6" class="edge">
<title>Node2&#45;&gt;Node6</title>
<path fill="none" stroke="#191970" d="M660.7415,-115.1333C617.5954,-105.8044 539.8417,-88.9928 487.453,-77.6655"/>
<polygon fill="#191970" stroke="#191970" points="488.1698,-74.2397 477.6559,-75.5472 486.6904,-81.0816 488.1698,-74.2397"/>
</g>
<!-- Node7 -->
<g id="node8" class="node">
<title>Node7</title>
<g id="a_node8"><a xlink:href="../../dc/de9/GPUDefGPUParameters_8h.html" target="_top" xlink:title="GPUDefGPUParameters.h">
<polygon fill="none" stroke="#000000" points="537.5,-56.5 537.5,-75.5 677.5,-75.5 677.5,-56.5 537.5,-56.5"/>
<text text-anchor="middle" x="607.5" y="-63.5" font-family="Helvetica,sans-Serif" font-size="10.00" fill="#000000">GPUDefGPUParameters.h</text>
</a>
</g>
</g>
<!-- Node2&#45;&gt;Node7 -->
<g id="edge7" class="edge">
<title>Node2&#45;&gt;Node7</title>
<path fill="none" stroke="#191970" d="M677.6941,-112.2455C664.7744,-103.7337 645.8069,-91.2375 630.8448,-81.3801"/>
<polygon fill="#191970" stroke="#191970" points="632.4124,-78.2216 622.1362,-75.6427 628.5613,-84.067 632.4124,-78.2216"/>
</g>
<!-- Node9 -->
<g id="node10" class="node">
<title>Node9</title>
<g id="a_node10"><a xlink:href="../../d3/d4c/GPUDefOpenCL12Templates_8h.html" target="_top" xlink:title="GPUDefOpenCL12Templates.h">
<polygon fill="none" stroke="#000000" points="695.5,-56.5 695.5,-75.5 859.5,-75.5 859.5,-56.5 695.5,-56.5"/>
<text text-anchor="middle" x="777.5" y="-63.5" font-family="Helvetica,sans-Serif" font-size="10.00" fill="#000000">GPUDefOpenCL12Templates.h</text>
</a>
</g>
</g>
<!-- Node2&#45;&gt;Node9 -->
<g id="edge9" class="edge">
<title>Node2&#45;&gt;Node9</title>
<path fill="none" stroke="#191970" d="M707.3059,-112.2455C720.2256,-103.7337 739.1931,-91.2375 754.1552,-81.3801"/>
<polygon fill="#191970" stroke="#191970" points="756.4387,-84.067 762.8638,-75.6427 752.5876,-78.2216 756.4387,-84.067"/>
</g>
<!-- Node10 -->
<g id="node11" class="node">
<title>Node10</title>
<g id="a_node11"><a xlink:href="../../d2/d45/GPUCommonRtypes_8h.html" target="_top" xlink:title="GPUCommonRtypes.h">
<polygon fill="none" stroke="#000000" points="878,-56.5 878,-75.5 1003,-75.5 1003,-56.5 878,-56.5"/>
<text text-anchor="middle" x="940.5" y="-63.5" font-family="Helvetica,sans-Serif" font-size="10.00" fill="#000000">GPUCommonRtypes.h</text>
</a>
</g>
</g>
<!-- Node2&#45;&gt;Node10 -->
<g id="edge10" class="edge">
<title>Node2&#45;&gt;Node10</title>
<path fill="none" stroke="#191970" d="M724.1613,-114.8507C765.5752,-105.4991 838.6917,-88.989 888.3449,-77.777"/>
<polygon fill="#191970" stroke="#191970" points="889.2716,-81.1559 898.2551,-75.5392 887.7298,-74.3278 889.2716,-81.1559"/>
</g>
<!-- Node4 -->
<g id="node5" class="node">
<title>Node4</title>
<g id="a_node5"><a xlink:href="../../d5/d93/GPUCommonDefSettings_8h.html" target="_top" xlink:title="GPUCommonDefSettings.h">
<polygon fill="none" stroke="#000000" points="1017.5,-.5 1017.5,-19.5 1165.5,-19.5 1165.5,-.5 1017.5,-.5"/>
<text text-anchor="middle" x="1091.5" y="-7.5" font-family="Helvetica,sans-Serif" font-size="10.00" fill="#000000">GPUCommonDefSettings.h</text>
</a>
</g>
</g>
<!-- Node3&#45;&gt;Node4 -->
<g id="edge4" class="edge">
<title>Node3&#45;&gt;Node4</title>
<path fill="none" stroke="#191970" d="M1155.0876,-56.2455C1143.4943,-47.814 1126.5252,-35.4729 1113.0322,-25.6598"/>
<polygon fill="#191970" stroke="#191970" points="1114.9047,-22.6938 1104.7587,-19.6427 1110.7874,-28.355 1114.9047,-22.6938"/>
</g>
<!-- Node5 -->
<g id="node6" class="node">
<title>Node5</title>
<g id="a_node6"><a xlink:href="../../da/d5a/GPUCommonDefAPI_8h.html" target="_top" xlink:title="GPUCommonDefAPI.h">
<polygon fill="none" stroke="#000000" points="1183.5,-.5 1183.5,-19.5 1307.5,-19.5 1307.5,-.5 1183.5,-.5"/>
<text text-anchor="middle" x="1245.5" y="-7.5" font-family="Helvetica,sans-Serif" font-size="10.00" fill="#000000">GPUCommonDefAPI.h</text>
</a>
</g>
</g>
<!-- Node3&#45;&gt;Node5 -->
<g id="edge5" class="edge">
<title>Node3&#45;&gt;Node5</title>
<path fill="none" stroke="#191970" d="M1181.9124,-56.2455C1193.5057,-47.814 1210.4748,-35.4729 1223.9678,-25.6598"/>
<polygon fill="#191970" stroke="#191970" points="1226.2126,-28.355 1232.2413,-19.6427 1222.0953,-22.6938 1226.2126,-28.355"/>
</g>
<!-- Node8 -->
<g id="node9" class="node">
<title>Node8</title>
<g id="a_node9"><a xlink:href="../../d6/dff/GPUDefMacros_8h.html" target="_top" xlink:title="GPUDefMacros.h">
<polygon fill="none" stroke="#000000" points="558.5,-.5 558.5,-19.5 656.5,-19.5 656.5,-.5 558.5,-.5"/>
<text text-anchor="middle" x="607.5" y="-7.5" font-family="Helvetica,sans-Serif" font-size="10.00" fill="#000000">GPUDefMacros.h</text>
</a>
</g>
</g>
<!-- Node7&#45;&gt;Node8 -->
<g id="edge8" class="edge">
<title>Node7&#45;&gt;Node8</title>
<path fill="none" stroke="#191970" d="M607.5,-56.2455C607.5,-48.9382 607.5,-38.6944 607.5,-29.7046"/>
<polygon fill="#191970" stroke="#191970" points="611.0001,-29.6426 607.5,-19.6427 604.0001,-29.6427 611.0001,-29.6426"/>
</g>
<!-- Node11 -->
<g id="node12" class="node">
<title>Node11</title>
<polygon fill="none" stroke="#bfbfbf" points="911,-.5 911,-19.5 970,-19.5 970,-.5 911,-.5"/>
<text text-anchor="middle" x="940.5" y="-7.5" font-family="Helvetica,sans-Serif" font-size="10.00" fill="#000000">Rtypes.h</text>
</g>
<!-- Node10&#45;&gt;Node11 -->
<g id="edge11" class="edge">
<title>Node10&#45;&gt;Node11</title>
<path fill="none" stroke="#191970" d="M940.5,-56.2455C940.5,-48.9382 940.5,-38.6944 940.5,-29.7046"/>
<polygon fill="#191970" stroke="#191970" points="944.0001,-29.6426 940.5,-19.6427 937.0001,-29.6427 944.0001,-29.6426"/>
</g>
<!-- Node12&#45;&gt;Node3 -->
<g id="edge13" class="edge">
<title>Node12&#45;&gt;Node3</title>
<path fill="none" stroke="#191970" d="M1465.4071,-168.0831C1458.7515,-153.2903 1444.1149,-125.7198 1422.5,-112 1391.6133,-92.395 1296.8128,-79.0867 1232.1839,-72.0176"/>
<polygon fill="#191970" stroke="#191970" points="1232.4006,-68.5209 1222.0849,-70.9366 1231.6555,-75.4811 1232.4006,-68.5209"/>
</g>
<!-- Node13 -->
<g id="node14" class="node">
<title>Node13</title>
<polygon fill="none" stroke="#bfbfbf" points="1344,-112.5 1344,-131.5 1397,-131.5 1397,-112.5 1344,-112.5"/>
<text text-anchor="middle" x="1370.5" y="-119.5" font-family="Helvetica,sans-Serif" font-size="10.00" fill="#000000">cstddef</text>
</g>
<!-- Node12&#45;&gt;Node13 -->
<g id="edge14" class="edge">
<title>Node12&#45;&gt;Node13</title>
<path fill="none" stroke="#191970" d="M1452.2555,-168.2455C1436.9239,-159.5731 1414.2801,-146.7645 1396.7084,-136.825"/>
<polygon fill="#191970" stroke="#191970" points="1397.9741,-133.5198 1387.5469,-131.6427 1394.5276,-139.6126 1397.9741,-133.5198"/>
</g>
<!-- Node14&#45;&gt;Node12 -->
<g id="edge58" class="edge">
<title>Node14&#45;&gt;Node12</title>
<path fill="none" stroke="#191970" d="M1314.1267,-448.44C1354.7826,-433.6165 1421.5,-400.9235 1421.5,-346 1421.5,-346 1421.5,-346 1421.5,-290 1421.5,-254.4341 1442.2017,-217.2782 1456.4145,-195.9597"/>
<polygon fill="#191970" stroke="#191970" points="1459.3933,-197.8059 1462.2098,-187.5923 1453.6387,-193.8202 1459.3933,-197.8059"/>
</g>
<!-- Node15 -->
<g id="node16" class="node">
<title>Node15</title>
<g id="a_node16"><a xlink:href="../../d6/d25/GPUTPCTracker_8h.html" target="_top" xlink:title="GPUTPCTracker.h">
<polygon fill="none" stroke="#000000" points="965.5,-392.5 965.5,-411.5 1065.5,-411.5 1065.5,-392.5 965.5,-392.5"/>
<text text-anchor="middle" x="1015.5" y="-399.5" font-family="Helvetica,sans-Serif" font-size="10.00" fill="#000000">GPUTPCTracker.h</text>
</a>
</g>
</g>
<!-- Node14&#45;&gt;Node15 -->
<g id="edge16" class="edge">
<title>Node14&#45;&gt;Node15</title>
<path fill="none" stroke="#191970" d="M1237.7337,-448.4369C1191.5785,-438.7925 1120.2822,-423.8948 1070.9463,-413.5858"/>
<polygon fill="#191970" stroke="#191970" points="1071.5821,-410.1431 1061.0776,-411.5237 1070.1502,-416.9951 1071.5821,-410.1431"/>
</g>
<!-- Node25 -->
<g id="node26" class="node">
<title>Node25</title>
<g id="a_node26"><a xlink:href="../../df/d13/GPUParam_8h.html" target="_top" xlink:title="GPUParam.h">
<polygon fill="none" stroke="#000000" points="1108,-280.5 1108,-299.5 1185,-299.5 1185,-280.5 1108,-280.5"/>
<text text-anchor="middle" x="1146.5" y="-287.5" font-family="Helvetica,sans-Serif" font-size="10.00" fill="#000000">GPUParam.h</text>
</a>
</g>
</g>
<!-- Node14&#45;&gt;Node25 -->
<g id="edge57" class="edge">
<title>Node14&#45;&gt;Node25</title>
<path fill="none" stroke="#191970" d="M1284.9825,-448.1771C1287.8079,-425.6423 1291.4846,-369.5893 1264.5,-336 1247.495,-314.8328 1219.4391,-303.3832 1194.9504,-297.2013"/>
<polygon fill="#191970" stroke="#191970" points="1195.5992,-293.7593 1185.0697,-294.9345 1194.0338,-300.5821 1195.5992,-293.7593"/>
</g>
<!-- Node34 -->
<g id="node35" class="node">
<title>Node34</title>
<g id="a_node35"><a xlink:href="../../da/da4/GPUErrors_8h.html" target="_top" xlink:title="GPUErrors.h">
<polygon fill="none" stroke="#000000" points="282,-392.5 282,-411.5 357,-411.5 357,-392.5 282,-392.5"/>
<text text-anchor="middle" x="319.5" y="-399.5" font-family="Helvetica,sans-Serif" font-size="10.00" fill="#000000">GPUErrors.h</text>
</a>
</g>
</g>
<!-- Node14&#45;&gt;Node34 -->
<g id="edge59" class="edge">
<title>Node14&#45;&gt;Node34</title>
<path fill="none" stroke="#191970" d="M1226.4408,-454.6854C1052.1019,-444.5578 528.5175,-414.1421 367.2856,-404.7759"/>
<polygon fill="#191970" stroke="#191970" points="367.3833,-401.2758 357.1971,-404.1899 366.9772,-408.264 367.3833,-401.2758"/>
</g>
<!-- Node36 -->
<g id="node37" class="node">
<title>Node36</title>
<g id="a_node37"><a xlink:href="../../d7/d4f/GPUTRDDef_8h.html" target="_top" xlink:title="GPUTRDDef.h">
<polygon fill="none" stroke="#000000" points="1534,-392.5 1534,-411.5 1617,-411.5 1617,-392.5 1534,-392.5"/>
<text text-anchor="middle" x="1575.5" y="-399.5" font-family="Helvetica,sans-Serif" font-size="10.00" fill="#000000">GPUTRDDef.h</text>
</a>
</g>
</g>
<!-- Node14&#45;&gt;Node36 -->
<g id="edge62" class="edge">
<title>Node14&#45;&gt;Node36</title>
<path fill="none" stroke="#191970" d="M1333.3648,-448.4369C1386.4647,-438.2533 1470.1056,-422.2126 1523.8706,-411.9015"/>
<polygon fill="#191970" stroke="#191970" points="1524.7156,-415.3033 1533.8774,-409.9824 1523.3971,-408.4286 1524.7156,-415.3033"/>
</g>
<!-- Node37 -->
<g id="node38" class="node">
<title>Node37</title>
<g id="a_node38"><a xlink:href="../../da/d28/GPUO2FakeClasses_8h.html" target="_top" xlink:title="GPUO2FakeClasses.h">
<polygon fill="none" stroke="#000000" points="1449.5,-224.5 1449.5,-243.5 1569.5,-243.5 1569.5,-224.5 1449.5,-224.5"/>
<text text-anchor="middle" x="1509.5" y="-231.5" font-family="Helvetica,sans-Serif" font-size="10.00" fill="#000000">GPUO2FakeClasses.h</text>
</a>
</g>
</g>
<!-- Node14&#45;&gt;Node37 -->
<g id="edge64" class="edge">
<title>Node14&#45;&gt;Node37</title>
<path fill="none" stroke="#191970" d="M1330.301,-448.4385C1368.9545,-439.7271 1419.9094,-426.1028 1435.5,-412 1483.1839,-368.8664 1500.9746,-290.2199 1506.884,-253.6588"/>
<polygon fill="#191970" stroke="#191970" points="1510.3486,-254.1551 1508.3564,-243.7493 1503.4246,-253.1262 1510.3486,-254.1551"/>
</g>
<!-- Node16 -->
<g id="node17" class="node">
<title>Node16</title>
<g id="a_node17"><a xlink:href="../../da/dab/GPUTPCDef_8h.html" target="_top" xlink:title="GPUTPCDef.h">
<polygon fill="none" stroke="#000000" points="485.5,-168.5 485.5,-187.5 567.5,-187.5 567.5,-168.5 485.5,-168.5"/>
<text text-anchor="middle" x="526.5" y="-175.5" font-family="Helvetica,sans-Serif" font-size="10.00" fill="#000000">GPUTPCDef.h</text>
</a>
</g>
</g>
<!-- Node15&#45;&gt;Node16 -->
<g id="edge17" class="edge">
<title>Node15&#45;&gt;Node16</title>
<path fill="none" stroke="#191970" d="M965.202,-400.1542C845.308,-394.5844 548.2268,-373.497 488.5,-300 463.3446,-269.045 492.2699,-221.3908 511.718,-195.7645"/>
<polygon fill="#191970" stroke="#191970" points="514.6491,-197.7002 518.0976,-187.6823 509.1545,-193.3631 514.6491,-197.7002"/>
</g>
<!-- Node17 -->
<g id="node18" class="node">
<title>Node17</title>
<polygon fill="none" stroke="#bfbfbf" points="1087.5,-336.5 1087.5,-355.5 1147.5,-355.5 1147.5,-336.5 1087.5,-336.5"/>
<text text-anchor="middle" x="1117.5" y="-343.5" font-family="Helvetica,sans-Serif" font-size="10.00" fill="#000000">iostream</text>
</g>
<!-- Node15&#45;&gt;Node17 -->
<g id="edge19" class="edge">
<title>Node15&#45;&gt;Node17</title>
<path fill="none" stroke="#191970" d="M1033.267,-392.2455C1049.2095,-383.4928 1072.8259,-370.527 1090.9989,-360.5496"/>
<polygon fill="#191970" stroke="#191970" points="1092.8552,-363.5233 1099.9366,-355.6427 1089.4863,-357.3873 1092.8552,-363.5233"/>
</g>
<!-- Node18 -->
<g id="node19" class="node">
<title>Node18</title>
<g id="a_node19"><a xlink:href="../../dd/d7b/GPUTPCHitId_8h.html" target="_top" xlink:title="GPUTPCHitId.h">
<polygon fill="none" stroke="#000000" points="1166,-336.5 1166,-355.5 1255,-355.5 1255,-336.5 1166,-336.5"/>
<text text-anchor="middle" x="1210.5" y="-343.5" font-family="Helvetica,sans-Serif" font-size="10.00" fill="#000000">GPUTPCHitId.h</text>
</a>
</g>
</g>
<!-- Node15&#45;&gt;Node18 -->
<g id="edge20" class="edge">
<title>Node15&#45;&gt;Node18</title>
<path fill="none" stroke="#191970" d="M1049.0217,-392.3733C1081.8683,-382.9404 1132.0595,-368.5265 1167.7578,-358.2747"/>
<polygon fill="#191970" stroke="#191970" points="1168.7703,-361.6255 1177.4157,-355.5011 1166.8381,-354.8974 1168.7703,-361.6255"/>
</g>
<!-- Node19 -->
<g id="node20" class="node">
<title>Node19</title>
<g id="a_node20"><a xlink:href="../../df/d4a/GPUTPCSliceData_8h.html" target="_top" xlink:title="GPUTPCSliceData.h">
<polygon fill="none" stroke="#000000" points="914.5,-336.5 914.5,-355.5 1026.5,-355.5 1026.5,-336.5 914.5,-336.5"/>
<text text-anchor="middle" x="970.5" y="-343.5" font-family="Helvetica,sans-Serif" font-size="10.00" fill="#000000">GPUTPCSliceData.h</text>
</a>
</g>
</g>
<!-- Node15&#45;&gt;Node19 -->
<g id="edge21" class="edge">
<title>Node15&#45;&gt;Node19</title>
<path fill="none" stroke="#191970" d="M1007.6616,-392.2455C1001.338,-384.3761 992.2776,-373.101 984.6864,-363.6542"/>
<polygon fill="#191970" stroke="#191970" points="987.2408,-361.2454 978.2486,-355.6427 981.7842,-365.6302 987.2408,-361.2454"/>
</g>
<!-- Node30 -->
<g id="node31" class="node">
<title>Node30</title>
<g id="a_node31"><a xlink:href="../../d6/d57/GPUProcessor_8h.html" target="_top" xlink:title="GPUProcessor.h">
<polygon fill="none" stroke="#000000" points="1006,-168.5 1006,-187.5 1099,-187.5 1099,-168.5 1006,-168.5"/>
<text text-anchor="middle" x="1052.5" y="-175.5" font-family="Helvetica,sans-Serif" font-size="10.00" fill="#000000">GPUProcessor.h</text>
</a>
</g>
</g>
<!-- Node15&#45;&gt;Node30 -->
<g id="edge56" class="edge">
<title>Node15&#45;&gt;Node30</title>
<path fill="none" stroke="#191970" d="M1020.7165,-392.4477C1025.42,-383.3578 1032.1039,-369.1536 1035.5,-356 1049.9396,-300.0739 1052.3698,-231.4146 1052.62,-198.0741"/>
<polygon fill="#191970" stroke="#191970" points="1056.1202,-197.8375 1052.6336,-187.8328 1049.1202,-197.8281 1056.1202,-197.8375"/>
</g>
<!-- Node31 -->
<g id="node32" class="node">
<title>Node31</title>
<g id="a_node32"><a xlink:href="../../de/d15/GPUTPCTrackParam_8h.html" target="_top" xlink:title="GPUTPCTrackParam.h">
<polygon fill="none" stroke="#000000" points="497.5,-280.5 497.5,-299.5 619.5,-299.5 619.5,-280.5 497.5,-280.5"/>
<text text-anchor="middle" x="558.5" y="-287.5" font-family="Helvetica,sans-Serif" font-size="10.00" fill="#000000">GPUTPCTrackParam.h</text>
</a>
</g>
</g>
<!-- Node15&#45;&gt;Node31 -->
<g id="edge48" class="edge">
<title>Node15&#45;&gt;Node31</title>
<path fill="none" stroke="#191970" d="M976.5364,-392.4509C893.316,-372.0556 698.3853,-324.2826 607.1741,-301.9289"/>
<polygon fill="#191970" stroke="#191970" points="607.9107,-298.5059 597.3649,-299.5249 606.2444,-305.3047 607.9107,-298.5059"/>
</g>
<!-- Node33 -->
<g id="node34" class="node">
<title>Node33</title>
<g id="a_node34"><a xlink:href="../../db/d6e/GPUTPCTracklet_8h.html" target="_top" xlink:title="GPUTPCTracklet.h">
<polygon fill="none" stroke="#000000" points="316.5,-280.5 316.5,-299.5 420.5,-299.5 420.5,-280.5 316.5,-280.5"/>
<text text-anchor="middle" x="368.5" y="-287.5" font-family="Helvetica,sans-Serif" font-size="10.00" fill="#000000">GPUTPCTracklet.h</text>
</a>
</g>
</g>
<!-- Node15&#45;&gt;Node33 -->
<g id="edge53" class="edge">
<title>Node15&#45;&gt;Node33</title>
<path fill="none" stroke="#191970" d="M965.3213,-401.4517C845.9175,-399.5771 547.9734,-391.3867 455.5,-356 427.5017,-345.2859 400.8986,-322.6269 384.6491,-306.8669"/>
<polygon fill="#191970" stroke="#191970" points="387.091,-304.3591 377.5431,-299.7669 382.1434,-309.3109 387.091,-304.3591"/>
</g>
<!-- Node16&#45;&gt;Node2 -->
<g id="edge18" class="edge">
<title>Node16&#45;&gt;Node2</title>
<path fill="none" stroke="#191970" d="M555.0364,-168.3733C582.5202,-159.1016 624.2686,-145.0178 654.5452,-134.804"/>
<polygon fill="#191970" stroke="#191970" points="655.9794,-138.0141 664.336,-131.5011 653.7418,-131.3813 655.9794,-138.0141"/>
</g>
<!-- Node19&#45;&gt;Node16 -->
<g id="edge22" class="edge">
<title>Node19&#45;&gt;Node16</title>
<path fill="none" stroke="#191970" d="M914.2243,-340.1101C839.2754,-331.8156 710.9767,-315.92 666.5,-300 655.0538,-295.9029 581.398,-252.2843 572.5,-244 557.7161,-230.2357 544.955,-210.959 536.6495,-196.7912"/>
<polygon fill="#191970" stroke="#191970" points="539.6086,-194.9134 531.6414,-187.9295 533.5144,-198.3575 539.6086,-194.9134"/>
</g>
<!-- Node20 -->
<g id="node21" class="node">
<title>Node20</title>
<g id="a_node21"><a xlink:href="../../d8/dff/GPUTPCRow_8h.html" target="_top" xlink:title="GPUTPCRow.h">
<polygon fill="none" stroke="#000000" points="676,-280.5 676,-299.5 761,-299.5 761,-280.5 676,-280.5"/>
<text text-anchor="middle" x="718.5" y="-287.5" font-family="Helvetica,sans-Serif" font-size="10.00" fill="#000000">GPUTPCRow.h</text>
</a>
</g>
</g>
<!-- Node19&#45;&gt;Node20 -->
<g id="edge23" class="edge">
<title>Node19&#45;&gt;Node20</title>
<path fill="none" stroke="#191970" d="M927.466,-336.4369C884.2475,-326.8328 817.5859,-312.0191 771.2182,-301.7152"/>
<polygon fill="#191970" stroke="#191970" points="771.8777,-298.2764 761.3565,-299.5237 770.3591,-305.1097 771.8777,-298.2764"/>
</g>
<!-- Node22 -->
<g id="node23" class="node">
<title>Node22</title>
<g id="a_node23"><a xlink:href="../../d6/da2/GPUCommonMath_8h.html" target="_top" xlink:title="GPUCommonMath.h">
<polygon fill="none" stroke="#000000" points="1287,-168.5 1287,-187.5 1402,-187.5 1402,-168.5 1287,-168.5"/>
<text text-anchor="middle" x="1344.5" y="-175.5" font-family="Helvetica,sans-Serif" font-size="10.00" fill="#000000">GPUCommonMath.h</text>
</a>
</g>
</g>
<!-- Node19&#45;&gt;Node22 -->
<g id="edge27" class="edge">
<title>Node19&#45;&gt;Node22</title>
<path fill="none" stroke="#191970" d="M1026.6314,-339.4522C1122.0435,-326.9922 1309.0882,-296.3388 1345.5,-244 1354.8872,-230.5067 1353.4411,-211.4141 1350.3546,-197.2328"/>
<polygon fill="#191970" stroke="#191970" points="1353.7326,-196.3159 1347.8268,-187.5198 1346.9583,-198.079 1353.7326,-196.3159"/>
</g>
<!-- Node19&#45;&gt;Node25 -->
<g id="edge31" class="edge">
<title>Node19&#45;&gt;Node25</title>
<path fill="none" stroke="#191970" d="M1000.7555,-336.3733C1030.1483,-327.021 1074.9292,-312.7725 1107.0934,-302.5385"/>
<polygon fill="#191970" stroke="#191970" points="1108.1713,-305.8685 1116.6393,-299.5011 1106.0488,-299.198 1108.1713,-305.8685"/>
</g>
<!-- Node29 -->
<g id="node30" class="node">
<title>Node29</title>
<g id="a_node30"><a xlink:href="../../d5/da6/GPUMemoryResource_8h.html" target="_top" xlink:title="GPUMemoryResource.h">
<polygon fill="none" stroke="#000000" points="892,-224.5 892,-243.5 1023,-243.5 1023,-224.5 892,-224.5"/>
<text text-anchor="middle" x="957.5" y="-231.5" font-family="Helvetica,sans-Serif" font-size="10.00" fill="#000000">GPUMemoryResource.h</text>
</a>
</g>
</g>
<!-- Node19&#45;&gt;Node29 -->
<g id="edge41" class="edge">
<title>Node19&#45;&gt;Node29</title>
<path fill="none" stroke="#191970" d="M969.3916,-336.4509C967.2714,-318.184 962.602,-277.9553 959.7863,-253.6976"/>
<polygon fill="#191970" stroke="#191970" points="963.2353,-253.0546 958.6056,-243.5249 956.282,-253.8618 963.2353,-253.0546"/>
</g>
<!-- Node20&#45;&gt;Node16 -->
<g id="edge24" class="edge">
<title>Node20&#45;&gt;Node16</title>
<path fill="none" stroke="#191970" d="M686.1214,-280.4326C662.0641,-272.5625 628.971,-260.0955 602.5,-244 579.8224,-230.2111 557.3034,-209.5537 542.7364,-195.0306"/>
<polygon fill="#191970" stroke="#191970" points="545.016,-192.3567 535.5112,-187.6759 540.0224,-197.2623 545.016,-192.3567"/>
</g>
<!-- Node21 -->
<g id="node22" class="node">
<title>Node21</title>
<g id="a_node22"><a xlink:href="../../d3/da7/GPUTPCGrid_8h.html" target="_top" xlink:title="GPUTPCGrid.h">
<polygon fill="none" stroke="#000000" points="611.5,-224.5 611.5,-243.5 697.5,-243.5 697.5,-224.5 611.5,-224.5"/>
<text text-anchor="middle" x="654.5" y="-231.5" font-family="Helvetica,sans-Serif" font-size="10.00" fill="#000000">GPUTPCGrid.h</text>
</a>
</g>
</g>
<!-- Node20&#45;&gt;Node21 -->
<g id="edge25" class="edge">
<title>Node20&#45;&gt;Node21</title>
<path fill="none" stroke="#191970" d="M707.3521,-280.2455C697.9913,-272.0549 684.4142,-260.1749 673.3651,-250.5069"/>
<polygon fill="#191970" stroke="#191970" points="675.3508,-247.5937 665.5202,-243.6427 670.7412,-252.8618 675.3508,-247.5937"/>
</g>
<!-- Node21&#45;&gt;Node16 -->
<g id="edge26" class="edge">
<title>Node21&#45;&gt;Node16</title>
<path fill="none" stroke="#191970" d="M632.496,-224.3733C611.8565,-215.3435 580.7842,-201.7494 557.6111,-191.6111"/>
<polygon fill="#191970" stroke="#191970" points="558.7813,-188.3028 548.2169,-187.5011 555.9755,-194.7159 558.7813,-188.3028"/>
</g>
<!-- Node22&#45;&gt;Node3 -->
<g id="edge28" class="edge">
<title>Node22&#45;&gt;Node3</title>
<path fill="none" stroke="#191970" d="M1365.2849,-168.3006C1389.4109,-155.7433 1423.811,-132.9771 1406.5,-112 1384.8056,-85.7111 1295.2784,-74.2737 1232.4456,-69.4186"/>
<polygon fill="#191970" stroke="#191970" points="1232.4459,-65.9093 1222.2164,-68.6675 1231.9332,-72.8905 1232.4459,-65.9093"/>
</g>
<!-- Node23 -->
<g id="node24" class="node">
<title>Node23</title>
<polygon fill="none" stroke="#bfbfbf" points="1279,-112.5 1279,-131.5 1326,-131.5 1326,-112.5 1279,-112.5"/>
<text text-anchor="middle" x="1302.5" y="-119.5" font-family="Helvetica,sans-Serif" font-size="10.00" fill="#000000">cmath</text>
</g>
<!-- Node22&#45;&gt;Node23 -->
<g id="edge29" class="edge">
<title>Node22&#45;&gt;Node23</title>
<path fill="none" stroke="#191970" d="M1337.1842,-168.2455C1331.2821,-160.3761 1322.8258,-149.101 1315.7406,-139.6542"/>
<polygon fill="#191970" stroke="#191970" points="1318.5321,-137.5427 1309.732,-131.6427 1312.932,-141.7427 1318.5321,-137.5427"/>
</g>
<!-- Node24 -->
<g id="node25" class="node">
<title>Node24</title>
<polygon fill="none" stroke="#bfbfbf" points="1196.5,-112.5 1196.5,-131.5 1260.5,-131.5 1260.5,-112.5 1196.5,-112.5"/>
<text text-anchor="middle" x="1228.5" y="-119.5" font-family="Helvetica,sans-Serif" font-size="10.00" fill="#000000">algorithm</text>
</g>
<!-- Node22&#45;&gt;Node24 -->
<g id="edge30" class="edge">
<title>Node22&#45;&gt;Node24</title>
<path fill="none" stroke="#191970" d="M1324.5589,-168.3733C1306.0214,-159.4241 1278.1972,-145.9917 1257.2587,-135.8835"/>
<polygon fill="#191970" stroke="#191970" points="1258.7081,-132.6967 1248.1809,-131.5011 1255.6648,-139.0006 1258.7081,-132.6967"/>
</g>
<!-- Node25&#45;&gt;Node2 -->
<g id="edge34" class="edge">
<title>Node25&#45;&gt;Node2</title>
<path fill="none" stroke="#191970" d="M1132.3137,-280.3229C1111.2939,-266.33 1070.2837,-240.3379 1032.5,-224 928.8731,-179.1912 799.4425,-146.279 734.2085,-131.1837"/>
<polygon fill="#191970" stroke="#191970" points="734.8329,-127.7362 724.3038,-128.9149 733.2699,-134.5594 734.8329,-127.7362"/>
</g>
<!-- Node25&#45;&gt;Node3 -->
<g id="edge32" class="edge">
<title>Node25&#45;&gt;Node3</title>
<path fill="none" stroke="#191970" d="M1145.9499,-280.4729C1144.8984,-259.8787 1143.0786,-209.7052 1147.5,-168 1150.5717,-139.0257 1158.0982,-106.1093 1163.2534,-85.6963"/>
<polygon fill="#191970" stroke="#191970" points="1166.7112,-86.3047 1165.8301,-75.7466 1159.9348,-84.5497 1166.7112,-86.3047"/>
</g>
<!-- Node25&#45;&gt;Node22 -->
<g id="edge33" class="edge">
<title>Node25&#45;&gt;Node22</title>
<path fill="none" stroke="#191970" d="M1185.1287,-284.7387C1231.837,-277.6151 1306.6715,-263.5127 1326.5,-244 1338.7774,-231.9182 1342.9209,-212.3427 1344.2063,-197.6421"/>
<polygon fill="#191970" stroke="#191970" points="1347.7068,-197.7205 1344.7195,-187.5555 1340.7158,-197.3647 1347.7068,-197.7205"/>
</g>
<!-- Node26 -->
<g id="node27" class="node">
<title>Node26</title>
<g id="a_node27"><a xlink:href="../../dd/dc6/GPUSettings_8h.html" target="_top" xlink:title="GPUSettings.h">
<polygon fill="none" stroke="#000000" points="1231.5,-224.5 1231.5,-243.5 1317.5,-243.5 1317.5,-224.5 1231.5,-224.5"/>
<text text-anchor="middle" x="1274.5" y="-231.5" font-family="Helvetica,sans-Serif" font-size="10.00" fill="#000000">GPUSettings.h</text>
</a>
</g>
</g>
<!-- Node25&#45;&gt;Node26 -->
<g id="edge35" class="edge">
<title>Node25&#45;&gt;Node26</title>
<path fill="none" stroke="#191970" d="M1168.504,-280.3733C1189.1435,-271.3435 1220.2158,-257.7494 1243.3889,-247.6111"/>
<polygon fill="#191970" stroke="#191970" points="1245.0245,-250.7159 1252.7831,-243.5011 1242.2187,-244.3028 1245.0245,-250.7159"/>
</g>
<!-- Node27 -->
<g id="node28" class="node">
<title>Node27</title>
<g id="a_node28"><a xlink:href="../../d6/d1b/GPUTPCGeometry_8h.html" target="_top" xlink:title="GPUTPCGeometry.h">
<polygon fill="none" stroke="#000000" points="1156,-168.5 1156,-187.5 1269,-187.5 1269,-168.5 1156,-168.5"/>
<text text-anchor="middle" x="1212.5" y="-175.5" font-family="Helvetica,sans-Serif" font-size="10.00" fill="#000000">GPUTPCGeometry.h</text>
</a>
</g>
</g>
<!-- Node25&#45;&gt;Node27 -->
<g id="edge37" class="edge">
<title>Node25&#45;&gt;Node27</title>
<path fill="none" stroke="#191970" d="M1152.1271,-280.4509C1163.0864,-261.8533 1187.4601,-220.4919 1201.6593,-196.3964"/>
<polygon fill="#191970" stroke="#191970" points="1204.8255,-197.9172 1206.8871,-187.5249 1198.7948,-194.3633 1204.8255,-197.9172"/>
</g>
<!-- Node28 -->
<g id="node29" class="node">
<title>Node28</title>
<g id="a_node29"><a xlink:href="../../d9/d9c/GPUTPCGMPolynomialField_8h.html" target="_top" xlink:title="GPUTPCGMPolynomialField.h">
<polygon fill="none" stroke="#000000" points="715.5,-224.5 715.5,-243.5 873.5,-243.5 873.5,-224.5 715.5,-224.5"/>
<text text-anchor="middle" x="794.5" y="-231.5" font-family="Helvetica,sans-Serif" font-size="10.00" fill="#000000">GPUTPCGMPolynomialField.h</text>
</a>
</g>
</g>
<!-- Node25&#45;&gt;Node28 -->
<g id="edge39" class="edge">
<title>Node25&#45;&gt;Node28</title>
<path fill="none" stroke="#191970" d="M1107.8229,-283.8468C1049.3171,-274.5391 937.4106,-256.7358 864.3889,-245.1187"/>
<polygon fill="#191970" stroke="#191970" points="864.7787,-241.6368 854.3529,-243.5221 863.6788,-248.5498 864.7787,-241.6368"/>
</g>
<!-- Node26&#45;&gt;Node22 -->
<g id="edge36" class="edge">
<title>Node26&#45;&gt;Node22</title>
<path fill="none" stroke="#191970" d="M1286.6931,-224.2455C1297.1321,-215.8943 1312.3655,-203.7076 1324.574,-193.9408"/>
<polygon fill="#191970" stroke="#191970" points="1326.8244,-196.6227 1332.4467,-187.6427 1322.4515,-191.1566 1326.8244,-196.6227"/>
</g>
<!-- Node27&#45;&gt;Node3 -->
<g id="edge38" class="edge">
<title>Node27&#45;&gt;Node3</title>
<path fill="none" stroke="#191970" d="M1206.4982,-168.4322C1200.9854,-159.3313 1192.8785,-145.1197 1187.5,-132 1181.281,-116.8302 1176.2613,-98.916 1172.9467,-85.5817"/>
<polygon fill="#191970" stroke="#191970" points="1176.2958,-84.5363 1170.5746,-75.6189 1169.4861,-86.1577 1176.2958,-84.5363"/>
</g>
<!-- Node28&#45;&gt;Node16 -->
<g id="edge40" class="edge">
<title>Node28&#45;&gt;Node16</title>
<path fill="none" stroke="#191970" d="M748.7337,-224.4369C701.1798,-214.5003 626.9381,-198.9871 577.523,-188.6615"/>
<polygon fill="#191970" stroke="#191970" points="578.1847,-185.2243 567.6802,-186.6048 576.7529,-192.0763 578.1847,-185.2243"/>
</g>
<!-- Node29&#45;&gt;Node3 -->
<g id="edge42" class="edge">
<title>Node29&#45;&gt;Node3</title>
<path fill="none" stroke="#191970" d="M961.6851,-224.0537C967.895,-210.1947 980.6523,-184.8802 997.5,-168 1038.1858,-127.2358 1098.344,-96.3278 1135.3949,-79.7134"/>
<polygon fill="#191970" stroke="#191970" points="1136.997,-82.8325 1144.7438,-75.6049 1134.1806,-76.424 1136.997,-82.8325"/>
</g>
<!-- Node29&#45;&gt;Node30 -->
<g id="edge43" class="edge">
<title>Node29&#45;&gt;Node30</title>
<path fill="none" stroke="#191970" d="M974.0477,-224.2455C988.7599,-215.5731 1010.4888,-202.7645 1027.3505,-192.825"/>
<polygon fill="#191970" stroke="#191970" points="1029.3046,-195.736 1036.1419,-187.6427 1025.7498,-189.7057 1029.3046,-195.736"/>
</g>
<!-- Node30&#45;&gt;Node2 -->
<g id="edge45" class="edge">
<title>Node30&#45;&gt;Node2</title>
<path fill="none" stroke="#191970" d="M1005.881,-170.3091C1001.0258,-169.5226 996.1634,-168.741 991.5,-168 899.9427,-153.4528 792.4938,-137.0971 734.5961,-128.3429"/>
<polygon fill="#191970" stroke="#191970" points="734.7876,-124.8321 724.3769,-126.7989 733.7418,-131.7536 734.7876,-124.8321"/>
</g>
<!-- Node30&#45;&gt;Node3 -->
<g id="edge44" class="edge">
<title>Node30&#45;&gt;Node3</title>
<path fill="none" stroke="#191970" d="M1060.82,-168.2386C1072.2351,-155.0272 1093.6074,-130.9311 1113.5,-112 1124.4575,-101.5722 1137.4047,-90.6796 1147.9839,-82.1129"/>
<polygon fill="#191970" stroke="#191970" points="1150.2575,-84.7762 1155.8773,-75.7946 1145.8831,-79.3113 1150.2575,-84.7762"/>
</g>
<!-- Node30&#45;&gt;Node13 -->
<g id="edge46" class="edge">
<title>Node30&#45;&gt;Node13</title>
<path fill="none" stroke="#191970" d="M1099.1431,-172.1252C1153.4663,-164.9054 1246.0408,-151.435 1333.9635,-132.1605"/>
<polygon fill="#191970" stroke="#191970" points="1334.8268,-135.5542 1343.8296,-129.9685 1333.3085,-128.7208 1334.8268,-135.5542"/>
</g>
<!-- Node30&#45;&gt;Node24 -->
<g id="edge47" class="edge">
<title>Node30&#45;&gt;Node24</title>
<path fill="none" stroke="#191970" d="M1082.7555,-168.3733C1112.1483,-159.021 1156.9292,-144.7725 1189.0934,-134.5385"/>
<polygon fill="#191970" stroke="#191970" points="1190.1713,-137.8685 1198.6393,-131.5011 1188.0488,-131.198 1190.1713,-137.8685"/>
</g>
<!-- Node31&#45;&gt;Node16 -->
<g id="edge51" class="edge">
<title>Node31&#45;&gt;Node16</title>
<path fill="none" stroke="#191970" d="M551.0845,-280.3934C544.6636,-271.492 535.7578,-257.6102 531.5,-244 526.8297,-229.0711 525.7124,-211.3576 525.6901,-198.0418"/>
<polygon fill="#191970" stroke="#191970" points="529.1969,-197.7184 525.8906,-187.6527 522.1982,-197.5833 529.1969,-197.7184"/>
</g>
<!-- Node31&#45;&gt;Node22 -->
<g id="edge52" class="edge">
<title>Node31&#45;&gt;Node22</title>
<path fill="none" stroke="#191970" d="M619.6894,-284.2451C743.2165,-272.6019 1012.4026,-247.091 1032.5,-244 1126.8419,-229.4902 1235.6168,-204.5906 1296.5981,-189.8757"/>
<polygon fill="#191970" stroke="#191970" points="1297.434,-193.2745 1306.3275,-187.5164 1295.7843,-186.4717 1297.434,-193.2745"/>
</g>
<!-- Node32 -->
<g id="node33" class="node">
<title>Node32</title>
<g id="a_node33"><a xlink:href="../../df/d00/GPUTPCBaseTrackParam_8h.html" target="_top" xlink:title="GPUTPCBaseTrackParam.h">
<polygon fill="none" stroke="#000000" points="295.5,-224.5 295.5,-243.5 441.5,-243.5 441.5,-224.5 295.5,-224.5"/>
<text text-anchor="middle" x="368.5" y="-231.5" font-family="Helvetica,sans-Serif" font-size="10.00" fill="#000000">GPUTPCBaseTrackParam.h</text>
</a>
</g>
</g>
<!-- Node31&#45;&gt;Node32 -->
<g id="edge49" class="edge">
<title>Node31&#45;&gt;Node32</title>
<path fill="none" stroke="#191970" d="M525.8378,-280.3733C493.9702,-270.9807 445.3469,-256.6496 410.593,-246.4064"/>
<polygon fill="#191970" stroke="#191970" points="411.3175,-242.9711 400.736,-243.5011 409.3385,-249.6855 411.3175,-242.9711"/>
</g>
<!-- Node32&#45;&gt;Node16 -->
<g id="edge50" class="edge">
<title>Node32&#45;&gt;Node16</title>
<path fill="none" stroke="#191970" d="M395.6612,-224.3733C421.7067,-215.1419 461.2116,-201.1402 489.9979,-190.9375"/>
<polygon fill="#191970" stroke="#191970" points="491.437,-194.1408 499.6933,-187.5011 489.0985,-187.5429 491.437,-194.1408"/>
</g>
<!-- Node33&#45;&gt;Node16 -->
<g id="edge55" class="edge">
<title>Node33&#45;&gt;Node16</title>
<path fill="none" stroke="#191970" d="M339.4341,-280.4579C308.6145,-268.8182 266.8824,-247.7347 286.5,-224 309.9589,-195.6178 411.9517,-184.576 475.1892,-180.4081"/>
<polygon fill="#191970" stroke="#191970" points="475.6069,-183.889 485.37,-179.7742 475.1717,-176.9025 475.6069,-183.889"/>
</g>
<!-- Node33&#45;&gt;Node32 -->
<g id="edge54" class="edge">
<title>Node33&#45;&gt;Node32</title>
<path fill="none" stroke="#191970" d="M368.5,-280.2455C368.5,-272.9382 368.5,-262.6944 368.5,-253.7046"/>
<polygon fill="#191970" stroke="#191970" points="372.0001,-253.6426 368.5,-243.6427 365.0001,-253.6427 372.0001,-253.6426"/>
</g>
<!-- Node34&#45;&gt;Node2 -->
<g id="edge60" class="edge">
<title>Node34&#45;&gt;Node2</title>
<path fill="none" stroke="#191970" d="M303.8232,-392.4175C278.0376,-375.3156 229.5,-336.8956 229.5,-290 229.5,-290 229.5,-290 229.5,-234 229.5,-147.7885 536.5977,-127.7144 650.5808,-123.2328"/>
<polygon fill="#191970" stroke="#191970" points="650.8132,-126.7267 660.6761,-122.8571 650.5529,-119.7315 650.8132,-126.7267"/>
</g>
<!-- Node35 -->
<g id="node36" class="node">
<title>Node35</title>
<g id="a_node36"><a xlink:href="../../de/d0d/GPUErrorCodes_8h.html" target="_top" xlink:title="GPUErrorCodes.h">
<polygon fill="none" stroke="#000000" points="269.5,-336.5 269.5,-355.5 369.5,-355.5 369.5,-336.5 269.5,-336.5"/>
<text text-anchor="middle" x="319.5" y="-343.5" font-family="Helvetica,sans-Serif" font-size="10.00" fill="#000000">GPUErrorCodes.h</text>
</a>
</g>
</g>
<!-- Node34&#45;&gt;Node35 -->
<g id="edge61" class="edge">
<title>Node34&#45;&gt;Node35</title>
<path fill="none" stroke="#191970" d="M319.5,-392.2455C319.5,-384.9382 319.5,-374.6944 319.5,-365.7046"/>
<polygon fill="#191970" stroke="#191970" points="323.0001,-365.6426 319.5,-355.6427 316.0001,-365.6427 323.0001,-365.6426"/>
</g>
<!-- Node36&#45;&gt;Node3 -->
<g id="edge63" class="edge">
<title>Node36&#45;&gt;Node3</title>
<path fill="none" stroke="#191970" d="M1578.7462,-392.2386C1584.8658,-372.9402 1597.5,-328.4431 1597.5,-290 1597.5,-290 1597.5,-290 1597.5,-178 1597.5,-103.4849 1352.1307,-77.619 1232.5269,-69.437"/>
<polygon fill="#191970" stroke="#191970" points="1232.6083,-65.9348 1222.3988,-68.7659 1232.1454,-72.9195 1232.6083,-65.9348"/>
</g>
<!-- Node37&#45;&gt;Node3 -->
<g id="edge65" class="edge">
<title>Node37&#45;&gt;Node3</title>
<path fill="none" stroke="#191970" d="M1516.5187,-224.116C1525.0592,-210.7656 1537.2073,-186.5125 1527.5,-168 1507.1755,-129.2396 1487.0714,-128.4141 1446.5,-112 1408.6253,-96.6769 1301.8223,-81.7662 1232.1642,-73.2533"/>
<polygon fill="#191970" stroke="#191970" points="1232.5169,-69.7705 1222.169,-72.0444 1231.6764,-76.7199 1232.5169,-69.7705"/>
</g>
<!-- Node37&#45;&gt;Node12 -->
<g id="edge66" class="edge">
<title>Node37&#45;&gt;Node12</title>
<path fill="none" stroke="#191970" d="M1502.5325,-224.2455C1496.9689,-216.4564 1489.022,-205.3308 1482.3171,-195.9439"/>
<polygon fill="#191970" stroke="#191970" points="1485.0481,-193.7457 1476.3876,-187.6427 1479.352,-197.8144 1485.0481,-193.7457"/>
</g>
<!-- Node38&#45;&gt;Node1 -->
<g id="edge69" class="edge">
<title>Node38&#45;&gt;Node1</title>
<path fill="none" stroke="#191970" d="M83.5189,-280.2455C93.7098,-271.9746 108.5362,-259.9416 120.5107,-250.2232"/>
<polygon fill="#191970" stroke="#191970" points="123.0598,-252.662 128.6188,-243.6427 118.6486,-247.2268 123.0598,-252.662"/>
</g>
<!-- Node38&#45;&gt;Node16 -->
<g id="edge68" class="edge">
<title>Node38&#45;&gt;Node16</title>
<path fill="none" stroke="#191970" d="M67.63,-280.0485C62.7802,-265.7139 56.6656,-239.3002 70.5,-224 97.2481,-194.4179 361.7882,-182.9571 475.2521,-179.3778"/>
<polygon fill="#191970" stroke="#191970" points="475.5373,-182.8708 485.4251,-179.0653 475.3223,-175.8741 475.5373,-182.8708"/>
</g>
</g>
</svg>
