<?xml version="1.0" encoding="UTF-8" standalone="no"?>
<!DOCTYPE svg PUBLIC "-//W3C//DTD SVG 1.1//EN"
 "http://www.w3.org/Graphics/SVG/1.1/DTD/svg11.dtd">
<!-- Generated by graphviz version 2.40.1 (20161225.0304)
 -->
<!-- Title: /home/travis/build/AliceO2Group/AliceO2/Framework/Core/include/Framework/TerminationPolicy.h Pages: 1 -->
<svg width="776pt" height="406pt"
 viewBox="0.00 0.00 775.50 406.00" xmlns="http://www.w3.org/2000/svg" xmlns:xlink="http://www.w3.org/1999/xlink">
<g id="graph0" class="graph" transform="scale(1 1) rotate(0) translate(4 402)">
<title>/home/travis/build/AliceO2Group/AliceO2/Framework/Core/include/Framework/TerminationPolicy.h</title>
<!-- Node1 -->
<g id="node1" class="node">
<title>Node1</title>
<polygon fill="#bfbfbf" stroke="#000000" points="219,-345.5 219,-397.5 390,-397.5 390,-345.5 219,-345.5"/>
<text text-anchor="start" x="227" y="-385.5" font-family="Helvetica,sans-Serif" font-size="10.00" fill="#000000">/home/travis/build</text>
<text text-anchor="start" x="227" y="-374.5" font-family="Helvetica,sans-Serif" font-size="10.00" fill="#000000">/AliceO2Group/AliceO2</text>
<text text-anchor="start" x="227" y="-363.5" font-family="Helvetica,sans-Serif" font-size="10.00" fill="#000000">/Framework/Core/include</text>
<text text-anchor="middle" x="304.5" y="-352.5" font-family="Helvetica,sans-Serif" font-size="10.00" fill="#000000">/Framework/TerminationPolicy.h</text>
</g>
<!-- Node2 -->
<g id="node2" class="node">
<title>Node2</title>
<g id="a_node2"><a xlink:href="../../d3/d4b/DataProcessingDevice_8h.html" target="_top" xlink:title="/home/travis/build\l/AliceO2Group/AliceO2\l/Framework/Core/include\l/Framework/DataProcessingDevice.h">
<polygon fill="none" stroke="#000000" points="105,-256.5 105,-308.5 300,-308.5 300,-256.5 105,-256.5"/>
<text text-anchor="start" x="113" y="-296.5" font-family="Helvetica,sans-Serif" font-size="10.00" fill="#000000">/home/travis/build</text>
<text text-anchor="start" x="113" y="-285.5" font-family="Helvetica,sans-Serif" font-size="10.00" fill="#000000">/AliceO2Group/AliceO2</text>
<text text-anchor="start" x="113" y="-274.5" font-family="Helvetica,sans-Serif" font-size="10.00" fill="#000000">/Framework/Core/include</text>
<text text-anchor="middle" x="202.5" y="-263.5" font-family="Helvetica,sans-Serif" font-size="10.00" fill="#000000">/Framework/DataProcessingDevice.h</text>
</a>
</g>
</g>
<!-- Node1&#45;&gt;Node2 -->
<g id="edge1" class="edge">
<title>Node1&#45;&gt;Node2</title>
<path fill="none" stroke="#191970" d="M266.7663,-338.5755C255.4085,-328.6653 243.1073,-317.9319 232.3369,-308.5341"/>
<polygon fill="#191970" stroke="#191970" points="264.6123,-341.341 274.4483,-345.2784 269.2145,-336.0666 264.6123,-341.341"/>
</g>
<!-- Node5 -->
<g id="node5" class="node">
<title>Node5</title>
<g id="a_node5"><a xlink:href="../../de/da9/DriverInfo_8h.html" target="_top" xlink:title="/home/travis/build\l/AliceO2Group/AliceO2\l/Framework/Core/src/DriverInfo.h">
<polygon fill="none" stroke="#000000" points="318,-262 318,-303 495,-303 495,-262 318,-262"/>
<text text-anchor="start" x="326" y="-291" font-family="Helvetica,sans-Serif" font-size="10.00" fill="#000000">/home/travis/build</text>
<text text-anchor="start" x="326" y="-280" font-family="Helvetica,sans-Serif" font-size="10.00" fill="#000000">/AliceO2Group/AliceO2</text>
<text text-anchor="middle" x="406.5" y="-269" font-family="Helvetica,sans-Serif" font-size="10.00" fill="#000000">/Framework/Core/src/DriverInfo.h</text>
</a>
</g>
</g>
<!-- Node1&#45;&gt;Node5 -->
<g id="edge4" class="edge">
<title>Node1&#45;&gt;Node5</title>
<path fill="none" stroke="#191970" d="M342.3468,-338.4768C355.9011,-326.6501 370.7857,-313.6625 382.8026,-303.1771"/>
<polygon fill="#191970" stroke="#191970" points="339.7855,-336.0666 334.5517,-345.2784 344.3877,-341.341 339.7855,-336.0666"/>
</g>
<!-- Node3 -->
<g id="node3" class="node">
<title>Node3</title>
<g id="a_node3"><a xlink:href="../../db/dac/DataProcessingDevice_8cxx.html" target="_top" xlink:title="/home/travis/build\l/AliceO2Group/AliceO2\l/Framework/Core/src/DataProcessing\lDevice.cxx">
<polygon fill="none" stroke="#000000" points="0,-167.5 0,-219.5 195,-219.5 195,-167.5 0,-167.5"/>
<text text-anchor="start" x="8" y="-207.5" font-family="Helvetica,sans-Serif" font-size="10.00" fill="#000000">/home/travis/build</text>
<text text-anchor="start" x="8" y="-196.5" font-family="Helvetica,sans-Serif" font-size="10.00" fill="#000000">/AliceO2Group/AliceO2</text>
<text text-anchor="start" x="8" y="-185.5" font-family="Helvetica,sans-Serif" font-size="10.00" fill="#000000">/Framework/Core/src/DataProcessing</text>
<text text-anchor="middle" x="97.5" y="-174.5" font-family="Helvetica,sans-Serif" font-size="10.00" fill="#000000">Device.cxx</text>
</a>
</g>
</g>
<!-- Node2&#45;&gt;Node3 -->
<g id="edge2" class="edge">
<title>Node2&#45;&gt;Node3</title>
<path fill="none" stroke="#191970" d="M163.6565,-249.5755C151.9647,-239.6653 139.3017,-228.9319 128.2144,-219.5341"/>
<polygon fill="#191970" stroke="#191970" points="161.673,-252.4824 171.5644,-256.2784 166.1992,-247.1425 161.673,-252.4824"/>
</g>
<!-- Node4 -->
<g id="node4" class="node">
<title>Node4</title>
<g id="a_node4"><a xlink:href="../../d7/d54/runDataProcessing_8cxx.html" target="_top" xlink:title="/home/travis/build\l/AliceO2Group/AliceO2\l/Framework/Core/src/runDataProcessing.cxx">
<polygon fill="none" stroke="#000000" points="107,-89.5 107,-130.5 338,-130.5 338,-89.5 107,-89.5"/>
<text text-anchor="start" x="115" y="-118.5" font-family="Helvetica,sans-Serif" font-size="10.00" fill="#000000">/home/travis/build</text>
<text text-anchor="start" x="115" y="-107.5" font-family="Helvetica,sans-Serif" font-size="10.00" fill="#000000">/AliceO2Group/AliceO2</text>
<text text-anchor="middle" x="222.5" y="-96.5" font-family="Helvetica,sans-Serif" font-size="10.00" fill="#000000">/Framework/Core/src/runDataProcessing.cxx</text>
</a>
</g>
</g>
<!-- Node2&#45;&gt;Node4 -->
<g id="edge3" class="edge">
<title>Node2&#45;&gt;Node4</title>
<path fill="none" stroke="#191970" d="M206.7316,-246.0025C210.7953,-210.9532 216.7902,-159.2467 220.0945,-130.7472"/>
<polygon fill="#191970" stroke="#191970" points="203.2126,-245.9644 205.5376,-256.301 210.1661,-246.7706 203.2126,-245.9644"/>
</g>
<!-- Node5&#45;&gt;Node4 -->
<g id="edge11" class="edge">
<title>Node5&#45;&gt;Node4</title>
<path fill="none" stroke="#191970" d="M353.2463,-256.8957C335.3648,-246.848 316.0359,-234.2821 300.5,-220 271.5452,-193.3819 247.0018,-154.327 233.5496,-130.6221"/>
<polygon fill="#191970" stroke="#191970" points="351.9836,-260.194 362.4375,-261.9161 355.3392,-254.0507 351.9836,-260.194"/>
</g>
<!-- Node6 -->
<g id="node6" class="node">
<title>Node6</title>
<g id="a_node6"><a xlink:href="../../de/d66/DriverControl_8h.html" target="_top" xlink:title="/home/travis/build\l/AliceO2Group/AliceO2\l/Framework/Core/src/DriverControl.h">
<polygon fill="none" stroke="#000000" points="309.5,-173 309.5,-214 503.5,-214 503.5,-173 309.5,-173"/>
<text text-anchor="start" x="317.5" y="-202" font-family="Helvetica,sans-Serif" font-size="10.00" fill="#000000">/home/travis/build</text>
<text text-anchor="start" x="317.5" y="-191" font-family="Helvetica,sans-Serif" font-size="10.00" fill="#000000">/AliceO2Group/AliceO2</text>
<text text-anchor="middle" x="406.5" y="-180" font-family="Helvetica,sans-Serif" font-size="10.00" fill="#000000">/Framework/Core/src/DriverControl.h</text>
</a>
</g>
</g>
<!-- Node5&#45;&gt;Node6 -->
<g id="edge5" class="edge">
<title>Node5&#45;&gt;Node6</title>
<path fill="none" stroke="#191970" d="M406.5,-251.844C406.5,-239.3522 406.5,-225.2439 406.5,-214.0301"/>
<polygon fill="#191970" stroke="#191970" points="403.0001,-251.8579 406.5,-261.8579 410.0001,-251.8579 403.0001,-251.8579"/>
</g>
<!-- Node9 -->
<g id="node9" class="node">
<title>Node9</title>
<g id="a_node9"><a xlink:href="../../d6/d76/DriverInfo_8cxx.html" target="_top" xlink:title="/home/travis/build\l/AliceO2Group/AliceO2\l/Framework/Core/src/DriverInfo.cxx">
<polygon fill="none" stroke="#000000" points="579.5,-89.5 579.5,-130.5 767.5,-130.5 767.5,-89.5 579.5,-89.5"/>
<text text-anchor="start" x="587.5" y="-118.5" font-family="Helvetica,sans-Serif" font-size="10.00" fill="#000000">/home/travis/build</text>
<text text-anchor="start" x="587.5" y="-107.5" font-family="Helvetica,sans-Serif" font-size="10.00" fill="#000000">/AliceO2Group/AliceO2</text>
<text text-anchor="middle" x="673.5" y="-96.5" font-family="Helvetica,sans-Serif" font-size="10.00" fill="#000000">/Framework/Core/src/DriverInfo.cxx</text>
</a>
</g>
</g>
<!-- Node5&#45;&gt;Node9 -->
<g id="edge9" class="edge">
<title>Node5&#45;&gt;Node9</title>
<path fill="none" stroke="#191970" d="M451.4412,-256.8898C470.4533,-245.8273 492.7312,-232.5618 512.5,-220 559.5009,-190.134 612.5763,-153.2307 644.5125,-130.6661"/>
<polygon fill="#191970" stroke="#191970" points="449.5745,-253.9263 442.677,-261.9684 453.0841,-259.9829 449.5745,-253.9263"/>
</g>
<!-- Node6&#45;&gt;Node4 -->
<g id="edge8" class="edge">
<title>Node6&#45;&gt;Node4</title>
<path fill="none" stroke="#191970" d="M351.7771,-168.6665C325.0039,-156.5167 293.1615,-142.0665 267.7785,-130.5476"/>
<polygon fill="#191970" stroke="#191970" points="350.4643,-171.9142 361.0168,-172.8595 353.357,-165.5399 350.4643,-171.9142"/>
</g>
<!-- Node7 -->
<g id="node7" class="node">
<title>Node7</title>
<g id="a_node7"><a xlink:href="../../d5/d3a/DriverControl_8cxx.html" target="_top" xlink:title="/home/travis/build\l/AliceO2Group/AliceO2\l/Framework/Core/src/DriverControl.cxx">
<polygon fill="none" stroke="#000000" points="356,-89.5 356,-130.5 561,-130.5 561,-89.5 356,-89.5"/>
<text text-anchor="start" x="364" y="-118.5" font-family="Helvetica,sans-Serif" font-size="10.00" fill="#000000">/home/travis/build</text>
<text text-anchor="start" x="364" y="-107.5" font-family="Helvetica,sans-Serif" font-size="10.00" fill="#000000">/AliceO2Group/AliceO2</text>
<text text-anchor="middle" x="458.5" y="-96.5" font-family="Helvetica,sans-Serif" font-size="10.00" fill="#000000">/Framework/Core/src/DriverControl.cxx</text>
</a>
</g>
</g>
<!-- Node6&#45;&gt;Node7 -->
<g id="edge6" class="edge">
<title>Node6&#45;&gt;Node7</title>
<path fill="none" stroke="#191970" d="M424.6751,-164.3151C431.5797,-153.2277 439.2964,-140.8366 445.6137,-130.6924"/>
<polygon fill="#191970" stroke="#191970" points="421.6693,-162.5208 419.3539,-172.8595 427.6113,-166.2212 421.6693,-162.5208"/>
</g>
<!-- Node8 -->
<g id="node8" class="node">
<title>Node8</title>
<g id="a_node8"><a xlink:href="../../d3/d29/FrameworkGUIDebugger_8cxx.html" target="_top" xlink:title="/home/travis/build\l/AliceO2Group/AliceO2\l/Framework/Core/src/Framework\lGUIDebugger.cxx">
<polygon fill="none" stroke="#000000" points="479,-.5 479,-52.5 652,-52.5 652,-.5 479,-.5"/>
<text text-anchor="start" x="487" y="-40.5" font-family="Helvetica,sans-Serif" font-size="10.00" fill="#000000">/home/travis/build</text>
<text text-anchor="start" x="487" y="-29.5" font-family="Helvetica,sans-Serif" font-size="10.00" fill="#000000">/AliceO2Group/AliceO2</text>
<text text-anchor="start" x="487" y="-18.5" font-family="Helvetica,sans-Serif" font-size="10.00" fill="#000000">/Framework/Core/src/Framework</text>
<text text-anchor="middle" x="565.5" y="-7.5" font-family="Helvetica,sans-Serif" font-size="10.00" fill="#000000">GUIDebugger.cxx</text>
</a>
</g>
</g>
<!-- Node7&#45;&gt;Node8 -->
<g id="edge7" class="edge">
<title>Node7&#45;&gt;Node8</title>
<path fill="none" stroke="#191970" d="M492.9234,-83.1369C505.463,-73.3513 519.6115,-62.3102 532.0641,-52.5925"/>
<polygon fill="#191970" stroke="#191970" points="490.6798,-80.4481 484.9494,-89.3595 494.9863,-85.9666 490.6798,-80.4481"/>
</g>
<!-- Node9&#45;&gt;Node8 -->
<g id="edge10" class="edge">
<title>Node9&#45;&gt;Node8</title>
<path fill="none" stroke="#191970" d="M638.7549,-83.1369C626.0981,-73.3513 611.8174,-62.3102 599.2484,-52.5925"/>
<polygon fill="#191970" stroke="#191970" points="636.7513,-86.0119 646.8034,-89.3595 641.0329,-80.474 636.7513,-86.0119"/>
</g>
</g>
</svg>
