<?xml version="1.0" encoding="UTF-8" standalone="no"?>
<!DOCTYPE svg PUBLIC "-//W3C//DTD SVG 1.1//EN"
 "http://www.w3.org/Graphics/SVG/1.1/DTD/svg11.dtd">
<!-- Generated by graphviz version 2.40.1 (20161225.0304)
 -->
<!-- Title: /home/travis/build/AliceO2Group/AliceO2/Detectors/TPC/base/src/ParameterElectronics.cxx Pages: 1 -->
<svg width="710pt" height="318pt"
 viewBox="0.00 0.00 709.50 318.00" xmlns="http://www.w3.org/2000/svg" xmlns:xlink="http://www.w3.org/1999/xlink">
<g id="graph0" class="graph" transform="scale(1 1) rotate(0) translate(4 314)">
<title>/home/travis/build/AliceO2Group/AliceO2/Detectors/TPC/base/src/ParameterElectronics.cxx</title>
<!-- Node0 -->
<g id="node1" class="node">
<title>Node0</title>
<polygon fill="#bfbfbf" stroke="#000000" points="297,-257.5 297,-309.5 440,-309.5 440,-257.5 297,-257.5"/>
<text text-anchor="start" x="305" y="-297.5" font-family="Helvetica,sans-Serif" font-size="10.00" fill="#000000">/home/travis/build</text>
<text text-anchor="start" x="305" y="-286.5" font-family="Helvetica,sans-Serif" font-size="10.00" fill="#000000">/AliceO2Group/AliceO2</text>
<text text-anchor="start" x="305" y="-275.5" font-family="Helvetica,sans-Serif" font-size="10.00" fill="#000000">/Detectors/TPC/base/src</text>
<text text-anchor="middle" x="368.5" y="-264.5" font-family="Helvetica,sans-Serif" font-size="10.00" fill="#000000">/ParameterElectronics.cxx</text>
</g>
<!-- Node1 -->
<g id="node2" class="node">
<title>Node1</title>
<g id="a_node2"><a xlink:href="../../d3/d47/ParameterElectronics_8h.html" target="_top" xlink:title="Definition of the parameter class for the detector electronics. ">
<polygon fill="none" stroke="#000000" points="281,-201.5 281,-220.5 456,-220.5 456,-201.5 281,-201.5"/>
<text text-anchor="middle" x="368.5" y="-208.5" font-family="Helvetica,sans-Serif" font-size="10.00" fill="#000000">TPCBase/ParameterElectronics.h</text>
</a>
</g>
</g>
<!-- Node0&#45;&gt;Node1 -->
<g id="edge1" class="edge">
<title>Node0&#45;&gt;Node1</title>
<path fill="none" stroke="#191970" d="M368.5,-257.3258C368.5,-248.5142 368.5,-238.8397 368.5,-230.621"/>
<polygon fill="#191970" stroke="#191970" points="372.0001,-230.534 368.5,-220.534 365.0001,-230.534 372.0001,-230.534"/>
</g>
<!-- Node2 -->
<g id="node3" class="node">
<title>Node2</title>
<polygon fill="none" stroke="#bfbfbf" points="247.5,-140 247.5,-159 289.5,-159 289.5,-140 247.5,-140"/>
<text text-anchor="middle" x="268.5" y="-147" font-family="Helvetica,sans-Serif" font-size="10.00" fill="#000000">array</text>
</g>
<!-- Node1&#45;&gt;Node2 -->
<g id="edge2" class="edge">
<title>Node1&#45;&gt;Node2</title>
<path fill="none" stroke="#191970" d="M352.875,-201.3906C336.7302,-191.4616 311.3178,-175.833 292.5977,-164.3201"/>
<polygon fill="#191970" stroke="#191970" points="294.3669,-161.2992 284.0153,-159.0419 290.6998,-167.2619 294.3669,-161.2992"/>
</g>
<!-- Node3 -->
<g id="node4" class="node">
<title>Node3</title>
<g id="a_node4"><a xlink:href="../../db/d2c/ConfigurableParam_8h.html" target="_top" xlink:title="CommonUtils/Configurable\lParam.h">
<polygon fill="none" stroke="#000000" points="215.5,-67.5 215.5,-97.5 363.5,-97.5 363.5,-67.5 215.5,-67.5"/>
<text text-anchor="start" x="223.5" y="-85.5" font-family="Helvetica,sans-Serif" font-size="10.00" fill="#000000">CommonUtils/Configurable</text>
<text text-anchor="middle" x="289.5" y="-74.5" font-family="Helvetica,sans-Serif" font-size="10.00" fill="#000000">Param.h</text>
</a>
</g>
</g>
<!-- Node1&#45;&gt;Node3 -->
<g id="edge3" class="edge">
<title>Node1&#45;&gt;Node3</title>
<path fill="none" stroke="#191970" d="M361.3731,-201.3021C354.7091,-192.1092 344.5977,-177.8354 336.5,-165 324.3684,-145.7705 311.6658,-123.3131 302.5291,-106.6883"/>
<polygon fill="#191970" stroke="#191970" points="305.4554,-104.744 297.593,-97.6424 299.3107,-108.0971 305.4554,-104.744"/>
</g>
<!-- Node10 -->
<g id="node11" class="node">
<title>Node10</title>
<g id="a_node11"><a xlink:href="../../da/d6b/ConfigurableParamHelper_8h.html" target="_top" xlink:title="CommonUtils/Configurable\lParamHelper.h">
<polygon fill="none" stroke="#000000" points="345.5,-134.5 345.5,-164.5 493.5,-164.5 493.5,-134.5 345.5,-134.5"/>
<text text-anchor="start" x="353.5" y="-152.5" font-family="Helvetica,sans-Serif" font-size="10.00" fill="#000000">CommonUtils/Configurable</text>
<text text-anchor="middle" x="419.5" y="-141.5" font-family="Helvetica,sans-Serif" font-size="10.00" fill="#000000">ParamHelper.h</text>
</a>
</g>
</g>
<!-- Node1&#45;&gt;Node10 -->
<g id="edge10" class="edge">
<title>Node1&#45;&gt;Node10</title>
<path fill="none" stroke="#191970" d="M376.4688,-201.3906C382.9236,-193.6068 392.2832,-182.3202 400.6261,-172.2597"/>
<polygon fill="#191970" stroke="#191970" points="403.3348,-174.4764 407.024,-164.5446 397.9464,-170.008 403.3348,-174.4764"/>
</g>
<!-- Node14 -->
<g id="node15" class="node">
<title>Node14</title>
<g id="a_node15"><a xlink:href="../../d4/dc6/LHCConstants_8h.html" target="_top" xlink:title="Header to collect LHC related constants. ">
<polygon fill="none" stroke="#000000" points="511.5,-140 511.5,-159 701.5,-159 701.5,-140 511.5,-140"/>
<text text-anchor="middle" x="606.5" y="-147" font-family="Helvetica,sans-Serif" font-size="10.00" fill="#000000">CommonConstants/LHCConstants.h</text>
</a>
</g>
</g>
<!-- Node1&#45;&gt;Node14 -->
<g id="edge16" class="edge">
<title>Node1&#45;&gt;Node14</title>
<path fill="none" stroke="#191970" d="M405.4264,-201.4581C446.9402,-190.7308 514.4365,-173.2895 559.6353,-161.61"/>
<polygon fill="#191970" stroke="#191970" points="560.6807,-164.9549 569.487,-159.0643 558.9293,-158.1775 560.6807,-164.9549"/>
</g>
<!-- Node4 -->
<g id="node5" class="node">
<title>Node4</title>
<polygon fill="none" stroke="#bfbfbf" points="0,-6 0,-25 47,-25 47,-6 0,-6"/>
<text text-anchor="middle" x="23.5" y="-13" font-family="Helvetica,sans-Serif" font-size="10.00" fill="#000000">vector</text>
</g>
<!-- Node3&#45;&gt;Node4 -->
<g id="edge4" class="edge">
<title>Node3&#45;&gt;Node4</title>
<path fill="none" stroke="#191970" d="M215.4189,-70.4655C169.0507,-61.8741 108.4597,-48.7002 56.5,-31 54.8523,-30.4387 53.1778,-29.8192 51.5013,-29.1603"/>
<polygon fill="#191970" stroke="#191970" points="52.6184,-25.8307 42.0495,-25.0897 49.8495,-32.2598 52.6184,-25.8307"/>
</g>
<!-- Node5 -->
<g id="node6" class="node">
<title>Node5</title>
<polygon fill="none" stroke="#bfbfbf" points="65.5,-6 65.5,-25 103.5,-25 103.5,-6 65.5,-6"/>
<text text-anchor="middle" x="84.5" y="-13" font-family="Helvetica,sans-Serif" font-size="10.00" fill="#000000">map</text>
</g>
<!-- Node3&#45;&gt;Node5 -->
<g id="edge5" class="edge">
<title>Node3&#45;&gt;Node5</title>
<path fill="none" stroke="#191970" d="M225.2452,-67.4889C191.1229,-58.6041 148.8427,-46.1245 112.5,-31 111.4997,-30.5837 110.4893,-30.1409 109.4762,-29.678"/>
<polygon fill="#191970" stroke="#191970" points="110.9878,-26.5205 100.4826,-25.1449 107.8371,-32.7714 110.9878,-26.5205"/>
</g>
<!-- Node6 -->
<g id="node7" class="node">
<title>Node6</title>
<polygon fill="none" stroke="#bfbfbf" points="122,-6 122,-25 215,-25 215,-6 122,-6"/>
<text text-anchor="middle" x="168.5" y="-13" font-family="Helvetica,sans-Serif" font-size="10.00" fill="#000000">unordered_map</text>
</g>
<!-- Node3&#45;&gt;Node6 -->
<g id="edge6" class="edge">
<title>Node3&#45;&gt;Node6</title>
<path fill="none" stroke="#191970" d="M262.3452,-67.4639C242.1344,-56.2728 214.7036,-41.0838 194.7201,-30.0186"/>
<polygon fill="#191970" stroke="#191970" points="196.2883,-26.8862 185.8444,-25.1039 192.8973,-33.0101 196.2883,-26.8862"/>
</g>
<!-- Node7 -->
<g id="node8" class="node">
<title>Node7</title>
<polygon fill="none" stroke="#bfbfbf" points="233,-.5 233,-30.5 346,-30.5 346,-.5 233,-.5"/>
<text text-anchor="start" x="241" y="-18.5" font-family="Helvetica,sans-Serif" font-size="10.00" fill="#000000">boost/property_tree</text>
<text text-anchor="middle" x="289.5" y="-7.5" font-family="Helvetica,sans-Serif" font-size="10.00" fill="#000000">/ptree.hpp</text>
</g>
<!-- Node3&#45;&gt;Node7 -->
<g id="edge7" class="edge">
<title>Node3&#45;&gt;Node7</title>
<path fill="none" stroke="#191970" d="M289.5,-67.2967C289.5,-59.5013 289.5,-49.7991 289.5,-40.9064"/>
<polygon fill="#191970" stroke="#191970" points="293.0001,-40.6431 289.5,-30.6432 286.0001,-40.6432 293.0001,-40.6431"/>
</g>
<!-- Node8 -->
<g id="node9" class="node">
<title>Node8</title>
<polygon fill="none" stroke="#bfbfbf" points="443,-6 443,-25 500,-25 500,-6 443,-6"/>
<text text-anchor="middle" x="471.5" y="-13" font-family="Helvetica,sans-Serif" font-size="10.00" fill="#000000">typeinfo</text>
</g>
<!-- Node3&#45;&gt;Node8 -->
<g id="edge8" class="edge">
<title>Node3&#45;&gt;Node8</title>
<path fill="none" stroke="#191970" d="M333.1627,-67.4436C361.8082,-57.4283 400.0226,-43.807 433.5,-31 435.3467,-30.2936 437.2395,-29.5581 439.1467,-28.8083"/>
<polygon fill="#191970" stroke="#191970" points="440.6702,-31.9687 448.6567,-25.0068 438.072,-25.4687 440.6702,-31.9687"/>
</g>
<!-- Node9 -->
<g id="node10" class="node">
<title>Node9</title>
<polygon fill="none" stroke="#bfbfbf" points="364.5,-6 364.5,-25 424.5,-25 424.5,-6 364.5,-6"/>
<text text-anchor="middle" x="394.5" y="-13" font-family="Helvetica,sans-Serif" font-size="10.00" fill="#000000">iostream</text>
</g>
<!-- Node3&#45;&gt;Node9 -->
<g id="edge9" class="edge">
<title>Node3&#45;&gt;Node9</title>
<path fill="none" stroke="#191970" d="M313.064,-67.4639C330.2056,-56.526 353.3321,-41.769 370.5602,-30.7759"/>
<polygon fill="#191970" stroke="#191970" points="372.9018,-33.4336 379.4491,-25.1039 369.1364,-27.5326 372.9018,-33.4336"/>
</g>
<!-- Node10&#45;&gt;Node3 -->
<g id="edge11" class="edge">
<title>Node10&#45;&gt;Node3</title>
<path fill="none" stroke="#191970" d="M390.3255,-134.4639C371.9719,-125.0047 348.0765,-112.6894 328.155,-102.4222"/>
<polygon fill="#191970" stroke="#191970" points="329.5193,-99.1879 319.027,-97.7177 326.3124,-105.4101 329.5193,-99.1879"/>
</g>
<!-- Node10&#45;&gt;Node8 -->
<g id="edge14" class="edge">
<title>Node10&#45;&gt;Node8</title>
<path fill="none" stroke="#191970" d="M413.3178,-134.4318C407.2825,-117.2813 400.3643,-88.8222 410.5,-67 417.5682,-51.7823 431.593,-39.4403 444.4141,-30.6574"/>
<polygon fill="#191970" stroke="#191970" points="446.4686,-33.4979 452.9977,-25.1539 442.6903,-27.6051 446.4686,-33.4979"/>
</g>
<!-- Node11 -->
<g id="node12" class="node">
<title>Node11</title>
<polygon fill="none" stroke="#bfbfbf" points="420,-73 420,-92 477,-92 477,-73 420,-73"/>
<text text-anchor="middle" x="448.5" y="-80" font-family="Helvetica,sans-Serif" font-size="10.00" fill="#000000">TClass.h</text>
</g>
<!-- Node10&#45;&gt;Node11 -->
<g id="edge12" class="edge">
<title>Node10&#45;&gt;Node11</title>
<path fill="none" stroke="#191970" d="M426.0805,-134.2967C430.2918,-124.5672 435.7887,-111.8675 440.2855,-101.4784"/>
<polygon fill="#191970" stroke="#191970" points="443.604,-102.6225 444.3643,-92.055 437.1799,-99.8419 443.604,-102.6225"/>
</g>
<!-- Node12 -->
<g id="node13" class="node">
<title>Node12</title>
<polygon fill="none" stroke="#bfbfbf" points="495,-73 495,-92 564,-92 564,-73 495,-73"/>
<text text-anchor="middle" x="529.5" y="-80" font-family="Helvetica,sans-Serif" font-size="10.00" fill="#000000">type_traits</text>
</g>
<!-- Node10&#45;&gt;Node12 -->
<g id="edge13" class="edge">
<title>Node10&#45;&gt;Node12</title>
<path fill="none" stroke="#191970" d="M444.1861,-134.4639C462.3102,-123.4247 486.8209,-108.4954 504.92,-97.4715"/>
<polygon fill="#191970" stroke="#191970" points="507.0126,-100.2951 513.7324,-92.1039 503.3712,-94.3167 507.0126,-100.2951"/>
</g>
<!-- Node13 -->
<g id="node14" class="node">
<title>Node13</title>
<polygon fill="none" stroke="#bfbfbf" points="582.5,-73 582.5,-92 630.5,-92 630.5,-73 582.5,-73"/>
<text text-anchor="middle" x="606.5" y="-80" font-family="Helvetica,sans-Serif" font-size="10.00" fill="#000000">TFile.h</text>
</g>
<!-- Node10&#45;&gt;Node13 -->
<g id="edge15" class="edge">
<title>Node10&#45;&gt;Node13</title>
<path fill="none" stroke="#191970" d="M469.2718,-134.4755C499.6939,-124.8937 539.2162,-111.7299 573.5,-98 574.8955,-97.4411 576.3162,-96.8525 577.7452,-96.2445"/>
<polygon fill="#191970" stroke="#191970" points="579.4161,-99.3317 587.1218,-92.0603 576.5635,-92.9392 579.4161,-99.3317"/>
</g>
</g>
</svg>
