<?xml version="1.0" encoding="UTF-8" standalone="no"?>
<!DOCTYPE svg PUBLIC "-//W3C//DTD SVG 1.1//EN"
 "http://www.w3.org/Graphics/SVG/1.1/DTD/svg11.dtd">
<!-- Generated by graphviz version 2.40.1 (20161225.0304)
 -->
<!-- Title: o2::TestRawReader Pages: 1 -->
<svg width="200pt" height="204pt"
 viewBox="0.00 0.00 200.00 204.00" xmlns="http://www.w3.org/2000/svg" xmlns:xlink="http://www.w3.org/1999/xlink">
<g id="graph0" class="graph" transform="scale(1 1) rotate(0) translate(4 200)">
<title>o2::TestRawReader</title>
<!-- Node1 -->
<g id="node1" class="node">
<title>Node1</title>
<polygon fill="#bfbfbf" stroke="#000000" points="48,-.5 48,-79.5 158,-79.5 158,-.5 48,-.5"/>
<text text-anchor="middle" x="103" y="-67.5" font-family="Helvetica,sans-Serif" font-size="10.00" fill="#000000">o2::TestRawReader</text>
<polyline fill="none" stroke="#000000" points="48,-60.5 158,-60.5 "/>
<text text-anchor="middle" x="103" y="-48.5" font-family="Helvetica,sans-Serif" font-size="10.00" fill="#000000"> </text>
<polyline fill="none" stroke="#000000" points="48,-41.5 158,-41.5 "/>
<text text-anchor="start" x="56" y="-29.5" font-family="Helvetica,sans-Serif" font-size="10.00" fill="#000000">+ TestRawReader()</text>
<text text-anchor="start" x="56" y="-18.5" font-family="Helvetica,sans-Serif" font-size="10.00" fill="#000000">+ init()</text>
<text text-anchor="start" x="56" y="-7.5" font-family="Helvetica,sans-Serif" font-size="10.00" fill="#000000">+ run()</text>
</g>
<!-- Node2 -->
<g id="node2" class="node">
<title>Node2</title>
<polygon fill="none" stroke="#bfbfbf" points="0,-127.5 0,-195.5 116,-195.5 116,-127.5 0,-127.5"/>
<text text-anchor="start" x="8" y="-183.5" font-family="Helvetica,sans-Serif" font-size="10.00" fill="#000000">unique_ptr&lt; o2::raw</text>
<text text-anchor="middle" x="58" y="-172.5" font-family="Helvetica,sans-Serif" font-size="10.00" fill="#000000">::RawFileReader &gt;</text>
<polyline fill="none" stroke="#bfbfbf" points="0,-165.5 116,-165.5 "/>
<text text-anchor="middle" x="58" y="-153.5" font-family="Helvetica,sans-Serif" font-size="10.00" fill="#000000"> </text>
<polyline fill="none" stroke="#bfbfbf" points="0,-146.5 116,-146.5 "/>
<text text-anchor="middle" x="58" y="-134.5" font-family="Helvetica,sans-Serif" font-size="10.00" fill="#000000"> </text>
</g>
<!-- Node2&#45;&gt;Node1 -->
<g id="edge1" class="edge">
<title>Node2&#45;&gt;Node1</title>
<path fill="none" stroke="#404040" d="M70.6548,-127.3321C74.7918,-116.1623 79.4819,-103.4989 83.9816,-91.3496"/>
<polygon fill="none" stroke="#404040" points="84.0454,-91.1773 82.3783,-84.1615 88.2132,-79.9243 89.8803,-86.9401 84.0454,-91.1773"/>
<text text-anchor="middle" x="102.5" y="-101" font-family="Helvetica,sans-Serif" font-size="10.00" fill="#000000"> +reader</text>
</g>
<!-- Node3 -->
<g id="node3" class="node">
<title>Node3</title>
<polygon fill="none" stroke="#bfbfbf" points="134.5,-133 134.5,-190 163.5,-190 163.5,-133 134.5,-133"/>
<text text-anchor="middle" x="149" y="-178" font-family="Helvetica,sans-Serif" font-size="10.00" fill="#000000">int</text>
<polyline fill="none" stroke="#bfbfbf" points="134.5,-171 163.5,-171 "/>
<text text-anchor="middle" x="149" y="-159" font-family="Helvetica,sans-Serif" font-size="10.00" fill="#000000"> </text>
<polyline fill="none" stroke="#bfbfbf" points="134.5,-152 163.5,-152 "/>
<text text-anchor="middle" x="149" y="-140" font-family="Helvetica,sans-Serif" font-size="10.00" fill="#000000"> </text>
</g>
<!-- Node3&#45;&gt;Node1 -->
<g id="edge2" class="edge">
<title>Node3&#45;&gt;Node1</title>
<path fill="none" stroke="#404040" d="M139.4984,-132.922C135.7462,-121.9504 131.3077,-109.3435 127,-98 126.1235,-95.6919 125.2141,-93.338 124.2846,-90.9646"/>
<polygon fill="none" stroke="#404040" points="124.2825,-90.9591 118.3438,-86.8686 119.8355,-79.8134 125.7742,-83.9039 124.2825,-90.9591"/>
<text text-anchor="middle" x="161" y="-101" font-family="Helvetica,sans-Serif" font-size="10.00" fill="#000000"> +confName</text>
</g>
</g>
</svg>
