<?xml version="1.0" encoding="UTF-8" standalone="no"?>
<!DOCTYPE svg PUBLIC "-//W3C//DTD SVG 1.1//EN"
 "http://www.w3.org/Graphics/SVG/1.1/DTD/svg11.dtd">
<!-- Generated by graphviz version 2.40.1 (20161225.0304)
 -->
<!-- Title: o2::base::BaseDPLDigitizer Pages: 1 -->
<!--zoomable 551 -->
<svg id="main" version="1.1" xmlns="http://www.w3.org/2000/svg" xmlns:xlink="http://www.w3.org/1999/xlink" xml:space="preserve" onload="init(evt)">
<style type="text/css"><![CDATA[
.edge:hover path { stroke: red; }
.edge:hover polygon { stroke: red; fill: red; }
]]></style>
<script type="text/javascript"><![CDATA[
var edges = document.getElementsByTagName('g');
if (edges && edges.length) {
  for (var i=0;i<edges.length;i++) {
    if (edges[i].id.substr(0,4)=='edge') {
      edges[i].setAttribute('class','edge');
    }
  }
}
]]></script>
        <defs>
                <circle id="rim" cx="0" cy="0" r="7"/>
                <circle id="rim2" cx="0" cy="0" r="3.5"/>
                <g id="zoomPlus">
                        <use xlink:href="#rim" fill="#404040">
                                <set attributeName="fill" to="#808080" begin="zoomplus.mouseover" end="zoomplus.mouseout"/>
                        </use>
                        <path d="M-4,0h8M0,-4v8" fill="none" stroke="white" stroke-width="1.5" pointer-events="none"/>
                </g>
                <g id="zoomMin">
                        <use xlink:href="#rim" fill="#404040">
                                <set attributeName="fill" to="#808080" begin="zoomminus.mouseover" end="zoomminus.mouseout"/>
                        </use>
                        <path d="M-4,0h8" fill="none" stroke="white" stroke-width="1.5" pointer-events="none"/>
                </g>
                <g id="dirArrow">
                        <path fill="none" stroke="white" stroke-width="1.5" d="M0,-3.0v7 M-2.5,-0.5L0,-3.0L2.5,-0.5"/>
                </g>
               <g id="resetDef">
                       <use xlink:href="#rim2" fill="#404040">
                               <set attributeName="fill" to="#808080" begin="reset.mouseover" end="reset.mouseout"/>
                       </use>
               </g>
        </defs>

<script type="text/javascript">
var viewWidth = 2421;
var viewHeight = 551;
var sectionId = 'dynsection-0';
</script>
<script xlink:href="../../svgpan.js"/>
<svg id="graph" class="graph">
<g id="viewport">
<title>o2::base::BaseDPLDigitizer</title>
<!-- Node0 -->
<g id="node1" class="node">
<title>Node0</title>
<polygon fill="#bfbfbf" stroke="#000000" points="1135,-441.5 1135,-542.5 1283,-542.5 1283,-441.5 1135,-441.5"/>
<text text-anchor="middle" x="1209" y="-530.5" font-family="Helvetica,sans-Serif" font-size="10.00" fill="#000000">o2::base::BaseDPLDigitizer</text>
<polyline fill="none" stroke="#000000" points="1135,-523.5 1283,-523.5 "/>
<text text-anchor="middle" x="1209" y="-511.5" font-family="Helvetica,sans-Serif" font-size="10.00" fill="#000000"> </text>
<polyline fill="none" stroke="#000000" points="1135,-504.5 1283,-504.5 "/>
<text text-anchor="start" x="1143" y="-492.5" font-family="Helvetica,sans-Serif" font-size="10.00" fill="#000000">+ BaseDPLDigitizer()</text>
<text text-anchor="start" x="1143" y="-481.5" font-family="Helvetica,sans-Serif" font-size="10.00" fill="#000000">+ ~BaseDPLDigitizer()</text>
<text text-anchor="start" x="1143" y="-470.5" font-family="Helvetica,sans-Serif" font-size="10.00" fill="#000000">+ BaseDPLDigitizer()</text>
<text text-anchor="start" x="1143" y="-459.5" font-family="Helvetica,sans-Serif" font-size="10.00" fill="#000000">+ init()</text>
<text text-anchor="start" x="1143" y="-448.5" font-family="Helvetica,sans-Serif" font-size="10.00" fill="#000000">+ initDigitizerTask()</text>
</g>
<!-- Node1 -->
<g id="node2" class="node">
<title>Node1</title>
<g id="a_node2"><a xlink:href="../../d2/d9d/classo2_1_1cpv_1_1DigitizerSpec.html" target="_top" xlink:title="Task for CPV digitization in the data processing layer. ">
<polygon fill="none" stroke="#000000" points="0,-215.5 0,-305.5 122,-305.5 122,-215.5 0,-215.5"/>
<text text-anchor="middle" x="61" y="-293.5" font-family="Helvetica,sans-Serif" font-size="10.00" fill="#000000">o2::cpv::DigitizerSpec</text>
<polyline fill="none" stroke="#000000" points="0,-286.5 122,-286.5 "/>
<text text-anchor="middle" x="61" y="-274.5" font-family="Helvetica,sans-Serif" font-size="10.00" fill="#000000"> </text>
<polyline fill="none" stroke="#000000" points="0,-267.5 122,-267.5 "/>
<text text-anchor="start" x="8" y="-255.5" font-family="Helvetica,sans-Serif" font-size="10.00" fill="#000000">+ DigitizerSpec()</text>
<text text-anchor="start" x="8" y="-244.5" font-family="Helvetica,sans-Serif" font-size="10.00" fill="#000000">+ ~DigitizerSpec()</text>
<text text-anchor="start" x="8" y="-233.5" font-family="Helvetica,sans-Serif" font-size="10.00" fill="#000000">+ initDigitizerTask()</text>
<text text-anchor="start" x="8" y="-222.5" font-family="Helvetica,sans-Serif" font-size="10.00" fill="#000000">+ run()</text>
</a>
</g>
</g>
<!-- Node0&#45;&gt;Node1 -->
<g id="edge1" class="edge">
<title>Node0&#45;&gt;Node1</title>
<path fill="none" stroke="#191970" d="M1124.9151,-489.9731C885.5321,-483.5456 212.345,-460.6639 131,-405 97.6429,-382.174 79.616,-338.8476 70.2546,-305.567"/>
<polygon fill="none" stroke="#191970" points="1124.8693,-493.473 1134.9588,-490.2399 1125.0553,-486.4755 1124.8693,-493.473"/>
</g>
<!-- Node2 -->
<g id="node3" class="node">
<title>Node2</title>
<g id="a_node3"><a xlink:href="../../df/d27/classo2_1_1emcal_1_1DigitizerSpec.html" target="_top" xlink:title="Create new digitizer spec. ">
<polygon fill="none" stroke="#000000" points="140.5,-215.5 140.5,-305.5 275.5,-305.5 275.5,-215.5 140.5,-215.5"/>
<text text-anchor="middle" x="208" y="-293.5" font-family="Helvetica,sans-Serif" font-size="10.00" fill="#000000">o2::emcal::DigitizerSpec</text>
<polyline fill="none" stroke="#000000" points="140.5,-286.5 275.5,-286.5 "/>
<text text-anchor="middle" x="208" y="-274.5" font-family="Helvetica,sans-Serif" font-size="10.00" fill="#000000"> </text>
<polyline fill="none" stroke="#000000" points="140.5,-267.5 275.5,-267.5 "/>
<text text-anchor="start" x="148.5" y="-255.5" font-family="Helvetica,sans-Serif" font-size="10.00" fill="#000000">+ DigitizerSpec()</text>
<text text-anchor="start" x="148.5" y="-244.5" font-family="Helvetica,sans-Serif" font-size="10.00" fill="#000000">+ ~DigitizerSpec()</text>
<text text-anchor="start" x="148.5" y="-233.5" font-family="Helvetica,sans-Serif" font-size="10.00" fill="#000000">+ initDigitizerTask()</text>
<text text-anchor="start" x="148.5" y="-222.5" font-family="Helvetica,sans-Serif" font-size="10.00" fill="#000000">+ run()</text>
</a>
</g>
</g>
<!-- Node0&#45;&gt;Node2 -->
<g id="edge2" class="edge">
<title>Node0&#45;&gt;Node2</title>
<path fill="none" stroke="#191970" d="M1124.5483,-488.5875C909.6317,-479.2685 354.0241,-450.9698 285,-405 250.6939,-382.1522 230.5473,-338.8288 219.5262,-305.5547"/>
<polygon fill="none" stroke="#191970" points="1124.6884,-492.0967 1134.8297,-489.03 1124.9895,-485.1031 1124.6884,-492.0967"/>
</g>
<!-- Node3 -->
<g id="node4" class="node">
<title>Node3</title>
<g id="a_node4"><a xlink:href="../../db/d20/classo2_1_1fdd_1_1FDDDPLDigitizerTask.html" target="_top" xlink:title="{o2::fdd::FDDDPLDigitizerTask\n||+ initDigitizerTask()\l+ run()\l}">
<polygon fill="none" stroke="#000000" points="294,-226.5 294,-294.5 452,-294.5 452,-226.5 294,-226.5"/>
<text text-anchor="middle" x="373" y="-282.5" font-family="Helvetica,sans-Serif" font-size="10.00" fill="#000000">o2::fdd::FDDDPLDigitizerTask</text>
<polyline fill="none" stroke="#000000" points="294,-275.5 452,-275.5 "/>
<text text-anchor="middle" x="373" y="-263.5" font-family="Helvetica,sans-Serif" font-size="10.00" fill="#000000"> </text>
<polyline fill="none" stroke="#000000" points="294,-256.5 452,-256.5 "/>
<text text-anchor="start" x="302" y="-244.5" font-family="Helvetica,sans-Serif" font-size="10.00" fill="#000000">+ initDigitizerTask()</text>
<text text-anchor="start" x="302" y="-233.5" font-family="Helvetica,sans-Serif" font-size="10.00" fill="#000000">+ run()</text>
</a>
</g>
</g>
<!-- Node0&#45;&gt;Node3 -->
<g id="edge3" class="edge">
<title>Node0&#45;&gt;Node3</title>
<path fill="none" stroke="#191970" d="M1124.7597,-486.3647C940.9717,-473.4773 515.9989,-440.2362 461,-405 421.0574,-379.4099 396.4885,-328.5987 383.7926,-294.5728"/>
<polygon fill="none" stroke="#191970" points="1124.7013,-489.869 1134.9207,-487.0737 1125.1886,-482.886 1124.7013,-489.869"/>
</g>
<!-- Node4 -->
<g id="node5" class="node">
<title>Node4</title>
<g id="a_node5"><a xlink:href="../../d8/d99/classo2_1_1ft0_1_1FT0DPLDigitizerTask.html" target="_top" xlink:title="{o2::ft0::FT0DPLDigitizerTask\n|# mFinished\l# mDigitsCh\l# mDigitsBC\l# mContinuous\l# mFairTimeUnitInNS\l# mDigitizer\l# mROMode\l# mDisableQED\l# mSimChains\l|+ FT0DPLDigitizerTask()\l+ FT0DPLDigitizerTask()\l+ ~FT0DPLDigitizerTask()\l+ initDigitizerTask()\l+ run()\l}">
<polygon fill="none" stroke="#000000" points="470.5,-166 470.5,-355 623.5,-355 623.5,-166 470.5,-166"/>
<text text-anchor="middle" x="547" y="-343" font-family="Helvetica,sans-Serif" font-size="10.00" fill="#000000">o2::ft0::FT0DPLDigitizerTask</text>
<polyline fill="none" stroke="#000000" points="470.5,-336 623.5,-336 "/>
<text text-anchor="start" x="478.5" y="-324" font-family="Helvetica,sans-Serif" font-size="10.00" fill="#000000"># mFinished</text>
<text text-anchor="start" x="478.5" y="-313" font-family="Helvetica,sans-Serif" font-size="10.00" fill="#000000"># mDigitsCh</text>
<text text-anchor="start" x="478.5" y="-302" font-family="Helvetica,sans-Serif" font-size="10.00" fill="#000000"># mDigitsBC</text>
<text text-anchor="start" x="478.5" y="-291" font-family="Helvetica,sans-Serif" font-size="10.00" fill="#000000"># mContinuous</text>
<text text-anchor="start" x="478.5" y="-280" font-family="Helvetica,sans-Serif" font-size="10.00" fill="#000000"># mFairTimeUnitInNS</text>
<text text-anchor="start" x="478.5" y="-269" font-family="Helvetica,sans-Serif" font-size="10.00" fill="#000000"># mDigitizer</text>
<text text-anchor="start" x="478.5" y="-258" font-family="Helvetica,sans-Serif" font-size="10.00" fill="#000000"># mROMode</text>
<text text-anchor="start" x="478.5" y="-247" font-family="Helvetica,sans-Serif" font-size="10.00" fill="#000000"># mDisableQED</text>
<text text-anchor="start" x="478.5" y="-236" font-family="Helvetica,sans-Serif" font-size="10.00" fill="#000000"># mSimChains</text>
<polyline fill="none" stroke="#000000" points="470.5,-229 623.5,-229 "/>
<text text-anchor="start" x="478.5" y="-217" font-family="Helvetica,sans-Serif" font-size="10.00" fill="#000000">+ FT0DPLDigitizerTask()</text>
<text text-anchor="start" x="478.5" y="-206" font-family="Helvetica,sans-Serif" font-size="10.00" fill="#000000">+ FT0DPLDigitizerTask()</text>
<text text-anchor="start" x="478.5" y="-195" font-family="Helvetica,sans-Serif" font-size="10.00" fill="#000000">+ ~FT0DPLDigitizerTask()</text>
<text text-anchor="start" x="478.5" y="-184" font-family="Helvetica,sans-Serif" font-size="10.00" fill="#000000">+ initDigitizerTask()</text>
<text text-anchor="start" x="478.5" y="-173" font-family="Helvetica,sans-Serif" font-size="10.00" fill="#000000">+ run()</text>
</a>
</g>
</g>
<!-- Node0&#45;&gt;Node4 -->
<g id="edge4" class="edge">
<title>Node0&#45;&gt;Node4</title>
<path fill="none" stroke="#191970" d="M1124.6488,-488.0324C984.6163,-480.0234 711.7573,-457.9525 633,-405 614.3453,-392.4575 599.1322,-374.3873 586.9781,-355.2493"/>
<polygon fill="none" stroke="#191970" points="1124.7268,-491.5421 1134.907,-488.6075 1125.1187,-484.5531 1124.7268,-491.5421"/>
</g>
<!-- Node5 -->
<g id="node6" class="node">
<title>Node5</title>
<g id="a_node6"><a xlink:href="../../d1/d36/classo2_1_1fv0_1_1FV0DPLDigitizerTask.html" target="_top" xlink:title="{o2::fv0::FV0DPLDigitizerTask\n||+ FV0DPLDigitizerTask()\l+ ~FV0DPLDigitizerTask()\l+ initDigitizerTask()\l+ run()\l}">
<polygon fill="none" stroke="#000000" points="642,-215.5 642,-305.5 798,-305.5 798,-215.5 642,-215.5"/>
<text text-anchor="middle" x="720" y="-293.5" font-family="Helvetica,sans-Serif" font-size="10.00" fill="#000000">o2::fv0::FV0DPLDigitizerTask</text>
<polyline fill="none" stroke="#000000" points="642,-286.5 798,-286.5 "/>
<text text-anchor="middle" x="720" y="-274.5" font-family="Helvetica,sans-Serif" font-size="10.00" fill="#000000"> </text>
<polyline fill="none" stroke="#000000" points="642,-267.5 798,-267.5 "/>
<text text-anchor="start" x="650" y="-255.5" font-family="Helvetica,sans-Serif" font-size="10.00" fill="#000000">+ FV0DPLDigitizerTask()</text>
<text text-anchor="start" x="650" y="-244.5" font-family="Helvetica,sans-Serif" font-size="10.00" fill="#000000">+ ~FV0DPLDigitizerTask()</text>
<text text-anchor="start" x="650" y="-233.5" font-family="Helvetica,sans-Serif" font-size="10.00" fill="#000000">+ initDigitizerTask()</text>
<text text-anchor="start" x="650" y="-222.5" font-family="Helvetica,sans-Serif" font-size="10.00" fill="#000000">+ run()</text>
</a>
</g>
</g>
<!-- Node0&#45;&gt;Node5 -->
<g id="edge5" class="edge">
<title>Node0&#45;&gt;Node5</title>
<path fill="none" stroke="#191970" d="M1124.8301,-481.6458C1022.7339,-467.7506 858.0541,-440.6372 808,-405 773.6637,-380.5535 750.1709,-338.11 736.1539,-305.5273"/>
<polygon fill="none" stroke="#191970" points="1124.4371,-485.1244 1134.8147,-482.9897 1125.371,-478.1869 1124.4371,-485.1244"/>
</g>
<!-- Node6 -->
<g id="node7" class="node">
<title>Node6</title>
<g id="a_node7"><a xlink:href="../../db/d9c/classo2_1_1hmpid_1_1HMPIDDPLDigitizerTask.html" target="_top" xlink:title="{o2::hmpid::HMPIDDPLDigitizerTask\n||+ HMPIDDPLDigitizerTask()\l+ initDigitizerTask()\l+ run()\l}">
<polygon fill="none" stroke="#000000" points="816.5,-221 816.5,-300 1001.5,-300 1001.5,-221 816.5,-221"/>
<text text-anchor="middle" x="909" y="-288" font-family="Helvetica,sans-Serif" font-size="10.00" fill="#000000">o2::hmpid::HMPIDDPLDigitizerTask</text>
<polyline fill="none" stroke="#000000" points="816.5,-281 1001.5,-281 "/>
<text text-anchor="middle" x="909" y="-269" font-family="Helvetica,sans-Serif" font-size="10.00" fill="#000000"> </text>
<polyline fill="none" stroke="#000000" points="816.5,-262 1001.5,-262 "/>
<text text-anchor="start" x="824.5" y="-250" font-family="Helvetica,sans-Serif" font-size="10.00" fill="#000000">+ HMPIDDPLDigitizerTask()</text>
<text text-anchor="start" x="824.5" y="-239" font-family="Helvetica,sans-Serif" font-size="10.00" fill="#000000">+ initDigitizerTask()</text>
<text text-anchor="start" x="824.5" y="-228" font-family="Helvetica,sans-Serif" font-size="10.00" fill="#000000">+ run()</text>
</a>
</g>
</g>
<!-- Node0&#45;&gt;Node6 -->
<g id="edge6" class="edge">
<title>Node0&#45;&gt;Node6</title>
<path fill="none" stroke="#191970" d="M1125.1494,-466.9934C1087.282,-452.9133 1043.6086,-432.5388 1010,-405 974.843,-376.1925 946.4881,-332.1833 928.8737,-300.3022"/>
<polygon fill="none" stroke="#191970" points="1124.0478,-470.3169 1134.6419,-470.438 1126.4356,-463.7367 1124.0478,-470.3169"/>
</g>
<!-- Node7 -->
<g id="node8" class="node">
<title>Node7</title>
<g id="a_node8"><a xlink:href="../../dd/d3a/classo2_1_1itsmft_1_1ITSMFTDPLDigitizerTask.html" target="_top" xlink:title="{o2::itsmft::ITSMFTDPLDigitizerTask\n|# mWithMCTruth\l# mFinished\l# mDisableQED\l# mID\l# mOrigin\l# mDigitizer\l# mDigits\l# mDigitsAccum\l# mROFRecords\l# mROFRecordsAccum\l# mHits\l# mHitsP\l# mLabels\l# mLabelsAccum\l# mMC2ROFRecordsAccum\l# mSimChains\l# mFixMC2ROF\l# mROMode\l|+ initDigitizerTask()\l+ setDigitizationOptions()\l+ run()\l# ITSMFTDPLDigitizerTask()\l# accumulate()\l}">
<polygon fill="none" stroke="#000000" points="1019,-116.5 1019,-404.5 1205,-404.5 1205,-116.5 1019,-116.5"/>
<text text-anchor="middle" x="1112" y="-392.5" font-family="Helvetica,sans-Serif" font-size="10.00" fill="#000000">o2::itsmft::ITSMFTDPLDigitizerTask</text>
<polyline fill="none" stroke="#000000" points="1019,-385.5 1205,-385.5 "/>
<text text-anchor="start" x="1027" y="-373.5" font-family="Helvetica,sans-Serif" font-size="10.00" fill="#000000"># mWithMCTruth</text>
<text text-anchor="start" x="1027" y="-362.5" font-family="Helvetica,sans-Serif" font-size="10.00" fill="#000000"># mFinished</text>
<text text-anchor="start" x="1027" y="-351.5" font-family="Helvetica,sans-Serif" font-size="10.00" fill="#000000"># mDisableQED</text>
<text text-anchor="start" x="1027" y="-340.5" font-family="Helvetica,sans-Serif" font-size="10.00" fill="#000000"># mID</text>
<text text-anchor="start" x="1027" y="-329.5" font-family="Helvetica,sans-Serif" font-size="10.00" fill="#000000"># mOrigin</text>
<text text-anchor="start" x="1027" y="-318.5" font-family="Helvetica,sans-Serif" font-size="10.00" fill="#000000"># mDigitizer</text>
<text text-anchor="start" x="1027" y="-307.5" font-family="Helvetica,sans-Serif" font-size="10.00" fill="#000000"># mDigits</text>
<text text-anchor="start" x="1027" y="-296.5" font-family="Helvetica,sans-Serif" font-size="10.00" fill="#000000"># mDigitsAccum</text>
<text text-anchor="start" x="1027" y="-285.5" font-family="Helvetica,sans-Serif" font-size="10.00" fill="#000000"># mROFRecords</text>
<text text-anchor="start" x="1027" y="-274.5" font-family="Helvetica,sans-Serif" font-size="10.00" fill="#000000"># mROFRecordsAccum</text>
<text text-anchor="start" x="1027" y="-263.5" font-family="Helvetica,sans-Serif" font-size="10.00" fill="#000000"># mHits</text>
<text text-anchor="start" x="1027" y="-252.5" font-family="Helvetica,sans-Serif" font-size="10.00" fill="#000000"># mHitsP</text>
<text text-anchor="start" x="1027" y="-241.5" font-family="Helvetica,sans-Serif" font-size="10.00" fill="#000000"># mLabels</text>
<text text-anchor="start" x="1027" y="-230.5" font-family="Helvetica,sans-Serif" font-size="10.00" fill="#000000"># mLabelsAccum</text>
<text text-anchor="start" x="1027" y="-219.5" font-family="Helvetica,sans-Serif" font-size="10.00" fill="#000000"># mMC2ROFRecordsAccum</text>
<text text-anchor="start" x="1027" y="-208.5" font-family="Helvetica,sans-Serif" font-size="10.00" fill="#000000"># mSimChains</text>
<text text-anchor="start" x="1027" y="-197.5" font-family="Helvetica,sans-Serif" font-size="10.00" fill="#000000"># mFixMC2ROF</text>
<text text-anchor="start" x="1027" y="-186.5" font-family="Helvetica,sans-Serif" font-size="10.00" fill="#000000"># mROMode</text>
<polyline fill="none" stroke="#000000" points="1019,-179.5 1205,-179.5 "/>
<text text-anchor="start" x="1027" y="-167.5" font-family="Helvetica,sans-Serif" font-size="10.00" fill="#000000">+ initDigitizerTask()</text>
<text text-anchor="start" x="1027" y="-156.5" font-family="Helvetica,sans-Serif" font-size="10.00" fill="#000000">+ setDigitizationOptions()</text>
<text text-anchor="start" x="1027" y="-145.5" font-family="Helvetica,sans-Serif" font-size="10.00" fill="#000000">+ run()</text>
<text text-anchor="start" x="1027" y="-134.5" font-family="Helvetica,sans-Serif" font-size="10.00" fill="#000000"># ITSMFTDPLDigitizerTask()</text>
<text text-anchor="start" x="1027" y="-123.5" font-family="Helvetica,sans-Serif" font-size="10.00" fill="#000000"># accumulate()</text>
</a>
</g>
</g>
<!-- Node0&#45;&gt;Node7 -->
<g id="edge7" class="edge">
<title>Node0&#45;&gt;Node7</title>
<path fill="none" stroke="#8b1a1a" d="M1183.9533,-432.2235C1180.2876,-423.4751 1176.3866,-414.1648 1172.3698,-404.5784"/>
<polygon fill="none" stroke="#8b1a1a" points="1180.7401,-433.6119 1187.8328,-441.4824 1187.1963,-430.9067 1180.7401,-433.6119"/>
</g>
<!-- Node10 -->
<g id="node11" class="node">
<title>Node10</title>
<g id="a_node11"><a xlink:href="../../d9/d0d/classo2_1_1mch_1_1MCHDPLDigitizerTask.html" target="_top" xlink:title="{o2::mch::MCHDPLDigitizerTask\n||+ MCHDPLDigitizerTask()\l+ initDigitizerTask()\l+ run()\l}">
<polygon fill="none" stroke="#000000" points="1223,-221 1223,-300 1389,-300 1389,-221 1223,-221"/>
<text text-anchor="middle" x="1306" y="-288" font-family="Helvetica,sans-Serif" font-size="10.00" fill="#000000">o2::mch::MCHDPLDigitizerTask</text>
<polyline fill="none" stroke="#000000" points="1223,-281 1389,-281 "/>
<text text-anchor="middle" x="1306" y="-269" font-family="Helvetica,sans-Serif" font-size="10.00" fill="#000000"> </text>
<polyline fill="none" stroke="#000000" points="1223,-262 1389,-262 "/>
<text text-anchor="start" x="1231" y="-250" font-family="Helvetica,sans-Serif" font-size="10.00" fill="#000000">+ MCHDPLDigitizerTask()</text>
<text text-anchor="start" x="1231" y="-239" font-family="Helvetica,sans-Serif" font-size="10.00" fill="#000000">+ initDigitizerTask()</text>
<text text-anchor="start" x="1231" y="-228" font-family="Helvetica,sans-Serif" font-size="10.00" fill="#000000">+ run()</text>
</a>
</g>
</g>
<!-- Node0&#45;&gt;Node10 -->
<g id="edge10" class="edge">
<title>Node0&#45;&gt;Node10</title>
<path fill="none" stroke="#191970" d="M1234.1304,-432.0238C1251.5264,-390.5065 1274.1937,-336.409 1289.3779,-300.1703"/>
<polygon fill="none" stroke="#191970" points="1230.8037,-430.9067 1230.1672,-441.4824 1237.2599,-433.6119 1230.8037,-430.9067"/>
</g>
<!-- Node11 -->
<g id="node12" class="node">
<title>Node11</title>
<g id="a_node12"><a xlink:href="../../d1/d9e/classo2_1_1mid_1_1MIDDPLDigitizerTask.html" target="_top" xlink:title="{o2::mid::MIDDPLDigitizerTask\n||+ MIDDPLDigitizerTask()\l+ initDigitizerTask()\l+ run()\l}">
<polygon fill="none" stroke="#000000" points="1407,-221 1407,-300 1567,-300 1567,-221 1407,-221"/>
<text text-anchor="middle" x="1487" y="-288" font-family="Helvetica,sans-Serif" font-size="10.00" fill="#000000">o2::mid::MIDDPLDigitizerTask</text>
<polyline fill="none" stroke="#000000" points="1407,-281 1567,-281 "/>
<text text-anchor="middle" x="1487" y="-269" font-family="Helvetica,sans-Serif" font-size="10.00" fill="#000000"> </text>
<polyline fill="none" stroke="#000000" points="1407,-262 1567,-262 "/>
<text text-anchor="start" x="1415" y="-250" font-family="Helvetica,sans-Serif" font-size="10.00" fill="#000000">+ MIDDPLDigitizerTask()</text>
<text text-anchor="start" x="1415" y="-239" font-family="Helvetica,sans-Serif" font-size="10.00" fill="#000000">+ initDigitizerTask()</text>
<text text-anchor="start" x="1415" y="-228" font-family="Helvetica,sans-Serif" font-size="10.00" fill="#000000">+ run()</text>
</a>
</g>
</g>
<!-- Node0&#45;&gt;Node11 -->
<g id="edge11" class="edge">
<title>Node0&#45;&gt;Node11</title>
<path fill="none" stroke="#191970" d="M1292.3919,-465.8514C1327.7652,-451.8339 1367.7225,-431.8287 1398,-405 1430.747,-375.9832 1455.45,-332.0075 1470.4223,-300.1915"/>
<polygon fill="none" stroke="#191970" points="1291.097,-462.5994 1283.0288,-469.4664 1293.6183,-469.1296 1291.097,-462.5994"/>
</g>
<!-- Node12 -->
<g id="node13" class="node">
<title>Node12</title>
<g id="a_node13"><a xlink:href="../../d7/de6/classo2_1_1phos_1_1DigitizerSpec.html" target="_top" xlink:title="Task for PHOS digitization in the data processing layer. ">
<polygon fill="none" stroke="#000000" points="1585,-215.5 1585,-305.5 1713,-305.5 1713,-215.5 1585,-215.5"/>
<text text-anchor="middle" x="1649" y="-293.5" font-family="Helvetica,sans-Serif" font-size="10.00" fill="#000000">o2::phos::DigitizerSpec</text>
<polyline fill="none" stroke="#000000" points="1585,-286.5 1713,-286.5 "/>
<text text-anchor="middle" x="1649" y="-274.5" font-family="Helvetica,sans-Serif" font-size="10.00" fill="#000000"> </text>
<polyline fill="none" stroke="#000000" points="1585,-267.5 1713,-267.5 "/>
<text text-anchor="start" x="1593" y="-255.5" font-family="Helvetica,sans-Serif" font-size="10.00" fill="#000000">+ DigitizerSpec()</text>
<text text-anchor="start" x="1593" y="-244.5" font-family="Helvetica,sans-Serif" font-size="10.00" fill="#000000">+ ~DigitizerSpec()</text>
<text text-anchor="start" x="1593" y="-233.5" font-family="Helvetica,sans-Serif" font-size="10.00" fill="#000000">+ initDigitizerTask()</text>
<text text-anchor="start" x="1593" y="-222.5" font-family="Helvetica,sans-Serif" font-size="10.00" fill="#000000">+ run()</text>
</a>
</g>
</g>
<!-- Node0&#45;&gt;Node12 -->
<g id="edge12" class="edge">
<title>Node0&#45;&gt;Node12</title>
<path fill="none" stroke="#191970" d="M1293.3612,-480.3966C1387.6271,-466.0043 1532.7205,-439.1395 1576,-405 1607.5562,-380.108 1626.6362,-337.9371 1637.3318,-305.5581"/>
<polygon fill="none" stroke="#191970" points="1292.6324,-476.9669 1283.2667,-481.92 1293.677,-483.8885 1292.6324,-476.9669"/>
</g>
<!-- Node13 -->
<g id="node14" class="node">
<title>Node13</title>
<g id="a_node14"><a xlink:href="../../d0/d34/classo2_1_1tof_1_1TOFDPLDigitizerTask.html" target="_top" xlink:title="{o2::tof::TOFDPLDigitizerTask\n||+ TOFDPLDigitizerTask()\l+ initDigitizerTask()\l+ run()\l}">
<polygon fill="none" stroke="#000000" points="1731.5,-221 1731.5,-300 1886.5,-300 1886.5,-221 1731.5,-221"/>
<text text-anchor="middle" x="1809" y="-288" font-family="Helvetica,sans-Serif" font-size="10.00" fill="#000000">o2::tof::TOFDPLDigitizerTask</text>
<polyline fill="none" stroke="#000000" points="1731.5,-281 1886.5,-281 "/>
<text text-anchor="middle" x="1809" y="-269" font-family="Helvetica,sans-Serif" font-size="10.00" fill="#000000"> </text>
<polyline fill="none" stroke="#000000" points="1731.5,-262 1886.5,-262 "/>
<text text-anchor="start" x="1739.5" y="-250" font-family="Helvetica,sans-Serif" font-size="10.00" fill="#000000">+ TOFDPLDigitizerTask()</text>
<text text-anchor="start" x="1739.5" y="-239" font-family="Helvetica,sans-Serif" font-size="10.00" fill="#000000">+ initDigitizerTask()</text>
<text text-anchor="start" x="1739.5" y="-228" font-family="Helvetica,sans-Serif" font-size="10.00" fill="#000000">+ run()</text>
</a>
</g>
</g>
<!-- Node0&#45;&gt;Node13 -->
<g id="edge13" class="edge">
<title>Node0&#45;&gt;Node13</title>
<path fill="none" stroke="#191970" d="M1293.0964,-486.2179C1420.1792,-476.0892 1653.6008,-451.6361 1722,-405 1758.7752,-379.9258 1782.5508,-333.6853 1795.799,-300.2532"/>
<polygon fill="none" stroke="#191970" points="1292.7066,-482.7377 1283.0111,-487.0095 1293.2544,-489.7162 1292.7066,-482.7377"/>
</g>
<!-- Node14 -->
<g id="node15" class="node">
<title>Node14</title>
<g id="a_node15"><a xlink:href="../../dc/d44/classo2_1_1tpc_1_1TPCDPLDigitizerTask.html" target="_top" xlink:title="{o2::tpc::TPCDPLDigitizerTask\n||+ TPCDPLDigitizerTask()\l+ initDigitizerTask()\l+ run()\l+ process()\l}">
<polygon fill="none" stroke="#000000" points="1905,-215.5 1905,-305.5 2061,-305.5 2061,-215.5 1905,-215.5"/>
<text text-anchor="middle" x="1983" y="-293.5" font-family="Helvetica,sans-Serif" font-size="10.00" fill="#000000">o2::tpc::TPCDPLDigitizerTask</text>
<polyline fill="none" stroke="#000000" points="1905,-286.5 2061,-286.5 "/>
<text text-anchor="middle" x="1983" y="-274.5" font-family="Helvetica,sans-Serif" font-size="10.00" fill="#000000"> </text>
<polyline fill="none" stroke="#000000" points="1905,-267.5 2061,-267.5 "/>
<text text-anchor="start" x="1913" y="-255.5" font-family="Helvetica,sans-Serif" font-size="10.00" fill="#000000">+ TPCDPLDigitizerTask()</text>
<text text-anchor="start" x="1913" y="-244.5" font-family="Helvetica,sans-Serif" font-size="10.00" fill="#000000">+ initDigitizerTask()</text>
<text text-anchor="start" x="1913" y="-233.5" font-family="Helvetica,sans-Serif" font-size="10.00" fill="#000000">+ run()</text>
<text text-anchor="start" x="1913" y="-222.5" font-family="Helvetica,sans-Serif" font-size="10.00" fill="#000000">+ process()</text>
</a>
</g>
</g>
<!-- Node0&#45;&gt;Node14 -->
<g id="edge14" class="edge">
<title>Node0&#45;&gt;Node14</title>
<path fill="none" stroke="#191970" d="M1293.5034,-490.3547C1454.6079,-485.7724 1798.3555,-468.6126 1896,-405 1931.4538,-381.9029 1954.6024,-338.8415 1968.0414,-305.7125"/>
<polygon fill="none" stroke="#191970" points="1293.0605,-486.8654 1283.1604,-490.6387 1293.2527,-493.8628 1293.0605,-486.8654"/>
</g>
<!-- Node15 -->
<g id="node16" class="node">
<title>Node15</title>
<g id="a_node16"><a xlink:href="../../d0/dab/classo2_1_1trd_1_1TRDDPLDigitizerTask.html" target="_top" xlink:title="{o2::trd::TRDDPLDigitizerTask\n||+ TRDDPLDigitizerTask()\l+ initDigitizerTask()\l+ run()\l}">
<polygon fill="none" stroke="#000000" points="2079,-221 2079,-300 2235,-300 2235,-221 2079,-221"/>
<text text-anchor="middle" x="2157" y="-288" font-family="Helvetica,sans-Serif" font-size="10.00" fill="#000000">o2::trd::TRDDPLDigitizerTask</text>
<polyline fill="none" stroke="#000000" points="2079,-281 2235,-281 "/>
<text text-anchor="middle" x="2157" y="-269" font-family="Helvetica,sans-Serif" font-size="10.00" fill="#000000"> </text>
<polyline fill="none" stroke="#000000" points="2079,-262 2235,-262 "/>
<text text-anchor="start" x="2087" y="-250" font-family="Helvetica,sans-Serif" font-size="10.00" fill="#000000">+ TRDDPLDigitizerTask()</text>
<text text-anchor="start" x="2087" y="-239" font-family="Helvetica,sans-Serif" font-size="10.00" fill="#000000">+ initDigitizerTask()</text>
<text text-anchor="start" x="2087" y="-228" font-family="Helvetica,sans-Serif" font-size="10.00" fill="#000000">+ run()</text>
</a>
</g>
</g>
<!-- Node0&#45;&gt;Node15 -->
<g id="edge15" class="edge">
<title>Node0&#45;&gt;Node15</title>
<path fill="none" stroke="#191970" d="M1293.3338,-487.7549C1497.3002,-476.8859 2005.2978,-445.9969 2070,-405 2107.8452,-381.0203 2131.5293,-334.0895 2144.4613,-300.2066"/>
<polygon fill="none" stroke="#191970" points="1293.0682,-484.264 1283.2674,-488.2882 1293.4386,-491.2542 1293.0682,-484.264"/>
</g>
<!-- Node16 -->
<g id="node17" class="node">
<title>Node16</title>
<g id="a_node17"><a xlink:href="../../df/d4d/classo2_1_1zdc_1_1ZDCDPLDigitizerTask.html" target="_top" xlink:title="{o2::zdc::ZDCDPLDigitizerTask\n||+ ZDCDPLDigitizerTask()\l+ initDigitizerTask()\l+ run()\l}">
<polygon fill="none" stroke="#000000" points="2253,-221 2253,-300 2413,-300 2413,-221 2253,-221"/>
<text text-anchor="middle" x="2333" y="-288" font-family="Helvetica,sans-Serif" font-size="10.00" fill="#000000">o2::zdc::ZDCDPLDigitizerTask</text>
<polyline fill="none" stroke="#000000" points="2253,-281 2413,-281 "/>
<text text-anchor="middle" x="2333" y="-269" font-family="Helvetica,sans-Serif" font-size="10.00" fill="#000000"> </text>
<polyline fill="none" stroke="#000000" points="2253,-262 2413,-262 "/>
<text text-anchor="start" x="2261" y="-250" font-family="Helvetica,sans-Serif" font-size="10.00" fill="#000000">+ ZDCDPLDigitizerTask()</text>
<text text-anchor="start" x="2261" y="-239" font-family="Helvetica,sans-Serif" font-size="10.00" fill="#000000">+ initDigitizerTask()</text>
<text text-anchor="start" x="2261" y="-228" font-family="Helvetica,sans-Serif" font-size="10.00" fill="#000000">+ run()</text>
</a>
</g>
</g>
<!-- Node0&#45;&gt;Node16 -->
<g id="edge16" class="edge">
<title>Node0&#45;&gt;Node16</title>
<path fill="none" stroke="#191970" d="M1293.4963,-489.2429C1526.0803,-481.0498 2163.8293,-454.2975 2244,-405 2282.5256,-381.3103 2306.8489,-334.0775 2320.1504,-300.052"/>
<polygon fill="none" stroke="#191970" points="1293.2668,-485.7487 1283.3952,-489.596 1293.5114,-492.7444 1293.2668,-485.7487"/>
</g>
<!-- Node8 -->
<g id="node9" class="node">
<title>Node8</title>
<g id="a_node9"><a xlink:href="../../da/d25/classo2_1_1itsmft_1_1ITSDPLDigitizerTask.html" target="_top" xlink:title="{o2::itsmft::ITSDPLDigitizerTask\n|+ DETID\l+ DETOR\l|+ ITSDPLDigitizerTask()\l+ setDigitizationOptions()\l}">
<polygon fill="none" stroke="#000000" points="934.5,-.5 934.5,-79.5 1101.5,-79.5 1101.5,-.5 934.5,-.5"/>
<text text-anchor="middle" x="1018" y="-67.5" font-family="Helvetica,sans-Serif" font-size="10.00" fill="#000000">o2::itsmft::ITSDPLDigitizerTask</text>
<polyline fill="none" stroke="#000000" points="934.5,-60.5 1101.5,-60.5 "/>
<text text-anchor="start" x="942.5" y="-48.5" font-family="Helvetica,sans-Serif" font-size="10.00" fill="#000000">+ DETID</text>
<text text-anchor="start" x="942.5" y="-37.5" font-family="Helvetica,sans-Serif" font-size="10.00" fill="#000000">+ DETOR</text>
<polyline fill="none" stroke="#000000" points="934.5,-30.5 1101.5,-30.5 "/>
<text text-anchor="start" x="942.5" y="-18.5" font-family="Helvetica,sans-Serif" font-size="10.00" fill="#000000">+ ITSDPLDigitizerTask()</text>
<text text-anchor="start" x="942.5" y="-7.5" font-family="Helvetica,sans-Serif" font-size="10.00" fill="#000000">+ setDigitizationOptions()</text>
</a>
</g>
</g>
<!-- Node7&#45;&gt;Node8 -->
<g id="edge8" class="edge">
<title>Node7&#45;&gt;Node8</title>
<path fill="none" stroke="#191970" d="M1046.4537,-106.7452C1042.3205,-97.0497 1038.4152,-87.8889 1034.8982,-79.6388"/>
<polygon fill="none" stroke="#191970" points="1043.3398,-108.3659 1050.4811,-116.1924 1049.7791,-105.6208 1043.3398,-108.3659"/>
</g>
<!-- Node9 -->
<g id="node10" class="node">
<title>Node9</title>
<g id="a_node10"><a xlink:href="../../d2/dc2/classo2_1_1itsmft_1_1MFTDPLDigitizerTask.html" target="_top" xlink:title="{o2::itsmft::MFTDPLDigitizerTask\n|+ DETID\l+ DETOR\l|+ MFTDPLDigitizerTask()\l+ setDigitizationOptions()\l}">
<polygon fill="none" stroke="#000000" points="1119.5,-.5 1119.5,-79.5 1290.5,-79.5 1290.5,-.5 1119.5,-.5"/>
<text text-anchor="middle" x="1205" y="-67.5" font-family="Helvetica,sans-Serif" font-size="10.00" fill="#000000">o2::itsmft::MFTDPLDigitizerTask</text>
<polyline fill="none" stroke="#000000" points="1119.5,-60.5 1290.5,-60.5 "/>
<text text-anchor="start" x="1127.5" y="-48.5" font-family="Helvetica,sans-Serif" font-size="10.00" fill="#000000">+ DETID</text>
<text text-anchor="start" x="1127.5" y="-37.5" font-family="Helvetica,sans-Serif" font-size="10.00" fill="#000000">+ DETOR</text>
<polyline fill="none" stroke="#000000" points="1119.5,-30.5 1290.5,-30.5 "/>
<text text-anchor="start" x="1127.5" y="-18.5" font-family="Helvetica,sans-Serif" font-size="10.00" fill="#000000">+ MFTDPLDigitizerTask()</text>
<text text-anchor="start" x="1127.5" y="-7.5" font-family="Helvetica,sans-Serif" font-size="10.00" fill="#000000">+ setDigitizationOptions()</text>
</a>
</g>
</g>
<!-- Node7&#45;&gt;Node9 -->
<g id="edge9" class="edge">
<title>Node7&#45;&gt;Node9</title>
<path fill="none" stroke="#191970" d="M1176.849,-106.7452C1180.9382,-97.0497 1184.802,-87.8889 1188.2816,-79.6388"/>
<polygon fill="none" stroke="#191970" points="1173.5258,-105.6182 1172.8645,-116.1924 1179.9756,-108.3385 1173.5258,-105.6182"/>
</g>
</g>
</svg>
        <g id="navigator" transform="translate(0 0)" fill="#404254">
                <rect fill="#f2f5e9" fill-opacity="0.5" stroke="#606060" stroke-width=".5" x="0" y="0" width="60" height="60"/>
                <use id="zoomplus" xlink:href="#zoomPlus" x="17" y="9" onmousedown="handleZoom(evt,'in')"/>
                <use id="zoomminus" xlink:href="#zoomMin" x="42" y="9" onmousedown="handleZoom(evt,'out')"/>
                <use id="reset" xlink:href="#resetDef" x="30" y="36" onmousedown="handleReset()"/>
                <g id="arrowUp" xlink:href="#dirArrow" transform="translate(30 24)" onmousedown="handlePan(0,-1)">
                  <use xlink:href="#rim" fill="#404040">
                        <set attributeName="fill" to="#808080" begin="arrowUp.mouseover" end="arrowUp.mouseout"/>
                  </use>
                  <path fill="none" stroke="white" stroke-width="1.5" d="M0,-3.0v7 M-2.5,-0.5L0,-3.0L2.5,-0.5"/>
                </g>
                <g id="arrowRight" xlink:href="#dirArrow" transform="rotate(90) translate(36 -43)" onmousedown="handlePan(1,0)">
                  <use xlink:href="#rim" fill="#404040">
                        <set attributeName="fill" to="#808080" begin="arrowRight.mouseover" end="arrowRight.mouseout"/>
                  </use>
                  <path fill="none" stroke="white" stroke-width="1.5" d="M0,-3.0v7 M-2.5,-0.5L0,-3.0L2.5,-0.5"/>
                </g>
                <g id="arrowDown" xlink:href="#dirArrow" transform="rotate(180) translate(-30 -48)" onmousedown="handlePan(0,1)">
                  <use xlink:href="#rim" fill="#404040">
                        <set attributeName="fill" to="#808080" begin="arrowDown.mouseover" end="arrowDown.mouseout"/>
                  </use>
                  <path fill="none" stroke="white" stroke-width="1.5" d="M0,-3.0v7 M-2.5,-0.5L0,-3.0L2.5,-0.5"/>
                </g>
                <g id="arrowLeft" xlink:href="#dirArrow" transform="rotate(270) translate(-36 17)" onmousedown="handlePan(-1,0)">
                  <use xlink:href="#rim" fill="#404040">
                        <set attributeName="fill" to="#808080" begin="arrowLeft.mouseover" end="arrowLeft.mouseout"/>
                  </use>
                  <path fill="none" stroke="white" stroke-width="1.5" d="M0,-3.0v7 M-2.5,-0.5L0,-3.0L2.5,-0.5"/>
                </g>
        </g>
        <svg viewBox="0 0 15 15" width="100%" height="30px" preserveAspectRatio="xMaxYMin meet">
         <g id="arrow_out" transform="scale(0.3 0.3)">
          <a xlink:href="classo2_1_1base_1_1BaseDPLDigitizer__inherit__graph_org.svg" target="_base">
           <rect id="button" ry="5" rx="5" y="6" x="6" height="38" width="38"
                fill="#f2f5e9" fill-opacity="0.5" stroke="#606060" stroke-width="1.0"/>
           <path id="arrow"
             d="M 11.500037,31.436501 C 11.940474,20.09759 22.043105,11.32322 32.158766,21.979434 L 37.068811,17.246167 C 37.068811,17.246167 37.088388,32 37.088388,32 L 22.160133,31.978069 C 22.160133,31.978069 26.997745,27.140456 26.997745,27.140456 C 18.528582,18.264221 13.291696,25.230495 11.500037,31.436501 z"
             style="fill:#404040;"/>
          </a>
         </g>
        </svg>
</svg>
