<?xml version="1.0" encoding="UTF-8" standalone="no"?>
<!DOCTYPE svg PUBLIC "-//W3C//DTD SVG 1.1//EN"
 "http://www.w3.org/Graphics/SVG/1.1/DTD/svg11.dtd">
<!-- Generated by graphviz version 2.40.1 (20161225.0304)
 -->
<!-- Title: o2::eventgen::DecayerPythia8 Pages: 1 -->
<svg width="278pt" height="303pt"
 viewBox="0.00 0.00 278.00 303.00" xmlns="http://www.w3.org/2000/svg" xmlns:xlink="http://www.w3.org/1999/xlink">
<g id="graph0" class="graph" transform="scale(1 1) rotate(0) translate(4 299)">
<title>o2::eventgen::DecayerPythia8</title>
<!-- Node2 -->
<g id="node1" class="node">
<title>Node2</title>
<polygon fill="#bfbfbf" stroke="#000000" points="70,-.5 70,-189.5 234,-189.5 234,-.5 70,-.5"/>
<text text-anchor="middle" x="152" y="-177.5" font-family="Helvetica,sans-Serif" font-size="10.00" fill="#000000">o2::eventgen::DecayerPythia8</text>
<polyline fill="none" stroke="#000000" points="70,-170.5 234,-170.5 "/>
<text text-anchor="middle" x="152" y="-158.5" font-family="Helvetica,sans-Serif" font-size="10.00" fill="#000000"> </text>
<polyline fill="none" stroke="#000000" points="70,-151.5 234,-151.5 "/>
<text text-anchor="start" x="78" y="-139.5" font-family="Helvetica,sans-Serif" font-size="10.00" fill="#000000">+ DecayerPythia8()</text>
<text text-anchor="start" x="78" y="-128.5" font-family="Helvetica,sans-Serif" font-size="10.00" fill="#000000">+ ~DecayerPythia8()</text>
<text text-anchor="start" x="78" y="-117.5" font-family="Helvetica,sans-Serif" font-size="10.00" fill="#000000">+ Init()</text>
<text text-anchor="start" x="78" y="-106.5" font-family="Helvetica,sans-Serif" font-size="10.00" fill="#000000">+ Decay()</text>
<text text-anchor="start" x="78" y="-95.5" font-family="Helvetica,sans-Serif" font-size="10.00" fill="#000000">+ ImportParticles()</text>
<text text-anchor="start" x="78" y="-84.5" font-family="Helvetica,sans-Serif" font-size="10.00" fill="#000000">+ SetForceDecay()</text>
<text text-anchor="start" x="78" y="-73.5" font-family="Helvetica,sans-Serif" font-size="10.00" fill="#000000">+ ForceDecay()</text>
<text text-anchor="start" x="78" y="-62.5" font-family="Helvetica,sans-Serif" font-size="10.00" fill="#000000">+ GetPartialBranchingRatio()</text>
<text text-anchor="start" x="78" y="-51.5" font-family="Helvetica,sans-Serif" font-size="10.00" fill="#000000">+ GetLifetime()</text>
<text text-anchor="start" x="78" y="-40.5" font-family="Helvetica,sans-Serif" font-size="10.00" fill="#000000">+ ReadDecayTable()</text>
<text text-anchor="start" x="78" y="-29.5" font-family="Helvetica,sans-Serif" font-size="10.00" fill="#000000"># DecayerPythia8()</text>
<text text-anchor="start" x="78" y="-18.5" font-family="Helvetica,sans-Serif" font-size="10.00" fill="#000000"># operator=()</text>
<text text-anchor="start" x="78" y="-7.5" font-family="Helvetica,sans-Serif" font-size="10.00" fill="#000000"># ClassDefOverride()</text>
</g>
<!-- Node3 -->
<g id="node2" class="node">
<title>Node3</title>
<g id="a_node2"><a xlink:href="../../d4/d0c/classTVirtualMCDecayer.html" target="_top" xlink:title="{TVirtualMCDecayer\n||}">
<polygon fill="none" stroke="#000000" points="0,-237.5 0,-294.5 110,-294.5 110,-237.5 0,-237.5"/>
<text text-anchor="middle" x="55" y="-282.5" font-family="Helvetica,sans-Serif" font-size="10.00" fill="#000000">TVirtualMCDecayer</text>
<polyline fill="none" stroke="#000000" points="0,-275.5 110,-275.5 "/>
<text text-anchor="middle" x="55" y="-263.5" font-family="Helvetica,sans-Serif" font-size="10.00" fill="#000000"> </text>
<polyline fill="none" stroke="#000000" points="0,-256.5 110,-256.5 "/>
<text text-anchor="middle" x="55" y="-244.5" font-family="Helvetica,sans-Serif" font-size="10.00" fill="#000000"> </text>
</a>
</g>
</g>
<!-- Node3&#45;&gt;Node2 -->
<g id="edge1" class="edge">
<title>Node3&#45;&gt;Node2</title>
<path fill="none" stroke="#191970" d="M76.2909,-228.4665C82.8784,-216.8536 90.4559,-203.4953 98.2159,-189.8152"/>
<polygon fill="none" stroke="#191970" points="73.1253,-226.9535 71.2356,-237.3784 79.214,-230.4073 73.1253,-226.9535"/>
</g>
<!-- Node4 -->
<g id="node3" class="node">
<title>Node4</title>
<polygon fill="none" stroke="#bfbfbf" points="128.5,-237.5 128.5,-294.5 175.5,-294.5 175.5,-237.5 128.5,-237.5"/>
<text text-anchor="middle" x="152" y="-282.5" font-family="Helvetica,sans-Serif" font-size="10.00" fill="#000000">Pythia</text>
<polyline fill="none" stroke="#bfbfbf" points="128.5,-275.5 175.5,-275.5 "/>
<text text-anchor="middle" x="152" y="-263.5" font-family="Helvetica,sans-Serif" font-size="10.00" fill="#000000"> </text>
<polyline fill="none" stroke="#bfbfbf" points="128.5,-256.5 175.5,-256.5 "/>
<text text-anchor="middle" x="152" y="-244.5" font-family="Helvetica,sans-Serif" font-size="10.00" fill="#000000"> </text>
</g>
<!-- Node4&#45;&gt;Node2 -->
<g id="edge2" class="edge">
<title>Node4&#45;&gt;Node2</title>
<path fill="none" stroke="#404040" d="M152,-237.3784C152,-227.1146 152,-214.8493 152,-201.8829"/>
<polygon fill="none" stroke="#404040" points="152.0001,-201.8152 148,-195.8152 152,-189.8152 156,-195.8152 152.0001,-201.8152"/>
<text text-anchor="middle" x="178" y="-211" font-family="Helvetica,sans-Serif" font-size="10.00" fill="#000000"> #mPythia</text>
</g>
<!-- Node5 -->
<g id="node4" class="node">
<title>Node5</title>
<polygon fill="none" stroke="#bfbfbf" points="208,-237.5 208,-294.5 246,-294.5 246,-237.5 208,-237.5"/>
<text text-anchor="middle" x="227" y="-282.5" font-family="Helvetica,sans-Serif" font-size="10.00" fill="#000000">bool</text>
<polyline fill="none" stroke="#bfbfbf" points="208,-275.5 246,-275.5 "/>
<text text-anchor="middle" x="227" y="-263.5" font-family="Helvetica,sans-Serif" font-size="10.00" fill="#000000"> </text>
<polyline fill="none" stroke="#bfbfbf" points="208,-256.5 246,-256.5 "/>
<text text-anchor="middle" x="227" y="-244.5" font-family="Helvetica,sans-Serif" font-size="10.00" fill="#000000"> </text>
</g>
<!-- Node5&#45;&gt;Node2 -->
<g id="edge3" class="edge">
<title>Node5&#45;&gt;Node2</title>
<path fill="none" stroke="#404040" d="M216.574,-237.2125C213.0475,-227.8373 208.9894,-217.4212 205,-208 204.0099,-205.6617 202.9993,-203.3007 201.9723,-200.9239"/>
<polygon fill="none" stroke="#404040" points="201.8759,-200.7039 195.8044,-196.8133 197.0606,-189.7124 203.1321,-193.603 201.8759,-200.7039"/>
<text text-anchor="middle" x="239.5" y="-211" font-family="Helvetica,sans-Serif" font-size="10.00" fill="#000000"> #mVerbose</text>
</g>
</g>
</svg>
