<?xml version="1.0" encoding="UTF-8" standalone="no"?>
<!DOCTYPE svg PUBLIC "-//W3C//DTD SVG 1.1//EN"
 "http://www.w3.org/Graphics/SVG/1.1/DTD/svg11.dtd">
<!-- Generated by graphviz version 2.40.1 (20161225.0304)
 -->
<!-- Title: o2::itsmft::Clusterer::ThreadStat Pages: 1 -->
<svg width="148pt" height="215pt"
 viewBox="0.00 0.00 148.00 215.00" xmlns="http://www.w3.org/2000/svg" xmlns:xlink="http://www.w3.org/1999/xlink">
<g id="graph0" class="graph" transform="scale(1 1) rotate(0) translate(4 211)">
<title>o2::itsmft::Clusterer::ThreadStat</title>
<!-- Node1 -->
<g id="node1" class="node">
<title>Node1</title>
<polygon fill="#bfbfbf" stroke="#000000" points="8,-.5 8,-68.5 122,-68.5 122,-.5 8,-.5"/>
<text text-anchor="start" x="16" y="-56.5" font-family="Helvetica,sans-Serif" font-size="10.00" fill="#000000">o2::itsmft::Clusterer</text>
<text text-anchor="middle" x="65" y="-45.5" font-family="Helvetica,sans-Serif" font-size="10.00" fill="#000000">::ThreadStat</text>
<polyline fill="none" stroke="#000000" points="8,-38.5 122,-38.5 "/>
<text text-anchor="middle" x="65" y="-26.5" font-family="Helvetica,sans-Serif" font-size="10.00" fill="#000000"> </text>
<polyline fill="none" stroke="#000000" points="8,-19.5 122,-19.5 "/>
<text text-anchor="start" x="16" y="-7.5" font-family="Helvetica,sans-Serif" font-size="10.00" fill="#000000">+ ThreadStat()</text>
</g>
<!-- Node2 -->
<g id="node2" class="node">
<title>Node2</title>
<polygon fill="none" stroke="#bfbfbf" points="0,-149.5 0,-206.5 56,-206.5 56,-149.5 0,-149.5"/>
<text text-anchor="middle" x="28" y="-194.5" font-family="Helvetica,sans-Serif" font-size="10.00" fill="#000000">uint16_t</text>
<polyline fill="none" stroke="#bfbfbf" points="0,-187.5 56,-187.5 "/>
<text text-anchor="middle" x="28" y="-175.5" font-family="Helvetica,sans-Serif" font-size="10.00" fill="#000000"> </text>
<polyline fill="none" stroke="#bfbfbf" points="0,-168.5 56,-168.5 "/>
<text text-anchor="middle" x="28" y="-156.5" font-family="Helvetica,sans-Serif" font-size="10.00" fill="#000000"> </text>
</g>
<!-- Node2&#45;&gt;Node1 -->
<g id="edge1" class="edge">
<title>Node2&#45;&gt;Node1</title>
<path fill="none" stroke="#404040" d="M24.119,-149.4515C22.6466,-131.1742 22.6215,-107.1877 29,-87 29.8116,-84.4313 30.795,-81.8759 31.9101,-79.3544"/>
<polygon fill="none" stroke="#404040" points="31.9774,-79.225 31.2001,-72.0559 37.5188,-68.581 38.2961,-75.7502 31.9774,-79.225"/>
<text text-anchor="middle" x="55" y="-112" font-family="Helvetica,sans-Serif" font-size="10.00" fill="#000000"> +firstChip</text>
<text text-anchor="middle" x="55" y="-101" font-family="Helvetica,sans-Serif" font-size="10.00" fill="#000000">+nChips</text>
</g>
<!-- Node3 -->
<g id="node3" class="node">
<title>Node3</title>
<g id="a_node3"><a xlink:href="../../d3/d87/classuint32__t.html" target="_top" xlink:title="{uint32_t\n||}">
<polygon fill="none" stroke="#000000" points="75,-149.5 75,-206.5 131,-206.5 131,-149.5 75,-149.5"/>
<text text-anchor="middle" x="103" y="-194.5" font-family="Helvetica,sans-Serif" font-size="10.00" fill="#000000">uint32_t</text>
<polyline fill="none" stroke="#000000" points="75,-187.5 131,-187.5 "/>
<text text-anchor="middle" x="103" y="-175.5" font-family="Helvetica,sans-Serif" font-size="10.00" fill="#000000"> </text>
<polyline fill="none" stroke="#000000" points="75,-168.5 131,-168.5 "/>
<text text-anchor="middle" x="103" y="-156.5" font-family="Helvetica,sans-Serif" font-size="10.00" fill="#000000"> </text>
</a>
</g>
</g>
<!-- Node3&#45;&gt;Node1 -->
<g id="edge2" class="edge">
<title>Node3&#45;&gt;Node1</title>
<path fill="none" stroke="#404040" d="M96.4927,-149.2002C92.3231,-131.2448 86.6506,-107.6975 81,-87 80.3883,-84.7594 79.748,-82.4696 79.0902,-80.1601"/>
<polygon fill="none" stroke="#404040" points="79.074,-80.1046 73.5505,-75.4688 75.7053,-68.5872 81.2288,-73.223 79.074,-80.1046"/>
<text text-anchor="middle" x="115.5" y="-123" font-family="Helvetica,sans-Serif" font-size="10.00" fill="#000000"> +firstPatt</text>
<text text-anchor="middle" x="115.5" y="-112" font-family="Helvetica,sans-Serif" font-size="10.00" fill="#000000">+nClus</text>
<text text-anchor="middle" x="115.5" y="-101" font-family="Helvetica,sans-Serif" font-size="10.00" fill="#000000">+firstClus</text>
<text text-anchor="middle" x="115.5" y="-90" font-family="Helvetica,sans-Serif" font-size="10.00" fill="#000000">+nPatt</text>
</g>
</g>
</svg>
