<?xml version="1.0" encoding="UTF-8" standalone="no"?>
<!DOCTYPE svg PUBLIC "-//W3C//DTD SVG 1.1//EN"
 "http://www.w3.org/Graphics/SVG/1.1/DTD/svg11.dtd">
<!-- Generated by graphviz version 2.40.1 (20161225.0304)
 -->
<!-- Title: /home/travis/build/AliceO2Group/AliceO2/Analysis/DataModel/include/Analysis/ReducedInfoTables.h Pages: 1 -->
<svg width="2734pt" height="397pt"
 viewBox="0.00 0.00 2733.50 397.00" xmlns="http://www.w3.org/2000/svg" xmlns:xlink="http://www.w3.org/1999/xlink">
<g id="graph0" class="graph" transform="scale(1 1) rotate(0) translate(4 393)">
<title>/home/travis/build/AliceO2Group/AliceO2/Analysis/DataModel/include/Analysis/ReducedInfoTables.h</title>
<!-- Node0 -->
<g id="node1" class="node">
<title>Node0</title>
<polygon fill="#bfbfbf" stroke="#000000" points="2032.5,-336.5 2032.5,-388.5 2196.5,-388.5 2196.5,-336.5 2032.5,-336.5"/>
<text text-anchor="start" x="2040.5" y="-376.5" font-family="Helvetica,sans-Serif" font-size="10.00" fill="#000000">/home/travis/build</text>
<text text-anchor="start" x="2040.5" y="-365.5" font-family="Helvetica,sans-Serif" font-size="10.00" fill="#000000">/AliceO2Group/AliceO2</text>
<text text-anchor="start" x="2040.5" y="-354.5" font-family="Helvetica,sans-Serif" font-size="10.00" fill="#000000">/Analysis/DataModel/include</text>
<text text-anchor="middle" x="2114.5" y="-343.5" font-family="Helvetica,sans-Serif" font-size="10.00" fill="#000000">/Analysis/ReducedInfoTables.h</text>
</g>
<!-- Node1 -->
<g id="node2" class="node">
<title>Node1</title>
<g id="a_node2"><a xlink:href="../../d2/d8c/AnalysisDataModel_8h.html" target="_top" xlink:title="Framework/AnalysisDataModel.h">
<polygon fill="none" stroke="#000000" points="1953.5,-224.5 1953.5,-243.5 2129.5,-243.5 2129.5,-224.5 1953.5,-224.5"/>
<text text-anchor="middle" x="2041.5" y="-231.5" font-family="Helvetica,sans-Serif" font-size="10.00" fill="#000000">Framework/AnalysisDataModel.h</text>
</a>
</g>
</g>
<!-- Node0&#45;&gt;Node1 -->
<g id="edge1" class="edge">
<title>Node0&#45;&gt;Node1</title>
<path fill="none" stroke="#191970" d="M2043.1138,-336.3685C2027.7471,-327.2802 2013.4488,-315.3769 2004.5,-300 1994.8343,-283.3912 2008.2976,-264.2123 2021.6124,-250.8242"/>
<polygon fill="#191970" stroke="#191970" points="2024.3453,-253.0604 2029.2588,-243.6738 2019.5642,-247.9476 2024.3453,-253.0604"/>
</g>
<!-- Node34 -->
<g id="node35" class="node">
<title>Node34</title>
<g id="a_node35"><a xlink:href="../../d9/d52/Common_2MathUtils_2include_2MathUtils_2Utils_8h.html" target="_top" xlink:title="MathUtils/Utils.h">
<polygon fill="none" stroke="#000000" points="2413.5,-168.5 2413.5,-187.5 2511.5,-187.5 2511.5,-168.5 2413.5,-168.5"/>
<text text-anchor="middle" x="2462.5" y="-175.5" font-family="Helvetica,sans-Serif" font-size="10.00" fill="#000000">MathUtils/Utils.h</text>
</a>
</g>
</g>
<!-- Node0&#45;&gt;Node34 -->
<g id="edge57" class="edge">
<title>Node0&#45;&gt;Node34</title>
<path fill="none" stroke="#191970" d="M2163.6218,-336.457C2237.9843,-297.032 2376.6627,-223.5085 2435.2537,-192.4452"/>
<polygon fill="#191970" stroke="#191970" points="2437.0739,-195.4418 2444.2695,-187.6653 2433.7949,-189.2572 2437.0739,-195.4418"/>
</g>
<!-- Node36 -->
<g id="node37" class="node">
<title>Node36</title>
<polygon fill="none" stroke="#bfbfbf" points="2278,-56.5 2278,-75.5 2325,-75.5 2325,-56.5 2278,-56.5"/>
<text text-anchor="middle" x="2301.5" y="-63.5" font-family="Helvetica,sans-Serif" font-size="10.00" fill="#000000">cmath</text>
</g>
<!-- Node0&#45;&gt;Node36 -->
<g id="edge58" class="edge">
<title>Node0&#45;&gt;Node36</title>
<path fill="none" stroke="#191970" d="M2143.2856,-336.4286C2166.5674,-312.3669 2195.5,-274.3481 2195.5,-234 2195.5,-234 2195.5,-234 2195.5,-178 2195.5,-132.9213 2241.3565,-98.6897 2272.7472,-80.5376"/>
<polygon fill="#191970" stroke="#191970" points="2274.5226,-83.5552 2281.5622,-75.6372 2271.1214,-77.437 2274.5226,-83.5552"/>
</g>
<!-- Node44 -->
<g id="node45" class="node">
<title>Node44</title>
<g id="a_node45"><a xlink:href="../../db/d48/Centrality_8h.html" target="_top" xlink:title="Analysis/Centrality.h">
<polygon fill="none" stroke="#000000" points="2013.5,-280.5 2013.5,-299.5 2129.5,-299.5 2129.5,-280.5 2013.5,-280.5"/>
<text text-anchor="middle" x="2071.5" y="-287.5" font-family="Helvetica,sans-Serif" font-size="10.00" fill="#000000">Analysis/Centrality.h</text>
</a>
</g>
</g>
<!-- Node0&#45;&gt;Node44 -->
<g id="edge55" class="edge">
<title>Node0&#45;&gt;Node44</title>
<path fill="none" stroke="#191970" d="M2098.976,-336.3258C2093.4528,-327.0135 2087.3581,-316.7375 2082.315,-308.2347"/>
<polygon fill="#191970" stroke="#191970" points="2085.2663,-306.3495 2077.1546,-299.534 2079.2456,-309.9205 2085.2663,-306.3495"/>
</g>
<!-- Node2 -->
<g id="node3" class="node">
<title>Node2</title>
<g id="a_node3"><a xlink:href="../../de/d33/ASoA_8h.html" target="_top" xlink:title="Framework/ASoA.h">
<polygon fill="none" stroke="#000000" points="1351.5,-168.5 1351.5,-187.5 1459.5,-187.5 1459.5,-168.5 1351.5,-168.5"/>
<text text-anchor="middle" x="1405.5" y="-175.5" font-family="Helvetica,sans-Serif" font-size="10.00" fill="#000000">Framework/ASoA.h</text>
</a>
</g>
</g>
<!-- Node1&#45;&gt;Node2 -->
<g id="edge2" class="edge">
<title>Node1&#45;&gt;Node2</title>
<path fill="none" stroke="#191970" d="M1953.401,-226.2429C1823.629,-214.8164 1584.122,-193.7277 1469.667,-183.6499"/>
<polygon fill="#191970" stroke="#191970" points="1469.9205,-180.1588 1459.6521,-182.7681 1469.3065,-187.1318 1469.9205,-180.1588"/>
</g>
<!-- Node1&#45;&gt;Node34 -->
<g id="edge42" class="edge">
<title>Node1&#45;&gt;Node34</title>
<path fill="none" stroke="#191970" d="M2125.2693,-224.4612C2196.5633,-216.0946 2301.9471,-203.1435 2403.3606,-188.1185"/>
<polygon fill="#191970" stroke="#191970" points="2404.1024,-191.5467 2413.4771,-186.6107 2403.0704,-184.6232 2404.1024,-191.5467"/>
</g>
<!-- Node1&#45;&gt;Node36 -->
<g id="edge53" class="edge">
<title>Node1&#45;&gt;Node36</title>
<path fill="none" stroke="#191970" d="M2056.2237,-224.4862C2099.2932,-196.6567 2225.3105,-115.2301 2277.9595,-81.2108"/>
<polygon fill="#191970" stroke="#191970" points="2280.1159,-83.9846 2286.6155,-75.6177 2276.3168,-78.1051 2280.1159,-83.9846"/>
</g>
<!-- Node43 -->
<g id="node44" class="node">
<title>Node43</title>
<g id="a_node44"><a xlink:href="../../d2/d12/DataTypes_8h.html" target="_top" xlink:title="Framework/DataTypes.h">
<polygon fill="none" stroke="#000000" points="2261.5,-168.5 2261.5,-187.5 2395.5,-187.5 2395.5,-168.5 2261.5,-168.5"/>
<text text-anchor="middle" x="2328.5" y="-175.5" font-family="Helvetica,sans-Serif" font-size="10.00" fill="#000000">Framework/DataTypes.h</text>
</a>
</g>
</g>
<!-- Node1&#45;&gt;Node43 -->
<g id="edge54" class="edge">
<title>Node1&#45;&gt;Node43</title>
<path fill="none" stroke="#191970" d="M2090.511,-224.4369C2140.1447,-214.7522 2216.9273,-199.7703 2269.7834,-189.4569"/>
<polygon fill="#191970" stroke="#191970" points="2270.5466,-192.8741 2279.6912,-187.5237 2269.206,-186.0036 2270.5466,-192.8741"/>
</g>
<!-- Node3 -->
<g id="node4" class="node">
<title>Node3</title>
<g id="a_node4"><a xlink:href="../../dd/dce/Pack_8h.html" target="_top" xlink:title="Framework/Pack.h">
<polygon fill="none" stroke="#000000" points="41,-56.5 41,-75.5 146,-75.5 146,-56.5 41,-56.5"/>
<text text-anchor="middle" x="93.5" y="-63.5" font-family="Helvetica,sans-Serif" font-size="10.00" fill="#000000">Framework/Pack.h</text>
</a>
</g>
</g>
<!-- Node2&#45;&gt;Node3 -->
<g id="edge3" class="edge">
<title>Node2&#45;&gt;Node3</title>
<path fill="none" stroke="#191970" d="M1351.4673,-177.8349C1112.7197,-176.8828 162.0134,-170.6684 112.5,-132 98.721,-121.239 94.4931,-101.1537 93.3955,-85.9553"/>
<polygon fill="#191970" stroke="#191970" points="96.8797,-85.4033 93.0601,-75.5209 89.8833,-85.6282 96.8797,-85.4033"/>
</g>
<!-- Node7 -->
<g id="node8" class="node">
<title>Node7</title>
<g id="a_node8"><a xlink:href="../../d1/d00/CheckTypes_8h.html" target="_top" xlink:title="Framework/CheckTypes.h">
<polygon fill="none" stroke="#000000" points="247.5,-56.5 247.5,-75.5 387.5,-75.5 387.5,-56.5 247.5,-56.5"/>
<text text-anchor="middle" x="317.5" y="-63.5" font-family="Helvetica,sans-Serif" font-size="10.00" fill="#000000">Framework/CheckTypes.h</text>
</a>
</g>
</g>
<!-- Node2&#45;&gt;Node7 -->
<g id="edge7" class="edge">
<title>Node2&#45;&gt;Node7</title>
<path fill="none" stroke="#191970" d="M1351.1881,-176.809C1229.5738,-173.6554 926.2745,-163.0812 674.5,-132 565.2421,-118.5122 438.8912,-92.7068 369.6294,-77.67"/>
<polygon fill="#191970" stroke="#191970" points="370.3499,-74.2449 359.8335,-75.5323 368.8574,-81.0839 370.3499,-74.2449"/>
</g>
<!-- Node8 -->
<g id="node9" class="node">
<title>Node8</title>
<g id="a_node9"><a xlink:href="../../de/d9b/FunctionalHelpers_8h.html" target="_top" xlink:title="Framework/FunctionalHelpers.h">
<polygon fill="none" stroke="#000000" points="121.5,-112.5 121.5,-131.5 291.5,-131.5 291.5,-112.5 121.5,-112.5"/>
<text text-anchor="middle" x="206.5" y="-119.5" font-family="Helvetica,sans-Serif" font-size="10.00" fill="#000000">Framework/FunctionalHelpers.h</text>
</a>
</g>
</g>
<!-- Node2&#45;&gt;Node8 -->
<g id="edge8" class="edge">
<title>Node2&#45;&gt;Node8</title>
<path fill="none" stroke="#191970" d="M1351.352,-175.6654C1200.2643,-169.1224 761.2384,-149.9123 396.5,-132 365.6731,-130.4861 332.0378,-128.7451 301.751,-127.1445"/>
<polygon fill="#191970" stroke="#191970" points="301.7882,-123.6417 291.617,-126.6076 301.4178,-130.6319 301.7882,-123.6417"/>
</g>
<!-- Node10 -->
<g id="node11" class="node">
<title>Node10</title>
<g id="a_node11"><a xlink:href="../../d9/de8/CompilerBuiltins_8h.html" target="_top" xlink:title="Framework/CompilerBuiltins.h">
<polygon fill="none" stroke="#000000" points="405.5,-56.5 405.5,-75.5 569.5,-75.5 569.5,-56.5 405.5,-56.5"/>
<text text-anchor="middle" x="487.5" y="-63.5" font-family="Helvetica,sans-Serif" font-size="10.00" fill="#000000">Framework/CompilerBuiltins.h</text>
</a>
</g>
</g>
<!-- Node2&#45;&gt;Node10 -->
<g id="edge11" class="edge">
<title>Node2&#45;&gt;Node10</title>
<path fill="none" stroke="#191970" d="M1351.3073,-176.5994C1243.1842,-173.2282 993.1993,-162.5431 785.5,-132 694.9945,-118.6908 591.0379,-93.318 532.9295,-78.2044"/>
<polygon fill="#191970" stroke="#191970" points="533.5319,-74.7442 522.9715,-75.5979 531.7593,-81.5161 533.5319,-74.7442"/>
</g>
<!-- Node11 -->
<g id="node12" class="node">
<title>Node11</title>
<g id="a_node12"><a xlink:href="../../db/d31/Traits_8h.html" target="_top" xlink:title="Framework/Traits.h">
<polygon fill="none" stroke="#000000" points="1453,-112.5 1453,-131.5 1562,-131.5 1562,-112.5 1453,-112.5"/>
<text text-anchor="middle" x="1507.5" y="-119.5" font-family="Helvetica,sans-Serif" font-size="10.00" fill="#000000">Framework/Traits.h</text>
</a>
</g>
</g>
<!-- Node2&#45;&gt;Node11 -->
<g id="edge12" class="edge">
<title>Node2&#45;&gt;Node11</title>
<path fill="none" stroke="#191970" d="M1423.267,-168.2455C1439.2095,-159.4928 1462.8259,-146.527 1480.9989,-136.5496"/>
<polygon fill="#191970" stroke="#191970" points="1482.8552,-139.5233 1489.9366,-131.6427 1479.4863,-133.3873 1482.8552,-139.5233"/>
</g>
<!-- Node13 -->
<g id="node14" class="node">
<title>Node13</title>
<g id="a_node14"><a xlink:href="../../d0/d91/Expressions_8h.html" target="_top" xlink:title="Framework/Expressions.h">
<polygon fill="none" stroke="#000000" points="1179,-112.5 1179,-131.5 1320,-131.5 1320,-112.5 1179,-112.5"/>
<text text-anchor="middle" x="1249.5" y="-119.5" font-family="Helvetica,sans-Serif" font-size="10.00" fill="#000000">Framework/Expressions.h</text>
</a>
</g>
</g>
<!-- Node2&#45;&gt;Node13 -->
<g id="edge14" class="edge">
<title>Node2&#45;&gt;Node13</title>
<path fill="none" stroke="#191970" d="M1378.6826,-168.3733C1352.9668,-159.1419 1313.962,-145.1402 1285.5401,-134.9375"/>
<polygon fill="#191970" stroke="#191970" points="1286.5619,-131.5857 1275.9674,-131.5011 1284.1968,-138.174 1286.5619,-131.5857"/>
</g>
<!-- Node19 -->
<g id="node20" class="node">
<title>Node19</title>
<polygon fill="none" stroke="#bfbfbf" points="1782,-56.5 1782,-75.5 1863,-75.5 1863,-56.5 1782,-56.5"/>
<text text-anchor="middle" x="1822.5" y="-63.5" font-family="Helvetica,sans-Serif" font-size="10.00" fill="#000000">arrow/table.h</text>
</g>
<!-- Node2&#45;&gt;Node19 -->
<g id="edge34" class="edge">
<title>Node2&#45;&gt;Node19</title>
<path fill="none" stroke="#191970" d="M1393.8915,-168.0401C1379.0791,-154.165 1357.1153,-128.8315 1372.5,-112 1401.0777,-80.7348 1696.0156,-82.141 1771.7121,-75.62"/>
<polygon fill="#191970" stroke="#191970" points="1772.3467,-79.0714 1781.9042,-74.4992 1771.5815,-72.1134 1772.3467,-79.0714"/>
</g>
<!-- Node20 -->
<g id="node21" class="node">
<title>Node20</title>
<polygon fill="none" stroke="#bfbfbf" points="1881,-56.5 1881,-75.5 2028,-75.5 2028,-56.5 1881,-56.5"/>
<text text-anchor="middle" x="1954.5" y="-63.5" font-family="Helvetica,sans-Serif" font-size="10.00" fill="#000000">gandiva/selection_vector.h</text>
</g>
<!-- Node2&#45;&gt;Node20 -->
<g id="edge39" class="edge">
<title>Node2&#45;&gt;Node20</title>
<path fill="none" stroke="#191970" d="M1402.8091,-168.3552C1399.4332,-153.918 1395.7288,-126.8055 1410.5,-112 1445.1576,-77.2619 1787.4893,-80.6691 1870.7773,-75.7957"/>
<polygon fill="#191970" stroke="#191970" points="1871.041,-79.2858 1880.7514,-75.0482 1870.5178,-72.3054 1871.041,-79.2858"/>
</g>
<!-- Node24 -->
<g id="node25" class="node">
<title>Node24</title>
<polygon fill="none" stroke="#bfbfbf" points="2046,-56.5 2046,-75.5 2125,-75.5 2125,-56.5 2046,-56.5"/>
<text text-anchor="middle" x="2085.5" y="-63.5" font-family="Helvetica,sans-Serif" font-size="10.00" fill="#000000">fmt/format.h</text>
</g>
<!-- Node2&#45;&gt;Node24 -->
<g id="edge41" class="edge">
<title>Node2&#45;&gt;Node24</title>
<path fill="none" stroke="#191970" d="M1407.9187,-168.3143C1412.2351,-153.301 1422.8172,-124.8095 1443.5,-112 1497.4817,-78.5674 1935.7474,-84.1202 2035.5189,-75.6753"/>
<polygon fill="#191970" stroke="#191970" points="2036.1532,-79.128 2045.7331,-74.603 2035.4223,-72.1663 2036.1532,-79.128"/>
</g>
<!-- Node28 -->
<g id="node29" class="node">
<title>Node28</title>
<g id="a_node29"><a xlink:href="../../d4/de7/ArrowTypes_8h.html" target="_top" xlink:title="Framework/ArrowTypes.h">
<polygon fill="none" stroke="#000000" points="795,-112.5 795,-131.5 934,-131.5 934,-112.5 795,-112.5"/>
<text text-anchor="middle" x="864.5" y="-119.5" font-family="Helvetica,sans-Serif" font-size="10.00" fill="#000000">Framework/ArrowTypes.h</text>
</a>
</g>
</g>
<!-- Node2&#45;&gt;Node28 -->
<g id="edge32" class="edge">
<title>Node2&#45;&gt;Node28</title>
<path fill="none" stroke="#191970" d="M1351.3997,-172.4C1255.6417,-162.4879 1055.91,-141.8132 944.3079,-130.2611"/>
<polygon fill="#191970" stroke="#191970" points="944.4265,-126.7547 934.1193,-129.2064 943.7057,-133.7175 944.4265,-126.7547"/>
</g>
<!-- Node29 -->
<g id="node30" class="node">
<title>Node29</title>
<polygon fill="none" stroke="#bfbfbf" points="1580.5,-112.5 1580.5,-131.5 1660.5,-131.5 1660.5,-112.5 1580.5,-112.5"/>
<text text-anchor="middle" x="1620.5" y="-119.5" font-family="Helvetica,sans-Serif" font-size="10.00" fill="#000000">arrow/array.h</text>
</g>
<!-- Node2&#45;&gt;Node29 -->
<g id="edge35" class="edge">
<title>Node2&#45;&gt;Node29</title>
<path fill="none" stroke="#191970" d="M1442.4598,-168.3733C1478.9075,-158.8799 1534.7246,-144.3415 1574.1289,-134.0781"/>
<polygon fill="#191970" stroke="#191970" points="1575.2276,-137.4087 1584.0225,-131.5011 1573.4631,-130.6348 1575.2276,-137.4087"/>
</g>
<!-- Node30 -->
<g id="node31" class="node">
<title>Node30</title>
<polygon fill="none" stroke="#bfbfbf" points="1678.5,-112.5 1678.5,-131.5 1788.5,-131.5 1788.5,-112.5 1678.5,-112.5"/>
<text text-anchor="middle" x="1733.5" y="-119.5" font-family="Helvetica,sans-Serif" font-size="10.00" fill="#000000">arrow/util/variant.h</text>
</g>
<!-- Node2&#45;&gt;Node30 -->
<g id="edge36" class="edge">
<title>Node2&#45;&gt;Node30</title>
<path fill="none" stroke="#191970" d="M1459.6625,-168.7527C1516.9723,-158.9681 1607.4005,-143.5292 1668.5125,-133.0954"/>
<polygon fill="#191970" stroke="#191970" points="1669.1672,-136.5344 1678.4355,-131.4013 1667.9891,-129.6342 1669.1672,-136.5344"/>
</g>
<!-- Node31 -->
<g id="node32" class="node">
<title>Node31</title>
<polygon fill="none" stroke="#bfbfbf" points="1807,-112.5 1807,-131.5 1946,-131.5 1946,-112.5 1807,-112.5"/>
<text text-anchor="middle" x="1876.5" y="-119.5" font-family="Helvetica,sans-Serif" font-size="10.00" fill="#000000">arrow/compute/context.h</text>
</g>
<!-- Node2&#45;&gt;Node31 -->
<g id="edge37" class="edge">
<title>Node2&#45;&gt;Node31</title>
<path fill="none" stroke="#191970" d="M1459.7353,-171.7936C1533.408,-163.3278 1669.5193,-147.5633 1796.4285,-132.1219"/>
<polygon fill="#191970" stroke="#191970" points="1797.2142,-135.5521 1806.7174,-130.8682 1796.3675,-128.6035 1797.2142,-135.5521"/>
</g>
<!-- Node32 -->
<g id="node33" class="node">
<title>Node32</title>
<polygon fill="none" stroke="#bfbfbf" points="1964,-112.5 1964,-131.5 2097,-131.5 2097,-112.5 1964,-112.5"/>
<text text-anchor="middle" x="2030.5" y="-119.5" font-family="Helvetica,sans-Serif" font-size="10.00" fill="#000000">arrow/compute/kernel.h</text>
</g>
<!-- Node2&#45;&gt;Node32 -->
<g id="edge38" class="edge">
<title>Node2&#45;&gt;Node32</title>
<path fill="none" stroke="#191970" d="M1459.7379,-174.3088C1556.6228,-167.5287 1766.047,-152.0289 1953.7399,-132.0359"/>
<polygon fill="#191970" stroke="#191970" points="1954.2232,-135.5042 1963.7932,-130.9584 1953.4772,-128.5441 1954.2232,-135.5042"/>
</g>
<!-- Node33 -->
<g id="node34" class="node">
<title>Node33</title>
<polygon fill="none" stroke="#bfbfbf" points="2115.5,-112.5 2115.5,-131.5 2167.5,-131.5 2167.5,-112.5 2115.5,-112.5"/>
<text text-anchor="middle" x="2141.5" y="-119.5" font-family="Helvetica,sans-Serif" font-size="10.00" fill="#000000">cassert</text>
</g>
<!-- Node2&#45;&gt;Node33 -->
<g id="edge40" class="edge">
<title>Node2&#45;&gt;Node33</title>
<path fill="none" stroke="#191970" d="M1459.7306,-175.8784C1601.63,-170.0963 1981.4532,-153.0743 2105.5,-132 2105.5999,-131.983 2105.7,-131.9659 2105.8001,-131.9486"/>
<polygon fill="#191970" stroke="#191970" points="2106.2306,-135.4348 2115.2948,-129.9494 2104.7882,-128.585 2106.2306,-135.4348"/>
</g>
<!-- Node4 -->
<g id="node5" class="node">
<title>Node4</title>
<polygon fill="none" stroke="#bfbfbf" points="0,-.5 0,-19.5 53,-19.5 53,-.5 0,-.5"/>
<text text-anchor="middle" x="26.5" y="-7.5" font-family="Helvetica,sans-Serif" font-size="10.00" fill="#000000">cstddef</text>
</g>
<!-- Node3&#45;&gt;Node4 -->
<g id="edge4" class="edge">
<title>Node3&#45;&gt;Node4</title>
<path fill="none" stroke="#191970" d="M81.8295,-56.2455C71.9339,-47.9746 57.5373,-35.9416 45.9099,-26.2232"/>
<polygon fill="#191970" stroke="#191970" points="47.9542,-23.3703 38.0368,-19.6427 43.465,-28.7413 47.9542,-23.3703"/>
</g>
<!-- Node5 -->
<g id="node6" class="node">
<title>Node5</title>
<polygon fill="none" stroke="#bfbfbf" points="71,-.5 71,-19.5 116,-19.5 116,-.5 71,-.5"/>
<text text-anchor="middle" x="93.5" y="-7.5" font-family="Helvetica,sans-Serif" font-size="10.00" fill="#000000">utility</text>
</g>
<!-- Node3&#45;&gt;Node5 -->
<g id="edge5" class="edge">
<title>Node3&#45;&gt;Node5</title>
<path fill="none" stroke="#191970" d="M93.5,-56.2455C93.5,-48.9382 93.5,-38.6944 93.5,-29.7046"/>
<polygon fill="#191970" stroke="#191970" points="97.0001,-29.6426 93.5,-19.6427 90.0001,-29.6427 97.0001,-29.6426"/>
</g>
<!-- Node6 -->
<g id="node7" class="node">
<title>Node6</title>
<polygon fill="none" stroke="#bfbfbf" points="134.5,-.5 134.5,-19.5 180.5,-19.5 180.5,-.5 134.5,-.5"/>
<text text-anchor="middle" x="157.5" y="-7.5" font-family="Helvetica,sans-Serif" font-size="10.00" fill="#000000">cstdio</text>
</g>
<!-- Node3&#45;&gt;Node6 -->
<g id="edge6" class="edge">
<title>Node3&#45;&gt;Node6</title>
<path fill="none" stroke="#191970" d="M104.6479,-56.2455C114.0087,-48.0549 127.5858,-36.1749 138.6349,-26.5069"/>
<polygon fill="#191970" stroke="#191970" points="141.2588,-28.8618 146.4798,-19.6427 136.6492,-23.5937 141.2588,-28.8618"/>
</g>
<!-- Node8&#45;&gt;Node3 -->
<g id="edge9" class="edge">
<title>Node8&#45;&gt;Node3</title>
<path fill="none" stroke="#191970" d="M187.0746,-112.3733C169.0979,-103.4644 142.1559,-90.1127 121.791,-80.0203"/>
<polygon fill="#191970" stroke="#191970" points="123.1861,-76.8055 112.6719,-75.5011 120.0778,-83.0776 123.1861,-76.8055"/>
</g>
<!-- Node9 -->
<g id="node10" class="node">
<title>Node9</title>
<polygon fill="none" stroke="#bfbfbf" points="164,-56.5 164,-75.5 229,-75.5 229,-56.5 164,-56.5"/>
<text text-anchor="middle" x="196.5" y="-63.5" font-family="Helvetica,sans-Serif" font-size="10.00" fill="#000000">functional</text>
</g>
<!-- Node8&#45;&gt;Node9 -->
<g id="edge10" class="edge">
<title>Node8&#45;&gt;Node9</title>
<path fill="none" stroke="#191970" d="M204.7581,-112.2455C203.4533,-104.9382 201.624,-94.6944 200.0187,-85.7046"/>
<polygon fill="#191970" stroke="#191970" points="203.4254,-84.8717 198.2219,-75.6427 196.5344,-86.1022 203.4254,-84.8717"/>
</g>
<!-- Node12 -->
<g id="node13" class="node">
<title>Node12</title>
<polygon fill="none" stroke="#bfbfbf" points="2143,-56.5 2143,-75.5 2212,-75.5 2212,-56.5 2143,-56.5"/>
<text text-anchor="middle" x="2177.5" y="-63.5" font-family="Helvetica,sans-Serif" font-size="10.00" fill="#000000">type_traits</text>
</g>
<!-- Node11&#45;&gt;Node12 -->
<g id="edge13" class="edge">
<title>Node11&#45;&gt;Node12</title>
<path fill="none" stroke="#191970" d="M1562.269,-113.1067C1565.3883,-112.7048 1568.4818,-112.3318 1571.5,-112 1817.0112,-85.0127 1884.032,-111.1411 2132.4745,-75.9215"/>
<polygon fill="#191970" stroke="#191970" points="2133.1292,-79.3635 2142.5298,-74.4769 2132.1337,-72.4346 2133.1292,-79.3635"/>
</g>
<!-- Node13&#45;&gt;Node3 -->
<g id="edge17" class="edge">
<title>Node13&#45;&gt;Node3</title>
<path fill="none" stroke="#191970" d="M1178.9273,-119.5307C959.0842,-111.7715 293.5365,-87.7524 156.3172,-75.9847"/>
<polygon fill="#191970" stroke="#191970" points="156.3011,-72.468 146.0187,-75.0219 155.6495,-79.4376 156.3011,-72.468"/>
</g>
<!-- Node13&#45;&gt;Node7 -->
<g id="edge18" class="edge">
<title>Node13&#45;&gt;Node7</title>
<path fill="none" stroke="#191970" d="M1178.8828,-119.9132C1034.3022,-115.2659 693.9464,-102.4049 397.7577,-76.0534"/>
<polygon fill="#191970" stroke="#191970" points="397.9554,-72.5572 387.6828,-75.1503 397.3303,-79.5292 397.9554,-72.5572"/>
</g>
<!-- Node13&#45;&gt;Node10 -->
<g id="edge16" class="edge">
<title>Node13&#45;&gt;Node10</title>
<path fill="none" stroke="#191970" d="M1178.903,-118.1151C1058.3267,-111.2695 804.7228,-95.9576 579.8349,-76.0888"/>
<polygon fill="#191970" stroke="#191970" points="580.0953,-72.5982 569.8248,-75.1997 579.4759,-79.5708 580.0953,-72.5982"/>
</g>
<!-- Node14 -->
<g id="node15" class="node">
<title>Node14</title>
<g id="a_node15"><a xlink:href="../../dd/dc2/BasicOps_8h.html" target="_top" xlink:title="Framework/BasicOps.h">
<polygon fill="none" stroke="#000000" points="707.5,-56.5 707.5,-75.5 835.5,-75.5 835.5,-56.5 707.5,-56.5"/>
<text text-anchor="middle" x="771.5" y="-63.5" font-family="Helvetica,sans-Serif" font-size="10.00" fill="#000000">Framework/BasicOps.h</text>
</a>
</g>
</g>
<!-- Node13&#45;&gt;Node14 -->
<g id="edge15" class="edge">
<title>Node13&#45;&gt;Node14</title>
<path fill="none" stroke="#191970" d="M1178.8396,-114.4733C1100.1046,-105.9737 968.7386,-91.4574 845.5705,-76.112"/>
<polygon fill="#191970" stroke="#191970" points="845.9401,-72.631 835.5831,-74.8635 845.0718,-79.577 845.9401,-72.631"/>
</g>
<!-- Node15 -->
<g id="node16" class="node">
<title>Node15</title>
<polygon fill="none" stroke="#bfbfbf" points="588,-56.5 588,-75.5 689,-75.5 689,-56.5 588,-56.5"/>
<text text-anchor="middle" x="638.5" y="-63.5" font-family="Helvetica,sans-Serif" font-size="10.00" fill="#000000">arrow/type_fwd.h</text>
</g>
<!-- Node13&#45;&gt;Node15 -->
<g id="edge19" class="edge">
<title>Node13&#45;&gt;Node15</title>
<path fill="none" stroke="#191970" d="M1178.8556,-117.9586C1075.7828,-111.6502 877.9457,-97.9871 699.3068,-76.0047"/>
<polygon fill="#191970" stroke="#191970" points="699.5515,-72.5083 689.1964,-74.7491 698.6887,-79.455 699.5515,-72.5083"/>
</g>
<!-- Node16 -->
<g id="node17" class="node">
<title>Node16</title>
<polygon fill="none" stroke="#bfbfbf" points="853.5,-56.5 853.5,-75.5 999.5,-75.5 999.5,-56.5 853.5,-56.5"/>
<text text-anchor="middle" x="926.5" y="-63.5" font-family="Helvetica,sans-Serif" font-size="10.00" fill="#000000">gandiva/gandiva_aliases.h</text>
</g>
<!-- Node13&#45;&gt;Node16 -->
<g id="edge20" class="edge">
<title>Node13&#45;&gt;Node16</title>
<path fill="none" stroke="#191970" d="M1194.3413,-112.4369C1138.1333,-102.6918 1050.9888,-87.5832 991.4718,-77.2645"/>
<polygon fill="#191970" stroke="#191970" points="991.8821,-73.7835 981.4312,-75.5237 990.6863,-80.6806 991.8821,-73.7835"/>
</g>
<!-- Node17 -->
<g id="node18" class="node">
<title>Node17</title>
<polygon fill="none" stroke="#bfbfbf" points="1017.5,-56.5 1017.5,-75.5 1095.5,-75.5 1095.5,-56.5 1017.5,-56.5"/>
<text text-anchor="middle" x="1056.5" y="-63.5" font-family="Helvetica,sans-Serif" font-size="10.00" fill="#000000">arrow/type.h</text>
</g>
<!-- Node13&#45;&gt;Node17 -->
<g id="edge21" class="edge">
<title>Node13&#45;&gt;Node17</title>
<path fill="none" stroke="#191970" d="M1216.3221,-112.3733C1183.9513,-102.9807 1134.5602,-88.6496 1099.2576,-78.4064"/>
<polygon fill="#191970" stroke="#191970" points="1099.8242,-74.9264 1089.2449,-75.5011 1097.8735,-81.6492 1099.8242,-74.9264"/>
</g>
<!-- Node18 -->
<g id="node19" class="node">
<title>Node18</title>
<polygon fill="none" stroke="#bfbfbf" points="1114,-56.5 1114,-75.5 1209,-75.5 1209,-56.5 1114,-56.5"/>
<text text-anchor="middle" x="1161.5" y="-63.5" font-family="Helvetica,sans-Serif" font-size="10.00" fill="#000000">gandiva/arrow.h</text>
</g>
<!-- Node13&#45;&gt;Node18 -->
<g id="edge22" class="edge">
<title>Node13&#45;&gt;Node18</title>
<path fill="none" stroke="#191970" d="M1234.1716,-112.2455C1220.6697,-103.6534 1200.7878,-91.0014 1185.2314,-81.1018"/>
<polygon fill="#191970" stroke="#191970" points="1186.9685,-78.0587 1176.6528,-75.6427 1183.2103,-83.9643 1186.9685,-78.0587"/>
</g>
<!-- Node13&#45;&gt;Node19 -->
<g id="edge23" class="edge">
<title>Node13&#45;&gt;Node19</title>
<path fill="none" stroke="#191970" d="M1320.4409,-113.4654C1325.1968,-112.9514 1329.9166,-112.4578 1334.5,-112 1525.6293,-92.9084 1577.3725,-102.8542 1771.931,-75.9216"/>
<polygon fill="#191970" stroke="#191970" points="1772.4894,-79.3777 1781.908,-74.5258 1771.5194,-72.4452 1772.4894,-79.3777"/>
</g>
<!-- Node13&#45;&gt;Node20 -->
<g id="edge24" class="edge">
<title>Node13&#45;&gt;Node20</title>
<path fill="none" stroke="#191970" d="M1320.0634,-116.1522C1337.2205,-114.761 1355.5173,-113.3029 1372.5,-112 1590.9551,-95.2399 1648.4936,-97.2411 1870.7318,-76.0323"/>
<polygon fill="#191970" stroke="#191970" points="1871.1336,-79.5099 1880.7536,-75.0709 1870.4651,-72.5419 1871.1336,-79.5099"/>
</g>
<!-- Node21 -->
<g id="node22" class="node">
<title>Node21</title>
<polygon fill="none" stroke="#bfbfbf" points="1227.5,-56.5 1227.5,-75.5 1319.5,-75.5 1319.5,-56.5 1227.5,-56.5"/>
<text text-anchor="middle" x="1273.5" y="-63.5" font-family="Helvetica,sans-Serif" font-size="10.00" fill="#000000">gandiva/node.h</text>
</g>
<!-- Node13&#45;&gt;Node21 -->
<g id="edge25" class="edge">
<title>Node13&#45;&gt;Node21</title>
<path fill="none" stroke="#191970" d="M1253.6805,-112.2455C1256.881,-104.7776 1261.396,-94.2427 1265.3084,-85.1137"/>
<polygon fill="#191970" stroke="#191970" points="1268.6452,-86.2129 1269.3674,-75.6427 1262.2112,-83.4554 1268.6452,-86.2129"/>
</g>
<!-- Node22 -->
<g id="node23" class="node">
<title>Node22</title>
<polygon fill="none" stroke="#bfbfbf" points="1338,-56.5 1338,-75.5 1427,-75.5 1427,-56.5 1338,-56.5"/>
<text text-anchor="middle" x="1382.5" y="-63.5" font-family="Helvetica,sans-Serif" font-size="10.00" fill="#000000">gandiva/filter.h</text>
</g>
<!-- Node13&#45;&gt;Node22 -->
<g id="edge26" class="edge">
<title>Node13&#45;&gt;Node22</title>
<path fill="none" stroke="#191970" d="M1272.3635,-112.3733C1293.905,-103.3032 1326.3838,-89.6279 1350.4956,-79.4755"/>
<polygon fill="#191970" stroke="#191970" points="1352.0767,-82.6075 1359.9348,-75.5011 1349.3603,-76.156 1352.0767,-82.6075"/>
</g>
<!-- Node23 -->
<g id="node24" class="node">
<title>Node23</title>
<polygon fill="none" stroke="#bfbfbf" points="1445.5,-56.5 1445.5,-75.5 1555.5,-75.5 1555.5,-56.5 1445.5,-56.5"/>
<text text-anchor="middle" x="1500.5" y="-63.5" font-family="Helvetica,sans-Serif" font-size="10.00" fill="#000000">gandiva/projector.h</text>
</g>
<!-- Node13&#45;&gt;Node23 -->
<g id="edge27" class="edge">
<title>Node13&#45;&gt;Node23</title>
<path fill="none" stroke="#191970" d="M1292.3632,-112.4369C1335.4102,-102.8328 1401.8073,-88.0191 1447.991,-77.7152"/>
<polygon fill="#191970" stroke="#191970" points="1448.8157,-81.1173 1457.8135,-75.5237 1447.2913,-74.2853 1448.8157,-81.1173"/>
</g>
<!-- Node13&#45;&gt;Node24 -->
<g id="edge28" class="edge">
<title>Node13&#45;&gt;Node24</title>
<path fill="none" stroke="#191970" d="M1320.0289,-117.5491C1348.1712,-115.7914 1380.8674,-113.7723 1410.5,-112 1685.4248,-95.5569 1758.444,-111.5713 2035.7819,-75.9045"/>
<polygon fill="#191970" stroke="#191970" points="2036.2677,-79.3709 2045.7345,-74.6138 2035.3674,-72.429 2036.2677,-79.3709"/>
</g>
<!-- Node25 -->
<g id="node26" class="node">
<title>Node25</title>
<polygon fill="none" stroke="#bfbfbf" points="1574,-56.5 1574,-75.5 1625,-75.5 1625,-56.5 1574,-56.5"/>
<text text-anchor="middle" x="1599.5" y="-63.5" font-family="Helvetica,sans-Serif" font-size="10.00" fill="#000000">variant</text>
</g>
<!-- Node13&#45;&gt;Node25 -->
<g id="edge29" class="edge">
<title>Node13&#45;&gt;Node25</title>
<path fill="none" stroke="#191970" d="M1320.1841,-112.7948C1393.9306,-103.0037 1505.689,-87.5944 1564.0668,-75.7987"/>
<polygon fill="#191970" stroke="#191970" points="1564.9182,-79.1964 1573.985,-73.7151 1563.479,-72.3459 1564.9182,-79.1964"/>
</g>
<!-- Node26 -->
<g id="node27" class="node">
<title>Node26</title>
<polygon fill="none" stroke="#bfbfbf" points="1643.5,-56.5 1643.5,-75.5 1687.5,-75.5 1687.5,-56.5 1643.5,-56.5"/>
<text text-anchor="middle" x="1665.5" y="-63.5" font-family="Helvetica,sans-Serif" font-size="10.00" fill="#000000">string</text>
</g>
<!-- Node13&#45;&gt;Node26 -->
<g id="edge30" class="edge">
<title>Node13&#45;&gt;Node26</title>
<path fill="none" stroke="#191970" d="M1320.4061,-113.5883C1430.3197,-100.5377 1629.6993,-76.8143 1633.5,-76 1633.5996,-75.9787 1633.6993,-75.9571 1633.7992,-75.9355"/>
<polygon fill="#191970" stroke="#191970" points="1634.4343,-79.3856 1643.2597,-73.5235 1632.705,-72.6025 1634.4343,-79.3856"/>
</g>
<!-- Node27 -->
<g id="node28" class="node">
<title>Node27</title>
<polygon fill="none" stroke="#bfbfbf" points="1705.5,-56.5 1705.5,-75.5 1763.5,-75.5 1763.5,-56.5 1705.5,-56.5"/>
<text text-anchor="middle" x="1734.5" y="-63.5" font-family="Helvetica,sans-Serif" font-size="10.00" fill="#000000">memory</text>
</g>
<!-- Node13&#45;&gt;Node27 -->
<g id="edge31" class="edge">
<title>Node13&#45;&gt;Node27</title>
<path fill="none" stroke="#191970" d="M1320.4504,-113.5562C1325.204,-113.0203 1329.9207,-112.497 1334.5,-112 1491.9421,-94.9115 1535.6002,-104.2601 1694.9791,-76.0386"/>
<polygon fill="#191970" stroke="#191970" points="1695.9189,-79.426 1705.1442,-74.216 1694.6834,-72.5359 1695.9189,-79.426"/>
</g>
<!-- Node28&#45;&gt;Node15 -->
<g id="edge33" class="edge">
<title>Node28&#45;&gt;Node15</title>
<path fill="none" stroke="#191970" d="M825.906,-112.4369C787.4716,-102.9133 728.364,-88.2672 686.829,-77.9753"/>
<polygon fill="#191970" stroke="#191970" points="687.4831,-74.5316 676.9348,-75.5237 685.7994,-81.3261 687.4831,-74.5316"/>
</g>
<!-- Node35 -->
<g id="node36" class="node">
<title>Node35</title>
<polygon fill="none" stroke="#bfbfbf" points="2261.5,-112.5 2261.5,-131.5 2303.5,-131.5 2303.5,-112.5 2261.5,-112.5"/>
<text text-anchor="middle" x="2282.5" y="-119.5" font-family="Helvetica,sans-Serif" font-size="10.00" fill="#000000">array</text>
</g>
<!-- Node34&#45;&gt;Node35 -->
<g id="edge43" class="edge">
<title>Node34&#45;&gt;Node35</title>
<path fill="none" stroke="#191970" d="M2431.5569,-168.3733C2398.49,-158.0858 2346.3803,-141.8739 2313.3494,-131.5976"/>
<polygon fill="#191970" stroke="#191970" points="2314.3415,-128.2408 2303.7531,-128.6121 2312.262,-134.9248 2314.3415,-128.2408"/>
</g>
<!-- Node34&#45;&gt;Node36 -->
<g id="edge44" class="edge">
<title>Node34&#45;&gt;Node36</title>
<path fill="none" stroke="#191970" d="M2426.4854,-168.4219C2403.4366,-161.0649 2373.7873,-149.2141 2351.5,-132 2334.7014,-119.0252 2320.6472,-99.061 2311.7601,-84.4865"/>
<polygon fill="#191970" stroke="#191970" points="2314.7585,-82.6805 2306.6892,-75.8149 2308.7158,-86.2141 2314.7585,-82.6805"/>
</g>
<!-- Node37 -->
<g id="node38" class="node">
<title>Node37</title>
<g id="a_node38"><a xlink:href="../../df/d21/GPUCommonDef_8h.html" target="_top" xlink:title="GPUCommonDef.h">
<polygon fill="none" stroke="#000000" points="2450,-56.5 2450,-75.5 2557,-75.5 2557,-56.5 2450,-56.5"/>
<text text-anchor="middle" x="2503.5" y="-63.5" font-family="Helvetica,sans-Serif" font-size="10.00" fill="#000000">GPUCommonDef.h</text>
</a>
</g>
</g>
<!-- Node34&#45;&gt;Node37 -->
<g id="edge45" class="edge">
<title>Node34&#45;&gt;Node37</title>
<path fill="none" stroke="#191970" d="M2467.7023,-168.3357C2472.4976,-159.1667 2479.5938,-144.9089 2484.5,-132 2490.3247,-116.6745 2495.3736,-98.7718 2498.7998,-85.4816"/>
<polygon fill="#191970" stroke="#191970" points="2502.2501,-86.1106 2501.2775,-75.5605 2495.4587,-84.4145 2502.2501,-86.1106"/>
</g>
<!-- Node40 -->
<g id="node41" class="node">
<title>Node40</title>
<g id="a_node41"><a xlink:href="../../d6/da2/GPUCommonMath_8h.html" target="_top" xlink:title="GPUCommonMath.h">
<polygon fill="none" stroke="#000000" points="2360,-112.5 2360,-131.5 2475,-131.5 2475,-112.5 2360,-112.5"/>
<text text-anchor="middle" x="2417.5" y="-119.5" font-family="Helvetica,sans-Serif" font-size="10.00" fill="#000000">GPUCommonMath.h</text>
</a>
</g>
</g>
<!-- Node34&#45;&gt;Node40 -->
<g id="edge48" class="edge">
<title>Node34&#45;&gt;Node40</title>
<path fill="none" stroke="#191970" d="M2454.6616,-168.2455C2448.338,-160.3761 2439.2776,-149.101 2431.6864,-139.6542"/>
<polygon fill="#191970" stroke="#191970" points="2434.2408,-137.2454 2425.2486,-131.6427 2428.7842,-141.6302 2434.2408,-137.2454"/>
</g>
<!-- Node42 -->
<g id="node43" class="node">
<title>Node42</title>
<g id="a_node43"><a xlink:href="../../d6/d84/MathConstants_8h.html" target="_top" xlink:title="useful math constants ">
<polygon fill="none" stroke="#000000" points="2531.5,-112.5 2531.5,-131.5 2725.5,-131.5 2725.5,-112.5 2531.5,-112.5"/>
<text text-anchor="middle" x="2628.5" y="-119.5" font-family="Helvetica,sans-Serif" font-size="10.00" fill="#000000">CommonConstants/MathConstants.h</text>
</a>
</g>
</g>
<!-- Node34&#45;&gt;Node42 -->
<g id="edge52" class="edge">
<title>Node34&#45;&gt;Node42</title>
<path fill="none" stroke="#191970" d="M2491.0364,-168.3733C2518.5202,-159.1016 2560.2686,-145.0178 2590.5452,-134.804"/>
<polygon fill="#191970" stroke="#191970" points="2591.9794,-138.0141 2600.336,-131.5011 2589.7418,-131.3813 2591.9794,-138.0141"/>
</g>
<!-- Node38 -->
<g id="node39" class="node">
<title>Node38</title>
<g id="a_node39"><a xlink:href="../../d5/d93/GPUCommonDefSettings_8h.html" target="_top" xlink:title="GPUCommonDefSettings.h">
<polygon fill="none" stroke="#000000" points="2352.5,-.5 2352.5,-19.5 2500.5,-19.5 2500.5,-.5 2352.5,-.5"/>
<text text-anchor="middle" x="2426.5" y="-7.5" font-family="Helvetica,sans-Serif" font-size="10.00" fill="#000000">GPUCommonDefSettings.h</text>
</a>
</g>
</g>
<!-- Node37&#45;&gt;Node38 -->
<g id="edge46" class="edge">
<title>Node37&#45;&gt;Node38</title>
<path fill="none" stroke="#191970" d="M2490.0876,-56.2455C2478.4943,-47.814 2461.5252,-35.4729 2448.0322,-25.6598"/>
<polygon fill="#191970" stroke="#191970" points="2449.9047,-22.6938 2439.7587,-19.6427 2445.7874,-28.355 2449.9047,-22.6938"/>
</g>
<!-- Node39 -->
<g id="node40" class="node">
<title>Node39</title>
<g id="a_node40"><a xlink:href="../../da/d5a/GPUCommonDefAPI_8h.html" target="_top" xlink:title="GPUCommonDefAPI.h">
<polygon fill="none" stroke="#000000" points="2518.5,-.5 2518.5,-19.5 2642.5,-19.5 2642.5,-.5 2518.5,-.5"/>
<text text-anchor="middle" x="2580.5" y="-7.5" font-family="Helvetica,sans-Serif" font-size="10.00" fill="#000000">GPUCommonDefAPI.h</text>
</a>
</g>
</g>
<!-- Node37&#45;&gt;Node39 -->
<g id="edge47" class="edge">
<title>Node37&#45;&gt;Node39</title>
<path fill="none" stroke="#191970" d="M2516.9124,-56.2455C2528.5057,-47.814 2545.4748,-35.4729 2558.9678,-25.6598"/>
<polygon fill="#191970" stroke="#191970" points="2561.2126,-28.355 2567.2413,-19.6427 2557.0953,-22.6938 2561.2126,-28.355"/>
</g>
<!-- Node40&#45;&gt;Node36 -->
<g id="edge50" class="edge">
<title>Node40&#45;&gt;Node36</title>
<path fill="none" stroke="#191970" d="M2397.5589,-112.3733C2379.0214,-103.4241 2351.1972,-89.9917 2330.2587,-79.8835"/>
<polygon fill="#191970" stroke="#191970" points="2331.7081,-76.6967 2321.1809,-75.5011 2328.6648,-83.0006 2331.7081,-76.6967"/>
</g>
<!-- Node40&#45;&gt;Node37 -->
<g id="edge49" class="edge">
<title>Node40&#45;&gt;Node37</title>
<path fill="none" stroke="#191970" d="M2432.4801,-112.2455C2445.6751,-103.6534 2465.1051,-91.0014 2480.3079,-81.1018"/>
<polygon fill="#191970" stroke="#191970" points="2482.2215,-84.0325 2488.6916,-75.6427 2478.4017,-78.1665 2482.2215,-84.0325"/>
</g>
<!-- Node41 -->
<g id="node42" class="node">
<title>Node41</title>
<polygon fill="none" stroke="#bfbfbf" points="2367.5,-56.5 2367.5,-75.5 2431.5,-75.5 2431.5,-56.5 2367.5,-56.5"/>
<text text-anchor="middle" x="2399.5" y="-63.5" font-family="Helvetica,sans-Serif" font-size="10.00" fill="#000000">algorithm</text>
</g>
<!-- Node40&#45;&gt;Node41 -->
<g id="edge51" class="edge">
<title>Node40&#45;&gt;Node41</title>
<path fill="none" stroke="#191970" d="M2414.3646,-112.2455C2411.99,-104.8579 2408.6507,-94.4689 2405.7385,-85.4087"/>
<polygon fill="#191970" stroke="#191970" points="2408.9917,-84.0919 2402.5994,-75.6427 2402.3275,-86.234 2408.9917,-84.0919"/>
</g>
<!-- Node44&#45;&gt;Node1 -->
<g id="edge56" class="edge">
<title>Node44&#45;&gt;Node1</title>
<path fill="none" stroke="#191970" d="M2066.2744,-280.2455C2062.1877,-272.617 2056.3865,-261.7881 2051.425,-252.5267"/>
<polygon fill="#191970" stroke="#191970" points="2054.4732,-250.8047 2046.6657,-243.6427 2048.3028,-254.1103 2054.4732,-250.8047"/>
</g>
</g>
</svg>
