<?xml version="1.0" encoding="UTF-8" standalone="no"?>
<!DOCTYPE svg PUBLIC "-//W3C//DTD SVG 1.1//EN"
 "http://www.w3.org/Graphics/SVG/1.1/DTD/svg11.dtd">
<!-- Generated by graphviz version 2.40.1 (20161225.0304)
 -->
<!-- Title: GPUCA_NAMESPACE::gpu::GPUTPCCompressionKernels::GPUSharedMemory Pages: 1 -->
<svg width="638pt" height="430pt"
 viewBox="0.00 0.00 637.50 430.00" xmlns="http://www.w3.org/2000/svg" xmlns:xlink="http://www.w3.org/1999/xlink">
<g id="graph0" class="graph" transform="scale(1 1) rotate(0) translate(4 426)">
<title>GPUCA_NAMESPACE::gpu::GPUTPCCompressionKernels::GPUSharedMemory</title>
<!-- Node3 -->
<g id="node1" class="node">
<title>Node3</title>
<polygon fill="#bfbfbf" stroke="#000000" points="283,-.5 283,-79.5 445,-79.5 445,-.5 283,-.5"/>
<text text-anchor="start" x="291" y="-67.5" font-family="Helvetica,sans-Serif" font-size="10.00" fill="#000000">GPUCA_NAMESPACE::gpu</text>
<text text-anchor="start" x="291" y="-56.5" font-family="Helvetica,sans-Serif" font-size="10.00" fill="#000000">::GPUTPCCompressionKernels</text>
<text text-anchor="middle" x="364" y="-45.5" font-family="Helvetica,sans-Serif" font-size="10.00" fill="#000000">::GPUSharedMemory</text>
<polyline fill="none" stroke="#000000" points="283,-38.5 445,-38.5 "/>
<text text-anchor="middle" x="364" y="-26.5" font-family="Helvetica,sans-Serif" font-size="10.00" fill="#000000"> </text>
<polyline fill="none" stroke="#000000" points="283,-19.5 445,-19.5 "/>
<text text-anchor="middle" x="364" y="-7.5" font-family="Helvetica,sans-Serif" font-size="10.00" fill="#000000"> </text>
</g>
<!-- Node4 -->
<g id="node2" class="node">
<title>Node4</title>
<g id="a_node2"><a xlink:href="../../dd/deb/structGPUCA__NAMESPACE_1_1gpu_1_1GPUKernelTemplate_1_1GPUSharedMemoryScan64.html" target="_top" xlink:title="{GPUCA_NAMESPACE::gpu\l::GPUKernelTemplate::\lGPUSharedMemoryScan64\l\&lt; int, GPUCA_COMPRESSION\l_SCAN_MAX_THREADS \&gt;\n||}">
<polygon fill="none" stroke="#000000" points="0,-171.5 0,-272.5 158,-272.5 158,-171.5 0,-171.5"/>
<text text-anchor="start" x="8" y="-260.5" font-family="Helvetica,sans-Serif" font-size="10.00" fill="#000000">GPUCA_NAMESPACE::gpu</text>
<text text-anchor="start" x="8" y="-249.5" font-family="Helvetica,sans-Serif" font-size="10.00" fill="#000000">::GPUKernelTemplate::</text>
<text text-anchor="start" x="8" y="-238.5" font-family="Helvetica,sans-Serif" font-size="10.00" fill="#000000">GPUSharedMemoryScan64</text>
<text text-anchor="start" x="8" y="-227.5" font-family="Helvetica,sans-Serif" font-size="10.00" fill="#000000">&lt; int, GPUCA_COMPRESSION</text>
<text text-anchor="middle" x="79" y="-216.5" font-family="Helvetica,sans-Serif" font-size="10.00" fill="#000000">_SCAN_MAX_THREADS &gt;</text>
<polyline fill="none" stroke="#000000" points="0,-209.5 158,-209.5 "/>
<text text-anchor="middle" x="79" y="-197.5" font-family="Helvetica,sans-Serif" font-size="10.00" fill="#000000"> </text>
<polyline fill="none" stroke="#000000" points="0,-190.5 158,-190.5 "/>
<text text-anchor="middle" x="79" y="-178.5" font-family="Helvetica,sans-Serif" font-size="10.00" fill="#000000"> </text>
</a>
</g>
</g>
<!-- Node4&#45;&gt;Node3 -->
<g id="edge1" class="edge">
<title>Node4&#45;&gt;Node3</title>
<path fill="none" stroke="#191970" d="M166.6559,-166.0233C210.4601,-138.05 262.4234,-104.8664 302.0302,-79.5737"/>
<polygon fill="none" stroke="#191970" points="164.5542,-163.2125 158.0099,-171.5445 168.3218,-169.1122 164.5542,-163.2125"/>
</g>
<!-- Node5 -->
<g id="node3" class="node">
<title>Node5</title>
<g id="a_node3"><a xlink:href="../../dd/deb/structGPUCA__NAMESPACE_1_1gpu_1_1GPUKernelTemplate_1_1GPUSharedMemoryScan64.html" target="_top" xlink:title="{GPUCA_NAMESPACE::gpu\l::GPUKernelTemplate::\lGPUSharedMemoryScan64\l\&lt; T, I \&gt;\n||}">
<polygon fill="none" stroke="#000000" points="6,-331.5 6,-421.5 152,-421.5 152,-331.5 6,-331.5"/>
<text text-anchor="start" x="14" y="-409.5" font-family="Helvetica,sans-Serif" font-size="10.00" fill="#000000">GPUCA_NAMESPACE::gpu</text>
<text text-anchor="start" x="14" y="-398.5" font-family="Helvetica,sans-Serif" font-size="10.00" fill="#000000">::GPUKernelTemplate::</text>
<text text-anchor="start" x="14" y="-387.5" font-family="Helvetica,sans-Serif" font-size="10.00" fill="#000000">GPUSharedMemoryScan64</text>
<text text-anchor="middle" x="79" y="-376.5" font-family="Helvetica,sans-Serif" font-size="10.00" fill="#000000">&lt; T, I &gt;</text>
<polyline fill="none" stroke="#000000" points="6,-369.5 152,-369.5 "/>
<text text-anchor="middle" x="79" y="-357.5" font-family="Helvetica,sans-Serif" font-size="10.00" fill="#000000"> </text>
<polyline fill="none" stroke="#000000" points="6,-350.5 152,-350.5 "/>
<text text-anchor="middle" x="79" y="-338.5" font-family="Helvetica,sans-Serif" font-size="10.00" fill="#000000"> </text>
</a>
</g>
</g>
<!-- Node5&#45;&gt;Node4 -->
<g id="edge2" class="edge">
<title>Node5&#45;&gt;Node4</title>
<path fill="none" stroke="#ffa500" d="M79,-321.2016C79,-305.3443 79,-288.1413 79,-272.5832"/>
<polygon fill="#ffa500" stroke="#ffa500" points="75.5001,-321.3968 79,-331.3969 82.5001,-321.3969 75.5001,-321.3968"/>
<text text-anchor="start" x="79" y="-305" font-family="Helvetica,sans-Serif" font-size="10.00" fill="#000000"> &lt; int, GPUCA_COMPRESSION</text>
<text text-anchor="middle" x="151.5" y="-294" font-family="Helvetica,sans-Serif" font-size="10.00" fill="#000000">_SCAN_MAX_THREADS &gt;</text>
</g>
<!-- Node6 -->
<g id="node4" class="node">
<title>Node6</title>
<polygon fill="none" stroke="#bfbfbf" points="176.5,-193.5 176.5,-250.5 289.5,-250.5 289.5,-193.5 176.5,-193.5"/>
<text text-anchor="middle" x="233" y="-238.5" font-family="Helvetica,sans-Serif" font-size="10.00" fill="#000000">anonymous:+@248</text>
<polyline fill="none" stroke="#bfbfbf" points="176.5,-231.5 289.5,-231.5 "/>
<text text-anchor="middle" x="233" y="-219.5" font-family="Helvetica,sans-Serif" font-size="10.00" fill="#000000"> </text>
<polyline fill="none" stroke="#bfbfbf" points="176.5,-212.5 289.5,-212.5 "/>
<text text-anchor="middle" x="233" y="-200.5" font-family="Helvetica,sans-Serif" font-size="10.00" fill="#000000"> </text>
</g>
<!-- Node6&#45;&gt;Node3 -->
<g id="edge3" class="edge">
<title>Node6&#45;&gt;Node3</title>
<path fill="none" stroke="#404040" d="M252.7427,-193.2203C270.1844,-167.9502 296.4372,-130.2897 320,-98 322.0256,-95.2242 324.1172,-92.3839 326.2379,-89.524"/>
<polygon fill="none" stroke="#404040" points="326.3267,-89.4051 326.712,-82.2043 333.5071,-79.7904 333.1218,-86.9913 326.3267,-89.4051"/>
<text text-anchor="middle" x="340" y="-123" font-family="Helvetica,sans-Serif" font-size="10.00" fill="#000000"> +@248</text>
</g>
<!-- Node7 -->
<g id="node5" class="node">
<title>Node7</title>
<polygon fill="none" stroke="#bfbfbf" points="308,-193.5 308,-250.5 420,-250.5 420,-193.5 308,-193.5"/>
<text text-anchor="middle" x="364" y="-238.5" font-family="Helvetica,sans-Serif" font-size="10.00" fill="#000000">anonymous:+step2</text>
<polyline fill="none" stroke="#bfbfbf" points="308,-231.5 420,-231.5 "/>
<text text-anchor="middle" x="364" y="-219.5" font-family="Helvetica,sans-Serif" font-size="10.00" fill="#000000"> </text>
<polyline fill="none" stroke="#bfbfbf" points="308,-212.5 420,-212.5 "/>
<text text-anchor="middle" x="364" y="-200.5" font-family="Helvetica,sans-Serif" font-size="10.00" fill="#000000"> </text>
</g>
<!-- Node7&#45;&gt;Node3 -->
<g id="edge4" class="edge">
<title>Node7&#45;&gt;Node3</title>
<path fill="none" stroke="#404040" d="M364,-193.1616C364,-165.9649 364,-124.5787 364,-91.6807"/>
<polygon fill="none" stroke="#404040" points="364.0001,-91.5351 360,-85.5351 364,-79.5351 368,-85.5351 364.0001,-91.5351"/>
<text text-anchor="middle" x="383.5" y="-123" font-family="Helvetica,sans-Serif" font-size="10.00" fill="#000000"> +step2</text>
</g>
<!-- Node8 -->
<g id="node6" class="node">
<title>Node8</title>
<polygon fill="none" stroke="#bfbfbf" points="438,-193.5 438,-250.5 550,-250.5 550,-193.5 438,-193.5"/>
<text text-anchor="middle" x="494" y="-238.5" font-family="Helvetica,sans-Serif" font-size="10.00" fill="#000000">anonymous:+step1</text>
<polyline fill="none" stroke="#bfbfbf" points="438,-231.5 550,-231.5 "/>
<text text-anchor="middle" x="494" y="-219.5" font-family="Helvetica,sans-Serif" font-size="10.00" fill="#000000"> </text>
<polyline fill="none" stroke="#bfbfbf" points="438,-212.5 550,-212.5 "/>
<text text-anchor="middle" x="494" y="-200.5" font-family="Helvetica,sans-Serif" font-size="10.00" fill="#000000"> </text>
</g>
<!-- Node8&#45;&gt;Node3 -->
<g id="edge5" class="edge">
<title>Node8&#45;&gt;Node3</title>
<path fill="none" stroke="#404040" d="M474.169,-193.2845C456.6706,-168.0555 430.3843,-130.4192 407,-98 404.972,-95.1884 402.8803,-92.3074 400.7624,-89.4048"/>
<polygon fill="none" stroke="#404040" points="400.6114,-89.1988 393.8375,-86.726 393.5147,-79.5221 400.2886,-81.9949 400.6114,-89.1988"/>
<text text-anchor="middle" x="464.5" y="-123" font-family="Helvetica,sans-Serif" font-size="10.00" fill="#000000"> +step1</text>
</g>
<!-- Node9 -->
<g id="node7" class="node">
<title>Node9</title>
<polygon fill="none" stroke="#bfbfbf" points="568.5,-193.5 568.5,-250.5 629.5,-250.5 629.5,-193.5 568.5,-193.5"/>
<text text-anchor="middle" x="599" y="-238.5" font-family="Helvetica,sans-Serif" font-size="10.00" fill="#000000">unsigned</text>
<polyline fill="none" stroke="#bfbfbf" points="568.5,-231.5 629.5,-231.5 "/>
<text text-anchor="middle" x="599" y="-219.5" font-family="Helvetica,sans-Serif" font-size="10.00" fill="#000000"> </text>
<polyline fill="none" stroke="#bfbfbf" points="568.5,-212.5 629.5,-212.5 "/>
<text text-anchor="middle" x="599" y="-200.5" font-family="Helvetica,sans-Serif" font-size="10.00" fill="#000000"> </text>
</g>
<!-- Node9&#45;&gt;Node3 -->
<g id="edge6" class="edge">
<title>Node9&#45;&gt;Node3</title>
<path fill="none" stroke="#404040" d="M577.3087,-193.2409C571.5121,-185.8653 565.1465,-178.032 559,-171 529.2144,-136.9234 524.8776,-124.2381 488,-98 478.021,-90.9 467.035,-84.3082 455.8518,-78.3078"/>
<polygon fill="none" stroke="#404040" points="455.7521,-78.2562 448.5847,-79.0496 445.0957,-72.7387 452.2631,-71.9454 455.7521,-78.2562"/>
<text text-anchor="middle" x="574" y="-145" font-family="Helvetica,sans-Serif" font-size="10.00" fill="#000000"> +sizes</text>
<text text-anchor="middle" x="574" y="-134" font-family="Helvetica,sans-Serif" font-size="10.00" fill="#000000">+lastIndex</text>
<text text-anchor="middle" x="574" y="-123" font-family="Helvetica,sans-Serif" font-size="10.00" fill="#000000">+srcOffsets</text>
<text text-anchor="middle" x="574" y="-112" font-family="Helvetica,sans-Serif" font-size="10.00" fill="#000000">+sortBuffer</text>
<text text-anchor="middle" x="574" y="-101" font-family="Helvetica,sans-Serif" font-size="10.00" fill="#000000">+warpOffset</text>
</g>
</g>
</svg>
