<?xml version="1.0" encoding="UTF-8" standalone="no"?>
<!DOCTYPE svg PUBLIC "-//W3C//DTD SVG 1.1//EN"
 "http://www.w3.org/Graphics/SVG/1.1/DTD/svg11.dtd">
<!-- Generated by graphviz version 2.40.1 (20161225.0304)
 -->
<!-- Title: o2::itsmft::CTF Pages: 1 -->
<!--zoomable 1410 -->
<svg id="main" version="1.1" xmlns="http://www.w3.org/2000/svg" xmlns:xlink="http://www.w3.org/1999/xlink" xml:space="preserve" onload="init(evt)">
<style type="text/css"><![CDATA[
.edge:hover path { stroke: red; }
.edge:hover polygon { stroke: red; fill: red; }
]]></style>
<script type="text/javascript"><![CDATA[
var edges = document.getElementsByTagName('g');
if (edges && edges.length) {
  for (var i=0;i<edges.length;i++) {
    if (edges[i].id.substr(0,4)=='edge') {
      edges[i].setAttribute('class','edge');
    }
  }
}
]]></script>
        <defs>
                <circle id="rim" cx="0" cy="0" r="7"/>
                <circle id="rim2" cx="0" cy="0" r="3.5"/>
                <g id="zoomPlus">
                        <use xlink:href="#rim" fill="#404040">
                                <set attributeName="fill" to="#808080" begin="zoomplus.mouseover" end="zoomplus.mouseout"/>
                        </use>
                        <path d="M-4,0h8M0,-4v8" fill="none" stroke="white" stroke-width="1.5" pointer-events="none"/>
                </g>
                <g id="zoomMin">
                        <use xlink:href="#rim" fill="#404040">
                                <set attributeName="fill" to="#808080" begin="zoomminus.mouseover" end="zoomminus.mouseout"/>
                        </use>
                        <path d="M-4,0h8" fill="none" stroke="white" stroke-width="1.5" pointer-events="none"/>
                </g>
                <g id="dirArrow">
                        <path fill="none" stroke="white" stroke-width="1.5" d="M0,-3.0v7 M-2.5,-0.5L0,-3.0L2.5,-0.5"/>
                </g>
               <g id="resetDef">
                       <use xlink:href="#rim2" fill="#404040">
                               <set attributeName="fill" to="#808080" begin="reset.mouseover" end="reset.mouseout"/>
                       </use>
               </g>
        </defs>

<script type="text/javascript">
var viewWidth = 898;
var viewHeight = 1410;
var sectionId = 'dynsection-1';
</script>
<script xlink:href="../../svgpan.js"/>
<svg id="graph" class="graph">
<g id="viewport">
<title>o2::itsmft::CTF</title>
<!-- Node3 -->
<g id="node1" class="node">
<title>Node3</title>
<polygon fill="#bfbfbf" stroke="#000000" points="386.5,-.5 386.5,-57.5 479.5,-57.5 479.5,-.5 386.5,-.5"/>
<text text-anchor="middle" x="433" y="-45.5" font-family="Helvetica,sans-Serif" font-size="10.00" fill="#000000">o2::itsmft::CTF</text>
<polyline fill="none" stroke="#000000" points="386.5,-38.5 479.5,-38.5 "/>
<text text-anchor="middle" x="433" y="-26.5" font-family="Helvetica,sans-Serif" font-size="10.00" fill="#000000"> </text>
<polyline fill="none" stroke="#000000" points="386.5,-19.5 479.5,-19.5 "/>
<text text-anchor="start" x="394.5" y="-7.5" font-family="Helvetica,sans-Serif" font-size="10.00" fill="#000000">+ ClassDefNV()</text>
</g>
<!-- Node4 -->
<g id="node2" class="node">
<title>Node4</title>
<g id="a_node2"><a xlink:href="../../dc/d08/classo2_1_1ctf_1_1EncodedBlocks.html" target="_top" xlink:title="{o2::ctf::EncodedBlocks\l\&lt; CTFHeader, 10, uint32_t \&gt;\n||+ setHeader()\l+ getHeader()\l+ getHeader()\l+ getMetadata()\l+ setANSHeader()\l+ getANSHeader()\l+ getANSHeader()\l+ empty()\l+ flat()\l+ clear()\l+ compactify()\l+ size()\l+ getFreeSize()\l+ copyToFlat()\l+ copyToFlat()\l+ appendToTree()\l+ readFromTree()\l+ encode()\l+ encode()\l+ decode()\l+ decode()\l+ print()\l+ getNBlocks()\l+ getMinAlignedSize()\l+ get()\l+ get()\l+ getImage()\l+ create()\l+ create()\l+ estimateBlockSize()\l+ expand()\l+ readFromTree()\l# init()\l# estimateSize()\l# estimateSizeFromMetadata()\l# fillFlatCopy()\l# ClassDefNV()\l# relocate()\l# fillTreeBranch()\l# readTreeBranch()\l}">
<polygon fill="none" stroke="#000000" points="286.5,-105.5 286.5,-602.5 455.5,-602.5 455.5,-105.5 286.5,-105.5"/>
<text text-anchor="start" x="294.5" y="-590.5" font-family="Helvetica,sans-Serif" font-size="10.00" fill="#000000">o2::ctf::EncodedBlocks</text>
<text text-anchor="middle" x="371" y="-579.5" font-family="Helvetica,sans-Serif" font-size="10.00" fill="#000000">&lt; CTFHeader, 10, uint32_t &gt;</text>
<polyline fill="none" stroke="#000000" points="286.5,-572.5 455.5,-572.5 "/>
<text text-anchor="middle" x="371" y="-560.5" font-family="Helvetica,sans-Serif" font-size="10.00" fill="#000000"> </text>
<polyline fill="none" stroke="#000000" points="286.5,-553.5 455.5,-553.5 "/>
<text text-anchor="start" x="294.5" y="-541.5" font-family="Helvetica,sans-Serif" font-size="10.00" fill="#000000">+ setHeader()</text>
<text text-anchor="start" x="294.5" y="-530.5" font-family="Helvetica,sans-Serif" font-size="10.00" fill="#000000">+ getHeader()</text>
<text text-anchor="start" x="294.5" y="-519.5" font-family="Helvetica,sans-Serif" font-size="10.00" fill="#000000">+ getHeader()</text>
<text text-anchor="start" x="294.5" y="-508.5" font-family="Helvetica,sans-Serif" font-size="10.00" fill="#000000">+ getMetadata()</text>
<text text-anchor="start" x="294.5" y="-497.5" font-family="Helvetica,sans-Serif" font-size="10.00" fill="#000000">+ setANSHeader()</text>
<text text-anchor="start" x="294.5" y="-486.5" font-family="Helvetica,sans-Serif" font-size="10.00" fill="#000000">+ getANSHeader()</text>
<text text-anchor="start" x="294.5" y="-475.5" font-family="Helvetica,sans-Serif" font-size="10.00" fill="#000000">+ getANSHeader()</text>
<text text-anchor="start" x="294.5" y="-464.5" font-family="Helvetica,sans-Serif" font-size="10.00" fill="#000000">+ empty()</text>
<text text-anchor="start" x="294.5" y="-453.5" font-family="Helvetica,sans-Serif" font-size="10.00" fill="#000000">+ flat()</text>
<text text-anchor="start" x="294.5" y="-442.5" font-family="Helvetica,sans-Serif" font-size="10.00" fill="#000000">+ clear()</text>
<text text-anchor="start" x="294.5" y="-431.5" font-family="Helvetica,sans-Serif" font-size="10.00" fill="#000000">+ compactify()</text>
<text text-anchor="start" x="294.5" y="-420.5" font-family="Helvetica,sans-Serif" font-size="10.00" fill="#000000">+ size()</text>
<text text-anchor="start" x="294.5" y="-409.5" font-family="Helvetica,sans-Serif" font-size="10.00" fill="#000000">+ getFreeSize()</text>
<text text-anchor="start" x="294.5" y="-398.5" font-family="Helvetica,sans-Serif" font-size="10.00" fill="#000000">+ copyToFlat()</text>
<text text-anchor="start" x="294.5" y="-387.5" font-family="Helvetica,sans-Serif" font-size="10.00" fill="#000000">+ copyToFlat()</text>
<text text-anchor="start" x="294.5" y="-376.5" font-family="Helvetica,sans-Serif" font-size="10.00" fill="#000000">+ appendToTree()</text>
<text text-anchor="start" x="294.5" y="-365.5" font-family="Helvetica,sans-Serif" font-size="10.00" fill="#000000">+ readFromTree()</text>
<text text-anchor="start" x="294.5" y="-354.5" font-family="Helvetica,sans-Serif" font-size="10.00" fill="#000000">+ encode()</text>
<text text-anchor="start" x="294.5" y="-343.5" font-family="Helvetica,sans-Serif" font-size="10.00" fill="#000000">+ encode()</text>
<text text-anchor="start" x="294.5" y="-332.5" font-family="Helvetica,sans-Serif" font-size="10.00" fill="#000000">+ decode()</text>
<text text-anchor="start" x="294.5" y="-321.5" font-family="Helvetica,sans-Serif" font-size="10.00" fill="#000000">+ decode()</text>
<text text-anchor="start" x="294.5" y="-310.5" font-family="Helvetica,sans-Serif" font-size="10.00" fill="#000000">+ print()</text>
<text text-anchor="start" x="294.5" y="-299.5" font-family="Helvetica,sans-Serif" font-size="10.00" fill="#000000">+ getNBlocks()</text>
<text text-anchor="start" x="294.5" y="-288.5" font-family="Helvetica,sans-Serif" font-size="10.00" fill="#000000">+ getMinAlignedSize()</text>
<text text-anchor="start" x="294.5" y="-277.5" font-family="Helvetica,sans-Serif" font-size="10.00" fill="#000000">+ get()</text>
<text text-anchor="start" x="294.5" y="-266.5" font-family="Helvetica,sans-Serif" font-size="10.00" fill="#000000">+ get()</text>
<text text-anchor="start" x="294.5" y="-255.5" font-family="Helvetica,sans-Serif" font-size="10.00" fill="#000000">+ getImage()</text>
<text text-anchor="start" x="294.5" y="-244.5" font-family="Helvetica,sans-Serif" font-size="10.00" fill="#000000">+ create()</text>
<text text-anchor="start" x="294.5" y="-233.5" font-family="Helvetica,sans-Serif" font-size="10.00" fill="#000000">+ create()</text>
<text text-anchor="start" x="294.5" y="-222.5" font-family="Helvetica,sans-Serif" font-size="10.00" fill="#000000">+ estimateBlockSize()</text>
<text text-anchor="start" x="294.5" y="-211.5" font-family="Helvetica,sans-Serif" font-size="10.00" fill="#000000">+ expand()</text>
<text text-anchor="start" x="294.5" y="-200.5" font-family="Helvetica,sans-Serif" font-size="10.00" fill="#000000">+ readFromTree()</text>
<text text-anchor="start" x="294.5" y="-189.5" font-family="Helvetica,sans-Serif" font-size="10.00" fill="#000000"># init()</text>
<text text-anchor="start" x="294.5" y="-178.5" font-family="Helvetica,sans-Serif" font-size="10.00" fill="#000000"># estimateSize()</text>
<text text-anchor="start" x="294.5" y="-167.5" font-family="Helvetica,sans-Serif" font-size="10.00" fill="#000000"># estimateSizeFromMetadata()</text>
<text text-anchor="start" x="294.5" y="-156.5" font-family="Helvetica,sans-Serif" font-size="10.00" fill="#000000"># fillFlatCopy()</text>
<text text-anchor="start" x="294.5" y="-145.5" font-family="Helvetica,sans-Serif" font-size="10.00" fill="#000000"># ClassDefNV()</text>
<text text-anchor="start" x="294.5" y="-134.5" font-family="Helvetica,sans-Serif" font-size="10.00" fill="#000000"># relocate()</text>
<text text-anchor="start" x="294.5" y="-123.5" font-family="Helvetica,sans-Serif" font-size="10.00" fill="#000000"># fillTreeBranch()</text>
<text text-anchor="start" x="294.5" y="-112.5" font-family="Helvetica,sans-Serif" font-size="10.00" fill="#000000"># readTreeBranch()</text>
</a>
</g>
</g>
<!-- Node4&#45;&gt;Node3 -->
<g id="edge1" class="edge">
<title>Node4&#45;&gt;Node3</title>
<path fill="none" stroke="#191970" d="M420.3962,-95.0683C423.1216,-80.7818 425.5498,-68.0534 427.5298,-57.6745"/>
<polygon fill="none" stroke="#191970" points="416.8997,-94.7193 418.4638,-105.1981 423.7757,-96.0311 416.8997,-94.7193"/>
</g>
<!-- Node5 -->
<g id="node3" class="node">
<title>Node5</title>
<g id="a_node3"><a xlink:href="../../da/d30/classstd_1_1array_3_01o2_1_1ctf_1_1Block_3_01uint32__t_01_4_00_01N_01_4.html" target="_top" xlink:title="{array\&lt; o2::ctf::Block\l\&lt; uint32_t \&gt;, N \&gt;\n||}">
<polygon fill="none" stroke="#000000" points="7.5,-865 7.5,-933 124.5,-933 124.5,-865 7.5,-865"/>
<text text-anchor="start" x="15.5" y="-921" font-family="Helvetica,sans-Serif" font-size="10.00" fill="#000000">array&lt; o2::ctf::Block</text>
<text text-anchor="middle" x="66" y="-910" font-family="Helvetica,sans-Serif" font-size="10.00" fill="#000000">&lt; uint32_t &gt;, N &gt;</text>
<polyline fill="none" stroke="#000000" points="7.5,-903 124.5,-903 "/>
<text text-anchor="middle" x="66" y="-891" font-family="Helvetica,sans-Serif" font-size="10.00" fill="#000000"> </text>
<polyline fill="none" stroke="#000000" points="7.5,-884 124.5,-884 "/>
<text text-anchor="middle" x="66" y="-872" font-family="Helvetica,sans-Serif" font-size="10.00" fill="#000000"> </text>
</a>
</g>
</g>
<!-- Node5&#45;&gt;Node4 -->
<g id="edge2" class="edge">
<title>Node5&#45;&gt;Node4</title>
<path fill="none" stroke="#404040" d="M70.6233,-864.7758C78.3087,-815.2362 96.6056,-721.6421 133,-650 170.626,-575.9335 228.8606,-503.0783 278.3065,-448.1807"/>
<polygon fill="none" stroke="#404040" points="278.4106,-448.066 279.4829,-440.9351 286.4777,-439.1821 285.4055,-446.3131 278.4106,-448.066"/>
<text text-anchor="middle" x="175" y="-624" font-family="Helvetica,sans-Serif" font-size="10.00" fill="#000000"> #mBlocks</text>
</g>
<!-- Node6 -->
<g id="node4" class="node">
<title>Node6</title>
<polygon fill="none" stroke="#bfbfbf" points="238.5,-1212 238.5,-1269 399.5,-1269 399.5,-1212 238.5,-1212"/>
<text text-anchor="middle" x="319" y="-1257" font-family="Helvetica,sans-Serif" font-size="10.00" fill="#000000">array&lt; o2::ctf::Metadata, N &gt;</text>
<polyline fill="none" stroke="#bfbfbf" points="238.5,-1250 399.5,-1250 "/>
<text text-anchor="middle" x="319" y="-1238" font-family="Helvetica,sans-Serif" font-size="10.00" fill="#000000"> </text>
<polyline fill="none" stroke="#bfbfbf" points="238.5,-1231 399.5,-1231 "/>
<text text-anchor="middle" x="319" y="-1219" font-family="Helvetica,sans-Serif" font-size="10.00" fill="#000000"> </text>
</g>
<!-- Node6&#45;&gt;Node4 -->
<g id="edge3" class="edge">
<title>Node6&#45;&gt;Node4</title>
<path fill="none" stroke="#404040" d="M319.3201,-1211.8886C320.4261,-1126.4385 324.89,-865.6632 340,-650 340.8125,-638.4027 341.7217,-626.5574 342.7043,-614.5974"/>
<polygon fill="none" stroke="#404040" points="342.7072,-614.5621 339.2228,-608.2487 343.7104,-602.6041 347.1948,-608.9175 342.7072,-614.5621"/>
<text text-anchor="middle" x="373.5" y="-896.5" font-family="Helvetica,sans-Serif" font-size="10.00" fill="#000000"> #mMetadata</text>
</g>
<!-- Node17 -->
<g id="node15" class="node">
<title>Node17</title>
<g id="a_node15"><a xlink:href="../../dc/d08/classo2_1_1ctf_1_1EncodedBlocks.html" target="_top" xlink:title="&lt;&lt;======================== Auxiliary classes =======================&lt;&lt; ">
<polygon fill="none" stroke="#000000" points="524.5,-650.5 524.5,-1147.5 693.5,-1147.5 693.5,-650.5 524.5,-650.5"/>
<text text-anchor="start" x="532.5" y="-1135.5" font-family="Helvetica,sans-Serif" font-size="10.00" fill="#000000">o2::ctf::EncodedBlocks</text>
<text text-anchor="middle" x="609" y="-1124.5" font-family="Helvetica,sans-Serif" font-size="10.00" fill="#000000">&lt; H, N, W &gt;</text>
<polyline fill="none" stroke="#000000" points="524.5,-1117.5 693.5,-1117.5 "/>
<text text-anchor="middle" x="609" y="-1105.5" font-family="Helvetica,sans-Serif" font-size="10.00" fill="#000000"> </text>
<polyline fill="none" stroke="#000000" points="524.5,-1098.5 693.5,-1098.5 "/>
<text text-anchor="start" x="532.5" y="-1086.5" font-family="Helvetica,sans-Serif" font-size="10.00" fill="#000000">+ setHeader()</text>
<text text-anchor="start" x="532.5" y="-1075.5" font-family="Helvetica,sans-Serif" font-size="10.00" fill="#000000">+ getHeader()</text>
<text text-anchor="start" x="532.5" y="-1064.5" font-family="Helvetica,sans-Serif" font-size="10.00" fill="#000000">+ getHeader()</text>
<text text-anchor="start" x="532.5" y="-1053.5" font-family="Helvetica,sans-Serif" font-size="10.00" fill="#000000">+ getMetadata()</text>
<text text-anchor="start" x="532.5" y="-1042.5" font-family="Helvetica,sans-Serif" font-size="10.00" fill="#000000">+ setANSHeader()</text>
<text text-anchor="start" x="532.5" y="-1031.5" font-family="Helvetica,sans-Serif" font-size="10.00" fill="#000000">+ getANSHeader()</text>
<text text-anchor="start" x="532.5" y="-1020.5" font-family="Helvetica,sans-Serif" font-size="10.00" fill="#000000">+ getANSHeader()</text>
<text text-anchor="start" x="532.5" y="-1009.5" font-family="Helvetica,sans-Serif" font-size="10.00" fill="#000000">+ empty()</text>
<text text-anchor="start" x="532.5" y="-998.5" font-family="Helvetica,sans-Serif" font-size="10.00" fill="#000000">+ flat()</text>
<text text-anchor="start" x="532.5" y="-987.5" font-family="Helvetica,sans-Serif" font-size="10.00" fill="#000000">+ clear()</text>
<text text-anchor="start" x="532.5" y="-976.5" font-family="Helvetica,sans-Serif" font-size="10.00" fill="#000000">+ compactify()</text>
<text text-anchor="start" x="532.5" y="-965.5" font-family="Helvetica,sans-Serif" font-size="10.00" fill="#000000">+ size()</text>
<text text-anchor="start" x="532.5" y="-954.5" font-family="Helvetica,sans-Serif" font-size="10.00" fill="#000000">+ getFreeSize()</text>
<text text-anchor="start" x="532.5" y="-943.5" font-family="Helvetica,sans-Serif" font-size="10.00" fill="#000000">+ copyToFlat()</text>
<text text-anchor="start" x="532.5" y="-932.5" font-family="Helvetica,sans-Serif" font-size="10.00" fill="#000000">+ copyToFlat()</text>
<text text-anchor="start" x="532.5" y="-921.5" font-family="Helvetica,sans-Serif" font-size="10.00" fill="#000000">+ appendToTree()</text>
<text text-anchor="start" x="532.5" y="-910.5" font-family="Helvetica,sans-Serif" font-size="10.00" fill="#000000">+ readFromTree()</text>
<text text-anchor="start" x="532.5" y="-899.5" font-family="Helvetica,sans-Serif" font-size="10.00" fill="#000000">+ encode()</text>
<text text-anchor="start" x="532.5" y="-888.5" font-family="Helvetica,sans-Serif" font-size="10.00" fill="#000000">+ encode()</text>
<text text-anchor="start" x="532.5" y="-877.5" font-family="Helvetica,sans-Serif" font-size="10.00" fill="#000000">+ decode()</text>
<text text-anchor="start" x="532.5" y="-866.5" font-family="Helvetica,sans-Serif" font-size="10.00" fill="#000000">+ decode()</text>
<text text-anchor="start" x="532.5" y="-855.5" font-family="Helvetica,sans-Serif" font-size="10.00" fill="#000000">+ print()</text>
<text text-anchor="start" x="532.5" y="-844.5" font-family="Helvetica,sans-Serif" font-size="10.00" fill="#000000">+ getNBlocks()</text>
<text text-anchor="start" x="532.5" y="-833.5" font-family="Helvetica,sans-Serif" font-size="10.00" fill="#000000">+ getMinAlignedSize()</text>
<text text-anchor="start" x="532.5" y="-822.5" font-family="Helvetica,sans-Serif" font-size="10.00" fill="#000000">+ get()</text>
<text text-anchor="start" x="532.5" y="-811.5" font-family="Helvetica,sans-Serif" font-size="10.00" fill="#000000">+ get()</text>
<text text-anchor="start" x="532.5" y="-800.5" font-family="Helvetica,sans-Serif" font-size="10.00" fill="#000000">+ getImage()</text>
<text text-anchor="start" x="532.5" y="-789.5" font-family="Helvetica,sans-Serif" font-size="10.00" fill="#000000">+ create()</text>
<text text-anchor="start" x="532.5" y="-778.5" font-family="Helvetica,sans-Serif" font-size="10.00" fill="#000000">+ create()</text>
<text text-anchor="start" x="532.5" y="-767.5" font-family="Helvetica,sans-Serif" font-size="10.00" fill="#000000">+ estimateBlockSize()</text>
<text text-anchor="start" x="532.5" y="-756.5" font-family="Helvetica,sans-Serif" font-size="10.00" fill="#000000">+ expand()</text>
<text text-anchor="start" x="532.5" y="-745.5" font-family="Helvetica,sans-Serif" font-size="10.00" fill="#000000">+ readFromTree()</text>
<text text-anchor="start" x="532.5" y="-734.5" font-family="Helvetica,sans-Serif" font-size="10.00" fill="#000000"># init()</text>
<text text-anchor="start" x="532.5" y="-723.5" font-family="Helvetica,sans-Serif" font-size="10.00" fill="#000000"># estimateSize()</text>
<text text-anchor="start" x="532.5" y="-712.5" font-family="Helvetica,sans-Serif" font-size="10.00" fill="#000000"># estimateSizeFromMetadata()</text>
<text text-anchor="start" x="532.5" y="-701.5" font-family="Helvetica,sans-Serif" font-size="10.00" fill="#000000"># fillFlatCopy()</text>
<text text-anchor="start" x="532.5" y="-690.5" font-family="Helvetica,sans-Serif" font-size="10.00" fill="#000000"># ClassDefNV()</text>
<text text-anchor="start" x="532.5" y="-679.5" font-family="Helvetica,sans-Serif" font-size="10.00" fill="#000000"># relocate()</text>
<text text-anchor="start" x="532.5" y="-668.5" font-family="Helvetica,sans-Serif" font-size="10.00" fill="#000000"># fillTreeBranch()</text>
<text text-anchor="start" x="532.5" y="-657.5" font-family="Helvetica,sans-Serif" font-size="10.00" fill="#000000"># readTreeBranch()</text>
</a>
</g>
</g>
<!-- Node6&#45;&gt;Node17 -->
<g id="edge15" class="edge">
<title>Node6&#45;&gt;Node17</title>
<path fill="none" stroke="#404040" d="M352.9339,-1211.9406C373.2452,-1196.2124 400.2452,-1177.5874 427,-1166 461.6374,-1150.9986 481.2022,-1172.4024 510,-1148 511.8966,-1146.3929 513.7572,-1144.7444 515.5824,-1143.0569"/>
<polygon fill="none" stroke="#404040" points="515.8913,-1142.7508 517.339,-1135.6865 524.4168,-1134.3059 522.969,-1141.3702 515.8913,-1142.7508"/>
<text text-anchor="middle" x="460.5" y="-1169" font-family="Helvetica,sans-Serif" font-size="10.00" fill="#000000"> #mMetadata</text>
</g>
<!-- Node7 -->
<g id="node5" class="node">
<title>Node7</title>
<g id="a_node5"><a xlink:href="../../d5/d54/structo2_1_1ctf_1_1CTFHeader.html" target="_top" xlink:title="{o2::ctf::CTFHeader\n||+ describe()\l+ print()\l}">
<polygon fill="none" stroke="#000000" points="142.5,-865 142.5,-933 249.5,-933 249.5,-865 142.5,-865"/>
<text text-anchor="middle" x="196" y="-921" font-family="Helvetica,sans-Serif" font-size="10.00" fill="#000000">o2::ctf::CTFHeader</text>
<polyline fill="none" stroke="#000000" points="142.5,-914 249.5,-914 "/>
<text text-anchor="middle" x="196" y="-902" font-family="Helvetica,sans-Serif" font-size="10.00" fill="#000000"> </text>
<polyline fill="none" stroke="#000000" points="142.5,-895 249.5,-895 "/>
<text text-anchor="start" x="150.5" y="-883" font-family="Helvetica,sans-Serif" font-size="10.00" fill="#000000">+ describe()</text>
<text text-anchor="start" x="150.5" y="-872" font-family="Helvetica,sans-Serif" font-size="10.00" fill="#000000">+ print()</text>
</a>
</g>
</g>
<!-- Node7&#45;&gt;Node4 -->
<g id="edge4" class="edge">
<title>Node7&#45;&gt;Node4</title>
<path fill="none" stroke="#404040" d="M198.6768,-864.9042C203.5321,-811.7524 215.9081,-706.3811 243,-621 253.2916,-588.5655 266.8192,-555.0526 281.2211,-523.1876"/>
<polygon fill="none" stroke="#404040" points="281.3524,-522.9006 280.2131,-515.7801 286.3478,-511.9898 287.4871,-519.1103 281.3524,-522.9006"/>
<text text-anchor="middle" x="271.5" y="-624" font-family="Helvetica,sans-Serif" font-size="10.00" fill="#000000"> #mHeader</text>
</g>
<!-- Node8 -->
<g id="node6" class="node">
<title>Node8</title>
<polygon fill="none" stroke="#bfbfbf" points="88.5,-1212 88.5,-1269 141.5,-1269 141.5,-1212 88.5,-1212"/>
<text text-anchor="middle" x="115" y="-1257" font-family="Helvetica,sans-Serif" font-size="10.00" fill="#000000">mask_t</text>
<polyline fill="none" stroke="#bfbfbf" points="88.5,-1250 141.5,-1250 "/>
<text text-anchor="middle" x="115" y="-1238" font-family="Helvetica,sans-Serif" font-size="10.00" fill="#000000"> </text>
<polyline fill="none" stroke="#bfbfbf" points="88.5,-1231 141.5,-1231 "/>
<text text-anchor="middle" x="115" y="-1219" font-family="Helvetica,sans-Serif" font-size="10.00" fill="#000000"> </text>
</g>
<!-- Node8&#45;&gt;Node7 -->
<g id="edge5" class="edge">
<title>Node8&#45;&gt;Node7</title>
<path fill="none" stroke="#404040" d="M120.9722,-1211.8038C123.9051,-1197.9451 127.5441,-1181.0871 131,-1166 148.8377,-1088.1269 171.1514,-997.8874 184.453,-944.7802"/>
<polygon fill="none" stroke="#404040" points="184.4709,-944.7085 182.0511,-937.9155 187.3909,-933.0692 189.8107,-939.8622 184.4709,-944.7085"/>
<text text-anchor="middle" x="160" y="-1169" font-family="Helvetica,sans-Serif" font-size="10.00" fill="#000000"> +detectors</text>
</g>
<!-- Node9 -->
<g id="node7" class="node">
<title>Node9</title>
<g id="a_node7"><a xlink:href="../../d6/d30/classuint64__t.html" target="_top" xlink:title="{uint64_t\n||}">
<polygon fill="none" stroke="#000000" points="164,-1212 164,-1269 220,-1269 220,-1212 164,-1212"/>
<text text-anchor="middle" x="192" y="-1257" font-family="Helvetica,sans-Serif" font-size="10.00" fill="#000000">uint64_t</text>
<polyline fill="none" stroke="#000000" points="164,-1250 220,-1250 "/>
<text text-anchor="middle" x="192" y="-1238" font-family="Helvetica,sans-Serif" font-size="10.00" fill="#000000"> </text>
<polyline fill="none" stroke="#000000" points="164,-1231 220,-1231 "/>
<text text-anchor="middle" x="192" y="-1219" font-family="Helvetica,sans-Serif" font-size="10.00" fill="#000000"> </text>
</a>
</g>
</g>
<!-- Node9&#45;&gt;Node7 -->
<g id="edge6" class="edge">
<title>Node9&#45;&gt;Node7</title>
<path fill="none" stroke="#404040" d="M192.3342,-1211.9713C193.025,-1152.9935 194.6158,-1017.1731 195.4565,-945.3975"/>
<polygon fill="none" stroke="#404040" points="195.4589,-945.1913 191.5295,-939.1448 195.5995,-933.1921 199.5289,-939.2385 195.4589,-945.1913"/>
<text text-anchor="middle" x="207" y="-1169" font-family="Helvetica,sans-Serif" font-size="10.00" fill="#000000"> +run</text>
</g>
<!-- Node10 -->
<g id="node8" class="node">
<title>Node10</title>
<g id="a_node8"><a xlink:href="../../d3/d87/classuint32__t.html" target="_top" xlink:title="{uint32_t\n||}">
<polygon fill="none" stroke="#000000" points="0,-1212 0,-1269 56,-1269 56,-1212 0,-1212"/>
<text text-anchor="middle" x="28" y="-1257" font-family="Helvetica,sans-Serif" font-size="10.00" fill="#000000">uint32_t</text>
<polyline fill="none" stroke="#000000" points="0,-1250 56,-1250 "/>
<text text-anchor="middle" x="28" y="-1238" font-family="Helvetica,sans-Serif" font-size="10.00" fill="#000000"> </text>
<polyline fill="none" stroke="#000000" points="0,-1231 56,-1231 "/>
<text text-anchor="middle" x="28" y="-1219" font-family="Helvetica,sans-Serif" font-size="10.00" fill="#000000"> </text>
</a>
</g>
</g>
<!-- Node10&#45;&gt;Node7 -->
<g id="edge7" class="edge">
<title>Node10&#45;&gt;Node7</title>
<path fill="none" stroke="#404040" d="M34.108,-1211.9924C38.894,-1196.2815 47.144,-1177.6565 61,-1166 86.241,-1144.7658 109.6432,-1171.2907 133,-1148 186.9003,-1094.2521 196.9302,-1001.4694 197.6301,-945.6076"/>
<polygon fill="none" stroke="#404040" points="197.6302,-945.2616 193.6352,-939.2583 197.6401,-933.2616 201.6352,-939.2649 197.6302,-945.2616"/>
<text text-anchor="middle" x="93" y="-1169" font-family="Helvetica,sans-Serif" font-size="10.00" fill="#000000"> +firstTForbit</text>
</g>
<!-- Node11 -->
<g id="node9" class="node">
<title>Node11</title>
<g id="a_node9"><a xlink:href="../../dc/dbb/structo2_1_1ctf_1_1ANSHeader.html" target="_top" xlink:title="&gt;&gt;======================== Auxiliary classes =======================&gt;&gt; ">
<polygon fill="none" stroke="#000000" points="417.5,-1206.5 417.5,-1274.5 526.5,-1274.5 526.5,-1206.5 417.5,-1206.5"/>
<text text-anchor="middle" x="472" y="-1262.5" font-family="Helvetica,sans-Serif" font-size="10.00" fill="#000000">o2::ctf::ANSHeader</text>
<polyline fill="none" stroke="#000000" points="417.5,-1255.5 526.5,-1255.5 "/>
<text text-anchor="middle" x="472" y="-1243.5" font-family="Helvetica,sans-Serif" font-size="10.00" fill="#000000"> </text>
<polyline fill="none" stroke="#000000" points="417.5,-1236.5 526.5,-1236.5 "/>
<text text-anchor="start" x="425.5" y="-1224.5" font-family="Helvetica,sans-Serif" font-size="10.00" fill="#000000">+ clear()</text>
<text text-anchor="start" x="425.5" y="-1213.5" font-family="Helvetica,sans-Serif" font-size="10.00" fill="#000000">+ ClassDefNV()</text>
</a>
</g>
</g>
<!-- Node11&#45;&gt;Node4 -->
<g id="edge8" class="edge">
<title>Node11&#45;&gt;Node4</title>
<path fill="none" stroke="#404040" d="M457.2845,-1206.4533C450.5179,-1189.2562 443.0991,-1167.8716 439,-1148 394.1929,-930.7834 427.508,-870.8396 407,-650 405.923,-638.4022 404.7572,-626.5565 403.5266,-614.5962"/>
<polygon fill="none" stroke="#404040" points="403.5206,-614.5378 398.9195,-608.9853 402.2752,-602.6025 406.8763,-608.155 403.5206,-614.5378"/>
<text text-anchor="middle" x="477.5" y="-896.5" font-family="Helvetica,sans-Serif" font-size="10.00" fill="#000000"> #mANSHeader</text>
</g>
<!-- Node11&#45;&gt;Node17 -->
<g id="edge18" class="edge">
<title>Node11&#45;&gt;Node17</title>
<path fill="none" stroke="#404040" d="M486.1689,-1206.2738C493.3554,-1188.8474 502.193,-1167.3155 510,-1148 513.236,-1139.9938 516.5232,-1131.8396 519.8372,-1123.6008"/>
<polygon fill="none" stroke="#404040" points="519.896,-1123.4542 518.4217,-1116.3954 524.3705,-1112.3196 525.8448,-1119.3784 519.896,-1123.4542"/>
<text text-anchor="middle" x="539.5" y="-1169" font-family="Helvetica,sans-Serif" font-size="10.00" fill="#000000"> #mANSHeader</text>
</g>
<!-- Node12 -->
<g id="node10" class="node">
<title>Node12</title>
<polygon fill="none" stroke="#bfbfbf" points="435,-1344.5 435,-1401.5 485,-1401.5 485,-1344.5 435,-1344.5"/>
<text text-anchor="middle" x="460" y="-1389.5" font-family="Helvetica,sans-Serif" font-size="10.00" fill="#000000">uint8_t</text>
<polyline fill="none" stroke="#bfbfbf" points="435,-1382.5 485,-1382.5 "/>
<text text-anchor="middle" x="460" y="-1370.5" font-family="Helvetica,sans-Serif" font-size="10.00" fill="#000000"> </text>
<polyline fill="none" stroke="#bfbfbf" points="435,-1363.5 485,-1363.5 "/>
<text text-anchor="middle" x="460" y="-1351.5" font-family="Helvetica,sans-Serif" font-size="10.00" fill="#000000"> </text>
</g>
<!-- Node12&#45;&gt;Node11 -->
<g id="edge9" class="edge">
<title>Node12&#45;&gt;Node11</title>
<path fill="none" stroke="#404040" d="M459.4103,-1344.4109C459.4129,-1331.9716 459.7649,-1317.2408 461,-1304 461.5306,-1298.3116 462.2872,-1292.366 463.1585,-1286.4923"/>
<polygon fill="none" stroke="#404040" points="463.159,-1286.4882 460.1669,-1279.9272 465.0724,-1274.6417 468.0645,-1281.2027 463.159,-1286.4882"/>
<text text-anchor="middle" x="499" y="-1318" font-family="Helvetica,sans-Serif" font-size="10.00" fill="#000000"> +minorVersion</text>
<text text-anchor="middle" x="499" y="-1307" font-family="Helvetica,sans-Serif" font-size="10.00" fill="#000000">+majorVersion</text>
</g>
<!-- Node13 -->
<g id="node11" class="node">
<title>Node13</title>
<g id="a_node11"><a xlink:href="../../d0/d1c/structo2_1_1ctf_1_1Registry.html" target="_top" xlink:title="registry struct for the buffer start and offsets of writable space ">
<polygon fill="none" stroke="#000000" points="545,-1195.5 545,-1285.5 667,-1285.5 667,-1195.5 545,-1195.5"/>
<text text-anchor="middle" x="606" y="-1273.5" font-family="Helvetica,sans-Serif" font-size="10.00" fill="#000000">o2::ctf::Registry</text>
<polyline fill="none" stroke="#000000" points="545,-1266.5 667,-1266.5 "/>
<text text-anchor="middle" x="606" y="-1254.5" font-family="Helvetica,sans-Serif" font-size="10.00" fill="#000000"> </text>
<polyline fill="none" stroke="#000000" points="545,-1247.5 667,-1247.5 "/>
<text text-anchor="start" x="553" y="-1235.5" font-family="Helvetica,sans-Serif" font-size="10.00" fill="#000000">+ getFreeBlockStart()</text>
<text text-anchor="start" x="553" y="-1224.5" font-family="Helvetica,sans-Serif" font-size="10.00" fill="#000000">+ shrinkFreeBlock()</text>
<text text-anchor="start" x="553" y="-1213.5" font-family="Helvetica,sans-Serif" font-size="10.00" fill="#000000">+ getFreeSize()</text>
<text text-anchor="start" x="553" y="-1202.5" font-family="Helvetica,sans-Serif" font-size="10.00" fill="#000000">+ ClassDefNV()</text>
</a>
</g>
</g>
<!-- Node13&#45;&gt;Node4 -->
<g id="edge10" class="edge">
<title>Node13&#45;&gt;Node4</title>
<path fill="none" stroke="#404040" d="M667.3334,-1199.6396C670.556,-1197.9856 673.789,-1196.4266 677,-1195 704.7859,-1182.6554 724.5446,-1201.1628 743,-1177 885.5803,-990.3266 837.2522,-842.7497 703,-650 685.3828,-624.7065 669.7346,-629.1225 640,-621 605.0373,-611.4494 511.4066,-624.6333 465.9586,-602.3872"/>
<polygon fill="none" stroke="#404040" points="465.7172,-602.2381 458.5104,-602.4887 455.5072,-595.9326 462.714,-595.6821 465.7172,-602.2381"/>
<text text-anchor="middle" x="859.5" y="-896.5" font-family="Helvetica,sans-Serif" font-size="10.00" fill="#000000"> #mRegistry</text>
</g>
<!-- Node13&#45;&gt;Node17 -->
<g id="edge19" class="edge">
<title>Node13&#45;&gt;Node17</title>
<path fill="none" stroke="#404040" d="M605.0891,-1195.1941C604.9802,-1185.5576 604.9293,-1175.4424 605,-1166 605.0155,-1163.9284 605.0317,-1161.8477 605.0486,-1159.759"/>
<polygon fill="none" stroke="#404040" points="605.0488,-1159.7139 601.1005,-1153.6797 605.1519,-1147.7143 609.1002,-1153.7484 605.0488,-1159.7139"/>
<text text-anchor="middle" x="635.5" y="-1169" font-family="Helvetica,sans-Serif" font-size="10.00" fill="#000000"> #mRegistry</text>
</g>
<!-- Node14 -->
<g id="node12" class="node">
<title>Node14</title>
<polygon fill="none" stroke="#bfbfbf" points="539,-1344.5 539,-1401.5 577,-1401.5 577,-1344.5 539,-1344.5"/>
<text text-anchor="middle" x="558" y="-1389.5" font-family="Helvetica,sans-Serif" font-size="10.00" fill="#000000">char</text>
<polyline fill="none" stroke="#bfbfbf" points="539,-1382.5 577,-1382.5 "/>
<text text-anchor="middle" x="558" y="-1370.5" font-family="Helvetica,sans-Serif" font-size="10.00" fill="#000000"> </text>
<polyline fill="none" stroke="#bfbfbf" points="539,-1363.5 577,-1363.5 "/>
<text text-anchor="middle" x="558" y="-1351.5" font-family="Helvetica,sans-Serif" font-size="10.00" fill="#000000"> </text>
</g>
<!-- Node14&#45;&gt;Node13 -->
<g id="edge11" class="edge">
<title>Node14&#45;&gt;Node13</title>
<path fill="none" stroke="#404040" d="M561.9,-1344.2902C564.0988,-1331.6962 567.3587,-1316.8793 572,-1304 572.8956,-1301.5147 573.8749,-1299.0073 574.9181,-1296.4981"/>
<polygon fill="none" stroke="#404040" points="574.9191,-1296.4957 573.7303,-1289.3832 579.8384,-1285.5503 581.0272,-1292.6627 574.9191,-1296.4957"/>
<text text-anchor="middle" x="590" y="-1312.5" font-family="Helvetica,sans-Serif" font-size="10.00" fill="#000000"> +head</text>
</g>
<!-- Node15 -->
<g id="node13" class="node">
<title>Node15</title>
<polygon fill="none" stroke="#bfbfbf" points="595.5,-1344.5 595.5,-1401.5 640.5,-1401.5 640.5,-1344.5 595.5,-1344.5"/>
<text text-anchor="middle" x="618" y="-1389.5" font-family="Helvetica,sans-Serif" font-size="10.00" fill="#000000">size_t</text>
<polyline fill="none" stroke="#bfbfbf" points="595.5,-1382.5 640.5,-1382.5 "/>
<text text-anchor="middle" x="618" y="-1370.5" font-family="Helvetica,sans-Serif" font-size="10.00" fill="#000000"> </text>
<polyline fill="none" stroke="#bfbfbf" points="595.5,-1363.5 640.5,-1363.5 "/>
<text text-anchor="middle" x="618" y="-1351.5" font-family="Helvetica,sans-Serif" font-size="10.00" fill="#000000"> </text>
</g>
<!-- Node15&#45;&gt;Node13 -->
<g id="edge12" class="edge">
<title>Node15&#45;&gt;Node13</title>
<path fill="none" stroke="#404040" d="M615.3962,-1344.2495C614.1603,-1330.6028 612.6377,-1313.791 611.1808,-1297.7042"/>
<polygon fill="none" stroke="#404040" points="611.1677,-1297.5595 606.6428,-1291.9447 610.0853,-1285.6084 614.6102,-1291.2231 611.1677,-1297.5595"/>
<text text-anchor="middle" x="649.5" y="-1318" font-family="Helvetica,sans-Serif" font-size="10.00" fill="#000000"> +offsFreeStart</text>
<text text-anchor="middle" x="649.5" y="-1307" font-family="Helvetica,sans-Serif" font-size="10.00" fill="#000000">+size</text>
</g>
<!-- Node16 -->
<g id="node14" class="node">
<title>Node16</title>
<polygon fill="none" stroke="#bfbfbf" points="699.5,-1344.5 699.5,-1401.5 728.5,-1401.5 728.5,-1344.5 699.5,-1344.5"/>
<text text-anchor="middle" x="714" y="-1389.5" font-family="Helvetica,sans-Serif" font-size="10.00" fill="#000000">int</text>
<polyline fill="none" stroke="#bfbfbf" points="699.5,-1382.5 728.5,-1382.5 "/>
<text text-anchor="middle" x="714" y="-1370.5" font-family="Helvetica,sans-Serif" font-size="10.00" fill="#000000"> </text>
<polyline fill="none" stroke="#bfbfbf" points="699.5,-1363.5 728.5,-1363.5 "/>
<text text-anchor="middle" x="714" y="-1351.5" font-family="Helvetica,sans-Serif" font-size="10.00" fill="#000000"> </text>
</g>
<!-- Node16&#45;&gt;Node13 -->
<g id="edge13" class="edge">
<title>Node16&#45;&gt;Node13</title>
<path fill="none" stroke="#404040" d="M708.0849,-1344.3357C704.3966,-1331.1781 698.6572,-1315.8957 690,-1304 686.0332,-1298.5494 681.4664,-1293.3515 676.5546,-1288.4466"/>
<polygon fill="none" stroke="#404040" points="676.1899,-1288.108 669.0713,-1286.9568 667.396,-1279.9429 674.5147,-1281.0942 676.1899,-1288.108"/>
<text text-anchor="middle" x="739" y="-1312.5" font-family="Helvetica,sans-Serif" font-size="10.00" fill="#000000"> +nFilledBlocks</text>
</g>
<!-- Node17&#45;&gt;Node4 -->
<g id="edge14" class="edge">
<title>Node17&#45;&gt;Node4</title>
<path fill="none" stroke="#ffa500" d="M519.3993,-665.141C516.3418,-659.9895 513.2086,-654.9345 510,-650 494.0667,-625.4959 479.6754,-627.6699 464,-603 461.154,-598.5209 458.376,-593.9418 455.6656,-589.2806"/>
<polygon fill="#ffa500" stroke="#ffa500" points="516.4313,-666.9999 524.4733,-673.8974 522.4879,-663.4903 516.4313,-666.9999"/>
<text text-anchor="middle" x="564.5" y="-624" font-family="Helvetica,sans-Serif" font-size="10.00" fill="#000000"> &lt; CTFHeader, 10, uint32_t &gt;</text>
</g>
<!-- Node18 -->
<g id="node16" class="node">
<title>Node18</title>
<polygon fill="none" stroke="#bfbfbf" points="685.5,-1212 685.5,-1269 714.5,-1269 714.5,-1212 685.5,-1212"/>
<text text-anchor="middle" x="700" y="-1257" font-family="Helvetica,sans-Serif" font-size="10.00" fill="#000000">H</text>
<polyline fill="none" stroke="#bfbfbf" points="685.5,-1250 714.5,-1250 "/>
<text text-anchor="middle" x="700" y="-1238" font-family="Helvetica,sans-Serif" font-size="10.00" fill="#000000"> </text>
<polyline fill="none" stroke="#bfbfbf" points="685.5,-1231 714.5,-1231 "/>
<text text-anchor="middle" x="700" y="-1219" font-family="Helvetica,sans-Serif" font-size="10.00" fill="#000000"> </text>
</g>
<!-- Node18&#45;&gt;Node17 -->
<g id="edge16" class="edge">
<title>Node18&#45;&gt;Node17</title>
<path fill="none" stroke="#404040" d="M692.3979,-1211.9713C688.7036,-1198.1074 683.8778,-1179.9974 678.4082,-1159.4713"/>
<polygon fill="none" stroke="#404040" points="678.3963,-1159.4264 672.9862,-1154.6587 675.3064,-1147.831 680.7164,-1152.5987 678.3963,-1159.4264"/>
<text text-anchor="middle" x="710.5" y="-1169" font-family="Helvetica,sans-Serif" font-size="10.00" fill="#000000"> #mHeader</text>
</g>
<!-- Node19 -->
<g id="node17" class="node">
<title>Node19</title>
<polygon fill="none" stroke="#bfbfbf" points="734.5,-1206.5 734.5,-1274.5 851.5,-1274.5 851.5,-1206.5 734.5,-1206.5"/>
<text text-anchor="start" x="742.5" y="-1262.5" font-family="Helvetica,sans-Serif" font-size="10.00" fill="#000000">array&lt; o2::ctf::Block</text>
<text text-anchor="middle" x="793" y="-1251.5" font-family="Helvetica,sans-Serif" font-size="10.00" fill="#000000">&lt; W &gt;, N &gt;</text>
<polyline fill="none" stroke="#bfbfbf" points="734.5,-1244.5 851.5,-1244.5 "/>
<text text-anchor="middle" x="793" y="-1232.5" font-family="Helvetica,sans-Serif" font-size="10.00" fill="#000000"> </text>
<polyline fill="none" stroke="#bfbfbf" points="734.5,-1225.5 851.5,-1225.5 "/>
<text text-anchor="middle" x="793" y="-1213.5" font-family="Helvetica,sans-Serif" font-size="10.00" fill="#000000"> </text>
</g>
<!-- Node19&#45;&gt;Node17 -->
<g id="edge17" class="edge">
<title>Node19&#45;&gt;Node17</title>
<path fill="none" stroke="#404040" d="M771.8833,-1206.0774C761.4435,-1188.7879 748.7997,-1167.434 738,-1148 725.1761,-1124.9235 711.997,-1100.4512 699.1886,-1076.2097"/>
<polygon fill="none" stroke="#404040" points="699.1228,-1076.0847 692.7871,-1072.641 693.5291,-1065.4682 699.8648,-1068.9119 699.1228,-1076.0847"/>
<text text-anchor="middle" x="781" y="-1169" font-family="Helvetica,sans-Serif" font-size="10.00" fill="#000000"> #mBlocks</text>
</g>
<!-- Node20 -->
<g id="node18" class="node">
<title>Node20</title>
<polygon fill="none" stroke="#bfbfbf" points="473,-325.5 473,-382.5 517,-382.5 517,-325.5 473,-325.5"/>
<text text-anchor="middle" x="495" y="-370.5" font-family="Helvetica,sans-Serif" font-size="10.00" fill="#000000">static</text>
<polyline fill="none" stroke="#bfbfbf" points="473,-363.5 517,-363.5 "/>
<text text-anchor="middle" x="495" y="-351.5" font-family="Helvetica,sans-Serif" font-size="10.00" fill="#000000"> </text>
<polyline fill="none" stroke="#bfbfbf" points="473,-344.5 517,-344.5 "/>
<text text-anchor="middle" x="495" y="-332.5" font-family="Helvetica,sans-Serif" font-size="10.00" fill="#000000"> </text>
</g>
<!-- Node20&#45;&gt;Node3 -->
<g id="edge20" class="edge">
<title>Node20&#45;&gt;Node3</title>
<path fill="none" stroke="#404040" d="M493.8706,-325.1581C491.4903,-278.2867 484.3738,-182.9736 464,-105 460.8718,-93.0279 456.299,-80.4333 451.6215,-69.016"/>
<polygon fill="none" stroke="#404040" points="451.4695,-68.6591 445.4376,-64.7074 446.7653,-57.6196 452.7973,-61.5713 451.4695,-68.6591"/>
<text text-anchor="middle" x="467.5" y="-79" font-family="Helvetica,sans-Serif" font-size="10.00" fill="#000000"> +N</text>
</g>
</g>
</svg>
        <g id="navigator" transform="translate(0 0)" fill="#404254">
                <rect fill="#f2f5e9" fill-opacity="0.5" stroke="#606060" stroke-width=".5" x="0" y="0" width="60" height="60"/>
                <use id="zoomplus" xlink:href="#zoomPlus" x="17" y="9" onmousedown="handleZoom(evt,'in')"/>
                <use id="zoomminus" xlink:href="#zoomMin" x="42" y="9" onmousedown="handleZoom(evt,'out')"/>
                <use id="reset" xlink:href="#resetDef" x="30" y="36" onmousedown="handleReset()"/>
                <g id="arrowUp" xlink:href="#dirArrow" transform="translate(30 24)" onmousedown="handlePan(0,-1)">
                  <use xlink:href="#rim" fill="#404040">
                        <set attributeName="fill" to="#808080" begin="arrowUp.mouseover" end="arrowUp.mouseout"/>
                  </use>
                  <path fill="none" stroke="white" stroke-width="1.5" d="M0,-3.0v7 M-2.5,-0.5L0,-3.0L2.5,-0.5"/>
                </g>
                <g id="arrowRight" xlink:href="#dirArrow" transform="rotate(90) translate(36 -43)" onmousedown="handlePan(1,0)">
                  <use xlink:href="#rim" fill="#404040">
                        <set attributeName="fill" to="#808080" begin="arrowRight.mouseover" end="arrowRight.mouseout"/>
                  </use>
                  <path fill="none" stroke="white" stroke-width="1.5" d="M0,-3.0v7 M-2.5,-0.5L0,-3.0L2.5,-0.5"/>
                </g>
                <g id="arrowDown" xlink:href="#dirArrow" transform="rotate(180) translate(-30 -48)" onmousedown="handlePan(0,1)">
                  <use xlink:href="#rim" fill="#404040">
                        <set attributeName="fill" to="#808080" begin="arrowDown.mouseover" end="arrowDown.mouseout"/>
                  </use>
                  <path fill="none" stroke="white" stroke-width="1.5" d="M0,-3.0v7 M-2.5,-0.5L0,-3.0L2.5,-0.5"/>
                </g>
                <g id="arrowLeft" xlink:href="#dirArrow" transform="rotate(270) translate(-36 17)" onmousedown="handlePan(-1,0)">
                  <use xlink:href="#rim" fill="#404040">
                        <set attributeName="fill" to="#808080" begin="arrowLeft.mouseover" end="arrowLeft.mouseout"/>
                  </use>
                  <path fill="none" stroke="white" stroke-width="1.5" d="M0,-3.0v7 M-2.5,-0.5L0,-3.0L2.5,-0.5"/>
                </g>
        </g>
        <svg viewBox="0 0 15 15" width="100%" height="30px" preserveAspectRatio="xMaxYMin meet">
         <g id="arrow_out" transform="scale(0.3 0.3)">
          <a xlink:href="structo2_1_1itsmft_1_1CTF__coll__graph_org.svg" target="_base">
           <rect id="button" ry="5" rx="5" y="6" x="6" height="38" width="38"
                fill="#f2f5e9" fill-opacity="0.5" stroke="#606060" stroke-width="1.0"/>
           <path id="arrow"
             d="M 11.500037,31.436501 C 11.940474,20.09759 22.043105,11.32322 32.158766,21.979434 L 37.068811,17.246167 C 37.068811,17.246167 37.088388,32 37.088388,32 L 22.160133,31.978069 C 22.160133,31.978069 26.997745,27.140456 26.997745,27.140456 C 18.528582,18.264221 13.291696,25.230495 11.500037,31.436501 z"
             style="fill:#404040;"/>
          </a>
         </g>
        </svg>
</svg>
