<?xml version="1.0" encoding="UTF-8" standalone="no"?>
<!DOCTYPE svg PUBLIC "-//W3C//DTD SVG 1.1//EN"
 "http://www.w3.org/Graphics/SVG/1.1/DTD/svg11.dtd">
<!-- Generated by graphviz version 2.40.1 (20161225.0304)
 -->
<!-- Title: /home/travis/build/AliceO2Group/AliceO2/Detectors/FIT/FV0/simulation/include/FV0Simulation/Detector.h Pages: 1 -->
<svg width="3003pt" height="374pt"
 viewBox="0.00 0.00 3003.00 374.00" xmlns="http://www.w3.org/2000/svg" xmlns:xlink="http://www.w3.org/1999/xlink">
<g id="graph0" class="graph" transform="scale(1 1) rotate(0) translate(4 370)">
<title>/home/travis/build/AliceO2Group/AliceO2/Detectors/FIT/FV0/simulation/include/FV0Simulation/Detector.h</title>
<!-- Node0 -->
<g id="node1" class="node">
<title>Node0</title>
<polygon fill="#bfbfbf" stroke="#000000" points="882,-313.5 882,-365.5 1064,-365.5 1064,-313.5 882,-313.5"/>
<text text-anchor="start" x="890" y="-353.5" font-family="Helvetica,sans-Serif" font-size="10.00" fill="#000000">/home/travis/build</text>
<text text-anchor="start" x="890" y="-342.5" font-family="Helvetica,sans-Serif" font-size="10.00" fill="#000000">/AliceO2Group/AliceO2</text>
<text text-anchor="start" x="890" y="-331.5" font-family="Helvetica,sans-Serif" font-size="10.00" fill="#000000">/Detectors/FIT/FV0/simulation</text>
<text text-anchor="middle" x="973" y="-320.5" font-family="Helvetica,sans-Serif" font-size="10.00" fill="#000000">/include/FV0Simulation/Detector.h</text>
</g>
<!-- Node1 -->
<g id="node2" class="node">
<title>Node1</title>
<polygon fill="none" stroke="#bfbfbf" points="757,-257.5 757,-276.5 855,-276.5 855,-257.5 757,-257.5"/>
<text text-anchor="middle" x="806" y="-264.5" font-family="Helvetica,sans-Serif" font-size="10.00" fill="#000000">TLorentzVector.h</text>
</g>
<!-- Node0&#45;&gt;Node1 -->
<g id="edge1" class="edge">
<title>Node0&#45;&gt;Node1</title>
<path fill="none" stroke="#191970" d="M912.7092,-313.3258C887.107,-302.2111 858.3426,-289.7236 837.1349,-280.5167"/>
<polygon fill="#191970" stroke="#191970" points="838.5278,-277.3058 827.9611,-276.534 835.7402,-283.7268 838.5278,-277.3058"/>
</g>
<!-- Node2 -->
<g id="node3" class="node">
<title>Node2</title>
<g id="a_node3"><a xlink:href="../../d7/dd7/DataFormats_2Detectors_2FIT_2FV0_2include_2DataFormatsFV0_2Hit_8h.html" target="_top" xlink:title="DataFormatsFV0/Hit.h">
<polygon fill="none" stroke="#000000" points="911,-257.5 911,-276.5 1035,-276.5 1035,-257.5 911,-257.5"/>
<text text-anchor="middle" x="973" y="-264.5" font-family="Helvetica,sans-Serif" font-size="10.00" fill="#000000">DataFormatsFV0/Hit.h</text>
</a>
</g>
</g>
<!-- Node0&#45;&gt;Node2 -->
<g id="edge2" class="edge">
<title>Node0&#45;&gt;Node2</title>
<path fill="none" stroke="#191970" d="M973,-313.3258C973,-304.5142 973,-294.8397 973,-286.621"/>
<polygon fill="#191970" stroke="#191970" points="976.5001,-286.534 973,-276.534 969.5001,-286.534 976.5001,-286.534"/>
</g>
<!-- Node4 -->
<g id="node5" class="node">
<title>Node4</title>
<g id="a_node5"><a xlink:href="../../d4/d25/BaseHits_8h.html" target="_top" xlink:title="SimulationDataFormat\l/BaseHits.h">
<polygon fill="none" stroke="#000000" points="722.5,-190.5 722.5,-220.5 849.5,-220.5 849.5,-190.5 722.5,-190.5"/>
<text text-anchor="start" x="730.5" y="-208.5" font-family="Helvetica,sans-Serif" font-size="10.00" fill="#000000">SimulationDataFormat</text>
<text text-anchor="middle" x="786" y="-197.5" font-family="Helvetica,sans-Serif" font-size="10.00" fill="#000000">/BaseHits.h</text>
</a>
</g>
</g>
<!-- Node0&#45;&gt;Node4 -->
<g id="edge57" class="edge">
<title>Node0&#45;&gt;Node4</title>
<path fill="none" stroke="#191970" d="M939.5374,-313.291C918.182,-296.7858 889.7681,-275.2301 864,-257 849.1902,-246.5225 832.4399,-235.3745 818.2683,-226.1398"/>
<polygon fill="#191970" stroke="#191970" points="820.1128,-223.1644 809.8182,-220.6602 816.3043,-229.0377 820.1128,-223.1644"/>
</g>
<!-- Node24 -->
<g id="node25" class="node">
<title>Node24</title>
<g id="a_node25"><a xlink:href="../../d1/d3a/Base_2include_2DetectorsBase_2Detector_8h.html" target="_top" xlink:title="DetectorsBase/Detector.h">
<polygon fill="none" stroke="#000000" points="1932.5,-196 1932.5,-215 2073.5,-215 2073.5,-196 1932.5,-196"/>
<text text-anchor="middle" x="2003" y="-203" font-family="Helvetica,sans-Serif" font-size="10.00" fill="#000000">DetectorsBase/Detector.h</text>
</a>
</g>
</g>
<!-- Node0&#45;&gt;Node24 -->
<g id="edge26" class="edge">
<title>Node0&#45;&gt;Node24</title>
<path fill="none" stroke="#191970" d="M1064.4056,-327.6084C1263.4654,-301.7113 1733.4298,-240.5703 1922.3187,-215.9964"/>
<polygon fill="#191970" stroke="#191970" points="1922.991,-219.4385 1932.4558,-214.6776 1922.0878,-212.497 1922.991,-219.4385"/>
</g>
<!-- Node40 -->
<g id="node41" class="node">
<title>Node40</title>
<g id="a_node41"><a xlink:href="../../d8/de0/FIT_2FV0_2base_2include_2FV0Base_2Geometry_8h.html" target="_top" xlink:title="FV0Base/Geometry.h">
<polygon fill="none" stroke="#000000" points="1030,-196 1030,-215 1148,-215 1148,-196 1030,-196"/>
<text text-anchor="middle" x="1089" y="-203" font-family="Helvetica,sans-Serif" font-size="10.00" fill="#000000">FV0Base/Geometry.h</text>
</a>
</g>
</g>
<!-- Node0&#45;&gt;Node40 -->
<g id="edge50" class="edge">
<title>Node0&#45;&gt;Node40</title>
<path fill="none" stroke="#191970" d="M1006.6571,-313.3165C1019.1339,-302.7565 1032.9277,-290.0034 1044,-277 1058.0403,-260.511 1070.8547,-239.2566 1079.1865,-224.2196"/>
<polygon fill="#191970" stroke="#191970" points="1082.3054,-225.8099 1083.9821,-215.3485 1076.1476,-222.4809 1082.3054,-225.8099"/>
</g>
<!-- Node3 -->
<g id="node4" class="node">
<title>Node3</title>
<polygon fill="none" stroke="#bfbfbf" points="1199.5,-73 1199.5,-92 1248.5,-92 1248.5,-73 1199.5,-73"/>
<text text-anchor="middle" x="1224" y="-80" font-family="Helvetica,sans-Serif" font-size="10.00" fill="#000000">iosfwd</text>
</g>
<!-- Node2&#45;&gt;Node3 -->
<g id="edge3" class="edge">
<title>Node2&#45;&gt;Node3</title>
<path fill="none" stroke="#191970" d="M970.6688,-257.4044C965.3973,-233.1299 955.4128,-168.7445 988,-134 1050.3847,-67.4853 1102.936,-125.1278 1190,-98 1191.9045,-97.4066 1193.8421,-96.7321 1195.7772,-96.0046"/>
<polygon fill="#191970" stroke="#191970" points="1197.3813,-99.1281 1205.2692,-92.0547 1194.6919,-92.6653 1197.3813,-99.1281"/>
</g>
<!-- Node2&#45;&gt;Node4 -->
<g id="edge4" class="edge">
<title>Node2&#45;&gt;Node4</title>
<path fill="none" stroke="#191970" d="M943.7813,-257.3906C916.4812,-248.4123 875.0105,-234.7735 841.436,-223.7316"/>
<polygon fill="#191970" stroke="#191970" points="842.3383,-220.344 831.7453,-220.5446 840.1513,-226.9936 842.3383,-220.344"/>
</g>
<!-- Node11 -->
<g id="node12" class="node">
<title>Node11</title>
<polygon fill="none" stroke="#bfbfbf" points="1302.5,-73 1302.5,-92 1361.5,-92 1361.5,-73 1302.5,-73"/>
<text text-anchor="middle" x="1332" y="-80" font-family="Helvetica,sans-Serif" font-size="10.00" fill="#000000">Rtypes.h</text>
</g>
<!-- Node2&#45;&gt;Node11 -->
<g id="edge17" class="edge">
<title>Node2&#45;&gt;Node11</title>
<path fill="none" stroke="#191970" d="M975.1636,-257.2457C981.5438,-229.3787 1001.0865,-150.3654 1021,-134 1061.986,-100.3166 1204.7832,-107.3717 1257,-98 1268.4224,-95.9499 1280.7742,-93.496 1292.0938,-91.152"/>
<polygon fill="#191970" stroke="#191970" points="1293.0741,-94.5226 1302.143,-89.0449 1291.6375,-87.6716 1293.0741,-94.5226"/>
</g>
<!-- Node16 -->
<g id="node17" class="node">
<title>Node16</title>
<polygon fill="none" stroke="#bfbfbf" points="868,-196 868,-215 936,-215 936,-196 868,-196"/>
<text text-anchor="middle" x="902" y="-203" font-family="Helvetica,sans-Serif" font-size="10.00" fill="#000000">TVector3.h</text>
</g>
<!-- Node2&#45;&gt;Node16 -->
<g id="edge18" class="edge">
<title>Node2&#45;&gt;Node16</title>
<path fill="none" stroke="#191970" d="M961.9063,-257.3906C951.0285,-247.9683 934.2252,-233.4134 921.18,-222.1137"/>
<polygon fill="#191970" stroke="#191970" points="923.1004,-219.1466 913.2502,-215.2449 918.5173,-224.4377 923.1004,-219.1466"/>
</g>
<!-- Node17 -->
<g id="node18" class="node">
<title>Node17</title>
<g id="a_node18"><a xlink:href="../../d0/d91/ShmAllocator_8h.html" target="_top" xlink:title="CommonUtils/ShmAllocator.h">
<polygon fill="none" stroke="#000000" points="2563,-134.5 2563,-153.5 2723,-153.5 2723,-134.5 2563,-134.5"/>
<text text-anchor="middle" x="2643" y="-141.5" font-family="Helvetica,sans-Serif" font-size="10.00" fill="#000000">CommonUtils/ShmAllocator.h</text>
</a>
</g>
</g>
<!-- Node2&#45;&gt;Node17 -->
<g id="edge19" class="edge">
<title>Node2&#45;&gt;Node17</title>
<path fill="none" stroke="#191970" d="M1035.1122,-266.4975C1203.8632,-264.6848 1684.8523,-256.5412 2083,-221 2262.2636,-204.9978 2472.0773,-172.4065 2576.6722,-155.2067"/>
<polygon fill="#191970" stroke="#191970" points="2577.4696,-158.6225 2586.7662,-153.5408 2576.3297,-151.7159 2577.4696,-158.6225"/>
</g>
<!-- Node5 -->
<g id="node6" class="node">
<title>Node5</title>
<g id="a_node6"><a xlink:href="../../dd/d76/Cartesian3D_8h.html" target="_top" xlink:title="MathUtils/Cartesian3D.h">
<polygon fill="none" stroke="#000000" points="740.5,-134.5 740.5,-153.5 875.5,-153.5 875.5,-134.5 740.5,-134.5"/>
<text text-anchor="middle" x="808" y="-141.5" font-family="Helvetica,sans-Serif" font-size="10.00" fill="#000000">MathUtils/Cartesian3D.h</text>
</a>
</g>
</g>
<!-- Node4&#45;&gt;Node5 -->
<g id="edge5" class="edge">
<title>Node4&#45;&gt;Node5</title>
<path fill="none" stroke="#191970" d="M791.4382,-190.2977C794.333,-182.2055 797.9251,-172.1639 801.0234,-163.5029"/>
<polygon fill="#191970" stroke="#191970" points="804.4047,-164.4415 804.4775,-153.8469 797.8138,-162.0837 804.4047,-164.4415"/>
</g>
<!-- Node5&#45;&gt;Node3 -->
<g id="edge13" class="edge">
<title>Node5&#45;&gt;Node3</title>
<path fill="none" stroke="#191970" d="M875.8772,-136.9714C977.5185,-126.2731 1160.5377,-106.2742 1190,-98 1191.9674,-97.4475 1193.9654,-96.7963 1195.9566,-96.079"/>
<polygon fill="#191970" stroke="#191970" points="1197.7579,-99.1234 1205.6844,-92.0934 1195.104,-92.646 1197.7579,-99.1234"/>
</g>
<!-- Node6 -->
<g id="node7" class="node">
<title>Node6</title>
<polygon fill="none" stroke="#bfbfbf" points="378,-67.5 378,-97.5 542,-97.5 542,-67.5 378,-67.5"/>
<text text-anchor="start" x="386" y="-85.5" font-family="Helvetica,sans-Serif" font-size="10.00" fill="#000000">Math/GenVector/Displacement</text>
<text text-anchor="middle" x="460" y="-74.5" font-family="Helvetica,sans-Serif" font-size="10.00" fill="#000000">Vector3D.h</text>
</g>
<!-- Node5&#45;&gt;Node6 -->
<g id="edge6" class="edge">
<title>Node5&#45;&gt;Node6</title>
<path fill="none" stroke="#191970" d="M754.0068,-134.4581C700.276,-124.9626 616.7781,-110.2065 552.4741,-98.8424"/>
<polygon fill="#191970" stroke="#191970" points="552.7826,-95.3428 542.326,-97.049 551.5643,-102.2359 552.7826,-95.3428"/>
</g>
<!-- Node7 -->
<g id="node8" class="node">
<title>Node7</title>
<polygon fill="none" stroke="#bfbfbf" points="713.5,-73 713.5,-92 902.5,-92 902.5,-73 713.5,-73"/>
<text text-anchor="middle" x="808" y="-80" font-family="Helvetica,sans-Serif" font-size="10.00" fill="#000000">Math/GenVector/PositionVector3D.h</text>
</g>
<!-- Node5&#45;&gt;Node7 -->
<g id="edge7" class="edge">
<title>Node5&#45;&gt;Node7</title>
<path fill="none" stroke="#191970" d="M808,-134.3906C808,-125.8657 808,-113.1392 808,-102.4235"/>
<polygon fill="#191970" stroke="#191970" points="811.5001,-102.2448 808,-92.2449 804.5001,-102.2449 811.5001,-102.2448"/>
</g>
<!-- Node8 -->
<g id="node9" class="node">
<title>Node8</title>
<polygon fill="none" stroke="#bfbfbf" points="921,-73 921,-92 1081,-92 1081,-73 921,-73"/>
<text text-anchor="middle" x="1001" y="-80" font-family="Helvetica,sans-Serif" font-size="10.00" fill="#000000">Math/GenVector/Rotation3D.h</text>
</g>
<!-- Node5&#45;&gt;Node8 -->
<g id="edge8" class="edge">
<title>Node5&#45;&gt;Node8</title>
<path fill="none" stroke="#191970" d="M838.1563,-134.3906C871.2985,-123.8298 924.6762,-106.8208 961.2242,-95.1747"/>
<polygon fill="#191970" stroke="#191970" points="962.5902,-98.4129 971.0555,-92.0419 960.4649,-91.7433 962.5902,-98.4129"/>
</g>
<!-- Node9 -->
<g id="node10" class="node">
<title>Node9</title>
<polygon fill="none" stroke="#bfbfbf" points="0,-73 0,-92 168,-92 168,-73 0,-73"/>
<text text-anchor="middle" x="84" y="-80" font-family="Helvetica,sans-Serif" font-size="10.00" fill="#000000">Math/GenVector/Transform3D.h</text>
</g>
<!-- Node5&#45;&gt;Node9 -->
<g id="edge9" class="edge">
<title>Node5&#45;&gt;Node9</title>
<path fill="none" stroke="#191970" d="M740.1031,-141.1105C624.2815,-135.721 381.2205,-122.4093 177,-98 167.0045,-96.8053 156.4442,-95.2901 146.1675,-93.6773"/>
<polygon fill="#191970" stroke="#191970" points="146.4463,-90.1771 136.0166,-92.0402 145.3317,-97.0878 146.4463,-90.1771"/>
</g>
<!-- Node10 -->
<g id="node11" class="node">
<title>Node10</title>
<polygon fill="none" stroke="#bfbfbf" points="186.5,-73 186.5,-92 359.5,-92 359.5,-73 186.5,-73"/>
<text text-anchor="middle" x="273" y="-80" font-family="Helvetica,sans-Serif" font-size="10.00" fill="#000000">Math/GenVector/Translation3D.h</text>
</g>
<!-- Node5&#45;&gt;Node10 -->
<g id="edge10" class="edge">
<title>Node5&#45;&gt;Node10</title>
<path fill="none" stroke="#191970" d="M740.1765,-138.074C653.8066,-130.2564 500.037,-115.43 369,-98 359.1472,-96.6894 348.7488,-95.1618 338.5768,-93.5864"/>
<polygon fill="#191970" stroke="#191970" points="338.9316,-90.0992 328.5089,-92.0013 337.8428,-97.014 338.9316,-90.0992"/>
</g>
<!-- Node5&#45;&gt;Node11 -->
<g id="edge11" class="edge">
<title>Node5&#45;&gt;Node11</title>
<path fill="none" stroke="#191970" d="M875.593,-139.2295C963.7034,-132.5184 1122.4399,-118.7424 1257,-98 1268.4694,-96.232 1280.8362,-93.8678 1292.1551,-91.5195"/>
<polygon fill="#191970" stroke="#191970" points="1293.1457,-94.8872 1302.1997,-89.3849 1291.6906,-88.0401 1293.1457,-94.8872"/>
</g>
<!-- Node12 -->
<g id="node13" class="node">
<title>Node12</title>
<polygon fill="none" stroke="#bfbfbf" points="1099,-73 1099,-92 1181,-92 1181,-73 1099,-73"/>
<text text-anchor="middle" x="1140" y="-80" font-family="Helvetica,sans-Serif" font-size="10.00" fill="#000000">TGeoMatrix.h</text>
</g>
<!-- Node5&#45;&gt;Node12 -->
<g id="edge12" class="edge">
<title>Node5&#45;&gt;Node12</title>
<path fill="none" stroke="#191970" d="M875.753,-135.6392C933.2026,-127.9097 1017.5709,-115.0468 1090,-98 1093.8703,-97.0891 1097.878,-96.0368 1101.8632,-94.9181"/>
<polygon fill="#191970" stroke="#191970" points="1103.0268,-98.2242 1111.6318,-92.0432 1101.0504,-91.509 1103.0268,-98.2242"/>
</g>
<!-- Node13 -->
<g id="node14" class="node">
<title>Node13</title>
<g id="a_node14"><a xlink:href="../../d2/dd0/Cartesian2D_8h.html" target="_top" xlink:title="MathUtils/Cartesian2D.h">
<polygon fill="none" stroke="#000000" points="560.5,-73 560.5,-92 695.5,-92 695.5,-73 560.5,-73"/>
<text text-anchor="middle" x="628" y="-80" font-family="Helvetica,sans-Serif" font-size="10.00" fill="#000000">MathUtils/Cartesian2D.h</text>
</a>
</g>
</g>
<!-- Node5&#45;&gt;Node13 -->
<g id="edge14" class="edge">
<title>Node5&#45;&gt;Node13</title>
<path fill="none" stroke="#191970" d="M779.875,-134.3906C749.0972,-123.8749 699.6079,-106.966 665.5345,-95.3243"/>
<polygon fill="#191970" stroke="#191970" points="666.522,-91.9631 655.9275,-92.0419 664.2588,-98.5871 666.522,-91.9631"/>
</g>
<!-- Node14 -->
<g id="node15" class="node">
<title>Node14</title>
<polygon fill="none" stroke="#bfbfbf" points="449,-.5 449,-30.5 613,-30.5 613,-.5 449,-.5"/>
<text text-anchor="start" x="457" y="-18.5" font-family="Helvetica,sans-Serif" font-size="10.00" fill="#000000">Math/GenVector/Displacement</text>
<text text-anchor="middle" x="531" y="-7.5" font-family="Helvetica,sans-Serif" font-size="10.00" fill="#000000">Vector2D.h</text>
</g>
<!-- Node13&#45;&gt;Node14 -->
<g id="edge15" class="edge">
<title>Node13&#45;&gt;Node14</title>
<path fill="none" stroke="#191970" d="M614.1023,-72.9005C600.3265,-63.3853 578.7795,-48.5023 561.0779,-36.2755"/>
<polygon fill="#191970" stroke="#191970" points="562.9651,-33.3253 552.7479,-30.5218 558.9868,-39.0849 562.9651,-33.3253"/>
</g>
<!-- Node15 -->
<g id="node16" class="node">
<title>Node15</title>
<polygon fill="none" stroke="#bfbfbf" points="631.5,-6 631.5,-25 820.5,-25 820.5,-6 631.5,-6"/>
<text text-anchor="middle" x="726" y="-13" font-family="Helvetica,sans-Serif" font-size="10.00" fill="#000000">Math/GenVector/PositionVector2D.h</text>
</g>
<!-- Node13&#45;&gt;Node15 -->
<g id="edge16" class="edge">
<title>Node13&#45;&gt;Node15</title>
<path fill="none" stroke="#191970" d="M642.041,-72.9005C658.1238,-61.9052 684.6906,-43.7422 703.6316,-30.7927"/>
<polygon fill="#191970" stroke="#191970" points="705.7052,-33.6148 711.985,-25.0817 701.7545,-27.8362 705.7052,-33.6148"/>
</g>
<!-- Node18 -->
<g id="node19" class="node">
<title>Node18</title>
<g id="a_node19"><a xlink:href="../../de/d61/ShmManager_8h.html" target="_top" xlink:title="CommonUtils/ShmManager.h">
<polygon fill="none" stroke="#000000" points="2618,-73 2618,-92 2776,-92 2776,-73 2618,-73"/>
<text text-anchor="middle" x="2697" y="-80" font-family="Helvetica,sans-Serif" font-size="10.00" fill="#000000">CommonUtils/ShmManager.h</text>
</a>
</g>
</g>
<!-- Node17&#45;&gt;Node18 -->
<g id="edge20" class="edge">
<title>Node17&#45;&gt;Node18</title>
<path fill="none" stroke="#191970" d="M2651.4375,-134.3906C2659.5531,-125.1478 2672.0055,-110.966 2681.8424,-99.7628"/>
<polygon fill="#191970" stroke="#191970" points="2684.4755,-102.0686 2688.4435,-92.2449 2679.2154,-97.45 2684.4755,-102.0686"/>
</g>
<!-- Node23 -->
<g id="node24" class="node">
<title>Node23</title>
<polygon fill="none" stroke="#bfbfbf" points="2264,-73 2264,-92 2316,-92 2316,-73 2264,-73"/>
<text text-anchor="middle" x="2290" y="-80" font-family="Helvetica,sans-Serif" font-size="10.00" fill="#000000">cassert</text>
</g>
<!-- Node17&#45;&gt;Node23 -->
<g id="edge25" class="edge">
<title>Node17&#45;&gt;Node23</title>
<path fill="none" stroke="#191970" d="M2588.2311,-134.4581C2515.3716,-121.7645 2388.5526,-99.6699 2326.4191,-88.845"/>
<polygon fill="#191970" stroke="#191970" points="2326.7604,-85.3518 2316.3081,-87.0834 2325.5589,-92.2479 2326.7604,-85.3518"/>
</g>
<!-- Node19 -->
<g id="node20" class="node">
<title>Node19</title>
<polygon fill="none" stroke="#bfbfbf" points="2556,-6 2556,-25 2588,-25 2588,-6 2556,-6"/>
<text text-anchor="middle" x="2572" y="-13" font-family="Helvetica,sans-Serif" font-size="10.00" fill="#000000">list</text>
</g>
<!-- Node18&#45;&gt;Node19 -->
<g id="edge21" class="edge">
<title>Node18&#45;&gt;Node19</title>
<path fill="none" stroke="#191970" d="M2677.8467,-72.9507C2657.776,-62.8477 2625.4128,-46.2844 2598,-31 2597.5869,-30.7697 2597.1707,-30.5364 2596.7522,-30.3006"/>
<polygon fill="#191970" stroke="#191970" points="2598.2732,-27.137 2587.8653,-25.1558 2594.766,-33.1951 2598.2732,-27.137"/>
</g>
<!-- Node20 -->
<g id="node21" class="node">
<title>Node20</title>
<polygon fill="none" stroke="#bfbfbf" points="2606.5,-6 2606.5,-25 2659.5,-25 2659.5,-6 2606.5,-6"/>
<text text-anchor="middle" x="2633" y="-13" font-family="Helvetica,sans-Serif" font-size="10.00" fill="#000000">cstddef</text>
</g>
<!-- Node18&#45;&gt;Node20 -->
<g id="edge22" class="edge">
<title>Node18&#45;&gt;Node20</title>
<path fill="none" stroke="#191970" d="M2687.8304,-72.9005C2677.7551,-62.353 2661.3793,-45.2096 2649.1431,-32.3998"/>
<polygon fill="#191970" stroke="#191970" points="2651.5909,-29.8952 2642.1526,-25.0817 2646.5291,-34.7304 2651.5909,-29.8952"/>
</g>
<!-- Node21 -->
<g id="node22" class="node">
<title>Node21</title>
<polygon fill="none" stroke="#bfbfbf" points="2677.5,-.5 2677.5,-30.5 2842.5,-30.5 2842.5,-.5 2677.5,-.5"/>
<text text-anchor="start" x="2685.5" y="-18.5" font-family="Helvetica,sans-Serif" font-size="10.00" fill="#000000">boost/interprocess</text>
<text text-anchor="middle" x="2760" y="-7.5" font-family="Helvetica,sans-Serif" font-size="10.00" fill="#000000">/managed_external_buffer.hpp</text>
</g>
<!-- Node18&#45;&gt;Node21 -->
<g id="edge23" class="edge">
<title>Node18&#45;&gt;Node21</title>
<path fill="none" stroke="#191970" d="M2706.0264,-72.9005C2714.5668,-63.8178 2727.7062,-49.8442 2738.8823,-37.9585"/>
<polygon fill="#191970" stroke="#191970" points="2741.5746,-40.2046 2745.8751,-30.5218 2736.4749,-35.4094 2741.5746,-40.2046"/>
</g>
<!-- Node22 -->
<g id="node23" class="node">
<title>Node22</title>
<polygon fill="none" stroke="#bfbfbf" points="2861,-.5 2861,-30.5 2995,-30.5 2995,-.5 2861,-.5"/>
<text text-anchor="start" x="2869" y="-18.5" font-family="Helvetica,sans-Serif" font-size="10.00" fill="#000000">boost/interprocess</text>
<text text-anchor="middle" x="2928" y="-7.5" font-family="Helvetica,sans-Serif" font-size="10.00" fill="#000000">/allocators/allocator.hpp</text>
</g>
<!-- Node18&#45;&gt;Node22 -->
<g id="edge24" class="edge">
<title>Node18&#45;&gt;Node22</title>
<path fill="none" stroke="#191970" d="M2730.0967,-72.9005C2765.587,-62.6068 2822.7365,-46.031 2866.5192,-33.3321"/>
<polygon fill="#191970" stroke="#191970" points="2867.5794,-36.6689 2876.2085,-30.5218 2865.6294,-29.946 2867.5794,-36.6689"/>
</g>
<!-- Node24&#45;&gt;Node11 -->
<g id="edge39" class="edge">
<title>Node24&#45;&gt;Node11</title>
<path fill="none" stroke="#191970" d="M1932.3716,-202.7551C1780.9446,-196.416 1434.9367,-179.3353 1388,-154 1366.3104,-142.2925 1350.2289,-118.223 1340.9938,-101.254"/>
<polygon fill="#191970" stroke="#191970" points="1344.0406,-99.5251 1336.3569,-92.2305 1337.8145,-102.7246 1344.0406,-99.5251"/>
</g>
<!-- Node24&#45;&gt;Node17 -->
<g id="edge46" class="edge">
<title>Node24&#45;&gt;Node17</title>
<path fill="none" stroke="#191970" d="M2073.9303,-199.2974C2176.9414,-190.1945 2374.2379,-172.4029 2552.8449,-154.1037"/>
<polygon fill="#191970" stroke="#191970" points="2553.364,-157.5689 2562.954,-153.0654 2552.6487,-150.6055 2553.364,-157.5689"/>
</g>
<!-- Node24&#45;&gt;Node18 -->
<g id="edge45" class="edge">
<title>Node24&#45;&gt;Node18</title>
<path fill="none" stroke="#191970" d="M2073.6657,-203.0856C2252.3682,-196.6385 2709.754,-177.8731 2732,-154 2746.6829,-138.2432 2730.5203,-115.175 2715.6248,-99.5355"/>
<polygon fill="#191970" stroke="#191970" points="2717.6917,-96.6569 2708.121,-92.1123 2712.7687,-101.6334 2717.6917,-96.6569"/>
</g>
<!-- Node24&#45;&gt;Node23 -->
<g id="edge49" class="edge">
<title>Node24&#45;&gt;Node23</title>
<path fill="none" stroke="#191970" d="M2010.4236,-195.9974C2023.0184,-180.5499 2050.1325,-150.1015 2080,-134 2136.1678,-103.72 2210.3332,-90.9457 2253.831,-85.7799"/>
<polygon fill="#191970" stroke="#191970" points="2254.3878,-89.2395 2263.9378,-84.6517 2253.6112,-82.2827 2254.3878,-89.2395"/>
</g>
<!-- Node25 -->
<g id="node26" class="node">
<title>Node25</title>
<polygon fill="none" stroke="#bfbfbf" points="1546,-73 1546,-92 1584,-92 1584,-73 1546,-73"/>
<text text-anchor="middle" x="1565" y="-80" font-family="Helvetica,sans-Serif" font-size="10.00" fill="#000000">map</text>
</g>
<!-- Node24&#45;&gt;Node25 -->
<g id="edge27" class="edge">
<title>Node24&#45;&gt;Node25</title>
<path fill="none" stroke="#191970" d="M1932.1842,-200.1058C1843.0251,-192.4881 1695.518,-176.9037 1646,-154 1618.8897,-141.4606 1594.1652,-116.8555 1579.3482,-100.0473"/>
<polygon fill="#191970" stroke="#191970" points="1581.6969,-97.4078 1572.5428,-92.0736 1576.3725,-101.9521 1581.6969,-97.4078"/>
</g>
<!-- Node26 -->
<g id="node27" class="node">
<title>Node26</title>
<polygon fill="none" stroke="#bfbfbf" points="1292.5,-134.5 1292.5,-153.5 1339.5,-153.5 1339.5,-134.5 1292.5,-134.5"/>
<text text-anchor="middle" x="1316" y="-141.5" font-family="Helvetica,sans-Serif" font-size="10.00" fill="#000000">vector</text>
</g>
<!-- Node24&#45;&gt;Node26 -->
<g id="edge28" class="edge">
<title>Node24&#45;&gt;Node26</title>
<path fill="none" stroke="#191970" d="M1932.3858,-204.0069C1812.6247,-200.5598 1562.3772,-189.3952 1354,-154 1352.5288,-153.7501 1351.0316,-153.4699 1349.5235,-153.1664"/>
<polygon fill="#191970" stroke="#191970" points="1350.1022,-149.7086 1339.5745,-150.8994 1348.547,-156.5337 1350.1022,-149.7086"/>
</g>
<!-- Node27 -->
<g id="node28" class="node">
<title>Node27</title>
<polygon fill="none" stroke="#bfbfbf" points="1602.5,-73 1602.5,-92 1685.5,-92 1685.5,-73 1602.5,-73"/>
<text text-anchor="middle" x="1644" y="-80" font-family="Helvetica,sans-Serif" font-size="10.00" fill="#000000">initializer_list</text>
</g>
<!-- Node24&#45;&gt;Node27 -->
<g id="edge29" class="edge">
<title>Node24&#45;&gt;Node27</title>
<path fill="none" stroke="#191970" d="M1932.2227,-203.6869C1844.4398,-199.9658 1701.6246,-188.6143 1663,-154 1648.5448,-141.0457 1644.535,-118.4689 1643.6756,-102.145"/>
<polygon fill="#191970" stroke="#191970" points="1647.1732,-101.9735 1643.4943,-92.0379 1640.1743,-102.0991 1647.1732,-101.9735"/>
</g>
<!-- Node28 -->
<g id="node29" class="node">
<title>Node28</title>
<polygon fill="none" stroke="#bfbfbf" points="1672,-134.5 1672,-153.5 1730,-153.5 1730,-134.5 1672,-134.5"/>
<text text-anchor="middle" x="1701" y="-141.5" font-family="Helvetica,sans-Serif" font-size="10.00" fill="#000000">memory</text>
</g>
<!-- Node24&#45;&gt;Node28 -->
<g id="edge30" class="edge">
<title>Node24&#45;&gt;Node28</title>
<path fill="none" stroke="#191970" d="M1948.6836,-195.965C1897.3536,-186.7153 1817.9898,-171.7988 1740.3607,-154.2118"/>
<polygon fill="#191970" stroke="#191970" points="1740.9402,-150.7541 1730.412,-151.9408 1739.3823,-157.5786 1740.9402,-150.7541"/>
</g>
<!-- Node29 -->
<g id="node30" class="node">
<title>Node29</title>
<polygon fill="none" stroke="#bfbfbf" points="1748,-134.5 1748,-153.5 1832,-153.5 1832,-134.5 1748,-134.5"/>
<text text-anchor="middle" x="1790" y="-141.5" font-family="Helvetica,sans-Serif" font-size="10.00" fill="#000000">FairDetector.h</text>
</g>
<!-- Node24&#45;&gt;Node29 -->
<g id="edge31" class="edge">
<title>Node24&#45;&gt;Node29</title>
<path fill="none" stroke="#191970" d="M1969.7188,-195.8906C1932.8295,-185.2395 1873.2243,-168.0296 1832.8675,-156.3772"/>
<polygon fill="#191970" stroke="#191970" points="1833.626,-152.9533 1823.0475,-153.5419 1831.6842,-159.6786 1833.626,-152.9533"/>
</g>
<!-- Node30 -->
<g id="node31" class="node">
<title>Node30</title>
<polygon fill="none" stroke="#bfbfbf" points="1850,-134.5 1850,-153.5 1956,-153.5 1956,-134.5 1850,-134.5"/>
<text text-anchor="middle" x="1903" y="-141.5" font-family="Helvetica,sans-Serif" font-size="10.00" fill="#000000">FairRootManager.h</text>
</g>
<!-- Node24&#45;&gt;Node30 -->
<g id="edge32" class="edge">
<title>Node24&#45;&gt;Node30</title>
<path fill="none" stroke="#191970" d="M1987.375,-195.8906C1971.2302,-185.9616 1945.8178,-170.333 1927.0977,-158.8201"/>
<polygon fill="#191970" stroke="#191970" points="1928.8669,-155.7992 1918.5153,-153.5419 1925.1998,-161.7619 1928.8669,-155.7992"/>
</g>
<!-- Node31 -->
<g id="node32" class="node">
<title>Node31</title>
<g id="a_node32"><a xlink:href="../../d0/d9a/MaterialManager_8h.html" target="_top" xlink:title="DetectorsBase/MaterialManager.h">
<polygon fill="none" stroke="#000000" points="1396.5,-134.5 1396.5,-153.5 1577.5,-153.5 1577.5,-134.5 1396.5,-134.5"/>
<text text-anchor="middle" x="1487" y="-141.5" font-family="Helvetica,sans-Serif" font-size="10.00" fill="#000000">DetectorsBase/MaterialManager.h</text>
</a>
</g>
</g>
<!-- Node24&#45;&gt;Node31 -->
<g id="edge33" class="edge">
<title>Node24&#45;&gt;Node31</title>
<path fill="none" stroke="#191970" d="M1932.3343,-197.0776C1840.0042,-186.0732 1678.2264,-166.7915 1577.159,-154.7457"/>
<polygon fill="#191970" stroke="#191970" points="1577.3101,-151.239 1566.9661,-153.5308 1576.4816,-158.1898 1577.3101,-151.239"/>
</g>
<!-- Node33 -->
<g id="node34" class="node">
<title>Node33</title>
<polygon fill="none" stroke="#bfbfbf" points="1974,-134.5 1974,-153.5 2032,-153.5 2032,-134.5 1974,-134.5"/>
<text text-anchor="middle" x="2003" y="-141.5" font-family="Helvetica,sans-Serif" font-size="10.00" fill="#000000">cxxabi.h</text>
</g>
<!-- Node24&#45;&gt;Node33 -->
<g id="edge40" class="edge">
<title>Node24&#45;&gt;Node33</title>
<path fill="none" stroke="#191970" d="M2003,-195.8906C2003,-187.3657 2003,-174.6392 2003,-163.9235"/>
<polygon fill="#191970" stroke="#191970" points="2006.5001,-163.7448 2003,-153.7449 1999.5001,-163.7449 2006.5001,-163.7448"/>
</g>
<!-- Node34 -->
<g id="node35" class="node">
<title>Node34</title>
<polygon fill="none" stroke="#bfbfbf" points="2088.5,-134.5 2088.5,-153.5 2145.5,-153.5 2145.5,-134.5 2088.5,-134.5"/>
<text text-anchor="middle" x="2117" y="-141.5" font-family="Helvetica,sans-Serif" font-size="10.00" fill="#000000">typeinfo</text>
</g>
<!-- Node24&#45;&gt;Node34 -->
<g id="edge41" class="edge">
<title>Node24&#45;&gt;Node34</title>
<path fill="none" stroke="#191970" d="M2020.8125,-195.8906C2039.4685,-185.8262 2068.9797,-169.9057 2090.3974,-158.3514"/>
<polygon fill="#191970" stroke="#191970" points="2092.1734,-161.3702 2099.3126,-153.5419 2088.8498,-155.2095 2092.1734,-161.3702"/>
</g>
<!-- Node35 -->
<g id="node36" class="node">
<title>Node35</title>
<polygon fill="none" stroke="#bfbfbf" points="2163.5,-134.5 2163.5,-153.5 2232.5,-153.5 2232.5,-134.5 2163.5,-134.5"/>
<text text-anchor="middle" x="2198" y="-141.5" font-family="Helvetica,sans-Serif" font-size="10.00" fill="#000000">type_traits</text>
</g>
<!-- Node24&#45;&gt;Node35 -->
<g id="edge42" class="edge">
<title>Node24&#45;&gt;Node35</title>
<path fill="none" stroke="#191970" d="M2033.4688,-195.8906C2066.9544,-185.3298 2120.8853,-168.3208 2157.812,-156.6747"/>
<polygon fill="#191970" stroke="#191970" points="2159.261,-159.8877 2167.7452,-153.5419 2157.1555,-153.2118 2159.261,-159.8877"/>
</g>
<!-- Node36 -->
<g id="node37" class="node">
<title>Node36</title>
<polygon fill="none" stroke="#bfbfbf" points="2251,-134.5 2251,-153.5 2295,-153.5 2295,-134.5 2251,-134.5"/>
<text text-anchor="middle" x="2273" y="-141.5" font-family="Helvetica,sans-Serif" font-size="10.00" fill="#000000">string</text>
</g>
<!-- Node24&#45;&gt;Node36 -->
<g id="edge43" class="edge">
<title>Node24&#45;&gt;Node36</title>
<path fill="none" stroke="#191970" d="M2054.6392,-195.9194C2101.1017,-186.9515 2171.3831,-172.5283 2240.9232,-154.1042"/>
<polygon fill="#191970" stroke="#191970" points="2241.9741,-157.4462 2250.7281,-151.4781 2240.1631,-150.6845 2241.9741,-157.4462"/>
</g>
<!-- Node37 -->
<g id="node38" class="node">
<title>Node37</title>
<polygon fill="none" stroke="#bfbfbf" points="2313,-134.5 2313,-153.5 2387,-153.5 2387,-134.5 2313,-134.5"/>
<text text-anchor="middle" x="2350" y="-141.5" font-family="Helvetica,sans-Serif" font-size="10.00" fill="#000000">TMessage.h</text>
</g>
<!-- Node24&#45;&gt;Node37 -->
<g id="edge44" class="edge">
<title>Node24&#45;&gt;Node37</title>
<path fill="none" stroke="#191970" d="M2063.3937,-195.9795C2122.0711,-186.5455 2213.9254,-171.2931 2302.8821,-154.1551"/>
<polygon fill="#191970" stroke="#191970" points="2303.7203,-157.5579 2312.8722,-152.22 2302.3891,-150.6856 2303.7203,-157.5579"/>
</g>
<!-- Node38 -->
<g id="node39" class="node">
<title>Node38</title>
<polygon fill="none" stroke="#bfbfbf" points="2405,-134.5 2405,-153.5 2471,-153.5 2471,-134.5 2405,-134.5"/>
<text text-anchor="middle" x="2438" y="-141.5" font-family="Helvetica,sans-Serif" font-size="10.00" fill="#000000">sys/shm.h</text>
</g>
<!-- Node24&#45;&gt;Node38 -->
<g id="edge47" class="edge">
<title>Node24&#45;&gt;Node38</title>
<path fill="none" stroke="#191970" d="M2073.6258,-198.4712C2150.4006,-190.3285 2276.848,-175.4567 2394.6796,-154.0993"/>
<polygon fill="#191970" stroke="#191970" points="2395.39,-157.5275 2404.5955,-152.2827 2394.1285,-150.6421 2395.39,-157.5275"/>
</g>
<!-- Node39 -->
<g id="node40" class="node">
<title>Node39</title>
<polygon fill="none" stroke="#bfbfbf" points="2489,-134.5 2489,-153.5 2545,-153.5 2545,-134.5 2489,-134.5"/>
<text text-anchor="middle" x="2517" y="-141.5" font-family="Helvetica,sans-Serif" font-size="10.00" fill="#000000">unistd.h</text>
</g>
<!-- Node24&#45;&gt;Node39 -->
<g id="edge48" class="edge">
<title>Node24&#45;&gt;Node39</title>
<path fill="none" stroke="#191970" d="M2073.8195,-201.3267C2165.3139,-195.1626 2329.5664,-181.4772 2478.577,-154.0175"/>
<polygon fill="#191970" stroke="#191970" points="2479.6364,-157.3802 2488.8233,-152.1028 2478.3505,-150.4994 2479.6364,-157.3802"/>
</g>
<!-- Node31&#45;&gt;Node3 -->
<g id="edge38" class="edge">
<title>Node31&#45;&gt;Node3</title>
<path fill="none" stroke="#191970" d="M1446.1948,-134.4581C1394.7127,-122.4195 1307.0709,-101.9253 1258.6736,-90.6081"/>
<polygon fill="#191970" stroke="#191970" points="1259.218,-87.141 1248.6837,-88.2721 1257.6241,-93.9572 1259.218,-87.141"/>
</g>
<!-- Node31&#45;&gt;Node11 -->
<g id="edge34" class="edge">
<title>Node31&#45;&gt;Node11</title>
<path fill="none" stroke="#191970" d="M1462.7813,-134.3906C1436.6194,-124.0103 1394.7571,-107.4004 1365.4612,-95.7766"/>
<polygon fill="#191970" stroke="#191970" points="1366.6346,-92.4767 1356.0487,-92.0419 1364.0529,-98.9833 1366.6346,-92.4767"/>
</g>
<!-- Node31&#45;&gt;Node25 -->
<g id="edge35" class="edge">
<title>Node31&#45;&gt;Node25</title>
<path fill="none" stroke="#191970" d="M1499.1875,-134.3906C1511.437,-124.7324 1530.5263,-109.6812 1544.9977,-98.271"/>
<polygon fill="#191970" stroke="#191970" points="1547.2124,-100.9819 1552.8981,-92.0419 1542.8783,-95.485 1547.2124,-100.9819"/>
</g>
<!-- Node31&#45;&gt;Node27 -->
<g id="edge37" class="edge">
<title>Node31&#45;&gt;Node27</title>
<path fill="none" stroke="#191970" d="M1511.5313,-134.3906C1538.0307,-124.0103 1580.4331,-107.4004 1610.107,-95.7766"/>
<polygon fill="#191970" stroke="#191970" points="1611.6065,-98.9482 1619.641,-92.0419 1609.0533,-92.4304 1611.6065,-98.9482"/>
</g>
<!-- Node32 -->
<g id="node33" class="node">
<title>Node32</title>
<polygon fill="none" stroke="#bfbfbf" points="1434.5,-73 1434.5,-92 1527.5,-92 1527.5,-73 1434.5,-73"/>
<text text-anchor="middle" x="1481" y="-80" font-family="Helvetica,sans-Serif" font-size="10.00" fill="#000000">unordered_map</text>
</g>
<!-- Node31&#45;&gt;Node32 -->
<g id="edge36" class="edge">
<title>Node31&#45;&gt;Node32</title>
<path fill="none" stroke="#191970" d="M1486.0625,-134.3906C1485.2308,-125.8657 1483.9892,-113.1392 1482.9438,-102.4235"/>
<polygon fill="#191970" stroke="#191970" points="1486.4053,-101.8577 1481.9507,-92.2449 1479.4383,-102.5375 1486.4053,-101.8577"/>
</g>
<!-- Node40&#45;&gt;Node5 -->
<g id="edge56" class="edge">
<title>Node40&#45;&gt;Node5</title>
<path fill="none" stroke="#191970" d="M1045.4021,-195.9581C995.8729,-185.1181 915.0193,-167.4224 861.6589,-155.7439"/>
<polygon fill="#191970" stroke="#191970" points="862.2173,-152.2833 851.7002,-153.5643 860.7207,-159.1214 862.2173,-152.2833"/>
</g>
<!-- Node40&#45;&gt;Node12 -->
<g id="edge53" class="edge">
<title>Node40&#45;&gt;Node12</title>
<path fill="none" stroke="#191970" d="M1067.5021,-195.8602C1041.9308,-182.9914 1004.6355,-158.9134 1021,-134 1025.9494,-126.465 1071.2982,-108.1954 1104.5501,-95.5755"/>
<polygon fill="#191970" stroke="#191970" points="1105.8683,-98.8191 1113.9931,-92.0192 1103.4011,-92.2682 1105.8683,-98.8191"/>
</g>
<!-- Node40&#45;&gt;Node26 -->
<g id="edge51" class="edge">
<title>Node40&#45;&gt;Node26</title>
<path fill="none" stroke="#191970" d="M1126.6593,-195.9164C1163.8355,-186.3639 1222.524,-171.0389 1282.5875,-154.0493"/>
<polygon fill="#191970" stroke="#191970" points="1283.5728,-157.408 1292.236,-151.3089 1281.6602,-150.6743 1283.5728,-157.408"/>
</g>
<!-- Node41 -->
<g id="node42" class="node">
<title>Node41</title>
<polygon fill="none" stroke="#bfbfbf" points="1232,-134.5 1232,-153.5 1274,-153.5 1274,-134.5 1232,-134.5"/>
<text text-anchor="middle" x="1253" y="-141.5" font-family="Helvetica,sans-Serif" font-size="10.00" fill="#000000">array</text>
</g>
<!-- Node40&#45;&gt;Node41 -->
<g id="edge52" class="edge">
<title>Node40&#45;&gt;Node41</title>
<path fill="none" stroke="#191970" d="M1114.625,-195.8906C1143.8082,-184.9469 1191.4555,-167.0792 1222.5204,-155.4299"/>
<polygon fill="#191970" stroke="#191970" points="1223.8449,-158.6712 1231.9792,-151.8828 1221.387,-152.1169 1223.8449,-158.6712"/>
</g>
<!-- Node42 -->
<g id="node43" class="node">
<title>Node42</title>
<polygon fill="none" stroke="#bfbfbf" points="1030,-134.5 1030,-153.5 1118,-153.5 1118,-134.5 1030,-134.5"/>
<text text-anchor="middle" x="1074" y="-141.5" font-family="Helvetica,sans-Serif" font-size="10.00" fill="#000000">TGeoVolume.h</text>
</g>
<!-- Node40&#45;&gt;Node42 -->
<g id="edge54" class="edge">
<title>Node40&#45;&gt;Node42</title>
<path fill="none" stroke="#191970" d="M1086.6563,-195.8906C1084.5551,-187.276 1081.4075,-174.3708 1078.777,-163.5858"/>
<polygon fill="#191970" stroke="#191970" points="1082.1468,-162.6307 1076.3768,-153.7449 1075.3461,-164.2894 1082.1468,-162.6307"/>
</g>
<!-- Node43 -->
<g id="node44" class="node">
<title>Node43</title>
<polygon fill="none" stroke="#bfbfbf" points="1135.5,-134.5 1135.5,-153.5 1214.5,-153.5 1214.5,-134.5 1135.5,-134.5"/>
<text text-anchor="middle" x="1175" y="-141.5" font-family="Helvetica,sans-Serif" font-size="10.00" fill="#000000">TVirtualMC.h</text>
</g>
<!-- Node40&#45;&gt;Node43 -->
<g id="edge55" class="edge">
<title>Node40&#45;&gt;Node43</title>
<path fill="none" stroke="#191970" d="M1102.4375,-195.8906C1116.0695,-186.1421 1137.3846,-170.8994 1153.3922,-159.4521"/>
<polygon fill="#191970" stroke="#191970" points="1155.5586,-162.2057 1161.6569,-153.5419 1151.4868,-156.5118 1155.5586,-162.2057"/>
</g>
</g>
</svg>
