<?xml version="1.0" encoding="UTF-8" standalone="no"?>
<!DOCTYPE svg PUBLIC "-//W3C//DTD SVG 1.1//EN"
 "http://www.w3.org/Graphics/SVG/1.1/DTD/svg11.dtd">
<!-- Generated by graphviz version 2.40.1 (20161225.0304)
 -->
<!-- Title: /home/travis/build/AliceO2Group/AliceO2/Detectors/MUON/MCH/Simulation/src/Materials.cxx Pages: 1 -->
<!--zoomable 296 -->
<svg id="main" version="1.1" xmlns="http://www.w3.org/2000/svg" xmlns:xlink="http://www.w3.org/1999/xlink" xml:space="preserve" onload="init(evt)">
<style type="text/css"><![CDATA[
.edge:hover path { stroke: red; }
.edge:hover polygon { stroke: red; fill: red; }
]]></style>
<script type="text/javascript"><![CDATA[
var edges = document.getElementsByTagName('g');
if (edges && edges.length) {
  for (var i=0;i<edges.length;i++) {
    if (edges[i].id.substr(0,4)=='edge') {
      edges[i].setAttribute('class','edge');
    }
  }
}
]]></script>
        <defs>
                <circle id="rim" cx="0" cy="0" r="7"/>
                <circle id="rim2" cx="0" cy="0" r="3.5"/>
                <g id="zoomPlus">
                        <use xlink:href="#rim" fill="#404040">
                                <set attributeName="fill" to="#808080" begin="zoomplus.mouseover" end="zoomplus.mouseout"/>
                        </use>
                        <path d="M-4,0h8M0,-4v8" fill="none" stroke="white" stroke-width="1.5" pointer-events="none"/>
                </g>
                <g id="zoomMin">
                        <use xlink:href="#rim" fill="#404040">
                                <set attributeName="fill" to="#808080" begin="zoomminus.mouseover" end="zoomminus.mouseout"/>
                        </use>
                        <path d="M-4,0h8" fill="none" stroke="white" stroke-width="1.5" pointer-events="none"/>
                </g>
                <g id="dirArrow">
                        <path fill="none" stroke="white" stroke-width="1.5" d="M0,-3.0v7 M-2.5,-0.5L0,-3.0L2.5,-0.5"/>
                </g>
               <g id="resetDef">
                       <use xlink:href="#rim2" fill="#404040">
                               <set attributeName="fill" to="#808080" begin="reset.mouseover" end="reset.mouseout"/>
                       </use>
               </g>
        </defs>

<script type="text/javascript">
var viewWidth = 1615;
var viewHeight = 296;
var sectionId = 'dynsection-0';
</script>
<script xlink:href="../../svgpan.js"/>
<svg id="graph" class="graph">
<g id="viewport">
<title>/home/travis/build/AliceO2Group/AliceO2/Detectors/MUON/MCH/Simulation/src/Materials.cxx</title>
<!-- Node0 -->
<g id="node1" class="node">
<title>Node0</title>
<polygon fill="#bfbfbf" stroke="#000000" points="819,-235.5 819,-287.5 1001,-287.5 1001,-235.5 819,-235.5"/>
<text text-anchor="start" x="827" y="-275.5" font-family="Helvetica,sans-Serif" font-size="10.00" fill="#000000">/home/travis/build</text>
<text text-anchor="start" x="827" y="-264.5" font-family="Helvetica,sans-Serif" font-size="10.00" fill="#000000">/AliceO2Group/AliceO2</text>
<text text-anchor="start" x="827" y="-253.5" font-family="Helvetica,sans-Serif" font-size="10.00" fill="#000000">/Detectors/MUON/MCH/Simulation</text>
<text text-anchor="middle" x="910" y="-242.5" font-family="Helvetica,sans-Serif" font-size="10.00" fill="#000000">/src/Materials.cxx</text>
</g>
<!-- Node1 -->
<g id="node2" class="node">
<title>Node1</title>
<g id="a_node2"><a xlink:href="../../d4/dfa/MCH_2Simulation_2src_2Materials_8h.html" target="_top" xlink:title="Materials.h">
<polygon fill="none" stroke="#000000" points="412.5,-179.5 412.5,-198.5 483.5,-198.5 483.5,-179.5 412.5,-179.5"/>
<text text-anchor="middle" x="448" y="-186.5" font-family="Helvetica,sans-Serif" font-size="10.00" fill="#000000">Materials.h</text>
</a>
</g>
</g>
<!-- Node0&#45;&gt;Node1 -->
<g id="edge1" class="edge">
<title>Node0&#45;&gt;Node1</title>
<path fill="none" stroke="#191970" d="M818.9994,-247.2196C721.0821,-231.8538 569.2804,-208.0321 493.8197,-196.1903"/>
<polygon fill="#191970" stroke="#191970" points="494.1138,-192.6937 483.6921,-194.601 493.0285,-199.6091 494.1138,-192.6937"/>
</g>
<!-- Node3 -->
<g id="node4" class="node">
<title>Node3</title>
<g id="a_node4"><a xlink:href="../../d1/d3a/Base_2include_2DetectorsBase_2Detector_8h.html" target="_top" xlink:title="DetectorsBase/Detector.h">
<polygon fill="none" stroke="#000000" points="839.5,-179.5 839.5,-198.5 980.5,-198.5 980.5,-179.5 839.5,-179.5"/>
<text text-anchor="middle" x="910" y="-186.5" font-family="Helvetica,sans-Serif" font-size="10.00" fill="#000000">DetectorsBase/Detector.h</text>
</a>
</g>
</g>
<!-- Node0&#45;&gt;Node3 -->
<g id="edge3" class="edge">
<title>Node0&#45;&gt;Node3</title>
<path fill="none" stroke="#191970" d="M910,-235.3258C910,-226.5142 910,-216.8397 910,-208.621"/>
<polygon fill="#191970" stroke="#191970" points="913.5001,-208.534 910,-198.534 906.5001,-208.534 913.5001,-208.534"/>
</g>
<!-- Node10 -->
<g id="node11" class="node">
<title>Node10</title>
<g id="a_node11"><a xlink:href="../../d0/d9a/MaterialManager_8h.html" target="_top" xlink:title="DetectorsBase/MaterialManager.h">
<polygon fill="none" stroke="#000000" points="1395.5,-123.5 1395.5,-142.5 1576.5,-142.5 1576.5,-123.5 1395.5,-123.5"/>
<text text-anchor="middle" x="1486" y="-130.5" font-family="Helvetica,sans-Serif" font-size="10.00" fill="#000000">DetectorsBase/MaterialManager.h</text>
</a>
</g>
</g>
<!-- Node0&#45;&gt;Node10 -->
<g id="edge33" class="edge">
<title>Node0&#45;&gt;Node10</title>
<path fill="none" stroke="#191970" d="M1001.2689,-241.1388C1123.207,-213.9356 1335.2737,-166.6256 1433.4046,-144.7335"/>
<polygon fill="#191970" stroke="#191970" points="1434.3878,-148.1003 1443.3858,-142.5068 1432.8636,-141.2682 1434.3878,-148.1003"/>
</g>
<!-- Node2 -->
<g id="node3" class="node">
<title>Node2</title>
<polygon fill="none" stroke="#bfbfbf" points="0,-123.5 0,-142.5 90,-142.5 90,-123.5 0,-123.5"/>
<text text-anchor="middle" x="45" y="-130.5" font-family="Helvetica,sans-Serif" font-size="10.00" fill="#000000">TGeoMedium.h</text>
</g>
<!-- Node1&#45;&gt;Node2 -->
<g id="edge2" class="edge">
<title>Node1&#45;&gt;Node2</title>
<path fill="none" stroke="#191970" d="M412.4908,-184.939C351.0288,-177.7757 220.6215,-161.9876 100.1831,-143.1223"/>
<polygon fill="#191970" stroke="#191970" points="100.4743,-139.625 90.051,-141.5241 99.3835,-146.5396 100.4743,-139.625"/>
</g>
<!-- Node4 -->
<g id="node5" class="node">
<title>Node4</title>
<polygon fill="none" stroke="#bfbfbf" points="1362,-67.5 1362,-86.5 1400,-86.5 1400,-67.5 1362,-67.5"/>
<text text-anchor="middle" x="1381" y="-74.5" font-family="Helvetica,sans-Serif" font-size="10.00" fill="#000000">map</text>
</g>
<!-- Node3&#45;&gt;Node4 -->
<g id="edge4" class="edge">
<title>Node3&#45;&gt;Node4</title>
<path fill="none" stroke="#191970" d="M980.5047,-185.2928C1096.682,-178.6399 1318.5,-163.4383 1348,-143 1363.5916,-132.1978 1372.1866,-111.8132 1376.6628,-96.544"/>
<polygon fill="#191970" stroke="#191970" points="1380.1345,-97.0965 1379.2353,-86.5399 1373.355,-95.3531 1380.1345,-97.0965"/>
</g>
<!-- Node5 -->
<g id="node6" class="node">
<title>Node5</title>
<polygon fill="none" stroke="#bfbfbf" points="1215.5,-123.5 1215.5,-142.5 1262.5,-142.5 1262.5,-123.5 1215.5,-123.5"/>
<text text-anchor="middle" x="1239" y="-130.5" font-family="Helvetica,sans-Serif" font-size="10.00" fill="#000000">vector</text>
</g>
<!-- Node3&#45;&gt;Node5 -->
<g id="edge5" class="edge">
<title>Node3&#45;&gt;Node5</title>
<path fill="none" stroke="#191970" d="M980.6287,-179.8613C1039.7842,-171.7233 1126.2919,-158.6933 1201,-143 1202.4604,-142.6932 1203.9487,-142.3659 1205.4494,-142.0237"/>
<polygon fill="#191970" stroke="#191970" points="1206.4809,-145.3749 1215.3708,-139.6112 1204.8269,-138.5731 1206.4809,-145.3749"/>
</g>
<!-- Node6 -->
<g id="node7" class="node">
<title>Node6</title>
<polygon fill="none" stroke="#bfbfbf" points="1129.5,-67.5 1129.5,-86.5 1212.5,-86.5 1212.5,-67.5 1129.5,-67.5"/>
<text text-anchor="middle" x="1171" y="-74.5" font-family="Helvetica,sans-Serif" font-size="10.00" fill="#000000">initializer_list</text>
</g>
<!-- Node3&#45;&gt;Node6 -->
<g id="edge6" class="edge">
<title>Node3&#45;&gt;Node6</title>
<path fill="none" stroke="#191970" d="M980.5055,-182.6491C1020.0374,-176.7043 1069.0711,-165.2098 1108,-143 1128.9327,-131.0574 1147.2359,-109.9991 1158.6418,-94.8781"/>
<polygon fill="#191970" stroke="#191970" points="1161.4826,-96.9226 1164.5281,-86.7749 1155.8191,-92.8085 1161.4826,-96.9226"/>
</g>
<!-- Node7 -->
<g id="node8" class="node">
<title>Node7</title>
<polygon fill="none" stroke="#bfbfbf" points="1281,-123.5 1281,-142.5 1339,-142.5 1339,-123.5 1281,-123.5"/>
<text text-anchor="middle" x="1310" y="-130.5" font-family="Helvetica,sans-Serif" font-size="10.00" fill="#000000">memory</text>
</g>
<!-- Node3&#45;&gt;Node7 -->
<g id="edge7" class="edge">
<title>Node3&#45;&gt;Node7</title>
<path fill="none" stroke="#191970" d="M980.5076,-182.7986C1051.5609,-175.9255 1164.4722,-163.3034 1270.7012,-143.0543"/>
<polygon fill="#191970" stroke="#191970" points="1271.475,-146.4696 1280.6291,-141.1355 1270.1466,-139.5968 1271.475,-146.4696"/>
</g>
<!-- Node8 -->
<g id="node9" class="node">
<title>Node8</title>
<polygon fill="none" stroke="#bfbfbf" points="108,-123.5 108,-142.5 192,-142.5 192,-123.5 108,-123.5"/>
<text text-anchor="middle" x="150" y="-130.5" font-family="Helvetica,sans-Serif" font-size="10.00" fill="#000000">FairDetector.h</text>
</g>
<!-- Node3&#45;&gt;Node8 -->
<g id="edge8" class="edge">
<title>Node3&#45;&gt;Node8</title>
<path fill="none" stroke="#191970" d="M839.266,-187.4253C713.1943,-183.9588 441.2519,-173.4988 202.4991,-143.0407"/>
<polygon fill="#191970" stroke="#191970" points="202.5979,-139.5245 192.2321,-141.7158 201.7019,-146.467 202.5979,-139.5245"/>
</g>
<!-- Node9 -->
<g id="node10" class="node">
<title>Node9</title>
<polygon fill="none" stroke="#bfbfbf" points="210,-123.5 210,-142.5 316,-142.5 316,-123.5 210,-123.5"/>
<text text-anchor="middle" x="263" y="-130.5" font-family="Helvetica,sans-Serif" font-size="10.00" fill="#000000">FairRootManager.h</text>
</g>
<!-- Node3&#45;&gt;Node9 -->
<g id="edge9" class="edge">
<title>Node3&#45;&gt;Node9</title>
<path fill="none" stroke="#191970" d="M839.1273,-185.2944C730.7909,-179.2167 517.3127,-165.6138 326.0172,-143.0353"/>
<polygon fill="#191970" stroke="#191970" points="326.4036,-139.5567 316.0598,-141.8494 325.5757,-146.5076 326.4036,-139.5567"/>
</g>
<!-- Node3&#45;&gt;Node10 -->
<g id="edge10" class="edge">
<title>Node3&#45;&gt;Node10</title>
<path fill="none" stroke="#191970" d="M980.6289,-182.1333C1081.9621,-172.2815 1269.131,-154.0845 1385.0499,-142.8146"/>
<polygon fill="#191970" stroke="#191970" points="1385.7322,-146.2649 1395.3465,-141.8135 1385.0548,-139.2977 1385.7322,-146.2649"/>
</g>
<!-- Node11 -->
<g id="node12" class="node">
<title>Node11</title>
<polygon fill="none" stroke="#bfbfbf" points="1253.5,-67.5 1253.5,-86.5 1312.5,-86.5 1312.5,-67.5 1253.5,-67.5"/>
<text text-anchor="middle" x="1283" y="-74.5" font-family="Helvetica,sans-Serif" font-size="10.00" fill="#000000">Rtypes.h</text>
</g>
<!-- Node3&#45;&gt;Node11 -->
<g id="edge16" class="edge">
<title>Node3&#45;&gt;Node11</title>
<path fill="none" stroke="#191970" d="M974.664,-179.4985C1019.9208,-171.9375 1081.4428,-159.8216 1134,-143 1177.8183,-128.9754 1226.0906,-106.1367 1255.4773,-91.3408"/>
<polygon fill="#191970" stroke="#191970" points="1257.3599,-94.31 1264.6854,-86.6558 1254.1855,-88.0711 1257.3599,-94.31"/>
</g>
<!-- Node14 -->
<g id="node15" class="node">
<title>Node14</title>
<polygon fill="none" stroke="#bfbfbf" points="334,-123.5 334,-142.5 392,-142.5 392,-123.5 334,-123.5"/>
<text text-anchor="middle" x="363" y="-130.5" font-family="Helvetica,sans-Serif" font-size="10.00" fill="#000000">cxxabi.h</text>
</g>
<!-- Node3&#45;&gt;Node14 -->
<g id="edge17" class="edge">
<title>Node3&#45;&gt;Node14</title>
<path fill="none" stroke="#191970" d="M839.1106,-186.3367C742.3395,-181.8707 563.4311,-170.6573 402.4388,-143.0014"/>
<polygon fill="#191970" stroke="#191970" points="402.8037,-139.5123 392.3511,-141.2426 401.6013,-146.4083 402.8037,-139.5123"/>
</g>
<!-- Node15 -->
<g id="node16" class="node">
<title>Node15</title>
<polygon fill="none" stroke="#bfbfbf" points="410.5,-123.5 410.5,-142.5 467.5,-142.5 467.5,-123.5 410.5,-123.5"/>
<text text-anchor="middle" x="439" y="-130.5" font-family="Helvetica,sans-Serif" font-size="10.00" fill="#000000">typeinfo</text>
</g>
<!-- Node3&#45;&gt;Node15 -->
<g id="edge18" class="edge">
<title>Node3&#45;&gt;Node15</title>
<path fill="none" stroke="#191970" d="M839.2193,-184.9517C755.0026,-179.3622 610.092,-167.3081 477.5094,-143.0487"/>
<polygon fill="#191970" stroke="#191970" points="478.051,-139.5895 467.58,-141.2044 476.7727,-146.4718 478.051,-139.5895"/>
</g>
<!-- Node16 -->
<g id="node17" class="node">
<title>Node16</title>
<polygon fill="none" stroke="#bfbfbf" points="485.5,-123.5 485.5,-142.5 554.5,-142.5 554.5,-123.5 485.5,-123.5"/>
<text text-anchor="middle" x="520" y="-130.5" font-family="Helvetica,sans-Serif" font-size="10.00" fill="#000000">type_traits</text>
</g>
<!-- Node3&#45;&gt;Node16 -->
<g id="edge19" class="edge">
<title>Node3&#45;&gt;Node16</title>
<path fill="none" stroke="#191970" d="M839.4637,-181.5329C771.5965,-173.9142 665.9119,-160.9151 564.6282,-142.9693"/>
<polygon fill="#191970" stroke="#191970" points="564.9867,-139.4779 554.5263,-141.1601 563.7526,-146.3682 564.9867,-139.4779"/>
</g>
<!-- Node17 -->
<g id="node18" class="node">
<title>Node17</title>
<polygon fill="none" stroke="#bfbfbf" points="573,-123.5 573,-142.5 617,-142.5 617,-123.5 573,-123.5"/>
<text text-anchor="middle" x="595" y="-130.5" font-family="Helvetica,sans-Serif" font-size="10.00" fill="#000000">string</text>
</g>
<!-- Node3&#45;&gt;Node17 -->
<g id="edge20" class="edge">
<title>Node3&#45;&gt;Node17</title>
<path fill="none" stroke="#191970" d="M839.3837,-180.5874C783.9319,-173.2891 704.6906,-161.3375 627.1712,-143.0056"/>
<polygon fill="#191970" stroke="#191970" points="627.7772,-139.5517 617.2362,-140.6183 626.1416,-146.3579 627.7772,-139.5517"/>
</g>
<!-- Node18 -->
<g id="node19" class="node">
<title>Node18</title>
<polygon fill="none" stroke="#bfbfbf" points="635,-123.5 635,-142.5 709,-142.5 709,-123.5 635,-123.5"/>
<text text-anchor="middle" x="672" y="-130.5" font-family="Helvetica,sans-Serif" font-size="10.00" fill="#000000">TMessage.h</text>
</g>
<!-- Node3&#45;&gt;Node18 -->
<g id="edge21" class="edge">
<title>Node3&#45;&gt;Node18</title>
<path fill="none" stroke="#191970" d="M869.3568,-179.4369C827.7251,-169.6412 763.0606,-154.426 719.192,-144.104"/>
<polygon fill="#191970" stroke="#191970" points="719.8756,-140.6693 709.3398,-141.7858 718.2723,-147.4833 719.8756,-140.6693"/>
</g>
<!-- Node19 -->
<g id="node20" class="node">
<title>Node19</title>
<g id="a_node20"><a xlink:href="../../de/d61/ShmManager_8h.html" target="_top" xlink:title="CommonUtils/ShmManager.h">
<polygon fill="none" stroke="#000000" points="712,-67.5 712,-86.5 870,-86.5 870,-67.5 712,-67.5"/>
<text text-anchor="middle" x="791" y="-74.5" font-family="Helvetica,sans-Serif" font-size="10.00" fill="#000000">CommonUtils/ShmManager.h</text>
</a>
</g>
</g>
<!-- Node3&#45;&gt;Node19 -->
<g id="edge22" class="edge">
<title>Node3&#45;&gt;Node19</title>
<path fill="none" stroke="#191970" d="M853.8474,-179.4591C814.9009,-171.5649 767.9605,-159.0553 756,-143 744.4938,-127.5546 758.1138,-107.8199 771.5813,-93.9694"/>
<polygon fill="#191970" stroke="#191970" points="774.1046,-96.3986 778.8871,-86.9446 769.2529,-91.3528 774.1046,-96.3986"/>
</g>
<!-- Node24 -->
<g id="node25" class="node">
<title>Node24</title>
<g id="a_node25"><a xlink:href="../../d0/d91/ShmAllocator_8h.html" target="_top" xlink:title="CommonUtils/ShmAllocator.h">
<polygon fill="none" stroke="#000000" points="765,-123.5 765,-142.5 925,-142.5 925,-123.5 765,-123.5"/>
<text text-anchor="middle" x="845" y="-130.5" font-family="Helvetica,sans-Serif" font-size="10.00" fill="#000000">CommonUtils/ShmAllocator.h</text>
</a>
</g>
</g>
<!-- Node3&#45;&gt;Node24 -->
<g id="edge27" class="edge">
<title>Node3&#45;&gt;Node24</title>
<path fill="none" stroke="#191970" d="M898.6779,-179.2455C889.0777,-170.9746 875.1108,-158.9416 863.8305,-149.2232"/>
<polygon fill="#191970" stroke="#191970" points="866.053,-146.5182 856.1924,-142.6427 861.484,-151.8214 866.053,-146.5182"/>
</g>
<!-- Node25 -->
<g id="node26" class="node">
<title>Node25</title>
<polygon fill="none" stroke="#bfbfbf" points="985,-67.5 985,-86.5 1037,-86.5 1037,-67.5 985,-67.5"/>
<text text-anchor="middle" x="1011" y="-74.5" font-family="Helvetica,sans-Serif" font-size="10.00" fill="#000000">cassert</text>
</g>
<!-- Node3&#45;&gt;Node25 -->
<g id="edge32" class="edge">
<title>Node3&#45;&gt;Node25</title>
<path fill="none" stroke="#191970" d="M980.5779,-180.1563C1025.6232,-172.897 1078.0836,-160.8713 1092,-143 1109.3225,-120.7546 1075.7515,-101.1922 1046.7012,-89.2552"/>
<polygon fill="#191970" stroke="#191970" points="1047.6908,-85.8843 1037.1027,-85.5064 1045.1442,-92.4046 1047.6908,-85.8843"/>
</g>
<!-- Node26 -->
<g id="node27" class="node">
<title>Node26</title>
<polygon fill="none" stroke="#bfbfbf" points="943,-123.5 943,-142.5 1009,-142.5 1009,-123.5 943,-123.5"/>
<text text-anchor="middle" x="976" y="-130.5" font-family="Helvetica,sans-Serif" font-size="10.00" fill="#000000">sys/shm.h</text>
</g>
<!-- Node3&#45;&gt;Node26 -->
<g id="edge30" class="edge">
<title>Node3&#45;&gt;Node26</title>
<path fill="none" stroke="#191970" d="M921.4963,-179.2455C931.2442,-170.9746 945.4259,-158.9416 956.8798,-149.2232"/>
<polygon fill="#191970" stroke="#191970" points="959.2747,-151.7813 964.6354,-142.6427 954.7459,-146.4437 959.2747,-151.7813"/>
</g>
<!-- Node27 -->
<g id="node28" class="node">
<title>Node27</title>
<polygon fill="none" stroke="#bfbfbf" points="1027,-123.5 1027,-142.5 1083,-142.5 1083,-123.5 1027,-123.5"/>
<text text-anchor="middle" x="1055" y="-130.5" font-family="Helvetica,sans-Serif" font-size="10.00" fill="#000000">unistd.h</text>
</g>
<!-- Node3&#45;&gt;Node27 -->
<g id="edge31" class="edge">
<title>Node3&#45;&gt;Node27</title>
<path fill="none" stroke="#191970" d="M934.9264,-179.3733C958.6202,-170.2226 994.4511,-156.3844 1020.8068,-146.2057"/>
<polygon fill="#191970" stroke="#191970" points="1022.3314,-149.3689 1030.3989,-142.5011 1019.8094,-142.8389 1022.3314,-149.3689"/>
</g>
<!-- Node10&#45;&gt;Node4 -->
<g id="edge12" class="edge">
<title>Node10&#45;&gt;Node4</title>
<path fill="none" stroke="#191970" d="M1467.7104,-123.2455C1451.2238,-114.4527 1426.7648,-101.4079 1408.0235,-91.4125"/>
<polygon fill="#191970" stroke="#191970" points="1409.5506,-88.2604 1399.08,-86.6427 1406.2565,-94.4368 1409.5506,-88.2604"/>
</g>
<!-- Node10&#45;&gt;Node6 -->
<g id="edge14" class="edge">
<title>Node10&#45;&gt;Node6</title>
<path fill="none" stroke="#191970" d="M1432.2075,-123.4369C1373.5265,-113.0047 1280.2706,-96.4259 1222.5066,-86.1567"/>
<polygon fill="#191970" stroke="#191970" points="1222.9591,-82.6824 1212.5009,-84.3779 1221.7338,-89.5743 1222.9591,-82.6824"/>
</g>
<!-- Node10&#45;&gt;Node11 -->
<g id="edge11" class="edge">
<title>Node10&#45;&gt;Node11</title>
<path fill="none" stroke="#191970" d="M1451.1031,-123.3733C1415.3546,-113.5116 1359.8712,-98.2059 1322.5247,-87.9034"/>
<polygon fill="#191970" stroke="#191970" points="1323.0742,-84.4243 1312.5035,-85.1389 1321.2127,-91.1722 1323.0742,-84.4243"/>
</g>
<!-- Node12 -->
<g id="node13" class="node">
<title>Node12</title>
<polygon fill="none" stroke="#bfbfbf" points="1513.5,-67.5 1513.5,-86.5 1606.5,-86.5 1606.5,-67.5 1513.5,-67.5"/>
<text text-anchor="middle" x="1560" y="-74.5" font-family="Helvetica,sans-Serif" font-size="10.00" fill="#000000">unordered_map</text>
</g>
<!-- Node10&#45;&gt;Node12 -->
<g id="edge13" class="edge">
<title>Node10&#45;&gt;Node12</title>
<path fill="none" stroke="#191970" d="M1498.8898,-123.2455C1509.9254,-114.8943 1526.0292,-102.7076 1538.9353,-92.9408"/>
<polygon fill="#191970" stroke="#191970" points="1541.3959,-95.4681 1547.2579,-86.6427 1537.1717,-89.8862 1541.3959,-95.4681"/>
</g>
<!-- Node13 -->
<g id="node14" class="node">
<title>Node13</title>
<polygon fill="none" stroke="#bfbfbf" points="1446.5,-67.5 1446.5,-86.5 1495.5,-86.5 1495.5,-67.5 1446.5,-67.5"/>
<text text-anchor="middle" x="1471" y="-74.5" font-family="Helvetica,sans-Serif" font-size="10.00" fill="#000000">iosfwd</text>
</g>
<!-- Node10&#45;&gt;Node13 -->
<g id="edge15" class="edge">
<title>Node10&#45;&gt;Node13</title>
<path fill="none" stroke="#191970" d="M1483.3872,-123.2455C1481.4084,-115.8579 1478.6256,-105.4689 1476.1988,-96.4087"/>
<polygon fill="#191970" stroke="#191970" points="1479.5511,-95.3966 1473.5829,-86.6427 1472.7895,-97.2078 1479.5511,-95.3966"/>
</g>
<!-- Node20 -->
<g id="node21" class="node">
<title>Node20</title>
<polygon fill="none" stroke="#bfbfbf" points="651,-6 651,-25 683,-25 683,-6 651,-6"/>
<text text-anchor="middle" x="667" y="-13" font-family="Helvetica,sans-Serif" font-size="10.00" fill="#000000">list</text>
</g>
<!-- Node19&#45;&gt;Node20 -->
<g id="edge23" class="edge">
<title>Node19&#45;&gt;Node20</title>
<path fill="none" stroke="#191970" d="M768.2095,-67.3418C747.8951,-58.5146 717.5167,-44.774 692,-31 691.5843,-30.7756 691.166,-30.5472 690.7459,-30.3154"/>
<polygon fill="#191970" stroke="#191970" points="692.2977,-27.1683 681.8985,-25.1414 688.7639,-33.2109 692.2977,-27.1683"/>
</g>
<!-- Node21 -->
<g id="node22" class="node">
<title>Node21</title>
<polygon fill="none" stroke="#bfbfbf" points="701.5,-6 701.5,-25 754.5,-25 754.5,-6 701.5,-6"/>
<text text-anchor="middle" x="728" y="-13" font-family="Helvetica,sans-Serif" font-size="10.00" fill="#000000">cstddef</text>
</g>
<!-- Node19&#45;&gt;Node21 -->
<g id="edge24" class="edge">
<title>Node19&#45;&gt;Node21</title>
<path fill="none" stroke="#191970" d="M781.1563,-67.3906C771.5961,-58.0581 756.8777,-43.6902 745.3505,-32.4374"/>
<polygon fill="#191970" stroke="#191970" points="747.5832,-29.7257 737.9825,-25.2449 742.6934,-34.7348 747.5832,-29.7257"/>
</g>
<!-- Node22 -->
<g id="node23" class="node">
<title>Node22</title>
<polygon fill="none" stroke="#bfbfbf" points="772.5,-.5 772.5,-30.5 937.5,-30.5 937.5,-.5 772.5,-.5"/>
<text text-anchor="start" x="780.5" y="-18.5" font-family="Helvetica,sans-Serif" font-size="10.00" fill="#000000">boost/interprocess</text>
<text text-anchor="middle" x="855" y="-7.5" font-family="Helvetica,sans-Serif" font-size="10.00" fill="#000000">/managed_external_buffer.hpp</text>
</g>
<!-- Node19&#45;&gt;Node22 -->
<g id="edge25" class="edge">
<title>Node19&#45;&gt;Node22</title>
<path fill="none" stroke="#191970" d="M801,-67.3906C809.2606,-59.4527 821.3122,-47.8718 831.9355,-37.6635"/>
<polygon fill="#191970" stroke="#191970" points="834.5584,-39.9971 839.3438,-30.5446 829.7082,-34.9498 834.5584,-39.9971"/>
</g>
<!-- Node23 -->
<g id="node24" class="node">
<title>Node23</title>
<polygon fill="none" stroke="#bfbfbf" points="956,-.5 956,-30.5 1090,-30.5 1090,-.5 956,-.5"/>
<text text-anchor="start" x="964" y="-18.5" font-family="Helvetica,sans-Serif" font-size="10.00" fill="#000000">boost/interprocess</text>
<text text-anchor="middle" x="1023" y="-7.5" font-family="Helvetica,sans-Serif" font-size="10.00" fill="#000000">/allocators/allocator.hpp</text>
</g>
<!-- Node19&#45;&gt;Node23 -->
<g id="edge26" class="edge">
<title>Node19&#45;&gt;Node23</title>
<path fill="none" stroke="#191970" d="M826.9954,-67.4581C861.4013,-58.3376 914.1154,-44.3638 956.2135,-33.2042"/>
<polygon fill="#191970" stroke="#191970" points="957.3495,-36.524 966.1188,-30.5784 955.5558,-29.7577 957.3495,-36.524"/>
</g>
<!-- Node24&#45;&gt;Node19 -->
<g id="edge28" class="edge">
<title>Node24&#45;&gt;Node19</title>
<path fill="none" stroke="#191970" d="M835.5939,-123.2455C827.8507,-115.2155 816.688,-103.6394 807.4682,-94.0781"/>
<polygon fill="#191970" stroke="#191970" points="809.7591,-91.4117 800.2983,-86.6427 804.7202,-96.2706 809.7591,-91.4117"/>
</g>
<!-- Node24&#45;&gt;Node25 -->
<g id="edge29" class="edge">
<title>Node24&#45;&gt;Node25</title>
<path fill="none" stroke="#191970" d="M873.5364,-123.3733C901.6032,-113.9049 944.5462,-99.4182 974.9562,-89.1594"/>
<polygon fill="#191970" stroke="#191970" points="976.3925,-92.3687 984.7491,-85.8557 974.1549,-85.7359 976.3925,-92.3687"/>
</g>
</g>
</svg>
        <g id="navigator" transform="translate(0 0)" fill="#404254">
                <rect fill="#f2f5e9" fill-opacity="0.5" stroke="#606060" stroke-width=".5" x="0" y="0" width="60" height="60"/>
                <use id="zoomplus" xlink:href="#zoomPlus" x="17" y="9" onmousedown="handleZoom(evt,'in')"/>
                <use id="zoomminus" xlink:href="#zoomMin" x="42" y="9" onmousedown="handleZoom(evt,'out')"/>
                <use id="reset" xlink:href="#resetDef" x="30" y="36" onmousedown="handleReset()"/>
                <g id="arrowUp" xlink:href="#dirArrow" transform="translate(30 24)" onmousedown="handlePan(0,-1)">
                  <use xlink:href="#rim" fill="#404040">
                        <set attributeName="fill" to="#808080" begin="arrowUp.mouseover" end="arrowUp.mouseout"/>
                  </use>
                  <path fill="none" stroke="white" stroke-width="1.5" d="M0,-3.0v7 M-2.5,-0.5L0,-3.0L2.5,-0.5"/>
                </g>
                <g id="arrowRight" xlink:href="#dirArrow" transform="rotate(90) translate(36 -43)" onmousedown="handlePan(1,0)">
                  <use xlink:href="#rim" fill="#404040">
                        <set attributeName="fill" to="#808080" begin="arrowRight.mouseover" end="arrowRight.mouseout"/>
                  </use>
                  <path fill="none" stroke="white" stroke-width="1.5" d="M0,-3.0v7 M-2.5,-0.5L0,-3.0L2.5,-0.5"/>
                </g>
                <g id="arrowDown" xlink:href="#dirArrow" transform="rotate(180) translate(-30 -48)" onmousedown="handlePan(0,1)">
                  <use xlink:href="#rim" fill="#404040">
                        <set attributeName="fill" to="#808080" begin="arrowDown.mouseover" end="arrowDown.mouseout"/>
                  </use>
                  <path fill="none" stroke="white" stroke-width="1.5" d="M0,-3.0v7 M-2.5,-0.5L0,-3.0L2.5,-0.5"/>
                </g>
                <g id="arrowLeft" xlink:href="#dirArrow" transform="rotate(270) translate(-36 17)" onmousedown="handlePan(-1,0)">
                  <use xlink:href="#rim" fill="#404040">
                        <set attributeName="fill" to="#808080" begin="arrowLeft.mouseover" end="arrowLeft.mouseout"/>
                  </use>
                  <path fill="none" stroke="white" stroke-width="1.5" d="M0,-3.0v7 M-2.5,-0.5L0,-3.0L2.5,-0.5"/>
                </g>
        </g>
        <svg viewBox="0 0 15 15" width="100%" height="30px" preserveAspectRatio="xMaxYMin meet">
         <g id="arrow_out" transform="scale(0.3 0.3)">
          <a xlink:href="MCH_2Simulation_2src_2Materials_8cxx__incl_org.svg" target="_base">
           <rect id="button" ry="5" rx="5" y="6" x="6" height="38" width="38"
                fill="#f2f5e9" fill-opacity="0.5" stroke="#606060" stroke-width="1.0"/>
           <path id="arrow"
             d="M 11.500037,31.436501 C 11.940474,20.09759 22.043105,11.32322 32.158766,21.979434 L 37.068811,17.246167 C 37.068811,17.246167 37.088388,32 37.088388,32 L 22.160133,31.978069 C 22.160133,31.978069 26.997745,27.140456 26.997745,27.140456 C 18.528582,18.264221 13.291696,25.230495 11.500037,31.436501 z"
             style="fill:#404040;"/>
          </a>
         </g>
        </svg>
</svg>
