<?xml version="1.0" encoding="UTF-8" standalone="no"?>
<!DOCTYPE svg PUBLIC "-//W3C//DTD SVG 1.1//EN"
 "http://www.w3.org/Graphics/SVG/1.1/DTD/svg11.dtd">
<!-- Generated by graphviz version 2.40.1 (20161225.0304)
 -->
<!-- Title: /home/travis/build/AliceO2Group/AliceO2/DataFormats/Detectors/Common/include/DetectorsCommonDataFormats/DetMatrixCache.h Pages: 1 -->
<svg width="2274pt" height="385pt"
 viewBox="0.00 0.00 2273.50 385.00" xmlns="http://www.w3.org/2000/svg" xmlns:xlink="http://www.w3.org/1999/xlink">
<g id="graph0" class="graph" transform="scale(1 1) rotate(0) translate(4 381)">
<title>/home/travis/build/AliceO2Group/AliceO2/DataFormats/Detectors/Common/include/DetectorsCommonDataFormats/DetMatrixCache.h</title>
<!-- Node0 -->
<g id="node1" class="node">
<title>Node0</title>
<polygon fill="#bfbfbf" stroke="#000000" points="783.5,-313.5 783.5,-376.5 980.5,-376.5 980.5,-313.5 783.5,-313.5"/>
<text text-anchor="start" x="791.5" y="-364.5" font-family="Helvetica,sans-Serif" font-size="10.00" fill="#000000">/home/travis/build</text>
<text text-anchor="start" x="791.5" y="-353.5" font-family="Helvetica,sans-Serif" font-size="10.00" fill="#000000">/AliceO2Group/AliceO2</text>
<text text-anchor="start" x="791.5" y="-342.5" font-family="Helvetica,sans-Serif" font-size="10.00" fill="#000000">/DataFormats/Detectors</text>
<text text-anchor="start" x="791.5" y="-331.5" font-family="Helvetica,sans-Serif" font-size="10.00" fill="#000000">/Common/include/DetectorsCommon</text>
<text text-anchor="middle" x="882" y="-320.5" font-family="Helvetica,sans-Serif" font-size="10.00" fill="#000000">DataFormats/DetMatrixCache.h</text>
</g>
<!-- Node1 -->
<g id="node2" class="node">
<title>Node1</title>
<g id="a_node2"><a xlink:href="../../df/d5b/GPUCommonLogger_8h.html" target="_top" xlink:title="GPUCommonLogger.h">
<polygon fill="none" stroke="#000000" points="128.5,-252 128.5,-271 251.5,-271 251.5,-252 128.5,-252"/>
<text text-anchor="middle" x="190" y="-259" font-family="Helvetica,sans-Serif" font-size="10.00" fill="#000000">GPUCommonLogger.h</text>
</a>
</g>
</g>
<!-- Node0&#45;&gt;Node1 -->
<g id="edge1" class="edge">
<title>Node0&#45;&gt;Node1</title>
<path fill="none" stroke="#191970" d="M783.221,-333.0809C642.1098,-316.0537 386.1602,-285.1696 261.747,-270.1573"/>
<polygon fill="#191970" stroke="#191970" points="261.9189,-266.6528 251.5716,-268.9295 261.0803,-273.6024 261.9189,-266.6528"/>
</g>
<!-- Node4 -->
<g id="node5" class="node">
<title>Node4</title>
<g id="a_node5"><a xlink:href="../../d2/d45/GPUCommonRtypes_8h.html" target="_top" xlink:title="GPUCommonRtypes.h">
<polygon fill="none" stroke="#000000" points="865.5,-252 865.5,-271 990.5,-271 990.5,-252 865.5,-252"/>
<text text-anchor="middle" x="928" y="-259" font-family="Helvetica,sans-Serif" font-size="10.00" fill="#000000">GPUCommonRtypes.h</text>
</a>
</g>
</g>
<!-- Node0&#45;&gt;Node4 -->
<g id="edge4" class="edge">
<title>Node0&#45;&gt;Node4</title>
<path fill="none" stroke="#191970" d="M899.3906,-313.4322C905.5731,-302.2097 912.3314,-289.9419 917.7264,-280.1489"/>
<polygon fill="#191970" stroke="#191970" points="920.8353,-281.7589 922.595,-271.3112 914.7042,-278.3812 920.8353,-281.7589"/>
</g>
<!-- Node6 -->
<g id="node7" class="node">
<title>Node6</title>
<polygon fill="none" stroke="#bfbfbf" points="764,-118 764,-137 806,-137 806,-118 764,-118"/>
<text text-anchor="middle" x="785" y="-125" font-family="Helvetica,sans-Serif" font-size="10.00" fill="#000000">array</text>
</g>
<!-- Node0&#45;&gt;Node6 -->
<g id="edge6" class="edge">
<title>Node0&#45;&gt;Node6</title>
<path fill="none" stroke="#191970" d="M864.6069,-313.3612C850.1099,-286.3444 829.4131,-246.2213 814,-210 805.0275,-188.9142 796.5542,-164.0135 791.1105,-147.1264"/>
<polygon fill="#191970" stroke="#191970" points="794.3556,-145.7808 787.9959,-137.307 787.6832,-147.8972 794.3556,-145.7808"/>
</g>
<!-- Node7 -->
<g id="node8" class="node">
<title>Node7</title>
<polygon fill="none" stroke="#bfbfbf" points="1553.5,-252 1553.5,-271 1600.5,-271 1600.5,-252 1553.5,-252"/>
<text text-anchor="middle" x="1577" y="-259" font-family="Helvetica,sans-Serif" font-size="10.00" fill="#000000">vector</text>
</g>
<!-- Node0&#45;&gt;Node7 -->
<g id="edge7" class="edge">
<title>Node0&#45;&gt;Node7</title>
<path fill="none" stroke="#191970" d="M980.5161,-338.9524C1138.3212,-328.581 1440.5356,-305.7166 1544,-277 1545.967,-276.4541 1547.9621,-275.7997 1549.947,-275.0729"/>
<polygon fill="#191970" stroke="#191970" points="1551.7531,-278.1099 1559.6095,-271.0016 1549.0351,-271.6592 1551.7531,-278.1099"/>
</g>
<!-- Node8 -->
<g id="node9" class="node">
<title>Node8</title>
<g id="a_node9"><a xlink:href="../../d6/d31/DetID_8h.html" target="_top" xlink:title="DetectorsCommonDataFormats\l/DetID.h">
<polygon fill="none" stroke="#000000" points="519.5,-246.5 519.5,-276.5 690.5,-276.5 690.5,-246.5 519.5,-246.5"/>
<text text-anchor="start" x="527.5" y="-264.5" font-family="Helvetica,sans-Serif" font-size="10.00" fill="#000000">DetectorsCommonDataFormats</text>
<text text-anchor="middle" x="605" y="-253.5" font-family="Helvetica,sans-Serif" font-size="10.00" fill="#000000">/DetID.h</text>
</a>
</g>
</g>
<!-- Node0&#45;&gt;Node8 -->
<g id="edge8" class="edge">
<title>Node0&#45;&gt;Node8</title>
<path fill="none" stroke="#191970" d="M783.1698,-315.2082C743.5742,-303.2724 699.2544,-289.9124 664.7229,-279.5031"/>
<polygon fill="#191970" stroke="#191970" points="665.3816,-276.0462 654.7969,-276.511 663.3612,-282.7483 665.3816,-276.0462"/>
</g>
<!-- Node30 -->
<g id="node31" class="node">
<title>Node30</title>
<g id="a_node31"><a xlink:href="../../dd/d76/Cartesian3D_8h.html" target="_top" xlink:title="MathUtils/Cartesian3D.h">
<polygon fill="none" stroke="#000000" points="1400.5,-252 1400.5,-271 1535.5,-271 1535.5,-252 1400.5,-252"/>
<text text-anchor="middle" x="1468" y="-259" font-family="Helvetica,sans-Serif" font-size="10.00" fill="#000000">MathUtils/Cartesian3D.h</text>
</a>
</g>
</g>
<!-- Node0&#45;&gt;Node30 -->
<g id="edge39" class="edge">
<title>Node0&#45;&gt;Node30</title>
<path fill="none" stroke="#191970" d="M980.7443,-330.9298C1096.5544,-314.4278 1286.0559,-287.4255 1391.356,-272.4211"/>
<polygon fill="#191970" stroke="#191970" points="1391.872,-275.883 1401.2782,-271.0073 1390.8845,-268.953 1391.872,-275.883"/>
</g>
<!-- Node2 -->
<g id="node3" class="node">
<title>Node2</title>
<polygon fill="none" stroke="#bfbfbf" points="89,-185 89,-204 149,-204 149,-185 89,-185"/>
<text text-anchor="middle" x="119" y="-192" font-family="Helvetica,sans-Serif" font-size="10.00" fill="#000000">iostream</text>
</g>
<!-- Node1&#45;&gt;Node2 -->
<g id="edge2" class="edge">
<title>Node1&#45;&gt;Node2</title>
<path fill="none" stroke="#191970" d="M179.8274,-251.9005C168.5447,-241.2535 150.1399,-223.8856 136.5258,-211.0385"/>
<polygon fill="#191970" stroke="#191970" points="138.8288,-208.3994 129.1537,-204.0817 134.0246,-213.4905 138.8288,-208.3994"/>
</g>
<!-- Node3 -->
<g id="node4" class="node">
<title>Node3</title>
<polygon fill="none" stroke="#bfbfbf" points="167,-185 167,-204 213,-204 213,-185 167,-185"/>
<text text-anchor="middle" x="190" y="-192" font-family="Helvetica,sans-Serif" font-size="10.00" fill="#000000">cstdio</text>
</g>
<!-- Node1&#45;&gt;Node3 -->
<g id="edge3" class="edge">
<title>Node1&#45;&gt;Node3</title>
<path fill="none" stroke="#191970" d="M190,-251.9005C190,-242.149 190,-226.7597 190,-214.3695"/>
<polygon fill="#191970" stroke="#191970" points="193.5001,-214.0816 190,-204.0817 186.5001,-214.0817 193.5001,-214.0816"/>
</g>
<!-- Node5 -->
<g id="node6" class="node">
<title>Node5</title>
<polygon fill="none" stroke="#bfbfbf" points="939.5,-185 939.5,-204 998.5,-204 998.5,-185 939.5,-185"/>
<text text-anchor="middle" x="969" y="-192" font-family="Helvetica,sans-Serif" font-size="10.00" fill="#000000">Rtypes.h</text>
</g>
<!-- Node4&#45;&gt;Node5 -->
<g id="edge5" class="edge">
<title>Node4&#45;&gt;Node5</title>
<path fill="none" stroke="#191970" d="M933.8743,-251.9005C940.0852,-241.751 950.0335,-225.4941 957.7599,-212.8679"/>
<polygon fill="#191970" stroke="#191970" points="960.9023,-214.4382 963.1366,-204.0817 954.9315,-210.7844 960.9023,-214.4382"/>
</g>
<!-- Node8&#45;&gt;Node5 -->
<g id="edge9" class="edge">
<title>Node8&#45;&gt;Node5</title>
<path fill="none" stroke="#191970" d="M690.6045,-253.1691C756.7832,-245.4777 850.2537,-231.8752 930,-210 932.6108,-209.2838 935.2852,-208.4491 937.9499,-207.5451"/>
<polygon fill="#191970" stroke="#191970" points="939.2504,-210.7961 947.426,-204.0575 936.8326,-204.2269 939.2504,-210.7961"/>
</g>
<!-- Node8&#45;&gt;Node6 -->
<g id="edge10" class="edge">
<title>Node8&#45;&gt;Node6</title>
<path fill="none" stroke="#191970" d="M668.1164,-246.4145C691.6452,-238.4771 717.3773,-226.7955 737,-210 757.0884,-192.8059 770.7832,-164.993 778.2499,-146.4796"/>
<polygon fill="#191970" stroke="#191970" points="781.5563,-147.6318 781.8433,-137.0409 775.0143,-145.1412 781.5563,-147.6318"/>
</g>
<!-- Node9 -->
<g id="node10" class="node">
<title>Node9</title>
<polygon fill="none" stroke="#bfbfbf" points="506,-185 506,-204 550,-204 550,-185 506,-185"/>
<text text-anchor="middle" x="528" y="-192" font-family="Helvetica,sans-Serif" font-size="10.00" fill="#000000">bitset</text>
</g>
<!-- Node8&#45;&gt;Node9 -->
<g id="edge11" class="edge">
<title>Node8&#45;&gt;Node9</title>
<path fill="none" stroke="#191970" d="M587.5275,-246.2967C575.2976,-235.6551 558.9841,-221.4602 546.5279,-210.6217"/>
<polygon fill="#191970" stroke="#191970" points="548.8225,-207.9788 538.9811,-204.055 544.2276,-213.2596 548.8225,-207.9788"/>
</g>
<!-- Node10 -->
<g id="node11" class="node">
<title>Node10</title>
<polygon fill="none" stroke="#bfbfbf" points="694,-118 694,-137 746,-137 746,-118 694,-118"/>
<text text-anchor="middle" x="720" y="-125" font-family="Helvetica,sans-Serif" font-size="10.00" fill="#000000">cassert</text>
</g>
<!-- Node8&#45;&gt;Node10 -->
<g id="edge12" class="edge">
<title>Node8&#45;&gt;Node10</title>
<path fill="none" stroke="#191970" d="M557.3326,-246.4187C518.5042,-231.6511 473.637,-207.2897 497,-179 550.8946,-113.7403 603.1025,-167.8807 684,-143 686.1138,-142.3499 688.2711,-141.615 690.4268,-140.8274"/>
<polygon fill="#191970" stroke="#191970" points="691.7242,-144.0782 699.7276,-137.1359 689.1417,-137.5719 691.7242,-144.0782"/>
</g>
<!-- Node11 -->
<g id="node12" class="node">
<title>Node11</title>
<polygon fill="none" stroke="#bfbfbf" points="0,-118 0,-137 50,-137 50,-118 0,-118"/>
<text text-anchor="middle" x="25" y="-125" font-family="Helvetica,sans-Serif" font-size="10.00" fill="#000000">cstdint</text>
</g>
<!-- Node8&#45;&gt;Node11 -->
<g id="edge13" class="edge">
<title>Node8&#45;&gt;Node11</title>
<path fill="none" stroke="#191970" d="M519.451,-254.8166C431.2328,-246.8848 300.3464,-231.9119 255,-210 236.8813,-201.2449 239.7952,-188.3951 222,-179 156.3922,-144.3617 129.3642,-166.5174 59,-143 57.1542,-142.3831 55.2741,-141.6979 53.3931,-140.9689"/>
<polygon fill="#191970" stroke="#191970" points="54.7095,-137.7257 44.1348,-137.0723 51.994,-144.1775 54.7095,-137.7257"/>
</g>
<!-- Node12 -->
<g id="node13" class="node">
<title>Node12</title>
<polygon fill="none" stroke="#bfbfbf" points="568.5,-185 568.5,-204 641.5,-204 641.5,-185 568.5,-185"/>
<text text-anchor="middle" x="605" y="-192" font-family="Helvetica,sans-Serif" font-size="10.00" fill="#000000">string_view</text>
</g>
<!-- Node8&#45;&gt;Node12 -->
<g id="edge14" class="edge">
<title>Node8&#45;&gt;Node12</title>
<path fill="none" stroke="#191970" d="M605,-246.2967C605,-236.7699 605,-224.3954 605,-214.1306"/>
<polygon fill="#191970" stroke="#191970" points="608.5001,-214.0549 605,-204.055 601.5001,-214.055 608.5001,-214.0549"/>
</g>
<!-- Node13 -->
<g id="node14" class="node">
<title>Node13</title>
<polygon fill="none" stroke="#bfbfbf" points="68,-118 68,-137 112,-137 112,-118 68,-118"/>
<text text-anchor="middle" x="90" y="-125" font-family="Helvetica,sans-Serif" font-size="10.00" fill="#000000">string</text>
</g>
<!-- Node8&#45;&gt;Node13 -->
<g id="edge15" class="edge">
<title>Node8&#45;&gt;Node13</title>
<path fill="none" stroke="#191970" d="M519.2387,-251.5439C442.7304,-241.8593 336.9633,-226.2635 298,-210 276.2582,-200.9249 276.0731,-189.535 255,-179 231.4928,-167.2481 162.9107,-147.4687 121.9391,-136.1481"/>
<polygon fill="#191970" stroke="#191970" points="122.7317,-132.7362 112.1618,-133.4622 120.8774,-139.4862 122.7317,-132.7362"/>
</g>
<!-- Node14 -->
<g id="node15" class="node">
<title>Node14</title>
<polygon fill="none" stroke="#bfbfbf" points="659.5,-185 659.5,-204 728.5,-204 728.5,-185 659.5,-185"/>
<text text-anchor="middle" x="694" y="-192" font-family="Helvetica,sans-Serif" font-size="10.00" fill="#000000">type_traits</text>
</g>
<!-- Node8&#45;&gt;Node14 -->
<g id="edge16" class="edge">
<title>Node8&#45;&gt;Node14</title>
<path fill="none" stroke="#191970" d="M625.1955,-246.2967C639.466,-235.5537 658.5468,-221.1895 672.9948,-210.3129"/>
<polygon fill="#191970" stroke="#191970" points="675.4234,-212.8656 681.3076,-204.055 671.2133,-207.2731 675.4234,-212.8656"/>
</g>
<!-- Node15 -->
<g id="node16" class="node">
<title>Node15</title>
<g id="a_node16"><a xlink:href="../../d9/d52/Common_2MathUtils_2include_2MathUtils_2Utils_8h.html" target="_top" xlink:title="MathUtils/Utils.h">
<polygon fill="none" stroke="#000000" points="823,-185 823,-204 921,-204 921,-185 823,-185"/>
<text text-anchor="middle" x="872" y="-192" font-family="Helvetica,sans-Serif" font-size="10.00" fill="#000000">MathUtils/Utils.h</text>
</a>
</g>
</g>
<!-- Node8&#45;&gt;Node15 -->
<g id="edge17" class="edge">
<title>Node8&#45;&gt;Node15</title>
<path fill="none" stroke="#191970" d="M664.92,-246.4639C713.0909,-234.3761 779.8491,-217.624 824.4091,-206.4423"/>
<polygon fill="#191970" stroke="#191970" points="825.2733,-209.834 834.1207,-204.0053 823.5695,-203.0445 825.2733,-209.834"/>
</g>
<!-- Node23 -->
<g id="node24" class="node">
<title>Node23</title>
<g id="a_node24"><a xlink:href="../../dc/dcd/DataHeader_8h.html" target="_top" xlink:title="Headers/DataHeader.h">
<polygon fill="none" stroke="#000000" points="307.5,-185 307.5,-204 434.5,-204 434.5,-185 307.5,-185"/>
<text text-anchor="middle" x="371" y="-192" font-family="Helvetica,sans-Serif" font-size="10.00" fill="#000000">Headers/DataHeader.h</text>
</a>
</g>
</g>
<!-- Node8&#45;&gt;Node23 -->
<g id="edge28" class="edge">
<title>Node8&#45;&gt;Node23</title>
<path fill="none" stroke="#191970" d="M552.4858,-246.4639C510.8008,-234.5284 453.2338,-218.0456 414.1949,-206.8678"/>
<polygon fill="#191970" stroke="#191970" points="414.7747,-203.3932 404.1976,-204.0053 412.8478,-210.1228 414.7747,-203.3932"/>
</g>
<!-- Node15&#45;&gt;Node6 -->
<g id="edge18" class="edge">
<title>Node15&#45;&gt;Node6</title>
<path fill="none" stroke="#191970" d="M859.535,-184.9005C845.4513,-174.0544 822.3112,-156.2339 805.5461,-143.3229"/>
<polygon fill="#191970" stroke="#191970" points="807.5003,-140.4102 797.4419,-137.0817 803.2292,-145.9562 807.5003,-140.4102"/>
</g>
<!-- Node16 -->
<g id="node17" class="node">
<title>Node16</title>
<polygon fill="none" stroke="#bfbfbf" points="918.5,-56.5 918.5,-75.5 965.5,-75.5 965.5,-56.5 918.5,-56.5"/>
<text text-anchor="middle" x="942" y="-63.5" font-family="Helvetica,sans-Serif" font-size="10.00" fill="#000000">cmath</text>
</g>
<!-- Node15&#45;&gt;Node16 -->
<g id="edge19" class="edge">
<title>Node15&#45;&gt;Node16</title>
<path fill="none" stroke="#191970" d="M905.2845,-184.9542C913.3357,-182.8259 921.9432,-180.6993 930,-179 980.8346,-168.2782 1127.2103,-182.4635 1161,-143 1169.9609,-132.5344 1169.6835,-122.6969 1161,-112 1138.0544,-83.734 1031.3247,-72.2003 975.7883,-68.0493"/>
<polygon fill="#191970" stroke="#191970" points="975.947,-64.5519 965.7246,-67.3362 975.4521,-71.5344 975.947,-64.5519"/>
</g>
<!-- Node17 -->
<g id="node18" class="node">
<title>Node17</title>
<g id="a_node18"><a xlink:href="../../df/d21/GPUCommonDef_8h.html" target="_top" xlink:title="GPUCommonDef.h">
<polygon fill="none" stroke="#000000" points="1103.5,-56.5 1103.5,-75.5 1210.5,-75.5 1210.5,-56.5 1103.5,-56.5"/>
<text text-anchor="middle" x="1157" y="-63.5" font-family="Helvetica,sans-Serif" font-size="10.00" fill="#000000">GPUCommonDef.h</text>
</a>
</g>
</g>
<!-- Node15&#45;&gt;Node17 -->
<g id="edge20" class="edge">
<title>Node15&#45;&gt;Node17</title>
<path fill="none" stroke="#191970" d="M904.9657,-184.9713C913.1048,-182.818 921.8319,-180.6758 930,-179 984.7678,-167.7633 1142.4042,-185.2673 1179,-143 1193.2819,-126.5047 1181.7852,-101.2961 1170.7491,-84.2566"/>
<polygon fill="#191970" stroke="#191970" points="1173.4114,-81.9542 1164.8319,-75.7378 1167.6622,-85.9476 1173.4114,-81.9542"/>
</g>
<!-- Node20 -->
<g id="node21" class="node">
<title>Node20</title>
<g id="a_node21"><a xlink:href="../../d6/da2/GPUCommonMath_8h.html" target="_top" xlink:title="GPUCommonMath.h">
<polygon fill="none" stroke="#000000" points="824.5,-118 824.5,-137 939.5,-137 939.5,-118 824.5,-118"/>
<text text-anchor="middle" x="882" y="-125" font-family="Helvetica,sans-Serif" font-size="10.00" fill="#000000">GPUCommonMath.h</text>
</a>
</g>
</g>
<!-- Node15&#45;&gt;Node20 -->
<g id="edge23" class="edge">
<title>Node15&#45;&gt;Node20</title>
<path fill="none" stroke="#191970" d="M873.4328,-184.9005C874.9031,-175.0495 877.2321,-159.4451 879.0909,-146.9912"/>
<polygon fill="#191970" stroke="#191970" points="882.5553,-147.4888 880.5699,-137.0817 875.632,-146.4554 882.5553,-147.4888"/>
</g>
<!-- Node22 -->
<g id="node23" class="node">
<title>Node22</title>
<g id="a_node23"><a xlink:href="../../d6/d84/MathConstants_8h.html" target="_top" xlink:title="useful math constants ">
<polygon fill="none" stroke="#000000" points="958,-118 958,-137 1152,-137 1152,-118 958,-118"/>
<text text-anchor="middle" x="1055" y="-125" font-family="Helvetica,sans-Serif" font-size="10.00" fill="#000000">CommonConstants/MathConstants.h</text>
</a>
</g>
</g>
<!-- Node15&#45;&gt;Node22 -->
<g id="edge27" class="edge">
<title>Node15&#45;&gt;Node22</title>
<path fill="none" stroke="#191970" d="M898.2194,-184.9005C930.0181,-173.2584 983.7651,-153.5805 1019.3175,-140.5641"/>
<polygon fill="#191970" stroke="#191970" points="1020.6421,-143.8064 1028.8292,-137.0817 1018.2354,-137.2331 1020.6421,-143.8064"/>
</g>
<!-- Node18 -->
<g id="node19" class="node">
<title>Node18</title>
<g id="a_node19"><a xlink:href="../../d5/d93/GPUCommonDefSettings_8h.html" target="_top" xlink:title="GPUCommonDefSettings.h">
<polygon fill="none" stroke="#000000" points="1006,-.5 1006,-19.5 1154,-19.5 1154,-.5 1006,-.5"/>
<text text-anchor="middle" x="1080" y="-7.5" font-family="Helvetica,sans-Serif" font-size="10.00" fill="#000000">GPUCommonDefSettings.h</text>
</a>
</g>
</g>
<!-- Node17&#45;&gt;Node18 -->
<g id="edge21" class="edge">
<title>Node17&#45;&gt;Node18</title>
<path fill="none" stroke="#191970" d="M1143.5876,-56.2455C1131.9943,-47.814 1115.0252,-35.4729 1101.5322,-25.6598"/>
<polygon fill="#191970" stroke="#191970" points="1103.4047,-22.6938 1093.2587,-19.6427 1099.2874,-28.355 1103.4047,-22.6938"/>
</g>
<!-- Node19 -->
<g id="node20" class="node">
<title>Node19</title>
<g id="a_node20"><a xlink:href="../../da/d5a/GPUCommonDefAPI_8h.html" target="_top" xlink:title="GPUCommonDefAPI.h">
<polygon fill="none" stroke="#000000" points="1172,-.5 1172,-19.5 1296,-19.5 1296,-.5 1172,-.5"/>
<text text-anchor="middle" x="1234" y="-7.5" font-family="Helvetica,sans-Serif" font-size="10.00" fill="#000000">GPUCommonDefAPI.h</text>
</a>
</g>
</g>
<!-- Node17&#45;&gt;Node19 -->
<g id="edge22" class="edge">
<title>Node17&#45;&gt;Node19</title>
<path fill="none" stroke="#191970" d="M1170.4124,-56.2455C1182.0057,-47.814 1198.9748,-35.4729 1212.4678,-25.6598"/>
<polygon fill="#191970" stroke="#191970" points="1214.7126,-28.355 1220.7413,-19.6427 1210.5953,-22.6938 1214.7126,-28.355"/>
</g>
<!-- Node20&#45;&gt;Node16 -->
<g id="edge25" class="edge">
<title>Node20&#45;&gt;Node16</title>
<path fill="none" stroke="#191970" d="M891.375,-117.8906C900.4799,-108.5581 914.4974,-94.1902 925.4757,-82.9374"/>
<polygon fill="#191970" stroke="#191970" points="928.0148,-85.3468 932.4928,-75.7449 923.0043,-80.4586 928.0148,-85.3468"/>
</g>
<!-- Node20&#45;&gt;Node17 -->
<g id="edge24" class="edge">
<title>Node20&#45;&gt;Node17</title>
<path fill="none" stroke="#191970" d="M923.0877,-117.9284C931.6478,-115.9528 940.6157,-113.8969 949,-112 1001.3192,-100.1632 1061.1213,-86.9731 1103.1328,-77.7629"/>
<polygon fill="#191970" stroke="#191970" points="1104.1284,-81.1279 1113.1476,-75.5688 1102.6303,-74.29 1104.1284,-81.1279"/>
</g>
<!-- Node21 -->
<g id="node22" class="node">
<title>Node21</title>
<polygon fill="none" stroke="#bfbfbf" points="502,-56.5 502,-75.5 566,-75.5 566,-56.5 502,-56.5"/>
<text text-anchor="middle" x="534" y="-63.5" font-family="Helvetica,sans-Serif" font-size="10.00" fill="#000000">algorithm</text>
</g>
<!-- Node20&#45;&gt;Node21 -->
<g id="edge26" class="edge">
<title>Node20&#45;&gt;Node21</title>
<path fill="none" stroke="#191970" d="M842.7668,-117.9734C833.6743,-115.8909 824.0193,-113.7795 815,-112 730.7092,-95.369 631.3537,-80.1179 576.2387,-72.0384"/>
<polygon fill="#191970" stroke="#191970" points="576.5499,-68.5468 566.1495,-70.5672 575.5398,-75.4736 576.5499,-68.5468"/>
</g>
<!-- Node23&#45;&gt;Node10 -->
<g id="edge31" class="edge">
<title>Node23&#45;&gt;Node10</title>
<path fill="none" stroke="#191970" d="M428.0478,-184.9647C439.9285,-182.9866 452.3722,-180.9204 464,-179 561.7541,-162.8558 588.9013,-170.7979 684,-143 686.1758,-142.364 688.3949,-141.6311 690.6092,-140.8372"/>
<polygon fill="#191970" stroke="#191970" points="692.1195,-144.004 700.1372,-137.0782 689.5505,-137.4924 692.1195,-144.004"/>
</g>
<!-- Node23&#45;&gt;Node11 -->
<g id="edge29" class="edge">
<title>Node23&#45;&gt;Node11</title>
<path fill="none" stroke="#191970" d="M307.1945,-185.9943C229.8458,-175.3297 104.2307,-156.7768 59,-143 57.0917,-142.4188 55.1513,-141.7535 53.2141,-141.0328"/>
<polygon fill="#191970" stroke="#191970" points="54.2952,-137.6924 43.717,-137.0997 51.6168,-144.1597 54.2952,-137.6924"/>
</g>
<!-- Node23&#45;&gt;Node13 -->
<g id="edge35" class="edge">
<title>Node23&#45;&gt;Node13</title>
<path fill="none" stroke="#191970" d="M323.147,-184.9752C257.2502,-171.7771 144.5675,-148.8838 126,-143 123.8918,-142.3319 121.7387,-141.5837 119.586,-140.7864"/>
<polygon fill="#191970" stroke="#191970" points="120.8768,-137.5331 110.2919,-137.0732 118.2797,-144.0336 120.8768,-137.5331"/>
</g>
<!-- Node23&#45;&gt;Node21 -->
<g id="edge33" class="edge">
<title>Node23&#45;&gt;Node21</title>
<path fill="none" stroke="#191970" d="M325.6566,-184.9703C264.9497,-171.9981 164.2158,-149.6345 159,-143 150.4848,-132.1686 149.87,-122.3184 159,-112 180.7633,-87.4039 397.9997,-73.1381 491.5322,-68.0933"/>
<polygon fill="#191970" stroke="#191970" points="491.9759,-71.5748 501.7769,-67.551 491.6058,-64.5846 491.9759,-71.5748"/>
</g>
<!-- Node24 -->
<g id="node25" class="node">
<title>Node24</title>
<polygon fill="none" stroke="#bfbfbf" points="168,-118 168,-137 226,-137 226,-118 168,-118"/>
<text text-anchor="middle" x="197" y="-125" font-family="Helvetica,sans-Serif" font-size="10.00" fill="#000000">memory</text>
</g>
<!-- Node23&#45;&gt;Node24 -->
<g id="edge30" class="edge">
<title>Node23&#45;&gt;Node24</title>
<path fill="none" stroke="#191970" d="M345.1061,-184.9167C317.6883,-174.7175 273.1812,-158.0133 235,-143 233.3589,-142.3547 231.6799,-141.6893 229.9858,-141.0137"/>
<polygon fill="#191970" stroke="#191970" points="230.8578,-137.5917 220.2742,-137.1021 228.2424,-144.0848 230.8578,-137.5917"/>
</g>
<!-- Node25 -->
<g id="node26" class="node">
<title>Node25</title>
<polygon fill="none" stroke="#bfbfbf" points="244,-118 244,-137 294,-137 294,-118 244,-118"/>
<text text-anchor="middle" x="269" y="-125" font-family="Helvetica,sans-Serif" font-size="10.00" fill="#000000">cstring</text>
</g>
<!-- Node23&#45;&gt;Node25 -->
<g id="edge32" class="edge">
<title>Node23&#45;&gt;Node25</title>
<path fill="none" stroke="#191970" d="M356.3859,-184.9005C339.571,-173.8554 311.7451,-155.5776 292.0142,-142.6172"/>
<polygon fill="#191970" stroke="#191970" points="293.8667,-139.6465 283.587,-137.0817 290.0236,-145.4972 293.8667,-139.6465"/>
</g>
<!-- Node26 -->
<g id="node27" class="node">
<title>Node26</title>
<polygon fill="none" stroke="#bfbfbf" points="312.5,-118 312.5,-137 377.5,-137 377.5,-118 312.5,-118"/>
<text text-anchor="middle" x="345" y="-125" font-family="Helvetica,sans-Serif" font-size="10.00" fill="#000000">stdexcept</text>
</g>
<!-- Node23&#45;&gt;Node26 -->
<g id="edge34" class="edge">
<title>Node23&#45;&gt;Node26</title>
<path fill="none" stroke="#191970" d="M367.2748,-184.9005C363.4134,-174.95 357.274,-159.1292 352.4177,-146.6147"/>
<polygon fill="#191970" stroke="#191970" points="355.599,-145.1381 348.7183,-137.0817 349.0731,-147.6706 355.599,-145.1381"/>
</g>
<!-- Node27 -->
<g id="node28" class="node">
<title>Node27</title>
<polygon fill="none" stroke="#bfbfbf" points="396,-118 396,-137 446,-137 446,-118 396,-118"/>
<text text-anchor="middle" x="421" y="-125" font-family="Helvetica,sans-Serif" font-size="10.00" fill="#000000">climits</text>
</g>
<!-- Node23&#45;&gt;Node27 -->
<g id="edge36" class="edge">
<title>Node23&#45;&gt;Node27</title>
<path fill="none" stroke="#191970" d="M378.1638,-184.9005C385.8866,-174.552 398.3476,-157.8542 407.8437,-145.1295"/>
<polygon fill="#191970" stroke="#191970" points="410.6736,-147.1893 413.8495,-137.0817 405.0636,-143.0027 410.6736,-147.1893"/>
</g>
<!-- Node28 -->
<g id="node29" class="node">
<title>Node28</title>
<g id="a_node29"><a xlink:href="../../d7/df8/Types_8h.html" target="_top" xlink:title="MemoryResources/Types.h">
<polygon fill="none" stroke="#000000" points="464,-118 464,-137 610,-137 610,-118 464,-118"/>
<text text-anchor="middle" x="537" y="-125" font-family="Helvetica,sans-Serif" font-size="10.00" fill="#000000">MemoryResources/Types.h</text>
</a>
</g>
</g>
<!-- Node23&#45;&gt;Node28 -->
<g id="edge37" class="edge">
<title>Node23&#45;&gt;Node28</title>
<path fill="none" stroke="#191970" d="M394.7838,-184.9005C423.3819,-173.3579 471.5506,-153.9163 503.8017,-140.8993"/>
<polygon fill="#191970" stroke="#191970" points="505.2972,-144.0701 513.2604,-137.0817 502.6772,-137.5789 505.2972,-144.0701"/>
</g>
<!-- Node29 -->
<g id="node30" class="node">
<title>Node29</title>
<polygon fill="none" stroke="#bfbfbf" points="628.5,-118 628.5,-137 675.5,-137 675.5,-118 628.5,-118"/>
<text text-anchor="middle" x="652" y="-125" font-family="Helvetica,sans-Serif" font-size="10.00" fill="#000000">cerrno</text>
</g>
<!-- Node23&#45;&gt;Node29 -->
<g id="edge38" class="edge">
<title>Node23&#45;&gt;Node29</title>
<path fill="none" stroke="#191970" d="M424.1544,-184.9729C485.814,-173.6563 583.5423,-154.8264 619,-143 620.6512,-142.4493 622.3285,-141.838 624.0072,-141.1855"/>
<polygon fill="#191970" stroke="#191970" points="625.6517,-144.2887 633.4651,-137.1332 622.8949,-137.8544 625.6517,-144.2887"/>
</g>
<!-- Node30&#45;&gt;Node5 -->
<g id="edge45" class="edge">
<title>Node30&#45;&gt;Node5</title>
<path fill="none" stroke="#191970" d="M1400.351,-259.5522C1309.7665,-255.6754 1144.6291,-244.1448 1008,-210 1005.2167,-209.3044 1002.367,-208.4562 999.5372,-207.5186"/>
<polygon fill="#191970" stroke="#191970" points="1000.7115,-204.2214 990.1176,-204.0792 998.3106,-210.7968 1000.7115,-204.2214"/>
</g>
<!-- Node31 -->
<g id="node32" class="node">
<title>Node31</title>
<polygon fill="none" stroke="#bfbfbf" points="1894,-179.5 1894,-209.5 2058,-209.5 2058,-179.5 1894,-179.5"/>
<text text-anchor="start" x="1902" y="-197.5" font-family="Helvetica,sans-Serif" font-size="10.00" fill="#000000">Math/GenVector/Displacement</text>
<text text-anchor="middle" x="1976" y="-186.5" font-family="Helvetica,sans-Serif" font-size="10.00" fill="#000000">Vector3D.h</text>
</g>
<!-- Node30&#45;&gt;Node31 -->
<g id="edge40" class="edge">
<title>Node30&#45;&gt;Node31</title>
<path fill="none" stroke="#191970" d="M1511.2764,-251.9258C1521.9389,-249.7739 1533.3533,-247.6438 1544,-246 1691.3774,-223.2457 1732.2841,-230.4733 1883.5695,-210.1396"/>
<polygon fill="#191970" stroke="#191970" points="1884.2604,-213.5778 1893.6963,-208.7597 1883.3153,-206.6419 1884.2604,-213.5778"/>
</g>
<!-- Node32 -->
<g id="node33" class="node">
<title>Node32</title>
<polygon fill="none" stroke="#bfbfbf" points="2076.5,-185 2076.5,-204 2265.5,-204 2265.5,-185 2076.5,-185"/>
<text text-anchor="middle" x="2171" y="-192" font-family="Helvetica,sans-Serif" font-size="10.00" fill="#000000">Math/GenVector/PositionVector3D.h</text>
</g>
<!-- Node30&#45;&gt;Node32 -->
<g id="edge41" class="edge">
<title>Node30&#45;&gt;Node32</title>
<path fill="none" stroke="#191970" d="M1509.6427,-251.9724C1520.7558,-249.7139 1532.7914,-247.5219 1544,-246 1774.8759,-214.6512 1835.3715,-235.1927 2067,-210 2078.626,-208.7355 2090.9461,-207.1332 2102.8847,-205.4414"/>
<polygon fill="#191970" stroke="#191970" points="2103.4052,-208.9027 2112.7999,-204.0047 2102.4013,-201.975 2103.4052,-208.9027"/>
</g>
<!-- Node33 -->
<g id="node34" class="node">
<title>Node33</title>
<polygon fill="none" stroke="#bfbfbf" points="1017,-185 1017,-204 1177,-204 1177,-185 1017,-185"/>
<text text-anchor="middle" x="1097" y="-192" font-family="Helvetica,sans-Serif" font-size="10.00" fill="#000000">Math/GenVector/Rotation3D.h</text>
</g>
<!-- Node30&#45;&gt;Node33 -->
<g id="edge42" class="edge">
<title>Node30&#45;&gt;Node33</title>
<path fill="none" stroke="#191970" d="M1415.2387,-251.9717C1348.026,-239.8335 1231.989,-218.8781 1160.1471,-205.9039"/>
<polygon fill="#191970" stroke="#191970" points="1160.3421,-202.3826 1149.8793,-204.0496 1159.098,-209.2712 1160.3421,-202.3826"/>
</g>
<!-- Node34 -->
<g id="node35" class="node">
<title>Node34</title>
<polygon fill="none" stroke="#bfbfbf" points="1195,-185 1195,-204 1363,-204 1363,-185 1195,-185"/>
<text text-anchor="middle" x="1279" y="-192" font-family="Helvetica,sans-Serif" font-size="10.00" fill="#000000">Math/GenVector/Transform3D.h</text>
</g>
<!-- Node30&#45;&gt;Node34 -->
<g id="edge43" class="edge">
<title>Node30&#45;&gt;Node34</title>
<path fill="none" stroke="#191970" d="M1440.9209,-251.9005C1408.0797,-240.2584 1352.5704,-220.5805 1315.8525,-207.5641"/>
<polygon fill="#191970" stroke="#191970" points="1316.6236,-204.1241 1306.0289,-204.0817 1314.2847,-210.7218 1316.6236,-204.1241"/>
</g>
<!-- Node35 -->
<g id="node36" class="node">
<title>Node35</title>
<polygon fill="none" stroke="#bfbfbf" points="1381.5,-185 1381.5,-204 1554.5,-204 1554.5,-185 1381.5,-185"/>
<text text-anchor="middle" x="1468" y="-192" font-family="Helvetica,sans-Serif" font-size="10.00" fill="#000000">Math/GenVector/Translation3D.h</text>
</g>
<!-- Node30&#45;&gt;Node35 -->
<g id="edge44" class="edge">
<title>Node30&#45;&gt;Node35</title>
<path fill="none" stroke="#191970" d="M1468,-251.9005C1468,-242.149 1468,-226.7597 1468,-214.3695"/>
<polygon fill="#191970" stroke="#191970" points="1471.5001,-214.0816 1468,-204.0817 1464.5001,-214.0817 1471.5001,-214.0816"/>
</g>
<!-- Node36 -->
<g id="node37" class="node">
<title>Node36</title>
<polygon fill="none" stroke="#bfbfbf" points="1573,-185 1573,-204 1655,-204 1655,-185 1573,-185"/>
<text text-anchor="middle" x="1614" y="-192" font-family="Helvetica,sans-Serif" font-size="10.00" fill="#000000">TGeoMatrix.h</text>
</g>
<!-- Node30&#45;&gt;Node36 -->
<g id="edge46" class="edge">
<title>Node30&#45;&gt;Node36</title>
<path fill="none" stroke="#191970" d="M1488.9182,-251.9005C1513.7456,-240.5072 1555.3433,-221.4178 1583.6942,-208.4075"/>
<polygon fill="#191970" stroke="#191970" points="1585.4917,-211.4336 1593.1206,-204.0817 1582.5721,-205.0715 1585.4917,-211.4336"/>
</g>
<!-- Node37 -->
<g id="node38" class="node">
<title>Node37</title>
<polygon fill="none" stroke="#bfbfbf" points="1673.5,-185 1673.5,-204 1722.5,-204 1722.5,-185 1673.5,-185"/>
<text text-anchor="middle" x="1698" y="-192" font-family="Helvetica,sans-Serif" font-size="10.00" fill="#000000">iosfwd</text>
</g>
<!-- Node30&#45;&gt;Node37 -->
<g id="edge47" class="edge">
<title>Node30&#45;&gt;Node37</title>
<path fill="none" stroke="#191970" d="M1513.0292,-251.9737C1553.1876,-242.9364 1613.294,-228.0703 1664,-210 1665.6385,-209.4161 1667.3067,-208.7845 1668.9804,-208.1215"/>
<polygon fill="#191970" stroke="#191970" points="1670.6225,-211.2268 1678.4588,-204.0964 1667.8863,-204.7837 1670.6225,-211.2268"/>
</g>
<!-- Node38 -->
<g id="node39" class="node">
<title>Node38</title>
<g id="a_node39"><a xlink:href="../../d2/dd0/Cartesian2D_8h.html" target="_top" xlink:title="MathUtils/Cartesian2D.h">
<polygon fill="none" stroke="#000000" points="1740.5,-185 1740.5,-204 1875.5,-204 1875.5,-185 1740.5,-185"/>
<text text-anchor="middle" x="1808" y="-192" font-family="Helvetica,sans-Serif" font-size="10.00" fill="#000000">MathUtils/Cartesian2D.h</text>
</a>
</g>
</g>
<!-- Node30&#45;&gt;Node38 -->
<g id="edge48" class="edge">
<title>Node30&#45;&gt;Node38</title>
<path fill="none" stroke="#191970" d="M1514.2012,-251.9852C1524.0329,-249.9863 1534.3565,-247.9066 1544,-246 1627.4581,-229.4994 1648.5419,-226.5006 1732,-210 1738.3286,-208.7488 1744.95,-207.423 1751.5331,-206.0945"/>
<polygon fill="#191970" stroke="#191970" points="1752.6928,-209.4307 1761.7988,-204.0148 1751.3029,-202.5701 1752.6928,-209.4307"/>
</g>
<!-- Node39 -->
<g id="node40" class="node">
<title>Node39</title>
<polygon fill="none" stroke="#bfbfbf" points="1628,-112.5 1628,-142.5 1792,-142.5 1792,-112.5 1628,-112.5"/>
<text text-anchor="start" x="1636" y="-130.5" font-family="Helvetica,sans-Serif" font-size="10.00" fill="#000000">Math/GenVector/Displacement</text>
<text text-anchor="middle" x="1710" y="-119.5" font-family="Helvetica,sans-Serif" font-size="10.00" fill="#000000">Vector2D.h</text>
</g>
<!-- Node38&#45;&gt;Node39 -->
<g id="edge49" class="edge">
<title>Node38&#45;&gt;Node39</title>
<path fill="none" stroke="#191970" d="M1793.959,-184.9005C1780.0412,-175.3853 1758.272,-160.5023 1740.388,-148.2755"/>
<polygon fill="#191970" stroke="#191970" points="1742.2026,-145.2763 1731.9721,-142.5218 1738.2519,-151.0549 1742.2026,-145.2763"/>
</g>
<!-- Node40 -->
<g id="node41" class="node">
<title>Node40</title>
<polygon fill="none" stroke="#bfbfbf" points="1810.5,-118 1810.5,-137 1999.5,-137 1999.5,-118 1810.5,-118"/>
<text text-anchor="middle" x="1905" y="-125" font-family="Helvetica,sans-Serif" font-size="10.00" fill="#000000">Math/GenVector/PositionVector2D.h</text>
</g>
<!-- Node38&#45;&gt;Node40 -->
<g id="edge50" class="edge">
<title>Node38&#45;&gt;Node40</title>
<path fill="none" stroke="#191970" d="M1821.8977,-184.9005C1837.8164,-173.9052 1864.1121,-155.7422 1882.8599,-142.7927"/>
<polygon fill="#191970" stroke="#191970" points="1884.8892,-145.6448 1891.128,-137.0817 1880.9108,-139.8852 1884.8892,-145.6448"/>
</g>
</g>
</svg>
