<?xml version="1.0" encoding="UTF-8" standalone="no"?>
<!DOCTYPE svg PUBLIC "-//W3C//DTD SVG 1.1//EN"
 "http://www.w3.org/Graphics/SVG/1.1/DTD/svg11.dtd">
<!-- Generated by graphviz version 2.40.1 (20161225.0304)
 -->
<!-- Title: /home/travis/build/AliceO2Group/AliceO2/Generators/include/Generators/DecayerPythia8.h Pages: 1 -->
<svg width="320pt" height="117pt"
 viewBox="0.00 0.00 319.50 117.00" xmlns="http://www.w3.org/2000/svg" xmlns:xlink="http://www.w3.org/1999/xlink">
<g id="graph0" class="graph" transform="scale(1 1) rotate(0) translate(4 113)">
<title>/home/travis/build/AliceO2Group/AliceO2/Generators/include/Generators/DecayerPythia8.h</title>
<!-- Node0 -->
<g id="node1" class="node">
<title>Node0</title>
<polygon fill="#bfbfbf" stroke="#000000" points="101,-56.5 101,-108.5 270,-108.5 270,-56.5 101,-56.5"/>
<text text-anchor="start" x="109" y="-96.5" font-family="Helvetica,sans-Serif" font-size="10.00" fill="#000000">/home/travis/build</text>
<text text-anchor="start" x="109" y="-85.5" font-family="Helvetica,sans-Serif" font-size="10.00" fill="#000000">/AliceO2Group/AliceO2</text>
<text text-anchor="start" x="109" y="-74.5" font-family="Helvetica,sans-Serif" font-size="10.00" fill="#000000">/Generators/include/Generators</text>
<text text-anchor="middle" x="185.5" y="-63.5" font-family="Helvetica,sans-Serif" font-size="10.00" fill="#000000">/DecayerPythia8.h</text>
</g>
<!-- Node1 -->
<g id="node2" class="node">
<title>Node1</title>
<polygon fill="none" stroke="#bfbfbf" points="0,-.5 0,-19.5 119,-19.5 119,-.5 0,-.5"/>
<text text-anchor="middle" x="59.5" y="-7.5" font-family="Helvetica,sans-Serif" font-size="10.00" fill="#000000">TVirtualMCDecayer.h</text>
</g>
<!-- Node0&#45;&gt;Node1 -->
<g id="edge1" class="edge">
<title>Node0&#45;&gt;Node1</title>
<path fill="none" stroke="#191970" d="M140.0111,-56.3258C121.3906,-45.6116 100.5531,-33.6218 84.7427,-24.5246"/>
<polygon fill="#191970" stroke="#191970" points="86.4826,-21.4877 76.0694,-19.534 82.9915,-27.555 86.4826,-21.4877"/>
</g>
<!-- Node2 -->
<g id="node3" class="node">
<title>Node2</title>
<polygon fill="none" stroke="#bfbfbf" points="137.5,-.5 137.5,-19.5 233.5,-19.5 233.5,-.5 137.5,-.5"/>
<text text-anchor="middle" x="185.5" y="-7.5" font-family="Helvetica,sans-Serif" font-size="10.00" fill="#000000">Pythia8/Pythia.h</text>
</g>
<!-- Node0&#45;&gt;Node2 -->
<g id="edge2" class="edge">
<title>Node0&#45;&gt;Node2</title>
<path fill="none" stroke="#191970" d="M185.5,-56.3258C185.5,-47.5142 185.5,-37.8397 185.5,-29.621"/>
<polygon fill="#191970" stroke="#191970" points="189.0001,-29.534 185.5,-19.534 182.0001,-29.534 189.0001,-29.534"/>
</g>
<!-- Node3 -->
<g id="node4" class="node">
<title>Node3</title>
<polygon fill="none" stroke="#bfbfbf" points="251.5,-.5 251.5,-19.5 311.5,-19.5 311.5,-.5 251.5,-.5"/>
<text text-anchor="middle" x="281.5" y="-7.5" font-family="Helvetica,sans-Serif" font-size="10.00" fill="#000000">iostream</text>
</g>
<!-- Node0&#45;&gt;Node3 -->
<g id="edge3" class="edge">
<title>Node0&#45;&gt;Node3</title>
<path fill="none" stroke="#191970" d="M220.1582,-56.3258C233.6823,-46.1123 248.7414,-34.7396 260.5543,-25.8184"/>
<polygon fill="#191970" stroke="#191970" points="263.005,-28.3536 268.8757,-19.534 258.7863,-22.7676 263.005,-28.3536"/>
</g>
</g>
</svg>
