<?xml version="1.0" encoding="UTF-8" standalone="no"?>
<!DOCTYPE svg PUBLIC "-//W3C//DTD SVG 1.1//EN"
 "http://www.w3.org/Graphics/SVG/1.1/DTD/svg11.dtd">
<!-- Generated by graphviz version 2.40.1 (20161225.0304)
 -->
<!-- Title: /home/travis/build/AliceO2Group/AliceO2/DataFormats/Detectors/ITSMFT/common/src/ClusterTopology.cxx Pages: 1 -->
<!--zoomable 307 -->
<svg id="main" version="1.1" xmlns="http://www.w3.org/2000/svg" xmlns:xlink="http://www.w3.org/1999/xlink" xml:space="preserve" onload="init(evt)">
<style type="text/css"><![CDATA[
.edge:hover path { stroke: red; }
.edge:hover polygon { stroke: red; fill: red; }
]]></style>
<script type="text/javascript"><![CDATA[
var edges = document.getElementsByTagName('g');
if (edges && edges.length) {
  for (var i=0;i<edges.length;i++) {
    if (edges[i].id.substr(0,4)=='edge') {
      edges[i].setAttribute('class','edge');
    }
  }
}
]]></script>
        <defs>
                <circle id="rim" cx="0" cy="0" r="7"/>
                <circle id="rim2" cx="0" cy="0" r="3.5"/>
                <g id="zoomPlus">
                        <use xlink:href="#rim" fill="#404040">
                                <set attributeName="fill" to="#808080" begin="zoomplus.mouseover" end="zoomplus.mouseout"/>
                        </use>
                        <path d="M-4,0h8M0,-4v8" fill="none" stroke="white" stroke-width="1.5" pointer-events="none"/>
                </g>
                <g id="zoomMin">
                        <use xlink:href="#rim" fill="#404040">
                                <set attributeName="fill" to="#808080" begin="zoomminus.mouseover" end="zoomminus.mouseout"/>
                        </use>
                        <path d="M-4,0h8" fill="none" stroke="white" stroke-width="1.5" pointer-events="none"/>
                </g>
                <g id="dirArrow">
                        <path fill="none" stroke="white" stroke-width="1.5" d="M0,-3.0v7 M-2.5,-0.5L0,-3.0L2.5,-0.5"/>
                </g>
               <g id="resetDef">
                       <use xlink:href="#rim2" fill="#404040">
                               <set attributeName="fill" to="#808080" begin="reset.mouseover" end="reset.mouseout"/>
                       </use>
               </g>
        </defs>

<script type="text/javascript">
var viewWidth = 690;
var viewHeight = 307;
var sectionId = 'dynsection-0';
</script>
<script xlink:href="../../svgpan.js"/>
<svg id="graph" class="graph">
<g id="viewport">
<title>/home/travis/build/AliceO2Group/AliceO2/DataFormats/Detectors/ITSMFT/common/src/ClusterTopology.cxx</title>
<!-- Node0 -->
<g id="node1" class="node">
<title>Node0</title>
<polygon fill="#bfbfbf" stroke="#000000" points="416.7737,-246.5 416.7737,-298.5 633.7737,-298.5 633.7737,-246.5 416.7737,-246.5"/>
<text text-anchor="start" x="424.7737" y="-286.5" font-family="Helvetica,sans-Serif" font-size="10.00" fill="#000000">/home/travis/build</text>
<text text-anchor="start" x="424.7737" y="-275.5" font-family="Helvetica,sans-Serif" font-size="10.00" fill="#000000">/AliceO2Group/AliceO2</text>
<text text-anchor="start" x="424.7737" y="-264.5" font-family="Helvetica,sans-Serif" font-size="10.00" fill="#000000">/DataFormats/Detectors</text>
<text text-anchor="middle" x="525.2737" y="-253.5" font-family="Helvetica,sans-Serif" font-size="10.00" fill="#000000">/ITSMFT/common/src/ClusterTopology.cxx</text>
</g>
<!-- Node1 -->
<g id="node2" class="node">
<title>Node1</title>
<g id="a_node2"><a xlink:href="../../d8/ddb/ClusterTopology_8h.html" target="_top" xlink:title="Definition of the ClusterTopology class. ">
<polygon fill="none" stroke="#000000" points="244.2737,-179.5 244.2737,-209.5 396.2737,-209.5 396.2737,-179.5 244.2737,-179.5"/>
<text text-anchor="start" x="252.2737" y="-197.5" font-family="Helvetica,sans-Serif" font-size="10.00" fill="#000000">DataFormatsITSMFT/Cluster</text>
<text text-anchor="middle" x="320.2737" y="-186.5" font-family="Helvetica,sans-Serif" font-size="10.00" fill="#000000">Topology.h</text>
</a>
</g>
</g>
<!-- Node0&#45;&gt;Node1 -->
<g id="edge1" class="edge">
<title>Node0&#45;&gt;Node1</title>
<path fill="none" stroke="#191970" d="M456.7267,-246.4187C428.1373,-235.5408 395.575,-223.1512 369.4311,-213.2038"/>
<polygon fill="#191970" stroke="#191970" points="370.3382,-209.8042 359.7472,-209.5192 367.8488,-216.3466 370.3382,-209.8042"/>
</g>
<!-- Node9 -->
<g id="node10" class="node">
<title>Node9</title>
<g id="a_node10"><a xlink:href="../../dd/da4/Logger_8h.html" target="_top" xlink:title="Framework/Logger.h">
<polygon fill="none" stroke="#000000" points="414.7737,-185 414.7737,-204 529.7737,-204 529.7737,-185 414.7737,-185"/>
<text text-anchor="middle" x="472.2737" y="-192" font-family="Helvetica,sans-Serif" font-size="10.00" fill="#000000">Framework/Logger.h</text>
</a>
</g>
</g>
<!-- Node0&#45;&gt;Node9 -->
<g id="edge11" class="edge">
<title>Node0&#45;&gt;Node9</title>
<path fill="none" stroke="#191970" d="M507.3304,-246.0928C499.7889,-234.994 491.2117,-222.371 484.4291,-212.389"/>
<polygon fill="#191970" stroke="#191970" points="487.301,-210.388 478.7859,-204.0839 481.5112,-214.3222 487.301,-210.388"/>
</g>
<!-- Node10 -->
<g id="node11" class="node">
<title>Node10</title>
<polygon fill="none" stroke="#bfbfbf" points="548.2737,-185 548.2737,-204 608.2737,-204 608.2737,-185 548.2737,-185"/>
<text text-anchor="middle" x="578.2737" y="-192" font-family="Helvetica,sans-Serif" font-size="10.00" fill="#000000">iostream</text>
</g>
<!-- Node0&#45;&gt;Node10 -->
<g id="edge12" class="edge">
<title>Node0&#45;&gt;Node10</title>
<path fill="none" stroke="#191970" d="M543.2171,-246.0928C550.7586,-234.994 559.3357,-222.371 566.1184,-212.389"/>
<polygon fill="#191970" stroke="#191970" points="569.0363,-214.3222 571.7616,-204.0839 563.2464,-210.388 569.0363,-214.3222"/>
</g>
<!-- Node11 -->
<g id="node12" class="node">
<title>Node11</title>
<polygon fill="none" stroke="#bfbfbf" points="626.2737,-185 626.2737,-204 682.2737,-204 682.2737,-185 626.2737,-185"/>
<text text-anchor="middle" x="654.2737" y="-192" font-family="Helvetica,sans-Serif" font-size="10.00" fill="#000000">TMath.h</text>
</g>
<!-- Node0&#45;&gt;Node11 -->
<g id="edge13" class="edge">
<title>Node0&#45;&gt;Node11</title>
<path fill="none" stroke="#191970" d="M568.5877,-246.3101C588.8445,-234.0619 612.2374,-219.9173 629.4578,-209.505"/>
<polygon fill="#191970" stroke="#191970" points="631.5841,-212.3094 638.3305,-204.1401 627.9622,-206.3193 631.5841,-212.3094"/>
</g>
<!-- Node2 -->
<g id="node3" class="node">
<title>Node2</title>
<g id="a_node3"><a xlink:href="../../de/dc1/ClusterPattern_8h.html" target="_top" xlink:title="DataFormatsITSMFT/Cluster\lPattern.h">
<polygon fill="none" stroke="#000000" points="90.2737,-112.5 90.2737,-142.5 242.2737,-142.5 242.2737,-112.5 90.2737,-112.5"/>
<text text-anchor="start" x="98.2737" y="-130.5" font-family="Helvetica,sans-Serif" font-size="10.00" fill="#000000">DataFormatsITSMFT/Cluster</text>
<text text-anchor="middle" x="166.2737" y="-119.5" font-family="Helvetica,sans-Serif" font-size="10.00" fill="#000000">Pattern.h</text>
</a>
</g>
</g>
<!-- Node1&#45;&gt;Node2 -->
<g id="edge2" class="edge">
<title>Node1&#45;&gt;Node2</title>
<path fill="none" stroke="#191970" d="M285.7131,-179.4639C263.401,-169.7567 234.1751,-157.0415 210.2183,-146.6188"/>
<polygon fill="#191970" stroke="#191970" points="211.5512,-143.3818 200.9851,-142.6017 208.7585,-149.8006 211.5512,-143.3818"/>
</g>
<!-- Node5 -->
<g id="node6" class="node">
<title>Node5</title>
<polygon fill="none" stroke="#bfbfbf" points="346.7737,-56.5 346.7737,-75.5 395.7737,-75.5 395.7737,-56.5 346.7737,-56.5"/>
<text text-anchor="middle" x="371.2737" y="-63.5" font-family="Helvetica,sans-Serif" font-size="10.00" fill="#000000">iosfwd</text>
</g>
<!-- Node1&#45;&gt;Node5 -->
<g id="edge10" class="edge">
<title>Node1&#45;&gt;Node5</title>
<path fill="none" stroke="#191970" d="M322.0028,-179.3506C324.3354,-162.3734 329.3901,-134.3069 339.2737,-112 343.7307,-101.9409 350.4949,-91.792 356.658,-83.5958"/>
<polygon fill="#191970" stroke="#191970" points="359.5427,-85.5895 362.9721,-75.565 354.0399,-81.263 359.5427,-85.5895"/>
</g>
<!-- Node8 -->
<g id="node9" class="node">
<title>Node8</title>
<polygon fill="none" stroke="#bfbfbf" points="348.2737,-118 348.2737,-137 386.2737,-137 386.2737,-118 348.2737,-118"/>
<text text-anchor="middle" x="367.2737" y="-125" font-family="Helvetica,sans-Serif" font-size="10.00" fill="#000000">map</text>
</g>
<!-- Node1&#45;&gt;Node8 -->
<g id="edge9" class="edge">
<title>Node1&#45;&gt;Node8</title>
<path fill="none" stroke="#191970" d="M330.9388,-179.2967C337.9772,-169.2631 347.2315,-156.0709 354.6389,-145.5113"/>
<polygon fill="#191970" stroke="#191970" points="357.6934,-147.2516 360.571,-137.055 351.9628,-143.2316 357.6934,-147.2516"/>
</g>
<!-- Node3 -->
<g id="node4" class="node">
<title>Node3</title>
<polygon fill="none" stroke="#bfbfbf" points="80.7737,-.5 80.7737,-19.5 139.7737,-19.5 139.7737,-.5 80.7737,-.5"/>
<text text-anchor="middle" x="110.2737" y="-7.5" font-family="Helvetica,sans-Serif" font-size="10.00" fill="#000000">Rtypes.h</text>
</g>
<!-- Node2&#45;&gt;Node3 -->
<g id="edge3" class="edge">
<title>Node2&#45;&gt;Node3</title>
<path fill="none" stroke="#191970" d="M91.4399,-112.4823C54.7274,-103.4398 16.0885,-90.814 5.2737,-76 -15.4706,-47.5847 33.0428,-28.5549 70.854,-18.5057"/>
<polygon fill="#191970" stroke="#191970" points="71.8377,-21.8673 80.6772,-16.0266 70.1247,-15.0801 71.8377,-21.8673"/>
</g>
<!-- Node4 -->
<g id="node5" class="node">
<title>Node4</title>
<polygon fill="none" stroke="#bfbfbf" points="14.2737,-56.5 14.2737,-75.5 56.2737,-75.5 56.2737,-56.5 14.2737,-56.5"/>
<text text-anchor="middle" x="35.2737" y="-63.5" font-family="Helvetica,sans-Serif" font-size="10.00" fill="#000000">array</text>
</g>
<!-- Node2&#45;&gt;Node4 -->
<g id="edge4" class="edge">
<title>Node2&#45;&gt;Node4</title>
<path fill="none" stroke="#191970" d="M134.2275,-112.4554C113.0409,-102.509 85.471,-89.5659 64.815,-79.8686"/>
<polygon fill="#191970" stroke="#191970" points="66.1136,-76.6118 55.5741,-75.5303 63.1388,-82.9483 66.1136,-76.6118"/>
</g>
<!-- Node2&#45;&gt;Node5 -->
<g id="edge5" class="edge">
<title>Node2&#45;&gt;Node5</title>
<path fill="none" stroke="#191970" d="M216.4224,-112.4554C253.9128,-101.2083 304.1759,-86.1294 337.125,-76.2446"/>
<polygon fill="#191970" stroke="#191970" points="338.189,-79.5796 346.7615,-73.3537 336.1775,-72.8748 338.189,-79.5796"/>
</g>
<!-- Node6 -->
<g id="node7" class="node">
<title>Node6</title>
<polygon fill="none" stroke="#bfbfbf" points="74.2737,-56.5 74.2737,-75.5 122.2737,-75.5 122.2737,-56.5 74.2737,-56.5"/>
<text text-anchor="middle" x="98.2737" y="-63.5" font-family="Helvetica,sans-Serif" font-size="10.00" fill="#000000">gsl/gsl</text>
</g>
<!-- Node2&#45;&gt;Node6 -->
<g id="edge6" class="edge">
<title>Node2&#45;&gt;Node6</title>
<path fill="none" stroke="#191970" d="M149.4647,-112.2977C139.534,-103.3163 126.948,-91.9334 116.741,-82.702"/>
<polygon fill="#191970" stroke="#191970" points="118.9258,-79.9588 109.1614,-75.8469 114.2304,-85.1505 118.9258,-79.9588"/>
</g>
<!-- Node7 -->
<g id="node8" class="node">
<title>Node7</title>
<g id="a_node8"><a xlink:href="../../df/de4/CompCluster_8h.html" target="_top" xlink:title="Definition of the ITSMFT compact cluster. ">
<polygon fill="none" stroke="#000000" points="140.2737,-56.5 140.2737,-75.5 328.2737,-75.5 328.2737,-56.5 140.2737,-56.5"/>
<text text-anchor="middle" x="234.2737" y="-63.5" font-family="Helvetica,sans-Serif" font-size="10.00" fill="#000000">DataFormatsITSMFT/CompCluster.h</text>
</a>
</g>
</g>
<!-- Node2&#45;&gt;Node7 -->
<g id="edge7" class="edge">
<title>Node2&#45;&gt;Node7</title>
<path fill="none" stroke="#191970" d="M183.0827,-112.2977C193.0135,-103.3163 205.5994,-91.9334 215.8064,-82.702"/>
<polygon fill="#191970" stroke="#191970" points="218.3171,-85.1505 223.3861,-75.8469 213.6217,-79.9588 218.3171,-85.1505"/>
</g>
<!-- Node7&#45;&gt;Node3 -->
<g id="edge8" class="edge">
<title>Node7&#45;&gt;Node3</title>
<path fill="none" stroke="#191970" d="M212.9574,-56.3733C193.0522,-47.3838 163.1302,-33.8706 140.7137,-23.7471"/>
<polygon fill="#191970" stroke="#191970" points="141.8662,-20.4272 131.3119,-19.5011 138.9851,-26.8068 141.8662,-20.4272"/>
</g>
</g>
</svg>
        <g id="navigator" transform="translate(0 0)" fill="#404254">
                <rect fill="#f2f5e9" fill-opacity="0.5" stroke="#606060" stroke-width=".5" x="0" y="0" width="60" height="60"/>
                <use id="zoomplus" xlink:href="#zoomPlus" x="17" y="9" onmousedown="handleZoom(evt,'in')"/>
                <use id="zoomminus" xlink:href="#zoomMin" x="42" y="9" onmousedown="handleZoom(evt,'out')"/>
                <use id="reset" xlink:href="#resetDef" x="30" y="36" onmousedown="handleReset()"/>
                <g id="arrowUp" xlink:href="#dirArrow" transform="translate(30 24)" onmousedown="handlePan(0,-1)">
                  <use xlink:href="#rim" fill="#404040">
                        <set attributeName="fill" to="#808080" begin="arrowUp.mouseover" end="arrowUp.mouseout"/>
                  </use>
                  <path fill="none" stroke="white" stroke-width="1.5" d="M0,-3.0v7 M-2.5,-0.5L0,-3.0L2.5,-0.5"/>
                </g>
                <g id="arrowRight" xlink:href="#dirArrow" transform="rotate(90) translate(36 -43)" onmousedown="handlePan(1,0)">
                  <use xlink:href="#rim" fill="#404040">
                        <set attributeName="fill" to="#808080" begin="arrowRight.mouseover" end="arrowRight.mouseout"/>
                  </use>
                  <path fill="none" stroke="white" stroke-width="1.5" d="M0,-3.0v7 M-2.5,-0.5L0,-3.0L2.5,-0.5"/>
                </g>
                <g id="arrowDown" xlink:href="#dirArrow" transform="rotate(180) translate(-30 -48)" onmousedown="handlePan(0,1)">
                  <use xlink:href="#rim" fill="#404040">
                        <set attributeName="fill" to="#808080" begin="arrowDown.mouseover" end="arrowDown.mouseout"/>
                  </use>
                  <path fill="none" stroke="white" stroke-width="1.5" d="M0,-3.0v7 M-2.5,-0.5L0,-3.0L2.5,-0.5"/>
                </g>
                <g id="arrowLeft" xlink:href="#dirArrow" transform="rotate(270) translate(-36 17)" onmousedown="handlePan(-1,0)">
                  <use xlink:href="#rim" fill="#404040">
                        <set attributeName="fill" to="#808080" begin="arrowLeft.mouseover" end="arrowLeft.mouseout"/>
                  </use>
                  <path fill="none" stroke="white" stroke-width="1.5" d="M0,-3.0v7 M-2.5,-0.5L0,-3.0L2.5,-0.5"/>
                </g>
        </g>
        <svg viewBox="0 0 15 15" width="100%" height="30px" preserveAspectRatio="xMaxYMin meet">
         <g id="arrow_out" transform="scale(0.3 0.3)">
          <a xlink:href="ClusterTopology_8cxx__incl_org.svg" target="_base">
           <rect id="button" ry="5" rx="5" y="6" x="6" height="38" width="38"
                fill="#f2f5e9" fill-opacity="0.5" stroke="#606060" stroke-width="1.0"/>
           <path id="arrow"
             d="M 11.500037,31.436501 C 11.940474,20.09759 22.043105,11.32322 32.158766,21.979434 L 37.068811,17.246167 C 37.068811,17.246167 37.088388,32 37.088388,32 L 22.160133,31.978069 C 22.160133,31.978069 26.997745,27.140456 26.997745,27.140456 C 18.528582,18.264221 13.291696,25.230495 11.500037,31.436501 z"
             style="fill:#404040;"/>
          </a>
         </g>
        </svg>
</svg>
