<?xml version="1.0" encoding="UTF-8" standalone="no"?>
<!DOCTYPE svg PUBLIC "-//W3C//DTD SVG 1.1//EN"
 "http://www.w3.org/Graphics/SVG/1.1/DTD/svg11.dtd">
<!-- Generated by graphviz version 2.40.1 (20161225.0304)
 -->
<!-- Title: /home/travis/build/AliceO2Group/AliceO2/Detectors/MUON/MID/Raw/exe/CRUBareDataChecker.h Pages: 1 -->
<svg width="602pt" height="296pt"
 viewBox="0.00 0.00 602.00 296.00" xmlns="http://www.w3.org/2000/svg" xmlns:xlink="http://www.w3.org/1999/xlink">
<g id="graph0" class="graph" transform="scale(1 1) rotate(0) translate(4 292)">
<title>/home/travis/build/AliceO2Group/AliceO2/Detectors/MUON/MID/Raw/exe/CRUBareDataChecker.h</title>
<!-- Node0 -->
<g id="node1" class="node">
<title>Node0</title>
<polygon fill="#bfbfbf" stroke="#000000" points="244.5,-235.5 244.5,-287.5 399.5,-287.5 399.5,-235.5 244.5,-235.5"/>
<text text-anchor="start" x="252.5" y="-275.5" font-family="Helvetica,sans-Serif" font-size="10.00" fill="#000000">/home/travis/build</text>
<text text-anchor="start" x="252.5" y="-264.5" font-family="Helvetica,sans-Serif" font-size="10.00" fill="#000000">/AliceO2Group/AliceO2</text>
<text text-anchor="start" x="252.5" y="-253.5" font-family="Helvetica,sans-Serif" font-size="10.00" fill="#000000">/Detectors/MUON/MID/Raw</text>
<text text-anchor="middle" x="322" y="-242.5" font-family="Helvetica,sans-Serif" font-size="10.00" fill="#000000">/exe/CRUBareDataChecker.h</text>
</g>
<!-- Node1 -->
<g id="node2" class="node">
<title>Node1</title>
<polygon fill="none" stroke="#bfbfbf" points="0,-56.5 0,-75.5 50,-75.5 50,-56.5 0,-56.5"/>
<text text-anchor="middle" x="25" y="-63.5" font-family="Helvetica,sans-Serif" font-size="10.00" fill="#000000">cstdint</text>
</g>
<!-- Node0&#45;&gt;Node1 -->
<g id="edge1" class="edge">
<title>Node0&#45;&gt;Node1</title>
<path fill="none" stroke="#191970" d="M244.4264,-247.1809C198.9678,-237.1302 141.1963,-221.4354 93,-199 53.3223,-180.53 32.3245,-181.7604 12,-143 2.4972,-124.8774 8.7192,-101.3576 15.4269,-85.1049"/>
<polygon fill="#191970" stroke="#191970" points="18.7937,-86.1559 19.7444,-75.6038 12.4208,-83.2598 18.7937,-86.1559"/>
</g>
<!-- Node2 -->
<g id="node3" class="node">
<title>Node2</title>
<polygon fill="none" stroke="#bfbfbf" points="298.5,-179.5 298.5,-198.5 345.5,-198.5 345.5,-179.5 298.5,-179.5"/>
<text text-anchor="middle" x="322" y="-186.5" font-family="Helvetica,sans-Serif" font-size="10.00" fill="#000000">vector</text>
</g>
<!-- Node0&#45;&gt;Node2 -->
<g id="edge2" class="edge">
<title>Node0&#45;&gt;Node2</title>
<path fill="none" stroke="#191970" d="M322,-235.3258C322,-226.5142 322,-216.8397 322,-208.621"/>
<polygon fill="#191970" stroke="#191970" points="325.5001,-208.534 322,-198.534 318.5001,-208.534 325.5001,-208.534"/>
</g>
<!-- Node3 -->
<g id="node4" class="node">
<title>Node3</title>
<polygon fill="none" stroke="#bfbfbf" points="364,-179.5 364,-198.5 408,-198.5 408,-179.5 364,-179.5"/>
<text text-anchor="middle" x="386" y="-186.5" font-family="Helvetica,sans-Serif" font-size="10.00" fill="#000000">string</text>
</g>
<!-- Node0&#45;&gt;Node3 -->
<g id="edge3" class="edge">
<title>Node0&#45;&gt;Node3</title>
<path fill="none" stroke="#191970" d="M345.1055,-235.3258C353.6796,-225.613 363.1791,-214.8518 370.8628,-206.1476"/>
<polygon fill="#191970" stroke="#191970" points="373.5897,-208.3472 377.5838,-198.534 368.3419,-203.7146 373.5897,-208.3472"/>
</g>
<!-- Node4 -->
<g id="node5" class="node">
<title>Node4</title>
<polygon fill="none" stroke="#bfbfbf" points="426,-179.5 426,-198.5 464,-198.5 464,-179.5 426,-179.5"/>
<text text-anchor="middle" x="445" y="-186.5" font-family="Helvetica,sans-Serif" font-size="10.00" fill="#000000">map</text>
</g>
<!-- Node0&#45;&gt;Node4 -->
<g id="edge4" class="edge">
<title>Node0&#45;&gt;Node4</title>
<path fill="none" stroke="#191970" d="M366.4058,-235.3258C384.4131,-224.7118 404.5444,-212.8458 419.9243,-203.7804"/>
<polygon fill="#191970" stroke="#191970" points="421.9875,-206.6271 428.8251,-198.534 418.433,-200.5967 421.9875,-206.6271"/>
</g>
<!-- Node5 -->
<g id="node6" class="node">
<title>Node5</title>
<polygon fill="none" stroke="#bfbfbf" points="482,-179.5 482,-198.5 530,-198.5 530,-179.5 482,-179.5"/>
<text text-anchor="middle" x="506" y="-186.5" font-family="Helvetica,sans-Serif" font-size="10.00" fill="#000000">gsl/gsl</text>
</g>
<!-- Node0&#45;&gt;Node5 -->
<g id="edge5" class="edge">
<title>Node0&#45;&gt;Node5</title>
<path fill="none" stroke="#191970" d="M388.1683,-235.4283C416.6559,-224.2035 448.7393,-211.5619 472.2267,-202.3074"/>
<polygon fill="#191970" stroke="#191970" points="473.7101,-205.4849 481.7308,-198.5626 471.1439,-198.9722 473.7101,-205.4849"/>
</g>
<!-- Node6 -->
<g id="node7" class="node">
<title>Node6</title>
<g id="a_node7"><a xlink:href="../../d2/df9/MUON_2MID_2include_2DataFormatsMID_2ROFRecord_8h.html" target="_top" xlink:title="Definition of the MID event record. ">
<polygon fill="none" stroke="#000000" points="117.5,-179.5 117.5,-198.5 280.5,-198.5 280.5,-179.5 117.5,-179.5"/>
<text text-anchor="middle" x="199" y="-186.5" font-family="Helvetica,sans-Serif" font-size="10.00" fill="#000000">DataFormatsMID/ROFRecord.h</text>
</a>
</g>
</g>
<!-- Node0&#45;&gt;Node6 -->
<g id="edge6" class="edge">
<title>Node0&#45;&gt;Node6</title>
<path fill="none" stroke="#191970" d="M277.5942,-235.3258C259.5869,-224.7118 239.4556,-212.8458 224.0757,-203.7804"/>
<polygon fill="#191970" stroke="#191970" points="225.567,-200.5967 215.1749,-198.534 222.0125,-206.6271 225.567,-200.5967"/>
</g>
<!-- Node13 -->
<g id="node14" class="node">
<title>Node13</title>
<g id="a_node14"><a xlink:href="../../d3/d4a/LocalBoardRO_8h.html" target="_top" xlink:title="Structure to store the FEE local board information. ">
<polygon fill="none" stroke="#000000" points="21,-118 21,-137 157,-137 157,-118 21,-118"/>
<text text-anchor="middle" x="89" y="-125" font-family="Helvetica,sans-Serif" font-size="10.00" fill="#000000">MIDRaw/LocalBoardRO.h</text>
</a>
</g>
</g>
<!-- Node0&#45;&gt;Node13 -->
<g id="edge14" class="edge">
<title>Node0&#45;&gt;Node13</title>
<path fill="none" stroke="#191970" d="M244.3401,-246.9395C191.6578,-235.5705 128.225,-218.4701 109,-199 95.5908,-185.4198 91.0023,-163.6308 89.5168,-147.6712"/>
<polygon fill="#191970" stroke="#191970" points="92.9866,-147.0568 88.9018,-137.2811 85.9989,-147.4705 92.9866,-147.0568"/>
</g>
<!-- Node7 -->
<g id="node8" class="node">
<title>Node7</title>
<g id="a_node8"><a xlink:href="../../d9/d80/InteractionRecord_8h.html" target="_top" xlink:title="CommonDataFormat/Interaction\lRecord.h">
<polygon fill="none" stroke="#000000" points="175,-112.5 175,-142.5 349,-142.5 349,-112.5 175,-112.5"/>
<text text-anchor="start" x="183" y="-130.5" font-family="Helvetica,sans-Serif" font-size="10.00" fill="#000000">CommonDataFormat/Interaction</text>
<text text-anchor="middle" x="262" y="-119.5" font-family="Helvetica,sans-Serif" font-size="10.00" fill="#000000">Record.h</text>
</a>
</g>
</g>
<!-- Node6&#45;&gt;Node7 -->
<g id="edge7" class="edge">
<title>Node6&#45;&gt;Node7</title>
<path fill="none" stroke="#191970" d="M208.8438,-179.3906C216.9753,-171.4527 228.8386,-159.8718 239.2959,-149.6635"/>
<polygon fill="#191970" stroke="#191970" points="241.8776,-152.0345 246.5885,-142.5446 236.9878,-147.0255 241.8776,-152.0345"/>
</g>
<!-- Node7&#45;&gt;Node1 -->
<g id="edge12" class="edge">
<title>Node7&#45;&gt;Node1</title>
<path fill="none" stroke="#191970" d="M200.0988,-112.4369C162.1682,-103.0583 112.4076,-90.4913 60.0293,-76.2173"/>
<polygon fill="#191970" stroke="#191970" points="60.7902,-72.7969 50.2209,-73.5325 58.9421,-79.5485 60.7902,-72.7969"/>
</g>
<!-- Node8 -->
<g id="node9" class="node">
<title>Node8</title>
<g id="a_node9"><a xlink:href="../../d2/d45/GPUCommonRtypes_8h.html" target="_top" xlink:title="GPUCommonRtypes.h">
<polygon fill="none" stroke="#000000" points="195.5,-56.5 195.5,-75.5 320.5,-75.5 320.5,-56.5 195.5,-56.5"/>
<text text-anchor="middle" x="258" y="-63.5" font-family="Helvetica,sans-Serif" font-size="10.00" fill="#000000">GPUCommonRtypes.h</text>
</a>
</g>
</g>
<!-- Node7&#45;&gt;Node8 -->
<g id="edge8" class="edge">
<title>Node7&#45;&gt;Node8</title>
<path fill="none" stroke="#191970" d="M261.0112,-112.2977C260.4965,-104.3834 259.8604,-94.6043 259.3057,-86.0759"/>
<polygon fill="#191970" stroke="#191970" points="262.7822,-85.5986 258.6405,-75.8469 255.797,-86.053 262.7822,-85.5986"/>
</g>
<!-- Node10 -->
<g id="node11" class="node">
<title>Node10</title>
<polygon fill="none" stroke="#bfbfbf" points="128.5,-56.5 128.5,-75.5 177.5,-75.5 177.5,-56.5 128.5,-56.5"/>
<text text-anchor="middle" x="153" y="-63.5" font-family="Helvetica,sans-Serif" font-size="10.00" fill="#000000">iosfwd</text>
</g>
<!-- Node7&#45;&gt;Node10 -->
<g id="edge10" class="edge">
<title>Node7&#45;&gt;Node10</title>
<path fill="none" stroke="#191970" d="M235.3356,-112.4554C218.1059,-102.734 195.8025,-90.15 178.7554,-80.5317"/>
<polygon fill="#191970" stroke="#191970" points="180.3204,-77.3961 169.8911,-75.5303 176.8806,-83.4926 180.3204,-77.3961"/>
</g>
<!-- Node11 -->
<g id="node12" class="node">
<title>Node11</title>
<polygon fill="none" stroke="#bfbfbf" points="338.5,-56.5 338.5,-75.5 385.5,-75.5 385.5,-56.5 338.5,-56.5"/>
<text text-anchor="middle" x="362" y="-63.5" font-family="Helvetica,sans-Serif" font-size="10.00" fill="#000000">cmath</text>
</g>
<!-- Node7&#45;&gt;Node11 -->
<g id="edge11" class="edge">
<title>Node7&#45;&gt;Node11</title>
<path fill="none" stroke="#191970" d="M286.4628,-112.4554C302.1235,-102.8241 322.3532,-90.3828 337.9356,-80.7996"/>
<polygon fill="#191970" stroke="#191970" points="339.819,-83.7503 346.5035,-75.5303 336.152,-77.7876 339.819,-83.7503"/>
</g>
<!-- Node12 -->
<g id="node13" class="node">
<title>Node12</title>
<g id="a_node13"><a xlink:href="../../d4/dc6/LHCConstants_8h.html" target="_top" xlink:title="Header to collect LHC related constants. ">
<polygon fill="none" stroke="#000000" points="404,-56.5 404,-75.5 594,-75.5 594,-56.5 404,-56.5"/>
<text text-anchor="middle" x="499" y="-63.5" font-family="Helvetica,sans-Serif" font-size="10.00" fill="#000000">CommonConstants/LHCConstants.h</text>
</a>
</g>
</g>
<!-- Node7&#45;&gt;Node12 -->
<g id="edge13" class="edge">
<title>Node7&#45;&gt;Node12</title>
<path fill="none" stroke="#191970" d="M319.9767,-112.4554C360.7349,-101.8789 414.5509,-87.914 452.5005,-78.0663"/>
<polygon fill="#191970" stroke="#191970" points="453.4731,-81.4299 462.2734,-75.5303 451.7149,-74.6543 453.4731,-81.4299"/>
</g>
<!-- Node9 -->
<g id="node10" class="node">
<title>Node9</title>
<polygon fill="none" stroke="#bfbfbf" points="228.5,-.5 228.5,-19.5 287.5,-19.5 287.5,-.5 228.5,-.5"/>
<text text-anchor="middle" x="258" y="-7.5" font-family="Helvetica,sans-Serif" font-size="10.00" fill="#000000">Rtypes.h</text>
</g>
<!-- Node8&#45;&gt;Node9 -->
<g id="edge9" class="edge">
<title>Node8&#45;&gt;Node9</title>
<path fill="none" stroke="#191970" d="M258,-56.2455C258,-48.9382 258,-38.6944 258,-29.7046"/>
<polygon fill="#191970" stroke="#191970" points="261.5001,-29.6426 258,-19.6427 254.5001,-29.6427 261.5001,-29.6426"/>
</g>
<!-- Node13&#45;&gt;Node1 -->
<g id="edge15" class="edge">
<title>Node13&#45;&gt;Node1</title>
<path fill="none" stroke="#191970" d="M79,-117.8906C69.2881,-108.5581 54.3361,-94.1902 42.6259,-82.9374"/>
<polygon fill="#191970" stroke="#191970" points="44.7766,-80.15 35.141,-75.7449 39.9264,-85.1974 44.7766,-80.15"/>
</g>
<!-- Node13&#45;&gt;Node10 -->
<g id="edge17" class="edge">
<title>Node13&#45;&gt;Node10</title>
<path fill="none" stroke="#191970" d="M99,-117.8906C108.7119,-108.5581 123.6639,-94.1902 135.3741,-82.9374"/>
<polygon fill="#191970" stroke="#191970" points="138.0736,-85.1974 142.859,-75.7449 133.2234,-80.15 138.0736,-85.1974"/>
</g>
<!-- Node14 -->
<g id="node15" class="node">
<title>Node14</title>
<polygon fill="none" stroke="#bfbfbf" points="68,-56.5 68,-75.5 110,-75.5 110,-56.5 68,-56.5"/>
<text text-anchor="middle" x="89" y="-63.5" font-family="Helvetica,sans-Serif" font-size="10.00" fill="#000000">array</text>
</g>
<!-- Node13&#45;&gt;Node14 -->
<g id="edge16" class="edge">
<title>Node13&#45;&gt;Node14</title>
<path fill="none" stroke="#191970" d="M89,-117.8906C89,-109.3657 89,-96.6392 89,-85.9235"/>
<polygon fill="#191970" stroke="#191970" points="92.5001,-85.7448 89,-75.7449 85.5001,-85.7449 92.5001,-85.7448"/>
</g>
</g>
</svg>
