<?xml version="1.0" encoding="UTF-8" standalone="no"?>
<!DOCTYPE svg PUBLIC "-//W3C//DTD SVG 1.1//EN"
 "http://www.w3.org/Graphics/SVG/1.1/DTD/svg11.dtd">
<!-- Generated by graphviz version 2.40.1 (20161225.0304)
 -->
<!-- Title: TimestampUserTask Pages: 1 -->
<!--zoomable 656 -->
<svg id="main" version="1.1" xmlns="http://www.w3.org/2000/svg" xmlns:xlink="http://www.w3.org/1999/xlink" xml:space="preserve" onload="init(evt)">
<style type="text/css"><![CDATA[
.edge:hover path { stroke: red; }
.edge:hover polygon { stroke: red; fill: red; }
]]></style>
<script type="text/javascript"><![CDATA[
var edges = document.getElementsByTagName('g');
if (edges && edges.length) {
  for (var i=0;i<edges.length;i++) {
    if (edges[i].id.substr(0,4)=='edge') {
      edges[i].setAttribute('class','edge');
    }
  }
}
]]></script>
        <defs>
                <circle id="rim" cx="0" cy="0" r="7"/>
                <circle id="rim2" cx="0" cy="0" r="3.5"/>
                <g id="zoomPlus">
                        <use xlink:href="#rim" fill="#404040">
                                <set attributeName="fill" to="#808080" begin="zoomplus.mouseover" end="zoomplus.mouseout"/>
                        </use>
                        <path d="M-4,0h8M0,-4v8" fill="none" stroke="white" stroke-width="1.5" pointer-events="none"/>
                </g>
                <g id="zoomMin">
                        <use xlink:href="#rim" fill="#404040">
                                <set attributeName="fill" to="#808080" begin="zoomminus.mouseover" end="zoomminus.mouseout"/>
                        </use>
                        <path d="M-4,0h8" fill="none" stroke="white" stroke-width="1.5" pointer-events="none"/>
                </g>
                <g id="dirArrow">
                        <path fill="none" stroke="white" stroke-width="1.5" d="M0,-3.0v7 M-2.5,-0.5L0,-3.0L2.5,-0.5"/>
                </g>
               <g id="resetDef">
                       <use xlink:href="#rim2" fill="#404040">
                               <set attributeName="fill" to="#808080" begin="reset.mouseover" end="reset.mouseout"/>
                       </use>
               </g>
        </defs>

<script type="text/javascript">
var viewWidth = 844;
var viewHeight = 656;
var sectionId = 'dynsection-0';
</script>
<script xlink:href="../../svgpan.js"/>
<svg id="graph" class="graph">
<g id="viewport">
<title>TimestampUserTask</title>
<!-- Node1 -->
<g id="node1" class="node">
<title>Node1</title>
<polygon fill="#bfbfbf" stroke="#000000" points="411.5,-.5 411.5,-68.5 527.5,-68.5 527.5,-.5 411.5,-.5"/>
<text text-anchor="middle" x="469.5" y="-56.5" font-family="Helvetica,sans-Serif" font-size="10.00" fill="#000000">TimestampUserTask</text>
<polyline fill="none" stroke="#000000" points="411.5,-49.5 527.5,-49.5 "/>
<text text-anchor="middle" x="469.5" y="-37.5" font-family="Helvetica,sans-Serif" font-size="10.00" fill="#000000"> </text>
<polyline fill="none" stroke="#000000" points="411.5,-30.5 527.5,-30.5 "/>
<text text-anchor="start" x="419.5" y="-18.5" font-family="Helvetica,sans-Serif" font-size="10.00" fill="#000000">+ init()</text>
<text text-anchor="start" x="419.5" y="-7.5" font-family="Helvetica,sans-Serif" font-size="10.00" fill="#000000">+ process()</text>
</g>
<!-- Node2 -->
<g id="node2" class="node">
<title>Node2</title>
<g id="a_node2"><a xlink:href="../../de/de9/structo2_1_1framework_1_1Service.html" target="_top" xlink:title="{o2::framework::Service\l\&lt; o2::ccdb::BasicCCDBManager \&gt;\n||+ operator&#45;\&gt;()\l}">
<polygon fill="none" stroke="#000000" points="117.5,-138.5 117.5,-206.5 299.5,-206.5 299.5,-138.5 117.5,-138.5"/>
<text text-anchor="start" x="125.5" y="-194.5" font-family="Helvetica,sans-Serif" font-size="10.00" fill="#000000">o2::framework::Service</text>
<text text-anchor="middle" x="208.5" y="-183.5" font-family="Helvetica,sans-Serif" font-size="10.00" fill="#000000">&lt; o2::ccdb::BasicCCDBManager &gt;</text>
<polyline fill="none" stroke="#000000" points="117.5,-176.5 299.5,-176.5 "/>
<text text-anchor="middle" x="208.5" y="-164.5" font-family="Helvetica,sans-Serif" font-size="10.00" fill="#000000"> </text>
<polyline fill="none" stroke="#000000" points="117.5,-157.5 299.5,-157.5 "/>
<text text-anchor="start" x="125.5" y="-145.5" font-family="Helvetica,sans-Serif" font-size="10.00" fill="#000000">+ operator&#45;&gt;()</text>
</a>
</g>
</g>
<!-- Node2&#45;&gt;Node1 -->
<g id="edge1" class="edge">
<title>Node2&#45;&gt;Node1</title>
<path fill="none" stroke="#404040" d="M273.0169,-138.3876C311.6522,-117.9597 360.7585,-91.9955 400.2131,-71.1344"/>
<polygon fill="none" stroke="#404040" points="400.4603,-71.0038 403.8948,-64.6631 411.0687,-65.3947 407.6342,-71.7354 400.4603,-71.0038"/>
<text text-anchor="middle" x="387.5" y="-95.5" font-family="Helvetica,sans-Serif" font-size="10.00" fill="#000000"> +ccdb</text>
</g>
<!-- Node3 -->
<g id="node3" class="node">
<title>Node3</title>
<g id="a_node3"><a xlink:href="../../da/d73/classo2_1_1ccdb_1_1BasicCCDBManager.html" target="_top" xlink:title="{o2::ccdb::BasicCCDBManager\n||+ setURL()\l+ setTimestamp()\l+ getURL()\l+ getTimestamp()\l+ getForTimeStamp()\l+ get()\l+ isHostReachable()\l+ clearCache()\l+ clearCache()\l+ isCachingEnabled()\l+ setCachingEnabled()\l+ isValidityCheckingEnabled()\l+ setValidityCheckingEnabled()\l+ setCreatedNotAfter()\l+ getCreatedNotAfter()\l+ resetCreatedNotAfter()\l+ setCreatedNotBefore()\l+ getCreatedNotBefore()\l+ resetCreatedNotBefore()\l+ instance()\l}">
<polygon fill="none" stroke="#000000" points="0,-265.5 0,-531.5 171,-531.5 171,-265.5 0,-265.5"/>
<text text-anchor="middle" x="85.5" y="-519.5" font-family="Helvetica,sans-Serif" font-size="10.00" fill="#000000">o2::ccdb::BasicCCDBManager</text>
<polyline fill="none" stroke="#000000" points="0,-512.5 171,-512.5 "/>
<text text-anchor="middle" x="85.5" y="-500.5" font-family="Helvetica,sans-Serif" font-size="10.00" fill="#000000"> </text>
<polyline fill="none" stroke="#000000" points="0,-493.5 171,-493.5 "/>
<text text-anchor="start" x="8" y="-481.5" font-family="Helvetica,sans-Serif" font-size="10.00" fill="#000000">+ setURL()</text>
<text text-anchor="start" x="8" y="-470.5" font-family="Helvetica,sans-Serif" font-size="10.00" fill="#000000">+ setTimestamp()</text>
<text text-anchor="start" x="8" y="-459.5" font-family="Helvetica,sans-Serif" font-size="10.00" fill="#000000">+ getURL()</text>
<text text-anchor="start" x="8" y="-448.5" font-family="Helvetica,sans-Serif" font-size="10.00" fill="#000000">+ getTimestamp()</text>
<text text-anchor="start" x="8" y="-437.5" font-family="Helvetica,sans-Serif" font-size="10.00" fill="#000000">+ getForTimeStamp()</text>
<text text-anchor="start" x="8" y="-426.5" font-family="Helvetica,sans-Serif" font-size="10.00" fill="#000000">+ get()</text>
<text text-anchor="start" x="8" y="-415.5" font-family="Helvetica,sans-Serif" font-size="10.00" fill="#000000">+ isHostReachable()</text>
<text text-anchor="start" x="8" y="-404.5" font-family="Helvetica,sans-Serif" font-size="10.00" fill="#000000">+ clearCache()</text>
<text text-anchor="start" x="8" y="-393.5" font-family="Helvetica,sans-Serif" font-size="10.00" fill="#000000">+ clearCache()</text>
<text text-anchor="start" x="8" y="-382.5" font-family="Helvetica,sans-Serif" font-size="10.00" fill="#000000">+ isCachingEnabled()</text>
<text text-anchor="start" x="8" y="-371.5" font-family="Helvetica,sans-Serif" font-size="10.00" fill="#000000">+ setCachingEnabled()</text>
<text text-anchor="start" x="8" y="-360.5" font-family="Helvetica,sans-Serif" font-size="10.00" fill="#000000">+ isValidityCheckingEnabled()</text>
<text text-anchor="start" x="8" y="-349.5" font-family="Helvetica,sans-Serif" font-size="10.00" fill="#000000">+ setValidityCheckingEnabled()</text>
<text text-anchor="start" x="8" y="-338.5" font-family="Helvetica,sans-Serif" font-size="10.00" fill="#000000">+ setCreatedNotAfter()</text>
<text text-anchor="start" x="8" y="-327.5" font-family="Helvetica,sans-Serif" font-size="10.00" fill="#000000">+ getCreatedNotAfter()</text>
<text text-anchor="start" x="8" y="-316.5" font-family="Helvetica,sans-Serif" font-size="10.00" fill="#000000">+ resetCreatedNotAfter()</text>
<text text-anchor="start" x="8" y="-305.5" font-family="Helvetica,sans-Serif" font-size="10.00" fill="#000000">+ setCreatedNotBefore()</text>
<text text-anchor="start" x="8" y="-294.5" font-family="Helvetica,sans-Serif" font-size="10.00" fill="#000000">+ getCreatedNotBefore()</text>
<text text-anchor="start" x="8" y="-283.5" font-family="Helvetica,sans-Serif" font-size="10.00" fill="#000000">+ resetCreatedNotBefore()</text>
<text text-anchor="start" x="8" y="-272.5" font-family="Helvetica,sans-Serif" font-size="10.00" fill="#000000">+ instance()</text>
</a>
</g>
</g>
<!-- Node3&#45;&gt;Node2 -->
<g id="edge2" class="edge">
<title>Node3&#45;&gt;Node2</title>
<path fill="none" stroke="#404040" d="M141.0521,-265.3326C146.3025,-255.2431 151.8036,-245.3566 157.5,-236 161.505,-229.4215 166.1146,-222.7678 170.89,-216.3686"/>
<polygon fill="none" stroke="#404040" points="171.1269,-216.0622 171.6332,-208.8689 178.468,-206.5696 177.9616,-213.7629 171.1269,-216.0622"/>
<text text-anchor="middle" x="181" y="-239" font-family="Helvetica,sans-Serif" font-size="10.00" fill="#000000"> +service</text>
</g>
<!-- Node4 -->
<g id="node4" class="node">
<title>Node4</title>
<g id="a_node4"><a xlink:href="../../de/de9/structo2_1_1framework_1_1Service.html" target="_top" xlink:title="{o2::framework::Service\&lt; T \&gt;\n||+ operator&#45;\&gt;()\l}">
<polygon fill="none" stroke="#000000" points="189.5,-370 189.5,-427 347.5,-427 347.5,-370 189.5,-370"/>
<text text-anchor="middle" x="268.5" y="-415" font-family="Helvetica,sans-Serif" font-size="10.00" fill="#000000">o2::framework::Service&lt; T &gt;</text>
<polyline fill="none" stroke="#000000" points="189.5,-408 347.5,-408 "/>
<text text-anchor="middle" x="268.5" y="-396" font-family="Helvetica,sans-Serif" font-size="10.00" fill="#000000"> </text>
<polyline fill="none" stroke="#000000" points="189.5,-389 347.5,-389 "/>
<text text-anchor="start" x="197.5" y="-377" font-family="Helvetica,sans-Serif" font-size="10.00" fill="#000000">+ operator&#45;&gt;()</text>
</a>
</g>
</g>
<!-- Node4&#45;&gt;Node2 -->
<g id="edge3" class="edge">
<title>Node4&#45;&gt;Node2</title>
<path fill="none" stroke="#ffa500" d="M249.3368,-360.5818C235.2831,-330.6066 217.3408,-287.2497 209.5,-247 206.9525,-233.9226 206.293,-219.3083 206.4147,-206.5108"/>
<polygon fill="#ffa500" stroke="#ffa500" points="246.2806,-362.3044 253.7453,-369.823 252.5985,-359.2904 246.2806,-362.3044"/>
<text text-anchor="middle" x="294" y="-239" font-family="Helvetica,sans-Serif" font-size="10.00" fill="#000000"> &lt; o2::ccdb::BasicCCDBManager &gt;</text>
</g>
<!-- Node5 -->
<g id="node5" class="node">
<title>Node5</title>
<polygon fill="none" stroke="#bfbfbf" points="289,-590.5 289,-647.5 318,-647.5 318,-590.5 289,-590.5"/>
<text text-anchor="middle" x="303.5" y="-635.5" font-family="Helvetica,sans-Serif" font-size="10.00" fill="#000000">T</text>
<polyline fill="none" stroke="#bfbfbf" points="289,-628.5 318,-628.5 "/>
<text text-anchor="middle" x="303.5" y="-616.5" font-family="Helvetica,sans-Serif" font-size="10.00" fill="#000000"> </text>
<polyline fill="none" stroke="#bfbfbf" points="289,-609.5 318,-609.5 "/>
<text text-anchor="middle" x="303.5" y="-597.5" font-family="Helvetica,sans-Serif" font-size="10.00" fill="#000000"> </text>
</g>
<!-- Node5&#45;&gt;Node4 -->
<g id="edge4" class="edge">
<title>Node5&#45;&gt;Node4</title>
<path fill="none" stroke="#404040" d="M288.7989,-603.8661C281.4793,-595.2676 273.381,-583.8696 269.5,-572 255.2224,-528.3335 257.6022,-475.1148 261.8592,-439.2248"/>
<polygon fill="none" stroke="#404040" points="261.8629,-439.1956 258.6747,-432.7276 263.419,-427.2969 266.6072,-433.7649 261.8629,-439.1956"/>
<text text-anchor="middle" x="293" y="-558.5" font-family="Helvetica,sans-Serif" font-size="10.00" fill="#000000"> +service</text>
</g>
<!-- Node9 -->
<g id="node9" class="node">
<title>Node9</title>
<g id="a_node9"><a xlink:href="../../d8/d71/structo2_1_1framework_1_1Configurable.html" target="_top" xlink:title="{o2::framework::Configurable\&lt; T \&gt;\n||+ Configurable()\l+ operator T()\l+ operator&#45;\&gt;()\l}">
<polygon fill="none" stroke="#000000" points="506.5,-359 506.5,-438 690.5,-438 690.5,-359 506.5,-359"/>
<text text-anchor="middle" x="598.5" y="-426" font-family="Helvetica,sans-Serif" font-size="10.00" fill="#000000">o2::framework::Configurable&lt; T &gt;</text>
<polyline fill="none" stroke="#000000" points="506.5,-419 690.5,-419 "/>
<text text-anchor="middle" x="598.5" y="-407" font-family="Helvetica,sans-Serif" font-size="10.00" fill="#000000"> </text>
<polyline fill="none" stroke="#000000" points="506.5,-400 690.5,-400 "/>
<text text-anchor="start" x="514.5" y="-388" font-family="Helvetica,sans-Serif" font-size="10.00" fill="#000000">+ Configurable()</text>
<text text-anchor="start" x="514.5" y="-377" font-family="Helvetica,sans-Serif" font-size="10.00" fill="#000000">+ operator T()</text>
<text text-anchor="start" x="514.5" y="-366" font-family="Helvetica,sans-Serif" font-size="10.00" fill="#000000">+ operator&#45;&gt;()</text>
</a>
</g>
</g>
<!-- Node5&#45;&gt;Node9 -->
<g id="edge10" class="edge">
<title>Node5&#45;&gt;Node9</title>
<path fill="none" stroke="#404040" d="M318.2219,-615.1483C352.5324,-605.624 439.309,-578.3242 497.5,-532 526.4324,-508.9678 551.5559,-475.8498 569.509,-448.3624"/>
<polygon fill="none" stroke="#404040" points="569.5786,-448.2534 569.4327,-441.0437 576.0316,-438.1361 576.1775,-445.3458 569.5786,-448.2534"/>
<text text-anchor="middle" x="489" y="-558.5" font-family="Helvetica,sans-Serif" font-size="10.00" fill="#000000"> +value</text>
</g>
<!-- Node6 -->
<g id="node6" class="node">
<title>Node6</title>
<g id="a_node6"><a xlink:href="../../d8/d71/structo2_1_1framework_1_1Configurable.html" target="_top" xlink:title="{o2::framework::Configurable\l\&lt; std::string \&gt;\n||+ Configurable()\l+ operator std::string()\l+ operator&#45;\&gt;()\l}">
<polygon fill="none" stroke="#000000" points="609,-127.5 609,-217.5 764,-217.5 764,-127.5 609,-127.5"/>
<text text-anchor="start" x="617" y="-205.5" font-family="Helvetica,sans-Serif" font-size="10.00" fill="#000000">o2::framework::Configurable</text>
<text text-anchor="middle" x="686.5" y="-194.5" font-family="Helvetica,sans-Serif" font-size="10.00" fill="#000000">&lt; std::string &gt;</text>
<polyline fill="none" stroke="#000000" points="609,-187.5 764,-187.5 "/>
<text text-anchor="middle" x="686.5" y="-175.5" font-family="Helvetica,sans-Serif" font-size="10.00" fill="#000000"> </text>
<polyline fill="none" stroke="#000000" points="609,-168.5 764,-168.5 "/>
<text text-anchor="start" x="617" y="-156.5" font-family="Helvetica,sans-Serif" font-size="10.00" fill="#000000">+ Configurable()</text>
<text text-anchor="start" x="617" y="-145.5" font-family="Helvetica,sans-Serif" font-size="10.00" fill="#000000">+ operator std::string()</text>
<text text-anchor="start" x="617" y="-134.5" font-family="Helvetica,sans-Serif" font-size="10.00" fill="#000000">+ operator&#45;&gt;()</text>
</a>
</g>
</g>
<!-- Node6&#45;&gt;Node1 -->
<g id="edge5" class="edge">
<title>Node6&#45;&gt;Node1</title>
<path fill="none" stroke="#404040" d="M615.4461,-127.3136C589.047,-110.5253 559.2769,-91.5931 533.5416,-75.2269"/>
<polygon fill="none" stroke="#404040" points="533.2794,-75.0602 526.0699,-75.2157 523.1535,-68.6207 530.363,-68.4651 533.2794,-75.0602"/>
<text text-anchor="middle" x="600" y="-101" font-family="Helvetica,sans-Serif" font-size="10.00" fill="#000000"> +url</text>
<text text-anchor="middle" x="600" y="-90" font-family="Helvetica,sans-Serif" font-size="10.00" fill="#000000">+path</text>
</g>
<!-- Node7 -->
<g id="node7" class="node">
<title>Node7</title>
<polygon fill="none" stroke="#bfbfbf" points="584,-590.5 584,-647.5 613,-647.5 613,-590.5 584,-590.5"/>
<text text-anchor="middle" x="598.5" y="-635.5" font-family="Helvetica,sans-Serif" font-size="10.00" fill="#000000">int</text>
<polyline fill="none" stroke="#bfbfbf" points="584,-628.5 613,-628.5 "/>
<text text-anchor="middle" x="598.5" y="-616.5" font-family="Helvetica,sans-Serif" font-size="10.00" fill="#000000"> </text>
<polyline fill="none" stroke="#bfbfbf" points="584,-609.5 613,-609.5 "/>
<text text-anchor="middle" x="598.5" y="-597.5" font-family="Helvetica,sans-Serif" font-size="10.00" fill="#000000"> </text>
</g>
<!-- Node7&#45;&gt;Node6 -->
<g id="edge6" class="edge">
<title>Node7&#45;&gt;Node6</title>
<path fill="none" stroke="#404040" d="M613.2461,-616.3348C646.7654,-609.3913 728.3366,-587.2923 761.5,-532 822.5373,-430.2345 787.9614,-380.6787 761.5,-265 758.4335,-251.5945 751.8973,-238.9105 743.9014,-227.4782"/>
<polygon fill="none" stroke="#404040" points="743.7927,-227.3346 736.9819,-224.9652 736.5495,-217.7671 743.3603,-220.1364 743.7927,-227.3346"/>
<text text-anchor="middle" x="815.5" y="-401.5" font-family="Helvetica,sans-Serif" font-size="10.00" fill="#000000"> +name</text>
<text text-anchor="middle" x="815.5" y="-390.5" font-family="Helvetica,sans-Serif" font-size="10.00" fill="#000000">+help</text>
</g>
<!-- Node7&#45;&gt;Node9 -->
<g id="edge9" class="edge">
<title>Node7&#45;&gt;Node9</title>
<path fill="none" stroke="#404040" d="M598.5,-590.1735C598.5,-554.7168 598.5,-493.8744 598.5,-450.2431"/>
<polygon fill="none" stroke="#404040" points="598.5001,-450.1478 594.5,-444.1478 598.5,-438.1478 602.5,-444.1477 598.5001,-450.1478"/>
<text text-anchor="middle" x="618.5" y="-564" font-family="Helvetica,sans-Serif" font-size="10.00" fill="#000000"> +name</text>
<text text-anchor="middle" x="618.5" y="-553" font-family="Helvetica,sans-Serif" font-size="10.00" fill="#000000">+help</text>
</g>
<!-- Node10 -->
<g id="node10" class="node">
<title>Node10</title>
<g id="a_node10"><a xlink:href="../../d8/d71/structo2_1_1framework_1_1Configurable.html" target="_top" xlink:title="{o2::framework::Configurable\l\&lt; long \&gt;\n||+ Configurable()\l+ operator long()\l+ operator&#45;\&gt;()\l}">
<polygon fill="none" stroke="#000000" points="392,-127.5 392,-217.5 547,-217.5 547,-127.5 392,-127.5"/>
<text text-anchor="start" x="400" y="-205.5" font-family="Helvetica,sans-Serif" font-size="10.00" fill="#000000">o2::framework::Configurable</text>
<text text-anchor="middle" x="469.5" y="-194.5" font-family="Helvetica,sans-Serif" font-size="10.00" fill="#000000">&lt; long &gt;</text>
<polyline fill="none" stroke="#000000" points="392,-187.5 547,-187.5 "/>
<text text-anchor="middle" x="469.5" y="-175.5" font-family="Helvetica,sans-Serif" font-size="10.00" fill="#000000"> </text>
<polyline fill="none" stroke="#000000" points="392,-168.5 547,-168.5 "/>
<text text-anchor="start" x="400" y="-156.5" font-family="Helvetica,sans-Serif" font-size="10.00" fill="#000000">+ Configurable()</text>
<text text-anchor="start" x="400" y="-145.5" font-family="Helvetica,sans-Serif" font-size="10.00" fill="#000000">+ operator long()</text>
<text text-anchor="start" x="400" y="-134.5" font-family="Helvetica,sans-Serif" font-size="10.00" fill="#000000">+ operator&#45;&gt;()</text>
</a>
</g>
</g>
<!-- Node7&#45;&gt;Node10 -->
<g id="edge12" class="edge">
<title>Node7&#45;&gt;Node10</title>
<path fill="none" stroke="#404040" d="M583.9795,-617.7552C545.9809,-613.624 443.6471,-596.6874 401.5,-532 336.7197,-432.5752 364.5141,-377.7556 401.5,-265 405.7762,-251.9634 412.6693,-239.2497 420.4628,-227.6278"/>
<polygon fill="none" stroke="#404040" points="420.5536,-227.5 420.7653,-220.2919 427.5003,-217.715 427.2886,-224.9231 420.5536,-227.5"/>
<text text-anchor="middle" x="421.5" y="-401.5" font-family="Helvetica,sans-Serif" font-size="10.00" fill="#000000"> +name</text>
<text text-anchor="middle" x="421.5" y="-390.5" font-family="Helvetica,sans-Serif" font-size="10.00" fill="#000000">+help</text>
</g>
<!-- Node8 -->
<g id="node8" class="node">
<title>Node8</title>
<polygon fill="none" stroke="#bfbfbf" points="708.5,-370 708.5,-427 752.5,-427 752.5,-370 708.5,-370"/>
<text text-anchor="middle" x="730.5" y="-415" font-family="Helvetica,sans-Serif" font-size="10.00" fill="#000000">string</text>
<polyline fill="none" stroke="#bfbfbf" points="708.5,-408 752.5,-408 "/>
<text text-anchor="middle" x="730.5" y="-396" font-family="Helvetica,sans-Serif" font-size="10.00" fill="#000000"> </text>
<polyline fill="none" stroke="#bfbfbf" points="708.5,-389 752.5,-389 "/>
<text text-anchor="middle" x="730.5" y="-377" font-family="Helvetica,sans-Serif" font-size="10.00" fill="#000000"> </text>
</g>
<!-- Node8&#45;&gt;Node6 -->
<g id="edge7" class="edge">
<title>Node8&#45;&gt;Node6</title>
<path fill="none" stroke="#404040" d="M726.6001,-369.8673C721.9632,-337.28 713.5712,-282.5394 703.5,-236 703.0402,-233.8754 702.5548,-231.7155 702.05,-229.5372"/>
<polygon fill="none" stroke="#404040" points="702.034,-229.4709 696.7312,-224.5842 699.2024,-217.8098 704.5053,-222.6965 702.034,-229.4709"/>
<text text-anchor="middle" x="724" y="-239" font-family="Helvetica,sans-Serif" font-size="10.00" fill="#000000"> +value</text>
</g>
<!-- Node9&#45;&gt;Node6 -->
<g id="edge8" class="edge">
<title>Node9&#45;&gt;Node6</title>
<path fill="none" stroke="#ffa500" d="M598.7166,-348.6895C600.6748,-315.2385 606.8731,-271.0431 624.5,-236 627.6849,-229.6684 631.727,-223.5619 636.2155,-217.8041"/>
<polygon fill="#ffa500" stroke="#ffa500" points="595.2195,-348.5479 598.2371,-358.7039 602.2115,-348.8828 595.2195,-348.5479"/>
<text text-anchor="middle" x="662" y="-239" font-family="Helvetica,sans-Serif" font-size="10.00" fill="#000000"> &lt; std::string &gt;</text>
</g>
<!-- Node9&#45;&gt;Node10 -->
<g id="edge14" class="edge">
<title>Node9&#45;&gt;Node10</title>
<path fill="none" stroke="#ffa500" d="M574.2874,-349.4351C557.753,-316.7907 534.867,-273.2295 512.5,-236 508.866,-229.9512 504.8936,-223.6853 500.8787,-217.5513"/>
<polygon fill="#ffa500" stroke="#ffa500" points="571.3646,-351.4126 578.9915,-358.7666 577.6153,-348.2615 571.3646,-351.4126"/>
<text text-anchor="middle" x="542" y="-239" font-family="Helvetica,sans-Serif" font-size="10.00" fill="#000000"> &lt; long &gt;</text>
</g>
<!-- Node10&#45;&gt;Node1 -->
<g id="edge11" class="edge">
<title>Node10&#45;&gt;Node1</title>
<path fill="none" stroke="#404040" d="M469.5,-127.3136C469.5,-112.4521 469.5,-95.9105 469.5,-80.9562"/>
<polygon fill="none" stroke="#404040" points="469.5001,-80.8396 465.5,-74.8396 469.5,-68.8396 473.5,-74.8396 469.5001,-80.8396"/>
<text text-anchor="middle" x="503.5" y="-95.5" font-family="Helvetica,sans-Serif" font-size="10.00" fill="#000000"> +nolaterthan</text>
</g>
<!-- Node11 -->
<g id="node11" class="node">
<title>Node11</title>
<polygon fill="none" stroke="#bfbfbf" points="450.5,-370 450.5,-427 488.5,-427 488.5,-370 450.5,-370"/>
<text text-anchor="middle" x="469.5" y="-415" font-family="Helvetica,sans-Serif" font-size="10.00" fill="#000000">long</text>
<polyline fill="none" stroke="#bfbfbf" points="450.5,-408 488.5,-408 "/>
<text text-anchor="middle" x="469.5" y="-396" font-family="Helvetica,sans-Serif" font-size="10.00" fill="#000000"> </text>
<polyline fill="none" stroke="#bfbfbf" points="450.5,-389 488.5,-389 "/>
<text text-anchor="middle" x="469.5" y="-377" font-family="Helvetica,sans-Serif" font-size="10.00" fill="#000000"> </text>
</g>
<!-- Node11&#45;&gt;Node10 -->
<g id="edge13" class="edge">
<title>Node11&#45;&gt;Node10</title>
<path fill="none" stroke="#404040" d="M469.5,-369.8769C469.5,-334.8092 469.5,-274.5531 469.5,-229.8188"/>
<polygon fill="none" stroke="#404040" points="469.5001,-229.6468 465.5,-223.6469 469.5,-217.6468 473.5,-223.6468 469.5001,-229.6468"/>
<text text-anchor="middle" x="489" y="-239" font-family="Helvetica,sans-Serif" font-size="10.00" fill="#000000"> +value</text>
</g>
</g>
</svg>
        <g id="navigator" transform="translate(0 0)" fill="#404254">
                <rect fill="#f2f5e9" fill-opacity="0.5" stroke="#606060" stroke-width=".5" x="0" y="0" width="60" height="60"/>
                <use id="zoomplus" xlink:href="#zoomPlus" x="17" y="9" onmousedown="handleZoom(evt,'in')"/>
                <use id="zoomminus" xlink:href="#zoomMin" x="42" y="9" onmousedown="handleZoom(evt,'out')"/>
                <use id="reset" xlink:href="#resetDef" x="30" y="36" onmousedown="handleReset()"/>
                <g id="arrowUp" xlink:href="#dirArrow" transform="translate(30 24)" onmousedown="handlePan(0,-1)">
                  <use xlink:href="#rim" fill="#404040">
                        <set attributeName="fill" to="#808080" begin="arrowUp.mouseover" end="arrowUp.mouseout"/>
                  </use>
                  <path fill="none" stroke="white" stroke-width="1.5" d="M0,-3.0v7 M-2.5,-0.5L0,-3.0L2.5,-0.5"/>
                </g>
                <g id="arrowRight" xlink:href="#dirArrow" transform="rotate(90) translate(36 -43)" onmousedown="handlePan(1,0)">
                  <use xlink:href="#rim" fill="#404040">
                        <set attributeName="fill" to="#808080" begin="arrowRight.mouseover" end="arrowRight.mouseout"/>
                  </use>
                  <path fill="none" stroke="white" stroke-width="1.5" d="M0,-3.0v7 M-2.5,-0.5L0,-3.0L2.5,-0.5"/>
                </g>
                <g id="arrowDown" xlink:href="#dirArrow" transform="rotate(180) translate(-30 -48)" onmousedown="handlePan(0,1)">
                  <use xlink:href="#rim" fill="#404040">
                        <set attributeName="fill" to="#808080" begin="arrowDown.mouseover" end="arrowDown.mouseout"/>
                  </use>
                  <path fill="none" stroke="white" stroke-width="1.5" d="M0,-3.0v7 M-2.5,-0.5L0,-3.0L2.5,-0.5"/>
                </g>
                <g id="arrowLeft" xlink:href="#dirArrow" transform="rotate(270) translate(-36 17)" onmousedown="handlePan(-1,0)">
                  <use xlink:href="#rim" fill="#404040">
                        <set attributeName="fill" to="#808080" begin="arrowLeft.mouseover" end="arrowLeft.mouseout"/>
                  </use>
                  <path fill="none" stroke="white" stroke-width="1.5" d="M0,-3.0v7 M-2.5,-0.5L0,-3.0L2.5,-0.5"/>
                </g>
        </g>
        <svg viewBox="0 0 15 15" width="100%" height="30px" preserveAspectRatio="xMaxYMin meet">
         <g id="arrow_out" transform="scale(0.3 0.3)">
          <a xlink:href="structTimestampUserTask__coll__graph_org.svg" target="_base">
           <rect id="button" ry="5" rx="5" y="6" x="6" height="38" width="38"
                fill="#f2f5e9" fill-opacity="0.5" stroke="#606060" stroke-width="1.0"/>
           <path id="arrow"
             d="M 11.500037,31.436501 C 11.940474,20.09759 22.043105,11.32322 32.158766,21.979434 L 37.068811,17.246167 C 37.068811,17.246167 37.088388,32 37.088388,32 L 22.160133,31.978069 C 22.160133,31.978069 26.997745,27.140456 26.997745,27.140456 C 18.528582,18.264221 13.291696,25.230495 11.500037,31.436501 z"
             style="fill:#404040;"/>
          </a>
         </g>
        </svg>
</svg>
