<?xml version="1.0" encoding="UTF-8" standalone="no"?>
<!DOCTYPE svg PUBLIC "-//W3C//DTD SVG 1.1//EN"
 "http://www.w3.org/Graphics/SVG/1.1/DTD/svg11.dtd">
<!-- Generated by graphviz version 2.40.1 (20161225.0304)
 -->
<!-- Title: o2::zdc::Digitizer::BCCache Pages: 1 -->
<svg width="783pt" height="694pt"
 viewBox="0.00 0.00 783.00 694.00" xmlns="http://www.w3.org/2000/svg" xmlns:xlink="http://www.w3.org/1999/xlink">
<g id="graph0" class="graph" transform="scale(1 1) rotate(0) translate(4 690)">
<title>o2::zdc::Digitizer::BCCache</title>
<!-- Node2 -->
<g id="node1" class="node">
<title>Node2</title>
<polygon fill="#bfbfbf" stroke="#000000" points="381,-.5 381,-101.5 479,-101.5 479,-.5 381,-.5"/>
<text text-anchor="start" x="389" y="-89.5" font-family="Helvetica,sans-Serif" font-size="10.00" fill="#000000">o2::zdc::Digitizer</text>
<text text-anchor="middle" x="430" y="-78.5" font-family="Helvetica,sans-Serif" font-size="10.00" fill="#000000">::BCCache</text>
<polyline fill="none" stroke="#000000" points="381,-71.5 479,-71.5 "/>
<text text-anchor="middle" x="430" y="-59.5" font-family="Helvetica,sans-Serif" font-size="10.00" fill="#000000"> </text>
<polyline fill="none" stroke="#000000" points="381,-52.5 479,-52.5 "/>
<text text-anchor="start" x="389" y="-40.5" font-family="Helvetica,sans-Serif" font-size="10.00" fill="#000000">+ BCCache()</text>
<text text-anchor="start" x="389" y="-29.5" font-family="Helvetica,sans-Serif" font-size="10.00" fill="#000000">+ clear()</text>
<text text-anchor="start" x="389" y="-18.5" font-family="Helvetica,sans-Serif" font-size="10.00" fill="#000000">+ operator=()</text>
<text text-anchor="start" x="389" y="-7.5" font-family="Helvetica,sans-Serif" font-size="10.00" fill="#000000">+ print()</text>
</g>
<!-- Node3 -->
<g id="node2" class="node">
<title>Node3</title>
<g id="a_node2"><a xlink:href="../../d1/d21/structo2_1_1InteractionRecord.html" target="_top" xlink:title="{o2::InteractionRecord\n||+ InteractionRecord()\l+ InteractionRecord()\l+ InteractionRecord()\l+ InteractionRecord()\l+ clear()\l+ isDummy()\l+ setFromNS()\l+ bc2ns()\l+ operator==()\l+ operator!=()\l+ differenceInBC()\l+ toLong()\l+ setFromLong()\l+ operator\&gt;()\l+ operator\&gt;=()\l+ operator\&lt;()\l+ operator\&lt;=()\l+ operator&#45;&#45;()\l+ operator&#45;&#45;()\l+ operator++()\l+ operator++()\l+ operator+=()\l+ operator&#45;=()\l+ operator+=()\l+ operator&#45;=()\l+ operator+()\l+ operator&#45;()\l+ operator+()\l+ operator&#45;()\l+ print()\l+ ClassDefNV()\l+ bc2ns()\l+ ns2bc()\l}">
<polygon fill="none" stroke="#000000" points="102.5,-160.5 102.5,-569.5 223.5,-569.5 223.5,-160.5 102.5,-160.5"/>
<text text-anchor="middle" x="163" y="-557.5" font-family="Helvetica,sans-Serif" font-size="10.00" fill="#000000">o2::InteractionRecord</text>
<polyline fill="none" stroke="#000000" points="102.5,-550.5 223.5,-550.5 "/>
<text text-anchor="middle" x="163" y="-538.5" font-family="Helvetica,sans-Serif" font-size="10.00" fill="#000000"> </text>
<polyline fill="none" stroke="#000000" points="102.5,-531.5 223.5,-531.5 "/>
<text text-anchor="start" x="110.5" y="-519.5" font-family="Helvetica,sans-Serif" font-size="10.00" fill="#000000">+ InteractionRecord()</text>
<text text-anchor="start" x="110.5" y="-508.5" font-family="Helvetica,sans-Serif" font-size="10.00" fill="#000000">+ InteractionRecord()</text>
<text text-anchor="start" x="110.5" y="-497.5" font-family="Helvetica,sans-Serif" font-size="10.00" fill="#000000">+ InteractionRecord()</text>
<text text-anchor="start" x="110.5" y="-486.5" font-family="Helvetica,sans-Serif" font-size="10.00" fill="#000000">+ InteractionRecord()</text>
<text text-anchor="start" x="110.5" y="-475.5" font-family="Helvetica,sans-Serif" font-size="10.00" fill="#000000">+ clear()</text>
<text text-anchor="start" x="110.5" y="-464.5" font-family="Helvetica,sans-Serif" font-size="10.00" fill="#000000">+ isDummy()</text>
<text text-anchor="start" x="110.5" y="-453.5" font-family="Helvetica,sans-Serif" font-size="10.00" fill="#000000">+ setFromNS()</text>
<text text-anchor="start" x="110.5" y="-442.5" font-family="Helvetica,sans-Serif" font-size="10.00" fill="#000000">+ bc2ns()</text>
<text text-anchor="start" x="110.5" y="-431.5" font-family="Helvetica,sans-Serif" font-size="10.00" fill="#000000">+ operator==()</text>
<text text-anchor="start" x="110.5" y="-420.5" font-family="Helvetica,sans-Serif" font-size="10.00" fill="#000000">+ operator!=()</text>
<text text-anchor="start" x="110.5" y="-409.5" font-family="Helvetica,sans-Serif" font-size="10.00" fill="#000000">+ differenceInBC()</text>
<text text-anchor="start" x="110.5" y="-398.5" font-family="Helvetica,sans-Serif" font-size="10.00" fill="#000000">+ toLong()</text>
<text text-anchor="start" x="110.5" y="-387.5" font-family="Helvetica,sans-Serif" font-size="10.00" fill="#000000">+ setFromLong()</text>
<text text-anchor="start" x="110.5" y="-376.5" font-family="Helvetica,sans-Serif" font-size="10.00" fill="#000000">+ operator&gt;()</text>
<text text-anchor="start" x="110.5" y="-365.5" font-family="Helvetica,sans-Serif" font-size="10.00" fill="#000000">+ operator&gt;=()</text>
<text text-anchor="start" x="110.5" y="-354.5" font-family="Helvetica,sans-Serif" font-size="10.00" fill="#000000">+ operator&lt;()</text>
<text text-anchor="start" x="110.5" y="-343.5" font-family="Helvetica,sans-Serif" font-size="10.00" fill="#000000">+ operator&lt;=()</text>
<text text-anchor="start" x="110.5" y="-332.5" font-family="Helvetica,sans-Serif" font-size="10.00" fill="#000000">+ operator&#45;&#45;()</text>
<text text-anchor="start" x="110.5" y="-321.5" font-family="Helvetica,sans-Serif" font-size="10.00" fill="#000000">+ operator&#45;&#45;()</text>
<text text-anchor="start" x="110.5" y="-310.5" font-family="Helvetica,sans-Serif" font-size="10.00" fill="#000000">+ operator++()</text>
<text text-anchor="start" x="110.5" y="-299.5" font-family="Helvetica,sans-Serif" font-size="10.00" fill="#000000">+ operator++()</text>
<text text-anchor="start" x="110.5" y="-288.5" font-family="Helvetica,sans-Serif" font-size="10.00" fill="#000000">+ operator+=()</text>
<text text-anchor="start" x="110.5" y="-277.5" font-family="Helvetica,sans-Serif" font-size="10.00" fill="#000000">+ operator&#45;=()</text>
<text text-anchor="start" x="110.5" y="-266.5" font-family="Helvetica,sans-Serif" font-size="10.00" fill="#000000">+ operator+=()</text>
<text text-anchor="start" x="110.5" y="-255.5" font-family="Helvetica,sans-Serif" font-size="10.00" fill="#000000">+ operator&#45;=()</text>
<text text-anchor="start" x="110.5" y="-244.5" font-family="Helvetica,sans-Serif" font-size="10.00" fill="#000000">+ operator+()</text>
<text text-anchor="start" x="110.5" y="-233.5" font-family="Helvetica,sans-Serif" font-size="10.00" fill="#000000">+ operator&#45;()</text>
<text text-anchor="start" x="110.5" y="-222.5" font-family="Helvetica,sans-Serif" font-size="10.00" fill="#000000">+ operator+()</text>
<text text-anchor="start" x="110.5" y="-211.5" font-family="Helvetica,sans-Serif" font-size="10.00" fill="#000000">+ operator&#45;()</text>
<text text-anchor="start" x="110.5" y="-200.5" font-family="Helvetica,sans-Serif" font-size="10.00" fill="#000000">+ print()</text>
<text text-anchor="start" x="110.5" y="-189.5" font-family="Helvetica,sans-Serif" font-size="10.00" fill="#000000">+ ClassDefNV()</text>
<text text-anchor="start" x="110.5" y="-178.5" font-family="Helvetica,sans-Serif" font-size="10.00" fill="#000000">+ bc2ns()</text>
<text text-anchor="start" x="110.5" y="-167.5" font-family="Helvetica,sans-Serif" font-size="10.00" fill="#000000">+ ns2bc()</text>
</a>
</g>
</g>
<!-- Node3&#45;&gt;Node2 -->
<g id="edge1" class="edge">
<title>Node3&#45;&gt;Node2</title>
<path fill="none" stroke="#191970" d="M228.5065,-194.2797C243.9199,-167.2904 262.3246,-141.3048 284,-120 310.8922,-93.5676 349.8278,-75.8635 380.7285,-65.0123"/>
<polygon fill="none" stroke="#191970" points="225.4168,-192.634 223.6068,-203.0731 231.5317,-196.0412 225.4168,-192.634"/>
</g>
<!-- Node4 -->
<g id="node3" class="node">
<title>Node4</title>
<polygon fill="none" stroke="#bfbfbf" points="0,-628.5 0,-685.5 50,-685.5 50,-628.5 0,-628.5"/>
<text text-anchor="middle" x="25" y="-673.5" font-family="Helvetica,sans-Serif" font-size="10.00" fill="#000000">double</text>
<polyline fill="none" stroke="#bfbfbf" points="0,-666.5 50,-666.5 "/>
<text text-anchor="middle" x="25" y="-654.5" font-family="Helvetica,sans-Serif" font-size="10.00" fill="#000000"> </text>
<polyline fill="none" stroke="#bfbfbf" points="0,-647.5 50,-647.5 "/>
<text text-anchor="middle" x="25" y="-635.5" font-family="Helvetica,sans-Serif" font-size="10.00" fill="#000000"> </text>
</g>
<!-- Node4&#45;&gt;Node3 -->
<g id="edge2" class="edge">
<title>Node4&#45;&gt;Node3</title>
<path fill="none" stroke="#404040" d="M31.3791,-628.3347C34.5644,-615.749 38.8454,-600.9262 44,-588 58.7306,-551.06 77.9448,-512.3277 96.6221,-477.7014"/>
<polygon fill="none" stroke="#404040" points="96.6589,-477.6336 96.014,-470.4514 102.3957,-467.0936 103.0406,-474.2759 96.6589,-477.6336"/>
<text text-anchor="middle" x="82" y="-596.5" font-family="Helvetica,sans-Serif" font-size="10.00" fill="#000000"> +DummyTime</text>
</g>
<!-- Node5 -->
<g id="node4" class="node">
<title>Node5</title>
<polygon fill="none" stroke="#bfbfbf" points="96,-628.5 96,-685.5 152,-685.5 152,-628.5 96,-628.5"/>
<text text-anchor="middle" x="124" y="-673.5" font-family="Helvetica,sans-Serif" font-size="10.00" fill="#000000">uint16_t</text>
<polyline fill="none" stroke="#bfbfbf" points="96,-666.5 152,-666.5 "/>
<text text-anchor="middle" x="124" y="-654.5" font-family="Helvetica,sans-Serif" font-size="10.00" fill="#000000"> </text>
<polyline fill="none" stroke="#bfbfbf" points="96,-647.5 152,-647.5 "/>
<text text-anchor="middle" x="124" y="-635.5" font-family="Helvetica,sans-Serif" font-size="10.00" fill="#000000"> </text>
</g>
<!-- Node5&#45;&gt;Node3 -->
<g id="edge3" class="edge">
<title>Node5&#45;&gt;Node3</title>
<path fill="none" stroke="#404040" d="M123.4278,-628.4126C123.4335,-615.9735 123.7831,-601.2425 125,-588 125.1915,-585.9162 125.3915,-583.8226 125.5995,-581.7205"/>
<polygon fill="none" stroke="#404040" points="125.6194,-581.5305 122.2697,-575.1447 126.876,-569.5965 130.2257,-575.9824 125.6194,-581.5305"/>
<text text-anchor="middle" x="157" y="-602" font-family="Helvetica,sans-Serif" font-size="10.00" fill="#000000"> +DummyBC</text>
<text text-anchor="middle" x="157" y="-591" font-family="Helvetica,sans-Serif" font-size="10.00" fill="#000000">+bc</text>
</g>
<!-- Node6 -->
<g id="node5" class="node">
<title>Node6</title>
<g id="a_node5"><a xlink:href="../../d3/d87/classuint32__t.html" target="_top" xlink:title="{uint32_t\n||}">
<polygon fill="none" stroke="#000000" points="226,-628.5 226,-685.5 282,-685.5 282,-628.5 226,-628.5"/>
<text text-anchor="middle" x="254" y="-673.5" font-family="Helvetica,sans-Serif" font-size="10.00" fill="#000000">uint32_t</text>
<polyline fill="none" stroke="#000000" points="226,-666.5 282,-666.5 "/>
<text text-anchor="middle" x="254" y="-654.5" font-family="Helvetica,sans-Serif" font-size="10.00" fill="#000000"> </text>
<polyline fill="none" stroke="#000000" points="226,-647.5 282,-647.5 "/>
<text text-anchor="middle" x="254" y="-635.5" font-family="Helvetica,sans-Serif" font-size="10.00" fill="#000000"> </text>
</a>
</g>
</g>
<!-- Node6&#45;&gt;Node2 -->
<g id="edge5" class="edge">
<title>Node6&#45;&gt;Node2</title>
<path fill="none" stroke="#404040" d="M275.5297,-628.3306C278.9378,-622.5247 281.9945,-616.2697 284,-610 345.0123,-419.2594 220.1877,-340.4664 307,-160 320.9692,-130.9608 346.5524,-106.3292 370.7832,-87.8683"/>
<polygon fill="none" stroke="#404040" points="371.0161,-87.6973 373.4841,-80.9216 380.6878,-80.5937 378.2198,-87.3694 371.0161,-87.6973"/>
<text text-anchor="middle" x="354.5" y="-368" font-family="Helvetica,sans-Serif" font-size="10.00" fill="#000000"> +AllChannelsMask</text>
<text text-anchor="middle" x="354.5" y="-357" font-family="Helvetica,sans-Serif" font-size="10.00" fill="#000000">+trigChanMask</text>
</g>
<!-- Node6&#45;&gt;Node3 -->
<g id="edge4" class="edge">
<title>Node6&#45;&gt;Node3</title>
<path fill="none" stroke="#404040" d="M225.9871,-630.4953C220.6555,-624.2273 215.6192,-617.244 212,-610 207.3517,-600.6962 203.1443,-590.9861 199.336,-581.0273"/>
<polygon fill="none" stroke="#404040" points="199.3119,-580.9611 193.4995,-576.6931 195.2036,-569.6863 201.0161,-573.9542 199.3119,-580.9611"/>
<text text-anchor="middle" x="248" y="-602" font-family="Helvetica,sans-Serif" font-size="10.00" fill="#000000"> +orbit</text>
<text text-anchor="middle" x="248" y="-591" font-family="Helvetica,sans-Serif" font-size="10.00" fill="#000000">+DummyOrbit</text>
</g>
<!-- Node7 -->
<g id="node6" class="node">
<title>Node7</title>
<polygon fill="none" stroke="#bfbfbf" points="411,-336.5 411,-393.5 449,-393.5 449,-336.5 411,-336.5"/>
<text text-anchor="middle" x="430" y="-381.5" font-family="Helvetica,sans-Serif" font-size="10.00" fill="#000000">bool</text>
<polyline fill="none" stroke="#bfbfbf" points="411,-374.5 449,-374.5 "/>
<text text-anchor="middle" x="430" y="-362.5" font-family="Helvetica,sans-Serif" font-size="10.00" fill="#000000"> </text>
<polyline fill="none" stroke="#bfbfbf" points="411,-355.5 449,-355.5 "/>
<text text-anchor="middle" x="430" y="-343.5" font-family="Helvetica,sans-Serif" font-size="10.00" fill="#000000"> </text>
</g>
<!-- Node7&#45;&gt;Node2 -->
<g id="edge6" class="edge">
<title>Node7&#45;&gt;Node2</title>
<path fill="none" stroke="#404040" d="M430,-336.3022C430,-286.1335 430,-181.3947 430,-113.7384"/>
<polygon fill="none" stroke="#404040" points="430.0001,-113.5585 426,-107.5585 430,-101.5585 434,-107.5585 430.0001,-113.5585"/>
<text text-anchor="middle" x="473" y="-134" font-family="Helvetica,sans-Serif" font-size="10.00" fill="#000000"> +triggerChecked</text>
<text text-anchor="middle" x="473" y="-123" font-family="Helvetica,sans-Serif" font-size="10.00" fill="#000000">+digitized</text>
</g>
<!-- Node8 -->
<g id="node7" class="node">
<title>Node8</title>
<polygon fill="none" stroke="#bfbfbf" points="467,-336.5 467,-393.5 619,-393.5 619,-336.5 467,-336.5"/>
<text text-anchor="middle" x="543" y="-381.5" font-family="Helvetica,sans-Serif" font-size="10.00" fill="#000000">vector&lt; o2::zdc::MCLabel &gt;</text>
<polyline fill="none" stroke="#bfbfbf" points="467,-374.5 619,-374.5 "/>
<text text-anchor="middle" x="543" y="-362.5" font-family="Helvetica,sans-Serif" font-size="10.00" fill="#000000"> </text>
<polyline fill="none" stroke="#bfbfbf" points="467,-355.5 619,-355.5 "/>
<text text-anchor="middle" x="543" y="-343.5" font-family="Helvetica,sans-Serif" font-size="10.00" fill="#000000"> </text>
</g>
<!-- Node8&#45;&gt;Node2 -->
<g id="edge7" class="edge">
<title>Node8&#45;&gt;Node2</title>
<path fill="none" stroke="#404040" d="M547.3142,-336.4355C553.1138,-288.4148 558.6623,-189.9113 520,-120 512.5568,-106.5408 501.2759,-94.8708 489.1925,-85.1513"/>
<polygon fill="none" stroke="#404040" points="488.9783,-84.9903 481.7788,-84.5809 479.3877,-77.7777 486.5872,-78.1871 488.9783,-84.9903"/>
<text text-anchor="middle" x="548.5" y="-128.5" font-family="Helvetica,sans-Serif" font-size="10.00" fill="#000000"> +labels</text>
</g>
<!-- Node9 -->
<g id="node8" class="node">
<title>Node9</title>
<polygon fill="none" stroke="#bfbfbf" points="637,-331 637,-399 775,-399 775,-331 637,-331"/>
<text text-anchor="start" x="645" y="-387" font-family="Helvetica,sans-Serif" font-size="10.00" fill="#000000">array&lt; ChannelBCDataF,</text>
<text text-anchor="middle" x="706" y="-376" font-family="Helvetica,sans-Serif" font-size="10.00" fill="#000000"> NChannels &gt;</text>
<polyline fill="none" stroke="#bfbfbf" points="637,-369 775,-369 "/>
<text text-anchor="middle" x="706" y="-357" font-family="Helvetica,sans-Serif" font-size="10.00" fill="#000000"> </text>
<polyline fill="none" stroke="#bfbfbf" points="637,-350 775,-350 "/>
<text text-anchor="middle" x="706" y="-338" font-family="Helvetica,sans-Serif" font-size="10.00" fill="#000000"> </text>
</g>
<!-- Node9&#45;&gt;Node2 -->
<g id="edge8" class="edge">
<title>Node9&#45;&gt;Node2</title>
<path fill="none" stroke="#404040" d="M699.3377,-330.8291C689.5677,-287.5539 668.0141,-212.3327 628,-160 593.6499,-115.075 535.2223,-86.1868 490.714,-69.5173"/>
<polygon fill="none" stroke="#404040" points="490.4292,-69.4145 483.4272,-71.1387 479.1426,-65.3385 486.1446,-63.6143 490.4292,-69.4145"/>
<text text-anchor="middle" x="629" y="-128.5" font-family="Helvetica,sans-Serif" font-size="10.00" fill="#000000"> +data</text>
</g>
</g>
</svg>
