<?xml version="1.0" encoding="UTF-8" standalone="no"?>
<!DOCTYPE svg PUBLIC "-//W3C//DTD SVG 1.1//EN"
 "http://www.w3.org/Graphics/SVG/1.1/DTD/svg11.dtd">
<!-- Generated by graphviz version 2.40.1 (20161225.0304)
 -->
<!-- Title: /home/travis/build/AliceO2Group/AliceO2/Detectors/ITSMFT/ITS/tracking/src/TrackerTraitsCPU.cxx Pages: 1 -->
<svg width="4156pt" height="698pt"
 viewBox="0.00 0.00 4156.14 698.00" xmlns="http://www.w3.org/2000/svg" xmlns:xlink="http://www.w3.org/1999/xlink">
<g id="graph0" class="graph" transform="scale(1 1) rotate(0) translate(4 694)">
<title>/home/travis/build/AliceO2Group/AliceO2/Detectors/ITSMFT/ITS/tracking/src/TrackerTraitsCPU.cxx</title>
<!-- Node0 -->
<g id="node1" class="node">
<title>Node0</title>
<polygon fill="#bfbfbf" stroke="#000000" points="2533.5425,-637.5 2533.5425,-689.5 2715.5425,-689.5 2715.5425,-637.5 2533.5425,-637.5"/>
<text text-anchor="start" x="2541.5425" y="-677.5" font-family="Helvetica,sans-Serif" font-size="10.00" fill="#000000">/home/travis/build</text>
<text text-anchor="start" x="2541.5425" y="-666.5" font-family="Helvetica,sans-Serif" font-size="10.00" fill="#000000">/AliceO2Group/AliceO2</text>
<text text-anchor="start" x="2541.5425" y="-655.5" font-family="Helvetica,sans-Serif" font-size="10.00" fill="#000000">/Detectors/ITSMFT/ITS</text>
<text text-anchor="middle" x="2624.5425" y="-644.5" font-family="Helvetica,sans-Serif" font-size="10.00" fill="#000000">/tracking/src/TrackerTraitsCPU.cxx</text>
</g>
<!-- Node1 -->
<g id="node2" class="node">
<title>Node1</title>
<g id="a_node2"><a xlink:href="../../de/dbc/TrackerTraitsCPU_8h.html" target="_top" xlink:title="ITStracking/TrackerTraits\lCPU.h">
<polygon fill="none" stroke="#000000" points="2756.5425,-570.5 2756.5425,-600.5 2892.5425,-600.5 2892.5425,-570.5 2756.5425,-570.5"/>
<text text-anchor="start" x="2764.5425" y="-588.5" font-family="Helvetica,sans-Serif" font-size="10.00" fill="#000000">ITStracking/TrackerTraits</text>
<text text-anchor="middle" x="2824.5425" y="-577.5" font-family="Helvetica,sans-Serif" font-size="10.00" fill="#000000">CPU.h</text>
</a>
</g>
</g>
<!-- Node0&#45;&gt;Node1 -->
<g id="edge1" class="edge">
<title>Node0&#45;&gt;Node1</title>
<path fill="none" stroke="#191970" d="M2691.4176,-637.4187C2719.3097,-626.5408 2751.0779,-614.1512 2776.584,-604.2038"/>
<polygon fill="#191970" stroke="#191970" points="2777.987,-607.4135 2786.0318,-600.5192 2775.4435,-600.8919 2777.987,-607.4135"/>
</g>
<!-- Node15 -->
<g id="node16" class="node">
<title>Node15</title>
<g id="a_node16"><a xlink:href="../../d0/d86/Detectors_2ITSMFT_2ITS_2tracking_2include_2ITStracking_2Constants_8h.html" target="_top" xlink:title="ITStracking/Constants.h">
<polygon fill="none" stroke="#000000" points="3614.5425,-185 3614.5425,-204 3746.5425,-204 3746.5425,-185 3614.5425,-185"/>
<text text-anchor="middle" x="3680.5425" y="-192" font-family="Helvetica,sans-Serif" font-size="10.00" fill="#000000">ITStracking/Constants.h</text>
</a>
</g>
</g>
<!-- Node0&#45;&gt;Node15 -->
<g id="edge93" class="edge">
<title>Node0&#45;&gt;Node15</title>
<path fill="none" stroke="#191970" d="M2715.7863,-659.3628C3030.078,-644.5175 4048.5425,-591.2248 4048.5425,-524 4048.5425,-524 4048.5425,-524 4048.5425,-462.5 4048.5425,-308.1844 3834.4791,-233.3643 3732.8797,-206.5436"/>
<polygon fill="#191970" stroke="#191970" points="3733.6737,-203.1338 3723.1162,-204.0227 3731.9237,-209.9116 3733.6737,-203.1338"/>
</g>
<!-- Node22 -->
<g id="node23" class="node">
<title>Node22</title>
<polygon fill="none" stroke="#bfbfbf" points="1897.5425,-118 1897.5425,-137 1949.5425,-137 1949.5425,-118 1897.5425,-118"/>
<text text-anchor="middle" x="1923.5425" y="-125" font-family="Helvetica,sans-Serif" font-size="10.00" fill="#000000">cassert</text>
</g>
<!-- Node0&#45;&gt;Node22 -->
<g id="edge157" class="edge">
<title>Node0&#45;&gt;Node22</title>
<path fill="none" stroke="#191970" d="M2533.3656,-651.1118C2485.2735,-641.9714 2426.4745,-626.5368 2378.5425,-601 2333.2637,-576.8767 2292.5425,-575.304 2292.5425,-524 2292.5425,-524 2292.5425,-524 2292.5425,-462.5 2292.5425,-301.3631 2197.5262,-272.8528 2066.5425,-179 2034.0707,-155.7333 1989.9965,-141.9748 1959.3975,-134.6154"/>
<polygon fill="#191970" stroke="#191970" points="1960.1029,-131.1863 1949.5733,-132.3604 1958.5368,-138.0089 1960.1029,-131.1863"/>
</g>
<!-- Node23 -->
<g id="node24" class="node">
<title>Node23</title>
<polygon fill="none" stroke="#bfbfbf" points="2674.5425,-185 2674.5425,-204 2734.5425,-204 2734.5425,-185 2674.5425,-185"/>
<text text-anchor="middle" x="2704.5425" y="-192" font-family="Helvetica,sans-Serif" font-size="10.00" fill="#000000">iostream</text>
</g>
<!-- Node0&#45;&gt;Node23 -->
<g id="edge158" class="edge">
<title>Node0&#45;&gt;Node23</title>
<path fill="none" stroke="#191970" d="M2588.7516,-637.3568C2558.6681,-612.086 2520.5425,-570.8231 2520.5425,-524 2520.5425,-524 2520.5425,-524 2520.5425,-395.5 2520.5425,-357.8735 2518.6973,-344.3246 2539.5425,-313 2572.9549,-262.7902 2635.3551,-226.7832 2673.1062,-208.4088"/>
<polygon fill="#191970" stroke="#191970" points="2674.6079,-211.5703 2682.1401,-204.1194 2671.6055,-205.2469 2674.6079,-211.5703"/>
</g>
<!-- Node25 -->
<g id="node26" class="node">
<title>Node25</title>
<g id="a_node26"><a xlink:href="../../d6/da2/GPUCommonMath_8h.html" target="_top" xlink:title="GPUCommonMath.h">
<polygon fill="none" stroke="#000000" points="2671.0425,-118 2671.0425,-137 2786.0425,-137 2786.0425,-118 2671.0425,-118"/>
<text text-anchor="middle" x="2728.5425" y="-125" font-family="Helvetica,sans-Serif" font-size="10.00" fill="#000000">GPUCommonMath.h</text>
</a>
</g>
</g>
<!-- Node0&#45;&gt;Node25 -->
<g id="edge159" class="edge">
<title>Node0&#45;&gt;Node25</title>
<path fill="none" stroke="#191970" d="M2533.354,-643.1057C2473.6163,-623.7471 2406.5425,-587.8046 2406.5425,-524 2406.5425,-524 2406.5425,-524 2406.5425,-462.5 2406.5425,-295.6404 2616.7521,-179.7215 2697.4827,-141.3557"/>
<polygon fill="#191970" stroke="#191970" points="2699.087,-144.4693 2706.6632,-137.0632 2696.1221,-138.1283 2699.087,-144.4693"/>
</g>
<!-- Node27 -->
<g id="node28" class="node">
<title>Node27</title>
<g id="a_node28"><a xlink:href="../../d6/d84/MathConstants_8h.html" target="_top" xlink:title="useful math constants ">
<polygon fill="none" stroke="#000000" points="2234.5425,-118 2234.5425,-137 2428.5425,-137 2428.5425,-118 2234.5425,-118"/>
<text text-anchor="middle" x="2331.5425" y="-125" font-family="Helvetica,sans-Serif" font-size="10.00" fill="#000000">CommonConstants/MathConstants.h</text>
</a>
</g>
</g>
<!-- Node0&#45;&gt;Node27 -->
<g id="edge91" class="edge">
<title>Node0&#45;&gt;Node27</title>
<path fill="none" stroke="#191970" d="M2533.2048,-651.4575C2459.6853,-636.0304 2368.5425,-601.3141 2368.5425,-524 2368.5425,-524 2368.5425,-524 2368.5425,-462.5 2368.5425,-342.0059 2344.6014,-198.5985 2335.2356,-147.107"/>
<polygon fill="#191970" stroke="#191970" points="2338.6362,-146.2485 2333.3773,-137.051 2331.7528,-147.5206 2338.6362,-146.2485"/>
</g>
<!-- Node29 -->
<g id="node30" class="node">
<title>Node29</title>
<g id="a_node30"><a xlink:href="../../d3/d78/Detectors_2ITSMFT_2ITS_2tracking_2include_2ITStracking_2Cell_8h.html" target="_top" xlink:title="ITStracking/Cell.h">
<polygon fill="none" stroke="#000000" points="4030.5425,-185 4030.5425,-204 4132.5425,-204 4132.5425,-185 4030.5425,-185"/>
<text text-anchor="middle" x="4081.5425" y="-192" font-family="Helvetica,sans-Serif" font-size="10.00" fill="#000000">ITStracking/Cell.h</text>
</a>
</g>
</g>
<!-- Node0&#45;&gt;Node29 -->
<g id="edge92" class="edge">
<title>Node0&#45;&gt;Node29</title>
<path fill="none" stroke="#191970" d="M2715.6472,-660.4856C2948.5946,-652.4595 3561.7754,-629.2429 3763.5425,-601 3909.6959,-580.5418 4086.5425,-671.5783 4086.5425,-524 4086.5425,-524 4086.5425,-524 4086.5425,-328.5 4086.5425,-287.9417 4084.2268,-240.5263 4082.7472,-214.3709"/>
<polygon fill="#191970" stroke="#191970" points="4086.2331,-214.0258 4082.1556,-204.2471 4079.2451,-214.4343 4086.2331,-214.0258"/>
</g>
<!-- Node31 -->
<g id="node32" class="node">
<title>Node31</title>
<g id="a_node32"><a xlink:href="../../d8/db3/ITSMFT_2ITS_2tracking_2include_2ITStracking_2Tracklet_8h.html" target="_top" xlink:title="ITStracking/Tracklet.h">
<polygon fill="none" stroke="#000000" points="2926.5425,-386 2926.5425,-405 3048.5425,-405 3048.5425,-386 2926.5425,-386"/>
<text text-anchor="middle" x="2987.5425" y="-393" font-family="Helvetica,sans-Serif" font-size="10.00" fill="#000000">ITStracking/Tracklet.h</text>
</a>
</g>
</g>
<!-- Node0&#45;&gt;Node31 -->
<g id="edge95" class="edge">
<title>Node0&#45;&gt;Node31</title>
<path fill="none" stroke="#191970" d="M2632.2759,-637.446C2647.376,-591.3314 2685.3258,-495.6284 2752.5425,-447 2778.3736,-428.3123 2856.9719,-413.598 2916.2143,-404.7643"/>
<polygon fill="#191970" stroke="#191970" points="2916.8997,-408.2013 2926.2877,-403.2905 2915.8864,-401.275 2916.8997,-408.2013"/>
</g>
<!-- Node33 -->
<g id="node34" class="node">
<title>Node33</title>
<g id="a_node34"><a xlink:href="../../dc/ddf/ITS_2tracking_2include_2ITStracking_2IndexTableUtils_8h.html" target="_top" xlink:title="ITStracking/IndexTableUtils.h">
<polygon fill="none" stroke="#000000" points="3494.5425,-252 3494.5425,-271 3652.5425,-271 3652.5425,-252 3494.5425,-252"/>
<text text-anchor="middle" x="3573.5425" y="-259" font-family="Helvetica,sans-Serif" font-size="10.00" fill="#000000">ITStracking/IndexTableUtils.h</text>
</a>
</g>
</g>
<!-- Node0&#45;&gt;Node33 -->
<g id="edge94" class="edge">
<title>Node0&#45;&gt;Node33</title>
<path fill="none" stroke="#191970" d="M2715.7238,-655.0335C2964.4575,-630.9513 3639.9772,-558.5803 3696.5425,-478 3746.4628,-406.8857 3642.1779,-313.9848 3595.055,-277.343"/>
<polygon fill="#191970" stroke="#191970" points="3597.0443,-274.4583 3586.9714,-271.1738 3592.7975,-280.023 3597.0443,-274.4583"/>
</g>
<!-- Node34 -->
<g id="node35" class="node">
<title>Node34</title>
<g id="a_node35"><a xlink:href="../../d7/d8b/DataFormats_2Reconstruction_2include_2ReconstructionDataFormats_2Track_8h.html" target="_top" xlink:title="ReconstructionDataFormats\l/Track.h">
<polygon fill="none" stroke="#000000" points="1830.5425,-447.5 1830.5425,-477.5 1982.5425,-477.5 1982.5425,-447.5 1830.5425,-447.5"/>
<text text-anchor="start" x="1838.5425" y="-465.5" font-family="Helvetica,sans-Serif" font-size="10.00" fill="#000000">ReconstructionDataFormats</text>
<text text-anchor="middle" x="1906.5425" y="-454.5" font-family="Helvetica,sans-Serif" font-size="10.00" fill="#000000">/Track.h</text>
</a>
</g>
</g>
<!-- Node0&#45;&gt;Node34 -->
<g id="edge96" class="edge">
<title>Node0&#45;&gt;Node34</title>
<path fill="none" stroke="#191970" d="M2533.2201,-651.5303C2462.8816,-641.2265 2363.6091,-624.3196 2278.5425,-601 2156.6674,-567.59 2018.5202,-510.9797 1949.9464,-481.5488"/>
<polygon fill="#191970" stroke="#191970" points="1951.3098,-478.3252 1940.7411,-477.5816 1948.5393,-484.7536 1951.3098,-478.3252"/>
</g>
<!-- Node2 -->
<g id="node3" class="node">
<title>Node2</title>
<polygon fill="none" stroke="#bfbfbf" points="3172.5425,-56.5 3172.5425,-75.5 3214.5425,-75.5 3214.5425,-56.5 3172.5425,-56.5"/>
<text text-anchor="middle" x="3193.5425" y="-63.5" font-family="Helvetica,sans-Serif" font-size="10.00" fill="#000000">array</text>
</g>
<!-- Node1&#45;&gt;Node2 -->
<g id="edge2" class="edge">
<title>Node1&#45;&gt;Node2</title>
<path fill="none" stroke="#191970" d="M2892.7685,-583.7383C3035.0912,-578.2072 3350.5425,-555.4623 3350.5425,-462.5 3350.5425,-462.5 3350.5425,-462.5 3350.5425,-395.5 3350.5425,-327.6717 3240.7481,-142.8589 3204.7922,-84.1543"/>
<polygon fill="#191970" stroke="#191970" points="3207.7276,-82.2461 3199.5053,-75.5644 3201.7662,-85.9152 3207.7276,-82.2461"/>
</g>
<!-- Node3 -->
<g id="node4" class="node">
<title>Node3</title>
<polygon fill="none" stroke="#bfbfbf" points="3616.5425,-453 3616.5425,-472 3666.5425,-472 3666.5425,-453 3616.5425,-453"/>
<text text-anchor="middle" x="3641.5425" y="-460" font-family="Helvetica,sans-Serif" font-size="10.00" fill="#000000">chrono</text>
</g>
<!-- Node1&#45;&gt;Node3 -->
<g id="edge3" class="edge">
<title>Node1&#45;&gt;Node3</title>
<path fill="none" stroke="#191970" d="M2892.9237,-583.0984C3000.2773,-578.4797 3214.5883,-565.8305 3393.5425,-534 3488.2219,-517.1594 3511.2601,-508.2544 3602.5425,-478 3604.6778,-477.2923 3606.8653,-476.5298 3609.0614,-475.7361"/>
<polygon fill="#191970" stroke="#191970" points="3610.4914,-478.9374 3618.6091,-472.1291 3608.0174,-472.3891 3610.4914,-478.9374"/>
</g>
<!-- Node4 -->
<g id="node5" class="node">
<title>Node4</title>
<polygon fill="none" stroke="#bfbfbf" points="2585.0425,-56.5 2585.0425,-75.5 2632.0425,-75.5 2632.0425,-56.5 2585.0425,-56.5"/>
<text text-anchor="middle" x="2608.5425" y="-63.5" font-family="Helvetica,sans-Serif" font-size="10.00" fill="#000000">cmath</text>
</g>
<!-- Node1&#45;&gt;Node4 -->
<g id="edge4" class="edge">
<title>Node1&#45;&gt;Node4</title>
<path fill="none" stroke="#191970" d="M2756.2478,-578.5996C2714.1841,-571.969 2660.4735,-559.0536 2618.5425,-534 2555.0743,-496.0781 2533.2308,-479.9493 2506.5425,-411 2492.1101,-373.714 2393.5762,-297.9392 2513.5425,-112 2527.179,-90.8643 2553.5036,-79.1692 2574.9898,-72.8673"/>
<polygon fill="#191970" stroke="#191970" points="2576.0028,-76.2196 2584.7645,-70.2628 2574.2005,-69.4555 2576.0028,-76.2196"/>
</g>
<!-- Node5 -->
<g id="node6" class="node">
<title>Node5</title>
<polygon fill="none" stroke="#bfbfbf" points="2795.0425,-453 2795.0425,-472 2850.0425,-472 2850.0425,-453 2795.0425,-453"/>
<text text-anchor="middle" x="2822.5425" y="-460" font-family="Helvetica,sans-Serif" font-size="10.00" fill="#000000">fstream</text>
</g>
<!-- Node1&#45;&gt;Node5 -->
<g id="edge5" class="edge">
<title>Node1&#45;&gt;Node5</title>
<path fill="none" stroke="#191970" d="M2824.2972,-570.4178C2823.937,-548.2662 2823.2645,-506.9061 2822.8648,-482.3234"/>
<polygon fill="#191970" stroke="#191970" points="2826.3599,-481.991 2822.6977,-472.0493 2819.3609,-482.1049 2826.3599,-481.991"/>
</g>
<!-- Node6 -->
<g id="node7" class="node">
<title>Node6</title>
<polygon fill="none" stroke="#bfbfbf" points="2548.5425,-319 2548.5425,-338 2604.5425,-338 2604.5425,-319 2548.5425,-319"/>
<text text-anchor="middle" x="2576.5425" y="-326" font-family="Helvetica,sans-Serif" font-size="10.00" fill="#000000">iomanip</text>
</g>
<!-- Node1&#45;&gt;Node6 -->
<g id="edge6" class="edge">
<title>Node1&#45;&gt;Node6</title>
<path fill="none" stroke="#191970" d="M2756.3753,-573.7527C2710.5337,-564.556 2655.4959,-550.5696 2638.5425,-534 2586.1676,-482.8112 2577.6683,-389.11 2576.546,-348.3338"/>
<polygon fill="#191970" stroke="#191970" points="2580.0455,-348.2615 2576.3948,-338.3155 2573.0463,-348.3673 2580.0455,-348.2615"/>
</g>
<!-- Node7 -->
<g id="node8" class="node">
<title>Node7</title>
<polygon fill="none" stroke="#bfbfbf" points="2382.0425,-185 2382.0425,-204 2431.0425,-204 2431.0425,-185 2382.0425,-185"/>
<text text-anchor="middle" x="2406.5425" y="-192" font-family="Helvetica,sans-Serif" font-size="10.00" fill="#000000">iosfwd</text>
</g>
<!-- Node1&#45;&gt;Node7 -->
<g id="edge7" class="edge">
<title>Node1&#45;&gt;Node7</title>
<path fill="none" stroke="#191970" d="M2756.2478,-578.5996C2714.1841,-571.969 2660.4735,-559.0536 2618.5425,-534 2491.6283,-458.1694 2429.2381,-273.8886 2411.782,-213.7968"/>
<polygon fill="#191970" stroke="#191970" points="2415.1234,-212.75 2409.0401,-204.0757 2408.3863,-214.6503 2415.1234,-212.75"/>
</g>
<!-- Node8 -->
<g id="node9" class="node">
<title>Node8</title>
<polygon fill="none" stroke="#bfbfbf" points="2522.5425,-118 2522.5425,-137 2580.5425,-137 2580.5425,-118 2522.5425,-118"/>
<text text-anchor="middle" x="2551.5425" y="-125" font-family="Helvetica,sans-Serif" font-size="10.00" fill="#000000">memory</text>
</g>
<!-- Node1&#45;&gt;Node8 -->
<g id="edge8" class="edge">
<title>Node1&#45;&gt;Node8</title>
<path fill="none" stroke="#191970" d="M2790.1744,-570.3132C2773.5116,-561.5972 2754.2009,-549.3236 2740.5425,-534 2683.897,-470.4489 2586.0421,-218.6535 2558.7778,-146.7597"/>
<polygon fill="#191970" stroke="#191970" points="2561.9597,-145.2783 2555.1522,-137.1598 2555.4111,-147.7515 2561.9597,-145.2783"/>
</g>
<!-- Node9 -->
<g id="node10" class="node">
<title>Node9</title>
<polygon fill="none" stroke="#bfbfbf" points="3095.0425,-185 3095.0425,-204 3140.0425,-204 3140.0425,-185 3095.0425,-185"/>
<text text-anchor="middle" x="3117.5425" y="-192" font-family="Helvetica,sans-Serif" font-size="10.00" fill="#000000">utility</text>
</g>
<!-- Node1&#45;&gt;Node9 -->
<g id="edge9" class="edge">
<title>Node1&#45;&gt;Node9</title>
<path fill="none" stroke="#191970" d="M2812.1945,-570.1875C2791.2831,-542.3186 2754.0959,-482.8828 2785.5425,-447 2865.9136,-355.2906 2965.5454,-491.0416 3057.5425,-411 3116.1574,-360.0024 3119.8816,-257.2844 3118.6487,-214.2133"/>
<polygon fill="#191970" stroke="#191970" points="3122.1439,-214.0224 3118.235,-204.175 3115.1498,-214.3107 3122.1439,-214.0224"/>
</g>
<!-- Node10 -->
<g id="node11" class="node">
<title>Node10</title>
<g id="a_node11"><a xlink:href="../../d2/dee/TrackerTraits_8h.html" target="_top" xlink:title="ITStracking/TrackerTraits.h">
<polygon fill="none" stroke="#000000" points="3080.0425,-514.5 3080.0425,-533.5 3225.0425,-533.5 3225.0425,-514.5 3080.0425,-514.5"/>
<text text-anchor="middle" x="3152.5425" y="-521.5" font-family="Helvetica,sans-Serif" font-size="10.00" fill="#000000">ITStracking/TrackerTraits.h</text>
</a>
</g>
</g>
<!-- Node1&#45;&gt;Node10 -->
<g id="edge10" class="edge">
<title>Node1&#45;&gt;Node10</title>
<path fill="none" stroke="#191970" d="M2892.9028,-572.6824C2951.6162,-561.6737 3035.4685,-545.9514 3091.8468,-535.3804"/>
<polygon fill="#191970" stroke="#191970" points="3092.5097,-538.8172 3101.6934,-533.5342 3091.2196,-531.9371 3092.5097,-538.8172"/>
</g>
<!-- Node12 -->
<g id="node13" class="node">
<title>Node12</title>
<g id="a_node13"><a xlink:href="../../d3/d59/Configuration_8h.html" target="_top" xlink:title="ITStracking/Configuration.h">
<polygon fill="none" stroke="#000000" points="3328.0425,-252 3328.0425,-271 3477.0425,-271 3477.0425,-252 3328.0425,-252"/>
<text text-anchor="middle" x="3402.5425" y="-259" font-family="Helvetica,sans-Serif" font-size="10.00" fill="#000000">ITStracking/Configuration.h</text>
</a>
</g>
</g>
<!-- Node1&#45;&gt;Node12 -->
<g id="edge86" class="edge">
<title>Node1&#45;&gt;Node12</title>
<path fill="none" stroke="#191970" d="M2892.7863,-582.2885C3086.2595,-572.4539 3627.4897,-539.6118 3675.5425,-478 3750.2014,-382.2745 3540.0313,-303.5831 3445.7253,-274.0471"/>
<polygon fill="#191970" stroke="#191970" points="3446.4848,-270.6187 3435.8974,-271.0158 3444.4216,-277.3078 3446.4848,-270.6187"/>
</g>
<!-- Node16 -->
<g id="node17" class="node">
<title>Node16</title>
<g id="a_node17"><a xlink:href="../../df/d3d/Definitions_8h.html" target="_top" xlink:title="ITStracking/Definitions.h">
<polygon fill="none" stroke="#000000" points="3878.5425,-118 3878.5425,-137 4014.5425,-137 4014.5425,-118 3878.5425,-118"/>
<text text-anchor="middle" x="3946.5425" y="-125" font-family="Helvetica,sans-Serif" font-size="10.00" fill="#000000">ITStracking/Definitions.h</text>
</a>
</g>
</g>
<!-- Node1&#45;&gt;Node16 -->
<g id="edge87" class="edge">
<title>Node1&#45;&gt;Node16</title>
<path fill="none" stroke="#191970" d="M2892.8481,-583.3377C3091.727,-576.8081 3661.4669,-556.3614 3742.5425,-534 3856.1851,-502.6563 3900.7326,-500.4278 3977.5425,-411 4044.7562,-332.7447 4027.3555,-272.8543 3984.5425,-179 3978.964,-166.7709 3970.1726,-154.5998 3962.4503,-145.1624"/>
<polygon fill="#191970" stroke="#191970" points="3964.9331,-142.6798 3955.7818,-137.3408 3959.6063,-147.2213 3964.9331,-142.6798"/>
</g>
<!-- Node21 -->
<g id="node22" class="node">
<title>Node21</title>
<g id="a_node22"><a xlink:href="../../dc/d3e/MathUtils_8h.html" target="_top" xlink:title="ITStracking/MathUtils.h">
<polygon fill="none" stroke="#000000" points="2832.5425,-252 2832.5425,-271 2962.5425,-271 2962.5425,-252 2832.5425,-252"/>
<text text-anchor="middle" x="2897.5425" y="-259" font-family="Helvetica,sans-Serif" font-size="10.00" fill="#000000">ITStracking/MathUtils.h</text>
</a>
</g>
</g>
<!-- Node1&#45;&gt;Node21 -->
<g id="edge88" class="edge">
<title>Node1&#45;&gt;Node21</title>
<path fill="none" stroke="#191970" d="M2790.8092,-570.3642C2776.2423,-561.9147 2760.6948,-549.8543 2752.5425,-534 2734.8606,-499.613 2739.9495,-483.5585 2752.5425,-447 2777.7012,-373.962 2844.7351,-307.6685 2878.1072,-277.9651"/>
<polygon fill="#191970" stroke="#191970" points="2880.5968,-280.4375 2885.8204,-271.2199 2875.9887,-275.1682 2880.5968,-280.4375"/>
</g>
<!-- Node28 -->
<g id="node29" class="node">
<title>Node28</title>
<g id="a_node29"><a xlink:href="../../d3/da9/PrimaryVertexContext_8h.html" target="_top" xlink:title="ITStracking/PrimaryVertex\lContext.h">
<polygon fill="none" stroke="#000000" points="3378.5425,-447.5 3378.5425,-477.5 3522.5425,-477.5 3522.5425,-447.5 3378.5425,-447.5"/>
<text text-anchor="start" x="3386.5425" y="-465.5" font-family="Helvetica,sans-Serif" font-size="10.00" fill="#000000">ITStracking/PrimaryVertex</text>
<text text-anchor="middle" x="3450.5425" y="-454.5" font-family="Helvetica,sans-Serif" font-size="10.00" fill="#000000">Context.h</text>
</a>
</g>
</g>
<!-- Node1&#45;&gt;Node28 -->
<g id="edge89" class="edge">
<title>Node1&#45;&gt;Node28</title>
<path fill="none" stroke="#191970" d="M2892.7762,-583.98C3018.375,-580.3662 3280.9642,-568.7799 3364.5425,-534 3390.4239,-523.2298 3414.4657,-501.8666 3430.5111,-485.2841"/>
<polygon fill="#191970" stroke="#191970" points="3433.4333,-487.2845 3437.7187,-477.595 3428.3262,-482.4973 3433.4333,-487.2845"/>
</g>
<!-- Node30 -->
<g id="node31" class="node">
<title>Node30</title>
<g id="a_node31"><a xlink:href="../../d4/d5a/ITS_2tracking_2include_2ITStracking_2Road_8h.html" target="_top" xlink:title="ITStracking/Road.h">
<polygon fill="none" stroke="#000000" points="3837.0425,-386 3837.0425,-405 3944.0425,-405 3944.0425,-386 3837.0425,-386"/>
<text text-anchor="middle" x="3890.5425" y="-393" font-family="Helvetica,sans-Serif" font-size="10.00" fill="#000000">ITStracking/Road.h</text>
</a>
</g>
</g>
<!-- Node1&#45;&gt;Node30 -->
<g id="edge90" class="edge">
<title>Node1&#45;&gt;Node30</title>
<path fill="none" stroke="#191970" d="M2892.5797,-583.8217C3086.4847,-578.719 3632.8471,-562.0043 3708.5425,-534 3779.6458,-507.6946 3845.9294,-443.5826 3875.0287,-412.6935"/>
<polygon fill="#191970" stroke="#191970" points="3877.6874,-414.9737 3881.9159,-405.2592 3872.5523,-410.2165 3877.6874,-414.9737"/>
</g>
<!-- Node10&#45;&gt;Node2 -->
<g id="edge11" class="edge">
<title>Node10&#45;&gt;Node2</title>
<path fill="none" stroke="#191970" d="M3158.8225,-514.218C3164.2673,-505.1985 3171.8381,-491.2419 3175.5425,-478 3216.4044,-331.9341 3201.9641,-145.4775 3195.7674,-85.5048"/>
<polygon fill="#191970" stroke="#191970" points="3199.2437,-85.0959 3194.689,-75.53 3192.2842,-85.8483 3199.2437,-85.0959"/>
</g>
<!-- Node10&#45;&gt;Node3 -->
<g id="edge12" class="edge">
<title>Node10&#45;&gt;Node3</title>
<path fill="none" stroke="#191970" d="M3225.3121,-519.0156C3333.878,-511.1622 3532.9372,-495.0396 3602.5425,-478 3605.329,-477.3178 3608.181,-476.4788 3611.0124,-475.5474"/>
<polygon fill="#191970" stroke="#191970" points="3612.2347,-478.8272 3620.4344,-472.1179 3609.8404,-472.2494 3612.2347,-478.8272"/>
</g>
<!-- Node10&#45;&gt;Node4 -->
<g id="edge13" class="edge">
<title>Node10&#45;&gt;Node4</title>
<path fill="none" stroke="#191970" d="M3094.9532,-514.4825C3059.4373,-507.3031 3013.5667,-495.6239 2975.5425,-478 2953.8387,-467.9405 2951.3817,-460.3661 2931.5425,-447 2861.4036,-399.7461 2834.1809,-400.8228 2771.5425,-344 2715.3,-292.9793 2703.4767,-275.7823 2665.5425,-210 2641.3529,-168.0525 2622.9883,-113.8588 2614.2245,-85.4089"/>
<polygon fill="#191970" stroke="#191970" points="2617.4845,-84.096 2611.2508,-75.5291 2610.7815,-86.1135 2617.4845,-84.096"/>
</g>
<!-- Node10&#45;&gt;Node5 -->
<g id="edge14" class="edge">
<title>Node10&#45;&gt;Node5</title>
<path fill="none" stroke="#191970" d="M3079.831,-516.3686C3021.1087,-509.2567 2936.6716,-496.8764 2864.5425,-478 2861.556,-477.2184 2858.4851,-476.3062 2855.4281,-475.3228"/>
<polygon fill="#191970" stroke="#191970" points="2856.425,-471.9644 2845.8302,-472.0116 2854.142,-478.5816 2856.425,-471.9644"/>
</g>
<!-- Node10&#45;&gt;Node6 -->
<g id="edge15" class="edge">
<title>Node10&#45;&gt;Node6</title>
<path fill="none" stroke="#191970" d="M3079.8787,-518.9405C3028.6808,-513.4103 2959.3987,-501.8956 2902.5425,-478 2880.4893,-468.7315 2880.5132,-456.4621 2858.5425,-447 2784.412,-415.0743 2753.7355,-445.0198 2680.5425,-411 2645.4583,-394.693 2611.6664,-364.2973 2592.5583,-345.3021"/>
<polygon fill="#191970" stroke="#191970" points="2595.042,-342.836 2585.5315,-338.1667 2590.0544,-347.7476 2595.042,-342.836"/>
</g>
<!-- Node10&#45;&gt;Node7 -->
<g id="edge16" class="edge">
<title>Node10&#45;&gt;Node7</title>
<path fill="none" stroke="#191970" d="M3079.7968,-515.1906C3037.8815,-508.4208 2984.8815,-496.9208 2940.5425,-478 2917.8671,-468.3237 2916.2641,-458.6607 2894.5425,-447 2857.6729,-427.2075 2845.3368,-428.9639 2807.5425,-411 2662.0936,-341.8673 2494.4247,-245.7974 2431.8261,-209.3338"/>
<polygon fill="#191970" stroke="#191970" points="2433.4343,-206.2199 2423.0335,-204.2011 2429.9053,-212.2652 2433.4343,-206.2199"/>
</g>
<!-- Node10&#45;&gt;Node8 -->
<g id="edge17" class="edge">
<title>Node10&#45;&gt;Node8</title>
<path fill="none" stroke="#191970" d="M3154.0876,-514.3072C3161.9442,-463.5442 3195.3032,-228.7633 3148.5425,-179 3111.3872,-139.4589 2715.4916,-148.7886 2661.5425,-143 2638.0843,-140.483 2611.9271,-136.8321 2591.007,-133.7058"/>
<polygon fill="#191970" stroke="#191970" points="2591.3017,-130.2106 2580.8904,-132.1741 2590.2538,-137.1317 2591.3017,-130.2106"/>
</g>
<!-- Node10&#45;&gt;Node9 -->
<g id="edge18" class="edge">
<title>Node10&#45;&gt;Node9</title>
<path fill="none" stroke="#191970" d="M3148.8574,-514.2937C3145.5412,-505.0949 3140.8464,-490.8171 3138.5425,-478 3120.2669,-376.3308 3134.617,-348.8062 3124.5425,-246 3123.5178,-235.5437 3121.9771,-223.9452 3120.6018,-214.4066"/>
<polygon fill="#191970" stroke="#191970" points="3124.0387,-213.7227 3119.1041,-204.3472 3117.115,-214.7536 3124.0387,-213.7227"/>
</g>
<!-- Node11 -->
<g id="node12" class="node">
<title>Node11</title>
<polygon fill="none" stroke="#bfbfbf" points="3219.0425,-453 3219.0425,-472 3284.0425,-472 3284.0425,-453 3219.0425,-453"/>
<text text-anchor="middle" x="3251.5425" y="-460" font-family="Helvetica,sans-Serif" font-size="10.00" fill="#000000">functional</text>
</g>
<!-- Node10&#45;&gt;Node11 -->
<g id="edge19" class="edge">
<title>Node10&#45;&gt;Node11</title>
<path fill="none" stroke="#191970" d="M3168.0112,-514.3906C3183.9945,-504.4616 3209.1528,-488.833 3227.6858,-477.3201"/>
<polygon fill="#191970" stroke="#191970" points="3229.5348,-480.2918 3236.1823,-472.0419 3225.841,-474.3457 3229.5348,-480.2918"/>
</g>
<!-- Node10&#45;&gt;Node12 -->
<g id="edge20" class="edge">
<title>Node10&#45;&gt;Node12</title>
<path fill="none" stroke="#191970" d="M3214.9562,-514.4202C3241.2799,-507.7946 3270.7952,-496.6577 3292.5425,-478 3355.9882,-423.5679 3387.1416,-323.5754 3397.9643,-281.2529"/>
<polygon fill="#191970" stroke="#191970" points="3401.4073,-281.9078 3400.3872,-271.3622 3394.6083,-280.2422 3401.4073,-281.9078"/>
</g>
<!-- Node10&#45;&gt;Node16 -->
<g id="edge34" class="edge">
<title>Node10&#45;&gt;Node16</title>
<path fill="none" stroke="#191970" d="M3225.2023,-520.5655C3326.9651,-514.9687 3506.2442,-502.0157 3566.5425,-478 3587.7657,-469.5472 3586.2898,-455.3787 3607.5425,-447 3679.4593,-418.6474 3901.786,-468.421 3953.5425,-411 4021.7069,-335.3754 3975.1804,-196.9415 3954.7749,-146.5156"/>
<polygon fill="#191970" stroke="#191970" points="3957.9468,-145.028 3950.8677,-137.1453 3951.486,-147.7221 3957.9468,-145.028"/>
</g>
<!-- Node10&#45;&gt;Node21 -->
<g id="edge35" class="edge">
<title>Node10&#45;&gt;Node21</title>
<path fill="none" stroke="#191970" d="M3129.488,-514.3948C3072.9716,-490.6448 2931.1365,-429.7314 2917.5425,-411 2889.3114,-372.0998 2891.2817,-312.1268 2894.6581,-281.2971"/>
<polygon fill="#191970" stroke="#191970" points="2898.1763,-281.3736 2895.9609,-271.013 2891.2318,-280.4938 2898.1763,-281.3736"/>
</g>
<!-- Node10&#45;&gt;Node28 -->
<g id="edge52" class="edge">
<title>Node10&#45;&gt;Node28</title>
<path fill="none" stroke="#191970" d="M3198.778,-514.4581C3243.9485,-505.136 3313.6865,-490.7438 3368.3213,-479.4685"/>
<polygon fill="#191970" stroke="#191970" points="3369.2516,-482.8503 3378.3378,-477.4013 3367.8367,-475.9948 3369.2516,-482.8503"/>
</g>
<!-- Node10&#45;&gt;Node30 -->
<g id="edge85" class="edge">
<title>Node10&#45;&gt;Node30</title>
<path fill="none" stroke="#191970" d="M3225.3323,-519.4976C3319.355,-512.9385 3477.3736,-499.1791 3531.5425,-478 3553.4847,-469.421 3552.702,-455.8349 3574.5425,-447 3677.7922,-405.2336 3713.0478,-431.3926 3822.5425,-411 3828.6357,-409.8652 3835.0108,-408.5645 3841.3116,-407.2096"/>
<polygon fill="#191970" stroke="#191970" points="3842.0883,-410.6225 3851.1004,-405.052 3840.5814,-403.7866 3842.0883,-410.6225"/>
</g>
<!-- Node12&#45;&gt;Node2 -->
<g id="edge21" class="edge">
<title>Node12&#45;&gt;Node2</title>
<path fill="none" stroke="#191970" d="M3400.9298,-251.8731C3396.0116,-225.5189 3378.7519,-151.5348 3334.5425,-112 3303.7234,-84.4397 3256.0949,-73.3556 3224.8678,-68.9215"/>
<polygon fill="#191970" stroke="#191970" points="3224.9217,-65.4004 3214.5608,-67.6144 3224.041,-72.3448 3224.9217,-65.4004"/>
</g>
<!-- Node12&#45;&gt;Node4 -->
<g id="edge24" class="edge">
<title>Node12&#45;&gt;Node4</title>
<path fill="none" stroke="#191970" d="M3384.6889,-251.948C3352.6292,-235.1299 3282.8302,-200.0273 3220.5425,-179 3007.3821,-107.0408 2736.0916,-77.3826 2642.2586,-68.8191"/>
<polygon fill="#191970" stroke="#191970" points="2642.4858,-65.3256 2632.214,-67.9218 2641.8628,-72.2978 2642.4858,-65.3256"/>
</g>
<!-- Node13 -->
<g id="node14" class="node">
<title>Node13</title>
<polygon fill="none" stroke="#bfbfbf" points="3424.5425,-118 3424.5425,-137 3474.5425,-137 3474.5425,-118 3424.5425,-118"/>
<text text-anchor="middle" x="3449.5425" y="-125" font-family="Helvetica,sans-Serif" font-size="10.00" fill="#000000">climits</text>
</g>
<!-- Node12&#45;&gt;Node13 -->
<g id="edge22" class="edge">
<title>Node12&#45;&gt;Node13</title>
<path fill="none" stroke="#191970" d="M3405.9226,-251.8631C3413.646,-229.8432 3432.7032,-175.5098 3442.882,-146.4894"/>
<polygon fill="#191970" stroke="#191970" points="3446.1859,-147.6445 3446.193,-137.0496 3439.5804,-145.3276 3446.1859,-147.6445"/>
</g>
<!-- Node14 -->
<g id="node15" class="node">
<title>Node14</title>
<polygon fill="none" stroke="#bfbfbf" points="3617.0425,-118 3617.0425,-137 3664.0425,-137 3664.0425,-118 3617.0425,-118"/>
<text text-anchor="middle" x="3640.5425" y="-125" font-family="Helvetica,sans-Serif" font-size="10.00" fill="#000000">vector</text>
</g>
<!-- Node12&#45;&gt;Node14 -->
<g id="edge23" class="edge">
<title>Node12&#45;&gt;Node14</title>
<path fill="none" stroke="#191970" d="M3419.6588,-251.8631C3460.8271,-228.6843 3565.5885,-169.701 3614.565,-142.1259"/>
<polygon fill="#191970" stroke="#191970" points="3616.5845,-145.0056 3623.5812,-137.0496 3613.1502,-138.9059 3616.5845,-145.0056"/>
</g>
<!-- Node12&#45;&gt;Node15 -->
<g id="edge25" class="edge">
<title>Node12&#45;&gt;Node15</title>
<path fill="none" stroke="#191970" d="M3442.0778,-251.9717C3491.6492,-240.0246 3576.6632,-219.5357 3630.6579,-206.5225"/>
<polygon fill="#191970" stroke="#191970" points="3631.7918,-209.8496 3640.6934,-204.1039 3630.1516,-203.0444 3631.7918,-209.8496"/>
</g>
<!-- Node15&#45;&gt;Node13 -->
<g id="edge26" class="edge">
<title>Node15&#45;&gt;Node13</title>
<path fill="none" stroke="#191970" d="M3647.4458,-184.9005C3604.1599,-172.3457 3528.6547,-150.446 3484.4781,-137.6328"/>
<polygon fill="#191970" stroke="#191970" points="3485.3342,-134.237 3474.755,-134.8127 3483.3842,-140.9599 3485.3342,-134.237"/>
</g>
<!-- Node15&#45;&gt;Node14 -->
<g id="edge27" class="edge">
<title>Node15&#45;&gt;Node14</title>
<path fill="none" stroke="#191970" d="M3674.8114,-184.9005C3668.752,-174.751 3659.0464,-158.4941 3651.5084,-145.8679"/>
<polygon fill="#191970" stroke="#191970" points="3654.3942,-143.8737 3646.2629,-137.0817 3648.3838,-147.462 3654.3942,-143.8737"/>
</g>
<!-- Node15&#45;&gt;Node16 -->
<g id="edge28" class="edge">
<title>Node15&#45;&gt;Node16</title>
<path fill="none" stroke="#191970" d="M3718.3713,-184.9717C3765.7043,-173.0495 3846.8091,-152.6208 3898.4886,-139.6038"/>
<polygon fill="#191970" stroke="#191970" points="3899.5712,-142.9405 3908.4135,-137.1039 3897.8614,-136.1525 3899.5712,-142.9405"/>
</g>
<!-- Node16&#45;&gt;Node2 -->
<g id="edge29" class="edge">
<title>Node16&#45;&gt;Node2</title>
<path fill="none" stroke="#191970" d="M3901.1532,-117.9285C3889.2827,-115.6981 3876.4699,-113.5307 3864.5425,-112 3738.1801,-95.7838 3339.7133,-73.7906 3224.8285,-67.651"/>
<polygon fill="#191970" stroke="#191970" points="3224.7866,-64.1439 3214.6146,-67.1071 3224.4143,-71.134 3224.7866,-64.1439"/>
</g>
<!-- Node17 -->
<g id="node18" class="node">
<title>Node17</title>
<g id="a_node18"><a xlink:href="../../df/d21/GPUCommonDef_8h.html" target="_top" xlink:title="GPUCommonDef.h">
<polygon fill="none" stroke="#000000" points="3428.0425,-56.5 3428.0425,-75.5 3535.0425,-75.5 3535.0425,-56.5 3428.0425,-56.5"/>
<text text-anchor="middle" x="3481.5425" y="-63.5" font-family="Helvetica,sans-Serif" font-size="10.00" fill="#000000">GPUCommonDef.h</text>
</a>
</g>
</g>
<!-- Node16&#45;&gt;Node17 -->
<g id="edge30" class="edge">
<title>Node16&#45;&gt;Node17</title>
<path fill="none" stroke="#191970" d="M3898.9395,-117.9408C3887.6861,-115.8367 3875.7109,-113.7243 3864.5425,-112 3752.8125,-94.7505 3621.8964,-80.2481 3545.6806,-72.3704"/>
<polygon fill="#191970" stroke="#191970" points="3545.6024,-68.844 3535.2969,-71.3032 3544.8867,-75.8073 3545.6024,-68.844"/>
</g>
<!-- Node20 -->
<g id="node21" class="node">
<title>Node20</title>
<polygon fill="none" stroke="#bfbfbf" points="3920.0425,-56.5 3920.0425,-75.5 3973.0425,-75.5 3973.0425,-56.5 3920.0425,-56.5"/>
<text text-anchor="middle" x="3946.5425" y="-63.5" font-family="Helvetica,sans-Serif" font-size="10.00" fill="#000000">cstddef</text>
</g>
<!-- Node16&#45;&gt;Node20 -->
<g id="edge33" class="edge">
<title>Node16&#45;&gt;Node20</title>
<path fill="none" stroke="#191970" d="M3946.5425,-117.8906C3946.5425,-109.3657 3946.5425,-96.6392 3946.5425,-85.9235"/>
<polygon fill="#191970" stroke="#191970" points="3950.0426,-85.7448 3946.5425,-75.7449 3943.0426,-85.7449 3950.0426,-85.7448"/>
</g>
<!-- Node18 -->
<g id="node19" class="node">
<title>Node18</title>
<g id="a_node19"><a xlink:href="../../d5/d93/GPUCommonDefSettings_8h.html" target="_top" xlink:title="GPUCommonDefSettings.h">
<polygon fill="none" stroke="#000000" points="3330.5425,-.5 3330.5425,-19.5 3478.5425,-19.5 3478.5425,-.5 3330.5425,-.5"/>
<text text-anchor="middle" x="3404.5425" y="-7.5" font-family="Helvetica,sans-Serif" font-size="10.00" fill="#000000">GPUCommonDefSettings.h</text>
</a>
</g>
</g>
<!-- Node17&#45;&gt;Node18 -->
<g id="edge31" class="edge">
<title>Node17&#45;&gt;Node18</title>
<path fill="none" stroke="#191970" d="M3468.1301,-56.2455C3456.5367,-47.814 3439.5677,-35.4729 3426.0746,-25.6598"/>
<polygon fill="#191970" stroke="#191970" points="3427.9471,-22.6938 3417.8011,-19.6427 3423.8299,-28.355 3427.9471,-22.6938"/>
</g>
<!-- Node19 -->
<g id="node20" class="node">
<title>Node19</title>
<g id="a_node20"><a xlink:href="../../da/d5a/GPUCommonDefAPI_8h.html" target="_top" xlink:title="GPUCommonDefAPI.h">
<polygon fill="none" stroke="#000000" points="3496.5425,-.5 3496.5425,-19.5 3620.5425,-19.5 3620.5425,-.5 3496.5425,-.5"/>
<text text-anchor="middle" x="3558.5425" y="-7.5" font-family="Helvetica,sans-Serif" font-size="10.00" fill="#000000">GPUCommonDefAPI.h</text>
</a>
</g>
</g>
<!-- Node17&#45;&gt;Node19 -->
<g id="edge32" class="edge">
<title>Node17&#45;&gt;Node19</title>
<path fill="none" stroke="#191970" d="M3494.9548,-56.2455C3506.5482,-47.814 3523.5172,-35.4729 3537.0103,-25.6598"/>
<polygon fill="#191970" stroke="#191970" points="3539.255,-28.355 3545.2838,-19.6427 3535.1378,-22.6938 3539.255,-28.355"/>
</g>
<!-- Node21&#45;&gt;Node2 -->
<g id="edge36" class="edge">
<title>Node21&#45;&gt;Node2</title>
<path fill="none" stroke="#191970" d="M2900.903,-251.9211C2906.8475,-235.8095 2920.3293,-202.7241 2938.5425,-179 2965.9632,-143.2822 2974.749,-133.0744 3014.5425,-112 3062.5447,-86.5783 3125.337,-74.6629 3162.3671,-69.5076"/>
<polygon fill="#191970" stroke="#191970" points="3163.0817,-72.9439 3172.5411,-68.172 3162.1705,-66.0034 3163.0817,-72.9439"/>
</g>
<!-- Node21&#45;&gt;Node4 -->
<g id="edge37" class="edge">
<title>Node21&#45;&gt;Node4</title>
<path fill="none" stroke="#191970" d="M2893.9689,-251.8906C2883.409,-224.9267 2849.5961,-148.1725 2794.5425,-112 2769.6657,-95.655 2688.6698,-79.6821 2642.176,-71.5491"/>
<polygon fill="#191970" stroke="#191970" points="2642.7072,-68.0891 2632.2583,-69.8415 2641.5194,-74.9876 2642.7072,-68.0891"/>
</g>
<!-- Node21&#45;&gt;Node15 -->
<g id="edge49" class="edge">
<title>Node21&#45;&gt;Node15</title>
<path fill="none" stroke="#191970" d="M2962.619,-255.9315C3106.3816,-243.63 3450.4431,-214.1892 3604.1294,-201.0385"/>
<polygon fill="#191970" stroke="#191970" points="3604.7517,-204.4982 3614.4169,-200.1583 3604.1549,-197.5237 3604.7517,-204.4982"/>
</g>
<!-- Node21&#45;&gt;Node17 -->
<g id="edge51" class="edge">
<title>Node21&#45;&gt;Node17</title>
<path fill="none" stroke="#191970" d="M2908.0461,-251.9067C2938.9987,-224.2984 3033.6528,-144.551 3128.5425,-112 3180.6278,-94.1327 3331.2373,-78.8515 3417.9748,-71.2132"/>
<polygon fill="#191970" stroke="#191970" points="3418.3089,-74.6974 3427.9671,-70.3421 3417.7009,-67.7238 3418.3089,-74.6974"/>
</g>
<!-- Node21&#45;&gt;Node22 -->
<g id="edge38" class="edge">
<title>Node21&#45;&gt;Node22</title>
<path fill="none" stroke="#191970" d="M2881.8571,-251.9803C2848.7527,-232.0764 2772.4233,-187.2194 2743.5425,-179 2705.4005,-168.1449 2114.5906,-137.2789 1960.2155,-129.3664"/>
<polygon fill="#191970" stroke="#191970" points="1960.0342,-125.8526 1949.8683,-128.8369 1959.6764,-132.8435 1960.0342,-125.8526"/>
</g>
<!-- Node21&#45;&gt;Node23 -->
<g id="edge39" class="edge">
<title>Node21&#45;&gt;Node23</title>
<path fill="none" stroke="#191970" d="M2869.8903,-251.9005C2836.2107,-240.2086 2779.185,-220.4122 2741.6952,-207.3976"/>
<polygon fill="#191970" stroke="#191970" points="2742.7382,-204.0548 2732.1434,-204.0817 2740.4425,-210.6677 2742.7382,-204.0548"/>
</g>
<!-- Node24 -->
<g id="node25" class="node">
<title>Node24</title>
<g id="a_node25"><a xlink:href="../../d9/d52/Common_2MathUtils_2include_2MathUtils_2Utils_8h.html" target="_top" xlink:title="MathUtils/Utils.h">
<polygon fill="none" stroke="#000000" points="2151.5425,-185 2151.5425,-204 2249.5425,-204 2249.5425,-185 2151.5425,-185"/>
<text text-anchor="middle" x="2200.5425" y="-192" font-family="Helvetica,sans-Serif" font-size="10.00" fill="#000000">MathUtils/Utils.h</text>
</a>
</g>
</g>
<!-- Node21&#45;&gt;Node24 -->
<g id="edge40" class="edge">
<title>Node21&#45;&gt;Node24</title>
<path fill="none" stroke="#191970" d="M2832.2837,-255.2269C2697.3556,-242.2568 2389.4818,-212.662 2259.8337,-200.1994"/>
<polygon fill="#191970" stroke="#191970" points="2259.9887,-196.6983 2249.6997,-199.2253 2259.3189,-203.6662 2259.9887,-196.6983"/>
</g>
<!-- Node21&#45;&gt;Node25 -->
<g id="edge50" class="edge">
<title>Node21&#45;&gt;Node25</title>
<path fill="none" stroke="#191970" d="M2889.2401,-251.8338C2874.9973,-235.5934 2844.5341,-202.3233 2814.5425,-179 2796.3441,-164.8479 2773.952,-151.5523 2756.5792,-142.0162"/>
<polygon fill="#191970" stroke="#191970" points="2757.9658,-138.7875 2747.5025,-137.1235 2754.6444,-144.9494 2757.9658,-138.7875"/>
</g>
<!-- Node24&#45;&gt;Node2 -->
<g id="edge41" class="edge">
<title>Node24&#45;&gt;Node2</title>
<path fill="none" stroke="#191970" d="M2195.4559,-184.8194C2187.212,-167.6394 2173.6583,-131.7719 2192.5425,-112 2209.7012,-94.0347 2993.6077,-71.4953 3161.9285,-66.8574"/>
<polygon fill="#191970" stroke="#191970" points="3162.2104,-70.3511 3172.1106,-66.5781 3162.0183,-63.3537 3162.2104,-70.3511"/>
</g>
<!-- Node24&#45;&gt;Node4 -->
<g id="edge42" class="edge">
<title>Node24&#45;&gt;Node4</title>
<path fill="none" stroke="#191970" d="M2188.1542,-184.971C2168.3685,-168.6438 2133.8704,-134.8725 2154.5425,-112 2182.6356,-80.9166 2474.3053,-69.7936 2574.7631,-66.8678"/>
<polygon fill="#191970" stroke="#191970" points="2575.0635,-70.3608 2584.9607,-66.58 2574.866,-63.3636 2575.0635,-70.3608"/>
</g>
<!-- Node24&#45;&gt;Node17 -->
<g id="edge43" class="edge">
<title>Node24&#45;&gt;Node17</title>
<path fill="none" stroke="#191970" d="M2200.1802,-184.897C2200.0974,-167.1732 2202.7772,-129.5339 2225.5425,-112 2269.4969,-78.146 3168.1008,-78.0744 3223.5425,-76 3289.6835,-73.5253 3365.3575,-70.5785 3417.5638,-68.5276"/>
<polygon fill="#191970" stroke="#191970" points="3417.8277,-72.02 3427.6824,-68.1297 3417.5526,-65.0254 3417.8277,-72.02"/>
</g>
<!-- Node24&#45;&gt;Node25 -->
<g id="edge44" class="edge">
<title>Node24&#45;&gt;Node25</title>
<path fill="none" stroke="#191970" d="M2249.7413,-188.257C2344.6042,-176.2194 2552.9429,-149.7825 2660.8201,-136.0936"/>
<polygon fill="#191970" stroke="#191970" points="2661.4592,-139.5406 2670.939,-134.8095 2660.5779,-132.5963 2661.4592,-139.5406"/>
</g>
<!-- Node24&#45;&gt;Node27 -->
<g id="edge48" class="edge">
<title>Node24&#45;&gt;Node27</title>
<path fill="none" stroke="#191970" d="M2219.3116,-184.9005C2241.3936,-173.6067 2278.2614,-154.7506 2303.6811,-141.7497"/>
<polygon fill="#191970" stroke="#191970" points="2305.4988,-144.7513 2312.8082,-137.0817 2302.3113,-138.5191 2305.4988,-144.7513"/>
</g>
<!-- Node25&#45;&gt;Node4 -->
<g id="edge46" class="edge">
<title>Node25&#45;&gt;Node4</title>
<path fill="none" stroke="#191970" d="M2709.7925,-117.8906C2690.0665,-107.7811 2658.8113,-91.7628 2636.2424,-80.1962"/>
<polygon fill="#191970" stroke="#191970" points="2637.6565,-76.9881 2627.1608,-75.5419 2634.4638,-83.2176 2637.6565,-76.9881"/>
</g>
<!-- Node25&#45;&gt;Node17 -->
<g id="edge45" class="edge">
<title>Node25&#45;&gt;Node17</title>
<path fill="none" stroke="#191970" d="M2786.068,-122.8017C2924.2251,-111.518 3273.9415,-82.9555 3418.0139,-71.1886"/>
<polygon fill="#191970" stroke="#191970" points="3418.3442,-74.6734 3428.026,-70.3709 3417.7743,-67.6966 3418.3442,-74.6734"/>
</g>
<!-- Node26 -->
<g id="node27" class="node">
<title>Node26</title>
<polygon fill="none" stroke="#bfbfbf" points="1994.5425,-56.5 1994.5425,-75.5 2058.5425,-75.5 2058.5425,-56.5 1994.5425,-56.5"/>
<text text-anchor="middle" x="2026.5425" y="-63.5" font-family="Helvetica,sans-Serif" font-size="10.00" fill="#000000">algorithm</text>
</g>
<!-- Node25&#45;&gt;Node26 -->
<g id="edge47" class="edge">
<title>Node25&#45;&gt;Node26</title>
<path fill="none" stroke="#191970" d="M2670.7598,-120.6704C2645.7982,-117.8201 2616.2493,-114.5795 2589.5425,-112 2395.2138,-93.2304 2162.6576,-75.8353 2068.8463,-69.0275"/>
<polygon fill="#191970" stroke="#191970" points="2068.8548,-65.5191 2058.6283,-68.2881 2068.3496,-72.5008 2068.8548,-65.5191"/>
</g>
<!-- Node28&#45;&gt;Node2 -->
<g id="edge54" class="edge">
<title>Node28&#45;&gt;Node2</title>
<path fill="none" stroke="#191970" d="M3507.0361,-447.4768C3535.8661,-438.7338 3570.9927,-426.387 3600.5425,-411 3714.1557,-351.8398 3831.3236,-292.2877 3771.5425,-179 3746.9185,-132.3367 3723.1485,-129.9735 3673.5425,-112 3590.4504,-81.8936 3317.9065,-70.1577 3224.9402,-66.9691"/>
<polygon fill="#191970" stroke="#191970" points="3224.8761,-63.4651 3214.765,-66.6299 3224.6428,-70.4612 3224.8761,-63.4651"/>
</g>
<!-- Node28&#45;&gt;Node7 -->
<g id="edge55" class="edge">
<title>Node28&#45;&gt;Node7</title>
<path fill="none" stroke="#191970" d="M3378.1979,-447.9928C3275.3532,-427.0121 3081.189,-386.0813 2917.5425,-344 2736.6139,-297.4747 2522.8705,-231.2313 2440.8932,-205.4018"/>
<polygon fill="#191970" stroke="#191970" points="2441.7005,-201.9864 2431.1107,-202.3141 2439.5935,-208.6618 2441.7005,-201.9864"/>
</g>
<!-- Node28&#45;&gt;Node12 -->
<g id="edge62" class="edge">
<title>Node28&#45;&gt;Node12</title>
<path fill="none" stroke="#191970" d="M3446.9347,-447.3923C3438.3652,-411.5077 3416.7917,-321.1687 3407.2299,-281.1287"/>
<polygon fill="#191970" stroke="#191970" points="3410.5994,-280.1697 3404.8723,-271.2562 3403.7908,-281.7957 3410.5994,-280.1697"/>
</g>
<!-- Node28&#45;&gt;Node14 -->
<g id="edge56" class="edge">
<title>Node28&#45;&gt;Node14</title>
<path fill="none" stroke="#191970" d="M3491.6869,-447.4893C3513.8803,-438.4888 3541.2169,-425.9009 3563.5425,-411 3666.2978,-342.4174 3711.4254,-325.3946 3755.5425,-210 3760.4626,-197.1307 3763.0339,-190.5631 3755.5425,-179 3737.7178,-151.4872 3701.3552,-138.5379 3674.2657,-132.5294"/>
<polygon fill="#191970" stroke="#191970" points="3674.8884,-129.0847 3664.3954,-130.5506 3673.5123,-135.9481 3674.8884,-129.0847"/>
</g>
<!-- Node28&#45;&gt;Node15 -->
<g id="edge63" class="edge">
<title>Node28&#45;&gt;Node15</title>
<path fill="none" stroke="#191970" d="M3476.629,-447.2998C3521.8094,-419.5457 3614.3055,-356.1637 3661.5425,-277 3673.0954,-257.6386 3677.6251,-231.8583 3679.4002,-214.3035"/>
<polygon fill="#191970" stroke="#191970" points="3682.9073,-214.3524 3680.215,-204.1054 3675.9296,-213.7948 3682.9073,-214.3524"/>
</g>
<!-- Node28&#45;&gt;Node16 -->
<g id="edge64" class="edge">
<title>Node28&#45;&gt;Node16</title>
<path fill="none" stroke="#191970" d="M3522.6216,-447.6322C3581.6144,-435.1318 3657.3988,-418.1859 3670.5425,-411 3796.5273,-342.1215 3900.7838,-196.7145 3934.801,-145.6739"/>
<polygon fill="#191970" stroke="#191970" points="3937.9175,-147.3049 3940.4899,-137.027 3932.0696,-143.4575 3937.9175,-147.3049"/>
</g>
<!-- Node28&#45;&gt;Node26 -->
<g id="edge53" class="edge">
<title>Node28&#45;&gt;Node26</title>
<path fill="none" stroke="#191970" d="M3437.6638,-447.1768C3392.0182,-393.2515 3237.1348,-213.6281 3170.5425,-179 3085.3615,-134.7058 3052.0401,-159.9698 2957.5425,-143 2884.9606,-129.9658 2867.7203,-121.1121 2794.5425,-112 2519.4755,-77.7488 2185.6941,-68.8001 2069.1424,-66.6392"/>
<polygon fill="#191970" stroke="#191970" points="2068.931,-63.135 2058.8702,-66.4561 2068.8062,-70.1339 2068.931,-63.135"/>
</g>
<!-- Node28&#45;&gt;Node29 -->
<g id="edge57" class="edge">
<title>Node28&#45;&gt;Node29</title>
<path fill="none" stroke="#191970" d="M3522.6638,-447.9008C3524.3048,-447.5949 3525.9328,-447.2942 3527.5425,-447 3624.5745,-429.2644 3654.5188,-446.5166 3746.5425,-411 3879.0966,-359.8406 4014.3676,-251.6128 4062.8502,-210.6596"/>
<polygon fill="#191970" stroke="#191970" points="4065.2817,-213.1862 4070.6251,-204.0375 4060.7427,-207.8571 4065.2817,-213.1862"/>
</g>
<!-- Node28&#45;&gt;Node30 -->
<g id="edge65" class="edge">
<title>Node28&#45;&gt;Node30</title>
<path fill="none" stroke="#191970" d="M3522.7571,-449.1975C3527.4178,-448.4278 3532.0434,-447.6881 3536.5425,-447 3663.184,-427.6311 3696.3776,-433.2633 3822.5425,-411 3828.8026,-409.8953 3835.355,-408.5918 3841.8165,-407.2176"/>
<polygon fill="#191970" stroke="#191970" points="3842.8229,-410.5801 3851.8404,-405.0181 3841.3226,-403.7428 3842.8229,-410.5801"/>
</g>
<!-- Node28&#45;&gt;Node31 -->
<g id="edge69" class="edge">
<title>Node28&#45;&gt;Node31</title>
<path fill="none" stroke="#191970" d="M3378.4529,-452.068C3291.2932,-439.4553 3145.5281,-418.3619 3058.761,-405.8059"/>
<polygon fill="#191970" stroke="#191970" points="3059.1377,-402.3241 3048.7395,-404.3557 3058.1351,-409.2519 3059.1377,-402.3241"/>
</g>
<!-- Node29&#45;&gt;Node2 -->
<g id="edge58" class="edge">
<title>Node29&#45;&gt;Node2</title>
<path fill="none" stroke="#191970" d="M4078.1015,-184.9494C4071.0499,-166.9621 4053.0876,-128.3986 4023.5425,-112 4005.7501,-102.1246 3374.7138,-73.9299 3225.1144,-67.3738"/>
<polygon fill="#191970" stroke="#191970" points="3224.9483,-63.8633 3214.8049,-66.9229 3224.6424,-70.8566 3224.9483,-63.8633"/>
</g>
<!-- Node29&#45;&gt;Node14 -->
<g id="edge59" class="edge">
<title>Node29&#45;&gt;Node14</title>
<path fill="none" stroke="#191970" d="M4030.5233,-186.7488C3939.3587,-172.8984 3750.8655,-144.2611 3674.1384,-132.6041"/>
<polygon fill="#191970" stroke="#191970" points="3674.4876,-129.1171 3664.0753,-131.0753 3673.4362,-136.0377 3674.4876,-129.1171"/>
</g>
<!-- Node29&#45;&gt;Node16 -->
<g id="edge60" class="edge">
<title>Node29&#45;&gt;Node16</title>
<path fill="none" stroke="#191970" d="M4062.2003,-184.9005C4039.3437,-173.5569 4001.1154,-154.5844 3974.9091,-141.5783"/>
<polygon fill="#191970" stroke="#191970" points="3976.3623,-138.3922 3965.8488,-137.0817 3973.2503,-144.6624 3976.3623,-138.3922"/>
</g>
<!-- Node29&#45;&gt;Node17 -->
<g id="edge61" class="edge">
<title>Node29&#45;&gt;Node17</title>
<path fill="none" stroke="#191970" d="M4081.8317,-184.9896C4081.793,-167.4202 4078.9185,-130.028 4056.5425,-112 4017.4564,-80.5091 3686.9408,-70.1296 3545.4254,-67.1088"/>
<polygon fill="#191970" stroke="#191970" points="3545.2343,-63.6041 3535.1637,-66.8956 3545.0888,-70.6026 3545.2343,-63.6041"/>
</g>
<!-- Node30&#45;&gt;Node2 -->
<g id="edge66" class="edge">
<title>Node30&#45;&gt;Node2</title>
<path fill="none" stroke="#191970" d="M3891.9128,-385.9688C3897.1584,-345.3246 3911.6339,-185.2356 3826.5425,-112 3803.4913,-92.1605 3349.2527,-72.3223 3224.8229,-67.2437"/>
<polygon fill="#191970" stroke="#191970" points="3224.936,-63.7455 3214.8025,-66.8376 3224.6525,-70.7398 3224.936,-63.7455"/>
</g>
<!-- Node30&#45;&gt;Node15 -->
<g id="edge67" class="edge">
<title>Node30&#45;&gt;Node15</title>
<path fill="none" stroke="#191970" d="M3875.2556,-385.8863C3860.2004,-376.1206 3836.8628,-360.1703 3818.5425,-344 3769.3436,-300.5751 3718.8748,-241.4433 3694.8899,-212.2717"/>
<polygon fill="#191970" stroke="#191970" points="3697.3619,-209.765 3688.3273,-204.2308 3691.9388,-214.1911 3697.3619,-209.765"/>
</g>
<!-- Node30&#45;&gt;Node17 -->
<g id="edge68" class="edge">
<title>Node30&#45;&gt;Node17</title>
<path fill="none" stroke="#191970" d="M3922.4216,-385.9526C3999.0959,-361.0645 4184.4113,-288.4436 4141.5425,-179 4126.7454,-141.2234 4116.0667,-129.6637 4079.5425,-112 4032.3981,-89.2002 3690.0684,-73.8277 3545.5958,-68.2888"/>
<polygon fill="#191970" stroke="#191970" points="3545.6682,-64.7891 3535.5425,-67.907 3545.4025,-71.784 3545.6682,-64.7891"/>
</g>
<!-- Node31&#45;&gt;Node17 -->
<g id="edge84" class="edge">
<title>Node31&#45;&gt;Node17</title>
<path fill="none" stroke="#191970" d="M3005.6507,-385.9748C3020.6205,-377.1299 3041.1962,-362.5444 3052.5425,-344 3091.5732,-280.2075 3034.8337,-233.9683 3085.5425,-179 3130.4766,-130.2914 3317.9941,-92.8708 3418.027,-75.9324"/>
<polygon fill="#191970" stroke="#191970" points="3418.7299,-79.3635 3428.0146,-74.2601 3417.5738,-72.4596 3418.7299,-79.3635"/>
</g>
<!-- Node31&#45;&gt;Node23 -->
<g id="edge82" class="edge">
<title>Node31&#45;&gt;Node23</title>
<path fill="none" stroke="#191970" d="M2926.2413,-388.3755C2889.3978,-381.6734 2843.1124,-368.7617 2808.5425,-344 2760.5084,-309.5942 2727.1836,-245.7552 2712.689,-213.7882"/>
<polygon fill="#191970" stroke="#191970" points="2715.7285,-212.0049 2708.5013,-204.2577 2709.3198,-214.8209 2715.7285,-212.0049"/>
</g>
<!-- Node31&#45;&gt;Node25 -->
<g id="edge83" class="edge">
<title>Node31&#45;&gt;Node25</title>
<path fill="none" stroke="#191970" d="M2970.0909,-385.9058C2938.1967,-367.7627 2869.5489,-325.8349 2823.5425,-277 2784.6848,-235.7534 2752.5449,-176.4252 2737.5853,-146.4178"/>
<polygon fill="#191970" stroke="#191970" points="2740.5669,-144.548 2733.0275,-137.1044 2734.2794,-147.625 2740.5669,-144.548"/>
</g>
<!-- Node32 -->
<g id="node33" class="node">
<title>Node32</title>
<g id="a_node33"><a xlink:href="../../da/d7f/Detectors_2ITSMFT_2ITS_2tracking_2include_2ITStracking_2Cluster_8h.html" target="_top" xlink:title="ITStracking/Cluster.h">
<polygon fill="none" stroke="#000000" points="2927.0425,-319 2927.0425,-338 3044.0425,-338 3044.0425,-319 2927.0425,-319"/>
<text text-anchor="middle" x="2985.5425" y="-326" font-family="Helvetica,sans-Serif" font-size="10.00" fill="#000000">ITStracking/Cluster.h</text>
</a>
</g>
</g>
<!-- Node31&#45;&gt;Node32 -->
<g id="edge70" class="edge">
<title>Node31&#45;&gt;Node32</title>
<path fill="none" stroke="#191970" d="M2987.2559,-385.9005C2986.9648,-376.149 2986.5054,-360.7597 2986.1356,-348.3695"/>
<polygon fill="#191970" stroke="#191970" points="2989.6254,-347.9727 2985.8285,-338.0817 2982.6285,-348.1817 2989.6254,-347.9727"/>
</g>
<!-- Node32&#45;&gt;Node2 -->
<g id="edge71" class="edge">
<title>Node32&#45;&gt;Node2</title>
<path fill="none" stroke="#191970" d="M2985.4746,-318.6329C2985.798,-284.6383 2991.5944,-171.2285 3052.5425,-112 3082.4052,-82.9797 3130.8064,-72.2676 3162.4068,-68.3135"/>
<polygon fill="#191970" stroke="#191970" points="3162.8694,-71.7839 3172.4284,-67.2149 3162.1065,-64.8255 3162.8694,-71.7839"/>
</g>
<!-- Node32&#45;&gt;Node16 -->
<g id="edge72" class="edge">
<title>Node32&#45;&gt;Node16</title>
<path fill="none" stroke="#191970" d="M2988.5578,-318.9125C2997.8061,-291.32 3028.6518,-211.611 3085.5425,-179 3089.7691,-176.5772 3656.6907,-144.0271 3868.1866,-131.96"/>
<polygon fill="#191970" stroke="#191970" points="3868.5033,-135.4477 3878.2877,-131.3838 3868.1046,-128.459 3868.5033,-135.4477"/>
</g>
<!-- Node32&#45;&gt;Node21 -->
<g id="edge73" class="edge">
<title>Node32&#45;&gt;Node21</title>
<path fill="none" stroke="#191970" d="M2972.9342,-318.9005C2958.6886,-308.0544 2935.2826,-290.2339 2918.3247,-277.3229"/>
<polygon fill="#191970" stroke="#191970" points="2920.204,-274.3547 2910.1273,-271.0817 2915.9635,-279.9241 2920.204,-274.3547"/>
</g>
<!-- Node32&#45;&gt;Node33 -->
<g id="edge74" class="edge">
<title>Node32&#45;&gt;Node33</title>
<path fill="none" stroke="#191970" d="M3044.3317,-323.8742C3138.1048,-316.1771 3327.2175,-299.3505 3486.5425,-277 3495.2631,-275.7766 3504.4469,-274.3227 3513.4476,-272.803"/>
<polygon fill="#191970" stroke="#191970" points="3514.2386,-276.2183 3523.4975,-271.0681 3513.0478,-269.3203 3514.2386,-276.2183"/>
</g>
<!-- Node33&#45;&gt;Node2 -->
<g id="edge75" class="edge">
<title>Node33&#45;&gt;Node2</title>
<path fill="none" stroke="#191970" d="M3569.0423,-251.7896C3554.8349,-221.5535 3510.2963,-130.0338 3483.5425,-112 3441.6994,-83.7951 3291.1333,-71.7034 3225.0322,-67.6712"/>
<polygon fill="#191970" stroke="#191970" points="3224.9992,-64.1633 3214.8113,-67.0713 3224.589,-71.1513 3224.9992,-64.1633"/>
</g>
<!-- Node33&#45;&gt;Node9 -->
<g id="edge76" class="edge">
<title>Node33&#45;&gt;Node9</title>
<path fill="none" stroke="#191970" d="M3522.0724,-251.9995C3510.404,-249.9378 3498.0581,-247.8287 3486.5425,-246 3362.4886,-226.2995 3214.3142,-206.8535 3149.9934,-198.6116"/>
<polygon fill="#191970" stroke="#191970" points="3150.4124,-195.1368 3140.0495,-197.3412 3149.5253,-202.0804 3150.4124,-195.1368"/>
</g>
<!-- Node33&#45;&gt;Node14 -->
<g id="edge77" class="edge">
<title>Node33&#45;&gt;Node14</title>
<path fill="none" stroke="#191970" d="M3576.5942,-251.5323C3581.62,-235.6976 3592.4025,-204.0275 3605.5425,-179 3611.6355,-167.3947 3619.8083,-155.2298 3626.7239,-145.6388"/>
<polygon fill="#191970" stroke="#191970" points="3629.7323,-147.4569 3632.8602,-137.3342 3624.1025,-143.2969 3629.7323,-147.4569"/>
</g>
<!-- Node33&#45;&gt;Node15 -->
<g id="edge78" class="edge">
<title>Node33&#45;&gt;Node15</title>
<path fill="none" stroke="#191970" d="M3588.873,-251.9005C3606.5916,-240.8057 3635.9653,-222.4128 3656.6793,-209.4424"/>
<polygon fill="#191970" stroke="#191970" points="3658.6224,-212.3553 3665.2404,-204.0817 3654.9074,-206.4224 3658.6224,-212.3553"/>
</g>
<!-- Node33&#45;&gt;Node16 -->
<g id="edge79" class="edge">
<title>Node33&#45;&gt;Node16</title>
<path fill="none" stroke="#191970" d="M3613.0655,-251.9232C3650.2522,-242.5363 3707.2778,-227.1678 3755.5425,-210 3814.2742,-189.109 3880.621,-158.8921 3917.6247,-141.417"/>
<polygon fill="#191970" stroke="#191970" points="3919.2832,-144.5041 3926.8155,-137.0533 3916.2808,-138.1807 3919.2832,-144.5041"/>
</g>
<!-- Node33&#45;&gt;Node17 -->
<g id="edge81" class="edge">
<title>Node33&#45;&gt;Node17</title>
<path fill="none" stroke="#191970" d="M3571.8776,-251.8018C3567.323,-227.0681 3553.0519,-160.191 3524.5425,-112 3518.1309,-101.1622 3508.7835,-90.7644 3500.4403,-82.6048"/>
<polygon fill="#191970" stroke="#191970" points="3502.5701,-79.8043 3492.8775,-75.5262 3497.7867,-84.915 3502.5701,-79.8043"/>
</g>
<!-- Node33&#45;&gt;Node25 -->
<g id="edge80" class="edge">
<title>Node33&#45;&gt;Node25</title>
<path fill="none" stroke="#191970" d="M3534.3698,-251.9432C3464.2144,-235.1177 3312.3224,-200.0038 3182.5425,-179 3046.2066,-156.9352 2885.3223,-141.0622 2796.3413,-133.1648"/>
<polygon fill="#191970" stroke="#191970" points="2796.3847,-129.6552 2786.1162,-132.2644 2795.7706,-136.6282 2796.3847,-129.6552"/>
</g>
<!-- Node34&#45;&gt;Node2 -->
<g id="edge100" class="edge">
<title>Node34&#45;&gt;Node2</title>
<path fill="none" stroke="#191970" d="M1982.7367,-453.3129C2049.2941,-444.2785 2140.0503,-429.216 2171.5425,-411 2289.6365,-342.6908 2263.9542,-261.5889 2372.5425,-179 2386.3485,-168.4996 2496.7604,-116.3848 2513.5425,-112 2638.7134,-79.2951 3046.2029,-68.8991 3162.3716,-66.5628"/>
<polygon fill="#191970" stroke="#191970" points="3162.4526,-70.062 3172.3823,-66.3671 3162.3157,-63.0633 3162.4526,-70.062"/>
</g>
<!-- Node34&#45;&gt;Node4 -->
<g id="edge102" class="edge">
<title>Node34&#45;&gt;Node4</title>
<path fill="none" stroke="#191970" d="M1940.0421,-447.4187C1956.9716,-438.5885 1976.9597,-426.1807 1991.5425,-411 2038.6734,-361.9366 2034.3951,-337.4846 2065.5425,-277 2102.7661,-204.7161 2077.9724,-158.6797 2144.5425,-112 2179.5947,-87.421 2473.5507,-72.0528 2574.5927,-67.4563"/>
<polygon fill="#191970" stroke="#191970" points="2575.0143,-70.941 2584.8476,-66.9968 2574.7009,-63.948 2575.0143,-70.941"/>
</g>
<!-- Node34&#45;&gt;Node7 -->
<g id="edge104" class="edge">
<title>Node34&#45;&gt;Node7</title>
<path fill="none" stroke="#191970" d="M1982.6663,-459.0778C2074.583,-453.689 2222.5824,-440.6095 2268.5425,-411 2343.5007,-362.7085 2385.5773,-257.6871 2400.3895,-214.0856"/>
<polygon fill="#191970" stroke="#191970" points="2403.7768,-214.9886 2403.5713,-204.3958 2397.1261,-212.8047 2403.7768,-214.9886"/>
</g>
<!-- Node34&#45;&gt;Node24 -->
<g id="edge154" class="edge">
<title>Node34&#45;&gt;Node24</title>
<path fill="none" stroke="#191970" d="M1982.743,-451.3727C2034.313,-442.4589 2096.5506,-428.555 2116.5425,-411 2176.7609,-358.1216 2194.1078,-256.8319 2198.854,-214.1908"/>
<polygon fill="#191970" stroke="#191970" points="2202.3582,-214.3211 2199.8651,-204.0238 2195.3926,-213.6283 2202.3582,-214.3211"/>
</g>
<!-- Node34&#45;&gt;Node26 -->
<g id="edge99" class="edge">
<title>Node34&#45;&gt;Node26</title>
<path fill="none" stroke="#191970" d="M1830.3888,-461.5143C1566.6298,-457.8434 693.0584,-443.4723 414.5425,-411 229.0528,-389.3737 2.5425,-515.2461 2.5425,-328.5 2.5425,-328.5 2.5425,-328.5 2.5425,-194.5 2.5425,-156.8735 -7.6274,-135.7671 21.5425,-112 60.9554,-79.8871 1698.2088,-68.0764 1984.1587,-66.2569"/>
<polygon fill="#191970" stroke="#191970" points="1984.5352,-69.7547 1994.5129,-66.1917 1984.491,-62.7548 1984.5352,-69.7547"/>
</g>
<!-- Node34&#45;&gt;Node27 -->
<g id="edge153" class="edge">
<title>Node34&#45;&gt;Node27</title>
<path fill="none" stroke="#191970" d="M1982.602,-452.4012C2041.9374,-443.3696 2118.5116,-428.8238 2144.5425,-411 2170.6378,-393.132 2284.3452,-206.0771 2320.4779,-145.9801"/>
<polygon fill="#191970" stroke="#191970" points="2323.6175,-147.5501 2325.7627,-137.1747 2317.6156,-143.9478 2323.6175,-147.5501"/>
</g>
<!-- Node35 -->
<g id="node36" class="node">
<title>Node35</title>
<g id="a_node36"><a xlink:href="../../d2/d45/GPUCommonRtypes_8h.html" target="_top" xlink:title="GPUCommonRtypes.h">
<polygon fill="none" stroke="#000000" points="1328.0425,-252 1328.0425,-271 1453.0425,-271 1453.0425,-252 1328.0425,-252"/>
<text text-anchor="middle" x="1390.5425" y="-259" font-family="Helvetica,sans-Serif" font-size="10.00" fill="#000000">GPUCommonRtypes.h</text>
</a>
</g>
</g>
<!-- Node34&#45;&gt;Node35 -->
<g id="edge97" class="edge">
<title>Node34&#45;&gt;Node35</title>
<path fill="none" stroke="#191970" d="M1830.3602,-460.5067C1692.8892,-456.1179 1414.8166,-443.3105 1385.5425,-411 1352.9579,-375.0357 1370.6099,-311.9136 1382.5184,-280.4474"/>
<polygon fill="#191970" stroke="#191970" points="1385.8028,-281.6599 1386.2559,-271.0747 1379.3007,-279.067 1385.8028,-281.6599"/>
</g>
<!-- Node37 -->
<g id="node38" class="node">
<title>Node37</title>
<polygon fill="none" stroke="#bfbfbf" points="1546.5425,-386 1546.5425,-405 1590.5425,-405 1590.5425,-386 1546.5425,-386"/>
<text text-anchor="middle" x="1568.5425" y="-393" font-family="Helvetica,sans-Serif" font-size="10.00" fill="#000000">cfloat</text>
</g>
<!-- Node34&#45;&gt;Node37 -->
<g id="edge101" class="edge">
<title>Node34&#45;&gt;Node37</title>
<path fill="none" stroke="#191970" d="M1830.3201,-454.5861C1768.5646,-446.9681 1679.7687,-433.2631 1604.5425,-411 1602.3688,-410.3567 1600.1513,-409.6184 1597.9381,-408.8207"/>
<polygon fill="#191970" stroke="#191970" points="1598.9989,-405.4764 1588.4125,-405.0533 1596.4245,-411.9859 1598.9989,-405.4764"/>
</g>
<!-- Node38 -->
<g id="node39" class="node">
<title>Node38</title>
<polygon fill="none" stroke="#bfbfbf" points="871.5425,-118 871.5425,-137 921.5425,-137 921.5425,-118 871.5425,-118"/>
<text text-anchor="middle" x="896.5425" y="-125" font-family="Helvetica,sans-Serif" font-size="10.00" fill="#000000">cstring</text>
</g>
<!-- Node34&#45;&gt;Node38 -->
<g id="edge103" class="edge">
<title>Node34&#45;&gt;Node38</title>
<path fill="none" stroke="#191970" d="M1830.5168,-460.5435C1500.3668,-451.5567 207.5425,-411.0925 207.5425,-328.5 207.5425,-328.5 207.5425,-328.5 207.5425,-261.5 207.5425,-219.3006 218.9353,-201.6477 254.5425,-179 305.8815,-146.3461 734.0065,-131.9902 861.1041,-128.4223"/>
<polygon fill="#191970" stroke="#191970" points="861.5334,-131.9119 871.4332,-128.1376 861.3405,-124.9145 861.5334,-131.9119"/>
</g>
<!-- Node39 -->
<g id="node40" class="node">
<title>Node39</title>
<g id="a_node40"><a xlink:href="../../d4/de2/BaseCluster_8h.html" target="_top" xlink:title="ReconstructionDataFormats\l/BaseCluster.h">
<polygon fill="none" stroke="#000000" points="1830.5425,-380.5 1830.5425,-410.5 1982.5425,-410.5 1982.5425,-380.5 1830.5425,-380.5"/>
<text text-anchor="start" x="1838.5425" y="-398.5" font-family="Helvetica,sans-Serif" font-size="10.00" fill="#000000">ReconstructionDataFormats</text>
<text text-anchor="middle" x="1906.5425" y="-387.5" font-family="Helvetica,sans-Serif" font-size="10.00" fill="#000000">/BaseCluster.h</text>
</a>
</g>
</g>
<!-- Node34&#45;&gt;Node39 -->
<g id="edge105" class="edge">
<title>Node34&#45;&gt;Node39</title>
<path fill="none" stroke="#191970" d="M1906.5425,-447.2967C1906.5425,-439.5013 1906.5425,-429.7991 1906.5425,-420.9064"/>
<polygon fill="#191970" stroke="#191970" points="1910.0426,-420.6431 1906.5425,-410.6432 1903.0426,-420.6432 1910.0426,-420.6431"/>
</g>
<!-- Node49 -->
<g id="node50" class="node">
<title>Node49</title>
<polygon fill="none" stroke="#bfbfbf" points="1377.5425,-118 1377.5425,-137 1421.5425,-137 1421.5425,-118 1377.5425,-118"/>
<text text-anchor="middle" x="1399.5425" y="-125" font-family="Helvetica,sans-Serif" font-size="10.00" fill="#000000">string</text>
</g>
<!-- Node34&#45;&gt;Node49 -->
<g id="edge152" class="edge">
<title>Node34&#45;&gt;Node49</title>
<path fill="none" stroke="#191970" d="M1858.632,-447.4505C1798.6272,-429.108 1692.4062,-398.3023 1599.5425,-380 1306.1245,-322.1711 462.2042,-434.4284 264.5425,-210 255.4362,-199.6606 255.0235,-188.9607 264.5425,-179 274.3394,-168.7485 1183.0283,-135.3354 1367.2034,-128.6649"/>
<polygon fill="#191970" stroke="#191970" points="1367.4676,-132.1577 1377.3345,-128.2985 1367.2145,-125.1623 1367.4676,-132.1577"/>
</g>
<!-- Node65 -->
<g id="node66" class="node">
<title>Node65</title>
<g id="a_node66"><a xlink:href="../../d8/d77/Primitive2D_8h.html" target="_top" xlink:title="Declarations of 2D primitives: straight line (XY interval) and circle. ">
<polygon fill="none" stroke="#000000" points="1395.0425,-386 1395.0425,-405 1528.0425,-405 1528.0425,-386 1395.0425,-386"/>
<text text-anchor="middle" x="1461.5425" y="-393" font-family="Helvetica,sans-Serif" font-size="10.00" fill="#000000">MathUtils/Primitive2D.h</text>
</a>
</g>
</g>
<!-- Node34&#45;&gt;Node65 -->
<g id="edge155" class="edge">
<title>Node34&#45;&gt;Node65</title>
<path fill="none" stroke="#191970" d="M1830.3563,-453.2798C1755.5919,-443.8992 1638.4296,-428.3106 1537.5425,-411 1530.5165,-409.7945 1523.1465,-408.4247 1515.8752,-407.0102"/>
<polygon fill="#191970" stroke="#191970" points="1516.5522,-403.5764 1506.0624,-405.0648 1515.1909,-410.4427 1516.5522,-403.5764"/>
</g>
<!-- Node36 -->
<g id="node37" class="node">
<title>Node36</title>
<polygon fill="none" stroke="#bfbfbf" points="1320.0425,-185 1320.0425,-204 1379.0425,-204 1379.0425,-185 1320.0425,-185"/>
<text text-anchor="middle" x="1349.5425" y="-192" font-family="Helvetica,sans-Serif" font-size="10.00" fill="#000000">Rtypes.h</text>
</g>
<!-- Node35&#45;&gt;Node36 -->
<g id="edge98" class="edge">
<title>Node35&#45;&gt;Node36</title>
<path fill="none" stroke="#191970" d="M1384.6682,-251.9005C1378.4572,-241.751 1368.509,-225.4941 1360.7825,-212.8679"/>
<polygon fill="#191970" stroke="#191970" points="1363.611,-210.7844 1355.4059,-204.0817 1357.6402,-214.4382 1363.611,-210.7844"/>
</g>
<!-- Node39&#45;&gt;Node6 -->
<g id="edge108" class="edge">
<title>Node39&#45;&gt;Node6</title>
<path fill="none" stroke="#191970" d="M1982.7477,-387.8795C2126.1407,-373.5402 2431.2796,-343.0263 2538.4044,-332.3138"/>
<polygon fill="#191970" stroke="#191970" points="2538.832,-335.7886 2548.4341,-331.3108 2538.1354,-328.8233 2538.832,-335.7886"/>
</g>
<!-- Node39&#45;&gt;Node7 -->
<g id="edge110" class="edge">
<title>Node39&#45;&gt;Node7</title>
<path fill="none" stroke="#191970" d="M1944.1237,-380.3923C2038.4716,-342.4645 2284.1433,-243.7044 2373.4637,-207.7977"/>
<polygon fill="#191970" stroke="#191970" points="2374.8606,-211.0084 2382.8335,-204.031 2372.2496,-204.5135 2374.8606,-211.0084"/>
</g>
<!-- Node40 -->
<g id="node41" class="node">
<title>Node40</title>
<polygon fill="none" stroke="#bfbfbf" points="1940.0425,-319 1940.0425,-338 2003.0425,-338 2003.0425,-319 1940.0425,-319"/>
<text text-anchor="middle" x="1971.5425" y="-326" font-family="Helvetica,sans-Serif" font-size="10.00" fill="#000000">TObject.h</text>
</g>
<!-- Node39&#45;&gt;Node40 -->
<g id="edge106" class="edge">
<title>Node39&#45;&gt;Node40</title>
<path fill="none" stroke="#191970" d="M1921.292,-380.2967C1931.4193,-369.8578 1944.8637,-355.9997 1955.2977,-345.2446"/>
<polygon fill="#191970" stroke="#191970" points="1957.8216,-347.6695 1962.2727,-338.055 1952.7975,-342.7953 1957.8216,-347.6695"/>
</g>
<!-- Node41 -->
<g id="node42" class="node">
<title>Node41</title>
<polygon fill="none" stroke="#bfbfbf" points="1397.5425,-185 1397.5425,-204 1441.5425,-204 1441.5425,-185 1397.5425,-185"/>
<text text-anchor="middle" x="1419.5425" y="-192" font-family="Helvetica,sans-Serif" font-size="10.00" fill="#000000">bitset</text>
</g>
<!-- Node39&#45;&gt;Node41 -->
<g id="edge107" class="edge">
<title>Node39&#45;&gt;Node41</title>
<path fill="none" stroke="#191970" d="M1830.2854,-382.2629C1788.7507,-373.7907 1736.9229,-361.1415 1692.5425,-344 1594.4518,-306.1135 1487.7453,-239.4433 1442.1981,-209.6391"/>
<polygon fill="#191970" stroke="#191970" points="1443.9542,-206.6047 1433.6781,-204.0255 1440.1029,-212.45 1443.9542,-206.6047"/>
</g>
<!-- Node42 -->
<g id="node43" class="node">
<title>Node42</title>
<polygon fill="none" stroke="#bfbfbf" points="1891.0425,-319 1891.0425,-338 1922.0425,-338 1922.0425,-319 1891.0425,-319"/>
<text text-anchor="middle" x="1906.5425" y="-326" font-family="Helvetica,sans-Serif" font-size="10.00" fill="#000000">ios</text>
</g>
<!-- Node39&#45;&gt;Node42 -->
<g id="edge109" class="edge">
<title>Node39&#45;&gt;Node42</title>
<path fill="none" stroke="#191970" d="M1906.5425,-380.2967C1906.5425,-370.7699 1906.5425,-358.3954 1906.5425,-348.1306"/>
<polygon fill="#191970" stroke="#191970" points="1910.0426,-348.0549 1906.5425,-338.055 1903.0426,-348.055 1910.0426,-348.0549"/>
</g>
<!-- Node43 -->
<g id="node44" class="node">
<title>Node43</title>
<g id="a_node44"><a xlink:href="../../d4/d20/DetMatrixCache_8h.html" target="_top" xlink:title="DetectorsCommonDataFormats\l/DetMatrixCache.h">
<polygon fill="none" stroke="#000000" points="1702.0425,-313.5 1702.0425,-343.5 1873.0425,-343.5 1873.0425,-313.5 1702.0425,-313.5"/>
<text text-anchor="start" x="1710.0425" y="-331.5" font-family="Helvetica,sans-Serif" font-size="10.00" fill="#000000">DetectorsCommonDataFormats</text>
<text text-anchor="middle" x="1787.5425" y="-320.5" font-family="Helvetica,sans-Serif" font-size="10.00" fill="#000000">/DetMatrixCache.h</text>
</a>
</g>
</g>
<!-- Node39&#45;&gt;Node43 -->
<g id="edge111" class="edge">
<title>Node39&#45;&gt;Node43</title>
<path fill="none" stroke="#191970" d="M1879.8365,-380.4639C1863.264,-371.1332 1841.7554,-359.0232 1823.6713,-348.8415"/>
<polygon fill="#191970" stroke="#191970" points="1825.0019,-345.574 1814.571,-343.7177 1821.5676,-351.6737 1825.0019,-345.574"/>
</g>
<!-- Node55 -->
<g id="node56" class="node">
<title>Node55</title>
<g id="a_node56"><a xlink:href="../../dd/d76/Cartesian3D_8h.html" target="_top" xlink:title="MathUtils/Cartesian3D.h">
<polygon fill="none" stroke="#000000" points="1047.0425,-252 1047.0425,-271 1182.0425,-271 1182.0425,-252 1047.0425,-252"/>
<text text-anchor="middle" x="1114.5425" y="-259" font-family="Helvetica,sans-Serif" font-size="10.00" fill="#000000">MathUtils/Cartesian3D.h</text>
</a>
</g>
</g>
<!-- Node39&#45;&gt;Node55 -->
<g id="edge151" class="edge">
<title>Node39&#45;&gt;Node55</title>
<path fill="none" stroke="#191970" d="M1830.2661,-385.539C1757.6828,-375.8212 1645.4723,-360.1763 1548.5425,-344 1412.5591,-321.3062 1253.5658,-289.807 1170.9193,-273.0566"/>
<polygon fill="#191970" stroke="#191970" points="1171.4802,-269.5991 1160.9837,-271.0393 1170.0873,-276.4592 1171.4802,-269.5991"/>
</g>
<!-- Node43&#45;&gt;Node2 -->
<g id="edge116" class="edge">
<title>Node43&#45;&gt;Node2</title>
<path fill="none" stroke="#191970" d="M1804.8191,-313.2392C1823.6386,-296.6385 1854.6538,-269.3467 1881.5425,-246 1916.05,-216.038 1919.4951,-201.016 1959.5425,-179 2049.1113,-129.7595 2078.8125,-129.3405 2179.5425,-112 2375.2321,-78.3123 3012.187,-68.2883 3161.8531,-66.3714"/>
<polygon fill="#191970" stroke="#191970" points="3162.2038,-69.8674 3172.1592,-66.2425 3162.1162,-62.8679 3162.2038,-69.8674"/>
</g>
<!-- Node43&#45;&gt;Node14 -->
<g id="edge117" class="edge">
<title>Node43&#45;&gt;Node14</title>
<path fill="none" stroke="#191970" d="M1818.412,-313.3698C1837.1601,-303.7494 1861.3002,-290.5822 1881.5425,-277 1895.909,-267.3603 1986.3055,-184.9736 2002.5425,-179 2157.0238,-122.1664 3319.248,-153.093 3483.5425,-143 3526.1565,-140.3821 3575.0846,-135.2055 3606.8378,-131.5568"/>
<polygon fill="#191970" stroke="#191970" points="3607.3857,-135.0167 3616.9139,-130.3839 3606.5762,-128.0637 3607.3857,-135.0167"/>
</g>
<!-- Node43&#45;&gt;Node35 -->
<g id="edge115" class="edge">
<title>Node43&#45;&gt;Node35</title>
<path fill="none" stroke="#191970" d="M1701.8881,-314.0445C1628.4968,-301.6585 1524.2871,-284.0715 1457.0423,-272.7229"/>
<polygon fill="#191970" stroke="#191970" points="1457.4307,-269.239 1446.9877,-271.026 1456.2658,-276.1414 1457.4307,-269.239"/>
</g>
<!-- Node44 -->
<g id="node45" class="node">
<title>Node44</title>
<g id="a_node45"><a xlink:href="../../df/d5b/GPUCommonLogger_8h.html" target="_top" xlink:title="GPUCommonLogger.h">
<polygon fill="none" stroke="#000000" points="1934.0425,-252 1934.0425,-271 2057.0425,-271 2057.0425,-252 1934.0425,-252"/>
<text text-anchor="middle" x="1995.5425" y="-259" font-family="Helvetica,sans-Serif" font-size="10.00" fill="#000000">GPUCommonLogger.h</text>
</a>
</g>
</g>
<!-- Node43&#45;&gt;Node44 -->
<g id="edge112" class="edge">
<title>Node43&#45;&gt;Node44</title>
<path fill="none" stroke="#191970" d="M1834.2217,-313.4639C1870.9597,-301.63 1921.5758,-285.3258 1956.2574,-274.1543"/>
<polygon fill="#191970" stroke="#191970" points="1957.5883,-277.4028 1966.0335,-271.0053 1955.442,-270.7399 1957.5883,-277.4028"/>
</g>
<!-- Node46 -->
<g id="node47" class="node">
<title>Node46</title>
<g id="a_node47"><a xlink:href="../../d6/d31/DetID_8h.html" target="_top" xlink:title="DetectorsCommonDataFormats\l/DetID.h">
<polygon fill="none" stroke="#000000" points="1632.0425,-246.5 1632.0425,-276.5 1803.0425,-276.5 1803.0425,-246.5 1632.0425,-246.5"/>
<text text-anchor="start" x="1640.0425" y="-264.5" font-family="Helvetica,sans-Serif" font-size="10.00" fill="#000000">DetectorsCommonDataFormats</text>
<text text-anchor="middle" x="1717.5425" y="-253.5" font-family="Helvetica,sans-Serif" font-size="10.00" fill="#000000">/DetID.h</text>
</a>
</g>
</g>
<!-- Node43&#45;&gt;Node46 -->
<g id="edge118" class="edge">
<title>Node43&#45;&gt;Node46</title>
<path fill="none" stroke="#191970" d="M1771.6584,-313.2967C1762.5294,-304.559 1750.8977,-293.4257 1740.7593,-283.7218"/>
<polygon fill="#191970" stroke="#191970" points="1743.008,-281.0293 1733.3637,-276.6432 1738.1678,-286.0862 1743.008,-281.0293"/>
</g>
<!-- Node43&#45;&gt;Node55 -->
<g id="edge139" class="edge">
<title>Node43&#45;&gt;Node55</title>
<path fill="none" stroke="#191970" d="M1701.965,-319.9804C1570.1186,-306.8545 1319.2872,-281.8832 1192.3196,-269.243"/>
<polygon fill="#191970" stroke="#191970" points="1192.5792,-265.7517 1182.2816,-268.2437 1191.8856,-272.7172 1192.5792,-265.7517"/>
</g>
<!-- Node44&#45;&gt;Node23 -->
<g id="edge113" class="edge">
<title>Node44&#45;&gt;Node23</title>
<path fill="none" stroke="#191970" d="M2057.2213,-255.6714C2199.1543,-242.2588 2545.7763,-209.5033 2664.148,-198.3173"/>
<polygon fill="#191970" stroke="#191970" points="2664.6038,-201.7899 2674.2301,-197.3645 2663.9451,-194.8209 2664.6038,-201.7899"/>
</g>
<!-- Node45 -->
<g id="node46" class="node">
<title>Node45</title>
<polygon fill="none" stroke="#bfbfbf" points="2011.5425,-185 2011.5425,-204 2057.5425,-204 2057.5425,-185 2011.5425,-185"/>
<text text-anchor="middle" x="2034.5425" y="-192" font-family="Helvetica,sans-Serif" font-size="10.00" fill="#000000">cstdio</text>
</g>
<!-- Node44&#45;&gt;Node45 -->
<g id="edge114" class="edge">
<title>Node44&#45;&gt;Node45</title>
<path fill="none" stroke="#191970" d="M2001.1302,-251.9005C2007.0382,-241.751 2016.5011,-225.4941 2023.8507,-212.8679"/>
<polygon fill="#191970" stroke="#191970" points="2026.9592,-214.4849 2028.9651,-204.0817 2020.9095,-210.9634 2026.9592,-214.4849"/>
</g>
<!-- Node46&#45;&gt;Node2 -->
<g id="edge120" class="edge">
<title>Node46&#45;&gt;Node2</title>
<path fill="none" stroke="#191970" d="M1786.4338,-246.3954C1808.8475,-238.6349 1832.3514,-227.0753 1849.5425,-210 1882.8019,-176.9646 1850.2172,-138.9946 1888.5425,-112 1915.4301,-93.0616 2966.376,-70.6499 3162.2762,-66.6322"/>
<polygon fill="#191970" stroke="#191970" points="3162.531,-70.1278 3172.4574,-66.4242 3162.388,-63.1292 3162.531,-70.1278"/>
</g>
<!-- Node46&#45;&gt;Node22 -->
<g id="edge122" class="edge">
<title>Node46&#45;&gt;Node22</title>
<path fill="none" stroke="#191970" d="M1803.1346,-249.0076C1831.2344,-241.4654 1861.0041,-229.3756 1883.5425,-210 1902.7137,-193.5189 1913.4934,-165.7321 1918.9146,-147.0121"/>
<polygon fill="#191970" stroke="#191970" points="1922.3386,-147.7543 1921.5103,-137.1919 1915.571,-145.9654 1922.3386,-147.7543"/>
</g>
<!-- Node46&#45;&gt;Node24 -->
<g id="edge127" class="edge">
<title>Node46&#45;&gt;Node24</title>
<path fill="none" stroke="#191970" d="M1803.0588,-249.6375C1900.3064,-236.1477 2056.5354,-214.4761 2141.2673,-202.7224"/>
<polygon fill="#191970" stroke="#191970" points="2141.813,-206.1803 2151.2372,-201.3394 2140.8511,-199.2467 2141.813,-206.1803"/>
</g>
<!-- Node46&#45;&gt;Node36 -->
<g id="edge119" class="edge">
<title>Node46&#45;&gt;Node36</title>
<path fill="none" stroke="#191970" d="M1631.9217,-253.3931C1564.8693,-245.7806 1469.6854,-232.1763 1388.5425,-210 1385.931,-209.2863 1383.2561,-208.4532 1380.5911,-207.5505"/>
<polygon fill="#191970" stroke="#191970" points="1381.7079,-204.2321 1371.1144,-204.065 1379.2915,-210.8018 1381.7079,-204.2321"/>
</g>
<!-- Node46&#45;&gt;Node41 -->
<g id="edge121" class="edge">
<title>Node46&#45;&gt;Node41</title>
<path fill="none" stroke="#191970" d="M1631.7464,-249.3588C1580.0283,-240.8799 1513.2192,-227.8623 1455.5425,-210 1453.4299,-209.3458 1451.2736,-208.6078 1449.1185,-207.818"/>
<polygon fill="#191970" stroke="#191970" points="1450.4049,-204.563 1439.8193,-204.1215 1447.8191,-211.0679 1450.4049,-204.563"/>
</g>
<!-- Node47 -->
<g id="node48" class="node">
<title>Node47</title>
<polygon fill="none" stroke="#bfbfbf" points="1439.5425,-118 1439.5425,-137 1489.5425,-137 1489.5425,-118 1439.5425,-118"/>
<text text-anchor="middle" x="1464.5425" y="-125" font-family="Helvetica,sans-Serif" font-size="10.00" fill="#000000">cstdint</text>
</g>
<!-- Node46&#45;&gt;Node47 -->
<g id="edge123" class="edge">
<title>Node46&#45;&gt;Node47</title>
<path fill="none" stroke="#191970" d="M1631.6044,-250.8097C1596.7759,-243.4282 1557.5473,-230.9779 1526.5425,-210 1502.5175,-193.7447 1484.0827,-165.0527 1473.7765,-146.1563"/>
<polygon fill="#191970" stroke="#191970" points="1476.7517,-144.2922 1469.0222,-137.0462 1470.546,-147.5309 1476.7517,-144.2922"/>
</g>
<!-- Node48 -->
<g id="node49" class="node">
<title>Node48</title>
<polygon fill="none" stroke="#bfbfbf" points="1681.0425,-185 1681.0425,-204 1754.0425,-204 1754.0425,-185 1681.0425,-185"/>
<text text-anchor="middle" x="1717.5425" y="-192" font-family="Helvetica,sans-Serif" font-size="10.00" fill="#000000">string_view</text>
</g>
<!-- Node46&#45;&gt;Node48 -->
<g id="edge124" class="edge">
<title>Node46&#45;&gt;Node48</title>
<path fill="none" stroke="#191970" d="M1717.5425,-246.2967C1717.5425,-236.7699 1717.5425,-224.3954 1717.5425,-214.1306"/>
<polygon fill="#191970" stroke="#191970" points="1721.0426,-214.0549 1717.5425,-204.055 1714.0426,-214.055 1721.0426,-214.0549"/>
</g>
<!-- Node46&#45;&gt;Node49 -->
<g id="edge125" class="edge">
<title>Node46&#45;&gt;Node49</title>
<path fill="none" stroke="#191970" d="M1631.791,-252.1519C1588.2788,-244.9083 1535.6552,-232.1895 1492.5425,-210 1475.7073,-201.3352 1438.2642,-165.7953 1416.369,-144.2888"/>
<polygon fill="#191970" stroke="#191970" points="1418.645,-141.6172 1409.0728,-137.076 1413.7238,-146.5954 1418.645,-141.6172"/>
</g>
<!-- Node50 -->
<g id="node51" class="node">
<title>Node50</title>
<polygon fill="none" stroke="#bfbfbf" points="1772.0425,-185 1772.0425,-204 1841.0425,-204 1841.0425,-185 1772.0425,-185"/>
<text text-anchor="middle" x="1806.5425" y="-192" font-family="Helvetica,sans-Serif" font-size="10.00" fill="#000000">type_traits</text>
</g>
<!-- Node46&#45;&gt;Node50 -->
<g id="edge126" class="edge">
<title>Node46&#45;&gt;Node50</title>
<path fill="none" stroke="#191970" d="M1737.7379,-246.2967C1752.0084,-235.5537 1771.0892,-221.1895 1785.5372,-210.3129"/>
<polygon fill="#191970" stroke="#191970" points="1787.9658,-212.8656 1793.85,-204.055 1783.7558,-207.2731 1787.9658,-212.8656"/>
</g>
<!-- Node51 -->
<g id="node52" class="node">
<title>Node51</title>
<g id="a_node52"><a xlink:href="../../dc/dcd/DataHeader_8h.html" target="_top" xlink:title="Headers/DataHeader.h">
<polygon fill="none" stroke="#000000" points="1536.0425,-185 1536.0425,-204 1663.0425,-204 1663.0425,-185 1536.0425,-185"/>
<text text-anchor="middle" x="1599.5425" y="-192" font-family="Helvetica,sans-Serif" font-size="10.00" fill="#000000">Headers/DataHeader.h</text>
</a>
</g>
</g>
<!-- Node46&#45;&gt;Node51 -->
<g id="edge128" class="edge">
<title>Node46&#45;&gt;Node51</title>
<path fill="none" stroke="#191970" d="M1691.061,-246.4639C1671.4404,-235.3234 1644.8424,-220.2212 1625.3775,-209.1691"/>
<polygon fill="#191970" stroke="#191970" points="1626.881,-205.9979 1616.4568,-204.1039 1623.4247,-212.0851 1626.881,-205.9979"/>
</g>
<!-- Node51&#45;&gt;Node8 -->
<g id="edge130" class="edge">
<title>Node51&#45;&gt;Node8</title>
<path fill="none" stroke="#191970" d="M1638.1997,-184.9511C1648.9348,-182.6353 1660.6383,-180.4201 1671.5425,-179 2009.5088,-134.9863 2098.134,-173.9887 2437.5425,-143 2462.4412,-140.7267 2490.2468,-136.9706 2512.1635,-133.7254"/>
<polygon fill="#191970" stroke="#191970" points="2512.7308,-137.1795 2522.0984,-132.2299 2511.6887,-130.2575 2512.7308,-137.1795"/>
</g>
<!-- Node51&#45;&gt;Node13 -->
<g id="edge136" class="edge">
<title>Node51&#45;&gt;Node13</title>
<path fill="none" stroke="#191970" d="M1637.4361,-184.983C1648.3735,-182.6068 1660.372,-180.3526 1671.5425,-179 1761.178,-168.1464 3171.3467,-134.1326 3414.098,-128.3421"/>
<polygon fill="#191970" stroke="#191970" points="3414.5408,-131.8327 3424.4545,-128.0953 3414.3739,-124.8346 3414.5408,-131.8327"/>
</g>
<!-- Node51&#45;&gt;Node22 -->
<g id="edge131" class="edge">
<title>Node51&#45;&gt;Node22</title>
<path fill="none" stroke="#191970" d="M1643.3104,-184.9864C1652.6247,-182.9874 1662.4054,-180.9074 1671.5425,-179 1750.5521,-162.5064 1770.4872,-159.2736 1849.5425,-143 1861.8726,-140.4618 1875.3501,-137.65 1887.3847,-135.1258"/>
<polygon fill="#191970" stroke="#191970" points="1888.4573,-138.4769 1897.5241,-132.9957 1887.0181,-131.6265 1888.4573,-138.4769"/>
</g>
<!-- Node51&#45;&gt;Node26 -->
<g id="edge133" class="edge">
<title>Node51&#45;&gt;Node26</title>
<path fill="none" stroke="#191970" d="M1582.9253,-184.9276C1557.4582,-169.1056 1513.9751,-136.7852 1536.5425,-112 1566.4563,-79.1464 1871.255,-69.3125 1984.488,-66.78"/>
<polygon fill="#191970" stroke="#191970" points="1984.5964,-70.2785 1994.5186,-66.5636 1984.4454,-63.2802 1984.5964,-70.2785"/>
</g>
<!-- Node51&#45;&gt;Node38 -->
<g id="edge132" class="edge">
<title>Node51&#45;&gt;Node38</title>
<path fill="none" stroke="#191970" d="M1535.7517,-187.7089C1509.3819,-184.9419 1478.4955,-181.7531 1450.5425,-179 1254.6757,-159.709 1019.6521,-138.5022 931.8766,-130.6493"/>
<polygon fill="#191970" stroke="#191970" points="931.9474,-127.1418 921.6755,-129.7375 931.3242,-134.114 931.9474,-127.1418"/>
</g>
<!-- Node51&#45;&gt;Node47 -->
<g id="edge129" class="edge">
<title>Node51&#45;&gt;Node47</title>
<path fill="none" stroke="#191970" d="M1580.2003,-184.9005C1557.3437,-173.5569 1519.1154,-154.5844 1492.9091,-141.5783"/>
<polygon fill="#191970" stroke="#191970" points="1494.3623,-138.3922 1483.8488,-137.0817 1491.2503,-144.6624 1494.3623,-138.3922"/>
</g>
<!-- Node51&#45;&gt;Node49 -->
<g id="edge135" class="edge">
<title>Node51&#45;&gt;Node49</title>
<path fill="none" stroke="#191970" d="M1561.6654,-184.9161C1526.9986,-175.6865 1474.5556,-160.5652 1430.5425,-143 1429.1802,-142.4564 1427.7964,-141.8757 1426.4074,-141.2701"/>
<polygon fill="#191970" stroke="#191970" points="1427.882,-138.0959 1417.3402,-137.0369 1424.9207,-144.4387 1427.882,-138.0959"/>
</g>
<!-- Node52 -->
<g id="node53" class="node">
<title>Node52</title>
<polygon fill="none" stroke="#bfbfbf" points="1546.0425,-118 1546.0425,-137 1611.0425,-137 1611.0425,-118 1546.0425,-118"/>
<text text-anchor="middle" x="1578.5425" y="-125" font-family="Helvetica,sans-Serif" font-size="10.00" fill="#000000">stdexcept</text>
</g>
<!-- Node51&#45;&gt;Node52 -->
<g id="edge134" class="edge">
<title>Node51&#45;&gt;Node52</title>
<path fill="none" stroke="#191970" d="M1596.5337,-184.9005C1593.446,-175.0495 1588.5551,-159.4451 1584.6516,-146.9912"/>
<polygon fill="#191970" stroke="#191970" points="1587.8764,-145.5771 1581.5457,-137.0817 1581.1968,-147.6707 1587.8764,-145.5771"/>
</g>
<!-- Node53 -->
<g id="node54" class="node">
<title>Node53</title>
<g id="a_node54"><a xlink:href="../../d7/df8/Types_8h.html" target="_top" xlink:title="MemoryResources/Types.h">
<polygon fill="none" stroke="#000000" points="1629.5425,-118 1629.5425,-137 1775.5425,-137 1775.5425,-118 1629.5425,-118"/>
<text text-anchor="middle" x="1702.5425" y="-125" font-family="Helvetica,sans-Serif" font-size="10.00" fill="#000000">MemoryResources/Types.h</text>
</a>
</g>
</g>
<!-- Node51&#45;&gt;Node53 -->
<g id="edge137" class="edge">
<title>Node51&#45;&gt;Node53</title>
<path fill="none" stroke="#191970" d="M1614.2999,-184.9005C1631.2796,-173.8554 1659.3783,-155.5776 1679.3026,-142.6172"/>
<polygon fill="#191970" stroke="#191970" points="1681.3383,-145.4684 1687.8124,-137.0817 1677.5214,-139.6005 1681.3383,-145.4684"/>
</g>
<!-- Node54 -->
<g id="node55" class="node">
<title>Node54</title>
<polygon fill="none" stroke="#bfbfbf" points="1794.0425,-118 1794.0425,-137 1841.0425,-137 1841.0425,-118 1794.0425,-118"/>
<text text-anchor="middle" x="1817.5425" y="-125" font-family="Helvetica,sans-Serif" font-size="10.00" fill="#000000">cerrno</text>
</g>
<!-- Node51&#45;&gt;Node54 -->
<g id="edge138" class="edge">
<title>Node51&#45;&gt;Node54</title>
<path fill="none" stroke="#191970" d="M1641.3215,-184.9942C1679.237,-175.8697 1736.4068,-160.861 1784.5425,-143 1786.1336,-142.4096 1787.7534,-141.7728 1789.3785,-141.1059"/>
<polygon fill="#191970" stroke="#191970" points="1790.8285,-144.2919 1798.5797,-137.069 1788.0161,-137.8817 1790.8285,-144.2919"/>
</g>
<!-- Node55&#45;&gt;Node7 -->
<g id="edge147" class="edge">
<title>Node55&#45;&gt;Node7</title>
<path fill="none" stroke="#191970" d="M1182.4999,-255.6945C1222.1524,-252.4676 1273.1524,-248.5926 1318.5425,-246 1735.9462,-222.1584 1841.5211,-239.7901 2258.5425,-210 2297.4994,-207.2171 2342.0573,-202.3157 2372.0158,-198.7684"/>
<polygon fill="#191970" stroke="#191970" points="2372.4578,-202.2405 2381.9705,-197.5758 2371.6251,-195.2902 2372.4578,-202.2405"/>
</g>
<!-- Node55&#45;&gt;Node36 -->
<g id="edge145" class="edge">
<title>Node55&#45;&gt;Node36</title>
<path fill="none" stroke="#191970" d="M1157.0314,-251.911C1197.0259,-242.5153 1258.4026,-227.141 1310.5425,-210 1312.6795,-209.2975 1314.8683,-208.5389 1317.0654,-207.7481"/>
<polygon fill="#191970" stroke="#191970" points="1318.4928,-210.9505 1326.6153,-204.148 1316.0235,-204.4005 1318.4928,-210.9505"/>
</g>
<!-- Node56 -->
<g id="node57" class="node">
<title>Node56</title>
<polygon fill="none" stroke="#bfbfbf" points="273.5425,-179.5 273.5425,-209.5 437.5425,-209.5 437.5425,-179.5 273.5425,-179.5"/>
<text text-anchor="start" x="281.5425" y="-197.5" font-family="Helvetica,sans-Serif" font-size="10.00" fill="#000000">Math/GenVector/Displacement</text>
<text text-anchor="middle" x="355.5425" y="-186.5" font-family="Helvetica,sans-Serif" font-size="10.00" fill="#000000">Vector3D.h</text>
</g>
<!-- Node55&#45;&gt;Node56 -->
<g id="edge140" class="edge">
<title>Node55&#45;&gt;Node56</title>
<path fill="none" stroke="#191970" d="M1047.0186,-258.3469C927.9926,-252.3388 672.9155,-237.4501 447.8497,-210.0928"/>
<polygon fill="#191970" stroke="#191970" points="448.1842,-206.6077 437.8325,-208.8645 447.3321,-213.5557 448.1842,-206.6077"/>
</g>
<!-- Node57 -->
<g id="node58" class="node">
<title>Node57</title>
<polygon fill="none" stroke="#bfbfbf" points="456.0425,-185 456.0425,-204 645.0425,-204 645.0425,-185 456.0425,-185"/>
<text text-anchor="middle" x="550.5425" y="-192" font-family="Helvetica,sans-Serif" font-size="10.00" fill="#000000">Math/GenVector/PositionVector3D.h</text>
</g>
<!-- Node55&#45;&gt;Node57 -->
<g id="edge141" class="edge">
<title>Node55&#45;&gt;Node57</title>
<path fill="none" stroke="#191970" d="M1047.0259,-254.7194C957.2776,-245.5281 793.7918,-228.1655 654.5425,-210 643.9403,-208.6169 632.7456,-207.0553 621.7845,-205.4694"/>
<polygon fill="#191970" stroke="#191970" points="622.2087,-201.9943 611.8075,-204.0104 621.1958,-208.9206 622.2087,-201.9943"/>
</g>
<!-- Node58 -->
<g id="node59" class="node">
<title>Node58</title>
<polygon fill="none" stroke="#bfbfbf" points="663.5425,-185 663.5425,-204 823.5425,-204 823.5425,-185 663.5425,-185"/>
<text text-anchor="middle" x="743.5425" y="-192" font-family="Helvetica,sans-Serif" font-size="10.00" fill="#000000">Math/GenVector/Rotation3D.h</text>
</g>
<!-- Node55&#45;&gt;Node58 -->
<g id="edge142" class="edge">
<title>Node55&#45;&gt;Node58</title>
<path fill="none" stroke="#191970" d="M1061.7812,-251.9717C994.5685,-239.8335 878.5314,-218.8781 806.6896,-205.9039"/>
<polygon fill="#191970" stroke="#191970" points="806.8846,-202.3826 796.4217,-204.0496 805.6405,-209.2712 806.8846,-202.3826"/>
</g>
<!-- Node59 -->
<g id="node60" class="node">
<title>Node59</title>
<polygon fill="none" stroke="#bfbfbf" points="841.5425,-185 841.5425,-204 1009.5425,-204 1009.5425,-185 841.5425,-185"/>
<text text-anchor="middle" x="925.5425" y="-192" font-family="Helvetica,sans-Serif" font-size="10.00" fill="#000000">Math/GenVector/Transform3D.h</text>
</g>
<!-- Node55&#45;&gt;Node59 -->
<g id="edge143" class="edge">
<title>Node55&#45;&gt;Node59</title>
<path fill="none" stroke="#191970" d="M1087.4634,-251.9005C1054.6221,-240.2584 999.1129,-220.5805 962.3949,-207.5641"/>
<polygon fill="#191970" stroke="#191970" points="963.1661,-204.1241 952.5713,-204.0817 960.8272,-210.7218 963.1661,-204.1241"/>
</g>
<!-- Node60 -->
<g id="node61" class="node">
<title>Node60</title>
<polygon fill="none" stroke="#bfbfbf" points="1028.0425,-185 1028.0425,-204 1201.0425,-204 1201.0425,-185 1028.0425,-185"/>
<text text-anchor="middle" x="1114.5425" y="-192" font-family="Helvetica,sans-Serif" font-size="10.00" fill="#000000">Math/GenVector/Translation3D.h</text>
</g>
<!-- Node55&#45;&gt;Node60 -->
<g id="edge144" class="edge">
<title>Node55&#45;&gt;Node60</title>
<path fill="none" stroke="#191970" d="M1114.5425,-251.9005C1114.5425,-242.149 1114.5425,-226.7597 1114.5425,-214.3695"/>
<polygon fill="#191970" stroke="#191970" points="1118.0426,-214.0816 1114.5425,-204.0817 1111.0426,-214.0817 1118.0426,-214.0816"/>
</g>
<!-- Node61 -->
<g id="node62" class="node">
<title>Node61</title>
<polygon fill="none" stroke="#bfbfbf" points="1219.5425,-185 1219.5425,-204 1301.5425,-204 1301.5425,-185 1219.5425,-185"/>
<text text-anchor="middle" x="1260.5425" y="-192" font-family="Helvetica,sans-Serif" font-size="10.00" fill="#000000">TGeoMatrix.h</text>
</g>
<!-- Node55&#45;&gt;Node61 -->
<g id="edge146" class="edge">
<title>Node55&#45;&gt;Node61</title>
<path fill="none" stroke="#191970" d="M1135.4607,-251.9005C1160.288,-240.5072 1201.8858,-221.4178 1230.2366,-208.4075"/>
<polygon fill="#191970" stroke="#191970" points="1232.0341,-211.4336 1239.663,-204.0817 1229.1145,-205.0715 1232.0341,-211.4336"/>
</g>
<!-- Node62 -->
<g id="node63" class="node">
<title>Node62</title>
<g id="a_node63"><a xlink:href="../../d2/dd0/Cartesian2D_8h.html" target="_top" xlink:title="MathUtils/Cartesian2D.h">
<polygon fill="none" stroke="#000000" points="44.0425,-185 44.0425,-204 179.0425,-204 179.0425,-185 44.0425,-185"/>
<text text-anchor="middle" x="111.5425" y="-192" font-family="Helvetica,sans-Serif" font-size="10.00" fill="#000000">MathUtils/Cartesian2D.h</text>
</a>
</g>
</g>
<!-- Node55&#45;&gt;Node62 -->
<g id="edge148" class="edge">
<title>Node55&#45;&gt;Node62</title>
<path fill="none" stroke="#191970" d="M1046.9884,-258.3371C903.0232,-251.3921 555.3912,-233.5338 264.5425,-210 240.0932,-208.0217 213.4866,-205.467 189.4202,-203.0044"/>
<polygon fill="#191970" stroke="#191970" points="189.5819,-199.5025 179.2752,-201.9566 188.8627,-206.4655 189.5819,-199.5025"/>
</g>
<!-- Node63 -->
<g id="node64" class="node">
<title>Node63</title>
<polygon fill="none" stroke="#bfbfbf" points="238.5425,-112.5 238.5425,-142.5 402.5425,-142.5 402.5425,-112.5 238.5425,-112.5"/>
<text text-anchor="start" x="246.5425" y="-130.5" font-family="Helvetica,sans-Serif" font-size="10.00" fill="#000000">Math/GenVector/Displacement</text>
<text text-anchor="middle" x="320.5425" y="-119.5" font-family="Helvetica,sans-Serif" font-size="10.00" fill="#000000">Vector2D.h</text>
</g>
<!-- Node62&#45;&gt;Node63 -->
<g id="edge149" class="edge">
<title>Node62&#45;&gt;Node63</title>
<path fill="none" stroke="#191970" d="M141.4871,-184.9005C173.3275,-174.6933 224.4364,-158.3091 263.9158,-145.6531"/>
<polygon fill="#191970" stroke="#191970" points="265.2293,-148.9075 273.6835,-142.5218 263.0924,-142.2416 265.2293,-148.9075"/>
</g>
<!-- Node64 -->
<g id="node65" class="node">
<title>Node64</title>
<polygon fill="none" stroke="#bfbfbf" points="31.0425,-118 31.0425,-137 220.0425,-137 220.0425,-118 31.0425,-118"/>
<text text-anchor="middle" x="125.5425" y="-125" font-family="Helvetica,sans-Serif" font-size="10.00" fill="#000000">Math/GenVector/PositionVector2D.h</text>
</g>
<!-- Node62&#45;&gt;Node64 -->
<g id="edge150" class="edge">
<title>Node62&#45;&gt;Node64</title>
<path fill="none" stroke="#191970" d="M113.5483,-184.9005C115.6067,-175.0495 118.8674,-159.4451 121.4697,-146.9912"/>
<polygon fill="#191970" stroke="#191970" points="124.9209,-147.5862 123.5403,-137.0817 118.0689,-146.1543 124.9209,-147.5862"/>
</g>
<!-- Node65&#45;&gt;Node35 -->
<g id="edge156" class="edge">
<title>Node65&#45;&gt;Node35</title>
<path fill="none" stroke="#191970" d="M1456.4363,-385.8631C1444.7179,-363.7466 1415.7276,-309.0326 1400.4024,-280.109"/>
<polygon fill="#191970" stroke="#191970" points="1403.377,-278.2472 1395.6023,-271.0496 1397.1916,-281.5246 1403.377,-278.2472"/>
</g>
</g>
</svg>
