<?xml version="1.0" encoding="UTF-8" standalone="no"?>
<!DOCTYPE svg PUBLIC "-//W3C//DTD SVG 1.1//EN"
 "http://www.w3.org/Graphics/SVG/1.1/DTD/svg11.dtd">
<!-- Generated by graphviz version 2.40.1 (20161225.0304)
 -->
<!-- Title: /home/travis/build/AliceO2Group/AliceO2/Framework/Core/src/Expressions.cxx Pages: 1 -->
<svg width="2011pt" height="274pt"
 viewBox="0.00 0.00 2010.50 274.00" xmlns="http://www.w3.org/2000/svg" xmlns:xlink="http://www.w3.org/1999/xlink">
<g id="graph0" class="graph" transform="scale(1 1) rotate(0) translate(4 270)">
<title>/home/travis/build/AliceO2Group/AliceO2/Framework/Core/src/Expressions.cxx</title>
<!-- Node0 -->
<g id="node1" class="node">
<title>Node0</title>
<polygon fill="#bfbfbf" stroke="#000000" points="1372,-224.5 1372,-265.5 1570,-265.5 1570,-224.5 1372,-224.5"/>
<text text-anchor="start" x="1380" y="-253.5" font-family="Helvetica,sans-Serif" font-size="10.00" fill="#000000">/home/travis/build</text>
<text text-anchor="start" x="1380" y="-242.5" font-family="Helvetica,sans-Serif" font-size="10.00" fill="#000000">/AliceO2Group/AliceO2</text>
<text text-anchor="middle" x="1471" y="-231.5" font-family="Helvetica,sans-Serif" font-size="10.00" fill="#000000">/Framework/Core/src/Expressions.cxx</text>
</g>
<!-- Node1 -->
<g id="node2" class="node">
<title>Node1</title>
<g id="a_node2"><a xlink:href="../../d1/d83/ExpressionHelpers_8h.html" target="_top" xlink:title="../src/ExpressionHelpers.h">
<polygon fill="none" stroke="#000000" points="1061.5,-168.5 1061.5,-187.5 1204.5,-187.5 1204.5,-168.5 1061.5,-168.5"/>
<text text-anchor="middle" x="1133" y="-175.5" font-family="Helvetica,sans-Serif" font-size="10.00" fill="#000000">../src/ExpressionHelpers.h</text>
</a>
</g>
</g>
<!-- Node0&#45;&gt;Node1 -->
<g id="edge1" class="edge">
<title>Node0&#45;&gt;Node1</title>
<path fill="none" stroke="#191970" d="M1371.8727,-225.3505C1313.192,-213.7185 1240.8702,-199.3826 1191.2736,-189.5513"/>
<polygon fill="#191970" stroke="#191970" points="1191.8481,-186.0971 1181.3584,-187.5858 1190.4869,-192.9635 1191.8481,-186.0971"/>
</g>
<!-- Node14 -->
<g id="node15" class="node">
<title>Node14</title>
<polygon fill="none" stroke="#bfbfbf" points="182.5,-56.5 182.5,-75.5 263.5,-75.5 263.5,-56.5 182.5,-56.5"/>
<text text-anchor="middle" x="223" y="-63.5" font-family="Helvetica,sans-Serif" font-size="10.00" fill="#000000">arrow/table.h</text>
</g>
<!-- Node0&#45;&gt;Node14 -->
<g id="edge30" class="edge">
<title>Node0&#45;&gt;Node14</title>
<path fill="none" stroke="#191970" d="M1371.7364,-231.6655C1287.0257,-220.2377 1161.9822,-203.2548 1053,-188 709.4616,-139.9132 619.8724,-135.3372 273.6799,-76.0436"/>
<polygon fill="#191970" stroke="#191970" points="274.0723,-72.5598 263.6244,-74.3184 272.8885,-79.459 274.0723,-72.5598"/>
</g>
<!-- Node19 -->
<g id="node20" class="node">
<title>Node19</title>
<polygon fill="none" stroke="#bfbfbf" points="1923.5,-56.5 1923.5,-75.5 2002.5,-75.5 2002.5,-56.5 1923.5,-56.5"/>
<text text-anchor="middle" x="1963" y="-63.5" font-family="Helvetica,sans-Serif" font-size="10.00" fill="#000000">fmt/format.h</text>
</g>
<!-- Node0&#45;&gt;Node19 -->
<g id="edge31" class="edge">
<title>Node0&#45;&gt;Node19</title>
<path fill="none" stroke="#191970" d="M1371.9903,-231.0887C1321.7406,-221.7877 1268.1519,-207.623 1253,-188 1247.5675,-180.9644 1247.1639,-174.7046 1253,-168 1348.3744,-58.4318 1750.8405,-99.2855 1913.5596,-75.8506"/>
<polygon fill="#191970" stroke="#191970" points="1914.1259,-79.3046 1923.4599,-74.2921 1913.0373,-72.3898 1914.1259,-79.3046"/>
</g>
<!-- Node25 -->
<g id="node26" class="node">
<title>Node25</title>
<g id="a_node26"><a xlink:href="../../d7/dbe/VariantHelpers_8h.html" target="_top" xlink:title="Framework/VariantHelpers.h">
<polygon fill="none" stroke="#000000" points="174.5,-112.5 174.5,-131.5 329.5,-131.5 329.5,-112.5 174.5,-112.5"/>
<text text-anchor="middle" x="252" y="-119.5" font-family="Helvetica,sans-Serif" font-size="10.00" fill="#000000">Framework/VariantHelpers.h</text>
</a>
</g>
</g>
<!-- Node0&#45;&gt;Node25 -->
<g id="edge26" class="edge">
<title>Node0&#45;&gt;Node25</title>
<path fill="none" stroke="#191970" d="M1371.7438,-240.3879C1221.9583,-232.8499 929.3564,-215.8727 682,-188 551.0545,-173.2448 398.8663,-147.9456 315.2135,-133.3283"/>
<polygon fill="#191970" stroke="#191970" points="315.5647,-129.8366 305.1104,-131.5566 314.3555,-136.7314 315.5647,-129.8366"/>
</g>
<!-- Node26 -->
<g id="node27" class="node">
<title>Node26</title>
<g id="a_node27"><a xlink:href="../../dd/da4/Logger_8h.html" target="_top" xlink:title="Framework/Logger.h">
<polygon fill="none" stroke="#000000" points="1261.5,-168.5 1261.5,-187.5 1376.5,-187.5 1376.5,-168.5 1261.5,-168.5"/>
<text text-anchor="middle" x="1319" y="-175.5" font-family="Helvetica,sans-Serif" font-size="10.00" fill="#000000">Framework/Logger.h</text>
</a>
</g>
</g>
<!-- Node0&#45;&gt;Node26 -->
<g id="edge28" class="edge">
<title>Node0&#45;&gt;Node26</title>
<path fill="none" stroke="#191970" d="M1424.1547,-224.3511C1400.1,-213.748 1371.4524,-201.1204 1350.1375,-191.7251"/>
<polygon fill="#191970" stroke="#191970" points="1351.4653,-188.4855 1340.9031,-187.6546 1348.6418,-194.8908 1351.4653,-188.4855"/>
</g>
<!-- Node27 -->
<g id="node28" class="node">
<title>Node27</title>
<polygon fill="none" stroke="#bfbfbf" points="1395,-168.5 1395,-187.5 1547,-187.5 1547,-168.5 1395,-168.5"/>
<text text-anchor="middle" x="1471" y="-175.5" font-family="Helvetica,sans-Serif" font-size="10.00" fill="#000000">gandiva/tree_expr_builder.h</text>
</g>
<!-- Node0&#45;&gt;Node27 -->
<g id="edge29" class="edge">
<title>Node0&#45;&gt;Node27</title>
<path fill="none" stroke="#191970" d="M1471,-224.168C1471,-215.8226 1471,-206.2471 1471,-197.9879"/>
<polygon fill="#191970" stroke="#191970" points="1474.5001,-197.7804 1471,-187.7805 1467.5001,-197.7805 1474.5001,-197.7804"/>
</g>
<!-- Node28 -->
<g id="node29" class="node">
<title>Node28</title>
<polygon fill="none" stroke="#bfbfbf" points="1565.5,-168.5 1565.5,-187.5 1608.5,-187.5 1608.5,-168.5 1565.5,-168.5"/>
<text text-anchor="middle" x="1587" y="-175.5" font-family="Helvetica,sans-Serif" font-size="10.00" fill="#000000">stack</text>
</g>
<!-- Node0&#45;&gt;Node28 -->
<g id="edge32" class="edge">
<title>Node0&#45;&gt;Node28</title>
<path fill="none" stroke="#191970" d="M1506.7503,-224.3511C1524.4464,-214.1301 1545.3994,-202.0279 1561.4572,-192.7532"/>
<polygon fill="#191970" stroke="#191970" points="1563.3757,-195.687 1570.2845,-187.6546 1559.8746,-189.6254 1563.3757,-195.687"/>
</g>
<!-- Node29 -->
<g id="node30" class="node">
<title>Node29</title>
<polygon fill="none" stroke="#bfbfbf" points="1627,-168.5 1627,-187.5 1687,-187.5 1687,-168.5 1627,-168.5"/>
<text text-anchor="middle" x="1657" y="-175.5" font-family="Helvetica,sans-Serif" font-size="10.00" fill="#000000">iostream</text>
</g>
<!-- Node0&#45;&gt;Node29 -->
<g id="edge33" class="edge">
<title>Node0&#45;&gt;Node29</title>
<path fill="none" stroke="#191970" d="M1528.0702,-224.4425C1558.3713,-213.5275 1594.6858,-200.4465 1621.0419,-190.9527"/>
<polygon fill="#191970" stroke="#191970" points="1622.4001,-194.1836 1630.6222,-187.5017 1620.0278,-187.5979 1622.4001,-194.1836"/>
</g>
<!-- Node30 -->
<g id="node31" class="node">
<title>Node30</title>
<polygon fill="none" stroke="#bfbfbf" points="1705.5,-168.5 1705.5,-187.5 1798.5,-187.5 1798.5,-168.5 1705.5,-168.5"/>
<text text-anchor="middle" x="1752" y="-175.5" font-family="Helvetica,sans-Serif" font-size="10.00" fill="#000000">unordered_map</text>
</g>
<!-- Node0&#45;&gt;Node30 -->
<g id="edge34" class="edge">
<title>Node0&#45;&gt;Node30</title>
<path fill="none" stroke="#191970" d="M1557.2189,-224.4425C1604.8114,-213.0948 1662.2233,-199.4058 1702.3397,-189.8407"/>
<polygon fill="#191970" stroke="#191970" points="1703.2341,-193.2256 1712.1497,-187.5017 1701.6106,-186.4165 1703.2341,-193.2256"/>
</g>
<!-- Node31 -->
<g id="node32" class="node">
<title>Node31</title>
<polygon fill="none" stroke="#bfbfbf" points="1817,-168.5 1817,-187.5 1849,-187.5 1849,-168.5 1817,-168.5"/>
<text text-anchor="middle" x="1833" y="-175.5" font-family="Helvetica,sans-Serif" font-size="10.00" fill="#000000">set</text>
</g>
<!-- Node0&#45;&gt;Node31 -->
<g id="edge35" class="edge">
<title>Node0&#45;&gt;Node31</title>
<path fill="none" stroke="#191970" d="M1570.2864,-233.8596C1635.549,-225.2173 1722.7042,-211.17 1807.0308,-187.8134"/>
<polygon fill="#191970" stroke="#191970" points="1808.0899,-191.1514 1816.7665,-185.0713 1806.1921,-184.4136 1808.0899,-191.1514"/>
</g>
<!-- Node32 -->
<g id="node33" class="node">
<title>Node32</title>
<polygon fill="none" stroke="#bfbfbf" points="1867,-168.5 1867,-187.5 1931,-187.5 1931,-168.5 1867,-168.5"/>
<text text-anchor="middle" x="1899" y="-175.5" font-family="Helvetica,sans-Serif" font-size="10.00" fill="#000000">algorithm</text>
</g>
<!-- Node0&#45;&gt;Node32 -->
<g id="edge36" class="edge">
<title>Node0&#45;&gt;Node32</title>
<path fill="none" stroke="#191970" d="M1570.0498,-232.9916C1646.0433,-223.1773 1753.705,-207.978 1856.8654,-188.0848"/>
<polygon fill="#191970" stroke="#191970" points="1857.6861,-191.4908 1866.8334,-186.145 1856.349,-184.6197 1857.6861,-191.4908"/>
</g>
<!-- Node2 -->
<g id="node3" class="node">
<title>Node2</title>
<g id="a_node3"><a xlink:href="../../d0/d91/Expressions_8h.html" target="_top" xlink:title="Framework/Expressions.h">
<polygon fill="none" stroke="#000000" points="958.5,-112.5 958.5,-131.5 1099.5,-131.5 1099.5,-112.5 958.5,-112.5"/>
<text text-anchor="middle" x="1029" y="-119.5" font-family="Helvetica,sans-Serif" font-size="10.00" fill="#000000">Framework/Expressions.h</text>
</a>
</g>
</g>
<!-- Node1&#45;&gt;Node2 -->
<g id="edge2" class="edge">
<title>Node1&#45;&gt;Node2</title>
<path fill="none" stroke="#191970" d="M1114.8846,-168.2455C1098.555,-159.4527 1074.329,-146.4079 1055.7661,-136.4125"/>
<polygon fill="#191970" stroke="#191970" points="1057.3719,-133.3021 1046.9078,-131.6427 1054.0532,-139.4654 1057.3719,-133.3021"/>
</g>
<!-- Node1&#45;&gt;Node19 -->
<g id="edge25" class="edge">
<title>Node1&#45;&gt;Node19</title>
<path fill="none" stroke="#191970" d="M1141.871,-168.1168C1156.2951,-152.8329 1186.5073,-123.9773 1219,-112 1361.202,-59.5821 1744.8111,-94.0712 1913.1911,-75.8188"/>
<polygon fill="#191970" stroke="#191970" points="1913.7163,-79.2812 1923.237,-74.633 1912.8956,-72.3295 1913.7163,-79.2812"/>
</g>
<!-- Node23 -->
<g id="node24" class="node">
<title>Node23</title>
<polygon fill="none" stroke="#bfbfbf" points="893.5,-112.5 893.5,-131.5 940.5,-131.5 940.5,-112.5 893.5,-112.5"/>
<text text-anchor="middle" x="917" y="-119.5" font-family="Helvetica,sans-Serif" font-size="10.00" fill="#000000">vector</text>
</g>
<!-- Node1&#45;&gt;Node23 -->
<g id="edge23" class="edge">
<title>Node1&#45;&gt;Node23</title>
<path fill="none" stroke="#191970" d="M1091.8956,-168.4445C1056.606,-160.0798 1004.1756,-147.2716 950.4147,-132.3"/>
<polygon fill="#191970" stroke="#191970" points="951.2938,-128.9116 940.7201,-129.5803 949.403,-135.6514 951.2938,-128.9116"/>
</g>
<!-- Node24 -->
<g id="node25" class="node">
<title>Node24</title>
<polygon fill="none" stroke="#bfbfbf" points="1117.5,-112.5 1117.5,-131.5 1166.5,-131.5 1166.5,-112.5 1117.5,-112.5"/>
<text text-anchor="middle" x="1142" y="-119.5" font-family="Helvetica,sans-Serif" font-size="10.00" fill="#000000">iosfwd</text>
</g>
<!-- Node1&#45;&gt;Node24 -->
<g id="edge24" class="edge">
<title>Node1&#45;&gt;Node24</title>
<path fill="none" stroke="#191970" d="M1134.5677,-168.2455C1135.7421,-160.9382 1137.3884,-150.6944 1138.8332,-141.7046"/>
<polygon fill="#191970" stroke="#191970" points="1142.3191,-142.0714 1140.4503,-131.6427 1135.4078,-140.9606 1142.3191,-142.0714"/>
</g>
<!-- Node3 -->
<g id="node4" class="node">
<title>Node3</title>
<g id="a_node4"><a xlink:href="../../dd/dc2/BasicOps_8h.html" target="_top" xlink:title="Framework/BasicOps.h">
<polygon fill="none" stroke="#000000" points="1211,-56.5 1211,-75.5 1339,-75.5 1339,-56.5 1211,-56.5"/>
<text text-anchor="middle" x="1275" y="-63.5" font-family="Helvetica,sans-Serif" font-size="10.00" fill="#000000">Framework/BasicOps.h</text>
</a>
</g>
</g>
<!-- Node2&#45;&gt;Node3 -->
<g id="edge3" class="edge">
<title>Node2&#45;&gt;Node3</title>
<path fill="none" stroke="#191970" d="M1071.0094,-112.4369C1113.1104,-102.8529 1178.0005,-88.0812 1223.2521,-77.78"/>
<polygon fill="#191970" stroke="#191970" points="1224.1902,-81.1561 1233.1639,-75.5237 1222.6364,-74.3307 1224.1902,-81.1561"/>
</g>
<!-- Node4 -->
<g id="node5" class="node">
<title>Node4</title>
<g id="a_node5"><a xlink:href="../../d9/de8/CompilerBuiltins_8h.html" target="_top" xlink:title="Framework/CompilerBuiltins.h">
<polygon fill="none" stroke="#000000" points="0,-56.5 0,-75.5 164,-75.5 164,-56.5 0,-56.5"/>
<text text-anchor="middle" x="82" y="-63.5" font-family="Helvetica,sans-Serif" font-size="10.00" fill="#000000">Framework/CompilerBuiltins.h</text>
</a>
</g>
</g>
<!-- Node2&#45;&gt;Node4 -->
<g id="edge4" class="edge">
<title>Node2&#45;&gt;Node4</title>
<path fill="none" stroke="#191970" d="M958.3613,-112.8669C955.1997,-112.5538 952.0681,-112.2625 949,-112 608.2726,-82.8458 518.9075,-102.488 174.3266,-76.0564"/>
<polygon fill="#191970" stroke="#191970" points="174.5584,-72.564 164.318,-75.2813 174.0179,-79.5431 174.5584,-72.564"/>
</g>
<!-- Node5 -->
<g id="node6" class="node">
<title>Node5</title>
<g id="a_node6"><a xlink:href="../../dd/dce/Pack_8h.html" target="_top" xlink:title="Framework/Pack.h">
<polygon fill="none" stroke="#000000" points="1357.5,-56.5 1357.5,-75.5 1462.5,-75.5 1462.5,-56.5 1357.5,-56.5"/>
<text text-anchor="middle" x="1410" y="-63.5" font-family="Helvetica,sans-Serif" font-size="10.00" fill="#000000">Framework/Pack.h</text>
</a>
</g>
</g>
<!-- Node2&#45;&gt;Node5 -->
<g id="edge5" class="edge">
<title>Node2&#45;&gt;Node5</title>
<path fill="none" stroke="#191970" d="M1097.499,-112.4595C1159.8579,-103.6971 1254.7526,-90.1713 1347.1552,-76.1095"/>
<polygon fill="#191970" stroke="#191970" points="1347.8864,-79.5385 1357.2442,-74.5704 1346.8307,-72.6186 1347.8864,-79.5385"/>
</g>
<!-- Node9 -->
<g id="node10" class="node">
<title>Node9</title>
<g id="a_node10"><a xlink:href="../../d1/d00/CheckTypes_8h.html" target="_top" xlink:title="Framework/CheckTypes.h">
<polygon fill="none" stroke="#000000" points="1481,-56.5 1481,-75.5 1621,-75.5 1621,-56.5 1481,-56.5"/>
<text text-anchor="middle" x="1551" y="-63.5" font-family="Helvetica,sans-Serif" font-size="10.00" fill="#000000">Framework/CheckTypes.h</text>
</a>
</g>
</g>
<!-- Node2&#45;&gt;Node9 -->
<g id="edge9" class="edge">
<title>Node2&#45;&gt;Node9</title>
<path fill="none" stroke="#191970" d="M1099.6587,-113.0685C1102.8148,-112.7008 1105.9398,-112.3429 1109,-112 1266.812,-94.3143 1309.1746,-94.1794 1470.5083,-76.1429"/>
<polygon fill="#191970" stroke="#191970" points="1471.2541,-79.5812 1480.8006,-74.9861 1470.4722,-72.625 1471.2541,-79.5812"/>
</g>
<!-- Node10 -->
<g id="node11" class="node">
<title>Node10</title>
<polygon fill="none" stroke="#bfbfbf" points="1639.5,-56.5 1639.5,-75.5 1740.5,-75.5 1740.5,-56.5 1639.5,-56.5"/>
<text text-anchor="middle" x="1690" y="-63.5" font-family="Helvetica,sans-Serif" font-size="10.00" fill="#000000">arrow/type_fwd.h</text>
</g>
<!-- Node2&#45;&gt;Node10 -->
<g id="edge10" class="edge">
<title>Node2&#45;&gt;Node10</title>
<path fill="none" stroke="#191970" d="M1099.6467,-112.9539C1102.8061,-112.6172 1105.935,-112.2972 1109,-112 1336.7526,-89.9139 1397.7628,-102.735 1629.2293,-75.978"/>
<polygon fill="#191970" stroke="#191970" points="1629.7836,-79.4372 1639.3098,-74.8003 1628.9712,-72.4845 1629.7836,-79.4372"/>
</g>
<!-- Node11 -->
<g id="node12" class="node">
<title>Node11</title>
<polygon fill="none" stroke="#bfbfbf" points="1759,-56.5 1759,-75.5 1905,-75.5 1905,-56.5 1759,-56.5"/>
<text text-anchor="middle" x="1832" y="-63.5" font-family="Helvetica,sans-Serif" font-size="10.00" fill="#000000">gandiva/gandiva_aliases.h</text>
</g>
<!-- Node2&#45;&gt;Node11 -->
<g id="edge11" class="edge">
<title>Node2&#45;&gt;Node11</title>
<path fill="none" stroke="#191970" d="M1099.642,-112.9043C1102.8027,-112.5811 1105.9332,-112.2775 1109,-112 1389.8469,-86.5904 1464.0538,-100.9383 1748.4994,-76.0794"/>
<polygon fill="#191970" stroke="#191970" points="1749.0539,-79.5442 1758.7074,-75.1784 1748.4384,-72.5713 1749.0539,-79.5442"/>
</g>
<!-- Node12 -->
<g id="node13" class="node">
<title>Node12</title>
<polygon fill="none" stroke="#bfbfbf" points="282,-56.5 282,-75.5 360,-75.5 360,-56.5 282,-56.5"/>
<text text-anchor="middle" x="321" y="-63.5" font-family="Helvetica,sans-Serif" font-size="10.00" fill="#000000">arrow/type.h</text>
</g>
<!-- Node2&#45;&gt;Node12 -->
<g id="edge12" class="edge">
<title>Node2&#45;&gt;Node12</title>
<path fill="none" stroke="#191970" d="M958.3559,-112.927C955.1958,-112.5976 952.066,-112.2865 949,-112 695.111,-88.2759 626.6979,-109.8638 370.2023,-75.9821"/>
<polygon fill="#191970" stroke="#191970" points="370.5893,-72.5028 360.2138,-74.6474 369.6621,-79.4411 370.5893,-72.5028"/>
</g>
<!-- Node13 -->
<g id="node14" class="node">
<title>Node13</title>
<polygon fill="none" stroke="#bfbfbf" points="378.5,-56.5 378.5,-75.5 473.5,-75.5 473.5,-56.5 378.5,-56.5"/>
<text text-anchor="middle" x="426" y="-63.5" font-family="Helvetica,sans-Serif" font-size="10.00" fill="#000000">gandiva/arrow.h</text>
</g>
<!-- Node2&#45;&gt;Node13 -->
<g id="edge13" class="edge">
<title>Node2&#45;&gt;Node13</title>
<path fill="none" stroke="#191970" d="M958.3503,-112.9844C955.1917,-112.6395 952.0638,-112.3094 949,-112 745.1183,-91.4107 690.2052,-101.9865 483.5651,-76.0957"/>
<polygon fill="#191970" stroke="#191970" points="483.9698,-72.6191 473.6093,-74.835 483.0903,-79.5636 483.9698,-72.6191"/>
</g>
<!-- Node2&#45;&gt;Node14 -->
<g id="edge14" class="edge">
<title>Node2&#45;&gt;Node14</title>
<path fill="none" stroke="#191970" d="M958.359,-112.8932C955.1981,-112.573 952.0672,-112.273 949,-112 652.6804,-85.6235 573.2869,-112.9722 273.8671,-75.9125"/>
<polygon fill="#191970" stroke="#191970" points="273.9362,-72.3939 263.5789,-74.6246 273.0667,-79.3397 273.9362,-72.3939"/>
</g>
<!-- Node15 -->
<g id="node16" class="node">
<title>Node15</title>
<polygon fill="none" stroke="#bfbfbf" points="491.5,-56.5 491.5,-75.5 638.5,-75.5 638.5,-56.5 491.5,-56.5"/>
<text text-anchor="middle" x="565" y="-63.5" font-family="Helvetica,sans-Serif" font-size="10.00" fill="#000000">gandiva/selection_vector.h</text>
</g>
<!-- Node2&#45;&gt;Node15 -->
<g id="edge15" class="edge">
<title>Node2&#45;&gt;Node15</title>
<path fill="none" stroke="#191970" d="M958.3323,-113.1458C955.1786,-112.7572 952.0566,-112.3738 949,-112 818.5303,-96.0436 783.466,-92.2408 649.0471,-76.1243"/>
<polygon fill="#191970" stroke="#191970" points="649.1116,-72.607 638.7658,-74.8908 648.2777,-79.5572 649.1116,-72.607"/>
</g>
<!-- Node16 -->
<g id="node17" class="node">
<title>Node16</title>
<polygon fill="none" stroke="#bfbfbf" points="657,-56.5 657,-75.5 749,-75.5 749,-56.5 657,-56.5"/>
<text text-anchor="middle" x="703" y="-63.5" font-family="Helvetica,sans-Serif" font-size="10.00" fill="#000000">gandiva/node.h</text>
</g>
<!-- Node2&#45;&gt;Node16 -->
<g id="edge16" class="edge">
<title>Node2&#45;&gt;Node16</title>
<path fill="none" stroke="#191970" d="M971.6055,-112.4582C918.9795,-103.6636 838.6005,-90.1174 759.3647,-76.2257"/>
<polygon fill="#191970" stroke="#191970" points="759.6612,-72.7243 749.2065,-74.4417 758.4503,-79.6188 759.6612,-72.7243"/>
</g>
<!-- Node17 -->
<g id="node18" class="node">
<title>Node17</title>
<polygon fill="none" stroke="#bfbfbf" points="767.5,-56.5 767.5,-75.5 856.5,-75.5 856.5,-56.5 767.5,-56.5"/>
<text text-anchor="middle" x="812" y="-63.5" font-family="Helvetica,sans-Serif" font-size="10.00" fill="#000000">gandiva/filter.h</text>
</g>
<!-- Node2&#45;&gt;Node17 -->
<g id="edge17" class="edge">
<title>Node2&#45;&gt;Node17</title>
<path fill="none" stroke="#191970" d="M991.6964,-112.3733C954.8315,-102.8598 898.334,-88.2797 858.5494,-78.0127"/>
<polygon fill="#191970" stroke="#191970" points="859.3742,-74.611 848.8169,-75.5011 857.625,-81.3889 859.3742,-74.611"/>
</g>
<!-- Node18 -->
<g id="node19" class="node">
<title>Node18</title>
<polygon fill="none" stroke="#bfbfbf" points="875,-56.5 875,-75.5 985,-75.5 985,-56.5 875,-56.5"/>
<text text-anchor="middle" x="930" y="-63.5" font-family="Helvetica,sans-Serif" font-size="10.00" fill="#000000">gandiva/projector.h</text>
</g>
<!-- Node2&#45;&gt;Node18 -->
<g id="edge18" class="edge">
<title>Node2&#45;&gt;Node18</title>
<path fill="none" stroke="#191970" d="M1011.7555,-112.2455C996.4239,-103.5731 973.7801,-90.7645 956.2084,-80.825"/>
<polygon fill="#191970" stroke="#191970" points="957.4741,-77.5198 947.0469,-75.6427 954.0276,-83.6126 957.4741,-77.5198"/>
</g>
<!-- Node2&#45;&gt;Node19 -->
<g id="edge19" class="edge">
<title>Node2&#45;&gt;Node19</title>
<path fill="none" stroke="#191970" d="M1099.6382,-112.8605C1102.7999,-112.5491 1105.9317,-112.26 1109,-112 1462.5462,-82.0459 1556.8275,-119.2386 1913.1603,-75.8957"/>
<polygon fill="#191970" stroke="#191970" points="1913.7417,-79.3507 1923.24,-74.6568 1912.8877,-72.4029 1913.7417,-79.3507"/>
</g>
<!-- Node20 -->
<g id="node21" class="node">
<title>Node20</title>
<polygon fill="none" stroke="#bfbfbf" points="1003.5,-56.5 1003.5,-75.5 1054.5,-75.5 1054.5,-56.5 1003.5,-56.5"/>
<text text-anchor="middle" x="1029" y="-63.5" font-family="Helvetica,sans-Serif" font-size="10.00" fill="#000000">variant</text>
</g>
<!-- Node2&#45;&gt;Node20 -->
<g id="edge20" class="edge">
<title>Node2&#45;&gt;Node20</title>
<path fill="none" stroke="#191970" d="M1029,-112.2455C1029,-104.9382 1029,-94.6944 1029,-85.7046"/>
<polygon fill="#191970" stroke="#191970" points="1032.5001,-85.6426 1029,-75.6427 1025.5001,-85.6427 1032.5001,-85.6426"/>
</g>
<!-- Node21 -->
<g id="node22" class="node">
<title>Node21</title>
<polygon fill="none" stroke="#bfbfbf" points="1073,-56.5 1073,-75.5 1117,-75.5 1117,-56.5 1073,-56.5"/>
<text text-anchor="middle" x="1095" y="-63.5" font-family="Helvetica,sans-Serif" font-size="10.00" fill="#000000">string</text>
</g>
<!-- Node2&#45;&gt;Node21 -->
<g id="edge21" class="edge">
<title>Node2&#45;&gt;Node21</title>
<path fill="none" stroke="#191970" d="M1040.4963,-112.2455C1050.2442,-103.9746 1064.4259,-91.9416 1075.8798,-82.2232"/>
<polygon fill="#191970" stroke="#191970" points="1078.2747,-84.7813 1083.6354,-75.6427 1073.7459,-79.4437 1078.2747,-84.7813"/>
</g>
<!-- Node22 -->
<g id="node23" class="node">
<title>Node22</title>
<polygon fill="none" stroke="#bfbfbf" points="1135,-56.5 1135,-75.5 1193,-75.5 1193,-56.5 1135,-56.5"/>
<text text-anchor="middle" x="1164" y="-63.5" font-family="Helvetica,sans-Serif" font-size="10.00" fill="#000000">memory</text>
</g>
<!-- Node2&#45;&gt;Node22 -->
<g id="edge22" class="edge">
<title>Node2&#45;&gt;Node22</title>
<path fill="none" stroke="#191970" d="M1052.2073,-112.3733C1074.1699,-103.2629 1107.3332,-89.5062 1131.8401,-79.3404"/>
<polygon fill="#191970" stroke="#191970" points="1133.1997,-82.5657 1141.0955,-75.5011 1130.5176,-76.0999 1133.1997,-82.5657"/>
</g>
<!-- Node6 -->
<g id="node7" class="node">
<title>Node6</title>
<polygon fill="none" stroke="#bfbfbf" points="1316.5,-.5 1316.5,-19.5 1369.5,-19.5 1369.5,-.5 1316.5,-.5"/>
<text text-anchor="middle" x="1343" y="-7.5" font-family="Helvetica,sans-Serif" font-size="10.00" fill="#000000">cstddef</text>
</g>
<!-- Node5&#45;&gt;Node6 -->
<g id="edge6" class="edge">
<title>Node5&#45;&gt;Node6</title>
<path fill="none" stroke="#191970" d="M1398.3295,-56.2455C1388.4339,-47.9746 1374.0373,-35.9416 1362.4099,-26.2232"/>
<polygon fill="#191970" stroke="#191970" points="1364.4542,-23.3703 1354.5368,-19.6427 1359.965,-28.7413 1364.4542,-23.3703"/>
</g>
<!-- Node7 -->
<g id="node8" class="node">
<title>Node7</title>
<polygon fill="none" stroke="#bfbfbf" points="1387.5,-.5 1387.5,-19.5 1432.5,-19.5 1432.5,-.5 1387.5,-.5"/>
<text text-anchor="middle" x="1410" y="-7.5" font-family="Helvetica,sans-Serif" font-size="10.00" fill="#000000">utility</text>
</g>
<!-- Node5&#45;&gt;Node7 -->
<g id="edge7" class="edge">
<title>Node5&#45;&gt;Node7</title>
<path fill="none" stroke="#191970" d="M1410,-56.2455C1410,-48.9382 1410,-38.6944 1410,-29.7046"/>
<polygon fill="#191970" stroke="#191970" points="1413.5001,-29.6426 1410,-19.6427 1406.5001,-29.6427 1413.5001,-29.6426"/>
</g>
<!-- Node8 -->
<g id="node9" class="node">
<title>Node8</title>
<polygon fill="none" stroke="#bfbfbf" points="1451,-.5 1451,-19.5 1497,-19.5 1497,-.5 1451,-.5"/>
<text text-anchor="middle" x="1474" y="-7.5" font-family="Helvetica,sans-Serif" font-size="10.00" fill="#000000">cstdio</text>
</g>
<!-- Node5&#45;&gt;Node8 -->
<g id="edge8" class="edge">
<title>Node5&#45;&gt;Node8</title>
<path fill="none" stroke="#191970" d="M1421.1479,-56.2455C1430.5087,-48.0549 1444.0858,-36.1749 1455.1349,-26.5069"/>
<polygon fill="#191970" stroke="#191970" points="1457.7588,-28.8618 1462.9798,-19.6427 1453.1492,-23.5937 1457.7588,-28.8618"/>
</g>
<!-- Node25&#45;&gt;Node4 -->
<g id="edge27" class="edge">
<title>Node25&#45;&gt;Node4</title>
<path fill="none" stroke="#191970" d="M222.776,-112.3733C194.5075,-103.0613 151.5035,-88.8953 120.4656,-78.671"/>
<polygon fill="#191970" stroke="#191970" points="121.4357,-75.3056 110.8427,-75.5011 119.2456,-81.9542 121.4357,-75.3056"/>
</g>
</g>
</svg>
