<?xml version="1.0" encoding="UTF-8" standalone="no"?>
<!DOCTYPE svg PUBLIC "-//W3C//DTD SVG 1.1//EN"
 "http://www.w3.org/Graphics/SVG/1.1/DTD/svg11.dtd">
<!-- Generated by graphviz version 2.40.1 (20161225.0304)
 -->
<!-- Title: /home/travis/build/AliceO2Group/AliceO2/Common/SimConfig/src/SimConfig.cxx Pages: 1 -->
<svg width="1511pt" height="352pt"
 viewBox="0.00 0.00 1511.00 352.00" xmlns="http://www.w3.org/2000/svg" xmlns:xlink="http://www.w3.org/1999/xlink">
<g id="graph0" class="graph" transform="scale(1 1) rotate(0) translate(4 348)">
<title>/home/travis/build/AliceO2Group/AliceO2/Common/SimConfig/src/SimConfig.cxx</title>
<!-- Node0 -->
<g id="node1" class="node">
<title>Node0</title>
<polygon fill="#bfbfbf" stroke="#000000" points="1188,-291.5 1188,-343.5 1322,-343.5 1322,-291.5 1188,-291.5"/>
<text text-anchor="start" x="1196" y="-331.5" font-family="Helvetica,sans-Serif" font-size="10.00" fill="#000000">/home/travis/build</text>
<text text-anchor="start" x="1196" y="-320.5" font-family="Helvetica,sans-Serif" font-size="10.00" fill="#000000">/AliceO2Group/AliceO2</text>
<text text-anchor="start" x="1196" y="-309.5" font-family="Helvetica,sans-Serif" font-size="10.00" fill="#000000">/Common/SimConfig/src</text>
<text text-anchor="middle" x="1255" y="-298.5" font-family="Helvetica,sans-Serif" font-size="10.00" fill="#000000">/SimConfig.cxx</text>
</g>
<!-- Node1 -->
<g id="node2" class="node">
<title>Node1</title>
<g id="a_node2"><a xlink:href="../../d4/dee/SimConfig_8h.html" target="_top" xlink:title="SimConfig/SimConfig.h">
<polygon fill="none" stroke="#000000" points="227,-230 227,-249 355,-249 355,-230 227,-230"/>
<text text-anchor="middle" x="291" y="-237" font-family="Helvetica,sans-Serif" font-size="10.00" fill="#000000">SimConfig/SimConfig.h</text>
</a>
</g>
</g>
<!-- Node0&#45;&gt;Node1 -->
<g id="edge1" class="edge">
<title>Node0&#45;&gt;Node1</title>
<path fill="none" stroke="#191970" d="M1187.9788,-312.0771C1013.6509,-297.9717 546.9737,-260.2116 365.0528,-245.4918"/>
<polygon fill="#191970" stroke="#191970" points="365.2938,-242 355.0441,-244.682 364.7292,-248.9772 365.2938,-242"/>
</g>
<!-- Node3 -->
<g id="node4" class="node">
<title>Node3</title>
<polygon fill="none" stroke="#bfbfbf" points="94,-168.5 94,-187.5 244,-187.5 244,-168.5 94,-168.5"/>
<text text-anchor="middle" x="169" y="-175.5" font-family="Helvetica,sans-Serif" font-size="10.00" fill="#000000">boost/program_options.hpp</text>
</g>
<!-- Node0&#45;&gt;Node3 -->
<g id="edge35" class="edge">
<title>Node0&#45;&gt;Node3</title>
<path fill="none" stroke="#191970" d="M1187.8953,-316.9662C971.4941,-314.764 301.2481,-304.0152 218,-255 196.2118,-242.1714 182.5477,-215.4187 175.3453,-197.0846"/>
<polygon fill="#191970" stroke="#191970" points="178.6275,-195.8689 171.9182,-187.6691 172.0497,-198.2632 178.6275,-195.8689"/>
</g>
<!-- Node4 -->
<g id="node5" class="node">
<title>Node4</title>
<g id="a_node5"><a xlink:href="../../d6/d31/DetID_8h.html" target="_top" xlink:title="DetectorsCommonDataFormats\l/DetID.h">
<polygon fill="none" stroke="#000000" points="584.5,-224.5 584.5,-254.5 755.5,-254.5 755.5,-224.5 584.5,-224.5"/>
<text text-anchor="start" x="592.5" y="-242.5" font-family="Helvetica,sans-Serif" font-size="10.00" fill="#000000">DetectorsCommonDataFormats</text>
<text text-anchor="middle" x="670" y="-231.5" font-family="Helvetica,sans-Serif" font-size="10.00" fill="#000000">/DetID.h</text>
</a>
</g>
</g>
<!-- Node0&#45;&gt;Node4 -->
<g id="edge4" class="edge">
<title>Node0&#45;&gt;Node4</title>
<path fill="none" stroke="#191970" d="M1187.8931,-308.5524C1084.2226,-294.7297 884.7034,-268.1271 765.8574,-252.281"/>
<polygon fill="#191970" stroke="#191970" points="766.0507,-248.7759 755.6758,-250.9234 765.1255,-255.7145 766.0507,-248.7759"/>
</g>
<!-- Node13 -->
<g id="node14" class="node">
<title>Node13</title>
<polygon fill="none" stroke="#bfbfbf" points="1133.5,-56.5 1133.5,-75.5 1180.5,-75.5 1180.5,-56.5 1133.5,-56.5"/>
<text text-anchor="middle" x="1157" y="-63.5" font-family="Helvetica,sans-Serif" font-size="10.00" fill="#000000">cmath</text>
</g>
<!-- Node0&#45;&gt;Node13 -->
<g id="edge39" class="edge">
<title>Node0&#45;&gt;Node13</title>
<path fill="none" stroke="#191970" d="M1259.7016,-291.4053C1265.7284,-249.87 1271.5527,-167.7303 1236,-112 1225.4397,-95.4463 1206.6355,-84.149 1190.0221,-76.8938"/>
<polygon fill="#191970" stroke="#191970" points="1191.1555,-73.577 1180.5724,-73.0799 1188.5357,-80.0683 1191.1555,-73.577"/>
</g>
<!-- Node27 -->
<g id="node28" class="node">
<title>Node27</title>
<polygon fill="none" stroke="#bfbfbf" points="1283,-230 1283,-249 1343,-249 1343,-230 1283,-230"/>
<text text-anchor="middle" x="1313" y="-237" font-family="Helvetica,sans-Serif" font-size="10.00" fill="#000000">iostream</text>
</g>
<!-- Node0&#45;&gt;Node27 -->
<g id="edge36" class="edge">
<title>Node0&#45;&gt;Node27</title>
<path fill="none" stroke="#191970" d="M1274.6362,-291.0928C1282.8891,-279.994 1292.2754,-267.371 1299.6979,-257.389"/>
<polygon fill="#191970" stroke="#191970" points="1302.7151,-259.197 1305.8735,-249.0839 1297.0978,-255.02 1302.7151,-259.197"/>
</g>
<!-- Node28 -->
<g id="node29" class="node">
<title>Node28</title>
<polygon fill="none" stroke="#bfbfbf" points="1361.5,-230 1361.5,-249 1436.5,-249 1436.5,-230 1361.5,-230"/>
<text text-anchor="middle" x="1399" y="-237" font-family="Helvetica,sans-Serif" font-size="10.00" fill="#000000">FairLogger.h</text>
</g>
<!-- Node0&#45;&gt;Node28 -->
<g id="edge37" class="edge">
<title>Node0&#45;&gt;Node28</title>
<path fill="none" stroke="#191970" d="M1303.3505,-291.3101C1326.3814,-278.8351 1353.0441,-264.3928 1372.3592,-253.9304"/>
<polygon fill="#191970" stroke="#191970" points="1374.0769,-256.9805 1381.2029,-249.1401 1370.7429,-250.8255 1374.0769,-256.9805"/>
</g>
<!-- Node29 -->
<g id="node30" class="node">
<title>Node29</title>
<polygon fill="none" stroke="#bfbfbf" points="1455,-230 1455,-249 1503,-249 1503,-230 1455,-230"/>
<text text-anchor="middle" x="1479" y="-237" font-family="Helvetica,sans-Serif" font-size="10.00" fill="#000000">thread</text>
</g>
<!-- Node0&#45;&gt;Node29 -->
<g id="edge38" class="edge">
<title>Node0&#45;&gt;Node29</title>
<path fill="none" stroke="#191970" d="M1322.0109,-297.7856C1358.9732,-286.3607 1405.4613,-271.0826 1446,-255 1447.3973,-254.4456 1448.8195,-253.8607 1450.2497,-253.2557"/>
<polygon fill="#191970" stroke="#191970" points="1451.9168,-256.3448 1459.6304,-249.0818 1449.0711,-249.9493 1451.9168,-256.3448"/>
</g>
<!-- Node2 -->
<g id="node3" class="node">
<title>Node2</title>
<polygon fill="none" stroke="#bfbfbf" points="261.5,-168.5 261.5,-187.5 320.5,-187.5 320.5,-168.5 261.5,-168.5"/>
<text text-anchor="middle" x="291" y="-175.5" font-family="Helvetica,sans-Serif" font-size="10.00" fill="#000000">Rtypes.h</text>
</g>
<!-- Node1&#45;&gt;Node2 -->
<g id="edge2" class="edge">
<title>Node1&#45;&gt;Node2</title>
<path fill="none" stroke="#191970" d="M291,-229.8906C291,-221.3657 291,-208.6392 291,-197.9235"/>
<polygon fill="#191970" stroke="#191970" points="294.5001,-197.7448 291,-187.7449 287.5001,-197.7449 294.5001,-197.7448"/>
</g>
<!-- Node1&#45;&gt;Node3 -->
<g id="edge3" class="edge">
<title>Node1&#45;&gt;Node3</title>
<path fill="none" stroke="#191970" d="M271.9375,-229.8906C251.8828,-219.7811 220.1066,-203.7628 197.1616,-192.1962"/>
<polygon fill="#191970" stroke="#191970" points="198.4337,-188.918 187.9286,-187.5419 195.2827,-195.1687 198.4337,-188.918"/>
</g>
<!-- Node4&#45;&gt;Node2 -->
<g id="edge5" class="edge">
<title>Node4&#45;&gt;Node2</title>
<path fill="none" stroke="#191970" d="M584.4157,-229.1661C517.6104,-220.5004 422.3233,-206.8298 330.7885,-188.2194"/>
<polygon fill="#191970" stroke="#191970" points="331.2993,-184.7513 320.7992,-186.1654 329.8894,-191.6079 331.2993,-184.7513"/>
</g>
<!-- Node5 -->
<g id="node6" class="node">
<title>Node5</title>
<polygon fill="none" stroke="#bfbfbf" points="1185,-112.5 1185,-131.5 1227,-131.5 1227,-112.5 1185,-112.5"/>
<text text-anchor="middle" x="1206" y="-119.5" font-family="Helvetica,sans-Serif" font-size="10.00" fill="#000000">array</text>
</g>
<!-- Node4&#45;&gt;Node5 -->
<g id="edge6" class="edge">
<title>Node4&#45;&gt;Node5</title>
<path fill="none" stroke="#191970" d="M755.5726,-234.3142C833.2359,-228.0978 950.349,-214.9316 1049,-188 1096.1008,-175.1415 1147.7612,-151.4108 1178.5019,-136.1838"/>
<polygon fill="#191970" stroke="#191970" points="1180.3453,-139.1748 1187.7152,-131.5633 1177.2073,-132.9176 1180.3453,-139.1748"/>
</g>
<!-- Node6 -->
<g id="node7" class="node">
<title>Node6</title>
<polygon fill="none" stroke="#bfbfbf" points="648,-168.5 648,-187.5 692,-187.5 692,-168.5 648,-168.5"/>
<text text-anchor="middle" x="670" y="-175.5" font-family="Helvetica,sans-Serif" font-size="10.00" fill="#000000">bitset</text>
</g>
<!-- Node4&#45;&gt;Node6 -->
<g id="edge7" class="edge">
<title>Node4&#45;&gt;Node6</title>
<path fill="none" stroke="#191970" d="M670,-224.2977C670,-216.3834 670,-206.6043 670,-198.0759"/>
<polygon fill="#191970" stroke="#191970" points="673.5001,-197.8469 670,-187.8469 666.5001,-197.847 673.5001,-197.8469"/>
</g>
<!-- Node7 -->
<g id="node8" class="node">
<title>Node7</title>
<polygon fill="none" stroke="#bfbfbf" points="694,-112.5 694,-131.5 746,-131.5 746,-112.5 694,-112.5"/>
<text text-anchor="middle" x="720" y="-119.5" font-family="Helvetica,sans-Serif" font-size="10.00" fill="#000000">cassert</text>
</g>
<!-- Node4&#45;&gt;Node7 -->
<g id="edge8" class="edge">
<title>Node4&#45;&gt;Node7</title>
<path fill="none" stroke="#191970" d="M680.6037,-224.2933C687.1804,-214.3285 695.4121,-200.819 701,-188 707.5514,-172.9708 712.5464,-155.0461 715.7669,-141.6721"/>
<polygon fill="#191970" stroke="#191970" points="719.2364,-142.1999 718.05,-131.6717 712.412,-140.6418 719.2364,-142.1999"/>
</g>
<!-- Node8 -->
<g id="node9" class="node">
<title>Node8</title>
<polygon fill="none" stroke="#bfbfbf" points="0,-112.5 0,-131.5 50,-131.5 50,-112.5 0,-112.5"/>
<text text-anchor="middle" x="25" y="-119.5" font-family="Helvetica,sans-Serif" font-size="10.00" fill="#000000">cstdint</text>
</g>
<!-- Node4&#45;&gt;Node8 -->
<g id="edge9" class="edge">
<title>Node4&#45;&gt;Node8</title>
<path fill="none" stroke="#191970" d="M584.3326,-225.6849C542.8583,-217.439 492.8805,-205.1686 450,-188 433.7244,-181.4835 432.663,-173.4501 416,-168 267.5386,-119.4412 217.552,-160.8568 60.1519,-131.8686"/>
<polygon fill="#191970" stroke="#191970" points="60.6012,-128.3912 50.1222,-129.9537 59.2884,-135.267 60.6012,-128.3912"/>
</g>
<!-- Node9 -->
<g id="node10" class="node">
<title>Node9</title>
<polygon fill="none" stroke="#bfbfbf" points="966.5,-168.5 966.5,-187.5 1039.5,-187.5 1039.5,-168.5 966.5,-168.5"/>
<text text-anchor="middle" x="1003" y="-175.5" font-family="Helvetica,sans-Serif" font-size="10.00" fill="#000000">string_view</text>
</g>
<!-- Node4&#45;&gt;Node9 -->
<g id="edge10" class="edge">
<title>Node4&#45;&gt;Node9</title>
<path fill="none" stroke="#191970" d="M755.5496,-224.9904C810.2357,-215.5174 882.9075,-202.5647 956.4565,-188.0537"/>
<polygon fill="#191970" stroke="#191970" points="957.2379,-191.467 966.3668,-186.0899 955.8772,-184.6005 957.2379,-191.467"/>
</g>
<!-- Node10 -->
<g id="node11" class="node">
<title>Node10</title>
<polygon fill="none" stroke="#bfbfbf" points="68,-112.5 68,-131.5 112,-131.5 112,-112.5 68,-112.5"/>
<text text-anchor="middle" x="90" y="-119.5" font-family="Helvetica,sans-Serif" font-size="10.00" fill="#000000">string</text>
</g>
<!-- Node4&#45;&gt;Node10 -->
<g id="edge11" class="edge">
<title>Node4&#45;&gt;Node10</title>
<path fill="none" stroke="#191970" d="M610.6507,-224.3921C576.201,-215.0644 532.201,-202.1894 494,-188 473.8633,-180.5204 470.7152,-173.6843 450,-168 311.3346,-129.9502 266.8425,-161.262 122.3266,-131.8821"/>
<polygon fill="#191970" stroke="#191970" points="122.7097,-128.3864 112.2042,-129.7592 121.2728,-135.2373 122.7097,-128.3864"/>
</g>
<!-- Node11 -->
<g id="node12" class="node">
<title>Node11</title>
<polygon fill="none" stroke="#bfbfbf" points="338.5,-168.5 338.5,-187.5 407.5,-187.5 407.5,-168.5 338.5,-168.5"/>
<text text-anchor="middle" x="373" y="-175.5" font-family="Helvetica,sans-Serif" font-size="10.00" fill="#000000">type_traits</text>
</g>
<!-- Node4&#45;&gt;Node11 -->
<g id="edge12" class="edge">
<title>Node4&#45;&gt;Node11</title>
<path fill="none" stroke="#191970" d="M597.3456,-224.4554C541.1885,-212.8269 465.2503,-197.1023 417.7062,-187.2573"/>
<polygon fill="#191970" stroke="#191970" points="418.2202,-183.7896 407.7182,-185.1891 416.8007,-190.6442 418.2202,-183.7896"/>
</g>
<!-- Node12 -->
<g id="node13" class="node">
<title>Node12</title>
<g id="a_node13"><a xlink:href="../../d9/d52/Common_2MathUtils_2include_2MathUtils_2Utils_8h.html" target="_top" xlink:title="MathUtils/Utils.h">
<polygon fill="none" stroke="#000000" points="850,-168.5 850,-187.5 948,-187.5 948,-168.5 850,-168.5"/>
<text text-anchor="middle" x="899" y="-175.5" font-family="Helvetica,sans-Serif" font-size="10.00" fill="#000000">MathUtils/Utils.h</text>
</a>
</g>
</g>
<!-- Node4&#45;&gt;Node12 -->
<g id="edge13" class="edge">
<title>Node4&#45;&gt;Node12</title>
<path fill="none" stroke="#191970" d="M726.0197,-224.4554C765.2345,-213.9239 816.9592,-200.0328 853.6011,-190.1923"/>
<polygon fill="#191970" stroke="#191970" points="854.7632,-193.5043 863.5131,-187.5303 852.9475,-186.7438 854.7632,-193.5043"/>
</g>
<!-- Node20 -->
<g id="node21" class="node">
<title>Node20</title>
<g id="a_node21"><a xlink:href="../../dc/dcd/DataHeader_8h.html" target="_top" xlink:title="Headers/DataHeader.h">
<polygon fill="none" stroke="#000000" points="502.5,-168.5 502.5,-187.5 629.5,-187.5 629.5,-168.5 502.5,-168.5"/>
<text text-anchor="middle" x="566" y="-175.5" font-family="Helvetica,sans-Serif" font-size="10.00" fill="#000000">Headers/DataHeader.h</text>
</a>
</g>
</g>
<!-- Node4&#45;&gt;Node20 -->
<g id="edge24" class="edge">
<title>Node4&#45;&gt;Node20</title>
<path fill="none" stroke="#191970" d="M644.5587,-224.4554C628.2716,-214.8241 607.2327,-202.3828 591.027,-192.7996"/>
<polygon fill="#191970" stroke="#191970" points="592.5055,-189.6078 582.1163,-187.5303 588.9424,-195.6331 592.5055,-189.6078"/>
</g>
<!-- Node12&#45;&gt;Node5 -->
<g id="edge14" class="edge">
<title>Node12&#45;&gt;Node5</title>
<path fill="none" stroke="#191970" d="M948.2551,-169.6499C951.553,-169.0914 954.8245,-168.5375 958,-168 1052.663,-151.978 1077.3652,-153.2205 1171,-132 1172.2827,-131.7093 1173.5882,-131.3998 1174.9043,-131.0764"/>
<polygon fill="#191970" stroke="#191970" points="1176.2243,-134.3478 1184.9983,-128.4091 1174.4359,-127.5801 1176.2243,-134.3478"/>
</g>
<!-- Node12&#45;&gt;Node13 -->
<g id="edge15" class="edge">
<title>Node12&#45;&gt;Node13</title>
<path fill="none" stroke="#191970" d="M948.184,-169.1959C1017.109,-156.7648 1134.4809,-135.2154 1138,-132 1150.7667,-120.3354 1155.1661,-100.7045 1156.5813,-85.8773"/>
<polygon fill="#191970" stroke="#191970" points="1160.0874,-85.8723 1157.171,-75.6868 1153.0991,-85.4678 1160.0874,-85.8723"/>
</g>
<!-- Node14 -->
<g id="node15" class="node">
<title>Node14</title>
<g id="a_node15"><a xlink:href="../../df/d21/GPUCommonDef_8h.html" target="_top" xlink:title="GPUCommonDef.h">
<polygon fill="none" stroke="#000000" points="864.5,-56.5 864.5,-75.5 971.5,-75.5 971.5,-56.5 864.5,-56.5"/>
<text text-anchor="middle" x="918" y="-63.5" font-family="Helvetica,sans-Serif" font-size="10.00" fill="#000000">GPUCommonDef.h</text>
</a>
</g>
</g>
<!-- Node12&#45;&gt;Node14 -->
<g id="edge16" class="edge">
<title>Node12&#45;&gt;Node14</title>
<path fill="none" stroke="#191970" d="M854.612,-168.4499C817.5261,-158.2958 773.5898,-139.8257 793,-112 802.0429,-99.0364 837.073,-86.8007 867.757,-78.2121"/>
<polygon fill="#191970" stroke="#191970" points="868.7968,-81.5566 877.5282,-75.5555 866.9602,-74.8018 868.7968,-81.5566"/>
</g>
<!-- Node17 -->
<g id="node18" class="node">
<title>Node17</title>
<g id="a_node18"><a xlink:href="../../d6/da2/GPUCommonMath_8h.html" target="_top" xlink:title="GPUCommonMath.h">
<polygon fill="none" stroke="#000000" points="1013.5,-112.5 1013.5,-131.5 1128.5,-131.5 1128.5,-112.5 1013.5,-112.5"/>
<text text-anchor="middle" x="1071" y="-119.5" font-family="Helvetica,sans-Serif" font-size="10.00" fill="#000000">GPUCommonMath.h</text>
</a>
</g>
</g>
<!-- Node12&#45;&gt;Node17 -->
<g id="edge19" class="edge">
<title>Node12&#45;&gt;Node17</title>
<path fill="none" stroke="#191970" d="M928.5679,-168.3733C957.1688,-159.0613 1000.6788,-144.8953 1032.0819,-134.671"/>
<polygon fill="#191970" stroke="#191970" points="1033.3928,-137.9251 1041.818,-131.5011 1031.2257,-131.269 1033.3928,-137.9251"/>
</g>
<!-- Node19 -->
<g id="node20" class="node">
<title>Node19</title>
<g id="a_node20"><a xlink:href="../../d6/d84/MathConstants_8h.html" target="_top" xlink:title="useful math constants ">
<polygon fill="none" stroke="#000000" points="802,-112.5 802,-131.5 996,-131.5 996,-112.5 802,-112.5"/>
<text text-anchor="middle" x="899" y="-119.5" font-family="Helvetica,sans-Serif" font-size="10.00" fill="#000000">CommonConstants/MathConstants.h</text>
</a>
</g>
</g>
<!-- Node12&#45;&gt;Node19 -->
<g id="edge23" class="edge">
<title>Node12&#45;&gt;Node19</title>
<path fill="none" stroke="#191970" d="M899,-168.2455C899,-160.9382 899,-150.6944 899,-141.7046"/>
<polygon fill="#191970" stroke="#191970" points="902.5001,-141.6426 899,-131.6427 895.5001,-141.6427 902.5001,-141.6426"/>
</g>
<!-- Node15 -->
<g id="node16" class="node">
<title>Node15</title>
<g id="a_node16"><a xlink:href="../../d5/d93/GPUCommonDefSettings_8h.html" target="_top" xlink:title="GPUCommonDefSettings.h">
<polygon fill="none" stroke="#000000" points="767,-.5 767,-19.5 915,-19.5 915,-.5 767,-.5"/>
<text text-anchor="middle" x="841" y="-7.5" font-family="Helvetica,sans-Serif" font-size="10.00" fill="#000000">GPUCommonDefSettings.h</text>
</a>
</g>
</g>
<!-- Node14&#45;&gt;Node15 -->
<g id="edge17" class="edge">
<title>Node14&#45;&gt;Node15</title>
<path fill="none" stroke="#191970" d="M904.5876,-56.2455C892.9943,-47.814 876.0252,-35.4729 862.5322,-25.6598"/>
<polygon fill="#191970" stroke="#191970" points="864.4047,-22.6938 854.2587,-19.6427 860.2874,-28.355 864.4047,-22.6938"/>
</g>
<!-- Node16 -->
<g id="node17" class="node">
<title>Node16</title>
<g id="a_node17"><a xlink:href="../../da/d5a/GPUCommonDefAPI_8h.html" target="_top" xlink:title="GPUCommonDefAPI.h">
<polygon fill="none" stroke="#000000" points="933,-.5 933,-19.5 1057,-19.5 1057,-.5 933,-.5"/>
<text text-anchor="middle" x="995" y="-7.5" font-family="Helvetica,sans-Serif" font-size="10.00" fill="#000000">GPUCommonDefAPI.h</text>
</a>
</g>
</g>
<!-- Node14&#45;&gt;Node16 -->
<g id="edge18" class="edge">
<title>Node14&#45;&gt;Node16</title>
<path fill="none" stroke="#191970" d="M931.4124,-56.2455C943.0057,-47.814 959.9748,-35.4729 973.4678,-25.6598"/>
<polygon fill="#191970" stroke="#191970" points="975.7126,-28.355 981.7413,-19.6427 971.5953,-22.6938 975.7126,-28.355"/>
</g>
<!-- Node17&#45;&gt;Node13 -->
<g id="edge21" class="edge">
<title>Node17&#45;&gt;Node13</title>
<path fill="none" stroke="#191970" d="M1085.9801,-112.2455C1099.1751,-103.6534 1118.6051,-91.0014 1133.8079,-81.1018"/>
<polygon fill="#191970" stroke="#191970" points="1135.7215,-84.0325 1142.1916,-75.6427 1131.9017,-78.1665 1135.7215,-84.0325"/>
</g>
<!-- Node17&#45;&gt;Node14 -->
<g id="edge20" class="edge">
<title>Node17&#45;&gt;Node14</title>
<path fill="none" stroke="#191970" d="M1044.6984,-112.3733C1019.5872,-103.1822 981.5562,-89.2624 953.7128,-79.0713"/>
<polygon fill="#191970" stroke="#191970" points="954.5522,-75.6516 943.9584,-75.5011 952.1462,-82.2251 954.5522,-75.6516"/>
</g>
<!-- Node18 -->
<g id="node19" class="node">
<title>Node18</title>
<polygon fill="none" stroke="#bfbfbf" points="675,-56.5 675,-75.5 739,-75.5 739,-56.5 675,-56.5"/>
<text text-anchor="middle" x="707" y="-63.5" font-family="Helvetica,sans-Serif" font-size="10.00" fill="#000000">algorithm</text>
</g>
<!-- Node17&#45;&gt;Node18 -->
<g id="edge22" class="edge">
<title>Node17&#45;&gt;Node18</title>
<path fill="none" stroke="#191970" d="M1013.3231,-113.1266C939.873,-101.8266 814.6753,-82.5654 749.4084,-72.5244"/>
<polygon fill="#191970" stroke="#191970" points="749.881,-69.056 739.4651,-70.9946 748.8166,-75.9746 749.881,-69.056"/>
</g>
<!-- Node20&#45;&gt;Node7 -->
<g id="edge27" class="edge">
<title>Node20&#45;&gt;Node7</title>
<path fill="none" stroke="#191970" d="M592.4735,-168.3733C617.8597,-159.1419 656.3645,-145.1402 684.422,-134.9375"/>
<polygon fill="#191970" stroke="#191970" points="685.6701,-138.2079 693.8719,-131.5011 683.2778,-131.6293 685.6701,-138.2079"/>
</g>
<!-- Node20&#45;&gt;Node8 -->
<g id="edge25" class="edge">
<title>Node20&#45;&gt;Node8</title>
<path fill="none" stroke="#191970" d="M502.3867,-172.3911C379.6321,-161.5475 117.6966,-138.3051 60.3453,-131.4168"/>
<polygon fill="#191970" stroke="#191970" points="60.5058,-127.9052 50.1167,-129.9825 59.5337,-134.8373 60.5058,-127.9052"/>
</g>
<!-- Node20&#45;&gt;Node10 -->
<g id="edge31" class="edge">
<title>Node20&#45;&gt;Node10</title>
<path fill="none" stroke="#191970" d="M502.1679,-169.6595C497.3755,-169.0813 492.6124,-168.5218 488,-168 328.4845,-149.955 283.3068,-164.7166 122.4553,-131.9136"/>
<polygon fill="#191970" stroke="#191970" points="122.6996,-128.3901 112.1977,-129.7899 121.2804,-135.2447 122.6996,-128.3901"/>
</g>
<!-- Node20&#45;&gt;Node18 -->
<g id="edge29" class="edge">
<title>Node20&#45;&gt;Node18</title>
<path fill="none" stroke="#191970" d="M532.8854,-168.4835C499.4971,-157.2347 455.5978,-136.8656 476,-112 499.3677,-83.5201 604.2749,-72.3429 664.365,-68.2203"/>
<polygon fill="#191970" stroke="#191970" points="664.9241,-71.6915 674.6766,-67.5518 664.4711,-64.7062 664.9241,-71.6915"/>
</g>
<!-- Node21 -->
<g id="node22" class="node">
<title>Node21</title>
<polygon fill="none" stroke="#bfbfbf" points="550,-112.5 550,-131.5 608,-131.5 608,-112.5 550,-112.5"/>
<text text-anchor="middle" x="579" y="-119.5" font-family="Helvetica,sans-Serif" font-size="10.00" fill="#000000">memory</text>
</g>
<!-- Node20&#45;&gt;Node21 -->
<g id="edge26" class="edge">
<title>Node20&#45;&gt;Node21</title>
<path fill="none" stroke="#191970" d="M568.2644,-168.2455C569.9794,-160.8579 572.3912,-150.4689 574.4944,-141.4087"/>
<polygon fill="#191970" stroke="#191970" points="577.9095,-142.1751 576.7615,-131.6427 571.0908,-140.5922 577.9095,-142.1751"/>
</g>
<!-- Node22 -->
<g id="node23" class="node">
<title>Node22</title>
<polygon fill="none" stroke="#bfbfbf" points="626,-112.5 626,-131.5 676,-131.5 676,-112.5 626,-112.5"/>
<text text-anchor="middle" x="651" y="-119.5" font-family="Helvetica,sans-Serif" font-size="10.00" fill="#000000">cstring</text>
</g>
<!-- Node20&#45;&gt;Node22 -->
<g id="edge28" class="edge">
<title>Node20&#45;&gt;Node22</title>
<path fill="none" stroke="#191970" d="M580.8059,-168.2455C593.7256,-159.7337 612.6931,-147.2375 627.6552,-137.3801"/>
<polygon fill="#191970" stroke="#191970" points="629.9387,-140.067 636.3638,-131.6427 626.0876,-134.2216 629.9387,-140.067"/>
</g>
<!-- Node23 -->
<g id="node24" class="node">
<title>Node23</title>
<polygon fill="none" stroke="#bfbfbf" points="130.5,-112.5 130.5,-131.5 195.5,-131.5 195.5,-112.5 130.5,-112.5"/>
<text text-anchor="middle" x="163" y="-119.5" font-family="Helvetica,sans-Serif" font-size="10.00" fill="#000000">stdexcept</text>
</g>
<!-- Node20&#45;&gt;Node23 -->
<g id="edge30" class="edge">
<title>Node20&#45;&gt;Node23</title>
<path fill="none" stroke="#191970" d="M502.1499,-169.8089C497.3617,-169.1962 492.6045,-168.588 488,-168 365.4235,-152.3461 331.4498,-154.5874 205.9432,-132.0123"/>
<polygon fill="#191970" stroke="#191970" points="206.409,-128.5397 195.9445,-130.1966 205.1582,-135.4271 206.409,-128.5397"/>
</g>
<!-- Node24 -->
<g id="node25" class="node">
<title>Node24</title>
<polygon fill="none" stroke="#bfbfbf" points="214,-112.5 214,-131.5 264,-131.5 264,-112.5 214,-112.5"/>
<text text-anchor="middle" x="239" y="-119.5" font-family="Helvetica,sans-Serif" font-size="10.00" fill="#000000">climits</text>
</g>
<!-- Node20&#45;&gt;Node24 -->
<g id="edge32" class="edge">
<title>Node20&#45;&gt;Node24</title>
<path fill="none" stroke="#191970" d="M502.1905,-168.9758C433.9443,-159.1592 329.1169,-143.5667 274.1406,-131.9828"/>
<polygon fill="#191970" stroke="#191970" points="274.6727,-128.5165 264.1554,-129.7957 273.1749,-135.3543 274.6727,-128.5165"/>
</g>
<!-- Node25 -->
<g id="node26" class="node">
<title>Node25</title>
<g id="a_node26"><a xlink:href="../../d7/df8/Types_8h.html" target="_top" xlink:title="MemoryResources/Types.h">
<polygon fill="none" stroke="#000000" points="282,-112.5 282,-131.5 428,-131.5 428,-112.5 282,-112.5"/>
<text text-anchor="middle" x="355" y="-119.5" font-family="Helvetica,sans-Serif" font-size="10.00" fill="#000000">MemoryResources/Types.h</text>
</a>
</g>
</g>
<!-- Node20&#45;&gt;Node25 -->
<g id="edge33" class="edge">
<title>Node20&#45;&gt;Node25</title>
<path fill="none" stroke="#191970" d="M529.7278,-168.3733C494.0342,-158.9001 439.4121,-144.4032 400.7549,-134.1435"/>
<polygon fill="#191970" stroke="#191970" points="401.3621,-130.6835 390.7989,-131.5011 399.5664,-137.4493 401.3621,-130.6835"/>
</g>
<!-- Node26 -->
<g id="node27" class="node">
<title>Node26</title>
<polygon fill="none" stroke="#bfbfbf" points="484.5,-112.5 484.5,-131.5 531.5,-131.5 531.5,-112.5 484.5,-112.5"/>
<text text-anchor="middle" x="508" y="-119.5" font-family="Helvetica,sans-Serif" font-size="10.00" fill="#000000">cerrno</text>
</g>
<!-- Node20&#45;&gt;Node26 -->
<g id="edge34" class="edge">
<title>Node20&#45;&gt;Node26</title>
<path fill="none" stroke="#191970" d="M555.8972,-168.2455C547.4972,-160.1352 535.3506,-148.4075 525.3916,-138.7919"/>
<polygon fill="#191970" stroke="#191970" points="527.6122,-136.0707 517.9871,-131.6427 522.75,-141.1066 527.6122,-136.0707"/>
</g>
</g>
</svg>
