<?xml version="1.0" encoding="UTF-8" standalone="no"?>
<!DOCTYPE svg PUBLIC "-//W3C//DTD SVG 1.1//EN"
 "http://www.w3.org/Graphics/SVG/1.1/DTD/svg11.dtd">
<!-- Generated by graphviz version 2.40.1 (20161225.0304)
 -->
<!-- Title: /home/travis/build/AliceO2Group/AliceO2/Detectors/ITSMFT/ITS/tracking/include/ITStracking/VertexerTraits.h Pages: 1 -->
<svg width="1522pt" height="520pt"
 viewBox="0.00 0.00 1522.00 520.00" xmlns="http://www.w3.org/2000/svg" xmlns:xlink="http://www.w3.org/1999/xlink">
<g id="graph0" class="graph" transform="scale(1 1) rotate(0) translate(4 516)">
<title>/home/travis/build/AliceO2Group/AliceO2/Detectors/ITSMFT/ITS/tracking/include/ITStracking/VertexerTraits.h</title>
<!-- Node0 -->
<g id="node1" class="node">
<title>Node0</title>
<polygon fill="#bfbfbf" stroke="#000000" points="881.5,-448.5 881.5,-511.5 1036.5,-511.5 1036.5,-448.5 881.5,-448.5"/>
<text text-anchor="start" x="889.5" y="-499.5" font-family="Helvetica,sans-Serif" font-size="10.00" fill="#000000">/home/travis/build</text>
<text text-anchor="start" x="889.5" y="-488.5" font-family="Helvetica,sans-Serif" font-size="10.00" fill="#000000">/AliceO2Group/AliceO2</text>
<text text-anchor="start" x="889.5" y="-477.5" font-family="Helvetica,sans-Serif" font-size="10.00" fill="#000000">/Detectors/ITSMFT/ITS</text>
<text text-anchor="start" x="889.5" y="-466.5" font-family="Helvetica,sans-Serif" font-size="10.00" fill="#000000">/tracking/include/ITStracking</text>
<text text-anchor="middle" x="959" y="-455.5" font-family="Helvetica,sans-Serif" font-size="10.00" fill="#000000">/VertexerTraits.h</text>
</g>
<!-- Node1 -->
<g id="node2" class="node">
<title>Node1</title>
<polygon fill="none" stroke="#bfbfbf" points="498,-56.5 498,-75.5 540,-75.5 540,-56.5 498,-56.5"/>
<text text-anchor="middle" x="519" y="-63.5" font-family="Helvetica,sans-Serif" font-size="10.00" fill="#000000">array</text>
</g>
<!-- Node0&#45;&gt;Node1 -->
<g id="edge1" class="edge">
<title>Node0&#45;&gt;Node1</title>
<path fill="none" stroke="#191970" d="M881.3333,-477.2865C653.0285,-468.2864 0,-434.7834 0,-346 0,-346 0,-346 0,-178 0,-137.7538 25.9102,-129.8123 62,-112 137.1547,-74.907 397.0103,-67.7147 487.5746,-66.3284"/>
<polygon fill="#191970" stroke="#191970" points="487.8058,-69.8257 497.756,-66.1865 487.7082,-62.8263 487.8058,-69.8257"/>
</g>
<!-- Node2 -->
<g id="node3" class="node">
<title>Node2</title>
<polygon fill="none" stroke="#bfbfbf" points="1470,-392.5 1470,-411.5 1514,-411.5 1514,-392.5 1470,-392.5"/>
<text text-anchor="middle" x="1492" y="-399.5" font-family="Helvetica,sans-Serif" font-size="10.00" fill="#000000">string</text>
</g>
<!-- Node0&#45;&gt;Node2 -->
<g id="edge2" class="edge">
<title>Node0&#45;&gt;Node2</title>
<path fill="none" stroke="#191970" d="M1036.6011,-472.6608C1134.867,-462.6181 1309.0841,-442.3112 1456,-412 1457.2507,-411.742 1458.522,-411.4645 1459.8032,-411.172"/>
<polygon fill="#191970" stroke="#191970" points="1460.7923,-414.5326 1469.6456,-408.7128 1459.0954,-407.7414 1460.7923,-414.5326"/>
</g>
<!-- Node3 -->
<g id="node4" class="node">
<title>Node3</title>
<polygon fill="none" stroke="#bfbfbf" points="204.5,-112.5 204.5,-131.5 251.5,-131.5 251.5,-112.5 204.5,-112.5"/>
<text text-anchor="middle" x="228" y="-119.5" font-family="Helvetica,sans-Serif" font-size="10.00" fill="#000000">vector</text>
</g>
<!-- Node0&#45;&gt;Node3 -->
<g id="edge3" class="edge">
<title>Node0&#45;&gt;Node3</title>
<path fill="none" stroke="#191970" d="M881.398,-474.3154C688.7348,-459.1663 204,-414.2681 204,-346 204,-346 204,-346 204,-234 204,-200.8465 214.1789,-163.3737 221.2788,-141.2684"/>
<polygon fill="#191970" stroke="#191970" points="224.6138,-142.3312 224.4587,-131.7375 217.9736,-140.1157 224.6138,-142.3312"/>
</g>
<!-- Node4 -->
<g id="node5" class="node">
<title>Node4</title>
<g id="a_node5"><a xlink:href="../../da/d7f/Detectors_2ITSMFT_2ITS_2tracking_2include_2ITStracking_2Cluster_8h.html" target="_top" xlink:title="ITStracking/Cluster.h">
<polygon fill="none" stroke="#000000" points="793.5,-280.5 793.5,-299.5 910.5,-299.5 910.5,-280.5 793.5,-280.5"/>
<text text-anchor="middle" x="852" y="-287.5" font-family="Helvetica,sans-Serif" font-size="10.00" fill="#000000">ITStracking/Cluster.h</text>
</a>
</g>
</g>
<!-- Node0&#45;&gt;Node4 -->
<g id="edge4" class="edge">
<title>Node0&#45;&gt;Node4</title>
<path fill="none" stroke="#191970" d="M952.2914,-448.3623C947.9034,-431.1014 941.2493,-409.7056 932,-392 914.7672,-359.0119 886.4142,-326.0784 868.4996,-306.8953"/>
<polygon fill="#191970" stroke="#191970" points="870.95,-304.393 861.5239,-299.5558 865.8761,-309.2155 870.95,-304.393"/>
</g>
<!-- Node5 -->
<g id="node6" class="node">
<title>Node5</title>
<g id="a_node6"><a xlink:href="../../df/d3d/Definitions_8h.html" target="_top" xlink:title="ITStracking/Definitions.h">
<polygon fill="none" stroke="#000000" points="532,-112.5 532,-131.5 668,-131.5 668,-112.5 532,-112.5"/>
<text text-anchor="middle" x="600" y="-119.5" font-family="Helvetica,sans-Serif" font-size="10.00" fill="#000000">ITStracking/Definitions.h</text>
</a>
</g>
</g>
<!-- Node0&#45;&gt;Node5 -->
<g id="edge57" class="edge">
<title>Node0&#45;&gt;Node5</title>
<path fill="none" stroke="#191970" d="M881.384,-473.1138C751.933,-459.4628 506,-423.3499 506,-346 506,-346 506,-346 506,-234 506,-191.1654 546.839,-156.139 574.6803,-137.2374"/>
<polygon fill="#191970" stroke="#191970" points="576.7353,-140.0756 583.1947,-131.6776 572.908,-134.2145 576.7353,-140.0756"/>
</g>
<!-- Node6 -->
<g id="node7" class="node">
<title>Node6</title>
<g id="a_node7"><a xlink:href="../../df/d21/GPUCommonDef_8h.html" target="_top" xlink:title="GPUCommonDef.h">
<polygon fill="none" stroke="#000000" points="1137.5,-56.5 1137.5,-75.5 1244.5,-75.5 1244.5,-56.5 1137.5,-56.5"/>
<text text-anchor="middle" x="1191" y="-63.5" font-family="Helvetica,sans-Serif" font-size="10.00" fill="#000000">GPUCommonDef.h</text>
</a>
</g>
</g>
<!-- Node0&#45;&gt;Node6 -->
<g id="edge60" class="edge">
<title>Node0&#45;&gt;Node6</title>
<path fill="none" stroke="#191970" d="M1036.6023,-474.5436C1173.1352,-462.7939 1442,-429.1055 1442,-346 1442,-346 1442,-346 1442,-178 1442,-135.2408 1409.4747,-132.5911 1372,-112 1351.0641,-100.4964 1294.2603,-86.995 1249.8168,-77.6071"/>
<polygon fill="#191970" stroke="#191970" points="1250.4703,-74.1682 1239.966,-75.5503 1249.0395,-81.0204 1250.4703,-74.1682"/>
</g>
<!-- Node15 -->
<g id="node16" class="node">
<title>Node15</title>
<g id="a_node16"><a xlink:href="../../d6/da2/GPUCommonMath_8h.html" target="_top" xlink:title="GPUCommonMath.h">
<polygon fill="none" stroke="#000000" points="1228.5,-112.5 1228.5,-131.5 1343.5,-131.5 1343.5,-112.5 1228.5,-112.5"/>
<text text-anchor="middle" x="1286" y="-119.5" font-family="Helvetica,sans-Serif" font-size="10.00" fill="#000000">GPUCommonMath.h</text>
</a>
</g>
</g>
<!-- Node0&#45;&gt;Node15 -->
<g id="edge59" class="edge">
<title>Node0&#45;&gt;Node15</title>
<path fill="none" stroke="#191970" d="M1036.5131,-472.7126C1164.0085,-458.5585 1404,-421.8426 1404,-346 1404,-346 1404,-346 1404,-234 1404,-186.754 1353.6202,-153.4321 1318.6982,-136.0095"/>
<polygon fill="#191970" stroke="#191970" points="1319.8442,-132.6779 1309.313,-131.5187 1316.8228,-138.9923 1319.8442,-132.6779"/>
</g>
<!-- Node22 -->
<g id="node23" class="node">
<title>Node22</title>
<g id="a_node23"><a xlink:href="../../d3/d59/Configuration_8h.html" target="_top" xlink:title="ITStracking/Configuration.h">
<polygon fill="none" stroke="#000000" points="27.5,-224.5 27.5,-243.5 176.5,-243.5 176.5,-224.5 27.5,-224.5"/>
<text text-anchor="middle" x="102" y="-231.5" font-family="Helvetica,sans-Serif" font-size="10.00" fill="#000000">ITStracking/Configuration.h</text>
</a>
</g>
</g>
<!-- Node0&#45;&gt;Node22 -->
<g id="edge40" class="edge">
<title>Node0&#45;&gt;Node22</title>
<path fill="none" stroke="#191970" d="M881.3243,-477.4134C697.348,-470.6843 246.1761,-450.4259 190,-412 135.0762,-374.4307 112.9475,-292.3146 105.3843,-254.1911"/>
<polygon fill="#191970" stroke="#191970" points="108.7371,-253.0713 103.4846,-243.8701 101.8527,-254.3385 108.7371,-253.0713"/>
</g>
<!-- Node23 -->
<g id="node24" class="node">
<title>Node23</title>
<g id="a_node24"><a xlink:href="../../df/d50/ClusterLines_8h.html" target="_top" xlink:title="ITStracking/ClusterLines.h">
<polygon fill="none" stroke="#000000" points="780.5,-392.5 780.5,-411.5 923.5,-411.5 923.5,-392.5 780.5,-392.5"/>
<text text-anchor="middle" x="852" y="-399.5" font-family="Helvetica,sans-Serif" font-size="10.00" fill="#000000">ITStracking/ClusterLines.h</text>
</a>
</g>
</g>
<!-- Node0&#45;&gt;Node23 -->
<g id="edge46" class="edge">
<title>Node0&#45;&gt;Node23</title>
<path fill="none" stroke="#191970" d="M915.7874,-448.4992C901.2256,-437.8841 885.6071,-426.4986 873.4696,-417.6507"/>
<polygon fill="#191970" stroke="#191970" points="875.4543,-414.7663 865.3117,-411.7039 871.3308,-420.4229 875.4543,-414.7663"/>
</g>
<!-- Node24 -->
<g id="node25" class="node">
<title>Node24</title>
<g id="a_node25"><a xlink:href="../../d8/db3/ITSMFT_2ITS_2tracking_2include_2ITStracking_2Tracklet_8h.html" target="_top" xlink:title="ITStracking/Tracklet.h">
<polygon fill="none" stroke="#000000" points="1209,-336.5 1209,-355.5 1331,-355.5 1331,-336.5 1209,-336.5"/>
<text text-anchor="middle" x="1270" y="-343.5" font-family="Helvetica,sans-Serif" font-size="10.00" fill="#000000">ITStracking/Tracklet.h</text>
</a>
</g>
</g>
<!-- Node0&#45;&gt;Node24 -->
<g id="edge58" class="edge">
<title>Node0&#45;&gt;Node24</title>
<path fill="none" stroke="#191970" d="M1036.7254,-466.6241C1084.4336,-456.2721 1145.6361,-439.0379 1195,-412 1218.3602,-399.205 1240.6819,-378.0118 1254.8053,-363.0998"/>
<polygon fill="#191970" stroke="#191970" points="1257.5568,-365.279 1261.7628,-355.5548 1252.4107,-360.5337 1257.5568,-365.279"/>
</g>
<!-- Node4&#45;&gt;Node1 -->
<g id="edge5" class="edge">
<title>Node4&#45;&gt;Node1</title>
<path fill="none" stroke="#191970" d="M793.3606,-281.9765C737.0812,-273.5537 656.6713,-259.4118 629,-244 569.1238,-210.6515 550.2695,-194.8781 523,-132 516.7198,-117.5191 516.0319,-99.5537 516.7408,-86.0245"/>
<polygon fill="#191970" stroke="#191970" points="520.2438,-86.1298 517.5727,-75.8773 513.2672,-85.5578 520.2438,-86.1298"/>
</g>
<!-- Node4&#45;&gt;Node5 -->
<g id="edge6" class="edge">
<title>Node4&#45;&gt;Node5</title>
<path fill="none" stroke="#191970" d="M793.0932,-282.7964C741.1406,-275.3661 670.4515,-262.2842 649,-244 618.1445,-217.7003 606.5172,-169.1628 602.2899,-141.9081"/>
<polygon fill="#191970" stroke="#191970" points="605.7116,-141.0949 600.8967,-131.6574 598.7754,-142.0377 605.7116,-141.0949"/>
</g>
<!-- Node10 -->
<g id="node11" class="node">
<title>Node10</title>
<g id="a_node11"><a xlink:href="../../dc/d3e/MathUtils_8h.html" target="_top" xlink:title="ITStracking/MathUtils.h">
<polygon fill="none" stroke="#000000" points="901,-224.5 901,-243.5 1031,-243.5 1031,-224.5 901,-224.5"/>
<text text-anchor="middle" x="966" y="-231.5" font-family="Helvetica,sans-Serif" font-size="10.00" fill="#000000">ITStracking/MathUtils.h</text>
</a>
</g>
</g>
<!-- Node4&#45;&gt;Node10 -->
<g id="edge12" class="edge">
<title>Node4&#45;&gt;Node10</title>
<path fill="none" stroke="#191970" d="M871.5973,-280.3733C889.7331,-271.4644 916.9135,-258.1127 937.4587,-248.0203"/>
<polygon fill="#191970" stroke="#191970" points="939.2261,-251.0517 946.6584,-243.5011 936.1397,-244.7688 939.2261,-251.0517"/>
</g>
<!-- Node20 -->
<g id="node21" class="node">
<title>Node20</title>
<g id="a_node21"><a xlink:href="../../dc/ddf/ITS_2tracking_2include_2ITStracking_2IndexTableUtils_8h.html" target="_top" xlink:title="ITStracking/IndexTableUtils.h">
<polygon fill="none" stroke="#000000" points="658,-224.5 658,-243.5 816,-243.5 816,-224.5 658,-224.5"/>
<text text-anchor="middle" x="737" y="-231.5" font-family="Helvetica,sans-Serif" font-size="10.00" fill="#000000">ITStracking/IndexTableUtils.h</text>
</a>
</g>
</g>
<!-- Node4&#45;&gt;Node20 -->
<g id="edge32" class="edge">
<title>Node4&#45;&gt;Node20</title>
<path fill="none" stroke="#191970" d="M832.2308,-280.3733C813.8531,-271.4241 786.2688,-257.9917 765.5107,-247.8835"/>
<polygon fill="#191970" stroke="#191970" points="767.0343,-244.7325 756.5112,-243.5011 763.9696,-251.026 767.0343,-244.7325"/>
</g>
<!-- Node5&#45;&gt;Node1 -->
<g id="edge7" class="edge">
<title>Node5&#45;&gt;Node1</title>
<path fill="none" stroke="#191970" d="M585.8909,-112.2455C573.5791,-103.7337 555.5042,-91.2375 541.2462,-81.3801"/>
<polygon fill="#191970" stroke="#191970" points="543.1634,-78.4506 532.9474,-75.6427 539.1826,-84.2085 543.1634,-78.4506"/>
</g>
<!-- Node5&#45;&gt;Node6 -->
<g id="edge8" class="edge">
<title>Node5&#45;&gt;Node6</title>
<path fill="none" stroke="#191970" d="M668.0836,-115.5488C783.3153,-104.63 1015.1694,-82.6608 1127.338,-72.0323"/>
<polygon fill="#191970" stroke="#191970" points="1127.8608,-75.4985 1137.4861,-71.0707 1127.2005,-68.5297 1127.8608,-75.4985"/>
</g>
<!-- Node9 -->
<g id="node10" class="node">
<title>Node9</title>
<polygon fill="none" stroke="#bfbfbf" points="573.5,-56.5 573.5,-75.5 626.5,-75.5 626.5,-56.5 573.5,-56.5"/>
<text text-anchor="middle" x="600" y="-63.5" font-family="Helvetica,sans-Serif" font-size="10.00" fill="#000000">cstddef</text>
</g>
<!-- Node5&#45;&gt;Node9 -->
<g id="edge11" class="edge">
<title>Node5&#45;&gt;Node9</title>
<path fill="none" stroke="#191970" d="M600,-112.2455C600,-104.9382 600,-94.6944 600,-85.7046"/>
<polygon fill="#191970" stroke="#191970" points="603.5001,-85.6426 600,-75.6427 596.5001,-85.6427 603.5001,-85.6426"/>
</g>
<!-- Node7 -->
<g id="node8" class="node">
<title>Node7</title>
<g id="a_node8"><a xlink:href="../../d5/d93/GPUCommonDefSettings_8h.html" target="_top" xlink:title="GPUCommonDefSettings.h">
<polygon fill="none" stroke="#000000" points="1040,-.5 1040,-19.5 1188,-19.5 1188,-.5 1040,-.5"/>
<text text-anchor="middle" x="1114" y="-7.5" font-family="Helvetica,sans-Serif" font-size="10.00" fill="#000000">GPUCommonDefSettings.h</text>
</a>
</g>
</g>
<!-- Node6&#45;&gt;Node7 -->
<g id="edge9" class="edge">
<title>Node6&#45;&gt;Node7</title>
<path fill="none" stroke="#191970" d="M1177.5876,-56.2455C1165.9943,-47.814 1149.0252,-35.4729 1135.5322,-25.6598"/>
<polygon fill="#191970" stroke="#191970" points="1137.4047,-22.6938 1127.2587,-19.6427 1133.2874,-28.355 1137.4047,-22.6938"/>
</g>
<!-- Node8 -->
<g id="node9" class="node">
<title>Node8</title>
<g id="a_node9"><a xlink:href="../../da/d5a/GPUCommonDefAPI_8h.html" target="_top" xlink:title="GPUCommonDefAPI.h">
<polygon fill="none" stroke="#000000" points="1206,-.5 1206,-19.5 1330,-19.5 1330,-.5 1206,-.5"/>
<text text-anchor="middle" x="1268" y="-7.5" font-family="Helvetica,sans-Serif" font-size="10.00" fill="#000000">GPUCommonDefAPI.h</text>
</a>
</g>
</g>
<!-- Node6&#45;&gt;Node8 -->
<g id="edge10" class="edge">
<title>Node6&#45;&gt;Node8</title>
<path fill="none" stroke="#191970" d="M1204.4124,-56.2455C1216.0057,-47.814 1232.9748,-35.4729 1246.4678,-25.6598"/>
<polygon fill="#191970" stroke="#191970" points="1248.7126,-28.355 1254.7413,-19.6427 1244.5953,-22.6938 1248.7126,-28.355"/>
</g>
<!-- Node10&#45;&gt;Node1 -->
<g id="edge13" class="edge">
<title>Node10&#45;&gt;Node1</title>
<path fill="none" stroke="#191970" d="M947.864,-224.4428C905.1433,-202.2286 794.4367,-146.3947 697,-112 669.9719,-102.4592 593.2566,-83.6643 549.8752,-73.2961"/>
<polygon fill="#191970" stroke="#191970" points="550.6661,-69.8866 540.1272,-70.974 549.044,-76.6961 550.6661,-69.8866"/>
</g>
<!-- Node10&#45;&gt;Node6 -->
<g id="edge31" class="edge">
<title>Node10&#45;&gt;Node6</title>
<path fill="none" stroke="#191970" d="M1022.563,-224.4385C1052.3397,-217.5767 1088.4845,-206.2302 1117,-188 1145.112,-170.0278 1149.8794,-160.6386 1167,-132 1175.6882,-117.4668 1182.0129,-99.2787 1185.9816,-85.6781"/>
<polygon fill="#191970" stroke="#191970" points="1189.3905,-86.4812 1188.6594,-75.9116 1182.6396,-84.6302 1189.3905,-86.4812"/>
</g>
<!-- Node11 -->
<g id="node12" class="node">
<title>Node11</title>
<polygon fill="none" stroke="#bfbfbf" points="869.5,-56.5 869.5,-75.5 916.5,-75.5 916.5,-56.5 869.5,-56.5"/>
<text text-anchor="middle" x="893" y="-63.5" font-family="Helvetica,sans-Serif" font-size="10.00" fill="#000000">cmath</text>
</g>
<!-- Node10&#45;&gt;Node11 -->
<g id="edge14" class="edge">
<title>Node10&#45;&gt;Node11</title>
<path fill="none" stroke="#191970" d="M957.2661,-224.382C949.5343,-215.4729 938.3645,-201.5862 931,-188 912.7562,-154.3432 901.841,-110.6241 896.6642,-85.7029"/>
<polygon fill="#191970" stroke="#191970" points="900.0558,-84.811 894.6838,-75.6791 893.1885,-86.1678 900.0558,-84.811"/>
</g>
<!-- Node12 -->
<g id="node13" class="node">
<title>Node12</title>
<polygon fill="none" stroke="#bfbfbf" points="940,-168.5 940,-187.5 992,-187.5 992,-168.5 940,-168.5"/>
<text text-anchor="middle" x="966" y="-175.5" font-family="Helvetica,sans-Serif" font-size="10.00" fill="#000000">cassert</text>
</g>
<!-- Node10&#45;&gt;Node12 -->
<g id="edge15" class="edge">
<title>Node10&#45;&gt;Node12</title>
<path fill="none" stroke="#191970" d="M966,-224.2455C966,-216.9382 966,-206.6944 966,-197.7046"/>
<polygon fill="#191970" stroke="#191970" points="969.5001,-197.6426 966,-187.6427 962.5001,-197.6427 969.5001,-197.6426"/>
</g>
<!-- Node13 -->
<g id="node14" class="node">
<title>Node13</title>
<polygon fill="none" stroke="#bfbfbf" points="1240,-168.5 1240,-187.5 1300,-187.5 1300,-168.5 1240,-168.5"/>
<text text-anchor="middle" x="1270" y="-175.5" font-family="Helvetica,sans-Serif" font-size="10.00" fill="#000000">iostream</text>
</g>
<!-- Node10&#45;&gt;Node13 -->
<g id="edge16" class="edge">
<title>Node10&#45;&gt;Node13</title>
<path fill="none" stroke="#191970" d="M1017.914,-224.4369C1077.9756,-213.3729 1175.5687,-195.3952 1230.0286,-185.3632"/>
<polygon fill="#191970" stroke="#191970" points="1230.7987,-188.7803 1239.9992,-183.5265 1229.5305,-181.8961 1230.7987,-188.7803"/>
</g>
<!-- Node14 -->
<g id="node15" class="node">
<title>Node14</title>
<g id="a_node15"><a xlink:href="../../d9/d52/Common_2MathUtils_2include_2MathUtils_2Utils_8h.html" target="_top" xlink:title="MathUtils/Utils.h">
<polygon fill="none" stroke="#000000" points="1010,-168.5 1010,-187.5 1108,-187.5 1108,-168.5 1010,-168.5"/>
<text text-anchor="middle" x="1059" y="-175.5" font-family="Helvetica,sans-Serif" font-size="10.00" fill="#000000">MathUtils/Utils.h</text>
</a>
</g>
</g>
<!-- Node10&#45;&gt;Node14 -->
<g id="edge17" class="edge">
<title>Node10&#45;&gt;Node14</title>
<path fill="none" stroke="#191970" d="M982.1994,-224.2455C996.6018,-215.5731 1017.8732,-202.7645 1034.3799,-192.825"/>
<polygon fill="#191970" stroke="#191970" points="1036.225,-195.7996 1042.9863,-187.6427 1032.614,-189.8028 1036.225,-195.7996"/>
</g>
<!-- Node10&#45;&gt;Node15 -->
<g id="edge30" class="edge">
<title>Node10&#45;&gt;Node15</title>
<path fill="none" stroke="#191970" d="M1016.0328,-224.4205C1053.5159,-216.5443 1105.7424,-204.0749 1150,-188 1189.7191,-173.5735 1233.2757,-151.185 1260.1297,-136.5573"/>
<polygon fill="#191970" stroke="#191970" points="1261.8239,-139.62 1268.898,-131.7328 1258.4494,-133.4871 1261.8239,-139.62"/>
</g>
<!-- Node18 -->
<g id="node19" class="node">
<title>Node18</title>
<g id="a_node19"><a xlink:href="../../d0/d86/Detectors_2ITSMFT_2ITS_2tracking_2include_2ITStracking_2Constants_8h.html" target="_top" xlink:title="ITStracking/Constants.h">
<polygon fill="none" stroke="#000000" points="308,-168.5 308,-187.5 440,-187.5 440,-168.5 308,-168.5"/>
<text text-anchor="middle" x="374" y="-175.5" font-family="Helvetica,sans-Serif" font-size="10.00" fill="#000000">ITStracking/Constants.h</text>
</a>
</g>
</g>
<!-- Node10&#45;&gt;Node18 -->
<g id="edge26" class="edge">
<title>Node10&#45;&gt;Node18</title>
<path fill="none" stroke="#191970" d="M900.9522,-227.8468C790.6307,-217.411 567.4103,-196.2956 450.0463,-185.1936"/>
<polygon fill="#191970" stroke="#191970" points="450.3447,-181.7063 440.0595,-184.2489 449.6855,-188.6752 450.3447,-181.7063"/>
</g>
<!-- Node14&#45;&gt;Node1 -->
<g id="edge18" class="edge">
<title>Node14&#45;&gt;Node1</title>
<path fill="none" stroke="#191970" d="M1020.891,-168.4356C966.3718,-154.9215 862.8743,-129.893 774,-112 681.1679,-93.3102 656.9144,-94.2766 564,-76 559.4602,-75.107 554.6759,-74.1074 549.989,-73.0948"/>
<polygon fill="#191970" stroke="#191970" points="550.5365,-69.6314 540.0171,-70.8937 549.0277,-76.4669 550.5365,-69.6314"/>
</g>
<!-- Node14&#45;&gt;Node6 -->
<g id="edge20" class="edge">
<title>Node14&#45;&gt;Node6</title>
<path fill="none" stroke="#191970" d="M1082.8436,-168.371C1100.6925,-160.3924 1125.0236,-147.8145 1143,-132 1158.5576,-118.3134 1172.0052,-98.7243 1180.6761,-84.4437"/>
<polygon fill="#191970" stroke="#191970" points="1183.8546,-85.9418 1185.8832,-75.543 1177.8126,-82.4071 1183.8546,-85.9418"/>
</g>
<!-- Node14&#45;&gt;Node11 -->
<g id="edge19" class="edge">
<title>Node14&#45;&gt;Node11</title>
<path fill="none" stroke="#191970" d="M1009.9132,-168.9087C984.1905,-162.1689 953.4575,-150.7892 931,-132 916.3118,-119.711 906.0799,-100.1999 899.9637,-85.5732"/>
<polygon fill="#191970" stroke="#191970" points="903.1135,-84.0153 896.2326,-75.959 896.5877,-86.5479 903.1135,-84.0153"/>
</g>
<!-- Node14&#45;&gt;Node15 -->
<g id="edge21" class="edge">
<title>Node14&#45;&gt;Node15</title>
<path fill="none" stroke="#191970" d="M1097.7648,-168.4369C1136.3692,-158.9133 1195.7384,-144.2672 1237.4572,-133.9753"/>
<polygon fill="#191970" stroke="#191970" points="1238.5245,-137.317 1247.3951,-131.5237 1236.8479,-130.5208 1238.5245,-137.317"/>
</g>
<!-- Node17 -->
<g id="node18" class="node">
<title>Node17</title>
<g id="a_node18"><a xlink:href="../../d6/d84/MathConstants_8h.html" target="_top" xlink:title="useful math constants ">
<polygon fill="none" stroke="#000000" points="940,-112.5 940,-131.5 1134,-131.5 1134,-112.5 940,-112.5"/>
<text text-anchor="middle" x="1037" y="-119.5" font-family="Helvetica,sans-Serif" font-size="10.00" fill="#000000">CommonConstants/MathConstants.h</text>
</a>
</g>
</g>
<!-- Node14&#45;&gt;Node17 -->
<g id="edge25" class="edge">
<title>Node14&#45;&gt;Node17</title>
<path fill="none" stroke="#191970" d="M1055.1679,-168.2455C1052.2341,-160.7776 1048.0953,-150.2427 1044.509,-141.1137"/>
<polygon fill="#191970" stroke="#191970" points="1047.7024,-139.6704 1040.7882,-131.6427 1041.1871,-142.23 1047.7024,-139.6704"/>
</g>
<!-- Node15&#45;&gt;Node6 -->
<g id="edge22" class="edge">
<title>Node15&#45;&gt;Node6</title>
<path fill="none" stroke="#191970" d="M1269.4523,-112.2455C1254.7401,-103.5731 1233.0112,-90.7645 1216.1495,-80.825"/>
<polygon fill="#191970" stroke="#191970" points="1217.7502,-77.7057 1207.3581,-75.6427 1214.1954,-83.736 1217.7502,-77.7057"/>
</g>
<!-- Node15&#45;&gt;Node11 -->
<g id="edge23" class="edge">
<title>Node15&#45;&gt;Node11</title>
<path fill="none" stroke="#191970" d="M1228.4335,-113.7971C1145.2572,-101.945 994.0843,-80.4039 926.8297,-70.8205"/>
<polygon fill="#191970" stroke="#191970" points="927.1733,-67.3342 916.7795,-69.3884 926.1858,-74.2642 927.1733,-67.3342"/>
</g>
<!-- Node16 -->
<g id="node17" class="node">
<title>Node16</title>
<polygon fill="none" stroke="#bfbfbf" points="1263,-56.5 1263,-75.5 1327,-75.5 1327,-56.5 1263,-56.5"/>
<text text-anchor="middle" x="1295" y="-63.5" font-family="Helvetica,sans-Serif" font-size="10.00" fill="#000000">algorithm</text>
</g>
<!-- Node15&#45;&gt;Node16 -->
<g id="edge24" class="edge">
<title>Node15&#45;&gt;Node16</title>
<path fill="none" stroke="#191970" d="M1287.5677,-112.2455C1288.7421,-104.9382 1290.3884,-94.6944 1291.8332,-85.7046"/>
<polygon fill="#191970" stroke="#191970" points="1295.3191,-86.0714 1293.4503,-75.6427 1288.4078,-84.9606 1295.3191,-86.0714"/>
</g>
<!-- Node18&#45;&gt;Node3 -->
<g id="edge28" class="edge">
<title>Node18&#45;&gt;Node3</title>
<path fill="none" stroke="#191970" d="M348.9017,-168.3733C324.7553,-159.1116 288.0901,-145.0482 261.4683,-134.8371"/>
<polygon fill="#191970" stroke="#191970" points="262.3942,-131.4437 251.804,-131.1303 259.8873,-137.9794 262.3942,-131.4437"/>
</g>
<!-- Node18&#45;&gt;Node5 -->
<g id="edge29" class="edge">
<title>Node18&#45;&gt;Node5</title>
<path fill="none" stroke="#191970" d="M412.594,-168.4369C451.0284,-158.9133 510.136,-144.2672 551.671,-133.9753"/>
<polygon fill="#191970" stroke="#191970" points="552.7006,-137.3261 561.5652,-131.5237 551.0169,-130.5316 552.7006,-137.3261"/>
</g>
<!-- Node19 -->
<g id="node20" class="node">
<title>Node19</title>
<polygon fill="none" stroke="#bfbfbf" points="127,-112.5 127,-131.5 177,-131.5 177,-112.5 127,-112.5"/>
<text text-anchor="middle" x="152" y="-119.5" font-family="Helvetica,sans-Serif" font-size="10.00" fill="#000000">climits</text>
</g>
<!-- Node18&#45;&gt;Node19 -->
<g id="edge27" class="edge">
<title>Node18&#45;&gt;Node19</title>
<path fill="none" stroke="#191970" d="M336.0891,-168.4369C294.3049,-157.8967 227.6464,-141.082 187.0437,-130.8398"/>
<polygon fill="#191970" stroke="#191970" points="187.8657,-127.4376 177.3133,-128.3853 186.1535,-134.225 187.8657,-127.4376"/>
</g>
<!-- Node20&#45;&gt;Node1 -->
<g id="edge33" class="edge">
<title>Node20&#45;&gt;Node1</title>
<path fill="none" stroke="#191970" d="M732.3109,-224.2018C718.5982,-195.5828 679.3837,-114.0017 677,-112 667.1512,-103.7294 592.9885,-84.3355 549.8583,-73.5578"/>
<polygon fill="#191970" stroke="#191970" points="550.6815,-70.156 540.1327,-71.142 548.994,-76.9496 550.6815,-70.156"/>
</g>
<!-- Node20&#45;&gt;Node3 -->
<g id="edge35" class="edge">
<title>Node20&#45;&gt;Node3</title>
<path fill="none" stroke="#191970" d="M696.5167,-224.453C640.8343,-211.3833 537.4484,-187.3377 449,-168 382.6818,-153.5007 304.929,-137.5625 261.5782,-128.7709"/>
<polygon fill="#191970" stroke="#191970" points="262.0781,-125.3012 251.5824,-126.7468 260.6888,-132.162 262.0781,-125.3012"/>
</g>
<!-- Node20&#45;&gt;Node5 -->
<g id="edge37" class="edge">
<title>Node20&#45;&gt;Node5</title>
<path fill="none" stroke="#191970" d="M725.3195,-224.4509C701.7617,-205.1921 648.3437,-161.5218 619.4411,-137.8935"/>
<polygon fill="#191970" stroke="#191970" points="621.6084,-135.1445 611.651,-131.5249 617.1778,-140.564 621.6084,-135.1445"/>
</g>
<!-- Node20&#45;&gt;Node6 -->
<g id="edge39" class="edge">
<title>Node20&#45;&gt;Node6</title>
<path fill="none" stroke="#191970" d="M748.8133,-224.2163C777.8121,-200.7521 855.6472,-141.0744 931,-112 995.1835,-87.2353 1073.4694,-75.6975 1127.2644,-70.3895"/>
<polygon fill="#191970" stroke="#191970" points="1127.7225,-73.8619 1137.35,-69.4389 1127.0657,-66.8928 1127.7225,-73.8619"/>
</g>
<!-- Node20&#45;&gt;Node15 -->
<g id="edge38" class="edge">
<title>Node20&#45;&gt;Node15</title>
<path fill="none" stroke="#191970" d="M760.1534,-224.4378C796.0927,-209.9832 867.7593,-182.7001 931,-168 1029.3714,-145.1338 1145.9042,-132.7619 1217.9005,-126.7752"/>
<polygon fill="#191970" stroke="#191970" points="1218.5091,-130.2373 1228.1923,-125.9377 1217.9413,-123.2603 1218.5091,-130.2373"/>
</g>
<!-- Node20&#45;&gt;Node18 -->
<g id="edge36" class="edge">
<title>Node20&#45;&gt;Node18</title>
<path fill="none" stroke="#191970" d="M675.0105,-224.4369C611.4502,-214.6314 512.6899,-199.3957 445.7777,-189.0731"/>
<polygon fill="#191970" stroke="#191970" points="446.1505,-185.5893 435.7338,-187.5237 445.0832,-192.5075 446.1505,-185.5893"/>
</g>
<!-- Node21 -->
<g id="node22" class="node">
<title>Node21</title>
<polygon fill="none" stroke="#bfbfbf" points="724.5,-168.5 724.5,-187.5 769.5,-187.5 769.5,-168.5 724.5,-168.5"/>
<text text-anchor="middle" x="747" y="-175.5" font-family="Helvetica,sans-Serif" font-size="10.00" fill="#000000">utility</text>
</g>
<!-- Node20&#45;&gt;Node21 -->
<g id="edge34" class="edge">
<title>Node20&#45;&gt;Node21</title>
<path fill="none" stroke="#191970" d="M738.7419,-224.2455C740.0467,-216.9382 741.876,-206.6944 743.4813,-197.7046"/>
<polygon fill="#191970" stroke="#191970" points="746.9656,-198.1022 745.2781,-187.6427 740.0746,-196.8717 746.9656,-198.1022"/>
</g>
<!-- Node22&#45;&gt;Node1 -->
<g id="edge41" class="edge">
<title>Node22&#45;&gt;Node1</title>
<path fill="none" stroke="#191970" d="M95.1075,-224.3421C79.8306,-201.6667 46.7082,-144.4909 76,-112 103.5411,-81.4511 391.3277,-69.9064 487.7296,-66.8787"/>
<polygon fill="#191970" stroke="#191970" points="487.8518,-70.3767 497.7405,-66.5735 487.6385,-63.3799 487.8518,-70.3767"/>
</g>
<!-- Node22&#45;&gt;Node3 -->
<g id="edge43" class="edge">
<title>Node22&#45;&gt;Node3</title>
<path fill="none" stroke="#191970" d="M112.7427,-224.4509C134.3159,-205.2747 183.1167,-161.8962 209.7763,-138.1988"/>
<polygon fill="#191970" stroke="#191970" points="212.1357,-140.7845 217.2845,-131.5249 207.4851,-135.5526 212.1357,-140.7845"/>
</g>
<!-- Node22&#45;&gt;Node11 -->
<g id="edge44" class="edge">
<title>Node22&#45;&gt;Node11</title>
<path fill="none" stroke="#191970" d="M99.6928,-224.2779C94.7993,-200.9507 86.2658,-141.554 118,-112 131.7726,-99.1736 711.7401,-73.701 859.1858,-67.4231"/>
<polygon fill="#191970" stroke="#191970" points="859.5845,-70.9095 869.4271,-66.9884 859.2876,-63.9158 859.5845,-70.9095"/>
</g>
<!-- Node22&#45;&gt;Node18 -->
<g id="edge45" class="edge">
<title>Node22&#45;&gt;Node18</title>
<path fill="none" stroke="#191970" d="M148.4494,-224.4369C195.2935,-214.7925 267.6539,-199.8948 317.7262,-189.5858"/>
<polygon fill="#191970" stroke="#191970" points="318.6534,-192.9684 327.7422,-187.5237 317.2418,-186.1122 318.6534,-192.9684"/>
</g>
<!-- Node22&#45;&gt;Node19 -->
<g id="edge42" class="edge">
<title>Node22&#45;&gt;Node19</title>
<path fill="none" stroke="#191970" d="M106.263,-224.4509C114.5286,-205.936 132.8665,-164.8591 143.6434,-140.7187"/>
<polygon fill="#191970" stroke="#191970" points="146.8672,-142.0831 147.7478,-131.5249 140.4753,-139.2295 146.8672,-142.0831"/>
</g>
<!-- Node23&#45;&gt;Node1 -->
<g id="edge47" class="edge">
<title>Node23&#45;&gt;Node1</title>
<path fill="none" stroke="#191970" d="M780.4239,-395.3882C626.9425,-380.2455 280,-340.4375 280,-290 280,-290 280,-290 280,-178 280,-132.64 422.9401,-90.4542 487.7338,-73.6617"/>
<polygon fill="#191970" stroke="#191970" points="488.9654,-76.9597 497.7903,-71.0971 487.2356,-70.1768 488.9654,-76.9597"/>
</g>
<!-- Node23&#45;&gt;Node3 -->
<g id="edge48" class="edge">
<title>Node23&#45;&gt;Node3</title>
<path fill="none" stroke="#191970" d="M780.4667,-400.6697C633.1102,-397.3184 306.1065,-386.5006 266,-356 241.1556,-337.1061 242,-321.2125 242,-290 242,-290 242,-290 242,-234 242,-201.311 236.0554,-163.6669 231.9134,-141.4058"/>
<polygon fill="#191970" stroke="#191970" points="235.3403,-140.692 230.0059,-131.5381 228.4676,-142.0207 235.3403,-140.692"/>
</g>
<!-- Node23&#45;&gt;Node4 -->
<g id="edge49" class="edge">
<title>Node23&#45;&gt;Node4</title>
<path fill="none" stroke="#191970" d="M852,-392.4509C852,-374.184 852,-333.9553 852,-309.6976"/>
<polygon fill="#191970" stroke="#191970" points="855.5001,-309.5249 852,-299.5249 848.5001,-309.5249 855.5001,-309.5249"/>
</g>
<!-- Node23&#45;&gt;Node5 -->
<g id="edge50" class="edge">
<title>Node23&#45;&gt;Node5</title>
<path fill="none" stroke="#191970" d="M790.4119,-392.4437C700.5296,-376.7329 544,-341.9193 544,-290 544,-290 544,-290 544,-234 544,-197.4776 568.1172,-160.6564 584.6978,-139.6576"/>
<polygon fill="#191970" stroke="#191970" points="587.6115,-141.6242 591.25,-131.6738 582.2004,-137.1834 587.6115,-141.6242"/>
</g>
<!-- Node23&#45;&gt;Node15 -->
<g id="edge56" class="edge">
<title>Node23&#45;&gt;Node15</title>
<path fill="none" stroke="#191970" d="M867.4958,-392.3277C915.4136,-362.3759 1065.3509,-268.3393 1188,-188 1214.189,-170.8453 1243.9842,-150.6863 1263.7769,-137.2027"/>
<polygon fill="#191970" stroke="#191970" points="1265.8299,-140.0391 1272.1181,-131.5121 1261.8849,-134.2566 1265.8299,-140.0391"/>
</g>
<!-- Node23&#45;&gt;Node24 -->
<g id="edge51" class="edge">
<title>Node23&#45;&gt;Node24</title>
<path fill="none" stroke="#191970" d="M923.3818,-392.4369C1000.2591,-382.1375 1121.8559,-365.8471 1198.701,-355.552"/>
<polygon fill="#191970" stroke="#191970" points="1199.3262,-358.9996 1208.7729,-354.2027 1198.3966,-352.0616 1199.3262,-358.9996"/>
</g>
<!-- Node24&#45;&gt;Node4 -->
<g id="edge52" class="edge">
<title>Node24&#45;&gt;Node4</title>
<path fill="none" stroke="#191970" d="M1208.7716,-337.7971C1132.0068,-327.5129 1000.7885,-309.9334 920.6811,-299.2013"/>
<polygon fill="#191970" stroke="#191970" points="921.0675,-295.7219 910.6913,-297.8629 920.138,-302.6599 921.0675,-295.7219"/>
</g>
<!-- Node24&#45;&gt;Node6 -->
<g id="edge55" class="edge">
<title>Node24&#45;&gt;Node6</title>
<path fill="none" stroke="#191970" d="M1279.5569,-336.0875C1311.4514,-301.8022 1409.129,-186.2857 1353,-112 1346.2203,-103.0271 1289.0701,-88.2234 1244.5466,-77.8391"/>
<polygon fill="#191970" stroke="#191970" points="1245.2197,-74.4024 1234.6886,-75.5632 1243.645,-81.223 1245.2197,-74.4024"/>
</g>
<!-- Node24&#45;&gt;Node13 -->
<g id="edge53" class="edge">
<title>Node24&#45;&gt;Node13</title>
<path fill="none" stroke="#191970" d="M1270,-336.4862C1270,-309.9293 1270,-234.5651 1270,-198.1655"/>
<polygon fill="#191970" stroke="#191970" points="1273.5001,-197.8278 1270,-187.8279 1266.5001,-197.8279 1273.5001,-197.8278"/>
</g>
<!-- Node24&#45;&gt;Node15 -->
<g id="edge54" class="edge">
<title>Node24&#45;&gt;Node15</title>
<path fill="none" stroke="#191970" d="M1273.3919,-336.1826C1281.6686,-311.6059 1302.6837,-245.2907 1309,-188 1309.9741,-179.1646 1311.0422,-176.6511 1309,-168 1306.7294,-158.3814 1302.1225,-148.4809 1297.6241,-140.3404"/>
<polygon fill="#191970" stroke="#191970" points="1300.633,-138.5524 1292.5397,-131.7151 1294.6027,-142.1071 1300.633,-138.5524"/>
</g>
</g>
</svg>
