<?xml version="1.0" encoding="UTF-8" standalone="no"?>
<!DOCTYPE svg PUBLIC "-//W3C//DTD SVG 1.1//EN"
 "http://www.w3.org/Graphics/SVG/1.1/DTD/svg11.dtd">
<!-- Generated by graphviz version 2.40.1 (20161225.0304)
 -->
<!-- Title: /home/travis/build/AliceO2Group/AliceO2/GPU/GPUTracking/SliceTracker/GPUTPCGlobalTracking.h Pages: 1 -->
<!--zoomable 565 -->
<svg id="main" version="1.1" xmlns="http://www.w3.org/2000/svg" xmlns:xlink="http://www.w3.org/1999/xlink" xml:space="preserve" onload="init(evt)">
<style type="text/css"><![CDATA[
.edge:hover path { stroke: red; }
.edge:hover polygon { stroke: red; fill: red; }
]]></style>
<script type="text/javascript"><![CDATA[
var edges = document.getElementsByTagName('g');
if (edges && edges.length) {
  for (var i=0;i<edges.length;i++) {
    if (edges[i].id.substr(0,4)=='edge') {
      edges[i].setAttribute('class','edge');
    }
  }
}
]]></script>
        <defs>
                <circle id="rim" cx="0" cy="0" r="7"/>
                <circle id="rim2" cx="0" cy="0" r="3.5"/>
                <g id="zoomPlus">
                        <use xlink:href="#rim" fill="#404040">
                                <set attributeName="fill" to="#808080" begin="zoomplus.mouseover" end="zoomplus.mouseout"/>
                        </use>
                        <path d="M-4,0h8M0,-4v8" fill="none" stroke="white" stroke-width="1.5" pointer-events="none"/>
                </g>
                <g id="zoomMin">
                        <use xlink:href="#rim" fill="#404040">
                                <set attributeName="fill" to="#808080" begin="zoomminus.mouseover" end="zoomminus.mouseout"/>
                        </use>
                        <path d="M-4,0h8" fill="none" stroke="white" stroke-width="1.5" pointer-events="none"/>
                </g>
                <g id="dirArrow">
                        <path fill="none" stroke="white" stroke-width="1.5" d="M0,-3.0v7 M-2.5,-0.5L0,-3.0L2.5,-0.5"/>
                </g>
               <g id="resetDef">
                       <use xlink:href="#rim2" fill="#404040">
                               <set attributeName="fill" to="#808080" begin="reset.mouseover" end="reset.mouseout"/>
                       </use>
               </g>
        </defs>

<script type="text/javascript">
var viewWidth = 1644;
var viewHeight = 565;
var sectionId = 'dynsection-0';
</script>
<script xlink:href="../../svgpan.js"/>
<svg id="graph" class="graph">
<g id="viewport">
<title>/home/travis/build/AliceO2Group/AliceO2/GPU/GPUTracking/SliceTracker/GPUTPCGlobalTracking.h</title>
<!-- Node0 -->
<g id="node1" class="node">
<title>Node0</title>
<polygon fill="#bfbfbf" stroke="#000000" points="1105.5,-504.5 1105.5,-556.5 1272.5,-556.5 1272.5,-504.5 1105.5,-504.5"/>
<text text-anchor="start" x="1113.5" y="-544.5" font-family="Helvetica,sans-Serif" font-size="10.00" fill="#000000">/home/travis/build</text>
<text text-anchor="start" x="1113.5" y="-533.5" font-family="Helvetica,sans-Serif" font-size="10.00" fill="#000000">/AliceO2Group/AliceO2</text>
<text text-anchor="start" x="1113.5" y="-522.5" font-family="Helvetica,sans-Serif" font-size="10.00" fill="#000000">/GPU/GPUTracking/SliceTracker</text>
<text text-anchor="middle" x="1189" y="-511.5" font-family="Helvetica,sans-Serif" font-size="10.00" fill="#000000">/GPUTPCGlobalTracking.h</text>
</g>
<!-- Node1 -->
<g id="node2" class="node">
<title>Node1</title>
<g id="a_node2"><a xlink:href="../../d9/de5/GPUGeneralKernels_8h.html" target="_top" xlink:title="GPUGeneralKernels.h">
<polygon fill="none" stroke="#000000" points="1082.5,-224.5 1082.5,-243.5 1203.5,-243.5 1203.5,-224.5 1082.5,-224.5"/>
<text text-anchor="middle" x="1143" y="-231.5" font-family="Helvetica,sans-Serif" font-size="10.00" fill="#000000">GPUGeneralKernels.h</text>
</a>
</g>
</g>
<!-- Node0&#45;&gt;Node1 -->
<g id="edge1" class="edge">
<title>Node0&#45;&gt;Node1</title>
<path fill="none" stroke="#191970" d="M1174.3486,-504.3212C1161.549,-478.9645 1145,-439.0216 1145,-402 1145,-402 1145,-402 1145,-346 1145,-313.7064 1144.1585,-276.1836 1143.5672,-253.8029"/>
<polygon fill="#191970" stroke="#191970" points="1147.0599,-253.4874 1143.2866,-243.5873 1140.0626,-253.6797 1147.0599,-253.4874"/>
</g>
<!-- Node14 -->
<g id="node15" class="node">
<title>Node14</title>
<g id="a_node15"><a xlink:href="../../db/df8/GPUConstantMem_8h.html" target="_top" xlink:title="GPUConstantMem.h">
<polygon fill="none" stroke="#000000" points="1175,-448.5 1175,-467.5 1289,-467.5 1289,-448.5 1175,-448.5"/>
<text text-anchor="middle" x="1232" y="-455.5" font-family="Helvetica,sans-Serif" font-size="10.00" fill="#000000">GPUConstantMem.h</text>
</a>
</g>
</g>
<!-- Node0&#45;&gt;Node14 -->
<g id="edge15" class="edge">
<title>Node0&#45;&gt;Node14</title>
<path fill="none" stroke="#191970" d="M1204.524,-504.3258C1210.0472,-495.0135 1216.1419,-484.7375 1221.185,-476.2347"/>
<polygon fill="#191970" stroke="#191970" points="1224.2544,-477.9205 1226.3454,-467.534 1218.2337,-474.3495 1224.2544,-477.9205"/>
</g>
<!-- Node2 -->
<g id="node3" class="node">
<title>Node2</title>
<g id="a_node3"><a xlink:href="../../d2/d6d/GPUDef_8h.html" target="_top" xlink:title="GPUDef.h">
<polygon fill="none" stroke="#000000" points="788.5,-112.5 788.5,-131.5 851.5,-131.5 851.5,-112.5 788.5,-112.5"/>
<text text-anchor="middle" x="820" y="-119.5" font-family="Helvetica,sans-Serif" font-size="10.00" fill="#000000">GPUDef.h</text>
</a>
</g>
</g>
<!-- Node1&#45;&gt;Node2 -->
<g id="edge2" class="edge">
<title>Node1&#45;&gt;Node2</title>
<path fill="none" stroke="#191970" d="M1082.2359,-226.2944C1038.7605,-219.4927 979.4294,-207.5457 930,-188 897.0184,-174.9582 862.5037,-152.6021 841.1262,-137.5668"/>
<polygon fill="#191970" stroke="#191970" points="842.9813,-134.5906 832.8115,-131.6198 838.9091,-140.2842 842.9813,-134.5906"/>
</g>
<!-- Node12 -->
<g id="node13" class="node">
<title>Node12</title>
<g id="a_node13"><a xlink:href="../../d4/dc5/GPUDataTypes_8h.html" target="_top" xlink:title="GPUDataTypes.h">
<polygon fill="none" stroke="#000000" points="1478,-168.5 1478,-187.5 1576,-187.5 1576,-168.5 1478,-168.5"/>
<text text-anchor="middle" x="1527" y="-175.5" font-family="Helvetica,sans-Serif" font-size="10.00" fill="#000000">GPUDataTypes.h</text>
</a>
</g>
</g>
<!-- Node1&#45;&gt;Node12 -->
<g id="edge12" class="edge">
<title>Node1&#45;&gt;Node12</title>
<path fill="none" stroke="#191970" d="M1203.8459,-225.1266C1276.1076,-214.5885 1395.847,-197.1265 1467.5089,-186.6758"/>
<polygon fill="#191970" stroke="#191970" points="1468.3315,-190.0929 1477.7218,-185.1864 1467.3213,-183.1662 1468.3315,-190.0929"/>
</g>
<!-- Node3 -->
<g id="node4" class="node">
<title>Node3</title>
<g id="a_node4"><a xlink:href="../../df/d21/GPUCommonDef_8h.html" target="_top" xlink:title="GPUCommonDef.h">
<polygon fill="none" stroke="#000000" points="1226.5,-56.5 1226.5,-75.5 1333.5,-75.5 1333.5,-56.5 1226.5,-56.5"/>
<text text-anchor="middle" x="1280" y="-63.5" font-family="Helvetica,sans-Serif" font-size="10.00" fill="#000000">GPUCommonDef.h</text>
</a>
</g>
</g>
<!-- Node2&#45;&gt;Node3 -->
<g id="edge3" class="edge">
<title>Node2&#45;&gt;Node3</title>
<path fill="none" stroke="#191970" d="M851.7046,-116.8838C862.2817,-115.2406 874.1379,-113.4675 885,-112 1001.5515,-96.2534 1137.8958,-81.0945 1216.0817,-72.7138"/>
<polygon fill="#191970" stroke="#191970" points="1216.6827,-76.1696 1226.2541,-71.6265 1215.9387,-69.2092 1216.6827,-76.1696"/>
</g>
<!-- Node6 -->
<g id="node7" class="node">
<title>Node6</title>
<g id="a_node7"><a xlink:href="../../d2/d37/GPUDefConstantsAndSettings_8h.html" target="_top" xlink:title="GPUDefConstantsAndSettings.h">
<polygon fill="none" stroke="#000000" points="982.5,-56.5 982.5,-75.5 1153.5,-75.5 1153.5,-56.5 982.5,-56.5"/>
<text text-anchor="middle" x="1068" y="-63.5" font-family="Helvetica,sans-Serif" font-size="10.00" fill="#000000">GPUDefConstantsAndSettings.h</text>
</a>
</g>
</g>
<!-- Node2&#45;&gt;Node6 -->
<g id="edge6" class="edge">
<title>Node2&#45;&gt;Node6</title>
<path fill="none" stroke="#191970" d="M851.6613,-114.8507C893.0752,-105.4991 966.1917,-88.989 1015.8449,-77.777"/>
<polygon fill="#191970" stroke="#191970" points="1016.7716,-81.1559 1025.7551,-75.5392 1015.2298,-74.3278 1016.7716,-81.1559"/>
</g>
<!-- Node7 -->
<g id="node8" class="node">
<title>Node7</title>
<g id="a_node8"><a xlink:href="../../dc/de9/GPUDefGPUParameters_8h.html" target="_top" xlink:title="GPUDefGPUParameters.h">
<polygon fill="none" stroke="#000000" points="499,-56.5 499,-75.5 639,-75.5 639,-56.5 499,-56.5"/>
<text text-anchor="middle" x="569" y="-63.5" font-family="Helvetica,sans-Serif" font-size="10.00" fill="#000000">GPUDefGPUParameters.h</text>
</a>
</g>
</g>
<!-- Node2&#45;&gt;Node7 -->
<g id="edge7" class="edge">
<title>Node2&#45;&gt;Node7</title>
<path fill="none" stroke="#191970" d="M788.4648,-114.9643C746.7066,-105.6477 672.4729,-89.0856 622.0192,-77.829"/>
<polygon fill="#191970" stroke="#191970" points="622.4706,-74.3437 611.9484,-75.5821 620.9463,-81.1757 622.4706,-74.3437"/>
</g>
<!-- Node9 -->
<g id="node10" class="node">
<title>Node9</title>
<g id="a_node10"><a xlink:href="../../d3/d4c/GPUDefOpenCL12Templates_8h.html" target="_top" xlink:title="GPUDefOpenCL12Templates.h">
<polygon fill="none" stroke="#000000" points="657,-56.5 657,-75.5 821,-75.5 821,-56.5 657,-56.5"/>
<text text-anchor="middle" x="739" y="-63.5" font-family="Helvetica,sans-Serif" font-size="10.00" fill="#000000">GPUDefOpenCL12Templates.h</text>
</a>
</g>
</g>
<!-- Node2&#45;&gt;Node9 -->
<g id="edge9" class="edge">
<title>Node2&#45;&gt;Node9</title>
<path fill="none" stroke="#191970" d="M805.8909,-112.2455C793.5791,-103.7337 775.5042,-91.2375 761.2462,-81.3801"/>
<polygon fill="#191970" stroke="#191970" points="763.1634,-78.4506 752.9474,-75.6427 759.1826,-84.2085 763.1634,-78.4506"/>
</g>
<!-- Node10 -->
<g id="node11" class="node">
<title>Node10</title>
<g id="a_node11"><a xlink:href="../../d2/d45/GPUCommonRtypes_8h.html" target="_top" xlink:title="GPUCommonRtypes.h">
<polygon fill="none" stroke="#000000" points="839.5,-56.5 839.5,-75.5 964.5,-75.5 964.5,-56.5 839.5,-56.5"/>
<text text-anchor="middle" x="902" y="-63.5" font-family="Helvetica,sans-Serif" font-size="10.00" fill="#000000">GPUCommonRtypes.h</text>
</a>
</g>
</g>
<!-- Node2&#45;&gt;Node10 -->
<g id="edge10" class="edge">
<title>Node2&#45;&gt;Node10</title>
<path fill="none" stroke="#191970" d="M834.2833,-112.2455C846.747,-103.7337 865.0451,-91.2375 879.4792,-81.3801"/>
<polygon fill="#191970" stroke="#191970" points="881.5962,-84.1726 887.8804,-75.6427 877.6485,-78.392 881.5962,-84.1726"/>
</g>
<!-- Node4 -->
<g id="node5" class="node">
<title>Node4</title>
<g id="a_node5"><a xlink:href="../../d5/d93/GPUCommonDefSettings_8h.html" target="_top" xlink:title="GPUCommonDefSettings.h">
<polygon fill="none" stroke="#000000" points="1129,-.5 1129,-19.5 1277,-19.5 1277,-.5 1129,-.5"/>
<text text-anchor="middle" x="1203" y="-7.5" font-family="Helvetica,sans-Serif" font-size="10.00" fill="#000000">GPUCommonDefSettings.h</text>
</a>
</g>
</g>
<!-- Node3&#45;&gt;Node4 -->
<g id="edge4" class="edge">
<title>Node3&#45;&gt;Node4</title>
<path fill="none" stroke="#191970" d="M1266.5876,-56.2455C1254.9943,-47.814 1238.0252,-35.4729 1224.5322,-25.6598"/>
<polygon fill="#191970" stroke="#191970" points="1226.4047,-22.6938 1216.2587,-19.6427 1222.2874,-28.355 1226.4047,-22.6938"/>
</g>
<!-- Node5 -->
<g id="node6" class="node">
<title>Node5</title>
<g id="a_node6"><a xlink:href="../../da/d5a/GPUCommonDefAPI_8h.html" target="_top" xlink:title="GPUCommonDefAPI.h">
<polygon fill="none" stroke="#000000" points="1295,-.5 1295,-19.5 1419,-19.5 1419,-.5 1295,-.5"/>
<text text-anchor="middle" x="1357" y="-7.5" font-family="Helvetica,sans-Serif" font-size="10.00" fill="#000000">GPUCommonDefAPI.h</text>
</a>
</g>
</g>
<!-- Node3&#45;&gt;Node5 -->
<g id="edge5" class="edge">
<title>Node3&#45;&gt;Node5</title>
<path fill="none" stroke="#191970" d="M1293.4124,-56.2455C1305.0057,-47.814 1321.9748,-35.4729 1335.4678,-25.6598"/>
<polygon fill="#191970" stroke="#191970" points="1337.7126,-28.355 1343.7413,-19.6427 1333.5953,-22.6938 1337.7126,-28.355"/>
</g>
<!-- Node8 -->
<g id="node9" class="node">
<title>Node8</title>
<g id="a_node9"><a xlink:href="../../d6/dff/GPUDefMacros_8h.html" target="_top" xlink:title="GPUDefMacros.h">
<polygon fill="none" stroke="#000000" points="520,-.5 520,-19.5 618,-19.5 618,-.5 520,-.5"/>
<text text-anchor="middle" x="569" y="-7.5" font-family="Helvetica,sans-Serif" font-size="10.00" fill="#000000">GPUDefMacros.h</text>
</a>
</g>
</g>
<!-- Node7&#45;&gt;Node8 -->
<g id="edge8" class="edge">
<title>Node7&#45;&gt;Node8</title>
<path fill="none" stroke="#191970" d="M569,-56.2455C569,-48.9382 569,-38.6944 569,-29.7046"/>
<polygon fill="#191970" stroke="#191970" points="572.5001,-29.6426 569,-19.6427 565.5001,-29.6427 572.5001,-29.6426"/>
</g>
<!-- Node11 -->
<g id="node12" class="node">
<title>Node11</title>
<polygon fill="none" stroke="#bfbfbf" points="872.5,-.5 872.5,-19.5 931.5,-19.5 931.5,-.5 872.5,-.5"/>
<text text-anchor="middle" x="902" y="-7.5" font-family="Helvetica,sans-Serif" font-size="10.00" fill="#000000">Rtypes.h</text>
</g>
<!-- Node10&#45;&gt;Node11 -->
<g id="edge11" class="edge">
<title>Node10&#45;&gt;Node11</title>
<path fill="none" stroke="#191970" d="M902,-56.2455C902,-48.9382 902,-38.6944 902,-29.7046"/>
<polygon fill="#191970" stroke="#191970" points="905.5001,-29.6426 902,-19.6427 898.5001,-29.6427 905.5001,-29.6426"/>
</g>
<!-- Node12&#45;&gt;Node3 -->
<g id="edge13" class="edge">
<title>Node12&#45;&gt;Node3</title>
<path fill="none" stroke="#191970" d="M1520.4979,-168.2774C1510.2496,-153.7385 1488.9208,-126.4951 1464,-112 1427.316,-90.6629 1380.9323,-79.1509 1343.9135,-72.9792"/>
<polygon fill="#191970" stroke="#191970" points="1344.1592,-69.4749 1333.7364,-71.3764 1343.0701,-76.3896 1344.1592,-69.4749"/>
</g>
<!-- Node13 -->
<g id="node14" class="node">
<title>Node13</title>
<polygon fill="none" stroke="#bfbfbf" points="1198.5,-112.5 1198.5,-131.5 1251.5,-131.5 1251.5,-112.5 1198.5,-112.5"/>
<text text-anchor="middle" x="1225" y="-119.5" font-family="Helvetica,sans-Serif" font-size="10.00" fill="#000000">cstddef</text>
</g>
<!-- Node12&#45;&gt;Node13 -->
<g id="edge14" class="edge">
<title>Node12&#45;&gt;Node13</title>
<path fill="none" stroke="#191970" d="M1477.8063,-168.878C1417.1968,-157.6391 1315.6262,-138.8049 1261.5203,-128.772"/>
<polygon fill="#191970" stroke="#191970" points="1262.1448,-125.3282 1251.6742,-126.9462 1260.8684,-132.2109 1262.1448,-125.3282"/>
</g>
<!-- Node14&#45;&gt;Node12 -->
<g id="edge58" class="edge">
<title>Node14&#45;&gt;Node12</title>
<path fill="none" stroke="#191970" d="M1289.2289,-450.1457C1325.6089,-443.5301 1372.8649,-431.8576 1411,-412 1450.9781,-391.1827 1488,-391.0733 1488,-346 1488,-346 1488,-346 1488,-290 1488,-255.5398 1504.6696,-218.2666 1516.2124,-196.5877"/>
<polygon fill="#191970" stroke="#191970" points="1519.3006,-198.2355 1521.0767,-187.7906 1513.1748,-194.8481 1519.3006,-198.2355"/>
</g>
<!-- Node15 -->
<g id="node16" class="node">
<title>Node15</title>
<g id="a_node16"><a xlink:href="../../d6/d25/GPUTPCTracker_8h.html" target="_top" xlink:title="GPUTPCTracker.h">
<polygon fill="none" stroke="#000000" points="465,-392.5 465,-411.5 565,-411.5 565,-392.5 465,-392.5"/>
<text text-anchor="middle" x="515" y="-399.5" font-family="Helvetica,sans-Serif" font-size="10.00" fill="#000000">GPUTPCTracker.h</text>
</a>
</g>
</g>
<!-- Node14&#45;&gt;Node15 -->
<g id="edge16" class="edge">
<title>Node14&#45;&gt;Node15</title>
<path fill="none" stroke="#191970" d="M1174.8382,-453.5355C1041.6213,-443.1308 711.5183,-417.3487 575.2835,-406.7083"/>
<polygon fill="#191970" stroke="#191970" points="575.2797,-403.1975 565.0375,-405.9081 574.7346,-410.1762 575.2797,-403.1975"/>
</g>
<!-- Node25 -->
<g id="node26" class="node">
<title>Node25</title>
<g id="a_node26"><a xlink:href="../../df/d13/GPUParam_8h.html" target="_top" xlink:title="GPUParam.h">
<polygon fill="none" stroke="#000000" points="1193.5,-280.5 1193.5,-299.5 1270.5,-299.5 1270.5,-280.5 1193.5,-280.5"/>
<text text-anchor="middle" x="1232" y="-287.5" font-family="Helvetica,sans-Serif" font-size="10.00" fill="#000000">GPUParam.h</text>
</a>
</g>
</g>
<!-- Node14&#45;&gt;Node25 -->
<g id="edge57" class="edge">
<title>Node14&#45;&gt;Node25</title>
<path fill="none" stroke="#191970" d="M1232,-448.4862C1232,-421.9293 1232,-346.5651 1232,-310.1655"/>
<polygon fill="#191970" stroke="#191970" points="1235.5001,-309.8278 1232,-299.8279 1228.5001,-309.8279 1235.5001,-309.8278"/>
</g>
<!-- Node34 -->
<g id="node35" class="node">
<title>Node34</title>
<g id="a_node35"><a xlink:href="../../da/da4/GPUErrors_8h.html" target="_top" xlink:title="GPUErrors.h">
<polygon fill="none" stroke="#000000" points="40.5,-392.5 40.5,-411.5 115.5,-411.5 115.5,-392.5 40.5,-392.5"/>
<text text-anchor="middle" x="78" y="-399.5" font-family="Helvetica,sans-Serif" font-size="10.00" fill="#000000">GPUErrors.h</text>
</a>
</g>
</g>
<!-- Node14&#45;&gt;Node34 -->
<g id="edge59" class="edge">
<title>Node14&#45;&gt;Node34</title>
<path fill="none" stroke="#191970" d="M1174.773,-455.223C974.9062,-445.524 310.1058,-413.2634 125.762,-404.3177"/>
<polygon fill="#191970" stroke="#191970" points="125.7343,-400.8124 115.5763,-403.8235 125.3949,-407.8041 125.7343,-400.8124"/>
</g>
<!-- Node36 -->
<g id="node37" class="node">
<title>Node36</title>
<g id="a_node37"><a xlink:href="../../d7/d4f/GPUTRDDef_8h.html" target="_top" xlink:title="GPUTRDDef.h">
<polygon fill="none" stroke="#000000" points="1318.5,-392.5 1318.5,-411.5 1401.5,-411.5 1401.5,-392.5 1318.5,-392.5"/>
<text text-anchor="middle" x="1360" y="-399.5" font-family="Helvetica,sans-Serif" font-size="10.00" fill="#000000">GPUTRDDef.h</text>
</a>
</g>
</g>
<!-- Node14&#45;&gt;Node36 -->
<g id="edge62" class="edge">
<title>Node14&#45;&gt;Node36</title>
<path fill="none" stroke="#191970" d="M1254.004,-448.3733C1274.6435,-439.3435 1305.7158,-425.7494 1328.8889,-415.6111"/>
<polygon fill="#191970" stroke="#191970" points="1330.5245,-418.7159 1338.2831,-411.5011 1327.7187,-412.3028 1330.5245,-418.7159"/>
</g>
<!-- Node37 -->
<g id="node38" class="node">
<title>Node37</title>
<g id="a_node38"><a xlink:href="../../da/d28/GPUO2FakeClasses_8h.html" target="_top" xlink:title="GPUO2FakeClasses.h">
<polygon fill="none" stroke="#000000" points="1516,-224.5 1516,-243.5 1636,-243.5 1636,-224.5 1516,-224.5"/>
<text text-anchor="middle" x="1576" y="-231.5" font-family="Helvetica,sans-Serif" font-size="10.00" fill="#000000">GPUO2FakeClasses.h</text>
</a>
</g>
</g>
<!-- Node14&#45;&gt;Node37 -->
<g id="edge64" class="edge">
<title>Node14&#45;&gt;Node37</title>
<path fill="none" stroke="#191970" d="M1289.1986,-454.6679C1358.4838,-449.5581 1469.9246,-437.5572 1502,-412 1552.5245,-371.7429 1568.9285,-290.9923 1573.9416,-253.7033"/>
<polygon fill="#191970" stroke="#191970" points="1577.4351,-253.966 1575.1568,-243.6191 1570.4854,-253.1285 1577.4351,-253.966"/>
</g>
<!-- Node16 -->
<g id="node17" class="node">
<title>Node16</title>
<g id="a_node17"><a xlink:href="../../da/dab/GPUTPCDef_8h.html" target="_top" xlink:title="GPUTPCDef.h">
<polygon fill="none" stroke="#000000" points="393,-168.5 393,-187.5 475,-187.5 475,-168.5 393,-168.5"/>
<text text-anchor="middle" x="434" y="-175.5" font-family="Helvetica,sans-Serif" font-size="10.00" fill="#000000">GPUTPCDef.h</text>
</a>
</g>
</g>
<!-- Node15&#45;&gt;Node16 -->
<g id="edge17" class="edge">
<title>Node15&#45;&gt;Node16</title>
<path fill="none" stroke="#191970" d="M464.9691,-394.0001C380.8083,-379.4093 216.7632,-345.714 183,-300 167.0714,-278.4333 189.6653,-236.8469 205,-224 231.3913,-201.8902 323.5242,-188.8728 382.5747,-182.6134"/>
<polygon fill="#191970" stroke="#191970" points="383.2425,-186.0633 392.8319,-181.5585 382.5263,-179.1 383.2425,-186.0633"/>
</g>
<!-- Node17 -->
<g id="node18" class="node">
<title>Node17</title>
<polygon fill="none" stroke="#bfbfbf" points="438,-336.5 438,-355.5 498,-355.5 498,-336.5 438,-336.5"/>
<text text-anchor="middle" x="468" y="-343.5" font-family="Helvetica,sans-Serif" font-size="10.00" fill="#000000">iostream</text>
</g>
<!-- Node15&#45;&gt;Node17 -->
<g id="edge19" class="edge">
<title>Node15&#45;&gt;Node17</title>
<path fill="none" stroke="#191970" d="M506.8132,-392.2455C500.1411,-384.2958 490.5521,-372.8706 482.5747,-363.3656"/>
<polygon fill="#191970" stroke="#191970" points="485.2026,-361.0524 476.093,-355.6427 479.8408,-365.5525 485.2026,-361.0524"/>
</g>
<!-- Node18 -->
<g id="node19" class="node">
<title>Node18</title>
<g id="a_node19"><a xlink:href="../../dd/d7b/GPUTPCHitId_8h.html" target="_top" xlink:title="GPUTPCHitId.h">
<polygon fill="none" stroke="#000000" points="516.5,-336.5 516.5,-355.5 605.5,-355.5 605.5,-336.5 516.5,-336.5"/>
<text text-anchor="middle" x="561" y="-343.5" font-family="Helvetica,sans-Serif" font-size="10.00" fill="#000000">GPUTPCHitId.h</text>
</a>
</g>
</g>
<!-- Node15&#45;&gt;Node18 -->
<g id="edge20" class="edge">
<title>Node15&#45;&gt;Node18</title>
<path fill="none" stroke="#191970" d="M523.0126,-392.2455C529.4768,-384.3761 538.7385,-373.101 546.4983,-363.6542"/>
<polygon fill="#191970" stroke="#191970" points="549.4364,-365.5916 553.0792,-355.6427 544.0273,-361.1484 549.4364,-365.5916"/>
</g>
<!-- Node19 -->
<g id="node20" class="node">
<title>Node19</title>
<g id="a_node20"><a xlink:href="../../df/d4a/GPUTPCSliceData_8h.html" target="_top" xlink:title="GPUTPCSliceData.h">
<polygon fill="none" stroke="#000000" points="683,-336.5 683,-355.5 795,-355.5 795,-336.5 683,-336.5"/>
<text text-anchor="middle" x="739" y="-343.5" font-family="Helvetica,sans-Serif" font-size="10.00" fill="#000000">GPUTPCSliceData.h</text>
</a>
</g>
</g>
<!-- Node15&#45;&gt;Node19 -->
<g id="edge21" class="edge">
<title>Node15&#45;&gt;Node19</title>
<path fill="none" stroke="#191970" d="M553.2525,-392.4369C591.3467,-382.9133 649.9313,-368.2672 691.0987,-357.9753"/>
<polygon fill="#191970" stroke="#191970" points="692.0528,-361.3446 700.9053,-355.5237 690.355,-354.5536 692.0528,-361.3446"/>
</g>
<!-- Node30 -->
<g id="node31" class="node">
<title>Node30</title>
<g id="a_node31"><a xlink:href="../../d6/d57/GPUProcessor_8h.html" target="_top" xlink:title="GPUProcessor.h">
<polygon fill="none" stroke="#000000" points="938.5,-168.5 938.5,-187.5 1031.5,-187.5 1031.5,-168.5 938.5,-168.5"/>
<text text-anchor="middle" x="985" y="-175.5" font-family="Helvetica,sans-Serif" font-size="10.00" fill="#000000">GPUProcessor.h</text>
</a>
</g>
</g>
<!-- Node15&#45;&gt;Node30 -->
<g id="edge56" class="edge">
<title>Node15&#45;&gt;Node30</title>
<path fill="none" stroke="#191970" d="M565.1157,-396.8609C636.0309,-389.1082 761.7399,-373.4594 804,-356 882.5514,-323.5472 906.8788,-311.1334 959,-244 969.6077,-230.3371 976.4019,-211.7996 980.3742,-197.8491"/>
<polygon fill="#191970" stroke="#191970" points="983.8513,-198.3836 982.9738,-187.8251 977.0754,-196.6263 983.8513,-198.3836"/>
</g>
<!-- Node31 -->
<g id="node32" class="node">
<title>Node31</title>
<g id="a_node32"><a xlink:href="../../de/d15/GPUTPCTrackParam_8h.html" target="_top" xlink:title="GPUTPCTrackParam.h">
<polygon fill="none" stroke="#000000" points="192,-280.5 192,-299.5 314,-299.5 314,-280.5 192,-280.5"/>
<text text-anchor="middle" x="253" y="-287.5" font-family="Helvetica,sans-Serif" font-size="10.00" fill="#000000">GPUTPCTrackParam.h</text>
</a>
</g>
</g>
<!-- Node15&#45;&gt;Node31 -->
<g id="edge48" class="edge">
<title>Node15&#45;&gt;Node31</title>
<path fill="none" stroke="#191970" d="M492.662,-392.4509C446.0632,-372.5308 338.3705,-326.4942 284.656,-303.5323"/>
<polygon fill="#191970" stroke="#191970" points="285.8523,-300.2374 275.2814,-299.5249 283.1007,-306.6739 285.8523,-300.2374"/>
</g>
<!-- Node33 -->
<g id="node34" class="node">
<title>Node33</title>
<g id="a_node34"><a xlink:href="../../db/d6e/GPUTPCTracklet_8h.html" target="_top" xlink:title="GPUTPCTracklet.h">
<polygon fill="none" stroke="#000000" points="332,-280.5 332,-299.5 436,-299.5 436,-280.5 332,-280.5"/>
<text text-anchor="middle" x="384" y="-287.5" font-family="Helvetica,sans-Serif" font-size="10.00" fill="#000000">GPUTPCTracklet.h</text>
</a>
</g>
</g>
<!-- Node15&#45;&gt;Node33 -->
<g id="edge53" class="edge">
<title>Node15&#45;&gt;Node33</title>
<path fill="none" stroke="#191970" d="M490.0537,-392.4813C471.7376,-384.6361 447.0143,-372.1789 429,-356 413.9101,-342.4476 401.3749,-322.8394 393.4003,-308.5177"/>
<polygon fill="#191970" stroke="#191970" points="396.4297,-306.7602 388.6328,-299.5867 390.2544,-310.0567 396.4297,-306.7602"/>
</g>
<!-- Node16&#45;&gt;Node2 -->
<g id="edge18" class="edge">
<title>Node16&#45;&gt;Node2</title>
<path fill="none" stroke="#191970" d="M475.3088,-172.007C549.4232,-161.2547 704.1599,-138.8058 778.4494,-128.0281"/>
<polygon fill="#191970" stroke="#191970" points="778.9874,-131.4867 788.3813,-126.5872 777.9823,-124.5593 778.9874,-131.4867"/>
</g>
<!-- Node19&#45;&gt;Node16 -->
<g id="edge22" class="edge">
<title>Node19&#45;&gt;Node16</title>
<path fill="none" stroke="#191970" d="M682.9626,-341.5458C619.2627,-335.4763 520.3076,-322.6782 491,-300 458.0118,-274.4737 443.3188,-225.2689 437.4429,-197.7898"/>
<polygon fill="#191970" stroke="#191970" points="440.8417,-196.9325 435.4915,-187.7877 433.9713,-198.2729 440.8417,-196.9325"/>
</g>
<!-- Node20 -->
<g id="node21" class="node">
<title>Node20</title>
<g id="a_node21"><a xlink:href="../../d8/dff/GPUTPCRow_8h.html" target="_top" xlink:title="GPUTPCRow.h">
<polygon fill="none" stroke="#000000" points="500.5,-280.5 500.5,-299.5 585.5,-299.5 585.5,-280.5 500.5,-280.5"/>
<text text-anchor="middle" x="543" y="-287.5" font-family="Helvetica,sans-Serif" font-size="10.00" fill="#000000">GPUTPCRow.h</text>
</a>
</g>
</g>
<!-- Node19&#45;&gt;Node20 -->
<g id="edge23" class="edge">
<title>Node19&#45;&gt;Node20</title>
<path fill="none" stroke="#191970" d="M705.3064,-336.3733C672.2913,-326.9404 621.8427,-312.5265 585.9614,-302.2747"/>
<polygon fill="#191970" stroke="#191970" points="586.8307,-298.8831 576.2539,-299.5011 584.9076,-305.6137 586.8307,-298.8831"/>
</g>
<!-- Node22 -->
<g id="node23" class="node">
<title>Node22</title>
<g id="a_node23"><a xlink:href="../../d6/da2/GPUCommonMath_8h.html" target="_top" xlink:title="GPUCommonMath.h">
<polygon fill="none" stroke="#000000" points="1049.5,-168.5 1049.5,-187.5 1164.5,-187.5 1164.5,-168.5 1049.5,-168.5"/>
<text text-anchor="middle" x="1107" y="-175.5" font-family="Helvetica,sans-Serif" font-size="10.00" fill="#000000">GPUCommonMath.h</text>
</a>
</g>
</g>
<!-- Node19&#45;&gt;Node22 -->
<g id="edge27" class="edge">
<title>Node19&#45;&gt;Node22</title>
<path fill="none" stroke="#191970" d="M766.7489,-336.4308C814.2217,-319.7241 913.6765,-283.254 994,-244 1025.9338,-228.394 1061.0382,-207.2137 1083.5121,-193.1004"/>
<polygon fill="#191970" stroke="#191970" points="1085.4628,-196.0079 1092.0407,-187.7024 1081.7191,-190.0931 1085.4628,-196.0079"/>
</g>
<!-- Node19&#45;&gt;Node25 -->
<g id="edge31" class="edge">
<title>Node19&#45;&gt;Node25</title>
<path fill="none" stroke="#191970" d="M795.0734,-339.6306C892.3979,-328.5755 1090.9851,-306.0179 1183.0801,-295.5568"/>
<polygon fill="#191970" stroke="#191970" points="1183.7006,-299.0089 1193.2416,-294.4026 1182.9104,-292.0537 1183.7006,-299.0089"/>
</g>
<!-- Node29 -->
<g id="node30" class="node">
<title>Node29</title>
<g id="a_node30"><a xlink:href="../../d5/da6/GPUMemoryResource_8h.html" target="_top" xlink:title="GPUMemoryResource.h">
<polygon fill="none" stroke="#000000" points="818.5,-224.5 818.5,-243.5 949.5,-243.5 949.5,-224.5 818.5,-224.5"/>
<text text-anchor="middle" x="884" y="-231.5" font-family="Helvetica,sans-Serif" font-size="10.00" fill="#000000">GPUMemoryResource.h</text>
</a>
</g>
</g>
<!-- Node19&#45;&gt;Node29 -->
<g id="edge41" class="edge">
<title>Node19&#45;&gt;Node29</title>
<path fill="none" stroke="#191970" d="M751.3626,-336.4509C776.296,-317.1921 832.8333,-273.5218 863.4236,-249.8935"/>
<polygon fill="#191970" stroke="#191970" points="865.8941,-252.4078 871.6687,-243.5249 861.6151,-246.8679 865.8941,-252.4078"/>
</g>
<!-- Node20&#45;&gt;Node16 -->
<g id="edge24" class="edge">
<title>Node20&#45;&gt;Node16</title>
<path fill="none" stroke="#191970" d="M531.0266,-280.1995C520.2144,-271.1675 504.0469,-257.203 491,-244 475.6359,-228.4521 459.4722,-209.4494 448.2975,-195.8338"/>
<polygon fill="#191970" stroke="#191970" points="450.7555,-193.3087 441.733,-187.7548 445.3228,-197.723 450.7555,-193.3087"/>
</g>
<!-- Node21 -->
<g id="node22" class="node">
<title>Node21</title>
<g id="a_node22"><a xlink:href="../../d3/da7/GPUTPCGrid_8h.html" target="_top" xlink:title="GPUTPCGrid.h">
<polygon fill="none" stroke="#000000" points="500,-224.5 500,-243.5 586,-243.5 586,-224.5 500,-224.5"/>
<text text-anchor="middle" x="543" y="-231.5" font-family="Helvetica,sans-Serif" font-size="10.00" fill="#000000">GPUTPCGrid.h</text>
</a>
</g>
</g>
<!-- Node20&#45;&gt;Node21 -->
<g id="edge25" class="edge">
<title>Node20&#45;&gt;Node21</title>
<path fill="none" stroke="#191970" d="M543,-280.2455C543,-272.9382 543,-262.6944 543,-253.7046"/>
<polygon fill="#191970" stroke="#191970" points="546.5001,-253.6426 543,-243.6427 539.5001,-253.6427 546.5001,-253.6426"/>
</g>
<!-- Node21&#45;&gt;Node16 -->
<g id="edge26" class="edge">
<title>Node21&#45;&gt;Node16</title>
<path fill="none" stroke="#191970" d="M524.0136,-224.2455C506.8208,-215.4125 481.2762,-202.2887 461.7868,-192.2758"/>
<polygon fill="#191970" stroke="#191970" points="463.263,-189.0993 452.7688,-187.6427 460.0641,-195.3257 463.263,-189.0993"/>
</g>
<!-- Node22&#45;&gt;Node3 -->
<g id="edge28" class="edge">
<title>Node22&#45;&gt;Node3</title>
<path fill="none" stroke="#191970" d="M1106.8651,-168.0442C1107.2259,-153.7042 1110.0523,-127.2839 1125,-112 1138.4222,-98.2759 1181.7484,-86.0857 1219.1925,-77.7081"/>
<polygon fill="#191970" stroke="#191970" points="1220.0397,-81.1057 1229.0643,-75.5552 1218.5481,-74.2664 1220.0397,-81.1057"/>
</g>
<!-- Node23 -->
<g id="node24" class="node">
<title>Node23</title>
<polygon fill="none" stroke="#bfbfbf" points="1133.5,-112.5 1133.5,-131.5 1180.5,-131.5 1180.5,-112.5 1133.5,-112.5"/>
<text text-anchor="middle" x="1157" y="-119.5" font-family="Helvetica,sans-Serif" font-size="10.00" fill="#000000">cmath</text>
</g>
<!-- Node22&#45;&gt;Node23 -->
<g id="edge29" class="edge">
<title>Node22&#45;&gt;Node23</title>
<path fill="none" stroke="#191970" d="M1115.7093,-168.2455C1122.8073,-160.2958 1133.0084,-148.8706 1141.495,-139.3656"/>
<polygon fill="#191970" stroke="#191970" points="1144.3411,-141.4331 1148.3905,-131.6427 1139.1195,-136.771 1144.3411,-141.4331"/>
</g>
<!-- Node24 -->
<g id="node25" class="node">
<title>Node24</title>
<polygon fill="none" stroke="#bfbfbf" points="1013,-112.5 1013,-131.5 1077,-131.5 1077,-112.5 1013,-112.5"/>
<text text-anchor="middle" x="1045" y="-119.5" font-family="Helvetica,sans-Serif" font-size="10.00" fill="#000000">algorithm</text>
</g>
<!-- Node22&#45;&gt;Node24 -->
<g id="edge30" class="edge">
<title>Node22&#45;&gt;Node24</title>
<path fill="none" stroke="#191970" d="M1096.2004,-168.2455C1087.1322,-160.0549 1073.9794,-148.1749 1063.2755,-138.5069"/>
<polygon fill="#191970" stroke="#191970" points="1065.4429,-135.7482 1055.6758,-131.6427 1060.7509,-140.9429 1065.4429,-135.7482"/>
</g>
<!-- Node25&#45;&gt;Node2 -->
<g id="edge34" class="edge">
<title>Node25&#45;&gt;Node2</title>
<path fill="none" stroke="#191970" d="M1193.2568,-288.6686C1093.7796,-284.8534 835.3728,-272.2888 810,-244 784.6959,-215.7878 799.4976,-167.6808 810.8088,-141.086"/>
<polygon fill="#191970" stroke="#191970" points="814.1079,-142.2841 815.0268,-131.7292 807.7263,-139.4073 814.1079,-142.2841"/>
</g>
<!-- Node25&#45;&gt;Node3 -->
<g id="edge32" class="edge">
<title>Node25&#45;&gt;Node3</title>
<path fill="none" stroke="#191970" d="M1270.5687,-280.6968C1302.7913,-272.0517 1345.0268,-258.3776 1355,-244 1381.0417,-206.4576 1304.8208,-195.4088 1300,-188 1279.606,-156.6579 1277.7072,-111.4723 1278.5753,-85.801"/>
<polygon fill="#191970" stroke="#191970" points="1282.0716,-85.9615 1279.0915,-75.7945 1275.0809,-85.6009 1282.0716,-85.9615"/>
</g>
<!-- Node25&#45;&gt;Node22 -->
<g id="edge33" class="edge">
<title>Node25&#45;&gt;Node22</title>
<path fill="none" stroke="#191970" d="M1231.716,-280.2663C1230.8041,-266.203 1227.1655,-240.124 1213,-224 1199.1814,-208.2709 1179.0122,-197.7213 1159.9671,-190.7423"/>
<polygon fill="#191970" stroke="#191970" points="1161.0409,-187.4107 1150.4465,-187.503 1158.7861,-194.0376 1161.0409,-187.4107"/>
</g>
<!-- Node26 -->
<g id="node27" class="node">
<title>Node26</title>
<g id="a_node27"><a xlink:href="../../dd/dc6/GPUSettings_8h.html" target="_top" xlink:title="GPUSettings.h">
<polygon fill="none" stroke="#000000" points="1260,-224.5 1260,-243.5 1346,-243.5 1346,-224.5 1260,-224.5"/>
<text text-anchor="middle" x="1303" y="-231.5" font-family="Helvetica,sans-Serif" font-size="10.00" fill="#000000">GPUSettings.h</text>
</a>
</g>
</g>
<!-- Node25&#45;&gt;Node26 -->
<g id="edge35" class="edge">
<title>Node25&#45;&gt;Node26</title>
<path fill="none" stroke="#191970" d="M1244.3673,-280.2455C1254.9554,-271.8943 1270.4064,-259.7076 1282.7893,-249.9408"/>
<polygon fill="#191970" stroke="#191970" points="1285.0903,-252.5837 1290.7745,-243.6427 1280.7553,-247.0875 1285.0903,-252.5837"/>
</g>
<!-- Node27 -->
<g id="node28" class="node">
<title>Node27</title>
<g id="a_node28"><a xlink:href="../../d6/d1b/GPUTPCGeometry_8h.html" target="_top" xlink:title="GPUTPCGeometry.h">
<polygon fill="none" stroke="#000000" points="1308.5,-168.5 1308.5,-187.5 1421.5,-187.5 1421.5,-168.5 1308.5,-168.5"/>
<text text-anchor="middle" x="1365" y="-175.5" font-family="Helvetica,sans-Serif" font-size="10.00" fill="#000000">GPUTPCGeometry.h</text>
</a>
</g>
</g>
<!-- Node25&#45;&gt;Node27 -->
<g id="edge37" class="edge">
<title>Node25&#45;&gt;Node27</title>
<path fill="none" stroke="#191970" d="M1270.7084,-283.9672C1312.1684,-276.6219 1373.9238,-262.8261 1388,-244 1398.6097,-229.8101 1389.6339,-210.3358 1379.9631,-196.2216"/>
<polygon fill="#191970" stroke="#191970" points="1382.4898,-193.7549 1373.7065,-187.8299 1376.8779,-197.939 1382.4898,-193.7549"/>
</g>
<!-- Node28 -->
<g id="node29" class="node">
<title>Node28</title>
<g id="a_node29"><a xlink:href="../../d9/d9c/GPUTPCGMPolynomialField_8h.html" target="_top" xlink:title="GPUTPCGMPolynomialField.h">
<polygon fill="none" stroke="#000000" points="604,-224.5 604,-243.5 762,-243.5 762,-224.5 604,-224.5"/>
<text text-anchor="middle" x="683" y="-231.5" font-family="Helvetica,sans-Serif" font-size="10.00" fill="#000000">GPUTPCGMPolynomialField.h</text>
</a>
</g>
</g>
<!-- Node25&#45;&gt;Node28 -->
<g id="edge39" class="edge">
<title>Node25&#45;&gt;Node28</title>
<path fill="none" stroke="#191970" d="M1193.2554,-286.1783C1114.5941,-278.4002 930.5208,-260.1012 776,-244 774.7281,-243.8675 773.4464,-243.7336 772.1568,-243.5987"/>
<polygon fill="#191970" stroke="#191970" points="772.4552,-240.1108 762.144,-242.5459 771.7232,-247.0725 772.4552,-240.1108"/>
</g>
<!-- Node26&#45;&gt;Node22 -->
<g id="edge36" class="edge">
<title>Node26&#45;&gt;Node22</title>
<path fill="none" stroke="#191970" d="M1269.3064,-224.3733C1236.2913,-214.9404 1185.8427,-200.5265 1149.9614,-190.2747"/>
<polygon fill="#191970" stroke="#191970" points="1150.8307,-186.8831 1140.2539,-187.5011 1148.9076,-193.6137 1150.8307,-186.8831"/>
</g>
<!-- Node27&#45;&gt;Node3 -->
<g id="edge38" class="edge">
<title>Node27&#45;&gt;Node3</title>
<path fill="none" stroke="#191970" d="M1357.7529,-168.4509C1343.5132,-149.688 1311.6889,-107.7548 1293.477,-83.758"/>
<polygon fill="#191970" stroke="#191970" points="1296.0622,-81.3747 1287.2287,-75.5249 1290.4862,-85.6065 1296.0622,-81.3747"/>
</g>
<!-- Node28&#45;&gt;Node16 -->
<g id="edge40" class="edge">
<title>Node28&#45;&gt;Node16</title>
<path fill="none" stroke="#191970" d="M640.4783,-224.4369C597.4765,-214.7658 530.9863,-199.8122 485.1348,-189.5002"/>
<polygon fill="#191970" stroke="#191970" points="485.629,-186.024 475.1047,-187.2444 484.0931,-192.8534 485.629,-186.024"/>
</g>
<!-- Node29&#45;&gt;Node3 -->
<g id="edge42" class="edge">
<title>Node29&#45;&gt;Node3</title>
<path fill="none" stroke="#191970" d="M888.5908,-224.4442C900.7254,-200.4085 936.2373,-137.5395 987,-112 1026.0989,-92.3287 1142.4811,-78.498 1216.2599,-71.4257"/>
<polygon fill="#191970" stroke="#191970" points="1216.7475,-74.8953 1226.3751,-70.4727 1216.0909,-67.9262 1216.7475,-74.8953"/>
</g>
<!-- Node29&#45;&gt;Node30 -->
<g id="edge43" class="edge">
<title>Node29&#45;&gt;Node30</title>
<path fill="none" stroke="#191970" d="M901.5929,-224.2455C917.379,-215.4928 940.7639,-202.527 958.7587,-192.5496"/>
<polygon fill="#191970" stroke="#191970" points="960.5603,-195.5528 967.6087,-187.6427 957.1659,-189.4308 960.5603,-195.5528"/>
</g>
<!-- Node30&#45;&gt;Node2 -->
<g id="edge45" class="edge">
<title>Node30&#45;&gt;Node2</title>
<path fill="none" stroke="#191970" d="M956.6355,-168.3733C929.3173,-159.1016 887.8204,-145.0178 857.7262,-134.804"/>
<polygon fill="#191970" stroke="#191970" points="858.5887,-131.4008 847.9944,-131.5011 856.339,-138.0294 858.5887,-131.4008"/>
</g>
<!-- Node30&#45;&gt;Node3 -->
<g id="edge44" class="edge">
<title>Node30&#45;&gt;Node3</title>
<path fill="none" stroke="#191970" d="M984.7834,-168.2627C985.0297,-153.7047 987.7974,-126.4366 1004,-112 1019.6632,-98.044 1139.8592,-81.9773 1216.3823,-73.003"/>
<polygon fill="#191970" stroke="#191970" points="1216.8826,-76.4685 1226.412,-71.838 1216.0749,-69.5153 1216.8826,-76.4685"/>
</g>
<!-- Node30&#45;&gt;Node13 -->
<g id="edge46" class="edge">
<title>Node30&#45;&gt;Node13</title>
<path fill="none" stroke="#191970" d="M1031.1817,-168.4315C1070.6518,-160.0751 1129.1699,-147.2658 1188.3953,-132.3185"/>
<polygon fill="#191970" stroke="#191970" points="1189.4608,-135.659 1198.29,-129.8027 1187.7358,-128.8749 1189.4608,-135.659"/>
</g>
<!-- Node30&#45;&gt;Node24 -->
<g id="edge47" class="edge">
<title>Node30&#45;&gt;Node24</title>
<path fill="none" stroke="#191970" d="M995.4512,-168.2455C1004.2269,-160.0549 1016.9554,-148.1749 1027.314,-138.5069"/>
<polygon fill="#191970" stroke="#191970" points="1029.7461,-141.0246 1034.6686,-131.6427 1024.9699,-135.9072 1029.7461,-141.0246"/>
</g>
<!-- Node31&#45;&gt;Node16 -->
<g id="edge51" class="edge">
<title>Node31&#45;&gt;Node16</title>
<path fill="none" stroke="#191970" d="M239.6485,-280.2799C222.8865,-266.9062 198.0366,-242.3987 213,-224 233.936,-198.2576 323.8686,-186.444 382.3612,-181.3956"/>
<polygon fill="#191970" stroke="#191970" points="382.8563,-184.8667 392.5353,-180.5578 382.2818,-177.8903 382.8563,-184.8667"/>
</g>
<!-- Node31&#45;&gt;Node22 -->
<g id="edge52" class="edge">
<title>Node31&#45;&gt;Node22</title>
<path fill="none" stroke="#191970" d="M314.0461,-280.9663C317.0709,-280.6169 320.0682,-280.2919 323,-280 604.7267,-251.9549 684.4008,-312.9328 959,-244 979.4429,-238.8682 982.7903,-232.6739 1002,-224 1026.5839,-212.8994 1054.5683,-200.6591 1075.4615,-191.5973"/>
<polygon fill="#191970" stroke="#191970" points="1077.027,-194.7336 1084.813,-187.5483 1074.2455,-188.3099 1077.027,-194.7336"/>
</g>
<!-- Node32 -->
<g id="node33" class="node">
<title>Node32</title>
<g id="a_node33"><a xlink:href="../../df/d00/GPUTPCBaseTrackParam_8h.html" target="_top" xlink:title="GPUTPCBaseTrackParam.h">
<polygon fill="none" stroke="#000000" points="222,-224.5 222,-243.5 368,-243.5 368,-224.5 222,-224.5"/>
<text text-anchor="middle" x="295" y="-231.5" font-family="Helvetica,sans-Serif" font-size="10.00" fill="#000000">GPUTPCBaseTrackParam.h</text>
</a>
</g>
</g>
<!-- Node31&#45;&gt;Node32 -->
<g id="edge49" class="edge">
<title>Node31&#45;&gt;Node32</title>
<path fill="none" stroke="#191970" d="M260.3158,-280.2455C266.2179,-272.3761 274.6742,-261.101 281.7594,-251.6542"/>
<polygon fill="#191970" stroke="#191970" points="284.568,-253.7427 287.768,-243.6427 278.9679,-249.5427 284.568,-253.7427"/>
</g>
<!-- Node32&#45;&gt;Node16 -->
<g id="edge50" class="edge">
<title>Node32&#45;&gt;Node16</title>
<path fill="none" stroke="#191970" d="M318.895,-224.3733C341.5082,-215.2629 375.6542,-201.5062 400.8873,-191.3404"/>
<polygon fill="#191970" stroke="#191970" points="402.4493,-194.4845 410.4169,-187.5011 399.8334,-187.9917 402.4493,-194.4845"/>
</g>
<!-- Node33&#45;&gt;Node16 -->
<g id="edge55" class="edge">
<title>Node33&#45;&gt;Node16</title>
<path fill="none" stroke="#191970" d="M388.263,-280.4509C396.5286,-261.936 414.8665,-220.8591 425.6434,-196.7187"/>
<polygon fill="#191970" stroke="#191970" points="428.8672,-198.0831 429.7478,-187.5249 422.4753,-195.2295 428.8672,-198.0831"/>
</g>
<!-- Node33&#45;&gt;Node32 -->
<g id="edge54" class="edge">
<title>Node33&#45;&gt;Node32</title>
<path fill="none" stroke="#191970" d="M368.4974,-280.2455C354.842,-271.6534 334.7343,-259.0014 319.0011,-249.1018"/>
<polygon fill="#191970" stroke="#191970" points="320.6529,-246.006 310.325,-243.6427 316.9249,-251.9307 320.6529,-246.006"/>
</g>
<!-- Node34&#45;&gt;Node2 -->
<g id="edge60" class="edge">
<title>Node34&#45;&gt;Node2</title>
<path fill="none" stroke="#191970" d="M60.2913,-392.3551C47.0747,-384.2879 29.5474,-371.6026 19,-356 1.9048,-330.7115 0,-320.5246 0,-290 0,-290 0,-290 0,-234 0,-154.6512 610.5552,-128.8481 777.9814,-123.2641"/>
<polygon fill="#191970" stroke="#191970" points="778.4771,-126.7498 788.3575,-122.9251 778.2485,-119.7536 778.4771,-126.7498"/>
</g>
<!-- Node35 -->
<g id="node36" class="node">
<title>Node35</title>
<g id="a_node36"><a xlink:href="../../de/d0d/GPUErrorCodes_8h.html" target="_top" xlink:title="GPUErrorCodes.h">
<polygon fill="none" stroke="#000000" points="28,-336.5 28,-355.5 128,-355.5 128,-336.5 28,-336.5"/>
<text text-anchor="middle" x="78" y="-343.5" font-family="Helvetica,sans-Serif" font-size="10.00" fill="#000000">GPUErrorCodes.h</text>
</a>
</g>
</g>
<!-- Node34&#45;&gt;Node35 -->
<g id="edge61" class="edge">
<title>Node34&#45;&gt;Node35</title>
<path fill="none" stroke="#191970" d="M78,-392.2455C78,-384.9382 78,-374.6944 78,-365.7046"/>
<polygon fill="#191970" stroke="#191970" points="81.5001,-365.6426 78,-355.6427 74.5001,-365.6427 81.5001,-365.6426"/>
</g>
<!-- Node36&#45;&gt;Node3 -->
<g id="edge63" class="edge">
<title>Node36&#45;&gt;Node3</title>
<path fill="none" stroke="#191970" d="M1375.6768,-392.4175C1401.4624,-375.3156 1450,-336.8956 1450,-290 1450,-290 1450,-290 1450,-178 1450,-122.3341 1385.6527,-92.7699 1336.1355,-78.2603"/>
<polygon fill="#191970" stroke="#191970" points="1337.0262,-74.8752 1326.4532,-75.5558 1335.143,-81.6171 1337.0262,-74.8752"/>
</g>
<!-- Node37&#45;&gt;Node3 -->
<g id="edge65" class="edge">
<title>Node37&#45;&gt;Node3</title>
<path fill="none" stroke="#191970" d="M1580.8413,-224.3302C1586.8715,-210.7998 1595.2116,-185.8731 1585,-168 1560.6862,-125.444 1535.6214,-129.9126 1490,-112 1442.5605,-93.3735 1385.98,-81.5299 1343.508,-74.5328"/>
<polygon fill="#191970" stroke="#191970" points="1344.0049,-71.0679 1333.5773,-72.9424 1342.8979,-77.9798 1344.0049,-71.0679"/>
</g>
<!-- Node37&#45;&gt;Node12 -->
<g id="edge66" class="edge">
<title>Node37&#45;&gt;Node12</title>
<path fill="none" stroke="#191970" d="M1567.4649,-224.2455C1560.5088,-216.2958 1550.5117,-204.8706 1542.1949,-195.3656"/>
<polygon fill="#191970" stroke="#191970" points="1544.6564,-192.8637 1535.4373,-187.6427 1539.3884,-197.4732 1544.6564,-192.8637"/>
</g>
</g>
</svg>
        <g id="navigator" transform="translate(0 0)" fill="#404254">
                <rect fill="#f2f5e9" fill-opacity="0.5" stroke="#606060" stroke-width=".5" x="0" y="0" width="60" height="60"/>
                <use id="zoomplus" xlink:href="#zoomPlus" x="17" y="9" onmousedown="handleZoom(evt,'in')"/>
                <use id="zoomminus" xlink:href="#zoomMin" x="42" y="9" onmousedown="handleZoom(evt,'out')"/>
                <use id="reset" xlink:href="#resetDef" x="30" y="36" onmousedown="handleReset()"/>
                <g id="arrowUp" xlink:href="#dirArrow" transform="translate(30 24)" onmousedown="handlePan(0,-1)">
                  <use xlink:href="#rim" fill="#404040">
                        <set attributeName="fill" to="#808080" begin="arrowUp.mouseover" end="arrowUp.mouseout"/>
                  </use>
                  <path fill="none" stroke="white" stroke-width="1.5" d="M0,-3.0v7 M-2.5,-0.5L0,-3.0L2.5,-0.5"/>
                </g>
                <g id="arrowRight" xlink:href="#dirArrow" transform="rotate(90) translate(36 -43)" onmousedown="handlePan(1,0)">
                  <use xlink:href="#rim" fill="#404040">
                        <set attributeName="fill" to="#808080" begin="arrowRight.mouseover" end="arrowRight.mouseout"/>
                  </use>
                  <path fill="none" stroke="white" stroke-width="1.5" d="M0,-3.0v7 M-2.5,-0.5L0,-3.0L2.5,-0.5"/>
                </g>
                <g id="arrowDown" xlink:href="#dirArrow" transform="rotate(180) translate(-30 -48)" onmousedown="handlePan(0,1)">
                  <use xlink:href="#rim" fill="#404040">
                        <set attributeName="fill" to="#808080" begin="arrowDown.mouseover" end="arrowDown.mouseout"/>
                  </use>
                  <path fill="none" stroke="white" stroke-width="1.5" d="M0,-3.0v7 M-2.5,-0.5L0,-3.0L2.5,-0.5"/>
                </g>
                <g id="arrowLeft" xlink:href="#dirArrow" transform="rotate(270) translate(-36 17)" onmousedown="handlePan(-1,0)">
                  <use xlink:href="#rim" fill="#404040">
                        <set attributeName="fill" to="#808080" begin="arrowLeft.mouseover" end="arrowLeft.mouseout"/>
                  </use>
                  <path fill="none" stroke="white" stroke-width="1.5" d="M0,-3.0v7 M-2.5,-0.5L0,-3.0L2.5,-0.5"/>
                </g>
        </g>
        <svg viewBox="0 0 15 15" width="100%" height="30px" preserveAspectRatio="xMaxYMin meet">
         <g id="arrow_out" transform="scale(0.3 0.3)">
          <a xlink:href="GPUTPCGlobalTracking_8h__incl_org.svg" target="_base">
           <rect id="button" ry="5" rx="5" y="6" x="6" height="38" width="38"
                fill="#f2f5e9" fill-opacity="0.5" stroke="#606060" stroke-width="1.0"/>
           <path id="arrow"
             d="M 11.500037,31.436501 C 11.940474,20.09759 22.043105,11.32322 32.158766,21.979434 L 37.068811,17.246167 C 37.068811,17.246167 37.088388,32 37.088388,32 L 22.160133,31.978069 C 22.160133,31.978069 26.997745,27.140456 26.997745,27.140456 C 18.528582,18.264221 13.291696,25.230495 11.500037,31.436501 z"
             style="fill:#404040;"/>
          </a>
         </g>
        </svg>
</svg>
