<?xml version="1.0" encoding="UTF-8" standalone="no"?>
<!DOCTYPE svg PUBLIC "-//W3C//DTD SVG 1.1//EN"
 "http://www.w3.org/Graphics/SVG/1.1/DTD/svg11.dtd">
<!-- Generated by graphviz version 2.40.1 (20161225.0304)
 -->
<!-- Title: /home/travis/build/AliceO2Group/AliceO2/DataFormats/Detectors/Common/src/DetID.cxx Pages: 1 -->
<svg width="1331pt" height="352pt"
 viewBox="0.00 0.00 1330.50 352.00" xmlns="http://www.w3.org/2000/svg" xmlns:xlink="http://www.w3.org/1999/xlink">
<g id="graph0" class="graph" transform="scale(1 1) rotate(0) translate(4 348)">
<title>/home/travis/build/AliceO2Group/AliceO2/DataFormats/Detectors/Common/src/DetID.cxx</title>
<!-- Node0 -->
<g id="node1" class="node">
<title>Node0</title>
<polygon fill="#bfbfbf" stroke="#000000" points="1133.5,-291.5 1133.5,-343.5 1266.5,-343.5 1266.5,-291.5 1133.5,-291.5"/>
<text text-anchor="start" x="1141.5" y="-331.5" font-family="Helvetica,sans-Serif" font-size="10.00" fill="#000000">/home/travis/build</text>
<text text-anchor="start" x="1141.5" y="-320.5" font-family="Helvetica,sans-Serif" font-size="10.00" fill="#000000">/AliceO2Group/AliceO2</text>
<text text-anchor="start" x="1141.5" y="-309.5" font-family="Helvetica,sans-Serif" font-size="10.00" fill="#000000">/DataFormats/Detectors</text>
<text text-anchor="middle" x="1200" y="-298.5" font-family="Helvetica,sans-Serif" font-size="10.00" fill="#000000">/Common/src/DetID.cxx</text>
</g>
<!-- Node1 -->
<g id="node2" class="node">
<title>Node1</title>
<g id="a_node2"><a xlink:href="../../d6/d31/DetID_8h.html" target="_top" xlink:title="DetectorsCommonDataFormats\l/DetID.h">
<polygon fill="none" stroke="#000000" points="606.5,-224.5 606.5,-254.5 777.5,-254.5 777.5,-224.5 606.5,-224.5"/>
<text text-anchor="start" x="614.5" y="-242.5" font-family="Helvetica,sans-Serif" font-size="10.00" fill="#000000">DetectorsCommonDataFormats</text>
<text text-anchor="middle" x="692" y="-231.5" font-family="Helvetica,sans-Serif" font-size="10.00" fill="#000000">/DetID.h</text>
</a>
</g>
</g>
<!-- Node0&#45;&gt;Node1 -->
<g id="edge1" class="edge">
<title>Node0&#45;&gt;Node1</title>
<path fill="none" stroke="#191970" d="M1133.3269,-307.2628C1045.0144,-293.703 888.6744,-269.698 787.7473,-254.2014"/>
<polygon fill="#191970" stroke="#191970" points="788.269,-250.7405 777.8537,-252.6823 787.2066,-257.6594 788.269,-250.7405"/>
</g>
<!-- Node5 -->
<g id="node6" class="node">
<title>Node5</title>
<polygon fill="none" stroke="#bfbfbf" points="1155,-112.5 1155,-131.5 1207,-131.5 1207,-112.5 1155,-112.5"/>
<text text-anchor="middle" x="1181" y="-119.5" font-family="Helvetica,sans-Serif" font-size="10.00" fill="#000000">cassert</text>
</g>
<!-- Node0&#45;&gt;Node5 -->
<g id="edge32" class="edge">
<title>Node0&#45;&gt;Node5</title>
<path fill="none" stroke="#191970" d="M1197.4376,-291.134C1193.5805,-251.4463 1186.3685,-177.2389 1182.9254,-141.8109"/>
<polygon fill="#191970" stroke="#191970" points="1186.3999,-141.3784 1181.9489,-131.7639 1179.4327,-142.0556 1186.3999,-141.3784"/>
</g>
<!-- Node8 -->
<g id="node9" class="node">
<title>Node8</title>
<polygon fill="none" stroke="#bfbfbf" points="1225,-112.5 1225,-131.5 1269,-131.5 1269,-112.5 1225,-112.5"/>
<text text-anchor="middle" x="1247" y="-119.5" font-family="Helvetica,sans-Serif" font-size="10.00" fill="#000000">string</text>
</g>
<!-- Node0&#45;&gt;Node8 -->
<g id="edge33" class="edge">
<title>Node0&#45;&gt;Node8</title>
<path fill="none" stroke="#191970" d="M1206.3386,-291.134C1215.8799,-251.4463 1233.7201,-177.2389 1242.2373,-141.8109"/>
<polygon fill="#191970" stroke="#191970" points="1245.7182,-142.305 1244.6527,-131.7639 1238.9121,-140.6687 1245.7182,-142.305"/>
</g>
<!-- Node25 -->
<g id="node26" class="node">
<title>Node25</title>
<polygon fill="none" stroke="#bfbfbf" points="1247.5,-230 1247.5,-249 1322.5,-249 1322.5,-230 1247.5,-230"/>
<text text-anchor="middle" x="1285" y="-237" font-family="Helvetica,sans-Serif" font-size="10.00" fill="#000000">FairLogger.h</text>
</g>
<!-- Node0&#45;&gt;Node25 -->
<g id="edge34" class="edge">
<title>Node0&#45;&gt;Node25</title>
<path fill="none" stroke="#191970" d="M1228.7771,-291.0928C1241.489,-279.4278 1256.0357,-266.079 1267.1474,-255.8824"/>
<polygon fill="#191970" stroke="#191970" points="1269.5545,-258.4239 1274.556,-249.0839 1264.8217,-253.2663 1269.5545,-258.4239"/>
</g>
<!-- Node2 -->
<g id="node3" class="node">
<title>Node2</title>
<polygon fill="none" stroke="#bfbfbf" points="744.5,-168.5 744.5,-187.5 803.5,-187.5 803.5,-168.5 744.5,-168.5"/>
<text text-anchor="middle" x="774" y="-175.5" font-family="Helvetica,sans-Serif" font-size="10.00" fill="#000000">Rtypes.h</text>
</g>
<!-- Node1&#45;&gt;Node2 -->
<g id="edge2" class="edge">
<title>Node1&#45;&gt;Node2</title>
<path fill="none" stroke="#191970" d="M712.2697,-224.2977C724.6006,-215.0495 740.3266,-203.2551 752.8197,-193.8853"/>
<polygon fill="#191970" stroke="#191970" points="754.9708,-196.647 760.8708,-187.8469 750.7707,-191.047 754.9708,-196.647"/>
</g>
<!-- Node3 -->
<g id="node4" class="node">
<title>Node3</title>
<polygon fill="none" stroke="#bfbfbf" points="463,-112.5 463,-131.5 505,-131.5 505,-112.5 463,-112.5"/>
<text text-anchor="middle" x="484" y="-119.5" font-family="Helvetica,sans-Serif" font-size="10.00" fill="#000000">array</text>
</g>
<!-- Node1&#45;&gt;Node3 -->
<g id="edge3" class="edge">
<title>Node1&#45;&gt;Node3</title>
<path fill="none" stroke="#191970" d="M606.176,-228.3655C575.7251,-220.9483 542.8751,-208.5903 518,-188 503.4585,-175.9633 494.4274,-156.0982 489.361,-141.301"/>
<polygon fill="#191970" stroke="#191970" points="492.6588,-140.1186 486.3505,-131.6065 485.9737,-142.1946 492.6588,-140.1186"/>
</g>
<!-- Node4 -->
<g id="node5" class="node">
<title>Node4</title>
<polygon fill="none" stroke="#bfbfbf" points="276,-168.5 276,-187.5 320,-187.5 320,-168.5 276,-168.5"/>
<text text-anchor="middle" x="298" y="-175.5" font-family="Helvetica,sans-Serif" font-size="10.00" fill="#000000">bitset</text>
</g>
<!-- Node1&#45;&gt;Node4 -->
<g id="edge4" class="edge">
<title>Node1&#45;&gt;Node4</title>
<path fill="none" stroke="#191970" d="M606.162,-231.5084C534.5096,-223.8767 429.6782,-210.4816 330.1475,-187.953"/>
<polygon fill="#191970" stroke="#191970" points="330.7535,-184.501 320.2236,-185.6719 329.1853,-191.3232 330.7535,-184.501"/>
</g>
<!-- Node1&#45;&gt;Node5 -->
<g id="edge5" class="edge">
<title>Node1&#45;&gt;Node5</title>
<path fill="none" stroke="#191970" d="M777.7508,-226.5578C833.4747,-217.4537 907.4887,-204.053 972,-188 1033.7432,-172.6358 1103.9955,-149.1845 1145.299,-134.7657"/>
<polygon fill="#191970" stroke="#191970" points="1146.6287,-138.0084 1154.9043,-131.3929 1144.3095,-131.4037 1146.6287,-138.0084"/>
</g>
<!-- Node6 -->
<g id="node7" class="node">
<title>Node6</title>
<polygon fill="none" stroke="#bfbfbf" points="523,-112.5 523,-131.5 573,-131.5 573,-112.5 523,-112.5"/>
<text text-anchor="middle" x="548" y="-119.5" font-family="Helvetica,sans-Serif" font-size="10.00" fill="#000000">cstdint</text>
</g>
<!-- Node1&#45;&gt;Node6 -->
<g id="edge6" class="edge">
<title>Node1&#45;&gt;Node6</title>
<path fill="none" stroke="#191970" d="M675.3708,-224.3146C659.0347,-209.5621 633.248,-186.7119 610,-168 596.8932,-157.4506 581.7326,-146.1865 569.6838,-137.4451"/>
<polygon fill="#191970" stroke="#191970" points="571.6935,-134.5793 561.5343,-131.5723 567.6009,-140.2583 571.6935,-134.5793"/>
</g>
<!-- Node7 -->
<g id="node8" class="node">
<title>Node7</title>
<polygon fill="none" stroke="#bfbfbf" points="527.5,-168.5 527.5,-187.5 600.5,-187.5 600.5,-168.5 527.5,-168.5"/>
<text text-anchor="middle" x="564" y="-175.5" font-family="Helvetica,sans-Serif" font-size="10.00" fill="#000000">string_view</text>
</g>
<!-- Node1&#45;&gt;Node7 -->
<g id="edge7" class="edge">
<title>Node1&#45;&gt;Node7</title>
<path fill="none" stroke="#191970" d="M660.6877,-224.4554C639.9862,-214.509 613.0477,-201.5659 592.8647,-191.8686"/>
<polygon fill="#191970" stroke="#191970" points="594.3648,-188.7064 583.8355,-187.5303 591.3333,-195.0159 594.3648,-188.7064"/>
</g>
<!-- Node1&#45;&gt;Node8 -->
<g id="edge8" class="edge">
<title>Node1&#45;&gt;Node8</title>
<path fill="none" stroke="#191970" d="M777.8296,-228.9541C844.3175,-220.0798 938.5202,-205.9657 1020,-188 1090.4983,-172.4556 1171.2866,-147.1131 1214.9412,-132.7758"/>
<polygon fill="#191970" stroke="#191970" points="1216.3035,-136.0118 1224.7,-129.5505 1214.1068,-129.3654 1216.3035,-136.0118"/>
</g>
<!-- Node9 -->
<g id="node10" class="node">
<title>Node9</title>
<polygon fill="none" stroke="#bfbfbf" points="657.5,-168.5 657.5,-187.5 726.5,-187.5 726.5,-168.5 657.5,-168.5"/>
<text text-anchor="middle" x="692" y="-175.5" font-family="Helvetica,sans-Serif" font-size="10.00" fill="#000000">type_traits</text>
</g>
<!-- Node1&#45;&gt;Node9 -->
<g id="edge9" class="edge">
<title>Node1&#45;&gt;Node9</title>
<path fill="none" stroke="#191970" d="M692,-224.2977C692,-216.3834 692,-206.6043 692,-198.0759"/>
<polygon fill="#191970" stroke="#191970" points="695.5001,-197.8469 692,-187.8469 688.5001,-197.847 695.5001,-197.8469"/>
</g>
<!-- Node10 -->
<g id="node11" class="node">
<title>Node10</title>
<g id="a_node11"><a xlink:href="../../d9/d52/Common_2MathUtils_2include_2MathUtils_2Utils_8h.html" target="_top" xlink:title="MathUtils/Utils.h">
<polygon fill="none" stroke="#000000" points="338,-168.5 338,-187.5 436,-187.5 436,-168.5 338,-168.5"/>
<text text-anchor="middle" x="387" y="-175.5" font-family="Helvetica,sans-Serif" font-size="10.00" fill="#000000">MathUtils/Utils.h</text>
</a>
</g>
</g>
<!-- Node1&#45;&gt;Node10 -->
<g id="edge10" class="edge">
<title>Node1&#45;&gt;Node10</title>
<path fill="none" stroke="#191970" d="M617.3886,-224.4554C564.0433,-213.6989 493.3166,-199.4376 444.3653,-189.5671"/>
<polygon fill="#191970" stroke="#191970" points="444.7587,-186.0761 434.2642,-187.5303 443.375,-192.938 444.7587,-186.0761"/>
</g>
<!-- Node18 -->
<g id="node19" class="node">
<title>Node18</title>
<g id="a_node19"><a xlink:href="../../dc/dcd/DataHeader_8h.html" target="_top" xlink:title="Headers/DataHeader.h">
<polygon fill="none" stroke="#000000" points="835.5,-168.5 835.5,-187.5 962.5,-187.5 962.5,-168.5 835.5,-168.5"/>
<text text-anchor="middle" x="899" y="-175.5" font-family="Helvetica,sans-Serif" font-size="10.00" fill="#000000">Headers/DataHeader.h</text>
</a>
</g>
</g>
<!-- Node1&#45;&gt;Node18 -->
<g id="edge21" class="edge">
<title>Node1&#45;&gt;Node18</title>
<path fill="none" stroke="#191970" d="M742.6379,-224.4554C777.7823,-214.0139 824.0424,-200.27 857.1103,-190.4455"/>
<polygon fill="#191970" stroke="#191970" points="858.3333,-193.7334 866.9223,-187.5303 856.3397,-187.0233 858.3333,-193.7334"/>
</g>
<!-- Node10&#45;&gt;Node3 -->
<g id="edge11" class="edge">
<title>Node10&#45;&gt;Node3</title>
<path fill="none" stroke="#191970" d="M403.8961,-168.2455C418.918,-159.5731 441.1043,-146.7645 458.321,-136.825"/>
<polygon fill="#191970" stroke="#191970" points="460.3871,-139.6737 467.2975,-131.6427 456.8872,-133.6114 460.3871,-139.6737"/>
</g>
<!-- Node11 -->
<g id="node12" class="node">
<title>Node11</title>
<polygon fill="none" stroke="#bfbfbf" points="305.5,-56.5 305.5,-75.5 352.5,-75.5 352.5,-56.5 305.5,-56.5"/>
<text text-anchor="middle" x="329" y="-63.5" font-family="Helvetica,sans-Serif" font-size="10.00" fill="#000000">cmath</text>
</g>
<!-- Node10&#45;&gt;Node11 -->
<g id="edge12" class="edge">
<title>Node10&#45;&gt;Node11</title>
<path fill="none" stroke="#191970" d="M337.9573,-169.5141C334.9267,-168.9991 331.9223,-168.491 329,-168 280.1457,-159.7914 141.0766,-169.7521 109,-132 103.2444,-125.2261 103.3946,-118.8987 109,-112 132.059,-83.6209 239.272,-72.1397 295.0593,-68.025"/>
<polygon fill="#191970" stroke="#191970" points="295.4367,-71.5072 305.1684,-67.3186 294.9488,-64.5242 295.4367,-71.5072"/>
</g>
<!-- Node12 -->
<g id="node13" class="node">
<title>Node12</title>
<g id="a_node13"><a xlink:href="../../df/d21/GPUCommonDef_8h.html" target="_top" xlink:title="GPUCommonDef.h">
<polygon fill="none" stroke="#000000" points="97.5,-56.5 97.5,-75.5 204.5,-75.5 204.5,-56.5 97.5,-56.5"/>
<text text-anchor="middle" x="151" y="-63.5" font-family="Helvetica,sans-Serif" font-size="10.00" fill="#000000">GPUCommonDef.h</text>
</a>
</g>
</g>
<!-- Node10&#45;&gt;Node12 -->
<g id="edge13" class="edge">
<title>Node10&#45;&gt;Node12</title>
<path fill="none" stroke="#191970" d="M337.9605,-169.4948C334.9292,-168.9846 331.9236,-168.4828 329,-168 278.3911,-159.6422 134.3223,-170.9966 101,-132 86.7471,-115.32 107.2613,-95.0696 126.153,-81.435"/>
<polygon fill="#191970" stroke="#191970" points="128.3053,-84.2034 134.5881,-75.6725 124.3567,-78.4234 128.3053,-84.2034"/>
</g>
<!-- Node15 -->
<g id="node16" class="node">
<title>Node15</title>
<g id="a_node16"><a xlink:href="../../d6/da2/GPUCommonMath_8h.html" target="_top" xlink:title="GPUCommonMath.h">
<polygon fill="none" stroke="#000000" points="329.5,-112.5 329.5,-131.5 444.5,-131.5 444.5,-112.5 329.5,-112.5"/>
<text text-anchor="middle" x="387" y="-119.5" font-family="Helvetica,sans-Serif" font-size="10.00" fill="#000000">GPUCommonMath.h</text>
</a>
</g>
</g>
<!-- Node10&#45;&gt;Node15 -->
<g id="edge16" class="edge">
<title>Node10&#45;&gt;Node15</title>
<path fill="none" stroke="#191970" d="M387,-168.2455C387,-160.9382 387,-150.6944 387,-141.7046"/>
<polygon fill="#191970" stroke="#191970" points="390.5001,-141.6426 387,-131.6427 383.5001,-141.6427 390.5001,-141.6426"/>
</g>
<!-- Node17 -->
<g id="node18" class="node">
<title>Node17</title>
<g id="a_node18"><a xlink:href="../../d6/d84/MathConstants_8h.html" target="_top" xlink:title="useful math constants ">
<polygon fill="none" stroke="#000000" points="118,-112.5 118,-131.5 312,-131.5 312,-112.5 118,-112.5"/>
<text text-anchor="middle" x="215" y="-119.5" font-family="Helvetica,sans-Serif" font-size="10.00" fill="#000000">CommonConstants/MathConstants.h</text>
</a>
</g>
</g>
<!-- Node10&#45;&gt;Node17 -->
<g id="edge20" class="edge">
<title>Node10&#45;&gt;Node17</title>
<path fill="none" stroke="#191970" d="M357.4321,-168.3733C328.8312,-159.0613 285.3212,-144.8953 253.9181,-134.671"/>
<polygon fill="#191970" stroke="#191970" points="254.7743,-131.269 244.182,-131.5011 252.6072,-137.9251 254.7743,-131.269"/>
</g>
<!-- Node13 -->
<g id="node14" class="node">
<title>Node13</title>
<g id="a_node14"><a xlink:href="../../d5/d93/GPUCommonDefSettings_8h.html" target="_top" xlink:title="GPUCommonDefSettings.h">
<polygon fill="none" stroke="#000000" points="0,-.5 0,-19.5 148,-19.5 148,-.5 0,-.5"/>
<text text-anchor="middle" x="74" y="-7.5" font-family="Helvetica,sans-Serif" font-size="10.00" fill="#000000">GPUCommonDefSettings.h</text>
</a>
</g>
</g>
<!-- Node12&#45;&gt;Node13 -->
<g id="edge14" class="edge">
<title>Node12&#45;&gt;Node13</title>
<path fill="none" stroke="#191970" d="M137.5876,-56.2455C125.9943,-47.814 109.0252,-35.4729 95.5322,-25.6598"/>
<polygon fill="#191970" stroke="#191970" points="97.4047,-22.6938 87.2587,-19.6427 93.2874,-28.355 97.4047,-22.6938"/>
</g>
<!-- Node14 -->
<g id="node15" class="node">
<title>Node14</title>
<g id="a_node15"><a xlink:href="../../da/d5a/GPUCommonDefAPI_8h.html" target="_top" xlink:title="GPUCommonDefAPI.h">
<polygon fill="none" stroke="#000000" points="166,-.5 166,-19.5 290,-19.5 290,-.5 166,-.5"/>
<text text-anchor="middle" x="228" y="-7.5" font-family="Helvetica,sans-Serif" font-size="10.00" fill="#000000">GPUCommonDefAPI.h</text>
</a>
</g>
</g>
<!-- Node12&#45;&gt;Node14 -->
<g id="edge15" class="edge">
<title>Node12&#45;&gt;Node14</title>
<path fill="none" stroke="#191970" d="M164.4124,-56.2455C176.0057,-47.814 192.9748,-35.4729 206.4678,-25.6598"/>
<polygon fill="#191970" stroke="#191970" points="208.7126,-28.355 214.7413,-19.6427 204.5953,-22.6938 208.7126,-28.355"/>
</g>
<!-- Node15&#45;&gt;Node11 -->
<g id="edge18" class="edge">
<title>Node15&#45;&gt;Node11</title>
<path fill="none" stroke="#191970" d="M376.8972,-112.2455C368.4972,-104.1352 356.3506,-92.4075 346.3916,-82.7919"/>
<polygon fill="#191970" stroke="#191970" points="348.6122,-80.0707 338.9871,-75.6427 343.75,-85.1066 348.6122,-80.0707"/>
</g>
<!-- Node15&#45;&gt;Node12 -->
<g id="edge17" class="edge">
<title>Node15&#45;&gt;Node12</title>
<path fill="none" stroke="#191970" d="M346.6983,-112.4369C306.3936,-102.8731 244.3179,-88.1432 200.9182,-77.845"/>
<polygon fill="#191970" stroke="#191970" points="201.6734,-74.4271 191.1355,-75.5237 200.0572,-81.238 201.6734,-74.4271"/>
</g>
<!-- Node16 -->
<g id="node17" class="node">
<title>Node16</title>
<polygon fill="none" stroke="#bfbfbf" points="412,-56.5 412,-75.5 476,-75.5 476,-56.5 412,-56.5"/>
<text text-anchor="middle" x="444" y="-63.5" font-family="Helvetica,sans-Serif" font-size="10.00" fill="#000000">algorithm</text>
</g>
<!-- Node15&#45;&gt;Node16 -->
<g id="edge19" class="edge">
<title>Node15&#45;&gt;Node16</title>
<path fill="none" stroke="#191970" d="M396.9286,-112.2455C405.1838,-104.1352 417.1209,-92.4075 426.9082,-82.7919"/>
<polygon fill="#191970" stroke="#191970" points="429.5046,-85.1476 434.1851,-75.6427 424.5989,-80.1542 429.5046,-85.1476"/>
</g>
<!-- Node18&#45;&gt;Node5 -->
<g id="edge24" class="edge">
<title>Node18&#45;&gt;Node5</title>
<path fill="none" stroke="#191970" d="M958.7195,-168.4992C1006.5955,-160.514 1075.6782,-148.1684 1144.5405,-132.1868"/>
<polygon fill="#191970" stroke="#191970" points="1145.761,-135.4955 1154.6964,-129.8026 1144.1611,-128.6808 1145.761,-135.4955"/>
</g>
<!-- Node18&#45;&gt;Node6 -->
<g id="edge22" class="edge">
<title>Node18&#45;&gt;Node6</title>
<path fill="none" stroke="#191970" d="M835.4606,-169.8668C761.5188,-160.2224 642.8726,-144.1478 582.9401,-131.9119"/>
<polygon fill="#191970" stroke="#191970" points="583.6575,-128.4863 573.1481,-129.8288 582.2009,-135.3331 583.6575,-128.4863"/>
</g>
<!-- Node18&#45;&gt;Node8 -->
<g id="edge28" class="edge">
<title>Node18&#45;&gt;Node8</title>
<path fill="none" stroke="#191970" d="M962.7353,-171.9326C1024.9644,-165.2922 1122.3869,-152.9954 1214.9655,-131.9325"/>
<polygon fill="#191970" stroke="#191970" points="1215.8207,-135.3272 1224.7744,-129.6632 1214.2428,-128.5073 1215.8207,-135.3272"/>
</g>
<!-- Node18&#45;&gt;Node16 -->
<g id="edge26" class="edge">
<title>Node18&#45;&gt;Node16</title>
<path fill="none" stroke="#191970" d="M899.3234,-168.1392C899.2166,-153.4198 896.6286,-125.9438 880,-112 850.1856,-86.9993 589.8371,-72.5894 486.2495,-67.8018"/>
<polygon fill="#191970" stroke="#191970" points="486.2959,-64.3003 476.1472,-67.3425 485.9779,-71.2931 486.2959,-64.3003"/>
</g>
<!-- Node19 -->
<g id="node20" class="node">
<title>Node19</title>
<polygon fill="none" stroke="#bfbfbf" points="927,-112.5 927,-131.5 985,-131.5 985,-112.5 927,-112.5"/>
<text text-anchor="middle" x="956" y="-119.5" font-family="Helvetica,sans-Serif" font-size="10.00" fill="#000000">memory</text>
</g>
<!-- Node18&#45;&gt;Node19 -->
<g id="edge23" class="edge">
<title>Node18&#45;&gt;Node19</title>
<path fill="none" stroke="#191970" d="M908.9286,-168.2455C917.1838,-160.1352 929.1209,-148.4075 938.9082,-138.7919"/>
<polygon fill="#191970" stroke="#191970" points="941.5046,-141.1476 946.1851,-131.6427 936.5989,-136.1542 941.5046,-141.1476"/>
</g>
<!-- Node20 -->
<g id="node21" class="node">
<title>Node20</title>
<polygon fill="none" stroke="#bfbfbf" points="1003,-112.5 1003,-131.5 1053,-131.5 1053,-112.5 1003,-112.5"/>
<text text-anchor="middle" x="1028" y="-119.5" font-family="Helvetica,sans-Serif" font-size="10.00" fill="#000000">cstring</text>
</g>
<!-- Node18&#45;&gt;Node20 -->
<g id="edge25" class="edge">
<title>Node18&#45;&gt;Node20</title>
<path fill="none" stroke="#191970" d="M921.1759,-168.3733C941.9766,-159.3435 973.2917,-145.7494 996.6458,-135.6111"/>
<polygon fill="#191970" stroke="#191970" points="998.3343,-138.6938 1006.1135,-131.5011 995.5468,-132.2727 998.3343,-138.6938"/>
</g>
<!-- Node21 -->
<g id="node22" class="node">
<title>Node21</title>
<polygon fill="none" stroke="#bfbfbf" points="1071.5,-112.5 1071.5,-131.5 1136.5,-131.5 1136.5,-112.5 1071.5,-112.5"/>
<text text-anchor="middle" x="1104" y="-119.5" font-family="Helvetica,sans-Serif" font-size="10.00" fill="#000000">stdexcept</text>
</g>
<!-- Node18&#45;&gt;Node21 -->
<g id="edge27" class="edge">
<title>Node18&#45;&gt;Node21</title>
<path fill="none" stroke="#191970" d="M934.2408,-168.3733C969.5499,-158.7278 1023.9241,-143.8744 1061.5792,-133.5881"/>
<polygon fill="#191970" stroke="#191970" points="1062.5237,-136.9584 1071.2479,-130.9469 1060.679,-130.2059 1062.5237,-136.9584"/>
</g>
<!-- Node22 -->
<g id="node23" class="node">
<title>Node22</title>
<polygon fill="none" stroke="#bfbfbf" points="591,-112.5 591,-131.5 641,-131.5 641,-112.5 591,-112.5"/>
<text text-anchor="middle" x="616" y="-119.5" font-family="Helvetica,sans-Serif" font-size="10.00" fill="#000000">climits</text>
</g>
<!-- Node18&#45;&gt;Node22 -->
<g id="edge29" class="edge">
<title>Node18&#45;&gt;Node22</title>
<path fill="none" stroke="#191970" d="M837.7435,-168.4979C789.388,-160.5829 720.0645,-148.323 650.9256,-132.0427"/>
<polygon fill="#191970" stroke="#191970" points="651.7122,-128.6322 641.1732,-129.7189 650.0895,-135.4416 651.7122,-128.6322"/>
</g>
<!-- Node23 -->
<g id="node24" class="node">
<title>Node23</title>
<g id="a_node24"><a xlink:href="../../d7/df8/Types_8h.html" target="_top" xlink:title="MemoryResources/Types.h">
<polygon fill="none" stroke="#000000" points="659,-112.5 659,-131.5 805,-131.5 805,-112.5 659,-112.5"/>
<text text-anchor="middle" x="732" y="-119.5" font-family="Helvetica,sans-Serif" font-size="10.00" fill="#000000">MemoryResources/Types.h</text>
</a>
</g>
</g>
<!-- Node18&#45;&gt;Node23 -->
<g id="edge30" class="edge">
<title>Node18&#45;&gt;Node23</title>
<path fill="none" stroke="#191970" d="M870.2917,-168.3733C842.6423,-159.1016 800.6424,-145.0178 770.1834,-134.804"/>
<polygon fill="#191970" stroke="#191970" points="770.9276,-131.3621 760.3337,-131.5011 768.7021,-137.9989 770.9276,-131.3621"/>
</g>
<!-- Node24 -->
<g id="node25" class="node">
<title>Node24</title>
<polygon fill="none" stroke="#bfbfbf" points="823.5,-112.5 823.5,-131.5 870.5,-131.5 870.5,-112.5 823.5,-112.5"/>
<text text-anchor="middle" x="847" y="-119.5" font-family="Helvetica,sans-Serif" font-size="10.00" fill="#000000">cerrno</text>
</g>
<!-- Node18&#45;&gt;Node24 -->
<g id="edge31" class="edge">
<title>Node18&#45;&gt;Node24</title>
<path fill="none" stroke="#191970" d="M889.9423,-168.2455C882.4858,-160.2155 871.7366,-148.6394 862.8583,-139.0781"/>
<polygon fill="#191970" stroke="#191970" points="865.3232,-136.589 855.9539,-131.6427 860.1937,-141.3522 865.3232,-136.589"/>
</g>
</g>
</svg>
