<?xml version="1.0" encoding="UTF-8" standalone="no"?>
<!DOCTYPE svg PUBLIC "-//W3C//DTD SVG 1.1//EN"
 "http://www.w3.org/Graphics/SVG/1.1/DTD/svg11.dtd">
<!-- Generated by graphviz version 2.40.1 (20161225.0304)
 -->
<!-- Title: /home/travis/build/AliceO2Group/AliceO2/DataFormats/Detectors/ITSMFT/common/include/DataFormatsITSMFT/ClusterPattern.h Pages: 1 -->
<svg width="405pt" height="184pt"
 viewBox="0.00 0.00 404.70 184.00" xmlns="http://www.w3.org/2000/svg" xmlns:xlink="http://www.w3.org/1999/xlink">
<g id="graph0" class="graph" transform="scale(1 1) rotate(0) translate(4 180)">
<title>/home/travis/build/AliceO2Group/AliceO2/DataFormats/Detectors/ITSMFT/common/include/DataFormatsITSMFT/ClusterPattern.h</title>
<!-- Node0 -->
<g id="node1" class="node">
<title>Node0</title>
<polygon fill="#bfbfbf" stroke="#000000" points=".7048,-112.5 .7048,-175.5 198.7048,-175.5 198.7048,-112.5 .7048,-112.5"/>
<text text-anchor="start" x="8.7048" y="-163.5" font-family="Helvetica,sans-Serif" font-size="10.00" fill="#000000">/home/travis/build</text>
<text text-anchor="start" x="8.7048" y="-152.5" font-family="Helvetica,sans-Serif" font-size="10.00" fill="#000000">/AliceO2Group/AliceO2</text>
<text text-anchor="start" x="8.7048" y="-141.5" font-family="Helvetica,sans-Serif" font-size="10.00" fill="#000000">/DataFormats/Detectors</text>
<text text-anchor="start" x="8.7048" y="-130.5" font-family="Helvetica,sans-Serif" font-size="10.00" fill="#000000">/ITSMFT/common/include</text>
<text text-anchor="middle" x="99.7048" y="-119.5" font-family="Helvetica,sans-Serif" font-size="10.00" fill="#000000">/DataFormatsITSMFT/ClusterPattern.h</text>
</g>
<!-- Node1 -->
<g id="node2" class="node">
<title>Node1</title>
<polygon fill="none" stroke="#bfbfbf" points="115.2048,-.5 115.2048,-19.5 174.2048,-19.5 174.2048,-.5 115.2048,-.5"/>
<text text-anchor="middle" x="144.7048" y="-7.5" font-family="Helvetica,sans-Serif" font-size="10.00" fill="#000000">Rtypes.h</text>
</g>
<!-- Node0&#45;&gt;Node1 -->
<g id="edge1" class="edge">
<title>Node0&#45;&gt;Node1</title>
<path fill="none" stroke="#191970" d="M32.1792,-112.4881C8.2429,-96.8866 -9.4149,-76.9297 5.7048,-56 17.5419,-39.6142 68.3227,-25.8334 105.0886,-17.7453"/>
<polygon fill="#191970" stroke="#191970" points="105.9953,-21.1306 115.0428,-15.6176 104.5321,-14.2853 105.9953,-21.1306"/>
</g>
<!-- Node2 -->
<g id="node3" class="node">
<title>Node2</title>
<polygon fill="none" stroke="#bfbfbf" points="14.7048,-56.5 14.7048,-75.5 56.7048,-75.5 56.7048,-56.5 14.7048,-56.5"/>
<text text-anchor="middle" x="35.7048" y="-63.5" font-family="Helvetica,sans-Serif" font-size="10.00" fill="#000000">array</text>
</g>
<!-- Node0&#45;&gt;Node2 -->
<g id="edge2" class="edge">
<title>Node0&#45;&gt;Node2</title>
<path fill="none" stroke="#191970" d="M73.6736,-112.2744C65.5755,-102.4049 56.9488,-91.8911 49.9681,-83.3834"/>
<polygon fill="#191970" stroke="#191970" points="52.6656,-81.1532 43.6167,-75.6426 47.2541,-85.5934 52.6656,-81.1532"/>
</g>
<!-- Node3 -->
<g id="node4" class="node">
<title>Node3</title>
<polygon fill="none" stroke="#bfbfbf" points="75.2048,-56.5 75.2048,-75.5 124.2048,-75.5 124.2048,-56.5 75.2048,-56.5"/>
<text text-anchor="middle" x="99.7048" y="-63.5" font-family="Helvetica,sans-Serif" font-size="10.00" fill="#000000">iosfwd</text>
</g>
<!-- Node0&#45;&gt;Node3 -->
<g id="edge3" class="edge">
<title>Node0&#45;&gt;Node3</title>
<path fill="none" stroke="#191970" d="M99.7048,-112.2744C99.7048,-103.3302 99.7048,-93.8568 99.7048,-85.8269"/>
<polygon fill="#191970" stroke="#191970" points="103.2049,-85.6425 99.7048,-75.6426 96.2049,-85.6426 103.2049,-85.6425"/>
</g>
<!-- Node4 -->
<g id="node5" class="node">
<title>Node4</title>
<polygon fill="none" stroke="#bfbfbf" points="142.7048,-56.5 142.7048,-75.5 190.7048,-75.5 190.7048,-56.5 142.7048,-56.5"/>
<text text-anchor="middle" x="166.7048" y="-63.5" font-family="Helvetica,sans-Serif" font-size="10.00" fill="#000000">gsl/gsl</text>
</g>
<!-- Node0&#45;&gt;Node4 -->
<g id="edge4" class="edge">
<title>Node0&#45;&gt;Node4</title>
<path fill="none" stroke="#191970" d="M126.9563,-112.2744C135.4339,-102.4049 144.465,-91.8911 151.7729,-83.3834"/>
<polygon fill="#191970" stroke="#191970" points="154.5612,-85.5089 158.4221,-75.6426 149.2512,-80.9477 154.5612,-85.5089"/>
</g>
<!-- Node5 -->
<g id="node6" class="node">
<title>Node5</title>
<g id="a_node6"><a xlink:href="../../df/de4/CompCluster_8h.html" target="_top" xlink:title="Definition of the ITSMFT compact cluster. ">
<polygon fill="none" stroke="#000000" points="208.7048,-56.5 208.7048,-75.5 396.7048,-75.5 396.7048,-56.5 208.7048,-56.5"/>
<text text-anchor="middle" x="302.7048" y="-63.5" font-family="Helvetica,sans-Serif" font-size="10.00" fill="#000000">DataFormatsITSMFT/CompCluster.h</text>
</a>
</g>
</g>
<!-- Node0&#45;&gt;Node5 -->
<g id="edge5" class="edge">
<title>Node0&#45;&gt;Node5</title>
<path fill="none" stroke="#191970" d="M181.6876,-112.4992C211.9208,-100.8825 244.5548,-88.3433 268.307,-79.2169"/>
<polygon fill="#191970" stroke="#191970" points="269.8306,-82.381 277.9098,-75.5271 267.3198,-75.8468 269.8306,-82.381"/>
</g>
<!-- Node5&#45;&gt;Node1 -->
<g id="edge6" class="edge">
<title>Node5&#45;&gt;Node1</title>
<path fill="none" stroke="#191970" d="M275.5437,-56.3733C249.4981,-47.1419 209.9932,-33.1402 181.207,-22.9375"/>
<polygon fill="#191970" stroke="#191970" points="182.1063,-19.5429 171.5116,-19.5011 179.7678,-26.1408 182.1063,-19.5429"/>
</g>
</g>
</svg>
