<?xml version="1.0" encoding="UTF-8" standalone="no"?>
<!DOCTYPE svg PUBLIC "-//W3C//DTD SVG 1.1//EN"
 "http://www.w3.org/Graphics/SVG/1.1/DTD/svg11.dtd">
<!-- Generated by graphviz version 2.40.1 (20161225.0304)
 -->
<!-- Title: o2::zdc::RecEvent Pages: 1 -->
<!--zoomable 661 -->
<svg id="main" version="1.1" xmlns="http://www.w3.org/2000/svg" xmlns:xlink="http://www.w3.org/1999/xlink" xml:space="preserve" onload="init(evt)">
<style type="text/css"><![CDATA[
.edge:hover path { stroke: red; }
.edge:hover polygon { stroke: red; fill: red; }
]]></style>
<script type="text/javascript"><![CDATA[
var edges = document.getElementsByTagName('g');
if (edges && edges.length) {
  for (var i=0;i<edges.length;i++) {
    if (edges[i].id.substr(0,4)=='edge') {
      edges[i].setAttribute('class','edge');
    }
  }
}
]]></script>
        <defs>
                <circle id="rim" cx="0" cy="0" r="7"/>
                <circle id="rim2" cx="0" cy="0" r="3.5"/>
                <g id="zoomPlus">
                        <use xlink:href="#rim" fill="#404040">
                                <set attributeName="fill" to="#808080" begin="zoomplus.mouseover" end="zoomplus.mouseout"/>
                        </use>
                        <path d="M-4,0h8M0,-4v8" fill="none" stroke="white" stroke-width="1.5" pointer-events="none"/>
                </g>
                <g id="zoomMin">
                        <use xlink:href="#rim" fill="#404040">
                                <set attributeName="fill" to="#808080" begin="zoomminus.mouseover" end="zoomminus.mouseout"/>
                        </use>
                        <path d="M-4,0h8" fill="none" stroke="white" stroke-width="1.5" pointer-events="none"/>
                </g>
                <g id="dirArrow">
                        <path fill="none" stroke="white" stroke-width="1.5" d="M0,-3.0v7 M-2.5,-0.5L0,-3.0L2.5,-0.5"/>
                </g>
               <g id="resetDef">
                       <use xlink:href="#rim2" fill="#404040">
                               <set attributeName="fill" to="#808080" begin="reset.mouseover" end="reset.mouseout"/>
                       </use>
               </g>
        </defs>

<script type="text/javascript">
var viewWidth = 1130;
var viewHeight = 661;
var sectionId = 'dynsection-0';
</script>
<script xlink:href="../../svgpan.js"/>
<svg id="graph" class="graph">
<g id="viewport">
<title>o2::zdc::RecEvent</title>
<!-- Node1 -->
<g id="node1" class="node">
<title>Node1</title>
<polygon fill="#bfbfbf" stroke="#000000" points="556,-.5 556,-68.5 658,-68.5 658,-.5 556,-.5"/>
<text text-anchor="middle" x="607" y="-56.5" font-family="Helvetica,sans-Serif" font-size="10.00" fill="#000000">o2::zdc::RecEvent</text>
<polyline fill="none" stroke="#000000" points="556,-49.5 658,-49.5 "/>
<text text-anchor="middle" x="607" y="-37.5" font-family="Helvetica,sans-Serif" font-size="10.00" fill="#000000"> </text>
<polyline fill="none" stroke="#000000" points="556,-30.5 658,-30.5 "/>
<text text-anchor="start" x="564" y="-18.5" font-family="Helvetica,sans-Serif" font-size="10.00" fill="#000000">+ print()</text>
<text text-anchor="start" x="564" y="-7.5" font-family="Helvetica,sans-Serif" font-size="10.00" fill="#000000">+ ClassDefNV()</text>
</g>
<!-- Node2 -->
<g id="node2" class="node">
<title>Node2</title>
<g id="a_node2"><a xlink:href="../../d1/d21/structo2_1_1InteractionRecord.html" target="_top" xlink:title="{o2::InteractionRecord\n||+ InteractionRecord()\l+ InteractionRecord()\l+ InteractionRecord()\l+ InteractionRecord()\l+ clear()\l+ isDummy()\l+ setFromNS()\l+ bc2ns()\l+ operator==()\l+ operator!=()\l+ differenceInBC()\l+ toLong()\l+ setFromLong()\l+ operator\&gt;()\l+ operator\&gt;=()\l+ operator\&lt;()\l+ operator\&lt;=()\l+ operator&#45;&#45;()\l+ operator&#45;&#45;()\l+ operator++()\l+ operator++()\l+ operator+=()\l+ operator&#45;=()\l+ operator+=()\l+ operator&#45;=()\l+ operator+()\l+ operator&#45;()\l+ operator+()\l+ operator&#45;()\l+ print()\l+ ClassDefNV()\l+ bc2ns()\l+ ns2bc()\l}">
<polygon fill="none" stroke="#000000" points="102.5,-127.5 102.5,-536.5 223.5,-536.5 223.5,-127.5 102.5,-127.5"/>
<text text-anchor="middle" x="163" y="-524.5" font-family="Helvetica,sans-Serif" font-size="10.00" fill="#000000">o2::InteractionRecord</text>
<polyline fill="none" stroke="#000000" points="102.5,-517.5 223.5,-517.5 "/>
<text text-anchor="middle" x="163" y="-505.5" font-family="Helvetica,sans-Serif" font-size="10.00" fill="#000000"> </text>
<polyline fill="none" stroke="#000000" points="102.5,-498.5 223.5,-498.5 "/>
<text text-anchor="start" x="110.5" y="-486.5" font-family="Helvetica,sans-Serif" font-size="10.00" fill="#000000">+ InteractionRecord()</text>
<text text-anchor="start" x="110.5" y="-475.5" font-family="Helvetica,sans-Serif" font-size="10.00" fill="#000000">+ InteractionRecord()</text>
<text text-anchor="start" x="110.5" y="-464.5" font-family="Helvetica,sans-Serif" font-size="10.00" fill="#000000">+ InteractionRecord()</text>
<text text-anchor="start" x="110.5" y="-453.5" font-family="Helvetica,sans-Serif" font-size="10.00" fill="#000000">+ InteractionRecord()</text>
<text text-anchor="start" x="110.5" y="-442.5" font-family="Helvetica,sans-Serif" font-size="10.00" fill="#000000">+ clear()</text>
<text text-anchor="start" x="110.5" y="-431.5" font-family="Helvetica,sans-Serif" font-size="10.00" fill="#000000">+ isDummy()</text>
<text text-anchor="start" x="110.5" y="-420.5" font-family="Helvetica,sans-Serif" font-size="10.00" fill="#000000">+ setFromNS()</text>
<text text-anchor="start" x="110.5" y="-409.5" font-family="Helvetica,sans-Serif" font-size="10.00" fill="#000000">+ bc2ns()</text>
<text text-anchor="start" x="110.5" y="-398.5" font-family="Helvetica,sans-Serif" font-size="10.00" fill="#000000">+ operator==()</text>
<text text-anchor="start" x="110.5" y="-387.5" font-family="Helvetica,sans-Serif" font-size="10.00" fill="#000000">+ operator!=()</text>
<text text-anchor="start" x="110.5" y="-376.5" font-family="Helvetica,sans-Serif" font-size="10.00" fill="#000000">+ differenceInBC()</text>
<text text-anchor="start" x="110.5" y="-365.5" font-family="Helvetica,sans-Serif" font-size="10.00" fill="#000000">+ toLong()</text>
<text text-anchor="start" x="110.5" y="-354.5" font-family="Helvetica,sans-Serif" font-size="10.00" fill="#000000">+ setFromLong()</text>
<text text-anchor="start" x="110.5" y="-343.5" font-family="Helvetica,sans-Serif" font-size="10.00" fill="#000000">+ operator&gt;()</text>
<text text-anchor="start" x="110.5" y="-332.5" font-family="Helvetica,sans-Serif" font-size="10.00" fill="#000000">+ operator&gt;=()</text>
<text text-anchor="start" x="110.5" y="-321.5" font-family="Helvetica,sans-Serif" font-size="10.00" fill="#000000">+ operator&lt;()</text>
<text text-anchor="start" x="110.5" y="-310.5" font-family="Helvetica,sans-Serif" font-size="10.00" fill="#000000">+ operator&lt;=()</text>
<text text-anchor="start" x="110.5" y="-299.5" font-family="Helvetica,sans-Serif" font-size="10.00" fill="#000000">+ operator&#45;&#45;()</text>
<text text-anchor="start" x="110.5" y="-288.5" font-family="Helvetica,sans-Serif" font-size="10.00" fill="#000000">+ operator&#45;&#45;()</text>
<text text-anchor="start" x="110.5" y="-277.5" font-family="Helvetica,sans-Serif" font-size="10.00" fill="#000000">+ operator++()</text>
<text text-anchor="start" x="110.5" y="-266.5" font-family="Helvetica,sans-Serif" font-size="10.00" fill="#000000">+ operator++()</text>
<text text-anchor="start" x="110.5" y="-255.5" font-family="Helvetica,sans-Serif" font-size="10.00" fill="#000000">+ operator+=()</text>
<text text-anchor="start" x="110.5" y="-244.5" font-family="Helvetica,sans-Serif" font-size="10.00" fill="#000000">+ operator&#45;=()</text>
<text text-anchor="start" x="110.5" y="-233.5" font-family="Helvetica,sans-Serif" font-size="10.00" fill="#000000">+ operator+=()</text>
<text text-anchor="start" x="110.5" y="-222.5" font-family="Helvetica,sans-Serif" font-size="10.00" fill="#000000">+ operator&#45;=()</text>
<text text-anchor="start" x="110.5" y="-211.5" font-family="Helvetica,sans-Serif" font-size="10.00" fill="#000000">+ operator+()</text>
<text text-anchor="start" x="110.5" y="-200.5" font-family="Helvetica,sans-Serif" font-size="10.00" fill="#000000">+ operator&#45;()</text>
<text text-anchor="start" x="110.5" y="-189.5" font-family="Helvetica,sans-Serif" font-size="10.00" fill="#000000">+ operator+()</text>
<text text-anchor="start" x="110.5" y="-178.5" font-family="Helvetica,sans-Serif" font-size="10.00" fill="#000000">+ operator&#45;()</text>
<text text-anchor="start" x="110.5" y="-167.5" font-family="Helvetica,sans-Serif" font-size="10.00" fill="#000000">+ print()</text>
<text text-anchor="start" x="110.5" y="-156.5" font-family="Helvetica,sans-Serif" font-size="10.00" fill="#000000">+ ClassDefNV()</text>
<text text-anchor="start" x="110.5" y="-145.5" font-family="Helvetica,sans-Serif" font-size="10.00" fill="#000000">+ bc2ns()</text>
<text text-anchor="start" x="110.5" y="-134.5" font-family="Helvetica,sans-Serif" font-size="10.00" fill="#000000">+ ns2bc()</text>
</a>
</g>
</g>
<!-- Node2&#45;&gt;Node1 -->
<g id="edge1" class="edge">
<title>Node2&#45;&gt;Node1</title>
<path fill="none" stroke="#404040" d="M223.5769,-132.809C235.0917,-115.465 248.7666,-99.7113 265,-87 307.2486,-53.9181 457.0921,-41.4412 543.7791,-36.9218"/>
<polygon fill="none" stroke="#404040" points="543.847,-36.9185 549.6412,-32.6258 555.8322,-36.3234 550.038,-40.616 543.847,-36.9185"/>
<text text-anchor="middle" x="274.5" y="-95.5" font-family="Helvetica,sans-Serif" font-size="10.00" fill="#000000"> +ir</text>
</g>
<!-- Node3 -->
<g id="node3" class="node">
<title>Node3</title>
<polygon fill="none" stroke="#bfbfbf" points="0,-595.5 0,-652.5 50,-652.5 50,-595.5 0,-595.5"/>
<text text-anchor="middle" x="25" y="-640.5" font-family="Helvetica,sans-Serif" font-size="10.00" fill="#000000">double</text>
<polyline fill="none" stroke="#bfbfbf" points="0,-633.5 50,-633.5 "/>
<text text-anchor="middle" x="25" y="-621.5" font-family="Helvetica,sans-Serif" font-size="10.00" fill="#000000"> </text>
<polyline fill="none" stroke="#bfbfbf" points="0,-614.5 50,-614.5 "/>
<text text-anchor="middle" x="25" y="-602.5" font-family="Helvetica,sans-Serif" font-size="10.00" fill="#000000"> </text>
</g>
<!-- Node3&#45;&gt;Node2 -->
<g id="edge2" class="edge">
<title>Node3&#45;&gt;Node2</title>
<path fill="none" stroke="#404040" d="M31.3791,-595.3347C34.5644,-582.749 38.8454,-567.9262 44,-555 58.7306,-518.06 77.9448,-479.3277 96.6221,-444.7014"/>
<polygon fill="none" stroke="#404040" points="96.6589,-444.6336 96.014,-437.4514 102.3957,-434.0936 103.0406,-441.2759 96.6589,-444.6336"/>
<text text-anchor="middle" x="82" y="-563.5" font-family="Helvetica,sans-Serif" font-size="10.00" fill="#000000"> +DummyTime</text>
</g>
<!-- Node4 -->
<g id="node4" class="node">
<title>Node4</title>
<polygon fill="none" stroke="#bfbfbf" points="96,-595.5 96,-652.5 152,-652.5 152,-595.5 96,-595.5"/>
<text text-anchor="middle" x="124" y="-640.5" font-family="Helvetica,sans-Serif" font-size="10.00" fill="#000000">uint16_t</text>
<polyline fill="none" stroke="#bfbfbf" points="96,-633.5 152,-633.5 "/>
<text text-anchor="middle" x="124" y="-621.5" font-family="Helvetica,sans-Serif" font-size="10.00" fill="#000000"> </text>
<polyline fill="none" stroke="#bfbfbf" points="96,-614.5 152,-614.5 "/>
<text text-anchor="middle" x="124" y="-602.5" font-family="Helvetica,sans-Serif" font-size="10.00" fill="#000000"> </text>
</g>
<!-- Node4&#45;&gt;Node2 -->
<g id="edge3" class="edge">
<title>Node4&#45;&gt;Node2</title>
<path fill="none" stroke="#404040" d="M123.4278,-595.4126C123.4335,-582.9735 123.7831,-568.2425 125,-555 125.1915,-552.9162 125.3915,-550.8226 125.5995,-548.7205"/>
<polygon fill="none" stroke="#404040" points="125.6194,-548.5305 122.2697,-542.1447 126.876,-536.5965 130.2257,-542.9824 125.6194,-548.5305"/>
<text text-anchor="middle" x="157" y="-569" font-family="Helvetica,sans-Serif" font-size="10.00" fill="#000000"> +DummyBC</text>
<text text-anchor="middle" x="157" y="-558" font-family="Helvetica,sans-Serif" font-size="10.00" fill="#000000">+bc</text>
</g>
<!-- Node5 -->
<g id="node5" class="node">
<title>Node5</title>
<g id="a_node5"><a xlink:href="../../d3/d87/classuint32__t.html" target="_top" xlink:title="{uint32_t\n||}">
<polygon fill="none" stroke="#000000" points="226,-595.5 226,-652.5 282,-652.5 282,-595.5 226,-595.5"/>
<text text-anchor="middle" x="254" y="-640.5" font-family="Helvetica,sans-Serif" font-size="10.00" fill="#000000">uint32_t</text>
<polyline fill="none" stroke="#000000" points="226,-633.5 282,-633.5 "/>
<text text-anchor="middle" x="254" y="-621.5" font-family="Helvetica,sans-Serif" font-size="10.00" fill="#000000"> </text>
<polyline fill="none" stroke="#000000" points="226,-614.5 282,-614.5 "/>
<text text-anchor="middle" x="254" y="-602.5" font-family="Helvetica,sans-Serif" font-size="10.00" fill="#000000"> </text>
</a>
</g>
</g>
<!-- Node5&#45;&gt;Node1 -->
<g id="edge8" class="edge">
<title>Node5&#45;&gt;Node1</title>
<path fill="none" stroke="#404040" d="M275.5297,-595.3306C278.9378,-589.5247 281.9945,-583.2697 284,-577 345.0123,-386.2594 183.9969,-285.0339 307,-127 336.1549,-89.5419 464.518,-60.2346 543.5904,-45.3274"/>
<polygon fill="none" stroke="#404040" points="544.0358,-45.245 549.207,-40.2191 555.8351,-43.0595 550.664,-48.0853 544.0358,-45.245"/>
<text text-anchor="middle" x="324.5" y="-329.5" font-family="Helvetica,sans-Serif" font-size="10.00" fill="#000000"> +flags</text>
</g>
<!-- Node5&#45;&gt;Node2 -->
<g id="edge4" class="edge">
<title>Node5&#45;&gt;Node2</title>
<path fill="none" stroke="#404040" d="M225.9871,-597.4953C220.6555,-591.2273 215.6192,-584.244 212,-577 207.3517,-567.6962 203.1443,-557.9861 199.336,-548.0273"/>
<polygon fill="none" stroke="#404040" points="199.3119,-547.9611 193.4995,-543.6931 195.2036,-536.6863 201.0161,-540.9542 199.3119,-547.9611"/>
<text text-anchor="middle" x="248" y="-569" font-family="Helvetica,sans-Serif" font-size="10.00" fill="#000000"> +orbit</text>
<text text-anchor="middle" x="248" y="-558" font-family="Helvetica,sans-Serif" font-size="10.00" fill="#000000">+DummyOrbit</text>
</g>
<!-- Node6 -->
<g id="node6" class="node">
<title>Node6</title>
<polygon fill="none" stroke="#bfbfbf" points="351.5,-303.5 351.5,-360.5 510.5,-360.5 510.5,-303.5 351.5,-303.5"/>
<text text-anchor="middle" x="431" y="-348.5" font-family="Helvetica,sans-Serif" font-size="10.00" fill="#000000">array&lt; float, NChannelsZN &gt;</text>
<polyline fill="none" stroke="#bfbfbf" points="351.5,-341.5 510.5,-341.5 "/>
<text text-anchor="middle" x="431" y="-329.5" font-family="Helvetica,sans-Serif" font-size="10.00" fill="#000000"> </text>
<polyline fill="none" stroke="#bfbfbf" points="351.5,-322.5 510.5,-322.5 "/>
<text text-anchor="middle" x="431" y="-310.5" font-family="Helvetica,sans-Serif" font-size="10.00" fill="#000000"> </text>
</g>
<!-- Node6&#45;&gt;Node1 -->
<g id="edge5" class="edge">
<title>Node6&#45;&gt;Node1</title>
<path fill="none" stroke="#404040" d="M437.9641,-303.3771C450.8569,-254.8393 482.1528,-155.0383 536,-87 539.3001,-82.8302 543.0094,-78.8265 546.9564,-75.0205"/>
<polygon fill="none" stroke="#404040" points="546.9639,-75.0139 548.7713,-68.033 555.9104,-67.0164 554.103,-73.9974 546.9639,-75.0139"/>
<text text-anchor="middle" x="569.5" y="-101" font-family="Helvetica,sans-Serif" font-size="10.00" fill="#000000"> +energyZNA</text>
<text text-anchor="middle" x="569.5" y="-90" font-family="Helvetica,sans-Serif" font-size="10.00" fill="#000000">+energyZNC</text>
</g>
<!-- Node7 -->
<g id="node7" class="node">
<title>Node7</title>
<polygon fill="none" stroke="#bfbfbf" points="528,-303.5 528,-360.5 686,-360.5 686,-303.5 528,-303.5"/>
<text text-anchor="middle" x="607" y="-348.5" font-family="Helvetica,sans-Serif" font-size="10.00" fill="#000000">array&lt; float, NChannelsZP &gt;</text>
<polyline fill="none" stroke="#bfbfbf" points="528,-341.5 686,-341.5 "/>
<text text-anchor="middle" x="607" y="-329.5" font-family="Helvetica,sans-Serif" font-size="10.00" fill="#000000"> </text>
<polyline fill="none" stroke="#bfbfbf" points="528,-322.5 686,-322.5 "/>
<text text-anchor="middle" x="607" y="-310.5" font-family="Helvetica,sans-Serif" font-size="10.00" fill="#000000"> </text>
</g>
<!-- Node7&#45;&gt;Node1 -->
<g id="edge6" class="edge">
<title>Node7&#45;&gt;Node1</title>
<path fill="none" stroke="#404040" d="M607,-303.4744C607,-252.0439 607,-143.3417 607,-81.0181"/>
<polygon fill="none" stroke="#404040" points="607.0001,-80.8313 603,-74.8313 607,-68.8313 611,-74.8312 607.0001,-80.8313"/>
<text text-anchor="middle" x="639" y="-101" font-family="Helvetica,sans-Serif" font-size="10.00" fill="#000000"> +energyZPA</text>
<text text-anchor="middle" x="639" y="-90" font-family="Helvetica,sans-Serif" font-size="10.00" fill="#000000">+energyZPC</text>
</g>
<!-- Node8 -->
<g id="node8" class="node">
<title>Node8</title>
<polygon fill="none" stroke="#bfbfbf" points="704.5,-303.5 704.5,-360.5 803.5,-360.5 803.5,-303.5 704.5,-303.5"/>
<text text-anchor="middle" x="754" y="-348.5" font-family="Helvetica,sans-Serif" font-size="10.00" fill="#000000">Point2D&lt; float &gt;</text>
<polyline fill="none" stroke="#bfbfbf" points="704.5,-341.5 803.5,-341.5 "/>
<text text-anchor="middle" x="754" y="-329.5" font-family="Helvetica,sans-Serif" font-size="10.00" fill="#000000"> </text>
<polyline fill="none" stroke="#bfbfbf" points="704.5,-322.5 803.5,-322.5 "/>
<text text-anchor="middle" x="754" y="-310.5" font-family="Helvetica,sans-Serif" font-size="10.00" fill="#000000"> </text>
</g>
<!-- Node8&#45;&gt;Node1 -->
<g id="edge7" class="edge">
<title>Node8&#45;&gt;Node1</title>
<path fill="none" stroke="#404040" d="M751.5832,-303.4511C746.0585,-254.1393 728.5255,-152.0532 675,-87 672.1808,-83.5736 669.0985,-80.2346 665.8523,-77.0089"/>
<polygon fill="none" stroke="#404040" points="665.7459,-76.9103 658.6263,-75.7652 656.9449,-68.7528 664.0646,-69.8979 665.7459,-76.9103"/>
<text text-anchor="middle" x="723.5" y="-101" font-family="Helvetica,sans-Serif" font-size="10.00" fill="#000000"> +centroidZNA</text>
<text text-anchor="middle" x="723.5" y="-90" font-family="Helvetica,sans-Serif" font-size="10.00" fill="#000000">+centroidZNC</text>
</g>
<!-- Node9 -->
<g id="node9" class="node">
<title>Node9</title>
<polygon fill="none" stroke="#bfbfbf" points="822,-298 822,-366 938,-366 938,-298 822,-298"/>
<text text-anchor="start" x="830" y="-354" font-family="Helvetica,sans-Serif" font-size="10.00" fill="#000000">array&lt; TDCChannel,</text>
<text text-anchor="middle" x="880" y="-343" font-family="Helvetica,sans-Serif" font-size="10.00" fill="#000000"> NTDCChannels &gt;</text>
<polyline fill="none" stroke="#bfbfbf" points="822,-336 938,-336 "/>
<text text-anchor="middle" x="880" y="-324" font-family="Helvetica,sans-Serif" font-size="10.00" fill="#000000"> </text>
<polyline fill="none" stroke="#bfbfbf" points="822,-317 938,-317 "/>
<text text-anchor="middle" x="880" y="-305" font-family="Helvetica,sans-Serif" font-size="10.00" fill="#000000"> </text>
</g>
<!-- Node9&#45;&gt;Node1 -->
<g id="edge9" class="edge">
<title>Node9&#45;&gt;Node1</title>
<path fill="none" stroke="#404040" d="M874.9233,-297.8005C867.2476,-254.8294 849.5247,-180.2699 813,-127 780.5042,-79.6061 717.6862,-56.16 669.9226,-44.7755"/>
<polygon fill="none" stroke="#404040" points="669.841,-44.7573 663.1116,-47.3488 658.1312,-42.1338 664.8606,-39.5423 669.841,-44.7573"/>
<text text-anchor="middle" x="833" y="-95.5" font-family="Helvetica,sans-Serif" font-size="10.00" fill="#000000"> +tdcChannels</text>
</g>
<!-- Node10 -->
<g id="node10" class="node">
<title>Node10</title>
<polygon fill="none" stroke="#bfbfbf" points="956,-303.5 956,-360.5 1122,-360.5 1122,-303.5 956,-303.5"/>
<text text-anchor="middle" x="1039" y="-348.5" font-family="Helvetica,sans-Serif" font-size="10.00" fill="#000000">array&lt; float, NChannelsZEM &gt;</text>
<polyline fill="none" stroke="#bfbfbf" points="956,-341.5 1122,-341.5 "/>
<text text-anchor="middle" x="1039" y="-329.5" font-family="Helvetica,sans-Serif" font-size="10.00" fill="#000000"> </text>
<polyline fill="none" stroke="#bfbfbf" points="956,-322.5 1122,-322.5 "/>
<text text-anchor="middle" x="1039" y="-310.5" font-family="Helvetica,sans-Serif" font-size="10.00" fill="#000000"> </text>
</g>
<!-- Node10&#45;&gt;Node1 -->
<g id="edge10" class="edge">
<title>Node10&#45;&gt;Node1</title>
<path fill="none" stroke="#404040" d="M1032.4032,-303.2007C1021.2907,-260.2386 995.1866,-178.8762 947,-127 921.556,-99.6078 908.1806,-99.6512 873,-87 805.8766,-62.8619 725.013,-48.9047 670.1965,-41.5333"/>
<polygon fill="none" stroke="#404040" points="670.1227,-41.5237 663.6559,-44.7144 658.2234,-39.9722 664.6902,-36.7815 670.1227,-41.5237"/>
<text text-anchor="middle" x="962.5" y="-95.5" font-family="Helvetica,sans-Serif" font-size="10.00" fill="#000000"> +eneregyZEM</text>
</g>
</g>
</svg>
        <g id="navigator" transform="translate(0 0)" fill="#404254">
                <rect fill="#f2f5e9" fill-opacity="0.5" stroke="#606060" stroke-width=".5" x="0" y="0" width="60" height="60"/>
                <use id="zoomplus" xlink:href="#zoomPlus" x="17" y="9" onmousedown="handleZoom(evt,'in')"/>
                <use id="zoomminus" xlink:href="#zoomMin" x="42" y="9" onmousedown="handleZoom(evt,'out')"/>
                <use id="reset" xlink:href="#resetDef" x="30" y="36" onmousedown="handleReset()"/>
                <g id="arrowUp" xlink:href="#dirArrow" transform="translate(30 24)" onmousedown="handlePan(0,-1)">
                  <use xlink:href="#rim" fill="#404040">
                        <set attributeName="fill" to="#808080" begin="arrowUp.mouseover" end="arrowUp.mouseout"/>
                  </use>
                  <path fill="none" stroke="white" stroke-width="1.5" d="M0,-3.0v7 M-2.5,-0.5L0,-3.0L2.5,-0.5"/>
                </g>
                <g id="arrowRight" xlink:href="#dirArrow" transform="rotate(90) translate(36 -43)" onmousedown="handlePan(1,0)">
                  <use xlink:href="#rim" fill="#404040">
                        <set attributeName="fill" to="#808080" begin="arrowRight.mouseover" end="arrowRight.mouseout"/>
                  </use>
                  <path fill="none" stroke="white" stroke-width="1.5" d="M0,-3.0v7 M-2.5,-0.5L0,-3.0L2.5,-0.5"/>
                </g>
                <g id="arrowDown" xlink:href="#dirArrow" transform="rotate(180) translate(-30 -48)" onmousedown="handlePan(0,1)">
                  <use xlink:href="#rim" fill="#404040">
                        <set attributeName="fill" to="#808080" begin="arrowDown.mouseover" end="arrowDown.mouseout"/>
                  </use>
                  <path fill="none" stroke="white" stroke-width="1.5" d="M0,-3.0v7 M-2.5,-0.5L0,-3.0L2.5,-0.5"/>
                </g>
                <g id="arrowLeft" xlink:href="#dirArrow" transform="rotate(270) translate(-36 17)" onmousedown="handlePan(-1,0)">
                  <use xlink:href="#rim" fill="#404040">
                        <set attributeName="fill" to="#808080" begin="arrowLeft.mouseover" end="arrowLeft.mouseout"/>
                  </use>
                  <path fill="none" stroke="white" stroke-width="1.5" d="M0,-3.0v7 M-2.5,-0.5L0,-3.0L2.5,-0.5"/>
                </g>
        </g>
        <svg viewBox="0 0 15 15" width="100%" height="30px" preserveAspectRatio="xMaxYMin meet">
         <g id="arrow_out" transform="scale(0.3 0.3)">
          <a xlink:href="structo2_1_1zdc_1_1RecEvent__coll__graph_org.svg" target="_base">
           <rect id="button" ry="5" rx="5" y="6" x="6" height="38" width="38"
                fill="#f2f5e9" fill-opacity="0.5" stroke="#606060" stroke-width="1.0"/>
           <path id="arrow"
             d="M 11.500037,31.436501 C 11.940474,20.09759 22.043105,11.32322 32.158766,21.979434 L 37.068811,17.246167 C 37.068811,17.246167 37.088388,32 37.088388,32 L 22.160133,31.978069 C 22.160133,31.978069 26.997745,27.140456 26.997745,27.140456 C 18.528582,18.264221 13.291696,25.230495 11.500037,31.436501 z"
             style="fill:#404040;"/>
          </a>
         </g>
        </svg>
</svg>
