<?xml version="1.0" encoding="UTF-8" standalone="no"?>
<!DOCTYPE svg PUBLIC "-//W3C//DTD SVG 1.1//EN"
 "http://www.w3.org/Graphics/SVG/1.1/DTD/svg11.dtd">
<!-- Generated by graphviz version 2.40.1 (20161225.0304)
 -->
<!-- Title: o2::framework::Service&lt; T &gt; Pages: 1 -->
<svg width="268pt" height="182pt"
 viewBox="0.00 0.00 268.00 182.00" xmlns="http://www.w3.org/2000/svg" xmlns:xlink="http://www.w3.org/1999/xlink">
<g id="graph0" class="graph" transform="scale(1 1) rotate(0) translate(4 178)">
<title>o2::framework::Service&lt; T &gt;</title>
<!-- Node0 -->
<g id="node1" class="node">
<title>Node0</title>
<polygon fill="#bfbfbf" stroke="#000000" points="12,-116.5 12,-173.5 170,-173.5 170,-116.5 12,-116.5"/>
<text text-anchor="middle" x="91" y="-161.5" font-family="Helvetica,sans-Serif" font-size="10.00" fill="#000000">o2::framework::Service&lt; T &gt;</text>
<polyline fill="none" stroke="#000000" points="12,-154.5 170,-154.5 "/>
<text text-anchor="start" x="20" y="-142.5" font-family="Helvetica,sans-Serif" font-size="10.00" fill="#000000">+ service</text>
<polyline fill="none" stroke="#000000" points="12,-135.5 170,-135.5 "/>
<text text-anchor="start" x="20" y="-123.5" font-family="Helvetica,sans-Serif" font-size="10.00" fill="#000000">+ operator&#45;&gt;()</text>
</g>
<!-- Node1 -->
<g id="node2" class="node">
<title>Node1</title>
<g id="a_node2"><a xlink:href="../../de/de9/structo2_1_1framework_1_1Service.html" target="_top" xlink:title="{o2::framework::Service\l\&lt; o2::ccdb::BasicCCDBManager \&gt;\n|+ service\l|+ operator&#45;\&gt;()\l}">
<polygon fill="none" stroke="#000000" points="0,-.5 0,-68.5 182,-68.5 182,-.5 0,-.5"/>
<text text-anchor="start" x="8" y="-56.5" font-family="Helvetica,sans-Serif" font-size="10.00" fill="#000000">o2::framework::Service</text>
<text text-anchor="middle" x="91" y="-45.5" font-family="Helvetica,sans-Serif" font-size="10.00" fill="#000000">&lt; o2::ccdb::BasicCCDBManager &gt;</text>
<polyline fill="none" stroke="#000000" points="0,-38.5 182,-38.5 "/>
<text text-anchor="start" x="8" y="-26.5" font-family="Helvetica,sans-Serif" font-size="10.00" fill="#000000">+ service</text>
<polyline fill="none" stroke="#000000" points="0,-19.5 182,-19.5 "/>
<text text-anchor="start" x="8" y="-7.5" font-family="Helvetica,sans-Serif" font-size="10.00" fill="#000000">+ operator&#45;&gt;()</text>
</a>
</g>
</g>
<!-- Node0&#45;&gt;Node1 -->
<g id="edge1" class="edge">
<title>Node0&#45;&gt;Node1</title>
<path fill="none" stroke="#ffa500" d="M91,-105.9162C91,-93.7375 91,-80.4096 91,-68.6001"/>
<polygon fill="#ffa500" stroke="#ffa500" points="87.5001,-106.2559 91,-116.2559 94.5001,-106.2559 87.5001,-106.2559"/>
<text text-anchor="middle" x="175.5" y="-90" font-family="Helvetica,sans-Serif" font-size="10.00" fill="#000000"> &lt; o2::ccdb::BasicCCDBManager &gt;</text>
</g>
</g>
</svg>
