<?xml version="1.0" encoding="UTF-8" standalone="no"?>
<!DOCTYPE svg PUBLIC "-//W3C//DTD SVG 1.1//EN"
 "http://www.w3.org/Graphics/SVG/1.1/DTD/svg11.dtd">
<!-- Generated by graphviz version 2.40.1 (20161225.0304)
 -->
<!-- Title: /home/travis/build/AliceO2Group/AliceO2/Steer/include/Steer/InteractionSampler.h Pages: 1 -->
<!--zoomable 240 -->
<svg id="main" version="1.1" xmlns="http://www.w3.org/2000/svg" xmlns:xlink="http://www.w3.org/1999/xlink" xml:space="preserve" onload="init(evt)">
<style type="text/css"><![CDATA[
.edge:hover path { stroke: red; }
.edge:hover polygon { stroke: red; fill: red; }
]]></style>
<script type="text/javascript"><![CDATA[
var edges = document.getElementsByTagName('g');
if (edges && edges.length) {
  for (var i=0;i<edges.length;i++) {
    if (edges[i].id.substr(0,4)=='edge') {
      edges[i].setAttribute('class','edge');
    }
  }
}
]]></script>
        <defs>
                <circle id="rim" cx="0" cy="0" r="7"/>
                <circle id="rim2" cx="0" cy="0" r="3.5"/>
                <g id="zoomPlus">
                        <use xlink:href="#rim" fill="#404040">
                                <set attributeName="fill" to="#808080" begin="zoomplus.mouseover" end="zoomplus.mouseout"/>
                        </use>
                        <path d="M-4,0h8M0,-4v8" fill="none" stroke="white" stroke-width="1.5" pointer-events="none"/>
                </g>
                <g id="zoomMin">
                        <use xlink:href="#rim" fill="#404040">
                                <set attributeName="fill" to="#808080" begin="zoomminus.mouseover" end="zoomminus.mouseout"/>
                        </use>
                        <path d="M-4,0h8" fill="none" stroke="white" stroke-width="1.5" pointer-events="none"/>
                </g>
                <g id="dirArrow">
                        <path fill="none" stroke="white" stroke-width="1.5" d="M0,-3.0v7 M-2.5,-0.5L0,-3.0L2.5,-0.5"/>
                </g>
               <g id="resetDef">
                       <use xlink:href="#rim2" fill="#404040">
                               <set attributeName="fill" to="#808080" begin="reset.mouseover" end="reset.mouseout"/>
                       </use>
               </g>
        </defs>

<script type="text/javascript">
var viewWidth = 1036;
var viewHeight = 240;
var sectionId = 'dynsection-0';
</script>
<script xlink:href="../../svgpan.js"/>
<svg id="graph" class="graph">
<g id="viewport">
<title>/home/travis/build/AliceO2Group/AliceO2/Steer/include/Steer/InteractionSampler.h</title>
<!-- Node0 -->
<g id="node1" class="node">
<title>Node0</title>
<polygon fill="#bfbfbf" stroke="#000000" points="343,-179.5 343,-231.5 510,-231.5 510,-179.5 343,-179.5"/>
<text text-anchor="start" x="351" y="-219.5" font-family="Helvetica,sans-Serif" font-size="10.00" fill="#000000">/home/travis/build</text>
<text text-anchor="start" x="351" y="-208.5" font-family="Helvetica,sans-Serif" font-size="10.00" fill="#000000">/AliceO2Group/AliceO2</text>
<text text-anchor="start" x="351" y="-197.5" font-family="Helvetica,sans-Serif" font-size="10.00" fill="#000000">/Steer/include/Steer/Interaction</text>
<text text-anchor="middle" x="426.5" y="-186.5" font-family="Helvetica,sans-Serif" font-size="10.00" fill="#000000">Sampler.h</text>
</g>
<!-- Node1 -->
<g id="node2" class="node">
<title>Node1</title>
<polygon fill="none" stroke="#bfbfbf" points="0,-.5 0,-19.5 59,-19.5 59,-.5 0,-.5"/>
<text text-anchor="middle" x="29.5" y="-7.5" font-family="Helvetica,sans-Serif" font-size="10.00" fill="#000000">Rtypes.h</text>
</g>
<!-- Node0&#45;&gt;Node1 -->
<g id="edge1" class="edge">
<title>Node0&#45;&gt;Node1</title>
<path fill="none" stroke="#191970" d="M342.661,-198.8652C275.3777,-191.3281 179.5965,-175.5443 101.5,-143 52.7978,-122.7048 28.1239,-122.6633 3.5,-76 -4.7981,-60.2748 4.533,-41.2948 14.248,-27.7327"/>
<polygon fill="#191970" stroke="#191970" points="17.1264,-29.7328 20.5061,-19.6915 11.6022,-25.4335 17.1264,-29.7328"/>
</g>
<!-- Node2 -->
<g id="node3" class="node">
<title>Node2</title>
<polygon fill="none" stroke="#bfbfbf" points="110.5,-118 110.5,-137 166.5,-137 166.5,-118 110.5,-118"/>
<text text-anchor="middle" x="138.5" y="-125" font-family="Helvetica,sans-Serif" font-size="10.00" fill="#000000">TMath.h</text>
</g>
<!-- Node0&#45;&gt;Node2 -->
<g id="edge2" class="edge">
<title>Node0&#45;&gt;Node2</title>
<path fill="none" stroke="#191970" d="M342.779,-188.0212C293.5418,-176.9101 230.3759,-161.2081 175.5,-143 173.4054,-142.305 171.2625,-141.5446 169.1152,-140.7456"/>
<polygon fill="#191970" stroke="#191970" points="170.3974,-137.4889 159.8105,-137.0788 167.8309,-144.0015 170.3974,-137.4889"/>
</g>
<!-- Node3 -->
<g id="node4" class="node">
<title>Node3</title>
<polygon fill="none" stroke="#bfbfbf" points="688.5,-56.5 688.5,-75.5 760.5,-75.5 760.5,-56.5 688.5,-56.5"/>
<text text-anchor="middle" x="724.5" y="-63.5" font-family="Helvetica,sans-Serif" font-size="10.00" fill="#000000">TRandom.h</text>
</g>
<!-- Node0&#45;&gt;Node3 -->
<g id="edge3" class="edge">
<title>Node0&#45;&gt;Node3</title>
<path fill="none" stroke="#191970" d="M510.2003,-192.9148C574.7864,-181.8166 657.5198,-164.1425 684.5,-143 702.9603,-128.534 713.7612,-103.1846 719.3914,-85.5395"/>
<polygon fill="#191970" stroke="#191970" points="722.8168,-86.2946 722.251,-75.7148 716.0957,-84.3383 722.8168,-86.2946"/>
</g>
<!-- Node4 -->
<g id="node5" class="node">
<title>Node4</title>
<polygon fill="none" stroke="#bfbfbf" points="377,-118 377,-137 424,-137 424,-118 377,-118"/>
<text text-anchor="middle" x="400.5" y="-125" font-family="Helvetica,sans-Serif" font-size="10.00" fill="#000000">vector</text>
</g>
<!-- Node0&#45;&gt;Node4 -->
<g id="edge4" class="edge">
<title>Node0&#45;&gt;Node4</title>
<path fill="none" stroke="#191970" d="M417.6976,-179.0928C414.149,-168.447 410.133,-156.3989 406.8747,-146.6242"/>
<polygon fill="#191970" stroke="#191970" points="410.1774,-145.4639 403.6946,-137.0839 403.5366,-147.6775 410.1774,-145.4639"/>
</g>
<!-- Node5 -->
<g id="node6" class="node">
<title>Node5</title>
<g id="a_node6"><a xlink:href="../../d9/d80/InteractionRecord_8h.html" target="_top" xlink:title="CommonDataFormat/Interaction\lRecord.h">
<polygon fill="none" stroke="#000000" points="184.5,-112.5 184.5,-142.5 358.5,-142.5 358.5,-112.5 184.5,-112.5"/>
<text text-anchor="start" x="192.5" y="-130.5" font-family="Helvetica,sans-Serif" font-size="10.00" fill="#000000">CommonDataFormat/Interaction</text>
<text text-anchor="middle" x="271.5" y="-119.5" font-family="Helvetica,sans-Serif" font-size="10.00" fill="#000000">Record.h</text>
</a>
</g>
</g>
<!-- Node0&#45;&gt;Node5 -->
<g id="edge5" class="edge">
<title>Node0&#45;&gt;Node5</title>
<path fill="none" stroke="#191970" d="M374.4561,-179.3101C353.596,-168.8128 329.968,-156.9226 310.6133,-147.1828"/>
<polygon fill="#191970" stroke="#191970" points="311.9921,-143.9585 301.486,-142.5897 308.8454,-150.2114 311.9921,-143.9585"/>
</g>
<!-- Node10 -->
<g id="node11" class="node">
<title>Node10</title>
<g id="a_node11"><a xlink:href="../../d4/dc6/LHCConstants_8h.html" target="_top" xlink:title="Header to collect LHC related constants. ">
<polygon fill="none" stroke="#000000" points="356.5,-56.5 356.5,-75.5 546.5,-75.5 546.5,-56.5 356.5,-56.5"/>
<text text-anchor="middle" x="451.5" y="-63.5" font-family="Helvetica,sans-Serif" font-size="10.00" fill="#000000">CommonConstants/LHCConstants.h</text>
</a>
</g>
</g>
<!-- Node0&#45;&gt;Node10 -->
<g id="edge16" class="edge">
<title>Node0&#45;&gt;Node10</title>
<path fill="none" stroke="#191970" d="M431.2023,-179.2611C436.0841,-152.0208 443.6078,-110.0385 447.9932,-85.5679"/>
<polygon fill="#191970" stroke="#191970" points="451.4476,-86.1334 449.7665,-75.6727 444.5573,-84.8985 451.4476,-86.1334"/>
</g>
<!-- Node11 -->
<g id="node12" class="node">
<title>Node11</title>
<g id="a_node12"><a xlink:href="../../d4/d5f/BunchFilling_8h.html" target="_top" xlink:title="CommonDataFormat/BunchFilling.h">
<polygon fill="none" stroke="#000000" points="487,-118 487,-137 676,-137 676,-118 487,-118"/>
<text text-anchor="middle" x="581.5" y="-125" font-family="Helvetica,sans-Serif" font-size="10.00" fill="#000000">CommonDataFormat/BunchFilling.h</text>
</a>
</g>
</g>
<!-- Node0&#45;&gt;Node11 -->
<g id="edge12" class="edge">
<title>Node0&#45;&gt;Node11</title>
<path fill="none" stroke="#191970" d="M478.5439,-179.3101C503.5595,-166.7217 532.5557,-152.13 553.3892,-141.6461"/>
<polygon fill="#191970" stroke="#191970" points="554.984,-144.7618 562.3434,-137.1401 551.8373,-138.5089 554.984,-144.7618"/>
</g>
<!-- Node14 -->
<g id="node15" class="node">
<title>Node14</title>
<g id="a_node15"><a xlink:href="../../db/dac/RandomRing_8h.html" target="_top" xlink:title="MathUtils/RandomRing.h">
<polygon fill="none" stroke="#000000" points="736,-118 736,-137 873,-137 873,-118 736,-118"/>
<text text-anchor="middle" x="804.5" y="-125" font-family="Helvetica,sans-Serif" font-size="10.00" fill="#000000">MathUtils/RandomRing.h</text>
</a>
</g>
</g>
<!-- Node0&#45;&gt;Node14 -->
<g id="edge17" class="edge">
<title>Node0&#45;&gt;Node14</title>
<path fill="none" stroke="#191970" d="M510.3905,-188.1893C582.8113,-173.2453 685.4224,-152.0716 748.3291,-139.0908"/>
<polygon fill="#191970" stroke="#191970" points="749.3676,-142.4503 758.454,-137.0016 747.953,-135.5948 749.3676,-142.4503"/>
</g>
<!-- Node6 -->
<g id="node7" class="node">
<title>Node6</title>
<g id="a_node7"><a xlink:href="../../d2/d45/GPUCommonRtypes_8h.html" target="_top" xlink:title="GPUCommonRtypes.h">
<polygon fill="none" stroke="#000000" points="13,-56.5 13,-75.5 138,-75.5 138,-56.5 13,-56.5"/>
<text text-anchor="middle" x="75.5" y="-63.5" font-family="Helvetica,sans-Serif" font-size="10.00" fill="#000000">GPUCommonRtypes.h</text>
</a>
</g>
</g>
<!-- Node5&#45;&gt;Node6 -->
<g id="edge6" class="edge">
<title>Node5&#45;&gt;Node6</title>
<path fill="none" stroke="#191970" d="M223.553,-112.4554C190.4196,-102.059 146.8517,-88.3884 115.5692,-78.5727"/>
<polygon fill="#191970" stroke="#191970" points="116.4622,-75.1848 105.873,-75.5303 114.3665,-81.8637 116.4622,-75.1848"/>
</g>
<!-- Node7 -->
<g id="node8" class="node">
<title>Node7</title>
<polygon fill="none" stroke="#bfbfbf" points="156,-56.5 156,-75.5 205,-75.5 205,-56.5 156,-56.5"/>
<text text-anchor="middle" x="180.5" y="-63.5" font-family="Helvetica,sans-Serif" font-size="10.00" fill="#000000">iosfwd</text>
</g>
<!-- Node5&#45;&gt;Node7 -->
<g id="edge8" class="edge">
<title>Node5&#45;&gt;Node7</title>
<path fill="none" stroke="#191970" d="M249.0056,-112.2977C235.1033,-102.9022 217.3124,-90.8787 203.3454,-81.4395"/>
<polygon fill="#191970" stroke="#191970" points="205.0436,-78.3629 194.7985,-75.6633 201.124,-84.1626 205.0436,-78.3629"/>
</g>
<!-- Node8 -->
<g id="node9" class="node">
<title>Node8</title>
<polygon fill="none" stroke="#bfbfbf" points="223,-56.5 223,-75.5 270,-75.5 270,-56.5 223,-56.5"/>
<text text-anchor="middle" x="246.5" y="-63.5" font-family="Helvetica,sans-Serif" font-size="10.00" fill="#000000">cmath</text>
</g>
<!-- Node5&#45;&gt;Node8 -->
<g id="edge9" class="edge">
<title>Node5&#45;&gt;Node8</title>
<path fill="none" stroke="#191970" d="M265.3202,-112.2977C261.9946,-104.1166 257.8589,-93.943 254.3121,-85.2179"/>
<polygon fill="#191970" stroke="#191970" points="257.511,-83.7927 250.5028,-75.8469 251.0263,-86.4288 257.511,-83.7927"/>
</g>
<!-- Node9 -->
<g id="node10" class="node">
<title>Node9</title>
<polygon fill="none" stroke="#bfbfbf" points="288.5,-56.5 288.5,-75.5 338.5,-75.5 338.5,-56.5 288.5,-56.5"/>
<text text-anchor="middle" x="313.5" y="-63.5" font-family="Helvetica,sans-Serif" font-size="10.00" fill="#000000">cstdint</text>
</g>
<!-- Node5&#45;&gt;Node9 -->
<g id="edge10" class="edge">
<title>Node5&#45;&gt;Node9</title>
<path fill="none" stroke="#191970" d="M281.882,-112.2977C287.6513,-103.8498 294.8716,-93.2773 300.9553,-84.369"/>
<polygon fill="#191970" stroke="#191970" points="304.0259,-86.0788 306.7753,-75.8469 298.2453,-82.1311 304.0259,-86.0788"/>
</g>
<!-- Node5&#45;&gt;Node10 -->
<g id="edge11" class="edge">
<title>Node5&#45;&gt;Node10</title>
<path fill="none" stroke="#191970" d="M315.533,-112.4554C345.6981,-102.149 385.2808,-88.6249 413.953,-78.8286"/>
<polygon fill="#191970" stroke="#191970" points="415.2751,-82.0756 423.6064,-75.5303 413.0118,-75.4515 415.2751,-82.0756"/>
</g>
<!-- Node6&#45;&gt;Node1 -->
<g id="edge7" class="edge">
<title>Node6&#45;&gt;Node1</title>
<path fill="none" stroke="#191970" d="M67.4874,-56.2455C61.0232,-48.3761 51.7615,-37.101 44.0017,-27.6542"/>
<polygon fill="#191970" stroke="#191970" points="46.4727,-25.1484 37.4208,-19.6427 41.0636,-29.5916 46.4727,-25.1484"/>
</g>
<!-- Node11&#45;&gt;Node10 -->
<g id="edge13" class="edge">
<title>Node11&#45;&gt;Node10</title>
<path fill="none" stroke="#191970" d="M561.1875,-117.8906C539.6269,-107.6908 505.3522,-91.4763 480.8556,-79.8875"/>
<polygon fill="#191970" stroke="#191970" points="482.2061,-76.6545 471.6699,-75.5419 479.2126,-82.9822 482.2061,-76.6545"/>
</g>
<!-- Node12 -->
<g id="node13" class="node">
<title>Node12</title>
<polygon fill="none" stroke="#bfbfbf" points="626.5,-56.5 626.5,-75.5 670.5,-75.5 670.5,-56.5 626.5,-56.5"/>
<text text-anchor="middle" x="648.5" y="-63.5" font-family="Helvetica,sans-Serif" font-size="10.00" fill="#000000">bitset</text>
</g>
<!-- Node11&#45;&gt;Node12 -->
<g id="edge14" class="edge">
<title>Node11&#45;&gt;Node12</title>
<path fill="none" stroke="#191970" d="M591.9688,-117.8906C602.2337,-108.4683 618.0903,-93.9134 630.4006,-82.6137"/>
<polygon fill="#191970" stroke="#191970" points="632.8834,-85.0856 637.8837,-75.7449 628.1499,-79.9287 632.8834,-85.0856"/>
</g>
<!-- Node13 -->
<g id="node14" class="node">
<title>Node13</title>
<polygon fill="none" stroke="#bfbfbf" points="564.5,-56.5 564.5,-75.5 608.5,-75.5 608.5,-56.5 564.5,-56.5"/>
<text text-anchor="middle" x="586.5" y="-63.5" font-family="Helvetica,sans-Serif" font-size="10.00" fill="#000000">string</text>
</g>
<!-- Node11&#45;&gt;Node13 -->
<g id="edge15" class="edge">
<title>Node11&#45;&gt;Node13</title>
<path fill="none" stroke="#191970" d="M582.2813,-117.8906C582.9743,-109.3657 584.009,-96.6392 584.8802,-85.9235"/>
<polygon fill="#191970" stroke="#191970" points="588.3858,-85.9956 585.7077,-75.7449 581.4088,-85.4283 588.3858,-85.9956"/>
</g>
<!-- Node14&#45;&gt;Node3 -->
<g id="edge21" class="edge">
<title>Node14&#45;&gt;Node3</title>
<path fill="none" stroke="#191970" d="M792,-117.8906C779.4364,-108.2324 759.8577,-93.1812 745.0151,-81.771"/>
<polygon fill="#191970" stroke="#191970" points="746.9735,-78.8618 736.9122,-75.5419 742.7072,-84.4115 746.9735,-78.8618"/>
</g>
<!-- Node15 -->
<g id="node16" class="node">
<title>Node15</title>
<polygon fill="none" stroke="#bfbfbf" points="983.5,-56.5 983.5,-75.5 1027.5,-75.5 1027.5,-56.5 983.5,-56.5"/>
<text text-anchor="middle" x="1005.5" y="-63.5" font-family="Helvetica,sans-Serif" font-size="10.00" fill="#000000">Vc/Vc</text>
</g>
<!-- Node14&#45;&gt;Node15 -->
<g id="edge18" class="edge">
<title>Node14&#45;&gt;Node15</title>
<path fill="none" stroke="#191970" d="M836.5112,-117.9885C868.7853,-108.3579 920.2726,-92.8829 973.5517,-76.2628"/>
<polygon fill="#191970" stroke="#191970" points="974.664,-79.5822 983.1641,-73.2578 972.5753,-72.9011 974.664,-79.5822"/>
</g>
<!-- Node16 -->
<g id="node17" class="node">
<title>Node16</title>
<polygon fill="none" stroke="#bfbfbf" points="778.5,-56.5 778.5,-75.5 820.5,-75.5 820.5,-56.5 778.5,-56.5"/>
<text text-anchor="middle" x="799.5" y="-63.5" font-family="Helvetica,sans-Serif" font-size="10.00" fill="#000000">array</text>
</g>
<!-- Node14&#45;&gt;Node16 -->
<g id="edge19" class="edge">
<title>Node14&#45;&gt;Node16</title>
<path fill="none" stroke="#191970" d="M803.7188,-117.8906C803.0257,-109.3657 801.991,-96.6392 801.1198,-85.9235"/>
<polygon fill="#191970" stroke="#191970" points="804.5912,-85.4283 800.2923,-75.7449 797.6142,-85.9956 804.5912,-85.4283"/>
</g>
<!-- Node17 -->
<g id="node18" class="node">
<title>Node17</title>
<polygon fill="none" stroke="#bfbfbf" points="839,-56.5 839,-75.5 882,-75.5 882,-56.5 839,-56.5"/>
<text text-anchor="middle" x="860.5" y="-63.5" font-family="Helvetica,sans-Serif" font-size="10.00" fill="#000000">TF1.h</text>
</g>
<!-- Node14&#45;&gt;Node17 -->
<g id="edge20" class="edge">
<title>Node14&#45;&gt;Node17</title>
<path fill="none" stroke="#191970" d="M813.25,-117.8906C821.6662,-108.6478 834.5797,-94.466 844.781,-83.2628"/>
<polygon fill="#191970" stroke="#191970" points="847.4818,-85.4953 851.6266,-75.7449 842.306,-80.7824 847.4818,-85.4953"/>
</g>
<!-- Node18 -->
<g id="node19" class="node">
<title>Node18</title>
<polygon fill="none" stroke="#bfbfbf" points="900,-56.5 900,-75.5 965,-75.5 965,-56.5 900,-56.5"/>
<text text-anchor="middle" x="932.5" y="-63.5" font-family="Helvetica,sans-Serif" font-size="10.00" fill="#000000">functional</text>
</g>
<!-- Node14&#45;&gt;Node18 -->
<g id="edge22" class="edge">
<title>Node14&#45;&gt;Node18</title>
<path fill="none" stroke="#191970" d="M824.5,-117.8906C845.7289,-107.6908 879.4762,-91.4763 903.596,-79.8875"/>
<polygon fill="#191970" stroke="#191970" points="905.1426,-83.0275 912.6404,-75.5419 902.1111,-76.7179 905.1426,-83.0275"/>
</g>
</g>
</svg>
        <g id="navigator" transform="translate(0 0)" fill="#404254">
                <rect fill="#f2f5e9" fill-opacity="0.5" stroke="#606060" stroke-width=".5" x="0" y="0" width="60" height="60"/>
                <use id="zoomplus" xlink:href="#zoomPlus" x="17" y="9" onmousedown="handleZoom(evt,'in')"/>
                <use id="zoomminus" xlink:href="#zoomMin" x="42" y="9" onmousedown="handleZoom(evt,'out')"/>
                <use id="reset" xlink:href="#resetDef" x="30" y="36" onmousedown="handleReset()"/>
                <g id="arrowUp" xlink:href="#dirArrow" transform="translate(30 24)" onmousedown="handlePan(0,-1)">
                  <use xlink:href="#rim" fill="#404040">
                        <set attributeName="fill" to="#808080" begin="arrowUp.mouseover" end="arrowUp.mouseout"/>
                  </use>
                  <path fill="none" stroke="white" stroke-width="1.5" d="M0,-3.0v7 M-2.5,-0.5L0,-3.0L2.5,-0.5"/>
                </g>
                <g id="arrowRight" xlink:href="#dirArrow" transform="rotate(90) translate(36 -43)" onmousedown="handlePan(1,0)">
                  <use xlink:href="#rim" fill="#404040">
                        <set attributeName="fill" to="#808080" begin="arrowRight.mouseover" end="arrowRight.mouseout"/>
                  </use>
                  <path fill="none" stroke="white" stroke-width="1.5" d="M0,-3.0v7 M-2.5,-0.5L0,-3.0L2.5,-0.5"/>
                </g>
                <g id="arrowDown" xlink:href="#dirArrow" transform="rotate(180) translate(-30 -48)" onmousedown="handlePan(0,1)">
                  <use xlink:href="#rim" fill="#404040">
                        <set attributeName="fill" to="#808080" begin="arrowDown.mouseover" end="arrowDown.mouseout"/>
                  </use>
                  <path fill="none" stroke="white" stroke-width="1.5" d="M0,-3.0v7 M-2.5,-0.5L0,-3.0L2.5,-0.5"/>
                </g>
                <g id="arrowLeft" xlink:href="#dirArrow" transform="rotate(270) translate(-36 17)" onmousedown="handlePan(-1,0)">
                  <use xlink:href="#rim" fill="#404040">
                        <set attributeName="fill" to="#808080" begin="arrowLeft.mouseover" end="arrowLeft.mouseout"/>
                  </use>
                  <path fill="none" stroke="white" stroke-width="1.5" d="M0,-3.0v7 M-2.5,-0.5L0,-3.0L2.5,-0.5"/>
                </g>
        </g>
        <svg viewBox="0 0 15 15" width="100%" height="30px" preserveAspectRatio="xMaxYMin meet">
         <g id="arrow_out" transform="scale(0.3 0.3)">
          <a xlink:href="InteractionSampler_8h__incl_org.svg" target="_base">
           <rect id="button" ry="5" rx="5" y="6" x="6" height="38" width="38"
                fill="#f2f5e9" fill-opacity="0.5" stroke="#606060" stroke-width="1.0"/>
           <path id="arrow"
             d="M 11.500037,31.436501 C 11.940474,20.09759 22.043105,11.32322 32.158766,21.979434 L 37.068811,17.246167 C 37.068811,17.246167 37.088388,32 37.088388,32 L 22.160133,31.978069 C 22.160133,31.978069 26.997745,27.140456 26.997745,27.140456 C 18.528582,18.264221 13.291696,25.230495 11.500037,31.436501 z"
             style="fill:#404040;"/>
          </a>
         </g>
        </svg>
</svg>
