<?xml version="1.0" encoding="UTF-8" standalone="no"?>
<!DOCTYPE svg PUBLIC "-//W3C//DTD SVG 1.1//EN"
 "http://www.w3.org/Graphics/SVG/1.1/DTD/svg11.dtd">
<!-- Generated by graphviz version 2.40.1 (20161225.0304)
 -->
<!-- Title: /home/travis/build/AliceO2Group/AliceO2/Detectors/MUON/MID/Raw/src/RawFileReader.cxx Pages: 1 -->
<!--zoomable 296 -->
<svg id="main" version="1.1" xmlns="http://www.w3.org/2000/svg" xmlns:xlink="http://www.w3.org/1999/xlink" xml:space="preserve" onload="init(evt)">
<style type="text/css"><![CDATA[
.edge:hover path { stroke: red; }
.edge:hover polygon { stroke: red; fill: red; }
]]></style>
<script type="text/javascript"><![CDATA[
var edges = document.getElementsByTagName('g');
if (edges && edges.length) {
  for (var i=0;i<edges.length;i++) {
    if (edges[i].id.substr(0,4)=='edge') {
      edges[i].setAttribute('class','edge');
    }
  }
}
]]></script>
        <defs>
                <circle id="rim" cx="0" cy="0" r="7"/>
                <circle id="rim2" cx="0" cy="0" r="3.5"/>
                <g id="zoomPlus">
                        <use xlink:href="#rim" fill="#404040">
                                <set attributeName="fill" to="#808080" begin="zoomplus.mouseover" end="zoomplus.mouseout"/>
                        </use>
                        <path d="M-4,0h8M0,-4v8" fill="none" stroke="white" stroke-width="1.5" pointer-events="none"/>
                </g>
                <g id="zoomMin">
                        <use xlink:href="#rim" fill="#404040">
                                <set attributeName="fill" to="#808080" begin="zoomminus.mouseover" end="zoomminus.mouseout"/>
                        </use>
                        <path d="M-4,0h8" fill="none" stroke="white" stroke-width="1.5" pointer-events="none"/>
                </g>
                <g id="dirArrow">
                        <path fill="none" stroke="white" stroke-width="1.5" d="M0,-3.0v7 M-2.5,-0.5L0,-3.0L2.5,-0.5"/>
                </g>
               <g id="resetDef">
                       <use xlink:href="#rim2" fill="#404040">
                               <set attributeName="fill" to="#808080" begin="reset.mouseover" end="reset.mouseout"/>
                       </use>
               </g>
        </defs>

<script type="text/javascript">
var viewWidth = 1579;
var viewHeight = 296;
var sectionId = 'dynsection-0';
</script>
<script xlink:href="../../svgpan.js"/>
<svg id="graph" class="graph">
<g id="viewport">
<title>/home/travis/build/AliceO2Group/AliceO2/Detectors/MUON/MID/Raw/src/RawFileReader.cxx</title>
<!-- Node0 -->
<g id="node1" class="node">
<title>Node0</title>
<polygon fill="#bfbfbf" stroke="#000000" points="580.5099,-235.5 580.5099,-287.5 726.5099,-287.5 726.5099,-235.5 580.5099,-235.5"/>
<text text-anchor="start" x="588.5099" y="-275.5" font-family="Helvetica,sans-Serif" font-size="10.00" fill="#000000">/home/travis/build</text>
<text text-anchor="start" x="588.5099" y="-264.5" font-family="Helvetica,sans-Serif" font-size="10.00" fill="#000000">/AliceO2Group/AliceO2</text>
<text text-anchor="start" x="588.5099" y="-253.5" font-family="Helvetica,sans-Serif" font-size="10.00" fill="#000000">/Detectors/MUON/MID/Raw</text>
<text text-anchor="middle" x="653.5099" y="-242.5" font-family="Helvetica,sans-Serif" font-size="10.00" fill="#000000">/src/RawFileReader.cxx</text>
</g>
<!-- Node1 -->
<g id="node2" class="node">
<title>Node1</title>
<g id="a_node2"><a xlink:href="../../de/d75/MUON_2MID_2Raw_2include_2MIDRaw_2RawFileReader_8h.html" target="_top" xlink:title="MID raw file reader. ">
<polygon fill="none" stroke="#000000" points="231.0099,-179.5 231.0099,-198.5 370.0099,-198.5 370.0099,-179.5 231.0099,-179.5"/>
<text text-anchor="middle" x="300.5099" y="-186.5" font-family="Helvetica,sans-Serif" font-size="10.00" fill="#000000">MIDRaw/RawFileReader.h</text>
</a>
</g>
</g>
<!-- Node0&#45;&gt;Node1 -->
<g id="edge1" class="edge">
<title>Node0&#45;&gt;Node1</title>
<path fill="none" stroke="#191970" d="M580.3681,-246.478C514.0299,-232.8533 417.6145,-213.0512 357.0242,-200.607"/>
<polygon fill="#191970" stroke="#191970" points="357.3807,-197.1073 346.881,-198.5238 355.9724,-203.9642 357.3807,-197.1073"/>
</g>
<!-- Node9 -->
<g id="node10" class="node">
<title>Node9</title>
<g id="a_node10"><a xlink:href="../../d4/d78/DataFormats_2Headers_2include_2Headers_2RAWDataHeader_8h.html" target="_top" xlink:title="Headers/RAWDataHeader.h">
<polygon fill="none" stroke="#000000" points="449.0099,-56.5 449.0099,-75.5 598.0099,-75.5 598.0099,-56.5 449.0099,-56.5"/>
<text text-anchor="middle" x="523.5099" y="-63.5" font-family="Helvetica,sans-Serif" font-size="10.00" fill="#000000">Headers/RAWDataHeader.h</text>
</a>
</g>
</g>
<!-- Node0&#45;&gt;Node9 -->
<g id="edge19" class="edge">
<title>Node0&#45;&gt;Node9</title>
<path fill="none" stroke="#191970" d="M635.9776,-235.134C609.244,-194.9309 558.9561,-119.3056 535.7787,-84.4504"/>
<polygon fill="#191970" stroke="#191970" points="538.4542,-82.1529 530.0025,-75.7639 532.6253,-86.0289 538.4542,-82.1529"/>
</g>
<!-- Node12 -->
<g id="node13" class="node">
<title>Node12</title>
<polygon fill="none" stroke="#bfbfbf" points="867.5099,-179.5 867.5099,-198.5 927.5099,-198.5 927.5099,-179.5 867.5099,-179.5"/>
<text text-anchor="middle" x="897.5099" y="-186.5" font-family="Helvetica,sans-Serif" font-size="10.00" fill="#000000">iostream</text>
</g>
<!-- Node0&#45;&gt;Node12 -->
<g id="edge18" class="edge">
<title>Node0&#45;&gt;Node12</title>
<path fill="none" stroke="#191970" d="M726.718,-239.7476C769.5185,-227.0302 821.9113,-211.4627 857.2932,-200.9496"/>
<polygon fill="#191970" stroke="#191970" points="858.6594,-204.195 867.2483,-197.9917 856.6656,-197.485 858.6594,-204.195"/>
</g>
<!-- Node13 -->
<g id="node14" class="node">
<title>Node13</title>
<g id="a_node14"><a xlink:href="../../d6/dec/Raw_2include_2DetectorsRaw_2RDHUtils_8h.html" target="_top" xlink:title="DetectorsRaw/RDHUtils.h">
<polygon fill="none" stroke="#000000" points="708.0099,-179.5 708.0099,-198.5 849.0099,-198.5 849.0099,-179.5 708.0099,-179.5"/>
<text text-anchor="middle" x="778.5099" y="-186.5" font-family="Helvetica,sans-Serif" font-size="10.00" fill="#000000">DetectorsRaw/RDHUtils.h</text>
</a>
</g>
</g>
<!-- Node0&#45;&gt;Node13 -->
<g id="edge20" class="edge">
<title>Node0&#45;&gt;Node13</title>
<path fill="none" stroke="#191970" d="M698.6378,-235.3258C716.9379,-224.7118 737.3965,-212.8458 753.0265,-203.7804"/>
<polygon fill="#191970" stroke="#191970" points="755.1777,-206.5788 762.072,-198.534 751.6656,-200.5236 755.1777,-206.5788"/>
</g>
<!-- Node2 -->
<g id="node3" class="node">
<title>Node2</title>
<polygon fill="none" stroke="#bfbfbf" points="16.0099,-118 16.0099,-137 71.0099,-137 71.0099,-118 16.0099,-118"/>
<text text-anchor="middle" x="43.5099" y="-125" font-family="Helvetica,sans-Serif" font-size="10.00" fill="#000000">fstream</text>
</g>
<!-- Node1&#45;&gt;Node2 -->
<g id="edge2" class="edge">
<title>Node1&#45;&gt;Node2</title>
<path fill="none" stroke="#191970" d="M239.4899,-179.4623C194.8872,-171.7164 133.2346,-159.3914 80.5099,-143 78.3485,-142.328 76.1396,-141.5769 73.93,-140.7775"/>
<polygon fill="#191970" stroke="#191970" points="74.9727,-137.4275 64.3842,-137.0596 72.4322,-143.9503 74.9727,-137.4275"/>
</g>
<!-- Node3 -->
<g id="node4" class="node">
<title>Node3</title>
<polygon fill="none" stroke="#bfbfbf" points="12.0099,-56.5 12.0099,-75.5 59.0099,-75.5 59.0099,-56.5 12.0099,-56.5"/>
<text text-anchor="middle" x="35.5099" y="-63.5" font-family="Helvetica,sans-Serif" font-size="10.00" fill="#000000">vector</text>
</g>
<!-- Node1&#45;&gt;Node3 -->
<g id="edge3" class="edge">
<title>Node1&#45;&gt;Node3</title>
<path fill="none" stroke="#191970" d="M230.9865,-182.8441C148.7046,-174.8419 20.9532,-159.8788 6.5099,-143 -8.2004,-125.8091 6.3936,-100.4146 19.6612,-83.5486"/>
<polygon fill="#191970" stroke="#191970" points="22.5834,-85.5104 26.3161,-75.5948 17.2147,-81.0184 22.5834,-85.5104"/>
</g>
<!-- Node4 -->
<g id="node5" class="node">
<title>Node4</title>
<polygon fill="none" stroke="#bfbfbf" points="279.5099,-56.5 279.5099,-75.5 321.5099,-75.5 321.5099,-56.5 279.5099,-56.5"/>
<text text-anchor="middle" x="300.5099" y="-63.5" font-family="Helvetica,sans-Serif" font-size="10.00" fill="#000000">array</text>
</g>
<!-- Node1&#45;&gt;Node4 -->
<g id="edge4" class="edge">
<title>Node1&#45;&gt;Node4</title>
<path fill="none" stroke="#191970" d="M335.2326,-179.4044C353.3151,-172.4487 373.8308,-161.0236 384.5099,-143 391.5331,-131.1466 391.5331,-123.8534 384.5099,-112 378.4096,-101.7041 352.6091,-88.4421 331.1928,-78.8054"/>
<polygon fill="#191970" stroke="#191970" points="332.3112,-75.4739 321.7479,-74.6564 329.4958,-81.8828 332.3112,-75.4739"/>
</g>
<!-- Node5 -->
<g id="node6" class="node">
<title>Node5</title>
<g id="a_node6"><a xlink:href="../../d2/da5/CrateParameters_8h.html" target="_top" xlink:title="MID RO crate parameters. ">
<polygon fill="none" stroke="#000000" points="225.5099,-118 225.5099,-137 375.5099,-137 375.5099,-118 225.5099,-118"/>
<text text-anchor="middle" x="300.5099" y="-125" font-family="Helvetica,sans-Serif" font-size="10.00" fill="#000000">MIDRaw/CrateParameters.h</text>
</a>
</g>
</g>
<!-- Node1&#45;&gt;Node5 -->
<g id="edge5" class="edge">
<title>Node1&#45;&gt;Node5</title>
<path fill="none" stroke="#191970" d="M300.5099,-179.3906C300.5099,-170.8657 300.5099,-158.1392 300.5099,-147.4235"/>
<polygon fill="#191970" stroke="#191970" points="304.01,-147.2448 300.5099,-137.2449 297.01,-147.2449 304.01,-147.2448"/>
</g>
<!-- Node7 -->
<g id="node8" class="node">
<title>Node7</title>
<g id="a_node8"><a xlink:href="../../db/d21/MUON_2MID_2Raw_2include_2MIDRaw_2RawBuffer_8h.html" target="_top" xlink:title="Handler of the RAW buffer. ">
<polygon fill="none" stroke="#000000" points="89.5099,-118 89.5099,-137 207.5099,-137 207.5099,-118 89.5099,-118"/>
<text text-anchor="middle" x="148.5099" y="-125" font-family="Helvetica,sans-Serif" font-size="10.00" fill="#000000">MIDRaw/RawBuffer.h</text>
</a>
</g>
</g>
<!-- Node1&#45;&gt;Node7 -->
<g id="edge8" class="edge">
<title>Node1&#45;&gt;Node7</title>
<path fill="none" stroke="#191970" d="M276.7599,-179.3906C251.216,-169.0554 210.4091,-152.5447 181.6989,-140.9284"/>
<polygon fill="#191970" stroke="#191970" points="182.6759,-137.5481 172.0932,-137.0419 180.0504,-144.0371 182.6759,-137.5481"/>
</g>
<!-- Node10 -->
<g id="node11" class="node">
<title>Node10</title>
<g id="a_node11"><a xlink:href="../../df/db7/RawUnit_8h.html" target="_top" xlink:title="Raw data format MID. ">
<polygon fill="none" stroke="#000000" points="431.5099,-118 431.5099,-137 541.5099,-137 541.5099,-118 431.5099,-118"/>
<text text-anchor="middle" x="486.5099" y="-125" font-family="Helvetica,sans-Serif" font-size="10.00" fill="#000000">MIDRaw/RawUnit.h</text>
</a>
</g>
</g>
<!-- Node1&#45;&gt;Node10 -->
<g id="edge14" class="edge">
<title>Node1&#45;&gt;Node10</title>
<path fill="none" stroke="#191970" d="M329.5724,-179.3906C361.3761,-168.8749 412.5151,-151.966 447.7243,-140.3243"/>
<polygon fill="#191970" stroke="#191970" points="449.2558,-143.5043 457.6515,-137.0419 447.0583,-136.8582 449.2558,-143.5043"/>
</g>
<!-- Node5&#45;&gt;Node4 -->
<g id="edge7" class="edge">
<title>Node5&#45;&gt;Node4</title>
<path fill="none" stroke="#191970" d="M300.5099,-117.8906C300.5099,-109.3657 300.5099,-96.6392 300.5099,-85.9235"/>
<polygon fill="#191970" stroke="#191970" points="304.01,-85.7448 300.5099,-75.7449 297.01,-85.7449 304.01,-85.7448"/>
</g>
<!-- Node6 -->
<g id="node7" class="node">
<title>Node6</title>
<polygon fill="none" stroke="#bfbfbf" points="396.5099,-.5 396.5099,-19.5 446.5099,-19.5 446.5099,-.5 396.5099,-.5"/>
<text text-anchor="middle" x="421.5099" y="-7.5" font-family="Helvetica,sans-Serif" font-size="10.00" fill="#000000">cstdint</text>
</g>
<!-- Node5&#45;&gt;Node6 -->
<g id="edge6" class="edge">
<title>Node5&#45;&gt;Node6</title>
<path fill="none" stroke="#191970" d="M290.7834,-117.9659C277.2421,-103.5201 255.9269,-75.6873 270.5099,-56 284.3527,-37.3121 346.2133,-23.1844 386.3362,-15.7846"/>
<polygon fill="#191970" stroke="#191970" points="387.0468,-19.2131 396.2741,-14.0065 385.8139,-12.3225 387.0468,-19.2131"/>
</g>
<!-- Node7&#45;&gt;Node3 -->
<g id="edge10" class="edge">
<title>Node7&#45;&gt;Node3</title>
<path fill="none" stroke="#191970" d="M130.8537,-117.8906C112.3613,-107.8262 83.109,-91.9057 61.8792,-80.3514"/>
<polygon fill="#191970" stroke="#191970" points="63.4988,-77.2481 53.0422,-75.5419 60.1525,-83.3965 63.4988,-77.2481"/>
</g>
<!-- Node7&#45;&gt;Node6 -->
<g id="edge9" class="edge">
<title>Node7&#45;&gt;Node6</title>
<path fill="none" stroke="#191970" d="M161.1797,-117.882C181.5477,-102.8165 223.275,-73.5635 262.5099,-56 303.3352,-37.7246 353.2963,-24.6671 386.1907,-17.2385"/>
<polygon fill="#191970" stroke="#191970" points="387.2251,-20.5947 396.2378,-15.025 385.7189,-13.7586 387.2251,-20.5947"/>
</g>
<!-- Node8 -->
<g id="node9" class="node">
<title>Node8</title>
<polygon fill="none" stroke="#bfbfbf" points="124.5099,-56.5 124.5099,-75.5 172.5099,-75.5 172.5099,-56.5 124.5099,-56.5"/>
<text text-anchor="middle" x="148.5099" y="-63.5" font-family="Helvetica,sans-Serif" font-size="10.00" fill="#000000">gsl/gsl</text>
</g>
<!-- Node7&#45;&gt;Node8 -->
<g id="edge11" class="edge">
<title>Node7&#45;&gt;Node8</title>
<path fill="none" stroke="#191970" d="M148.5099,-117.8906C148.5099,-109.3657 148.5099,-96.6392 148.5099,-85.9235"/>
<polygon fill="#191970" stroke="#191970" points="152.01,-85.7448 148.5099,-75.7449 145.01,-85.7449 152.01,-85.7448"/>
</g>
<!-- Node7&#45;&gt;Node9 -->
<g id="edge12" class="edge">
<title>Node7&#45;&gt;Node9</title>
<path fill="none" stroke="#191970" d="M187.9577,-117.9788C197.291,-115.8732 207.229,-113.7505 216.5099,-112 291.5096,-97.8542 377.4787,-85.2822 439.3297,-76.8716"/>
<polygon fill="#191970" stroke="#191970" points="439.9884,-80.3145 449.4292,-75.5061 439.0504,-73.3776 439.9884,-80.3145"/>
</g>
<!-- Node9&#45;&gt;Node6 -->
<g id="edge13" class="edge">
<title>Node9&#45;&gt;Node6</title>
<path fill="none" stroke="#191970" d="M505.7429,-56.2455C489.8004,-47.4928 466.184,-34.527 448.011,-24.5496"/>
<polygon fill="#191970" stroke="#191970" points="449.5236,-21.3873 439.0734,-19.6427 446.1547,-27.5233 449.5236,-21.3873"/>
</g>
<!-- Node10&#45;&gt;Node6 -->
<g id="edge15" class="edge">
<title>Node10&#45;&gt;Node6</title>
<path fill="none" stroke="#191970" d="M474.7648,-117.6379C464.0743,-108.0492 448.6127,-92.5444 439.5099,-76 431.6377,-61.6921 427.0292,-43.7139 424.4495,-30.1357"/>
<polygon fill="#191970" stroke="#191970" points="427.845,-29.2219 422.7326,-19.9421 420.9422,-30.3846 427.845,-29.2219"/>
</g>
<!-- Node10&#45;&gt;Node9 -->
<g id="edge17" class="edge">
<title>Node10&#45;&gt;Node9</title>
<path fill="none" stroke="#191970" d="M492.2912,-117.8906C497.6359,-109.0068 505.7258,-95.5601 512.3311,-84.5811"/>
<polygon fill="#191970" stroke="#191970" points="515.491,-86.118 517.6472,-75.7449 509.4928,-82.5093 515.491,-86.118"/>
</g>
<!-- Node11 -->
<g id="node12" class="node">
<title>Node11</title>
<polygon fill="none" stroke="#bfbfbf" points="340.0099,-56.5 340.0099,-75.5 393.0099,-75.5 393.0099,-56.5 340.0099,-56.5"/>
<text text-anchor="middle" x="366.5099" y="-63.5" font-family="Helvetica,sans-Serif" font-size="10.00" fill="#000000">cstddef</text>
</g>
<!-- Node10&#45;&gt;Node11 -->
<g id="edge16" class="edge">
<title>Node10&#45;&gt;Node11</title>
<path fill="none" stroke="#191970" d="M467.7599,-117.8906C448.034,-107.7811 416.7787,-91.7628 394.2099,-80.1962"/>
<polygon fill="#191970" stroke="#191970" points="395.6239,-76.9881 385.1283,-75.5419 392.4313,-83.2176 395.6239,-76.9881"/>
</g>
<!-- Node13&#45;&gt;Node9 -->
<g id="edge26" class="edge">
<title>Node13&#45;&gt;Node9</title>
<path fill="none" stroke="#191970" d="M746.4969,-179.4636C720.1625,-171.1562 682.1608,-158.0952 650.5099,-143 630.1568,-133.293 578.3317,-100.9066 547.5405,-81.3624"/>
<polygon fill="#191970" stroke="#191970" points="549.0339,-78.1642 538.7181,-75.7486 545.2759,-84.0699 549.0339,-78.1642"/>
</g>
<!-- Node14 -->
<g id="node15" class="node">
<title>Node14</title>
<g id="a_node15"><a xlink:href="../../df/d21/GPUCommonDef_8h.html" target="_top" xlink:title="GPUCommonDef.h">
<polygon fill="none" stroke="#000000" points="925.0099,-56.5 925.0099,-75.5 1032.0099,-75.5 1032.0099,-56.5 925.0099,-56.5"/>
<text text-anchor="middle" x="978.5099" y="-63.5" font-family="Helvetica,sans-Serif" font-size="10.00" fill="#000000">GPUCommonDef.h</text>
</a>
</g>
</g>
<!-- Node13&#45;&gt;Node14 -->
<g id="edge21" class="edge">
<title>Node13&#45;&gt;Node14</title>
<path fill="none" stroke="#191970" d="M814.7282,-179.4868C839.7659,-171.9204 873.1754,-159.803 899.5099,-143 925.2207,-126.595 949.513,-100.8052 964.2031,-83.6538"/>
<polygon fill="#191970" stroke="#191970" points="967.2355,-85.4837 970.9665,-75.5675 961.866,-80.9926 967.2355,-85.4837"/>
</g>
<!-- Node17 -->
<g id="node18" class="node">
<title>Node17</title>
<g id="a_node18"><a xlink:href="../../d2/d45/GPUCommonRtypes_8h.html" target="_top" xlink:title="GPUCommonRtypes.h">
<polygon fill="none" stroke="#000000" points="1391.0099,-56.5 1391.0099,-75.5 1516.0099,-75.5 1516.0099,-56.5 1391.0099,-56.5"/>
<text text-anchor="middle" x="1453.5099" y="-63.5" font-family="Helvetica,sans-Serif" font-size="10.00" fill="#000000">GPUCommonRtypes.h</text>
</a>
</g>
</g>
<!-- Node13&#45;&gt;Node17 -->
<g id="edge24" class="edge">
<title>Node13&#45;&gt;Node17</title>
<path fill="none" stroke="#191970" d="M849.1725,-180.1024C852.3275,-179.7255 855.4513,-179.3565 858.5099,-179 1006.3715,-161.7674 1045.5201,-172.1026 1191.5099,-143 1273.5041,-126.6547 1366.8615,-96.2893 1417.0169,-78.9763"/>
<polygon fill="#191970" stroke="#191970" points="1418.4538,-82.1824 1426.7501,-75.5928 1416.1553,-75.5705 1418.4538,-82.1824"/>
</g>
<!-- Node19 -->
<g id="node20" class="node">
<title>Node19</title>
<g id="a_node20"><a xlink:href="../../d6/d89/RDHAny_8h.html" target="_top" xlink:title="Headers/RDHAny.h">
<polygon fill="none" stroke="#000000" points="659.5099,-118 659.5099,-137 767.5099,-137 767.5099,-118 659.5099,-118"/>
<text text-anchor="middle" x="713.5099" y="-125" font-family="Helvetica,sans-Serif" font-size="10.00" fill="#000000">Headers/RDHAny.h</text>
</a>
</g>
</g>
<!-- Node13&#45;&gt;Node19 -->
<g id="edge27" class="edge">
<title>Node13&#45;&gt;Node19</title>
<path fill="none" stroke="#191970" d="M768.3537,-179.3906C758.49,-170.0581 743.3044,-155.6902 731.4112,-144.4374"/>
<polygon fill="#191970" stroke="#191970" points="733.4788,-141.5753 723.8094,-137.2449 728.6678,-146.6601 733.4788,-141.5753"/>
</g>
<!-- Node22 -->
<g id="node23" class="node">
<title>Node22</title>
<g id="a_node23"><a xlink:href="../../d9/d80/InteractionRecord_8h.html" target="_top" xlink:title="CommonDataFormat/Interaction\lRecord.h">
<polygon fill="none" stroke="#000000" points="1008.5099,-112.5 1008.5099,-142.5 1182.5099,-142.5 1182.5099,-112.5 1008.5099,-112.5"/>
<text text-anchor="start" x="1016.5099" y="-130.5" font-family="Helvetica,sans-Serif" font-size="10.00" fill="#000000">CommonDataFormat/Interaction</text>
<text text-anchor="middle" x="1095.5099" y="-119.5" font-family="Helvetica,sans-Serif" font-size="10.00" fill="#000000">Record.h</text>
</a>
</g>
</g>
<!-- Node13&#45;&gt;Node22 -->
<g id="edge32" class="edge">
<title>Node13&#45;&gt;Node22</title>
<path fill="none" stroke="#191970" d="M827.6934,-179.4581C875.7788,-170.1292 950.0363,-155.7228 1008.1734,-144.4438"/>
<polygon fill="#191970" stroke="#191970" points="1008.943,-147.8599 1018.0933,-142.5193 1007.6097,-140.988 1008.943,-147.8599"/>
</g>
<!-- Node26 -->
<g id="node27" class="node">
<title>Node26</title>
<g id="a_node27"><a xlink:href="../../d7/d34/DAQID_8h.html" target="_top" xlink:title="Headers/DAQID.h">
<polygon fill="none" stroke="#000000" points="790.0099,-118 790.0099,-137 891.0099,-137 891.0099,-118 790.0099,-118"/>
<text text-anchor="middle" x="840.5099" y="-125" font-family="Helvetica,sans-Serif" font-size="10.00" fill="#000000">Headers/DAQID.h</text>
</a>
</g>
</g>
<!-- Node13&#45;&gt;Node26 -->
<g id="edge38" class="edge">
<title>Node13&#45;&gt;Node26</title>
<path fill="none" stroke="#191970" d="M788.1974,-179.3906C797.6058,-170.0581 812.0906,-155.6902 823.4348,-144.4374"/>
<polygon fill="#191970" stroke="#191970" points="826.051,-146.7722 830.6858,-137.2449 821.1213,-141.8024 826.051,-146.7722"/>
</g>
<!-- Node15 -->
<g id="node16" class="node">
<title>Node15</title>
<g id="a_node16"><a xlink:href="../../d5/d93/GPUCommonDefSettings_8h.html" target="_top" xlink:title="GPUCommonDefSettings.h">
<polygon fill="none" stroke="#000000" points="1345.5099,-.5 1345.5099,-19.5 1493.5099,-19.5 1493.5099,-.5 1345.5099,-.5"/>
<text text-anchor="middle" x="1419.5099" y="-7.5" font-family="Helvetica,sans-Serif" font-size="10.00" fill="#000000">GPUCommonDefSettings.h</text>
</a>
</g>
</g>
<!-- Node14&#45;&gt;Node15 -->
<g id="edge22" class="edge">
<title>Node14&#45;&gt;Node15</title>
<path fill="none" stroke="#191970" d="M1032.2589,-57.1989C1035.0479,-56.7835 1037.811,-56.3813 1040.5099,-56 1047.7593,-54.9758 1225.6305,-33.4422 1335.0869,-20.2051"/>
<polygon fill="#191970" stroke="#191970" points="1335.6234,-23.6658 1345.1308,-18.9905 1334.7829,-16.7164 1335.6234,-23.6658"/>
</g>
<!-- Node16 -->
<g id="node17" class="node">
<title>Node16</title>
<g id="a_node17"><a xlink:href="../../da/d5a/GPUCommonDefAPI_8h.html" target="_top" xlink:title="GPUCommonDefAPI.h">
<polygon fill="none" stroke="#000000" points="1203.5099,-.5 1203.5099,-19.5 1327.5099,-19.5 1327.5099,-.5 1203.5099,-.5"/>
<text text-anchor="middle" x="1265.5099" y="-7.5" font-family="Helvetica,sans-Serif" font-size="10.00" fill="#000000">GPUCommonDefAPI.h</text>
</a>
</g>
</g>
<!-- Node14&#45;&gt;Node16 -->
<g id="edge23" class="edge">
<title>Node14&#45;&gt;Node16</title>
<path fill="none" stroke="#191970" d="M1027.5209,-56.4369C1077.1547,-46.7522 1153.9372,-31.7703 1206.7934,-21.4569"/>
<polygon fill="#191970" stroke="#191970" points="1207.5565,-24.8741 1216.7011,-19.5237 1206.2159,-18.0036 1207.5565,-24.8741"/>
</g>
<!-- Node18 -->
<g id="node19" class="node">
<title>Node18</title>
<polygon fill="none" stroke="#bfbfbf" points="1512.0099,-.5 1512.0099,-19.5 1571.0099,-19.5 1571.0099,-.5 1512.0099,-.5"/>
<text text-anchor="middle" x="1541.5099" y="-7.5" font-family="Helvetica,sans-Serif" font-size="10.00" fill="#000000">Rtypes.h</text>
</g>
<!-- Node17&#45;&gt;Node18 -->
<g id="edge25" class="edge">
<title>Node17&#45;&gt;Node18</title>
<path fill="none" stroke="#191970" d="M1468.8384,-56.2455C1482.3403,-47.6534 1502.2221,-35.0014 1517.7785,-25.1018"/>
<polygon fill="#191970" stroke="#191970" points="1519.7996,-27.9643 1526.3572,-19.6427 1516.0414,-22.0587 1519.7996,-27.9643"/>
</g>
<!-- Node19&#45;&gt;Node9 -->
<g id="edge29" class="edge">
<title>Node19&#45;&gt;Node9</title>
<path fill="none" stroke="#191970" d="M683.8224,-117.8906C651.1954,-107.3298 598.6473,-90.3208 562.6675,-78.6747"/>
<polygon fill="#191970" stroke="#191970" points="563.5808,-75.2916 552.989,-75.5419 561.4251,-81.9514 563.5808,-75.2916"/>
</g>
<!-- Node19&#45;&gt;Node14 -->
<g id="edge28" class="edge">
<title>Node19&#45;&gt;Node14</title>
<path fill="none" stroke="#191970" d="M754.6254,-117.9581C801.1402,-107.1632 876.9507,-89.5694 927.2772,-77.8899"/>
<polygon fill="#191970" stroke="#191970" points="928.3481,-81.2344 937.298,-75.5643 926.7656,-74.4156 928.3481,-81.2344"/>
</g>
<!-- Node20 -->
<g id="node21" class="node">
<title>Node20</title>
<polygon fill="none" stroke="#bfbfbf" points="616.0099,-56.5 616.0099,-75.5 685.0099,-75.5 685.0099,-56.5 616.0099,-56.5"/>
<text text-anchor="middle" x="650.5099" y="-63.5" font-family="Helvetica,sans-Serif" font-size="10.00" fill="#000000">type_traits</text>
</g>
<!-- Node19&#45;&gt;Node20 -->
<g id="edge30" class="edge">
<title>Node19&#45;&gt;Node20</title>
<path fill="none" stroke="#191970" d="M703.6662,-117.8906C694.106,-108.5581 679.3877,-94.1902 667.8604,-82.9374"/>
<polygon fill="#191970" stroke="#191970" points="670.0931,-80.2257 660.4925,-75.7449 665.2033,-85.2348 670.0931,-80.2257"/>
</g>
<!-- Node21 -->
<g id="node22" class="node">
<title>Node21</title>
<polygon fill="none" stroke="#bfbfbf" points="465.0099,-.5 465.0099,-19.5 530.0099,-19.5 530.0099,-.5 465.0099,-.5"/>
<text text-anchor="middle" x="497.5099" y="-7.5" font-family="Helvetica,sans-Serif" font-size="10.00" fill="#000000">stdexcept</text>
</g>
<!-- Node19&#45;&gt;Node21 -->
<g id="edge31" class="edge">
<title>Node19&#45;&gt;Node21</title>
<path fill="none" stroke="#191970" d="M713.7211,-117.6042C713.4831,-102.158 710.6496,-72.3929 693.5099,-56 644.6963,-9.3134 610.4946,-33.908 540.3215,-20.2013"/>
<polygon fill="#191970" stroke="#191970" points="540.6904,-16.7 530.1758,-18.0016 539.2071,-23.5411 540.6904,-16.7"/>
</g>
<!-- Node22&#45;&gt;Node6 -->
<g id="edge36" class="edge">
<title>Node22&#45;&gt;Node6</title>
<path fill="none" stroke="#191970" d="M1008.1883,-116.006C942.5183,-106.7957 850.4812,-92.6811 770.5099,-76 735.8971,-68.7802 728.1479,-63.0981 693.5099,-56 591.8795,-35.1737 561.7673,-42.6521 456.7233,-20.021"/>
<polygon fill="#191970" stroke="#191970" points="457.1798,-16.5379 446.6618,-17.8116 455.6784,-23.375 457.1798,-16.5379"/>
</g>
<!-- Node22&#45;&gt;Node17 -->
<g id="edge33" class="edge">
<title>Node22&#45;&gt;Node17</title>
<path fill="none" stroke="#191970" d="M1182.6288,-112.534C1245.9867,-101.6499 1330.4152,-87.1462 1388.0697,-77.2418"/>
<polygon fill="#191970" stroke="#191970" points="1388.8917,-80.652 1398.1547,-75.5093 1387.7065,-73.753 1388.8917,-80.652"/>
</g>
<!-- Node23 -->
<g id="node24" class="node">
<title>Node23</title>
<polygon fill="none" stroke="#bfbfbf" points="1050.0099,-56.5 1050.0099,-75.5 1099.0099,-75.5 1099.0099,-56.5 1050.0099,-56.5"/>
<text text-anchor="middle" x="1074.5099" y="-63.5" font-family="Helvetica,sans-Serif" font-size="10.00" fill="#000000">iosfwd</text>
</g>
<!-- Node22&#45;&gt;Node23 -->
<g id="edge34" class="edge">
<title>Node22&#45;&gt;Node23</title>
<path fill="none" stroke="#191970" d="M1090.3189,-112.2977C1087.5557,-104.2055 1084.1269,-94.1639 1081.1694,-85.5029"/>
<polygon fill="#191970" stroke="#191970" points="1084.416,-84.1794 1077.8723,-75.8469 1077.7916,-86.4415 1084.416,-84.1794"/>
</g>
<!-- Node24 -->
<g id="node25" class="node">
<title>Node24</title>
<polygon fill="none" stroke="#bfbfbf" points="1117.0099,-56.5 1117.0099,-75.5 1164.0099,-75.5 1164.0099,-56.5 1117.0099,-56.5"/>
<text text-anchor="middle" x="1140.5099" y="-63.5" font-family="Helvetica,sans-Serif" font-size="10.00" fill="#000000">cmath</text>
</g>
<!-- Node22&#45;&gt;Node24 -->
<g id="edge35" class="edge">
<title>Node22&#45;&gt;Node24</title>
<path fill="none" stroke="#191970" d="M1106.6335,-112.2977C1112.88,-103.7609 1120.7139,-93.0545 1127.2746,-84.0883"/>
<polygon fill="#191970" stroke="#191970" points="1130.2243,-85.984 1133.3049,-75.8469 1124.5751,-81.8505 1130.2243,-85.984"/>
</g>
<!-- Node25 -->
<g id="node26" class="node">
<title>Node25</title>
<g id="a_node26"><a xlink:href="../../d4/dc6/LHCConstants_8h.html" target="_top" xlink:title="Header to collect LHC related constants. ">
<polygon fill="none" stroke="#000000" points="1182.5099,-56.5 1182.5099,-75.5 1372.5099,-75.5 1372.5099,-56.5 1182.5099,-56.5"/>
<text text-anchor="middle" x="1277.5099" y="-63.5" font-family="Helvetica,sans-Serif" font-size="10.00" fill="#000000">CommonConstants/LHCConstants.h</text>
</a>
</g>
</g>
<!-- Node22&#45;&gt;Node25 -->
<g id="edge37" class="edge">
<title>Node22&#45;&gt;Node25</title>
<path fill="none" stroke="#191970" d="M1140.0321,-112.4554C1170.5325,-102.149 1210.555,-88.6249 1239.5458,-78.8286"/>
<polygon fill="#191970" stroke="#191970" points="1240.9531,-82.0475 1249.3064,-75.5303 1238.7122,-75.4159 1240.9531,-82.0475"/>
</g>
<!-- Node27 -->
<g id="node28" class="node">
<title>Node27</title>
<g id="a_node28"><a xlink:href="../../dc/dcd/DataHeader_8h.html" target="_top" xlink:title="Headers/DataHeader.h">
<polygon fill="none" stroke="#000000" points="780.0099,-56.5 780.0099,-75.5 907.0099,-75.5 907.0099,-56.5 780.0099,-56.5"/>
<text text-anchor="middle" x="843.5099" y="-63.5" font-family="Helvetica,sans-Serif" font-size="10.00" fill="#000000">Headers/DataHeader.h</text>
</a>
</g>
</g>
<!-- Node26&#45;&gt;Node27 -->
<g id="edge39" class="edge">
<title>Node26&#45;&gt;Node27</title>
<path fill="none" stroke="#191970" d="M840.9787,-117.8906C841.3945,-109.3657 842.0153,-96.6392 842.5381,-85.9235"/>
<polygon fill="#191970" stroke="#191970" points="846.0431,-85.9035 843.0346,-75.7449 839.0514,-85.5624 846.0431,-85.9035"/>
</g>
<!-- Node27&#45;&gt;Node6 -->
<g id="edge40" class="edge">
<title>Node27&#45;&gt;Node6</title>
<path fill="none" stroke="#191970" d="M779.667,-57.7522C774.8771,-57.1526 770.1175,-56.5629 765.5099,-56 631.0567,-39.5748 593.1879,-47.2852 456.6451,-19.9406"/>
<polygon fill="#191970" stroke="#191970" points="457.1371,-16.4692 446.6408,-17.9104 455.7449,-23.3293 457.1371,-16.4692"/>
</g>
<!-- Node27&#45;&gt;Node21 -->
<g id="edge45" class="edge">
<title>Node27&#45;&gt;Node21</title>
<path fill="none" stroke="#191970" d="M779.8223,-57.08C708.8445,-47.0255 597.4549,-30.8808 540.17,-20.1683"/>
<polygon fill="#191970" stroke="#191970" points="540.6067,-16.6882 530.1253,-18.234 539.283,-23.5619 540.6067,-16.6882"/>
</g>
<!-- Node28 -->
<g id="node29" class="node">
<title>Node28</title>
<polygon fill="none" stroke="#bfbfbf" points="613.5099,-.5 613.5099,-19.5 671.5099,-19.5 671.5099,-.5 613.5099,-.5"/>
<text text-anchor="middle" x="642.5099" y="-7.5" font-family="Helvetica,sans-Serif" font-size="10.00" fill="#000000">memory</text>
</g>
<!-- Node27&#45;&gt;Node28 -->
<g id="edge41" class="edge">
<title>Node27&#45;&gt;Node28</title>
<path fill="none" stroke="#191970" d="M808.9568,-56.3733C773.5605,-46.5116 718.6238,-31.2059 681.6453,-20.9034"/>
<polygon fill="#191970" stroke="#191970" points="682.2953,-17.4512 671.7228,-18.1389 680.4165,-24.1944 682.2953,-17.4512"/>
</g>
<!-- Node29 -->
<g id="node30" class="node">
<title>Node29</title>
<polygon fill="none" stroke="#bfbfbf" points="689.5099,-.5 689.5099,-19.5 741.5099,-19.5 741.5099,-.5 689.5099,-.5"/>
<text text-anchor="middle" x="715.5099" y="-7.5" font-family="Helvetica,sans-Serif" font-size="10.00" fill="#000000">cassert</text>
</g>
<!-- Node27&#45;&gt;Node29 -->
<g id="edge42" class="edge">
<title>Node27&#45;&gt;Node29</title>
<path fill="none" stroke="#191970" d="M821.5059,-56.3733C800.8665,-47.3435 769.7942,-33.7494 746.621,-23.6111"/>
<polygon fill="#191970" stroke="#191970" points="747.7912,-20.3028 737.2268,-19.5011 744.9855,-26.7159 747.7912,-20.3028"/>
</g>
<!-- Node30 -->
<g id="node31" class="node">
<title>Node30</title>
<polygon fill="none" stroke="#bfbfbf" points="759.5099,-.5 759.5099,-19.5 809.5099,-19.5 809.5099,-.5 759.5099,-.5"/>
<text text-anchor="middle" x="784.5099" y="-7.5" font-family="Helvetica,sans-Serif" font-size="10.00" fill="#000000">cstring</text>
</g>
<!-- Node27&#45;&gt;Node30 -->
<g id="edge43" class="edge">
<title>Node27&#45;&gt;Node30</title>
<path fill="none" stroke="#191970" d="M833.2329,-56.2455C824.6881,-48.1352 812.3321,-36.4075 802.2014,-26.7919"/>
<polygon fill="#191970" stroke="#191970" points="804.3318,-23.9884 794.6692,-19.6427 799.5128,-29.0655 804.3318,-23.9884"/>
</g>
<!-- Node31 -->
<g id="node32" class="node">
<title>Node31</title>
<polygon fill="none" stroke="#bfbfbf" points="827.5099,-.5 827.5099,-19.5 891.5099,-19.5 891.5099,-.5 827.5099,-.5"/>
<text text-anchor="middle" x="859.5099" y="-7.5" font-family="Helvetica,sans-Serif" font-size="10.00" fill="#000000">algorithm</text>
</g>
<!-- Node27&#45;&gt;Node31 -->
<g id="edge44" class="edge">
<title>Node27&#45;&gt;Node31</title>
<path fill="none" stroke="#191970" d="M846.2969,-56.2455C848.4077,-48.8579 851.376,-38.4689 853.9646,-29.4087"/>
<polygon fill="#191970" stroke="#191970" points="857.3729,-30.2195 856.7549,-19.6427 850.6423,-28.2964 857.3729,-30.2195"/>
</g>
<!-- Node32 -->
<g id="node33" class="node">
<title>Node32</title>
<polygon fill="none" stroke="#bfbfbf" points="909.5099,-.5 909.5099,-19.5 953.5099,-19.5 953.5099,-.5 909.5099,-.5"/>
<text text-anchor="middle" x="931.5099" y="-7.5" font-family="Helvetica,sans-Serif" font-size="10.00" fill="#000000">string</text>
</g>
<!-- Node27&#45;&gt;Node32 -->
<g id="edge46" class="edge">
<title>Node27&#45;&gt;Node32</title>
<path fill="none" stroke="#191970" d="M858.8384,-56.2455C872.3403,-47.6534 892.2221,-35.0014 907.7785,-25.1018"/>
<polygon fill="#191970" stroke="#191970" points="909.7996,-27.9643 916.3572,-19.6427 906.0414,-22.0587 909.7996,-27.9643"/>
</g>
<!-- Node33 -->
<g id="node34" class="node">
<title>Node33</title>
<polygon fill="none" stroke="#bfbfbf" points="971.5099,-.5 971.5099,-19.5 1021.5099,-19.5 1021.5099,-.5 971.5099,-.5"/>
<text text-anchor="middle" x="996.5099" y="-7.5" font-family="Helvetica,sans-Serif" font-size="10.00" fill="#000000">climits</text>
</g>
<!-- Node27&#45;&gt;Node33 -->
<g id="edge47" class="edge">
<title>Node27&#45;&gt;Node33</title>
<path fill="none" stroke="#191970" d="M869.8116,-56.3733C895.2622,-47.058 933.9842,-32.8852 961.9206,-22.6602"/>
<polygon fill="#191970" stroke="#191970" points="963.125,-25.9465 971.3127,-19.2225 960.719,-19.3729 963.125,-25.9465"/>
</g>
<!-- Node34 -->
<g id="node35" class="node">
<title>Node34</title>
<g id="a_node35"><a xlink:href="../../d7/df8/Types_8h.html" target="_top" xlink:title="MemoryResources/Types.h">
<polygon fill="none" stroke="#000000" points="1039.5099,-.5 1039.5099,-19.5 1185.5099,-19.5 1185.5099,-.5 1039.5099,-.5"/>
<text text-anchor="middle" x="1112.5099" y="-7.5" font-family="Helvetica,sans-Serif" font-size="10.00" fill="#000000">MemoryResources/Types.h</text>
</a>
</g>
</g>
<!-- Node27&#45;&gt;Node34 -->
<g id="edge48" class="edge">
<title>Node27&#45;&gt;Node34</title>
<path fill="none" stroke="#191970" d="M889.447,-56.4369C935.7745,-46.7925 1007.3368,-31.8948 1056.8568,-21.5858"/>
<polygon fill="#191970" stroke="#191970" points="1057.6855,-24.9884 1066.7623,-19.5237 1056.2588,-18.1353 1057.6855,-24.9884"/>
</g>
<!-- Node35 -->
<g id="node36" class="node">
<title>Node35</title>
<polygon fill="none" stroke="#bfbfbf" points="548.0099,-.5 548.0099,-19.5 595.0099,-19.5 595.0099,-.5 548.0099,-.5"/>
<text text-anchor="middle" x="571.5099" y="-7.5" font-family="Helvetica,sans-Serif" font-size="10.00" fill="#000000">cerrno</text>
</g>
<!-- Node27&#45;&gt;Node35 -->
<g id="edge49" class="edge">
<title>Node27&#45;&gt;Node35</title>
<path fill="none" stroke="#191970" d="M784.6977,-56.439C738.3702,-48.5073 672.0031,-36.2635 605.0945,-19.9448"/>
<polygon fill="#191970" stroke="#191970" points="605.7686,-16.5062 595.2212,-17.5076 604.0909,-23.3022 605.7686,-16.5062"/>
</g>
</g>
</svg>
        <g id="navigator" transform="translate(0 0)" fill="#404254">
                <rect fill="#f2f5e9" fill-opacity="0.5" stroke="#606060" stroke-width=".5" x="0" y="0" width="60" height="60"/>
                <use id="zoomplus" xlink:href="#zoomPlus" x="17" y="9" onmousedown="handleZoom(evt,'in')"/>
                <use id="zoomminus" xlink:href="#zoomMin" x="42" y="9" onmousedown="handleZoom(evt,'out')"/>
                <use id="reset" xlink:href="#resetDef" x="30" y="36" onmousedown="handleReset()"/>
                <g id="arrowUp" xlink:href="#dirArrow" transform="translate(30 24)" onmousedown="handlePan(0,-1)">
                  <use xlink:href="#rim" fill="#404040">
                        <set attributeName="fill" to="#808080" begin="arrowUp.mouseover" end="arrowUp.mouseout"/>
                  </use>
                  <path fill="none" stroke="white" stroke-width="1.5" d="M0,-3.0v7 M-2.5,-0.5L0,-3.0L2.5,-0.5"/>
                </g>
                <g id="arrowRight" xlink:href="#dirArrow" transform="rotate(90) translate(36 -43)" onmousedown="handlePan(1,0)">
                  <use xlink:href="#rim" fill="#404040">
                        <set attributeName="fill" to="#808080" begin="arrowRight.mouseover" end="arrowRight.mouseout"/>
                  </use>
                  <path fill="none" stroke="white" stroke-width="1.5" d="M0,-3.0v7 M-2.5,-0.5L0,-3.0L2.5,-0.5"/>
                </g>
                <g id="arrowDown" xlink:href="#dirArrow" transform="rotate(180) translate(-30 -48)" onmousedown="handlePan(0,1)">
                  <use xlink:href="#rim" fill="#404040">
                        <set attributeName="fill" to="#808080" begin="arrowDown.mouseover" end="arrowDown.mouseout"/>
                  </use>
                  <path fill="none" stroke="white" stroke-width="1.5" d="M0,-3.0v7 M-2.5,-0.5L0,-3.0L2.5,-0.5"/>
                </g>
                <g id="arrowLeft" xlink:href="#dirArrow" transform="rotate(270) translate(-36 17)" onmousedown="handlePan(-1,0)">
                  <use xlink:href="#rim" fill="#404040">
                        <set attributeName="fill" to="#808080" begin="arrowLeft.mouseover" end="arrowLeft.mouseout"/>
                  </use>
                  <path fill="none" stroke="white" stroke-width="1.5" d="M0,-3.0v7 M-2.5,-0.5L0,-3.0L2.5,-0.5"/>
                </g>
        </g>
        <svg viewBox="0 0 15 15" width="100%" height="30px" preserveAspectRatio="xMaxYMin meet">
         <g id="arrow_out" transform="scale(0.3 0.3)">
          <a xlink:href="MUON_2MID_2Raw_2src_2RawFileReader_8cxx__incl_org.svg" target="_base">
           <rect id="button" ry="5" rx="5" y="6" x="6" height="38" width="38"
                fill="#f2f5e9" fill-opacity="0.5" stroke="#606060" stroke-width="1.0"/>
           <path id="arrow"
             d="M 11.500037,31.436501 C 11.940474,20.09759 22.043105,11.32322 32.158766,21.979434 L 37.068811,17.246167 C 37.068811,17.246167 37.088388,32 37.088388,32 L 22.160133,31.978069 C 22.160133,31.978069 26.997745,27.140456 26.997745,27.140456 C 18.528582,18.264221 13.291696,25.230495 11.500037,31.436501 z"
             style="fill:#404040;"/>
          </a>
         </g>
        </svg>
</svg>
