<?xml version="1.0" encoding="UTF-8" standalone="no"?>
<!DOCTYPE svg PUBLIC "-//W3C//DTD SVG 1.1//EN"
 "http://www.w3.org/Graphics/SVG/1.1/DTD/svg11.dtd">
<!-- Generated by graphviz version 2.40.1 (20161225.0304)
 -->
<!-- Title: /home/travis/build/AliceO2Group/AliceO2/Detectors/ITSMFT/common/reconstruction/include/ITSMFTReconstruction/AlpideCoder.h Pages: 1 -->
<svg width="1769pt" height="583pt"
 viewBox="0.00 0.00 1768.50 583.00" xmlns="http://www.w3.org/2000/svg" xmlns:xlink="http://www.w3.org/1999/xlink">
<g id="graph0" class="graph" transform="scale(1 1) rotate(0) translate(4 579)">
<title>/home/travis/build/AliceO2Group/AliceO2/Detectors/ITSMFT/common/reconstruction/include/ITSMFTReconstruction/AlpideCoder.h</title>
<!-- Node20 -->
<g id="node1" class="node">
<title>Node20</title>
<polygon fill="#bfbfbf" stroke="#000000" points="994,-511.5 994,-574.5 1191,-574.5 1191,-511.5 994,-511.5"/>
<text text-anchor="start" x="1002" y="-562.5" font-family="Helvetica,sans-Serif" font-size="10.00" fill="#000000">/home/travis/build</text>
<text text-anchor="start" x="1002" y="-551.5" font-family="Helvetica,sans-Serif" font-size="10.00" fill="#000000">/AliceO2Group/AliceO2</text>
<text text-anchor="start" x="1002" y="-540.5" font-family="Helvetica,sans-Serif" font-size="10.00" fill="#000000">/Detectors/ITSMFT/common</text>
<text text-anchor="start" x="1002" y="-529.5" font-family="Helvetica,sans-Serif" font-size="10.00" fill="#000000">/reconstruction/include</text>
<text text-anchor="middle" x="1092.5" y="-518.5" font-family="Helvetica,sans-Serif" font-size="10.00" fill="#000000">/ITSMFTReconstruction/AlpideCoder.h</text>
</g>
<!-- Node21 -->
<g id="node2" class="node">
<title>Node21</title>
<g id="a_node2"><a xlink:href="../../dd/db8/RawPixelReader_8h.html" target="_top" xlink:title="Definition of the Alpide pixel reader for raw data processing. ">
<polygon fill="none" stroke="#000000" points="756.5,-211.5 756.5,-274.5 972.5,-274.5 972.5,-211.5 756.5,-211.5"/>
<text text-anchor="start" x="764.5" y="-262.5" font-family="Helvetica,sans-Serif" font-size="10.00" fill="#000000">/home/travis/build</text>
<text text-anchor="start" x="764.5" y="-251.5" font-family="Helvetica,sans-Serif" font-size="10.00" fill="#000000">/AliceO2Group/AliceO2</text>
<text text-anchor="start" x="764.5" y="-240.5" font-family="Helvetica,sans-Serif" font-size="10.00" fill="#000000">/Detectors/ITSMFT/common</text>
<text text-anchor="start" x="764.5" y="-229.5" font-family="Helvetica,sans-Serif" font-size="10.00" fill="#000000">/reconstruction/include</text>
<text text-anchor="middle" x="864.5" y="-218.5" font-family="Helvetica,sans-Serif" font-size="10.00" fill="#000000">/ITSMFTReconstruction/RawPixelReader.h</text>
</a>
</g>
</g>
<!-- Node20&#45;&gt;Node21 -->
<g id="edge1" class="edge">
<title>Node20&#45;&gt;Node21</title>
<path fill="none" stroke="#191970" d="M1015.5175,-506.0459C1001.764,-497.1714 988.374,-486.7895 977.5,-475 922.0659,-414.8985 888.2406,-322.5832 873.3871,-274.5283"/>
<polygon fill="#191970" stroke="#191970" points="1013.766,-509.0781 1024.1087,-511.3758 1017.4563,-503.1298 1013.766,-509.0781"/>
</g>
<!-- Node22 -->
<g id="node3" class="node">
<title>Node22</title>
<g id="a_node3"><a xlink:href="../../df/d56/MC2RawEncoder_8h.html" target="_top" xlink:title="Definition of the ITS/MFT Alpide pixel MC&#45;&gt;raw converter. ">
<polygon fill="none" stroke="#000000" points="338.5,-106 338.5,-169 538.5,-169 538.5,-106 338.5,-106"/>
<text text-anchor="start" x="346.5" y="-157" font-family="Helvetica,sans-Serif" font-size="10.00" fill="#000000">/home/travis/build</text>
<text text-anchor="start" x="346.5" y="-146" font-family="Helvetica,sans-Serif" font-size="10.00" fill="#000000">/AliceO2Group/AliceO2</text>
<text text-anchor="start" x="346.5" y="-135" font-family="Helvetica,sans-Serif" font-size="10.00" fill="#000000">/Detectors/ITSMFT/common</text>
<text text-anchor="start" x="346.5" y="-124" font-family="Helvetica,sans-Serif" font-size="10.00" fill="#000000">/simulation/include/ITSMFTSimulation</text>
<text text-anchor="middle" x="438.5" y="-113" font-family="Helvetica,sans-Serif" font-size="10.00" fill="#000000">/MC2RawEncoder.h</text>
</a>
</g>
</g>
<!-- Node20&#45;&gt;Node22 -->
<g id="edge33" class="edge">
<title>Node20&#45;&gt;Node22</title>
<path fill="none" stroke="#191970" d="M1000.3439,-507.5405C976.6254,-497.6686 951.3548,-486.4844 928.5,-475 773.5571,-397.1423 733.4181,-377.4308 593.5,-275 548.3656,-241.9581 500.8734,-198.3248 470.5407,-169.1581"/>
<polygon fill="#191970" stroke="#191970" points="999.119,-510.8212 1009.698,-511.4 1001.7889,-504.3504 999.119,-510.8212"/>
</g>
<!-- Node33 -->
<g id="node14" class="node">
<title>Node33</title>
<g id="a_node14"><a xlink:href="../../db/d0e/RUDecodeData_8h.html" target="_top" xlink:title="Declaration of the Readout Unite decoder class. ">
<polygon fill="none" stroke="#000000" points="986.5,-411.5 986.5,-474.5 1198.5,-474.5 1198.5,-411.5 986.5,-411.5"/>
<text text-anchor="start" x="994.5" y="-462.5" font-family="Helvetica,sans-Serif" font-size="10.00" fill="#000000">/home/travis/build</text>
<text text-anchor="start" x="994.5" y="-451.5" font-family="Helvetica,sans-Serif" font-size="10.00" fill="#000000">/AliceO2Group/AliceO2</text>
<text text-anchor="start" x="994.5" y="-440.5" font-family="Helvetica,sans-Serif" font-size="10.00" fill="#000000">/Detectors/ITSMFT/common</text>
<text text-anchor="start" x="994.5" y="-429.5" font-family="Helvetica,sans-Serif" font-size="10.00" fill="#000000">/reconstruction/include</text>
<text text-anchor="middle" x="1092.5" y="-418.5" font-family="Helvetica,sans-Serif" font-size="10.00" fill="#000000">/ITSMFTReconstruction/RUDecodeData.h</text>
</a>
</g>
</g>
<!-- Node20&#45;&gt;Node33 -->
<g id="edge14" class="edge">
<title>Node20&#45;&gt;Node33</title>
<path fill="none" stroke="#191970" d="M1092.5,-501.2111C1092.5,-492.37 1092.5,-483.1767 1092.5,-474.778"/>
<polygon fill="#191970" stroke="#191970" points="1089.0001,-501.3593 1092.5,-511.3594 1096.0001,-501.3594 1089.0001,-501.3593"/>
</g>
<!-- Node40 -->
<g id="node21" class="node">
<title>Node40</title>
<g id="a_node21"><a xlink:href="../../df/d70/GBTLink_8cxx.html" target="_top" xlink:title="Definitions of GBTLink class used for the ITS/MFT raw data decoding. ">
<polygon fill="none" stroke="#000000" points="1530.5,-217 1530.5,-269 1700.5,-269 1700.5,-217 1530.5,-217"/>
<text text-anchor="start" x="1538.5" y="-257" font-family="Helvetica,sans-Serif" font-size="10.00" fill="#000000">/home/travis/build</text>
<text text-anchor="start" x="1538.5" y="-246" font-family="Helvetica,sans-Serif" font-size="10.00" fill="#000000">/AliceO2Group/AliceO2</text>
<text text-anchor="start" x="1538.5" y="-235" font-family="Helvetica,sans-Serif" font-size="10.00" fill="#000000">/Detectors/ITSMFT/common</text>
<text text-anchor="middle" x="1615.5" y="-224" font-family="Helvetica,sans-Serif" font-size="10.00" fill="#000000">/reconstruction/src/GBTLink.cxx</text>
</a>
</g>
</g>
<!-- Node20&#45;&gt;Node40 -->
<g id="edge32" class="edge">
<title>Node20&#45;&gt;Node40</title>
<path fill="none" stroke="#191970" d="M1156.2523,-506.4308C1263.2928,-445.0309 1476.574,-322.6899 1569.9442,-269.1314"/>
<polygon fill="#191970" stroke="#191970" points="1154.4144,-503.45 1147.4817,-511.4618 1157.8974,-509.522 1154.4144,-503.45"/>
</g>
<!-- Node42 -->
<g id="node23" class="node">
<title>Node42</title>
<g id="a_node23"><a xlink:href="../../d9/d0f/AlpideCoder_8cxx.html" target="_top" xlink:title="Implementation of the ALPIDE data decoding/encoding. ">
<polygon fill="none" stroke="#000000" points="1400.5,-417 1400.5,-469 1588.5,-469 1588.5,-417 1400.5,-417"/>
<text text-anchor="start" x="1408.5" y="-457" font-family="Helvetica,sans-Serif" font-size="10.00" fill="#000000">/home/travis/build</text>
<text text-anchor="start" x="1408.5" y="-446" font-family="Helvetica,sans-Serif" font-size="10.00" fill="#000000">/AliceO2Group/AliceO2</text>
<text text-anchor="start" x="1408.5" y="-435" font-family="Helvetica,sans-Serif" font-size="10.00" fill="#000000">/Detectors/ITSMFT/common</text>
<text text-anchor="middle" x="1494.5" y="-424" font-family="Helvetica,sans-Serif" font-size="10.00" fill="#000000">/reconstruction/src/AlpideCoder.cxx</text>
</a>
</g>
</g>
<!-- Node20&#45;&gt;Node42 -->
<g id="edge31" class="edge">
<title>Node20&#45;&gt;Node42</title>
<path fill="none" stroke="#191970" d="M1201.0795,-519.5404C1256.7232,-507.0999 1325.4481,-491.0893 1386.5,-475 1393.5913,-473.1312 1400.9225,-471.1233 1408.2711,-469.057"/>
<polygon fill="#191970" stroke="#191970" points="1200.2017,-516.1501 1191.2027,-521.7419 1201.7247,-522.9824 1200.2017,-516.1501"/>
</g>
<!-- Node21&#45;&gt;Node22 -->
<g id="edge2" class="edge">
<title>Node21&#45;&gt;Node22</title>
<path fill="none" stroke="#191970" d="M746.395,-211.8861C745.0903,-211.5869 743.7916,-211.2914 742.5,-211 658.6602,-192.0858 635.721,-196.4739 552.5,-175 545.439,-173.178 538.1779,-171.1533 530.9034,-169.0153"/>
<polygon fill="#191970" stroke="#191970" points="745.9632,-215.3794 756.4973,-214.2472 747.5564,-208.5631 745.9632,-215.3794"/>
</g>
<!-- Node26 -->
<g id="node7" class="node">
<title>Node26</title>
<g id="a_node7"><a xlink:href="../../dd/d69/TestDataReader_8h.html" target="_top" xlink:title="/home/travis/build\l/AliceO2Group/AliceO2\l/Detectors/ITSMFT/ITS\l/QC/TestDataReaderWorkflow\l/include/ITSQCDataReaderWorkflow\l/TestDataReader.h">
<polygon fill="none" stroke="#000000" points="595,-100.5 595,-174.5 784,-174.5 784,-100.5 595,-100.5"/>
<text text-anchor="start" x="603" y="-162.5" font-family="Helvetica,sans-Serif" font-size="10.00" fill="#000000">/home/travis/build</text>
<text text-anchor="start" x="603" y="-151.5" font-family="Helvetica,sans-Serif" font-size="10.00" fill="#000000">/AliceO2Group/AliceO2</text>
<text text-anchor="start" x="603" y="-140.5" font-family="Helvetica,sans-Serif" font-size="10.00" fill="#000000">/Detectors/ITSMFT/ITS</text>
<text text-anchor="start" x="603" y="-129.5" font-family="Helvetica,sans-Serif" font-size="10.00" fill="#000000">/QC/TestDataReaderWorkflow</text>
<text text-anchor="start" x="603" y="-118.5" font-family="Helvetica,sans-Serif" font-size="10.00" fill="#000000">/include/ITSQCDataReaderWorkflow</text>
<text text-anchor="middle" x="689.5" y="-107.5" font-family="Helvetica,sans-Serif" font-size="10.00" fill="#000000">/TestDataReader.h</text>
</a>
</g>
</g>
<!-- Node21&#45;&gt;Node26 -->
<g id="edge6" class="edge">
<title>Node21&#45;&gt;Node26</title>
<path fill="none" stroke="#191970" d="M803.2679,-206.0858C786.2983,-195.8555 767.8757,-184.7494 750.8967,-174.5134"/>
<polygon fill="#191970" stroke="#191970" points="801.6231,-209.181 811.9942,-211.3465 805.2371,-203.1861 801.6231,-209.181"/>
</g>
<!-- Node27 -->
<g id="node8" class="node">
<title>Node27</title>
<g id="a_node8"><a xlink:href="../../d0/dd9/TestDataReader_8cxx.html" target="_top" xlink:title="/home/travis/build\l/AliceO2Group/AliceO2\l/Detectors/ITSMFT/ITS\l/QC/TestDataReaderWorkflow\l/src/TestDataReader.cxx">
<polygon fill="none" stroke="#000000" points="552.5,-.5 552.5,-63.5 710.5,-63.5 710.5,-.5 552.5,-.5"/>
<text text-anchor="start" x="560.5" y="-51.5" font-family="Helvetica,sans-Serif" font-size="10.00" fill="#000000">/home/travis/build</text>
<text text-anchor="start" x="560.5" y="-40.5" font-family="Helvetica,sans-Serif" font-size="10.00" fill="#000000">/AliceO2Group/AliceO2</text>
<text text-anchor="start" x="560.5" y="-29.5" font-family="Helvetica,sans-Serif" font-size="10.00" fill="#000000">/Detectors/ITSMFT/ITS</text>
<text text-anchor="start" x="560.5" y="-18.5" font-family="Helvetica,sans-Serif" font-size="10.00" fill="#000000">/QC/TestDataReaderWorkflow</text>
<text text-anchor="middle" x="631.5" y="-7.5" font-family="Helvetica,sans-Serif" font-size="10.00" fill="#000000">/src/TestDataReader.cxx</text>
</a>
</g>
</g>
<!-- Node21&#45;&gt;Node27 -->
<g id="edge9" class="edge">
<title>Node21&#45;&gt;Node27</title>
<path fill="none" stroke="#191970" d="M746.3784,-211.9564C745.079,-211.6349 743.7858,-211.316 742.5,-211 672.9796,-193.9165 630.1067,-230.9927 585.5,-175 559.5814,-142.4656 583.8164,-94.9613 605.7702,-63.7705"/>
<polygon fill="#191970" stroke="#191970" points="745.8957,-215.4431 756.4455,-214.4672 747.5898,-208.6512 745.8957,-215.4431"/>
</g>
<!-- Node29 -->
<g id="node10" class="node">
<title>Node29</title>
<g id="a_node10"><a xlink:href="../../d6/d67/ITSMFT_2ITS_2reconstruction_2include_2ITSReconstruction_2ClustererTask_8h.html" target="_top" xlink:title="/home/travis/build\l/AliceO2Group/AliceO2\l/Detectors/ITSMFT/ITS\l/reconstruction/include\l/ITSReconstruction/ClustererTask.h">
<polygon fill="none" stroke="#000000" points="802,-106 802,-169 987,-169 987,-106 802,-106"/>
<text text-anchor="start" x="810" y="-157" font-family="Helvetica,sans-Serif" font-size="10.00" fill="#000000">/home/travis/build</text>
<text text-anchor="start" x="810" y="-146" font-family="Helvetica,sans-Serif" font-size="10.00" fill="#000000">/AliceO2Group/AliceO2</text>
<text text-anchor="start" x="810" y="-135" font-family="Helvetica,sans-Serif" font-size="10.00" fill="#000000">/Detectors/ITSMFT/ITS</text>
<text text-anchor="start" x="810" y="-124" font-family="Helvetica,sans-Serif" font-size="10.00" fill="#000000">/reconstruction/include</text>
<text text-anchor="middle" x="894.5" y="-113" font-family="Helvetica,sans-Serif" font-size="10.00" fill="#000000">/ITSReconstruction/ClustererTask.h</text>
</a>
</g>
</g>
<!-- Node21&#45;&gt;Node29 -->
<g id="edge10" class="edge">
<title>Node21&#45;&gt;Node29</title>
<path fill="none" stroke="#191970" d="M876.2561,-201.6576C879.3319,-190.8411 882.5988,-179.3526 885.5054,-169.1311"/>
<polygon fill="#191970" stroke="#191970" points="872.8697,-200.7705 873.501,-211.3465 879.6028,-202.6852 872.8697,-200.7705"/>
</g>
<!-- Node31 -->
<g id="node12" class="node">
<title>Node31</title>
<g id="a_node12"><a xlink:href="../../db/d12/ITSMFT_2MFT_2reconstruction_2include_2MFTReconstruction_2ClustererTask_8h.html" target="_top" xlink:title="/home/travis/build\l/AliceO2Group/AliceO2\l/Detectors/ITSMFT/MFT\l/reconstruction/include\l/MFTReconstruction/ClustererTask.h">
<polygon fill="none" stroke="#000000" points="1005,-106 1005,-169 1194,-169 1194,-106 1005,-106"/>
<text text-anchor="start" x="1013" y="-157" font-family="Helvetica,sans-Serif" font-size="10.00" fill="#000000">/home/travis/build</text>
<text text-anchor="start" x="1013" y="-146" font-family="Helvetica,sans-Serif" font-size="10.00" fill="#000000">/AliceO2Group/AliceO2</text>
<text text-anchor="start" x="1013" y="-135" font-family="Helvetica,sans-Serif" font-size="10.00" fill="#000000">/Detectors/ITSMFT/MFT</text>
<text text-anchor="start" x="1013" y="-124" font-family="Helvetica,sans-Serif" font-size="10.00" fill="#000000">/reconstruction/include</text>
<text text-anchor="middle" x="1099.5" y="-113" font-family="Helvetica,sans-Serif" font-size="10.00" fill="#000000">/MFTReconstruction/ClustererTask.h</text>
</a>
</g>
</g>
<!-- Node21&#45;&gt;Node31 -->
<g id="edge12" class="edge">
<title>Node21&#45;&gt;Node31</title>
<path fill="none" stroke="#191970" d="M943.9379,-207.3375C971.5959,-194.9208 1002.4081,-181.088 1029.2664,-169.0304"/>
<polygon fill="#191970" stroke="#191970" points="942.3788,-204.2008 934.6894,-211.4894 945.2458,-210.5868 942.3788,-204.2008"/>
</g>
<!-- Node23 -->
<g id="node4" class="node">
<title>Node23</title>
<g id="a_node4"><a xlink:href="../../d8/d6b/MC2RawEncoder_8cxx.html" target="_top" xlink:title="/home/travis/build\l/AliceO2Group/AliceO2\l/Detectors/ITSMFT/common\l/simulation/src/MC2RawEncoder.cxx">
<polygon fill="none" stroke="#000000" points="342.5,-6 342.5,-58 534.5,-58 534.5,-6 342.5,-6"/>
<text text-anchor="start" x="350.5" y="-46" font-family="Helvetica,sans-Serif" font-size="10.00" fill="#000000">/home/travis/build</text>
<text text-anchor="start" x="350.5" y="-35" font-family="Helvetica,sans-Serif" font-size="10.00" fill="#000000">/AliceO2Group/AliceO2</text>
<text text-anchor="start" x="350.5" y="-24" font-family="Helvetica,sans-Serif" font-size="10.00" fill="#000000">/Detectors/ITSMFT/common</text>
<text text-anchor="middle" x="438.5" y="-13" font-family="Helvetica,sans-Serif" font-size="10.00" fill="#000000">/simulation/src/MC2RawEncoder.cxx</text>
</a>
</g>
</g>
<!-- Node22&#45;&gt;Node23 -->
<g id="edge3" class="edge">
<title>Node22&#45;&gt;Node23</title>
<path fill="none" stroke="#191970" d="M438.5,-95.5549C438.5,-82.9844 438.5,-69.5587 438.5,-58.3011"/>
<polygon fill="#191970" stroke="#191970" points="435.0001,-95.8465 438.5,-105.8465 442.0001,-95.8466 435.0001,-95.8465"/>
</g>
<!-- Node24 -->
<g id="node5" class="node">
<title>Node24</title>
<g id="a_node5"><a xlink:href="../../db/d7a/ITSMFT_2ITS_2simulation_2src_2digi2raw_8cxx.html" target="_top" xlink:title="/home/travis/build\l/AliceO2Group/AliceO2\l/Detectors/ITSMFT/ITS\l/simulation/src/digi2raw.cxx">
<polygon fill="none" stroke="#000000" points="0,-6 0,-58 153,-58 153,-6 0,-6"/>
<text text-anchor="start" x="8" y="-46" font-family="Helvetica,sans-Serif" font-size="10.00" fill="#000000">/home/travis/build</text>
<text text-anchor="start" x="8" y="-35" font-family="Helvetica,sans-Serif" font-size="10.00" fill="#000000">/AliceO2Group/AliceO2</text>
<text text-anchor="start" x="8" y="-24" font-family="Helvetica,sans-Serif" font-size="10.00" fill="#000000">/Detectors/ITSMFT/ITS</text>
<text text-anchor="middle" x="76.5" y="-13" font-family="Helvetica,sans-Serif" font-size="10.00" fill="#000000">/simulation/src/digi2raw.cxx</text>
</a>
</g>
</g>
<!-- Node22&#45;&gt;Node24 -->
<g id="edge4" class="edge">
<title>Node22&#45;&gt;Node24</title>
<path fill="none" stroke="#191970" d="M328.6787,-111.0697C277.5165,-98.0663 216.0346,-81.4517 161.5,-64 155.7932,-62.1738 149.9078,-60.1846 144.0225,-58.1212"/>
<polygon fill="#191970" stroke="#191970" points="327.8846,-114.479 338.4375,-113.5381 329.6012,-107.6927 327.8846,-114.479"/>
</g>
<!-- Node25 -->
<g id="node6" class="node">
<title>Node25</title>
<g id="a_node6"><a xlink:href="../../d2/da1/ITSMFT_2MFT_2simulation_2src_2digi2raw_8cxx.html" target="_top" xlink:title="/home/travis/build\l/AliceO2Group/AliceO2\l/Detectors/ITSMFT/MFT\l/simulation/src/digi2raw.cxx">
<polygon fill="none" stroke="#000000" points="171,-6 171,-58 324,-58 324,-6 171,-6"/>
<text text-anchor="start" x="179" y="-46" font-family="Helvetica,sans-Serif" font-size="10.00" fill="#000000">/home/travis/build</text>
<text text-anchor="start" x="179" y="-35" font-family="Helvetica,sans-Serif" font-size="10.00" fill="#000000">/AliceO2Group/AliceO2</text>
<text text-anchor="start" x="179" y="-24" font-family="Helvetica,sans-Serif" font-size="10.00" fill="#000000">/Detectors/ITSMFT/MFT</text>
<text text-anchor="middle" x="247.5" y="-13" font-family="Helvetica,sans-Serif" font-size="10.00" fill="#000000">/simulation/src/digi2raw.cxx</text>
</a>
</g>
</g>
<!-- Node22&#45;&gt;Node25 -->
<g id="edge5" class="edge">
<title>Node22&#45;&gt;Node25</title>
<path fill="none" stroke="#191970" d="M372.5286,-101.0603C346.8891,-86.8981 318.1,-70.9963 294.6158,-58.0247"/>
<polygon fill="#191970" stroke="#191970" points="371.0067,-104.2181 381.4524,-105.9894 374.3912,-98.0907 371.0067,-104.2181"/>
</g>
<!-- Node26&#45;&gt;Node27 -->
<g id="edge7" class="edge">
<title>Node26&#45;&gt;Node27</title>
<path fill="none" stroke="#191970" d="M664.1727,-91.4306C659.0111,-82.0417 653.6917,-72.3659 648.8829,-63.6189"/>
<polygon fill="#191970" stroke="#191970" points="661.1667,-93.2278 669.0514,-100.3046 667.3008,-89.8554 661.1667,-93.2278"/>
</g>
<!-- Node28 -->
<g id="node9" class="node">
<title>Node28</title>
<g id="a_node9"><a xlink:href="../../d1/dc6/TestDataReaderWorkflow_8cxx.html" target="_top" xlink:title="/home/travis/build\l/AliceO2Group/AliceO2\l/Detectors/ITSMFT/ITS\l/QC/TestDataReaderWorkflow\l/src/TestDataReaderWorkflow.cxx">
<polygon fill="none" stroke="#000000" points="728.5,-.5 728.5,-63.5 906.5,-63.5 906.5,-.5 728.5,-.5"/>
<text text-anchor="start" x="736.5" y="-51.5" font-family="Helvetica,sans-Serif" font-size="10.00" fill="#000000">/home/travis/build</text>
<text text-anchor="start" x="736.5" y="-40.5" font-family="Helvetica,sans-Serif" font-size="10.00" fill="#000000">/AliceO2Group/AliceO2</text>
<text text-anchor="start" x="736.5" y="-29.5" font-family="Helvetica,sans-Serif" font-size="10.00" fill="#000000">/Detectors/ITSMFT/ITS</text>
<text text-anchor="start" x="736.5" y="-18.5" font-family="Helvetica,sans-Serif" font-size="10.00" fill="#000000">/QC/TestDataReaderWorkflow</text>
<text text-anchor="middle" x="817.5" y="-7.5" font-family="Helvetica,sans-Serif" font-size="10.00" fill="#000000">/src/TestDataReaderWorkflow.cxx</text>
</a>
</g>
</g>
<!-- Node26&#45;&gt;Node28 -->
<g id="edge8" class="edge">
<title>Node26&#45;&gt;Node28</title>
<path fill="none" stroke="#191970" d="M742.5841,-93.7471C754.8418,-83.6441 767.65,-73.0873 779.1378,-63.6189"/>
<polygon fill="#191970" stroke="#191970" points="740.1186,-91.2435 734.628,-100.3046 744.5708,-96.6452 740.1186,-91.2435"/>
</g>
<!-- Node30 -->
<g id="node11" class="node">
<title>Node30</title>
<g id="a_node11"><a xlink:href="../../d8/d95/ITSMFT_2ITS_2reconstruction_2src_2ClustererTask_8cxx.html" target="_top" xlink:title="/home/travis/build\l/AliceO2Group/AliceO2\l/Detectors/ITSMFT/ITS\l/reconstruction/src/ClustererTask.cxx">
<polygon fill="none" stroke="#000000" points="924.5,-6 924.5,-58 1120.5,-58 1120.5,-6 924.5,-6"/>
<text text-anchor="start" x="932.5" y="-46" font-family="Helvetica,sans-Serif" font-size="10.00" fill="#000000">/home/travis/build</text>
<text text-anchor="start" x="932.5" y="-35" font-family="Helvetica,sans-Serif" font-size="10.00" fill="#000000">/AliceO2Group/AliceO2</text>
<text text-anchor="start" x="932.5" y="-24" font-family="Helvetica,sans-Serif" font-size="10.00" fill="#000000">/Detectors/ITSMFT/ITS</text>
<text text-anchor="middle" x="1022.5" y="-13" font-family="Helvetica,sans-Serif" font-size="10.00" fill="#000000">/reconstruction/src/ClustererTask.cxx</text>
</a>
</g>
</g>
<!-- Node29&#45;&gt;Node30 -->
<g id="edge11" class="edge">
<title>Node29&#45;&gt;Node30</title>
<path fill="none" stroke="#191970" d="M940.8501,-99.2973C957.358,-85.6913 975.5653,-70.6845 990.5896,-58.3011"/>
<polygon fill="#191970" stroke="#191970" points="938.3948,-96.7854 932.9042,-105.8465 942.847,-102.1871 938.3948,-96.7854"/>
</g>
<!-- Node32 -->
<g id="node13" class="node">
<title>Node32</title>
<g id="a_node13"><a xlink:href="../../d9/d5e/ITSMFT_2MFT_2reconstruction_2src_2ClustererTask_8cxx.html" target="_top" xlink:title="/home/travis/build\l/AliceO2Group/AliceO2\l/Detectors/ITSMFT/MFT\l/reconstruction/src/ClustererTask.cxx">
<polygon fill="none" stroke="#000000" points="1138.5,-6 1138.5,-58 1334.5,-58 1334.5,-6 1138.5,-6"/>
<text text-anchor="start" x="1146.5" y="-46" font-family="Helvetica,sans-Serif" font-size="10.00" fill="#000000">/home/travis/build</text>
<text text-anchor="start" x="1146.5" y="-35" font-family="Helvetica,sans-Serif" font-size="10.00" fill="#000000">/AliceO2Group/AliceO2</text>
<text text-anchor="start" x="1146.5" y="-24" font-family="Helvetica,sans-Serif" font-size="10.00" fill="#000000">/Detectors/ITSMFT/MFT</text>
<text text-anchor="middle" x="1236.5" y="-13" font-family="Helvetica,sans-Serif" font-size="10.00" fill="#000000">/reconstruction/src/ClustererTask.cxx</text>
</a>
</g>
</g>
<!-- Node31&#45;&gt;Node32 -->
<g id="edge13" class="edge">
<title>Node31&#45;&gt;Node32</title>
<path fill="none" stroke="#191970" d="M1148.6277,-99.6681C1166.4231,-85.9643 1186.119,-70.797 1202.3459,-58.3011"/>
<polygon fill="#191970" stroke="#191970" points="1146.3921,-96.9721 1140.6045,-105.8465 1150.663,-102.5182 1146.3921,-96.9721"/>
</g>
<!-- Node33&#45;&gt;Node21 -->
<g id="edge28" class="edge">
<title>Node33&#45;&gt;Node21</title>
<path fill="none" stroke="#191970" d="M1048.592,-404.4842C1005.5025,-366.6864 940.5797,-309.7366 900.4583,-274.5423"/>
<polygon fill="#191970" stroke="#191970" points="1046.5471,-407.3462 1056.3727,-411.3094 1051.1632,-402.0838 1046.5471,-407.3462"/>
</g>
<!-- Node33&#45;&gt;Node22 -->
<g id="edge30" class="edge">
<title>Node33&#45;&gt;Node22</title>
<path fill="none" stroke="#191970" d="M1011.8072,-407.283C988.731,-396.9652 963.5819,-385.6217 940.5,-375 783.2836,-302.6529 599.7343,-214.9963 504.0741,-169.0683"/>
<polygon fill="#191970" stroke="#191970" points="1010.6584,-410.6031 1021.2165,-411.4847 1013.5126,-404.2114 1010.6584,-410.6031"/>
</g>
<!-- Node34 -->
<g id="node15" class="node">
<title>Node34</title>
<g id="a_node15"><a xlink:href="../../d0/dd1/GBTLink_8h.html" target="_top" xlink:title="Declarations of helper classes for the ITS/MFT raw data decoding. ">
<polygon fill="none" stroke="#000000" points="1127,-311.5 1127,-374.5 1306,-374.5 1306,-311.5 1127,-311.5"/>
<text text-anchor="start" x="1135" y="-362.5" font-family="Helvetica,sans-Serif" font-size="10.00" fill="#000000">/home/travis/build</text>
<text text-anchor="start" x="1135" y="-351.5" font-family="Helvetica,sans-Serif" font-size="10.00" fill="#000000">/AliceO2Group/AliceO2</text>
<text text-anchor="start" x="1135" y="-340.5" font-family="Helvetica,sans-Serif" font-size="10.00" fill="#000000">/Detectors/ITSMFT/common</text>
<text text-anchor="start" x="1135" y="-329.5" font-family="Helvetica,sans-Serif" font-size="10.00" fill="#000000">/reconstruction/include</text>
<text text-anchor="middle" x="1216.5" y="-318.5" font-family="Helvetica,sans-Serif" font-size="10.00" fill="#000000">/ITSMFTReconstruction/GBTLink.h</text>
</a>
</g>
</g>
<!-- Node33&#45;&gt;Node34 -->
<g id="edge15" class="edge">
<title>Node33&#45;&gt;Node34</title>
<path fill="none" stroke="#191970" d="M1139.701,-404.9347C1152.0399,-394.9839 1165.2093,-384.3634 1177.0952,-374.778"/>
<polygon fill="#191970" stroke="#191970" points="1137.3214,-402.3574 1131.7344,-411.3594 1141.7157,-407.8063 1137.3214,-402.3574"/>
</g>
<!-- Node35 -->
<g id="node16" class="node">
<title>Node35</title>
<g id="a_node16"><a xlink:href="../../d7/d6e/RawPixelDecoder_8h.html" target="_top" xlink:title="Definition of the Alpide pixel reader for raw data processing. ">
<polygon fill="none" stroke="#000000" points="1289,-211.5 1289,-274.5 1512,-274.5 1512,-211.5 1289,-211.5"/>
<text text-anchor="start" x="1297" y="-262.5" font-family="Helvetica,sans-Serif" font-size="10.00" fill="#000000">/home/travis/build</text>
<text text-anchor="start" x="1297" y="-251.5" font-family="Helvetica,sans-Serif" font-size="10.00" fill="#000000">/AliceO2Group/AliceO2</text>
<text text-anchor="start" x="1297" y="-240.5" font-family="Helvetica,sans-Serif" font-size="10.00" fill="#000000">/Detectors/ITSMFT/common</text>
<text text-anchor="start" x="1297" y="-229.5" font-family="Helvetica,sans-Serif" font-size="10.00" fill="#000000">/reconstruction/include</text>
<text text-anchor="middle" x="1400.5" y="-218.5" font-family="Helvetica,sans-Serif" font-size="10.00" fill="#000000">/ITSMFTReconstruction/RawPixelDecoder.h</text>
</a>
</g>
</g>
<!-- Node33&#45;&gt;Node35 -->
<g id="edge27" class="edge">
<title>Node33&#45;&gt;Node35</title>
<path fill="none" stroke="#191970" d="M1208.438,-424.0255C1245.2683,-413.9039 1284.4539,-398.4711 1315.5,-375 1320.2019,-371.4454 1357.3667,-312.4132 1380.9715,-274.5083"/>
<polygon fill="#191970" stroke="#191970" points="1207.4045,-420.6784 1198.6283,-426.6137 1209.1903,-427.4468 1207.4045,-420.6784"/>
</g>
<!-- Node41 -->
<g id="node22" class="node">
<title>Node41</title>
<g id="a_node22"><a xlink:href="../../df/db1/RUDecodeData_8cxx.html" target="_top" xlink:title="Definition of the Readout Unite decoder class. ">
<polygon fill="none" stroke="#000000" points="990.5,-217 990.5,-269 1194.5,-269 1194.5,-217 990.5,-217"/>
<text text-anchor="start" x="998.5" y="-257" font-family="Helvetica,sans-Serif" font-size="10.00" fill="#000000">/home/travis/build</text>
<text text-anchor="start" x="998.5" y="-246" font-family="Helvetica,sans-Serif" font-size="10.00" fill="#000000">/AliceO2Group/AliceO2</text>
<text text-anchor="start" x="998.5" y="-235" font-family="Helvetica,sans-Serif" font-size="10.00" fill="#000000">/Detectors/ITSMFT/common</text>
<text text-anchor="middle" x="1092.5" y="-224" font-family="Helvetica,sans-Serif" font-size="10.00" fill="#000000">/reconstruction/src/RUDecodeData.cxx</text>
</a>
</g>
</g>
<!-- Node33&#45;&gt;Node41 -->
<g id="edge29" class="edge">
<title>Node33&#45;&gt;Node41</title>
<path fill="none" stroke="#191970" d="M1092.5,-401.1189C1092.5,-361.3079 1092.5,-302.6745 1092.5,-269.1249"/>
<polygon fill="#191970" stroke="#191970" points="1089.0001,-401.3094 1092.5,-411.3094 1096.0001,-401.3094 1089.0001,-401.3094"/>
</g>
<!-- Node34&#45;&gt;Node21 -->
<g id="edge22" class="edge">
<title>Node34&#45;&gt;Node21</title>
<path fill="none" stroke="#191970" d="M1116.9899,-314.7301C1071.9472,-301.9339 1018.6061,-286.7801 972.5834,-273.7055"/>
<polygon fill="#191970" stroke="#191970" points="1116.1889,-318.141 1126.7648,-317.507 1118.1019,-311.4074 1116.1889,-318.141"/>
</g>
<!-- Node34&#45;&gt;Node23 -->
<g id="edge25" class="edge">
<title>Node34&#45;&gt;Node23</title>
<path fill="none" stroke="#191970" d="M1220.6428,-301.0983C1225.7547,-239.09 1230.7374,-127.2658 1203.5,-100 1151.5955,-48.0413 615.8186,-76.7982 543.5,-64 534.6803,-62.4392 525.5599,-60.3729 516.5464,-58.0393"/>
<polygon fill="#191970" stroke="#191970" points="1217.1323,-301.0703 1219.7605,-311.3339 1224.1065,-301.6715 1217.1323,-301.0703"/>
</g>
<!-- Node34&#45;&gt;Node35 -->
<g id="edge16" class="edge">
<title>Node34&#45;&gt;Node35</title>
<path fill="none" stroke="#191970" d="M1283.2541,-306.7206C1302.6596,-296.1741 1323.6892,-284.745 1342.5092,-274.5168"/>
<polygon fill="#191970" stroke="#191970" points="1281.5811,-303.6463 1274.4662,-311.4966 1284.9238,-309.7966 1281.5811,-303.6463"/>
</g>
<!-- Node39 -->
<g id="node20" class="node">
<title>Node39</title>
<g id="a_node20"><a xlink:href="../../d6/d14/STFDecoderSpec_8cxx.html" target="_top" xlink:title="Device to decode ITS or MFT raw data from STF. ">
<polygon fill="none" stroke="#000000" points="1408,-6 1408,-58 1593,-58 1593,-6 1408,-6"/>
<text text-anchor="start" x="1416" y="-46" font-family="Helvetica,sans-Serif" font-size="10.00" fill="#000000">/home/travis/build</text>
<text text-anchor="start" x="1416" y="-35" font-family="Helvetica,sans-Serif" font-size="10.00" fill="#000000">/AliceO2Group/AliceO2</text>
<text text-anchor="start" x="1416" y="-24" font-family="Helvetica,sans-Serif" font-size="10.00" fill="#000000">/Detectors/ITSMFT/common</text>
<text text-anchor="middle" x="1500.5" y="-13" font-family="Helvetica,sans-Serif" font-size="10.00" fill="#000000">/workflow/src/STFDecoderSpec.cxx</text>
</a>
</g>
</g>
<!-- Node34&#45;&gt;Node39 -->
<g id="edge26" class="edge">
<title>Node34&#45;&gt;Node39</title>
<path fill="none" stroke="#191970" d="M1228.9624,-301.5964C1231.5202,-292.8329 1234.1481,-283.6259 1236.5,-275 1257.5966,-197.626 1225.3268,-158.2041 1280.5,-100 1298.583,-80.9236 1356.1375,-63.5028 1407.8413,-51.0702"/>
<polygon fill="#191970" stroke="#191970" points="1225.5878,-300.6662 1226.1228,-311.2475 1232.3032,-302.642 1225.5878,-300.6662"/>
</g>
<!-- Node34&#45;&gt;Node40 -->
<g id="edge23" class="edge">
<title>Node34&#45;&gt;Node40</title>
<path fill="none" stroke="#191970" d="M1316.061,-320.507C1330.3023,-317.3061 1344.7726,-314.0626 1358.5,-311 1430.91,-294.845 1450.0522,-294.9851 1521.5,-275 1528.0578,-273.1657 1534.8297,-271.1356 1541.5937,-269.0138"/>
<polygon fill="#191970" stroke="#191970" points="1315.2385,-317.1045 1306.2502,-322.7135 1316.7745,-323.9339 1315.2385,-317.1045"/>
</g>
<!-- Node34&#45;&gt;Node41 -->
<g id="edge24" class="edge">
<title>Node34&#45;&gt;Node41</title>
<path fill="none" stroke="#191970" d="M1169.1814,-304.8399C1154.3685,-292.8939 1138.3692,-279.9913 1124.8367,-269.078"/>
<polygon fill="#191970" stroke="#191970" points="1167.2843,-307.8063 1177.2656,-311.3594 1171.6786,-302.3574 1167.2843,-307.8063"/>
</g>
<!-- Node36 -->
<g id="node17" class="node">
<title>Node36</title>
<g id="a_node17"><a xlink:href="../../dd/df6/RawPixelDecoder_8cxx.html" target="_top" xlink:title="Alpide pixel reader for raw data processing. ">
<polygon fill="none" stroke="#000000" points="1289,-111.5 1289,-163.5 1504,-163.5 1504,-111.5 1289,-111.5"/>
<text text-anchor="start" x="1297" y="-151.5" font-family="Helvetica,sans-Serif" font-size="10.00" fill="#000000">/home/travis/build</text>
<text text-anchor="start" x="1297" y="-140.5" font-family="Helvetica,sans-Serif" font-size="10.00" fill="#000000">/AliceO2Group/AliceO2</text>
<text text-anchor="start" x="1297" y="-129.5" font-family="Helvetica,sans-Serif" font-size="10.00" fill="#000000">/Detectors/ITSMFT/common</text>
<text text-anchor="middle" x="1396.5" y="-118.5" font-family="Helvetica,sans-Serif" font-size="10.00" fill="#000000">/reconstruction/src/RawPixelDecoder.cxx</text>
</a>
</g>
</g>
<!-- Node35&#45;&gt;Node36 -->
<g id="edge17" class="edge">
<title>Node35&#45;&gt;Node36</title>
<path fill="none" stroke="#191970" d="M1398.9097,-201.0549C1398.4331,-188.4844 1397.924,-175.0587 1397.4972,-163.8011"/>
<polygon fill="#191970" stroke="#191970" points="1395.4234,-201.4863 1399.2999,-211.3465 1402.4184,-201.2211 1395.4234,-201.4863"/>
</g>
<!-- Node37 -->
<g id="node18" class="node">
<title>Node37</title>
<g id="a_node18"><a xlink:href="../../d0/d26/STFDecoderSpec_8h.html" target="_top" xlink:title="Device to decode ITS/MFT raw data from STF. ">
<polygon fill="none" stroke="#000000" points="1560,-106 1560,-169 1745,-169 1745,-106 1560,-106"/>
<text text-anchor="start" x="1568" y="-157" font-family="Helvetica,sans-Serif" font-size="10.00" fill="#000000">/home/travis/build</text>
<text text-anchor="start" x="1568" y="-146" font-family="Helvetica,sans-Serif" font-size="10.00" fill="#000000">/AliceO2Group/AliceO2</text>
<text text-anchor="start" x="1568" y="-135" font-family="Helvetica,sans-Serif" font-size="10.00" fill="#000000">/Detectors/ITSMFT/common</text>
<text text-anchor="start" x="1568" y="-124" font-family="Helvetica,sans-Serif" font-size="10.00" fill="#000000">/workflow/include/ITSMFTWorkflow</text>
<text text-anchor="middle" x="1652.5" y="-113" font-family="Helvetica,sans-Serif" font-size="10.00" fill="#000000">/STFDecoderSpec.h</text>
</a>
</g>
</g>
<!-- Node35&#45;&gt;Node37 -->
<g id="edge18" class="edge">
<title>Node35&#45;&gt;Node37</title>
<path fill="none" stroke="#191970" d="M1485.2978,-207.4993C1515.0558,-195.0411 1548.2593,-181.1405 1577.1857,-169.0304"/>
<polygon fill="#191970" stroke="#191970" points="1483.6396,-204.3991 1475.767,-211.4894 1486.3429,-210.8561 1483.6396,-204.3991"/>
</g>
<!-- Node35&#45;&gt;Node39 -->
<g id="edge21" class="edge">
<title>Node35&#45;&gt;Node39</title>
<path fill="none" stroke="#191970" d="M1485.9267,-205.4641C1496.9568,-197.0305 1506.7449,-186.9489 1513.5,-175 1534.1107,-138.5423 1522.0712,-88.3504 1511.3586,-58.1514"/>
<polygon fill="#191970" stroke="#191970" points="1483.8199,-202.6676 1477.7011,-211.317 1487.8782,-208.3711 1483.8199,-202.6676"/>
</g>
<!-- Node38 -->
<g id="node19" class="node">
<title>Node38</title>
<g id="a_node19"><a xlink:href="../../dd/d1f/stf-decoder-workflow_8cxx.html" target="_top" xlink:title="/home/travis/build\l/AliceO2Group/AliceO2\l/Detectors/ITSMFT/common\l/workflow/src/stf&#45;decoder\l&#45;workflow.cxx">
<polygon fill="none" stroke="#000000" points="1610.5,-.5 1610.5,-63.5 1760.5,-63.5 1760.5,-.5 1610.5,-.5"/>
<text text-anchor="start" x="1618.5" y="-51.5" font-family="Helvetica,sans-Serif" font-size="10.00" fill="#000000">/home/travis/build</text>
<text text-anchor="start" x="1618.5" y="-40.5" font-family="Helvetica,sans-Serif" font-size="10.00" fill="#000000">/AliceO2Group/AliceO2</text>
<text text-anchor="start" x="1618.5" y="-29.5" font-family="Helvetica,sans-Serif" font-size="10.00" fill="#000000">/Detectors/ITSMFT/common</text>
<text text-anchor="start" x="1618.5" y="-18.5" font-family="Helvetica,sans-Serif" font-size="10.00" fill="#000000">/workflow/src/stf&#45;decoder</text>
<text text-anchor="middle" x="1685.5" y="-7.5" font-family="Helvetica,sans-Serif" font-size="10.00" fill="#000000">&#45;workflow.cxx</text>
</a>
</g>
</g>
<!-- Node37&#45;&gt;Node38 -->
<g id="edge19" class="edge">
<title>Node37&#45;&gt;Node38</title>
<path fill="none" stroke="#191970" d="M1665.4317,-96.1576C1668.8151,-85.3411 1672.4087,-73.8526 1675.6059,-63.6311"/>
<polygon fill="#191970" stroke="#191970" points="1662.0461,-95.2576 1662.4011,-105.8465 1668.7269,-97.3474 1662.0461,-95.2576"/>
</g>
<!-- Node37&#45;&gt;Node39 -->
<g id="edge20" class="edge">
<title>Node37&#45;&gt;Node39</title>
<path fill="none" stroke="#191970" d="M1598.5264,-100.0381C1578.6436,-86.2378 1556.5594,-70.9096 1538.3936,-58.3011"/>
<polygon fill="#191970" stroke="#191970" points="1596.6842,-103.0198 1606.895,-105.8465 1600.6756,-97.2693 1596.6842,-103.0198"/>
</g>
</g>
</svg>
