<?xml version="1.0" encoding="UTF-8" standalone="no"?>
<!DOCTYPE svg PUBLIC "-//W3C//DTD SVG 1.1//EN"
 "http://www.w3.org/Graphics/SVG/1.1/DTD/svg11.dtd">
<!-- Generated by graphviz version 2.40.1 (20161225.0304)
 -->
<!-- Title: o2::trd::LocalGainFactor Pages: 1 -->
<svg width="394pt" height="591pt"
 viewBox="0.00 0.00 393.50 591.00" xmlns="http://www.w3.org/2000/svg" xmlns:xlink="http://www.w3.org/1999/xlink">
<g id="graph0" class="graph" transform="scale(1 1) rotate(0) translate(4 587)">
<title>o2::trd::LocalGainFactor</title>
<!-- Node3 -->
<g id="node1" class="node">
<title>Node3</title>
<polygon fill="#bfbfbf" stroke="#000000" points="90,-.5 90,-57.5 221,-57.5 221,-.5 90,-.5"/>
<text text-anchor="middle" x="155.5" y="-45.5" font-family="Helvetica,sans-Serif" font-size="10.00" fill="#000000">o2::trd::LocalGainFactor</text>
<polyline fill="none" stroke="#000000" points="90,-38.5 221,-38.5 "/>
<text text-anchor="middle" x="155.5" y="-26.5" font-family="Helvetica,sans-Serif" font-size="10.00" fill="#000000"> </text>
<polyline fill="none" stroke="#000000" points="90,-19.5 221,-19.5 "/>
<text text-anchor="start" x="98" y="-7.5" font-family="Helvetica,sans-Serif" font-size="10.00" fill="#000000">+ ~LocalGainFactor()</text>
</g>
<!-- Node4 -->
<g id="node2" class="node">
<title>Node4</title>
<g id="a_node2"><a xlink:href="../../da/dcc/classo2_1_1trd_1_1PadCalibrations.html" target="_top" xlink:title="{o2::trd::PadCalibrations\l\&lt; float \&gt;\n||+ PadCalibrations()\l+ ~PadCalibrations()\l+ getNChannels()\l+ getChamberPads()\l+ getValue()\l+ getPadValue()\l+ setPadValue()\l+ setPadValue()\l+ reset()\l+ init()\l}">
<polygon fill="none" stroke="#000000" points="90.5,-95.5 90.5,-262.5 220.5,-262.5 220.5,-95.5 90.5,-95.5"/>
<text text-anchor="start" x="98.5" y="-250.5" font-family="Helvetica,sans-Serif" font-size="10.00" fill="#000000">o2::trd::PadCalibrations</text>
<text text-anchor="middle" x="155.5" y="-239.5" font-family="Helvetica,sans-Serif" font-size="10.00" fill="#000000">&lt; float &gt;</text>
<polyline fill="none" stroke="#000000" points="90.5,-232.5 220.5,-232.5 "/>
<text text-anchor="middle" x="155.5" y="-220.5" font-family="Helvetica,sans-Serif" font-size="10.00" fill="#000000"> </text>
<polyline fill="none" stroke="#000000" points="90.5,-213.5 220.5,-213.5 "/>
<text text-anchor="start" x="98.5" y="-201.5" font-family="Helvetica,sans-Serif" font-size="10.00" fill="#000000">+ PadCalibrations()</text>
<text text-anchor="start" x="98.5" y="-190.5" font-family="Helvetica,sans-Serif" font-size="10.00" fill="#000000">+ ~PadCalibrations()</text>
<text text-anchor="start" x="98.5" y="-179.5" font-family="Helvetica,sans-Serif" font-size="10.00" fill="#000000">+ getNChannels()</text>
<text text-anchor="start" x="98.5" y="-168.5" font-family="Helvetica,sans-Serif" font-size="10.00" fill="#000000">+ getChamberPads()</text>
<text text-anchor="start" x="98.5" y="-157.5" font-family="Helvetica,sans-Serif" font-size="10.00" fill="#000000">+ getValue()</text>
<text text-anchor="start" x="98.5" y="-146.5" font-family="Helvetica,sans-Serif" font-size="10.00" fill="#000000">+ getPadValue()</text>
<text text-anchor="start" x="98.5" y="-135.5" font-family="Helvetica,sans-Serif" font-size="10.00" fill="#000000">+ setPadValue()</text>
<text text-anchor="start" x="98.5" y="-124.5" font-family="Helvetica,sans-Serif" font-size="10.00" fill="#000000">+ setPadValue()</text>
<text text-anchor="start" x="98.5" y="-113.5" font-family="Helvetica,sans-Serif" font-size="10.00" fill="#000000">+ reset()</text>
<text text-anchor="start" x="98.5" y="-102.5" font-family="Helvetica,sans-Serif" font-size="10.00" fill="#000000">+ init()</text>
</a>
</g>
</g>
<!-- Node4&#45;&gt;Node3 -->
<g id="edge1" class="edge">
<title>Node4&#45;&gt;Node3</title>
<path fill="none" stroke="#191970" d="M155.5,-85.1628C155.5,-75.2258 155.5,-65.7606 155.5,-57.5282"/>
<polygon fill="none" stroke="#191970" points="152.0001,-85.2288 155.5,-95.2288 159.0001,-85.2289 152.0001,-85.2288"/>
</g>
<!-- Node5 -->
<g id="node3" class="node">
<title>Node5</title>
<g id="a_node3"><a xlink:href="../../d3/d0f/classstd_1_1array_3_01o2_1_1trd_1_1PadParameters_3_01float_01_4_00_01TRDSimParam_1_1kNdet_01_4.html" target="_top" xlink:title="{array\&lt; o2::trd::PadParameters\l\&lt; float \&gt;, TRDSimParam::kNdet \&gt;\n||}">
<polygon fill="none" stroke="#000000" points="0,-354.5 0,-422.5 183,-422.5 183,-354.5 0,-354.5"/>
<text text-anchor="start" x="8" y="-410.5" font-family="Helvetica,sans-Serif" font-size="10.00" fill="#000000">array&lt; o2::trd::PadParameters</text>
<text text-anchor="middle" x="91.5" y="-399.5" font-family="Helvetica,sans-Serif" font-size="10.00" fill="#000000">&lt; float &gt;, TRDSimParam::kNdet &gt;</text>
<polyline fill="none" stroke="#000000" points="0,-392.5 183,-392.5 "/>
<text text-anchor="middle" x="91.5" y="-380.5" font-family="Helvetica,sans-Serif" font-size="10.00" fill="#000000"> </text>
<polyline fill="none" stroke="#000000" points="0,-373.5 183,-373.5 "/>
<text text-anchor="middle" x="91.5" y="-361.5" font-family="Helvetica,sans-Serif" font-size="10.00" fill="#000000"> </text>
</a>
</g>
</g>
<!-- Node5&#45;&gt;Node4 -->
<g id="edge2" class="edge">
<title>Node5&#45;&gt;Node4</title>
<path fill="none" stroke="#404040" d="M101.132,-354.0431C107.1145,-332.9116 115.0576,-305.3323 122.5,-281 123.1839,-278.7641 123.8801,-276.502 124.5858,-274.2217"/>
<polygon fill="none" stroke="#404040" points="124.605,-274.1602 122.5743,-267.2409 128.1802,-262.7051 130.211,-269.6244 124.605,-274.1602"/>
<text text-anchor="middle" x="175" y="-284" font-family="Helvetica,sans-Serif" font-size="10.00" fill="#000000"> #mreadOutChamber</text>
</g>
<!-- Node6 -->
<g id="node4" class="node">
<title>Node6</title>
<g id="a_node4"><a xlink:href="../../da/dcc/classo2_1_1trd_1_1PadCalibrations.html" target="_top" xlink:title="{o2::trd::PadCalibrations\&lt; T \&gt;\n||+ PadCalibrations()\l+ ~PadCalibrations()\l+ getNChannels()\l+ getChamberPads()\l+ getValue()\l+ getPadValue()\l+ setPadValue()\l+ setPadValue()\l+ reset()\l+ init()\l}">
<polygon fill="none" stroke="#000000" points="201.5,-310.5 201.5,-466.5 359.5,-466.5 359.5,-310.5 201.5,-310.5"/>
<text text-anchor="middle" x="280.5" y="-454.5" font-family="Helvetica,sans-Serif" font-size="10.00" fill="#000000">o2::trd::PadCalibrations&lt; T &gt;</text>
<polyline fill="none" stroke="#000000" points="201.5,-447.5 359.5,-447.5 "/>
<text text-anchor="middle" x="280.5" y="-435.5" font-family="Helvetica,sans-Serif" font-size="10.00" fill="#000000"> </text>
<polyline fill="none" stroke="#000000" points="201.5,-428.5 359.5,-428.5 "/>
<text text-anchor="start" x="209.5" y="-416.5" font-family="Helvetica,sans-Serif" font-size="10.00" fill="#000000">+ PadCalibrations()</text>
<text text-anchor="start" x="209.5" y="-405.5" font-family="Helvetica,sans-Serif" font-size="10.00" fill="#000000">+ ~PadCalibrations()</text>
<text text-anchor="start" x="209.5" y="-394.5" font-family="Helvetica,sans-Serif" font-size="10.00" fill="#000000">+ getNChannels()</text>
<text text-anchor="start" x="209.5" y="-383.5" font-family="Helvetica,sans-Serif" font-size="10.00" fill="#000000">+ getChamberPads()</text>
<text text-anchor="start" x="209.5" y="-372.5" font-family="Helvetica,sans-Serif" font-size="10.00" fill="#000000">+ getValue()</text>
<text text-anchor="start" x="209.5" y="-361.5" font-family="Helvetica,sans-Serif" font-size="10.00" fill="#000000">+ getPadValue()</text>
<text text-anchor="start" x="209.5" y="-350.5" font-family="Helvetica,sans-Serif" font-size="10.00" fill="#000000">+ setPadValue()</text>
<text text-anchor="start" x="209.5" y="-339.5" font-family="Helvetica,sans-Serif" font-size="10.00" fill="#000000">+ setPadValue()</text>
<text text-anchor="start" x="209.5" y="-328.5" font-family="Helvetica,sans-Serif" font-size="10.00" fill="#000000">+ reset()</text>
<text text-anchor="start" x="209.5" y="-317.5" font-family="Helvetica,sans-Serif" font-size="10.00" fill="#000000">+ init()</text>
</a>
</g>
</g>
<!-- Node6&#45;&gt;Node4 -->
<g id="edge3" class="edge">
<title>Node6&#45;&gt;Node4</title>
<path fill="none" stroke="#ffa500" d="M239.0041,-301.3671C235.2461,-294.4041 231.3877,-287.5396 227.5,-281 223.9002,-274.9446 220.0539,-268.7828 216.0818,-262.6392"/>
<polygon fill="#ffa500" stroke="#ffa500" points="235.9249,-303.0313 243.7053,-310.2227 242.1077,-299.749 235.9249,-303.0313"/>
<text text-anchor="middle" x="255.5" y="-284" font-family="Helvetica,sans-Serif" font-size="10.00" fill="#000000"> &lt; float &gt;</text>
</g>
<!-- Node7 -->
<g id="node5" class="node">
<title>Node7</title>
<polygon fill="none" stroke="#bfbfbf" points="197,-514.5 197,-582.5 364,-582.5 364,-514.5 197,-514.5"/>
<text text-anchor="start" x="205" y="-570.5" font-family="Helvetica,sans-Serif" font-size="10.00" fill="#000000">array&lt; o2::trd::PadParameters</text>
<text text-anchor="middle" x="280.5" y="-559.5" font-family="Helvetica,sans-Serif" font-size="10.00" fill="#000000">&lt; T &gt;, TRDSimParam::kNdet &gt;</text>
<polyline fill="none" stroke="#bfbfbf" points="197,-552.5 364,-552.5 "/>
<text text-anchor="middle" x="280.5" y="-540.5" font-family="Helvetica,sans-Serif" font-size="10.00" fill="#000000"> </text>
<polyline fill="none" stroke="#bfbfbf" points="197,-533.5 364,-533.5 "/>
<text text-anchor="middle" x="280.5" y="-521.5" font-family="Helvetica,sans-Serif" font-size="10.00" fill="#000000"> </text>
</g>
<!-- Node7&#45;&gt;Node6 -->
<g id="edge4" class="edge">
<title>Node7&#45;&gt;Node6</title>
<path fill="none" stroke="#404040" d="M280.5,-514.176C280.5,-503.5991 280.5,-491.4204 280.5,-478.8959"/>
<polygon fill="none" stroke="#404040" points="280.5001,-478.8229 276.5,-472.8229 280.5,-466.8229 284.5,-472.8228 280.5001,-478.8229"/>
<text text-anchor="middle" x="333" y="-488" font-family="Helvetica,sans-Serif" font-size="10.00" fill="#000000"> #mreadOutChamber</text>
</g>
</g>
</svg>
