<?xml version="1.0" encoding="UTF-8" standalone="no"?>
<!DOCTYPE svg PUBLIC "-//W3C//DTD SVG 1.1//EN"
 "http://www.w3.org/Graphics/SVG/1.1/DTD/svg11.dtd">
<!-- Generated by graphviz version 2.40.1 (20161225.0304)
 -->
<!-- Title: /home/travis/build/AliceO2Group/AliceO2/Detectors/Raw/include/DetectorsRaw/RawFileWriter.h Pages: 1 -->
<svg width="2184pt" height="374pt"
 viewBox="0.00 0.00 2184.35 374.00" xmlns="http://www.w3.org/2000/svg" xmlns:xlink="http://www.w3.org/1999/xlink">
<g id="graph0" class="graph" transform="scale(1 1) rotate(0) translate(4 370)">
<title>/home/travis/build/AliceO2Group/AliceO2/Detectors/Raw/include/DetectorsRaw/RawFileWriter.h</title>
<!-- Node0 -->
<g id="node1" class="node">
<title>Node0</title>
<polygon fill="#bfbfbf" stroke="#000000" points="872,-313.5 872,-365.5 1038,-365.5 1038,-313.5 872,-313.5"/>
<text text-anchor="start" x="880" y="-353.5" font-family="Helvetica,sans-Serif" font-size="10.00" fill="#000000">/home/travis/build</text>
<text text-anchor="start" x="880" y="-342.5" font-family="Helvetica,sans-Serif" font-size="10.00" fill="#000000">/AliceO2Group/AliceO2</text>
<text text-anchor="start" x="880" y="-331.5" font-family="Helvetica,sans-Serif" font-size="10.00" fill="#000000">/Detectors/Raw/include</text>
<text text-anchor="middle" x="955" y="-320.5" font-family="Helvetica,sans-Serif" font-size="10.00" fill="#000000">/DetectorsRaw/RawFileWriter.h</text>
</g>
<!-- Node1 -->
<g id="node2" class="node">
<title>Node1</title>
<polygon fill="none" stroke="#bfbfbf" points="353.5,-257.5 353.5,-276.5 410.5,-276.5 410.5,-257.5 353.5,-257.5"/>
<text text-anchor="middle" x="382" y="-264.5" font-family="Helvetica,sans-Serif" font-size="10.00" fill="#000000">gsl/span</text>
</g>
<!-- Node0&#45;&gt;Node1 -->
<g id="edge1" class="edge">
<title>Node0&#45;&gt;Node1</title>
<path fill="none" stroke="#191970" d="M871.9639,-332.586C767.2708,-323.2096 581.9834,-304.4226 425,-277 423.5372,-276.7445 422.0494,-276.4703 420.549,-276.1819"/>
<polygon fill="#191970" stroke="#191970" points="421.093,-272.7203 410.5904,-274.1157 419.6708,-279.5743 421.093,-272.7203"/>
</g>
<!-- Node2 -->
<g id="node3" class="node">
<title>Node2</title>
<polygon fill="none" stroke="#bfbfbf" points="1931.5,-62 1931.5,-81 2024.5,-81 2024.5,-62 1931.5,-62"/>
<text text-anchor="middle" x="1978" y="-69" font-family="Helvetica,sans-Serif" font-size="10.00" fill="#000000">unordered_map</text>
</g>
<!-- Node0&#45;&gt;Node2 -->
<g id="edge2" class="edge">
<title>Node0&#45;&gt;Node2</title>
<path fill="none" stroke="#191970" d="M1038.1101,-336.4795C1194.7102,-328.9766 1542.9204,-303.6406 1823,-221 1890.3165,-201.1375 1924.1677,-210.3567 1966,-154 1979.4306,-135.9062 1980.9637,-109.3073 1980.1029,-91.2401"/>
<polygon fill="#191970" stroke="#191970" points="1983.5912,-90.9513 1979.3426,-81.2456 1976.6113,-91.4823 1983.5912,-90.9513"/>
</g>
<!-- Node3 -->
<g id="node4" class="node">
<title>Node3</title>
<polygon fill="none" stroke="#bfbfbf" points="2042.5,-62 2042.5,-81 2089.5,-81 2089.5,-62 2042.5,-62"/>
<text text-anchor="middle" x="2066" y="-69" font-family="Helvetica,sans-Serif" font-size="10.00" fill="#000000">vector</text>
</g>
<!-- Node0&#45;&gt;Node3 -->
<g id="edge3" class="edge">
<title>Node0&#45;&gt;Node3</title>
<path fill="none" stroke="#191970" d="M1038.2797,-335.0461C1237.6608,-323.4127 1737.1155,-288.2548 1889,-221 1959.5628,-189.7547 2023.7738,-121.3749 2051.5216,-89.0694"/>
<polygon fill="#191970" stroke="#191970" points="2054.2845,-91.2225 2058.0654,-81.3253 2048.9377,-86.7045 2054.2845,-91.2225"/>
</g>
<!-- Node4 -->
<g id="node5" class="node">
<title>Node4</title>
<polygon fill="none" stroke="#bfbfbf" points="2108,-62 2108,-81 2146,-81 2146,-62 2108,-62"/>
<text text-anchor="middle" x="2127" y="-69" font-family="Helvetica,sans-Serif" font-size="10.00" fill="#000000">map</text>
</g>
<!-- Node0&#45;&gt;Node4 -->
<g id="edge4" class="edge">
<title>Node0&#45;&gt;Node4</title>
<path fill="none" stroke="#191970" d="M1038.0336,-337.5526C1178.8544,-333.1699 1473.0923,-319.3343 1718,-277 1813.1833,-260.5468 1841.0327,-263.0389 1928,-221 2002.6001,-184.9393 2077.092,-119.0243 2109.7844,-88.2095"/>
<polygon fill="#191970" stroke="#191970" points="2112.3454,-90.6037 2117.17,-81.171 2107.5162,-85.5362 2112.3454,-90.6037"/>
</g>
<!-- Node5 -->
<g id="node6" class="node">
<title>Node5</title>
<polygon fill="none" stroke="#bfbfbf" points="0,-.5 0,-19.5 44,-19.5 44,-.5 0,-.5"/>
<text text-anchor="middle" x="22" y="-7.5" font-family="Helvetica,sans-Serif" font-size="10.00" fill="#000000">string</text>
</g>
<!-- Node0&#45;&gt;Node5 -->
<g id="edge5" class="edge">
<title>Node0&#45;&gt;Node5</title>
<path fill="none" stroke="#191970" d="M871.8091,-335.0458C725.8586,-324.9366 439,-293.8319 439,-205.5 439,-205.5 439,-205.5 439,-138.5 439,37.7156 231.8698,-69.8283 53.8009,-20.0504"/>
<polygon fill="#191970" stroke="#191970" points="54.5858,-16.6324 44.0032,-17.1403 52.5927,-23.3427 54.5858,-16.6324"/>
</g>
<!-- Node6 -->
<g id="node7" class="node">
<title>Node6</title>
<polygon fill="none" stroke="#bfbfbf" points="730.5,-257.5 730.5,-276.5 803.5,-276.5 803.5,-257.5 730.5,-257.5"/>
<text text-anchor="middle" x="767" y="-264.5" font-family="Helvetica,sans-Serif" font-size="10.00" fill="#000000">string_view</text>
</g>
<!-- Node0&#45;&gt;Node6 -->
<g id="edge6" class="edge">
<title>Node0&#45;&gt;Node6</title>
<path fill="none" stroke="#191970" d="M887.3933,-313.4283C858.1565,-302.1534 825.2127,-289.449 801.1867,-280.1837"/>
<polygon fill="#191970" stroke="#191970" points="802.3864,-276.8952 791.7968,-276.5626 799.8677,-283.4263 802.3864,-276.8952"/>
</g>
<!-- Node7 -->
<g id="node8" class="node">
<title>Node7</title>
<polygon fill="none" stroke="#bfbfbf" points="821.5,-257.5 821.5,-276.5 886.5,-276.5 886.5,-257.5 821.5,-257.5"/>
<text text-anchor="middle" x="854" y="-264.5" font-family="Helvetica,sans-Serif" font-size="10.00" fill="#000000">functional</text>
</g>
<!-- Node0&#45;&gt;Node7 -->
<g id="edge7" class="edge">
<title>Node0&#45;&gt;Node7</title>
<path fill="none" stroke="#191970" d="M918.5367,-313.3258C904.1687,-303.0122 888.154,-291.5165 875.6721,-282.5567"/>
<polygon fill="#191970" stroke="#191970" points="877.4466,-279.5221 867.2819,-276.534 873.3646,-285.2087 877.4466,-279.5221"/>
</g>
<!-- Node8 -->
<g id="node9" class="node">
<title>Node8</title>
<polygon fill="none" stroke="#bfbfbf" points="905,-257.5 905,-276.5 953,-276.5 953,-257.5 905,-257.5"/>
<text text-anchor="middle" x="929" y="-264.5" font-family="Helvetica,sans-Serif" font-size="10.00" fill="#000000">mutex</text>
</g>
<!-- Node0&#45;&gt;Node8 -->
<g id="edge8" class="edge">
<title>Node0&#45;&gt;Node8</title>
<path fill="none" stroke="#191970" d="M945.6134,-313.3258C942.3815,-304.3139 938.826,-294.3995 935.8364,-286.063"/>
<polygon fill="#191970" stroke="#191970" points="939.0894,-284.7655 932.4191,-276.534 932.5003,-287.1285 939.0894,-284.7655"/>
</g>
<!-- Node9 -->
<g id="node10" class="node">
<title>Node9</title>
<polygon fill="none" stroke="#bfbfbf" points="1588.5,-.5 1588.5,-19.5 1647.5,-19.5 1647.5,-.5 1588.5,-.5"/>
<text text-anchor="middle" x="1618" y="-7.5" font-family="Helvetica,sans-Serif" font-size="10.00" fill="#000000">Rtypes.h</text>
</g>
<!-- Node0&#45;&gt;Node9 -->
<g id="edge9" class="edge">
<title>Node0&#45;&gt;Node9</title>
<path fill="none" stroke="#191970" d="M1038.307,-334.7211C1313.1935,-318.4078 2174,-262.752 2174,-205.5 2174,-205.5 2174,-205.5 2174,-138.5 2174,-100.8735 2183.4128,-80.6671 2155,-56 2117.6625,-23.5849 1775.8953,-13.3386 1657.8671,-10.7512"/>
<polygon fill="#191970" stroke="#191970" points="1657.8785,-7.2507 1647.8063,-10.5374 1657.7297,-14.2491 1657.8785,-7.2507"/>
</g>
<!-- Node10 -->
<g id="node11" class="node">
<title>Node10</title>
<polygon fill="none" stroke="#bfbfbf" points="1009,-257.5 1009,-276.5 1061,-276.5 1061,-257.5 1009,-257.5"/>
<text text-anchor="middle" x="1035" y="-264.5" font-family="Helvetica,sans-Serif" font-size="10.00" fill="#000000">TTree.h</text>
</g>
<!-- Node0&#45;&gt;Node10 -->
<g id="edge10" class="edge">
<title>Node0&#45;&gt;Node10</title>
<path fill="none" stroke="#191970" d="M983.8818,-313.3258C994.931,-303.3126 1007.2095,-292.1851 1016.9631,-283.346"/>
<polygon fill="#191970" stroke="#191970" points="1019.4202,-285.8427 1024.4797,-276.534 1014.7195,-280.6558 1019.4202,-285.8427"/>
</g>
<!-- Node11 -->
<g id="node12" class="node">
<title>Node11</title>
<polygon fill="none" stroke="#bfbfbf" points="1079.5,-257.5 1079.5,-276.5 1162.5,-276.5 1162.5,-257.5 1079.5,-257.5"/>
<text text-anchor="middle" x="1121" y="-264.5" font-family="Helvetica,sans-Serif" font-size="10.00" fill="#000000">TStopwatch.h</text>
</g>
<!-- Node0&#45;&gt;Node11 -->
<g id="edge11" class="edge">
<title>Node0&#45;&gt;Node11</title>
<path fill="none" stroke="#191970" d="M1014.9298,-313.3258C1040.2641,-302.2612 1068.7133,-289.8361 1089.7662,-280.6413"/>
<polygon fill="#191970" stroke="#191970" points="1091.4072,-283.7439 1099.1704,-276.534 1088.6055,-277.329 1091.4072,-283.7439"/>
</g>
<!-- Node12 -->
<g id="node13" class="node">
<title>Node12</title>
<g id="a_node13"><a xlink:href="../../d4/d78/DataFormats_2Headers_2include_2Headers_2RAWDataHeader_8h.html" target="_top" xlink:title="Headers/RAWDataHeader.h">
<polygon fill="none" stroke="#000000" points="792.5,-62 792.5,-81 941.5,-81 941.5,-62 792.5,-62"/>
<text text-anchor="middle" x="867" y="-69" font-family="Helvetica,sans-Serif" font-size="10.00" fill="#000000">Headers/RAWDataHeader.h</text>
</a>
</g>
</g>
<!-- Node0&#45;&gt;Node12 -->
<g id="edge12" class="edge">
<title>Node0&#45;&gt;Node12</title>
<path fill="none" stroke="#191970" d="M961.4671,-313.1659C964.4484,-296.8031 966.4485,-275.4453 962,-257 946.0179,-190.7313 902.1061,-121.533 880.0303,-89.6095"/>
<polygon fill="#191970" stroke="#191970" points="882.7927,-87.453 874.179,-81.284 877.0656,-91.478 882.7927,-87.453"/>
</g>
<!-- Node14 -->
<g id="node15" class="node">
<title>Node14</title>
<g id="a_node15"><a xlink:href="../../dc/dcd/DataHeader_8h.html" target="_top" xlink:title="Headers/DataHeader.h">
<polygon fill="none" stroke="#000000" points="467.5,-62 467.5,-81 594.5,-81 594.5,-62 467.5,-62"/>
<text text-anchor="middle" x="531" y="-69" font-family="Helvetica,sans-Serif" font-size="10.00" fill="#000000">Headers/DataHeader.h</text>
</a>
</g>
</g>
<!-- Node0&#45;&gt;Node14 -->
<g id="edge14" class="edge">
<title>Node0&#45;&gt;Node14</title>
<path fill="none" stroke="#191970" d="M871.8385,-325.9237C805.6581,-314.0345 719.2958,-295.7676 689,-277 612.8202,-229.8082 559.557,-131.6988 539.6504,-90.4346"/>
<polygon fill="#191970" stroke="#191970" points="542.7435,-88.7878 535.3144,-81.2341 536.4115,-91.772 542.7435,-88.7878"/>
</g>
<!-- Node23 -->
<g id="node24" class="node">
<title>Node23</title>
<g id="a_node24"><a xlink:href="../../d7/d34/DAQID_8h.html" target="_top" xlink:title="Headers/DAQID.h">
<polygon fill="none" stroke="#000000" points="596.5,-129 596.5,-148 697.5,-148 697.5,-129 596.5,-129"/>
<text text-anchor="middle" x="647" y="-136" font-family="Helvetica,sans-Serif" font-size="10.00" fill="#000000">Headers/DAQID.h</text>
</a>
</g>
</g>
<!-- Node0&#45;&gt;Node23 -->
<g id="edge25" class="edge">
<title>Node0&#45;&gt;Node23</title>
<path fill="none" stroke="#191970" d="M871.8404,-326.0546C811.1842,-314.8226 735.4892,-297.3913 711,-277 673.8178,-246.0397 657.1128,-188.7476 650.5932,-158.4635"/>
<polygon fill="#191970" stroke="#191970" points="653.9537,-157.4166 648.5718,-148.2905 647.0879,-158.7809 653.9537,-157.4166"/>
</g>
<!-- Node24 -->
<g id="node25" class="node">
<title>Node24</title>
<g id="a_node25"><a xlink:href="../../d1/dec/HBFUtils_8h.html" target="_top" xlink:title="DetectorsRaw/HBFUtils.h">
<polygon fill="none" stroke="#000000" points="1200.5,-257.5 1200.5,-276.5 1339.5,-276.5 1339.5,-257.5 1200.5,-257.5"/>
<text text-anchor="middle" x="1270" y="-264.5" font-family="Helvetica,sans-Serif" font-size="10.00" fill="#000000">DetectorsRaw/HBFUtils.h</text>
</a>
</g>
</g>
<!-- Node0&#45;&gt;Node24 -->
<g id="edge27" class="edge">
<title>Node0&#45;&gt;Node24</title>
<path fill="none" stroke="#191970" d="M1038.1746,-320.3566C1095.3523,-307.1967 1169.487,-290.1339 1218.3381,-278.8904"/>
<polygon fill="#191970" stroke="#191970" points="1219.4033,-282.2369 1228.3635,-276.583 1217.8332,-275.4152 1219.4033,-282.2369"/>
</g>
<!-- Node25 -->
<g id="node26" class="node">
<title>Node25</title>
<g id="a_node26"><a xlink:href="../../d6/dec/Raw_2include_2DetectorsRaw_2RDHUtils_8h.html" target="_top" xlink:title="DetectorsRaw/RDHUtils.h">
<polygon fill="none" stroke="#000000" points="776.5,-196 776.5,-215 917.5,-215 917.5,-196 776.5,-196"/>
<text text-anchor="middle" x="847" y="-203" font-family="Helvetica,sans-Serif" font-size="10.00" fill="#000000">DetectorsRaw/RDHUtils.h</text>
</a>
</g>
</g>
<!-- Node0&#45;&gt;Node25 -->
<g id="edge64" class="edge">
<title>Node0&#45;&gt;Node25</title>
<path fill="none" stroke="#191970" d="M871.9517,-328.1278C812.4235,-318.0763 739.6001,-301.2201 721,-277 698.5447,-247.7598 743.1143,-228.5631 785.3158,-217.4948"/>
<polygon fill="#191970" stroke="#191970" points="786.2452,-220.8703 795.1017,-215.0554 784.5521,-214.0782 786.2452,-220.8703"/>
</g>
<!-- Node13 -->
<g id="node14" class="node">
<title>Node13</title>
<polygon fill="none" stroke="#bfbfbf" points="1048,-.5 1048,-19.5 1098,-19.5 1098,-.5 1048,-.5"/>
<text text-anchor="middle" x="1073" y="-7.5" font-family="Helvetica,sans-Serif" font-size="10.00" fill="#000000">cstdint</text>
</g>
<!-- Node12&#45;&gt;Node13 -->
<g id="edge13" class="edge">
<title>Node12&#45;&gt;Node13</title>
<path fill="none" stroke="#191970" d="M899.1875,-61.8906C936.8947,-50.6334 999.1427,-32.0496 1038.0162,-20.4442"/>
<polygon fill="#191970" stroke="#191970" points="1039.2626,-23.7248 1047.8434,-17.5103 1037.2601,-17.0173 1039.2626,-23.7248"/>
</g>
<!-- Node14&#45;&gt;Node5 -->
<g id="edge21" class="edge">
<title>Node14&#45;&gt;Node5</title>
<path fill="none" stroke="#191970" d="M487.412,-61.9876C476.2357,-59.783 464.2058,-57.613 453,-56 279.5165,-31.0284 229.6976,-54.7305 54.0193,-19.8002"/>
<polygon fill="#191970" stroke="#191970" points="54.6887,-16.3648 44.1932,-17.8119 53.3004,-23.2257 54.6887,-16.3648"/>
</g>
<!-- Node14&#45;&gt;Node13 -->
<g id="edge15" class="edge">
<title>Node14&#45;&gt;Node13</title>
<path fill="none" stroke="#191970" d="M594.5925,-63.3943C614.8457,-60.9051 637.3522,-58.2351 658,-56 823.8796,-38.044 870.2232,-51.6058 1037.9729,-19.8717"/>
<polygon fill="#191970" stroke="#191970" points="1038.7193,-23.2924 1047.8813,-17.9718 1037.4011,-16.4176 1038.7193,-23.2924"/>
</g>
<!-- Node15 -->
<g id="node16" class="node">
<title>Node15</title>
<polygon fill="none" stroke="#bfbfbf" points="360,-.5 360,-19.5 418,-19.5 418,-.5 360,-.5"/>
<text text-anchor="middle" x="389" y="-7.5" font-family="Helvetica,sans-Serif" font-size="10.00" fill="#000000">memory</text>
</g>
<!-- Node14&#45;&gt;Node15 -->
<g id="edge16" class="edge">
<title>Node14&#45;&gt;Node15</title>
<path fill="none" stroke="#191970" d="M508.8125,-61.8906C485.0533,-51.6005 447.1595,-35.1888 420.3575,-23.5809"/>
<polygon fill="#191970" stroke="#191970" points="421.5991,-20.3045 411.0317,-19.5419 418.817,-26.7279 421.5991,-20.3045"/>
</g>
<!-- Node16 -->
<g id="node17" class="node">
<title>Node16</title>
<polygon fill="none" stroke="#bfbfbf" points="436,-.5 436,-19.5 488,-19.5 488,-.5 436,-.5"/>
<text text-anchor="middle" x="462" y="-7.5" font-family="Helvetica,sans-Serif" font-size="10.00" fill="#000000">cassert</text>
</g>
<!-- Node14&#45;&gt;Node16 -->
<g id="edge17" class="edge">
<title>Node14&#45;&gt;Node16</title>
<path fill="none" stroke="#191970" d="M520.2188,-61.8906C509.6474,-52.4683 493.3175,-37.9134 480.6397,-26.6137"/>
<polygon fill="#191970" stroke="#191970" points="482.7272,-23.7858 472.9333,-19.7449 478.0696,-29.0114 482.7272,-23.7858"/>
</g>
<!-- Node17 -->
<g id="node18" class="node">
<title>Node17</title>
<polygon fill="none" stroke="#bfbfbf" points="506,-.5 506,-19.5 556,-19.5 556,-.5 506,-.5"/>
<text text-anchor="middle" x="531" y="-7.5" font-family="Helvetica,sans-Serif" font-size="10.00" fill="#000000">cstring</text>
</g>
<!-- Node14&#45;&gt;Node17 -->
<g id="edge18" class="edge">
<title>Node14&#45;&gt;Node17</title>
<path fill="none" stroke="#191970" d="M531,-61.8906C531,-53.3657 531,-40.6392 531,-29.9235"/>
<polygon fill="#191970" stroke="#191970" points="534.5001,-29.7448 531,-19.7449 527.5001,-29.7449 534.5001,-29.7448"/>
</g>
<!-- Node18 -->
<g id="node19" class="node">
<title>Node18</title>
<polygon fill="none" stroke="#bfbfbf" points="574,-.5 574,-19.5 638,-19.5 638,-.5 574,-.5"/>
<text text-anchor="middle" x="606" y="-7.5" font-family="Helvetica,sans-Serif" font-size="10.00" fill="#000000">algorithm</text>
</g>
<!-- Node14&#45;&gt;Node18 -->
<g id="edge19" class="edge">
<title>Node14&#45;&gt;Node18</title>
<path fill="none" stroke="#191970" d="M542.7188,-61.8906C554.3188,-52.3786 572.2979,-37.6357 586.1321,-26.2917"/>
<polygon fill="#191970" stroke="#191970" points="588.6026,-28.7921 594.116,-19.7449 584.164,-23.3792 588.6026,-28.7921"/>
</g>
<!-- Node19 -->
<g id="node20" class="node">
<title>Node19</title>
<polygon fill="none" stroke="#bfbfbf" points="656.5,-.5 656.5,-19.5 721.5,-19.5 721.5,-.5 656.5,-.5"/>
<text text-anchor="middle" x="689" y="-7.5" font-family="Helvetica,sans-Serif" font-size="10.00" fill="#000000">stdexcept</text>
</g>
<!-- Node14&#45;&gt;Node19 -->
<g id="edge20" class="edge">
<title>Node14&#45;&gt;Node19</title>
<path fill="none" stroke="#191970" d="M555.6875,-61.8906C582.3557,-51.5103 625.0282,-34.9004 654.8911,-23.2766"/>
<polygon fill="#191970" stroke="#191970" points="656.4365,-26.4309 664.4859,-19.5419 653.8973,-19.9076 656.4365,-26.4309"/>
</g>
<!-- Node20 -->
<g id="node21" class="node">
<title>Node20</title>
<polygon fill="none" stroke="#bfbfbf" points="62,-.5 62,-19.5 112,-19.5 112,-.5 62,-.5"/>
<text text-anchor="middle" x="87" y="-7.5" font-family="Helvetica,sans-Serif" font-size="10.00" fill="#000000">climits</text>
</g>
<!-- Node14&#45;&gt;Node20 -->
<g id="edge22" class="edge">
<title>Node14&#45;&gt;Node20</title>
<path fill="none" stroke="#191970" d="M486.5717,-61.9677C475.629,-59.8145 463.9177,-57.6734 453,-56 309.5879,-34.0191 268.3882,-48.3757 122.3608,-19.9596"/>
<polygon fill="#191970" stroke="#191970" points="122.616,-16.4422 112.1265,-17.9322 121.2557,-23.3088 122.616,-16.4422"/>
</g>
<!-- Node21 -->
<g id="node22" class="node">
<title>Node21</title>
<g id="a_node22"><a xlink:href="../../d7/df8/Types_8h.html" target="_top" xlink:title="MemoryResources/Types.h">
<polygon fill="none" stroke="#000000" points="130,-.5 130,-19.5 276,-19.5 276,-.5 130,-.5"/>
<text text-anchor="middle" x="203" y="-7.5" font-family="Helvetica,sans-Serif" font-size="10.00" fill="#000000">MemoryResources/Types.h</text>
</a>
</g>
</g>
<!-- Node14&#45;&gt;Node21 -->
<g id="edge23" class="edge">
<title>Node14&#45;&gt;Node21</title>
<path fill="none" stroke="#191970" d="M483.5857,-61.9661C473.4951,-59.9685 462.8991,-57.8942 453,-56 389.5373,-43.8565 316.8916,-30.5568 266.3256,-21.3955"/>
<polygon fill="#191970" stroke="#191970" points="266.6627,-17.8997 256.1992,-19.5627 265.416,-24.7878 266.6627,-17.8997"/>
</g>
<!-- Node22 -->
<g id="node23" class="node">
<title>Node22</title>
<polygon fill="none" stroke="#bfbfbf" points="294.5,-.5 294.5,-19.5 341.5,-19.5 341.5,-.5 294.5,-.5"/>
<text text-anchor="middle" x="318" y="-7.5" font-family="Helvetica,sans-Serif" font-size="10.00" fill="#000000">cerrno</text>
</g>
<!-- Node14&#45;&gt;Node22 -->
<g id="edge24" class="edge">
<title>Node14&#45;&gt;Node22</title>
<path fill="none" stroke="#191970" d="M497.1157,-61.9752C462.8802,-52.3141 408.2157,-36.7861 351.6183,-20.1514"/>
<polygon fill="#191970" stroke="#191970" points="352.3612,-16.7217 341.7798,-17.2542 350.3838,-23.4366 352.3612,-16.7217"/>
</g>
<!-- Node23&#45;&gt;Node14 -->
<g id="edge26" class="edge">
<title>Node23&#45;&gt;Node14</title>
<path fill="none" stroke="#191970" d="M630.38,-128.9005C610.9988,-117.7062 578.7545,-99.0823 556.2685,-86.0947"/>
<polygon fill="#191970" stroke="#191970" points="557.9991,-83.0525 547.5891,-81.0817 554.498,-89.114 557.9991,-83.0525"/>
</g>
<!-- Node24&#45;&gt;Node9 -->
<g id="edge28" class="edge">
<title>Node24&#45;&gt;Node9</title>
<path fill="none" stroke="#191970" d="M1307.1088,-257.4482C1375.811,-237.7784 1522.747,-186.0569 1599,-87 1611.6929,-70.5112 1616.0211,-46.6563 1617.4371,-29.8783"/>
<polygon fill="#191970" stroke="#191970" points="1620.9497,-29.7524 1618.0192,-19.571 1613.9609,-29.3577 1620.9497,-29.7524"/>
</g>
<!-- Node24&#45;&gt;Node25 -->
<g id="edge29" class="edge">
<title>Node24&#45;&gt;Node25</title>
<path fill="none" stroke="#191970" d="M1204.3704,-257.4581C1128.151,-246.3766 1002.6527,-228.1304 922.468,-216.4723"/>
<polygon fill="#191970" stroke="#191970" points="922.8351,-212.989 912.4356,-215.0137 921.8279,-219.9161 922.8351,-212.989"/>
</g>
<!-- Node32 -->
<g id="node33" class="node">
<title>Node32</title>
<g id="a_node33"><a xlink:href="../../d9/d80/InteractionRecord_8h.html" target="_top" xlink:title="CommonDataFormat/Interaction\lRecord.h">
<polygon fill="none" stroke="#000000" points="1183,-123.5 1183,-153.5 1357,-153.5 1357,-123.5 1183,-123.5"/>
<text text-anchor="start" x="1191" y="-141.5" font-family="Helvetica,sans-Serif" font-size="10.00" fill="#000000">CommonDataFormat/Interaction</text>
<text text-anchor="middle" x="1270" y="-130.5" font-family="Helvetica,sans-Serif" font-size="10.00" fill="#000000">Record.h</text>
</a>
</g>
</g>
<!-- Node24&#45;&gt;Node32 -->
<g id="edge61" class="edge">
<title>Node24&#45;&gt;Node32</title>
<path fill="none" stroke="#191970" d="M1270,-257.3416C1270,-237.6745 1270,-192.4221 1270,-163.7784"/>
<polygon fill="#191970" stroke="#191970" points="1273.5001,-163.7016 1270,-153.7016 1266.5001,-163.7016 1273.5001,-163.7016"/>
</g>
<!-- Node36 -->
<g id="node37" class="node">
<title>Node36</title>
<g id="a_node37"><a xlink:href="../../db/d2c/ConfigurableParam_8h.html" target="_top" xlink:title="CommonUtils/Configurable\lParam.h">
<polygon fill="none" stroke="#000000" points="1809,-123.5 1809,-153.5 1957,-153.5 1957,-123.5 1809,-123.5"/>
<text text-anchor="start" x="1817" y="-141.5" font-family="Helvetica,sans-Serif" font-size="10.00" fill="#000000">CommonUtils/Configurable</text>
<text text-anchor="middle" x="1883" y="-130.5" font-family="Helvetica,sans-Serif" font-size="10.00" fill="#000000">Param.h</text>
</a>
</g>
</g>
<!-- Node24&#45;&gt;Node36 -->
<g id="edge48" class="edge">
<title>Node24&#45;&gt;Node36</title>
<path fill="none" stroke="#191970" d="M1339.9746,-265.9788C1461.7807,-263.3425 1707.3024,-253.9813 1786,-221 1817.3606,-207.8572 1846.0522,-180.7264 1863.9616,-161.1603"/>
<polygon fill="#191970" stroke="#191970" points="1866.6928,-163.3562 1870.7288,-153.5602 1861.4649,-158.7012 1866.6928,-163.3562"/>
</g>
<!-- Node40 -->
<g id="node41" class="node">
<title>Node40</title>
<g id="a_node41"><a xlink:href="../../da/d6b/ConfigurableParamHelper_8h.html" target="_top" xlink:title="CommonUtils/Configurable\lParamHelper.h">
<polygon fill="none" stroke="#000000" points="1629,-190.5 1629,-220.5 1777,-220.5 1777,-190.5 1629,-190.5"/>
<text text-anchor="start" x="1637" y="-208.5" font-family="Helvetica,sans-Serif" font-size="10.00" fill="#000000">CommonUtils/Configurable</text>
<text text-anchor="middle" x="1703" y="-197.5" font-family="Helvetica,sans-Serif" font-size="10.00" fill="#000000">ParamHelper.h</text>
</a>
</g>
</g>
<!-- Node24&#45;&gt;Node40 -->
<g id="edge55" class="edge">
<title>Node24&#45;&gt;Node40</title>
<path fill="none" stroke="#191970" d="M1339.5068,-258.5986C1409.2682,-249.9627 1519.7532,-235.7314 1615,-221 1616.1115,-220.8281 1617.2306,-220.6535 1618.356,-220.4765"/>
<polygon fill="#191970" stroke="#191970" points="1619.3014,-223.8695 1628.619,-218.8264 1618.1902,-216.9583 1619.3014,-223.8695"/>
</g>
<!-- Node43 -->
<g id="node44" class="node">
<title>Node43</title>
<g id="a_node44"><a xlink:href="../../de/da4/Triggers_8h.html" target="_top" xlink:title="Definition of the 32 Central Trigger System (CTS) Trigger Types defined in https://twiki.cern.ch/twiki/pub/ALICE/NoteForFEDevelopers/CTS_CRU_FE_interface.pdf. ">
<polygon fill="none" stroke="#000000" points="1036,-196 1036,-215 1196,-215 1196,-196 1036,-196"/>
<text text-anchor="middle" x="1116" y="-203" font-family="Helvetica,sans-Serif" font-size="10.00" fill="#000000">CommonConstants/Triggers.h</text>
</a>
</g>
</g>
<!-- Node24&#45;&gt;Node43 -->
<g id="edge62" class="edge">
<title>Node24&#45;&gt;Node43</title>
<path fill="none" stroke="#191970" d="M1245.9375,-257.3906C1219.9444,-247.0103 1178.3522,-230.4004 1149.2453,-218.7766"/>
<polygon fill="#191970" stroke="#191970" points="1150.4785,-215.5003 1139.8935,-215.0419 1147.8823,-222.0011 1150.4785,-215.5003"/>
</g>
<!-- Node25&#45;&gt;Node12 -->
<g id="edge35" class="edge">
<title>Node25&#45;&gt;Node12</title>
<path fill="none" stroke="#191970" d="M853.1534,-195.7057C859.0644,-185.6739 867.5858,-169.409 871,-154 875.6375,-133.0697 873.4944,-108.4497 870.9087,-91.5875"/>
<polygon fill="#191970" stroke="#191970" points="874.2811,-90.5497 869.1257,-81.2938 867.3838,-91.7444 874.2811,-90.5497"/>
</g>
<!-- Node25&#45;&gt;Node23 -->
<g id="edge47" class="edge">
<title>Node25&#45;&gt;Node23</title>
<path fill="none" stroke="#191970" d="M818.3449,-195.9005C783.4437,-184.2086 724.3498,-164.4122 685.5003,-151.3976"/>
<polygon fill="#191970" stroke="#191970" points="686.1959,-147.9395 675.602,-148.0817 683.9723,-154.577 686.1959,-147.9395"/>
</g>
<!-- Node26 -->
<g id="node27" class="node">
<title>Node26</title>
<g id="a_node27"><a xlink:href="../../df/d21/GPUCommonDef_8h.html" target="_top" xlink:title="GPUCommonDef.h">
<polygon fill="none" stroke="#000000" points="667.5,-62 667.5,-81 774.5,-81 774.5,-62 667.5,-62"/>
<text text-anchor="middle" x="721" y="-69" font-family="Helvetica,sans-Serif" font-size="10.00" fill="#000000">GPUCommonDef.h</text>
</a>
</g>
</g>
<!-- Node25&#45;&gt;Node26 -->
<g id="edge30" class="edge">
<title>Node25&#45;&gt;Node26</title>
<path fill="none" stroke="#191970" d="M812.1386,-195.8409C789.9486,-187.9906 762.2389,-174.753 745,-154 730.0819,-136.0409 724.4342,-109.2036 722.2976,-91.0572"/>
<polygon fill="#191970" stroke="#191970" points="725.7771,-90.6731 721.3695,-81.0387 718.807,-91.3189 725.7771,-90.6731"/>
</g>
<!-- Node29 -->
<g id="node30" class="node">
<title>Node29</title>
<g id="a_node30"><a xlink:href="../../d2/d45/GPUCommonRtypes_8h.html" target="_top" xlink:title="GPUCommonRtypes.h">
<polygon fill="none" stroke="#000000" points="1123.5,-62 1123.5,-81 1248.5,-81 1248.5,-62 1123.5,-62"/>
<text text-anchor="middle" x="1186" y="-69" font-family="Helvetica,sans-Serif" font-size="10.00" fill="#000000">GPUCommonRtypes.h</text>
</a>
</g>
</g>
<!-- Node25&#45;&gt;Node29 -->
<g id="edge33" class="edge">
<title>Node25&#45;&gt;Node29</title>
<path fill="none" stroke="#191970" d="M871.1083,-195.9705C930.5081,-172.4909 1084.0242,-111.809 1152.3469,-84.8024"/>
<polygon fill="#191970" stroke="#191970" points="1153.7746,-88.0016 1161.7878,-81.0706 1151.2014,-81.4917 1153.7746,-88.0016"/>
</g>
<!-- Node30 -->
<g id="node31" class="node">
<title>Node30</title>
<g id="a_node31"><a xlink:href="../../d6/d89/RDHAny_8h.html" target="_top" xlink:title="Headers/RDHAny.h">
<polygon fill="none" stroke="#000000" points="754,-129 754,-148 862,-148 862,-129 754,-129"/>
<text text-anchor="middle" x="808" y="-136" font-family="Helvetica,sans-Serif" font-size="10.00" fill="#000000">Headers/RDHAny.h</text>
</a>
</g>
</g>
<!-- Node25&#45;&gt;Node30 -->
<g id="edge36" class="edge">
<title>Node25&#45;&gt;Node30</title>
<path fill="none" stroke="#191970" d="M841.4123,-195.9005C835.5043,-185.751 826.0413,-169.4941 818.6918,-156.8679"/>
<polygon fill="#191970" stroke="#191970" points="821.633,-154.9634 813.5774,-148.0817 815.5833,-158.4849 821.633,-154.9634"/>
</g>
<!-- Node25&#45;&gt;Node32 -->
<g id="edge41" class="edge">
<title>Node25&#45;&gt;Node32</title>
<path fill="none" stroke="#191970" d="M907.1564,-195.9717C976.3473,-185.0124 1090.9185,-166.8652 1172.8086,-153.8944"/>
<polygon fill="#191970" stroke="#191970" points="1173.5497,-157.3207 1182.879,-152.2993 1172.4546,-150.4069 1173.5497,-157.3207"/>
</g>
<!-- Node27 -->
<g id="node28" class="node">
<title>Node27</title>
<g id="a_node28"><a xlink:href="../../d5/d93/GPUCommonDefSettings_8h.html" target="_top" xlink:title="GPUCommonDefSettings.h">
<polygon fill="none" stroke="#000000" points="740,-.5 740,-19.5 888,-19.5 888,-.5 740,-.5"/>
<text text-anchor="middle" x="814" y="-7.5" font-family="Helvetica,sans-Serif" font-size="10.00" fill="#000000">GPUCommonDefSettings.h</text>
</a>
</g>
</g>
<!-- Node26&#45;&gt;Node27 -->
<g id="edge31" class="edge">
<title>Node26&#45;&gt;Node27</title>
<path fill="none" stroke="#191970" d="M735.5313,-61.8906C750.4094,-52.0519 773.7504,-36.6167 791.1128,-25.1351"/>
<polygon fill="#191970" stroke="#191970" points="793.1602,-27.9773 799.5708,-19.5419 789.299,-22.1385 793.1602,-27.9773"/>
</g>
<!-- Node28 -->
<g id="node29" class="node">
<title>Node28</title>
<g id="a_node29"><a xlink:href="../../da/d5a/GPUCommonDefAPI_8h.html" target="_top" xlink:title="GPUCommonDefAPI.h">
<polygon fill="none" stroke="#000000" points="906,-.5 906,-19.5 1030,-19.5 1030,-.5 906,-.5"/>
<text text-anchor="middle" x="968" y="-7.5" font-family="Helvetica,sans-Serif" font-size="10.00" fill="#000000">GPUCommonDefAPI.h</text>
</a>
</g>
</g>
<!-- Node26&#45;&gt;Node28 -->
<g id="edge32" class="edge">
<title>Node26&#45;&gt;Node28</title>
<path fill="none" stroke="#191970" d="M759.0329,-61.9837C766.9533,-60.0041 775.2488,-57.9326 783,-56 829.3782,-44.4368 882.3067,-31.2802 919.6343,-22.0082"/>
<polygon fill="#191970" stroke="#191970" points="920.8691,-25.3079 929.7306,-19.5006 919.1817,-18.5143 920.8691,-25.3079"/>
</g>
<!-- Node29&#45;&gt;Node9 -->
<g id="edge34" class="edge">
<title>Node29&#45;&gt;Node9</title>
<path fill="none" stroke="#191970" d="M1227.3834,-61.9618C1237.3756,-59.8332 1248.0436,-57.7046 1258,-56 1373.8382,-36.1674 1511.9857,-20.8154 1578.4399,-13.9432"/>
<polygon fill="#191970" stroke="#191970" points="1578.8848,-17.416 1588.4754,-12.9136 1578.1704,-10.4525 1578.8848,-17.416"/>
</g>
<!-- Node30&#45;&gt;Node12 -->
<g id="edge38" class="edge">
<title>Node30&#45;&gt;Node12</title>
<path fill="none" stroke="#191970" d="M816.4533,-128.9005C825.6538,-118.4525 840.5535,-101.5325 851.7978,-88.7635"/>
<polygon fill="#191970" stroke="#191970" points="854.5803,-90.8997 858.5624,-81.0817 849.3269,-86.2735 854.5803,-90.8997"/>
</g>
<!-- Node30&#45;&gt;Node19 -->
<g id="edge40" class="edge">
<title>Node30&#45;&gt;Node19</title>
<path fill="none" stroke="#191970" d="M762.5493,-128.9761C723.1109,-119.681 670.4392,-104.4227 658,-87 644.8796,-68.6232 659.4333,-43.8962 672.6998,-27.4768"/>
<polygon fill="#191970" stroke="#191970" points="675.4995,-29.5892 679.3666,-19.7253 670.1923,-25.0247 675.4995,-29.5892"/>
</g>
<!-- Node30&#45;&gt;Node26 -->
<g id="edge37" class="edge">
<title>Node30&#45;&gt;Node26</title>
<path fill="none" stroke="#191970" d="M795.535,-128.9005C781.4513,-118.0544 758.3112,-100.2339 741.5461,-87.3229"/>
<polygon fill="#191970" stroke="#191970" points="743.5003,-84.4102 733.4419,-81.0817 739.2292,-89.9562 743.5003,-84.4102"/>
</g>
<!-- Node31 -->
<g id="node32" class="node">
<title>Node31</title>
<polygon fill="none" stroke="#bfbfbf" points="959.5,-62 959.5,-81 1028.5,-81 1028.5,-62 959.5,-62"/>
<text text-anchor="middle" x="994" y="-69" font-family="Helvetica,sans-Serif" font-size="10.00" fill="#000000">type_traits</text>
</g>
<!-- Node30&#45;&gt;Node31 -->
<g id="edge39" class="edge">
<title>Node30&#45;&gt;Node31</title>
<path fill="none" stroke="#191970" d="M834.6493,-128.9005C866.9692,-117.2584 921.5974,-97.5805 957.7325,-84.5641"/>
<polygon fill="#191970" stroke="#191970" points="959.1781,-87.7636 967.4002,-81.0817 956.8058,-81.1778 959.1781,-87.7636"/>
</g>
<!-- Node32&#45;&gt;Node13 -->
<g id="edge45" class="edge">
<title>Node32&#45;&gt;Node13</title>
<path fill="none" stroke="#191970" d="M1187.32,-123.3877C1162.0646,-115.6979 1135.5621,-104.1831 1115,-87 1096.8086,-71.798 1085.2098,-46.6077 1078.9131,-29.2005"/>
<polygon fill="#191970" stroke="#191970" points="1082.1662,-27.8932 1075.6661,-19.5267 1075.5301,-30.1207 1082.1662,-27.8932"/>
</g>
<!-- Node32&#45;&gt;Node29 -->
<g id="edge42" class="edge">
<title>Node32&#45;&gt;Node29</title>
<path fill="none" stroke="#191970" d="M1250.9391,-123.2967C1237.4703,-112.5537 1219.4615,-98.1895 1205.8252,-87.3129"/>
<polygon fill="#191970" stroke="#191970" points="1207.9796,-84.5544 1197.9794,-81.055 1203.6147,-90.0268 1207.9796,-84.5544"/>
</g>
<!-- Node33 -->
<g id="node34" class="node">
<title>Node33</title>
<polygon fill="none" stroke="#bfbfbf" points="1540.5,-62 1540.5,-81 1589.5,-81 1589.5,-62 1540.5,-62"/>
<text text-anchor="middle" x="1565" y="-69" font-family="Helvetica,sans-Serif" font-size="10.00" fill="#000000">iosfwd</text>
</g>
<!-- Node32&#45;&gt;Node33 -->
<g id="edge43" class="edge">
<title>Node32&#45;&gt;Node33</title>
<path fill="none" stroke="#191970" d="M1357.0951,-126.5246C1408.4526,-118.1822 1474.283,-105.2478 1531,-87 1532.8526,-86.4039 1534.738,-85.7347 1536.6229,-85.0177"/>
<polygon fill="#191970" stroke="#191970" points="1538.0096,-88.2316 1545.891,-81.1512 1535.3144,-81.7713 1538.0096,-88.2316"/>
</g>
<!-- Node34 -->
<g id="node35" class="node">
<title>Node34</title>
<polygon fill="none" stroke="#bfbfbf" points="1266.5,-62 1266.5,-81 1313.5,-81 1313.5,-62 1266.5,-62"/>
<text text-anchor="middle" x="1290" y="-69" font-family="Helvetica,sans-Serif" font-size="10.00" fill="#000000">cmath</text>
</g>
<!-- Node32&#45;&gt;Node34 -->
<g id="edge44" class="edge">
<title>Node32&#45;&gt;Node34</title>
<path fill="none" stroke="#191970" d="M1274.5383,-123.2967C1277.4124,-113.6685 1281.1547,-101.1318 1284.2377,-90.8038"/>
<polygon fill="#191970" stroke="#191970" points="1287.6411,-91.6383 1287.1478,-81.055 1280.9336,-89.636 1287.6411,-91.6383"/>
</g>
<!-- Node35 -->
<g id="node36" class="node">
<title>Node35</title>
<g id="a_node36"><a xlink:href="../../d4/dc6/LHCConstants_8h.html" target="_top" xlink:title="Header to collect LHC related constants. ">
<polygon fill="none" stroke="#000000" points="1332,-62 1332,-81 1522,-81 1522,-62 1332,-62"/>
<text text-anchor="middle" x="1427" y="-69" font-family="Helvetica,sans-Serif" font-size="10.00" fill="#000000">CommonConstants/LHCConstants.h</text>
</a>
</g>
</g>
<!-- Node32&#45;&gt;Node35 -->
<g id="edge46" class="edge">
<title>Node32&#45;&gt;Node35</title>
<path fill="none" stroke="#191970" d="M1305.2339,-123.4639C1332.1698,-111.969 1368.9894,-96.2561 1395.0689,-85.1266"/>
<polygon fill="#191970" stroke="#191970" points="1396.6716,-88.2482 1404.4953,-81.1039 1393.924,-81.8099 1396.6716,-88.2482"/>
</g>
<!-- Node36&#45;&gt;Node2 -->
<g id="edge51" class="edge">
<title>Node36&#45;&gt;Node2</title>
<path fill="none" stroke="#191970" d="M1904.557,-123.2967C1919.9332,-112.4524 1940.5414,-97.9182 1956.0138,-87.006"/>
<polygon fill="#191970" stroke="#191970" points="1958.297,-89.6787 1964.4519,-81.055 1954.2626,-83.9582 1958.297,-89.6787"/>
</g>
<!-- Node36&#45;&gt;Node3 -->
<g id="edge49" class="edge">
<title>Node36&#45;&gt;Node3</title>
<path fill="none" stroke="#191970" d="M1932.1833,-123.4094C1961.9806,-113.8527 2000.5666,-100.7382 2034,-87 2035.3561,-86.4428 2036.7359,-85.8555 2038.1235,-85.2486"/>
<polygon fill="#191970" stroke="#191970" points="2039.5968,-88.4236 2047.2224,-81.0682 2036.6743,-82.0628 2039.5968,-88.4236"/>
</g>
<!-- Node36&#45;&gt;Node4 -->
<g id="edge50" class="edge">
<title>Node36&#45;&gt;Node4</title>
<path fill="none" stroke="#191970" d="M1957.4911,-125.9287C1999.8339,-117.5093 2053.3501,-104.6964 2099,-87 2100.0361,-86.5983 2101.0812,-86.1648 2102.1276,-85.7069"/>
<polygon fill="#191970" stroke="#191970" points="2103.9645,-88.7029 2111.3709,-81.1269 2100.8566,-82.4307 2103.9645,-88.7029"/>
</g>
<!-- Node37 -->
<g id="node38" class="node">
<title>Node37</title>
<polygon fill="none" stroke="#bfbfbf" points="1721.5,-56.5 1721.5,-86.5 1834.5,-86.5 1834.5,-56.5 1721.5,-56.5"/>
<text text-anchor="start" x="1729.5" y="-74.5" font-family="Helvetica,sans-Serif" font-size="10.00" fill="#000000">boost/property_tree</text>
<text text-anchor="middle" x="1778" y="-63.5" font-family="Helvetica,sans-Serif" font-size="10.00" fill="#000000">/ptree.hpp</text>
</g>
<!-- Node36&#45;&gt;Node37 -->
<g id="edge52" class="edge">
<title>Node36&#45;&gt;Node37</title>
<path fill="none" stroke="#191970" d="M1859.436,-123.4639C1844.9473,-114.2188 1826.1828,-102.2452 1810.3183,-92.1222"/>
<polygon fill="#191970" stroke="#191970" points="1812.1614,-89.1464 1801.8487,-86.7177 1808.396,-95.0474 1812.1614,-89.1464"/>
</g>
<!-- Node38 -->
<g id="node39" class="node">
<title>Node38</title>
<polygon fill="none" stroke="#bfbfbf" points="1646.5,-62 1646.5,-81 1703.5,-81 1703.5,-62 1646.5,-62"/>
<text text-anchor="middle" x="1675" y="-69" font-family="Helvetica,sans-Serif" font-size="10.00" fill="#000000">typeinfo</text>
</g>
<!-- Node36&#45;&gt;Node38 -->
<g id="edge53" class="edge">
<title>Node36&#45;&gt;Node38</title>
<path fill="none" stroke="#191970" d="M1828.6052,-123.4212C1795.0322,-113.7696 1751.2213,-100.5514 1713,-87 1711.0861,-86.3214 1709.1274,-85.6018 1707.1576,-84.8588"/>
<polygon fill="#191970" stroke="#191970" points="1707.9595,-81.4142 1697.3717,-81.0291 1705.4084,-87.9328 1707.9595,-81.4142"/>
</g>
<!-- Node39 -->
<g id="node40" class="node">
<title>Node39</title>
<polygon fill="none" stroke="#bfbfbf" points="1853,-62 1853,-81 1913,-81 1913,-62 1853,-62"/>
<text text-anchor="middle" x="1883" y="-69" font-family="Helvetica,sans-Serif" font-size="10.00" fill="#000000">iostream</text>
</g>
<!-- Node36&#45;&gt;Node39 -->
<g id="edge54" class="edge">
<title>Node36&#45;&gt;Node39</title>
<path fill="none" stroke="#191970" d="M1883,-123.2967C1883,-113.7699 1883,-101.3954 1883,-91.1306"/>
<polygon fill="#191970" stroke="#191970" points="1886.5001,-91.0549 1883,-81.055 1879.5001,-91.055 1886.5001,-91.0549"/>
</g>
<!-- Node40&#45;&gt;Node31 -->
<g id="edge58" class="edge">
<title>Node40&#45;&gt;Node31</title>
<path fill="none" stroke="#191970" d="M1628.5818,-201.3097C1503.7834,-193.772 1257.7463,-176.5839 1174,-154 1115.751,-138.2919 1052.7714,-105.3482 1018.9229,-86.1829"/>
<polygon fill="#191970" stroke="#191970" points="1020.5927,-83.1059 1010.1765,-81.1685 1017.111,-89.1786 1020.5927,-83.1059"/>
</g>
<!-- Node40&#45;&gt;Node36 -->
<g id="edge56" class="edge">
<title>Node40&#45;&gt;Node36</title>
<path fill="none" stroke="#191970" d="M1743.3955,-190.4639C1769.8208,-180.6278 1804.5431,-167.7034 1832.748,-157.2049"/>
<polygon fill="#191970" stroke="#191970" points="1834.2774,-160.3703 1842.4283,-153.6017 1831.8355,-153.81 1834.2774,-160.3703"/>
</g>
<!-- Node40&#45;&gt;Node38 -->
<g id="edge59" class="edge">
<title>Node40&#45;&gt;Node38</title>
<path fill="none" stroke="#191970" d="M1684.9083,-190.3413C1675.2111,-180.9968 1664.2111,-168.1218 1659,-154 1651.3037,-133.1435 1658.4378,-107.8871 1665.4744,-90.8575"/>
<polygon fill="#191970" stroke="#191970" points="1668.8042,-91.9864 1669.7096,-81.4303 1662.4189,-89.1177 1668.8042,-91.9864"/>
</g>
<!-- Node41 -->
<g id="node42" class="node">
<title>Node41</title>
<polygon fill="none" stroke="#bfbfbf" points="1667.5,-129 1667.5,-148 1724.5,-148 1724.5,-129 1667.5,-129"/>
<text text-anchor="middle" x="1696" y="-136" font-family="Helvetica,sans-Serif" font-size="10.00" fill="#000000">TClass.h</text>
</g>
<!-- Node40&#45;&gt;Node41 -->
<g id="edge57" class="edge">
<title>Node40&#45;&gt;Node41</title>
<path fill="none" stroke="#191970" d="M1701.4116,-190.2967C1700.4163,-180.7699 1699.1234,-168.3954 1698.051,-158.1306"/>
<polygon fill="#191970" stroke="#191970" points="1701.5185,-157.6371 1696.9983,-148.055 1694.5564,-158.3646 1701.5185,-157.6371"/>
</g>
<!-- Node42 -->
<g id="node43" class="node">
<title>Node42</title>
<polygon fill="none" stroke="#bfbfbf" points="1743,-129 1743,-148 1791,-148 1791,-129 1743,-129"/>
<text text-anchor="middle" x="1767" y="-136" font-family="Helvetica,sans-Serif" font-size="10.00" fill="#000000">TFile.h</text>
</g>
<!-- Node40&#45;&gt;Node42 -->
<g id="edge60" class="edge">
<title>Node40&#45;&gt;Node42</title>
<path fill="none" stroke="#191970" d="M1717.5226,-190.2967C1727.3973,-179.9591 1740.4749,-166.2684 1750.7051,-155.5588"/>
<polygon fill="#191970" stroke="#191970" points="1753.4964,-157.7037 1757.8729,-148.055 1748.4346,-152.8685 1753.4964,-157.7037"/>
</g>
<!-- Node43&#45;&gt;Node13 -->
<g id="edge63" class="edge">
<title>Node43&#45;&gt;Node13</title>
<path fill="none" stroke="#191970" d="M1113.3933,-195.714C1108.0544,-175.4944 1095.651,-127.6014 1087,-87 1082.8532,-67.538 1078.8691,-45.1433 1076.2188,-29.5409"/>
<polygon fill="#191970" stroke="#191970" points="1079.6443,-28.8044 1074.5413,-19.5194 1072.7403,-29.96 1079.6443,-28.8044"/>
</g>
</g>
</svg>
