<?xml version="1.0" encoding="UTF-8" standalone="no"?>
<!DOCTYPE svg PUBLIC "-//W3C//DTD SVG 1.1//EN"
 "http://www.w3.org/Graphics/SVG/1.1/DTD/svg11.dtd">
<!-- Generated by graphviz version 2.40.1 (20161225.0304)
 -->
<!-- Title: /home/travis/build/AliceO2Group/AliceO2/Detectors/TPC/base/test/testTPCParameters.cxx Pages: 1 -->
<!--zoomable 385 -->
<svg id="main" version="1.1" xmlns="http://www.w3.org/2000/svg" xmlns:xlink="http://www.w3.org/1999/xlink" xml:space="preserve" onload="init(evt)">
<style type="text/css"><![CDATA[
.edge:hover path { stroke: red; }
.edge:hover polygon { stroke: red; fill: red; }
]]></style>
<script type="text/javascript"><![CDATA[
var edges = document.getElementsByTagName('g');
if (edges && edges.length) {
  for (var i=0;i<edges.length;i++) {
    if (edges[i].id.substr(0,4)=='edge') {
      edges[i].setAttribute('class','edge');
    }
  }
}
]]></script>
        <defs>
                <circle id="rim" cx="0" cy="0" r="7"/>
                <circle id="rim2" cx="0" cy="0" r="3.5"/>
                <g id="zoomPlus">
                        <use xlink:href="#rim" fill="#404040">
                                <set attributeName="fill" to="#808080" begin="zoomplus.mouseover" end="zoomplus.mouseout"/>
                        </use>
                        <path d="M-4,0h8M0,-4v8" fill="none" stroke="white" stroke-width="1.5" pointer-events="none"/>
                </g>
                <g id="zoomMin">
                        <use xlink:href="#rim" fill="#404040">
                                <set attributeName="fill" to="#808080" begin="zoomminus.mouseover" end="zoomminus.mouseout"/>
                        </use>
                        <path d="M-4,0h8" fill="none" stroke="white" stroke-width="1.5" pointer-events="none"/>
                </g>
                <g id="dirArrow">
                        <path fill="none" stroke="white" stroke-width="1.5" d="M0,-3.0v7 M-2.5,-0.5L0,-3.0L2.5,-0.5"/>
                </g>
               <g id="resetDef">
                       <use xlink:href="#rim2" fill="#404040">
                               <set attributeName="fill" to="#808080" begin="reset.mouseover" end="reset.mouseout"/>
                       </use>
               </g>
        </defs>

<script type="text/javascript">
var viewWidth = 2003;
var viewHeight = 385;
var sectionId = 'dynsection-0';
</script>
<script xlink:href="../../svgpan.js"/>
<svg id="graph" class="graph">
<g id="viewport">
<title>/home/travis/build/AliceO2Group/AliceO2/Detectors/TPC/base/test/testTPCParameters.cxx</title>
<!-- Node0 -->
<g id="node1" class="node">
<title>Node0</title>
<polygon fill="#bfbfbf" stroke="#000000" points="470.5,-324.5 470.5,-376.5 607.5,-376.5 607.5,-324.5 470.5,-324.5"/>
<text text-anchor="start" x="478.5" y="-364.5" font-family="Helvetica,sans-Serif" font-size="10.00" fill="#000000">/home/travis/build</text>
<text text-anchor="start" x="478.5" y="-353.5" font-family="Helvetica,sans-Serif" font-size="10.00" fill="#000000">/AliceO2Group/AliceO2</text>
<text text-anchor="start" x="478.5" y="-342.5" font-family="Helvetica,sans-Serif" font-size="10.00" fill="#000000">/Detectors/TPC/base/test</text>
<text text-anchor="middle" x="539" y="-331.5" font-family="Helvetica,sans-Serif" font-size="10.00" fill="#000000">/testTPCParameters.cxx</text>
</g>
<!-- Node1 -->
<g id="node2" class="node">
<title>Node1</title>
<polygon fill="none" stroke="#bfbfbf" points="0,-268.5 0,-287.5 132,-287.5 132,-268.5 0,-268.5"/>
<text text-anchor="middle" x="66" y="-275.5" font-family="Helvetica,sans-Serif" font-size="10.00" fill="#000000">boost/test/unit_test.hpp</text>
</g>
<!-- Node0&#45;&gt;Node1 -->
<g id="edge1" class="edge">
<title>Node0&#45;&gt;Node1</title>
<path fill="none" stroke="#191970" d="M470.4745,-339.9966C381.9708,-326.431 228.6024,-302.9232 138.2989,-289.0818"/>
<polygon fill="#191970" stroke="#191970" points="138.5614,-285.5812 128.1465,-287.5256 137.5007,-292.5004 138.5614,-285.5812"/>
</g>
<!-- Node2 -->
<g id="node3" class="node">
<title>Node2</title>
<g id="a_node3"><a xlink:href="../../db/dad/ParameterDetector_8h.html" target="_top" xlink:title="Definition of the parameter class for the detector. ">
<polygon fill="none" stroke="#000000" points="708.5,-268.5 708.5,-287.5 871.5,-287.5 871.5,-268.5 708.5,-268.5"/>
<text text-anchor="middle" x="790" y="-275.5" font-family="Helvetica,sans-Serif" font-size="10.00" fill="#000000">TPCBase/ParameterDetector.h</text>
</a>
</g>
</g>
<!-- Node0&#45;&gt;Node2 -->
<g id="edge2" class="edge">
<title>Node0&#45;&gt;Node2</title>
<path fill="none" stroke="#191970" d="M607.5869,-330.6891C652.2231,-317.7961 709.0456,-301.3833 747.3131,-290.3299"/>
<polygon fill="#191970" stroke="#191970" points="748.4696,-293.639 757.1056,-287.5014 746.527,-286.9139 748.4696,-293.639"/>
</g>
<!-- Node18 -->
<g id="node19" class="node">
<title>Node18</title>
<g id="a_node19"><a xlink:href="../../db/d2c/ConfigurableParam_8h.html" target="_top" xlink:title="CommonUtils/Configurable\lParam.h">
<polygon fill="none" stroke="#000000" points="370,-134.5 370,-164.5 518,-164.5 518,-134.5 370,-134.5"/>
<text text-anchor="start" x="378" y="-152.5" font-family="Helvetica,sans-Serif" font-size="10.00" fill="#000000">CommonUtils/Configurable</text>
<text text-anchor="middle" x="444" y="-141.5" font-family="Helvetica,sans-Serif" font-size="10.00" fill="#000000">Param.h</text>
</a>
</g>
</g>
<!-- Node0&#45;&gt;Node18 -->
<g id="edge46" class="edge">
<title>Node0&#45;&gt;Node18</title>
<path fill="none" stroke="#191970" d="M470.1268,-347.7462C378.6038,-342.5607 223.998,-327.9824 186,-288 159.2768,-259.8813 154.3249,-230.9321 179,-201 201.6963,-173.4683 291.1392,-160.4684 359.9017,-154.4536"/>
<polygon fill="#191970" stroke="#191970" points="360.2142,-157.9398 369.8865,-153.616 359.6289,-150.9643 360.2142,-157.9398"/>
</g>
<!-- Node25 -->
<g id="node26" class="node">
<title>Node25</title>
<g id="a_node26"><a xlink:href="../../da/d6b/ConfigurableParamHelper_8h.html" target="_top" xlink:title="CommonUtils/Configurable\lParamHelper.h">
<polygon fill="none" stroke="#000000" points="608,-201.5 608,-231.5 756,-231.5 756,-201.5 608,-201.5"/>
<text text-anchor="start" x="616" y="-219.5" font-family="Helvetica,sans-Serif" font-size="10.00" fill="#000000">CommonUtils/Configurable</text>
<text text-anchor="middle" x="682" y="-208.5" font-family="Helvetica,sans-Serif" font-size="10.00" fill="#000000">ParamHelper.h</text>
</a>
</g>
</g>
<!-- Node0&#45;&gt;Node25 -->
<g id="edge47" class="edge">
<title>Node0&#45;&gt;Node25</title>
<path fill="none" stroke="#191970" d="M607.5926,-347.9974C697.2452,-343.1184 846.8882,-328.9106 881,-288 886.6925,-281.173 886.4414,-275.0288 881,-268 866.5195,-249.295 813.6704,-236.152 766.0746,-227.8266"/>
<polygon fill="#191970" stroke="#191970" points="766.4576,-224.3417 756.0135,-226.1229 765.2888,-231.2435 766.4576,-224.3417"/>
</g>
<!-- Node29 -->
<g id="node30" class="node">
<title>Node29</title>
<g id="a_node30"><a xlink:href="../../d3/d47/ParameterElectronics_8h.html" target="_top" xlink:title="Definition of the parameter class for the detector electronics. ">
<polygon fill="none" stroke="#000000" points="195.5,-268.5 195.5,-287.5 370.5,-287.5 370.5,-268.5 195.5,-268.5"/>
<text text-anchor="middle" x="283" y="-275.5" font-family="Helvetica,sans-Serif" font-size="10.00" fill="#000000">TPCBase/ParameterElectronics.h</text>
</a>
</g>
</g>
<!-- Node0&#45;&gt;Node29 -->
<g id="edge32" class="edge">
<title>Node0&#45;&gt;Node29</title>
<path fill="none" stroke="#191970" d="M470.3967,-331.0713C424.618,-318.1067 365.8153,-301.4535 326.3978,-290.2904"/>
<polygon fill="#191970" stroke="#191970" points="327.1415,-286.8634 316.5662,-287.506 325.234,-293.5985 327.1415,-286.8634"/>
</g>
<!-- Node31 -->
<g id="node32" class="node">
<title>Node31</title>
<g id="a_node32"><a xlink:href="../../de/d2b/ParameterGEM_8h.html" target="_top" xlink:title="Definition of the parameter class for the GEM stack. ">
<polygon fill="none" stroke="#000000" points="547.5,-268.5 547.5,-287.5 690.5,-287.5 690.5,-268.5 547.5,-268.5"/>
<text text-anchor="middle" x="619" y="-275.5" font-family="Helvetica,sans-Serif" font-size="10.00" fill="#000000">TPCBase/ParameterGEM.h</text>
</a>
</g>
</g>
<!-- Node0&#45;&gt;Node31 -->
<g id="edge37" class="edge">
<title>Node0&#45;&gt;Node31</title>
<path fill="none" stroke="#191970" d="M567.8818,-324.3258C578.931,-314.3126 591.2095,-303.1851 600.9631,-294.346"/>
<polygon fill="#191970" stroke="#191970" points="603.4202,-296.8427 608.4797,-287.534 598.7195,-291.6558 603.4202,-296.8427"/>
</g>
<!-- Node32 -->
<g id="node33" class="node">
<title>Node32</title>
<g id="a_node33"><a xlink:href="../../db/d5b/ParameterGas_8h.html" target="_top" xlink:title="Definition of the parameter class for the detector gas. ">
<polygon fill="none" stroke="#000000" points="389,-268.5 389,-287.5 529,-287.5 529,-268.5 389,-268.5"/>
<text text-anchor="middle" x="459" y="-275.5" font-family="Helvetica,sans-Serif" font-size="10.00" fill="#000000">TPCBase/ParameterGas.h</text>
</a>
</g>
</g>
<!-- Node0&#45;&gt;Node32 -->
<g id="edge42" class="edge">
<title>Node0&#45;&gt;Node32</title>
<path fill="none" stroke="#191970" d="M510.1182,-324.3258C499.069,-314.3126 486.7905,-303.1851 477.0369,-294.346"/>
<polygon fill="#191970" stroke="#191970" points="479.2805,-291.6558 469.5203,-287.534 474.5798,-296.8427 479.2805,-291.6558"/>
</g>
<!-- Node33 -->
<g id="node34" class="node">
<title>Node33</title>
<g id="a_node34"><a xlink:href="../../d4/dee/SimConfig_8h.html" target="_top" xlink:title="SimConfig/SimConfig.h">
<polygon fill="none" stroke="#000000" points="1628,-268.5 1628,-287.5 1756,-287.5 1756,-268.5 1628,-268.5"/>
<text text-anchor="middle" x="1692" y="-275.5" font-family="Helvetica,sans-Serif" font-size="10.00" fill="#000000">SimConfig/SimConfig.h</text>
</a>
</g>
</g>
<!-- Node0&#45;&gt;Node33 -->
<g id="edge48" class="edge">
<title>Node0&#45;&gt;Node33</title>
<path fill="none" stroke="#191970" d="M607.6725,-346.1819C810.8711,-333.4049 1408.0408,-295.8552 1617.9801,-282.6543"/>
<polygon fill="#191970" stroke="#191970" points="1618.2191,-286.1463 1627.9797,-282.0256 1617.7797,-279.1601 1618.2191,-286.1463"/>
</g>
<!-- Node3 -->
<g id="node4" class="node">
<title>Node3</title>
<polygon fill="none" stroke="#bfbfbf" points="472,-207 472,-226 514,-226 514,-207 472,-207"/>
<text text-anchor="middle" x="493" y="-214" font-family="Helvetica,sans-Serif" font-size="10.00" fill="#000000">array</text>
</g>
<!-- Node2&#45;&gt;Node3 -->
<g id="edge3" class="edge">
<title>Node2&#45;&gt;Node3</title>
<path fill="none" stroke="#191970" d="M743.2176,-268.4876C697.8882,-259.2483 627.2076,-244.7826 566,-232 552.1899,-229.1159 536.9206,-225.881 523.932,-223.1155"/>
<polygon fill="#191970" stroke="#191970" points="524.5859,-219.6763 514.0758,-221.0139 523.1261,-226.5224 524.5859,-219.6763"/>
</g>
<!-- Node4 -->
<g id="node5" class="node">
<title>Node4</title>
<g id="a_node5"><a xlink:href="../../d1/d73/Defs_8h.html" target="_top" xlink:title="Common definitions for 2D coordinates. ">
<polygon fill="none" stroke="#000000" points="818.5,-207 818.5,-226 951.5,-226 951.5,-207 818.5,-207"/>
<text text-anchor="middle" x="885" y="-214" font-family="Helvetica,sans-Serif" font-size="10.00" fill="#000000">DataFormatsTPC/Defs.h</text>
</a>
</g>
</g>
<!-- Node2&#45;&gt;Node4 -->
<g id="edge4" class="edge">
<title>Node2&#45;&gt;Node4</title>
<path fill="none" stroke="#191970" d="M804.8438,-268.3906C820.0418,-258.5519 843.8848,-243.1167 861.6206,-231.6351"/>
<polygon fill="#191970" stroke="#191970" points="863.768,-234.4144 870.2605,-226.0419 859.9639,-228.5382 863.768,-234.4144"/>
</g>
<!-- Node2&#45;&gt;Node18 -->
<g id="edge19" class="edge">
<title>Node2&#45;&gt;Node18</title>
<path fill="none" stroke="#191970" d="M720.9693,-268.431C683.6098,-261.535 637.3858,-250.1588 599,-232 578.3495,-222.2311 577.6426,-212.6639 558,-201 537.2725,-188.6919 513.0872,-177.375 492.3395,-168.5038"/>
<polygon fill="#191970" stroke="#191970" points="493.6482,-165.2573 483.0735,-164.6051 490.9335,-171.7094 493.6482,-165.2573"/>
</g>
<!-- Node2&#45;&gt;Node25 -->
<g id="edge26" class="edge">
<title>Node2&#45;&gt;Node25</title>
<path fill="none" stroke="#191970" d="M773.125,-268.3906C758.2378,-259.9132 736.0543,-247.2809 717.3025,-236.6028"/>
<polygon fill="#191970" stroke="#191970" points="718.8416,-233.4516 708.4198,-231.5446 715.3777,-239.5345 718.8416,-233.4516"/>
</g>
<!-- Node5 -->
<g id="node6" class="node">
<title>Node5</title>
<polygon fill="none" stroke="#bfbfbf" points="811.5,-140 811.5,-159 858.5,-159 858.5,-140 811.5,-140"/>
<text text-anchor="middle" x="835" y="-147" font-family="Helvetica,sans-Serif" font-size="10.00" fill="#000000">cmath</text>
</g>
<!-- Node4&#45;&gt;Node5 -->
<g id="edge5" class="edge">
<title>Node4&#45;&gt;Node5</title>
<path fill="none" stroke="#191970" d="M877.8362,-206.9005C870.1134,-196.552 857.6524,-179.8542 848.1563,-167.1295"/>
<polygon fill="#191970" stroke="#191970" points="850.9364,-165.0027 842.1505,-159.0817 845.3264,-169.1893 850.9364,-165.0027"/>
</g>
<!-- Node6 -->
<g id="node7" class="node">
<title>Node6</title>
<g id="a_node7"><a xlink:href="../../d2/dd0/Cartesian2D_8h.html" target="_top" xlink:title="MathUtils/Cartesian2D.h">
<polygon fill="none" stroke="#000000" points="667.5,-73 667.5,-92 802.5,-92 802.5,-73 667.5,-73"/>
<text text-anchor="middle" x="735" y="-80" font-family="Helvetica,sans-Serif" font-size="10.00" fill="#000000">MathUtils/Cartesian2D.h</text>
</a>
</g>
</g>
<!-- Node4&#45;&gt;Node6 -->
<g id="edge6" class="edge">
<title>Node4&#45;&gt;Node6</title>
<path fill="none" stroke="#191970" d="M885.785,-206.8406C886.6114,-190.0113 885.8539,-155.0987 868,-134 856.2083,-120.0652 813.8798,-105.0981 780.1021,-94.9105"/>
<polygon fill="#191970" stroke="#191970" points="780.9687,-91.517 770.3868,-92.0388 778.9845,-98.2299 780.9687,-91.517"/>
</g>
<!-- Node9 -->
<g id="node10" class="node">
<title>Node9</title>
<g id="a_node10"><a xlink:href="../../dd/d76/Cartesian3D_8h.html" target="_top" xlink:title="MathUtils/Cartesian3D.h">
<polygon fill="none" stroke="#000000" points="1214.5,-140 1214.5,-159 1349.5,-159 1349.5,-140 1214.5,-140"/>
<text text-anchor="middle" x="1282" y="-147" font-family="Helvetica,sans-Serif" font-size="10.00" fill="#000000">MathUtils/Cartesian3D.h</text>
</a>
</g>
</g>
<!-- Node4&#45;&gt;Node9 -->
<g id="edge9" class="edge">
<title>Node4&#45;&gt;Node9</title>
<path fill="none" stroke="#191970" d="M941.4588,-206.9717C1013.6766,-194.7838 1138.5695,-173.7062 1215.3703,-160.7448"/>
<polygon fill="#191970" stroke="#191970" points="1216.1368,-164.165 1225.4149,-159.0496 1214.9719,-157.2626 1216.1368,-164.165"/>
</g>
<!-- Node7 -->
<g id="node8" class="node">
<title>Node7</title>
<polygon fill="none" stroke="#bfbfbf" points="555,-.5 555,-30.5 719,-30.5 719,-.5 555,-.5"/>
<text text-anchor="start" x="563" y="-18.5" font-family="Helvetica,sans-Serif" font-size="10.00" fill="#000000">Math/GenVector/Displacement</text>
<text text-anchor="middle" x="637" y="-7.5" font-family="Helvetica,sans-Serif" font-size="10.00" fill="#000000">Vector2D.h</text>
</g>
<!-- Node6&#45;&gt;Node7 -->
<g id="edge7" class="edge">
<title>Node6&#45;&gt;Node7</title>
<path fill="none" stroke="#191970" d="M720.959,-72.9005C707.0412,-63.3853 685.272,-48.5023 667.388,-36.2755"/>
<polygon fill="#191970" stroke="#191970" points="669.2026,-33.2763 658.9721,-30.5218 665.2519,-39.0549 669.2026,-33.2763"/>
</g>
<!-- Node8 -->
<g id="node9" class="node">
<title>Node8</title>
<polygon fill="none" stroke="#bfbfbf" points="737.5,-6 737.5,-25 926.5,-25 926.5,-6 737.5,-6"/>
<text text-anchor="middle" x="832" y="-13" font-family="Helvetica,sans-Serif" font-size="10.00" fill="#000000">Math/GenVector/PositionVector2D.h</text>
</g>
<!-- Node6&#45;&gt;Node8 -->
<g id="edge8" class="edge">
<title>Node6&#45;&gt;Node8</title>
<path fill="none" stroke="#191970" d="M748.8977,-72.9005C764.8164,-61.9052 791.1121,-43.7422 809.8599,-30.7927"/>
<polygon fill="#191970" stroke="#191970" points="811.8892,-33.6448 818.128,-25.0817 807.9108,-27.8852 811.8892,-33.6448"/>
</g>
<!-- Node9&#45;&gt;Node6 -->
<g id="edge18" class="edge">
<title>Node9&#45;&gt;Node6</title>
<path fill="none" stroke="#191970" d="M1214.4263,-144.0097C1122.8966,-136.137 954.5605,-120.1137 812,-98 804.5045,-96.8373 796.6309,-95.4481 788.8975,-93.9857"/>
<polygon fill="#191970" stroke="#191970" points="789.3394,-90.5062 778.8553,-92.0339 788.0039,-97.3776 789.3394,-90.5062"/>
</g>
<!-- Node10 -->
<g id="node11" class="node">
<title>Node10</title>
<polygon fill="none" stroke="#bfbfbf" points="1367,-67.5 1367,-97.5 1531,-97.5 1531,-67.5 1367,-67.5"/>
<text text-anchor="start" x="1375" y="-85.5" font-family="Helvetica,sans-Serif" font-size="10.00" fill="#000000">Math/GenVector/Displacement</text>
<text text-anchor="middle" x="1449" y="-74.5" font-family="Helvetica,sans-Serif" font-size="10.00" fill="#000000">Vector3D.h</text>
</g>
<!-- Node9&#45;&gt;Node10 -->
<g id="edge10" class="edge">
<title>Node9&#45;&gt;Node10</title>
<path fill="none" stroke="#191970" d="M1305.927,-139.9005C1330.9377,-129.8663 1370.8272,-113.8627 1402.1409,-101.2997"/>
<polygon fill="#191970" stroke="#191970" points="1403.58,-104.4936 1411.5577,-97.5218 1400.9735,-97.997 1403.58,-104.4936"/>
</g>
<!-- Node11 -->
<g id="node12" class="node">
<title>Node11</title>
<polygon fill="none" stroke="#bfbfbf" points="1549.5,-73 1549.5,-92 1738.5,-92 1738.5,-73 1549.5,-73"/>
<text text-anchor="middle" x="1644" y="-80" font-family="Helvetica,sans-Serif" font-size="10.00" fill="#000000">Math/GenVector/PositionVector3D.h</text>
</g>
<!-- Node9&#45;&gt;Node11 -->
<g id="edge11" class="edge">
<title>Node9&#45;&gt;Node11</title>
<path fill="none" stroke="#191970" d="M1333.4813,-139.9717C1399.0635,-127.8335 1512.2857,-106.8781 1582.3847,-93.9039"/>
<polygon fill="#191970" stroke="#191970" points="1583.2075,-97.3112 1592.4035,-92.0496 1581.9335,-90.4281 1583.2075,-97.3112"/>
</g>
<!-- Node12 -->
<g id="node13" class="node">
<title>Node12</title>
<polygon fill="none" stroke="#bfbfbf" points="1757,-73 1757,-92 1917,-92 1917,-73 1757,-73"/>
<text text-anchor="middle" x="1837" y="-80" font-family="Helvetica,sans-Serif" font-size="10.00" fill="#000000">Math/GenVector/Rotation3D.h</text>
</g>
<!-- Node9&#45;&gt;Node12 -->
<g id="edge12" class="edge">
<title>Node9&#45;&gt;Node12</title>
<path fill="none" stroke="#191970" d="M1349.6916,-143.3545C1440.5224,-134.8034 1606.7753,-118.0815 1748,-98 1756.8945,-96.7352 1766.2645,-95.2605 1775.4519,-93.7329"/>
<polygon fill="#191970" stroke="#191970" points="1776.0432,-97.1827 1785.3185,-92.0622 1774.8744,-90.281 1776.0432,-97.1827"/>
</g>
<!-- Node13 -->
<g id="node14" class="node">
<title>Node13</title>
<polygon fill="none" stroke="#bfbfbf" points="821,-73 821,-92 989,-92 989,-73 821,-73"/>
<text text-anchor="middle" x="905" y="-80" font-family="Helvetica,sans-Serif" font-size="10.00" fill="#000000">Math/GenVector/Transform3D.h</text>
</g>
<!-- Node9&#45;&gt;Node13 -->
<g id="edge13" class="edge">
<title>Node9&#45;&gt;Node13</title>
<path fill="none" stroke="#191970" d="M1228.3855,-139.9717C1159.9458,-127.8087 1041.6886,-106.7921 968.7201,-93.8243"/>
<polygon fill="#191970" stroke="#191970" points="969.1926,-90.3535 958.7345,-92.0496 967.9677,-97.2455 969.1926,-90.3535"/>
</g>
<!-- Node14 -->
<g id="node15" class="node">
<title>Node14</title>
<polygon fill="none" stroke="#bfbfbf" points="1007.5,-73 1007.5,-92 1180.5,-92 1180.5,-73 1007.5,-73"/>
<text text-anchor="middle" x="1094" y="-80" font-family="Helvetica,sans-Serif" font-size="10.00" fill="#000000">Math/GenVector/Translation3D.h</text>
</g>
<!-- Node9&#45;&gt;Node14 -->
<g id="edge14" class="edge">
<title>Node9&#45;&gt;Node14</title>
<path fill="none" stroke="#191970" d="M1255.0642,-139.9005C1222.3967,-128.2584 1167.1812,-108.5805 1130.6575,-95.5641"/>
<polygon fill="#191970" stroke="#191970" points="1131.4805,-92.1418 1120.8858,-92.0817 1129.1306,-98.7356 1131.4805,-92.1418"/>
</g>
<!-- Node15 -->
<g id="node16" class="node">
<title>Node15</title>
<polygon fill="none" stroke="#bfbfbf" points="1935.5,-73 1935.5,-92 1994.5,-92 1994.5,-73 1935.5,-73"/>
<text text-anchor="middle" x="1965" y="-80" font-family="Helvetica,sans-Serif" font-size="10.00" fill="#000000">Rtypes.h</text>
</g>
<!-- Node9&#45;&gt;Node15 -->
<g id="edge15" class="edge">
<title>Node9&#45;&gt;Node15</title>
<path fill="none" stroke="#191970" d="M1349.539,-146.6497C1491.7543,-140.2317 1817.8592,-123.2117 1926,-98 1928.8605,-97.3331 1931.7871,-96.4919 1934.6882,-95.5478"/>
<polygon fill="#191970" stroke="#191970" points="1936.1179,-98.7522 1944.3197,-92.0454 1933.7257,-92.1737 1936.1179,-98.7522"/>
</g>
<!-- Node16 -->
<g id="node17" class="node">
<title>Node16</title>
<polygon fill="none" stroke="#bfbfbf" points="1199,-73 1199,-92 1281,-92 1281,-73 1199,-73"/>
<text text-anchor="middle" x="1240" y="-80" font-family="Helvetica,sans-Serif" font-size="10.00" fill="#000000">TGeoMatrix.h</text>
</g>
<!-- Node9&#45;&gt;Node16 -->
<g id="edge16" class="edge">
<title>Node9&#45;&gt;Node16</title>
<path fill="none" stroke="#191970" d="M1275.9824,-139.9005C1269.62,-129.751 1259.4291,-113.4941 1251.5142,-100.8679"/>
<polygon fill="#191970" stroke="#191970" points="1254.2833,-98.6956 1246.0064,-92.0817 1248.3523,-102.4135 1254.2833,-98.6956"/>
</g>
<!-- Node17 -->
<g id="node18" class="node">
<title>Node17</title>
<polygon fill="none" stroke="#bfbfbf" points="1299.5,-73 1299.5,-92 1348.5,-92 1348.5,-73 1299.5,-73"/>
<text text-anchor="middle" x="1324" y="-80" font-family="Helvetica,sans-Serif" font-size="10.00" fill="#000000">iosfwd</text>
</g>
<!-- Node9&#45;&gt;Node17 -->
<g id="edge17" class="edge">
<title>Node9&#45;&gt;Node17</title>
<path fill="none" stroke="#191970" d="M1288.0176,-139.9005C1294.38,-129.751 1304.5709,-113.4941 1312.4858,-100.8679"/>
<polygon fill="#191970" stroke="#191970" points="1315.6477,-102.4135 1317.9936,-92.0817 1309.7167,-98.6956 1315.6477,-102.4135"/>
</g>
<!-- Node19 -->
<g id="node20" class="node">
<title>Node19</title>
<polygon fill="none" stroke="#bfbfbf" points="359.5,-73 359.5,-92 406.5,-92 406.5,-73 359.5,-73"/>
<text text-anchor="middle" x="383" y="-80" font-family="Helvetica,sans-Serif" font-size="10.00" fill="#000000">vector</text>
</g>
<!-- Node18&#45;&gt;Node19 -->
<g id="edge20" class="edge">
<title>Node18&#45;&gt;Node19</title>
<path fill="none" stroke="#191970" d="M430.1582,-134.2967C420.7463,-123.9591 408.2817,-110.2684 398.5311,-99.5588"/>
<polygon fill="#191970" stroke="#191970" points="401.0196,-97.0931 391.6993,-92.055 395.8435,-101.8057 401.0196,-97.0931"/>
</g>
<!-- Node20 -->
<g id="node21" class="node">
<title>Node20</title>
<polygon fill="none" stroke="#bfbfbf" points="425,-73 425,-92 463,-92 463,-73 425,-73"/>
<text text-anchor="middle" x="444" y="-80" font-family="Helvetica,sans-Serif" font-size="10.00" fill="#000000">map</text>
</g>
<!-- Node18&#45;&gt;Node20 -->
<g id="edge21" class="edge">
<title>Node18&#45;&gt;Node20</title>
<path fill="none" stroke="#191970" d="M444,-134.2967C444,-124.7699 444,-112.3954 444,-102.1306"/>
<polygon fill="#191970" stroke="#191970" points="447.5001,-102.0549 444,-92.055 440.5001,-102.055 447.5001,-102.0549"/>
</g>
<!-- Node21 -->
<g id="node22" class="node">
<title>Node21</title>
<polygon fill="none" stroke="#bfbfbf" points="481.5,-73 481.5,-92 574.5,-92 574.5,-73 481.5,-73"/>
<text text-anchor="middle" x="528" y="-80" font-family="Helvetica,sans-Serif" font-size="10.00" fill="#000000">unordered_map</text>
</g>
<!-- Node18&#45;&gt;Node21 -->
<g id="edge22" class="edge">
<title>Node18&#45;&gt;Node21</title>
<path fill="none" stroke="#191970" d="M463.0609,-134.2967C476.5297,-123.5537 494.5385,-109.1895 508.1748,-98.3129"/>
<polygon fill="#191970" stroke="#191970" points="510.3853,-101.0268 516.0206,-92.055 506.0204,-95.5544 510.3853,-101.0268"/>
</g>
<!-- Node22 -->
<g id="node23" class="node">
<title>Node22</title>
<polygon fill="none" stroke="#bfbfbf" points="149.5,-67.5 149.5,-97.5 262.5,-97.5 262.5,-67.5 149.5,-67.5"/>
<text text-anchor="start" x="157.5" y="-85.5" font-family="Helvetica,sans-Serif" font-size="10.00" fill="#000000">boost/property_tree</text>
<text text-anchor="middle" x="206" y="-74.5" font-family="Helvetica,sans-Serif" font-size="10.00" fill="#000000">/ptree.hpp</text>
</g>
<!-- Node18&#45;&gt;Node22 -->
<g id="edge23" class="edge">
<title>Node18&#45;&gt;Node22</title>
<path fill="none" stroke="#191970" d="M390.5882,-134.4639C354.7326,-124.3701 307.3241,-111.024 269.5311,-100.3848"/>
<polygon fill="#191970" stroke="#191970" points="270.2191,-96.9425 259.6448,-97.6017 268.3222,-103.6806 270.2191,-96.9425"/>
</g>
<!-- Node23 -->
<g id="node24" class="node">
<title>Node23</title>
<polygon fill="none" stroke="#bfbfbf" points="592.5,-73 592.5,-92 649.5,-92 649.5,-73 592.5,-73"/>
<text text-anchor="middle" x="621" y="-80" font-family="Helvetica,sans-Serif" font-size="10.00" fill="#000000">typeinfo</text>
</g>
<!-- Node18&#45;&gt;Node23 -->
<g id="edge24" class="edge">
<title>Node18&#45;&gt;Node23</title>
<path fill="none" stroke="#191970" d="M485.7978,-134.415C513.4648,-124.3314 550.5022,-110.6443 583,-98 584.6434,-97.3606 586.3242,-96.6999 588.0199,-96.0281"/>
<polygon fill="#191970" stroke="#191970" points="589.7593,-99.1014 597.7361,-92.1286 587.152,-92.6051 589.7593,-99.1014"/>
</g>
<!-- Node24 -->
<g id="node25" class="node">
<title>Node24</title>
<polygon fill="none" stroke="#bfbfbf" points="281,-73 281,-92 341,-92 341,-73 281,-73"/>
<text text-anchor="middle" x="311" y="-80" font-family="Helvetica,sans-Serif" font-size="10.00" fill="#000000">iostream</text>
</g>
<!-- Node18&#45;&gt;Node24 -->
<g id="edge25" class="edge">
<title>Node18&#45;&gt;Node24</title>
<path fill="none" stroke="#191970" d="M414.1522,-134.4639C391.736,-123.1715 361.2394,-107.8086 339.2262,-96.7192"/>
<polygon fill="#191970" stroke="#191970" points="340.57,-93.4772 330.0645,-92.1039 337.4207,-99.7287 340.57,-93.4772"/>
</g>
<!-- Node25&#45;&gt;Node18 -->
<g id="edge27" class="edge">
<title>Node25&#45;&gt;Node18</title>
<path fill="none" stroke="#191970" d="M628.5882,-201.4639C592.7326,-191.3701 545.3241,-178.024 507.5311,-167.3848"/>
<polygon fill="#191970" stroke="#191970" points="508.2191,-163.9425 497.6448,-164.6017 506.3222,-170.6806 508.2191,-163.9425"/>
</g>
<!-- Node25&#45;&gt;Node23 -->
<g id="edge30" class="edge">
<title>Node25&#45;&gt;Node23</title>
<path fill="none" stroke="#191970" d="M666.2848,-201.1434C657.3223,-191.5409 646.5946,-178.4709 640,-165 630.1397,-144.8583 625.2838,-119.4197 622.9695,-102.1531"/>
<polygon fill="#191970" stroke="#191970" points="626.4341,-101.6464 621.7887,-92.1243 619.4822,-102.465 626.4341,-101.6464"/>
</g>
<!-- Node26 -->
<g id="node27" class="node">
<title>Node26</title>
<polygon fill="none" stroke="#bfbfbf" points="649.5,-140 649.5,-159 706.5,-159 706.5,-140 649.5,-140"/>
<text text-anchor="middle" x="678" y="-147" font-family="Helvetica,sans-Serif" font-size="10.00" fill="#000000">TClass.h</text>
</g>
<!-- Node25&#45;&gt;Node26 -->
<g id="edge28" class="edge">
<title>Node25&#45;&gt;Node26</title>
<path fill="none" stroke="#191970" d="M681.0923,-201.2967C680.5236,-191.7699 679.7848,-179.3954 679.172,-169.1306"/>
<polygon fill="#191970" stroke="#191970" points="682.6603,-168.8286 678.5704,-159.055 675.6727,-169.2458 682.6603,-168.8286"/>
</g>
<!-- Node27 -->
<g id="node28" class="node">
<title>Node27</title>
<polygon fill="none" stroke="#bfbfbf" points="724.5,-140 724.5,-159 793.5,-159 793.5,-140 724.5,-140"/>
<text text-anchor="middle" x="759" y="-147" font-family="Helvetica,sans-Serif" font-size="10.00" fill="#000000">type_traits</text>
</g>
<!-- Node25&#45;&gt;Node27 -->
<g id="edge29" class="edge">
<title>Node25&#45;&gt;Node27</title>
<path fill="none" stroke="#191970" d="M699.4725,-201.2967C711.7024,-190.6551 728.0159,-176.4602 740.4721,-165.6217"/>
<polygon fill="#191970" stroke="#191970" points="742.7724,-168.2596 748.0189,-159.055 738.1775,-162.9788 742.7724,-168.2596"/>
</g>
<!-- Node28 -->
<g id="node29" class="node">
<title>Node28</title>
<polygon fill="none" stroke="#bfbfbf" points="545,-140 545,-159 593,-159 593,-140 545,-140"/>
<text text-anchor="middle" x="569" y="-147" font-family="Helvetica,sans-Serif" font-size="10.00" fill="#000000">TFile.h</text>
</g>
<!-- Node25&#45;&gt;Node28 -->
<g id="edge31" class="edge">
<title>Node25&#45;&gt;Node28</title>
<path fill="none" stroke="#191970" d="M656.6406,-201.4639C637.9369,-190.3741 612.6119,-175.3584 593.995,-164.32"/>
<polygon fill="#191970" stroke="#191970" points="595.5844,-161.1935 585.1977,-159.1039 592.0143,-167.2147 595.5844,-161.1935"/>
</g>
<!-- Node29&#45;&gt;Node3 -->
<g id="edge33" class="edge">
<title>Node29&#45;&gt;Node3</title>
<path fill="none" stroke="#191970" d="M315.8125,-268.3906C355.8403,-256.6682 422.9957,-237.0013 462.124,-225.5423"/>
<polygon fill="#191970" stroke="#191970" points="463.2897,-228.848 471.9029,-222.6784 461.3223,-222.1301 463.2897,-228.848"/>
</g>
<!-- Node29&#45;&gt;Node18 -->
<g id="edge34" class="edge">
<title>Node29&#45;&gt;Node18</title>
<path fill="none" stroke="#191970" d="M316.4958,-268.4376C338.2556,-261.031 366.3144,-249.1185 387,-232 406.2378,-216.0796 421.8122,-192.0997 431.7889,-174.0899"/>
<polygon fill="#191970" stroke="#191970" points="435.1315,-175.2592 436.7433,-164.7877 428.9532,-171.9686 435.1315,-175.2592"/>
</g>
<!-- Node29&#45;&gt;Node25 -->
<g id="edge35" class="edge">
<title>Node29&#45;&gt;Node25</title>
<path fill="none" stroke="#191970" d="M344.906,-268.4581C412.779,-257.9965 522.0797,-241.1494 597.7349,-229.4882"/>
<polygon fill="#191970" stroke="#191970" points="598.3648,-232.9326 607.7149,-227.95 597.2984,-226.0143 598.3648,-232.9326"/>
</g>
<!-- Node30 -->
<g id="node31" class="node">
<title>Node30</title>
<g id="a_node31"><a xlink:href="../../d4/dc6/LHCConstants_8h.html" target="_top" xlink:title="Header to collect LHC related constants. ">
<polygon fill="none" stroke="#000000" points="188,-207 188,-226 378,-226 378,-207 188,-207"/>
<text text-anchor="middle" x="283" y="-214" font-family="Helvetica,sans-Serif" font-size="10.00" fill="#000000">CommonConstants/LHCConstants.h</text>
</a>
</g>
</g>
<!-- Node29&#45;&gt;Node30 -->
<g id="edge36" class="edge">
<title>Node29&#45;&gt;Node30</title>
<path fill="none" stroke="#191970" d="M283,-268.3906C283,-259.8657 283,-247.1392 283,-236.4235"/>
<polygon fill="#191970" stroke="#191970" points="286.5001,-236.2448 283,-226.2449 279.5001,-236.2449 286.5001,-236.2448"/>
</g>
<!-- Node31&#45;&gt;Node3 -->
<g id="edge38" class="edge">
<title>Node31&#45;&gt;Node3</title>
<path fill="none" stroke="#191970" d="M599.3125,-268.3906C578.5078,-258.2359 545.489,-242.1196 521.7681,-230.5416"/>
<polygon fill="#191970" stroke="#191970" points="523.0712,-227.283 512.5493,-226.0419 520.0007,-233.5736 523.0712,-227.283"/>
</g>
<!-- Node31&#45;&gt;Node5 -->
<g id="edge39" class="edge">
<title>Node31&#45;&gt;Node5</title>
<path fill="none" stroke="#191970" d="M673.5249,-268.4626C702.4358,-261.5922 737.548,-250.23 765,-232 790.4339,-215.1101 811.7894,-186.4101 823.9925,-167.7056"/>
<polygon fill="#191970" stroke="#191970" points="826.9918,-169.5109 829.3693,-159.1863 821.0722,-165.7748 826.9918,-169.5109"/>
</g>
<!-- Node31&#45;&gt;Node18 -->
<g id="edge40" class="edge">
<title>Node31&#45;&gt;Node18</title>
<path fill="none" stroke="#191970" d="M607.7579,-268.3822C590.1151,-253.4275 554.6651,-223.9355 523,-201 508.2862,-190.3425 491.4845,-179.2478 477.1697,-170.0973"/>
<polygon fill="#191970" stroke="#191970" points="478.938,-167.0742 468.619,-164.6724 475.1879,-172.985 478.938,-167.0742"/>
</g>
<!-- Node31&#45;&gt;Node25 -->
<g id="edge41" class="edge">
<title>Node31&#45;&gt;Node25</title>
<path fill="none" stroke="#191970" d="M628.8438,-268.3906C636.9753,-260.4527 648.8386,-248.8718 659.2959,-238.6635"/>
<polygon fill="#191970" stroke="#191970" points="661.8776,-241.0345 666.5885,-231.5446 656.9878,-236.0255 661.8776,-241.0345"/>
</g>
<!-- Node32&#45;&gt;Node3 -->
<g id="edge43" class="edge">
<title>Node32&#45;&gt;Node3</title>
<path fill="none" stroke="#191970" d="M464.3125,-268.3906C469.2239,-259.5068 476.6579,-246.0601 482.7275,-235.0811"/>
<polygon fill="#191970" stroke="#191970" points="485.8373,-236.6899 487.6126,-226.2449 479.7112,-233.3031 485.8373,-236.6899"/>
</g>
<!-- Node32&#45;&gt;Node18 -->
<g id="edge44" class="edge">
<title>Node32&#45;&gt;Node18</title>
<path fill="none" stroke="#191970" d="M457.8726,-268.3416C455.5768,-248.6745 450.2944,-203.4221 446.9508,-174.7784"/>
<polygon fill="#191970" stroke="#191970" points="450.4104,-174.2283 445.7745,-164.7016 443.4576,-175.04 450.4104,-174.2283"/>
</g>
<!-- Node32&#45;&gt;Node25 -->
<g id="edge45" class="edge">
<title>Node32&#45;&gt;Node25</title>
<path fill="none" stroke="#191970" d="M493.8438,-268.3906C526.8884,-259.2774 577.3434,-245.3627 617.6897,-234.2358"/>
<polygon fill="#191970" stroke="#191970" points="618.7385,-237.5773 627.4481,-231.5446 616.8774,-230.8292 618.7385,-237.5773"/>
</g>
<!-- Node33&#45;&gt;Node15 -->
<g id="edge49" class="edge">
<title>Node33&#45;&gt;Node15</title>
<path fill="none" stroke="#191970" d="M1691.8367,-268.3144C1692.0755,-252.4665 1694.7356,-220.7829 1711,-201 1726.1377,-182.5875 1866.9039,-122.9397 1932.1193,-95.9659"/>
<polygon fill="#191970" stroke="#191970" points="1933.6288,-99.1294 1941.5382,-92.0801 1930.9592,-92.6584 1933.6288,-99.1294"/>
</g>
<!-- Node34 -->
<g id="node35" class="node">
<title>Node34</title>
<polygon fill="none" stroke="#bfbfbf" points="1720,-207 1720,-226 1870,-226 1870,-207 1720,-207"/>
<text text-anchor="middle" x="1795" y="-214" font-family="Helvetica,sans-Serif" font-size="10.00" fill="#000000">boost/program_options.hpp</text>
</g>
<!-- Node33&#45;&gt;Node34 -->
<g id="edge50" class="edge">
<title>Node33&#45;&gt;Node34</title>
<path fill="none" stroke="#191970" d="M1708.0938,-268.3906C1724.7228,-258.4616 1750.8976,-242.833 1770.1794,-231.3201"/>
<polygon fill="#191970" stroke="#191970" points="1772.2276,-234.1736 1779.0193,-226.0419 1768.639,-228.1634 1772.2276,-234.1736"/>
</g>
</g>
</svg>
        <g id="navigator" transform="translate(0 0)" fill="#404254">
                <rect fill="#f2f5e9" fill-opacity="0.5" stroke="#606060" stroke-width=".5" x="0" y="0" width="60" height="60"/>
                <use id="zoomplus" xlink:href="#zoomPlus" x="17" y="9" onmousedown="handleZoom(evt,'in')"/>
                <use id="zoomminus" xlink:href="#zoomMin" x="42" y="9" onmousedown="handleZoom(evt,'out')"/>
                <use id="reset" xlink:href="#resetDef" x="30" y="36" onmousedown="handleReset()"/>
                <g id="arrowUp" xlink:href="#dirArrow" transform="translate(30 24)" onmousedown="handlePan(0,-1)">
                  <use xlink:href="#rim" fill="#404040">
                        <set attributeName="fill" to="#808080" begin="arrowUp.mouseover" end="arrowUp.mouseout"/>
                  </use>
                  <path fill="none" stroke="white" stroke-width="1.5" d="M0,-3.0v7 M-2.5,-0.5L0,-3.0L2.5,-0.5"/>
                </g>
                <g id="arrowRight" xlink:href="#dirArrow" transform="rotate(90) translate(36 -43)" onmousedown="handlePan(1,0)">
                  <use xlink:href="#rim" fill="#404040">
                        <set attributeName="fill" to="#808080" begin="arrowRight.mouseover" end="arrowRight.mouseout"/>
                  </use>
                  <path fill="none" stroke="white" stroke-width="1.5" d="M0,-3.0v7 M-2.5,-0.5L0,-3.0L2.5,-0.5"/>
                </g>
                <g id="arrowDown" xlink:href="#dirArrow" transform="rotate(180) translate(-30 -48)" onmousedown="handlePan(0,1)">
                  <use xlink:href="#rim" fill="#404040">
                        <set attributeName="fill" to="#808080" begin="arrowDown.mouseover" end="arrowDown.mouseout"/>
                  </use>
                  <path fill="none" stroke="white" stroke-width="1.5" d="M0,-3.0v7 M-2.5,-0.5L0,-3.0L2.5,-0.5"/>
                </g>
                <g id="arrowLeft" xlink:href="#dirArrow" transform="rotate(270) translate(-36 17)" onmousedown="handlePan(-1,0)">
                  <use xlink:href="#rim" fill="#404040">
                        <set attributeName="fill" to="#808080" begin="arrowLeft.mouseover" end="arrowLeft.mouseout"/>
                  </use>
                  <path fill="none" stroke="white" stroke-width="1.5" d="M0,-3.0v7 M-2.5,-0.5L0,-3.0L2.5,-0.5"/>
                </g>
        </g>
        <svg viewBox="0 0 15 15" width="100%" height="30px" preserveAspectRatio="xMaxYMin meet">
         <g id="arrow_out" transform="scale(0.3 0.3)">
          <a xlink:href="testTPCParameters_8cxx__incl_org.svg" target="_base">
           <rect id="button" ry="5" rx="5" y="6" x="6" height="38" width="38"
                fill="#f2f5e9" fill-opacity="0.5" stroke="#606060" stroke-width="1.0"/>
           <path id="arrow"
             d="M 11.500037,31.436501 C 11.940474,20.09759 22.043105,11.32322 32.158766,21.979434 L 37.068811,17.246167 C 37.068811,17.246167 37.088388,32 37.088388,32 L 22.160133,31.978069 C 22.160133,31.978069 26.997745,27.140456 26.997745,27.140456 C 18.528582,18.264221 13.291696,25.230495 11.500037,31.436501 z"
             style="fill:#404040;"/>
          </a>
         </g>
        </svg>
</svg>
