<?xml version="1.0" encoding="UTF-8" standalone="no"?>
<!DOCTYPE svg PUBLIC "-//W3C//DTD SVG 1.1//EN"
 "http://www.w3.org/Graphics/SVG/1.1/DTD/svg11.dtd">
<!-- Generated by graphviz version 2.40.1 (20161225.0304)
 -->
<!-- Title: /home/travis/build/AliceO2Group/AliceO2/Analysis/DataModel/include/Analysis/EventSelection.h Pages: 1 -->
<svg width="2017pt" height="150pt"
 viewBox="0.00 0.00 2016.50 150.00" xmlns="http://www.w3.org/2000/svg" xmlns:xlink="http://www.w3.org/1999/xlink">
<g id="graph0" class="graph" transform="scale(1 1) rotate(0) translate(4 146)">
<title>/home/travis/build/AliceO2Group/AliceO2/Analysis/DataModel/include/Analysis/EventSelection.h</title>
<!-- Node44 -->
<g id="node1" class="node">
<title>Node44</title>
<polygon fill="#bfbfbf" stroke="#000000" points="942.5,-89.5 942.5,-141.5 1097.5,-141.5 1097.5,-89.5 942.5,-89.5"/>
<text text-anchor="start" x="950.5" y="-129.5" font-family="Helvetica,sans-Serif" font-size="10.00" fill="#000000">/home/travis/build</text>
<text text-anchor="start" x="950.5" y="-118.5" font-family="Helvetica,sans-Serif" font-size="10.00" fill="#000000">/AliceO2Group/AliceO2</text>
<text text-anchor="start" x="950.5" y="-107.5" font-family="Helvetica,sans-Serif" font-size="10.00" fill="#000000">/Analysis/DataModel/include</text>
<text text-anchor="middle" x="1020" y="-96.5" font-family="Helvetica,sans-Serif" font-size="10.00" fill="#000000">/Analysis/EventSelection.h</text>
</g>
<!-- Node45 -->
<g id="node2" class="node">
<title>Node45</title>
<g id="a_node2"><a xlink:href="../../d5/d75/centralityQa_8cxx.html" target="_top" xlink:title="/home/travis/build\l/AliceO2Group/AliceO2\l/Analysis/Tasks/centralityQa.cxx">
<polygon fill="none" stroke="#000000" points="0,-6 0,-47 174,-47 174,-6 0,-6"/>
<text text-anchor="start" x="8" y="-35" font-family="Helvetica,sans-Serif" font-size="10.00" fill="#000000">/home/travis/build</text>
<text text-anchor="start" x="8" y="-24" font-family="Helvetica,sans-Serif" font-size="10.00" fill="#000000">/AliceO2Group/AliceO2</text>
<text text-anchor="middle" x="87" y="-13" font-family="Helvetica,sans-Serif" font-size="10.00" fill="#000000">/Analysis/Tasks/centralityQa.cxx</text>
</a>
</g>
</g>
<!-- Node44&#45;&gt;Node45 -->
<g id="edge1" class="edge">
<title>Node44&#45;&gt;Node45</title>
<path fill="none" stroke="#191970" d="M932.1396,-111.1131C747.6061,-101.5435 325.0495,-77.6667 183,-53 173.8862,-51.4174 164.389,-49.3389 155.0666,-47.0409"/>
<polygon fill="#191970" stroke="#191970" points="932.1797,-114.6197 942.347,-111.6404 932.5409,-107.629 932.1797,-114.6197"/>
</g>
<!-- Node46 -->
<g id="node3" class="node">
<title>Node46</title>
<g id="a_node3"><a xlink:href="../../df/d59/correlationsCollection_8cxx.html" target="_top" xlink:title="/home/travis/build\l/AliceO2Group/AliceO2\l/Analysis/Tasks/correlations\lCollection.cxx">
<polygon fill="none" stroke="#000000" points="192,-.5 192,-52.5 344,-52.5 344,-.5 192,-.5"/>
<text text-anchor="start" x="200" y="-40.5" font-family="Helvetica,sans-Serif" font-size="10.00" fill="#000000">/home/travis/build</text>
<text text-anchor="start" x="200" y="-29.5" font-family="Helvetica,sans-Serif" font-size="10.00" fill="#000000">/AliceO2Group/AliceO2</text>
<text text-anchor="start" x="200" y="-18.5" font-family="Helvetica,sans-Serif" font-size="10.00" fill="#000000">/Analysis/Tasks/correlations</text>
<text text-anchor="middle" x="268" y="-7.5" font-family="Helvetica,sans-Serif" font-size="10.00" fill="#000000">Collection.cxx</text>
</a>
</g>
</g>
<!-- Node44&#45;&gt;Node46 -->
<g id="edge2" class="edge">
<title>Node44&#45;&gt;Node46</title>
<path fill="none" stroke="#191970" d="M932.3002,-113.1047C803.967,-108.2904 557.9904,-94.0891 353,-53 350.1204,-52.4228 347.1999,-51.7853 344.2607,-51.0996"/>
<polygon fill="#191970" stroke="#191970" points="932.3435,-116.6085 942.4645,-113.4755 932.5988,-109.6132 932.3435,-116.6085"/>
</g>
<!-- Node47 -->
<g id="node4" class="node">
<title>Node47</title>
<g id="a_node4"><a xlink:href="../../d4/d39/correlationsMixed_8cxx.html" target="_top" xlink:title="/home/travis/build\l/AliceO2Group/AliceO2\l/Analysis/Tasks/correlations\lMixed.cxx">
<polygon fill="none" stroke="#000000" points="362,-.5 362,-52.5 514,-52.5 514,-.5 362,-.5"/>
<text text-anchor="start" x="370" y="-40.5" font-family="Helvetica,sans-Serif" font-size="10.00" fill="#000000">/home/travis/build</text>
<text text-anchor="start" x="370" y="-29.5" font-family="Helvetica,sans-Serif" font-size="10.00" fill="#000000">/AliceO2Group/AliceO2</text>
<text text-anchor="start" x="370" y="-18.5" font-family="Helvetica,sans-Serif" font-size="10.00" fill="#000000">/Analysis/Tasks/correlations</text>
<text text-anchor="middle" x="438" y="-7.5" font-family="Helvetica,sans-Serif" font-size="10.00" fill="#000000">Mixed.cxx</text>
</a>
</g>
</g>
<!-- Node44&#45;&gt;Node47 -->
<g id="edge3" class="edge">
<title>Node44&#45;&gt;Node47</title>
<path fill="none" stroke="#191970" d="M932.177,-109.1862C832.2386,-100.9115 664.5294,-83.7073 523,-53 520.1299,-52.3773 517.2175,-51.701 514.2851,-50.9826"/>
<polygon fill="#191970" stroke="#191970" points="931.9783,-112.6816 942.2301,-110.0073 932.5482,-105.7048 931.9783,-112.6816"/>
</g>
<!-- Node48 -->
<g id="node5" class="node">
<title>Node48</title>
<g id="a_node5"><a xlink:href="../../d9/df1/eventSelection_8cxx.html" target="_top" xlink:title="/home/travis/build\l/AliceO2Group/AliceO2\l/Analysis/Tasks/eventSelection.cxx">
<polygon fill="none" stroke="#000000" points="532.5,-6 532.5,-47 719.5,-47 719.5,-6 532.5,-6"/>
<text text-anchor="start" x="540.5" y="-35" font-family="Helvetica,sans-Serif" font-size="10.00" fill="#000000">/home/travis/build</text>
<text text-anchor="start" x="540.5" y="-24" font-family="Helvetica,sans-Serif" font-size="10.00" fill="#000000">/AliceO2Group/AliceO2</text>
<text text-anchor="middle" x="626" y="-13" font-family="Helvetica,sans-Serif" font-size="10.00" fill="#000000">/Analysis/Tasks/eventSelection.cxx</text>
</a>
</g>
</g>
<!-- Node44&#45;&gt;Node48 -->
<g id="edge4" class="edge">
<title>Node44&#45;&gt;Node48</title>
<path fill="none" stroke="#191970" d="M932.4486,-97.7933C874.3314,-85.7856 796.4332,-69.2053 728,-53 720.0773,-51.1239 711.8269,-49.0992 703.6022,-47.0345"/>
<polygon fill="#191970" stroke="#191970" points="931.8301,-101.2393 942.3308,-99.8304 933.2434,-94.3834 931.8301,-101.2393"/>
</g>
<!-- Node49 -->
<g id="node6" class="node">
<title>Node49</title>
<g id="a_node6"><a xlink:href="../../dd/d91/eventSelectionQa_8cxx.html" target="_top" xlink:title="/home/travis/build\l/AliceO2Group/AliceO2\l/Analysis/Tasks/eventSelection\lQa.cxx">
<polygon fill="none" stroke="#000000" points="737.5,-.5 737.5,-52.5 904.5,-52.5 904.5,-.5 737.5,-.5"/>
<text text-anchor="start" x="745.5" y="-40.5" font-family="Helvetica,sans-Serif" font-size="10.00" fill="#000000">/home/travis/build</text>
<text text-anchor="start" x="745.5" y="-29.5" font-family="Helvetica,sans-Serif" font-size="10.00" fill="#000000">/AliceO2Group/AliceO2</text>
<text text-anchor="start" x="745.5" y="-18.5" font-family="Helvetica,sans-Serif" font-size="10.00" fill="#000000">/Analysis/Tasks/eventSelection</text>
<text text-anchor="middle" x="821" y="-7.5" font-family="Helvetica,sans-Serif" font-size="10.00" fill="#000000">Qa.cxx</text>
</a>
</g>
</g>
<!-- Node44&#45;&gt;Node49 -->
<g id="edge5" class="edge">
<title>Node44&#45;&gt;Node49</title>
<path fill="none" stroke="#191970" d="M952.3542,-85.2464C928.6469,-74.6436 902.2424,-62.8346 879.3609,-52.6011"/>
<polygon fill="#191970" stroke="#191970" points="951.0805,-88.5107 961.638,-89.3984 953.9384,-82.1207 951.0805,-88.5107"/>
</g>
<!-- Node50 -->
<g id="node7" class="node">
<title>Node50</title>
<g id="a_node7"><a xlink:href="../../d3/db8/invMassAnalysis_8cxx.html" target="_top" xlink:title="/home/travis/build\l/AliceO2Group/AliceO2\l/Analysis/Tasks/invMassAnalysis.cxx">
<polygon fill="none" stroke="#000000" points="922.5,-6 922.5,-47 1117.5,-47 1117.5,-6 922.5,-6"/>
<text text-anchor="start" x="930.5" y="-35" font-family="Helvetica,sans-Serif" font-size="10.00" fill="#000000">/home/travis/build</text>
<text text-anchor="start" x="930.5" y="-24" font-family="Helvetica,sans-Serif" font-size="10.00" fill="#000000">/AliceO2Group/AliceO2</text>
<text text-anchor="middle" x="1020" y="-13" font-family="Helvetica,sans-Serif" font-size="10.00" fill="#000000">/Analysis/Tasks/invMassAnalysis.cxx</text>
</a>
</g>
</g>
<!-- Node44&#45;&gt;Node50 -->
<g id="edge6" class="edge">
<title>Node44&#45;&gt;Node50</title>
<path fill="none" stroke="#191970" d="M1020,-79.1335C1020,-68.2443 1020,-56.6825 1020,-47.1771"/>
<polygon fill="#191970" stroke="#191970" points="1016.5001,-79.2784 1020,-89.2784 1023.5001,-79.2785 1016.5001,-79.2784"/>
</g>
<!-- Node51 -->
<g id="node8" class="node">
<title>Node51</title>
<g id="a_node8"><a xlink:href="../../d3/d6a/multiplicityQa_8cxx.html" target="_top" xlink:title="/home/travis/build\l/AliceO2Group/AliceO2\l/Analysis/Tasks/multiplicity\lQa.cxx">
<polygon fill="none" stroke="#000000" points="1135.5,-.5 1135.5,-52.5 1284.5,-52.5 1284.5,-.5 1135.5,-.5"/>
<text text-anchor="start" x="1143.5" y="-40.5" font-family="Helvetica,sans-Serif" font-size="10.00" fill="#000000">/home/travis/build</text>
<text text-anchor="start" x="1143.5" y="-29.5" font-family="Helvetica,sans-Serif" font-size="10.00" fill="#000000">/AliceO2Group/AliceO2</text>
<text text-anchor="start" x="1143.5" y="-18.5" font-family="Helvetica,sans-Serif" font-size="10.00" fill="#000000">/Analysis/Tasks/multiplicity</text>
<text text-anchor="middle" x="1210" y="-7.5" font-family="Helvetica,sans-Serif" font-size="10.00" fill="#000000">Qa.cxx</text>
</a>
</g>
</g>
<!-- Node44&#45;&gt;Node51 -->
<g id="edge7" class="edge">
<title>Node44&#45;&gt;Node51</title>
<path fill="none" stroke="#191970" d="M1084.887,-85.1055C1107.4446,-74.5391 1132.5285,-62.7893 1154.2785,-52.6011"/>
<polygon fill="#191970" stroke="#191970" points="1083.2935,-81.987 1075.7225,-89.3984 1086.2629,-88.326 1083.2935,-81.987"/>
</g>
<!-- Node52 -->
<g id="node9" class="node">
<title>Node52</title>
<g id="a_node9"><a xlink:href="../../d4/d23/multiplicityTable_8cxx.html" target="_top" xlink:title="/home/travis/build\l/AliceO2Group/AliceO2\l/Analysis/Tasks/multiplicity\lTable.cxx">
<polygon fill="none" stroke="#000000" points="1302.5,-.5 1302.5,-52.5 1451.5,-52.5 1451.5,-.5 1302.5,-.5"/>
<text text-anchor="start" x="1310.5" y="-40.5" font-family="Helvetica,sans-Serif" font-size="10.00" fill="#000000">/home/travis/build</text>
<text text-anchor="start" x="1310.5" y="-29.5" font-family="Helvetica,sans-Serif" font-size="10.00" fill="#000000">/AliceO2Group/AliceO2</text>
<text text-anchor="start" x="1310.5" y="-18.5" font-family="Helvetica,sans-Serif" font-size="10.00" fill="#000000">/Analysis/Tasks/multiplicity</text>
<text text-anchor="middle" x="1377" y="-7.5" font-family="Helvetica,sans-Serif" font-size="10.00" fill="#000000">Table.cxx</text>
</a>
</g>
</g>
<!-- Node44&#45;&gt;Node52 -->
<g id="edge8" class="edge">
<title>Node44&#45;&gt;Node52</title>
<path fill="none" stroke="#191970" d="M1107.6808,-97.4815C1161.6888,-85.8933 1232.1889,-69.8844 1294,-53 1296.7724,-52.2427 1299.5905,-51.4518 1302.4322,-50.6365"/>
<polygon fill="#191970" stroke="#191970" points="1106.8425,-94.0816 1097.7941,-99.5931 1108.3046,-100.9272 1106.8425,-94.0816"/>
</g>
<!-- Node53 -->
<g id="node10" class="node">
<title>Node53</title>
<g id="a_node10"><a xlink:href="../../d4/d5e/reducedEventAnalysis_8cxx.html" target="_top" xlink:title="/home/travis/build\l/AliceO2Group/AliceO2\l/Analysis/Tasks/reducedEvent\lAnalysis.cxx">
<polygon fill="none" stroke="#000000" points="1469.5,-.5 1469.5,-52.5 1630.5,-52.5 1630.5,-.5 1469.5,-.5"/>
<text text-anchor="start" x="1477.5" y="-40.5" font-family="Helvetica,sans-Serif" font-size="10.00" fill="#000000">/home/travis/build</text>
<text text-anchor="start" x="1477.5" y="-29.5" font-family="Helvetica,sans-Serif" font-size="10.00" fill="#000000">/AliceO2Group/AliceO2</text>
<text text-anchor="start" x="1477.5" y="-18.5" font-family="Helvetica,sans-Serif" font-size="10.00" fill="#000000">/Analysis/Tasks/reducedEvent</text>
<text text-anchor="middle" x="1550" y="-7.5" font-family="Helvetica,sans-Serif" font-size="10.00" fill="#000000">Analysis.cxx</text>
</a>
</g>
</g>
<!-- Node44&#45;&gt;Node53 -->
<g id="edge9" class="edge">
<title>Node44&#45;&gt;Node53</title>
<path fill="none" stroke="#191970" d="M1108.003,-106.9231C1197.5089,-97.2909 1339.8841,-79.4601 1461,-53 1463.6775,-52.415 1466.392,-51.7909 1469.1265,-51.1354"/>
<polygon fill="#191970" stroke="#191970" points="1107.4671,-103.4603 1097.8943,-108.0003 1108.2089,-110.4209 1107.4671,-103.4603"/>
</g>
<!-- Node54 -->
<g id="node11" class="node">
<title>Node54</title>
<g id="a_node11"><a xlink:href="../../d9/d14/tableMaker_8cxx.html" target="_top" xlink:title="/home/travis/build\l/AliceO2Group/AliceO2\l/Analysis/Tasks/tableMaker.cxx">
<polygon fill="none" stroke="#000000" points="1649,-6 1649,-47 1817,-47 1817,-6 1649,-6"/>
<text text-anchor="start" x="1657" y="-35" font-family="Helvetica,sans-Serif" font-size="10.00" fill="#000000">/home/travis/build</text>
<text text-anchor="start" x="1657" y="-24" font-family="Helvetica,sans-Serif" font-size="10.00" fill="#000000">/AliceO2Group/AliceO2</text>
<text text-anchor="middle" x="1733" y="-13" font-family="Helvetica,sans-Serif" font-size="10.00" fill="#000000">/Analysis/Tasks/tableMaker.cxx</text>
</a>
</g>
</g>
<!-- Node44&#45;&gt;Node54 -->
<g id="edge10" class="edge">
<title>Node44&#45;&gt;Node54</title>
<path fill="none" stroke="#191970" d="M1108.2686,-111.5262C1229.1583,-104.968 1452.6047,-88.851 1640,-53 1648.5745,-51.3596 1657.5028,-49.2922 1666.2873,-47.039"/>
<polygon fill="#191970" stroke="#191970" points="1107.7626,-108.0481 1097.9631,-112.0755 1108.1353,-115.0382 1107.7626,-108.0481"/>
</g>
<!-- Node55 -->
<g id="node12" class="node">
<title>Node55</title>
<g id="a_node12"><a xlink:href="../../d2/d9d/upcAnalysis_8cxx.html" target="_top" xlink:title="/home/travis/build\l/AliceO2Group/AliceO2\l/Analysis/Tasks/upcAnalysis.cxx">
<polygon fill="none" stroke="#000000" points="1835.5,-6 1835.5,-47 2008.5,-47 2008.5,-6 1835.5,-6"/>
<text text-anchor="start" x="1843.5" y="-35" font-family="Helvetica,sans-Serif" font-size="10.00" fill="#000000">/home/travis/build</text>
<text text-anchor="start" x="1843.5" y="-24" font-family="Helvetica,sans-Serif" font-size="10.00" fill="#000000">/AliceO2Group/AliceO2</text>
<text text-anchor="middle" x="1922" y="-13" font-family="Helvetica,sans-Serif" font-size="10.00" fill="#000000">/Analysis/Tasks/upcAnalysis.cxx</text>
</a>
</g>
</g>
<!-- Node44&#45;&gt;Node55 -->
<g id="edge11" class="edge">
<title>Node44&#45;&gt;Node55</title>
<path fill="none" stroke="#191970" d="M1108.0177,-114.1868C1256.9384,-110.7388 1567.631,-98.2454 1826,-53 1835.1115,-51.4044 1844.6074,-49.3183 1853.9292,-47.0165"/>
<polygon fill="#191970" stroke="#191970" points="1107.4974,-110.6975 1097.578,-114.4198 1107.6536,-117.6957 1107.4974,-110.6975"/>
</g>
</g>
</svg>
