<?xml version="1.0" encoding="UTF-8" standalone="no"?>
<!DOCTYPE svg PUBLIC "-//W3C//DTD SVG 1.1//EN"
 "http://www.w3.org/Graphics/SVG/1.1/DTD/svg11.dtd">
<!-- Generated by graphviz version 2.40.1 (20161225.0304)
 -->
<!-- Title: /home/travis/build/AliceO2Group/AliceO2/Detectors/ITSMFT/ITS/tracking/src/DBScan.cxx Pages: 1 -->
<svg width="1037pt" height="229pt"
 viewBox="0.00 0.00 1036.50 229.00" xmlns="http://www.w3.org/2000/svg" xmlns:xlink="http://www.w3.org/1999/xlink">
<g id="graph0" class="graph" transform="scale(1 1) rotate(0) translate(4 225)">
<title>/home/travis/build/AliceO2Group/AliceO2/Detectors/ITSMFT/ITS/tracking/src/DBScan.cxx</title>
<!-- Node0 -->
<g id="node1" class="node">
<title>Node0</title>
<polygon fill="#bfbfbf" stroke="#000000" points="568,-168.5 568,-220.5 705,-220.5 705,-168.5 568,-168.5"/>
<text text-anchor="start" x="576" y="-208.5" font-family="Helvetica,sans-Serif" font-size="10.00" fill="#000000">/home/travis/build</text>
<text text-anchor="start" x="576" y="-197.5" font-family="Helvetica,sans-Serif" font-size="10.00" fill="#000000">/AliceO2Group/AliceO2</text>
<text text-anchor="start" x="576" y="-186.5" font-family="Helvetica,sans-Serif" font-size="10.00" fill="#000000">/Detectors/ITSMFT/ITS</text>
<text text-anchor="middle" x="636.5" y="-175.5" font-family="Helvetica,sans-Serif" font-size="10.00" fill="#000000">/tracking/src/DBScan.cxx</text>
</g>
<!-- Node1 -->
<g id="node2" class="node">
<title>Node1</title>
<g id="a_node2"><a xlink:href="../../dc/dad/DBScan_8h.html" target="_top" xlink:title="ITStracking/DBScan.h">
<polygon fill="none" stroke="#000000" points="440,-112.5 440,-131.5 561,-131.5 561,-112.5 440,-112.5"/>
<text text-anchor="middle" x="500.5" y="-119.5" font-family="Helvetica,sans-Serif" font-size="10.00" fill="#000000">ITStracking/DBScan.h</text>
</a>
</g>
</g>
<!-- Node0&#45;&gt;Node1 -->
<g id="edge1" class="edge">
<title>Node0&#45;&gt;Node1</title>
<path fill="none" stroke="#191970" d="M587.4009,-168.3258C567.1147,-157.5115 544.3906,-145.3976 527.269,-136.2703"/>
<polygon fill="#191970" stroke="#191970" points="528.8554,-133.1497 518.3845,-131.534 525.5624,-139.3268 528.8554,-133.1497"/>
</g>
<!-- Node14 -->
<g id="node15" class="node">
<title>Node14</title>
<g id="a_node15"><a xlink:href="../../df/d3d/Definitions_8h.html" target="_top" xlink:title="ITStracking/Definitions.h">
<polygon fill="none" stroke="#000000" points="712.5,-112.5 712.5,-131.5 848.5,-131.5 848.5,-112.5 712.5,-112.5"/>
<text text-anchor="middle" x="780.5" y="-119.5" font-family="Helvetica,sans-Serif" font-size="10.00" fill="#000000">ITStracking/Definitions.h</text>
</a>
</g>
</g>
<!-- Node0&#45;&gt;Node14 -->
<g id="edge14" class="edge">
<title>Node0&#45;&gt;Node14</title>
<path fill="none" stroke="#191970" d="M688.4873,-168.3258C709.9668,-157.5115 734.0276,-145.3976 752.1563,-136.2703"/>
<polygon fill="#191970" stroke="#191970" points="754.2056,-139.1571 761.5635,-131.534 751.0577,-132.9048 754.2056,-139.1571"/>
</g>
<!-- Node19 -->
<g id="node20" class="node">
<title>Node19</title>
<g id="a_node20"><a xlink:href="../../d6/da2/GPUCommonMath_8h.html" target="_top" xlink:title="GPUCommonMath.h">
<polygon fill="none" stroke="#000000" points="579,-112.5 579,-131.5 694,-131.5 694,-112.5 579,-112.5"/>
<text text-anchor="middle" x="636.5" y="-119.5" font-family="Helvetica,sans-Serif" font-size="10.00" fill="#000000">GPUCommonMath.h</text>
</a>
</g>
</g>
<!-- Node0&#45;&gt;Node19 -->
<g id="edge20" class="edge">
<title>Node0&#45;&gt;Node19</title>
<path fill="none" stroke="#191970" d="M636.5,-168.3258C636.5,-159.5142 636.5,-149.8397 636.5,-141.621"/>
<polygon fill="#191970" stroke="#191970" points="640.0001,-141.534 636.5,-131.534 633.0001,-141.534 640.0001,-141.534"/>
</g>
<!-- Node2 -->
<g id="node3" class="node">
<title>Node2</title>
<polygon fill="none" stroke="#bfbfbf" points="518.5,-56.5 518.5,-75.5 582.5,-75.5 582.5,-56.5 518.5,-56.5"/>
<text text-anchor="middle" x="550.5" y="-63.5" font-family="Helvetica,sans-Serif" font-size="10.00" fill="#000000">algorithm</text>
</g>
<!-- Node1&#45;&gt;Node2 -->
<g id="edge2" class="edge">
<title>Node1&#45;&gt;Node2</title>
<path fill="none" stroke="#191970" d="M509.2093,-112.2455C516.3073,-104.2958 526.5084,-92.8706 534.995,-83.3656"/>
<polygon fill="#191970" stroke="#191970" points="537.8411,-85.4331 541.8905,-75.6427 532.6195,-80.771 537.8411,-85.4331"/>
</g>
<!-- Node3 -->
<g id="node4" class="node">
<title>Node3</title>
<g id="a_node4"><a xlink:href="../../d7/d16/Graph_8h.html" target="_top" xlink:title="ITStracking/Graph.h">
<polygon fill="none" stroke="#000000" points="361,-56.5 361,-75.5 474,-75.5 474,-56.5 361,-56.5"/>
<text text-anchor="middle" x="417.5" y="-63.5" font-family="Helvetica,sans-Serif" font-size="10.00" fill="#000000">ITStracking/Graph.h</text>
</a>
</g>
</g>
<!-- Node1&#45;&gt;Node3 -->
<g id="edge3" class="edge">
<title>Node1&#45;&gt;Node3</title>
<path fill="none" stroke="#191970" d="M486.0425,-112.2455C473.4268,-103.7337 454.9056,-91.2375 440.2955,-81.3801"/>
<polygon fill="#191970" stroke="#191970" points="442.0391,-78.3343 431.7918,-75.6427 438.1239,-84.1371 442.0391,-78.3343"/>
</g>
<!-- Node4 -->
<g id="node5" class="node">
<title>Node4</title>
<polygon fill="none" stroke="#bfbfbf" points="678.5,-.5 678.5,-19.5 720.5,-19.5 720.5,-.5 678.5,-.5"/>
<text text-anchor="middle" x="699.5" y="-7.5" font-family="Helvetica,sans-Serif" font-size="10.00" fill="#000000">array</text>
</g>
<!-- Node3&#45;&gt;Node4 -->
<g id="edge4" class="edge">
<title>Node3&#45;&gt;Node4</title>
<path fill="none" stroke="#191970" d="M474.0276,-57.8061C525.1983,-49.8773 602.4469,-36.6305 668.5,-20 668.5994,-19.975 668.6989,-19.9498 668.7986,-19.9245"/>
<polygon fill="#191970" stroke="#191970" points="669.5865,-23.3389 678.2608,-17.2555 667.6861,-16.6018 669.5865,-23.3389"/>
</g>
<!-- Node5 -->
<g id="node6" class="node">
<title>Node5</title>
<polygon fill="none" stroke="#bfbfbf" points="613,-.5 613,-19.5 660,-19.5 660,-.5 613,-.5"/>
<text text-anchor="middle" x="636.5" y="-7.5" font-family="Helvetica,sans-Serif" font-size="10.00" fill="#000000">cmath</text>
</g>
<!-- Node3&#45;&gt;Node5 -->
<g id="edge5" class="edge">
<title>Node3&#45;&gt;Node5</title>
<path fill="none" stroke="#191970" d="M458.6619,-56.4666C494.3171,-48.0642 547.4965,-35.1884 602.7735,-20.099"/>
<polygon fill="#191970" stroke="#191970" points="604.0345,-23.3823 612.7496,-17.3575 602.1796,-16.6325 604.0345,-23.3823"/>
</g>
<!-- Node6 -->
<g id="node7" class="node">
<title>Node6</title>
<polygon fill="none" stroke="#bfbfbf" points="260,-.5 260,-19.5 367,-19.5 367,-.5 260,-.5"/>
<text text-anchor="middle" x="313.5" y="-7.5" font-family="Helvetica,sans-Serif" font-size="10.00" fill="#000000">condition_variable</text>
</g>
<!-- Node3&#45;&gt;Node6 -->
<g id="edge6" class="edge">
<title>Node3&#45;&gt;Node6</title>
<path fill="none" stroke="#191970" d="M399.3846,-56.2455C383.055,-47.4527 358.829,-34.4079 340.2661,-24.4125"/>
<polygon fill="#191970" stroke="#191970" points="341.8719,-21.3021 331.4078,-19.6427 338.5532,-27.4654 341.8719,-21.3021"/>
</g>
<!-- Node7 -->
<g id="node8" class="node">
<title>Node7</title>
<polygon fill="none" stroke="#bfbfbf" points="385,-.5 385,-19.5 450,-19.5 450,-.5 385,-.5"/>
<text text-anchor="middle" x="417.5" y="-7.5" font-family="Helvetica,sans-Serif" font-size="10.00" fill="#000000">functional</text>
</g>
<!-- Node3&#45;&gt;Node7 -->
<g id="edge7" class="edge">
<title>Node3&#45;&gt;Node7</title>
<path fill="none" stroke="#191970" d="M417.5,-56.2455C417.5,-48.9382 417.5,-38.6944 417.5,-29.7046"/>
<polygon fill="#191970" stroke="#191970" points="421.0001,-29.6426 417.5,-19.6427 414.0001,-29.6427 421.0001,-29.6426"/>
</g>
<!-- Node8 -->
<g id="node9" class="node">
<title>Node8</title>
<polygon fill="none" stroke="#bfbfbf" points="468.5,-.5 468.5,-19.5 528.5,-19.5 528.5,-.5 468.5,-.5"/>
<text text-anchor="middle" x="498.5" y="-7.5" font-family="Helvetica,sans-Serif" font-size="10.00" fill="#000000">iostream</text>
</g>
<!-- Node3&#45;&gt;Node8 -->
<g id="edge8" class="edge">
<title>Node3&#45;&gt;Node8</title>
<path fill="none" stroke="#191970" d="M431.6091,-56.2455C443.9209,-47.7337 461.9958,-35.2375 476.2538,-25.3801"/>
<polygon fill="#191970" stroke="#191970" points="478.3174,-28.2085 484.5526,-19.6427 474.3366,-22.4506 478.3174,-28.2085"/>
</g>
<!-- Node9 -->
<g id="node10" class="node">
<title>Node9</title>
<polygon fill="none" stroke="#bfbfbf" points="546.5,-.5 546.5,-19.5 594.5,-19.5 594.5,-.5 546.5,-.5"/>
<text text-anchor="middle" x="570.5" y="-7.5" font-family="Helvetica,sans-Serif" font-size="10.00" fill="#000000">mutex</text>
</g>
<!-- Node3&#45;&gt;Node9 -->
<g id="edge9" class="edge">
<title>Node3&#45;&gt;Node9</title>
<path fill="none" stroke="#191970" d="M443.8016,-56.3733C469.4815,-46.9741 508.6731,-32.6295 536.663,-22.3848"/>
<polygon fill="#191970" stroke="#191970" points="537.868,-25.6709 546.0557,-18.9469 535.462,-19.0974 537.868,-25.6709"/>
</g>
<!-- Node10 -->
<g id="node11" class="node">
<title>Node10</title>
<polygon fill="none" stroke="#bfbfbf" points="0,-.5 0,-19.5 47,-19.5 47,-.5 0,-.5"/>
<text text-anchor="middle" x="23.5" y="-7.5" font-family="Helvetica,sans-Serif" font-size="10.00" fill="#000000">queue</text>
</g>
<!-- Node3&#45;&gt;Node10 -->
<g id="edge10" class="edge">
<title>Node3&#45;&gt;Node10</title>
<path fill="none" stroke="#191970" d="M360.73,-61.726C291.2277,-55.8371 169.8888,-43.4338 57.0153,-19.7871"/>
<polygon fill="#191970" stroke="#191970" points="57.6787,-16.35 47.1691,-17.6908 56.221,-23.1965 57.6787,-16.35"/>
</g>
<!-- Node11 -->
<g id="node12" class="node">
<title>Node11</title>
<polygon fill="none" stroke="#bfbfbf" points="65.5,-.5 65.5,-19.5 113.5,-19.5 113.5,-.5 65.5,-.5"/>
<text text-anchor="middle" x="89.5" y="-7.5" font-family="Helvetica,sans-Serif" font-size="10.00" fill="#000000">thread</text>
</g>
<!-- Node3&#45;&gt;Node11 -->
<g id="edge11" class="edge">
<title>Node3&#45;&gt;Node11</title>
<path fill="none" stroke="#191970" d="M360.7764,-59.5425C303.2084,-52.4538 211.421,-39.6846 123.4248,-19.9583"/>
<polygon fill="#191970" stroke="#191970" points="124.0739,-16.5166 113.5465,-17.7104 122.5206,-23.3421 124.0739,-16.5166"/>
</g>
<!-- Node12 -->
<g id="node13" class="node">
<title>Node12</title>
<polygon fill="none" stroke="#bfbfbf" points="132,-.5 132,-19.5 177,-19.5 177,-.5 132,-.5"/>
<text text-anchor="middle" x="154.5" y="-7.5" font-family="Helvetica,sans-Serif" font-size="10.00" fill="#000000">utility</text>
</g>
<!-- Node3&#45;&gt;Node12 -->
<g id="edge12" class="edge">
<title>Node3&#45;&gt;Node12</title>
<path fill="none" stroke="#191970" d="M360.828,-56.6632C315.9035,-48.831 251.3955,-36.6312 187.0097,-20.1905"/>
<polygon fill="#191970" stroke="#191970" points="187.6557,-16.7424 177.0977,-17.625 185.9017,-23.5191 187.6557,-16.7424"/>
</g>
<!-- Node13 -->
<g id="node14" class="node">
<title>Node13</title>
<polygon fill="none" stroke="#bfbfbf" points="195,-.5 195,-19.5 242,-19.5 242,-.5 195,-.5"/>
<text text-anchor="middle" x="218.5" y="-7.5" font-family="Helvetica,sans-Serif" font-size="10.00" fill="#000000">vector</text>
</g>
<!-- Node3&#45;&gt;Node13 -->
<g id="edge13" class="edge">
<title>Node3&#45;&gt;Node13</title>
<path fill="none" stroke="#191970" d="M381.5654,-56.4816C349.7294,-47.9646 301.7603,-34.927 251.8986,-20.3532"/>
<polygon fill="#191970" stroke="#191970" points="252.8193,-16.9758 242.2383,-17.517 250.8473,-23.6923 252.8193,-16.9758"/>
</g>
<!-- Node14&#45;&gt;Node4 -->
<g id="edge15" class="edge">
<title>Node14&#45;&gt;Node4</title>
<path fill="none" stroke="#191970" d="M762.2498,-112.4496C748.6168,-104.4331 730.5092,-91.77 719.5,-76 709.874,-62.2113 704.7903,-43.6861 702.1622,-29.7722"/>
<polygon fill="#191970" stroke="#191970" points="705.5975,-29.0911 700.5411,-19.7808 698.6879,-30.2123 705.5975,-29.0911"/>
</g>
<!-- Node15 -->
<g id="node16" class="node">
<title>Node15</title>
<g id="a_node16"><a xlink:href="../../df/d21/GPUCommonDef_8h.html" target="_top" xlink:title="GPUCommonDef.h">
<polygon fill="none" stroke="#000000" points="728,-56.5 728,-75.5 835,-75.5 835,-56.5 728,-56.5"/>
<text text-anchor="middle" x="781.5" y="-63.5" font-family="Helvetica,sans-Serif" font-size="10.00" fill="#000000">GPUCommonDef.h</text>
</a>
</g>
</g>
<!-- Node14&#45;&gt;Node15 -->
<g id="edge16" class="edge">
<title>Node14&#45;&gt;Node15</title>
<path fill="none" stroke="#191970" d="M780.6742,-112.2455C780.8047,-104.9382 780.9876,-94.6944 781.1481,-85.7046"/>
<polygon fill="#191970" stroke="#191970" points="784.6486,-85.7036 781.3278,-75.6427 777.6497,-85.5786 784.6486,-85.7036"/>
</g>
<!-- Node18 -->
<g id="node19" class="node">
<title>Node18</title>
<polygon fill="none" stroke="#bfbfbf" points="853,-56.5 853,-75.5 906,-75.5 906,-56.5 853,-56.5"/>
<text text-anchor="middle" x="879.5" y="-63.5" font-family="Helvetica,sans-Serif" font-size="10.00" fill="#000000">cstddef</text>
</g>
<!-- Node14&#45;&gt;Node18 -->
<g id="edge19" class="edge">
<title>Node14&#45;&gt;Node18</title>
<path fill="none" stroke="#191970" d="M797.7445,-112.2455C813.0761,-103.5731 835.7199,-90.7645 853.2916,-80.825"/>
<polygon fill="#191970" stroke="#191970" points="855.4724,-83.6126 862.4531,-75.6427 852.0259,-77.5198 855.4724,-83.6126"/>
</g>
<!-- Node16 -->
<g id="node17" class="node">
<title>Node16</title>
<g id="a_node17"><a xlink:href="../../d5/d93/GPUCommonDefSettings_8h.html" target="_top" xlink:title="GPUCommonDefSettings.h">
<polygon fill="none" stroke="#000000" points="738.5,-.5 738.5,-19.5 886.5,-19.5 886.5,-.5 738.5,-.5"/>
<text text-anchor="middle" x="812.5" y="-7.5" font-family="Helvetica,sans-Serif" font-size="10.00" fill="#000000">GPUCommonDefSettings.h</text>
</a>
</g>
</g>
<!-- Node15&#45;&gt;Node16 -->
<g id="edge17" class="edge">
<title>Node15&#45;&gt;Node16</title>
<path fill="none" stroke="#191970" d="M786.8998,-56.2455C791.1227,-48.617 797.1173,-37.7881 802.2441,-28.5267"/>
<polygon fill="#191970" stroke="#191970" points="805.381,-30.0867 807.1621,-19.6427 799.2568,-26.6965 805.381,-30.0867"/>
</g>
<!-- Node17 -->
<g id="node18" class="node">
<title>Node17</title>
<g id="a_node18"><a xlink:href="../../da/d5a/GPUCommonDefAPI_8h.html" target="_top" xlink:title="GPUCommonDefAPI.h">
<polygon fill="none" stroke="#000000" points="904.5,-.5 904.5,-19.5 1028.5,-19.5 1028.5,-.5 904.5,-.5"/>
<text text-anchor="middle" x="966.5" y="-7.5" font-family="Helvetica,sans-Serif" font-size="10.00" fill="#000000">GPUCommonDefAPI.h</text>
</a>
</g>
</g>
<!-- Node15&#45;&gt;Node17 -->
<g id="edge18" class="edge">
<title>Node15&#45;&gt;Node17</title>
<path fill="none" stroke="#191970" d="M813.3026,-56.3733C844.3317,-46.9807 891.6754,-32.6496 925.5147,-22.4064"/>
<polygon fill="#191970" stroke="#191970" points="926.5553,-25.7483 935.1124,-19.5011 924.5272,-19.0485 926.5553,-25.7483"/>
</g>
<!-- Node19&#45;&gt;Node2 -->
<g id="edge23" class="edge">
<title>Node19&#45;&gt;Node2</title>
<path fill="none" stroke="#191970" d="M621.5199,-112.2455C608.3249,-103.6534 588.8949,-91.0014 573.6921,-81.1018"/>
<polygon fill="#191970" stroke="#191970" points="575.5983,-78.1665 565.3084,-75.6427 571.7785,-84.0325 575.5983,-78.1665"/>
</g>
<!-- Node19&#45;&gt;Node5 -->
<g id="edge22" class="edge">
<title>Node19&#45;&gt;Node5</title>
<path fill="none" stroke="#191970" d="M636.5,-112.4509C636.5,-94.184 636.5,-53.9553 636.5,-29.6976"/>
<polygon fill="#191970" stroke="#191970" points="640.0001,-29.5249 636.5,-19.5249 633.0001,-29.5249 640.0001,-29.5249"/>
</g>
<!-- Node19&#45;&gt;Node15 -->
<g id="edge21" class="edge">
<title>Node19&#45;&gt;Node15</title>
<path fill="none" stroke="#191970" d="M661.4264,-112.3733C685.1202,-103.2226 720.9511,-89.3844 747.3068,-79.2057"/>
<polygon fill="#191970" stroke="#191970" points="748.8314,-82.3689 756.8989,-75.5011 746.3094,-75.8389 748.8314,-82.3689"/>
</g>
</g>
</svg>
