<?xml version="1.0" encoding="UTF-8" standalone="no"?>
<!DOCTYPE svg PUBLIC "-//W3C//DTD SVG 1.1//EN"
 "http://www.w3.org/Graphics/SVG/1.1/DTD/svg11.dtd">
<!-- Generated by graphviz version 2.40.1 (20161225.0304)
 -->
<!-- Title: o2::soa::Table&lt; C &gt;::RowViewBase&lt; IP, Parent, T &gt; Pages: 1 -->
<svg width="305pt" height="789pt"
 viewBox="0.00 0.00 304.75 789.00" xmlns="http://www.w3.org/2000/svg" xmlns:xlink="http://www.w3.org/1999/xlink">
<g id="graph0" class="graph" transform="scale(1 1) rotate(0) translate(4 785)">
<title>o2::soa::Table&lt; C &gt;::RowViewBase&lt; IP, Parent, T &gt;</title>
<!-- Node6 -->
<g id="node1" class="node">
<title>Node6</title>
<polygon fill="#bfbfbf" stroke="#000000" points="71.8124,-.5 71.8124,-189.5 242.8124,-189.5 242.8124,-.5 71.8124,-.5"/>
<text text-anchor="start" x="79.8124" y="-177.5" font-family="Helvetica,sans-Serif" font-size="10.00" fill="#000000">o2::soa::Table&lt; C &gt;</text>
<text text-anchor="middle" x="157.3124" y="-166.5" font-family="Helvetica,sans-Serif" font-size="10.00" fill="#000000">::RowViewBase&lt; IP, Parent, T &gt;</text>
<polyline fill="none" stroke="#000000" points="71.8124,-159.5 242.8124,-159.5 "/>
<text text-anchor="middle" x="157.3124" y="-147.5" font-family="Helvetica,sans-Serif" font-size="10.00" fill="#000000"> </text>
<polyline fill="none" stroke="#000000" points="71.8124,-140.5 242.8124,-140.5 "/>
<text text-anchor="start" x="79.8124" y="-128.5" font-family="Helvetica,sans-Serif" font-size="10.00" fill="#000000">+ RowViewBase()</text>
<text text-anchor="start" x="79.8124" y="-117.5" font-family="Helvetica,sans-Serif" font-size="10.00" fill="#000000">+ RowViewBase()</text>
<text text-anchor="start" x="79.8124" y="-106.5" font-family="Helvetica,sans-Serif" font-size="10.00" fill="#000000">+ RowViewBase()</text>
<text text-anchor="start" x="79.8124" y="-95.5" font-family="Helvetica,sans-Serif" font-size="10.00" fill="#000000">+ RowViewBase()</text>
<text text-anchor="start" x="79.8124" y="-84.5" font-family="Helvetica,sans-Serif" font-size="10.00" fill="#000000">+ RowViewBase()</text>
<text text-anchor="start" x="79.8124" y="-73.5" font-family="Helvetica,sans-Serif" font-size="10.00" fill="#000000">+ RowViewBase()</text>
<text text-anchor="start" x="79.8124" y="-62.5" font-family="Helvetica,sans-Serif" font-size="10.00" fill="#000000">+ operator=()</text>
<text text-anchor="start" x="79.8124" y="-51.5" font-family="Helvetica,sans-Serif" font-size="10.00" fill="#000000">+ operator=()</text>
<text text-anchor="start" x="79.8124" y="-40.5" font-family="Helvetica,sans-Serif" font-size="10.00" fill="#000000">+ operator=()</text>
<text text-anchor="start" x="79.8124" y="-29.5" font-family="Helvetica,sans-Serif" font-size="10.00" fill="#000000">+ operator+()</text>
<text text-anchor="start" x="79.8124" y="-18.5" font-family="Helvetica,sans-Serif" font-size="10.00" fill="#000000">+ operator&#45;()</text>
<text text-anchor="start" x="79.8124" y="-7.5" font-family="Helvetica,sans-Serif" font-size="10.00" fill="#000000">+ operator*()</text>
</g>
<!-- Node7 -->
<g id="node2" class="node">
<title>Node7</title>
<g id="a_node2"><a xlink:href="../../d7/d57/structo2_1_1soa_1_1RowViewCore.html" target="_top" xlink:title="{o2::soa::RowViewCore\l\&lt; IP, C... \&gt;\n||+ RowViewCore()\l+ RowViewCore()\l+ RowViewCore()\l+ RowViewCore()\l+ operator=()\l+ operator=()\l+ operator++()\l+ operator++()\l+ operator+()\l+ operator&#45;()\l+ operator*()\l+ doSetCurrentIndex()\l+ bindExternalIndices()\l}">
<polygon fill="none" stroke="#000000" points="91.8124,-227.5 91.8124,-427.5 222.8124,-427.5 222.8124,-227.5 91.8124,-227.5"/>
<text text-anchor="start" x="99.8124" y="-415.5" font-family="Helvetica,sans-Serif" font-size="10.00" fill="#000000">o2::soa::RowViewCore</text>
<text text-anchor="middle" x="157.3124" y="-404.5" font-family="Helvetica,sans-Serif" font-size="10.00" fill="#000000">&lt; IP, C... &gt;</text>
<polyline fill="none" stroke="#000000" points="91.8124,-397.5 222.8124,-397.5 "/>
<text text-anchor="middle" x="157.3124" y="-385.5" font-family="Helvetica,sans-Serif" font-size="10.00" fill="#000000"> </text>
<polyline fill="none" stroke="#000000" points="91.8124,-378.5 222.8124,-378.5 "/>
<text text-anchor="start" x="99.8124" y="-366.5" font-family="Helvetica,sans-Serif" font-size="10.00" fill="#000000">+ RowViewCore()</text>
<text text-anchor="start" x="99.8124" y="-355.5" font-family="Helvetica,sans-Serif" font-size="10.00" fill="#000000">+ RowViewCore()</text>
<text text-anchor="start" x="99.8124" y="-344.5" font-family="Helvetica,sans-Serif" font-size="10.00" fill="#000000">+ RowViewCore()</text>
<text text-anchor="start" x="99.8124" y="-333.5" font-family="Helvetica,sans-Serif" font-size="10.00" fill="#000000">+ RowViewCore()</text>
<text text-anchor="start" x="99.8124" y="-322.5" font-family="Helvetica,sans-Serif" font-size="10.00" fill="#000000">+ operator=()</text>
<text text-anchor="start" x="99.8124" y="-311.5" font-family="Helvetica,sans-Serif" font-size="10.00" fill="#000000">+ operator=()</text>
<text text-anchor="start" x="99.8124" y="-300.5" font-family="Helvetica,sans-Serif" font-size="10.00" fill="#000000">+ operator++()</text>
<text text-anchor="start" x="99.8124" y="-289.5" font-family="Helvetica,sans-Serif" font-size="10.00" fill="#000000">+ operator++()</text>
<text text-anchor="start" x="99.8124" y="-278.5" font-family="Helvetica,sans-Serif" font-size="10.00" fill="#000000">+ operator+()</text>
<text text-anchor="start" x="99.8124" y="-267.5" font-family="Helvetica,sans-Serif" font-size="10.00" fill="#000000">+ operator&#45;()</text>
<text text-anchor="start" x="99.8124" y="-256.5" font-family="Helvetica,sans-Serif" font-size="10.00" fill="#000000">+ operator*()</text>
<text text-anchor="start" x="99.8124" y="-245.5" font-family="Helvetica,sans-Serif" font-size="10.00" fill="#000000">+ doSetCurrentIndex()</text>
<text text-anchor="start" x="99.8124" y="-234.5" font-family="Helvetica,sans-Serif" font-size="10.00" fill="#000000">+ bindExternalIndices()</text>
</a>
</g>
</g>
<!-- Node7&#45;&gt;Node6 -->
<g id="edge1" class="edge">
<title>Node7&#45;&gt;Node6</title>
<path fill="none" stroke="#191970" d="M157.3124,-216.9858C157.3124,-207.9001 157.3124,-198.7676 157.3124,-189.8109"/>
<polygon fill="none" stroke="#191970" points="153.8125,-217.2121 157.3124,-227.2121 160.8125,-217.2122 153.8125,-217.2121"/>
</g>
<!-- Node8 -->
<g id="node3" class="node">
<title>Node8</title>
<polygon fill="none" stroke="#bfbfbf" points="21.8124,-723.5 21.8124,-780.5 50.8124,-780.5 50.8124,-723.5 21.8124,-723.5"/>
<text text-anchor="middle" x="36.3124" y="-768.5" font-family="Helvetica,sans-Serif" font-size="10.00" fill="#000000">IP</text>
<polyline fill="none" stroke="#bfbfbf" points="21.8124,-761.5 50.8124,-761.5 "/>
<text text-anchor="middle" x="36.3124" y="-749.5" font-family="Helvetica,sans-Serif" font-size="10.00" fill="#000000"> </text>
<polyline fill="none" stroke="#bfbfbf" points="21.8124,-742.5 50.8124,-742.5 "/>
<text text-anchor="middle" x="36.3124" y="-730.5" font-family="Helvetica,sans-Serif" font-size="10.00" fill="#000000"> </text>
</g>
<!-- Node8&#45;&gt;Node7 -->
<g id="edge2" class="edge">
<title>Node8&#45;&gt;Node7</title>
<path fill="none" stroke="#191970" d="M23.2163,-713.5132C6.7303,-658.4606 -15.7913,-555.0436 16.3124,-475 31.8075,-436.3664 62.7826,-402.1239 91.7632,-376.3804"/>
<polygon fill="none" stroke="#191970" points="19.9166,-714.6901 26.2098,-723.2133 26.6053,-712.6259 19.9166,-714.6901"/>
</g>
<!-- Node11 -->
<g id="node6" class="node">
<title>Node11</title>
<g id="a_node6"><a xlink:href="../../d7/d57/structo2_1_1soa_1_1RowViewCore.html" target="_top" xlink:title="{o2::soa::RowViewCore\l\&lt; IP, C \&gt;\n||+ RowViewCore()\l+ RowViewCore()\l+ RowViewCore()\l+ RowViewCore()\l+ operator=()\l+ operator=()\l+ operator++()\l+ operator++()\l+ operator+()\l+ operator&#45;()\l+ operator*()\l+ doSetCurrentIndex()\l+ bindExternalIndices()\l}">
<polygon fill="none" stroke="#000000" points="25.8124,-475.5 25.8124,-675.5 156.8124,-675.5 156.8124,-475.5 25.8124,-475.5"/>
<text text-anchor="start" x="33.8124" y="-663.5" font-family="Helvetica,sans-Serif" font-size="10.00" fill="#000000">o2::soa::RowViewCore</text>
<text text-anchor="middle" x="91.3124" y="-652.5" font-family="Helvetica,sans-Serif" font-size="10.00" fill="#000000">&lt; IP, C &gt;</text>
<polyline fill="none" stroke="#000000" points="25.8124,-645.5 156.8124,-645.5 "/>
<text text-anchor="middle" x="91.3124" y="-633.5" font-family="Helvetica,sans-Serif" font-size="10.00" fill="#000000"> </text>
<polyline fill="none" stroke="#000000" points="25.8124,-626.5 156.8124,-626.5 "/>
<text text-anchor="start" x="33.8124" y="-614.5" font-family="Helvetica,sans-Serif" font-size="10.00" fill="#000000">+ RowViewCore()</text>
<text text-anchor="start" x="33.8124" y="-603.5" font-family="Helvetica,sans-Serif" font-size="10.00" fill="#000000">+ RowViewCore()</text>
<text text-anchor="start" x="33.8124" y="-592.5" font-family="Helvetica,sans-Serif" font-size="10.00" fill="#000000">+ RowViewCore()</text>
<text text-anchor="start" x="33.8124" y="-581.5" font-family="Helvetica,sans-Serif" font-size="10.00" fill="#000000">+ RowViewCore()</text>
<text text-anchor="start" x="33.8124" y="-570.5" font-family="Helvetica,sans-Serif" font-size="10.00" fill="#000000">+ operator=()</text>
<text text-anchor="start" x="33.8124" y="-559.5" font-family="Helvetica,sans-Serif" font-size="10.00" fill="#000000">+ operator=()</text>
<text text-anchor="start" x="33.8124" y="-548.5" font-family="Helvetica,sans-Serif" font-size="10.00" fill="#000000">+ operator++()</text>
<text text-anchor="start" x="33.8124" y="-537.5" font-family="Helvetica,sans-Serif" font-size="10.00" fill="#000000">+ operator++()</text>
<text text-anchor="start" x="33.8124" y="-526.5" font-family="Helvetica,sans-Serif" font-size="10.00" fill="#000000">+ operator+()</text>
<text text-anchor="start" x="33.8124" y="-515.5" font-family="Helvetica,sans-Serif" font-size="10.00" fill="#000000">+ operator&#45;()</text>
<text text-anchor="start" x="33.8124" y="-504.5" font-family="Helvetica,sans-Serif" font-size="10.00" fill="#000000">+ operator*()</text>
<text text-anchor="start" x="33.8124" y="-493.5" font-family="Helvetica,sans-Serif" font-size="10.00" fill="#000000">+ doSetCurrentIndex()</text>
<text text-anchor="start" x="33.8124" y="-482.5" font-family="Helvetica,sans-Serif" font-size="10.00" fill="#000000">+ bindExternalIndices()</text>
</a>
</g>
</g>
<!-- Node8&#45;&gt;Node11 -->
<g id="edge6" class="edge">
<title>Node8&#45;&gt;Node11</title>
<path fill="none" stroke="#191970" d="M48.2598,-713.6597C51.8238,-702.2224 55.9071,-689.1187 60.1079,-675.6381"/>
<polygon fill="none" stroke="#191970" points="44.9051,-712.6609 45.2715,-723.2494 51.5882,-714.7435 44.9051,-712.6609"/>
</g>
<!-- Node9 -->
<g id="node4" class="node">
<title>Node9</title>
<polygon fill="none" stroke="#bfbfbf" points="253.8124,-723.5 253.8124,-780.5 282.8124,-780.5 282.8124,-723.5 253.8124,-723.5"/>
<text text-anchor="middle" x="268.3124" y="-768.5" font-family="Helvetica,sans-Serif" font-size="10.00" fill="#000000">C</text>
<polyline fill="none" stroke="#bfbfbf" points="253.8124,-761.5 282.8124,-761.5 "/>
<text text-anchor="middle" x="268.3124" y="-749.5" font-family="Helvetica,sans-Serif" font-size="10.00" fill="#000000"> </text>
<polyline fill="none" stroke="#bfbfbf" points="253.8124,-742.5 282.8124,-742.5 "/>
<text text-anchor="middle" x="268.3124" y="-730.5" font-family="Helvetica,sans-Serif" font-size="10.00" fill="#000000"> </text>
</g>
<!-- Node9&#45;&gt;Node7 -->
<g id="edge3" class="edge">
<title>Node9&#45;&gt;Node7</title>
<path fill="none" stroke="#191970" d="M278.9925,-713.4189C292.1971,-658.5799 309.5751,-555.783 280.3124,-475 268.4454,-442.2397 245.7712,-411.6473 223.0903,-386.9116"/>
<polygon fill="none" stroke="#191970" points="275.5258,-712.8561 276.5051,-723.4055 282.3183,-714.548 275.5258,-712.8561"/>
</g>
<!-- Node9&#45;&gt;Node11 -->
<g id="edge7" class="edge">
<title>Node9&#45;&gt;Node11</title>
<path fill="none" stroke="#191970" d="M245.2495,-736.2768C224.7795,-721.7919 194.5941,-699.1029 171.3124,-676 166.4843,-671.209 161.6711,-666.133 156.9378,-660.908"/>
<polygon fill="none" stroke="#191970" points="243.4431,-739.2844 253.645,-742.1431 247.4525,-733.5463 243.4431,-739.2844"/>
</g>
<!-- Node10 -->
<g id="node5" class="node">
<title>Node10</title>
<polygon fill="none" stroke="#bfbfbf" points="90.3124,-723.5 90.3124,-780.5 128.3124,-780.5 128.3124,-723.5 90.3124,-723.5"/>
<text text-anchor="middle" x="109.3124" y="-768.5" font-family="Helvetica,sans-Serif" font-size="10.00" fill="#000000">bool</text>
<polyline fill="none" stroke="#bfbfbf" points="90.3124,-761.5 128.3124,-761.5 "/>
<text text-anchor="middle" x="109.3124" y="-749.5" font-family="Helvetica,sans-Serif" font-size="10.00" fill="#000000"> </text>
<polyline fill="none" stroke="#bfbfbf" points="90.3124,-742.5 128.3124,-742.5 "/>
<text text-anchor="middle" x="109.3124" y="-730.5" font-family="Helvetica,sans-Serif" font-size="10.00" fill="#000000"> </text>
</g>
<!-- Node10&#45;&gt;Node7 -->
<g id="edge4" class="edge">
<title>Node10&#45;&gt;Node7</title>
<path fill="none" stroke="#404040" d="M128.4185,-745.1747C145.2293,-738.0283 168.6394,-725.0218 179.3124,-705 233.4615,-603.4203 189.8627,-560.6266 179.3124,-446 179.1212,-443.9229 178.9116,-441.8278 178.6852,-439.7194"/>
<polygon fill="none" stroke="#404040" points="178.652,-439.4432 173.9635,-433.9644 177.2175,-427.5293 181.9061,-433.0081 178.652,-439.4432"/>
<text text-anchor="middle" x="242.8124" y="-573" font-family="Helvetica,sans-Serif" font-size="10.00" fill="#000000"> +has_index_v</text>
</g>
<!-- Node10&#45;&gt;Node11 -->
<g id="edge8" class="edge">
<title>Node10&#45;&gt;Node11</title>
<path fill="none" stroke="#404040" d="M106.3803,-723.2494C105.3354,-713.0034 104.0862,-700.7546 102.7604,-687.7535"/>
<polygon fill="none" stroke="#404040" points="102.7424,-687.5762 98.1542,-682.013 101.5248,-675.6381 106.1129,-681.2013 102.7424,-687.5762"/>
<text text-anchor="middle" x="141.8124" y="-697" font-family="Helvetica,sans-Serif" font-size="10.00" fill="#000000"> +has_index_v</text>
</g>
<!-- Node11&#45;&gt;Node7 -->
<g id="edge5" class="edge">
<title>Node11&#45;&gt;Node7</title>
<path fill="none" stroke="#ffa500" d="M117.2064,-465.5766C118.899,-458.9435 120.6085,-452.3775 122.3124,-446 123.9182,-439.9899 125.6093,-433.8207 127.3457,-427.6058"/>
<polygon fill="#ffa500" stroke="#ffa500" points="113.7988,-464.7758 114.7412,-475.3286 120.5853,-466.4914 113.7988,-464.7758"/>
<text text-anchor="middle" x="150.8124" y="-449" font-family="Helvetica,sans-Serif" font-size="10.00" fill="#000000"> &lt; IP, C... &gt;</text>
</g>
</g>
</svg>
