<?xml version="1.0" encoding="UTF-8" standalone="no"?>
<!DOCTYPE svg PUBLIC "-//W3C//DTD SVG 1.1//EN"
 "http://www.w3.org/Graphics/SVG/1.1/DTD/svg11.dtd">
<!-- Generated by graphviz version 2.40.1 (20161225.0304)
 -->
<!-- Title: /home/travis/build/AliceO2Group/AliceO2/Detectors/PHOS/simulation/include/PHOSSimulation/Detector.h Pages: 1 -->
<!--zoomable 374 -->
<svg id="main" version="1.1" xmlns="http://www.w3.org/2000/svg" xmlns:xlink="http://www.w3.org/1999/xlink" xml:space="preserve" onload="init(evt)">
<style type="text/css"><![CDATA[
.edge:hover path { stroke: red; }
.edge:hover polygon { stroke: red; fill: red; }
]]></style>
<script type="text/javascript"><![CDATA[
var edges = document.getElementsByTagName('g');
if (edges && edges.length) {
  for (var i=0;i<edges.length;i++) {
    if (edges[i].id.substr(0,4)=='edge') {
      edges[i].setAttribute('class','edge');
    }
  }
}
]]></script>
        <defs>
                <circle id="rim" cx="0" cy="0" r="7"/>
                <circle id="rim2" cx="0" cy="0" r="3.5"/>
                <g id="zoomPlus">
                        <use xlink:href="#rim" fill="#404040">
                                <set attributeName="fill" to="#808080" begin="zoomplus.mouseover" end="zoomplus.mouseout"/>
                        </use>
                        <path d="M-4,0h8M0,-4v8" fill="none" stroke="white" stroke-width="1.5" pointer-events="none"/>
                </g>
                <g id="zoomMin">
                        <use xlink:href="#rim" fill="#404040">
                                <set attributeName="fill" to="#808080" begin="zoomminus.mouseover" end="zoomminus.mouseout"/>
                        </use>
                        <path d="M-4,0h8" fill="none" stroke="white" stroke-width="1.5" pointer-events="none"/>
                </g>
                <g id="dirArrow">
                        <path fill="none" stroke="white" stroke-width="1.5" d="M0,-3.0v7 M-2.5,-0.5L0,-3.0L2.5,-0.5"/>
                </g>
               <g id="resetDef">
                       <use xlink:href="#rim2" fill="#404040">
                               <set attributeName="fill" to="#808080" begin="reset.mouseover" end="reset.mouseout"/>
                       </use>
               </g>
        </defs>

<script type="text/javascript">
var viewWidth = 2587;
var viewHeight = 374;
var sectionId = 'dynsection-0';
</script>
<script xlink:href="../../svgpan.js"/>
<svg id="graph" class="graph">
<g id="viewport">
<title>/home/travis/build/AliceO2Group/AliceO2/Detectors/PHOS/simulation/include/PHOSSimulation/Detector.h</title>
<!-- Node0 -->
<g id="node1" class="node">
<title>Node0</title>
<polygon fill="#bfbfbf" stroke="#000000" points="1572.5,-313.5 1572.5,-365.5 1763.5,-365.5 1763.5,-313.5 1572.5,-313.5"/>
<text text-anchor="start" x="1580.5" y="-353.5" font-family="Helvetica,sans-Serif" font-size="10.00" fill="#000000">/home/travis/build</text>
<text text-anchor="start" x="1580.5" y="-342.5" font-family="Helvetica,sans-Serif" font-size="10.00" fill="#000000">/AliceO2Group/AliceO2</text>
<text text-anchor="start" x="1580.5" y="-331.5" font-family="Helvetica,sans-Serif" font-size="10.00" fill="#000000">/Detectors/PHOS/simulation</text>
<text text-anchor="middle" x="1668" y="-320.5" font-family="Helvetica,sans-Serif" font-size="10.00" fill="#000000">/include/PHOSSimulation/Detector.h</text>
</g>
<!-- Node1 -->
<g id="node2" class="node">
<title>Node1</title>
<g id="a_node2"><a xlink:href="../../d1/d3a/Base_2include_2DetectorsBase_2Detector_8h.html" target="_top" xlink:title="DetectorsBase/Detector.h">
<polygon fill="none" stroke="#000000" points="574.5,-257.5 574.5,-276.5 715.5,-276.5 715.5,-257.5 574.5,-257.5"/>
<text text-anchor="middle" x="645" y="-264.5" font-family="Helvetica,sans-Serif" font-size="10.00" fill="#000000">DetectorsBase/Detector.h</text>
</a>
</g>
</g>
<!-- Node0&#45;&gt;Node1 -->
<g id="edge1" class="edge">
<title>Node0&#45;&gt;Node1</title>
<path fill="none" stroke="#191970" d="M1572.2184,-332.712C1371.8839,-318.5143 911.7884,-285.9073 725.505,-272.7054"/>
<polygon fill="#191970" stroke="#191970" points="725.7266,-269.2124 715.5042,-271.9966 725.2317,-276.1949 725.7266,-269.2124"/>
</g>
<!-- Node2 -->
<g id="node3" class="node">
<title>Node2</title>
<polygon fill="none" stroke="#bfbfbf" points="1400,-134.5 1400,-153.5 1438,-153.5 1438,-134.5 1400,-134.5"/>
<text text-anchor="middle" x="1419" y="-141.5" font-family="Helvetica,sans-Serif" font-size="10.00" fill="#000000">map</text>
</g>
<!-- Node0&#45;&gt;Node2 -->
<g id="edge49" class="edge">
<title>Node0&#45;&gt;Node2</title>
<path fill="none" stroke="#191970" d="M1672.9916,-313.2775C1677.6684,-280.0784 1679.9391,-223.2171 1649,-190 1622.1345,-161.1565 1504.37,-149.6311 1448.5506,-145.7259"/>
<polygon fill="#191970" stroke="#191970" points="1448.4676,-142.2128 1438.2579,-145.0436 1448.0045,-149.1974 1448.4676,-142.2128"/>
</g>
<!-- Node3 -->
<g id="node4" class="node">
<title>Node3</title>
<polygon fill="none" stroke="#bfbfbf" points="1447.5,-196 1447.5,-215 1494.5,-215 1494.5,-196 1447.5,-196"/>
<text text-anchor="middle" x="1471" y="-203" font-family="Helvetica,sans-Serif" font-size="10.00" fill="#000000">vector</text>
</g>
<!-- Node0&#45;&gt;Node3 -->
<g id="edge50" class="edge">
<title>Node0&#45;&gt;Node3</title>
<path fill="none" stroke="#191970" d="M1655.6985,-313.4511C1645.9096,-295.2924 1630.6097,-271.7648 1611,-257 1570.9165,-226.8198 1550.5616,-239.6963 1504,-221 1502.605,-220.4398 1501.1847,-219.8502 1499.756,-219.2414"/>
<polygon fill="#191970" stroke="#191970" points="1500.9386,-215.9364 1490.3806,-215.0543 1498.0841,-222.328 1500.9386,-215.9364"/>
</g>
<!-- Node9 -->
<g id="node10" class="node">
<title>Node9</title>
<polygon fill="none" stroke="#bfbfbf" points="1253.5,-73 1253.5,-92 1312.5,-92 1312.5,-73 1253.5,-73"/>
<text text-anchor="middle" x="1283" y="-80" font-family="Helvetica,sans-Serif" font-size="10.00" fill="#000000">Rtypes.h</text>
</g>
<!-- Node0&#45;&gt;Node9 -->
<g id="edge48" class="edge">
<title>Node0&#45;&gt;Node9</title>
<path fill="none" stroke="#191970" d="M1678.9407,-313.2187C1682.9559,-302.2305 1687.0051,-289.2005 1689,-277 1695.3716,-238.0319 1698.996,-217.8448 1671,-190 1556.9615,-76.5776 1473.5648,-148.9257 1321,-98 1318.8584,-97.2852 1316.6648,-96.5098 1314.4649,-95.6999"/>
<polygon fill="#191970" stroke="#191970" points="1315.5101,-92.3515 1304.9209,-92.0079 1312.9846,-98.8801 1315.5101,-92.3515"/>
</g>
<!-- Node26 -->
<g id="node27" class="node">
<title>Node26</title>
<g id="a_node27"><a xlink:href="../../dd/d76/Cartesian3D_8h.html" target="_top" xlink:title="MathUtils/Cartesian3D.h">
<polygon fill="none" stroke="#000000" points="1734.5,-134.5 1734.5,-153.5 1869.5,-153.5 1869.5,-134.5 1734.5,-134.5"/>
<text text-anchor="middle" x="1802" y="-141.5" font-family="Helvetica,sans-Serif" font-size="10.00" fill="#000000">MathUtils/Cartesian3D.h</text>
</a>
</g>
</g>
<!-- Node0&#45;&gt;Node26 -->
<g id="edge31" class="edge">
<title>Node0&#45;&gt;Node26</title>
<path fill="none" stroke="#191970" d="M1691.1228,-313.3971C1700.4574,-302.4363 1711.1025,-289.3785 1720,-277 1748.218,-237.7421 1776.8909,-188.6812 1791.7077,-162.496"/>
<polygon fill="#191970" stroke="#191970" points="1794.8317,-164.0812 1796.6781,-153.6485 1788.7288,-160.6526 1794.8317,-164.0812"/>
</g>
<!-- Node36 -->
<g id="node37" class="node">
<title>Node36</title>
<g id="a_node37"><a xlink:href="../../db/dad/Detectors_2PHOS_2base_2include_2PHOSBase_2Hit_8h.html" target="_top" xlink:title="PHOSBase/Hit.h">
<polygon fill="none" stroke="#000000" points="1508,-257.5 1508,-276.5 1602,-276.5 1602,-257.5 1508,-257.5"/>
<text text-anchor="middle" x="1555" y="-264.5" font-family="Helvetica,sans-Serif" font-size="10.00" fill="#000000">PHOSBase/Hit.h</text>
</a>
</g>
</g>
<!-- Node0&#45;&gt;Node36 -->
<g id="edge43" class="edge">
<title>Node0&#45;&gt;Node36</title>
<path fill="none" stroke="#191970" d="M1627.2044,-313.3258C1610.8172,-302.8119 1592.5153,-291.0696 1578.4381,-282.0377"/>
<polygon fill="#191970" stroke="#191970" points="1580.1666,-278.9883 1569.8599,-276.534 1576.3865,-284.8799 1580.1666,-278.9883"/>
</g>
<!-- Node38 -->
<g id="node39" class="node">
<title>Node38</title>
<polygon fill="none" stroke="#bfbfbf" points="1772,-257.5 1772,-276.5 1856,-276.5 1856,-257.5 1772,-257.5"/>
<text text-anchor="middle" x="1814" y="-264.5" font-family="Helvetica,sans-Serif" font-size="10.00" fill="#000000">RStringView.h</text>
</g>
<!-- Node0&#45;&gt;Node38 -->
<g id="edge47" class="edge">
<title>Node0&#45;&gt;Node38</title>
<path fill="none" stroke="#191970" d="M1720.7094,-313.3258C1742.6888,-302.4114 1767.3341,-290.1731 1785.7717,-281.0175"/>
<polygon fill="#191970" stroke="#191970" points="1787.4006,-284.1164 1794.8005,-276.534 1784.2873,-277.8469 1787.4006,-284.1164"/>
</g>
<!-- Node1&#45;&gt;Node2 -->
<g id="edge2" class="edge">
<title>Node1&#45;&gt;Node2</title>
<path fill="none" stroke="#191970" d="M715.7382,-264.919C898.289,-259.2517 1372.8659,-242.5168 1399,-221 1415.6101,-207.3245 1419.4111,-181.7808 1419.8414,-163.8763"/>
<polygon fill="#191970" stroke="#191970" points="1423.3393,-163.6202 1419.7484,-153.6525 1416.3396,-163.684 1423.3393,-163.6202"/>
</g>
<!-- Node1&#45;&gt;Node3 -->
<g id="edge3" class="edge">
<title>Node1&#45;&gt;Node3</title>
<path fill="none" stroke="#191970" d="M715.5132,-265.8416C882.3602,-262.6239 1297.5111,-251.6968 1433,-221 1435.8012,-220.3653 1438.6625,-219.5462 1441.4955,-218.6164"/>
<polygon fill="#191970" stroke="#191970" points="1442.7285,-221.8922 1450.8899,-215.1364 1440.2968,-215.3281 1442.7285,-221.8922"/>
</g>
<!-- Node4 -->
<g id="node5" class="node">
<title>Node4</title>
<polygon fill="none" stroke="#bfbfbf" points="1094.5,-134.5 1094.5,-153.5 1177.5,-153.5 1177.5,-134.5 1094.5,-134.5"/>
<text text-anchor="middle" x="1136" y="-141.5" font-family="Helvetica,sans-Serif" font-size="10.00" fill="#000000">initializer_list</text>
</g>
<!-- Node1&#45;&gt;Node4 -->
<g id="edge4" class="edge">
<title>Node1&#45;&gt;Node4</title>
<path fill="none" stroke="#191970" d="M715.5737,-265.8973C850.0808,-263.0602 1132.4597,-253.2853 1162,-221 1177.1672,-204.4234 1163.4049,-178.6755 1150.8351,-161.5802"/>
<polygon fill="#191970" stroke="#191970" points="1153.4494,-159.2417 1144.53,-153.5236 1147.9367,-163.5558 1153.4494,-159.2417"/>
</g>
<!-- Node5 -->
<g id="node6" class="node">
<title>Node5</title>
<polygon fill="none" stroke="#bfbfbf" points="691,-196 691,-215 749,-215 749,-196 691,-196"/>
<text text-anchor="middle" x="720" y="-203" font-family="Helvetica,sans-Serif" font-size="10.00" fill="#000000">memory</text>
</g>
<!-- Node1&#45;&gt;Node5 -->
<g id="edge5" class="edge">
<title>Node1&#45;&gt;Node5</title>
<path fill="none" stroke="#191970" d="M656.7188,-257.3906C668.3188,-247.8786 686.2979,-233.1357 700.1321,-221.7917"/>
<polygon fill="#191970" stroke="#191970" points="702.6026,-224.2921 708.116,-215.2449 698.164,-218.8792 702.6026,-224.2921"/>
</g>
<!-- Node6 -->
<g id="node7" class="node">
<title>Node6</title>
<polygon fill="none" stroke="#bfbfbf" points="767,-196 767,-215 851,-215 851,-196 767,-196"/>
<text text-anchor="middle" x="809" y="-203" font-family="Helvetica,sans-Serif" font-size="10.00" fill="#000000">FairDetector.h</text>
</g>
<!-- Node1&#45;&gt;Node6 -->
<g id="edge6" class="edge">
<title>Node1&#45;&gt;Node6</title>
<path fill="none" stroke="#191970" d="M670.625,-257.3906C698.4263,-246.9652 742.9844,-230.2559 773.9994,-218.6252"/>
<polygon fill="#191970" stroke="#191970" points="775.4206,-221.8303 783.5549,-215.0419 772.9627,-215.276 775.4206,-221.8303"/>
</g>
<!-- Node7 -->
<g id="node8" class="node">
<title>Node7</title>
<polygon fill="none" stroke="#bfbfbf" points="869,-196 869,-215 975,-215 975,-196 869,-196"/>
<text text-anchor="middle" x="922" y="-203" font-family="Helvetica,sans-Serif" font-size="10.00" fill="#000000">FairRootManager.h</text>
</g>
<!-- Node1&#45;&gt;Node7 -->
<g id="edge7" class="edge">
<title>Node1&#45;&gt;Node7</title>
<path fill="none" stroke="#191970" d="M691.6555,-257.4978C735.2743,-248.5005 802.1783,-234.4092 860,-221 864.7489,-219.8987 869.694,-218.7189 874.6282,-217.5199"/>
<polygon fill="#191970" stroke="#191970" points="875.7985,-220.8365 884.6742,-215.0509 874.1278,-214.0387 875.7985,-220.8365"/>
</g>
<!-- Node8 -->
<g id="node9" class="node">
<title>Node8</title>
<g id="a_node9"><a xlink:href="../../d0/d9a/MaterialManager_8h.html" target="_top" xlink:title="DetectorsBase/MaterialManager.h">
<polygon fill="none" stroke="#000000" points="1209.5,-196 1209.5,-215 1390.5,-215 1390.5,-196 1209.5,-196"/>
<text text-anchor="middle" x="1300" y="-203" font-family="Helvetica,sans-Serif" font-size="10.00" fill="#000000">DetectorsBase/MaterialManager.h</text>
</a>
</g>
</g>
<!-- Node1&#45;&gt;Node8 -->
<g id="edge8" class="edge">
<title>Node1&#45;&gt;Node8</title>
<path fill="none" stroke="#191970" d="M715.9019,-262.5065C820.7957,-255.5335 1023.4262,-240.8187 1195,-221 1206.3262,-219.6917 1218.3113,-218.1103 1229.9751,-216.4643"/>
<polygon fill="#191970" stroke="#191970" points="1230.7175,-219.8937 1240.1178,-215.0065 1229.7215,-212.9649 1230.7175,-219.8937"/>
</g>
<!-- Node1&#45;&gt;Node9 -->
<g id="edge14" class="edge">
<title>Node1&#45;&gt;Node9</title>
<path fill="none" stroke="#191970" d="M595.6261,-257.4004C548.2019,-245.9372 487.3854,-223.9426 514,-190 559.5906,-131.8566 1091.0938,-94.4585 1242.8018,-84.9167"/>
<polygon fill="#191970" stroke="#191970" points="1243.2935,-88.393 1253.0566,-84.2779 1242.8583,-81.4065 1243.2935,-88.393"/>
</g>
<!-- Node12 -->
<g id="node13" class="node">
<title>Node12</title>
<polygon fill="none" stroke="#bfbfbf" points="64,-196 64,-215 122,-215 122,-196 64,-196"/>
<text text-anchor="middle" x="93" y="-203" font-family="Helvetica,sans-Serif" font-size="10.00" fill="#000000">cxxabi.h</text>
</g>
<!-- Node1&#45;&gt;Node12 -->
<g id="edge15" class="edge">
<title>Node1&#45;&gt;Node12</title>
<path fill="none" stroke="#191970" d="M574.2345,-263.2762C453.5881,-256.4916 213.1642,-240.9568 131,-221 128.2089,-220.3221 125.3546,-219.4733 122.5261,-218.5243"/>
<polygon fill="#191970" stroke="#191970" points="123.7312,-215.2383 113.1388,-215.0143 121.2796,-221.795 123.7312,-215.2383"/>
</g>
<!-- Node13 -->
<g id="node14" class="node">
<title>Node13</title>
<polygon fill="none" stroke="#bfbfbf" points="140.5,-196 140.5,-215 197.5,-215 197.5,-196 140.5,-196"/>
<text text-anchor="middle" x="169" y="-203" font-family="Helvetica,sans-Serif" font-size="10.00" fill="#000000">typeinfo</text>
</g>
<!-- Node1&#45;&gt;Node13 -->
<g id="edge16" class="edge">
<title>Node1&#45;&gt;Node13</title>
<path fill="none" stroke="#191970" d="M574.4046,-262.1212C468.5377,-254.3774 273.8365,-238.3617 206,-221 203.5205,-220.3654 200.9903,-219.5936 198.4752,-218.737"/>
<polygon fill="#191970" stroke="#191970" points="199.5791,-215.4122 188.9881,-215.1244 197.0879,-221.954 199.5791,-215.4122"/>
</g>
<!-- Node14 -->
<g id="node15" class="node">
<title>Node14</title>
<polygon fill="none" stroke="#bfbfbf" points="215.5,-196 215.5,-215 284.5,-215 284.5,-196 215.5,-196"/>
<text text-anchor="middle" x="250" y="-203" font-family="Helvetica,sans-Serif" font-size="10.00" fill="#000000">type_traits</text>
</g>
<!-- Node1&#45;&gt;Node14 -->
<g id="edge17" class="edge">
<title>Node1&#45;&gt;Node14</title>
<path fill="none" stroke="#191970" d="M574.2905,-262.0847C502.8411,-256.1055 389.6423,-243.849 294,-221 290.7703,-220.2284 287.4465,-219.3064 284.1416,-218.302"/>
<polygon fill="#191970" stroke="#191970" points="284.9893,-214.8967 274.3966,-215.1092 282.8098,-221.5488 284.9893,-214.8967"/>
</g>
<!-- Node15 -->
<g id="node16" class="node">
<title>Node15</title>
<polygon fill="none" stroke="#bfbfbf" points="303,-196 303,-215 347,-215 347,-196 303,-196"/>
<text text-anchor="middle" x="325" y="-203" font-family="Helvetica,sans-Serif" font-size="10.00" fill="#000000">string</text>
</g>
<!-- Node1&#45;&gt;Node15 -->
<g id="edge18" class="edge">
<title>Node1&#45;&gt;Node15</title>
<path fill="none" stroke="#191970" d="M574.4095,-261.8277C515.0181,-256.0505 428.437,-244.2632 356,-221 354.3851,-220.4814 352.7501,-219.8891 351.1188,-219.2455"/>
<polygon fill="#191970" stroke="#191970" points="352.5423,-216.0481 341.985,-215.1569 349.6823,-222.4372 352.5423,-216.0481"/>
</g>
<!-- Node16 -->
<g id="node17" class="node">
<title>Node16</title>
<polygon fill="none" stroke="#bfbfbf" points="365,-196 365,-215 439,-215 439,-196 365,-196"/>
<text text-anchor="middle" x="402" y="-203" font-family="Helvetica,sans-Serif" font-size="10.00" fill="#000000">TMessage.h</text>
</g>
<!-- Node1&#45;&gt;Node16 -->
<g id="edge19" class="edge">
<title>Node1&#45;&gt;Node16</title>
<path fill="none" stroke="#191970" d="M602.1092,-257.4982C563.0749,-248.6674 503.942,-234.8303 453,-221 449.4416,-220.0339 445.7555,-218.9931 442.0676,-217.9242"/>
<polygon fill="#191970" stroke="#191970" points="442.9699,-214.5413 432.3878,-215.0613 440.9845,-221.2538 442.9699,-214.5413"/>
</g>
<!-- Node17 -->
<g id="node18" class="node">
<title>Node17</title>
<g id="a_node18"><a xlink:href="../../de/d61/ShmManager_8h.html" target="_top" xlink:title="CommonUtils/ShmManager.h">
<polygon fill="none" stroke="#000000" points="119,-134.5 119,-153.5 277,-153.5 277,-134.5 119,-134.5"/>
<text text-anchor="middle" x="198" y="-141.5" font-family="Helvetica,sans-Serif" font-size="10.00" fill="#000000">CommonUtils/ShmManager.h</text>
</a>
</g>
</g>
<!-- Node1&#45;&gt;Node17 -->
<g id="edge20" class="edge">
<title>Node1&#45;&gt;Node17</title>
<path fill="none" stroke="#191970" d="M574.2989,-264.0282C421.4259,-257.2597 72.4094,-239.8196 55,-221 25.5607,-189.1761 83.0637,-167.804 133.6951,-155.8083"/>
<polygon fill="#191970" stroke="#191970" points="134.7265,-159.1632 143.702,-153.5338 133.175,-152.3373 134.7265,-159.1632"/>
</g>
<!-- Node22 -->
<g id="node23" class="node">
<title>Node22</title>
<g id="a_node23"><a xlink:href="../../d0/d91/ShmAllocator_8h.html" target="_top" xlink:title="CommonUtils/ShmAllocator.h">
<polygon fill="none" stroke="#000000" points="993,-196 993,-215 1153,-215 1153,-196 993,-196"/>
<text text-anchor="middle" x="1073" y="-203" font-family="Helvetica,sans-Serif" font-size="10.00" fill="#000000">CommonUtils/ShmAllocator.h</text>
</a>
</g>
</g>
<!-- Node1&#45;&gt;Node22 -->
<g id="edge25" class="edge">
<title>Node1&#45;&gt;Node22</title>
<path fill="none" stroke="#191970" d="M715.5572,-258.2104C784.2066,-249.4734 891.4105,-235.3393 984,-221 992.5585,-219.6746 1001.5656,-218.1998 1010.4297,-216.7017"/>
<polygon fill="#191970" stroke="#191970" points="1011.0778,-220.1418 1020.3453,-215.0072 1009.8985,-213.2418 1011.0778,-220.1418"/>
</g>
<!-- Node23 -->
<g id="node24" class="node">
<title>Node23</title>
<polygon fill="none" stroke="#bfbfbf" points="751,-134.5 751,-153.5 803,-153.5 803,-134.5 751,-134.5"/>
<text text-anchor="middle" x="777" y="-141.5" font-family="Helvetica,sans-Serif" font-size="10.00" fill="#000000">cassert</text>
</g>
<!-- Node1&#45;&gt;Node23 -->
<g id="edge30" class="edge">
<title>Node1&#45;&gt;Node23</title>
<path fill="none" stroke="#191970" d="M606.4287,-257.4404C574.805,-248.7303 533.7289,-235.1067 524,-221 516.1779,-209.658 515.1719,-200.5779 524,-190 551.1762,-157.4371 677.3856,-147.8709 740.6488,-145.1028"/>
<polygon fill="#191970" stroke="#191970" points="741.1139,-148.587 750.965,-144.6875 740.8322,-141.5927 741.1139,-148.587"/>
</g>
<!-- Node24 -->
<g id="node25" class="node">
<title>Node24</title>
<polygon fill="none" stroke="#bfbfbf" points="533,-196 533,-215 599,-215 599,-196 533,-196"/>
<text text-anchor="middle" x="566" y="-203" font-family="Helvetica,sans-Serif" font-size="10.00" fill="#000000">sys/shm.h</text>
</g>
<!-- Node1&#45;&gt;Node24 -->
<g id="edge28" class="edge">
<title>Node1&#45;&gt;Node24</title>
<path fill="none" stroke="#191970" d="M632.6563,-257.3906C620.2497,-247.7324 600.9157,-232.6812 586.2587,-221.271"/>
<polygon fill="#191970" stroke="#191970" points="588.2979,-218.423 578.2571,-215.0419 583.9979,-223.9466 588.2979,-218.423"/>
</g>
<!-- Node25 -->
<g id="node26" class="node">
<title>Node25</title>
<polygon fill="none" stroke="#bfbfbf" points="617,-196 617,-215 673,-215 673,-196 617,-196"/>
<text text-anchor="middle" x="645" y="-203" font-family="Helvetica,sans-Serif" font-size="10.00" fill="#000000">unistd.h</text>
</g>
<!-- Node1&#45;&gt;Node25 -->
<g id="edge29" class="edge">
<title>Node1&#45;&gt;Node25</title>
<path fill="none" stroke="#191970" d="M645,-257.3906C645,-248.8657 645,-236.1392 645,-225.4235"/>
<polygon fill="#191970" stroke="#191970" points="648.5001,-225.2448 645,-215.2449 641.5001,-225.2449 648.5001,-225.2448"/>
</g>
<!-- Node8&#45;&gt;Node2 -->
<g id="edge10" class="edge">
<title>Node8&#45;&gt;Node2</title>
<path fill="none" stroke="#191970" d="M1318.5938,-195.8906C1338.1553,-185.7811 1369.1501,-169.7628 1391.5309,-158.1962"/>
<polygon fill="#191970" stroke="#191970" points="1393.26,-161.2425 1400.5368,-153.5419 1390.0461,-155.0238 1393.26,-161.2425"/>
</g>
<!-- Node8&#45;&gt;Node4 -->
<g id="edge12" class="edge">
<title>Node8&#45;&gt;Node4</title>
<path fill="none" stroke="#191970" d="M1274.375,-195.8906C1246.5737,-185.4652 1202.0156,-168.7559 1171.0006,-157.1252"/>
<polygon fill="#191970" stroke="#191970" points="1172.0373,-153.776 1161.4451,-153.5419 1169.5794,-160.3303 1172.0373,-153.776"/>
</g>
<!-- Node8&#45;&gt;Node9 -->
<g id="edge9" class="edge">
<title>Node8&#45;&gt;Node9</title>
<path fill="none" stroke="#191970" d="M1300.277,-195.7183C1300.5133,-181.8848 1300.3853,-155.8543 1297,-134 1295.3306,-123.2228 1292.2367,-111.469 1289.3812,-101.9148"/>
<polygon fill="#191970" stroke="#191970" points="1292.6772,-100.7278 1286.3472,-92.2318 1285.9974,-102.8209 1292.6772,-100.7278"/>
</g>
<!-- Node10 -->
<g id="node11" class="node">
<title>Node10</title>
<polygon fill="none" stroke="#bfbfbf" points="1195.5,-134.5 1195.5,-153.5 1288.5,-153.5 1288.5,-134.5 1195.5,-134.5"/>
<text text-anchor="middle" x="1242" y="-141.5" font-family="Helvetica,sans-Serif" font-size="10.00" fill="#000000">unordered_map</text>
</g>
<!-- Node8&#45;&gt;Node10 -->
<g id="edge11" class="edge">
<title>Node8&#45;&gt;Node10</title>
<path fill="none" stroke="#191970" d="M1290.9375,-195.8906C1282.2207,-186.6478 1268.846,-172.466 1258.2804,-161.2628"/>
<polygon fill="#191970" stroke="#191970" points="1260.5976,-158.6186 1251.1903,-153.7449 1255.505,-163.4213 1260.5976,-158.6186"/>
</g>
<!-- Node11 -->
<g id="node12" class="node">
<title>Node11</title>
<polygon fill="none" stroke="#bfbfbf" points="1330.5,-73 1330.5,-92 1379.5,-92 1379.5,-73 1330.5,-73"/>
<text text-anchor="middle" x="1355" y="-80" font-family="Helvetica,sans-Serif" font-size="10.00" fill="#000000">iosfwd</text>
</g>
<!-- Node8&#45;&gt;Node11 -->
<g id="edge13" class="edge">
<title>Node8&#45;&gt;Node11</title>
<path fill="none" stroke="#191970" d="M1304.3158,-195.8484C1313.3923,-175.5499 1334.5992,-128.1235 1346.5049,-101.4981"/>
<polygon fill="#191970" stroke="#191970" points="1349.8173,-102.6644 1350.7043,-92.1068 1343.4271,-99.807 1349.8173,-102.6644"/>
</g>
<!-- Node18 -->
<g id="node19" class="node">
<title>Node18</title>
<polygon fill="none" stroke="#bfbfbf" points="152,-73 152,-92 184,-92 184,-73 152,-73"/>
<text text-anchor="middle" x="168" y="-80" font-family="Helvetica,sans-Serif" font-size="10.00" fill="#000000">list</text>
</g>
<!-- Node17&#45;&gt;Node18 -->
<g id="edge21" class="edge">
<title>Node17&#45;&gt;Node18</title>
<path fill="none" stroke="#191970" d="M193.3125,-134.3906C189.0227,-125.5965 182.5518,-112.3312 177.2266,-101.4145"/>
<polygon fill="#191970" stroke="#191970" points="180.2836,-99.6981 172.7536,-92.2449 173.9922,-102.7671 180.2836,-99.6981"/>
</g>
<!-- Node19 -->
<g id="node20" class="node">
<title>Node19</title>
<polygon fill="none" stroke="#bfbfbf" points="202.5,-73 202.5,-92 255.5,-92 255.5,-73 202.5,-73"/>
<text text-anchor="middle" x="229" y="-80" font-family="Helvetica,sans-Serif" font-size="10.00" fill="#000000">cstddef</text>
</g>
<!-- Node17&#45;&gt;Node19 -->
<g id="edge22" class="edge">
<title>Node17&#45;&gt;Node19</title>
<path fill="none" stroke="#191970" d="M202.8438,-134.3906C207.2766,-125.5965 213.9631,-112.3312 219.4659,-101.4145"/>
<polygon fill="#191970" stroke="#191970" points="222.7122,-102.75 224.088,-92.2449 216.4614,-99.5992 222.7122,-102.75"/>
</g>
<!-- Node20 -->
<g id="node21" class="node">
<title>Node20</title>
<polygon fill="none" stroke="#bfbfbf" points="273.5,-67.5 273.5,-97.5 438.5,-97.5 438.5,-67.5 273.5,-67.5"/>
<text text-anchor="start" x="281.5" y="-85.5" font-family="Helvetica,sans-Serif" font-size="10.00" fill="#000000">boost/interprocess</text>
<text text-anchor="middle" x="356" y="-74.5" font-family="Helvetica,sans-Serif" font-size="10.00" fill="#000000">/managed_external_buffer.hpp</text>
</g>
<!-- Node17&#45;&gt;Node20 -->
<g id="edge23" class="edge">
<title>Node17&#45;&gt;Node20</title>
<path fill="none" stroke="#191970" d="M222.6875,-134.3906C245.3578,-125.5664 279.5937,-112.2404 307.6942,-101.3026"/>
<polygon fill="#191970" stroke="#191970" points="309.2995,-104.4336 317.3489,-97.5446 306.7603,-97.9103 309.2995,-104.4336"/>
</g>
<!-- Node21 -->
<g id="node22" class="node">
<title>Node21</title>
<polygon fill="none" stroke="#bfbfbf" points="0,-67.5 0,-97.5 134,-97.5 134,-67.5 0,-67.5"/>
<text text-anchor="start" x="8" y="-85.5" font-family="Helvetica,sans-Serif" font-size="10.00" fill="#000000">boost/interprocess</text>
<text text-anchor="middle" x="67" y="-74.5" font-family="Helvetica,sans-Serif" font-size="10.00" fill="#000000">/allocators/allocator.hpp</text>
</g>
<!-- Node17&#45;&gt;Node21 -->
<g id="edge24" class="edge">
<title>Node17&#45;&gt;Node21</title>
<path fill="none" stroke="#191970" d="M177.5313,-134.3906C159.0633,-125.7205 131.3382,-112.7046 108.2764,-101.8779"/>
<polygon fill="#191970" stroke="#191970" points="109.5857,-98.6261 99.0462,-97.5446 106.6109,-104.9625 109.5857,-98.6261"/>
</g>
<!-- Node22&#45;&gt;Node17 -->
<g id="edge26" class="edge">
<title>Node22&#45;&gt;Node17</title>
<path fill="none" stroke="#191970" d="M1024.1813,-195.9664C1011.1677,-193.708 997.0868,-191.5175 984,-190 732.558,-160.8432 433.6067,-149.7986 287.4466,-145.9193"/>
<polygon fill="#191970" stroke="#191970" points="287.2776,-142.4138 277.1898,-145.6522 287.0953,-149.4114 287.2776,-142.4138"/>
</g>
<!-- Node22&#45;&gt;Node23 -->
<g id="edge27" class="edge">
<title>Node22&#45;&gt;Node23</title>
<path fill="none" stroke="#191970" d="M1027.0748,-195.9581C968.1596,-183.7173 867.1687,-162.7344 813.3169,-151.5456"/>
<polygon fill="#191970" stroke="#191970" points="813.7045,-148.0514 803.2015,-149.4439 812.2804,-154.9051 813.7045,-148.0514"/>
</g>
<!-- Node26&#45;&gt;Node9 -->
<g id="edge37" class="edge">
<title>Node26&#45;&gt;Node9</title>
<path fill="none" stroke="#191970" d="M1734.45,-135.592C1729.5619,-135.0358 1724.7063,-134.4992 1720,-134 1542.9394,-115.2206 1494.0078,-140.0882 1321,-98 1318.2092,-97.3211 1315.355,-96.4716 1312.5266,-95.5221"/>
<polygon fill="#191970" stroke="#191970" points="1313.7319,-92.2362 1303.1394,-92.0114 1311.2798,-98.7927 1313.7319,-92.2362"/>
</g>
<!-- Node26&#45;&gt;Node11 -->
<g id="edge39" class="edge">
<title>Node26&#45;&gt;Node11</title>
<path fill="none" stroke="#191970" d="M1734.4393,-135.6885C1729.5537,-135.1097 1724.7016,-134.5416 1720,-134 1572.5544,-117.0161 1530.9014,-138.0977 1388,-98 1386.0803,-97.4613 1384.1334,-96.8206 1382.195,-96.1109"/>
<polygon fill="#191970" stroke="#191970" points="1383.3154,-92.7855 1372.74,-92.1434 1380.6068,-99.2402 1383.3154,-92.7855"/>
</g>
<!-- Node27 -->
<g id="node28" class="node">
<title>Node27</title>
<polygon fill="none" stroke="#bfbfbf" points="1551,-67.5 1551,-97.5 1715,-97.5 1715,-67.5 1551,-67.5"/>
<text text-anchor="start" x="1559" y="-85.5" font-family="Helvetica,sans-Serif" font-size="10.00" fill="#000000">Math/GenVector/Displacement</text>
<text text-anchor="middle" x="1633" y="-74.5" font-family="Helvetica,sans-Serif" font-size="10.00" fill="#000000">Vector3D.h</text>
</g>
<!-- Node26&#45;&gt;Node27 -->
<g id="edge32" class="edge">
<title>Node26&#45;&gt;Node27</title>
<path fill="none" stroke="#191970" d="M1775.5938,-134.3906C1751.1333,-125.4893 1714.0851,-112.0073 1683.8828,-101.0165"/>
<polygon fill="#191970" stroke="#191970" points="1684.9361,-97.6753 1674.3421,-97.5446 1682.5423,-104.2533 1684.9361,-97.6753"/>
</g>
<!-- Node28 -->
<g id="node29" class="node">
<title>Node28</title>
<polygon fill="none" stroke="#bfbfbf" points="1733.5,-73 1733.5,-92 1922.5,-92 1922.5,-73 1733.5,-73"/>
<text text-anchor="middle" x="1828" y="-80" font-family="Helvetica,sans-Serif" font-size="10.00" fill="#000000">Math/GenVector/PositionVector3D.h</text>
</g>
<!-- Node26&#45;&gt;Node28 -->
<g id="edge33" class="edge">
<title>Node26&#45;&gt;Node28</title>
<path fill="none" stroke="#191970" d="M1806.0625,-134.3906C1809.7424,-125.6862 1815.2742,-112.6015 1819.862,-101.7494"/>
<polygon fill="#191970" stroke="#191970" points="1823.21,-102.8185 1823.8802,-92.2449 1816.7625,-100.0927 1823.21,-102.8185"/>
</g>
<!-- Node29 -->
<g id="node30" class="node">
<title>Node29</title>
<polygon fill="none" stroke="#bfbfbf" points="1941,-73 1941,-92 2101,-92 2101,-73 1941,-73"/>
<text text-anchor="middle" x="2021" y="-80" font-family="Helvetica,sans-Serif" font-size="10.00" fill="#000000">Math/GenVector/Rotation3D.h</text>
</g>
<!-- Node26&#45;&gt;Node29 -->
<g id="edge34" class="edge">
<title>Node26&#45;&gt;Node29</title>
<path fill="none" stroke="#191970" d="M1836.2188,-134.3906C1874.2275,-123.7169 1935.6911,-106.4566 1977.1884,-94.8033"/>
<polygon fill="#191970" stroke="#191970" points="1978.3402,-98.1153 1987.0215,-92.0419 1976.4477,-91.3759 1978.3402,-98.1153"/>
</g>
<!-- Node30 -->
<g id="node31" class="node">
<title>Node30</title>
<polygon fill="none" stroke="#bfbfbf" points="2119,-73 2119,-92 2287,-92 2287,-73 2119,-73"/>
<text text-anchor="middle" x="2203" y="-80" font-family="Helvetica,sans-Serif" font-size="10.00" fill="#000000">Math/GenVector/Transform3D.h</text>
</g>
<!-- Node26&#45;&gt;Node30 -->
<g id="edge35" class="edge">
<title>Node26&#45;&gt;Node30</title>
<path fill="none" stroke="#191970" d="M1867.8394,-134.4955C1930.235,-125.4103 2026.558,-111.1836 2110,-98 2118.5753,-96.6451 2127.5894,-95.1863 2136.4922,-93.7248"/>
<polygon fill="#191970" stroke="#191970" points="2137.1705,-97.1603 2146.4673,-92.079 2136.0309,-90.2537 2137.1705,-97.1603"/>
</g>
<!-- Node31 -->
<g id="node32" class="node">
<title>Node31</title>
<polygon fill="none" stroke="#bfbfbf" points="2305.5,-73 2305.5,-92 2478.5,-92 2478.5,-73 2305.5,-73"/>
<text text-anchor="middle" x="2392" y="-80" font-family="Helvetica,sans-Serif" font-size="10.00" fill="#000000">Math/GenVector/Translation3D.h</text>
</g>
<!-- Node26&#45;&gt;Node31 -->
<g id="edge36" class="edge">
<title>Node26&#45;&gt;Node31</title>
<path fill="none" stroke="#191970" d="M1869.6771,-139.1465C1964.9916,-131.9818 2144.1179,-117.3106 2296,-98 2305.9858,-96.7304 2316.5278,-95.2114 2326.8251,-93.628"/>
<polygon fill="#191970" stroke="#191970" points="2327.6745,-97.0376 2337.0112,-92.03 2326.5895,-90.1222 2327.6745,-97.0376"/>
</g>
<!-- Node32 -->
<g id="node33" class="node">
<title>Node32</title>
<polygon fill="none" stroke="#bfbfbf" points="2497,-73 2497,-92 2579,-92 2579,-73 2497,-73"/>
<text text-anchor="middle" x="2538" y="-80" font-family="Helvetica,sans-Serif" font-size="10.00" fill="#000000">TGeoMatrix.h</text>
</g>
<!-- Node26&#45;&gt;Node32 -->
<g id="edge38" class="edge">
<title>Node26&#45;&gt;Node32</title>
<path fill="none" stroke="#191970" d="M1869.5493,-141.4799C2018.397,-135.5999 2370.7188,-119.8 2488,-98 2492.4424,-97.1743 2497.0452,-96.0846 2501.5785,-94.8647"/>
<polygon fill="#191970" stroke="#191970" points="2502.677,-98.1903 2511.3025,-92.038 2500.723,-91.4686 2502.677,-98.1903"/>
</g>
<!-- Node33 -->
<g id="node34" class="node">
<title>Node33</title>
<g id="a_node34"><a xlink:href="../../d2/dd0/Cartesian2D_8h.html" target="_top" xlink:title="MathUtils/Cartesian2D.h">
<polygon fill="none" stroke="#000000" points="1397.5,-73 1397.5,-92 1532.5,-92 1532.5,-73 1397.5,-73"/>
<text text-anchor="middle" x="1465" y="-80" font-family="Helvetica,sans-Serif" font-size="10.00" fill="#000000">MathUtils/Cartesian2D.h</text>
</a>
</g>
</g>
<!-- Node26&#45;&gt;Node33 -->
<g id="edge40" class="edge">
<title>Node26&#45;&gt;Node33</title>
<path fill="none" stroke="#191970" d="M1745.8871,-134.4648C1693.1824,-125.4158 1612.1526,-111.2647 1542,-98 1535.3383,-96.7404 1528.3598,-95.3854 1521.4389,-94.0196"/>
<polygon fill="#191970" stroke="#191970" points="1521.8742,-90.5377 1511.3837,-92.0206 1520.5093,-97.4033 1521.8742,-90.5377"/>
</g>
<!-- Node34 -->
<g id="node35" class="node">
<title>Node34</title>
<polygon fill="none" stroke="#bfbfbf" points="1285,-.5 1285,-30.5 1449,-30.5 1449,-.5 1285,-.5"/>
<text text-anchor="start" x="1293" y="-18.5" font-family="Helvetica,sans-Serif" font-size="10.00" fill="#000000">Math/GenVector/Displacement</text>
<text text-anchor="middle" x="1367" y="-7.5" font-family="Helvetica,sans-Serif" font-size="10.00" fill="#000000">Vector2D.h</text>
</g>
<!-- Node33&#45;&gt;Node34 -->
<g id="edge41" class="edge">
<title>Node33&#45;&gt;Node34</title>
<path fill="none" stroke="#191970" d="M1450.959,-72.9005C1437.0412,-63.3853 1415.272,-48.5023 1397.388,-36.2755"/>
<polygon fill="#191970" stroke="#191970" points="1399.2026,-33.2763 1388.9721,-30.5218 1395.2519,-39.0549 1399.2026,-33.2763"/>
</g>
<!-- Node35 -->
<g id="node36" class="node">
<title>Node35</title>
<polygon fill="none" stroke="#bfbfbf" points="1467.5,-6 1467.5,-25 1656.5,-25 1656.5,-6 1467.5,-6"/>
<text text-anchor="middle" x="1562" y="-13" font-family="Helvetica,sans-Serif" font-size="10.00" fill="#000000">Math/GenVector/PositionVector2D.h</text>
</g>
<!-- Node33&#45;&gt;Node35 -->
<g id="edge42" class="edge">
<title>Node33&#45;&gt;Node35</title>
<path fill="none" stroke="#191970" d="M1478.8977,-72.9005C1494.8164,-61.9052 1521.1121,-43.7422 1539.8599,-30.7927"/>
<polygon fill="#191970" stroke="#191970" points="1541.8892,-33.6448 1548.128,-25.0817 1537.9108,-27.8852 1541.8892,-33.6448"/>
</g>
<!-- Node36&#45;&gt;Node22 -->
<g id="edge46" class="edge">
<title>Node36&#45;&gt;Node22</title>
<path fill="none" stroke="#191970" d="M1507.9062,-260.9911C1426.7523,-250.6364 1259.483,-229.294 1157.677,-216.3042"/>
<polygon fill="#191970" stroke="#191970" points="1158.0926,-212.829 1147.73,-215.0351 1157.2066,-219.7727 1158.0926,-212.829"/>
</g>
<!-- Node37 -->
<g id="node38" class="node">
<title>Node37</title>
<g id="a_node38"><a xlink:href="../../d4/d25/BaseHits_8h.html" target="_top" xlink:title="SimulationDataFormat\l/BaseHits.h">
<polygon fill="none" stroke="#000000" points="1512.5,-190.5 1512.5,-220.5 1639.5,-220.5 1639.5,-190.5 1512.5,-190.5"/>
<text text-anchor="start" x="1520.5" y="-208.5" font-family="Helvetica,sans-Serif" font-size="10.00" fill="#000000">SimulationDataFormat</text>
<text text-anchor="middle" x="1576" y="-197.5" font-family="Helvetica,sans-Serif" font-size="10.00" fill="#000000">/BaseHits.h</text>
</a>
</g>
</g>
<!-- Node36&#45;&gt;Node37 -->
<g id="edge44" class="edge">
<title>Node36&#45;&gt;Node37</title>
<path fill="none" stroke="#191970" d="M1558.2813,-257.3906C1560.7812,-250.0692 1564.3394,-239.6488 1567.6121,-230.0647"/>
<polygon fill="#191970" stroke="#191970" points="1570.9435,-231.1391 1570.8628,-220.5446 1564.3191,-228.8771 1570.9435,-231.1391"/>
</g>
<!-- Node37&#45;&gt;Node26 -->
<g id="edge45" class="edge">
<title>Node37&#45;&gt;Node26</title>
<path fill="none" stroke="#191970" d="M1631.2858,-190.4554C1669.9868,-179.9239 1721.034,-166.0328 1757.1959,-156.1923"/>
<polygon fill="#191970" stroke="#191970" points="1758.2479,-159.5333 1766.978,-153.5303 1756.4099,-152.779 1758.2479,-159.5333"/>
</g>
</g>
</svg>
        <g id="navigator" transform="translate(0 0)" fill="#404254">
                <rect fill="#f2f5e9" fill-opacity="0.5" stroke="#606060" stroke-width=".5" x="0" y="0" width="60" height="60"/>
                <use id="zoomplus" xlink:href="#zoomPlus" x="17" y="9" onmousedown="handleZoom(evt,'in')"/>
                <use id="zoomminus" xlink:href="#zoomMin" x="42" y="9" onmousedown="handleZoom(evt,'out')"/>
                <use id="reset" xlink:href="#resetDef" x="30" y="36" onmousedown="handleReset()"/>
                <g id="arrowUp" xlink:href="#dirArrow" transform="translate(30 24)" onmousedown="handlePan(0,-1)">
                  <use xlink:href="#rim" fill="#404040">
                        <set attributeName="fill" to="#808080" begin="arrowUp.mouseover" end="arrowUp.mouseout"/>
                  </use>
                  <path fill="none" stroke="white" stroke-width="1.5" d="M0,-3.0v7 M-2.5,-0.5L0,-3.0L2.5,-0.5"/>
                </g>
                <g id="arrowRight" xlink:href="#dirArrow" transform="rotate(90) translate(36 -43)" onmousedown="handlePan(1,0)">
                  <use xlink:href="#rim" fill="#404040">
                        <set attributeName="fill" to="#808080" begin="arrowRight.mouseover" end="arrowRight.mouseout"/>
                  </use>
                  <path fill="none" stroke="white" stroke-width="1.5" d="M0,-3.0v7 M-2.5,-0.5L0,-3.0L2.5,-0.5"/>
                </g>
                <g id="arrowDown" xlink:href="#dirArrow" transform="rotate(180) translate(-30 -48)" onmousedown="handlePan(0,1)">
                  <use xlink:href="#rim" fill="#404040">
                        <set attributeName="fill" to="#808080" begin="arrowDown.mouseover" end="arrowDown.mouseout"/>
                  </use>
                  <path fill="none" stroke="white" stroke-width="1.5" d="M0,-3.0v7 M-2.5,-0.5L0,-3.0L2.5,-0.5"/>
                </g>
                <g id="arrowLeft" xlink:href="#dirArrow" transform="rotate(270) translate(-36 17)" onmousedown="handlePan(-1,0)">
                  <use xlink:href="#rim" fill="#404040">
                        <set attributeName="fill" to="#808080" begin="arrowLeft.mouseover" end="arrowLeft.mouseout"/>
                  </use>
                  <path fill="none" stroke="white" stroke-width="1.5" d="M0,-3.0v7 M-2.5,-0.5L0,-3.0L2.5,-0.5"/>
                </g>
        </g>
        <svg viewBox="0 0 15 15" width="100%" height="30px" preserveAspectRatio="xMaxYMin meet">
         <g id="arrow_out" transform="scale(0.3 0.3)">
          <a xlink:href="PHOS_2simulation_2include_2PHOSSimulation_2Detector_8h__incl_org.svg" target="_base">
           <rect id="button" ry="5" rx="5" y="6" x="6" height="38" width="38"
                fill="#f2f5e9" fill-opacity="0.5" stroke="#606060" stroke-width="1.0"/>
           <path id="arrow"
             d="M 11.500037,31.436501 C 11.940474,20.09759 22.043105,11.32322 32.158766,21.979434 L 37.068811,17.246167 C 37.068811,17.246167 37.088388,32 37.088388,32 L 22.160133,31.978069 C 22.160133,31.978069 26.997745,27.140456 26.997745,27.140456 C 18.528582,18.264221 13.291696,25.230495 11.500037,31.436501 z"
             style="fill:#404040;"/>
          </a>
         </g>
        </svg>
</svg>
