<?xml version="1.0" encoding="UTF-8" standalone="no"?>
<!DOCTYPE svg PUBLIC "-//W3C//DTD SVG 1.1//EN"
 "http://www.w3.org/Graphics/SVG/1.1/DTD/svg11.dtd">
<!-- Generated by graphviz version 2.40.1 (20161225.0304)
 -->
<!-- Title: /home/travis/build/AliceO2Group/AliceO2/Detectors/Upgrades/IT3/simulation/include/ITS3Simulation/V11Geometry.h Pages: 1 -->
<!--zoomable 261 -->
<svg id="main" version="1.1" xmlns="http://www.w3.org/2000/svg" xmlns:xlink="http://www.w3.org/1999/xlink" xml:space="preserve" onload="init(evt)">
<style type="text/css"><![CDATA[
.edge:hover path { stroke: red; }
.edge:hover polygon { stroke: red; fill: red; }
]]></style>
<script type="text/javascript"><![CDATA[
var edges = document.getElementsByTagName('g');
if (edges && edges.length) {
  for (var i=0;i<edges.length;i++) {
    if (edges[i].id.substr(0,4)=='edge') {
      edges[i].setAttribute('class','edge');
    }
  }
}
]]></script>
        <defs>
                <circle id="rim" cx="0" cy="0" r="7"/>
                <circle id="rim2" cx="0" cy="0" r="3.5"/>
                <g id="zoomPlus">
                        <use xlink:href="#rim" fill="#404040">
                                <set attributeName="fill" to="#808080" begin="zoomplus.mouseover" end="zoomplus.mouseout"/>
                        </use>
                        <path d="M-4,0h8M0,-4v8" fill="none" stroke="white" stroke-width="1.5" pointer-events="none"/>
                </g>
                <g id="zoomMin">
                        <use xlink:href="#rim" fill="#404040">
                                <set attributeName="fill" to="#808080" begin="zoomminus.mouseover" end="zoomminus.mouseout"/>
                        </use>
                        <path d="M-4,0h8" fill="none" stroke="white" stroke-width="1.5" pointer-events="none"/>
                </g>
                <g id="dirArrow">
                        <path fill="none" stroke="white" stroke-width="1.5" d="M0,-3.0v7 M-2.5,-0.5L0,-3.0L2.5,-0.5"/>
                </g>
               <g id="resetDef">
                       <use xlink:href="#rim2" fill="#404040">
                               <set attributeName="fill" to="#808080" begin="reset.mouseover" end="reset.mouseout"/>
                       </use>
               </g>
        </defs>

<script type="text/javascript">
var viewWidth = 836;
var viewHeight = 261;
var sectionId = 'dynsection-1';
</script>
<script xlink:href="../../svgpan.js"/>
<svg id="graph" class="graph">
<g id="viewport">
<title>/home/travis/build/AliceO2Group/AliceO2/Detectors/Upgrades/IT3/simulation/include/ITS3Simulation/V11Geometry.h</title>
<!-- Node4 -->
<g id="node1" class="node">
<title>Node4</title>
<polygon fill="#bfbfbf" stroke="#000000" points="408,-189.5 408,-252.5 594,-252.5 594,-189.5 408,-189.5"/>
<text text-anchor="start" x="416" y="-240.5" font-family="Helvetica,sans-Serif" font-size="10.00" fill="#000000">/home/travis/build</text>
<text text-anchor="start" x="416" y="-229.5" font-family="Helvetica,sans-Serif" font-size="10.00" fill="#000000">/AliceO2Group/AliceO2</text>
<text text-anchor="start" x="416" y="-218.5" font-family="Helvetica,sans-Serif" font-size="10.00" fill="#000000">/Detectors/Upgrades/IT3</text>
<text text-anchor="start" x="416" y="-207.5" font-family="Helvetica,sans-Serif" font-size="10.00" fill="#000000">/simulation/include/ITS3Simulation</text>
<text text-anchor="middle" x="501" y="-196.5" font-family="Helvetica,sans-Serif" font-size="10.00" fill="#000000">/V11Geometry.h</text>
</g>
<!-- Node5 -->
<g id="node2" class="node">
<title>Node5</title>
<g id="a_node2"><a xlink:href="../../da/d6c/Upgrades_2IT3_2simulation_2include_2ITS3Simulation_2V1Layer_8h.html" target="_top" xlink:title="/home/travis/build\l/AliceO2Group/AliceO2\l/Detectors/Upgrades/IT3\l/simulation/include/ITS3Simulation\l/V1Layer.h">
<polygon fill="none" stroke="#000000" points="0,-89.5 0,-152.5 186,-152.5 186,-89.5 0,-89.5"/>
<text text-anchor="start" x="8" y="-140.5" font-family="Helvetica,sans-Serif" font-size="10.00" fill="#000000">/home/travis/build</text>
<text text-anchor="start" x="8" y="-129.5" font-family="Helvetica,sans-Serif" font-size="10.00" fill="#000000">/AliceO2Group/AliceO2</text>
<text text-anchor="start" x="8" y="-118.5" font-family="Helvetica,sans-Serif" font-size="10.00" fill="#000000">/Detectors/Upgrades/IT3</text>
<text text-anchor="start" x="8" y="-107.5" font-family="Helvetica,sans-Serif" font-size="10.00" fill="#000000">/simulation/include/ITS3Simulation</text>
<text text-anchor="middle" x="93" y="-96.5" font-family="Helvetica,sans-Serif" font-size="10.00" fill="#000000">/V1Layer.h</text>
</a>
</g>
</g>
<!-- Node4&#45;&gt;Node5 -->
<g id="edge1" class="edge">
<title>Node4&#45;&gt;Node5</title>
<path fill="none" stroke="#191970" d="M397.9719,-200.3939C338.3682,-187.9032 262.1064,-170.9477 195,-153 192.0417,-152.2088 189.041,-151.3866 186.0157,-150.5408"/>
<polygon fill="#191970" stroke="#191970" points="397.2629,-203.8213 407.767,-202.4379 398.6929,-196.9689 397.2629,-203.8213"/>
</g>
<!-- Node7 -->
<g id="node4" class="node">
<title>Node7</title>
<g id="a_node4"><a xlink:href="../../d7/d22/Upgrades_2IT3_2simulation_2include_2ITS3Simulation_2V3Layer_8h.html" target="_top" xlink:title="/home/travis/build\l/AliceO2Group/AliceO2\l/Detectors/Upgrades/IT3\l/simulation/include/ITS3Simulation\l/V3Layer.h">
<polygon fill="none" stroke="#000000" points="204,-89.5 204,-152.5 390,-152.5 390,-89.5 204,-89.5"/>
<text text-anchor="start" x="212" y="-140.5" font-family="Helvetica,sans-Serif" font-size="10.00" fill="#000000">/home/travis/build</text>
<text text-anchor="start" x="212" y="-129.5" font-family="Helvetica,sans-Serif" font-size="10.00" fill="#000000">/AliceO2Group/AliceO2</text>
<text text-anchor="start" x="212" y="-118.5" font-family="Helvetica,sans-Serif" font-size="10.00" fill="#000000">/Detectors/Upgrades/IT3</text>
<text text-anchor="start" x="212" y="-107.5" font-family="Helvetica,sans-Serif" font-size="10.00" fill="#000000">/simulation/include/ITS3Simulation</text>
<text text-anchor="middle" x="297" y="-96.5" font-family="Helvetica,sans-Serif" font-size="10.00" fill="#000000">/V3Layer.h</text>
</a>
</g>
</g>
<!-- Node4&#45;&gt;Node7 -->
<g id="edge3" class="edge">
<title>Node4&#45;&gt;Node7</title>
<path fill="none" stroke="#191970" d="M427.571,-185.0054C405.8956,-174.3802 382.3477,-162.8371 361.2942,-152.5168"/>
<polygon fill="#191970" stroke="#191970" points="426.2133,-188.2377 436.7331,-189.4966 429.2945,-181.9523 426.2133,-188.2377"/>
</g>
<!-- Node10 -->
<g id="node7" class="node">
<title>Node10</title>
<g id="a_node7"><a xlink:href="../../de/d6f/Upgrades_2IT3_2simulation_2include_2ITS3Simulation_2V3Services_8h.html" target="_top" xlink:title="/home/travis/build\l/AliceO2Group/AliceO2\l/Detectors/Upgrades/IT3\l/simulation/include/ITS3Simulation\l/V3Services.h">
<polygon fill="none" stroke="#000000" points="408,-89.5 408,-152.5 594,-152.5 594,-89.5 408,-89.5"/>
<text text-anchor="start" x="416" y="-140.5" font-family="Helvetica,sans-Serif" font-size="10.00" fill="#000000">/home/travis/build</text>
<text text-anchor="start" x="416" y="-129.5" font-family="Helvetica,sans-Serif" font-size="10.00" fill="#000000">/AliceO2Group/AliceO2</text>
<text text-anchor="start" x="416" y="-118.5" font-family="Helvetica,sans-Serif" font-size="10.00" fill="#000000">/Detectors/Upgrades/IT3</text>
<text text-anchor="start" x="416" y="-107.5" font-family="Helvetica,sans-Serif" font-size="10.00" fill="#000000">/simulation/include/ITS3Simulation</text>
<text text-anchor="middle" x="501" y="-96.5" font-family="Helvetica,sans-Serif" font-size="10.00" fill="#000000">/V3Services.h</text>
</a>
</g>
</g>
<!-- Node4&#45;&gt;Node10 -->
<g id="edge6" class="edge">
<title>Node4&#45;&gt;Node10</title>
<path fill="none" stroke="#191970" d="M501,-179.2111C501,-170.37 501,-161.1767 501,-152.778"/>
<polygon fill="#191970" stroke="#191970" points="497.5001,-179.3593 501,-189.3594 504.5001,-179.3594 497.5001,-179.3593"/>
</g>
<!-- Node11 -->
<g id="node8" class="node">
<title>Node11</title>
<g id="a_node8"><a xlink:href="../../d7/da9/Upgrades_2IT3_2simulation_2src_2V3Services_8cxx.html" target="_top" xlink:title="/home/travis/build\l/AliceO2Group/AliceO2\l/Detectors/Upgrades/IT3\l/simulation/src/V3Services.cxx">
<polygon fill="none" stroke="#000000" points="539,-.5 539,-52.5 705,-52.5 705,-.5 539,-.5"/>
<text text-anchor="start" x="547" y="-40.5" font-family="Helvetica,sans-Serif" font-size="10.00" fill="#000000">/home/travis/build</text>
<text text-anchor="start" x="547" y="-29.5" font-family="Helvetica,sans-Serif" font-size="10.00" fill="#000000">/AliceO2Group/AliceO2</text>
<text text-anchor="start" x="547" y="-18.5" font-family="Helvetica,sans-Serif" font-size="10.00" fill="#000000">/Detectors/Upgrades/IT3</text>
<text text-anchor="middle" x="622" y="-7.5" font-family="Helvetica,sans-Serif" font-size="10.00" fill="#000000">/simulation/src/V3Services.cxx</text>
</a>
</g>
</g>
<!-- Node4&#45;&gt;Node11 -->
<g id="edge10" class="edge">
<title>Node4&#45;&gt;Node11</title>
<path fill="none" stroke="#191970" d="M574.3388,-183.3368C585.4255,-174.7386 595.6076,-164.6369 603,-153 622.3508,-122.5384 624.7908,-79.7785 623.9918,-52.6071"/>
<polygon fill="#191970" stroke="#191970" points="572.1425,-180.6068 566.133,-189.3325 576.2723,-186.2588 572.1425,-180.6068"/>
</g>
<!-- Node12 -->
<g id="node9" class="node">
<title>Node12</title>
<g id="a_node9"><a xlink:href="../../d8/df7/Upgrades_2IT3_2simulation_2src_2V11Geometry_8cxx.html" target="_top" xlink:title="/home/travis/build\l/AliceO2Group/AliceO2\l/Detectors/Upgrades/IT3\l/simulation/src/V11Geometry.cxx">
<polygon fill="none" stroke="#000000" points="650,-95 650,-147 828,-147 828,-95 650,-95"/>
<text text-anchor="start" x="658" y="-135" font-family="Helvetica,sans-Serif" font-size="10.00" fill="#000000">/home/travis/build</text>
<text text-anchor="start" x="658" y="-124" font-family="Helvetica,sans-Serif" font-size="10.00" fill="#000000">/AliceO2Group/AliceO2</text>
<text text-anchor="start" x="658" y="-113" font-family="Helvetica,sans-Serif" font-size="10.00" fill="#000000">/Detectors/Upgrades/IT3</text>
<text text-anchor="middle" x="739" y="-102" font-family="Helvetica,sans-Serif" font-size="10.00" fill="#000000">/simulation/src/V11Geometry.cxx</text>
</a>
</g>
</g>
<!-- Node4&#45;&gt;Node12 -->
<g id="edge9" class="edge">
<title>Node4&#45;&gt;Node12</title>
<path fill="none" stroke="#191970" d="M585.2228,-185.6123C615.3806,-172.9409 648.8053,-158.8969 676.7683,-147.1478"/>
<polygon fill="#191970" stroke="#191970" points="583.8415,-182.3962 575.978,-189.4966 586.5531,-188.8497 583.8415,-182.3962"/>
</g>
<!-- Node6 -->
<g id="node3" class="node">
<title>Node6</title>
<g id="a_node3"><a xlink:href="../../d1/d94/Upgrades_2IT3_2simulation_2src_2V1Layer_8cxx.html" target="_top" xlink:title="/home/travis/build\l/AliceO2Group/AliceO2\l/Detectors/Upgrades/IT3\l/simulation/src/V1Layer.cxx">
<polygon fill="none" stroke="#000000" points="17.5,-.5 17.5,-52.5 168.5,-52.5 168.5,-.5 17.5,-.5"/>
<text text-anchor="start" x="25.5" y="-40.5" font-family="Helvetica,sans-Serif" font-size="10.00" fill="#000000">/home/travis/build</text>
<text text-anchor="start" x="25.5" y="-29.5" font-family="Helvetica,sans-Serif" font-size="10.00" fill="#000000">/AliceO2Group/AliceO2</text>
<text text-anchor="start" x="25.5" y="-18.5" font-family="Helvetica,sans-Serif" font-size="10.00" fill="#000000">/Detectors/Upgrades/IT3</text>
<text text-anchor="middle" x="93" y="-7.5" font-family="Helvetica,sans-Serif" font-size="10.00" fill="#000000">/simulation/src/V1Layer.cxx</text>
</a>
</g>
</g>
<!-- Node5&#45;&gt;Node6 -->
<g id="edge2" class="edge">
<title>Node5&#45;&gt;Node6</title>
<path fill="none" stroke="#191970" d="M93,-79.2457C93,-70.2008 93,-60.8836 93,-52.6442"/>
<polygon fill="#191970" stroke="#191970" points="89.5001,-79.2699 93,-89.27 96.5001,-79.27 89.5001,-79.2699"/>
</g>
<!-- Node8 -->
<g id="node5" class="node">
<title>Node8</title>
<g id="a_node5"><a xlink:href="../../d0/d7e/Upgrades_2IT3_2simulation_2src_2Detector_8cxx.html" target="_top" xlink:title="/home/travis/build\l/AliceO2Group/AliceO2\l/Detectors/Upgrades/IT3\l/simulation/src/Detector.cxx">
<polygon fill="none" stroke="#000000" points="367.5,-.5 367.5,-52.5 520.5,-52.5 520.5,-.5 367.5,-.5"/>
<text text-anchor="start" x="375.5" y="-40.5" font-family="Helvetica,sans-Serif" font-size="10.00" fill="#000000">/home/travis/build</text>
<text text-anchor="start" x="375.5" y="-29.5" font-family="Helvetica,sans-Serif" font-size="10.00" fill="#000000">/AliceO2Group/AliceO2</text>
<text text-anchor="start" x="375.5" y="-18.5" font-family="Helvetica,sans-Serif" font-size="10.00" fill="#000000">/Detectors/Upgrades/IT3</text>
<text text-anchor="middle" x="444" y="-7.5" font-family="Helvetica,sans-Serif" font-size="10.00" fill="#000000">/simulation/src/Detector.cxx</text>
</a>
</g>
</g>
<!-- Node7&#45;&gt;Node8 -->
<g id="edge4" class="edge">
<title>Node7&#45;&gt;Node8</title>
<path fill="none" stroke="#191970" d="M355.185,-83.5953C371.302,-73.2344 388.4471,-62.2126 403.3313,-52.6442"/>
<polygon fill="#191970" stroke="#191970" points="352.8769,-80.9182 346.3578,-89.27 356.6623,-86.8065 352.8769,-80.9182"/>
</g>
<!-- Node9 -->
<g id="node6" class="node">
<title>Node9</title>
<g id="a_node6"><a xlink:href="../../d4/dd1/Upgrades_2IT3_2simulation_2src_2V3Layer_8cxx.html" target="_top" xlink:title="/home/travis/build\l/AliceO2Group/AliceO2\l/Detectors/Upgrades/IT3\l/simulation/src/V3Layer.cxx">
<polygon fill="none" stroke="#000000" points="198.5,-.5 198.5,-52.5 349.5,-52.5 349.5,-.5 198.5,-.5"/>
<text text-anchor="start" x="206.5" y="-40.5" font-family="Helvetica,sans-Serif" font-size="10.00" fill="#000000">/home/travis/build</text>
<text text-anchor="start" x="206.5" y="-29.5" font-family="Helvetica,sans-Serif" font-size="10.00" fill="#000000">/AliceO2Group/AliceO2</text>
<text text-anchor="start" x="206.5" y="-18.5" font-family="Helvetica,sans-Serif" font-size="10.00" fill="#000000">/Detectors/Upgrades/IT3</text>
<text text-anchor="middle" x="274" y="-7.5" font-family="Helvetica,sans-Serif" font-size="10.00" fill="#000000">/simulation/src/V3Layer.cxx</text>
</a>
</g>
</g>
<!-- Node7&#45;&gt;Node9 -->
<g id="edge5" class="edge">
<title>Node7&#45;&gt;Node9</title>
<path fill="none" stroke="#191970" d="M286.9086,-79.5374C284.685,-70.4013 282.3901,-60.9722 280.3631,-52.6442"/>
<polygon fill="#191970" stroke="#191970" points="283.5117,-80.3813 289.2773,-89.27 290.3132,-78.7259 283.5117,-80.3813"/>
</g>
<!-- Node10&#45;&gt;Node8 -->
<g id="edge7" class="edge">
<title>Node10&#45;&gt;Node8</title>
<path fill="none" stroke="#191970" d="M476.6933,-80.702C470.9654,-71.2058 465.0065,-61.3266 459.7695,-52.6442"/>
<polygon fill="#191970" stroke="#191970" points="473.6993,-82.5148 481.8613,-89.27 479.6933,-78.8993 473.6993,-82.5148"/>
</g>
<!-- Node10&#45;&gt;Node11 -->
<g id="edge8" class="edge">
<title>Node10&#45;&gt;Node11</title>
<path fill="none" stroke="#191970" d="M549.6317,-83.0191C562.6822,-72.8267 576.4997,-62.0354 588.5244,-52.6442"/>
<polygon fill="#191970" stroke="#191970" points="547.3548,-80.3563 541.6279,-89.27 551.6634,-85.8732 547.3548,-80.3563"/>
</g>
</g>
</svg>
        <g id="navigator" transform="translate(0 0)" fill="#404254">
                <rect fill="#f2f5e9" fill-opacity="0.5" stroke="#606060" stroke-width=".5" x="0" y="0" width="60" height="60"/>
                <use id="zoomplus" xlink:href="#zoomPlus" x="17" y="9" onmousedown="handleZoom(evt,'in')"/>
                <use id="zoomminus" xlink:href="#zoomMin" x="42" y="9" onmousedown="handleZoom(evt,'out')"/>
                <use id="reset" xlink:href="#resetDef" x="30" y="36" onmousedown="handleReset()"/>
                <g id="arrowUp" xlink:href="#dirArrow" transform="translate(30 24)" onmousedown="handlePan(0,-1)">
                  <use xlink:href="#rim" fill="#404040">
                        <set attributeName="fill" to="#808080" begin="arrowUp.mouseover" end="arrowUp.mouseout"/>
                  </use>
                  <path fill="none" stroke="white" stroke-width="1.5" d="M0,-3.0v7 M-2.5,-0.5L0,-3.0L2.5,-0.5"/>
                </g>
                <g id="arrowRight" xlink:href="#dirArrow" transform="rotate(90) translate(36 -43)" onmousedown="handlePan(1,0)">
                  <use xlink:href="#rim" fill="#404040">
                        <set attributeName="fill" to="#808080" begin="arrowRight.mouseover" end="arrowRight.mouseout"/>
                  </use>
                  <path fill="none" stroke="white" stroke-width="1.5" d="M0,-3.0v7 M-2.5,-0.5L0,-3.0L2.5,-0.5"/>
                </g>
                <g id="arrowDown" xlink:href="#dirArrow" transform="rotate(180) translate(-30 -48)" onmousedown="handlePan(0,1)">
                  <use xlink:href="#rim" fill="#404040">
                        <set attributeName="fill" to="#808080" begin="arrowDown.mouseover" end="arrowDown.mouseout"/>
                  </use>
                  <path fill="none" stroke="white" stroke-width="1.5" d="M0,-3.0v7 M-2.5,-0.5L0,-3.0L2.5,-0.5"/>
                </g>
                <g id="arrowLeft" xlink:href="#dirArrow" transform="rotate(270) translate(-36 17)" onmousedown="handlePan(-1,0)">
                  <use xlink:href="#rim" fill="#404040">
                        <set attributeName="fill" to="#808080" begin="arrowLeft.mouseover" end="arrowLeft.mouseout"/>
                  </use>
                  <path fill="none" stroke="white" stroke-width="1.5" d="M0,-3.0v7 M-2.5,-0.5L0,-3.0L2.5,-0.5"/>
                </g>
        </g>
        <svg viewBox="0 0 15 15" width="100%" height="30px" preserveAspectRatio="xMaxYMin meet">
         <g id="arrow_out" transform="scale(0.3 0.3)">
          <a xlink:href="Upgrades_2IT3_2simulation_2include_2ITS3Simulation_2V11Geometry_8h__dep__incl_org.svg" target="_base">
           <rect id="button" ry="5" rx="5" y="6" x="6" height="38" width="38"
                fill="#f2f5e9" fill-opacity="0.5" stroke="#606060" stroke-width="1.0"/>
           <path id="arrow"
             d="M 11.500037,31.436501 C 11.940474,20.09759 22.043105,11.32322 32.158766,21.979434 L 37.068811,17.246167 C 37.068811,17.246167 37.088388,32 37.088388,32 L 22.160133,31.978069 C 22.160133,31.978069 26.997745,27.140456 26.997745,27.140456 C 18.528582,18.264221 13.291696,25.230495 11.500037,31.436501 z"
             style="fill:#404040;"/>
          </a>
         </g>
        </svg>
</svg>
