<?xml version="1.0" encoding="UTF-8" standalone="no"?>
<!DOCTYPE svg PUBLIC "-//W3C//DTD SVG 1.1//EN"
 "http://www.w3.org/Graphics/SVG/1.1/DTD/svg11.dtd">
<!-- Generated by graphviz version 2.40.1 (20161225.0304)
 -->
<!-- Title: /home/travis/build/AliceO2Group/AliceO2/Detectors/TOF/calibration/include/TOFCalibration/CalibTOFapi.h Pages: 1 -->
<!--zoomable 296 -->
<svg id="main" version="1.1" xmlns="http://www.w3.org/2000/svg" xmlns:xlink="http://www.w3.org/1999/xlink" xml:space="preserve" onload="init(evt)">
<style type="text/css"><![CDATA[
.edge:hover path { stroke: red; }
.edge:hover polygon { stroke: red; fill: red; }
]]></style>
<script type="text/javascript"><![CDATA[
var edges = document.getElementsByTagName('g');
if (edges && edges.length) {
  for (var i=0;i<edges.length;i++) {
    if (edges[i].id.substr(0,4)=='edge') {
      edges[i].setAttribute('class','edge');
    }
  }
}
]]></script>
        <defs>
                <circle id="rim" cx="0" cy="0" r="7"/>
                <circle id="rim2" cx="0" cy="0" r="3.5"/>
                <g id="zoomPlus">
                        <use xlink:href="#rim" fill="#404040">
                                <set attributeName="fill" to="#808080" begin="zoomplus.mouseover" end="zoomplus.mouseout"/>
                        </use>
                        <path d="M-4,0h8M0,-4v8" fill="none" stroke="white" stroke-width="1.5" pointer-events="none"/>
                </g>
                <g id="zoomMin">
                        <use xlink:href="#rim" fill="#404040">
                                <set attributeName="fill" to="#808080" begin="zoomminus.mouseover" end="zoomminus.mouseout"/>
                        </use>
                        <path d="M-4,0h8" fill="none" stroke="white" stroke-width="1.5" pointer-events="none"/>
                </g>
                <g id="dirArrow">
                        <path fill="none" stroke="white" stroke-width="1.5" d="M0,-3.0v7 M-2.5,-0.5L0,-3.0L2.5,-0.5"/>
                </g>
               <g id="resetDef">
                       <use xlink:href="#rim2" fill="#404040">
                               <set attributeName="fill" to="#808080" begin="reset.mouseover" end="reset.mouseout"/>
                       </use>
               </g>
        </defs>

<script type="text/javascript">
var viewWidth = 871;
var viewHeight = 296;
var sectionId = 'dynsection-0';
</script>
<script xlink:href="../../svgpan.js"/>
<svg id="graph" class="graph">
<g id="viewport">
<title>/home/travis/build/AliceO2Group/AliceO2/Detectors/TOF/calibration/include/TOFCalibration/CalibTOFapi.h</title>
<!-- Node0 -->
<g id="node1" class="node">
<title>Node0</title>
<polygon fill="#bfbfbf" stroke="#000000" points="415,-235.5 415,-287.5 615,-287.5 615,-235.5 415,-235.5"/>
<text text-anchor="start" x="423" y="-275.5" font-family="Helvetica,sans-Serif" font-size="10.00" fill="#000000">/home/travis/build</text>
<text text-anchor="start" x="423" y="-264.5" font-family="Helvetica,sans-Serif" font-size="10.00" fill="#000000">/AliceO2Group/AliceO2</text>
<text text-anchor="start" x="423" y="-253.5" font-family="Helvetica,sans-Serif" font-size="10.00" fill="#000000">/Detectors/TOF/calibration</text>
<text text-anchor="middle" x="515" y="-242.5" font-family="Helvetica,sans-Serif" font-size="10.00" fill="#000000">/include/TOFCalibration/CalibTOFapi.h</text>
</g>
<!-- Node1 -->
<g id="node2" class="node">
<title>Node1</title>
<polygon fill="none" stroke="#bfbfbf" points="270,-174 270,-193 330,-193 330,-174 270,-174"/>
<text text-anchor="middle" x="300" y="-181" font-family="Helvetica,sans-Serif" font-size="10.00" fill="#000000">iostream</text>
</g>
<!-- Node0&#45;&gt;Node1 -->
<g id="edge1" class="edge">
<title>Node0&#45;&gt;Node1</title>
<path fill="none" stroke="#191970" d="M439.8408,-235.4991C408.5603,-224.4992 371.9289,-211.3854 339,-199 337.1587,-198.3074 335.272,-197.5886 333.3699,-196.8566"/>
<polygon fill="#191970" stroke="#191970" points="334.4589,-193.5246 323.8708,-193.1492 331.9139,-200.0455 334.4589,-193.5246"/>
</g>
<!-- Node2 -->
<g id="node3" class="node">
<title>Node2</title>
<g id="a_node3"><a xlink:href="../../d5/df3/BasicCCDBManager_8h.html" target="_top" xlink:title="CCDB/BasicCCDBManager.h">
<polygon fill="none" stroke="#000000" points="348,-174 348,-193 500,-193 500,-174 348,-174"/>
<text text-anchor="middle" x="424" y="-181" font-family="Helvetica,sans-Serif" font-size="10.00" fill="#000000">CCDB/BasicCCDBManager.h</text>
</a>
</g>
</g>
<!-- Node0&#45;&gt;Node2 -->
<g id="edge2" class="edge">
<title>Node0&#45;&gt;Node2</title>
<path fill="none" stroke="#191970" d="M484.4452,-235.3101C470.6848,-223.5155 454.8729,-209.9625 442.8732,-199.677"/>
<polygon fill="#191970" stroke="#191970" points="445.1172,-196.9907 435.2468,-193.1401 440.5616,-202.3055 445.1172,-196.9907"/>
</g>
<!-- Node15 -->
<g id="node16" class="node">
<title>Node15</title>
<g id="a_node16"><a xlink:href="../../d8/de0/CalibLHCphaseTOF_8h.html" target="_top" xlink:title="Class to store the output of the matching to TOF for calibration. ">
<polygon fill="none" stroke="#000000" points="518.5,-168.5 518.5,-198.5 693.5,-198.5 693.5,-168.5 518.5,-168.5"/>
<text text-anchor="start" x="526.5" y="-186.5" font-family="Helvetica,sans-Serif" font-size="10.00" fill="#000000">DataFormatsTOF/CalibLHCphase</text>
<text text-anchor="middle" x="606" y="-175.5" font-family="Helvetica,sans-Serif" font-size="10.00" fill="#000000">TOF.h</text>
</a>
</g>
</g>
<!-- Node0&#45;&gt;Node15 -->
<g id="edge18" class="edge">
<title>Node0&#45;&gt;Node15</title>
<path fill="none" stroke="#191970" d="M545.5548,-235.3101C556.911,-225.5763 569.6645,-214.6447 580.5193,-205.3406"/>
<polygon fill="#191970" stroke="#191970" points="583.0805,-207.7551 588.3953,-198.5897 578.5249,-202.4403 583.0805,-207.7551"/>
</g>
<!-- Node17 -->
<g id="node18" class="node">
<title>Node17</title>
<g id="a_node18"><a xlink:href="../../d3/d81/CalibTimeSlewingParamTOF_8h.html" target="_top" xlink:title="Class to store the output of the matching to TOF for calibration. ">
<polygon fill="none" stroke="#000000" points="711.5,-168.5 711.5,-198.5 862.5,-198.5 862.5,-168.5 711.5,-168.5"/>
<text text-anchor="start" x="719.5" y="-186.5" font-family="Helvetica,sans-Serif" font-size="10.00" fill="#000000">DataFormatsTOF/CalibTime</text>
<text text-anchor="middle" x="787" y="-175.5" font-family="Helvetica,sans-Serif" font-size="10.00" fill="#000000">SlewingParamTOF.h</text>
</a>
</g>
</g>
<!-- Node0&#45;&gt;Node17 -->
<g id="edge21" class="edge">
<title>Node0&#45;&gt;Node17</title>
<path fill="none" stroke="#191970" d="M605.9502,-235.4187C645.0532,-224.2053 689.7578,-211.3856 724.9609,-201.2906"/>
<polygon fill="#191970" stroke="#191970" points="725.9777,-204.6402 734.6255,-198.5192 724.0481,-197.9114 725.9777,-204.6402"/>
</g>
<!-- Node3 -->
<g id="node4" class="node">
<title>Node3</title>
<g id="a_node4"><a xlink:href="../../dd/d3e/CcdbApi_8h.html" target="_top" xlink:title="CCDB/CcdbApi.h">
<polygon fill="none" stroke="#000000" points="108,-112.5 108,-131.5 204,-131.5 204,-112.5 108,-112.5"/>
<text text-anchor="middle" x="156" y="-119.5" font-family="Helvetica,sans-Serif" font-size="10.00" fill="#000000">CCDB/CcdbApi.h</text>
</a>
</g>
</g>
<!-- Node2&#45;&gt;Node3 -->
<g id="edge3" class="edge">
<title>Node2&#45;&gt;Node3</title>
<path fill="none" stroke="#191970" d="M382.419,-173.9581C335.2795,-163.1406 258.3887,-145.4959 207.4943,-133.8168"/>
<polygon fill="#191970" stroke="#191970" points="208.208,-130.3897 197.6785,-131.5643 206.6423,-137.2123 208.208,-130.3897"/>
</g>
<!-- Node4 -->
<g id="node5" class="node">
<title>Node4</title>
<polygon fill="none" stroke="#bfbfbf" points="463,-56.5 463,-75.5 507,-75.5 507,-56.5 463,-56.5"/>
<text text-anchor="middle" x="485" y="-63.5" font-family="Helvetica,sans-Serif" font-size="10.00" fill="#000000">string</text>
</g>
<!-- Node2&#45;&gt;Node4 -->
<g id="edge14" class="edge">
<title>Node2&#45;&gt;Node4</title>
<path fill="none" stroke="#191970" d="M451.9037,-173.9563C470.5974,-165.934 493.7694,-152.4488 505,-132 513.2419,-116.9931 506.0355,-98.1579 498.0678,-84.454"/>
<polygon fill="#191970" stroke="#191970" points="500.9384,-82.446 492.6105,-75.8965 495.0364,-86.2099 500.9384,-82.446"/>
</g>
<!-- Node5 -->
<g id="node6" class="node">
<title>Node5</title>
<polygon fill="none" stroke="#bfbfbf" points="525,-56.5 525,-75.5 583,-75.5 583,-56.5 525,-56.5"/>
<text text-anchor="middle" x="554" y="-63.5" font-family="Helvetica,sans-Serif" font-size="10.00" fill="#000000">memory</text>
</g>
<!-- Node2&#45;&gt;Node5 -->
<g id="edge17" class="edge">
<title>Node2&#45;&gt;Node5</title>
<path fill="none" stroke="#191970" d="M452.4426,-173.8364C473.5299,-165.4887 501.8244,-151.65 521,-132 533.8337,-118.8488 542.6459,-99.7149 547.9141,-85.4313"/>
<polygon fill="#191970" stroke="#191970" points="551.3405,-86.2278 551.2598,-75.6333 544.716,-83.9657 551.3405,-86.2278"/>
</g>
<!-- Node6 -->
<g id="node7" class="node">
<title>Node6</title>
<polygon fill="none" stroke="#bfbfbf" points="0,-56.5 0,-75.5 38,-75.5 38,-56.5 0,-56.5"/>
<text text-anchor="middle" x="19" y="-63.5" font-family="Helvetica,sans-Serif" font-size="10.00" fill="#000000">map</text>
</g>
<!-- Node2&#45;&gt;Node6 -->
<g id="edge15" class="edge">
<title>Node2&#45;&gt;Node6</title>
<path fill="none" stroke="#191970" d="M373.2557,-173.9767C361.989,-171.9376 350.0981,-169.8438 339,-168 232.5984,-150.3231 197.5146,-175.9165 99,-132 73.2322,-120.513 49.0379,-98.3627 34.144,-82.9055"/>
<polygon fill="#191970" stroke="#191970" points="36.6299,-80.4395 27.2441,-75.5244 31.5162,-85.2198 36.6299,-80.4395"/>
</g>
<!-- Node13 -->
<g id="node14" class="node">
<title>Node13</title>
<g id="a_node14"><a xlink:href="../../da/d86/CCDBTimeStampUtils_8h.html" target="_top" xlink:title="CCDB/CCDBTimeStampUtils.h">
<polygon fill="none" stroke="#000000" points="222.5,-112.5 222.5,-131.5 385.5,-131.5 385.5,-112.5 222.5,-112.5"/>
<text text-anchor="middle" x="304" y="-119.5" font-family="Helvetica,sans-Serif" font-size="10.00" fill="#000000">CCDB/CCDBTimeStampUtils.h</text>
</a>
</g>
</g>
<!-- Node2&#45;&gt;Node13 -->
<g id="edge13" class="edge">
<title>Node2&#45;&gt;Node13</title>
<path fill="none" stroke="#191970" d="M405.25,-173.8906C385.524,-163.7811 354.2688,-147.7628 331.7,-136.1962"/>
<polygon fill="#191970" stroke="#191970" points="333.114,-132.9881 322.6183,-131.5419 329.9213,-139.2176 333.114,-132.9881"/>
</g>
<!-- Node14 -->
<g id="node15" class="node">
<title>Node14</title>
<polygon fill="none" stroke="#bfbfbf" points="403.5,-112.5 403.5,-131.5 496.5,-131.5 496.5,-112.5 403.5,-112.5"/>
<text text-anchor="middle" x="450" y="-119.5" font-family="Helvetica,sans-Serif" font-size="10.00" fill="#000000">unordered_map</text>
</g>
<!-- Node2&#45;&gt;Node14 -->
<g id="edge16" class="edge">
<title>Node2&#45;&gt;Node14</title>
<path fill="none" stroke="#191970" d="M428.0625,-173.8906C431.7424,-165.1862 437.2742,-152.1015 441.862,-141.2494"/>
<polygon fill="#191970" stroke="#191970" points="445.21,-142.3185 445.8802,-131.7449 438.7625,-139.5927 445.21,-142.3185"/>
</g>
<!-- Node3&#45;&gt;Node4 -->
<g id="edge4" class="edge">
<title>Node3&#45;&gt;Node4</title>
<path fill="none" stroke="#191970" d="M204.1879,-113.4595C207.1685,-112.9581 210.1242,-112.4679 213,-112 319.4602,-94.6796 347.8801,-100.1575 453,-76 453.0993,-75.9772 453.1987,-75.9542 453.2982,-75.9311"/>
<polygon fill="#191970" stroke="#191970" points="453.9659,-79.3749 462.7405,-73.4371 452.1782,-72.607 453.9659,-79.3749"/>
</g>
<!-- Node3&#45;&gt;Node5 -->
<g id="edge5" class="edge">
<title>Node3&#45;&gt;Node5</title>
<path fill="none" stroke="#191970" d="M204.1717,-113.3555C207.1564,-112.8799 210.1174,-112.4238 213,-112 343.8961,-92.757 380.9734,-100.8932 514.4304,-76.0848"/>
<polygon fill="#191970" stroke="#191970" points="515.4562,-79.4531 524.6337,-74.1595 514.1581,-72.5745 515.4562,-79.4531"/>
</g>
<!-- Node3&#45;&gt;Node6 -->
<g id="edge6" class="edge">
<title>Node3&#45;&gt;Node6</title>
<path fill="none" stroke="#191970" d="M132.4489,-112.3733C108.9452,-102.7659 72.8011,-87.9917 47.6483,-77.7103"/>
<polygon fill="#191970" stroke="#191970" points="48.8489,-74.42 38.2681,-73.876 46.2003,-80.8995 48.8489,-74.42"/>
</g>
<!-- Node7 -->
<g id="node8" class="node">
<title>Node7</title>
<polygon fill="none" stroke="#bfbfbf" points="56.5,-56.5 56.5,-75.5 121.5,-75.5 121.5,-56.5 56.5,-56.5"/>
<text text-anchor="middle" x="89" y="-63.5" font-family="Helvetica,sans-Serif" font-size="10.00" fill="#000000">curl/curl.h</text>
</g>
<!-- Node3&#45;&gt;Node7 -->
<g id="edge7" class="edge">
<title>Node3&#45;&gt;Node7</title>
<path fill="none" stroke="#191970" d="M144.3295,-112.2455C134.4339,-103.9746 120.0373,-91.9416 108.4099,-82.2232"/>
<polygon fill="#191970" stroke="#191970" points="110.4542,-79.3703 100.5368,-75.6427 105.965,-84.7413 110.4542,-79.3703"/>
</g>
<!-- Node8 -->
<g id="node9" class="node">
<title>Node8</title>
<polygon fill="none" stroke="#bfbfbf" points="139.5,-56.5 139.5,-75.5 202.5,-75.5 202.5,-56.5 139.5,-56.5"/>
<text text-anchor="middle" x="171" y="-63.5" font-family="Helvetica,sans-Serif" font-size="10.00" fill="#000000">TObject.h</text>
</g>
<!-- Node3&#45;&gt;Node8 -->
<g id="edge8" class="edge">
<title>Node3&#45;&gt;Node8</title>
<path fill="none" stroke="#191970" d="M158.6128,-112.2455C160.5916,-104.8579 163.3744,-94.4689 165.8012,-85.4087"/>
<polygon fill="#191970" stroke="#191970" points="169.2105,-86.2078 168.4171,-75.6427 162.4489,-84.3966 169.2105,-86.2078"/>
</g>
<!-- Node9 -->
<g id="node10" class="node">
<title>Node9</title>
<polygon fill="none" stroke="#bfbfbf" points="221,-56.5 221,-75.5 295,-75.5 295,-56.5 221,-56.5"/>
<text text-anchor="middle" x="258" y="-63.5" font-family="Helvetica,sans-Serif" font-size="10.00" fill="#000000">TMessage.h</text>
</g>
<!-- Node3&#45;&gt;Node9 -->
<g id="edge9" class="edge">
<title>Node3&#45;&gt;Node9</title>
<path fill="none" stroke="#191970" d="M173.767,-112.2455C189.7095,-103.4928 213.3259,-90.527 231.4989,-80.5496"/>
<polygon fill="#191970" stroke="#191970" points="233.3552,-83.5233 240.4366,-75.6427 229.9863,-77.3873 233.3552,-83.5233"/>
</g>
<!-- Node10 -->
<g id="node11" class="node">
<title>Node10</title>
<g id="a_node11"><a xlink:href="../../d4/dab/CcdbObjectInfo_8h.html" target="_top" xlink:title="CCDB/CcdbObjectInfo.h">
<polygon fill="none" stroke="#000000" points="313.5,-56.5 313.5,-75.5 444.5,-75.5 444.5,-56.5 313.5,-56.5"/>
<text text-anchor="middle" x="379" y="-63.5" font-family="Helvetica,sans-Serif" font-size="10.00" fill="#000000">CCDB/CcdbObjectInfo.h</text>
</a>
</g>
</g>
<!-- Node3&#45;&gt;Node10 -->
<g id="edge10" class="edge">
<title>Node3&#45;&gt;Node10</title>
<path fill="none" stroke="#191970" d="M194.0817,-112.4369C232.0059,-102.9133 290.3289,-88.2672 331.3126,-77.9753"/>
<polygon fill="#191970" stroke="#191970" points="332.229,-81.3539 341.0754,-75.5237 330.524,-74.5647 332.229,-81.3539"/>
</g>
<!-- Node11 -->
<g id="node12" class="node">
<title>Node11</title>
<polygon fill="none" stroke="#bfbfbf" points="581.5,-.5 581.5,-19.5 640.5,-19.5 640.5,-.5 581.5,-.5"/>
<text text-anchor="middle" x="611" y="-7.5" font-family="Helvetica,sans-Serif" font-size="10.00" fill="#000000">Rtypes.h</text>
</g>
<!-- Node10&#45;&gt;Node11 -->
<g id="edge11" class="edge">
<title>Node10&#45;&gt;Node11</title>
<path fill="none" stroke="#191970" d="M418.6186,-56.4369C461.3917,-46.1123 529.1069,-29.7673 571.74,-19.4766"/>
<polygon fill="#191970" stroke="#191970" points="572.5846,-22.8733 581.4841,-17.1245 570.942,-16.0687 572.5846,-22.8733"/>
</g>
<!-- Node12 -->
<g id="node13" class="node">
<title>Node12</title>
<g id="a_node13"><a xlink:href="../../dd/da4/Logger_8h.html" target="_top" xlink:title="Framework/Logger.h">
<polygon fill="none" stroke="#000000" points="321.5,-.5 321.5,-19.5 436.5,-19.5 436.5,-.5 321.5,-.5"/>
<text text-anchor="middle" x="379" y="-7.5" font-family="Helvetica,sans-Serif" font-size="10.00" fill="#000000">Framework/Logger.h</text>
</a>
</g>
</g>
<!-- Node10&#45;&gt;Node12 -->
<g id="edge12" class="edge">
<title>Node10&#45;&gt;Node12</title>
<path fill="none" stroke="#191970" d="M379,-56.2455C379,-48.9382 379,-38.6944 379,-29.7046"/>
<polygon fill="#191970" stroke="#191970" points="382.5001,-29.6426 379,-19.6427 375.5001,-29.6427 382.5001,-29.6426"/>
</g>
<!-- Node15&#45;&gt;Node11 -->
<g id="edge20" class="edge">
<title>Node15&#45;&gt;Node11</title>
<path fill="none" stroke="#191970" d="M606.435,-168.4065C607.3358,-137.1485 609.4057,-65.3214 610.4193,-30.1492"/>
<polygon fill="#191970" stroke="#191970" points="613.9298,-29.8347 610.7194,-19.738 606.9327,-29.633 613.9298,-29.8347"/>
</g>
<!-- Node16 -->
<g id="node17" class="node">
<title>Node16</title>
<polygon fill="none" stroke="#bfbfbf" points="647.5,-112.5 647.5,-131.5 694.5,-131.5 694.5,-112.5 647.5,-112.5"/>
<text text-anchor="middle" x="671" y="-119.5" font-family="Helvetica,sans-Serif" font-size="10.00" fill="#000000">vector</text>
</g>
<!-- Node15&#45;&gt;Node16 -->
<g id="edge19" class="edge">
<title>Node15&#45;&gt;Node16</title>
<path fill="none" stroke="#191970" d="M622.0674,-168.2977C631.466,-159.4052 643.3527,-148.1586 653.057,-138.9769"/>
<polygon fill="#191970" stroke="#191970" points="655.7342,-141.2621 660.5927,-131.8469 650.9232,-136.1774 655.7342,-141.2621"/>
</g>
<!-- Node17&#45;&gt;Node11 -->
<g id="edge24" class="edge">
<title>Node17&#45;&gt;Node11</title>
<path fill="none" stroke="#191970" d="M786.1353,-168.4735C784.5762,-153.0045 780.2112,-128.8472 768,-112 736.9631,-69.1797 681.9599,-39.5876 645.9913,-23.7058"/>
<polygon fill="#191970" stroke="#191970" points="646.9571,-20.3119 636.3868,-19.5903 644.2,-26.7461 646.9571,-20.3119"/>
</g>
<!-- Node17&#45;&gt;Node16 -->
<g id="edge22" class="edge">
<title>Node17&#45;&gt;Node16</title>
<path fill="none" stroke="#191970" d="M758.6232,-168.4554C740.1172,-158.644 716.1112,-145.9167 697.9069,-136.2653"/>
<polygon fill="#191970" stroke="#191970" points="699.4505,-133.1222 688.9759,-131.5303 696.1715,-139.3068 699.4505,-133.1222"/>
</g>
<!-- Node18 -->
<g id="node19" class="node">
<title>Node18</title>
<polygon fill="none" stroke="#bfbfbf" points="717,-112.5 717,-131.5 759,-131.5 759,-112.5 717,-112.5"/>
<text text-anchor="middle" x="738" y="-119.5" font-family="Helvetica,sans-Serif" font-size="10.00" fill="#000000">array</text>
</g>
<!-- Node17&#45;&gt;Node18 -->
<g id="edge23" class="edge">
<title>Node17&#45;&gt;Node18</title>
<path fill="none" stroke="#191970" d="M774.8876,-168.2977C768.0151,-159.672 759.3777,-148.8312 752.189,-139.8087"/>
<polygon fill="#191970" stroke="#191970" points="754.8144,-137.487 745.8455,-131.8469 749.3396,-141.849 754.8144,-137.487"/>
</g>
</g>
</svg>
        <g id="navigator" transform="translate(0 0)" fill="#404254">
                <rect fill="#f2f5e9" fill-opacity="0.5" stroke="#606060" stroke-width=".5" x="0" y="0" width="60" height="60"/>
                <use id="zoomplus" xlink:href="#zoomPlus" x="17" y="9" onmousedown="handleZoom(evt,'in')"/>
                <use id="zoomminus" xlink:href="#zoomMin" x="42" y="9" onmousedown="handleZoom(evt,'out')"/>
                <use id="reset" xlink:href="#resetDef" x="30" y="36" onmousedown="handleReset()"/>
                <g id="arrowUp" xlink:href="#dirArrow" transform="translate(30 24)" onmousedown="handlePan(0,-1)">
                  <use xlink:href="#rim" fill="#404040">
                        <set attributeName="fill" to="#808080" begin="arrowUp.mouseover" end="arrowUp.mouseout"/>
                  </use>
                  <path fill="none" stroke="white" stroke-width="1.5" d="M0,-3.0v7 M-2.5,-0.5L0,-3.0L2.5,-0.5"/>
                </g>
                <g id="arrowRight" xlink:href="#dirArrow" transform="rotate(90) translate(36 -43)" onmousedown="handlePan(1,0)">
                  <use xlink:href="#rim" fill="#404040">
                        <set attributeName="fill" to="#808080" begin="arrowRight.mouseover" end="arrowRight.mouseout"/>
                  </use>
                  <path fill="none" stroke="white" stroke-width="1.5" d="M0,-3.0v7 M-2.5,-0.5L0,-3.0L2.5,-0.5"/>
                </g>
                <g id="arrowDown" xlink:href="#dirArrow" transform="rotate(180) translate(-30 -48)" onmousedown="handlePan(0,1)">
                  <use xlink:href="#rim" fill="#404040">
                        <set attributeName="fill" to="#808080" begin="arrowDown.mouseover" end="arrowDown.mouseout"/>
                  </use>
                  <path fill="none" stroke="white" stroke-width="1.5" d="M0,-3.0v7 M-2.5,-0.5L0,-3.0L2.5,-0.5"/>
                </g>
                <g id="arrowLeft" xlink:href="#dirArrow" transform="rotate(270) translate(-36 17)" onmousedown="handlePan(-1,0)">
                  <use xlink:href="#rim" fill="#404040">
                        <set attributeName="fill" to="#808080" begin="arrowLeft.mouseover" end="arrowLeft.mouseout"/>
                  </use>
                  <path fill="none" stroke="white" stroke-width="1.5" d="M0,-3.0v7 M-2.5,-0.5L0,-3.0L2.5,-0.5"/>
                </g>
        </g>
        <svg viewBox="0 0 15 15" width="100%" height="30px" preserveAspectRatio="xMaxYMin meet">
         <g id="arrow_out" transform="scale(0.3 0.3)">
          <a xlink:href="CalibTOFapi_8h__incl_org.svg" target="_base">
           <rect id="button" ry="5" rx="5" y="6" x="6" height="38" width="38"
                fill="#f2f5e9" fill-opacity="0.5" stroke="#606060" stroke-width="1.0"/>
           <path id="arrow"
             d="M 11.500037,31.436501 C 11.940474,20.09759 22.043105,11.32322 32.158766,21.979434 L 37.068811,17.246167 C 37.068811,17.246167 37.088388,32 37.088388,32 L 22.160133,31.978069 C 22.160133,31.978069 26.997745,27.140456 26.997745,27.140456 C 18.528582,18.264221 13.291696,25.230495 11.500037,31.436501 z"
             style="fill:#404040;"/>
          </a>
         </g>
        </svg>
</svg>
