<?xml version="1.0" encoding="UTF-8" standalone="no"?>
<!DOCTYPE svg PUBLIC "-//W3C//DTD SVG 1.1//EN"
 "http://www.w3.org/Graphics/SVG/1.1/DTD/svg11.dtd">
<!-- Generated by graphviz version 2.40.1 (20161225.0304)
 -->
<!-- Title: o2::fdd::RecPoint Pages: 1 -->
<svg width="333pt" height="661pt"
 viewBox="0.00 0.00 332.90 661.00" xmlns="http://www.w3.org/2000/svg" xmlns:xlink="http://www.w3.org/1999/xlink">
<g id="graph0" class="graph" transform="scale(1 1) rotate(0) translate(4 657)">
<title>o2::fdd::RecPoint</title>
<!-- Node1 -->
<g id="node1" class="node">
<title>Node1</title>
<polygon fill="#bfbfbf" stroke="#000000" points="18.8965,-.5 18.8965,-79.5 116.8965,-79.5 116.8965,-.5 18.8965,-.5"/>
<text text-anchor="middle" x="67.8965" y="-67.5" font-family="Helvetica,sans-Serif" font-size="10.00" fill="#000000">o2::fdd::RecPoint</text>
<polyline fill="none" stroke="#000000" points="18.8965,-60.5 116.8965,-60.5 "/>
<text text-anchor="middle" x="67.8965" y="-48.5" font-family="Helvetica,sans-Serif" font-size="10.00" fill="#000000"> </text>
<polyline fill="none" stroke="#000000" points="18.8965,-41.5 116.8965,-41.5 "/>
<text text-anchor="start" x="26.8965" y="-29.5" font-family="Helvetica,sans-Serif" font-size="10.00" fill="#000000">+ RecPoint()</text>
<text text-anchor="start" x="26.8965" y="-18.5" font-family="Helvetica,sans-Serif" font-size="10.00" fill="#000000">+ RecPoint()</text>
<text text-anchor="start" x="26.8965" y="-7.5" font-family="Helvetica,sans-Serif" font-size="10.00" fill="#000000">+ ClassDefNV()</text>
</g>
<!-- Node2 -->
<g id="node2" class="node">
<title>Node2</title>
<g id="a_node2"><a xlink:href="../../d1/d21/structo2_1_1InteractionRecord.html" target="_top" xlink:title="{o2::InteractionRecord\n||+ InteractionRecord()\l+ InteractionRecord()\l+ InteractionRecord()\l+ InteractionRecord()\l+ clear()\l+ isDummy()\l+ setFromNS()\l+ bc2ns()\l+ operator==()\l+ operator!=()\l+ differenceInBC()\l+ toLong()\l+ setFromLong()\l+ operator\&gt;()\l+ operator\&gt;=()\l+ operator\&lt;()\l+ operator\&lt;=()\l+ operator&#45;&#45;()\l+ operator&#45;&#45;()\l+ operator++()\l+ operator++()\l+ operator+=()\l+ operator&#45;=()\l+ operator+=()\l+ operator&#45;=()\l+ operator+()\l+ operator&#45;()\l+ operator+()\l+ operator&#45;()\l+ print()\l+ ClassDefNV()\l+ bc2ns()\l+ ns2bc()\l}">
<polygon fill="none" stroke="#000000" points="127.3965,-127.5 127.3965,-536.5 248.3965,-536.5 248.3965,-127.5 127.3965,-127.5"/>
<text text-anchor="middle" x="187.8965" y="-524.5" font-family="Helvetica,sans-Serif" font-size="10.00" fill="#000000">o2::InteractionRecord</text>
<polyline fill="none" stroke="#000000" points="127.3965,-517.5 248.3965,-517.5 "/>
<text text-anchor="middle" x="187.8965" y="-505.5" font-family="Helvetica,sans-Serif" font-size="10.00" fill="#000000"> </text>
<polyline fill="none" stroke="#000000" points="127.3965,-498.5 248.3965,-498.5 "/>
<text text-anchor="start" x="135.3965" y="-486.5" font-family="Helvetica,sans-Serif" font-size="10.00" fill="#000000">+ InteractionRecord()</text>
<text text-anchor="start" x="135.3965" y="-475.5" font-family="Helvetica,sans-Serif" font-size="10.00" fill="#000000">+ InteractionRecord()</text>
<text text-anchor="start" x="135.3965" y="-464.5" font-family="Helvetica,sans-Serif" font-size="10.00" fill="#000000">+ InteractionRecord()</text>
<text text-anchor="start" x="135.3965" y="-453.5" font-family="Helvetica,sans-Serif" font-size="10.00" fill="#000000">+ InteractionRecord()</text>
<text text-anchor="start" x="135.3965" y="-442.5" font-family="Helvetica,sans-Serif" font-size="10.00" fill="#000000">+ clear()</text>
<text text-anchor="start" x="135.3965" y="-431.5" font-family="Helvetica,sans-Serif" font-size="10.00" fill="#000000">+ isDummy()</text>
<text text-anchor="start" x="135.3965" y="-420.5" font-family="Helvetica,sans-Serif" font-size="10.00" fill="#000000">+ setFromNS()</text>
<text text-anchor="start" x="135.3965" y="-409.5" font-family="Helvetica,sans-Serif" font-size="10.00" fill="#000000">+ bc2ns()</text>
<text text-anchor="start" x="135.3965" y="-398.5" font-family="Helvetica,sans-Serif" font-size="10.00" fill="#000000">+ operator==()</text>
<text text-anchor="start" x="135.3965" y="-387.5" font-family="Helvetica,sans-Serif" font-size="10.00" fill="#000000">+ operator!=()</text>
<text text-anchor="start" x="135.3965" y="-376.5" font-family="Helvetica,sans-Serif" font-size="10.00" fill="#000000">+ differenceInBC()</text>
<text text-anchor="start" x="135.3965" y="-365.5" font-family="Helvetica,sans-Serif" font-size="10.00" fill="#000000">+ toLong()</text>
<text text-anchor="start" x="135.3965" y="-354.5" font-family="Helvetica,sans-Serif" font-size="10.00" fill="#000000">+ setFromLong()</text>
<text text-anchor="start" x="135.3965" y="-343.5" font-family="Helvetica,sans-Serif" font-size="10.00" fill="#000000">+ operator&gt;()</text>
<text text-anchor="start" x="135.3965" y="-332.5" font-family="Helvetica,sans-Serif" font-size="10.00" fill="#000000">+ operator&gt;=()</text>
<text text-anchor="start" x="135.3965" y="-321.5" font-family="Helvetica,sans-Serif" font-size="10.00" fill="#000000">+ operator&lt;()</text>
<text text-anchor="start" x="135.3965" y="-310.5" font-family="Helvetica,sans-Serif" font-size="10.00" fill="#000000">+ operator&lt;=()</text>
<text text-anchor="start" x="135.3965" y="-299.5" font-family="Helvetica,sans-Serif" font-size="10.00" fill="#000000">+ operator&#45;&#45;()</text>
<text text-anchor="start" x="135.3965" y="-288.5" font-family="Helvetica,sans-Serif" font-size="10.00" fill="#000000">+ operator&#45;&#45;()</text>
<text text-anchor="start" x="135.3965" y="-277.5" font-family="Helvetica,sans-Serif" font-size="10.00" fill="#000000">+ operator++()</text>
<text text-anchor="start" x="135.3965" y="-266.5" font-family="Helvetica,sans-Serif" font-size="10.00" fill="#000000">+ operator++()</text>
<text text-anchor="start" x="135.3965" y="-255.5" font-family="Helvetica,sans-Serif" font-size="10.00" fill="#000000">+ operator+=()</text>
<text text-anchor="start" x="135.3965" y="-244.5" font-family="Helvetica,sans-Serif" font-size="10.00" fill="#000000">+ operator&#45;=()</text>
<text text-anchor="start" x="135.3965" y="-233.5" font-family="Helvetica,sans-Serif" font-size="10.00" fill="#000000">+ operator+=()</text>
<text text-anchor="start" x="135.3965" y="-222.5" font-family="Helvetica,sans-Serif" font-size="10.00" fill="#000000">+ operator&#45;=()</text>
<text text-anchor="start" x="135.3965" y="-211.5" font-family="Helvetica,sans-Serif" font-size="10.00" fill="#000000">+ operator+()</text>
<text text-anchor="start" x="135.3965" y="-200.5" font-family="Helvetica,sans-Serif" font-size="10.00" fill="#000000">+ operator&#45;()</text>
<text text-anchor="start" x="135.3965" y="-189.5" font-family="Helvetica,sans-Serif" font-size="10.00" fill="#000000">+ operator+()</text>
<text text-anchor="start" x="135.3965" y="-178.5" font-family="Helvetica,sans-Serif" font-size="10.00" fill="#000000">+ operator&#45;()</text>
<text text-anchor="start" x="135.3965" y="-167.5" font-family="Helvetica,sans-Serif" font-size="10.00" fill="#000000">+ print()</text>
<text text-anchor="start" x="135.3965" y="-156.5" font-family="Helvetica,sans-Serif" font-size="10.00" fill="#000000">+ ClassDefNV()</text>
<text text-anchor="start" x="135.3965" y="-145.5" font-family="Helvetica,sans-Serif" font-size="10.00" fill="#000000">+ bc2ns()</text>
<text text-anchor="start" x="135.3965" y="-134.5" font-family="Helvetica,sans-Serif" font-size="10.00" fill="#000000">+ ns2bc()</text>
</a>
</g>
</g>
<!-- Node2&#45;&gt;Node1 -->
<g id="edge1" class="edge">
<title>Node2&#45;&gt;Node1</title>
<path fill="none" stroke="#404040" d="M127.3253,-161.3096C122.6064,-149.6324 117.7754,-138.1025 112.8965,-127 107.6603,-115.0843 101.5326,-102.5168 95.5146,-90.7524"/>
<polygon fill="none" stroke="#404040" points="95.3404,-90.417 89.0257,-86.935 89.811,-79.7668 96.1258,-83.2487 95.3404,-90.417"/>
<text text-anchor="middle" x="137.3965" y="-101" font-family="Helvetica,sans-Serif" font-size="10.00" fill="#000000"> +mIntRecord</text>
</g>
<!-- Node3 -->
<g id="node3" class="node">
<title>Node3</title>
<polygon fill="none" stroke="#bfbfbf" points="27.8965,-595.5 27.8965,-652.5 77.8965,-652.5 77.8965,-595.5 27.8965,-595.5"/>
<text text-anchor="middle" x="52.8965" y="-640.5" font-family="Helvetica,sans-Serif" font-size="10.00" fill="#000000">double</text>
<polyline fill="none" stroke="#bfbfbf" points="27.8965,-633.5 77.8965,-633.5 "/>
<text text-anchor="middle" x="52.8965" y="-621.5" font-family="Helvetica,sans-Serif" font-size="10.00" fill="#000000"> </text>
<polyline fill="none" stroke="#bfbfbf" points="27.8965,-614.5 77.8965,-614.5 "/>
<text text-anchor="middle" x="52.8965" y="-602.5" font-family="Helvetica,sans-Serif" font-size="10.00" fill="#000000"> </text>
</g>
<!-- Node3&#45;&gt;Node1 -->
<g id="edge5" class="edge">
<title>Node3&#45;&gt;Node1</title>
<path fill="none" stroke="#404040" d="M41.5317,-595.1173C35.5756,-578.4245 28.9071,-556.8579 25.8965,-537 -1.4173,-356.8365 -14.7371,-304.634 25.8965,-127 28.7024,-114.7338 33.4708,-102.1851 38.8106,-90.573"/>
<polygon fill="none" stroke="#404040" points="38.8166,-90.5606 37.8402,-83.4158 44.0597,-79.7666 45.0362,-86.9113 38.8166,-90.5606"/>
<text text-anchor="middle" x="71.8965" y="-335" font-family="Helvetica,sans-Serif" font-size="10.00" fill="#000000"> +mMeanTimeFDA</text>
<text text-anchor="middle" x="71.8965" y="-324" font-family="Helvetica,sans-Serif" font-size="10.00" fill="#000000">+mMeanTimeFDC</text>
</g>
<!-- Node3&#45;&gt;Node2 -->
<g id="edge2" class="edge">
<title>Node3&#45;&gt;Node2</title>
<path fill="none" stroke="#404040" d="M71.237,-595.4818C79.4849,-582.9233 89.4682,-568.0811 98.8965,-555 104.8225,-546.7781 107.9853,-545.8655 112.8965,-537 116.0529,-531.3022 119.1235,-525.4455 122.1057,-519.4768"/>
<polygon fill="none" stroke="#404040" points="122.1348,-519.4167 121.158,-512.2721 127.3774,-508.6225 128.3542,-515.7671 122.1348,-519.4167"/>
<text text-anchor="middle" x="136.8965" y="-563.5" font-family="Helvetica,sans-Serif" font-size="10.00" fill="#000000"> +DummyTime</text>
</g>
<!-- Node4 -->
<g id="node4" class="node">
<title>Node4</title>
<polygon fill="none" stroke="#bfbfbf" points="149.8965,-595.5 149.8965,-652.5 205.8965,-652.5 205.8965,-595.5 149.8965,-595.5"/>
<text text-anchor="middle" x="177.8965" y="-640.5" font-family="Helvetica,sans-Serif" font-size="10.00" fill="#000000">uint16_t</text>
<polyline fill="none" stroke="#bfbfbf" points="149.8965,-633.5 205.8965,-633.5 "/>
<text text-anchor="middle" x="177.8965" y="-621.5" font-family="Helvetica,sans-Serif" font-size="10.00" fill="#000000"> </text>
<polyline fill="none" stroke="#bfbfbf" points="149.8965,-614.5 205.8965,-614.5 "/>
<text text-anchor="middle" x="177.8965" y="-602.5" font-family="Helvetica,sans-Serif" font-size="10.00" fill="#000000"> </text>
</g>
<!-- Node4&#45;&gt;Node2 -->
<g id="edge3" class="edge">
<title>Node4&#45;&gt;Node2</title>
<path fill="none" stroke="#404040" d="M178.1447,-595.4615C178.2956,-583.031 178.532,-568.2933 178.8965,-555 178.9531,-552.9363 179.0113,-550.8619 179.0708,-548.7781"/>
<polygon fill="none" stroke="#404040" points="179.0717,-548.7457 175.2513,-542.6297 179.4274,-536.7509 183.2478,-542.8669 179.0717,-548.7457"/>
<text text-anchor="middle" x="210.8965" y="-569" font-family="Helvetica,sans-Serif" font-size="10.00" fill="#000000"> +DummyBC</text>
<text text-anchor="middle" x="210.8965" y="-558" font-family="Helvetica,sans-Serif" font-size="10.00" fill="#000000">+bc</text>
</g>
<!-- Node5 -->
<g id="node5" class="node">
<title>Node5</title>
<g id="a_node5"><a xlink:href="../../d3/d87/classuint32__t.html" target="_top" xlink:title="{uint32_t\n||}">
<polygon fill="none" stroke="#000000" points="236.8965,-595.5 236.8965,-652.5 292.8965,-652.5 292.8965,-595.5 236.8965,-595.5"/>
<text text-anchor="middle" x="264.8965" y="-640.5" font-family="Helvetica,sans-Serif" font-size="10.00" fill="#000000">uint32_t</text>
<polyline fill="none" stroke="#000000" points="236.8965,-633.5 292.8965,-633.5 "/>
<text text-anchor="middle" x="264.8965" y="-621.5" font-family="Helvetica,sans-Serif" font-size="10.00" fill="#000000"> </text>
<polyline fill="none" stroke="#000000" points="236.8965,-614.5 292.8965,-614.5 "/>
<text text-anchor="middle" x="264.8965" y="-602.5" font-family="Helvetica,sans-Serif" font-size="10.00" fill="#000000"> </text>
</a>
</g>
</g>
<!-- Node5&#45;&gt;Node2 -->
<g id="edge4" class="edge">
<title>Node5&#45;&gt;Node2</title>
<path fill="none" stroke="#404040" d="M257.3732,-595.4702C254.0203,-582.7551 249.7472,-566.5505 244.9728,-548.4449"/>
<polygon fill="none" stroke="#404040" points="244.9136,-548.2201 239.5158,-543.4384 241.8537,-536.6168 247.2514,-541.3985 244.9136,-548.2201"/>
<text text-anchor="middle" x="288.8965" y="-569" font-family="Helvetica,sans-Serif" font-size="10.00" fill="#000000"> +orbit</text>
<text text-anchor="middle" x="288.8965" y="-558" font-family="Helvetica,sans-Serif" font-size="10.00" fill="#000000">+DummyOrbit</text>
</g>
</g>
</svg>
