<?xml version="1.0" encoding="UTF-8" standalone="no"?>
<!DOCTYPE svg PUBLIC "-//W3C//DTD SVG 1.1//EN"
 "http://www.w3.org/Graphics/SVG/1.1/DTD/svg11.dtd">
<!-- Generated by graphviz version 2.40.1 (20161225.0304)
 -->
<!-- Title: /home/travis/build/AliceO2Group/AliceO2/Detectors/MUON/MCH/Mapping/Interface/include/MCHMappingInterface/Segmentation.h Pages: 1 -->
<svg width="3563pt" height="261pt"
 viewBox="0.00 0.00 3562.50 261.00" xmlns="http://www.w3.org/2000/svg" xmlns:xlink="http://www.w3.org/1999/xlink">
<g id="graph0" class="graph" transform="scale(1 1) rotate(0) translate(4 257)">
<title>/home/travis/build/AliceO2Group/AliceO2/Detectors/MUON/MCH/Mapping/Interface/include/MCHMappingInterface/Segmentation.h</title>
<!-- Node11 -->
<g id="node1" class="node">
<title>Node11</title>
<polygon fill="#bfbfbf" stroke="#000000" points="1765.5,-189.5 1765.5,-252.5 1977.5,-252.5 1977.5,-189.5 1765.5,-189.5"/>
<text text-anchor="start" x="1773.5" y="-240.5" font-family="Helvetica,sans-Serif" font-size="10.00" fill="#000000">/home/travis/build</text>
<text text-anchor="start" x="1773.5" y="-229.5" font-family="Helvetica,sans-Serif" font-size="10.00" fill="#000000">/AliceO2Group/AliceO2</text>
<text text-anchor="start" x="1773.5" y="-218.5" font-family="Helvetica,sans-Serif" font-size="10.00" fill="#000000">/Detectors/MUON/MCH/Mapping</text>
<text text-anchor="start" x="1773.5" y="-207.5" font-family="Helvetica,sans-Serif" font-size="10.00" fill="#000000">/Interface/include/MCHMappingInterface</text>
<text text-anchor="middle" x="1871.5" y="-196.5" font-family="Helvetica,sans-Serif" font-size="10.00" fill="#000000">/Segmentation.h</text>
</g>
<!-- Node12 -->
<g id="node2" class="node">
<title>Node12</title>
<g id="a_node2"><a xlink:href="../../db/d3a/ClusterFinderOriginal_8h.html" target="_top" xlink:title="Definition of a class to reconstruct clusters with the original MLEM algorithm. ">
<polygon fill="none" stroke="#000000" points="90,-89.5 90,-152.5 287,-152.5 287,-89.5 90,-89.5"/>
<text text-anchor="start" x="98" y="-140.5" font-family="Helvetica,sans-Serif" font-size="10.00" fill="#000000">/home/travis/build</text>
<text text-anchor="start" x="98" y="-129.5" font-family="Helvetica,sans-Serif" font-size="10.00" fill="#000000">/AliceO2Group/AliceO2</text>
<text text-anchor="start" x="98" y="-118.5" font-family="Helvetica,sans-Serif" font-size="10.00" fill="#000000">/Detectors/MUON/MCH/Clustering</text>
<text text-anchor="start" x="98" y="-107.5" font-family="Helvetica,sans-Serif" font-size="10.00" fill="#000000">/include/MCHClustering/ClusterFinder</text>
<text text-anchor="middle" x="188.5" y="-96.5" font-family="Helvetica,sans-Serif" font-size="10.00" fill="#000000">Original.h</text>
</a>
</g>
</g>
<!-- Node11&#45;&gt;Node12 -->
<g id="edge1" class="edge">
<title>Node11&#45;&gt;Node12</title>
<path fill="none" stroke="#191970" d="M1755.4417,-219.6691C1440.941,-215.4757 577.1509,-199.9058 296.5,-153 293.4139,-152.4842 290.2917,-151.9079 287.1499,-151.2806"/>
<polygon fill="#191970" stroke="#191970" points="1755.4459,-223.1694 1765.4912,-219.8017 1755.5383,-216.17 1755.4459,-223.1694"/>
</g>
<!-- Node15 -->
<g id="node5" class="node">
<title>Node15</title>
<g id="a_node5"><a xlink:href="../../de/d5d/Mapping_2cli_2cli_8cxx.html" target="_top" xlink:title="/home/travis/build\l/AliceO2Group/AliceO2\l/Detectors/MUON/MCH/Mapping\l/cli/cli.cxx">
<polygon fill="none" stroke="#000000" points="305.5,-95 305.5,-147 475.5,-147 475.5,-95 305.5,-95"/>
<text text-anchor="start" x="313.5" y="-135" font-family="Helvetica,sans-Serif" font-size="10.00" fill="#000000">/home/travis/build</text>
<text text-anchor="start" x="313.5" y="-124" font-family="Helvetica,sans-Serif" font-size="10.00" fill="#000000">/AliceO2Group/AliceO2</text>
<text text-anchor="start" x="313.5" y="-113" font-family="Helvetica,sans-Serif" font-size="10.00" fill="#000000">/Detectors/MUON/MCH/Mapping</text>
<text text-anchor="middle" x="390.5" y="-102" font-family="Helvetica,sans-Serif" font-size="10.00" fill="#000000">/cli/cli.cxx</text>
</a>
</g>
</g>
<!-- Node11&#45;&gt;Node15 -->
<g id="edge4" class="edge">
<title>Node11&#45;&gt;Node15</title>
<path fill="none" stroke="#191970" d="M1755.4004,-219.4661C1467.5435,-214.9947 726.7311,-199.2226 484.5,-153 476.4565,-151.4651 468.1617,-149.3982 459.9858,-147.0494"/>
<polygon fill="#191970" stroke="#191970" points="1755.3951,-222.9663 1765.4477,-219.6204 1755.5027,-215.9671 1755.3951,-222.9663"/>
</g>
<!-- Node16 -->
<g id="node6" class="node">
<title>Node16</title>
<g id="a_node6"><a xlink:href="../../d7/d47/Impl3_2src_2CreateSegmentation_8cxx.html" target="_top" xlink:title="/home/travis/build\l/AliceO2Group/AliceO2\l/Detectors/MUON/MCH/Mapping\l/Impl3/src/CreateSegmentation.cxx">
<polygon fill="none" stroke="#000000" points="493.5,-95 493.5,-147 681.5,-147 681.5,-95 493.5,-95"/>
<text text-anchor="start" x="501.5" y="-135" font-family="Helvetica,sans-Serif" font-size="10.00" fill="#000000">/home/travis/build</text>
<text text-anchor="start" x="501.5" y="-124" font-family="Helvetica,sans-Serif" font-size="10.00" fill="#000000">/AliceO2Group/AliceO2</text>
<text text-anchor="start" x="501.5" y="-113" font-family="Helvetica,sans-Serif" font-size="10.00" fill="#000000">/Detectors/MUON/MCH/Mapping</text>
<text text-anchor="middle" x="587.5" y="-102" font-family="Helvetica,sans-Serif" font-size="10.00" fill="#000000">/Impl3/src/CreateSegmentation.cxx</text>
</a>
</g>
</g>
<!-- Node11&#45;&gt;Node16 -->
<g id="edge5" class="edge">
<title>Node11&#45;&gt;Node16</title>
<path fill="none" stroke="#191970" d="M1755.0434,-217.903C1498.705,-210.4988 892.4079,-189.6097 690.5,-153 681.8404,-151.4299 672.8887,-149.3576 664.0441,-147.0206"/>
<polygon fill="#191970" stroke="#191970" points="1755.0317,-221.404 1765.1281,-218.1925 1755.2327,-214.4069 1755.0317,-221.404"/>
</g>
<!-- Node17 -->
<g id="node7" class="node">
<title>Node17</title>
<g id="a_node7"><a xlink:href="../../d3/d19/Impl4_2src_2CreateSegmentation_8cxx.html" target="_top" xlink:title="/home/travis/build\l/AliceO2Group/AliceO2\l/Detectors/MUON/MCH/Mapping\l/Impl4/src/CreateSegmentation.cxx">
<polygon fill="none" stroke="#000000" points="699.5,-95 699.5,-147 887.5,-147 887.5,-95 699.5,-95"/>
<text text-anchor="start" x="707.5" y="-135" font-family="Helvetica,sans-Serif" font-size="10.00" fill="#000000">/home/travis/build</text>
<text text-anchor="start" x="707.5" y="-124" font-family="Helvetica,sans-Serif" font-size="10.00" fill="#000000">/AliceO2Group/AliceO2</text>
<text text-anchor="start" x="707.5" y="-113" font-family="Helvetica,sans-Serif" font-size="10.00" fill="#000000">/Detectors/MUON/MCH/Mapping</text>
<text text-anchor="middle" x="793.5" y="-102" font-family="Helvetica,sans-Serif" font-size="10.00" fill="#000000">/Impl4/src/CreateSegmentation.cxx</text>
</a>
</g>
</g>
<!-- Node11&#45;&gt;Node17 -->
<g id="edge6" class="edge">
<title>Node11&#45;&gt;Node17</title>
<path fill="none" stroke="#191970" d="M1755.3193,-216.2723C1533.6598,-206.6945 1058.0798,-183.3096 896.5,-153 888.0341,-151.4119 879.2851,-149.3614 870.6279,-147.0658"/>
<polygon fill="#191970" stroke="#191970" points="1755.2163,-219.771 1765.3575,-216.7041 1755.5172,-212.7775 1755.2163,-219.771"/>
</g>
<!-- Node18 -->
<g id="node8" class="node">
<title>Node18</title>
<g id="a_node8"><a xlink:href="../../dd/d1c/SegmentationContours_8h.html" target="_top" xlink:title="/home/travis/build\l/AliceO2Group/AliceO2\l/Detectors/MUON/MCH/Mapping\l/SegContour/include/MCHMappingSegContour\l/SegmentationContours.h">
<polygon fill="none" stroke="#000000" points="906,-89.5 906,-152.5 1143,-152.5 1143,-89.5 906,-89.5"/>
<text text-anchor="start" x="914" y="-140.5" font-family="Helvetica,sans-Serif" font-size="10.00" fill="#000000">/home/travis/build</text>
<text text-anchor="start" x="914" y="-129.5" font-family="Helvetica,sans-Serif" font-size="10.00" fill="#000000">/AliceO2Group/AliceO2</text>
<text text-anchor="start" x="914" y="-118.5" font-family="Helvetica,sans-Serif" font-size="10.00" fill="#000000">/Detectors/MUON/MCH/Mapping</text>
<text text-anchor="start" x="914" y="-107.5" font-family="Helvetica,sans-Serif" font-size="10.00" fill="#000000">/SegContour/include/MCHMappingSegContour</text>
<text text-anchor="middle" x="1024.5" y="-96.5" font-family="Helvetica,sans-Serif" font-size="10.00" fill="#000000">/SegmentationContours.h</text>
</a>
</g>
</g>
<!-- Node11&#45;&gt;Node18 -->
<g id="edge7" class="edge">
<title>Node11&#45;&gt;Node18</title>
<path fill="none" stroke="#191970" d="M1755.3138,-214.9863C1613.4743,-206.4848 1366.643,-187.9397 1157.5,-153 1152.8151,-152.2173 1148.0504,-151.3616 1143.2471,-150.4491"/>
<polygon fill="#191970" stroke="#191970" points="1755.1531,-218.4828 1765.3428,-215.5811 1755.5676,-211.4951 1755.1531,-218.4828"/>
</g>
<!-- Node20 -->
<g id="node10" class="node">
<title>Node20</title>
<g id="a_node10"><a xlink:href="../../d5/d2d/MUON_2MCH_2Mapping_2test_2src_2Segmentation_8cxx.html" target="_top" xlink:title="/home/travis/build\l/AliceO2Group/AliceO2\l/Detectors/MUON/MCH/Mapping\l/test/src/Segmentation.cxx">
<polygon fill="none" stroke="#000000" points="1086.5,-.5 1086.5,-52.5 1256.5,-52.5 1256.5,-.5 1086.5,-.5"/>
<text text-anchor="start" x="1094.5" y="-40.5" font-family="Helvetica,sans-Serif" font-size="10.00" fill="#000000">/home/travis/build</text>
<text text-anchor="start" x="1094.5" y="-29.5" font-family="Helvetica,sans-Serif" font-size="10.00" fill="#000000">/AliceO2Group/AliceO2</text>
<text text-anchor="start" x="1094.5" y="-18.5" font-family="Helvetica,sans-Serif" font-size="10.00" fill="#000000">/Detectors/MUON/MCH/Mapping</text>
<text text-anchor="middle" x="1171.5" y="-7.5" font-family="Helvetica,sans-Serif" font-size="10.00" fill="#000000">/test/src/Segmentation.cxx</text>
</a>
</g>
</g>
<!-- Node11&#45;&gt;Node20 -->
<g id="edge12" class="edge">
<title>Node11&#45;&gt;Node20</title>
<path fill="none" stroke="#191970" d="M1755.2311,-217.112C1571.1931,-209.83 1229.4267,-191.2854 1189.5,-153 1162.841,-127.4369 1163.2454,-81.6153 1166.7866,-52.7005"/>
<polygon fill="#191970" stroke="#191970" points="1755.0973,-220.6094 1765.2263,-217.5026 1755.3706,-213.6147 1755.0973,-220.6094"/>
</g>
<!-- Node21 -->
<g id="node11" class="node">
<title>Node21</title>
<g id="a_node11"><a xlink:href="../../da/d72/BenchSegmentation_8cxx.html" target="_top" xlink:title="/home/travis/build\l/AliceO2Group/AliceO2\l/Detectors/MUON/MCH/Mapping\l/test/src/BenchSegmentation.cxx">
<polygon fill="none" stroke="#000000" points="1199,-95 1199,-147 1376,-147 1376,-95 1199,-95"/>
<text text-anchor="start" x="1207" y="-135" font-family="Helvetica,sans-Serif" font-size="10.00" fill="#000000">/home/travis/build</text>
<text text-anchor="start" x="1207" y="-124" font-family="Helvetica,sans-Serif" font-size="10.00" fill="#000000">/AliceO2Group/AliceO2</text>
<text text-anchor="start" x="1207" y="-113" font-family="Helvetica,sans-Serif" font-size="10.00" fill="#000000">/Detectors/MUON/MCH/Mapping</text>
<text text-anchor="middle" x="1287.5" y="-102" font-family="Helvetica,sans-Serif" font-size="10.00" fill="#000000">/test/src/BenchSegmentation.cxx</text>
</a>
</g>
</g>
<!-- Node11&#45;&gt;Node21 -->
<g id="edge10" class="edge">
<title>Node11&#45;&gt;Node21</title>
<path fill="none" stroke="#191970" d="M1755.2384,-210.5618C1656.1164,-200.2788 1510.2875,-181.865 1385.5,-153 1378.0891,-151.2857 1370.4378,-149.2587 1362.8302,-147.07"/>
<polygon fill="#191970" stroke="#191970" points="1754.9779,-214.0534 1765.283,-211.5926 1755.6925,-207.0899 1754.9779,-214.0534"/>
</g>
<!-- Node22 -->
<g id="node12" class="node">
<title>Node22</title>
<g id="a_node12"><a xlink:href="../../dc/d1b/generatePadIndices_8cxx.html" target="_top" xlink:title="/home/travis/build\l/AliceO2Group/AliceO2\l/Detectors/MUON/MCH/Mapping\l/test/src/generatePadIndices.cxx">
<polygon fill="none" stroke="#000000" points="1394.5,-95 1394.5,-147 1568.5,-147 1568.5,-95 1394.5,-95"/>
<text text-anchor="start" x="1402.5" y="-135" font-family="Helvetica,sans-Serif" font-size="10.00" fill="#000000">/home/travis/build</text>
<text text-anchor="start" x="1402.5" y="-124" font-family="Helvetica,sans-Serif" font-size="10.00" fill="#000000">/AliceO2Group/AliceO2</text>
<text text-anchor="start" x="1402.5" y="-113" font-family="Helvetica,sans-Serif" font-size="10.00" fill="#000000">/Detectors/MUON/MCH/Mapping</text>
<text text-anchor="middle" x="1481.5" y="-102" font-family="Helvetica,sans-Serif" font-size="10.00" fill="#000000">/test/src/generatePadIndices.cxx</text>
</a>
</g>
</g>
<!-- Node11&#45;&gt;Node22 -->
<g id="edge11" class="edge">
<title>Node11&#45;&gt;Node22</title>
<path fill="none" stroke="#191970" d="M1755.4152,-196.8026C1701.0753,-184.7996 1635.654,-169.3781 1577.5,-153 1570.9895,-151.1664 1564.266,-149.1606 1557.5408,-147.0758"/>
<polygon fill="#191970" stroke="#191970" points="1754.9102,-200.2751 1765.4285,-199.0035 1756.413,-193.4383 1754.9102,-200.2751"/>
</g>
<!-- Node23 -->
<g id="node13" class="node">
<title>Node23</title>
<g id="a_node13"><a xlink:href="../../d9/da3/testPadIndices_8cxx.html" target="_top" xlink:title="/home/travis/build\l/AliceO2Group/AliceO2\l/Detectors/MUON/MCH/Mapping\l/test/src/testPadIndices.cxx">
<polygon fill="none" stroke="#000000" points="1586.5,-95 1586.5,-147 1756.5,-147 1756.5,-95 1586.5,-95"/>
<text text-anchor="start" x="1594.5" y="-135" font-family="Helvetica,sans-Serif" font-size="10.00" fill="#000000">/home/travis/build</text>
<text text-anchor="start" x="1594.5" y="-124" font-family="Helvetica,sans-Serif" font-size="10.00" fill="#000000">/AliceO2Group/AliceO2</text>
<text text-anchor="start" x="1594.5" y="-113" font-family="Helvetica,sans-Serif" font-size="10.00" fill="#000000">/Detectors/MUON/MCH/Mapping</text>
<text text-anchor="middle" x="1671.5" y="-102" font-family="Helvetica,sans-Serif" font-size="10.00" fill="#000000">/test/src/testPadIndices.cxx</text>
</a>
</g>
</g>
<!-- Node11&#45;&gt;Node23 -->
<g id="edge13" class="edge">
<title>Node11&#45;&gt;Node23</title>
<path fill="none" stroke="#191970" d="M1799.4113,-184.9557C1774.4147,-172.4573 1746.8887,-158.6944 1723.7956,-147.1478"/>
<polygon fill="#191970" stroke="#191970" points="1797.9837,-188.1549 1808.4933,-189.4966 1801.1142,-181.8939 1797.9837,-188.1549"/>
</g>
<!-- Node24 -->
<g id="node14" class="node">
<title>Node24</title>
<g id="a_node14"><a xlink:href="../../d4/d03/PreClusterFinderMapping_8h.html" target="_top" xlink:title="/home/travis/build\l/AliceO2Group/AliceO2\l/Detectors/MUON/MCH/PreClustering\l/src/PreClusterFinderMapping.h">
<polygon fill="none" stroke="#000000" points="1774.5,-95 1774.5,-147 1968.5,-147 1968.5,-95 1774.5,-95"/>
<text text-anchor="start" x="1782.5" y="-135" font-family="Helvetica,sans-Serif" font-size="10.00" fill="#000000">/home/travis/build</text>
<text text-anchor="start" x="1782.5" y="-124" font-family="Helvetica,sans-Serif" font-size="10.00" fill="#000000">/AliceO2Group/AliceO2</text>
<text text-anchor="start" x="1782.5" y="-113" font-family="Helvetica,sans-Serif" font-size="10.00" fill="#000000">/Detectors/MUON/MCH/PreClustering</text>
<text text-anchor="middle" x="1871.5" y="-102" font-family="Helvetica,sans-Serif" font-size="10.00" fill="#000000">/src/PreClusterFinderMapping.h</text>
</a>
</g>
</g>
<!-- Node11&#45;&gt;Node24 -->
<g id="edge14" class="edge">
<title>Node11&#45;&gt;Node24</title>
<path fill="none" stroke="#191970" d="M1871.5,-179.1631C1871.5,-168.2863 1871.5,-156.8798 1871.5,-147.078"/>
<polygon fill="#191970" stroke="#191970" points="1868.0001,-179.3593 1871.5,-189.3594 1875.0001,-179.3594 1868.0001,-179.3593"/>
</g>
<!-- Node26 -->
<g id="node16" class="node">
<title>Node26</title>
<g id="a_node16"><a xlink:href="../../d4/dbc/PreClusterFinderMapping_8cxx.html" target="_top" xlink:title="/home/travis/build\l/AliceO2Group/AliceO2\l/Detectors/MUON/MCH/PreClustering\l/src/PreClusterFinderMapping.cxx">
<polygon fill="none" stroke="#000000" points="1899.5,-.5 1899.5,-52.5 2093.5,-52.5 2093.5,-.5 1899.5,-.5"/>
<text text-anchor="start" x="1907.5" y="-40.5" font-family="Helvetica,sans-Serif" font-size="10.00" fill="#000000">/home/travis/build</text>
<text text-anchor="start" x="1907.5" y="-29.5" font-family="Helvetica,sans-Serif" font-size="10.00" fill="#000000">/AliceO2Group/AliceO2</text>
<text text-anchor="start" x="1907.5" y="-18.5" font-family="Helvetica,sans-Serif" font-size="10.00" fill="#000000">/Detectors/MUON/MCH/PreClustering</text>
<text text-anchor="middle" x="1996.5" y="-7.5" font-family="Helvetica,sans-Serif" font-size="10.00" fill="#000000">/src/PreClusterFinderMapping.cxx</text>
</a>
</g>
</g>
<!-- Node11&#45;&gt;Node26 -->
<g id="edge17" class="edge">
<title>Node11&#45;&gt;Node26</title>
<path fill="none" stroke="#191970" d="M1948.1154,-183.4332C1959.4736,-174.8584 1969.8964,-164.7397 1977.5,-153 1997.1184,-122.7101 1999.4863,-79.9038 1998.5989,-52.6758"/>
<polygon fill="#191970" stroke="#191970" points="1945.833,-180.7612 1939.7066,-189.4052 1949.8863,-186.4684 1945.833,-180.7612"/>
</g>
<!-- Node27 -->
<g id="node17" class="node">
<title>Node27</title>
<g id="a_node17"><a xlink:href="../../d9/d30/DigitEncoder_8cxx.html" target="_top" xlink:title="/home/travis/build\l/AliceO2Group/AliceO2\l/Detectors/MUON/MCH/Raw\l/Encoder/Digit/DigitEncoder.cxx">
<polygon fill="none" stroke="#000000" points="2024.5,-95 2024.5,-147 2194.5,-147 2194.5,-95 2024.5,-95"/>
<text text-anchor="start" x="2032.5" y="-135" font-family="Helvetica,sans-Serif" font-size="10.00" fill="#000000">/home/travis/build</text>
<text text-anchor="start" x="2032.5" y="-124" font-family="Helvetica,sans-Serif" font-size="10.00" fill="#000000">/AliceO2Group/AliceO2</text>
<text text-anchor="start" x="2032.5" y="-113" font-family="Helvetica,sans-Serif" font-size="10.00" fill="#000000">/Detectors/MUON/MCH/Raw</text>
<text text-anchor="middle" x="2109.5" y="-102" font-family="Helvetica,sans-Serif" font-size="10.00" fill="#000000">/Encoder/Digit/DigitEncoder.cxx</text>
</a>
</g>
</g>
<!-- Node11&#45;&gt;Node27 -->
<g id="edge18" class="edge">
<title>Node11&#45;&gt;Node27</title>
<path fill="none" stroke="#191970" d="M1955.7228,-185.6123C1985.8806,-172.9409 2019.3053,-158.8969 2047.2683,-147.1478"/>
<polygon fill="#191970" stroke="#191970" points="1954.3415,-182.3962 1946.478,-189.4966 1957.0531,-188.8497 1954.3415,-182.3962"/>
</g>
<!-- Node28 -->
<g id="node18" class="node">
<title>Node28</title>
<g id="a_node18"><a xlink:href="../../d7/de0/MUON_2MCH_2Simulation_2src_2Digitizer_8cxx.html" target="_top" xlink:title="/home/travis/build\l/AliceO2Group/AliceO2\l/Detectors/MUON/MCH/Simulation\l/src/Digitizer.cxx">
<polygon fill="none" stroke="#000000" points="2212.5,-95 2212.5,-147 2394.5,-147 2394.5,-95 2212.5,-95"/>
<text text-anchor="start" x="2220.5" y="-135" font-family="Helvetica,sans-Serif" font-size="10.00" fill="#000000">/home/travis/build</text>
<text text-anchor="start" x="2220.5" y="-124" font-family="Helvetica,sans-Serif" font-size="10.00" fill="#000000">/AliceO2Group/AliceO2</text>
<text text-anchor="start" x="2220.5" y="-113" font-family="Helvetica,sans-Serif" font-size="10.00" fill="#000000">/Detectors/MUON/MCH/Simulation</text>
<text text-anchor="middle" x="2303.5" y="-102" font-family="Helvetica,sans-Serif" font-size="10.00" fill="#000000">/src/Digitizer.cxx</text>
</a>
</g>
</g>
<!-- Node11&#45;&gt;Node28 -->
<g id="edge19" class="edge">
<title>Node11&#45;&gt;Node28</title>
<path fill="none" stroke="#191970" d="M1987.7151,-200.3745C2051.7572,-188.2141 2132.4511,-171.5862 2203.5,-153 2210.4658,-151.1778 2217.6627,-149.156 2224.8537,-147.0397"/>
<polygon fill="#191970" stroke="#191970" points="1986.7607,-196.9928 1977.5837,-202.2875 1988.0595,-203.8713 1986.7607,-196.9928"/>
</g>
<!-- Node29 -->
<g id="node19" class="node">
<title>Node29</title>
<g id="a_node19"><a xlink:href="../../dc/dc3/testDigitization_8cxx.html" target="_top" xlink:title="/home/travis/build\l/AliceO2Group/AliceO2\l/Detectors/MUON/MCH/Simulation\l/test/testDigitization.cxx">
<polygon fill="none" stroke="#000000" points="2412.5,-95 2412.5,-147 2594.5,-147 2594.5,-95 2412.5,-95"/>
<text text-anchor="start" x="2420.5" y="-135" font-family="Helvetica,sans-Serif" font-size="10.00" fill="#000000">/home/travis/build</text>
<text text-anchor="start" x="2420.5" y="-124" font-family="Helvetica,sans-Serif" font-size="10.00" fill="#000000">/AliceO2Group/AliceO2</text>
<text text-anchor="start" x="2420.5" y="-113" font-family="Helvetica,sans-Serif" font-size="10.00" fill="#000000">/Detectors/MUON/MCH/Simulation</text>
<text text-anchor="middle" x="2503.5" y="-102" font-family="Helvetica,sans-Serif" font-size="10.00" fill="#000000">/test/testDigitization.cxx</text>
</a>
</g>
</g>
<!-- Node11&#45;&gt;Node29 -->
<g id="edge20" class="edge">
<title>Node11&#45;&gt;Node29</title>
<path fill="none" stroke="#191970" d="M1987.701,-212.2978C2096.1882,-202.7273 2262.1319,-184.3777 2403.5,-153 2411.152,-151.3016 2419.0547,-149.2709 2426.9081,-147.0675"/>
<polygon fill="#191970" stroke="#191970" points="1987.3694,-208.8134 1977.7111,-213.1686 1987.9773,-215.7869 1987.3694,-208.8134"/>
</g>
<!-- Node30 -->
<g id="node20" class="node">
<title>Node30</title>
<g id="a_node20"><a xlink:href="../../d8/d48/ClusterSinkSpec_8cxx.html" target="_top" xlink:title="Implementation of a data processor to write clusters. ">
<polygon fill="none" stroke="#000000" points="2612.5,-95 2612.5,-147 2786.5,-147 2786.5,-95 2612.5,-95"/>
<text text-anchor="start" x="2620.5" y="-135" font-family="Helvetica,sans-Serif" font-size="10.00" fill="#000000">/home/travis/build</text>
<text text-anchor="start" x="2620.5" y="-124" font-family="Helvetica,sans-Serif" font-size="10.00" fill="#000000">/AliceO2Group/AliceO2</text>
<text text-anchor="start" x="2620.5" y="-113" font-family="Helvetica,sans-Serif" font-size="10.00" fill="#000000">/Detectors/MUON/MCH/Workflow</text>
<text text-anchor="middle" x="2699.5" y="-102" font-family="Helvetica,sans-Serif" font-size="10.00" fill="#000000">/src/ClusterSinkSpec.cxx</text>
</a>
</g>
</g>
<!-- Node11&#45;&gt;Node30 -->
<g id="edge21" class="edge">
<title>Node11&#45;&gt;Node30</title>
<path fill="none" stroke="#191970" d="M1988.0722,-218.383C2133.5469,-213.2447 2389.2841,-198.0297 2603.5,-153 2611.2366,-151.3737 2619.2196,-149.3304 2627.1234,-147.0669"/>
<polygon fill="#191970" stroke="#191970" points="1987.6648,-214.8948 1977.7907,-218.7358 1987.9049,-221.8907 1987.6648,-214.8948"/>
</g>
<!-- Node31 -->
<g id="node21" class="node">
<title>Node31</title>
<g id="a_node21"><a xlink:href="../../d0/d75/DataDecoderSpec_8cxx.html" target="_top" xlink:title="/home/travis/build\l/AliceO2Group/AliceO2\l/Detectors/MUON/MCH/Workflow\l/src/DataDecoderSpec.cxx">
<polygon fill="none" stroke="#000000" points="2804.5,-95 2804.5,-147 2978.5,-147 2978.5,-95 2804.5,-95"/>
<text text-anchor="start" x="2812.5" y="-135" font-family="Helvetica,sans-Serif" font-size="10.00" fill="#000000">/home/travis/build</text>
<text text-anchor="start" x="2812.5" y="-124" font-family="Helvetica,sans-Serif" font-size="10.00" fill="#000000">/AliceO2Group/AliceO2</text>
<text text-anchor="start" x="2812.5" y="-113" font-family="Helvetica,sans-Serif" font-size="10.00" fill="#000000">/Detectors/MUON/MCH/Workflow</text>
<text text-anchor="middle" x="2891.5" y="-102" font-family="Helvetica,sans-Serif" font-size="10.00" fill="#000000">/src/DataDecoderSpec.cxx</text>
</a>
</g>
</g>
<!-- Node11&#45;&gt;Node31 -->
<g id="edge22" class="edge">
<title>Node11&#45;&gt;Node31</title>
<path fill="none" stroke="#191970" d="M1987.9576,-216.0377C2200.7014,-206.3735 2644.2006,-183.2929 2795.5,-153 2803.4241,-151.4134 2811.6001,-149.3639 2819.6816,-147.0689"/>
<polygon fill="#191970" stroke="#191970" points="1987.5249,-212.5536 1977.6932,-216.5017 1987.8411,-219.5464 1987.5249,-212.5536"/>
</g>
<!-- Node32 -->
<g id="node22" class="node">
<title>Node32</title>
<g id="a_node22"><a xlink:href="../../d2/d75/DigitSamplerSpec_8cxx.html" target="_top" xlink:title="Implementation of a data processor to read and send digits. ">
<polygon fill="none" stroke="#000000" points="2996.5,-95 2996.5,-147 3170.5,-147 3170.5,-95 2996.5,-95"/>
<text text-anchor="start" x="3004.5" y="-135" font-family="Helvetica,sans-Serif" font-size="10.00" fill="#000000">/home/travis/build</text>
<text text-anchor="start" x="3004.5" y="-124" font-family="Helvetica,sans-Serif" font-size="10.00" fill="#000000">/AliceO2Group/AliceO2</text>
<text text-anchor="start" x="3004.5" y="-113" font-family="Helvetica,sans-Serif" font-size="10.00" fill="#000000">/Detectors/MUON/MCH/Workflow</text>
<text text-anchor="middle" x="3083.5" y="-102" font-family="Helvetica,sans-Serif" font-size="10.00" fill="#000000">/src/DigitSamplerSpec.cxx</text>
</a>
</g>
</g>
<!-- Node11&#45;&gt;Node32 -->
<g id="edge23" class="edge">
<title>Node11&#45;&gt;Node32</title>
<path fill="none" stroke="#191970" d="M1987.8658,-217.7514C2233.6812,-210.2614 2798.7149,-189.5624 2987.5,-153 2995.6064,-151.43 3003.9721,-149.3579 3012.2286,-147.0209"/>
<polygon fill="#191970" stroke="#191970" points="1987.719,-214.2542 1977.8296,-218.0553 1987.931,-221.251 1987.719,-214.2542"/>
</g>
<!-- Node33 -->
<g id="node23" class="node">
<title>Node33</title>
<g id="a_node23"><a xlink:href="../../db/d1c/file-to-digits-workflow_8cxx.html" target="_top" xlink:title="/home/travis/build\l/AliceO2Group/AliceO2\l/Detectors/MUON/MCH/Workflow\l/src/file&#45;to&#45;digits&#45;workflow.cxx">
<polygon fill="none" stroke="#000000" points="3188.5,-95 3188.5,-147 3362.5,-147 3362.5,-95 3188.5,-95"/>
<text text-anchor="start" x="3196.5" y="-135" font-family="Helvetica,sans-Serif" font-size="10.00" fill="#000000">/home/travis/build</text>
<text text-anchor="start" x="3196.5" y="-124" font-family="Helvetica,sans-Serif" font-size="10.00" fill="#000000">/AliceO2Group/AliceO2</text>
<text text-anchor="start" x="3196.5" y="-113" font-family="Helvetica,sans-Serif" font-size="10.00" fill="#000000">/Detectors/MUON/MCH/Workflow</text>
<text text-anchor="middle" x="3275.5" y="-102" font-family="Helvetica,sans-Serif" font-size="10.00" fill="#000000">/src/file&#45;to&#45;digits&#45;workflow.cxx</text>
</a>
</g>
</g>
<!-- Node11&#45;&gt;Node33 -->
<g id="edge24" class="edge">
<title>Node11&#45;&gt;Node33</title>
<path fill="none" stroke="#191970" d="M1987.854,-218.9653C2264.0244,-213.4878 2952.8637,-195.8458 3179.5,-153 3187.6997,-151.4498 3196.1615,-149.3733 3204.506,-147.019"/>
<polygon fill="#191970" stroke="#191970" points="1987.7353,-215.4668 1977.806,-219.1628 1987.8729,-222.4655 1987.7353,-215.4668"/>
</g>
<!-- Node34 -->
<g id="node24" class="node">
<title>Node34</title>
<g id="a_node24"><a xlink:href="../../d0/d5c/PreClusterSinkSpec_8cxx.html" target="_top" xlink:title="Implementation of a data processor to write preclusters. ">
<polygon fill="none" stroke="#000000" points="3380.5,-95 3380.5,-147 3554.5,-147 3554.5,-95 3380.5,-95"/>
<text text-anchor="start" x="3388.5" y="-135" font-family="Helvetica,sans-Serif" font-size="10.00" fill="#000000">/home/travis/build</text>
<text text-anchor="start" x="3388.5" y="-124" font-family="Helvetica,sans-Serif" font-size="10.00" fill="#000000">/AliceO2Group/AliceO2</text>
<text text-anchor="start" x="3388.5" y="-113" font-family="Helvetica,sans-Serif" font-size="10.00" fill="#000000">/Detectors/MUON/MCH/Workflow</text>
<text text-anchor="middle" x="3467.5" y="-102" font-family="Helvetica,sans-Serif" font-size="10.00" fill="#000000">/src/PreClusterSinkSpec.cxx</text>
</a>
</g>
</g>
<!-- Node11&#45;&gt;Node34 -->
<g id="edge25" class="edge">
<title>Node11&#45;&gt;Node34</title>
<path fill="none" stroke="#191970" d="M1987.699,-219.8736C2291.9518,-216.2622 3106.6679,-202.1568 3371.5,-153 3379.7048,-151.4771 3388.1698,-149.4176 3396.5162,-147.0731"/>
<polygon fill="#191970" stroke="#191970" points="1987.4893,-216.3757 1977.531,-219.9926 1987.5713,-223.3753 1987.4893,-216.3757"/>
</g>
<!-- Node13 -->
<g id="node3" class="node">
<title>Node13</title>
<g id="a_node3"><a xlink:href="../../d0/dff/ClusterFinderOriginal_8cxx.html" target="_top" xlink:title="Definition of a class to reconstruct clusters with the original MLEM algorithm. ">
<polygon fill="none" stroke="#000000" points="0,-.5 0,-52.5 179,-52.5 179,-.5 0,-.5"/>
<text text-anchor="start" x="8" y="-40.5" font-family="Helvetica,sans-Serif" font-size="10.00" fill="#000000">/home/travis/build</text>
<text text-anchor="start" x="8" y="-29.5" font-family="Helvetica,sans-Serif" font-size="10.00" fill="#000000">/AliceO2Group/AliceO2</text>
<text text-anchor="start" x="8" y="-18.5" font-family="Helvetica,sans-Serif" font-size="10.00" fill="#000000">/Detectors/MUON/MCH/Clustering</text>
<text text-anchor="middle" x="89.5" y="-7.5" font-family="Helvetica,sans-Serif" font-size="10.00" fill="#000000">/src/ClusterFinderOriginal.cxx</text>
</a>
</g>
</g>
<!-- Node12&#45;&gt;Node13 -->
<g id="edge2" class="edge">
<title>Node12&#45;&gt;Node13</title>
<path fill="none" stroke="#191970" d="M147.8024,-82.1523C137.394,-72.217 126.4491,-61.7696 116.8891,-52.6442"/>
<polygon fill="#191970" stroke="#191970" points="145.6088,-84.8969 155.259,-89.27 150.4421,-79.8334 145.6088,-84.8969"/>
</g>
<!-- Node14 -->
<g id="node4" class="node">
<title>Node14</title>
<g id="a_node4"><a xlink:href="../../d1/d4a/ClusterFinderOriginalSpec_8cxx.html" target="_top" xlink:title="Implementation of a data processor to run the original MLEM cluster finder. ">
<polygon fill="none" stroke="#000000" points="197.5,-.5 197.5,-52.5 379.5,-52.5 379.5,-.5 197.5,-.5"/>
<text text-anchor="start" x="205.5" y="-40.5" font-family="Helvetica,sans-Serif" font-size="10.00" fill="#000000">/home/travis/build</text>
<text text-anchor="start" x="205.5" y="-29.5" font-family="Helvetica,sans-Serif" font-size="10.00" fill="#000000">/AliceO2Group/AliceO2</text>
<text text-anchor="start" x="205.5" y="-18.5" font-family="Helvetica,sans-Serif" font-size="10.00" fill="#000000">/Detectors/MUON/MCH/Workflow</text>
<text text-anchor="middle" x="288.5" y="-7.5" font-family="Helvetica,sans-Serif" font-size="10.00" fill="#000000">/src/ClusterFinderOriginalSpec.cxx</text>
</a>
</g>
</g>
<!-- Node12&#45;&gt;Node14 -->
<g id="edge3" class="edge">
<title>Node12&#45;&gt;Node14</title>
<path fill="none" stroke="#191970" d="M229.6087,-82.1523C240.1222,-72.217 251.1777,-61.7696 260.8342,-52.6442"/>
<polygon fill="#191970" stroke="#191970" points="226.9409,-79.8577 222.0767,-89.27 231.7488,-84.9454 226.9409,-79.8577"/>
</g>
<!-- Node19 -->
<g id="node9" class="node">
<title>Node19</title>
<g id="a_node9"><a xlink:href="../../de/de2/SegmentationContours_8cxx.html" target="_top" xlink:title="/home/travis/build\l/AliceO2Group/AliceO2\l/Detectors/MUON/MCH/Mapping\l/SegContour/src/SegmentationContours.cxx">
<polygon fill="none" stroke="#000000" points="840.5,-.5 840.5,-52.5 1068.5,-52.5 1068.5,-.5 840.5,-.5"/>
<text text-anchor="start" x="848.5" y="-40.5" font-family="Helvetica,sans-Serif" font-size="10.00" fill="#000000">/home/travis/build</text>
<text text-anchor="start" x="848.5" y="-29.5" font-family="Helvetica,sans-Serif" font-size="10.00" fill="#000000">/AliceO2Group/AliceO2</text>
<text text-anchor="start" x="848.5" y="-18.5" font-family="Helvetica,sans-Serif" font-size="10.00" fill="#000000">/Detectors/MUON/MCH/Mapping</text>
<text text-anchor="middle" x="954.5" y="-7.5" font-family="Helvetica,sans-Serif" font-size="10.00" fill="#000000">/SegContour/src/SegmentationContours.cxx</text>
</a>
</g>
</g>
<!-- Node18&#45;&gt;Node19 -->
<g id="edge8" class="edge">
<title>Node18&#45;&gt;Node19</title>
<path fill="none" stroke="#191970" d="M994.8649,-80.9926C987.7648,-71.4075 980.3631,-61.4152 973.866,-52.6442"/>
<polygon fill="#191970" stroke="#191970" points="992.2315,-83.3177 1000.9963,-89.27 997.8564,-79.1511 992.2315,-83.3177"/>
</g>
<!-- Node18&#45;&gt;Node20 -->
<g id="edge9" class="edge">
<title>Node18&#45;&gt;Node20</title>
<path fill="none" stroke="#191970" d="M1082.685,-83.5953C1098.802,-73.2344 1115.9471,-62.2126 1130.8313,-52.6442"/>
<polygon fill="#191970" stroke="#191970" points="1080.3769,-80.9182 1073.8578,-89.27 1084.1623,-86.8065 1080.3769,-80.9182"/>
</g>
<!-- Node25 -->
<g id="node15" class="node">
<title>Node25</title>
<g id="a_node15"><a xlink:href="../../d8/dfc/PreClusterFinder_8cxx.html" target="_top" xlink:title="/home/travis/build\l/AliceO2Group/AliceO2\l/Detectors/MUON/MCH/PreClustering\l/src/PreClusterFinder.cxx">
<polygon fill="none" stroke="#000000" points="1687.5,-.5 1687.5,-52.5 1881.5,-52.5 1881.5,-.5 1687.5,-.5"/>
<text text-anchor="start" x="1695.5" y="-40.5" font-family="Helvetica,sans-Serif" font-size="10.00" fill="#000000">/home/travis/build</text>
<text text-anchor="start" x="1695.5" y="-29.5" font-family="Helvetica,sans-Serif" font-size="10.00" fill="#000000">/AliceO2Group/AliceO2</text>
<text text-anchor="start" x="1695.5" y="-18.5" font-family="Helvetica,sans-Serif" font-size="10.00" fill="#000000">/Detectors/MUON/MCH/PreClustering</text>
<text text-anchor="middle" x="1784.5" y="-7.5" font-family="Helvetica,sans-Serif" font-size="10.00" fill="#000000">/src/PreClusterFinder.cxx</text>
</a>
</g>
</g>
<!-- Node24&#45;&gt;Node25 -->
<g id="edge15" class="edge">
<title>Node24&#45;&gt;Node25</title>
<path fill="none" stroke="#191970" d="M1840.4734,-87.2986C1830.0396,-75.9654 1818.56,-63.4962 1808.7271,-52.8157"/>
<polygon fill="#191970" stroke="#191970" points="1838.1485,-89.9409 1847.4966,-94.9273 1843.2984,-85.1997 1838.1485,-89.9409"/>
</g>
<!-- Node24&#45;&gt;Node26 -->
<g id="edge16" class="edge">
<title>Node24&#45;&gt;Node26</title>
<path fill="none" stroke="#191970" d="M1914.3557,-88.6011C1929.7973,-76.9272 1947.0199,-63.907 1961.6909,-52.8157"/>
<polygon fill="#191970" stroke="#191970" points="1911.854,-86.1047 1905.9877,-94.9273 1916.0754,-91.6886 1911.854,-86.1047"/>
</g>
</g>
</svg>
